<?xml version="1.0" encoding="utf-8"?>
<!-- Generator: Adobe Illustrator 27.7.0, SVG Export Plug-In . SVG Version: 6.00 Build 0)  -->
<svg version="1.1" id="Layer_1" xmlns="http://www.w3.org/2000/svg" xmlns:xlink="http://www.w3.org/1999/xlink" x="0px" y="0px"
	 viewBox="0 0 3500 3500" style="enable-background:new 0 0 3500 3500;" xml:space="preserve">
<style type="text/css">
	.st0{fill:#F17503;}
	.st1{fill:#045EA8;}
</style>
<path class="st0" d="M1061.4,755.7c362.3,534.5,720.7,1063.2,1081.8,1595.9c-12.6,3.6-19.8,7.4-27.1,7.4
	c-100.9,0.4-201.8-0.4-302.7,0.8c-26.2,0.3-40.2-12.9-53.2-32.3c-100.4-150.5-200.9-300.9-301.7-451.2
	c-119.2-177.8-238.7-355.4-358.2-532.9c-8.3-12.3-18.2-23.6-34.7-44.9c-6.8,12.1-10.8,20.7-16.1,28.5
	c-127.5,190.6-255,381.1-382.6,571.6c-87.6,130.8-175.3,261.6-263.1,392.3c-7.7,11.5-16,22.5-23.8,33.9c-9.3,13.8-22,19.3-38.7,19.3
	c-106.4-0.4-212.8-0.3-319.3-0.5c-5.3,0-10.6-2-22.1-4.2c8.4-15.1,14.5-28.2,22.4-40.1c127.3-189,254.9-377.7,382.1-566.8
	c74.8-111.2,148.7-222.9,223.3-334.2c137.7-205.3,275.5-410.5,413.4-615.8C1045.8,775.8,1050.9,769.6,1061.4,755.7L1061.4,755.7z"/>
<path class="st1" d="M1790.1,1274.9c-14.7,25.9-26.8,47.2-40.8,71.9c-8.7-9.9-15.2-16.2-20.5-23.5
	c-51.9-69.8-103.7-139.7-155.3-209.7c-23-31.2-23.1-31.7-0.7-64.3c64.9-94.5,130-188.8,195.3-283c5.3-7.7,12.4-14.2,20.8-23.6
	c18.2,25.5,35.6,48.5,51.6,72.4c107.3,160.8,214.2,321.9,321.4,482.7c115,172.3,230.9,344,345.1,516.7
	c80.5,121.6,190.6,198.6,334.2,223.5c143.7,24.9,273.8-9.9,388.9-99.7c17.2-13.4,33.6-27.8,52.9-43.8
	c68.2,68.6,134.2,135.2,200.5,201.5c13.3,13.3,9.4,22.3-3,34.1c-121.6,115.7-264.4,189-430.5,214.3
	c-232.1,35.3-441.8-20.6-626.2-164.8c-77.6-60.7-139.4-137.1-192.1-221.1c-88.8-141.4-180.2-281.3-270.7-421.7
	c-52.4-81.2-105.2-162.2-157.8-243.3C1800.4,1289,1797.1,1284.7,1790.1,1274.9L1790.1,1274.9z"/>
<path class="st1" d="M2461,1380.9c-8.4-9.2-14.5-14.5-18.8-21c-53.9-80.2-107.2-160.7-161.5-240.7c-10.8-16-11.6-27.2,0.9-43.8
	c124.2-164.7,287.1-268.5,489-308.7c202.2-40.2,392.9-5.5,568.6,101.8c52.6,32.1,98.6,74.9,147.5,113c15.9,12.4,18.6,25.5,3,41.3
	c-65.1,65.6-129.7,131.6-198,201c-128.5-134.1-283.6-185.8-460.6-153.3C2653.4,1103.1,2534.5,1214.5,2461,1380.9L2461,1380.9z"/>
<path class="st1" d="M1117.7,1748.6c45.6,70,86.1,132.3,126.6,194.6c12.1,18.5,22.9,38,36.4,55.3c13.4,17.2,11.6,30.8-0.5,47.9
	c-43.6,62.2-86,125.2-128.9,187.9c-20.2,29.6-41,58.9-60.5,89.1c-9.1,14-19.6,21.5-37,21.4c-102.2-0.6-204.5-0.5-306.7-0.8
	c-3.9,0-7.8-2.1-17.6-4.8c60.8-101.7,128-196.8,191.7-294.1C984.7,1948.3,1049.1,1852.1,1117.7,1748.6L1117.7,1748.6z"/>
<path class="st0" d="M2779.6,1561.7c0-44.1-0.7-88.3,0.2-132.4c1.1-59,39.5-83.7,91.1-55.3c82.1,45.1,162.8,92.7,243,141
	c40.8,24.6,39.7,72.2-2,97c-80.5,47.9-161.7,94.7-243.4,140.6c-46.2,25.9-86.9,2.5-88.5-50.3c-1.4-46.8-0.3-93.8-0.3-140.7
	L2779.6,1561.7L2779.6,1561.7z"/>
<path class="st0" d="M2497.9,2625.2c0-31.7-0.6-63.5,0.2-95.2c0.7-27.7,3.5-31,31.8-30.5c33,0.5,65.9,3.5,98.8,5
	c8.1,0.4,16.2-0.4,24.3-1.2c6.8-0.7,13.5-2.7,20.4-3.4c79.6-7.9,105.7,15.8,105.8,96c0,44.2,0.6,88.4-0.6,132.5
	c-0.7,24.1-22.6,37.2-38.4,23.4c-6.8-6-9.9-19.2-10.1-29.2c-1.1-45.5-0.6-91.1-0.5-136.6c0.1-18.2-3.8-32.8-25.5-35.7
	c-26.1-3.5-39.4,6-40,33c-1,45.5,0,91.1-0.5,136.6c-0.1,9.4-0.3,21.1-5.6,27.4c-5,5.9-18.5,10.2-25.2,7.5
	c-8-3.2-17.6-14.4-18.1-22.6c-2-38.6-1.1-77.2-1.2-115.9c0-9.7,0.3-19.3-0.2-29c-1.4-29.2-8.2-36.9-32.2-37.4
	c-24.6-0.4-32.4,7.1-33.1,35.9c-0.9,37.2-0.4,74.5-0.4,111.8c0,8.3,0.3,16.6-0.1,24.8c-1.2,26.4-7.4,34.3-25.6,33.5
	c-24-1-23.9-18.5-23.9-35.6C2497.9,2688.7,2498,2656.9,2497.9,2625.2L2497.9,2625.2z"/>
<path class="st0" d="M3065,2496.4c17.2,3.9,36.3,4.4,51.2,12.6c11.8,6.5,20.8,21.3,26.5,34.4c5.2,11.8,8.6,28.9-7.6,36.2
	c-14.7,6.6-30.7,4.9-38.4-12.8c-7.8-18-23.3-19.5-38-15.9c-8.5,2.1-18.8,11.1-21.5,19.3c-4.2,12.7,2.3,24.5,17.1,27.9
	c6.6,1.5,13.7,1.5,20.5,2.3c58.1,6.9,79,35.8,70.4,97.5c-5.5,39.9-42,62.5-90.8,56.2c-43.2-5.6-61.7-19.4-68.9-53.6
	c-1.8-8.4-0.7-24.7,2.6-25.6c10.7-3.2,23.7-3.3,34.5-0.1c6.4,1.8,9.7,12.6,15.4,18.4c13.9,14.2,35.6,16.2,48.5,5.2
	c14.1-12,10.6-37.8-7.1-44.3c-8.8-3.2-18.9-2.8-28.4-3.7c-28-2.6-51.3-13.3-62.1-40.6c-11.8-29.8-10.8-59.9,8.2-86.8
	C3013.5,2499.7,3039.2,2499.3,3065,2496.4L3065,2496.4z"/>
<path class="st0" d="M2962.4,2626.2c0,33.1,0.8,66.2-0.2,99.3c-0.8,26.3-7.2,31.3-32.7,30c-23.1-1.2-46.4-1-69.3-4.2
	c-39.2-5.4-59.2-22.4-61.4-60.1c-3.3-56.3-1.5-113-1.7-169.5c-0.1-18.4,11.5-22.8,27.4-22.4c15.8,0.4,22,8.9,22,23.6
	c0.1,48.3,0.4,96.5,0.2,144.8c-0.1,16.7,4.2,29.8,22,35.1c24.7,7.4,43.1-5.1,43.7-32.2c1-46.9,0.3-93.8,0.5-140.6
	c0.1-14-0.4-28.2,19.3-30.4c19.6-2.2,29.2,3.6,29.9,23.4C2963.1,2557.3,2962.3,2591.8,2962.4,2626.2L2962.4,2626.2z"/>
<path class="st0" d="M3236,2625.3c0-20.7-1-41.5,0.2-62.1c2.1-35.1,21.1-57.3,55.4-62.1c18.9-2.6,38.8-2.4,57.7,0.5
	c23.1,3.6,40.3,17.4,47.6,41c4.1,13.4,9,28.3-7.2,36.4c-13.3,6.7-26.9,4.7-36.6-8.9c-3.9-5.5-7.4-12.3-12.8-15.6
	c-25.5-15.8-53-0.4-54,30.3c-0.9,26.2-0.1,52.5-0.2,78.7c-0.1,17.4,1.3,33.8,22.1,39.2c19.4,5.1,35.3,2.7,44.4-18.4
	c2.4-5.6,8.2-11.6,13.8-13.7c19.1-7.2,36.3,7.7,33.3,28c-4.8,32.5-34.4,56.4-76.3,56.7c-56.8,0.4-90.5-27.2-87.7-80.2
	c0.9-16.5,0.1-33.1,0.1-49.7L3236,2625.3L3236,2625.3z"/>
<path class="st0" d="M3168.2,2629.4c0-34.4,0.3-68.9-0.1-103.4c-0.2-19.1,8.3-27.3,27.6-26.9c18.9,0.5,22.8,11.6,22.7,27.2
	c-0.1,67.5-0.1,135.1,0,202.6c0,18.8-9.1,27.7-27.9,27.4s-22.3-12.4-22.3-27.7C3168.2,2695.6,3168.2,2662.5,3168.2,2629.4
	L3168.2,2629.4z"/>
<path class="st0" d="M3191.8,2426.8c18.5-0.1,26.8,9.3,26.4,28.7c-0.4,16-8.8,21.3-23.7,21.4c-16.6,0.1-26.1-5.6-26.1-23.7
	C3168.5,2437.1,3173.5,2426.3,3191.8,2426.8z"/>
</svg>
