<svg xmlns="http://www.w3.org/2000/svg" xmlns:xlink="http://www.w3.org/1999/xlink" width="312" zoomAndPan="magnify" viewBox="0 0 234 233.999995" height="312" preserveAspectRatio="xMidYMid meet" version="1.0"><path fill="#018ac0" d="M 104.507812 64.355469 L 104.507812 131.285156 C 104.507812 131.703125 104.488281 132.117188 104.449219 132.53125 C 104.410156 132.945312 104.351562 133.355469 104.277344 133.761719 C 104.203125 134.171875 104.105469 134.574219 103.992188 134.976562 C 103.878906 135.375 103.746094 135.769531 103.597656 136.15625 C 103.449219 136.542969 103.28125 136.921875 103.09375 137.292969 C 102.910156 137.664062 102.707031 138.027344 102.488281 138.382812 C 102.273438 138.734375 102.039062 139.078125 101.789062 139.410156 C 101.539062 139.742188 101.273438 140.058594 100.992188 140.367188 C 100.714844 140.675781 100.421875 140.96875 100.113281 141.246094 C 99.808594 141.527344 99.488281 141.792969 99.15625 142.042969 C 98.828125 142.292969 98.484375 142.527344 98.132812 142.746094 C 97.78125 142.964844 97.417969 143.167969 97.046875 143.351562 C 96.675781 143.539062 96.292969 143.703125 95.90625 143.855469 C 95.519531 144.003906 95.128906 144.136719 94.730469 144.25 C 94.332031 144.363281 93.925781 144.460938 93.519531 144.535156 C 93.113281 144.613281 92.699219 144.667969 92.289062 144.707031 C 91.875 144.746094 91.460938 144.765625 91.046875 144.765625 C 90.457031 144.765625 89.871094 144.726562 89.289062 144.648438 C 88.707031 144.574219 88.128906 144.457031 87.5625 144.304688 C 86.992188 144.152344 86.4375 143.964844 85.894531 143.738281 C 85.351562 143.515625 84.824219 143.253906 84.316406 142.960938 C 84.117188 142.84375 83.9375 142.703125 83.746094 142.578125 C 83.570312 143.277344 83.378906 143.972656 83.171875 144.660156 C 82.953125 145.382812 82.714844 146.097656 82.460938 146.808594 C 82.210938 147.515625 81.9375 148.21875 81.648438 148.917969 C 81.363281 149.613281 81.058594 150.300781 80.734375 150.984375 C 80.414062 151.664062 80.074219 152.339844 79.71875 153.003906 C 79.363281 153.667969 78.992188 154.324219 78.605469 154.972656 C 78.21875 155.617188 77.816406 156.253906 77.398438 156.882812 C 76.980469 157.507812 76.546875 158.125 76.097656 158.730469 C 75.648438 159.335938 75.1875 159.929688 74.707031 160.511719 C 74.230469 161.09375 73.738281 161.667969 73.234375 162.226562 C 72.726562 162.785156 72.207031 163.328125 71.675781 163.863281 C 71.5625 163.972656 71.445312 164.085938 71.328125 164.195312 C 71.300781 164.21875 71.273438 164.242188 71.25 164.269531 C 72.015625 164.730469 72.792969 165.175781 73.59375 165.582031 C 74.492188 166.039062 75.40625 166.464844 76.335938 166.847656 C 77.261719 167.234375 78.207031 167.582031 79.167969 167.894531 C 80.125 168.207031 81.09375 168.480469 82.070312 168.714844 C 83.050781 168.949219 84.039062 169.148438 85.03125 169.304688 C 86.027344 169.460938 87.027344 169.582031 88.027344 169.660156 C 89.03125 169.738281 90.039062 169.777344 91.046875 169.777344 C 91.738281 169.777344 92.433594 169.757812 93.125 169.722656 C 93.820312 169.683594 94.511719 169.628906 95.203125 169.550781 C 95.890625 169.476562 96.578125 169.382812 97.265625 169.269531 C 97.949219 169.160156 98.632812 169.027344 99.308594 168.878906 C 99.988281 168.730469 100.660156 168.5625 101.328125 168.375 C 102 168.1875 102.660156 167.984375 103.320312 167.761719 C 103.976562 167.542969 104.628906 167.300781 105.273438 167.042969 C 105.917969 166.789062 106.554688 166.511719 107.1875 166.21875 C 107.816406 165.929688 108.4375 165.621094 109.050781 165.292969 C 109.664062 164.96875 110.269531 164.625 110.863281 164.269531 C 111.457031 163.910156 112.042969 163.535156 112.617188 163.144531 C 113.191406 162.753906 113.757812 162.351562 114.308594 161.929688 C 114.863281 161.507812 115.402344 161.074219 115.933594 160.625 C 116.460938 160.171875 116.976562 159.710938 117.480469 159.230469 C 117.984375 158.753906 118.476562 158.261719 118.953125 157.757812 C 119.429688 157.253906 119.894531 156.734375 120.34375 156.207031 C 120.792969 155.675781 121.226562 155.132812 121.648438 154.582031 C 122.066406 154.027344 122.472656 153.460938 122.863281 152.886719 C 123.253906 152.3125 123.625 151.726562 123.984375 151.132812 C 124.34375 150.535156 124.683594 149.929688 125.007812 149.316406 C 125.332031 148.703125 125.640625 148.078125 125.933594 147.449219 C 126.226562 146.816406 126.5 146.179688 126.757812 145.535156 C 127.011719 144.886719 127.253906 144.234375 127.472656 143.578125 C 127.695312 142.917969 127.898438 142.253906 128.085938 141.582031 C 128.269531 140.914062 128.4375 140.238281 128.589844 139.558594 C 128.738281 138.882812 128.867188 138.199219 128.980469 137.511719 C 129.09375 136.828125 129.1875 136.136719 129.261719 135.449219 C 129.335938 134.757812 129.390625 134.0625 129.429688 133.371094 C 129.46875 132.675781 129.488281 131.980469 129.488281 131.285156 L 129.488281 64.355469 Z M 194.855469 92.792969 L 194.851562 92.792969 C 193.84375 92.792969 192.835938 92.835938 191.835938 92.914062 C 190.832031 92.992188 189.832031 93.109375 188.835938 93.269531 C 187.84375 93.425781 186.855469 93.621094 185.875 93.859375 C 184.898438 94.09375 183.929688 94.367188 182.972656 94.679688 C 182.011719 94.988281 181.070312 95.339844 180.140625 95.722656 C 179.210938 96.109375 178.296875 96.53125 177.398438 96.988281 C 176.5 97.449219 175.621094 97.941406 174.765625 98.464844 C 173.90625 98.992188 173.070312 99.554688 172.253906 100.144531 C 171.082031 101.039062 169.960938 101.996094 168.898438 103.015625 C 168.480469 103.359375 168.070312 103.710938 167.667969 104.070312 C 166.957031 104.78125 166.273438 105.523438 165.617188 106.289062 C 164.964844 107.054688 164.34375 107.84375 163.75 108.660156 C 163.160156 109.476562 162.597656 110.316406 162.074219 111.175781 C 161.546875 112.03125 161.054688 112.914062 160.597656 113.8125 C 160.140625 114.710938 159.71875 115.625 159.335938 116.554688 C 158.949219 117.488281 158.601562 118.433594 158.289062 119.390625 C 157.980469 120.351562 157.707031 121.320312 157.472656 122.300781 C 157.234375 123.28125 157.039062 124.269531 156.882812 125.265625 C 156.726562 126.261719 156.605469 127.261719 156.527344 128.265625 C 156.449219 129.269531 156.410156 130.273438 156.410156 131.28125 L 156.410156 131.289062 C 156.410156 131.703125 156.390625 132.117188 156.351562 132.53125 C 156.3125 132.941406 156.253906 133.355469 156.179688 133.761719 C 156.101562 134.171875 156.007812 134.574219 155.894531 134.972656 C 155.78125 135.375 155.648438 135.765625 155.5 136.15625 C 155.351562 136.542969 155.183594 136.921875 154.996094 137.292969 C 154.8125 137.664062 154.609375 138.027344 154.394531 138.382812 C 154.175781 138.734375 153.941406 139.078125 153.691406 139.410156 C 153.441406 139.738281 153.175781 140.058594 152.894531 140.367188 C 152.617188 140.671875 152.324219 140.96875 152.015625 141.246094 C 151.710938 141.527344 151.390625 141.792969 151.058594 142.042969 C 150.730469 142.292969 150.386719 142.527344 150.035156 142.746094 C 149.679688 142.964844 149.320312 143.167969 148.949219 143.351562 C 148.578125 143.535156 148.195312 143.703125 147.8125 143.855469 C 147.425781 144.003906 147.03125 144.136719 146.632812 144.25 C 146.234375 144.363281 145.828125 144.457031 145.421875 144.535156 C 145.011719 144.609375 144.601562 144.667969 144.191406 144.707031 C 143.777344 144.746094 143.363281 144.765625 142.949219 144.765625 C 142.359375 144.765625 141.773438 144.726562 141.191406 144.648438 C 140.609375 144.574219 140.03125 144.457031 139.464844 144.304688 C 138.894531 144.152344 138.339844 143.964844 137.796875 143.738281 C 137.253906 143.511719 136.726562 143.253906 136.21875 142.957031 C 136.027344 142.820312 135.84375 142.679688 135.660156 142.53125 C 135.480469 143.246094 135.285156 143.953125 135.074219 144.660156 C 134.855469 145.378906 134.617188 146.097656 134.363281 146.804688 C 134.109375 147.515625 133.839844 148.21875 133.550781 148.914062 C 133.265625 149.613281 132.957031 150.300781 132.636719 150.984375 C 132.316406 151.664062 131.976562 152.335938 131.621094 153.003906 C 131.265625 153.667969 130.894531 154.324219 130.507812 154.96875 C 130.121094 155.617188 129.71875 156.253906 129.300781 156.878906 C 128.882812 157.507812 128.449219 158.125 128 158.730469 C 127.550781 159.335938 127.089844 159.929688 126.609375 160.511719 C 126.132812 161.09375 125.640625 161.664062 125.136719 162.222656 C 124.628906 162.78125 124.109375 163.328125 123.578125 163.863281 C 123.464844 163.972656 123.347656 164.082031 123.230469 164.191406 C 123.96875 164.683594 124.726562 165.144531 125.496094 165.582031 C 126.394531 166.039062 127.308594 166.460938 128.238281 166.847656 C 129.167969 167.234375 130.109375 167.582031 131.070312 167.894531 C 132.027344 168.207031 132.996094 168.480469 133.972656 168.714844 C 134.953125 168.949219 135.941406 169.144531 136.933594 169.304688 C 137.929688 169.460938 138.929688 169.582031 139.933594 169.660156 C 140.933594 169.738281 141.941406 169.777344 142.949219 169.777344 C 143.667969 169.777344 144.386719 169.757812 145.101562 169.71875 C 145.820312 169.675781 146.539062 169.617188 147.25 169.535156 C 147.964844 169.457031 148.679688 169.355469 149.386719 169.234375 C 150.097656 169.113281 150.800781 168.972656 151.5 168.8125 C 152.203125 168.652344 152.898438 168.472656 153.589844 168.273438 C 154.28125 168.074219 154.964844 167.855469 155.644531 167.617188 C 156.324219 167.378906 156.996094 167.121094 157.660156 166.847656 C 158.324219 166.570312 158.980469 166.277344 159.625 165.964844 C 160.273438 165.652344 160.914062 165.324219 161.542969 164.976562 C 162.171875 164.625 162.792969 164.261719 163.398438 163.878906 C 164.007812 163.496094 164.605469 163.09375 165.191406 162.679688 C 165.777344 162.261719 166.351562 161.828125 166.914062 161.378906 C 167.476562 160.929688 168.027344 160.464844 168.5625 159.988281 C 168.695312 159.863281 168.828125 159.734375 168.960938 159.609375 C 169.359375 159.25 169.75 158.878906 170.128906 158.503906 C 170.621094 158.007812 171.101562 157.5 171.566406 156.980469 C 171.710938 156.816406 171.855469 156.648438 171.996094 156.480469 C 172.308594 156.121094 172.613281 155.757812 172.914062 155.390625 C 173.082031 155.175781 173.25 154.957031 173.414062 154.738281 C 173.671875 154.402344 173.925781 154.066406 174.175781 153.722656 C 174.34375 153.480469 174.511719 153.238281 174.675781 152.992188 C 174.902344 152.664062 175.125 152.332031 175.34375 151.996094 C 175.503906 151.738281 175.667969 151.472656 175.824219 151.210938 C 176.027344 150.875 176.226562 150.535156 176.421875 150.191406 C 176.570312 149.929688 176.714844 149.660156 176.855469 149.390625 C 177.042969 149.042969 177.222656 148.695312 177.398438 148.339844 C 177.535156 148.066406 177.667969 147.789062 177.792969 147.511719 C 177.960938 147.15625 178.117188 146.800781 178.273438 146.441406 C 178.394531 146.15625 178.515625 145.867188 178.628906 145.578125 C 178.773438 145.214844 178.914062 144.851562 179.046875 144.484375 C 179.152344 144.199219 179.253906 143.910156 179.351562 143.621094 C 179.476562 143.246094 179.597656 142.875 179.710938 142.496094 C 179.800781 142.203125 179.886719 141.90625 179.972656 141.613281 C 180.078125 141.226562 180.175781 140.84375 180.269531 140.457031 C 180.339844 140.167969 180.410156 139.878906 180.476562 139.589844 C 180.5625 139.191406 180.640625 138.792969 180.714844 138.390625 C 180.773438 138.101562 180.824219 137.816406 180.875 137.527344 C 180.941406 137.113281 181 136.695312 181.050781 136.277344 C 181.089844 136.007812 181.125 135.734375 181.160156 135.457031 C 181.210938 134.96875 181.25 134.476562 181.28125 133.988281 C 181.300781 133.785156 181.316406 133.585938 181.328125 133.386719 C 181.367188 132.6875 181.386719 131.984375 181.390625 131.285156 C 181.390625 130.695312 181.429688 130.109375 181.503906 129.527344 C 181.582031 128.945312 181.695312 128.367188 181.847656 127.796875 C 182 127.226562 182.1875 126.671875 182.414062 126.128906 C 182.636719 125.585938 182.898438 125.054688 183.191406 124.546875 C 183.488281 124.035156 183.8125 123.546875 184.171875 123.082031 C 184.527344 122.613281 184.914062 122.171875 185.332031 121.753906 C 185.746094 121.335938 186.191406 120.949219 186.65625 120.59375 C 187.121094 120.234375 187.609375 119.90625 188.121094 119.613281 C 188.628906 119.316406 189.15625 119.058594 189.699219 118.832031 C 190.242188 118.609375 190.796875 118.417969 191.367188 118.265625 C 191.933594 118.113281 192.511719 118 193.09375 117.921875 C 193.675781 117.84375 194.261719 117.804688 194.851562 117.804688 C 195.242188 117.804688 195.632812 117.824219 196.023438 117.859375 C 196.414062 117.890625 196.800781 117.941406 197.1875 118.011719 C 197.574219 118.078125 197.957031 118.164062 198.335938 118.265625 C 198.710938 118.367188 199.085938 118.484375 199.453125 118.621094 C 199.820312 118.753906 200.183594 118.902344 200.539062 119.070312 C 200.894531 119.234375 201.242188 119.417969 201.582031 119.613281 C 201.917969 119.808594 202.25 120.019531 202.570312 120.242188 C 202.890625 120.46875 203.203125 120.707031 203.503906 120.960938 C 203.804688 121.210938 204.09375 121.476562 204.367188 121.753906 C 204.644531 122.03125 204.910156 122.320312 205.164062 122.621094 C 205.414062 122.921875 205.652344 123.234375 205.878906 123.554688 C 206.101562 123.875 206.3125 124.207031 206.507812 124.546875 C 206.703125 124.886719 206.882812 125.234375 207.050781 125.589844 C 207.214844 125.945312 207.367188 126.308594 207.5 126.675781 C 207.632812 127.042969 207.75 127.417969 207.851562 127.796875 C 207.953125 128.175781 208.039062 128.558594 208.105469 128.945312 C 208.175781 129.332031 208.226562 129.71875 208.261719 130.109375 C 208.292969 130.5 208.3125 130.894531 208.3125 131.285156 C 208.3125 131.675781 208.292969 132.070312 208.261719 132.460938 C 208.226562 132.851562 208.175781 133.238281 208.105469 133.625 C 208.039062 134.011719 207.953125 134.394531 207.851562 134.773438 C 207.75 135.152344 207.632812 135.527344 207.5 135.894531 C 207.367188 136.265625 207.214844 136.625 207.050781 136.980469 C 206.882812 137.335938 206.703125 137.683594 206.507812 138.023438 C 206.3125 138.363281 206.101562 138.695312 205.878906 139.015625 C 205.652344 139.335938 205.414062 139.648438 205.164062 139.949219 C 204.910156 140.25 204.644531 140.539062 204.367188 140.816406 C 204.09375 141.09375 203.804688 141.359375 203.503906 141.609375 C 203.203125 141.863281 202.890625 142.101562 202.570312 142.328125 C 202.25 142.550781 201.917969 142.761719 201.582031 142.957031 C 201.242188 143.152344 200.894531 143.335938 200.539062 143.5 C 200.183594 143.667969 199.820312 143.816406 199.453125 143.953125 C 199.085938 144.085938 198.710938 144.203125 198.335938 144.304688 C 197.957031 144.40625 197.574219 144.492188 197.1875 144.558594 C 196.800781 144.628906 196.414062 144.679688 196.023438 144.710938 C 195.632812 144.746094 195.242188 144.765625 194.851562 144.765625 C 194.261719 144.765625 193.675781 144.726562 193.09375 144.648438 C 192.511719 144.574219 191.933594 144.457031 191.367188 144.304688 C 190.796875 144.152344 190.242188 143.964844 189.699219 143.738281 C 189.15625 143.511719 188.628906 143.253906 188.121094 142.957031 C 187.929688 142.820312 187.742188 142.675781 187.558594 142.527344 C 187.414062 143.109375 187.257812 143.6875 187.09375 144.265625 C 186.886719 144.964844 186.664062 145.664062 186.425781 146.351562 C 186.1875 147.042969 185.933594 147.730469 185.660156 148.40625 C 185.390625 149.085938 185.101562 149.757812 184.800781 150.421875 C 184.496094 151.089844 184.175781 151.746094 183.84375 152.394531 C 183.507812 153.046875 183.15625 153.6875 182.792969 154.320312 C 182.429688 154.953125 182.046875 155.578125 181.652344 156.191406 C 181.257812 156.808594 180.847656 157.414062 180.425781 158.007812 C 180.003906 158.605469 179.566406 159.1875 179.113281 159.765625 C 178.664062 160.339844 178.195312 160.902344 177.71875 161.453125 C 177.242188 162.007812 176.75 162.546875 176.246094 163.078125 C 175.882812 163.457031 175.511719 163.828125 175.132812 164.191406 C 175.871094 164.679688 176.628906 165.144531 177.398438 165.582031 C 178.296875 166.039062 179.210938 166.460938 180.140625 166.847656 C 181.070312 167.234375 182.011719 167.582031 182.972656 167.894531 C 183.929688 168.207031 184.898438 168.480469 185.875 168.714844 C 186.855469 168.949219 187.84375 169.144531 188.835938 169.304688 C 189.832031 169.460938 190.832031 169.582031 191.835938 169.660156 C 192.835938 169.738281 193.84375 169.777344 194.851562 169.777344 C 195.519531 169.777344 196.191406 169.757812 196.863281 169.722656 C 197.53125 169.6875 198.199219 169.636719 198.867188 169.566406 C 199.535156 169.496094 200.203125 169.410156 200.863281 169.304688 C 201.527344 169.199219 202.1875 169.074219 202.84375 168.9375 C 203.5 168.796875 204.152344 168.640625 204.800781 168.464844 C 205.449219 168.292969 206.089844 168.101562 206.730469 167.894531 C 207.367188 167.6875 208 167.460938 208.625 167.21875 C 209.253906 166.980469 209.871094 166.722656 210.484375 166.449219 C 211.097656 166.175781 211.703125 165.886719 212.300781 165.582031 C 212.898438 165.277344 213.488281 164.957031 214.070312 164.621094 C 214.652344 164.285156 215.222656 163.933594 215.785156 163.566406 C 216.347656 163.203125 216.902344 162.820312 217.445312 162.425781 C 217.988281 162.03125 218.519531 161.621094 219.042969 161.199219 C 219.5625 160.777344 220.074219 160.339844 220.570312 159.890625 C 221.070312 159.441406 221.558594 158.976562 222.03125 158.503906 C 222.507812 158.027344 222.96875 157.539062 223.417969 157.042969 C 223.867188 156.542969 224.300781 156.03125 224.722656 155.507812 C 225.148438 154.988281 225.554688 154.453125 225.949219 153.910156 C 226.34375 153.367188 226.722656 152.8125 227.089844 152.25 C 227.453125 151.6875 227.804688 151.113281 228.140625 150.53125 C 228.476562 149.949219 228.796875 149.359375 229.101562 148.761719 C 229.40625 148.160156 229.695312 147.554688 229.96875 146.941406 C 230.242188 146.328125 230.496094 145.707031 230.738281 145.078125 C 230.980469 144.453125 231.203125 143.820312 231.410156 143.179688 C 231.617188 142.539062 231.808594 141.898438 231.980469 141.246094 C 232.15625 140.597656 232.3125 139.945312 232.453125 139.289062 C 232.589844 138.632812 232.714844 137.96875 232.816406 137.308594 C 232.921875 136.644531 233.011719 135.976562 233.082031 135.308594 C 233.152344 134.640625 233.203125 133.96875 233.238281 133.300781 L 233.242188 133.242188 L 233.25 133.132812 L 233.253906 133.074219 L 233.261719 132.964844 L 233.261719 132.910156 L 233.265625 132.851562 L 233.269531 132.796875 L 233.269531 132.742188 L 233.273438 132.683594 L 233.273438 132.628906 L 233.277344 132.574219 L 233.277344 132.515625 L 233.28125 132.460938 L 233.28125 132.347656 L 233.285156 132.292969 L 233.285156 132.238281 L 233.289062 132.179688 L 233.289062 132.070312 L 233.292969 132.011719 L 233.292969 131.734375 L 233.296875 131.675781 L 233.296875 131.285156 C 233.296875 130.277344 233.257812 129.269531 233.179688 128.265625 C 233.101562 127.261719 232.980469 126.257812 232.824219 125.261719 C 232.667969 124.269531 232.46875 123.277344 232.234375 122.300781 C 232 121.320312 231.726562 120.347656 231.414062 119.390625 C 231.105469 118.429688 230.757812 117.484375 230.371094 116.554688 C 229.988281 115.625 229.566406 114.707031 229.109375 113.808594 C 228.648438 112.910156 228.160156 112.03125 227.632812 111.171875 C 227.105469 110.3125 226.546875 109.476562 225.957031 108.660156 C 225.363281 107.84375 224.742188 107.050781 224.085938 106.285156 C 223.433594 105.519531 222.75 104.78125 222.039062 104.066406 C 221.324219 103.355469 220.585938 102.671875 219.820312 102.015625 C 219.058594 101.363281 218.265625 100.738281 217.453125 100.144531 C 216.636719 99.550781 215.800781 98.992188 214.941406 98.464844 C 214.085938 97.9375 213.207031 97.445312 212.308594 96.988281 C 211.410156 96.53125 210.496094 96.109375 209.566406 95.722656 C 208.636719 95.339844 207.691406 94.988281 206.734375 94.675781 C 205.777344 94.367188 204.808594 94.09375 203.828125 93.855469 C 202.851562 93.621094 201.863281 93.425781 200.871094 93.265625 C 199.875 93.109375 198.875 92.992188 197.871094 92.910156 C 196.871094 92.832031 195.863281 92.792969 194.855469 92.792969 Z M 39.144531 92.792969 C 38.136719 92.792969 37.128906 92.835938 36.128906 92.914062 C 35.125 92.992188 34.125 93.109375 33.128906 93.269531 C 32.136719 93.425781 31.148438 93.621094 30.167969 93.859375 C 29.191406 94.09375 28.222656 94.367188 27.265625 94.679688 C 26.308594 94.988281 25.363281 95.339844 24.433594 95.722656 C 23.503906 96.109375 22.589844 96.53125 21.691406 96.988281 C 20.792969 97.449219 19.914062 97.941406 19.058594 98.464844 C 18.199219 98.992188 17.363281 99.554688 16.546875 100.144531 C 15.734375 100.738281 14.941406 101.363281 14.179688 102.015625 C 13.414062 102.671875 12.671875 103.355469 11.960938 104.070312 C 11.25 104.78125 10.566406 105.523438 9.914062 106.289062 C 9.257812 107.054688 8.636719 107.84375 8.042969 108.660156 C 7.453125 109.476562 6.894531 110.316406 6.367188 111.175781 C 5.839844 112.03125 5.347656 112.914062 4.890625 113.8125 C 4.433594 114.710938 4.011719 115.625 3.628906 116.554688 C 3.242188 117.488281 2.894531 118.433594 2.582031 119.390625 C 2.273438 120.351562 2 121.320312 1.765625 122.300781 C 1.53125 123.28125 1.332031 124.269531 1.175781 125.265625 C 1.019531 126.261719 0.898438 127.261719 0.820312 128.265625 C 0.742188 129.269531 0.703125 130.277344 0.703125 131.285156 C 0.703125 132.292969 0.742188 133.300781 0.820312 134.304688 C 0.898438 135.3125 1.019531 136.3125 1.175781 137.308594 C 1.332031 138.304688 1.527344 139.292969 1.765625 140.273438 C 2 141.25 2.273438 142.222656 2.582031 143.179688 C 2.894531 144.140625 3.242188 145.085938 3.628906 146.015625 C 4.011719 146.949219 4.433594 147.863281 4.890625 148.761719 C 5.347656 149.660156 5.839844 150.539062 6.367188 151.398438 C 6.890625 152.257812 7.453125 153.097656 8.042969 153.910156 C 8.636719 154.726562 9.257812 155.519531 9.914062 156.285156 C 10.566406 157.050781 11.25 157.792969 11.960938 158.503906 C 12.671875 159.21875 13.414062 159.902344 14.175781 160.554688 C 14.941406 161.210938 15.734375 161.835938 16.546875 162.429688 C 17.363281 163.019531 18.199219 163.582031 19.058594 164.105469 C 19.914062 164.632812 20.792969 165.125 21.691406 165.582031 C 22.589844 166.042969 23.503906 166.464844 24.433594 166.847656 C 25.363281 167.234375 26.308594 167.582031 27.265625 167.894531 C 28.222656 168.207031 29.191406 168.480469 30.167969 168.714844 C 31.148438 168.949219 32.136719 169.148438 33.128906 169.304688 C 34.125 169.460938 35.125 169.582031 36.128906 169.660156 C 37.128906 169.738281 38.136719 169.777344 39.144531 169.777344 C 39.835938 169.777344 40.53125 169.761719 41.226562 169.722656 C 41.917969 169.683594 42.609375 169.628906 43.300781 169.554688 C 43.988281 169.476562 44.675781 169.382812 45.363281 169.273438 C 46.046875 169.160156 46.730469 169.027344 47.40625 168.878906 C 48.085938 168.730469 48.757812 168.5625 49.429688 168.375 C 50.097656 168.191406 50.761719 167.984375 51.417969 167.765625 C 52.074219 167.542969 52.726562 167.300781 53.371094 167.046875 C 54.015625 166.789062 54.65625 166.511719 55.285156 166.222656 C 55.914062 165.929688 56.535156 165.621094 57.148438 165.292969 C 57.761719 164.96875 58.367188 164.628906 58.960938 164.269531 C 59.558594 163.910156 60.140625 163.535156 60.714844 163.144531 C 61.289062 162.757812 61.855469 162.351562 62.40625 161.929688 C 62.960938 161.507812 63.5 161.074219 64.03125 160.625 C 64.398438 160.3125 64.75 159.984375 65.105469 159.65625 C 65.109375 159.65625 65.109375 159.65625 65.109375 159.65625 C 65.125 159.640625 65.144531 159.625 65.160156 159.609375 C 65.300781 159.484375 65.445312 159.359375 65.582031 159.230469 C 66.085938 158.753906 66.578125 158.261719 67.054688 157.757812 C 67.53125 157.253906 67.996094 156.734375 68.445312 156.207031 C 68.894531 155.675781 69.332031 155.132812 69.75 154.582031 C 70.171875 154.027344 70.574219 153.460938 70.964844 152.886719 C 71.355469 152.3125 71.730469 151.726562 72.085938 151.128906 C 72.445312 150.535156 72.785156 149.929688 73.109375 149.316406 C 73.4375 148.703125 73.746094 148.078125 74.035156 147.449219 C 74.328125 146.816406 74.601562 146.179688 74.859375 145.535156 C 75.117188 144.886719 75.355469 144.234375 75.578125 143.578125 C 75.796875 142.917969 76.003906 142.253906 76.1875 141.582031 C 76.375 140.914062 76.539062 140.238281 76.691406 139.558594 C 76.839844 138.882812 76.96875 138.199219 77.082031 137.511719 C 77.195312 136.828125 77.289062 136.136719 77.363281 135.449219 C 77.4375 134.757812 77.496094 134.0625 77.53125 133.371094 C 77.570312 132.6875 77.585938 132.007812 77.585938 131.324219 C 77.585938 131.3125 77.585938 131.300781 77.585938 131.289062 C 77.585938 131.289062 77.585938 131.289062 77.585938 131.285156 C 77.585938 131.285156 77.585938 131.28125 77.585938 131.28125 C 77.585938 130.691406 77.625 130.105469 77.699219 129.527344 C 77.777344 128.941406 77.890625 128.367188 78.042969 127.796875 C 78.195312 127.226562 78.386719 126.667969 78.609375 126.125 C 78.832031 125.582031 79.09375 125.054688 79.386719 124.546875 C 79.683594 124.035156 80.007812 123.546875 80.367188 123.078125 C 80.722656 122.613281 81.113281 122.171875 81.527344 121.753906 C 81.941406 121.335938 82.386719 120.949219 82.851562 120.589844 C 83.316406 120.234375 83.804688 119.90625 84.316406 119.613281 C 84.824219 119.316406 85.351562 119.058594 85.894531 118.832031 C 86.4375 118.605469 86.992188 118.417969 87.5625 118.265625 C 88.128906 118.113281 88.707031 118 89.289062 117.921875 C 89.871094 117.84375 90.457031 117.804688 91.046875 117.804688 C 91.460938 117.804688 91.875 117.824219 92.289062 117.863281 C 92.699219 117.902344 93.113281 117.960938 93.519531 118.035156 C 93.925781 118.113281 94.332031 118.207031 94.730469 118.320312 C 95.128906 118.433594 95.523438 118.566406 95.90625 118.714844 C 96.257812 118.851562 96.601562 119.007812 96.9375 119.171875 L 96.9375 93.253906 C 95.984375 93.105469 95.023438 92.988281 94.0625 92.914062 C 93.058594 92.835938 92.054688 92.792969 91.046875 92.792969 C 90.039062 92.792969 89.03125 92.835938 88.03125 92.914062 C 87.027344 92.992188 86.027344 93.109375 85.03125 93.269531 C 84.039062 93.425781 83.050781 93.621094 82.070312 93.859375 C 81.09375 94.09375 80.125 94.367188 79.167969 94.679688 C 78.210938 94.988281 77.265625 95.339844 76.335938 95.722656 C 75.40625 96.109375 74.492188 96.53125 73.59375 96.988281 C 72.695312 97.449219 71.816406 97.941406 70.960938 98.464844 C 70.101562 98.992188 69.265625 99.554688 68.449219 100.144531 C 67.636719 100.738281 66.84375 101.363281 66.082031 102.015625 C 65.738281 102.308594 65.425781 102.625 65.09375 102.929688 C 64.683594 103.308594 64.257812 103.671875 63.863281 104.070312 C 63.152344 104.78125 62.46875 105.523438 61.816406 106.289062 C 61.160156 107.054688 60.539062 107.84375 59.945312 108.660156 C 59.355469 109.476562 58.796875 110.316406 58.269531 111.175781 C 57.742188 112.03125 57.25 112.914062 56.792969 113.8125 C 56.335938 114.710938 55.914062 115.625 55.53125 116.554688 C 55.144531 117.488281 54.796875 118.433594 54.484375 119.390625 C 54.175781 120.351562 53.902344 121.320312 53.667969 122.300781 C 53.433594 123.28125 53.234375 124.269531 53.078125 125.265625 C 52.921875 126.261719 52.800781 127.261719 52.722656 128.265625 C 52.644531 129.269531 52.605469 130.273438 52.605469 131.28125 C 52.605469 131.28125 52.605469 131.285156 52.605469 131.285156 C 52.605469 131.289062 52.605469 131.289062 52.605469 131.292969 C 52.605469 131.703125 52.585938 132.117188 52.546875 132.527344 C 52.507812 132.941406 52.453125 133.355469 52.375 133.761719 C 52.300781 134.171875 52.203125 134.574219 52.089844 134.972656 C 51.976562 135.375 51.84375 135.765625 51.695312 136.152344 C 51.546875 136.542969 51.378906 136.921875 51.195312 137.292969 C 51.007812 137.664062 50.808594 138.027344 50.589844 138.378906 C 50.371094 138.734375 50.136719 139.078125 49.886719 139.40625 C 49.636719 139.738281 49.371094 140.058594 49.089844 140.367188 C 48.8125 140.671875 48.519531 140.964844 48.210938 141.246094 C 47.90625 141.527344 47.585938 141.792969 47.257812 142.042969 C 46.925781 142.292969 46.582031 142.527344 46.230469 142.746094 C 45.878906 142.964844 45.515625 143.164062 45.144531 143.351562 C 44.773438 143.535156 44.394531 143.703125 44.007812 143.855469 C 43.621094 144.003906 43.226562 144.136719 42.828125 144.25 C 42.429688 144.363281 42.023438 144.457031 41.617188 144.535156 C 41.210938 144.609375 40.796875 144.667969 40.386719 144.707031 C 39.972656 144.746094 39.558594 144.765625 39.144531 144.765625 C 38.554688 144.765625 37.96875 144.726562 37.386719 144.648438 C 36.804688 144.570312 36.226562 144.457031 35.660156 144.304688 C 35.089844 144.152344 34.535156 143.964844 33.992188 143.738281 C 33.449219 143.511719 32.921875 143.253906 32.414062 142.957031 C 31.902344 142.664062 31.414062 142.335938 30.949219 141.980469 C 30.484375 141.621094 30.042969 141.234375 29.625 140.816406 C 29.210938 140.398438 28.820312 139.957031 28.464844 139.492188 C 28.105469 139.023438 27.78125 138.535156 27.484375 138.023438 C 27.191406 137.515625 26.933594 136.984375 26.707031 136.441406 C 26.484375 135.898438 26.292969 135.34375 26.140625 134.773438 C 25.988281 134.203125 25.875 133.628906 25.796875 133.042969 C 25.722656 132.460938 25.683594 131.875 25.683594 131.285156 C 25.683594 130.695312 25.722656 130.109375 25.796875 129.527344 C 25.875 128.941406 25.988281 128.367188 26.140625 127.796875 C 26.292969 127.226562 26.484375 126.667969 26.707031 126.125 C 26.933594 125.582031 27.191406 125.054688 27.484375 124.546875 C 27.78125 124.035156 28.105469 123.546875 28.464844 123.078125 C 28.820312 122.613281 29.210938 122.171875 29.625 121.753906 C 30.042969 121.335938 30.484375 120.949219 30.949219 120.589844 C 31.414062 120.234375 31.902344 119.90625 32.414062 119.613281 C 32.921875 119.316406 33.449219 119.058594 33.992188 118.832031 C 34.535156 118.605469 35.089844 118.417969 35.660156 118.265625 C 36.226562 118.113281 36.804688 118 37.386719 117.921875 C 37.96875 117.84375 38.554688 117.804688 39.144531 117.804688 C 39.558594 117.804688 39.972656 117.824219 40.386719 117.863281 C 40.796875 117.902344 41.210938 117.960938 41.617188 118.035156 C 42.023438 118.113281 42.429688 118.207031 42.828125 118.320312 C 43.226562 118.433594 43.621094 118.566406 44.007812 118.714844 C 44.394531 118.867188 44.773438 119.035156 45.144531 119.21875 C 45.515625 119.402344 45.878906 119.605469 46.230469 119.824219 C 46.3125 119.875 46.386719 119.9375 46.46875 119.988281 C 46.609375 119.425781 46.734375 118.859375 46.898438 118.304688 C 47.207031 117.253906 47.550781 116.210938 47.933594 115.183594 C 48.316406 114.15625 48.734375 113.144531 49.191406 112.144531 C 49.644531 111.148438 50.136719 110.167969 50.660156 109.207031 C 51.183594 108.242188 51.746094 107.300781 52.335938 106.375 C 52.929688 105.453125 53.554688 104.554688 54.210938 103.675781 C 54.867188 102.796875 55.554688 101.945312 56.269531 101.113281 C 56.988281 100.285156 57.734375 99.484375 58.507812 98.707031 C 58.648438 98.566406 58.800781 98.441406 58.941406 98.304688 C 58.175781 97.839844 57.394531 97.394531 56.597656 96.988281 C 55.699219 96.53125 54.785156 96.109375 53.855469 95.722656 C 52.925781 95.335938 51.980469 94.988281 51.023438 94.675781 C 50.066406 94.367188 49.097656 94.09375 48.117188 93.855469 C 47.140625 93.621094 46.152344 93.425781 45.15625 93.265625 C 44.164062 93.109375 43.164062 92.992188 42.160156 92.910156 C 41.15625 92.832031 40.152344 92.792969 39.144531 92.792969 Z M 39.144531 92.792969 " fill-opacity="1" fill-rule="evenodd"/></svg>