<?xml version="1.0" encoding="utf-8"?>
<!-- Generator: Adobe Illustrator 27.7.0, SVG Export Plug-In . SVG Version: 6.00 Build 0)  -->
<svg version="1.1" id="Layer_1" xmlns="http://www.w3.org/2000/svg" xmlns:xlink="http://www.w3.org/1999/xlink" x="0px" y="0px"
	 viewBox="0 0 3500 3500" style="enable-background:new 0 0 3500 3500;" xml:space="preserve">
<style type="text/css">
	.st0{fill:#024DDE;}
	.st1{fill:url(#SVGID_1_);}
	.st2{fill:#FFFFFF;}
</style>
<rect class="st0" width="3500" height="3500"/>
<linearGradient id="SVGID_1_" gradientUnits="userSpaceOnUse" x1="728.0601" y1="-1749.9999" x2="2766.78" y2="-1749.9999" gradientTransform="matrix(1 0 0 -1 0 0)">
	<stop  offset="0.19" style="stop-color:#27DFF8;stop-opacity:0"/>
	<stop  offset="0.48" style="stop-color:#27DFF8"/>
	<stop  offset="0.87" style="stop-color:#27DFF8;stop-opacity:0"/>
</linearGradient>
<path class="st1" d="M1747.4,730.6c-563,0-1019.4,456.4-1019.4,1019.4s456.4,1019.4,1019.4,1019.4S2766.8,2313,2766.8,1750
	S2310.4,730.6,1747.4,730.6L1747.4,730.6z M1747.4,2591.6c-464.8,0-841.6-376.8-841.6-841.6s376.8-841.6,841.6-841.6
	S2589,1285.2,2589,1750S2212.2,2591.6,1747.4,2591.6z"/>
<path class="st2" d="M944.2,1403.3c5-50.2,85.7-175.6,168.6-259.5c141.3-143.1,312.3-230.3,511.2-255.3
	c409.6-51.5,760.8,190.5,890.4,483.4c-110.9-40.7-222.5-41.7-334-27.1c-61.2,8-122.5,20.5-181.9,45.4V2127c26,7.7,138.4,8.9,181,1.3
	v-666c47.8-19,94.4-25.4,142.1-22.6c18.1,1.1,36.3,5.2,53.7,10.3c53.9,15.9,83.8,53.7,84.8,109.9c1.4,78.2,0.8,156.4,0.9,234.7
	c0.1,99,0.1,198,0.1,297c0,12,0,24.1,0,38.2c16.6,2.1,30.6,3.9,44.9,5.7c-100.6,238.1-412.7,492.7-810,475.8
	c-366.7-15.6-655.3-268.8-745.6-505c176.5,64.5,349.7,49.7,522.8-8.8c1.3-11.4,3-19.6,3-27.9c0.1-152.8,0.6-305.6-0.2-458.3
	c-0.3-66.2-21.6-124.8-72.2-170c-39.4-35.2-87.2-53.2-138.3-62.2c-94.2-16.7-187.1-6.9-279,17.2c-12.9,3.4-26,6.1-39.1,8.9
	C946.4,1405.3,945.2,1404,944.2,1403.3L944.2,1403.3z M1615.8,1489.3c0,18,0,31.1,0,44.2c0,130.7-0.4,261.3,0.4,392
	c0.2,25.4,2.1,51.4,7.9,76.1c12.7,54.2,46.1,92.5,96.4,117.1c52.9,25.9,108.8,25.4,164.8,20c16.9-1.6,37.3-1.5,49-17v-96.8
	c-22.2,0-41.6,0.6-60.9-0.2c-27.9-1.1-50-13.5-60.9-39.5c-6.9-16.4-12.8-34.7-13-52.2c-1-136.8-0.6-273.5-0.4-410.3
	c0-9.3,2.1-18.7,3.6-31.7c44.9-1.1,88-2.2,132.2-3.2v-101.9h-133.9c-1.7-31.8-3.1-59.1-4.5-85.6c-54.4-6.5-152.5-4.6-181.6,3.9v80.8
	c-47.6,1.1-91.6,2-139.8,3.1c17.3,37.2,31.9,68.8,47,101.2H1615.8L1615.8,1489.3z"/>
<path class="st2" d="M2690.7,2384.1c-38.6-32.8-77.4-65.6-118.9-100.8c131.7-157.2,197.3-338.1,197.9-539.3
	c0.6-200.1-63.1-380.6-193.7-538.9c41.7-35.4,81.1-68.9,120.5-102.3C3028.9,1471.1,2990.9,2074.1,2690.7,2384.1L2690.7,2384.1z"/>
<path class="st2" d="M868.3,1809c-5.9-93.2-0.2-181.1,23.5-268.2c59.4-22.5,118.1-42.6,179.6-52.1c34.7-5.3,70.4-9.5,105.2-7.1
	c100.1,6.8,125.2,52.1,130,133.7c0.6,9.3-1.8,18.9-3.1,30.7c-26.4,3.7-51.3,7.8-76.3,10.7c-81.3,9.3-160.6,25.4-236.3,58.1
	c-38.8,16.8-72,40.3-100.9,70.6C883.4,1792.2,877.3,1799.2,868.3,1809L868.3,1809z"/>
<path class="st2" d="M1304.4,1730.5v298.9c-19.1,17.2-43.3,17.3-65.6,20.8c-51.3,8-103.2,7.5-150.6-15.8
	c-101.4-49.8-92.5-193.3-8-245.2c29.1-17.8,59.1-33.9,93.6-40.1c29.9-5.3,59.5-13,89.4-18.2
	C1275,1728.8,1287.4,1730.5,1304.4,1730.5L1304.4,1730.5z"/>
<path class="st2" d="M475.5,2070.4c-27.2-103.9-40.6-212.4-40.2-325.8c1.1-297.1,96.8-561.1,289.9-790.8
	c-41.9-36.1-80.4-69.3-121-104.2C277.4,1223.1,212,1716.1,323,2126L475.5,2070.4L475.5,2070.4z"/>
<path class="st2" d="M344,2196.4c56,170.9,143.4,324.4,255.5,444.8c19.2-16.1,38.7-32.2,58-48.6c20.2-17.2,40.2-34.6,61.2-52.7
	c-101.5-123.8-175.5-256.8-222.5-398.9L344,2196.4L344,2196.4z"/>
<g>
	<path class="st2" d="M3098.4,1148.2c-52.1-112.3-118.9-213.7-198-298.6c-19.2,16.1-38.7,32.2-58,48.6
		c-20.2,17.2-40.2,34.6-61.2,52.7c67.7,82.6,123.1,169.3,166.5,260.1L3098.4,1148.2L3098.4,1148.2z"/>
	<path class="st2" d="M2977.4,1278.2c58.9,145.9,88,301.8,87.4,468c-1.1,297.1-96.8,561.1-289.9,790.8
		c41.9,36.1,80.4,69.3,121,104.2c367.5-420,404.4-991.3,231.5-1425.6L2977.4,1278.2L2977.4,1278.2z"/>
</g>
<g>
	<path class="st2" d="M815.1,1379.7l-144.7-74.4c-162.7,326.3-138,782.5,133,1082.8c39.4-33.5,78.9-67,120.5-102.4
		c-130.6-158.3-194.3-338.8-193.7-538.9C730.7,1615.5,759,1492.8,815.1,1379.7L815.1,1379.7z"/>
	<path class="st2" d="M850.6,1315.5c22.7-37.1,48.4-73.2,77.6-108c-41.5-35.2-80.3-68-118.9-100.8c-39,40.2-73.4,85.4-103.3,134.3
		L850.6,1315.5z"/>
</g>
</svg>
