<?xml version="1.0" encoding="utf-8"?>
<!-- Generator: Adobe Illustrator 27.7.0, SVG Export Plug-In . SVG Version: 6.00 Build 0)  -->
<svg version="1.1" id="Layer_1" xmlns="http://www.w3.org/2000/svg" xmlns:xlink="http://www.w3.org/1999/xlink" x="0px" y="0px"
	 viewBox="0 0 3500 3500" style="enable-background:new 0 0 3500 3500;" xml:space="preserve">
<style type="text/css">
	.st0{fill:#FE0002;}
</style>
<g>
	<g>
		<path d="M951.2,1474.4c49-55.2,119.5-45.5,179.7-47.3c56.4-1.7,114.7,22.7,170.2,41.3c166.5,55.7,303,160,430.6,276.5
			c37.1,33.8,70.9,43.4,119.6,27.2c167.3-55.8,324.5-129,460.4-243.7c183.1-154.5,277.4-359.5,328.3-586.8
			c27.8-124,35-248.9,5.8-376.5c-47-205.1-207.8-341.5-418.1-340.7c-74.5,0.3-149.4,2.6-209.4,57.2c-10.4,9.5-19.3,20.6-26.7,28.5
			c55.7,17.9,111.6,27.9,159.7,52.9c92.3,48,135.9,153.1,112.2,247.6c-28.2,112.3-99,169.8-217.1,172.3
			c-41.3,0.9-83.5-0.6-123.8-8.7c-105-21-164.7-111.8-176.3-197.3c-37.2-272.3,157.2-421.9,345.2-459.1
			c173.6-34.4,348.3-35.1,511.7,50.7c213.2,112,319.4,289.8,328.5,530c5.2,137.2-0.2,272.8-53.7,400.4
			c-33,78.8-71.1,157.3-119.2,227.5c-142.2,207.2-325.1,370.5-559.6,466.3c-92.5,37.8-192.8,56.5-297.7,86.2
			c157.5,143.9,328.1,269.8,481.9,404.8c51-3.2,145.3,3.1,148.8,8.9c9.6-14.6,16.8-31.9,29.3-43.3c79.3-72,171.1-69.4,242.2,10.6
			c43.2,48.6,80.2,102.9,119.3,155.2c70.8,94.8,141.1,190,215.9,290.9c25-34.7,16-67.9,18.4-98.1c12.3-153.7,21.3-307.7,35.8-461.1
			c7.9-83.9,58-130.9,135.9-140.3c80.4-9.7,147.6,35.5,165.3,114.6c5.7,25.6,7.1,53.2,4.4,79.3c-19.8,194.6-41.1,389-62,583.5
			c-7,64.8-12.7,129.8-21.9,194.3c-10.7,75.4-47.9,130.8-121.3,162.4c-37.2,16-235.4-31.7-321.8-27.4
			c-127.3,6.3-255.1,2.4-382.7,4.2c-43.9,0.6-83.1-6.6-120.5-41.4c10.8,40.5,22.9,80.8,32,121.7c28.5,127.6-51.7,216.8-181.7,205.6
			c-70.1-6-105.3-50.1-124.5-110c-30.7-95.9-58.6-192.8-86.8-289.5c-25.7-88.2-49.8-176.8-75.5-264.9c-4.8-16.6-13.8-32.1-22.9-52.5
			c-62.4,17.4-121.3,36.8-181.5,49.8c-95.3,20.5-174.6-38.8-170.3-129c1.4-30.1,18.2-61.5,34.8-88c11.6-18.6,34.8-30,59.1-49.8
			c-274.7-228.6-547.1-455.4-832-692.5c0,451.9,0,889,0,1323.8c-67,17.9-781.1,20-902.1,4.8C-0.9,3043.7-7.1,338.6,10.4,216.3
			c4.8-3,9.5-8.6,14.3-8.7c278.6-5.7,557.3-10.9,835.9-15.9c14.4-0.3,28.9,2.7,52.6,5.1c1.7,32.9,4.6,64.3,4.6,95.7
			c0.3,359.3,0.2,718.6,0.3,1077.9c0,26.7-1.8,53.9,3.1,79.8c1.8,9.3,20.7,15.4,31.7,23c-47.4,34.3-45.4,80.6-32.6,138.8
			c46.1-52.2,87.1-98.7,136.3-154.3C1012.4,1464.6,981.8,1469.5,951.2,1474.4z M843.2,231.3c-275.2,0-540.3,0-807.7,0
			c0,59.3,0,113.6,0,167.9c271.7,0,537,0,807.7,0C843.2,342.1,843.2,290.4,843.2,231.3z M32.3,1741c276.8-0.2,546.9,0.3,824.2-0.3
			c-2.2-39.8-3.7-67.7-5.7-103.8c-224.8,0-442.3,0-659.3,0c-7.3-27.4-12.4-46.7-17.7-66.4c-48,0-93.2,0-141.6,0
			C32.3,1626.8,32.3,1676.4,32.3,1741z M36.4,1763.7c0,56.1,0,112.2,0,168.6c50.6,0,94,0,137.5,0c7.8-25.9,14.3-47.5,22-73
			c76.6,0,150.3,0,224.1,0c70.9,0,142,1.9,212.8-0.5c72.5-2.5,146.2,11.2,218.7-9.7c0-30,0-55.5,0-85.4
			C578.9,1763.7,310.9,1763.7,36.4,1763.7z M852.6,2975.2c-225.1,0-441,0-657.2,0c-10.3-23-18.2-40.8-24.9-55.8
			c-47.8,0-91,0-134.7,0c0,54.9,0,103.3,0,151.9c275.6,0,544.5,0,816.8,0C852.6,3039.8,852.6,3014.1,852.6,2975.2z M852.5,429
			c-165-17.5-759.4-10.8-818.8,8c0,46.7,0,93.1,0,144.5c47.6,0,90.9,0,138.1,0c7.1-16.5,15-34.6,26.3-60.7c213.2,0,427.8,0,644.7,0
			C846.4,486.1,849.2,460.1,852.5,429z M176.4,2502.7c5.2-28.6,9.7-53.6,15.9-87.2c221.8,0,439.8,0,657.1,0c3-83.3,3-83.4-57.9-86.5
			c-8.9-0.5-17.8-0.1-26.7-0.1c-216.6,0-433.2-0.2-649.8,0.2c-25.8,0.1-51.6,3.3-79.1,5.1c0,60.1,0,114.3,0,168.5
			C86.4,2502.7,130,2502.7,176.4,2502.7z M853.7,885.7c-76.5-3.4-149.9-1.3-223-1.7c-74.2-0.4-148.5,1.8-222.7-0.6
			c-72.8-2.4-146.9,11-217.2-8.9c-6.2-27.8-11.2-50.1-15.6-69.9c-50.4,0-96.1,0-140.3,0c0,59.4,0,111.5,0,165.3
			c271.8,0,538,0,807.1,0C845.7,942.8,848.9,919.8,853.7,885.7z M856.2,1082.6c-7.6-36.9-12.7-61.4-17.4-84.2
			c-272,0-536.8,0-802.8,0c0,59.3,0,113.3,0,167.9c50.4,0,93.7,0,139.7,0c5.7-28.6,10.7-53.5,16.7-83.7
			C411.7,1082.6,626.7,1082.6,856.2,1082.6z M1555.9,2174c65.2,53.6,125.6,103.1,188.6,154.8c76.9-88.1,148.3-170,223.9-256.6
			c-65-53.1-125.4-102.4-188.7-154.1C1702.5,2006.4,1631.1,2088,1555.9,2174z M173.1,2152.9c-47.9,0-91.3,0-139.2,0
			c0,53.5,0,102.2,0,150.1c90.2,15.9,747.6,13.9,816.4-2.1c0-24.6,0-49.5,0-83.6c-223.5,0-441.3,0-655.7,0
			C185.1,2189.2,178.9,2170.4,173.1,2152.9z M2398.2,2871c63.4,52.8,121.8,101.4,185.8,154.6c75.7-87.1,148.1-170.3,223.8-257.5
			c-66.6-55.3-125-103.7-185.8-154.2C2545.5,2701.8,2474.1,2783.9,2398.2,2871z M1364.8,1573.2c-84.3,78-148.7,168.8-228.3,250.7
			c64.8,55.6,119.8,112.2,193.3,150.1c72.7-83.9,142.1-163.9,216.8-250.1C1484.4,1672.3,1428,1625.6,1364.8,1573.2z M1346,2001.4
			c67.3,54.1,126.2,101.5,188.4,151.5c77.6-88.9,148.9-170.7,223-255.5c-66.4-54.5-125.5-103-187.6-153.9
			C1494.1,1830.8,1422.5,1913.3,1346,2001.4z M1113.3,1805.9c77.6-88.1,150.3-170.7,224.6-254.9c-34.5-29.3-60.3-54-88.8-74.8
			c-44.2-32.2-128-39.8-157.4-9.2c-56.5,58.8-116.7,115.5-158.6,191.2C993.2,1707.5,1049.7,1753.8,1113.3,1805.9z M1993.2,2091.9
			c-78.3,89.3-149.9,170.9-226,257.6c33.5,27.1,59.5,51,88.5,70.2c13.3,8.8,34.4,14.9,49,11c84.8-22.8,348.2-122.8,367.1-145.6
			C2211.8,2234.9,2060.4,2148.4,1993.2,2091.9z M2597.3,3056.1c42.7,10.7,66.9,20.2,91.7,22.2c38.3,3,77.5-3,115.5,1.7
			c76.9,9.6,131.1-18.8,167.6-89.8c-44.2-63.3-90.4-126.8-150.9-189.5C2747.5,2884.8,2679.9,2961.9,2597.3,3056.1z M193.8,1466.9
			c218.2,0,434.2,0,650.1-0.2c1.5,0,3.9-3.6,4.3-5.7c0.5-2.7-0.7-5.7-2.9-18.6c-216.1,0-434.1,0-651.5,0
			c-8.2-28.4-13.7-47.6-19.4-67.6c-48.3,0-93.7,0-140.3,0c0,59.2,0,111.4,0,167.5c48.4,0,92,0,139.1,0
			C178.6,1522.6,183.9,1503.2,193.8,1466.9z M847.6,2613.1c0-8.4,0.1-16.8,0.1-25.2c-27.9-1.4-55.9-3.9-83.8-3.9
			c-171.4-0.4-342.9-2.2-514.3,1.1c-46.6,0.9-67.2-20.9-77.4-54.7c-49.4,0-92.6,0-136.3,0c0,59.6,0,113.7,0,168.3
			c50.4,0,93.8,0,141.6,0c4.2-28.4,8-53.6,12.8-85.6C412.3,2613.1,630,2613.1,847.6,2613.1z M848,2806.5c0.3-8.5,0.5-17,0.8-25.4
			c-28-0.8-56-2.1-84-2.2c-163.3-0.2-326.6,0.6-489.9-0.7c-37.5-0.3-86.6,18.2-98-44.9c-1.1-5.8-19.9-11.6-30.5-11.8
			c-37.3-0.6-74.7,1.2-111.6,2.1c0,62.2,0,114.3,0,169.6c22.2,2.6,39.4,6.1,56.5,6.2c26.2,0.2,52.4-2,80.4-3.3
			c8.3-31.1,15.5-58.3,23.8-89.5C415.5,2806.5,631.8,2806.5,848,2806.5z M846,1275.3c0.5-9,0.9-18,1.3-27.1
			c-107.7-1.7-215.5-0.6-323.2-0.8c-109.3-0.2-218.6,0-325.8,0c-11.9-23.8-20.6-41.1-26.9-53.8c-49.6,0-92.7,0-136.2,0
			c0,55,0,103.8,0,154.3c49.7,0,93.4,0,138.3,0c7.5-24.8,14-46.4,21.8-72.6C414.3,1275.3,630.2,1275.3,846,1275.3z M2602.1,2590
			c-36.9-20.5-63.7-48.4-86.3-45.3c-65,8.9-131.3,21.9-189.4,59.3c22.6,74.7,43.6,144.2,68.1,225.3
			C2465.9,2747.1,2528.7,2674.6,2602.1,2590z M194.2,710.2c218.7-0.7,434.6,0.1,650.5-0.5c0-7-0.1-14.1-0.1-21.1
			c-217.2,0-434.5,0-650.1,0c-8.9-33.7-15.4-58.4-21.8-82.5c-47.7,0-90.7,0-137.3,0c0,59.7,0,113.7,0,169c49.9,0,93.6,0,139.2,0
			C180.4,756,185.3,739.5,194.2,710.2z M846.4,2044.1c0-5.8,0-11.7,0.1-17.5c-217,0-434.1,0-648.9,0c-11.4-29.9-19.3-50.6-25.6-66.8
			c-49.9,0-93.1,0-135.4,0c0,59.9,0,113.9,0,168c50.8,0,94.1,0,136,0c8.9-29.4,16.2-53.5,25.3-83.6
			C416.4,2044.1,631.4,2044.1,846.4,2044.1z"/>
		<path d="M3274.4,366.1c87.2-0.3,151.5,58.5,151.9,138.8c0.4,82.7-69.3,152.6-151.3,151.9c-84-0.7-148.9-61.4-151.4-141.4
			C3120.9,428.8,3184,366.4,3274.4,366.1z"/>
		<path d="M3274.9,829.3c79.6,0.5,147.1,73.1,147.6,158.7c0.4,68.4-82.4,143.6-156.7,142.2c-78.8-1.5-145.7-71.2-144.4-150.3
			C3122.9,894.2,3189.5,828.8,3274.9,829.3z"/>
	</g>
	<g>
		<path class="st0" d="M3198.3,2832.5c11.8-156.8,23.5-313.5,35.4-470.3c5.4-71.1,9.5-142.4,16.7-213.3
			c6.6-64.9,33.5-94.3,83.4-97.6c56.6-3.7,102.2,32.7,111.2,93.4c3.9,26,1,53.4-1.6,79.8c-15.5,156.4-31.4,312.9-48.1,469.2
			c-10.1,94.3-16.6,189.3-34.1,282.3c-23.6,125.6-157.7,165.7-249.9,76.1c-42.4-41.2-77.8-89.8-114.6-136.5
			c-125.1-158.9-249.7-318-373.6-477.8c-59.9-77.2-63-143.4-4.5-177.5c55.5-32.3,89.9-41.4,163,54.6
			c118.9,156.3,234.5,315,351.8,472.4c13.5,18.1,29.7,34.3,44.6,51.3C3184.7,2836.6,3191.5,2834.5,3198.3,2832.5z"/>
		<path class="st0" d="M2255.6,2562.5c57.7,196,111.6,378.1,164.5,560.4c11.5,39.8,21.8,80.3,27.9,121.1
			c6.1,41.1-5.1,77.5-48.8,94.2c-49.7,19-109.7,3.5-134.2-37.9c-14.9-25.1-25.4-53.6-33.6-81.8c-49.3-167.9-97.2-336.3-146.2-504.3
			c-9-31-20.9-61.1-33.7-98.1c-64.7,18.1-126.2,36.8-188.4,51.9c-28.1,6.8-58.4,11.1-87,8.4c-36.5-3.5-57.2-30.4-62-66.1
			c-4.6-34.2,3-66.3,35-85.2c17.7-10.4,37.9-17.3,57.7-23.1c196.2-57.3,392.5-114.3,589.1-170.4c22.4-6.4,46.7-9.9,69.9-9.1
			c46,1.7,79.1,31.7,86.9,74.5c8.5,46.7-16.6,74.6-56.6,88.3c-55.8,19.2-113.1,33.8-169.6,51.2
			C2305,2543.3,2283.9,2552.1,2255.6,2562.5z"/>
	</g>
</g>
</svg>
