<?xml version="1.0" encoding="utf-8"?>
<!-- Generator: Adobe Illustrator 27.7.0, SVG Export Plug-In . SVG Version: 6.00 Build 0)  -->
<svg version="1.1" id="Layer_1" xmlns="http://www.w3.org/2000/svg" xmlns:xlink="http://www.w3.org/1999/xlink" x="0px" y="0px"
	 viewBox="0 0 3500 3500" style="enable-background:new 0 0 3500 3500;" xml:space="preserve">
<style type="text/css">
	.st0{fill:#1458A0;}
	.st1{fill:#F7941E;}
</style>
<path class="st0" d="M472.4,1509.3c3.5-35.4,60.3-123.6,118.6-182.6c99.4-100.7,219.8-162.1,359.7-179.7
	c288.3-36.3,535.4,134,626.6,340.2c-78-28.6-156.6-29.4-235.1-19.1c-43.1,5.7-86.2,14.4-128,32v518.5c18.3,5.4,97.4,6.3,127.4,0.9
	v-468.7c33.7-13.4,66.4-17.9,100-15.9c12.7,0.8,25.5,3.6,37.8,7.2c37.9,11.2,59,37.8,59.7,77.3c0.9,55,0.6,110.1,0.6,165.1
	c0.1,69.7,0.1,139.3,0.1,209c0,8.5,0,16.9,0,26.9c11.7,1.5,21.5,2.8,31.6,4c-70.8,167.6-290.4,346.7-570,334.9
	c-258-10.9-461.2-189.1-524.7-355.4c124.2,45.4,246.1,35,367.9-6.2c0.9-8,2.1-13.8,2.1-19.7c0.1-107.5,0.4-215-0.1-322.6
	c-0.2-46.6-15.2-87.9-50.8-119.6c-27.8-24.8-61.4-37.4-97.4-43.8c-66.3-11.7-131.7-4.9-196.3,12.1c-9.1,2.4-18.3,4.3-27.5,6.3
	C473.9,1510.6,473.1,1509.7,472.4,1509.3L472.4,1509.3z M945,1569.8c0,12.7,0,21.9,0,31.1c0,92-0.3,183.9,0.3,275.9
	c0.1,17.9,1.5,36.2,5.5,53.5c8.9,38.2,32.4,65.1,67.8,82.4c37.2,18.2,76.6,17.8,116,14.1c11.9-1.2,26.2-1.1,34.5-11.9v-68.2
	c-15.6,0-29.3,0.4-42.9-0.1c-19.6-0.8-35.2-9.5-42.9-27.8c-4.8-11.6-9-24.4-9.1-36.8c-0.7-96.2-0.4-192.5-0.3-288.8
	c0-6.6,1.5-13.2,2.6-22.3c31.6-0.8,61.9-1.5,93-2.3V1497h-94.3c-1.2-22.3-2.2-41.6-3.1-60.2c-38.3-4.5-107.3-3.3-127.8,2.7v56.9
	c-33.5,0.8-64.5,1.4-98.4,2.2c12.2,26.2,22.5,48.4,33,71.2L945,1569.8L945,1569.8z"/>
<path class="st1" d="M2679.6,2039.3c-6.4-13-11.2-20.9-14.3-29.5c-24.3-67-48.3-134.1-72.4-201.2c-30.2-84-60.5-168.1-90.8-252.1
	c-2.3-6.4-5.5-12.6-8.4-18.8c-4.4-9.5-12.1-14.4-22.5-14.5c-58.4-0.1-116.7-0.1-174.6-0.1c-5.9,20.3-6.6,177.7-1.1,204.9
	c4.4,0.6,9.3,1.7,14.3,1.7c39.6,0.1,79.1-0.2,118.7-0.1c33.1,0.1,54.5-16.3,60.2-48c1.6-9.2,4.5-18.1,8.2-32.4
	c5.4,7.7,10.1,11.5,10.7,15.9c1.3,10.2,0.7,20.6,0.7,30.9c0,40.4,0.1,80.9-0.1,121.3c-0.1,8.7,2.6,19.2-12.5,24.9
	c-3.4-12.4-7.4-23.4-9.5-34.7c-5.3-29.2-25-44.2-51.8-45.6c-46.1-2.4-92.5-0.7-140.1-0.7c-0.9,6.2-2.2,11.1-2.2,15.9
	c-0.1,59.3,0,118.7,0.1,178.1c0,4.3-0.1,8.7,0.5,12.9c2.1,14.8,7.7,21.3,22.6,24c13.5,2.4,27.3,4.6,40.9,4.4
	c37.8-0.7,75.5-2.6,113.2-4.1c34-1.3,57.5-20.6,76.7-46.1c10.3-13.7,19-28.6,27.9-43.3c4.6-7.5,8.4-15,22.5-10.6
	c-15,43.5-29.6,86.1-43.9,127.3c-21.4,5-400.6,6-411.4,1.3c-1.6-0.7-2-4.1-3.3-7c6.8-8.5,16-5.3,23.9-5.7
	c34.3-1.8,49.9-16.7,52.3-50.9c0.5-6.8,0.4-13.8,0.4-20.6c0-118.7,0.2-237.4-0.2-356.1c-0.1-14.5-2.1-29.1-5.1-43.3
	c-1.5-6.9-6.3-14.3-11.7-19.1c-22.1-19.4-71-14-88.7,9.4c-3.5,4.6-6.6,10.5-7.2,16.1c-2.2,18.7-4.6,37.6-4.6,56.4
	c-0.4,134.2-0.2,268.4-0.2,402.6c0,9.2,0,18.5,0,27.6c-13.8,3.6-18.3-5.1-23.5-11.1c-22.5-26-44.7-52.2-66.5-78.7
	c-42.4-51.8-84.3-104-126.8-155.7c-43.6-53.1-87.5-105.8-131.4-158.6c-4.1-5-9.2-9.1-18.4-18.1c0,14.3,0,22.6,0,30.8
	c0,84.3-0.3,168.6,0.2,252.9c0.2,25.7,2.1,51.4,4.2,77.1c2,23.9,15.8,36.8,40.1,39c10,0.9,20.1,1,35.2,1.7
	c-5.8,7.2-8.2,10.6-11.2,13.5c-0.9,0.9-3.3,0.6-5,0.6c-54.2,0-108.4,0-162.6-0.3c-3,0-5.9-2.2-11.3-4.2c3.4-4.3,5.2-8.9,8.1-9.7
	c5.7-1.6,11.9-1,17.9-1.3c31.1-1.5,42.1-10.7,48.7-42.2c1.9-9.2,3.3-18.7,3.3-28c0.2-118.7-0.4-237.4,0.6-356.1
	c0.2-27.1-17.9-39.9-35.2-52.8c-16.4-12.3-35.8-20.3-57.2-21.7c-6.5-0.4-14.7,1.1-14.3-9.7c15.4-7.3,92.4-9.6,146.3-4.2
	c106.6,130.1,214.1,261.2,324.7,396.1c0.8-11.1,1.7-17.4,1.7-23.7c0.1-94.6,0.1-189.2-0.1-283.9c0-10.2-1.8-20.4-2.8-30.7
	c-2.7-28.9-17.8-42.3-50.1-44.1c-6-0.3-12.3,0.1-17.8-1.6c-2.6-0.8-3.8-6.1-5.8-9.7c21.5-5.6,546-8.8,630.4-4.2
	c4.7,0.3,9.2,2.1,17,4c-4.3,5.1-6.1,9.3-9.1,10.3c-5.6,2-11.9,1.6-17.6,3.2c-20.4,5.6-30,20.2-25.2,40.7
	c4.1,17.5,9.2,34.9,15.2,51.9c19.8,56.8,40.1,113.4,60.2,170c14.1,39.6,28.2,79.1,43.3,121.2c11.2-11.9,13.8-25.3,18.1-37.4
	c22.4-63.1,43.6-126.6,66.1-189.7c4.9-13.8,5.1-26.2-0.5-39.6c-10.6-25.3-20.3-51-30.3-76.5c-9.3-23.6-26.9-37.1-51.4-42
	c-6.6-1.3-14.1-1.2-13.3-11.1c17.2-6.4,176.1-8,209.4-1.8c-3.1,4.3-5.2,8.2-8.3,11c-1.6,1.4-4.9,0.8-7.5,1.2
	c-37.9,4.9-47.9,17.1-39.2,54.9c6.9,30,17.7,59.2,27.8,88.4c20.5,59.2,41.7,118.2,62.8,177.2c7.7,21.6,15.9,42.9,25.4,68.4
	c4-8.5,6.5-12.8,8.1-17.4c31.9-91.6,63.8-183.2,95.3-275c5.8-17,9.9-34.7,14-52.2c4.8-20.4-2.4-33.3-21.9-39.5
	c-8.9-2.8-18.7-2.8-27.6-5.5c-3.4-1.1-5.6-6.2-9.1-10.3c21.7-5.8,134.5-6.3,160.7-0.9c-2.7,4.3-4.6,10.6-7.2,10.9
	c-37.5,4.1-50.4,32-60.9,62.1c-31.6,90.8-63,181.7-94.7,272.4c-20.6,59.2-41.6,118.2-62.4,177.3c-1.7,4.8-3.7,9.4-5.3,13.4
	c-12.6,5.5-18.9,0.8-22.7-10c-5.1-14.6-10.8-29-16-43.5c-31.3-87.3-62.6-174.6-94-261.9c-1.3-3.7-3.9-7-8.1-14.3
	c-9.3,26.1-17.3,48.5-25.3,70.9c-7.8,21.9-15.4,43.8-23.2,65.6c-8.1,22.6-16.3,45.2-24.4,67.8c-7.8,21.8-14.8,44-23.6,65.4
	C2703.8,1992.9,2703.4,2018.5,2679.6,2039.3L2679.6,2039.3z"/>
<path class="st0" d="M233.1,1119.6c28.6,24.6,55.7,47.9,85.1,73.4c-135.9,161.6-203.2,347.4-204,556.5
	c-0.8,209.5,65.3,395.9,199.5,559.6c-14.8,12.8-28.9,25-43.1,37.1c-13.6,11.5-27.3,22.9-40.8,34.2
	C-44.3,2086.1-108.5,1510,233.1,1119.6L233.1,1119.6z"/>
<path class="st0" d="M377.4,1300.5c27.2,23.1,54.5,46.2,83.7,70.9c-92.7,110.6-138.9,237.9-139.3,379.5
	c-0.4,140.8,44.4,267.8,136.3,379.2c-29.3,24.9-57.1,48.5-84.8,72C139.4,1943,166.2,1518.7,377.4,1300.5L377.4,1300.5z"/>
<path class="st1" d="M3149.7,2037.8c-0.5-63.1-1.1-120.4,0.6-177.7c0.1-2.4,3.8-4.6,6.9-8.3c12.1,12.2,11.8,27.6,17,40.5
	c6.4,15.8,10.5,32.9,19,47.5c19.2,33.1,50.8,52.4,86.6,59.7c38.5,7.8,77.6,10,114.1-14.7c41.1-27.9,44.6-89.6,17.9-118
	c-14.5-15.4-31.5-29.4-49.6-40.4c-41-25-83.9-47-125.1-71.8c-19-11.4-37.5-24.7-53.2-40.3c-63.1-62.9-49.1-154.5,18.9-203.4
	c54.7-39.3,113.9-37.2,174.4-15.9c9.7,3.4,19,8.1,28.8,11.3c22.1,7.3,27.5,5,40.2-14.5c2.8-4.2,7-7.5,13.3-10.2
	c5.8,60.3,3.8,119.6,4.1,177.7c-11.2,4.2-13.7-0.1-15.6-6.9c-4.7-17.4-9.6-34.7-15.1-51.8c-17.9-55.8-88.4-96.4-148.2-87.6
	c-29.5,4.4-67.7,28.5-76,68c-5.6,26.6,3.1,48.3,21.1,65.3c16,15.2,34.8,28.1,54,39c43.2,24.7,87.8,47.1,131.1,71.5
	c27.9,15.7,50.2,37.1,68.1,64.7c24.5,37.8,24.2,110.3-14.7,154.1c-34.3,38.5-76.1,59.6-128.9,59.3c-37.3-0.2-73.8-1.5-108-18.5
	c-6-3-13.1-3.8-19.8-5.4c-29.4-7.1-30.5-6.5-48,18.4C3162.2,2031.8,3158.6,2032.7,3149.7,2037.8L3149.7,2037.8z"/>
<path class="st0" d="M418.9,1794.7c-4.1-65.6-0.1-127.4,16.5-188.7c41.8-15.8,83.1-30,126.4-36.6c24.4-3.8,49.6-6.7,74-5
	c70.5,4.8,88.1,36.6,91.5,94.1c0.4,6.6-1.3,13.3-2.2,21.6c-18.6,2.6-36.1,5.5-53.7,7.5c-57.2,6.5-113,17.8-166.3,40.9
	c-27.3,11.8-50.7,28.3-71,49.7C429.6,1782.9,425.3,1787.8,418.9,1794.7L418.9,1794.7z"/>
<path class="st0" d="M725.9,1739.5v210.3c-13.4,12.1-30.5,12.2-46.1,14.6c-36.1,5.6-72.6,5.3-106-11.1c-71.3-35-65.1-136-5.6-172.6
	c20.4-12.6,41.6-23.9,65.8-28.2c21.1-3.8,41.8-9.2,62.9-12.8C705.2,1738.3,713.9,1739.5,725.9,1739.5L725.9,1739.5z"/>
</svg>
