<?xml version="1.0" encoding="utf-8"?>
<!-- Generator: Adobe Illustrator 27.7.0, SVG Export Plug-In . SVG Version: 6.00 Build 0)  -->
<svg version="1.1" id="Layer_1" xmlns="http://www.w3.org/2000/svg" xmlns:xlink="http://www.w3.org/1999/xlink" x="0px" y="0px"
	 viewBox="0 0 3500 3500" style="enable-background:new 0 0 3500 3500;" xml:space="preserve">
<style type="text/css">
	.st0{fill:#D52122;}
	.st1{fill:#FFFFFF;}
</style>
<g>
	<rect class="st0" width="3500" height="3500"/>
	<g>
		<path class="st1" d="M1201.7,2103.5c-3-143.3,94-293.7,253.3-346.3c175.8-58.1,360.3,25.7,436.5,183.9
			c104.8,217.7-25.7,478.8-262.2,525.4c-146.9,28.9-294.8-35.5-371.8-159.3C1219.8,2246.7,1200.5,2181.3,1201.7,2103.5z
			 M1729.7,2127.1c3.9-2,6.9-3.3,9.7-5c64.9-39.3,70-144.5-1.4-195.3c-37-26.2-77.9-37.7-122.6-37.8c-67.7-0.2-135.5-0.2-203.2-0.1
			c-6.1,0-12.3,1.4-21,2.5c0,10.1,0,18.8,0,27.5c0.4,83.1,0.9,166.2,1.1,249.2c0.1,39.5-0.8,79-0.9,118.6c0,8.4,1.6,16.8,2.6,27.2
			c28.3,0,54,0.2,79.6,0c59.6-0.6,119.3-1.1,178.9-2.3c27.2-0.5,52.2-8.8,75-23.9c52.8-35,60.2-100.2,16.6-145.5
			C1740.2,2138.2,1736.4,2134.2,1729.7,2127.1z"/>
		<path class="st1" d="M2442.7,1991.5c0.8-102.6,81.8-199.9,201.8-198.2c116.4,1.7,198.2,92.9,197.6,202.5
			c-0.6,123.6-102.8,203.7-204.3,200.9C2528.2,2193.7,2441.7,2104,2442.7,1991.5z"/>
		<path class="st1" d="M1563.2,1908.8c22.8-7.2,45.2-3.1,67.2,0.1c30.1,4.3,57.2,16,79.2,38.1c32.7,32.8,42,71.8,28.5,115.4
			c-13.7,44.3-54.9,64.3-100.1,50.8c-7.9-2.4-15.4-9.6-25.4-3.6c-1.3,12.4,7.3,18.2,15.8,21.1c11.2,3.9,23.4,6.4,35.1,6.4
			c31.3,0,58.7,22.7,63,54c6.2,45.4-17.8,83.3-62.2,96c-32,9.1-64.8,10.1-99.5,6.5c-1.2-7.1-3.2-13.1-3.2-19.2
			c-0.2-116.9-0.1-233.7,0-350.6C1561.5,1919.1,1562.5,1914.4,1563.2,1908.8z"/>
		<path class="st1" d="M456.7,1039.1c0,1.1-0.1,2.2-0.1,3.2c-0.4,89.5-0.3,179-1.4,268.5c-0.3,27.3-1.8,54.9-6.5,81.7
			c-4.1,23.5-11.5,47-21.2,68.8c-12.9,29.3-33.6,53.6-63.5,67.1c-26.8,12.1-43.2,31.9-54,58.5c-20.9,51.5-43.1,102.4-64.6,153.7
			c-3,7.1-4.6,14.7-7.9,25.4c11.1,0.6,18.8,1.4,26.5,1.5c29,0.2,58.1-1.1,87.1,0.3c45.6,2.2,86-12.1,122.8-37
			c95.7-64.8,150-155.7,163.4-270c4.7-39.9,4.2-80.4,4.5-120.7c0.8-97.6,0.7-195.1,1-292.7c0-2.8,0-5.5,0-8.3L456.7,1039.1
			L456.7,1039.1z"/>
		<path class="st1" d="M3260.9,1118h-12.2c0.8-0.5,1.6-0.9,2.4-1.4c7.3-5.2,11.1-12.4,11.4-21.7c0.4-12.2-6.1-21.5-19.4-27.9
			l-10.1-5c-8-3.9-12-8.4-12-13.6c0-4.4,1.2-7.8,3.7-10.2c2.4-2.4,6.2-3.5,11.4-3.4c4.1,0,7.4,1.1,10.1,3.4c2.6,2.3,4.4,5,5.4,8.3h2
			c0.5-2.1,1.3-4.4,2.2-7.1c0.9-2.6,1.6-4.8,2.2-6.4c-2.4-2-5.6-3.6-9.5-4.7c-3.9-1.1-7.8-1.7-11.6-1.7c-7.2,0-13.1,1.3-17.9,3.9
			c-4.8,2.6-8.3,6.1-10.5,10.5s-3.4,9.2-3.4,14.3c0,7,1.8,12.6,5.5,16.9s9.4,8.1,17.1,11.5c6.5,2.6,11.1,5.3,13.8,8.1
			c2.7,2.8,4,6.1,4,10c0,4.1-1.5,7.5-4.5,10.2s-6.7,4-11.1,3.8c-10.2-0.3-16.5-5.2-18.9-14.8h-2.7c-0.8,5.4-2.1,11.1-3.9,17h-70.6
			c4.3-13.8,7.4-23.3,9.1-28.4c1.9-5.7,3.9-11.8,6.1-18.3c2.2-6.5,4.6-13.4,7.3-20.8c2.7-7.4,5.3-14.6,7.9-21.6
			c-1.1,0.1-2.1,0.2-3,0.2c-0.9,0.1-2.1,0.2-3.5,0.3c-1.3-0.2-2.3-0.3-3.2-0.3c-0.9-0.1-1.8-0.1-2.9-0.2
			c-5.2,20.6-11.9,43.2-20.3,68c-1.1-3.8-2.8-9.1-5-16c-2.3-6.8-4.2-12.8-5.9-17.7c-1.7-5-3.4-10.3-5.2-15.9
			c-1.8-5.6-3.6-11.7-5.4-18.3c-1,0.1-1.9,0.2-2.9,0.2c-0.9,0.1-2.3,0.2-4.1,0.3c-1.4-0.2-2.7-0.3-3.7-0.3c-1-0.1-2.1-0.1-3.3-0.2
			c-2.4,8.3-6.4,20.1-11.8,35.4c-5.4,15.3-9.2,26.1-11.4,32.6c-1.3-5.2-2.8-11.1-4.7-17.7c-1.9-6.6-3.4-12.2-4.6-16.6
			c-1.2-4.4-2.7-9.9-4.4-16.3c-1.7-6.4-3.1-12.2-4.4-17.4c-3.4,0.2-7.2,0.5-11.1,0.8c-4.9-0.4-8.6-0.6-11.1-0.8
			c3.2,9.8,6.3,19.8,9.4,30.1c3.1,10.3,6.4,21.9,10.1,34.8c2.9,10.1,5.1,18.2,6.7,24.2h-67.1c-0.1-0.6-0.1-1.1-0.2-1.7
			c0.2-1.7,0.6-3.8,1.1-6.4c-10.4,1.3-20.9,1.9-31.5,1.9v-34.5h14.3c6.6,0,12.1,0.5,16.4,1.4c-0.2-1.9-0.5-3.8-0.8-5.6
			c0.2-1.4,0.3-2.6,0.5-3.5c0.1-0.9,0.2-1.8,0.3-2.9c-3.4,0.8-7.7,1.2-13.1,1.2h-17.7v-29.1h4.5c8.4,0,17.4,0.6,26.8,1.8
			c-0.3-2.3-0.5-4.1-0.8-5.6c0.4-2.5,0.7-4.6,1.1-6.1h-52.1v89.1h-54.4V1029c-0.9,0.1-1.8,0.2-2.5,0.2c-0.8,0.1-1.8,0.2-3.1,0.3
			c-1.1-0.2-2-0.3-2.8-0.3c-0.8-0.1-1.6-0.1-2.5-0.2v63.8c-4.7-5.4-9.3-10.6-13.7-15.4c-4.4-4.8-9.4-10.2-14.9-16.1
			c-5.5-5.9-11.3-12-17.2-18.4c-5.9-6.4-10.2-11-12.7-13.8h-13.6v93.3c1.3-0.2,2.2-0.3,2.8-0.3c0.6-0.1,1.2-0.1,2-0.2
			c1,0.1,1.9,0.2,2.6,0.2c0.7,0.1,1.9,0.2,3.5,0.3v-65.8c4,4,8.2,8.3,12.6,13.1c4.4,4.7,9.4,10.1,14.9,16s11.1,12.2,16.9,18.5
			c4.4,4.8,8.6,9.5,12.6,14h-3.1c-11.8,36-40.2,97.3-51.3,109.9c-2.4-5.6-4.8-10.6-6.7-15.8c-10.3-28-20.3-56.1-30.7-84.1
			c-1.5-4.1-2.8-7.4-3.9-10.1h-91.1c-2.5-4-5-7.9-7.4-11.7c-3.3-5.1-6.5-10.1-9.4-14.8c-3-4.8-6.2-10-9.8-15.8
			c5.5-1.3,10.4-3.8,14.8-7.8s6.5-9.6,6.5-17c0-6.2-1.9-11.1-5.6-14.6c-2.6-2.7-5.5-4.6-8.7-5.8c-3.2-1.1-8-1.7-14.4-1.7h-34.3v89.1
			h-46.3l-36.2-90.3c-0.5,0.1-2.2,0.2-5.3,0.4c-0.5-0.1-1.3-0.2-2.3-0.2c-1,0-1.9-0.1-2.7-0.2l-37,90.3h-47.7V1029
			c-2.2,0.2-4,0.3-5.4,0.4c-1.4,0.1-3.1,0.2-5,0.4c-3.1-0.3-6.4-0.5-10.1-0.8v37c-3.9,0.2-10.5,0.5-19.7,0.8
			c-5.3-0.2-9.5-0.3-12.8-0.5c-3.3-0.1-6.4-0.2-9.2-0.3v-37c-3.6,0.6-7.1,0.8-10.3,0.8c-3,0-6.3-0.3-10.1-0.8v89.1h-47.9l-36.2-90.3
			c-0.5,0.1-2.2,0.2-5.3,0.4c-0.5-0.1-1.3-0.2-2.3-0.2c-1,0-1.9-0.1-2.7-0.2l-37,90.3h-59.5c5.3-2.4,9.1-5.6,11.6-9.6
			c2.5-4,3.7-8.5,3.7-13.5c0-4.9-1.2-9-3.5-12.3s-5.4-5.7-9.2-7.3s-7.7-2.4-11.8-2.7v-1.4c14.3-2.8,21.8-10,22.3-21.5
			c0.1-6.3-2.2-11.4-6.9-15.2c-4.7-3.8-10.9-5.6-18.6-5.6h-37v89.1h-2.6c0,13.2-0.1,26.3-0.8,39.4c-1.6,32.9-2.1,66-12.3,98
			c-30.2,95.5-78.8,179.7-151.2,249.8c-84.9,82.3-184.2,134.3-302.6,148.5c-102.3,12.2-199.2-5.8-291.2-51
			c-91.9-45.1-164.9-111.9-221.9-196.7c-5.7-8.5-12.3-16.5-19.5-26.1c-11.2,5.9-20.7,10.9-30.8,16.3c7.5,26.8,22.6,46.8,37.1,66.9
			c15.6,21.6,32.2,42.4,48,63.8c3,4.1,4.4,9.3,8.2,17.8c-11.4,0-19.3,0-27.1,0c-44.4,0-88.8-0.8-133.1,0.3
			c-36.6,0.9-66.8-11.9-89.1-40.2c-12.8-16.3-24-34.4-32.9-53.1c-16.5-35-19.3-73.1-19.3-111.2c-0.1-97.7,0.5-195.3,0.6-293
			c0-2.8-0.1-5.6-0.3-8.4H688c0,3.5,0,6.9,0,10.3c0.2,118.6,1.2,237.3,0.3,355.9c-0.4,50.7,7.1,99.7,21.3,147.9
			c15.6,53.3,39.4,102.6,78.8,142.6c51.9,52.7,113.4,83.7,189.5,82.1c61.3-1.3,122.6-0.4,184-0.2c8.2,0,17.4-2.2,25.9,4.8
			c-9-3.6-115.7,157.7-106.9,162.5c8.7,4.7,16.6,9.1,25.5,13.9c6.7-10.2,12.1-18.2,17.2-26.3c83.1-130.9,251.3-221.5,403.3-235.4
			c84-7.7,165.6,5,243.7,38.1c60.1,25.5,114.4,60,159.8,107c50.8,52.5,92.2,112.2,124.3,177.8c22.4,45.6,42.7,92.2,50.9,143
			c1.9,11.5,6.3,22.7,9.8,34.9c13.3-1.8,24.1-3.2,35.8-4.8c0-13.6,1.6-25.1-0.3-35.9c-6.4-36.5-11.5-73.5-21.6-109
			c-26-91.5-66.8-176.2-123.9-252.8c-3.1-4.2-5.3-9.2-9.8-17c17.5-0.4,31.8-1,46-1c319.5,0.3,639,0.2,958.6,1.2
			c107.9,0.3,202.3-60.8,241.5-174.2c12.8-36.9,18.6-75.1,18.9-114c0.7-112.2,0.8-224.3,1.3-336.5c0-7.2,1.2-14.5,0.7-21.7
			C3262.1,1127.6,3261.6,1122.8,3260.9,1118z M2635.9,1036.4h4.8c5.4,0,9.5,1.1,12.4,3.3c2.9,2.2,4.4,6.8,4.4,14
			c-0.3,13.9-7.4,20.3-21.5,19.2L2635.9,1036.4L2635.9,1036.4z M2635.9,1078.7h0.9c1.5,2.5,5.1,8.6,10.6,18.3
			c4.4,7.8,8.4,14.8,11.9,21h-23.5L2635.9,1078.7L2635.9,1078.7z M2522.6,1054l12.2,31.5h-25L2522.6,1054z M2498.9,1114.3
			c1.2-3.5,2.2-6.4,3.1-8.8c0.9-2.4,2.2-6.2,4.1-11.3h31.8c3.1,8.1,5.8,16.1,8.2,23.9h-48.4
			C2498,1116.9,2498.4,1115.7,2498.9,1114.3z M2375.7,1076.8c10-0.4,16.8-0.6,20.5-0.6c2.7,0,9.8,0.2,21.2,0.6v41.2h-41.7V1076.8z
			 M2260.9,1054l12.2,31.5h-25L2260.9,1054z M2237.2,1114.3c1.2-3.5,2.2-6.4,3.1-8.8c0.9-2.4,2.2-6.2,4.1-11.3h31.8
			c3.1,8.1,5.8,16.1,8.2,23.9H2236C2236.3,1116.9,2236.7,1115.7,2237.2,1114.3z M2135.6,1037c2.4-0.4,4.4-0.5,6-0.5
			c10.3,0,15.5,4.9,15.5,14.8c0,4.6-1.2,8.6-3.5,12c-2.4,3.3-5.8,5.2-10.3,5.6c-1.4,0.2-3.9,0.3-7.6,0.3L2135.6,1037L2135.6,1037z
			 M2135.6,1077.1h3.9c12.5,0,18.8,6.3,18.8,18.9c0,5.1-1.6,9.3-4.9,12.6s-6.7,5-10.2,5h-7.6L2135.6,1077.1L2135.6,1077.1z
			 M2261.5,1537.3c-21.6,6.1-198.9,6.4-219.2,1.3c20.5-48.8,42.8-97,60.8-146.7c18.1-49.9,31.9-101.3,47.8-152.9
			c17.6-5.8,92.7-5.7,113.2,0.8C2263.3,1340.4,2262.4,1439.3,2261.5,1537.3z M2446.3,1540.7c-4.9-18.2-4.1-275.1,0.9-301.7
			c42-9.1,85.5,7.8,129.6-2.6c4.9-35.2-0.9-69.9,3.7-105.6c10.3,2.6,12.1,11.1,15.6,17.6c32.7,61.1,65.2,122.3,97.8,183.6
			c33.3,62.6,66.5,125.3,99.7,188c2.9,5.5,5.1,11.3,9.2,20.7C2680.4,1540.7,2563.1,1540.7,2446.3,1540.7z M3086.3,1086.3
			c3.3-9.2,6.9-19.4,10.8-30.4c3.8,10,7.7,20.9,11.6,32.8c3.4,10.3,6.3,20,8.9,29.4H3075C3079.5,1105.3,3083.3,1094.6,3086.3,1086.3
			z M3051.9,1354.1c-1.7,55.5-19.9,106.3-57.1,148.2c-22,24.8-49.5,40.9-84.7,39.9c-22.6-0.7-45.2,0-67.8-0.2
			c-6.2-0.1-12.5-1-22.1-1.8c76.7-136.1,152-269.7,227.3-403.4c1.5,0.3,3,0.7,4.5,1c0.5,6.7,1.5,13.5,1.4,20.2
			C3053.2,1223.4,3053.9,1288.8,3051.9,1354.1z"/>
	</g>
</g>
</svg>
