<?xml version="1.0" encoding="utf-8"?>
<!-- Generator: Adobe Illustrator 27.7.0, SVG Export Plug-In . SVG Version: 6.00 Build 0)  -->
<svg version="1.1" id="Layer_1" xmlns="http://www.w3.org/2000/svg" xmlns:xlink="http://www.w3.org/1999/xlink" x="0px" y="0px"
	 viewBox="0 0 3500 3500" style="enable-background:new 0 0 3500 3500;" xml:space="preserve">
<style type="text/css">
	.st0{fill:#02457A;}
	.st1{fill:#FFFFFF;}
</style>
<path class="st0" d="M4.9,0H3500v3496.1c-9-0.2-18.1-0.7-27.1-0.7c-1146.2,0-2292.4,0-3438.7,0H5.6c0-10.8,0-19.7,0-28.6
	c0-1146.5,0-2293.1,0-3439.6C5.6,18.1,5.1,9.1,4.9,0z M619.1,2531.4h2262.4v-385.5H619.1V2531.4z M2318.1,1936.1
	c4.6,3.9,7.6,7.5,11.4,9.3c15,7.5,29.9,15.2,45.5,21.4c55.3,22.1,112.2,34.2,172.4,27.3c59.5-6.9,114.2-27,164.5-58.9
	c52.2-33.1,93.7-76.9,124.1-130.9c33.4-59.4,48.1-123.2,47-191.4c-1.3-78-22.8-149.4-68.3-212.4c-100.5-138.9-278-197.8-441-132.3
	c-131,52.7-210,150.7-233.2,291.2c-4,24.2-5.3,48.8-7.3,73.2c-7.1,86.9-97.4,141.5-177.5,107.3c-7-3-14-5.9-23.6-9.9
	c-27.6,77.5-65.7,147.3-118.5,207.8c2.6,3.4,3.4,5.4,4.9,6.4c3.7,2.6,7.5,5.1,11.5,7.2c38.3,21.1,79.2,35.2,122.3,41.4
	c103.6,14.7,197.9-9.5,281.1-72.9c56.8-43.2,96.7-99.4,122.4-166.4c17-44.3,22.3-90.1,24.7-136.6c1.5-28.5,9.3-54.3,27-77.3
	c56.1-72.9,171.9-66.8,217.9,22.7c24.2,47.2,13.7,108.3-21.7,144.6c-39,40-95.2,54.7-147.3,29.8c-6.1-2.9-12.8-4.7-20.3-7.3
	C2413.1,1808.6,2376.2,1877.9,2318.1,1936.1L2318.1,1936.1z M1176.1,1299.1c-28.3-12-51.8-24.7-76.9-32.1
	c-119.8-35.7-232.4-18.4-332.8,56.3c-86.3,64.2-133.3,152.8-144.4,260c-6,58.1,1.8,114.3,22.9,169.2c26.8,69.8,71,125.5,131.5,168.5
	c47.7,33.9,101.1,54.2,158.6,63.6c65.8,10.7,129.8,5.1,192-20.8c49.3-20.5,91.6-50.8,128.4-88.4c44.6-45.6,77.4-98.6,89.5-162.1
	c6.7-35.4,10.7-71.4,14.7-107.3c3.1-28,13.9-52.3,31.8-73.4c34.4-40.5,79.6-49.9,129.9-43.5c4.9,0.6,9.9,1.2,16.6,2.1
	c0.3-7.8,0.8-14,0.9-20.3c0.1-63.4,0.1-126.9,0.1-190.3c0-25.1-2.5-28.1-27-29.3c-64.7-3.3-126.6,9.5-183.9,38.8
	c-113.3,57.9-178.8,151.2-197.5,277.1c-3.2,21.7-4.3,43.7-7.1,65.5c-6,46.6-28.4,82.9-70.5,104.8c-78.7,40.9-174.6,6.4-197.1-95
	c-11.8-53.1,10.5-94.8,49.7-128.7c35.8-30.9,76.9-37.5,121.6-23.2c9.6,3.1,19.4,5.7,30.8,9
	C1079.7,1423.6,1119.2,1359.3,1176.1,1299.1L1176.1,1299.1z M1308,1941.1c17.3,8,33,15.4,48.8,22.4c103.2,45.9,206.4,41.2,304.9-9.9
	c130-67.5,200.3-178.1,202.7-324.7c3.4-211.6,1-423.4,1.1-635c0-1.3,0-2.6,0-3.9c-0.5-19.7-3.3-22.6-22.5-22.8
	c-17.5-0.2-34.9-0.1-52.4-0.1c-47.2,0-94.5-0.1-141.7,0.1c-17.5,0.1-21.4,4.3-22.2,21.8c-0.2,3.9-0.1,7.8-0.1,11.7
	c0.3,181.9,0.7,363.8,0.8,545.7c0,30.4,0.1,60.9-2.9,91.1c-8.4,82.7-86.9,137.1-175.7,107.4c-26.4-8.8-26.1-2.6-32.5,16.5
	c-15.9,47.6-38.2,91.7-69.6,131.1C1334.1,1908,1321.9,1923.6,1308,1941.1L1308,1941.1z"/>
<path class="st1" d="M4.9,0c0.2,9.1,0.7,18.1,0.7,27.1c0,1146.5,0,2293.1,0,3439.6c0,8.9,0,17.8,0,28.6h28.6
	c1146.2,0,2292.4,0,3438.7,0c9,0,18.1,0.5,27.1,0.7c-0.6,1.3-1.2,3.7-1.9,3.7c-5.2,0.3-10.4,0.2-15.5,0.2H1
	C1,2339.1,1,1178.3,1.2,17.5C1.2,11.8-3.2,4.3,4.9,0z"/>
<path class="st1" d="M619.1,2531.4v-385.5h2262.4v385.5H619.1z M976.5,2451.8c-29.9-42-47.2-88.6-91.8-117.8
	c6.4-1.9,9.6-2.2,12.2-3.6c13.1-6.7,29-10.9,38.6-20.9c19.8-20.8,26.5-47,16.4-75.4c-9.3-26.5-26.6-45.3-55.8-46.8
	c-47.7-2.4-95.5-2.8-143.3-3.9c-4.9-0.1-9.8,0.7-14.6,1.1v266.4h50.4v-110.4c29.4-5.1,51,1.9,66.5,25.2c13.9,21,29.1,41.2,41.9,62.8
	c10.2,17.3,22.4,26.8,43.5,23.7C951.1,2450.4,962.2,2451.8,976.5,2451.8L976.5,2451.8z M1908.3,2256.9c-0.9-30-13.7-51.3-37.7-63
	c-41.8-20.5-85.1-20.5-126.9,0.8c-35.2,17.9-44.9,69.6-20.7,100.7c15.7,20.1,37.9,28.2,60.8,35.3c19.7,6.1,39.8,10.7,59.5,17
	c13.2,4.2,22.6,12.9,21.8,28.4c-0.8,15.4-10.4,25.5-23.3,30.7c-32.4,13.2-83.4,7.8-90.5-41.9c-0.1-0.9-1.9-1.5-3.5-2.7
	c-15.2,1.9-31,3.8-47.6,5.8c5.4,39.2,22.3,68.1,59.8,80c34.1,10.8,69.1,10.4,103.2-0.2c27.8-8.7,46.7-28.1,51.8-57.4
	c4.9-28.6,2.3-57.7-23.7-75.2c-18.2-12.3-40.7-18.5-61.7-26.3c-18.1-6.7-37.4-10.2-55.1-17.9c-20.1-8.8-20.2-28.7-1.8-40.4
	c30.3-19.3,67.3-8.6,82.5,23.7c1,2.2,2.5,4.2,4,6.8C1875.3,2259.7,1890.6,2258.5,1908.3,2256.9L1908.3,2256.9z M1262.7,2451.7
	c16.5,0,30-0.5,43.5,0.2c9.5,0.4,14-3.5,16.6-12.3c3.7-12.4,9-24.2,12.7-36.6c2.7-9,7.8-12,17-11.9c28.5,0.4,57,0.5,85.4-0.1
	c10.4-0.2,14.9,4.4,18,13.5c5.4,15.7,11.7,31.1,17.5,46.4h56.4c-36.2-90.2-71.8-178.7-107.1-266.5h-55.6
	C1332.5,2272.7,1298.3,2360.4,1262.7,2451.7L1262.7,2451.7z M1990.1,2257.9v267.9h50.1v-97.5c6.1,4.6,9.7,7.1,13.1,9.9
	c33.8,27.5,84.1,21.1,106.6-15.8c26.1-43.1,27.6-88.3,1.9-132.4c-21.5-36.8-69-46.8-104.4-23.4c-6.8,4.5-12.8,9.9-20.6,16
	c-0.7-9.1-1.3-16.5-2-24.8H1990.1L1990.1,2257.9z M2232.7,2356c-1.3,65.6,43.7,99.1,101.2,99.1c64,0,100.6-54.3,98.3-106.3
	c-2.3-53-47.2-97.1-102.2-95.2C2271.9,2255.7,2230.5,2295.3,2232.7,2356L2232.7,2356z M1227.1,2184.6h-211.6v41.9h78.7v224.1h53.1
	v-224.7h79.8L1227.1,2184.6L1227.1,2184.6z M2723.7,2190.3c-17.7,9.8-34.9,15.8-46.7,27.3c-6.2,6-3,21.7-4.2,33.1
	c-0.2,1.8-1.3,3.4-2.1,5.2c-7,0.9-13.8,1.8-20.3,2.6v34.4c7.6,1,14.3,1.9,22.7,3c0,30.5-0.4,60.1,0.2,89.6
	c0.2,13.5,1.5,27.1,3.7,40.4c2.4,13.9,11,22.4,25.2,26.1c20.2,5.2,39.3,3.2,60.4-4.1c-1.8-10.9-3.5-21.2-5.2-32.1
	c-5.9,1.6-9.5,3-13.3,3.5c-13.1,1.6-20.4-3.3-20.6-16.6c-0.7-35.4-0.2-70.7-0.2-107.2c12.3-0.9,22.9-1.7,33.5-2.5v-35.4
	c-11.4-0.5-21.5-0.9-33.2-1.5L2723.7,2190.3L2723.7,2190.3z M2498.5,2450.5h50c0-33.4-0.4-65.6,0.2-97.7c0.2-10.1,1.9-20.7,5.5-30.1
	c6.2-16.1,21.8-22.6,38.1-17.6c4.6,1.4,8.9,3.6,13.9,5.7c5.1-16,9.7-30.5,14.5-45.5c-30.7-22.2-54.3-10.4-76.1,17.1
	c-1.2-10.7-2-17.5-2.8-24.2h-43.3L2498.5,2450.5L2498.5,2450.5z"/>
<path class="st1" d="M2318.1,1936.1c58-58.2,95-127.4,117.7-206.6c7.5,2.7,14.1,4.4,20.3,7.3c52.1,24.9,108.3,10.2,147.3-29.8
	c35.4-36.3,45.9-97.4,21.7-144.6c-45.9-89.5-161.8-95.6-217.9-22.7c-17.7,23-25.5,48.8-27,77.3c-2.4,46.5-7.7,92.3-24.7,136.6
	c-25.7,67-65.6,123.2-122.4,166.4c-83.2,63.3-177.5,87.6-281.1,72.9c-43.1-6.1-84-20.3-122.3-41.4c-3.9-2.2-7.8-4.6-11.5-7.2
	c-1.5-1.1-2.3-3-4.9-6.4c52.8-60.5,90.9-130.3,118.5-207.8c9.6,4,16.7,6.9,23.6,9.9c80.1,34.3,170.3-20.4,177.5-107.3
	c2-24.4,3.3-49.1,7.3-73.2c23.2-140.5,102.2-238.5,233.2-291.2c163-65.5,340.5-6.6,441,132.3c45.6,63,67,134.3,68.3,212.4
	c1.2,68.2-13.6,132-47,191.4c-30.4,54-71.9,97.8-124.1,130.9c-50.2,31.9-105,52-164.5,58.9c-60.1,6.9-117-5.2-172.4-27.3
	c-15.5-6.2-30.5-14-45.5-21.4C2325.7,1943.6,2322.7,1940,2318.1,1936.1L2318.1,1936.1z"/>
<path class="st1" d="M1176.1,1299.1c-56.9,60.2-96.4,124.5-118.1,200.3c-11.4-3.3-21.2-5.9-30.8-9c-44.8-14.4-85.8-7.7-121.6,23.2
	c-39.2,33.8-61.5,75.6-49.7,128.7c22.5,101.4,118.3,135.9,197.1,95c42.1-21.9,64.5-58.2,70.5-104.8c2.8-21.8,3.9-43.8,7.1-65.5
	c18.6-125.9,84.1-219.2,197.5-277.1c57.3-29.3,119.2-42.1,183.9-38.8c24.4,1.2,27,4.2,27,29.3c0,63.4,0,126.9-0.1,190.3
	c0,6.3-0.5,12.6-0.9,20.3c-6.7-0.8-11.7-1.4-16.6-2.1c-50.3-6.4-95.5,3-129.9,43.5c-18,21.1-28.7,45.4-31.8,73.4
	c-4,35.9-8,71.9-14.7,107.3c-12,63.5-44.9,116.6-89.5,162.1c-36.9,37.7-79.1,67.9-128.4,88.4c-62.2,25.9-126.2,31.5-192,20.8
	c-57.5-9.4-110.9-29.7-158.6-63.6c-60.5-43-104.7-98.7-131.5-168.5c-21.1-54.9-28.9-111.1-22.9-169.2c11-107.1,58.1-195.8,144.4-260
	c100.4-74.7,212.9-92,332.8-56.3C1124.3,1274.5,1147.8,1287.1,1176.1,1299.1L1176.1,1299.1z"/>
<path class="st1" d="M1308,1941.1c13.9-17.5,26.2-33.1,38.6-48.6c31.4-39.3,53.8-83.4,69.6-131.1c6.4-19.2,6.1-25.3,32.5-16.5
	c88.8,29.7,167.3-24.7,175.7-107.4c3.1-30.2,2.9-60.7,2.9-91.1c0-181.9-0.5-363.8-0.8-545.7c0-3.9-0.1-7.8,0.1-11.7
	c0.8-17.5,4.7-21.8,22.2-21.8c47.2-0.2,94.5-0.1,141.7-0.1c17.5,0,34.9-0.1,52.4,0.1c19.2,0.2,22,3.1,22.5,22.8c0,1.3,0,2.6,0,3.9
	c-0.1,211.7,2.3,423.4-1.1,635c-2.4,146.6-72.7,257.1-202.7,324.7c-98.5,51.1-201.7,55.8-304.9,9.9
	C1340.9,1956.5,1325.3,1949.1,1308,1941.1L1308,1941.1z"/>
<path class="st0" d="M976.5,2451.8c-14.3,0-25.5-1.3-36.2,0.3c-21,3.1-33.2-6.3-43.5-23.7c-12.8-21.6-28-41.8-41.9-62.8
	c-15.4-23.3-37-30.2-66.5-25.2v110.4h-50.4v-266.4c4.8-0.4,9.7-1.2,14.6-1.1c47.8,1.1,95.6,1.5,143.3,3.9
	c29.2,1.5,46.4,20.3,55.8,46.8c10,28.4,3.4,54.6-16.4,75.4c-9.6,10.1-25.5,14.3-38.6,20.9c-2.6,1.3-5.8,1.7-12.2,3.6
	C929.3,2363.2,946.6,2409.7,976.5,2451.8L976.5,2451.8z M789.9,2226.2v67.9c28.8,0,56,1.7,82.7-0.6c19.7-1.7,29.9-17,28.5-34.8
	c-1.4-18.2-13.2-31.3-32.4-32.2C843.1,2225.3,817.3,2226.2,789.9,2226.2L789.9,2226.2z"/>
<path class="st0" d="M1908.3,2256.9c-17.7,1.5-33,2.8-49.1,4.1c-1.5-2.6-2.9-4.6-4-6.8c-15.2-32.3-52.2-43-82.5-23.7
	c-18.5,11.7-18.3,31.7,1.8,40.4c17.6,7.7,37,11.2,55.1,17.9c21,7.8,43.4,14,61.7,26.3c26,17.5,28.6,46.6,23.7,75.2
	c-5.1,29.3-23.9,48.7-51.8,57.4c-34.1,10.6-69.1,11-103.2,0.2c-37.5-11.9-54.4-40.8-59.8-80c16.6-2,32.4-4,47.6-5.8
	c1.6,1.2,3.4,1.8,3.5,2.7c7.1,49.6,58.1,55.1,90.5,41.9c12.9-5.3,22.5-15.3,23.3-30.7c0.8-15.5-8.6-24.1-21.8-28.4
	c-19.6-6.3-39.8-10.9-59.5-17c-22.9-7-45.1-15.1-60.8-35.3c-24.2-31.1-14.6-82.7,20.7-100.7c41.8-21.3,85.1-21.2,126.9-0.8
	C1894.5,2205.7,1907.4,2226.9,1908.3,2256.9L1908.3,2256.9z"/>
<path class="st0" d="M1262.7,2451.7c35.7-91.3,69.9-179,104.4-267.5h55.6c35.3,87.9,70.8,176.3,107.1,266.5h-56.4
	c-5.8-15.2-12.2-30.6-17.5-46.4c-3.1-9.1-7.6-13.7-18-13.5c-28.5,0.6-57,0.5-85.4,0.1c-9.2-0.1-14.3,2.9-17,11.9
	c-3.7,12.4-9,24.2-12.7,36.6c-2.6,8.8-7.1,12.8-16.6,12.3C1292.7,2451.2,1279.2,2451.7,1262.7,2451.7L1262.7,2451.7z M1392.8,2247.3
	c-12.3,33.9-24,65.8-36.1,99h76.2c-12-32.2-23.1-62.3-34.4-92.3C1398,2252.4,1396.3,2251.3,1392.8,2247.3L1392.8,2247.3z"/>
<path class="st0" d="M1990.1,2257.9h44.6c0.7,8.3,1.3,15.7,2,24.8c7.8-6.1,13.9-11.6,20.6-16c35.4-23.4,83-13.4,104.4,23.4
	c25.6,44,24.2,89.3-1.9,132.4c-22.4,36.9-72.7,43.3-106.6,15.8c-3.4-2.8-7-5.3-13.1-9.9v97.5h-50.1L1990.1,2257.9L1990.1,2257.9z
	 M2037.7,2354.1c2.5,11.9,4.1,24.7,8.1,36.8c5.6,17.1,23.5,29.1,39.8,28.9c16.4-0.2,29.9-11.1,36.8-29.1c9.5-24.7,9.1-49.2-0.8-73.5
	c-7.6-18.6-20.6-26.6-40.9-25.6c-17.8,0.9-31.5,11.2-36.6,29.1C2041,2331.2,2039.9,2342.2,2037.7,2354.1L2037.7,2354.1z"/>
<path class="st0" d="M2232.7,2356c-2.2-60.7,39.2-100.3,97.4-102.4c55-2,99.9,42.2,102.2,95.2c2.3,52-34.3,106.3-98.3,106.3
	C2276.4,2455.1,2231.4,2421.7,2232.7,2356L2232.7,2356z M2278.6,2352.5c0.7,0.4,1.4,0.8,2.1,1.2c1.3,8.9,1.9,18,4.2,26.7
	c5.7,22.1,25.1,38.6,45.1,39.4c20.5,0.9,39.2-13.7,46.7-36.6c6.9-21.1,6.1-41.8-2.3-62.4c-6.6-16.2-17.7-26.9-35.5-29
	c-18.6-2.2-35.5,2.1-44.6,19.9C2287.6,2324.6,2283.8,2338.9,2278.6,2352.5L2278.6,2352.5z"/>
<path class="st0" d="M1227.1,2184.6v41.2h-79.8v224.7h-53.1v-224.1h-78.7v-41.9L1227.1,2184.6L1227.1,2184.6z"/>
<path class="st0" d="M2723.7,2190.3v65.9c11.6,0.5,21.8,1,33.2,1.5v35.4c-10.6,0.8-21.2,1.6-33.5,2.5c0,36.4-0.5,71.8,0.2,107.2
	c0.3,13.3,7.5,18.2,20.6,16.6c3.8-0.5,7.4-1.9,13.3-3.5c1.8,10.9,3.5,21.2,5.2,32.1c-21.1,7.4-40.3,9.4-60.4,4.1
	c-14.3-3.7-22.9-12.2-25.2-26.1c-2.3-13.3-3.5-26.9-3.7-40.4c-0.5-29.6-0.2-59.2-0.2-89.6c-8.4-1.1-15.2-2-22.7-3v-34.4
	c6.6-0.9,13.3-1.7,20.3-2.6c0.7-1.8,1.9-3.4,2.1-5.2c1.2-11.3-2.1-27,4.2-33.1C2688.9,2206.1,2706,2200.1,2723.7,2190.3
	L2723.7,2190.3z"/>
<path class="st0" d="M2498.5,2450.5v-192.2h43.3c0.8,6.7,1.6,13.5,2.8,24.2c21.8-27.6,45.4-39.4,76.1-17.1
	c-4.8,14.9-9.4,29.5-14.5,45.5c-5-2.1-9.3-4.3-13.9-5.7c-16.3-4.9-31.9,1.6-38.1,17.6c-3.6,9.4-5.3,20-5.5,30.1
	c-0.7,32.1-0.2,64.3-0.2,97.7H2498.5L2498.5,2450.5z"/>
<path class="st1" d="M789.9,2226.2c27.5,0,53.2-0.9,78.9,0.3c19.2,0.9,31,14,32.4,32.2c1.3,17.9-8.9,33.1-28.5,34.8
	c-26.8,2.3-53.9,0.6-82.7,0.6L789.9,2226.2L789.9,2226.2z"/>
<path class="st1" d="M1392.8,2247.3c3.5,4,5.2,5.1,5.8,6.7c11.3,30,22.4,60.1,34.4,92.3h-76.2
	C1368.8,2313.2,1380.4,2281.2,1392.8,2247.3L1392.8,2247.3z"/>
<path class="st1" d="M2037.7,2354.1c2.2-12,3.3-22.9,6.3-33.3c5.1-17.9,18.8-28.3,36.6-29.1c20.3-1,33.3,6.9,40.9,25.6
	c9.9,24.3,10.3,48.9,0.8,73.5c-6.9,18-20.4,28.9-36.8,29.1c-16.3,0.2-34.1-11.8-39.8-28.9C2041.8,2378.9,2040.2,2366,2037.7,2354.1
	L2037.7,2354.1z"/>
<path class="st1" d="M2278.6,2352.5c5.1-13.6,9-27.9,15.6-40.7c9.1-17.8,26-22.1,44.6-19.9c17.8,2.1,28.8,12.8,35.5,29
	c8.4,20.6,9.2,41.4,2.3,62.4c-7.5,22.9-26.2,37.5-46.7,36.6c-20-0.9-39.4-17.4-45.1-39.4c-2.2-8.7-2.8-17.8-4.2-26.7
	C2280.1,2353.3,2279.3,2352.9,2278.6,2352.5L2278.6,2352.5z"/>
</svg>
