<?xml version="1.0" encoding="utf-8"?>
<!-- Generator: Adobe Illustrator 27.7.0, SVG Export Plug-In . SVG Version: 6.00 Build 0)  -->
<svg version="1.1" id="Layer_1" xmlns="http://www.w3.org/2000/svg" xmlns:xlink="http://www.w3.org/1999/xlink" x="0px" y="0px"
	 viewBox="0 0 3500 3500" style="enable-background:new 0 0 3500 3500;" xml:space="preserve">
<style type="text/css">
	.st0{fill:#01913E;}
	.st1{fill:#0090DD;}
</style>
<g>
	<path class="st0" d="M409.4,2323.1c21.3,1.1,42.7,1.6,64,3.4c46.1,3.8,77.4,29.3,94.9,70.5c26.3,61.9,26.8,124.9,0.7,187.1
		c-20.5,48.9-59.1,73-111.3,75c-30.9,1.2-61.8,0.8-92.7,0.3c-29.5-0.5-32.8-3.4-33.1-33c-0.6-64.1-0.2-128.3-0.2-192.4
		c0-27.3-0.7-54.6,0.2-81.9c0.8-23.1,4.5-26.5,27.5-27.8c16.6-0.9,33.3-0.2,49.9-0.2C409.4,2323.8,409.4,2323.4,409.4,2323.1z
		 M375,2489.5c0.1,0,0.1,0,0.2,0c0,33.2,0.2,66.4-0.1,99.5c-0.2,19.1,8.3,28.8,27.7,28.3c22.5-0.6,45.1,0,67.4-2
		c25.5-2.3,44.8-16.1,55.2-39.4c21.5-48.4,25.2-98.2,8.5-148.9c-13-39.4-40-60.3-81.8-61.4c-16.6-0.4-33.2-0.2-49.8-0.6
		c-19.6-0.4-27.7,9.7-27.5,28.5C375.2,2425.5,375,2457.5,375,2489.5z"/>
	<path class="st0" d="M313,1508.7c30.9-84.2,152-147.4,259-138.4c-29.2,22.8-59.2,33.1-86.1,48.2c-29,16.2-58.7,31.3-88.2,46.7
		C369.6,1479.8,341.3,1494.2,313,1508.7z"/>
	<path class="st0" d="M496.5,1334.6c-57.8,30.5-115.6,60.9-175.5,92.5C324.9,1373.6,432.4,1317.5,496.5,1334.6z"/>
	<path class="st0" d="M446.2,1305.1c-34.5,18-68.9,36.1-103.4,54.1c-1.5-2.8-3-5.5-4.5-8.2c25.2-34.7,58.9-54,103.4-54.3
		C443.2,1299.5,444.7,1302.3,446.2,1305.1z"/>
	<g>
		<path class="st1" d="M0.5,1218.9c0-16.2-1.3-25.2,0.2-33.7c15.7-91.8,73.8-151.9,150.3-197.4c86-51,180.5-79,277.6-99
			c133.2-27.4,268-38.5,403.6-44.9c212-9.9,423.3,0.7,634.3,18.2c334.6,27.6,665.9,78.9,993.9,150.4
			c241.9,52.8,481.2,115.2,711.1,208.4c70.3,28.5,137.6,64.8,204.5,100.7c27.8,15,52.3,37.1,76.1,58.5
			c32.3,29.1,48.2,65.7,47.7,110.8c-1.3,133.2-0.4,266.3-0.6,399.5c-0.1,39.5-1.4,41-39.4,41.1c-139.2,0.2-278.3,0.3-417.5,0
			c-39.9-0.1-41.4-2-41.6-43.1c-0.2-35.7-0.5-71.3,0.2-107c0.5-28.9,4.2-33.2,33.4-33.4c77.3-0.7,154.6-0.1,231.9-0.4
			c32.1-0.1,64.4,0.5,96.2-2.5c81.1-7.5,103.1-54.2,57.3-121.5c-33.2-48.8-78-86.2-125.6-120.3c-101.1-72.4-211.2-128.6-326.4-174.5
			c-157.1-62.6-319.7-108.4-482.8-152.3c-246-66.2-495.3-116.9-747.1-155.1c-175.2-26.6-351.2-47.5-528.5-53.8
			c-109.3-3.8-218.7-7.7-328-5.5c-155.9,3.2-311.1,18.4-463.1,55.5c-119.6,29.2-234.9,69.8-337.5,140.1
			C55.5,1175,31.9,1194.8,0.5,1218.9z"/>
		<path class="st1" d="M2063.9,1143.8c1.1,20.1,2.4,32.6,2.4,45c0.1,176,0.1,352,0.1,528c0,9.5-0.2,19,0.2,28.5
			c1.3,29.4,4.5,33.2,33.4,33.7c42.8,0.7,85.6,0.3,128.5,0.3c53.5,0,107.1,0.4,160.6-0.3c29.4-0.3,32.3-4,33.7-33.2
			c0.1-1.2,0.2-2.4,0-3.6c-12.3-65.3,21.4-109.1,68.9-145.8c18.2-14,32.6-34.6,63.4-39.4c1.1,73.8,2.1,145.3,3.2,218.2
			c10.9,1.6,18.9,3.6,26.9,3.7c51.1,0.4,102.3,0.7,153.5,0.2c31.2-0.3,34-3.9,35.2-35.3c0.1-1.2,0.2-2.4,0-3.6
			c-10.9-61,22.5-101.7,64.3-138c19.2-16.7,40.1-31.5,65.8-51.5c2.6,16.7,5.2,25.4,5.2,34c0.2,101.1,0,202.2-0.2,303.2
			c0,9.5-0.4,19.1-2,28.4c-5.2,29.3-18.3,41-47.8,43.1c-8.3,0.6-16.6,0.3-25,0.3c-276,0.1-552,0.1-828,0.1c-5.9,0-11.9,0.1-17.8-0.1
			c-38.1-1.4-51.4-13.5-55.1-50.8c-1-10.6-1-21.4-1-32.1c-0.1-187.9,0.6-375.8-0.7-563.6c-0.2-34.5,9.1-62.5,31.7-87.6
			C1990.4,1195.8,2020.1,1169.1,2063.9,1143.8z"/>
		<path class="st0" d="M291.2,2041.3c8,0,12.1-1.2,14.8,0.2c46.9,24.3,97.5,17.6,147.1,16.9c29-0.4,40.2-12.8,43.1-41.6
			c0.9-8.2,0.9-16.6,0.5-24.9c-1.2-26.2-4.8-30.3-32.3-30.7c-47.5-0.7-95.1,0-142.7-0.3c-38.4-0.2-40.6-2.3-40.9-40.1
			c-0.3-48.7-0.3-97.5,0.1-146.2c0.4-41.1,10.6-79.9,29.9-116.3c24.9-46.8,62.3-77.5,114.8-87.8c26.8-5.2,53.9-9.4,81-12.8
			c21.4-2.7,37.4-11.6,49.8-30c8.4-12.4,19.7-24.4,32.3-32.1c26-15.9,39.9-7.1,40.3,23.4c0.5,40.4,0.4,80.7,0.5,121.1
			c0.1,33.3-0.4,66.6,0.2,99.8c0.5,33.9,3.8,37.3,36.5,37.9c33.3,0.6,66.6,0.6,99.9-0.2c24.7-0.6,28.1-4.6,29.8-29.5
			c0.4-5.9,0.9-12,0.1-17.8c-6.1-45.7,14.3-80.7,45.5-110.8c25.4-24.5,50.1-50.3,88.2-66.4c2.9,11.4,6.8,19.8,6.9,28.2
			c0.3,103.4,0.2,206.8-0.1,310.2c0,7.1-1,14.2-2.2,21.2c-5.8,34.4-19.7,47.3-55.1,47.8c-66.6,0.8-133.2,0.3-199.8,0.3
			c-52.6,0-52.3,1-54.7,53.4c-1.6,35.4-4.5,71.2-11.6,105.9c-10.2,49.9-43.5,80.3-92.2,94c-43.4,12.2-86.7,12.5-130.1-0.4
			c-39-11.6-66.9-35.7-82.2-73.2C295.8,2109.2,286.3,2076.7,291.2,2041.3z M497.1,1731.2c-0.5-7.8,0.5-17.8-2.4-26.5
			c-1.7-5.3-8.8-11.6-14.3-12.4c-34.2-5.2-72.6,29.6-69.5,63.8c0.6,7.2,8.9,18.7,15,19.7c17.2,2.8,35.4,2.8,52.7,0.2
			c6.5-1,13.5-11.2,16.7-18.8C498.4,1750.2,496.7,1741,497.1,1731.2z"/>
		<path class="st1" d="M1276.2,1773.6c0,46.5-0.3,87.9,0.2,129.3c0.2,16.6,0.5,33.4,3.5,49.7c7.5,41.6,30.2,62.2,74.6,69.9
			c43.3,7.5,85.8-7.5,103.1-39.7c6.9-12.9,9.7-29.3,10.1-44.3c1.3-49.9,0.2-99.9,1-149.8c1.1-69.9,26.4-129.6,77.7-177.8
			c22.3-20.9,48.3-34.4,78.2-40.2c22.2-4.3,44.3-8.7,66.6-12.5c28.5-4.9,56.2-11,75.1-36.1c3.4-4.6,9-7.8,14.1-10.7
			c28.2-15.8,41.9-8.2,41.9,24.6c0.3,128.4,0.3,256.9-0.1,385.3c-0.1,35.8-3.2,38.2-38.9,38.9c-11.9,0.2-23.8,0-35.7,0
			c-50.2-0.2-50.3-0.2-50.5-52.2c-0.2-44-0.1-88-0.1-132c0-5.9,0.1-11.9,0-17.8c-0.6-41.2-16.2-49.8-53-29.9
			c-17.8,9.7-30.1,24.2-34.6,43.3c-4.3,18.3-6.7,37.5-7,56.3c-1,55.9,0,111.8-0.7,167.7c-1.2,107.7-81.4,189.7-189.2,192.3
			c-31.9,0.8-64.5,0-95.9-5.3c-106.9-18.2-163.1-81.1-170.5-188.4c-1.9-27.2-1.5-54.7-0.3-82c0.5-11.4,3.3-24.5,9.8-33.4
			c27.9-38.8,61.1-72.8,101.6-99C1260.9,1777.1,1265.8,1776.7,1276.2,1773.6z"/>
		<path class="st1" d="M685.5,2424.5c-0.6,12.5-1.7,24.9-1.8,37.4c-0.2,53.5,0.1,107-0.3,160.4c-0.2,30.4-4.4,36.9-21.2,37.3
			c-17.5,0.4-22.8-6.9-23-35.7c-0.3-87.9-0.3-175.9,0.1-263.8c0-13.6-3.3-30.3,15.7-35.4c18.3-4.9,32,1.9,42,18.3
			c34.7,56.8,69.9,113.3,104.9,169.8c9.2,14.9,18.7,29.7,32.4,51.4c2.8-15.3,5.3-22.5,5.3-29.8c0.4-54.7,0.2-109.3,0.4-164
			c0-10.6-1.2-22.4,2.8-31.6c2.9-6.8,13.6-14.2,20.6-14c6.7,0.3,14.8,9,18.9,16c3.2,5.4,1.6,13.9,1.6,21
			c0.2,89.1,0.4,178.3,0.3,267.4c0,9.1-2,18.3-3,26.7c-38.6,6.1-40.6,5.4-57.7-22.6c-38.5-62.8-76.8-125.7-115.4-188.4
			c-4.7-7.6-10.8-14.3-16.3-21.5C689.7,2423.8,687.6,2424.1,685.5,2424.5z"/>
		<path class="st0" d="M928.7,1407.7c-0.3,45.7-32.5,79.9-74.1,78.6c-38.9-1.3-67.7-33.9-67.8-76.8c-0.1-44.8,29.2-77.8,69.6-78.4
			C896,1330.5,929,1365.5,928.7,1407.7z"/>
		<path class="st1" d="M2901.8,1409.2c0,43.2-31.9,76.7-72.1,75.6c-38-1.1-67.9-34.6-68.4-76.6c-0.4-39.3,32.5-75.1,69.6-75.7
			C2871.1,1331.9,2901.7,1365,2901.8,1409.2z"/>
		<path class="st1" d="M2173.5,2128.4c-0.6-41.5,29.9-74.8,69-75.4c37.2-0.6,71.3,34.2,72.4,73.8c1.2,40.8-29.8,75.5-68.5,76.6
			C2205.3,2204.5,2174.2,2172.6,2173.5,2128.4z"/>
		<path class="st1" d="M2372.6,2127.2c0.4-43.7,29.4-75.3,68.5-74.5c38.3,0.9,70.7,35.2,70.8,74.9c0,43.6-31.5,76.5-72.7,75.8
			C2399.1,2202.6,2372.2,2171.8,2372.6,2127.2z"/>
		<path class="st1" d="M804.2,2264.8c72.1-8.1,120.2,21,163.1,65.9C944.3,2333.8,845.8,2294.7,804.2,2264.8z"/>
		<path class="st1" d="M845.8,2236c51.3-9.5,82.1,11.1,109.9,44.5C928.4,2279.5,885.1,2262.3,845.8,2236z"/>
	</g>
</g>
</svg>
