<?xml version="1.0" encoding="utf-8"?>
<!-- Generator: Adobe Illustrator 27.7.0, SVG Export Plug-In . SVG Version: 6.00 Build 0)  -->
<svg version="1.1" id="Layer_1" xmlns="http://www.w3.org/2000/svg" xmlns:xlink="http://www.w3.org/1999/xlink" x="0px" y="0px"
	 viewBox="0 0 3500 3500" style="enable-background:new 0 0 3500 3500;" xml:space="preserve">
<style type="text/css">
	.st0{fill:#B70F1D;}
	.st1{fill:#C83645;}
	.st2{fill:#FFFFFF;}
</style>
<g>
	<path class="st0" d="M3500,3359.5H0V140.5h2905.8c328.2,0,594.2,266,594.2,594.2V3359.5z"/>
	<polygon class="st1" points="0,140.5 3500,3359.5 0,3359.5 	"/>
	<g>
		<path class="st2" d="M783.1,2071.8c0,407.8,0,807.1,0,1212.1c-83.5,10.6-162.8,2-241.6,3.7c-81.9,1.8-163.9,0.4-245.8,0.3
			c-79.4,0-158.9,0-242.4,0c0-1029.3,0-2050.6,0-3076.3c15.4-1.9,30.2-5.3,44.9-5.3c446.8-0.2,893.5-1,1340.3,1
			c69.7,0.3,139.7,11.9,209,21.8c102.1,14.5,204.6,28.4,305.5,49.2c161.4,33.3,314.9,90,456.9,174.6
			c278.4,165.9,430.9,411.9,454.4,734.5c15,206.2-6.5,409.5-80.5,604.2c-84.7,222.9-235.1,392.6-432.6,523
			c-149.6,98.9-312.9,165.9-484.9,214.1c-305.3,85.6-616.8,111.8-932.5,100.7c-9.6-0.3-19-2.6-27.7-3.9
			c-15.8-42.4-19.3-338.7-4.5-411.1c45.1,2.8,91.2,4.8,137,8.6c185.8,15.6,369.8,1.4,552.8-32c154.8-28.3,302.5-77.4,439.2-154.9
			c238.3-135.2,388.2-337.7,452.5-604.5c38.4-159.5,47.8-320.4,21-481.8c-34.1-205.3-137.5-371.2-302.6-497.5
			c-94.8-72.6-199.8-126.4-316.7-157.3c27.4,14.8,55.6,28.4,82.1,44.7c302.8,185.9,473.5,453.2,462.2,812
			c-11.5,366.8-181.5,641.9-521.6,801.8c-206.1,96.9-423.7,147.9-649.5,154.3c-124,3.5-248.7-15.3-373-24.6
			C854.3,2081.1,823.6,2076.4,783.1,2071.8z M784.2,1497.6c15.9,2.3,25.3,4.8,34.7,4.8c122.8,0.2,245.7,2.6,368.4-0.8
			c81.7-2.3,163.2-13.8,240.2-44.1c83.3-32.8,147.5-86.7,181.1-171.9c41.3-104.7,38.1-209.5-2.4-313.5
			c-18.8-48.5-51.2-86.6-94.8-115.7c-54.8-36.6-116.6-54.7-180.1-65c-175.9-28.3-353.3-24.6-530.6-20c-5.1,0.1-10,5-16.7,8.5
			C784.2,1017.2,784.2,1254.5,784.2,1497.6z"/>
	</g>
	<g>
		<path class="st2" d="M1364.6,3289.3h-84.1l-33.4-87h-153l-31.6,87h-82l149.1-382.9h81.7L1364.6,3289.3z M1222.2,3137.8
			l-52.8-142.1l-51.7,142.1H1222.2z"/>
		<path class="st2" d="M1404.5,3289.3v-382.9h115.7l69.5,261.2l68.7-261.2h116v382.9h-71.8v-301.4l-76,301.4h-74.4l-75.7-301.4
			v301.4L1404.5,3289.3L1404.5,3289.3z"/>
		<path class="st2" d="M1848.8,3289.3v-382.9h77.3v382.9L1848.8,3289.3L1848.8,3289.3z"/>
		<path class="st2" d="M2000,3289.3v-382.9h162.7c40.9,0,70.6,3.4,89.2,10.3c18.5,6.9,33.4,19.1,44.5,36.7
			c11.1,17.6,16.7,37.7,16.7,60.3c0,28.7-8.4,52.4-25.3,71.2c-16.9,18.7-42.1,30.5-75.7,35.4c16.7,9.8,30.5,20.5,41.4,32.1
			c10.9,11.7,25.6,32.4,44,62.2l46.8,74.7h-92.4l-55.9-83.3c-19.9-29.8-33.4-48.5-40.7-56.3c-7.3-7.7-15.1-13.1-23.2-15.9
			s-21.1-4.3-38.9-4.3h-15.7v159.8H2000z M2077.3,3068.4h57.2c37.1,0,60.2-1.6,69.5-4.7c9.2-3.1,16.4-8.5,21.7-16.2
			s7.8-17.2,7.8-28.7c0-12.9-3.4-23.3-10.3-31.2c-6.9-7.9-16.6-12.9-29.1-15c-6.3-0.9-25.1-1.3-56.4-1.3h-60.3L2077.3,3068.4
			L2077.3,3068.4z"/>
		<path class="st2" d="M2620.8,3289.3v-318.1h-113.6v-64.8h304.3v64.8h-113.4v318.1H2620.8z"/>
		<path class="st2" d="M2959,3289.3l-136.9-382.9h83.8l96.9,283.4l93.8-283.4h82l-137.1,382.9L2959,3289.3L2959,3289.3z"/>
	</g>
</g>
</svg>
