<?xml version="1.0" encoding="utf-8"?>
<!-- Generator: Adobe Illustrator 28.0.0, SVG Export Plug-In . SVG Version: 6.00 Build 0)  -->
<svg version="1.0" id="Layer_1" xmlns="http://www.w3.org/2000/svg" xmlns:xlink="http://www.w3.org/1999/xlink" x="0px" y="0px"
	 viewBox="0 0 3500 3500" style="enable-background:new 0 0 3500 3500;" xml:space="preserve">
<style type="text/css">
	.st0{fill:#E69641;}
	.st1{fill:#FFFFFF;}
</style>
<g>
	<path class="st0" d="M2715.58,156.21h535.77v840.93c18.46,23.3,40.46,59.54,66.02,115.16V156.21V90.19h-66.02h-551.76l17.08,65.39
		L2715.58,156.21z"/>
	<path class="st0" d="M3251.35,2732.12v492.72h-273.8c-28.91,42.7-46.56,66.02-46.56,66.02h320.36h66.02v-66.02V2573.3
		C3296.3,2628.44,3274.07,2681.52,3251.35,2732.12z"/>
	<g>
		<g>
			<path class="st1" d="M116.48,2486.75c0.07,43.81-0.48,86.45-0.48,150.25c53.33-12.32,115.6-24.09,153.64-37.95
				c265.19-96.63,512.49-227.31,739.28-395.8c435.4-323.48,774.77-731.76,1055.53-1192.46c147.9-242.69,299.94-482.85,449.5-724.54
				c21.39-34.57,44.88-80.27,72.1-130.05c-59.27-1.55-89.53,0.28-122.55,0.26c-468.51-0.23-937.02-0.31-1405.53-0.23v-0.02H115.57
				v1104.6h0.01C115.59,1669.46,115.84,2078.1,116.48,2486.75z"/>
			<path class="st1" d="M2060.43,2649.02c-317.06-177.18-417.21-386.35-362.93-744.32c5.79-38.15,5.08-77.29,7.39-115.97
				C1225.46,2404.6,733.44,2988.93,0,3330.1c49.25,45.53,84.78,78.38,130.57,120.72c100.52-56.07,205.76-110.25,306.04-172.42
				c61.09-37.87,121.2-56.08,194-55.81c630.01,2.38,1260.04,1.51,1890.06,0.97c39.62-0.03,79.24,4.61,125.03,1.27
				c-28.17-104.43-82.5-183.06-143.55-246.74C2373.39,2843.81,2222.42,2739.54,2060.43,2649.02z"/>
			<path class="st1" d="M3282.8,962.47c-25.8-42.18-30.59-101.87-31.62-153.71c-1.74-87.77-1.86-175.57-1.62-263.38h0v-0.2
				c0.24-88.78,0.85-177.57,0.52-266.35c-0.14-36.77,3.35-47.48-0.52-96.49v-22.69h-299.48c-109.19-2.83-187.63-7.02-254.61-104.97
				c-1.73-2.52,0.71-22.87-10.7-21.2c-45.85,163.98-35.96,327.03,105.89,444.92c111.68,92.82,206.54,205.78,309.64,309.02
				c112.18,112.33,177.69,249.49,210.95,402.27c45.19,207.59,52.59,415.78,30.72,628.79
				c-56.16,546.75-249.64,1032.93-605.01,1453.53c-19.25,22.79-36.1,47.61-58.12,76.87c42.05,39.38,79.87,74.78,125.72,117.72
				c45.4-61.27,127.87-172.57,159.7-228.11c3.03-5.29,5.87-9.81,8.56-13.67h278.53v-171.31c0.17-24.75,0.21-49.24,0-73.58V2806.3
				c6.9-67.67,25.67-132.31,51.59-197.39c48.18-120.97,94.49-243.77,127.47-369.5C3546.79,1795.73,3529.76,1366.25,3282.8,962.47z"
				/>
			<path class="st1" d="M2211.56,1145.39c-9.1-16.41-25.03-29.02-43.07-49.33c-47.14,327.89,66.18,561.3,338.24,714.34
				c30,16.88,58.79,36.03,87.4,55.25c75.52,50.73,150.63,102.07,237.75,161.2c0-31.31,1.72-39.28-0.33-46.12
				c-5.5-18.33-13.32-35.96-19.26-54.12c-66.74-204.03-148.13-350.68-310.86-460.78
				C2376.59,1381.35,2283.38,1274.83,2211.56,1145.39z"/>
		</g>
	</g>
	<path class="st0" d="M422.63,3290.86h2245.5c-4.3-19.55-10.01-42.42-17.34-66.02H540.29
		C498.92,3248.49,457.91,3271.38,422.63,3290.86z"/>
	<path class="st0" d="M115.57,90.19H49.55v66.02v2496.78c24.81-4.92,48.22-10.38,66.02-14.77V156.21h2469.57l35.55-66.02H115.57z"/>
</g>
</svg>
