<?xml version="1.0" encoding="utf-8"?>
<!-- Generator: Adobe Illustrator 27.7.0, SVG Export Plug-In . SVG Version: 6.00 Build 0)  -->
<svg version="1.1" id="Layer_1" xmlns="http://www.w3.org/2000/svg" xmlns:xlink="http://www.w3.org/1999/xlink" x="0px" y="0px"
	 viewBox="0 0 3500 3500" style="enable-background:new 0 0 3500 3500;" xml:space="preserve">
<style type="text/css">
	.st0{fill:#004C5C;}
</style>
<path class="st0" d="M1284.9,2312.4c-14.4-20.7-29.9-40.7-43.2-62.1c-39.4-63.6-68.2-131.4-77-206.3c-3.7-31.7-5.7-63.7-6.2-95.7
	c-2.6-162.8-4.3-325.7-6.5-488.5c-1.6-117.1-3.4-234.2-5.1-351.2c-1.8-127.1-3.6-254.3-5.6-381.4c-1.1-70.4-2.8-140.8-4.1-211.2
	c-0.2-8.1,0-16.1,0-26c40.1,8.1,76.4,19,110.8,36.1c103.6,51.3,189.4,123.9,258.6,216.1c54.8,73,90,154.5,101.4,245.4
	c2.3,18.1,1.4,36.6,1.4,54.8c0.2,209.6-1.3,419.1,1.1,628.7c1.2,103.2,8.4,206.3,21.1,309c7.4,60.5,31.7,114.2,62.9,165
	c22,35.8,46.2,70.4,76.7,99.9c2.5,2.4,5.3,4.4,10.8,8.8c1.2-7.6,2.6-12.3,2.6-17.1c-0.2-171.1-0.2-342.2-0.8-513.4
	c-0.8-225.1-3.6-450.2-2.7-675.2c0.5-128,39.9-244,121.4-344.8c83.9-103.6,191.1-168.4,321.4-194.6c29.4-5.9,59.9-8.6,89.9-9.1
	c188.5-2.8,377.1-4.6,565.6-6.7c24.5-0.3,49,0,75.1,0c0.4,6,1.3,12.1,1.3,18.2c-0.6,205-0.9,410-2,614.9
	c-1.3,247-3.7,494.1-4.6,741.1c-0.3,81.4-13.4,160.2-42.7,235.9c-28.3,73.2-70.8,138-123.3,196.3
	c-49.4,54.9-106.6,100.8-171.4,135.6c-68.8,36.9-141.4,63.5-220.6,69.9c-98.8,7.9-197.6,3.2-296.4,2.9
	c-132.7-0.5-265.4-4.1-398.2-5.5c-189.5-2-379-4.2-568.5-4.3c-87.8,0-170.8-18.6-249.5-55.4c-59.1-27.7-111-66.6-156.8-113.9
	c-62.4-64.4-104.6-140.3-131.6-225.1c-12.3-38.5-19.2-78.2-19.9-118.6c-2.3-138.1-4-276.3-5.9-414.4c-2-143.6-3.8-287.2-6-430.8
	c-0.4-25.6,0-51.4-3.3-76.7C546.7,996,510,919.4,434,891c2.1,18.9,4.8,36.7,5.9,54.6c1.8,28.3,3.5,56.6,3.7,84.9
	c1,186.7,0.6,373.4,2.8,560c1.1,94.2,5.1,188.3,10.7,282.3c4.1,68.3,7.2,136.8,20,204.3c14.6,77.3,50.2,143.9,99.7,204.5
	c64.1,78.6,144.2,137,230.8,187.5c26.7,15.6,55,28.6,85,44c-33.1,0-64,0.4-94.9-0.1c-42.1-0.7-84.1-2.3-126.2-2.9
	c-45.8-0.6-91.6-0.8-137.3-0.7c-123.5,0.4-233.7-37.6-330.9-113.3c-57.8-45-103.2-100.4-137.8-165.1c-42.9-80-61.6-165.1-61.4-255.5
	c0.4-338.6,0.4-677.2-0.2-1015.8C3.4,813.4,1.3,667,0,520.7c-0.1-9.1,0-18.1,0-30.1c33,0,64.5,0,96.1,0c130.9,0,261.9,1.4,392.8-0.6
	c72.9-1.1,138.5,18.8,201.2,53.8c93.5,52.2,172,121.3,233.9,208c61.8,86.7,99,182.5,97.5,291.1c-1.2,80.5-1,161.1-1.8,241.6
	c-0.5,55.8-2.5,111.6-2,167.3c0.8,86,1.7,172,5.3,257.9c3.2,76.7,9.7,153.2,15.7,229.8c6.3,79.3,34.7,150.3,80.3,215.6
	c23.7,34,48.4,66.8,78.9,94.4c26.3,23.8,54.7,45.4,82.2,67.9C1281.7,2315.7,1283.3,2314.1,1284.9,2312.4L1284.9,2312.4z
	 M1900.7,2340.3c82.5,43,165,46.5,249.5,20.8c97.6-29.6,177.2-86.1,238.7-166.9c35.6-46.8,65.2-97.4,73.2-157.3
	c7.2-54.2,16.1-108.4,19.7-162.9c5.8-86.6,10.6-173.4,11-260.2c1.5-306.4,1-612.8,1.1-919.2c0-5.8-1.7-11.5-3-19.6
	c-6.3,3.8-10.1,5.9-13.8,8.4c-57.3,39.3-104.4,88.8-142.9,146.3c-42.2,62.9-72.3,130.7-81.6,206.9c-9.3,76.2-15,152.9-15.1,229.5
	c-0.2,153.6,3.2,307.2,5.3,460.8c0.1,6.4,1.2,12.7,1.5,19.1c2.6,58.4,6.2,116.7-5.5,174.8c-15.3,75.8-47.8,143.4-93.3,205.3
	c-57.6,78.2-127.1,143.5-210.6,193.4C1924.1,2326,1913.5,2332.5,1900.7,2340.3L1900.7,2340.3z"/>
<path class="st0" d="M3498.8,494.4c0.4,8.5,1.2,16.4,1.2,24.4c-0.6,204.9-1.3,409.9-2.1,614.8c-0.7,189.3-2,378.7-2.1,568
	c-0.1,91.4,3,182.9,2.7,274.3c-0.4,114.6-32.8,220.3-99.4,313.6c-58.6,82.1-135.8,142.2-229.6,181.1c-62.7,26-127.8,37.6-195,38.5
	c-78.7,1-157.5,0.7-236.2,1.8c-42.9,0.6-85.8,2.7-129.6,1.2c12.9-6.4,25.8-12.9,38.7-19.2c86.9-42.7,166-96.8,234.6-165
	c71.4-71,123.6-153.8,142.5-254.2c6.4-34,9.6-68.7,12.5-103.3c3.2-38.2,5.1-76.6,6.5-115c2.9-80.4,6.4-160.9,7.2-241.3
	c2.2-200.3,3.6-400.6,4.1-600.9c0.2-69.5,13.3-136.1,38.5-200.5c36.7-93.5,97.1-169.2,177.9-228.4c62.9-46.1,133.1-75.8,209.9-89.8
	C3486.3,493.6,3491.7,494.4,3498.8,494.4L3498.8,494.4z"/>
<path class="st0" d="M1895.4,2763.6c-7.3-16.2-20.2-17.2-33-17.4c-23.7-0.3-47.4-0.1-74.1-0.1c-1.9-14.1-3.6-27-5.6-42.3
	c40.6-0.7,78.9-4,116.5,4.2c26.1,5.6,39.4,25.2,44.5,50.3c1.8,8.8,1.3,18,1.8,27.2c-30.4,17.2-59.3,34.7-89.2,50.3
	c-23,12-48.6,15.2-74.5,15.2c-14.5,0-29,0-45.8,0c1.5,7.6,2.8,12.5,3.3,17.4c1.1,9.9,2.9,19.9,2.3,29.8
	c-0.8,14.5-7.7,27.1-20.7,33.5c-22.4,11-46.3,9.3-69.2,1.9c-21.2-6.9-30.7-24.7-35-45.5c-2.4-11.5-4.3-23.1-6.6-35.8
	c-17.8-1-34.2-1.1-50.4-2.9c-31.1-3.4-47.1-18.5-47.9-49.7c-1.4-56.6-0.4-113.2-0.4-171.7h45.2c0.6,7.8,1.4,14.8,1.5,21.8
	c0.2,39.3,0.2,78.6,0.4,118c0.2,35.5,8.4,41.5,47.3,34.5c1.1-13,1.7-26.5,3.5-39.8c7-50.5,39.3-61.1,83.7-54.9
	c32.7,4.6,52.7,42.2,44.4,78.9c-1.2,5.2-1.9,10.5-3,17.2C1794.3,2810.6,1847.4,2799.7,1895.4,2763.6L1895.4,2763.6z M1657.3,2804.7
	c18.7-2.8,29.8-13.2,36.9-29c3.4-7.6,2.9-15.3-3.9-19.3c-5.5-3.2-14-5-19.6-3.1c-5.8,2-12.1,8.5-14.2,14.5
	C1652.4,2779.5,1651.7,2792.1,1657.3,2804.7L1657.3,2804.7z M1660.7,2848.9c-10.6,15.7-4.2,28.6,2.2,40.4c5.1,9.5,18,12.5,26.4,8.4
	c8.6-4.2,11.6-15,6.1-26.4C1688.8,2857.5,1679.4,2847.1,1660.7,2848.9L1660.7,2848.9z"/>
<path class="st0" d="M686.1,2735.4c0,17.4-0.2,33.7,0.1,49.9c0.2,9.6,2,18.4,18,19c5-9.9,11.2-20.8,16.2-32.2
	c9.9-22.5,25.8-39.6,45.6-53.6c31.5-22.4,64.2-16.6,85.2,15.5c11.1,17.1,18.3,35.2,17.1,56.5c-1.8,30.9-20.4,56.1-51,58.3
	c-39.1,2.7-78.6,1.6-117.8,0.2c-10.1-0.4-20-7.8-29.5-11.8c-43.4,19.1-87.1,19.3-134.1,2.8c-31.5,17.6-68.4,12.4-104.5,8.4
	c-25.9-2.9-40-23-41.1-53.4c-0.9-26.5-0.2-53-0.3-79.6c0-29.1,0-58.2,0-88.8h46.6c0.6,6.6,1.8,13.5,1.8,20.5
	c0.2,43.9-0.1,87.8,0.2,131.7c0.2,24.2,2.4,26,26.9,26.9c1.8,0.1,3.7,0,5.5,0c34,0.4,35-0.4,35.1-35.4c0.1-38.4,0-76.8,0-115.2
	c0-8.9,0-17.9,0-28.4h46.4c0.5,7.7,1.4,14.7,1.4,21.8c0.1,41.1,0.5,82.3-0.2,123.4c-0.4,22.6,3.7,26.8,27.7,32.9
	c2.6,0.7,5.5,0.6,8.2,0.7c56.4,0.9,46.8,1.9,47.5-43.5c0.1-8.1,0-16.2,0-25.9C653.5,2732.5,668.3,2733.5,686.1,2735.4L686.1,2735.4z
	 M757,2805.4c17.8,0,33.2,0.5,48.5-0.2c10.7-0.5,16.6-8.1,17.2-18.1c0.4-7-1.1-14.6-3.7-21.3c-5.8-15-18.2-18.5-30.3-7.8
	C775.1,2770.1,765.1,2785.2,757,2805.4L757,2805.4z"/>
<path class="st0" d="M3159.5,2805.6c11,0,19.9,0,28.9,0c32.2-0.1,35.4-3.2,35.6-36.5c0.3-39.3,0-78.6,0.2-117.9
	c0-8,0.8-15.9,1.3-24.8h44.2c0,10.1,0,19,0,27.9c0,40.2-0.3,80.4,0,120.6c0.1,21.9,4.9,28.4,26.6,29.9c26.4,1.7,53,1.2,79.5,0.4
	c14.6-0.4,18.4-5.4,18.9-21.1c0.5-15.4,0.1-30.8,0.1-46.8c15.7-5.5,30-3.1,47.6-2.4c0.9,25.6,4,50.8-3.6,75.4
	c-8.4,27.2-26.2,40.1-55,40.5c-34.7,0.5-69.7,2.5-104.2-0.7c-23.5-2.2-46.1-2.3-69.4,0.4c-17,1.9-34.4,0.4-53,0.4
	c-7,29.7-17.7,54.8-43.6,71.2c-29.2,18.5-61,15.6-95,15.2c-2.6-15.4-5.2-30.9-8.3-49.4c18.9,0,35.1,0.6,51.3-0.1
	c21.4-1,38.4-9,45.7-30.6c-7.5-10.3-17.6-6.7-26.2-7.9c-34.6-4.7-52.6-23-54.5-57.3c-0.6-11.8-0.5-23.8,0.5-35.6
	c2.6-29.8,18.6-45.9,48.3-50c38.9-5.3,65.4,7.2,75.9,37.9c4.3,12.7,5,26.8,7,40.3C3159,2789.9,3158.9,2795.4,3159.5,2805.6
	L3159.5,2805.6z M3109.6,2806.6c0-16.4,1-28.2-0.2-39.6c-1.7-15.1-19.5-23.1-30.2-12.7c-6.3,6.1-10.1,17.1-10.7,26.2
	c-0.6,8.6,4.3,17.8,14.5,20.7C3090.4,2803.3,3098.3,2804.4,3109.6,2806.6L3109.6,2806.6z"/>
<path class="st0" d="M2346.7,2937c-2.7-16.1-5-30.4-7.5-45.4c16.7-7.1,33.2-2.6,49.1-3.5c21.8-1.2,38.3-9.3,47.4-34
	c-8-1.6-14.5-3.4-21.1-4.2c-45-5.1-62.5-24.3-62.2-70.1c0.1-12.6,2-25.4,4.5-37.9c4-19.1,18-29.6,35.7-33.9
	c11.3-2.7,23.4-2.4,35.2-2.1c26.3,0.7,42,15.9,49.4,39.9c3.5,11.2,4.5,23.2,6.3,34.9c1.1,7,1.7,14.1,2.6,22.5
	c29.1,4.5,57.3,2.1,85.3,1.6c10.3-0.2,16.2-6.7,15.8-18.2c-0.5-16.3-0.1-32.7-0.1-50.1c16.3-4.3,31.1-3,47.6-1
	c1.7,25.5,3.5,49.8-2.7,74c-6.9,27-22.6,40.3-50.5,41.2c-23.7,0.8-47.5,0.1-71.3,0.1c-8.9,0-17.8,0-28.2,0
	c-5.6,30.9-16.1,56.3-42.5,72.3C2411.1,2940.3,2380.3,2938,2346.7,2937L2346.7,2937z M2438.3,2806.4c0-14.4,1.4-26.9-0.4-38.9
	c-2.3-15.4-20.8-23.4-30.7-13.1c-6.2,6.4-10.3,17.2-10.8,26.3c-0.5,9.9,5.5,19.2,17.2,21.5
	C2420.6,2803.6,2427.7,2804.6,2438.3,2806.4L2438.3,2806.4z"/>
<path class="st0" d="M1413.3,2734.7h46c3.9,23.9,4.7,47.7,0.5,70.6c-4.3,23.9-21.5,47.1-56.1,45.8c-19.2-0.8-38.4-0.3-57.6,0
	c-6.1,0.1-12.3,1.4-17.2,2c-1.5,2.4-2.3,3.2-2.4,4c-3.4,45.9-22.7,69-68.6,77.8c-27.9,5.3-56.2,5.2-84.3-1.6
	c-33.9-8.1-53.2-31.2-62.1-62.9c-4.3-15.6-4.6-32.5-5.4-48.9c-0.9-17.1-0.2-34.3-0.2-52.9h47.7c0,23.2-0.1,45.8,0,68.4
	c0.1,35.4,13.9,49.7,49.3,51c13.7,0.5,27.5,0.6,41.1-0.2c20.9-1.2,26.2-6.2,33.9-29.7c-19.4-17.2-44-1.7-67.5-10.4
	c-0.8-12.2-1.8-25.4-2.8-40.4c8.6-0.6,15.6-1.5,22.6-1.6c48.5-0.1,96.9-0.1,145.4-0.1c6.4,0,12.8,0.4,19.2-0.3
	c13.9-1.5,17.6-4.9,18.2-18.9C1413.8,2770.1,1413.3,2753.8,1413.3,2734.7L1413.3,2734.7z"/>
<path class="st0" d="M357.5,2785.9c-34.9,18-69.1,35.1-102.7,53.3c-11,6-22.4,13.2-30,22.8c-14.4,18.1-19.9,39.7-7.3,61.1
	c12.7,21.5,28,41.1,56.8,41.1c24.7,0.1,49.4,0.1,74,0.1c9,0,17.9,0,28.8,0v43.7c-5.5,0.6-11.5,1.7-17.6,1.7
	c-28.3,0.1-56.7,0.7-85-0.2c-102.6-3.3-124.9-100.9-95.6-162.9c5.8-12.2,18.8-22.6,30.8-29.8c26.6-15.8,54.8-29,82.3-43.5
	c5.2-2.8,10-6.4,15.6-10c-6.7-14.8-17.9-17-30.1-17.1c-15.5-0.1-31.1-0.1-46.6-0.1c-9,0-18,0-30,0c-1.6-14.7-3-27.6-4.6-42.3
	c39.3-1.1,75.7-3.5,111.7,3.4c30.8,5.9,46.8,25.2,49.3,57.1C358,2771.6,357.5,2778.8,357.5,2785.9L357.5,2785.9z"/>
<path class="st0" d="M2923,2797.8v-62.7h47.9c1.2,24.7,3.5,49-2.2,73.1c-6.9,28.9-22.7,41.9-52.3,42.6c-31.8,0.7-63.7,0.2-95.1,0.2
	c-25.5,72.4-57.9,91.8-142.8,85.2c-2.6-14.4-5.3-29.4-8.2-45c12.5-6.1,25.5-1.8,37.9-3.1c9.9-1.1,20.2-0.6,29.7-3.1
	c20.3-5.3,30.6-18.5,31.1-39.5c0.6-28.3,0.1-56.7,0.1-85c0-8,0-16.1,0-25.3h48.4c0,17,0.3,33.1-0.1,49.3c-0.4,12.5,6.1,20,17.4,20.3
	c25.5,0.7,51.1-0.2,76.6-1C2914.7,2803.6,2917.8,2800.6,2923,2797.8L2923,2797.8z"/>
<path class="st0" d="M2082.5,2768.5h44.6c0.1,21.1,0.1,41.8,0.2,62.5c0.2,42.6,14.8,56.9,58.2,56.9c9.1,0,18.3,0.3,27.4,0
	c31.4-1.1,47.3-15.6,49-47c1.3-25.5,0.4-51.2,0.4-76.8c0-8.9,0-17.8,0-28.5h43.8c0.7,7.1,1.9,14.1,1.9,21.1
	c0.2,27.4,0.1,54.9,0,82.3c-0.2,50.9-29,87.2-79.2,96.2c-28.8,5.1-58.4,5.9-86.8-3.5c-33.5-11.1-54.3-35.8-58.7-69.6
	C2079.4,2831.9,2082.5,2800.7,2082.5,2768.5L2082.5,2768.5z"/>
<path class="st0" d="M962.2,2849.5c-3.2,0.4-6.7,1.3-10.1,1.3c-10,0.2-19.9,0.1-29.4,0.1c-5.6-20.8-7.3-165.7-3.1-222.9
	c13.5-5.8,27.8-2.4,41.8-2.3C966.4,2645.8,967.1,2822.4,962.2,2849.5L962.2,2849.5z"/>
<path class="st0" d="M2817.5,2652.6c-0.2,17.1-13.8,30.3-31.5,30.7c-17,0.3-32.3-13.8-32.2-29.8c0.1-16,14.1-27.6,33.8-27.9
	C2806.5,2625.2,2817.7,2635.3,2817.5,2652.6L2817.5,2652.6z"/>
<path class="st0" d="M1764.4,2905.8c0-17.6,12-27.4,33.1-26.9c18.9,0.4,30.8,11.2,30.1,27.4c-0.6,15.6-16.3,30.4-32.4,30.8
	C1778.7,2937.3,1764.4,2922.8,1764.4,2905.8L1764.4,2905.8z"/>
<path class="st0" d="M2185.2,2706.3c22-0.2,32.4,7.2,33,23.8c0.7,17.6-14.4,31.4-34.1,31.3c-17.4-0.1-29-10.2-29.6-25.8
	C2153.7,2716.6,2164.3,2706.5,2185.2,2706.3L2185.2,2706.3z"/>
<path class="st0" d="M1394.2,2713.3c-19,0.2-29.6-9.2-30.3-27c-0.7-16.4,11.4-28.3,29.3-28.7c19.6-0.5,34.2,11.3,34,27.3
	C1426.9,2702.5,1414.6,2713.1,1394.2,2713.3z"/>
<path class="st0" d="M2905.9,2908.3c-0.6,13.1-17.9,28.7-31.7,28.5c-15.3-0.2-28.9-14.9-28.2-30.5c0.6-15.8,11-23.8,30.1-23.2
	C2892.9,2883.7,2906.5,2895.2,2905.9,2908.3L2905.9,2908.3z"/>
<path class="st0" d="M2947,2883c16.5,1,26.2,11.2,24.7,26c-1.6,15.7-17.3,29.6-31.4,27.9c-14.7-1.8-27.1-15.8-26.5-29.9
	C2914.4,2891.1,2927.4,2881.8,2947,2883L2947,2883z"/>
<path class="st0" d="M2606.5,2883.1c17.5-0.3,30.1,10.5,29.4,25.3c-0.6,13.2-15.7,28.1-29.1,28.7c-13.5,0.6-27.8-13.4-28.6-28.1
	C2577.3,2893.3,2588.1,2883.4,2606.5,2883.1L2606.5,2883.1z"/>
<path class="st0" d="M2540.5,2883c15.9,0.5,27.8,10.8,28,24.2c0.3,13.9-16.5,30.1-30.6,29.5c-15.6-0.7-28.7-15.1-28-30.9
	C2510.7,2890.1,2521.1,2882.3,2540.5,2883z"/>
<path class="st0" d="M3413.9,2713.4c-16.9,0.4-28.2-10.2-27.9-26.1c0.3-15.6,9.5-24.2,26.2-24.5c17.9-0.4,32.9,11.5,32.3,25.6
	C3444,2702,3430.5,2713,3413.9,2713.4L3413.9,2713.4z"/>
<path class="st0" d="M3347,2713.3c-17.2,0.5-28.4-9.3-29.1-25.4c-0.7-16.2,7.3-24.2,25.1-25.2c18.1-1,30.1,8,30.9,23.1
	C3374.8,2701.9,3364.1,2712.8,3347,2713.3z"/>
</svg>
