<?xml version="1.0" encoding="utf-8"?>
<!-- Generator: Adobe Illustrator 27.7.0, SVG Export Plug-In . SVG Version: 6.00 Build 0)  -->
<svg version="1.1" id="Layer_1" xmlns="http://www.w3.org/2000/svg" xmlns:xlink="http://www.w3.org/1999/xlink" x="0px" y="0px"
	 viewBox="0 0 3500 3500" style="enable-background:new 0 0 3500 3500;" xml:space="preserve">
<style type="text/css">
	.st0{fill:url(#SVGID_1_);}
	.st1{fill:#FFFFFF;}
</style>
<linearGradient id="SVGID_1_" gradientUnits="userSpaceOnUse" x1="3497.6375" y1="-3501.1626" x2="-1.3123" y2="-2.1123" gradientTransform="matrix(1 0 0 -1 0 0)">
	<stop  offset="0" style="stop-color:#0D5D98"/>
	<stop  offset="1" style="stop-color:#629CDC"/>
</linearGradient>
<path class="st0" d="M3498.8,3500H0.3V0.5c7.8,0,15.5-0.3,23.3-0.3c1147.3,0,2294.7-0.2,3442-0.2c36.2,0,33.7-2.5,33.7,33.7
	c0.2,1147,0.3,2294,0.5,3441c0,8.4-0.6,16.8-0.9,25.2L3498.8,3500z M495.1,989.9c2.9,9.7,4.4,15.9,6.6,21.8
	c32.5,89.5,64.9,179,97.6,268.5c42,115,84.5,229.8,126.4,344.9c41.9,115,83.4,230.2,125.1,345.3c7.2,19.9,8.7,21.2,29.2,21.3
	c115.3,0.1,230.6,0.1,346,0c22,0,23.6-1.5,31-21.7c19.2-53,38.1-106.1,58-158.8c5.6-14.8,3.9-26.2-4.5-39.7
	c-71.6-114-95.8-237.8-74.1-370.5c14-85.5,48.7-162.5,101.3-230.8c60.3-78.2,137.1-135.1,229.7-170.1c6.6-2.5,13.1-5.5,19.7-8.2
	c-4.3-3.2-7.5-3.6-10.7-3.6c-124.4,0-248.8-0.1-373.2,0c-20.9,0-21.8,0.9-27.4,22c-29.2,108.8-58.5,217.7-87.5,326.6
	c-19.7,73.9-39.1,147.8-58.9,221.6c-1.8,6.9-3,14.6-10.8,20.4c-1.8-5.4-3.3-8.9-4.2-12.6c-23.4-86.9-46.7-173.9-70-260.9
	c-26.1-97.6-52.1-195.3-78.1-292.9c-6.1-22.8-8-24.4-32.2-24.4c-105,0-209.9,0-314.9,0c-6.9,0-13.8,1-24.2,1.7L495.1,989.9z
	 M3007.5,1990.7c-2.5-8.1-4.4-14.8-6.8-21.4c-19.8-54.8-39.7-109.6-59.6-164.4c-39.8-109.5-79.7-219.1-119.6-328.6
	c-23.9-65.7-48.1-131.4-72-197.1c-32.9-90.7-65.6-181.5-98.5-272.2c-6.7-18.6-7.2-18.8-26.5-18.8c-115.9-0.1-231.9,0-347.8,0
	c-21.2,0-22.7,0.8-29.9,20.4c-20.3,55.3-39.9,110.9-60.2,166.2c-4.2,11.4-3.3,20.6,3.5,30.9c42,63.7,67.5,133.6,78.7,209.1
	c13.4,89.9,4.4,177.5-28.5,261.6c-56.9,145-158.8,246.5-303.9,304.1c-6.7,2.6-13.2,5.5-22.8,9.5c5.7,0.9,7.6,1.4,9.5,1.4
	c126.3,0,252.6,0.1,378.9,0c18.3,0,19.8-1.9,24.8-20.5c9.3-35,18.5-70.1,27.9-105.1c38.5-143.9,77-287.8,115.6-431.6
	c2.8-10.3,6.5-20.4,9.8-30.6c1.5,0,3,0,4.5-0.1c2.6,7.6,5.5,15.1,7.6,22.9c9.4,35,18.4,70.1,27.8,105.2
	c27.5,102.6,55.2,205.1,82.8,307.6c11.9,44.4,23.6,88.9,35.6,133.3c4.7,17.4,6.5,18.5,24,19.1c2.6,0,5.2,0,7.8,0
	c108.2,0,216.3,0.1,324.5,0.1c3.7,0,7.4-0.6,13.1-1H3007.5z M1751.1,1738.8c137.3,3.4,250.7-111.6,250.5-247.8
	c-0.1-137.9-110.5-248.7-246.9-250.5c-129.3-1.7-253.1,99.1-253.4,249.7c-0.2,149.6,124.9,252.4,249.7,248.6L1751.1,1738.8z
	 M1281.7,2472.7c-13.4-4.6-27.4-9.5-41.4-14c-16.9-5.4-19.8-4.4-27.8,11.1c-20.8,40.5-31.6,83.8-29.6,129.3
	c4,89,49.1,141.4,137,158.2c27.8,5.3,56.6,7.3,84.9,7.1c75.9-0.7,143.8-25,200.6-76.2c41.1-37,59.9-83.5,54.8-139.1
	c-1.3-13.7-7-24.7-17.7-33.3c-16.8-13.4-36.2-19.8-57.3-21.8c-21.3-2-42.6-3.5-63.9-5.1c-11.8-0.9-24.3-1.3-29.8-14.1
	c-5.7-13.3,2.8-23.5,10.1-33.5c1.5-2.1,3.5-3.8,5.4-5.6c22.4-20.4,48.4-32.7,79.1-31.9c18,0.5,36,3.4,54,5.3
	c4.9,0.5,9.8,1.2,14.3,1.8c1.7-3,3.1-4.6,3.6-6.4c5.1-18.1,10.3-36.1,14.8-54.4c3.8-15.4,1.6-19.2-12.9-25.7
	c-29-12.9-59.1-13.4-89.5-7c-45.2,9.5-80,35.9-108.8,70.5c-29.1,34.9-46.3,74.7-42.9,121.5c1.9,27,15.2,44.9,41.2,52.7
	c8.6,2.6,17.7,3.9,26.7,4.8c30.9,3.1,61.9,5.2,92.8,9c6.8,0.8,15.6,5.3,18.7,10.9c5,8.7-0.4,17.9-8.1,23.7
	c-13.5,10-26.5,21.4-41.6,28.3c-64.5,29.5-131.7,41.8-202.4,27c-61.1-12.8-95-59.6-84.5-120.8c4-23.3,12.6-45.8,20-72.1
	L1281.7,2472.7z M2191.3,2338.9c7,4.6,12.6,7.8,17.7,11.6c23.2,17.5,47.8,33.6,68.9,53.3c15.3,14.2,27.6,32.4,38.2,50.7
	c9,15.5,2.4,34.1-12.4,44.5c-6.2,4.4-13.6,7.3-20.8,10.2c-22.9,9.3-47.1,6.4-71,7.4c-26.1,1.1-50-4.8-72.2-18.3
	c-5.3-3.2-11.3-5.2-18.5-8.5c-11.4,21-21.8,40.2-32.2,59.5c-3.6,6.8-1.6,13,4,17.3c11.9,8.8,23.2,19.7,36.5,25
	c55.6,22.1,112.3,24.2,168.6,2.4c38.7-15,65-42.6,74.9-83.2c10.6-43.5,6.2-86.1-13.4-126.8c-20.1-41.8-50.5-74.8-87.5-102.2
	c-13.8-10.2-28.1-19.9-44.8-31.7c-14.1,30.6-25.7,58.2-36.2,88.8H2191.3z M1722.8,2710.9c17,13.1,31.1,23.3,44.4,34.5
	c11.6,9.8,22.3,11.9,37,5.2c61-27.7,114.9-65.2,157.7-116.7c15.9-19.1,29.5-41.4,38.9-64.3c19-46.2,15.5-94.1-1.2-140.4
	c-9.4-26-24.2-49.7-46.2-70.7c-6.4,6.5-12.4,12-17.8,18.1c-11,12.7-21.6,25.8-32.5,38.6c-10.8,12.8-11,14.1-0.7,28.4
	c8.3,11.6,17.4,22.6,25.1,34.5c18.6,28.9,18,55.2-2.3,82.9c-7.6,10.4-16.3,20.2-25.4,29.3c-40.2,40.1-87.8,70.1-136.8,98
	C1750.8,2695.3,1738.4,2702.1,1722.8,2710.9L1722.8,2710.9z"/>
<path class="st1" d="M495.1,989.9c10.4-0.8,17.3-1.7,24.2-1.7c105-0.1,209.9-0.1,314.9,0c24.2,0,26.1,1.6,32.2,24.4
	c26,97.6,52,195.3,78.1,292.9c23.3,87,46.6,173.9,70,260.9c1,3.7,2.4,7.2,4.2,12.6c7.8-5.8,9-13.5,10.8-20.4
	c19.7-73.8,39.1-147.8,58.9-221.6c29.1-108.9,58.3-217.7,87.5-326.6c5.7-21.1,6.5-22,27.4-22c124.4-0.1,248.8,0,373.2,0
	c3.2,0,6.3,0.4,10.7,3.6c-6.6,2.7-13,5.7-19.7,8.2c-92.6,35-169.4,92-229.7,170.1c-52.7,68.3-87.3,145.2-101.3,230.8
	c-21.7,132.7,2.5,256.5,74.1,370.5c8.5,13.5,10.2,24.8,4.5,39.7c-20,52.7-38.8,105.8-58,158.8c-7.4,20.3-8.9,21.7-31,21.7
	c-115.3,0.1-230.6,0.1-346,0c-20.5,0-22-1.4-29.2-21.3c-41.7-115.1-83.2-230.3-125.1-345.3c-41.9-115-84.3-229.9-126.4-344.9
	c-32.7-89.4-65.2-179-97.6-268.5C499.6,1005.9,498.1,999.7,495.1,989.9L495.1,989.9z"/>
<path class="st1" d="M3007.5,1990.7c-5.7,0.5-9.4,1-13.1,1c-108.2,0-216.3,0-324.5-0.1c-2.6,0-5.2,0-7.8,0
	c-17.5-0.7-19.3-1.8-24-19.1c-12-44.4-23.7-88.9-35.6-133.3c-27.6-102.5-55.2-205.1-82.8-307.6c-9.4-35-18.4-70.1-27.8-105.2
	c-2.1-7.7-5-15.2-7.6-22.9c-1.5,0-3,0-4.5,0.1c-3.3,10.2-7,20.3-9.8,30.6c-38.6,143.9-77.1,287.7-115.6,431.6
	c-9.4,35-18.6,70.1-27.9,105.1c-4.9,18.6-6.5,20.5-24.8,20.5c-126.3,0.2-252.6,0-378.9,0c-1.9,0-3.8-0.6-9.5-1.4
	c9.6-4,16.2-6.9,22.8-9.5c145.1-57.6,247-159.1,303.9-304.1c33-84.1,42-171.7,28.5-261.6c-11.3-75.5-36.7-145.4-78.7-209.1
	c-6.8-10.3-7.7-19.5-3.5-30.9c20.4-55.3,40-110.9,60.2-166.2c7.2-19.6,8.7-20.4,29.9-20.4c115.9-0.1,231.9-0.1,347.8,0
	c19.3,0,19.7,0.3,26.5,18.8c33,90.7,65.6,181.5,98.5,272.2c23.9,65.7,48,131.4,72,197.1c39.9,109.5,79.8,219.1,119.6,328.6
	c19.9,54.8,39.8,109.6,59.6,164.4c2.4,6.6,4.2,13.3,6.8,21.4H3007.5z"/>
<path class="st1" d="M1751.1,1738.8c-124.8,3.9-249.9-99-249.7-248.6c0.2-150.6,124.1-251.4,253.4-249.7
	c136.3,1.8,246.7,112.6,246.9,250.5c0.1,136.2-113.2,251.2-250.5,247.8L1751.1,1738.8z"/>
<path class="st1" d="M1281.7,2472.7c-7.5,26.2-16,48.8-20,72.1c-10.5,61.3,23.4,108,84.5,120.8c70.8,14.9,137.9,2.5,202.4-27
	c15-6.9,28.1-18.3,41.6-28.3c7.7-5.8,13.1-14.9,8.1-23.7c-3.2-5.5-12-10-18.7-10.9c-30.8-3.8-61.9-5.9-92.8-9
	c-9-0.9-18.1-2.2-26.7-4.8c-26-7.8-39.3-25.7-41.2-52.7c-3.4-46.8,13.9-86.6,42.9-121.5c28.8-34.6,63.6-61,108.8-70.5
	c30.4-6.4,60.5-5.8,89.5,7c14.5,6.5,16.7,10.2,12.9,25.7c-4.5,18.2-9.8,36.3-14.8,54.4c-0.5,1.8-1.8,3.4-3.6,6.4
	c-4.5-0.6-9.4-1.3-14.3-1.8c-18-1.9-36-4.8-54-5.3c-30.7-0.8-56.7,11.5-79.1,31.9c-1.9,1.7-3.9,3.5-5.4,5.6
	c-7.4,10-15.8,20.2-10.1,33.5c5.4,12.8,17.9,13.2,29.8,14.1c21.3,1.5,42.6,3.1,63.9,5.1c21,2,40.5,8.4,57.3,21.8
	c10.7,8.5,16.4,19.5,17.7,33.3c5.2,55.7-13.7,102.1-54.8,139.1c-56.9,51.2-124.7,75.5-200.6,76.2c-28.3,0.3-57.1-1.8-84.9-7.1
	c-88-16.7-133-69.2-137-158.2c-2-45.5,8.8-88.8,29.6-129.3c8-15.5,10.9-16.5,27.8-11.1c14.1,4.5,28,9.4,41.4,14L1281.7,2472.7z"/>
<path class="st1" d="M2191.3,2338.9c10.5-30.6,22.2-58.3,36.2-88.8c16.7,11.8,31,21.4,44.8,31.7c37,27.3,67.4,60.3,87.5,102.2
	c19.6,40.7,24,83.3,13.4,126.8c-9.9,40.6-36.2,68.2-74.9,83.2c-56.4,21.8-113,19.7-168.6-2.4c-13.4-5.3-24.7-16.2-36.5-25
	c-5.7-4.2-7.7-10.5-4-17.3c10.3-19.3,20.8-38.5,32.2-59.5c7.2,3.3,13.2,5.2,18.5,8.5c22.2,13.6,46.1,19.5,72.2,18.3
	c23.9-1,48.1,1.9,71-7.4c7.2-2.9,14.6-5.8,20.8-10.2c14.7-10.4,21.3-29,12.4-44.5c-10.5-18.2-22.9-36.4-38.2-50.7
	c-21.1-19.7-45.7-35.8-68.9-53.3c-5.1-3.8-10.7-7-17.7-11.6H2191.3z"/>
<path class="st1" d="M1722.8,2710.9c15.6-8.7,28-15.5,40.2-22.5c49-27.9,96.5-58,136.8-98c9.1-9.1,17.8-18.9,25.4-29.3
	c20.3-27.8,21-54.1,2.3-82.9c-7.7-11.9-16.8-23-25.1-34.5c-10.2-14.3-10.1-15.5,0.7-28.4c10.8-12.9,21.4-25.9,32.5-38.6
	c5.3-6.2,11.4-11.7,17.8-18.1c22,21,36.8,44.7,46.2,70.7c16.7,46.2,20.3,94.1,1.2,140.4c-9.5,23-23,45.2-38.9,64.3
	c-42.8,51.6-96.6,89.1-157.7,116.7c-14.7,6.7-25.4,4.6-37-5.2C1753.9,2734.3,1739.8,2724.1,1722.8,2710.9L1722.8,2710.9z"/>
</svg>
