<?xml version="1.0" encoding="utf-8"?>
<!-- Generator: Adobe Illustrator 27.7.0, SVG Export Plug-In . SVG Version: 6.00 Build 0)  -->
<svg version="1.1" id="Layer_1" xmlns="http://www.w3.org/2000/svg" xmlns:xlink="http://www.w3.org/1999/xlink" x="0px" y="0px"
	 viewBox="0 0 3500 3500" style="enable-background:new 0 0 3500 3500;" xml:space="preserve">
<style type="text/css">
	.st0{fill:#0162C0;}
</style>
<path class="st0" d="M3138.8,739.2h360c0.4,10.4,1.1,21.3,1.1,32.1c0,160.1,0,320.2,0,480.4c0,294.8,0.2,589.6-0.2,884.4
	c0,62.6-30.8,110.9-78.9,147.6c-33.7,25.7-73.4,36.6-116.4,36.5c-141.3-0.4-282.5,1.4-423.8-0.6c-144.2-2.1-275.3-45.2-389.4-135.5
	c-7.3-5.7-15.5-10.2-24-15.6c-21.1,17.2-40.7,34.4-61.6,50c-59.8,44.6-127.5,72.5-200,87.8c-36.5,7.7-74.3,13.2-111.5,13.2
	c-115,0-220.1-34.7-315.4-98.6c-18.6-12.5-35.4-28-51.9-43.3c-11.2-10.4-19.9-10.5-31.6-0.6c-82.4,69.7-177.8,112.3-283.6,130.5
	c-42.4,7.3-85.7,11.3-128.6,12.2c-89.4,1.8-178.9,0.7-268.4,0.4c-34.2-0.1-35.2-1.1-46.6,31.2c-38.3,108.4-104.2,197.2-191.1,271.1
	c-39.7,33.7-85.1,58.3-131.6,81.3c-57.1,28.2-118.8,40.7-180,55.1c-9.9,2.3-20.6,2.1-30.9,2.1c-138.4,0.2-276.9,0.2-415.3,0.2
	c-6.5,0-13-0.8-19.2-1.3c1.3-12.4,3.5-23.9,3.6-35.4c0.4-49.9,2-99.9-0.3-149.7c-2.8-61.3,46.8-134.4,109.9-156.6
	c23.1-8.1,46.4-13.3,71.6-12.8c61.2,1.3,122.5-0.9,183.6,0.7c98.8,2.7,174.7-40.2,231.5-117.2c29.1-39.5,46.7-85.1,46.4-136.5
	c-0.9-148.8-0.3-297.6-0.3-446.5c0-4.7,0-9.4,0-14.1c0.3-30.2,1.4-31.4,32.3-31.5c97-0.1,194-0.1,291,0c35.9,0,37.5,1.8,37.5,39.2
	c0,75.4,0,150.7,0,226.1c0,10.1,1,20.2,1.6,32.6c11.1,0.8,20.2,2.1,29.3,2.1c91.3,0,182.7-0.2,274,0c44.6,0,84-15,121.8-37.7
	c35.3-21.2,65.1-47.2,87-82.6c20.2-32.6,31.9-67.7,36.7-105.6c18.8-148.3,82.6-271.3,200.1-366.4c68.2-55.2,144.1-91.3,229.6-107.4
	c69-13,138.3-12.3,207.6-0.1c79.4,13.9,150.7,45.9,214.6,94.3c110.3,83.4,180.2,192.8,207.4,328.7c4,20.2,7.2,40.9,7.6,61.4
	c0.7,33.4,11.5,63.4,29.3,90.1c43.5,65.4,103.5,108,181.3,123.8c5.5,1.1,11.2,1.2,16.9,1.2c87.6,0.2,175.2,0.3,262.7,0.3
	c6.4,0,12.8-1.4,22-2.5c4.7-57.6,1.5-114.8,2.1-171.8c0.6-58.4,0.1-116.8,0.1-175.2V915.6c0-57.4,0-114.8,0-175.9L3138.8,739.2z
	 M2264.1,1785.4c12-87.6-71.9-176.2-172.3-176c-104.7,0.3-178.3,85.1-175.9,183.2c2.1,88.6,88.4,167.9,180.7,168.8
	C2172,1962.2,2278.7,1874.7,2264.1,1785.4L2264.1,1785.4z"/>
</svg>
