<?xml version="1.0" encoding="utf-8"?>
<!-- Generator: Adobe Illustrator 27.7.0, SVG Export Plug-In . SVG Version: 6.00 Build 0)  -->
<svg version="1.1" id="Layer_1" xmlns="http://www.w3.org/2000/svg" xmlns:xlink="http://www.w3.org/1999/xlink" x="0px" y="0px"
	 viewBox="0 0 3500 3500" style="enable-background:new 0 0 3500 3500;" xml:space="preserve">
<style type="text/css">
	.st0{fill:#B40001;}
</style>
<path class="st0" d="M1277.4,1439.5v1710.3l0,0c319.2-227.9,633.1-452.2,945.3-675.2C2128.5,1907.2,1664.6,1520.8,1277.4,1439.5
	L1277.4,1439.5z"/>
<path class="st0" d="M1701.6,3499.4c1006.6,25.5,1804.8-791.3,1797.5-1748.9C3503.3,789.3,2728,25.1,1803.4,0.6
	C789.3-26.2,16.7,784.5,1.1,1714.4C-15.7,2712.3,782.3,3476.1,1701.6,3499.4z M1728.2,217.2c873.3-11.1,1554.2,689.6,1555.4,1532.5
	c-0.7,844.6-686.3,1548.4-1562.6,1532.5c-825.5-15-1490.6-676.6-1502.6-1506.9C205.8,899.2,900.5,227.8,1728.2,217.2z"/>
<path class="st0" d="M2220.2,2152c9.5-54.7,6.1-1734.9-5.3-1765.7c-460.4,303.8-919.7,607-1384.5,913.7l0,0
	C1477.7,1295.5,1937.6,1579.4,2220.2,2152z"/>
</svg>
