<?xml version="1.0" encoding="utf-8"?>
<!-- Generator: Adobe Illustrator 27.7.0, SVG Export Plug-In . SVG Version: 6.00 Build 0)  -->
<svg version="1.1" id="Layer_1" xmlns="http://www.w3.org/2000/svg" xmlns:xlink="http://www.w3.org/1999/xlink" x="0px" y="0px"
	 viewBox="0 0 3500 3500" style="enable-background:new 0 0 3500 3500;" xml:space="preserve">
<style type="text/css">
	.st0{fill:#FFFFFF;}
	.st1{fill:#073244;}
	.st2{fill:#CE202B;}
	.st3{fill:#0084BC;}
</style>
<rect y="914.7" class="st0" width="3138.1" height="1221.8"/>
<path class="st1" d="M1385.9,2502.3c-24.6,14.8-53,16.3-75,2.6c-32.1,3.2-57.8,7.6-83.6,7.9c-90.9,0.9-181.8,0.8-272.7,0
	c-19.8-0.2-39.5-5.2-59.2-8c-19.6,2.7-40.1,7.8-60.7,8c-105.9,0.8-211.8,0.4-317.7,0.4c-8.8,0-17.8,0.2-26.4-1.1
	c-21-3.4-32.6-13.5-33.1-34.6c-1.5-57.3-0.9-114.6-0.9-171.9c0-2.4,2-4.8,3.8-9h35c0.9,10.7,2.3,20.1,2.3,29.4
	c0.3,40.6-0.1,81.2,0.2,121.8c0.2,24.8,2.9,27.7,27.5,27.7c102.4,0.2,204.8,0.3,307.1,0c24.4-0.1,27.3-3.3,27.7-27.8
	c0.4-26.3,0.1-52.6,0.1-81.1h40.2c0,24.4-0.1,47.9,0,71.3c0.2,31.6,5.5,37.5,36.8,37.6c99.7,0.3,199.5,0.3,299.2,0
	c25.7-0.1,28-2.8,28.5-29.5c0.3-15.7,0.1-31.5,0.1-50.4c14.5-0.7,26-1.2,41.9-2c0,20.7-0.5,38.1,0.1,55.4
	c0.7,19.3,7.8,26.4,25.1,26.4c16.3,0,21.3-5.2,22.1-25.5c0.7-17.4,0.2-34.8,0.2-54.4h42.6c0,18.1-0.3,34.6,0.1,51.1
	c0.4,21.3,5.9,28.1,22.2,28.7c16.8,0.7,22.4-5.5,22.8-27.4c0.5-26.2,0.1-52.5,0.1-81.2h39.1c0.9,9.7,2.4,19,2.6,28.3
	c0.5,17.6,0.6,35.3,0.2,53c-0.4,17.7,8.8,25.7,25.4,27.3c1.8,0.2,3.5,0.3,5.3,0.3c102.4,0,204.8-0.1,307.1,0.3
	c17.3,0.1,23.6-8.1,23.3-24.4c-0.4-19.4-0.3-38.8,0.1-58.2c0.2-8.5,1.5-17,2.4-26.8h36.9c0,41.4,0.9,80.8-0.8,120
	c-0.3,7.3-9.9,16.4-17.5,20.7c-7.9,4.5-18.5,6-27.9,6c-104.1,0.4-208.3,1.7-312.4-0.7c-29.8-0.7-58.7-8.4-89.3-0.3
	C1423.3,2515.5,1406.7,2506.7,1385.9,2502.3L1385.9,2502.3z"/>
<path class="st1" d="M2327.4,2471.8v-104.5c14.6-1.3,26.2-2.4,39.6-3.6c1.6,9.5,3.6,16.2,3.8,22.9c0.5,17.6,0,35.3,0.3,52.9
	c0.5,29,6.8,35,36.5,35.8c2.6,0.1,5.3,0,7.9,0c92.6,0,185.2,0.1,277.8,0c34,0,35.3-1.5,35.4-36.2c0.1-23.6,0-47.2,0-73h40.4
	c0,24.4-0.1,47.9,0,71.3c0.2,31.3,5.8,37.7,36.7,37.8c99.7,0.3,199.3,0.3,299,0.1c26.1-0.1,29.2-3.2,29.6-28.8
	c0.4-26.2,0.1-52.4,0.1-80.4h39.8c0,40.6,0.7,79.1-0.4,117.5c-0.4,13.3-9.9,22.6-23.1,25.9c-8.5,2.1-17.3,3.5-26,3.5
	c-103.2,0.2-206.4,0.6-309.6-0.3c-17.1-0.1-34.1-5.9-46.7-8.3c-24.9,3.2-46.4,8.2-67.9,8.4c-91.7,0.9-183.4,0.8-275.2,0
	c-19.8-0.2-39.5-4.8-59.6-7.5c-22,2.5-45.2,7.2-68.4,7.5c-82,0.9-164,0.6-246.1,0.3c-25.3-0.1-50.6-1.7-76.3-2.7
	c-20.8,70.2-29.4,77.4-87.6,69.2v-28.5c2.3-1.8,3.5-3.5,5-3.8c34-7.1,35.7-7.9,36.8-42.7c1.1-35.1,0.2-70.3,0.2-108.6
	c14.2-1.1,25.8-2,41.6-3.3c0.5,18.5,0.8,34,1.3,49.4c0.8,26.8,6.2,33.1,32.9,33.1c98.8,0.4,197.5,0.2,296.3,0
	C2309.2,2475.2,2316.8,2473.3,2327.4,2471.8L2327.4,2471.8z"/>
<path class="st1" d="M304.9,2442.7c-4,22.9-9.8,42.5-10.3,62.2c-0.6,26.2,15,39.4,42,40.8c25.3,1.3,39.9-9.6,44.8-34.5
	c1.8-9.4,1.9-19.3,1.9-28.9c0.2-51.2,0.1-102.4,0.1-153.5c0-9.5,0-19,0-31.7c13.7-0.6,24.2-1.2,36.4-1.7c1.3,9.6,2.9,16.3,2.9,23.1
	c0.2,61.8,0.2,123.5,0,185.3c-0.1,24.5-3.9,47.8-26,63.3c-33.6,23.6-70.7,22.6-105.7,7.6c-31.6-13.5-42.2-42.9-40.2-76.8
	c1.4-23.4,7-45,23.6-65.8C285.3,2435.8,296.3,2439.7,304.9,2442.7L304.9,2442.7z"/>
<path class="st1" d="M3216.2,2296.1h38.8c0.7,71.1,0.4,141,0.1,214.4c-13.6,0.6-25,1.1-38.9,1.8L3216.2,2296.1L3216.2,2296.1z"/>
<path class="st1" d="M3137.1,2542.4h34.7c0.6,12.2,1.1,22.9,1.7,36.2h-36.4L3137.1,2542.4L3137.1,2542.4z"/>
<path class="st1" d="M1885.5,2294.1v37.2h-39c-0.6-11.2-1.1-21.1-1.8-34.2C1858.4,2296.1,1870,2295.3,1885.5,2294.1z"/>
<path class="st1" d="M861.2,2331.1v-34.4c12.4-0.8,23.9-1.5,38.2-2.4v36.8L861.2,2331.1L861.2,2331.1z"/>
<path class="st1" d="M3082.8,2543.1h33.4v35.8h-33.4V2543.1z"/>
<path class="st1" d="M1419.8,2331.9h-34.2v-35.2h34.2V2331.9z"/>
<path class="st1" d="M2370.5,2332h-35.1c-0.5-11.5-1-22.1-1.6-35.1h35.1C2369.4,2308.2,2369.9,2318.1,2370.5,2332L2370.5,2332z"/>
<path class="st1" d="M2769.5,2332.1h-38.7v-35.7h36.7C2768.1,2307.5,2768.7,2318.1,2769.5,2332.1z"/>
<path class="st1" d="M1359.6,2249.7h32.5c0.8,10.8,1.7,21.4,2.7,34.5h-35.1L1359.6,2249.7L1359.6,2249.7z"/>
<path class="st1" d="M1331.3,2331.4v-35h32.8c0.5,10.9,1.1,21.7,1.7,35H1331.3z"/>
<path class="st1" d="M2279.2,2291.9c15.4,3.8,27.7,3.4,33,9.3c4.6,5.1,4.7,20.6,0.2,25.7c-5.3,6-17.6,5.7-30.8,9.1
	C2280.9,2320.6,2280.3,2310.1,2279.2,2291.9L2279.2,2291.9z"/>
<path class="st2" d="M2832,1588.2c-0.4,26.4-12.3,39.4-35.9,39.3c-24.4-0.2-36.2-14.1-35.6-42.3c0.6-27.4,13.8-41.9,37.3-41.1
	C2820.8,1545,2832.4,1559.9,2832,1588.2z"/>
<path class="st2" d="M2327.2,1553.3c22.4-12.8,43.1-14.6,61.7-1.4c6.7,4.7,11.6,18.6,10,26.8c-3.2,16.2-12.8,30.2-32.1,33.9
	C2353.8,1593.2,2341.3,1574.4,2327.2,1553.3L2327.2,1553.3z"/>
<polygon class="st3" points="3257.1,915.9 3257.1,1226.1 3307.5,1226.1 3307.5,1829.1 3257.1,1829.1 3257.1,2136.5 3500,2136.5 
	3500,915.9 "/>
<path class="st2" d="M3173,1829.1v-603h48.9V914.7H0v1222.4c33.2,7.2,2974.9,5.7,3200.6-0.6h21.2v-307.4L3173,1829.1L3173,1829.1z
	 M2753.4,1360.6h85.3v63.4h-85.3V1360.6z M2321.4,1361.1h83v63.4h-83V1361.1z M1813.6,1362.2c26.2-6.9,52.8-3.6,81.6-2v63.7h-81.6
	V1362.2z M917.8,1361.1h64v62.9h-64V1361.1z M830.3,1360.2h65.3v63.4h-65.3V1360.2z M348.6,1414.1h83.3v61.2h-83.3V1414.1z
	 M519.4,1730.8c-7.5,32.4-30.1,55-61.6,67.8c-44.5,18.2-89.1,19.2-133.6,0.3c-38.6-16.3-64.4-44.1-67.5-86.8
	c-2-27.8-0.5-56.2,3.4-83.8c2.3-16.5,12.1-31.9,19.2-49.3c28.3,7.8,52.5,14.4,79.5,21.8c-4.9,14.1-9.2,25.4-12.6,37
	c-7.6,25.1-9.8,50.3,3.6,74.3c11.1,20,31.3,28.7,53.6,23.9c20.1-4.3,33.4-17.8,34.5-41.1c1.8-40.4,1.2-81,1.5-121.5
	c0.1-17.4,0-34.7,0-54.5h87.4C524.5,1591.1,535.4,1661.5,519.4,1730.8L519.4,1730.8z M1894.5,1663.9c-1.4,31.8-19.7,47.1-52.3,47.4
	c-68.8,0.8-137.6,1.3-206.4-0.5c-17.5-0.5-34.7-10.4-53.9-16.6c-43.3,25.2-88.8,27-133.9-2.8c-47.4,27-94.5,31.3-142.8-1.7
	c-20.7,21.2-47.6,22.3-75.3,22.1c-56.4-0.5-112.9-0.6-169.4,0c-28.7,0.3-56.7,0-81-21.9c-27.4,25.8-60.9,21.7-93.4,21.7
	c-79.4,0.1-158.8,0.3-238.2-0.1c-43.3-0.2-62.1-17.4-62.7-60.8c-1.1-90.9-0.5-181.8-0.3-272.6c0-5.1,1.8-10.1,3.2-17.3H669
	c0.9,11.1,2.4,21.2,2.5,31.4c0.2,61.8,0.1,123.5,0.2,185.3c0,7.9,0.1,15.9,0.8,23.8c1.2,14.2,7.5,22.7,23.3,22.7
	c59.1-0.3,118.2-0.2,177.3-0.1c18.2,0,25-10.6,25.1-27c0.3-28.2,0-56.5,0.3-84.7c0.1-9.5,1-19,1.8-31.6h83.5c0,20.5,0,40.4,0,60.4
	c0,15.9-0.4,31.8,0.2,47.6c0.8,23.6,10,33.6,33.9,35c21.1,1.2,42.3,0.5,63.5,0.5c35.3,0,70.6,0.1,105.9-0.1
	c31.3-0.1,34.6-2.4,36.8-34.2c1.6-23.6,0.3-47.3,0.3-73.8h83.9c0.9,11.1,2.3,22,2.6,33.1c0.5,15.9-0.3,31.8,0.4,47.6
	c1,20.8,6.7,26.6,24.5,27.1c19.3,0.6,27-5.8,27.8-26.7c1-26.3,0.2-52.6,0.2-81.4h83.8c1,12,2.3,23,2.7,34.1
	c0.5,15.9-0.5,31.8,0.7,47.6c1.4,20.3,9.4,27,28.6,26.3c17.7-0.6,22.5-5.6,23.1-27.8c0.7-28.2,0.1-56.5,0.4-84.7
	c0.1-9.4,1.2-18.9,2-30.3h82.7c0.9,10.6,2.4,19.9,2.5,29.3c0.3,27.3-0.4,54.7,0.4,82.1c0.6,21.2,8,30.5,28.1,30.9
	c56.4,1.1,112.9,0.6,169.3,0.5c17.4-0.1,22.2-12,22.4-26.7c0.3-22.9,0.2-45.9,0.2-68.8c0-54.6-2.4-49.3,50.8-49.4
	c10.4,0,20.8,1,30.9,1.5c2,5.2,4.3,8.4,4.3,11.7C1896.3,1549.4,1897.1,1606.7,1894.5,1663.9L1894.5,1663.9z M2917.8,1607.7
	c-0.3,1.7-0.9,3.4-1.2,5.1c-16.7,75.6-45.2,98.8-123,98.9c-119.1,0.2-238.1,0.5-357.2-0.4c-19.8-0.2-39.4-7.1-59.3-9.8
	c-10.1-1.3-20.6-1.2-30.7,0.2c-19.9,2.7-39.6,9.4-59.5,9.6c-87.3,1.1-174.6,0.5-261.9,0.4c-3.5,0-7.1,0-10.6-0.1
	c-37.6-1.7-55.1-18-55.8-56.1c-1.1-53.8-0.4-107.6-0.5-161.4c0-35.3-0.1-70.6,0.1-105.8c0.1-8.6,1-17.2,1.7-27.7h80.2
	c0.9,10.7,2.6,20.8,2.6,30.9c0.2,64.4-0.1,128.8,0.2,193.2c0.1,35.1,4.5,39.2,40,39.4c60.9,0.2,121.7,0.1,182.6-0.1
	c8.5,0,17-1.1,26.7-1.7c-2-25.2-20.9-33.8-35.7-45c-20.2-15.2-31-46.8-20.2-69.5c3.3-6.9,11.8-12.8,19.3-16.2
	c49-22.1,100.6-25.4,152.7-16.4c17.7,3.1,35.9,10,51.2,19.4c33.6,20.5,40.1,67.6,15.6,99.5c-6.2,8.1-12.7,16-22.2,27.8h217.9
	c3.1-26.9,3.1-52.7,9.4-76.8c10.9-41.5,40.6-64.1,82.8-71.2c32-5.4,63.9-5.1,93.6,7.6C2901,1500.6,2927.2,1557,2917.8,1607.7
	L2917.8,1607.7z M3061,1709.9h-83.3v-348.8h83.3V1709.9z"/>
</svg>
