<?xml version="1.0" encoding="utf-8"?>
<!-- Generator: Adobe Illustrator 27.7.0, SVG Export Plug-In . SVG Version: 6.00 Build 0)  -->
<svg version="1.1" id="Layer_1" xmlns="http://www.w3.org/2000/svg" xmlns:xlink="http://www.w3.org/1999/xlink" x="0px" y="0px"
	 viewBox="0 0 3500 3500" style="enable-background:new 0 0 3500 3500;" xml:space="preserve">
<style type="text/css">
	.st0{fill:#FEFEFE;}
	.st1{fill:#239ECA;}
	.st2{fill:#008FC1;}
</style>
<path class="st0" d="M1.5,2107.6c-0.4,4.9-1.1,9.8-1.1,14.6c-0.1,404.9-0.1,809.8,0,1214.7c0,6.9,1.4,13.9,2,20.1h3497.3
	c0-13.3,0-24.2,0-35.1c0-641.7,0-1283.4-0.1-1925.2c0-11-0.9-22-1.4-33c0.4-4.9,1.3-9.7,1.3-14.6c0.2-395.2,0.4-790.4,0.4-1185.6
	c0-6.9-1.6-13.9-2.4-20.6H0c0,13.4,0,24.4,0,35.3c0.2,634.5,0.4,1269.1,0.6,1903.6C0.6,2090.4,1.2,2099,1.5,2107.6L1.5,2107.6z"/>
<path class="st1" d="M1.5,2107.6c-0.3-8.6-0.9-17.1-0.9-25.7C0.4,1447.3,0.2,812.8,0,178.2c0-10.9,0-21.8,0-35.3h3497.6
	c0.8,6.7,2.4,13.6,2.4,20.6c0,395.2-0.2,790.4-0.4,1185.6c0,4.9-0.8,9.7-1.3,14.6c-11.6,3.6-23.6,6.4-34.8,11.1
	c-126.5,52-252,106.4-379.4,155.9c-159.2,61.8-320.1,119.6-480.2,179.2c-0.5-13.4-1.4-26.9-1.4-40.3c-0.1-197.3-0.2-394.6-0.2-591.9
	c0-12.8,0-25.7,0-37.7h-258.7c0,14,0,25.9,0,37.9c0,107.8,0.1,215.7-0.2,323.5c-0.3,132.3-0.9,264.6-1.3,396.9
	c-8.5,0.8-17.3,0.4-25.4,2.6c-185.8,49.6-371,101.8-557.5,148.4c-120.2,30-242.3,52.8-364.3,75.4c-15.8,2.9-36.2,19.8-53.8,0.2
	c87.4-84.9,85.7-194.6,80-307.6h44.4c151,0,302,0.3,452.9-0.3c24.3-0.1,49.1-2.4,72.9-7.5c200-42.7,324.7-239.8,270.2-434.5
	c-37.9-135.3-125.3-224.8-268.1-251.1c-126.4-23.2-238,3.9-328.8,99.4c-64.2,67.6-90.8,149.7-94,240.8c-1.2,33.8-0.2,67.7-0.2,100.7
	H1422c0-36.1,1.1-69.2-0.2-102.2c-8.7-232.3-207.8-402.9-464.9-331c-128.5,35.9-240.6,167.7-238.8,336.4
	c2.1,195.8,161.5,349.1,357.8,349.3c31.5,0,63,0,96.1,0v345.9c-43.5,4.9-86.9,10.7-130.5,14.6c-65.5,5.9-131.2,10.5-196.8,15.5
	c-94.8,7.2-189.5,19.6-284.3,20.4C374.1,2115,187.8,2109.9,1.5,2107.6L1.5,2107.6z M2819.4,622.5c-2.8-2.9-5.6-5.8-8.4-8.7
	c-10.9,0-21.9,0-32.8,0c-148.5,0-297.1-0.9-445.6,0.3c-148.2,1.2-220.9,110.8-187.4,255.8c110.1,0,220.4,0,330.8,0
	c122-0.1,216.5-54.1,287.5-150.3C2785.6,689.8,2801,655,2819.4,622.5L2819.4,622.5z"/>
<path class="st2" d="M1.5,2107.6c186.3,2.4,372.6,7.5,558.9,6c94.8-0.7,189.5-13.1,284.3-20.4c65.6-5,131.3-9.6,196.8-15.5
	c43.6-3.9,87-9.7,130.5-14.6c-0.7,25.2,16.8,22.3,32.7,20.9c51.9-4.8,94.2-32,136.4-59.2c17.6,19.6,38,2.7,53.8-0.2
	c121.9-22.6,244-45.4,364.3-75.4c186.6-46.5,371.7-98.8,557.5-148.4c8.1-2.2,16.9-1.8,25.4-2.6v285.9c10.4,1.2,15.1,2.3,19.8,2.2
	c125.8-1.8,236.5-110.7,240.1-236.9c1.4-46.5,1.2-93,1.8-139.6c160.1-59.5,320.9-117.3,480.2-179.2
	c127.4-49.5,252.9-103.9,379.4-155.9c11.2-4.6,23.2-7.4,34.8-11.1c0.5,11,1.4,22,1.4,33c0.1,641.7,0.1,1283.4,0.1,1925.2
	c0,10.9,0,21.8,0,35.1H2.4c-0.6-6.2-2-13.2-2-20.1c-0.1-404.9-0.1-809.8,0-1214.7C0.4,2117.3,1.1,2112.4,1.5,2107.6L1.5,2107.6z
	 M2164.3,2744.9c0-96.9,8.8-193.2-2-287.3c-16.3-142.3-149.1-235.8-291.4-218.7c-51.5,6.2-94.8,30.2-136.5,58.8
	c-8.5-5.6-15.6-10.3-22.8-14.9c-86.5-55.7-177.7-64.9-268.7-16.6c-91.9,48.8-138.7,128.6-138.3,234.1c0.1,39.3,0,78.6,0,117.8
	c0,41.4,0,82.8,0,126.1h184.2c0-14.4,0-26.5,0-38.6c0-71.2-0.5-142.4,0.2-213.6c0.4-43.4,25.4-68.2,68.4-70.6
	c49.3-2.7,83.2,28.5,84.1,80.9c1.3,68.7,0.2,137.5,0.4,206.2c0,11.8,1.2,23.5,1.9,35.6h184.7c0-14.4,0-26.5,0-38.6
	c0-66.3-0.2-132.6,0.1-198.9c0.1-26.6,5.7-51.3,29-68.1c24.7-17.9,52.1-23.2,79.9-10.6c29.1,13.3,44.7,37.8,44.8,70.3
	c0.3,70,0,139.9,0.2,209.9c0,11.8,1.2,23.6,1.9,36.7L2164.3,2744.9L2164.3,2744.9z M1238,2742.3c0-87.6-2.8-173.5,0.6-259.2
	c6.6-170.9-182.5-323.1-372.5-234.3c-106.1,49.6-163.3,164.8-143,284.1c18.3,107.6,111.9,200.2,223.4,208.1
	C1041.4,2747.6,1137.3,2742.3,1238,2742.3L1238,2742.3z M2215,2237.6c0,90.5-2.9,176.4,0.8,262.1c3.8,89.1,46.5,160.5,122,207.2
	c155.4,96.2,357.9,10.5,387.9-170c16.1-96.8,8.3-197.6,11.4-298.6h-185.4c0,15,0,27.2,0,39.4c0,66.3-0.1,132.5,0,198.8
	c0.1,36.8-14.7,64.6-49.4,78.6c-51.7,20.8-104.9-17.1-106-76.4c-1.3-69.9-0.2-139.9-0.4-209.9c0-10.4-1.6-20.9-2.4-31.3H2215
	L2215,2237.6z"/>
<path class="st0" d="M1341.1,2024.8c-42.2,27.2-84.5,54.4-136.4,59.2c-15.9,1.5-33.4,4.3-32.7-20.9v-345.9c-33,0-64.6,0-96.1,0
	c-196.3-0.2-355.7-153.5-357.8-349.3c-1.8-168.7,110.2-300.5,238.8-336.4c257.1-71.9,456.2,98.8,464.9,331
	c1.2,33,0.2,66.1,0.2,102.2h148.5c0-33-1-66.9,0.2-100.7c3.2-91.1,29.8-173.2,94-240.8c90.8-95.6,202.4-122.7,328.8-99.4
	c142.8,26.3,230.2,115.8,268,251.1c54.5,194.7-70.2,391.8-270.2,434.5c-23.8,5.1-48.6,7.4-72.9,7.5c-151,0.7-302,0.3-452.9,0.3
	h-44.4C1426.9,1830.2,1428.5,1939.9,1341.1,2024.8L1341.1,2024.8z M1173,1466.4c0-40,1.3-75.4-0.3-110.7c-2.4-52.1-50-94.9-103-94.7
	c-53.1,0.2-99.9,42.8-104.1,94.7c-4.2,52.5,34.7,104.9,86.6,110C1090.7,1469.5,1129.9,1466.4,1173,1466.4L1173,1466.4z M1819.3,1467
	c41.7,0,78.4,2.2,114.7-0.5c51.5-4,94.4-55.9,91.5-106.5c-3-53.1-51.8-99.4-104.2-99c-52.7,0.4-99.6,43.7-101.7,96
	C1818.2,1392.2,1819.4,1427.5,1819.3,1467L1819.3,1467z"/>
<path class="st0" d="M2603.9,1709.9c-0.6,46.5-0.4,93.1-1.8,139.6c-3.7,126.2-114.3,235.1-240.1,236.9c-4.7,0.1-9.4-1-19.8-2.2
	v-285.9c0.4-132.3,1-264.6,1.3-396.9c0.2-107.8,0.1-215.7,0.2-323.5c0-11.9,0-23.8,0-37.9h258.7c0,12.1,0,24.9,0,37.7
	c0.1,197.3,0.1,394.6,0.2,591.9C2602.5,1683,2603.4,1696.4,2603.9,1709.9L2603.9,1709.9z"/>
<path class="st0" d="M2819.4,622.5c-18.4,32.5-33.8,67.2-55.8,97c-71,96.2-165.5,150.2-287.5,150.3c-110.4,0.1-220.8,0-330.8,0
	c-33.5-145,39.2-254.6,187.4-255.8c148.5-1.2,297.1-0.3,445.6-0.3c10.9,0,21.9,0,32.8,0C2813.9,616.7,2816.7,619.6,2819.4,622.5
	L2819.4,622.5z"/>
<path class="st0" d="M2164.3,2744.9h-179.8c-0.7-13.1-1.9-24.9-1.9-36.7c-0.2-70,0.1-139.9-0.2-209.9c-0.2-32.6-15.8-57-44.8-70.3
	c-27.8-12.7-55.2-7.3-79.9,10.6c-23.3,16.9-28.9,41.6-29,68.1c-0.3,66.3-0.1,132.6-0.1,198.9c0,12.1,0,24.2,0,38.6h-184.7
	c-0.7-12.1-1.9-23.9-1.9-35.6c-0.2-68.7,0.8-137.5-0.4-206.2c-1-52.4-34.8-83.6-84.1-80.9c-43,2.4-68,27.2-68.4,70.6
	c-0.7,71.2-0.2,142.4-0.2,213.6c0,12.1,0,24.2,0,38.6h-184.2c0-43.2,0-84.6,0-126.1c0-39.3,0.1-78.6,0-117.8
	c-0.4-105.5,46.4-185.3,138.3-234.1c91-48.3,182.2-39.1,268.7,16.6c7.2,4.6,14.3,9.3,22.8,14.9c41.7-28.6,85.1-52.6,136.5-58.8
	c142.2-17.1,275,76.3,291.4,218.7C2173.1,2551.6,2164.3,2647.9,2164.3,2744.9L2164.3,2744.9z"/>
<path class="st0" d="M1238,2742.3c-100.7,0-196.6,5.3-291.6-1.4c-111.4-7.8-205-100.4-223.4-208.1c-20.3-119.3,37-234.5,143-284.1
	c190-88.8,379.2,63.5,372.5,234.3C1235.2,2568.7,1238,2654.7,1238,2742.3L1238,2742.3z M1054.7,2558.4c0-26.3,0.5-50.7-0.1-75
	c-1.1-42.9-31.8-73.8-73.8-75.1c-39.7-1.2-75.5,28.1-80.2,65.7c-5,39.2,23.4,78.3,65,83.8C993.1,2561.3,1021.4,2558.4,1054.7,2558.4
	L1054.7,2558.4z"/>
<path class="st0" d="M2215,2237.6h178.4c0.8,10.4,2.4,20.8,2.4,31.3c0.2,69.9-0.9,139.9,0.4,209.9c1.1,59.3,54.2,97.1,106,76.4
	c34.7-13.9,49.5-41.8,49.4-78.6c-0.1-66.3,0-132.5,0-198.8c0-12.2,0-24.4,0-39.4h185.4c-3.1,101,4.7,201.8-11.4,298.6
	c-30,180.5-232.5,266.2-387.9,170c-75.5-46.7-118.1-118.2-122-207.2C2212.1,2414.1,2215,2328.1,2215,2237.6L2215,2237.6z"/>
<path class="st1" d="M1173,1466.4c-43.1,0-82.3,3.1-120.8-0.8c-51.8-5.1-90.8-57.6-86.6-110c4.2-51.9,51-94.5,104.1-94.7
	c52.9-0.2,100.6,42.6,103,94.7C1174.3,1391,1173,1426.5,1173,1466.4L1173,1466.4z"/>
<path class="st1" d="M1819.3,1467c0-39.5-1.2-74.8,0.3-110.1c2.2-52.3,49-95.6,101.7-96c52.4-0.4,101.2,45.9,104.2,99
	c2.9,50.6-40,102.6-91.5,106.5C1897.7,1469.3,1861,1467,1819.3,1467L1819.3,1467z"/>
<path class="st2" d="M1054.7,2558.4c-33.3,0-61.6,2.9-89.1-0.7c-41.6-5.4-70-44.6-65-83.8c4.8-37.7,40.5-67,80.2-65.7
	c42,1.3,72.7,32.2,73.8,75.1C1055.2,2507.7,1054.7,2532.1,1054.7,2558.4L1054.7,2558.4z"/>
</svg>
