<?xml version="1.0" encoding="utf-8"?>
<!-- Generator: Adobe Illustrator 27.7.0, SVG Export Plug-In . SVG Version: 6.00 Build 0)  -->
<svg version="1.1" id="Layer_1" xmlns="http://www.w3.org/2000/svg" xmlns:xlink="http://www.w3.org/1999/xlink" x="0px" y="0px"
	 viewBox="0 0 3500 3500" style="enable-background:new 0 0 3500 3500;" xml:space="preserve">
<style type="text/css">
	.st0{fill:#FFFFFF;}
	.st1{fill:#2781FF;}
</style>
<rect x="23.2" y="1324" class="st0" width="3439.3" height="811.2"/>
<g>
	<path d="M1750.4,1319c575.1,0,1150.3,0,1725.4,0c27.3,0,24-2.8,24,23.5c0,272.3,0,544.6,0,816.9c0,23.6,2.6,21.6-22.2,21.6
		c-1151.5,0-2303,0-3454.6,0c-25.8,0-23.1,2.5-23.1-22.5c0-272.3,0-544.6,0-816.9c0-25-2.7-22.6,23.1-22.6
		C598.8,1319,1174.5,1319,1750.4,1319L1750.4,1319z M1834.9,1645c0-45.8,0.3-91.6-0.2-137.3c-0.2-21.1-7.2-27.6-28.1-28.5
		c-10.5-0.5-21-0.5-31.6-0.4c-27,0.4-36,8.8-36.2,35.5c-0.4,50.7,0,101.5-0.1,152.2c0,35.9-0.5,71.8-0.7,107.6
		c-0.1,18.7-8.8,32.7-26.1,39c-35.1,12.7-71.9,10-108.3,8.7c-3.7-0.1-9.1-5-10.1-8.7c-1-3.6,2-9,4.6-12.6c2-2.8,6.2-4,9.1-6.2
		c40.1-30.6,45.6-48.9,28.1-95.5c-22.2-59.2-64.3-95.7-126.4-107.5c-51-9.7-100.9-6.7-147.9,18.3c-39.2,20.8-65.1,53.3-78.6,94.4
		c-10.4,31.7-8.6,62.7,23.7,83.9c6.2,4,12.5,8.4,17.2,13.9c3.1,3.7,4.8,9.7,4.6,14.6c-0.1,2.4-6.3,6.5-9.5,6.3
		c-35.1-1.6-70.5-1.6-105-6.9c-24.7-3.8-33.9-18.5-34.6-43.5c-1.4-47.6-2-95.2-2.6-142.8c-0.3-25.6-7.1-33.4-32.5-34.5
		c-7.4-0.3-14.9-0.2-22.3-0.2c-31.2,0.3-39.7,8.7-39.8,39.8c0,71.1,0.1,142.3,0,213.5c0,16.1-0.6,32.2-1.9,48.2
		c-1.8,21.6-15.2,36-34.5,41.6c-18.7,5.4-25,16-24.5,33.5c0.3,11.1-0.4,22.3,0.9,33.3c1.5,12.8,9.9,21.7,22.6,19.3
		c21.6-4.1,44.6-7.5,63.6-17.6c33.9-18.1,56.3-47.5,64.3-86.3c2.5-12.1,8.9-17.4,22.3-16.2c31.4,2.8,62.9,5.8,94.3,5.7
		c60-0.3,119.9-4,179.9-3.9c65.5,0,131.1,3.2,196.6,4.2c17.9,0.3,36.3-0.1,53.5-4.1c70.5-16.3,117.4-57.5,116.4-136
		c-0.5-41.4,0-82.9-0.1-124.4L1834.9,1645z M351,1909.6C351,1909.6,351,1909.6,351,1909.6c52.6,0.1,105.2,0.1,157.8,0.1
		c30.3,0,37.3-6.8,37.3-36.8c0-42.1,0-84.1,0.7-126.2c0.2-10.9,1.3-23.1,6.4-32.3c4.4-8,14.9-12.6,22.8-18.7
		c2.5,7.8,5.4,15.5,7.3,23.5c1,4.1,0.1,8.6,0,13c0,47.6-0.2,95.3,0,142.9c0.1,29.3,4.3,34.1,32.9,34.2c76.7,0.3,153.5,0,230.2-0.4
		c28-0.2,55-5.2,81.1-16.9c50.3-22.6,76.7-60.7,78.2-115.4c1.2-43.9,0.3-87.8,0.7-131.8c0.5-46.2-2.7-49.8-48.6-50.1
		c-41.8-0.3-45.5,3.2-45.9,45c-0.4,42.1,0,84.1-0.9,126.2c-0.6,30-12.2,43.5-41.5,50.7c-9.6,2.3-19.5,4-29.3,4.2
		c-43.3,1-86.6,1-129.8,1.9c-27.3,0.5-32.5-4.2-32.4-32.1c0.1-53.2,0.4-106.4,0.7-159.6c0.1-27.8-6.7-37.2-34.8-35.5
		c-33.1,2-66.6,5.9-98.7,13.8c-52.2,12.9-84.6,47.7-92.1,101.5c-3.9,27.4-2.5,55.5-3.5,83.3c-0.6,18.1-9.9,28-27.2,28
		c-42.7,0-85.4,0-128.1-0.6c-34.3-0.4-38-6.4-24.8-38.8c0.9-2.3,1.8-4.6,2.6-7c13.7-43.7,42.3-68.8,88.5-75.8
		c50.6-7.7,48-8.9,45.4-62.6c-0.9-18.7-7.4-25.4-25.8-23.7c-23.8,2.2-47.5,7.1-70.9,12.5c-64.2,14.8-99.3,61.2-123.8,117.7
		c-16.4,37.8-22.7,78-25.9,119c-3.4,43.3-1.7,46.3,41.1,46.5c50.1,0.3,100.3,0,150.4,0L351,1909.6z M1883.5,1694.3L1883.5,1694.3
		c0,61.3-0.2,122.5,0,183.8c0,24.5,6.1,30.3,30.7,31.6c9.3,0.5,18.6,0.5,27.8,0.3c30.6-0.4,35.4-5.2,35.4-35.7
		c0-120-0.2-240.1-0.3-360.1c0-3.7-0.1-7.4-0.2-11.1c-0.2-14.8-7.6-23.3-22.4-24.3c-12.3-0.9-24.7-1.5-37.1-1.1
		c-26.7,0.7-33.9,8.3-34,34.8c0,60.6,0,121.3,0,181.9L1883.5,1694.3z M384,1976.9c0,1.6,0,4.1,0,6.5c0.3,37,4.6,41.4,41.2,42.2
		c1.2,0,2.5,0,3.7,0c45.3,0,49.8-4.3,50-49.3c0.2-41.5-3.1-45.4-44.4-47.2c-49.5-2.2-53.5,13.9-50.4,47.8H384z M356,1978.2
		c0.2,0,0.3,0,0.5,0c0-3.7,0-7.4,0-11.1c-0.2-27.9-10.4-37.7-38.3-37.2c-8,0.1-16,0-24-0.5c-21.5-1.2-34.2,9.7-35,30.8
		c-0.4,11.7-0.4,23.4-0.1,35.1c0.5,17.6,7.2,26.3,24.9,28.5c13.9,1.8,28.3,1.4,42.4,0.7c21.2-1.1,28.4-8.8,29.5-29.7
		c0.3-5.5,0-11.1,0-16.6L356,1978.2z M986.2,1977.8c0-5.5-0.3-11.1,0-16.6c1-16.3-7.7-25.2-22.3-29.7c-50.2-15.5-76.2,3.3-75.2,54.4
		c0,0.6,0,1.2,0,1.8c0.8,28.4,8.2,36.1,36.3,37.4c4.3,0.2,8.6,0.2,12.9,0.2c42.7,0,48-5.2,48.1-47.5L986.2,1977.8z"/>
	<path d="M1459.8,1670.2c28.1-2.1,49.8,9.9,67.7,29.2c16.8,18.2,15.7,34.4-2.3,51.3c-13.5,12.7-27,25.3-40.9,37.5
		c-18.7,16.4-29.6,16.5-48.5,0.5c-13.6-11.5-27-23.3-40-35.5c-22-20.8-21.1-43.7,3.2-62.2
		C1416.9,1677.4,1436.6,1667.1,1459.8,1670.2L1459.8,1670.2z"/>
	<g>
		<path class="st1" d="M2053,1486.6h67.8c3.3,0,6.3,1.5,8.3,4.1l170.8,224.4c6,7.9,18.7,3.7,18.7-6.3v-211.7
			c0-5.8,4.7-10.4,10.4-10.4h68.4c5.8,0,10.4,4.7,10.4,10.4v390.2c0,5.8-4.7,10.4-10.4,10.4h-61.3c-3.3,0-6.3-1.5-8.3-4.1
			L2150.6,1661c-6.1-7.9-18.7-3.7-18.7,6.3v220c0,5.8-4.7,10.4-10.4,10.4h-68.4c-5.8,0-10.4-4.7-10.4-10.4v-390.2
			c0-5.8,4.7-10.4,10.4-10.4L2053,1486.6z"/>
		<path class="st1" d="M2658.8,1904.7c-31.7,0-60.9-5.6-87.5-16.7c-26.6-11.2-49.6-26.2-69-45.2s-34.5-41.3-45.2-66.9
			c-10.8-25.6-16.2-53.1-16.2-82.5v-1.2c0-29.4,5.5-56.9,16.4-82.5c11-25.6,26.1-48.2,45.5-67.5c19.4-19.4,42.5-34.6,69.3-45.8
			c26.8-11.2,56.1-16.7,87.8-16.7s60.9,5.6,87.5,16.7c26.6,11.2,49.6,26.2,69,45.2s34.4,41.3,45.2,66.9s16.1,53.1,16.1,82.5v1.2
			c0,29.4-5.5,56.9-16.4,82.5c-11,25.6-26.1,48.2-45.5,67.5c-19.4,19.4-42.5,34.6-69.3,45.8
			C2719.7,1899.2,2690.4,1904.7,2658.8,1904.7L2658.8,1904.7z M2660,1821.3c18,0,34.6-3.3,49.9-10c15.3-6.7,28.3-15.9,39.1-27.6
			s19.2-25.3,25.2-40.8c6.1-15.5,9.1-32,9.1-49.6v-1.2c0-17.6-3-34.3-9.1-49.9c-6.1-15.7-14.7-29.4-25.8-41.1
			c-11.2-11.7-24.4-21-39.6-27.9c-15.3-6.8-31.9-10.3-49.9-10.3s-35.1,3.3-50.2,10c-15.1,6.7-28,15.9-38.8,27.6
			s-19.2,25.4-25.2,40.8c-6.1,15.5-9.1,32-9.1,49.6v1.2c0,17.6,3,34.3,9.1,49.9c6.1,15.7,14.7,29.4,25.8,41.1
			c11.2,11.7,24.3,21.1,39.3,27.9C2624.9,1817.9,2641.6,1821.3,2660,1821.3z"/>
		<path class="st1" d="M2857.5,1486.6h74.6c4.6,0,8.6,3,10,7.4l73.3,239.6c3,9.7,16.7,9.9,19.9,0.2l79.6-241.2
			c1.4-4.3,5.4-7.2,9.9-7.2h62.4c4.5,0,8.5,2.9,9.9,7.2l79.6,241.2c3.2,9.7,16.9,9.5,19.9-0.2l73.3-239.6c1.3-4.4,5.4-7.4,10-7.4
			h72.3c7.1,0,12.2,7,9.9,13.8l-133.3,393.1c-1.4,4.2-5.4,7.1-9.9,7.1h-63.8c-4.5,0-8.4-2.8-9.9-7l-80.5-233.3
			c-3.2-9.4-16.5-9.4-19.7,0l-80.5,233.3c-1.5,4.2-5.4,7-9.9,7h-63.8c-4.5,0-8.4-2.8-9.9-7.1l-133.3-393.1
			C2845.3,1493.6,2850.3,1486.6,2857.5,1486.6z"/>
	</g>
</g>
</svg>
