<?xml version="1.0" encoding="utf-8"?>
<!-- Generator: Adobe Illustrator 27.7.0, SVG Export Plug-In . SVG Version: 6.00 Build 0)  -->
<svg version="1.1" id="Layer_1" xmlns="http://www.w3.org/2000/svg" xmlns:xlink="http://www.w3.org/1999/xlink" x="0px" y="0px"
	 viewBox="0 0 3500 3500" style="enable-background:new 0 0 3500 3500;" xml:space="preserve">
<style type="text/css">
	.st0{fill:url(#SVGID_1_);}
	.st1{fill:url(#SVGID_00000006707700809163370860000012971622935372329357_);}
</style>
<linearGradient id="SVGID_1_" gradientUnits="userSpaceOnUse" x1="1750.0004" y1="-3235.74" x2="1750.0004" y2="-264.25" gradientTransform="matrix(1 0 0 -1 0 0)">
	<stop  offset="8.000000e-02" style="stop-color:#DEAC42"/>
	<stop  offset="0.23" style="stop-color:#C69946"/>
	<stop  offset="0.41" style="stop-color:#CEC080"/>
	<stop  offset="0.53" style="stop-color:#FFF9AD"/>
	<stop  offset="0.71" style="stop-color:#F0D26A"/>
	<stop  offset="0.91" style="stop-color:#FFFCA9"/>
</linearGradient>
<path class="st0" d="M1749.1,3235.7c-64.1,0-121.6-21.4-161.8-60.2c-56.7-54.8-111.8-113.6-165-170.4c-32.5-34.7-66-70.5-99.7-105.2
	c-55.6-57.2-113-114.6-168.4-170.1c-24.1-24.1-48.3-48.3-72.3-72.5l-25.8-25.8c-14.4-14.4-28.8-28.8-43.1-43.3
	c-18.8-19.2-35.1-35.7-35.3-44.3c-0.2-8.2,15.1-23.7,32.8-41.6c85.1-85.8,161.8-163.1,240.3-240.4c102.4-101,205-201.8,307.6-302.7
	c162.2-159.5,324.3-319,486.1-478.9c20-19.7,38.3-41.3,56.1-62.1c17.7-20.8,36-42.3,55.6-61.4c40.7-39.9,82.9-79.8,123.8-118.2
	c50.4-47.5,102.6-96.7,152.4-146.6c56-56.2,111.5-114.6,165.1-171.2c45.3-47.7,92.1-97,138.9-144.7c36.1-36.7,78.1-74,128.5-114
	c31.6-25.1,76.2-38.9,125.6-38.9c60.1,0,118.3,20.1,159.6,55.1c24.7,20.9,48.5,43.9,73.8,68.2c9.3,9,18.9,18.2,28.8,27.7
	c-4.7,5.1-9.1,9.9-13.2,14.3c-12.6,13.7-22.5,24.5-32.8,34.9c-41,41.2-82.1,82.2-123.1,123.2c-62.5,62.5-125,124.9-187.1,187.7
	c-416.5,421-832.8,842.3-1249,1263.6c-64.6,65.4-76.2,132.6-36.3,211.6c35.5,70.3,99.4,80.2,151.1,80.9h2.8
	c61.9,0,109-30,132.4-84.4c33.4-77.5,38.2-132-31.7-197.6l-1.8-1.6c-29.7-27.9-49.4-46.4-49.5-57.4c-0.1-10.9,18.6-29.3,46.9-57.3
	l3.5-3.5c46.8-46.2,93.2-92.8,139.3-139l53.2-53.3c69.2,51.7,389.5,366.7,462.4,455.3c-0.3,0.4-0.6,0.9-0.9,1.4
	c-4.5,6.9-9.1,14-14.5,19.6c-58.7,60.4-117.8,120.4-176.9,180.5c-132.4,134.7-269.4,273.9-400.2,414.6
	C1888.4,3209.7,1820.1,3235.7,1749.1,3235.7L1749.1,3235.7z M2571.5,2479.7c-7,0-16.1-4.1-31.4-14c-7.4-4.8-14.9-11.2-24.3-20.6
	c-131.6-131.4-263-263-394.3-394.7c-2-2-3.9-5-6.5-9.1c2.4-2.6,4.9-5.3,7.3-7.9c10.2-11.2,20.8-22.7,31.5-33.5
	c42.6-42.7,85.2-85.2,127.9-127.8c76.2-76,155-154.6,231.8-232.6c107.4-109.1,214.6-218.6,321.7-328
	c119.9-122.5,239.8-244.9,360.1-367c25.9-26.3,53.9-50.4,83.5-76c11.3-9.8,22.8-19.7,34.4-29.9c79.8,60.9,160.1,125.2,183.6,231.1
	c11.5,51.7-13.3,96.3-39.6,143.6l-1.8,3.3c-1.9,3.4-5.8,6.9-9.9,10.7c-2.4,2.2-4.8,4.3-7,6.6c0,0-532.2,543.1-707.2,721.7
	c-10.9,11.2-21.6,22.6-32.7,34.4l-22.8,24.3l4.2,8.7c2.6,5.3,4.9,10.6,7.1,15.6c4.9,11.2,9.6,21.7,16.5,31.5
	c80.9,115.8,72.1,216.6-27.9,317.2c-6.9,7-13.8,13.9-20.6,20.9c-17.2,17.5-35,35.6-53.1,52.6
	C2587.8,2474.4,2579.1,2479.7,2571.5,2479.7L2571.5,2479.7L2571.5,2479.7z M919.1,2479.1c-7.7,0-16.6-6.8-31.5-24.2l-12.1-14.2
	c-21.8-25.7-44.3-52.2-71.2-73.3c-41.3-32.3-66.2-91.3-66.6-157.9c-0.4-63.9,21.9-120.2,59.7-150.6c5-4,8.4-9,12-14.2
	c1.7-2.4,3.5-5.1,5.8-8.1l6.8-8.9l-7.3-8.6c-3.5-4.1-7-8.3-10.5-12.5c-7.8-9.4-15.8-19.2-24.7-28.3c-14.1-14.6-28.5-28.9-42.9-43.2
	c-12-11.9-24-23.9-35.9-36c-80.5-82.2-160.9-164.5-241.4-246.8c-129-131.9-258-263.9-387.1-395.6c-71.5-73-89.7-151.4-55.5-239.5
	l1.7-4.4c2.5-6.6,4.8-12.9,8.2-17.1c40.9-51.7,88.7-99.8,149.7-150.5c8.3,6.4,16.5,12.5,24.5,18.5c21.9,16.4,42.7,32,60.5,49.7
	c230.4,229.2,477,475.1,719.6,720c91,91.9,182,186.8,270.1,278.6c37,38.6,73.9,77.1,111,115.6c3.6,3.7,6.8,8,11,13.5
	c0.1,0.1,0.1,0.1,0.1,0.2c-2.1,2.3-4.2,4.7-6.3,7c-9.5,10.6-18.4,20.7-27.9,30.2c-116.5,116.9-233.2,233.6-349.9,350.2l-5.8,5.8
	c-11.1,11.2-21.6,21.8-33.5,30.1C935.3,2474.6,925.8,2479.1,919.1,2479.1L919.1,2479.1L919.1,2479.1z M1430.1,1977.4
	c-5.8,0-12-3.2-18.4-9.6l-13.8-13.7c-36-35.7-73.2-72.6-108.5-109.9c-12.2-12.8-23.8-26.8-35.1-40.3c-13.6-16.3-27.6-33.1-43-48.6
	C994,1537.2,776.5,1319.4,559,1101.6L294.8,837c-25.2-25.2-41.8-41.9-42-51.4c-0.2-9.2,15.7-25.1,39.8-49.2
	c4.7-4.8,9.6-9.3,14.5-13.9c10.5-9.8,21.3-20,30.7-31.8c38.5-48.4,93.9-75,155.9-75c58.2,0,117.6,23.7,162.8,65
	c9.7,8.8,19.2,18.5,28.4,27.8l10.8,11L818.2,842c177.8,177.8,355.5,355.7,532.9,533.9c9.8,9.9,18,21.7,28.4,36.8
	c5.6,8.1,11.7,16.8,18.8,26.4l9.3,12.6l11.4-10.8c21.6-20.3,42.1-38.9,61.4-56.4c41.4-37.5,77.1-69.8,109.5-106.6
	c41.5-47.1,91.3-69,156.8-69c16.1,0,33,1.3,51.5,4c18.8,2.8,40.9,13.7,60.5,30.1c46.7,38.9,93.3,81.4,142.7,129.9
	c16.2,15.9,5.1,34.7-3,44.4c-6.4,7.7-13.7,14.9-21.4,22.4l-6.8,6.7c-164.3,164.5-496.8,497.2-496.8,497.2
	c-8.5,8.5-16.9,16.9-25.8,25C1441.6,1974.4,1435.6,1977.4,1430.1,1977.4L1430.1,1977.4L1430.1,1977.4z M1752.5,909.6
	c-103.3,0-196.5-50.2-255.9-137.8c-39.5-55-60.3-119.6-60.3-187.1c0-176.8,143.8-320.6,320.6-320.6s320.6,143.8,320.6,320.6
	c0,86.2-33.7,167.1-95,227.7c-50.2,52.6-115.3,85.2-188.4,94.4C1780.1,908.7,1766.2,909.6,1752.5,909.6L1752.5,909.6L1752.5,909.6z"
	/>
<linearGradient id="SVGID_00000016050791880057530110000016067730264741302943_" gradientUnits="userSpaceOnUse" x1="732.9559" y1="-2321.6687" x2="2772.3782" y2="-282.2466" gradientTransform="matrix(1 0 0 -1 0 0)">
	<stop  offset="0" style="stop-color:#DEAC42"/>
	<stop  offset="0.42" style="stop-color:#FFF9AD"/>
	<stop  offset="0.82" style="stop-color:#FFFCCA"/>
</linearGradient>
<path style="fill:url(#SVGID_00000016050791880057530110000016067730264741302943_);" d="M1756.8,265.3
	c176.2,0,319.6,143.4,319.6,319.6c0,85.9-33.6,166.5-94.7,227c-49.9,52.3-114.9,84.9-187.8,94.1c-13.9,1.8-27.8,2.7-41.3,2.7
	c-102.9,0-195.9-50-255.1-137.3c-39.3-54.8-60.1-119.2-60.1-186.5C1437.3,408.6,1580.6,265.3,1756.8,265.3 M493.7,616.6
	c58,0,117.1,23.6,162.1,64.8c9.6,8.8,19.1,18.4,28.3,27.7l0.1,0.1l10.9,11l122.5,122.6c174.8,174.9,355.5,355.7,532.9,533.9
	c9.8,9.8,18,21.7,28.3,36.6l0.1,0.2c5.4,7.8,11.6,16.7,18.7,26.3l9.3,12.6l0.7,0.9l0.8-0.8l11.4-10.8c21.2-19.9,41.1-38,60.3-55.4
	l1.1-1c41.4-37.4,77.1-69.8,109.6-106.6c41.3-46.8,90.9-68.6,156-68.6c16.1,0,32.9,1.3,51.4,4c18.7,2.7,40.5,13.6,60,29.9
	c46.8,39,93.4,81.5,142.6,129.8c15.7,15.4,4.8,33.6-3,43.1c-6.4,7.7-13.7,14.8-21.3,22.4l-6.8,6.7
	c-162.4,162.6-493.4,493.8-496.8,497.2l-0.4,0.4c-8.2,8.2-16.6,16.6-25.3,24.6c-6.1,5.6-11.9,8.4-17.2,8.4s-11.5-3.1-17.7-9.3
	l-13.8-13.7l-0.2-0.2c-35.9-35.6-73-72.5-108.3-109.7c-12.1-12.7-23.7-26.7-35-40.2l-0.1-0.1c-13.6-16.3-27.6-33.1-43.1-48.6
	c-217.4-218.2-438.4-439.6-652.2-653.7L295.5,836.2c-25-25.1-41.5-41.6-41.7-50.7c-0.1-8.8,15.6-24.6,39.5-48.5
	c4.7-4.8,9.7-9.4,14.5-13.9l0.1-0.1c10.5-9.8,21.3-20,30.7-31.8C377,643.1,432,616.6,493.7,616.6 M2990.6,624.4
	c59.9,0,117.9,20,159,54.8c24.6,20.9,48.4,43.8,73.6,68.1l0.1,0.1l0.6,0.6c8.9,8.5,18,17.4,27.5,26.4c-3.7,4-7.1,7.7-10.4,11.3
	l-2.1,2.3c-12.5,13.7-22.4,24.5-32.8,34.8c-39.6,39.8-80.1,80.2-119.1,119.2l-4,4c-61.4,61.4-125,124.9-187.1,187.7
	c-428.8,433.4-864.5,874.5-1249,1263.6c-65,65.8-76.6,133.4-36.5,212.8c35.7,70.8,100,80.7,152,81.5h2.8
	c62.4,0,109.7-30.2,133.4-85.1c33.6-77.9,38.4-132.7-31.9-198.8l-1.8-1.6c-29.5-27.8-49.1-46.1-49.2-56.6
	c-0.1-10.4,18.4-28.8,46.6-56.6l3.5-3.5c46.8-46.3,93.8-93.4,139.3-139l52.6-52.7c32.2,24.3,121.9,107.8,229,213.2
	c107.7,106,198.6,200.4,232,240.8c0,0,0,0.1,0,0.1c-0.1,0.2-0.3,0.4-0.4,0.7c-4.4,6.8-9,13.9-14.4,19.4
	c-58.1,59.7-117.5,120.1-175,178.6l-1.9,1.9l-0.1,0.1c-132.4,134.6-269.3,273.9-400.2,414.5c-38.8,41.7-106.9,67.7-177.7,67.7
	c-63.9,0-121.1-21.3-161.1-59.9c-56.6-54.7-111.5-113.3-164.6-170l-0.4-0.4c-32.4-34.6-65.9-70.3-99.8-105.2
	c-55.6-57.2-112.9-114.6-168.4-170l-0.1-0.1c-23.7-23.7-48.3-48.3-72.3-72.5l-25.8-25.8l-0.9-0.9c-13.9-13.8-28.2-28.1-42.2-42.4
	c-17.9-18.2-34.8-35.4-35-43.6c-0.2-7.8,15.7-23.8,32.5-40.8l0.1-0.1c84.9-85.6,161.6-162.8,240.3-240.4
	c105.5-104,212.9-209.6,307.6-302.7l3.8-3.8c158.2-155.6,321.8-316.5,482.3-475.1c19.9-19.7,38.2-41.2,56-62l0.2-0.2
	c17.7-20.7,35.9-42.1,55.5-61.4c41.3-40.6,85.1-81.8,123.8-118.2l1.2-1.1c50.1-47.2,101.8-96,151.3-145.6
	c56.2-56.4,111.6-114.7,165.2-171.2c42.9-45.2,91.5-96.4,138.9-144.7c36.1-36.7,78.1-74,128.4-113.9
	C2897,638.1,2941.4,624.4,2990.6,624.4 M3313.5,839.9c40.7,31,79.9,61.9,112.1,98c36.9,41.2,59.9,84.4,70.5,132
	c11.4,51.3-13.3,95.8-39.4,142.9l-1.8,3.3c-1.8,3.3-5.6,6.7-9.7,10.4c-2.4,2.1-4.8,4.3-7,6.6c-5.3,5.4-534.2,545.2-707.2,721.7
	c-10.8,11-21.1,22.1-32.1,33.8l-0.6,0.6l-22.8,24.3l-0.5,0.5l0.3,0.6l4.2,8.7c2.6,5.4,4.9,10.6,7.1,15.6l0.1,0.1
	c4.9,11.2,9.6,21.8,16.5,31.6c80.6,115.3,71.8,215.7-27.8,315.9c-7,7-13.9,14.1-20.6,20.9c-17.2,17.5-34.9,35.6-53,52.5
	c-14.4,13.5-22.9,18.7-30.2,18.7c-6.8,0-15.7-4-30.8-13.8c-7.3-4.8-14.8-11.1-24.1-20.4c-132.6-132.5-265.3-265.3-394.3-394.7
	c-1.8-1.8-3.6-4.5-6-8.3c2.3-2.5,4.5-4.9,6.8-7.4c9.7-10.6,20.6-22.6,31.5-33.4c42.6-42.8,86-86,127.9-127.8
	c72.3-72.1,154.2-153.8,231.8-232.6c109.9-111.6,222.4-226.6,321.7-328c117.9-120.4,239.8-244.9,360.1-367
	c25.9-26.3,53.9-50.4,83.5-76C3290.7,859.8,3302,850,3313.5,839.9 M176.3,846.3c7.4,5.7,14.7,11.2,21.9,16.6l2,1.5
	c21.9,16.4,42.6,31.9,60.4,49.6c230.2,229.1,476.8,474.8,719.6,720c91.2,92.1,182.1,186.9,270.1,278.6
	c37.2,38.8,73.7,76.9,111,115.6c3.4,3.6,6.6,7.7,10.6,12.9c-1.7,1.8-3.3,3.7-4.9,5.5l-0.8,0.9l-0.1,0.1c-9.4,10.6-18.3,20.6-27.8,30
	c-106.4,106.7-220.8,221.3-349.9,350.2l-5.8,5.8c-11.1,11.2-21.5,21.7-33.3,30c-14.2,9.9-23.5,14.4-30.1,14.4
	c-7.4,0-16-6.7-30.8-23.8l-12.1-14.2c-21.8-25.7-44.3-52.3-71.4-73.4c-41-32.1-65.8-90.9-66.2-157.1
	c-0.4-63.6,21.8-119.6,59.3-149.8c5.1-4.1,8.5-9.1,12.2-14.4c1.5-2.2,3.4-5,5.7-8l6.8-8.9l0.5-0.6l-0.5-0.6l-7.3-8.6
	c-3.2-3.7-6.3-7.5-9.4-11.2l-1-1.3c-7.8-9.4-15.8-19.2-24.7-28.4c-14.4-14.9-29.6-30-42.9-43.2c-11.8-11.7-24-23.8-35.9-36
	c-74.2-75.9-149.7-153.1-222.7-227.7l-18.7-19.1l-0.6-0.6C332.8,1521.5,201.9,1387.6,73,1256c-71.2-72.7-89.3-150.7-55.3-238.5
	l1.7-4.4c2.5-6.5,4.8-12.7,8-16.8C68.2,944.6,115.5,897,176.3,846.3 M1756.8,264.3c-176.8,0-320.6,143.8-320.6,320.6
	c0,67.5,20.8,132,60.3,187.1c59.4,87.5,152.6,137.8,255.9,137.8h0c13.6,0,27.6-0.9,41.4-2.7c73.2-9.3,138.2-41.8,188.4-94.4
	c61.3-60.7,95-141.5,95-227.7C2077.4,408.1,1933.6,264.3,1756.8,264.3L1756.8,264.3L1756.8,264.3z M493.7,615.6
	c-62,0-117.3,26.7-155.9,75c-9.3,11.7-20.2,21.9-30.7,31.8c-4.9,4.6-9.8,9.2-14.5,13.9c-24,24.1-39.9,40.1-39.8,49.2
	c0.2,9.5,16.8,26.2,42,51.4L559,1101.6c217.5,217.8,435,435.6,652.2,653.7c15.4,15.4,29.4,32.3,43,48.6c11.3,13.5,23,27.5,35.1,40.3
	c35.4,37.3,72.6,74.2,108.5,109.9l13.8,13.7c6.4,6.4,12.6,9.6,18.4,9.6s11.5-2.9,17.8-8.7c8.8-8.1,17.3-16.6,25.8-25
	c0,0,332.4-332.7,496.8-497.2l6.8-6.7c7.7-7.6,14.9-14.7,21.4-22.4c8.1-9.8,19.2-28.5,3-44.4c-49.3-48.4-96-90.9-142.7-129.9
	c-19.6-16.4-41.7-27.3-60.5-30.1c-18.5-2.7-35.4-4-51.5-4c-65.5,0-115.3,21.9-156.8,69c-32.4,36.7-68.1,69.1-109.5,106.6
	c-19.4,17.6-39.9,36.1-61.4,56.4l-11.4,10.8l-9.3-12.6c-7.1-9.6-13.2-18.4-18.8-26.4c-10.4-15-18.6-26.9-28.4-36.8
	c-177.4-178.2-355.1-356-532.9-533.9L695.7,719.4l-10.8-11c-9.2-9.3-18.7-19-28.4-27.8C611.3,639.3,552,615.6,493.7,615.6
	L493.7,615.6L493.7,615.6z M2990.6,623.4c-49.4,0-94,13.8-125.6,38.9c-50.4,40-92.4,77.3-128.5,114c-46.8,47.7-93.7,97-138.9,144.7
	c-53.6,56.5-109.1,115-165.1,171.2c-49.8,50-102,99.1-152.4,146.6c-40.9,38.5-83.1,78.3-123.8,118.2c-19.5,19.2-37.8,40.6-55.6,61.4
	c-17.8,20.8-36.1,42.4-56.1,62.1c-161.8,159.9-323.9,319.4-486.1,478.9c-102.6,100.9-205.1,201.7-307.6,302.7
	c-78.4,77.3-155.2,154.6-240.3,240.4c-17.7,17.9-33.1,33.4-32.8,41.6c0.2,8.6,16.5,25.1,35.3,44.3c14.3,14.5,28.7,28.9,43.1,43.3
	l25.8,25.8c24.1,24.2,48.2,48.3,72.3,72.5c55.4,55.5,112.8,112.8,168.4,170.1c33.7,34.7,67.3,70.5,99.7,105.2
	c53.2,56.8,108.2,115.6,165,170.4c40.2,38.8,97.6,60.2,161.8,60.2c71,0,139.4-26.1,178.4-68c130.9-140.6,267.8-279.9,400.2-414.6
	c59.1-60.1,118.1-120.1,176.9-180.5c5.4-5.5,10-12.6,14.5-19.6c0.3-0.4,0.6-0.9,0.9-1.4c-72.9-88.6-393.2-403.6-462.4-455.3
	l-53.2,53.3c-46.1,46.2-92.5,92.8-139.3,139l-3.5,3.5c-28.3,28-47,46.4-46.9,57.3c0.1,11,19.8,29.4,49.5,57.4l1.8,1.6
	c69.9,65.7,65.1,120.1,31.7,197.6c-23.5,54.5-70.5,84.5-132.4,84.5h-2.8c-51.7-0.8-115.6-10.6-151.1-80.9
	c-39.8-79-28.3-146.2,36.3-211.6c416.3-421.3,832.5-842.6,1249-1263.6c62.1-62.8,124.6-125.2,187.1-187.7
	c41.1-41,82.1-82.1,123.1-123.2c10.3-10.3,20.2-21.2,32.8-34.9c4.1-4.5,8.4-9.2,13.2-14.3c-10-9.5-19.6-18.7-28.8-27.7
	c-25.2-24.3-49.1-47.3-73.8-68.2C3108.9,643.5,3050.7,623.4,2990.6,623.4L2990.6,623.4L2990.6,623.4z M3313.5,838.6
	c-11.6,10.2-23.1,20.2-34.4,29.9c-29.6,25.6-57.6,49.7-83.5,76c-120.3,122.1-240.2,244.5-360.1,367
	c-107.1,109.4-214.3,218.8-321.7,328c-76.8,78-155.6,156.6-231.8,232.6c-42.7,42.6-85.4,85.1-127.9,127.8
	c-10.8,10.8-21.3,22.3-31.5,33.5c-2.4,2.7-4.9,5.3-7.3,7.9c2.6,4.1,4.5,7.1,6.5,9.1c131.3,131.7,262.7,263.3,394.3,394.7
	c9.4,9.4,16.9,15.8,24.3,20.6c15.3,9.9,24.4,14,31.4,14c7.6,0,16.3-5.3,30.9-19c18.1-16.9,35.9-35.1,53.1-52.6
	c6.9-7,13.7-14,20.6-20.9c100-100.6,108.9-201.4,27.9-317.2c-6.8-9.8-11.5-20.4-16.5-31.5c-2.2-5-4.5-10.2-7.1-15.6l-4.2-8.7
	l22.8-24.3c11.1-11.9,21.8-23.3,32.7-34.4c174.9-178.6,707.2-721.7,707.2-721.7c2.2-2.2,4.6-4.4,7-6.6c4.1-3.7,8-7.2,9.9-10.7
	l1.8-3.3c26.2-47.3,51-91.9,39.6-143.6C3473.6,963.8,3393.3,899.5,3313.5,838.6L3313.5,838.6L3313.5,838.6z M176.2,845.1
	c-61.1,50.8-108.8,98.8-149.7,150.5c-3.3,4.2-5.7,10.5-8.2,17.1l-1.7,4.4c-34.2,88.2-16,166.5,55.5,239.5
	c129.1,131.8,258.1,263.7,387.1,395.7c80.4,82.3,160.9,164.6,241.4,246.8c11.8,12.1,23.8,24,35.9,36c14.4,14.3,28.8,28.6,42.9,43.2
	c8.8,9.2,16.9,18.9,24.7,28.3c3.5,4.2,6.9,8.4,10.5,12.5l7.3,8.6l-6.8,8.9c-2.3,3-4.1,5.7-5.8,8.1c-3.6,5.2-7,10.2-12,14.2
	c-37.8,30.4-60.1,86.7-59.7,150.6c0.4,66.5,25.3,125.6,66.6,157.9c27,21.1,49.5,47.6,71.2,73.3l12.1,14.2
	c15,17.4,23.8,24.2,31.5,24.2c6.8,0,16.2-4.5,30.7-14.6c11.8-8.3,22.3-18.9,33.5-30.1l5.8-5.8c116.8-116.6,233.4-233.3,349.9-350.2
	c9.5-9.5,18.4-19.6,27.9-30.2c2.1-2.3,4.2-4.7,6.3-7c-0.1-0.1-0.1-0.1-0.1-0.2c-4.2-5.4-7.4-9.8-11-13.5
	c-37.1-38.5-74.1-77-111-115.6c-88-91.8-179.1-186.8-270.1-278.6c-242.6-244.9-489.3-490.8-719.6-720
	c-17.8-17.7-38.5-33.2-60.4-49.7C192.7,857.6,184.5,851.5,176.2,845.1L176.2,845.1L176.2,845.1z"/>
</svg>
