<?xml version="1.0" encoding="utf-8"?>
<!-- Generator: Adobe Illustrator 27.7.0, SVG Export Plug-In . SVG Version: 6.00 Build 0)  -->
<svg version="1.1" id="Layer_1" xmlns="http://www.w3.org/2000/svg" xmlns:xlink="http://www.w3.org/1999/xlink" x="0px" y="0px"
	 viewBox="0 0 3500 3500" style="enable-background:new 0 0 3500 3500;" xml:space="preserve">
<style type="text/css">
	.st0{fill:none;stroke:#035D7B;stroke-width:2;}
	.st1{fill:none;stroke:#006882;stroke-width:2;}
	.st2{fill:none;stroke:#005571;stroke-width:2;}
	.st3{fill:none;stroke:#0F5F56;stroke-width:2;}
	.st4{fill:none;stroke:#0D655C;stroke-width:2;}
	.st5{fill:none;stroke:#1C6A50;stroke-width:2;}
	.st6{fill:none;stroke:#036191;stroke-width:2;}
	.st7{fill:none;stroke:#004E7D;stroke-width:2;}
	.st8{fill:none;stroke:#3F8C4D;stroke-width:2;}
	.st9{fill:none;stroke:#0374A3;stroke-width:2;}
	.st10{fill:none;stroke:#3C2A6B;stroke-width:2;}
	.st11{fill:none;stroke:#00829B;stroke-width:2;}
	.st12{fill:none;stroke:#007893;stroke-width:2;}
	.st13{fill:none;stroke:#DF892A;stroke-width:2;}
	.st14{fill:none;stroke:#DD912B;stroke-width:2;}
	.st15{fill:none;stroke:#DAB72A;stroke-width:2;}
	.st16{fill:none;stroke:#B4AB36;stroke-width:2;}
	.st17{fill:none;stroke:#E07627;stroke-width:2;}
	.st18{fill:none;stroke:#DC8629;stroke-width:2;}
	.st19{fill:none;stroke:#DCA427;stroke-width:2;}
	.st20{fill:none;stroke:#DA992C;stroke-width:2;}
	.st21{fill:none;stroke:#D5AA2D;stroke-width:2;}
	.st22{fill:none;stroke:#00A0CC;stroke-width:2;}
	.st23{fill:#3D3076;}
	.st24{fill:#00515A;}
	.st25{fill:#005A62;}
	.st26{fill:#1E644A;}
	.st27{fill:#005987;}
	.st28{fill:#1A6F55;}
	.st29{fill:#06699B;}
	.st30{fill:#007EAA;}
	.st31{fill:#004272;}
	.st32{fill:#DBA42E;}
	.st33{fill:#E26E26;}
	.st34{fill:#DE7E28;}
	.st35{fill:#3A245F;}
	.st36{fill:#D98E29;}
	.st37{fill:#63A845;}
	.st38{fill:#D9CA25;}
	.st39{fill:#0096C3;}
	.st40{fill:#8CB13E;}
	.st41{fill:#CFAF2C;}
	.st42{fill:#00A9D4;}
</style>
<g>
	<path vector-effect="non-scaling-stroke" class="st0" d="M855.1,1616.3c-0.1-0.3-0.3-0.5-0.4-0.8"/>
	<path vector-effect="non-scaling-stroke" class="st1" d="M854.6,1615.6l-76.4-45"/>
	<path vector-effect="non-scaling-stroke" class="st0" d="M778.2,1570.6l-56.4-36"/>
	<path vector-effect="non-scaling-stroke" class="st2" d="M721.9,1534.6L608.2,1447"/>
	<path vector-effect="non-scaling-stroke" class="st3" d="M1922.1,1402.5l-0.4-111.5c0-3.9-1.2-4.3-3.3-1
		c-7.9,11.8-15.3,23.2-25.7,33.1c-20.2,19.1-40.1,38.1-59.8,56.7c-43.4,41.4-78,90.7-103.8,147.8c-25,55.2-43.1,117.8-54.4,187.9"/>
	<path vector-effect="non-scaling-stroke" class="st4" d="M1674.7,1715.6c-4.4,33.3-7.4,66.9-9,100.5c-1.1,22.9-7,44.4-7,67.5
		c0,14.5-0.5,28.8-1.3,43.2c-0.8,13.9-1.2,28.1-1.2,42.6c0.1,6.5,3.8,10.6,1.4,17.8c-0.6,2-0.8,4-0.6,6.1c2.8,29.9,1.4,58.5-4.1,86
		c-0.4,2.1-1.7,3.4-3.8,3.8l-4.7,1"/>
	<path vector-effect="non-scaling-stroke" class="st5" d="M1922.2,1737.5l-1.3-233.3c0-1.2-0.6-1.9-1.7-2.3
		c-0.8-0.3-1.6-0.7-2.2-1.4c-1-1.1-1.2-2.3-0.4-3.6c1-1.9,1.5-3.9,1.4-6.2c0-1.5-1.3-2.7-2.8-2.6c-0.5,0-1.1,0.2-1.5,0.5
		c-2.8,2-5.6,4.3-8.4,6.9c-2.6,2.4-4.6,5.1-6.1,8.1c-2.2,4.5-5.5,8-10,10.5c-2.1,1.2-3.1,0.6-3.1-1.8c0-0.7,0-1.3-0.1-1.9
		c-0.3-3.6-1.7-4-4-1.2c-7.6,9-10.5,18.9-8.7,29.7c0.4,2.4-0.1,4.6-1.6,6.5c-1.7,2.3-2,4.9-0.9,7.7c0.8,2.1,0.8,4.3,0,6.4
		c-2.8,7.1-5.3,14.3-7.6,21.6c-1.3,4.5-4.7,7.5-8.5,9.8c-2,1.2-3,3-3,5.3l-0.4,25.2c0,2.4-0.9,4.4-2.6,6.2l-18.7,18.7
		c-1.5,1.5-3.2,2.2-5.3,2.2h-9.9c-2,0-3.8,0.8-5.1,2.3l-10.3,12.3c-1.5,1.7-3.3,2.7-5.5,3c-1.5,0.1-2.7-0.4-3.5-1.5
		c-1.5-2-3.2-2.1-5-0.3l-4.8,4.8c-1.8,1.8-2.4,1.5-1.6-1l5.3-17c0.3-0.8,0-1.2-0.9-1.2l-11.2,0.1c-0.8,0-1.4,0.4-1.8,1
		c-3.5,5.7-8.1,10.5-13.9,14.6c-1.6,1.1-2.8,2.6-3.6,4.3c-1.2,2.7-3,5-5.5,6.9c-1.7,1.3-2.4,0.9-2.1-1.2l1.5-10.4
		c0.3-1.9-0.2-2.1-1.4-0.6c-2.7,3.4-5.2,7.3-7.5,11.5c-0.5,0.9-1.6,1.2-2.4,0.7c-0.3-0.1-0.5-0.3-0.6-0.6c-1.4-2.3-0.9-4.1,1.5-5.3
		c2.2-1.1,2.6-2.7,1.1-4.6c-0.8-1.1-1.9-2.1-3.1-3c-1.2-0.8-2.8-0.5-3.6,0.7c-0.2,0.3-0.3,0.6-0.4,0.9c-1.1,5.7-4.3,9.8-9.4,12.4
		c-1,0.5-1.2,1.2-0.6,2.1c2.3,3.9,2.5,7.5,0.6,10.7c-5.7,9.6-11,18.5-15.8,26.5c-1,1.7-3.1,2.2-4.8,1.3c-0.6-0.3-1-0.8-1.3-1.4
		c-0.5-1-0.6-2-0.1-3.1c1.4-3.2,0.6-3.9-2.5-2.1c-4.4,2.7-7,6.3-7.9,11c-0.4,2.5-1.9,3.6-4.4,3.3c-2.6-0.3-3.5,0.8-2.8,3.3
		c0.5,2-0.1,2.6-1.9,1.7c-0.2-0.1-0.4-0.1-0.6-0.1c-1.6,0.5-2.5-0.1-2.7-1.9c-0.5-4.4-1-8.8-1.6-13.1"/>
	<path vector-effect="non-scaling-stroke" class="st6" d="M721.9,1534.6l-19,60c-0.6,1.9-0.9,3.9-0.9,5.8c-0.1,5.4-2.5,9.9-7.1,13.6
		c-1.9,1.5-2.7,3.5-2.3,5.9c0.5,3.5-0.7,6.2-3.5,8.2c-2,1.4-3,3.3-3,5.7v12.9c0,2.2-0.8,4-2.4,5.5c-4.4,4.1-4.9,8.7-1.4,13.8
		c1,1.5,0.9,2.8-0.4,4c-3.7,3.5-4.9,7.9-3.5,13.3c0.5,2-0.3,4-2.1,5.1c-3.4,2.1-4.8,5.1-4.2,9c0.4,2.3-0.4,4-2.4,5.2
		c-4.7,2.7-6.6,6.8-5.5,12.4c0.5,2.6-0.2,4.8-2.3,6.5c-3.5,2.8-4.9,6.7-4.3,11.6c0.5,4.9,0.2,9.7-1.1,14.4
		c-1.6,5.7-2.8,11.6-3.7,17.7c-0.3,2.4-1.7,4.5-3.8,5.8c-7.9,4.9-11.1,13.2-9.8,24.8c0.3,2.1-0.3,4-1.8,5.7
		c-4.2,4.7-5.9,10.5-5.1,17.5c0.7,5.8-1.8,11.4-6.5,14.8c-13.3,9.8-5.8,23.5-11.8,36.6c-1,2.3-1.8,4.6-2.5,7
		c-9.3,34.4-19.8,69.2-31.5,104.4"/>
	<path vector-effect="non-scaling-stroke" class="st7" d="M515.9,1736.1c-1.7-2.2-1.1-3.7,1.6-4.6c4.1-1.3,4-2.3-0.3-2.9
		c-1-0.2-1.9-0.1-2.6,0.1c-1.6,0.5-1.8,0.2-0.6-1c0.9-0.9,0.9-1.8-0.2-2.8c-1.2-1.1-2.5-1.3-3.8-0.4l-1.4,0.9
		c-1,0.6-2.3,0.3-2.9-0.7c-0.3-0.4-0.4-0.9-0.3-1.4l2.3-17.2c0.2-1.7,1.2-3.2,2.5-4.1c2.3-1.6,3.2-3.9,2.8-6.7
		c-0.2-1.4,0-2.8,0.7-4.1c7.2-13.2,12.3-27.4,15.3-42.5c1.1-5.6,5.9-14.7,14.6-27.3"/>
	<path vector-effect="non-scaling-stroke" class="st8" d="M1921.7,1794.9c-41.4,43.4-77.4,85.7-107.9,126.9
		c-55.4,74.7-106.4,155.2-152.8,241.5c0,0.1-2.3,5.2-6.7,15.2c-2.4,5.5-5.6,10.2-9.6,13.9"/>
	<path vector-effect="non-scaling-stroke" class="st9" d="M778.2,1570.6c-3.1,2.2-4.6,4.6-4.3,7.3c0.2,1.6,0.8,3,1.9,4.2
		s1.9,2.5,2.5,4.1c0.7,2.2,0.5,4.3-0.7,6.2c-3.1,5.2-4.8,10.8-5.1,16.7c0,1.3-0.5,2.4-1.4,3.3c-4.4,4.4-6,9.5-4.8,15.4
		c0.5,2.3-0.5,4.6-2.5,5.9c-1.2,0.8-2.1,1.8-2.9,3c-1.1,1.9-1.3,4-0.6,6.1c1.9,5.5,0.6,10.8-3.7,15.9c-1.5,1.7-2,4.1-1.4,6.2
		c0.8,3.1-0.3,5.4-3.1,6.9c-0.7,0.4-1.3,1-1.6,1.8c-0.8,1.8-0.6,3.1,0.3,4.1c1.4,1.4,1.5,2.9,0.3,4.5c-4.6,6-7.6,13-8.9,20.9
		c-0.9,5.2-2.3,10.1-4.3,15c-4,9.7-5.5,19-4.5,28.1c0.2,1.8-0.4,3.2-1.7,4.3c-5.5,4.5-8.1,10.2-7.8,17c0.1,1.9-0.5,3.8-1.6,5.3
		l-8.4,11.8c-1.3,1.7-2,3.6-2.3,5.7l-1.9,14.6c-0.3,2.3-1.3,4.1-3.1,5.5c-2,1.6-2.1,3.3-0.3,5.1c2.1,2.1,2.2,4.3,0.6,6.7
		c-2.9,4-4.4,8.5-4.5,13.4c-0.1,4.8-1.3,9.5-3.6,13.9c-3.3,6.4-6.9,12.1-11,17.2c-1.5,1.9-2.1,4-1.8,6.4c0.7,4.9,0,9.4-2.1,13.3
		c-1.2,2.2-1.5,4.5-1,6.8c1.1,5.4-0.1,9.9-3.8,13.4c-2.4,2.3-3.2,5-2.5,8.2c1.1,4.6,0.5,8.5-1.8,11.7c-1.6,2.3-3,4.7-4.1,7.2
		c-2.1,4.5-4.4,8.9-7.2,13c-1.1,1.7-1.8,3.6-1.9,5.7c-1,12.5-4,24.6-8.8,36.3c-0.8,2-1.3,4.1-1.3,6.3v5.9c0,1.6-1.3,2.9-2.9,2.9
		c-0.3,0-0.7-0.1-1-0.2c-1.1-0.4-2.1-0.3-3,0.4c-2.7,1.9-2.9,4-0.8,6.5c1.9,2.1,1.8,4-0.3,5.8c-2.2,1.9-3.6,4.3-4.4,7
		c-2.3,8.1-4.5,16.4-6.7,25c-2.8,11.4-7.7,23.1-14.6,35.1c-0.9,1.5-1.3,3.1-1.1,4.8c0.1,1.4,0.2,2.8,0.3,4.3
		c0.2,4.3,1.7,4.8,4.5,1.6c39.9-44.9,72.4-88.9,97.3-131.9c62.8-108.1,108.1-223.7,135.8-346.9"/>
	<path vector-effect="non-scaling-stroke" class="st0" d="M866.8,1621.3c58.5,32.5,116.6,64.6,174.5,96.4c4.3,2.4,7.8,1.8,12.4,1.1"
		/>
	<path vector-effect="non-scaling-stroke" class="st10" d="M275.3,2138.2C197.1,2073.6,137.4,1997,96,1908.4
		c-35.4-75.8-62.1-157.1-80-243.9"/>
	<path vector-effect="non-scaling-stroke" class="st11" d="M1464.1,2241.9c-14.2-67.9-34.1-130.5-59.8-187.6"/>
	<path vector-effect="non-scaling-stroke" class="st12" d="M1404.3,2054.3c-22.4-43.2-49-82.8-79.9-118.9
		c-39.6-46.2-85.5-87.3-137.9-123.5"/>
	<path vector-effect="non-scaling-stroke" class="st13" d="M2564.6,1621.7c17.2,43.9,35.5,86.7,55,128.6c6,12.9,15,24.9,22.1,37.9"
		/>
	<path vector-effect="non-scaling-stroke" class="st14" d="M2641.7,1788.1l12.8,27.8"/>
	<path vector-effect="non-scaling-stroke" class="st15" d="M2654.4,1815.9c-1.8-0.8-4.2-1.3-7.2-1.3"/>
	<path vector-effect="non-scaling-stroke" class="st16" d="M2380.2,1863.6c-14.9,9.4-28.9,18.3-42.2,26.6
		c-14.1,8.9-42.2,17.8-58.6,19c-25.3,1.7-50.1-3.1-74.2-14.6c-31.8-15.1-57-38-75.6-68.7"/>
	<path vector-effect="non-scaling-stroke" class="st17" d="M2806.3,1681.8c6.6,4.6,4.4,7.6-6.7,9.2c-0.1,0-0.2,0.1-0.2,0.2
		c0,0.1,0.1,0.2,0.3,0.3c1,0,1.4,0.3,1.3,0.9c0,0.3-0.3,0.5-0.6,0.8c-6.7,3.1-12.7,7.2-18,12.3c-1.4,1.4-3.2,2.3-5.2,2.7
		c-4.4,0.8-7.9,3.1-10.4,6.9c-0.1,0.1-0.2,0.2-0.4,0.1c-0.1,0-0.1-0.1-0.1-0.2c-0.1-0.5-0.4-1-0.9-1.3c-0.8-0.6-1.6-0.5-2.3,0.3
		c-6.6,7.4-15.1,12.2-25.7,14.3c-1.8,0.4-2.8,1.4-3.1,3.2c-1.9,9.7-7.3,15-16.2,15.8c-2.7,0.3-5.2,1-7.6,2.2
		c-7.2,3.8-13.3,8.3-18.3,13.6c-0.8,0.8-1.7,1.3-2.8,1.5c-0.6,0.1-1.3,0.2-1.9,0.3c-2,0.2-3.4,1.2-4.1,3c-1.5,4.2-4.4,5.5-8.4,3.8
		c-1.2-0.5-2.3-0.4-3.3,0.4c-3.4,2.6-7.1,4.3-11.2,5.3c-1.6,0.4-3,1.2-4.1,2.3c-2,2-3.2,4.3-3.6,7c-0.3,2.5-1.7,3.4-4.1,2.9
		l-6.9-1.4"/>
	<path vector-effect="non-scaling-stroke" class="st18" d="M3332.6,1671.9c-1.2,5.7-3.4,8.4-6.6,8.2c-2-0.2-2.8-1.2-2.6-3.2
		c0.1-0.6,0-1.2-0.4-1.6c-1.5-2.1-2.6-2-3.5,0.4c-1.7,4.6-5,8.6-9.9,12.1c-1.8,1.3-3.9,1.9-6.1,1.9c-3,0-4.8,1.4-5.5,4.3
		c-0.3,1.3-1.7,2.2-3,1.9c0,0-0.1,0-0.1,0c-2.8-0.8-5.1,0-6.9,2.4c-1.2,1.6-2.7,2.7-4.6,3.3c-8.9,2.9-16.2,8.5-21.9,16.8
		c-1.2,1.7-2.8,2.5-4.8,2.5c-2.1,0-4.1,0.5-6,1.5c-1.1,0.6-1.9,1.4-2.6,2.5c-0.9,1.4-2.1,2.3-3.8,2.7c-6.5,1.6-11.7,5.1-15.6,10.6
		c-0.6,0.9-1.5,1.4-2.6,1.6c-0.6,0.1-1.3,0.1-1.9,0c-2-0.3-3.7,0.2-5.2,1.6l-9.3,9.2c-1.3,1.3-3,2.1-4.8,2.1c-3.9,0.2-7.1,2-9.4,5.5
		c-0.6,0.9-1.8,1.1-2.7,0.5c-0.3-0.2-0.5-0.4-0.6-0.7c-0.4-0.8-1-1.2-1.8-1.1c-3.4,0.3-4,1.7-1.9,4.5c3.3,4.2,3.3,7.8-0.1,10.8"/>
	<path vector-effect="non-scaling-stroke" class="st19" d="M2937.3,2129.5c-108.2-83.6-197.2-181.5-266.9-293.5
		c-4.3-7-11.1-13-16-20"/>
	<path vector-effect="non-scaling-stroke" class="st20" d="M3454.6,1791.2c-19.9,0.6-35.7,5.4-47.3,14.5
		c-14.9,11.5-26.7,19.2-35.2,23.2c-5.8,2.6-7.7,8.2-14.1,10.6c-7.4,2.8-13.7,6.6-19.1,11.6c-1.4,1.3-3.1,2.2-5.1,2.6
		c-5.2,1.1-9.7,2.7-13.6,6.7c-6.3,6.6-14,12-23.1,16.1c-2.1,1-3.8,2.3-5.3,4c-3.2,3.6-7.3,5.6-12.1,5.9c-2.4,0.2-4.6,1.3-6.2,3.1
		c-10.8,12.8-23,21.6-36.6,26.4c-1,0.4-1.6,1.1-1.6,2.3v2.3c0,1.3-0.6,2.2-1.7,2.8c-0.6,0.3-1.2,0.4-1.9,0.2c-3.1-0.9-3.8,0-2.1,2.7
		c0.5,0.9,0.7,1.9,0.5,3c-0.3,1.4-0.9,1.6-1.8,0.6c-0.1-0.2-0.3-0.3-0.4-0.5c-1.2-1.6-2.1-1.4-2.7,0.6c-0.7,2.1-1.6,3.9-2.9,5.3"/>
	<path vector-effect="non-scaling-stroke" class="st21" d="M3497.9,1952.9c-9.3,2.8-17.1,7.8-23.6,15.1c-1.5,1.7-3.3,3-5.4,3.8
		c-4.9,2-9.2,5-12.9,9.2c-1.3,1.5-3,2.3-5,2.4c-3.6,0.2-6.2,1.8-7.9,5c-0.8,1.3-1.9,2.1-3.5,2.3c-7.7,0.8-14,4.9-18.8,12.3
		c-0.9,1.5-2.1,2.6-3.6,3.5c-8.8,5.3-17.7,8.7-26.8,10.3c-2.3,0.4-3.7,1.8-4.1,4c-0.5,2.8-1.6,5.4-3.2,7.7c-1.3,2-3.2,3.1-5.5,3.3
		c-8.9,1.1-16.5,5.1-23,11.9c-1.7,1.8-3.7,2.8-6.1,3.3c-3.6,0.6-6.3,2.5-7.9,5.7c-0.9,1.8-2.3,3.1-4.3,3.8
		c-4.3,1.5-8.6,3.4-12.8,5.7c-10.4,5.3-12.5,15-26.1,16.8c-2.4,0.3-4.3,1.5-5.7,3.6c-3.6,5.6-9,8.4-16.2,8.6
		c-2.6,0.1-4.9,1.1-6.7,3.1c-1.5,1.6-2.5,3.6-2.9,5.8c-0.5,2.3-1.6,4.1-3.4,5.4l-10.6,7.9c-1.5,1.1-3.2,1.8-5,2.1
		c-5.5,0.8-10.8,2.8-15.9,6c-1.9,1.2-2.6,2.8-1.9,5c0.4,1.5-0.2,2.4-1.7,2.8c0.4-3.9,0.2-7.8-0.6-11.6c-0.4-2-0.9-2.1-1.6-0.1
		c-0.8,2.3-1.8,3.8-2.9,4.6"/>
	<path vector-effect="non-scaling-stroke" class="st22" d="M1404.3,2054.3c-3.4-0.8-5.9-0.3-7.3,1.4c-1.3,1.7-1.5,3.5-0.6,5.4
		c4.7,9.5,6.7,19.9,5.9,31.4c-0.2,2.5-1.4,4.2-3.8,5.1c-3.4,1.3-4.7,3.8-4,7.3c0.4,2-0.1,3.6-1.6,5c-5.7,5-7.1,12.5-4.1,22.4
		c0.1,0.3,0,0.6-0.2,0.9c-0.4,0.4-0.8,0.9-1.1,1.3c-0.8,1.1-2.4,1.2-3.5,0.4c-0.5-0.4-0.9-1.1-0.9-1.7c-0.1-1.1-0.6-1.9-1.5-2.5
		c-1.5-1-2.8-0.7-3.8,0.9c-3.2,5.2-7.1,9.5-11.6,12.8c-1.5,1.1-2.2,2.6-1.8,4.5c1.6,8.5-1.7,13-9.8,13.6c-1.5,0.1-2.4,1-2.5,2.6
		c-0.2,4.1-1.9,7.5-5.2,10.2c-1.6,1.3-2.8,3-3.5,4.8l-6.4,15.9c-0.9,2.1-2.5,3.4-4.7,3.8c-6.5,1.2-10.6,5.1-12.1,11.7
		c-0.5,2.4-1.8,4.6-3.6,6.2c-3.1,2.6-6.1,5.3-9,7.9c-6.2,5.3-13.3,8.9-11.1,18.7c0.5,2.2,1.9,3.2,4.1,3c8.5-0.5,16.5,0.2,24.1,2.1"
		/>
</g>
<circle class="st23" cx="139" cy="1390.8" r="139.1"/>
<path class="st24" d="M855.1,1616.3c-0.1-0.3-0.3-0.5-0.4-0.8l-76.4-45l-56.4-36L608.2,1447c8.3-23.4,21-45.4,38.1-66.1
	c41.4-50.2,94.8-85,160.3-104.5c60.6-18,123.2-26.1,187.7-24.3c0.9,0,1.4,0.5,1.4,1.4l-0.3,43.8c0,1.7-0.8,2.6-2.5,2.8
	c-57,6.3-95.5,31.4-115.4,75.4c-7.7,17.1-15.1,32.9-17.5,52C852.5,1490.1,850.8,1553,855.1,1616.3z"/>
<circle class="st24" cx="1325" cy="1390.8" r="139.2"/>
<path class="st25" d="M1922.1,1402.5l-0.4-111.5c0-3.9-1.2-4.3-3.3-1c-7.9,11.8-15.3,23.2-25.7,33.1c-20.2,19.1-40.1,38.1-59.8,56.7
	c-43.4,41.4-78,90.7-103.8,147.8c-25,55.2-43.1,117.8-54.4,187.9c-4.4,33.3-7.4,66.9-9,100.5c-1.1,22.9-7,44.4-7,67.5
	c0,14.5-0.5,28.8-1.3,43.2c-0.8,13.9-1.2,28.1-1.2,42.6c0.1,6.5,3.8,10.6,1.4,17.8c-0.6,2-0.8,4-0.6,6.1c2.8,29.9,1.4,58.5-4.1,86
	c-0.4,2.1-1.7,3.4-3.8,3.8l-4.7,1c-0.3-234.4-0.2-468.8,0.3-703.1c0.1-37.5,2.8-61.7,8.1-72.6c11.5-23.5,28.2-39.9,50.1-49.4
	c13.7-5.9,34.7-8.7,63-8.2c51.7,0.9,102.4,1,152,0.3c3.2,0,4.8,1.6,4.8,4.8L1922.1,1402.5z"/>
<path class="st26" d="M1922.1,1402.5l0.1,335l-1.3-233.3c0-1.2-0.6-1.9-1.7-2.3c-0.8-0.3-1.6-0.7-2.2-1.4c-1-1.1-1.2-2.3-0.4-3.6
	c1-1.9,1.5-3.9,1.4-6.2c0-1.5-1.3-2.7-2.8-2.6c-0.5,0-1.1,0.2-1.5,0.5c-2.8,2-5.6,4.3-8.4,6.9c-2.6,2.4-4.6,5.1-6.1,8.1
	c-2.2,4.5-5.5,8-10,10.5c-2.1,1.2-3.1,0.6-3.1-1.8c0-0.7,0-1.3-0.1-1.9c-0.3-3.6-1.7-4-4-1.2c-7.6,9-10.5,18.9-8.7,29.7
	c0.4,2.4-0.1,4.6-1.6,6.5c-1.7,2.3-2,4.9-0.9,7.7c0.8,2.1,0.8,4.3,0,6.4c-2.8,7.1-5.3,14.3-7.6,21.6c-1.3,4.5-4.7,7.5-8.5,9.8
	c-2,1.2-3,3-3,5.3l-0.4,25.2c0,2.4-0.9,4.4-2.6,6.2l-18.7,18.7c-1.5,1.5-3.2,2.2-5.3,2.2h-9.9c-2,0-3.8,0.8-5.1,2.3l-10.3,12.3
	c-1.5,1.7-3.3,2.7-5.5,3c-1.5,0.1-2.7-0.4-3.5-1.5c-1.5-2-3.2-2.1-5-0.3l-4.8,4.8c-1.8,1.8-2.4,1.5-1.6-1l5.3-17
	c0.3-0.8,0-1.2-0.9-1.2l-11.2,0.1c-0.8,0-1.4,0.4-1.8,1c-3.5,5.7-8.1,10.5-13.9,14.6c-1.6,1.1-2.8,2.6-3.6,4.3c-1.2,2.7-3,5-5.5,6.9
	c-1.7,1.3-2.4,0.9-2.1-1.2l1.5-10.4c0.3-1.9-0.2-2.1-1.4-0.6c-2.7,3.4-5.2,7.3-7.5,11.5c-0.5,0.9-1.6,1.2-2.4,0.7
	c-0.3-0.1-0.5-0.3-0.6-0.6c-1.4-2.3-0.9-4.1,1.5-5.3c2.2-1.1,2.6-2.7,1.1-4.6c-0.8-1.1-1.9-2.1-3.1-3c-1.2-0.8-2.8-0.5-3.6,0.7
	c-0.2,0.3-0.3,0.6-0.4,0.9c-1.1,5.7-4.3,9.8-9.4,12.4c-1,0.5-1.2,1.2-0.6,2.1c2.3,3.9,2.5,7.5,0.6,10.7c-5.7,9.6-11,18.5-15.8,26.5
	c-1,1.7-3.1,2.2-4.8,1.3c-0.6-0.3-1-0.8-1.3-1.4c-0.5-1-0.6-2-0.1-3.1c1.4-3.2,0.6-3.9-2.5-2.1c-4.4,2.7-7,6.3-7.9,11
	c-0.4,2.5-1.9,3.6-4.4,3.3c-2.6-0.3-3.5,0.8-2.8,3.3c0.5,2-0.1,2.6-1.9,1.7c-0.2-0.1-0.4-0.1-0.6-0.1c-1.6,0.5-2.5-0.1-2.7-1.9
	c-0.5-4.4-1-8.8-1.6-13.1c11.3-70.1,29.4-132.7,54.4-187.9c25.8-57.2,60.4-106.5,103.8-147.8c19.6-18.7,39.5-37.6,59.8-56.7
	c10.4-9.9,17.8-21.3,25.7-33.1c2.2-3.3,3.3-2.9,3.3,1L1922.1,1402.5z"/>
<path class="st27" d="M608.2,1447l113.7,87.6l-19,60c-0.6,1.9-0.9,3.9-0.9,5.8c-0.1,5.4-2.5,9.9-7.1,13.6c-1.9,1.5-2.7,3.5-2.3,5.9
	c0.5,3.5-0.7,6.2-3.5,8.2c-2,1.4-3,3.3-3,5.7v12.9c0,2.2-0.8,4-2.4,5.5c-4.4,4.1-4.9,8.7-1.4,13.8c1,1.5,0.9,2.8-0.4,4
	c-3.7,3.5-4.9,7.9-3.5,13.3c0.5,2-0.3,4-2.1,5.1c-3.4,2.1-4.8,5.1-4.2,9c0.4,2.3-0.4,4-2.4,5.2c-4.7,2.7-6.6,6.8-5.5,12.4
	c0.5,2.6-0.2,4.8-2.3,6.5c-3.5,2.8-4.9,6.7-4.3,11.6c0.5,4.9,0.2,9.7-1.1,14.4c-1.6,5.7-2.8,11.6-3.7,17.7c-0.3,2.4-1.7,4.5-3.8,5.8
	c-7.9,4.9-11.1,13.2-9.8,24.8c0.3,2.1-0.3,4-1.8,5.7c-4.2,4.7-5.9,10.5-5.1,17.5c0.7,5.8-1.8,11.4-6.5,14.8
	c-13.3,9.8-5.8,23.5-11.8,36.6c-1,2.3-1.8,4.6-2.5,7c-9.3,34.4-19.8,69.2-31.5,104.4l-0.3-240.8c0-2.5-2-4.5-4.4-4.5l-59.3-0.1
	c-1.7-2.2-1.1-3.7,1.6-4.6c4.1-1.3,4-2.3-0.3-2.9c-1-0.2-1.9-0.1-2.6,0.1c-1.6,0.5-1.8,0.2-0.6-1c0.9-0.9,0.9-1.8-0.2-2.8
	c-1.2-1.1-2.5-1.3-3.8-0.4l-1.4,0.9c-1,0.6-2.3,0.3-2.9-0.7c-0.3-0.4-0.4-0.9-0.3-1.4l2.3-17.2c0.2-1.7,1.2-3.2,2.5-4.1
	c2.3-1.6,3.2-3.9,2.8-6.7c-0.2-1.4,0-2.8,0.7-4.1c7.2-13.2,12.3-27.4,15.3-42.5c1.1-5.6,5.9-14.7,14.6-27.3l29,0.5
	c3.7,0.1,6.8-2.8,7-6.5C583.5,1560.5,587.5,1499.5,608.2,1447z"/>
<path class="st28" d="M1922.2,1737.5l-0.4,57.4c-41.4,43.4-77.4,85.7-107.9,126.9c-55.4,74.7-106.4,155.2-152.8,241.5
	c0,0.1-2.3,5.2-6.7,15.2c-2.4,5.5-5.6,10.2-9.6,13.9l-0.3-108.4l4.7-1c2.1-0.4,3.4-1.7,3.8-3.8c5.5-27.5,6.9-56.2,4.1-86
	c-0.2-2.1,0-4.1,0.6-6.1c2.4-7.2-1.4-11.3-1.4-17.8c0-14.5,0.4-28.7,1.2-42.6c0.8-14.3,1.3-28.7,1.3-43.2c0-23.2,5.8-44.6,7-67.5
	c1.6-33.7,4.6-67.2,9-100.5c0.6,4.3,1.1,8.6,1.6,13.1c0.2,1.8,1.1,2.5,2.7,1.9c0.2-0.1,0.4-0.1,0.6,0.1c1.8,0.9,2.5,0.3,1.9-1.7
	c-0.7-2.6,0.2-3.7,2.8-3.3c2.5,0.3,4-0.8,4.4-3.3c0.8-4.6,3.5-8.3,7.9-11c3-1.8,3.8-1.2,2.5,2.1c-0.5,1.1-0.4,2.1,0.1,3.1
	c0.9,1.7,3,2.4,4.7,1.5c0.6-0.3,1.1-0.8,1.4-1.3c4.8-8,10-16.8,15.8-26.5c1.9-3.2,1.7-6.7-0.6-10.7c-0.5-0.9-0.3-1.6,0.6-2.1
	c5.1-2.6,8.2-6.8,9.4-12.4c0.3-1.4,1.6-2.3,3-2c0.3,0.1,0.6,0.2,0.9,0.4c1.2,0.8,2.2,1.8,3.1,3c1.5,2,1.1,3.5-1.1,4.6
	c-2.4,1.2-2.9,3-1.5,5.3c0.5,0.8,1.6,1.1,2.5,0.5c0.3-0.2,0.5-0.4,0.6-0.7c2.3-4.2,4.8-8.1,7.5-11.5c1.2-1.5,1.6-1.3,1.4,0.6
	l-1.5,10.4c-0.3,2.1,0.4,2.5,2.1,1.2c2.5-1.9,4.3-4.2,5.5-6.9c0.8-1.8,2-3.2,3.6-4.3c5.7-4.1,10.4-8.9,13.9-14.6c0.4-0.6,1-1,1.8-1
	l11.2-0.1c0.8,0,1.1,0.4,0.9,1.2l-5.3,17c-0.8,2.5-0.2,2.8,1.6,1l4.8-4.8c1.8-1.8,3.4-1.7,5,0.3c0.8,1.1,2,1.6,3.5,1.5
	c2.2-0.3,4.1-1.2,5.5-3l10.3-12.3c1.3-1.5,3.1-2.3,5.1-2.3h9.9c2.1,0,3.8-0.7,5.3-2.2l18.7-18.7c1.7-1.7,2.6-3.8,2.6-6.2l0.4-25.2
	c0-2.3,1-4.1,3-5.3c3.8-2.3,7.2-5.3,8.5-9.8c2.3-7.3,4.8-14.5,7.6-21.6c0.8-2.1,0.8-4.3,0-6.4c-1.1-2.8-0.8-5.4,0.9-7.7
	c1.5-2,2-4.1,1.6-6.5c-1.8-10.8,1.1-20.7,8.7-29.7c2.3-2.8,3.7-2.4,4,1.2c0,0.6,0.1,1.3,0.1,1.9c0,2.4,1,3,3.1,1.8
	c4.5-2.5,7.8-6,10-10.5c1.5-3,3.5-5.7,6.1-8.1c2.8-2.6,5.6-4.9,8.4-6.9c1.2-0.9,2.9-0.6,3.8,0.6c0.3,0.4,0.5,1,0.5,1.5
	c0.1,2.2-0.4,4.3-1.4,6.2c-0.7,1.3-0.6,2.6,0.4,3.6c0.6,0.7,1.4,1.1,2.2,1.4c1.1,0.4,1.7,1.2,1.7,2.3L1922.2,1737.5z"/>
<path class="st29" d="M721.9,1534.6l56.4,36c-3.1,2.2-4.6,4.6-4.3,7.3c0.2,1.6,0.8,3,1.9,4.2s1.9,2.5,2.5,4.1
	c0.7,2.2,0.5,4.3-0.7,6.2c-3.1,5.2-4.8,10.8-5.1,16.7c0,1.3-0.5,2.4-1.4,3.3c-4.4,4.4-6,9.5-4.8,15.4c0.5,2.3-0.5,4.6-2.5,5.9
	c-1.2,0.8-2.1,1.8-2.9,3c-1.1,1.9-1.3,4-0.6,6.1c1.9,5.5,0.6,10.8-3.7,15.9c-1.5,1.7-2,4.1-1.4,6.2c0.8,3.1-0.3,5.4-3.1,6.9
	c-0.7,0.4-1.3,1-1.6,1.8c-0.8,1.8-0.6,3.1,0.3,4.1c1.4,1.4,1.5,2.9,0.3,4.5c-4.6,6-7.6,13-8.9,20.9c-0.9,5.2-2.3,10.1-4.3,15
	c-4,9.7-5.5,19-4.5,28.1c0.2,1.8-0.4,3.2-1.7,4.3c-5.5,4.5-8.1,10.2-7.8,17c0.1,1.9-0.5,3.8-1.6,5.3l-8.4,11.8
	c-1.3,1.7-2,3.6-2.3,5.7l-1.9,14.6c-0.3,2.3-1.3,4.1-3.1,5.5c-2,1.6-2.1,3.3-0.3,5.1c2.1,2.1,2.2,4.3,0.6,6.7
	c-2.9,4-4.4,8.5-4.5,13.4c-0.1,4.8-1.3,9.5-3.6,13.9c-3.3,6.4-6.9,12.1-11,17.2c-1.5,1.9-2.1,4-1.8,6.4c0.7,4.9,0,9.4-2.1,13.3
	c-1.2,2.2-1.5,4.5-1,6.8c1.1,5.4-0.1,9.9-3.8,13.4c-2.4,2.3-3.2,5-2.5,8.2c1.1,4.6,0.5,8.5-1.8,11.7c-1.6,2.3-3,4.7-4.1,7.2
	c-2.1,4.5-4.4,8.9-7.2,13c-1.1,1.7-1.8,3.6-1.9,5.7c-1,12.5-4,24.6-8.8,36.3c-0.8,2-1.3,4.1-1.3,6.3v5.9c0,1.6-1.3,2.9-2.9,2.9
	c-0.3,0-0.7-0.1-1-0.2c-1.1-0.4-2.1-0.3-3,0.4c-2.7,1.9-2.9,4-0.8,6.5c1.9,2.1,1.8,4-0.3,5.8c-2.2,1.9-3.6,4.3-4.4,7
	c-2.3,8.1-4.5,16.4-6.7,25c-2.8,11.4-7.7,23.1-14.6,35.1c-0.9,1.5-1.3,3.1-1.1,4.8c0.1,1.4,0.2,2.8,0.3,4.3c0.2,4.3,1.7,4.8,4.5,1.6
	c39.9-44.9,72.4-88.9,97.3-131.9c62.8-108.1,108.1-223.7,135.8-346.9c0.2,0.3,0.3,0.5,0.4,0.8c-0.8,4.8,3.1,6.5,11.7,5
	c58.5,32.5,116.6,64.6,174.5,96.4c4.3,2.4,7.8,1.8,12.4,1.1c0.8,4.4,0.6,8.4-0.6,12c-0.6,1.8-1.8,2.7-3.8,2.8l-188.3,3
	c-2.5,0-4.5,2-4.5,4.5c-0.8,133-0.8,267.7-0.1,404.2c0.1,18.6-2.8,34.6-8.8,48c-14.6,32.9-41.5,51.6-80.7,56.1H580.1l-0.2-267.9
	c11.8-35.2,22.3-70,31.5-104.4c0.7-2.3,1.5-4.7,2.5-7c6-13.1-1.5-26.8,11.8-36.6c4.7-3.4,7.1-9,6.5-14.8c-0.8-7,0.9-12.8,5.1-17.5
	c1.4-1.6,2-3.5,1.8-5.7c-1.3-11.6,1.9-19.9,9.8-24.8c2.1-1.3,3.5-3.4,3.8-5.8c0.9-6.1,2.1-12,3.7-17.7c1.3-4.6,1.7-9.4,1.1-14.4
	c-0.6-4.9,0.9-8.7,4.3-11.6c2.1-1.7,2.9-3.8,2.3-6.5c-1.1-5.5,0.7-9.7,5.5-12.4c2-1.1,2.8-2.8,2.4-5.2c-0.6-4,0.8-7,4.2-9
	c1.7-1,2.6-3.1,2.1-5.1c-1.4-5.3-0.2-9.7,3.5-13.3c1.3-1.2,1.4-2.5,0.4-4c-3.5-5.1-3.1-9.7,1.4-13.8c1.6-1.5,2.4-3.3,2.4-5.5v-12.9
	c0-2.4,1-4.3,3-5.7c2.8-2,4-4.7,3.5-8.2c-0.3-2.4,0.4-4.4,2.3-5.9c4.6-3.7,7-8.2,7.1-13.6c0-2,0.4-3.9,0.9-5.8L721.9,1534.6z"/>
<path class="st30" d="M778.2,1570.6l76.4,45c-27.7,123.2-73,238.8-135.8,346.9c-25,43-57.4,87-97.3,131.9c-2.8,3.2-4.4,2.6-4.5-1.6
	c-0.1-1.4-0.2-2.8-0.3-4.3c-0.1-1.8,0.3-3.4,1.1-4.8c7-11.9,11.8-23.6,14.6-35.1c2.1-8.6,4.4-16.9,6.7-25c0.8-2.8,2.2-5.1,4.4-7
	c2.1-1.8,2.2-3.8,0.3-5.8c-2.2-2.4-1.9-4.6,0.8-6.5c0.9-0.7,1.9-0.9,3-0.4c1.5,0.6,3.2-0.2,3.7-1.8c0.1-0.3,0.2-0.7,0.2-1v-5.9
	c0-2.2,0.4-4.3,1.3-6.3c4.8-11.6,7.7-23.7,8.8-36.3c0.2-2,0.8-4,1.9-5.7c2.7-4.1,5.1-8.5,7.2-13c1.1-2.5,2.5-4.9,4.1-7.2
	c2.3-3.2,2.9-7.1,1.8-11.7c-0.8-3.2,0-6,2.5-8.2c3.7-3.5,5-7.9,3.8-13.4c-0.5-2.4-0.2-4.7,1-6.8c2.1-3.9,2.8-8.4,2.1-13.3
	c-0.3-2.4,0.3-4.5,1.8-6.4c4.1-5.1,7.7-10.8,11-17.2c2.3-4.5,3.5-9.1,3.6-13.9c0.1-4.9,1.6-9.4,4.5-13.4c1.7-2.4,1.5-4.6-0.6-6.7
	c-1.8-1.8-1.7-3.5,0.3-5.1c1.8-1.4,2.8-3.3,3.1-5.5l1.9-14.6c0.3-2.1,1-3.9,2.3-5.7l8.4-11.8c1.1-1.5,1.7-3.4,1.6-5.3
	c-0.3-6.9,2.3-12.5,7.8-17c1.3-1.1,1.9-2.5,1.7-4.3c-1-9,0.5-18.4,4.5-28.1c2-4.8,3.4-9.8,4.3-15c1.3-7.9,4.3-14.8,8.9-20.9
	c1.2-1.5,1.1-3-0.3-4.5c-1-1-1.1-2.3-0.3-4.1c0.3-0.8,0.9-1.4,1.6-1.8c2.8-1.5,3.8-3.8,3.1-6.9c-0.6-2.2,0-4.5,1.4-6.2
	c4.4-5.1,5.6-10.4,3.7-15.9c-0.7-2.1-0.5-4.2,0.6-6.1c0.8-1.2,1.7-2.2,2.9-3c2-1.3,3-3.6,2.5-5.9c-1.2-5.9,0.4-11,4.8-15.4
	c0.9-0.9,1.4-2,1.4-3.3c0.3-5.9,2-11.5,5.1-16.7c1.2-2,1.4-4,0.7-6.2c-0.5-1.5-1.3-2.9-2.5-4.1s-1.8-2.6-1.9-4.2
	C773.6,1575.2,775.1,1572.8,778.2,1570.6z"/>
<path class="st23" d="M275.3,2138.2C197.1,2073.6,137.4,1997,96,1908.4c-35.4-75.8-62.1-157.1-80-243.9c9.8-18,25.6-30.6,47.1-37.6
	c14.3-4.7,32.5-6.9,54.6-6.5c53.5,0.8,104.7,0.9,153.6,0.4c2.7,0,4.1,1.3,4.1,4.1L275.3,2138.2z"/>
<path class="st31" d="M543.5,1621.2c-8.6,12.6-13.5,21.8-14.6,27.3c-3,15.1-8.1,29.3-15.3,42.5c-0.7,1.3-0.9,2.7-0.7,4.1
	c0.4,2.8-0.5,5.1-2.8,6.7c-1.4,1-2.3,2.5-2.5,4.1l-2.3,17.2c-0.2,1.2,0.7,2.2,1.8,2.4c0.5,0.1,1,0,1.4-0.3l1.4-0.9
	c1.4-0.9,2.7-0.8,3.8,0.4c1,1,1.1,1.9,0.2,2.8c-1.2,1.2-1,1.5,0.6,1c0.8-0.2,1.6-0.2,2.6-0.1c4.2,0.6,4.3,1.6,0.3,2.9
	c-2.8,0.9-3.3,2.5-1.6,4.6l-58.2-0.6c-2,0-3-1.1-3-3.1l-0.1-106.9c0-2.3,1.9-4.1,4.1-4.1L543.5,1621.2z"/>
<path class="st24" d="M866.8,1621.3l183.9,0.5c1.7,0,3.1,1.4,3.1,3.1l-0.1,93.8c-4.6,0.8-8.1,1.3-12.4-1.1
	C983.5,1685.9,925.3,1653.8,866.8,1621.3z"/>
<path class="st25" d="M1464.1,2241.9c-14.2-67.9-34.1-130.5-59.8-187.6c-22.4-43.2-49-82.8-79.9-118.9
	c-39.6-46.2-85.5-87.3-137.9-123.5l-0.1-188.2c0-1.4,1.1-2.5,2.5-2.5c40.6,0.2,85-0.1,133-0.9c41.4-0.6,68.5,1.9,81.3,7.5
	c28.3,12.4,46.6,31.5,54.9,57.3c4.4,13.7,6.6,36.4,6.4,68.2C1463.8,1914.6,1463.6,2077.4,1464.1,2241.9z"/>
<path class="st32" d="M2564.6,1621.7c17.2,43.9,35.5,86.7,55,128.6c6,12.9,15,24.9,22.1,37.9l12.8,27.8c-1.8-0.8-4.2-1.3-7.2-1.3
	c-17.4-50.2-58.5-95.9-112.2-102.2c-75.6-8.9-136.2,47.2-148.9,119.1c-2.3,13-4.3,23.7-6,32c-14.9,9.4-28.9,18.3-42.2,26.6
	c-14.1,8.9-42.2,17.8-58.6,19c-25.3,1.7-50.1-3.1-74.2-14.6c-31.8-15.1-57-38-75.6-68.7c20.1-53.5,52.4-96.6,96.7-129.4
	c37.8-27.9,82.3-47.8,133.5-59.7C2423.5,1622,2491.8,1617,2564.6,1621.7z"/>
<path class="st33" d="M2564.6,1621.7c84.2,0.7,161.4,20.7,231.7,60.1c1.6,0.9,4.9,0.9,10.1,0c6.6,4.6,4.4,7.6-6.7,9.2
	c-0.1,0-0.2,0.1-0.2,0.2c0,0.1,0.1,0.2,0.3,0.3c1,0,1.4,0.3,1.3,0.9c0,0.3-0.3,0.5-0.6,0.8c-6.7,3.1-12.7,7.2-18,12.3
	c-1.4,1.4-3.2,2.3-5.2,2.7c-4.4,0.8-7.9,3.1-10.4,6.9c-0.1,0.1-0.2,0.2-0.4,0.1c-0.1,0-0.1-0.1-0.1-0.2c-0.1-0.5-0.4-1-0.9-1.3
	c-0.8-0.6-1.6-0.5-2.3,0.3c-6.6,7.4-15.1,12.2-25.7,14.3c-1.8,0.4-2.8,1.4-3.1,3.2c-1.9,9.7-7.3,15-16.2,15.8
	c-2.7,0.3-5.2,1-7.6,2.2c-7.2,3.8-13.3,8.3-18.3,13.6c-0.8,0.8-1.7,1.3-2.8,1.5c-0.6,0.1-1.3,0.2-1.9,0.3c-2,0.2-3.4,1.2-4.1,3
	c-1.5,4.2-4.4,5.5-8.4,3.8c-1.2-0.5-2.3-0.4-3.3,0.4c-3.4,2.6-7.1,4.3-11.2,5.3c-1.6,0.4-3,1.2-4.1,2.3c-2,2-3.2,4.3-3.6,7
	c-0.3,2.5-1.7,3.4-4.1,2.9l-6.9-1.4c-7-13-16-25-22.1-37.9C2600.1,1708.4,2581.8,1665.6,2564.6,1621.7z"/>
<path class="st34" d="M3332.6,1671.9c-1.2,5.7-3.4,8.4-6.6,8.2c-2-0.2-2.8-1.2-2.6-3.2c0.1-0.6,0-1.2-0.4-1.6
	c-1.5-2.1-2.6-2-3.5,0.4c-1.7,4.6-5,8.6-9.9,12.1c-1.8,1.3-3.9,1.9-6.1,1.9c-3,0-4.8,1.4-5.5,4.3c-0.3,1.3-1.7,2.2-3,1.9
	c0,0-0.1,0-0.1,0c-2.8-0.8-5.1,0-6.9,2.4c-1.2,1.6-2.7,2.7-4.6,3.3c-8.9,2.9-16.2,8.5-21.9,16.8c-1.2,1.7-2.8,2.5-4.8,2.5
	c-2.1,0-4.1,0.5-6,1.5c-1.1,0.6-1.9,1.4-2.6,2.5c-0.9,1.4-2.1,2.3-3.8,2.7c-6.5,1.6-11.7,5.1-15.6,10.6c-0.6,0.9-1.5,1.4-2.6,1.6
	c-0.6,0.1-1.3,0.1-1.9,0c-2-0.3-3.7,0.2-5.2,1.6l-9.3,9.2c-1.3,1.3-3,2.1-4.8,2.1c-3.9,0.2-7.1,2-9.4,5.5c-0.6,0.9-1.8,1.1-2.7,0.5
	c-0.3-0.2-0.5-0.4-0.6-0.7c-0.4-0.8-1-1.2-1.8-1.1c-3.4,0.3-4,1.7-1.9,4.5c3.3,4.2,3.3,7.8-0.1,10.8c-21-33.8-49-53.3-84.1-58.7
	c-78.3-12.1-134.1,32.7-155.4,105.7c-7.2,24.7-10.8,44.1-10.7,58.2c0.6,79.5,0.4,163.7-0.6,252.4
	c-108.2-83.6-197.2-181.5-266.9-293.5c-4.3-7-11.1-13-16-20l-12.8-27.8l6.9,1.4c2.4,0.5,3.8-0.4,4.1-2.9c0.4-2.7,1.6-5.1,3.6-7
	c1.1-1.2,2.5-1.9,4.1-2.3c4.1-1,7.8-2.8,11.2-5.3c1-0.8,2.1-0.9,3.3-0.4c4.1,1.7,6.9,0.4,8.4-3.8c0.7-1.8,2.1-2.8,4.1-3
	c0.7-0.1,1.3-0.2,1.9-0.3c1.1-0.2,2.1-0.7,2.8-1.5c5-5.3,11.1-9.8,18.3-13.6c2.4-1.2,4.9-1.9,7.6-2.2c8.9-0.8,14.3-6.1,16.2-15.8
	c0.3-1.8,1.4-2.8,3.1-3.2c10.6-2.1,19.1-6.8,25.7-14.3c0.7-0.8,1.4-0.9,2.3-0.3c0.5,0.3,0.8,0.8,0.9,1.3c0.1,0.2,0.2,0.3,0.3,0.2
	c0.1,0,0.1-0.1,0.2-0.1c2.6-3.8,6-6.1,10.4-6.9c2-0.4,3.8-1.3,5.2-2.7c5.3-5.1,11.3-9.2,18-12.3c0.4-0.2,0.6-0.5,0.6-0.8
	c0.1-0.6-0.4-0.9-1.3-0.9c-0.1,0-0.2-0.1-0.3-0.3c0-0.1,0.1-0.2,0.2-0.2c11-1.5,13.2-4.6,6.7-9.2c48.7-30.7,101.9-49.3,159.5-55.7
	c62.5-7,128.1-7.3,196.7-0.8C3224.4,1631.1,3281.1,1646.6,3332.6,1671.9z"/>
<path class="st35" d="M16,1664.5c17.9,86.8,44.6,168.1,80,243.9c41.4,88.5,101.1,165.1,179.3,229.8c3.7,63.2-25.2,100.3-86.7,111.1
	H0.3v-545.4C0.9,1689.7,6.1,1676.6,16,1664.5z"/>
<path class="st36" d="M3332.6,1671.9c52.7,27.6,93.4,67.4,122,119.3c-19.9,0.6-35.7,5.4-47.3,14.5c-14.9,11.5-26.7,19.2-35.2,23.2
	c-5.8,2.6-7.7,8.2-14.1,10.6c-7.4,2.8-13.7,6.6-19.1,11.6c-1.4,1.3-3.1,2.2-5.1,2.6c-5.2,1.1-9.7,2.7-13.6,6.7
	c-6.3,6.6-14,12-23.1,16.1c-2.1,1-3.8,2.3-5.3,4c-3.2,3.6-7.3,5.6-12.1,5.9c-2.4,0.2-4.6,1.3-6.2,3.1c-10.8,12.8-23,21.6-36.6,26.4
	c-1,0.4-1.6,1.1-1.6,2.3v2.3c0,1.3-0.6,2.2-1.7,2.8c-0.6,0.3-1.2,0.4-1.9,0.2c-3.1-0.9-3.8,0-2.1,2.7c0.5,0.9,0.7,1.9,0.5,3
	c-0.3,1.4-0.9,1.6-1.8,0.6c-0.1-0.2-0.3-0.3-0.4-0.5c-1.2-1.6-2.1-1.4-2.7,0.6c-0.7,2.1-1.6,3.9-2.9,5.3
	c3.5-57.4-4.1-113.8-34.1-163.2c3.4-3,3.4-6.6,0.1-10.8c-2.1-2.7-1.4-4.2,1.9-4.5c0.8-0.1,1.3,0.3,1.8,1.1c0.5,1,1.7,1.3,2.6,0.9
	c0.3-0.1,0.5-0.4,0.7-0.6c2.3-3.5,5.5-5.4,9.4-5.5c1.9-0.1,3.5-0.8,4.8-2.1l9.3-9.2c1.4-1.4,3.1-2,5.2-1.6c0.7,0.1,1.3,0.1,1.9,0
	c1.1-0.1,1.9-0.6,2.6-1.6c4-5.5,9.2-9,15.6-10.6c1.6-0.4,2.9-1.3,3.8-2.7c0.6-1,1.5-1.9,2.6-2.5c1.8-1,3.8-1.5,6-1.5
	c2.1,0,3.7-0.8,4.8-2.5c5.7-8.3,13-13.9,21.9-16.8c1.9-0.6,3.4-1.7,4.6-3.3c1.8-2.4,4.1-3.2,6.9-2.4c1.3,0.4,2.7-0.4,3.1-1.7
	c0,0,0-0.1,0-0.1c0.7-2.9,2.6-4.3,5.5-4.3c2.2,0,4.3-0.6,6.1-1.9c4.9-3.4,8.3-7.5,9.9-12.1c0.9-2.4,2.1-2.6,3.5-0.4
	c0.3,0.5,0.5,1,0.4,1.6c-0.3,2,0.6,3,2.6,3.2C3329.1,1680.3,3331.3,1677.6,3332.6,1671.9z"/>
<path class="st32" d="M3454.6,1791.2c25.5,49.9,39.9,103.8,43.3,161.7c-9.3,2.8-17.1,7.8-23.6,15.1c-1.5,1.7-3.3,3-5.4,3.8
	c-4.9,2-9.2,5-12.9,9.2c-1.3,1.5-3,2.3-5,2.4c-3.6,0.2-6.2,1.8-7.9,5c-0.8,1.3-1.9,2.1-3.5,2.3c-7.7,0.8-14,4.9-18.8,12.3
	c-0.9,1.5-2.1,2.6-3.6,3.5c-8.8,5.3-17.7,8.7-26.8,10.3c-2.3,0.4-3.7,1.8-4.1,4c-0.5,2.8-1.6,5.4-3.2,7.7c-1.3,2-3.2,3.1-5.5,3.3
	c-8.9,1.1-16.5,5.1-23,11.9c-1.7,1.8-3.7,2.8-6.1,3.3c-3.6,0.6-6.3,2.5-7.9,5.7c-0.9,1.8-2.3,3.1-4.3,3.8c-4.3,1.5-8.6,3.4-12.8,5.7
	c-10.4,5.3-12.5,15-26.1,16.8c-2.4,0.3-4.3,1.5-5.7,3.6c-3.6,5.6-9,8.4-16.2,8.6c-2.6,0.1-4.9,1.1-6.7,3.1c-1.5,1.6-2.5,3.6-2.9,5.8
	c-0.5,2.3-1.6,4.1-3.4,5.4l-10.6,7.9c-1.5,1.1-3.2,1.8-5,2.1c-5.5,0.8-10.8,2.8-15.9,6c-1.9,1.2-2.6,2.8-1.9,5
	c0.4,1.5-0.2,2.4-1.7,2.8c0.4-3.9,0.2-7.8-0.6-11.6c-0.4-2-0.9-2.1-1.6-0.1c-0.8,2.3-1.8,3.8-2.9,4.6l-0.1-187
	c1.3-1.4,2.2-3.2,2.9-5.3c0.6-2.1,1.5-2.3,2.7-0.6c0.1,0.2,0.3,0.3,0.4,0.5c1,1,1.6,0.9,1.8-0.6c0.2-1.1,0-2.1-0.5-3
	c-1.6-2.7-0.9-3.6,2.1-2.7c0.7,0.2,1.3,0.1,1.9-0.2c1.1-0.6,1.7-1.5,1.7-2.8v-2.3c0-1.1,0.5-1.9,1.6-2.3
	c13.6-4.8,25.8-13.6,36.6-26.4c1.5-1.8,3.7-2.9,6.2-3.1c4.9-0.3,8.9-2.3,12.1-5.9c1.5-1.7,3.3-3.1,5.3-4c9.1-4.2,16.8-9.6,23.1-16.1
	c3.8-4,8.4-5.5,13.6-6.7c2-0.4,3.7-1.3,5.1-2.6c5.4-5,11.7-8.9,19.1-11.6c6.4-2.5,8.3-8,14.1-10.6c8.6-3.9,20.3-11.7,35.2-23.2
	C3418.9,1796.6,3434.7,1791.8,3454.6,1791.2z"/>
<path class="st37" d="M1921.7,1794.9c0.8,115.1,0.7,228.5-0.1,340.4c-0.2,26.8-3.2,46.8-9.2,60c-14.5,31.9-41.5,49.9-81.2,54h-179.2
	l-4.2-1.1c-2.1-0.5-3.1-1.8-3.1-3.9l-0.1-51.8c4-3.8,7.2-8.4,9.6-13.9c4.4-10.1,6.6-15.1,6.7-15.2c46.5-86.3,97.4-166.8,152.8-241.5
	C1844.3,1880.7,1880.3,1838.4,1921.7,1794.9z"/>
<path class="st38" d="M2647.3,1814.7c2.9,0,5.3,0.4,7.2,1.3c5,7,11.7,13.1,16,20c69.7,112,158.7,209.8,266.9,293.5l0.1,119.9h-276.2
	c-1.2-112-0.7-224.1,1.4-336.1C2663.2,1884,2658,1851.2,2647.3,1814.7z"/>
<path class="st39" d="M1186.5,1811.9c52.3,36.2,98.3,77.4,137.9,123.5c30.9,36.1,57.6,75.7,79.9,118.9c-3.4-0.8-5.9-0.3-7.3,1.4
	c-1.3,1.7-1.5,3.5-0.6,5.4c4.7,9.5,6.7,19.9,5.9,31.4c-0.2,2.5-1.4,4.2-3.8,5.1c-3.4,1.3-4.7,3.8-4,7.3c0.4,2-0.1,3.6-1.6,5
	c-5.7,5-7.1,12.5-4.1,22.4c0.1,0.3,0,0.6-0.2,0.9c-0.4,0.4-0.8,0.9-1.1,1.3c-0.8,1.1-2.4,1.2-3.5,0.4c-0.5-0.4-0.9-1.1-0.9-1.7
	c-0.1-1.1-0.6-1.9-1.5-2.5c-1.5-1-2.8-0.7-3.8,0.9c-3.2,5.2-7.1,9.5-11.6,12.8c-1.5,1.1-2.2,2.6-1.8,4.5c1.6,8.5-1.7,13-9.8,13.6
	c-1.5,0.1-2.4,1-2.5,2.6c-0.2,4.1-1.9,7.5-5.2,10.2c-1.6,1.3-2.8,3-3.5,4.8l-6.4,15.9c-0.9,2.1-2.5,3.4-4.7,3.8
	c-6.5,1.2-10.6,5.1-12.1,11.7c-0.5,2.4-1.8,4.6-3.6,6.2c-3.1,2.6-6.1,5.3-9,7.9c-6.2,5.3-13.3,8.9-11.1,18.7c0.5,2.2,1.9,3.2,4.1,3
	c8.5-0.5,16.5,0.2,24.1,2.1H1275c-27.4-2.1-49.8-13.9-67.4-35.6c-22.5-27.7-20.9-49-21-89.8
	C1186.1,2022.6,1186.1,1918.5,1186.5,1811.9z"/>
<path class="st40" d="M2129.5,1825.9c18.6,30.7,43.9,53.6,75.6,68.7c24.1,11.4,48.9,16.3,74.2,14.6c16.4-1.1,44.5-10.1,58.6-19
	c13.3-8.4,27.4-17.3,42.2-26.6c-2.5,91.7-0.1,183.4-0.6,275.2c-0.1,23.1-2.3,40-6.6,50.7c-13.3,33.5-46.3,58.4-83.2,59.9h-186.9
	c-1.5-85.6-1.7-171.5-0.8-257.6C2102.6,1934.7,2108,1877.5,2129.5,1825.9z"/>
<path class="st41" d="M3497.9,1952.9l2.1,107v109.6v36.4v43.4h-188.8c-46.3-6.2-74.9-30.9-85.8-74c-4.2-16.7-3.3-35.4-3-53.2
	c1.1-0.8,2.1-2.3,2.9-4.6c0.7-1.9,1.3-1.9,1.6,0.1c0.8,3.9,0.9,7.7,0.6,11.6c1.5-0.4,2.1-1.3,1.7-2.8c-0.6-2.2,0-3.9,1.9-5
	c5.1-3.2,10.4-5.2,15.9-6c1.8-0.3,3.5-0.9,5-2.1l10.6-7.9c1.8-1.3,2.9-3.1,3.4-5.4c0.4-2.2,1.4-4.1,2.9-5.8c1.8-2,4-3,6.7-3.1
	c7.2-0.2,12.6-3,16.2-8.6c1.4-2.1,3.3-3.2,5.7-3.6c13.6-1.8,15.8-11.4,26.1-16.8c4.2-2.2,8.5-4.1,12.8-5.7c1.9-0.7,3.4-2,4.3-3.8
	c1.6-3.2,4.2-5.1,7.9-5.7c2.4-0.4,4.4-1.5,6.1-3.3c6.5-6.8,14.1-10.8,23-11.9c2.3-0.3,4.1-1.4,5.5-3.3c1.6-2.3,2.7-4.9,3.2-7.7
	c0.4-2.3,1.8-3.6,4.1-4c9-1.6,18-5,26.8-10.3c1.5-0.9,2.7-2.1,3.6-3.5c4.8-7.3,11.1-11.4,18.8-12.3c1.5-0.2,2.7-1,3.5-2.3
	c1.7-3.1,4.3-4.8,7.9-5c2-0.1,3.7-0.9,5-2.4c3.7-4.2,8-7.3,12.9-9.2c2.1-0.8,3.9-2.1,5.4-3.8
	C3480.8,1960.7,3488.6,1955.7,3497.9,1952.9z"/>
<path class="st42" d="M1404.3,2054.3c25.7,57.1,45.6,119.7,59.8,187.6c1-2.4,1.3-1.6,1,2.3c-0.1,1.5-1.1,2.7-2.4,3.2l-5.5,2h-132.4
	c-7.6-2-15.7-2.7-24.1-2.1c-2.2,0.2-3.6-0.8-4.1-3c-2.3-9.9,4.9-13.4,11.1-18.7c2.9-2.6,5.9-5.2,9-7.9c1.8-1.6,3.1-3.8,3.6-6.2
	c1.5-6.6,5.5-10.5,12.1-11.7c2.3-0.4,3.8-1.6,4.7-3.8l6.4-15.9c0.8-1.9,1.9-3.5,3.5-4.8c3.3-2.7,5-6.1,5.2-10.2
	c0.1-1.6,0.9-2.5,2.5-2.6c8.1-0.6,11.4-5.2,9.8-13.6c-0.3-1.9,0.3-3.4,1.8-4.5c4.6-3.3,8.4-7.6,11.6-12.8c1-1.6,2.3-1.9,3.8-0.9
	c0.9,0.6,1.4,1.4,1.5,2.5c0.1,1.4,1.3,2.4,2.7,2.3c0.7-0.1,1.3-0.4,1.7-0.9c0.4-0.5,0.8-0.9,1.1-1.3c0.2-0.3,0.3-0.5,0.2-0.9
	c-3-9.9-1.7-17.4,4.1-22.4c1.5-1.3,2.1-3,1.6-5c-0.7-3.5,0.6-5.9,4-7.3c2.3-0.9,3.6-2.6,3.8-5.1c0.8-11.5-1.2-21.9-5.9-31.4
	c-1-1.9-0.8-3.7,0.6-5.4C1398.4,2053.9,1400.8,2053.5,1404.3,2054.3z"/>
</svg>
