<?xml version="1.0" encoding="utf-8"?>
<!-- Generator: Adobe Illustrator 27.7.0, SVG Export Plug-In . SVG Version: 6.00 Build 0)  -->
<svg version="1.1" id="Layer_1" xmlns="http://www.w3.org/2000/svg" xmlns:xlink="http://www.w3.org/1999/xlink" x="0px" y="0px"
	 viewBox="0 0 3500 3500" style="enable-background:new 0 0 3500 3500;" xml:space="preserve">
<style type="text/css">
	.st0{fill:#C80F14;}
	.st1{fill:#034A8C;}
</style>
<path class="st0" d="M2377.4,209.5c-8.4,4.7-10.6,7-12.6,6.9c-70.2-2-136.3,19.8-203,36.3c-136.9,33.9-268.6,83-394.4,147
	c-131.9,67.2-252.5,150-352.8,260c-82.2,90.1-145.8,191.2-179.1,309.6c-24.7,87.8-31.6,177.5-26.2,268.3
	c5.7,95.1,26.4,187.2,55.8,277.6c14.3,44,42.7,77.2,78.7,104.1c32.5,24.4,65.9,47.8,100,70c37,24.1,51.1,59.4,53.8,101.1
	c2.5,38.8-5.5,75.8-21,111.1c-27.1,61.7-56,122.2-104.4,171.1c-24.8,25.1-54.4,38.6-89.3,41.4c-10.6,0.9-21.3,1.3-31.6,3.5
	c-25.6,5.5-43.9-3.9-60.1-23.8c-26.1-32.1-42.1-69.4-57.7-106.9c-36.1-86.5-90.3-159.9-160.7-221.1c-39-33.9-84.3-55.2-137.3-55.5
	c-33.2-0.2-37.2,4.3-43.4,36.1c-17.3,88.8,11.8,165.7,60.1,237.7c49.4,73.6,114.6,132,182.9,187.3c107.5,87,224.9,159.9,339.6,236.7
	c103,69,205.2,139,298.5,221c66.8,58.7,127.8,122.5,166.6,204.3c25.8,54.6,36.1,111.7,32.9,172.4c-2.6,48.3-8.7,94.8-31,138.5
	c-41.9,82.2-109.2,135.2-192.9,169.7c-53.4,22-109.1,34.8-165.9,45.1c-36,6.6-71.7,9.7-108,9.1c-4.3,0-8.6-1.1-17.9-2.4
	c7.7-5.5,11.7-9.4,16.4-11.5c38.8-17.2,78.5-32.5,116.3-51.7c28.2-14.3,55.4-31.6,80.4-51c99.1-76.7,102.6-183.9,46.1-284.5
	c-37.7-67.2-96.1-114.9-154.6-162.3c-101.2-82-211.5-151.2-318.4-225.1c-84.4-58.3-168.6-117.1-249.6-180
	c-94.6-73.5-180.4-156.7-243.9-260c-30.3-49.4-53.8-101.4-60.6-159.7c-0.3-2.6-0.2-5.6-1.4-7.8c-25.6-45.2-8.9-91.9-2.6-137.1
	c7.2-51.9,33.6-95.9,70.1-134.3c64.4-67.6,143.3-111.5,229.7-143.3c21.5-7.9,43.4-15,65.5-21.3c13.9-3.9,17.9-11.2,15.9-25.3
	c-6.7-45.5-13.1-91-18.3-136.7c-9.4-82.1-8.3-164,2.7-246.2c13-97.3,38.6-190.5,82.9-278c70.9-140.1,172-254.1,299.6-345.4
	c153.6-109.8,322.6-186,504-236.3c125.7-34.9,253.6-56.7,383.6-65.7c42.3-2.9,84.9-1.7,127.4-1.5c8.1,0,16.2,4.5,29.4,8.5
	L2377.4,209.5z"/>
<path class="st1" d="M1936.5,2163.9c10.4-5.2,21-8.9,29.7-15.2c76.5-55.6,142.3-120.6,170.1-214.2c39.9-134.1,13.4-255.7-77.4-362
	c-51.6-60.3-114.8-107.5-180.6-151.2c-78.8-52.4-158.6-103.4-235.9-158c-60.2-42.6-113.8-92.8-151.5-157.7
	c-39.6-68.2-62.6-141.2-54.8-220.4c7.5-76.5,31.3-148.8,69.3-215.8c58.2-102.7,137.4-183.8,246.7-232.6c10.2-4.5,20.9-7.7,31.4-11.5
	c1.1,1.7,2.3,3.4,3.4,5.1c-9.7,9.4-19.1,19.1-29.1,28.1c-47.2,42.6-85.6,91.7-111.8,150c-40.6,90.2-30.3,177.5,15.6,262.6
	c44.3,82.3,110.4,144.6,185.4,197.7c78,55.2,157.9,107.7,236.7,161.7c82.9,56.8,159.4,120.8,219,202.8
	c52.1,71.7,82.7,151.1,89.7,240.2c11.9,150.8-35.9,280.2-135.2,392.1c-90.3,101.8-204,168.1-329.4,216.8
	c-86.1,33.4-174.7,57.9-266.1,70.8c-89.6,12.7-179.6,18.1-269.8,5c-11-1.6-22.4-5.9-32.1-11.6c-113.3-65.7-225.4-133.5-327.5-216.1
	c-64.7-52.4-127.5-107.2-172.1-179.1c-28-45.1-46.7-93.2-46-147.3c0-8.3,1.6-16.6,2.5-24.9c2.1-0.8,4.2-1.6,6.4-2.4
	c7.6,8.9,16.3,17.1,22.6,26.9c23.6,36.3,44.5,74.6,69.9,109.6c90.4,124.5,205.2,219,348.7,276.9c56.9,23,115.9,40.3,177,44.6
	c66.3,4.6,128.4-13.1,181.1-55.5c64.1-51.5,96-181.6,4.8-253.8c-20.1-15.9-40-32.1-59.9-48.3c-68.3-55.9-64.8-157.4-10.5-215.9
	c81.6-87.8,183.5-116.1,299.3-98.5c64.4,9.8,121.7,36.2,167.2,84.9c82.6,88.6,103.3,239.2,40.7,343.1
	c-34.9,57.9-72.6,113.1-122.4,159.3c-2.5,2.3-4.4,5.4-6.4,8.2c-0.3,0.4,0.3,1.5,1.3,5.9L1936.5,2163.9z"/>
<path class="st1" d="M2401,244.5c-30.8,12.2-61.8,24.3-92.6,36.8c-74,30.1-145.7,64.7-207.7,116c-23.1,19.1-45.3,39.8-65.2,62.2
	c-53.5,60.3-54.8,157.8-4.7,229.4c34.3,49.1,75.8,91.4,124.8,125.5c93,64.6,187.2,127.4,280.4,191.7
	c88.3,60.9,172.8,126.5,245.9,205.7c66.8,72.4,120.4,152.9,150.9,247.2c31,96,38.6,194.2,19.2,293.3
	c-40.6,207.7-162.1,359.7-333.7,475.4c-99.6,67.2-208.8,115.2-323.1,151.8C2037,2430,1874.8,2453,1709,2450
	c-81.5-1.5-162.5-8.6-241.8-29.1c-14.1-3.7-27.8-9.3-41.6-14c0.3-2.4,0.6-4.9,0.8-7.3c10.9,0,21.7-0.3,32.6,0
	c82.5,2.2,164.6-2.5,246.2-13.8c200.4-27.7,390.1-86.5,559.7-200.4c92.9-62.4,172.9-138.1,226.7-237.8
	c50.8-94.2,67.3-193.8,50.5-300.4c-21.5-136.6-95.4-241.6-192.2-333.9c-94-89.6-203.1-159.3-309.1-233.1
	c-78.4-54.6-156.9-109.3-223.1-179.2c-45.7-48.2-80.4-102.6-100.2-166.7c-20.2-65.7-9.7-127.6,18.8-188c33-69.8,88.4-118.5,152-159
	c90.5-57.7,189.3-95.5,293.9-117.6c58.7-12.4,118.2-21.2,177.3-31.9c7.6-1.4,14.8-5,22.4-7.2C2392,227.7,2399.1,230,2401,244.5
	L2401,244.5z"/>
<path class="st1" d="M539.7,1964.3c-6.1-15.7-12.6-29.7-16.9-44.3c-13.7-46.6-28.8-92.9-39.3-140.2
	c-16.3-73.8-18.4-149.2-14.6-224.5c4.5-89.5,19.5-177.4,44.3-263.6c42-145.8,106.9-280.5,191.8-406
	c163.4-241.4,379.2-420.3,643.7-541.2c126.2-57.7,258-96.5,395.1-118.1c58.6-9.3,116.9-19.8,176.5-18.8c7.1,0.1,14.2,0.4,21.2,1
	c2.4,0.2,4.8,1.8,11.9,4.5c-16.5,9.4-31.5,12-46.3,14.5c-204.9,34.7-396.7,104.2-568.8,222C1128.4,593.3,984.7,788.3,900,1027.5
	c-55.2,156.1-79.7,317.1-74,482.5c0.9,26.1-7.5,39.6-31.1,50.6c-59.8,27.9-113.4,65.2-157.5,115.2c-49.1,55.8-76.9,120.2-79.7,194.8
	c-0.8,21.2-0.3,42.5-0.1,63.7c0.1,10.9,0.3,21.5-18,30L539.7,1964.3z"/>
<path d="M623.6,2174.1c-17.6-9.5-35.6-18.3-52.7-28.6c-157.6-94-294.4-210.9-399.8-362.4c-71-102.1-121.7-213-147-335.2
	c-4.8-23.1-14.1-45.2-20.5-67.9c-2.1-7.5-2.7-15.7-2.7-23.6c-0.2-49.6-2.1-99.2,0.7-148.6c1.5-25.7,11.9-50.9,17.6-76.4
	c35.1-156.6,112.5-291.3,215.7-411.8C397.1,530.4,600,398,827.3,300.4c100.2-43,203.8-75.8,309.4-101.7
	c112.6-27.6,226.9-44.8,342.3-57.7c114.9-12.9,229.7-9.2,344.6-6.8c62.8,1.4,125.5,5,188.2,9.4c25.7,1.8,51,8.4,76.2,16.2
	c-29.6,6.3-59,3.2-88.5,3c-100.8-0.7-201.6-1.7-302.3,0.2c-52.9,1-106,5.8-158.6,12.5c-78.9,10.1-157.9,20.6-235.8,36
	c-127.8,25.2-252.1,63-372.1,113.9c-228.4,96.9-432.9,228.9-599.2,415.3c-83.6,93.7-153.7,196.8-200.3,313.9
	c-39.2,98.5-50.5,201.3-41.8,307.3c15.3,185.4,95.7,342,209.3,484.3c89.9,112.6,196.1,208.7,306.6,300.3c8,6.6,15.3,14.2,22.9,21.3
	C626.7,2169.9,625.2,2172,623.6,2174.1z"/>
<path d="M2486.8,239.1c16.4,4.2,33.2,7.3,49.2,12.7c211,72.1,406.7,172.5,578.2,316.7c130.6,109.9,242.9,234.7,312.4,393.3
	c28.1,64.2,48.1,130.8,61.5,199.7c15.3,78.3,14.8,157.8,5,235.2c-17.3,137-70.9,261.9-150,375.7
	c-111.7,160.7-257.5,283.1-424.9,381.6c-138.5,81.5-285,144.9-438.9,190.2c-83.6,24.6-169.8,40.6-254.8,60.4c-2.4,0.6-5.1-0.2-9-0.3
	c-1-13.5,8.7-15.2,17.7-18.2c62.8-21,126.2-40.4,188.2-63.6c184.4-68.9,361.5-152.7,522.6-267.2c124.2-88.2,235.3-190.3,321.9-316.5
	c73.2-106.7,117.6-224.8,134.7-353.6c28-210-31-397.3-147.2-569.5c-92.9-137.6-214.6-246.1-350.3-340
	c-116.1-80.4-240.3-145.8-368.7-203.8c-16.8-7.6-32.9-16.5-49.4-24.8C2485.6,244.5,2486.2,241.8,2486.8,239.1L2486.8,239.1z"/>
</svg>
