<?xml version="1.0" encoding="utf-8"?>
<!-- Generator: Adobe Illustrator 28.0.0, SVG Export Plug-In . SVG Version: 6.00 Build 0)  -->
<svg version="1.0" id="Layer_1" xmlns="http://www.w3.org/2000/svg" xmlns:xlink="http://www.w3.org/1999/xlink" x="0px" y="0px"
	 viewBox="0 0 3500 3500" style="enable-background:new 0 0 3500 3500;" xml:space="preserve">
<style type="text/css">
	.st0{fill:#247DB1;}
	.st1{fill:#FFFFFF;}
	.st2{fill:url(#SVGID_1_);}
</style>
<g>
	<path class="st0" d="M3242.81,2360.19H257.19C115.15,2360.19,0,2245.04,0,2103v-706c0-142.04,115.15-257.19,257.19-257.19h2985.63
		c142.04,0,257.19,115.15,257.19,257.19v706C3500,2245.04,3384.85,2360.19,3242.81,2360.19z"/>
	<path class="st1" d="M2013.96,2056.46c-213.14,0-425.99,0-644.03,0c0,27.18,0.2,50.38-0.06,73.59
		c-0.25,22.64-0.45,45.31-1.59,67.92c-1.93,38.06-23.16,63.52-59.06,69.83c-36.5,6.42-74.36,5.12-115.88,7.44
		c0-75.13,0-144.33,0-215.82c-14.87-1.18-25.86-2.66-36.87-2.8c-32.09-0.42-64.26,1.16-96.25-0.68
		c-89.17-5.12-156.25-56.74-180.53-142.63c-28.06-99.25-26.16-195.27,37.06-284.04c30.24-42.46,71-66.46,119.74-72.64
		c67.35-8.54,135.22-8.33,202.94,4.1c74.02,13.58,110.21,62.41,123.43,130.09c7.7,39.4,6.57,80.65,8.09,121.11
		c1.16,30.94,0.23,61.96,0.23,96.41c44.87,0,86.29,0,128.99,0c1.28-9.92,3.07-17.26,3.03-24.6c-0.47-81.18,1.82-162.54-2.73-243.5
		c-4.94-87.76-48.7-153.08-134.16-181.12c-40.55-13.31-84.75-15.86-127.5-21.9c-15.46-2.19-31.48-0.35-49.7-0.35
		c0-52.98,0-101.19,0-151.34c13.08-0.74,23.29-1.81,33.5-1.81c143.49,0.07,286.99-0.02,430.48,0.84
		c18.58,0.11,37.86,2.99,55.52,8.63c33.74,10.78,53.34,34.9,54.78,71.21c0.89,22.39,0.16,44.84,0.16,72.36
		c-60.69,0-117.39,0-178.89,0c4.81,8.98,5.62,13.07,8.08,14.71c52.29,34.91,65.05,89.37,67.11,145.94
		c3.33,91.46,2.17,183.08,3.04,274.63c0.11,11.15,1,22.3,1.67,36.35c63.44,0,124.91,0,189.06,0c0.98-13.66,2.56-25.57,2.59-37.48
		c0.37-137.84,0.5-275.68,0.69-413.52c0.03-24.55-0.24-49.1,0.12-73.64c1.13-76.88,24.37-99.96,100.48-100.17
		c18.73-0.05,37.46-0.01,54.87-0.01C2023.17,1307.54,2025.11,2020.56,2013.96,2056.46z M1190.23,1908.05
		c0-58.06,5.86-104.26-1.55-153.64c-8.66-57.75-94.7-85-141.41-48.84c-8.36,6.48-26.33,22.87-26.32,44.43
		c0.02,35.58,0.35,53.72,0.84,89.24c0.52,37.37,25.05,59.54,59.56,65.5C1116.17,1910.76,1152.07,1905.35,1190.23,1908.05z"/>
	<path class="st1" d="M464.67,2060c0,39.56-1.88,75.36,0.39,110.9c4.72,73.98-27.8,97.51-100.02,101.8
		c-26.91,1.6-54,0.26-81.34,0.26c0-242.69,0-479.71,0-719.37c61.19,0,117.97,0,179.57,0c0,117.88,0,233.4,0,351.36
		c42.69,6.02,80.66,11.13,116.93-7.89c33.58-17.6,46.81-46.61,46.28-84.12c-1.01-71.73-0.7-143.47-0.65-215.21
		c0.01-12.04,1.5-24.07,2.5-38.98c47.55,0,93.11,0,141.85,0c1.04,9.93,2.84,19.85,2.99,29.79c1.12,72.67,0.89,145.38,3.16,218.02
		c1.66,53.23-7.5,104.68-31.83,150.8c-34.64,65.67-95.96,93.32-167.6,99.13c-25.31,2.05-50.94-0.01-76.42,0.34
		C490.37,2056.98,480.28,2058.56,464.67,2060z"/>
	<path class="st1" d="M2143.94,2066.19c-0.8-18.22-1.78-30.29-1.79-42.37c-0.09-208.47-0.17-416.94,0.12-625.41
		c0.02-16.87,1.49-33.96,4.43-50.57c9.46-53.5,24.18-67.24,77.92-71.65c21.18-1.74,42.63-0.28,66.33-0.28
		c0.9,14.92,2.14,25.93,2.15,36.94c0.12,219.79,0.17,439.58,0.07,659.37c-0.02,56.94-30.15,89.63-87.06,93.75
		C2186.71,2067.38,2167.13,2066.19,2143.94,2066.19z"/>
	<path class="st1" d="M294,1392.13c30.73-30.41,64.49-63.83,102.29-101.24c25.52,26.42,55.14,53.55,79.62,84.71
		c6.79,8.65,3.85,33.7-4.12,43.53c-22.88,28.22-50.63,52.5-76.06,77.93C360.85,1461.08,327.28,1426.46,294,1392.13z"/>
	<path class="st1" d="M865.75,1393.61c32.84-32.84,66.47-66.46,103.91-103.9c26.25,26.97,55.4,53.32,79.39,83.75
		c7.14,9.06,5.76,34.39-1.99,43.87c-23.52,28.75-52.07,53.39-78.4,79.38C933.45,1461.43,899.37,1427.29,865.75,1393.61z"/>
	<path class="st1" d="M679.3,1292.5c25.51,24.92,53.54,49.9,78.47,77.67c12.73,14.17,12.72,34.63-0.75,49.37
		c-24.6,26.91-51.29,51.91-75.05,75.66c-35.54-35.6-69.58-69.69-102.8-102.98C610.05,1361.46,644.26,1327.4,679.3,1292.5z"/>
	<radialGradient id="SVGID_1_" cx="2898.9678" cy="1791.8602" r="496.3046" gradientUnits="userSpaceOnUse">
		<stop  offset="0" style="stop-color:#FFE502"/>
		<stop  offset="0.2895" style="stop-color:#FCD009"/>
		<stop  offset="0.885" style="stop-color:#F39A1C"/>
		<stop  offset="1" style="stop-color:#F18F20"/>
	</radialGradient>
	<path class="st2" d="M2929.96,1277.33c129.52,126.54,271.83,253.37,398.41,394.33c64.61,71.95,64.56,175.82-3.81,250.63
		c-124.88,136.64-260.39,263.55-381.05,384.11c-180.46-180.77-353.25-353.85-521.93-522.82
		C2578.39,1627.43,2752.04,1454.5,2929.96,1277.33z"/>
</g>
</svg>
