<svg xmlns="http://www.w3.org/2000/svg" xmlns:xlink="http://www.w3.org/1999/xlink" width="312" zoomAndPan="magnify" viewBox="0 0 234 233.999995" height="312" preserveAspectRatio="xMidYMid meet" version="1.0"><defs><clipPath id="e833644bc1"><path d="M 18 83.027344 L 42 83.027344 L 42 102 L 18 102 Z M 18 83.027344 " clip-rule="nonzero"/></clipPath><clipPath id="81bcb95611"><path d="M 38 129 L 61 129 L 61 151.277344 L 38 151.277344 Z M 38 129 " clip-rule="nonzero"/></clipPath><clipPath id="308f855a30"><path d="M 15 133 L 40 133 L 40 151.277344 L 15 151.277344 Z M 15 133 " clip-rule="nonzero"/></clipPath></defs><path stroke-linecap="butt" transform="matrix(0.749659, 0, 0, 0.753363, -55.736514, 83.025676)" fill="none" stroke-linejoin="miter" d="M 157.298427 61.787652 L 149.810643 53.641888 " stroke="#b3d5d7" stroke-width="2" stroke-opacity="1" stroke-miterlimit="4"/><g clip-path="url(#e833644bc1)"><path stroke-linecap="butt" transform="matrix(0.749659, 0, 0, 0.753363, -55.736514, 83.025676)" fill="none" stroke-linejoin="miter" d="M 118.494302 13.327874 L 110.917936 4.300646 " stroke="#b3d5d7" stroke-width="2" stroke-opacity="1" stroke-miterlimit="4"/></g><g clip-path="url(#81bcb95611)"><path stroke-linecap="butt" transform="matrix(0.749659, 0, 0, 0.753363, -55.736514, 83.025676)" fill="none" stroke-linejoin="miter" d="M 143.234733 80.505798 L 137.325792 72.971874 " stroke="#87b2bd" stroke-width="2" stroke-opacity="1" stroke-miterlimit="4"/></g><path stroke-linecap="butt" transform="matrix(0.749659, 0, 0, 0.753363, -55.736514, 83.025676)" fill="none" stroke-linejoin="miter" d="M 92.737783 24.429135 L 86.29214 17.310017 " stroke="#87b2bd" stroke-width="2" stroke-opacity="1" stroke-miterlimit="4"/><path stroke-linecap="butt" transform="matrix(0.749659, 0, 0, 0.753363, -55.736514, 83.025676)" fill="none" stroke-linejoin="miter" d="M 84.624714 51.085642 C 80.841742 46.844245 78.382289 44.008005 75.146441 40.782884 " stroke="#6497a9" stroke-width="2" stroke-opacity="1" stroke-miterlimit="4"/><g clip-path="url(#308f855a30)"><path stroke-linecap="butt" transform="matrix(0.749659, 0, 0, 0.753363, -55.736514, 83.025676)" fill="none" stroke-linejoin="miter" d="M 106.666 77.819926 C 107.650823 79.282119 108.599171 80.562834 109.516256 81.667256 C 111.694331 84.290908 113.653556 86.774562 115.388721 89.123405 " stroke="#6497a9" stroke-width="2" stroke-opacity="1" stroke-miterlimit="4"/></g><path fill="#cbe8e4" d="M 62.183594 129.574219 L 56.570312 123.4375 C 57.582031 118.707031 57.261719 114.046875 55.601562 109.457031 C 55.570312 109.375 55.527344 109.308594 55.464844 109.25 C 51.945312 105.960938 46.886719 105.34375 42.664062 107.710938 C 42.644531 107.722656 42.625 107.71875 42.609375 107.703125 C 42.59375 107.6875 42.589844 107.667969 42.601562 107.648438 C 44.898438 103.496094 44.421875 98.300781 41.121094 94.816406 C 41.039062 94.730469 40.941406 94.667969 40.832031 94.628906 C 38.320312 93.714844 35.742188 93.195312 33.09375 93.066406 L 27.414062 86.265625 C 30.660156 85.761719 33.902344 85.757812 37.144531 86.253906 C 40.390625 86.753906 43.484375 87.730469 46.429688 89.183594 C 49.183594 90.542969 51.691406 92.269531 53.953125 94.355469 C 56.214844 96.441406 58.136719 98.804688 59.71875 101.445312 C 62.402344 105.917969 63.910156 110.761719 64.246094 115.972656 C 64.546875 120.65625 63.859375 125.191406 62.183594 129.574219 Z M 62.183594 129.574219 " fill-opacity="1" fill-rule="nonzero"/><path fill="#9bc2c9" d="M 27.414062 86.265625 L 33.09375 93.066406 C 25.390625 93.007812 18.953125 95.792969 13.785156 101.429688 L 8.953125 96.066406 C 11.398438 93.441406 14.203125 91.289062 17.367188 89.609375 C 20.53125 87.929688 23.878906 86.816406 27.414062 86.265625 Z M 27.414062 86.265625 " fill-opacity="1" fill-rule="nonzero"/><path fill="#72a2b1" d="M 8.953125 96.066406 L 13.785156 101.429688 C 8.914062 106.976562 6.734375 114.128906 7.703125 121.511719 C 4.867188 118.316406 3.023438 116.179688 0.597656 113.75 C 1.042969 110.4375 1.976562 107.273438 3.402344 104.253906 C 4.832031 101.234375 6.679688 98.507812 8.953125 96.066406 Z M 8.953125 96.066406 " fill-opacity="1" fill-rule="nonzero"/><path fill="#507281" d="M 204.148438 131.902344 C 204.160156 131.960938 204.140625 131.988281 204.078125 131.984375 C 203.835938 131.976562 202.703125 131.980469 200.691406 132.003906 C 199.128906 132.019531 198.007812 131.933594 197.324219 131.742188 C 194.777344 131.03125 192.933594 129.101562 192.171875 126.546875 C 191.988281 125.925781 191.902344 124.988281 191.910156 123.722656 C 191.925781 121.886719 191.929688 115.707031 191.917969 105.179688 C 191.917969 105.117188 191.945312 105.078125 192.007812 105.0625 L 197.171875 103.765625 C 197.246094 103.746094 197.285156 103.777344 197.285156 103.855469 L 197.285156 112.183594 C 197.285156 112.230469 197.308594 112.257812 197.359375 112.257812 L 200.3125 112.257812 C 200.386719 112.257812 200.429688 112.292969 200.445312 112.363281 L 201.757812 117.625 C 201.769531 117.679688 201.75 117.707031 201.695312 117.707031 L 197.355469 117.707031 C 197.308594 117.707031 197.285156 117.730469 197.285156 117.78125 C 197.277344 121.425781 197.28125 123.660156 197.292969 124.476562 C 197.308594 125.4375 197.78125 126.109375 198.707031 126.5 C 198.777344 126.527344 198.851562 126.542969 198.925781 126.542969 L 202.691406 126.542969 C 202.773438 126.542969 202.824219 126.582031 202.84375 126.664062 Z M 204.148438 131.902344 " fill-opacity="1" fill-rule="nonzero"/><path fill="#507281" d="M 98.378906 130.832031 C 97.355469 131.429688 96.523438 131.824219 95.878906 132.015625 C 92.273438 133.097656 88.96875 132.65625 85.964844 130.695312 C 81.992188 128.09375 80.046875 123.367188 80.972656 118.699219 C 81.890625 114.070312 85.578125 110.40625 90.28125 109.59375 C 93.128906 109.097656 95.824219 109.625 98.371094 111.175781 C 98.402344 111.195312 98.433594 111.195312 98.464844 111.179688 C 98.496094 111.160156 98.511719 111.132812 98.511719 111.097656 L 98.511719 110.109375 C 98.511719 110.023438 98.554688 109.980469 98.640625 109.980469 L 103.859375 109.980469 C 103.90625 109.980469 103.929688 110.003906 103.929688 110.050781 L 103.929688 132.296875 C 103.929688 132.351562 103.902344 132.375 103.847656 132.375 L 98.644531 132.375 C 98.554688 132.375 98.507812 132.332031 98.507812 132.242188 L 98.507812 130.90625 C 98.507812 130.875 98.496094 130.847656 98.464844 130.832031 C 98.4375 130.8125 98.410156 130.8125 98.378906 130.832031 Z M 98.441406 121.003906 C 98.441406 120.597656 98.402344 120.195312 98.320312 119.796875 C 98.242188 119.398438 98.125 119.011719 97.972656 118.632812 C 97.816406 118.257812 97.625 117.902344 97.402344 117.5625 C 97.175781 117.226562 96.921875 116.914062 96.632812 116.625 C 96.347656 116.335938 96.035156 116.078125 95.699219 115.855469 C 95.363281 115.628906 95.007812 115.4375 94.632812 115.28125 C 94.261719 115.125 93.875 115.007812 93.476562 114.929688 C 93.082031 114.847656 92.679688 114.808594 92.273438 114.808594 C 91.871094 114.808594 91.46875 114.847656 91.070312 114.929688 C 90.675781 115.007812 90.289062 115.125 89.914062 115.28125 C 89.542969 115.4375 89.1875 115.628906 88.847656 115.855469 C 88.511719 116.078125 88.203125 116.335938 87.914062 116.625 C 87.628906 116.914062 87.375 117.226562 87.148438 117.5625 C 86.921875 117.902344 86.734375 118.257812 86.578125 118.632812 C 86.421875 119.011719 86.308594 119.398438 86.226562 119.796875 C 86.148438 120.195312 86.109375 120.597656 86.109375 121.003906 C 86.109375 121.414062 86.148438 121.816406 86.226562 122.214844 C 86.308594 122.613281 86.421875 123 86.578125 123.375 C 86.734375 123.753906 86.921875 124.109375 87.148438 124.449219 C 87.375 124.785156 87.628906 125.097656 87.914062 125.386719 C 88.203125 125.675781 88.511719 125.929688 88.847656 126.15625 C 89.1875 126.382812 89.542969 126.574219 89.914062 126.730469 C 90.289062 126.886719 90.675781 127.003906 91.070312 127.082031 C 91.46875 127.160156 91.871094 127.203125 92.273438 127.203125 C 92.679688 127.203125 93.082031 127.160156 93.476562 127.082031 C 93.875 127.003906 94.261719 126.886719 94.632812 126.730469 C 95.007812 126.574219 95.363281 126.382812 95.699219 126.15625 C 96.035156 125.929688 96.347656 125.675781 96.632812 125.386719 C 96.921875 125.097656 97.175781 124.785156 97.402344 124.449219 C 97.625 124.109375 97.816406 123.753906 97.972656 123.375 C 98.125 123 98.242188 122.613281 98.320312 122.214844 C 98.402344 121.816406 98.441406 121.414062 98.441406 121.003906 Z M 98.441406 121.003906 " fill-opacity="1" fill-rule="nonzero"/><path fill="#507281" d="M 151.214844 130.910156 C 151.214844 130.875 151.199219 130.851562 151.171875 130.832031 C 151.140625 130.816406 151.113281 130.816406 151.085938 130.835938 C 150.0625 131.429688 149.230469 131.828125 148.585938 132.019531 C 144.976562 133.097656 141.671875 132.660156 138.667969 130.695312 C 134.695312 128.09375 132.753906 123.367188 133.679688 118.699219 C 134.597656 114.070312 138.285156 110.40625 142.988281 109.59375 C 145.832031 109.097656 148.53125 109.628906 151.074219 111.179688 C 151.105469 111.199219 151.136719 111.199219 151.167969 111.179688 C 151.199219 111.164062 151.214844 111.136719 151.214844 111.097656 L 151.214844 110.109375 C 151.214844 110.023438 151.257812 109.980469 151.34375 109.980469 L 156.566406 109.984375 C 156.613281 109.984375 156.636719 110.007812 156.636719 110.054688 L 156.632812 132.300781 C 156.632812 132.351562 156.609375 132.378906 156.554688 132.378906 L 151.347656 132.378906 C 151.257812 132.378906 151.214844 132.335938 151.214844 132.246094 Z M 151.144531 121.003906 C 151.144531 120.597656 151.105469 120.195312 151.027344 119.796875 C 150.949219 119.398438 150.832031 119.011719 150.675781 118.632812 C 150.519531 118.257812 150.332031 117.902344 150.105469 117.5625 C 149.882812 117.226562 149.625 116.914062 149.339844 116.625 C 149.054688 116.335938 148.742188 116.078125 148.40625 115.855469 C 148.070312 115.628906 147.714844 115.4375 147.339844 115.28125 C 146.964844 115.125 146.582031 115.007812 146.183594 114.929688 C 145.785156 114.847656 145.386719 114.808594 144.980469 114.808594 C 144.574219 114.808594 144.175781 114.847656 143.777344 114.929688 C 143.378906 115.007812 142.996094 115.125 142.621094 115.28125 C 142.246094 115.4375 141.890625 115.628906 141.554688 115.855469 C 141.21875 116.078125 140.90625 116.335938 140.621094 116.625 C 140.335938 116.914062 140.078125 117.226562 139.855469 117.5625 C 139.628906 117.902344 139.4375 118.257812 139.285156 118.632812 C 139.128906 119.011719 139.011719 119.398438 138.933594 119.796875 C 138.855469 120.195312 138.816406 120.597656 138.816406 121.003906 C 138.816406 121.414062 138.855469 121.816406 138.933594 122.214844 C 139.011719 122.613281 139.128906 123 139.285156 123.375 C 139.4375 123.753906 139.628906 124.109375 139.855469 124.449219 C 140.078125 124.785156 140.335938 125.097656 140.621094 125.386719 C 140.90625 125.675781 141.21875 125.929688 141.554688 126.15625 C 141.890625 126.382812 142.246094 126.574219 142.621094 126.730469 C 142.996094 126.886719 143.378906 127.003906 143.777344 127.082031 C 144.175781 127.160156 144.574219 127.203125 144.980469 127.203125 C 145.386719 127.203125 145.785156 127.160156 146.183594 127.082031 C 146.582031 127.003906 146.964844 126.886719 147.339844 126.730469 C 147.714844 126.574219 148.070312 126.382812 148.40625 126.15625 C 148.742188 125.929688 149.054688 125.675781 149.339844 125.386719 C 149.625 125.097656 149.882812 124.785156 150.105469 124.449219 C 150.332031 124.109375 150.519531 123.753906 150.675781 123.375 C 150.832031 123 150.949219 122.613281 151.027344 122.214844 C 151.105469 121.816406 151.144531 121.414062 151.144531 121.003906 Z M 151.144531 121.003906 " fill-opacity="1" fill-rule="nonzero"/><path fill="#507281" d="M 215.78125 125.441406 C 215.804688 125.441406 215.816406 125.4375 215.824219 125.425781 C 218.328125 120.015625 220.75 114.761719 223.09375 109.660156 C 223.117188 109.613281 223.148438 109.59375 223.199219 109.59375 L 228.941406 109.59375 C 228.972656 109.589844 228.996094 109.605469 229.015625 109.632812 C 229.035156 109.660156 229.035156 109.6875 229.023438 109.714844 L 218.769531 131.917969 C 218.75 131.957031 218.71875 131.980469 218.675781 131.980469 C 218.453125 131.988281 217.488281 131.988281 215.78125 131.988281 C 214.074219 131.988281 213.109375 131.988281 212.886719 131.980469 C 212.84375 131.980469 212.8125 131.957031 212.796875 131.917969 L 202.542969 109.714844 C 202.527344 109.6875 202.53125 109.660156 202.546875 109.632812 C 202.566406 109.605469 202.589844 109.589844 202.625 109.59375 L 208.363281 109.59375 C 208.414062 109.59375 208.449219 109.613281 208.46875 109.660156 C 210.8125 114.761719 213.234375 120.015625 215.738281 125.425781 C 215.746094 125.4375 215.757812 125.441406 215.78125 125.441406 Z M 215.78125 125.441406 " fill-opacity="1" fill-rule="nonzero"/><path fill="#507281" d="M 133.585938 109.8125 C 133.660156 109.816406 133.679688 109.847656 133.652344 109.914062 C 127.683594 122.804688 123.984375 130.824219 122.558594 133.972656 C 121.789062 135.671875 121.140625 136.839844 120.613281 137.472656 C 118.578125 139.925781 115.777344 141.179688 112.5625 141.167969 C 111.414062 141.164062 110.714844 141.15625 110.460938 141.144531 C 110.367188 141.140625 110.332031 141.09375 110.355469 141.003906 L 111.628906 135.894531 C 111.648438 135.808594 111.703125 135.765625 111.789062 135.765625 C 112.582031 135.769531 113.234375 135.820312 113.90625 135.664062 C 115.714844 135.246094 116.75 133.988281 117.363281 132.253906 C 117.386719 132.183594 117.386719 132.117188 117.355469 132.046875 L 107.140625 109.929688 C 107.128906 109.902344 107.128906 109.875 107.148438 109.851562 C 107.164062 109.828125 107.1875 109.8125 107.214844 109.8125 L 112.871094 109.8125 C 112.976562 109.8125 113.054688 109.863281 113.101562 109.964844 L 120.324219 125.601562 C 120.335938 125.632812 120.359375 125.644531 120.390625 125.644531 C 120.421875 125.644531 120.441406 125.632812 120.457031 125.601562 L 127.691406 109.933594 C 127.730469 109.855469 127.789062 109.8125 127.878906 109.8125 Z M 133.585938 109.8125 " fill-opacity="1" fill-rule="nonzero"/><path fill="#507281" d="M 178.257812 126.894531 L 178.257812 132.140625 C 178.257812 132.1875 178.234375 132.210938 178.183594 132.210938 L 159.859375 132.210938 C 159.8125 132.210938 159.785156 132.1875 159.785156 132.140625 L 159.785156 128.554688 C 159.785156 128.539062 159.792969 128.523438 159.800781 128.507812 L 170.371094 115.382812 C 170.390625 115.355469 170.394531 115.332031 170.378906 115.300781 C 170.367188 115.273438 170.34375 115.261719 170.3125 115.261719 L 160.800781 115.261719 C 160.75 115.261719 160.726562 115.238281 160.726562 115.1875 L 160.726562 109.902344 C 160.726562 109.851562 160.75 109.828125 160.800781 109.828125 L 178.683594 109.828125 C 178.730469 109.828125 178.757812 109.851562 178.757812 109.902344 L 178.757812 113.527344 C 178.757812 113.542969 178.75 113.558594 178.742188 113.574219 L 168.171875 126.703125 C 168.152344 126.726562 168.148438 126.75 168.160156 126.78125 C 168.175781 126.808594 168.195312 126.820312 168.226562 126.820312 L 178.183594 126.820312 C 178.234375 126.820312 178.257812 126.847656 178.257812 126.894531 Z M 178.257812 126.894531 " fill-opacity="1" fill-rule="nonzero"/><path fill="#568ca1" d="M 7.703125 121.511719 C 9.070312 130.859375 15.375 138.5 24.226562 141.652344 C 24.964844 142.753906 25.675781 143.71875 26.363281 144.550781 C 27.996094 146.527344 29.464844 148.398438 30.765625 150.167969 C 26.164062 149.941406 21.808594 148.773438 17.707031 146.660156 C 15.226562 145.378906 12.953125 143.804688 10.882812 141.925781 C 8.8125 140.050781 7.015625 137.9375 5.496094 135.589844 C 4.457031 133.992188 3.570312 132.308594 2.828125 130.550781 C 2.089844 128.789062 1.511719 126.976562 1.09375 125.113281 C 0.675781 123.25 0.425781 121.363281 0.34375 119.453125 C 0.257812 117.546875 0.34375 115.644531 0.597656 113.75 C 3.023438 116.179688 4.867188 118.316406 7.703125 121.511719 Z M 7.703125 121.511719 " fill-opacity="1" fill-rule="nonzero"/><path fill="#9bc2c9" d="M 56.570312 123.4375 L 62.183594 129.574219 C 61.113281 132.375 59.683594 134.96875 57.894531 137.367188 C 56.101562 139.761719 54.015625 141.863281 51.640625 143.675781 L 47.210938 138 C 52.058594 134.261719 55.179688 129.40625 56.570312 123.4375 Z M 56.570312 123.4375 " fill-opacity="1" fill-rule="nonzero"/><path fill="#72a2b1" d="M 47.210938 138 L 51.640625 143.675781 C 49.332031 145.429688 46.835938 146.847656 44.144531 147.921875 C 41.457031 149 38.671875 149.695312 35.796875 150.011719 C 34.121094 150.195312 32.445312 150.246094 30.765625 150.167969 C 29.464844 148.398438 27.996094 146.527344 26.363281 144.550781 C 25.675781 143.71875 24.964844 142.753906 24.226562 141.652344 C 32.078125 144.332031 40.585938 142.980469 47.210938 138 Z M 47.210938 138 " fill-opacity="1" fill-rule="nonzero"/></svg>