<svg xmlns="http://www.w3.org/2000/svg" xmlns:xlink="http://www.w3.org/1999/xlink" width="312" zoomAndPan="magnify" viewBox="0 0 234 233.999995" height="312" preserveAspectRatio="xMidYMid meet" version="1.0"><path stroke-linecap="butt" transform="matrix(0.750059, 0, 0, 0.751371, -32.183938, 65.71471)" fill="none" stroke-linejoin="miter" d="M 207.588371 51.915688 L 210.671463 54.400728 " stroke="#9ba2a9" stroke-width="2" stroke-opacity="1" stroke-miterlimit="4"/><path stroke-linecap="butt" transform="matrix(0.750059, 0, 0, 0.751371, -32.183938, 65.71471)" fill="none" stroke-linejoin="miter" d="M 212.311959 55.67964 C 212.43695 55.99157 212.723386 56.142336 213.155643 56.131939 " stroke="#9ba2a9" stroke-width="2" stroke-opacity="1" stroke-miterlimit="4"/><path stroke-linecap="butt" transform="matrix(0.750059, 0, 0, 0.751371, -32.183938, 65.71471)" fill="none" stroke-linejoin="miter" d="M 215.092992 57.23409 C 215.520042 58.616979 216.374141 59.396803 217.681331 59.583961 C 218.264618 59.661944 218.702084 60.155832 218.702084 60.7433 L 218.702084 61.076025 C 218.702084 61.549119 218.228163 61.887043 217.780281 61.725879 C 215.702319 60.992844 213.81705 61.439943 212.124474 63.093171 " stroke="#9ba2a9" stroke-width="2" stroke-opacity="1" stroke-miterlimit="4"/><path stroke-linecap="butt" transform="matrix(0.750059, 0, 0, 0.751371, -32.183938, 65.71471)" fill="none" stroke-linejoin="miter" d="M 212.124474 63.093171 C 211.254751 63.228341 210.483978 63.176352 209.801739 62.932007 C 209.437185 62.807235 209.228867 62.43292 209.291363 62.058604 L 209.7757 59.074476 " stroke="#c4c6cd" stroke-width="2" stroke-opacity="1" stroke-miterlimit="4"/><path stroke-linecap="butt" transform="matrix(0.750059, 0, 0, 0.751371, -32.183938, 65.71471)" fill="none" stroke-linejoin="miter" d="M 209.7757 59.074476 C 209.812155 59.038084 209.848611 59.01209 209.885066 59.001692 C 209.90069 59.001692 209.90069 59.001692 209.885066 59.001692 C 209.848611 59.01209 209.812155 59.038084 209.7757 59.074476 " stroke="#e7e6e9" stroke-width="2" stroke-opacity="1" stroke-miterlimit="4"/><path stroke-linecap="butt" transform="matrix(0.750059, 0, 0, 0.751371, -32.183938, 65.71471)" fill="none" stroke-linejoin="miter" d="M 209.7757 59.074476 L 207.546708 57.374459 C 207.041539 56.989745 206.317637 57.187301 206.067657 57.76957 C 205.338547 59.537172 205.036487 61.398353 205.197933 63.353113 " stroke="#c4c6cd" stroke-width="2" stroke-opacity="1" stroke-miterlimit="4"/><path stroke-linecap="butt" transform="matrix(0.750059, 0, 0, 0.751371, -32.183938, 65.71471)" fill="none" stroke-linejoin="miter" d="M 205.197933 63.353113 C 204.875042 63.836604 204.317794 63.971773 203.531397 63.76382 " stroke="#e7e6e9" stroke-width="2" stroke-opacity="1" stroke-miterlimit="4"/><path stroke-linecap="butt" transform="matrix(0.750059, 0, 0, 0.751371, -32.183938, 65.71471)" fill="none" stroke-linejoin="miter" d="M 203.531397 63.76382 C 199.55775 62.755247 195.438281 62.380931 191.188613 62.646072 " stroke="#c4c6cd" stroke-width="2" stroke-opacity="1" stroke-miterlimit="4"/><path stroke-linecap="butt" transform="matrix(0.750059, 0, 0, 0.751371, -32.183938, 65.71471)" fill="none" stroke-linejoin="miter" d="M 191.188613 62.646072 C 190.157444 61.486733 190.975088 60.072651 193.651962 58.393429 " stroke="#e7e6e9" stroke-width="2" stroke-opacity="1" stroke-miterlimit="4"/><path stroke-linecap="butt" transform="matrix(0.750059, 0, 0, 0.751371, -32.183938, 65.71471)" fill="none" stroke-linejoin="miter" d="M 193.651962 58.393429 L 198.349511 54.577489 " stroke="#9ba2a9" stroke-width="2" stroke-opacity="1" stroke-miterlimit="4"/><path stroke-linecap="butt" transform="matrix(0.750059, 0, 0, 0.751371, -32.183938, 65.71471)" fill="none" stroke-linejoin="miter" d="M 198.162026 55.008991 L 202.453356 52.139238 " stroke="#9ba2a9" stroke-width="2" stroke-opacity="1" stroke-miterlimit="4"/><path stroke-linecap="butt" transform="matrix(0.750059, 0, 0, 0.751371, -32.183938, 65.71471)" fill="none" stroke-linejoin="miter" d="M 210.161086 52.399179 C 211.166216 53.454541 212.38487 53.880845 213.837882 53.657296 C 215.790854 53.37136 217.483429 53.308974 218.936441 53.496132 C 219.295788 53.542922 219.582223 53.220594 219.509312 52.872273 C 219.457233 52.659121 219.347867 52.497957 219.186421 52.399179 " stroke="#69778b" stroke-width="2" stroke-opacity="1" stroke-miterlimit="4"/><path stroke-linecap="butt" transform="matrix(0.750059, 0, 0, 0.751371, -32.183938, 65.71471)" fill="none" stroke-linejoin="miter" d="M 224.482881 52.300401 L 222.77989 53.766471 " stroke="#8c97a6" stroke-width="2" stroke-opacity="1" stroke-miterlimit="4"/><path stroke-linecap="butt" transform="matrix(0.750059, 0, 0, 0.751371, -32.183938, 65.71471)" fill="none" stroke-linejoin="miter" d="M 222.77989 53.766471 C 221.894542 56.204722 221.535196 58.741751 221.722681 61.361961 " stroke="#69778b" stroke-width="2" stroke-opacity="1" stroke-miterlimit="4"/><path stroke-linecap="butt" transform="matrix(0.750059, 0, 0, 0.751371, -32.183938, 65.71471)" fill="none" stroke-linejoin="miter" d="M 221.722681 61.361961 C 221.238344 61.725879 221.259175 62.334142 221.821631 63.191949 " stroke="#9ba2a9" stroke-width="2" stroke-opacity="1" stroke-miterlimit="4"/><path stroke-linecap="butt" transform="matrix(0.750059, 0, 0, 0.751371, -32.183938, 65.71471)" fill="none" stroke-linejoin="miter" d="M 221.821631 63.191949 L 212.348415 65.401451 C 211.567226 65.588609 210.832909 64.954352 210.942275 64.184925 C 210.968315 64.013364 211.364117 63.649446 212.124474 63.093171 " stroke="#69778b" stroke-width="2" stroke-opacity="1" stroke-miterlimit="4"/><path stroke-linecap="butt" transform="matrix(0.750059, 0, 0, 0.751371, -32.183938, 65.71471)" fill="none" stroke-linejoin="miter" d="M 188.553403 51.941682 C 188.928374 52.326395 189.386671 52.388781 189.943919 52.149635 " stroke="#8c97a6" stroke-width="2" stroke-opacity="1" stroke-miterlimit="4"/><path stroke-linecap="butt" transform="matrix(0.750059, 0, 0, 0.751371, -32.183938, 65.71471)" fill="none" stroke-linejoin="miter" d="M 191.72503 52.549945 C 190.56887 52.586337 190.589702 53.293378 191.808357 54.676266 " stroke="#b5bbcb" stroke-width="2" stroke-opacity="1" stroke-miterlimit="4"/><path stroke-linecap="butt" transform="matrix(0.750059, 0, 0, 0.751371, -32.183938, 65.71471)" fill="none" stroke-linejoin="miter" d="M 192.297902 56.428272 C 191.709406 58.029511 192.172911 58.689763 193.651962 58.393429 " stroke="#8c97a6" stroke-width="2" stroke-opacity="1" stroke-miterlimit="4"/><path stroke-linecap="butt" transform="matrix(0.750059, 0, 0, 0.751371, -32.183938, 65.71471)" fill="none" stroke-linejoin="miter" d="M 191.188613 62.646072 C 189.485622 62.568089 187.970115 62.058604 186.616055 61.112417 C 186.230668 60.852476 185.704668 60.930458 185.418232 61.299575 C 185.334905 61.398353 185.282826 61.564715 185.256786 61.788265 C 185.209915 62.20937 184.850568 62.531698 184.413102 62.5213 L 177.799037 62.422522 " stroke="#b5bbcb" stroke-width="2" stroke-opacity="1" stroke-miterlimit="4"/><path stroke-linecap="butt" transform="matrix(0.750059, 0, 0, 0.751371, -32.183938, 65.71471)" fill="none" stroke-linejoin="miter" d="M 177.799037 62.422522 C 178.423988 61.091622 178.955196 60.057055 179.392662 59.32402 C 179.715553 58.767745 179.814504 58.341441 179.689514 58.055505 C 179.554108 57.707184 179.215593 57.395254 178.6948 57.124915 " stroke="#8c97a6" stroke-width="2" stroke-opacity="1" stroke-miterlimit="4"/><path stroke-linecap="butt" transform="matrix(0.750059, 0, 0, 0.751371, -32.183938, 65.71471)" fill="none" stroke-linejoin="miter" d="M 236.575684 62.817633 L 236.63818 63.971773 " stroke="#69778b" stroke-width="2" stroke-opacity="1" stroke-miterlimit="4"/><path stroke-linecap="butt" transform="matrix(0.750059, 0, 0, 0.751371, -32.183938, 65.71471)" fill="none" stroke-linejoin="miter" d="M 235.273703 65.588609 C 235.35703 65.042732 235.38307 64.756796 235.372654 64.720405 C 235.034139 64.096545 234.20087 63.950978 233.680078 64.424071 C 231.206313 66.64917 228.847123 68.697509 226.597299 70.574287 C 225.784863 71.260532 225.701536 72.305497 226.331695 73.709181 " stroke="#b5bbcb" stroke-width="2" stroke-opacity="1" stroke-miterlimit="4"/><path stroke-linecap="butt" transform="matrix(0.750059, 0, 0, 0.751371, -32.183938, 65.71471)" fill="none" stroke-linejoin="miter" d="M 205.151062 90.0543 C 205.250012 87.979967 204.739636 85.890038 203.619932 83.805307 " stroke="#b5bbcb" stroke-width="2" stroke-opacity="1" stroke-miterlimit="4"/><path stroke-linecap="butt" transform="matrix(0.750059, 0, 0, 0.751371, -32.183938, 65.71471)" fill="none" stroke-linejoin="miter" d="M 203.619932 83.805307 C 206.557202 85.084219 208.780986 85.021833 210.296492 83.602553 " stroke="#69778b" stroke-width="2" stroke-opacity="1" stroke-miterlimit="4"/><path stroke-linecap="butt" transform="matrix(0.750059, 0, 0, 0.751371, -32.183938, 65.71471)" fill="none" stroke-linejoin="miter" d="M 210.369403 81.169501 C 210.046512 80.966746 209.661125 80.893963 209.213244 80.945951 " stroke="#69778b" stroke-width="2" stroke-opacity="1" stroke-miterlimit="4"/><path stroke-linecap="butt" transform="matrix(0.750059, 0, 0, 0.751371, -32.183938, 65.71471)" fill="none" stroke-linejoin="miter" d="M 207.661282 79.947776 C 206.453043 78.133384 205.421874 77.800659 204.588606 78.944402 " stroke="#69778b" stroke-width="2" stroke-opacity="1" stroke-miterlimit="4"/><path stroke-linecap="butt" transform="matrix(0.750059, 0, 0, 0.751371, -32.183938, 65.71471)" fill="none" stroke-linejoin="miter" d="M 204.182388 79.277127 C 204.229259 78.060601 204.927121 77.40035 206.270766 77.291174 C 206.656152 77.249583 206.953004 76.95325 206.96342 76.568537 C 206.98946 76.183823 206.718647 75.8459 206.343677 75.773116 C 204.156348 75.362408 202.92207 76.168227 202.640842 78.185373 C 202.578347 78.606478 202.265871 78.9548 201.844029 79.053577 L 200.875355 79.292723 " stroke="#b5bbcb" stroke-width="2" stroke-opacity="1" stroke-miterlimit="4"/><path stroke-linecap="butt" transform="matrix(0.750059, 0, 0, 0.751371, -32.183938, 65.71471)" fill="none" stroke-linejoin="miter" d="M 200.875355 79.292723 C 200.062919 77.410747 199.047373 76.329391 197.813095 76.02266 " stroke="#c4c6cd" stroke-width="2" stroke-opacity="1" stroke-miterlimit="4"/><path stroke-linecap="butt" transform="matrix(0.750059, 0, 0, 0.751371, -32.183938, 65.71471)" fill="none" stroke-linejoin="miter" d="M 197.813095 76.02266 L 193.896735 75.648344 C 193.339487 75.596356 192.865565 75.211642 192.693704 74.676163 L 191.126118 69.778866 C 190.938633 69.206994 191.115702 68.588334 191.563584 68.188024 C 192.594753 67.267831 193.922774 67.033884 195.542439 67.465387 " stroke="#b5bbcb" stroke-width="2" stroke-opacity="1" stroke-miterlimit="4"/><path stroke-linecap="butt" transform="matrix(0.750059, 0, 0, 0.751371, -32.183938, 65.71471)" fill="none" stroke-linejoin="miter" d="M 195.542439 67.465387 C 196.99545 68.697509 198.162026 70.225965 199.068205 72.066351 C 199.354641 72.664216 200.187909 72.69021 200.526424 72.118339 L 203.817833 66.399627 C 204.130308 65.853749 203.869912 65.157106 203.286624 64.969948 C 200.625375 64.086147 198.02662 64.138136 195.500776 65.131112 " stroke="#c4c6cd" stroke-width="2" stroke-opacity="1" stroke-miterlimit="4"/><path stroke-linecap="butt" transform="matrix(0.750059, 0, 0, 0.751371, -32.183938, 65.71471)" fill="none" stroke-linejoin="miter" d="M 195.500776 65.131112 C 193.860279 65.801761 191.985426 66.014913 189.881424 65.749773 C 187.673264 65.489831 182.934051 65.068726 175.684619 64.496855 " stroke="#b5bbcb" stroke-width="2" stroke-opacity="1" stroke-miterlimit="4"/><path stroke-linecap="butt" transform="matrix(0.750059, 0, 0, 0.751371, -32.183938, 65.71471)" fill="none" stroke-linejoin="miter" d="M 175.684619 64.496855 L 177.799037 62.422522 " stroke="#69778b" stroke-width="2" stroke-opacity="1" stroke-miterlimit="4"/><path stroke-linecap="butt" transform="matrix(0.750059, 0, 0, 0.751371, -32.183938, 65.71471)" fill="none" stroke-linejoin="miter" d="M 203.531397 63.76382 C 204.687556 66.014913 205.062527 68.240012 204.666725 70.439117 C 204.57819 70.896614 204.838586 71.35931 205.286468 71.520474 C 205.723934 71.681637 206.218687 71.510076 206.453043 71.099368 L 207.932094 68.525948 C 208.34352 67.803311 209.426769 67.912486 209.676749 68.713106 L 210.260037 70.563889 C 210.385027 70.974596 210.796453 71.22414 211.218295 71.161754 C 211.640137 71.083772 211.952613 70.725053 211.952613 70.303947 C 211.963028 66.945504 207.932094 64.424071 205.197933 63.353113 " stroke="#b5bbcb" stroke-width="2" stroke-opacity="1" stroke-miterlimit="4"/><path stroke-linecap="butt" transform="matrix(0.750059, 0, 0, 0.751371, -32.183938, 65.71471)" fill="none" stroke-linejoin="miter" d="M 221.821631 63.191949 C 222.826761 63.89899 224.019376 64.346089 225.425516 64.559241 C 226.149418 64.668416 226.732705 63.98737 226.508764 63.290727 L 225.748407 60.888867 C 225.54009 60.218218 224.779733 59.895891 224.144366 60.197423 L 221.722681 61.361961 " stroke="#c4c6cd" stroke-width="2" stroke-opacity="1" stroke-miterlimit="4"/><path stroke-linecap="butt" transform="matrix(0.750059, 0, 0, 0.751371, -32.183938, 65.71471)" fill="none" stroke-linejoin="miter" d="M 195.776796 53.917237 C 196.698599 53.480536 197.255847 53.049033 197.443332 52.596735 " stroke="#69778b" stroke-width="2" stroke-opacity="1" stroke-miterlimit="4"/><path stroke-linecap="butt" transform="matrix(0.750059, 0, 0, 0.751371, -32.183938, 65.71471)" fill="none" stroke-linejoin="miter" d="M 215.743982 52.326395 L 217.196994 52.362787 " stroke="#69778b" stroke-width="2" stroke-opacity="1" stroke-miterlimit="4"/><path stroke-linecap="butt" transform="matrix(0.750059, 0, 0, 0.751371, -32.183938, 65.71471)" fill="none" stroke-linejoin="miter" d="M 235.919486 61.959826 C 233.706117 62.360136 232.003126 61.949429 230.820927 60.7433 C 229.888708 59.786716 228.758588 58.341441 227.440983 56.402278 C 226.430646 54.910214 225.4151 54.775044 224.368307 55.981173 C 223.88397 56.537447 222.962167 56.142336 223.040286 55.393705 C 223.076741 54.9726 222.988207 54.426723 222.77989 53.766471 " stroke="#b5bbcb" stroke-width="2" stroke-opacity="1" stroke-miterlimit="4"/><path stroke-linecap="butt" transform="matrix(0.750059, 0, 0, 0.751371, -32.183938, 65.71471)" fill="none" stroke-linejoin="miter" d="M 175.684619 64.496855 C 175.351312 64.533247 174.913846 64.907563 174.382638 65.604206 " stroke="#8c97a6" stroke-width="2" stroke-opacity="1" stroke-miterlimit="4"/><path stroke-linecap="butt" transform="matrix(0.750059, 0, 0, 0.751371, -32.183938, 65.71471)" fill="none" stroke-linejoin="miter" d="M 195.500776 65.131112 C 195.292459 66.025311 195.302875 66.810334 195.542439 67.465387 " stroke="#e7e6e9" stroke-width="2" stroke-opacity="1" stroke-miterlimit="4"/><path stroke-linecap="butt" transform="matrix(0.750059, 0, 0, 0.751371, -32.183938, 65.71471)" fill="none" stroke-linejoin="miter" d="M 197.813095 76.02266 L 196.198638 76.308595 C 195.813251 76.381379 195.526815 76.677712 195.46432 77.062426 C 195.33933 77.847449 195.49036 78.679262 195.901786 79.589057 " stroke="#e7e6e9" stroke-width="2" stroke-opacity="1" stroke-miterlimit="4"/><path stroke-linecap="butt" transform="matrix(0.750059, 0, 0, 0.751371, -32.183938, 65.71471)" fill="none" stroke-linejoin="miter" d="M 195.901786 79.589057 L 194.917488 79.713829 " stroke="#8c97a6" stroke-width="2" stroke-opacity="1" stroke-miterlimit="4"/><path stroke-linecap="butt" transform="matrix(0.750059, 0, 0, 0.751371, -32.183938, 65.71471)" fill="none" stroke-linejoin="miter" d="M 196.037192 80.259706 C 196.386123 80.296097 196.646519 80.493653 196.834005 80.857571 " stroke="#e7e6e9" stroke-width="2" stroke-opacity="1" stroke-miterlimit="4"/><path stroke-linecap="butt" transform="matrix(0.750059, 0, 0, 0.751371, -32.183938, 65.71471)" fill="none" stroke-linejoin="miter" d="M 196.834005 80.857571 C 196.860044 81.018735 196.906916 81.179898 196.99545 81.315068 " stroke="#8c97a6" stroke-width="2" stroke-opacity="1" stroke-miterlimit="4"/><path stroke-linecap="butt" transform="matrix(0.750059, 0, 0, 0.751371, -32.183938, 65.71471)" fill="none" stroke-linejoin="miter" d="M 197.714144 81.699781 L 198.02662 82.001314 " stroke="#8c97a6" stroke-width="2" stroke-opacity="1" stroke-miterlimit="4"/><path stroke-linecap="butt" transform="matrix(0.750059, 0, 0, 0.751371, -32.183938, 65.71471)" fill="none" stroke-linejoin="miter" d="M 203.906368 79.687834 C 202.849159 79.453887 202.140881 79.812606 201.781534 80.769191 " stroke="#b5bbcb" stroke-width="2" stroke-opacity="1" stroke-miterlimit="4"/><path stroke-linecap="butt" transform="matrix(0.750059, 0, 0, 0.751371, -32.183938, 65.71471)" fill="none" stroke-linejoin="miter" d="M 201.443019 80.883565 C 201.380524 80.134934 201.182623 79.599454 200.875355 79.292723 " stroke="#e7e6e9" stroke-width="2" stroke-opacity="1" stroke-miterlimit="4"/><path stroke-linecap="butt" transform="matrix(0.750059, 0, 0, 0.751371, -32.183938, 65.71471)" fill="none" stroke-linejoin="miter" d="M 198.240145 81.502226 L 197.667273 81.169501 " stroke="#9ba2a9" stroke-width="2" stroke-opacity="1" stroke-miterlimit="4"/><path stroke-linecap="butt" transform="matrix(0.750059, 0, 0, 0.751371, -32.183938, 65.71471)" fill="none" stroke-linejoin="miter" d="M 197.667273 81.169501 C 197.417292 81.003138 197.141272 80.904361 196.834005 80.857571 " stroke="#9ba2a9" stroke-width="2" stroke-opacity="1" stroke-miterlimit="4"/><path stroke-linecap="butt" transform="matrix(0.750059, 0, 0, 0.751371, -32.183938, 65.71471)" fill="none" stroke-linejoin="miter" d="M 196.037192 80.259706 C 195.927826 80.010162 195.886162 79.786612 195.901786 79.589057 " stroke="#9ba2a9" stroke-width="2" stroke-opacity="1" stroke-miterlimit="4"/><path stroke-linecap="butt" transform="matrix(0.750059, 0, 0, 0.751371, -32.183938, 65.71471)" fill="none" stroke-linejoin="miter" d="M 311.908327 59.313622 C 311.741674 59.313622 311.616683 59.745125 311.616683 60.285803 C 311.616683 60.816084 311.75209 61.252785 311.923951 61.252785 C 312.090605 61.252785 312.210387 60.816084 312.210387 60.280604 C 312.210387 59.745125 312.074981 59.313622 311.908327 59.313622 " stroke="#8f2a91" stroke-width="2" stroke-opacity="1" stroke-miterlimit="4"/><path stroke-linecap="butt" transform="matrix(0.750059, 0, 0, 0.751371, -32.183938, 65.71471)" fill="none" stroke-linejoin="miter" d="M 307.83573 63.711832 C 307.726363 63.613054 307.648244 63.503879 307.611789 63.389504 C 307.549294 63.238738 307.340977 63.228341 307.262858 63.379107 C 307.226402 63.45189 307.200363 63.550668 307.200363 63.67544 " stroke="#8f2a91" stroke-width="2" stroke-opacity="1" stroke-miterlimit="4"/><path fill="#d74b02" d="M 153.527344 102.863281 L 153.695312 102.863281 C 153.957031 102.863281 154.179688 102.957031 154.367188 103.140625 C 154.550781 103.328125 154.644531 103.550781 154.644531 103.816406 L 154.695312 132.847656 C 154.699219 133.109375 154.605469 133.332031 154.417969 133.519531 C 154.234375 133.707031 154.011719 133.800781 153.746094 133.800781 L 153.578125 133.800781 C 153.316406 133.800781 153.09375 133.707031 152.90625 133.523438 C 152.71875 133.335938 152.628906 133.113281 152.625 132.847656 L 152.578125 103.816406 C 152.574219 103.554688 152.667969 103.332031 152.855469 103.144531 C 153.039062 102.957031 153.261719 102.863281 153.527344 102.863281 Z M 153.527344 102.863281 " fill-opacity="1" fill-rule="nonzero"/><path fill="#dc7700" d="M 176.183594 124.890625 C 176.042969 125.105469 176.191406 125.394531 176.453125 125.394531 L 183.1875 125.394531 C 183.660156 125.394531 184.054688 125.777344 184.054688 126.253906 L 184.054688 131.0625 C 184.054688 131.503906 183.691406 131.867188 183.25 131.867188 L 164.871094 131.867188 C 164.285156 131.867188 163.941406 131.214844 164.257812 130.726562 C 166.179688 127.792969 169.710938 122.574219 174.859375 115.054688 C 175.707031 113.8125 176.054688 112.503906 175.875 111.113281 C 175.839844 110.820312 175.652344 110.578125 175.390625 110.449219 C 173.152344 109.382812 171.996094 109.503906 170.980469 111.90625 C 170.804688 112.308594 170.402344 112.570312 169.964844 112.570312 L 165.515625 112.570312 C 165.003906 112.570312 164.613281 112.109375 164.6875 111.597656 C 165.648438 105.648438 169.105469 102.917969 175.066406 103.425781 C 183.140625 104.113281 185.03125 112.503906 180.761719 118.378906 C 178.636719 121.3125 177.105469 123.480469 176.183594 124.890625 Z M 175.230469 120.835938 C 177.433594 118.164062 178.730469 116.175781 179.113281 114.875 C 180.640625 109.738281 178.886719 106.890625 173.851562 106.328125 C 173.796875 106.320312 173.742188 106.367188 173.730469 106.421875 C 173.722656 106.507812 173.777344 106.582031 173.863281 106.601562 C 175.363281 106.871094 176.6875 107.320312 177.851562 107.953125 C 178.121094 108.105469 178.335938 108.335938 178.46875 108.617188 C 180.621094 113.363281 177.917969 116.472656 175.109375 120.742188 C 175.09375 120.78125 175.09375 120.824219 175.128906 120.84375 C 175.15625 120.871094 175.203125 120.863281 175.230469 120.835938 Z M 170.5625 107.160156 C 170.300781 107.207031 170 107.488281 169.664062 108 C 169.582031 108.132812 169.507812 108.195312 169.441406 108.1875 C 169.117188 108.1875 168.957031 108.328125 168.984375 108.617188 C 168.996094 108.710938 169.070312 108.785156 169.171875 108.785156 C 169.265625 108.785156 169.347656 108.71875 169.359375 108.625 C 169.375 108.488281 169.824219 108.105469 170.699219 107.488281 C 170.859375 107.375 170.757812 107.121094 170.5625 107.160156 Z M 174.382812 121.992188 C 174.308594 121.9375 173.589844 122.84375 172.78125 124.003906 C 171.96875 125.167969 171.371094 126.148438 171.441406 126.199219 C 171.511719 126.253906 172.230469 125.347656 173.039062 124.1875 C 173.851562 123.019531 174.449219 122.039062 174.382812 121.992188 Z M 179.429688 129.105469 C 179.429688 129.082031 178.152344 129.066406 176.566406 129.074219 C 174.980469 129.082031 173.703125 129.113281 173.703125 129.136719 C 173.703125 129.15625 174.980469 129.175781 176.566406 129.167969 C 178.152344 129.15625 179.429688 129.128906 179.429688 129.105469 Z M 179.429688 129.105469 " fill-opacity="1" fill-rule="nonzero"/><path fill="#01a2bf" d="M 231.066406 117.601562 C 234.0625 120.769531 234.359375 124.402344 231.964844 128.523438 C 229.910156 132.035156 225.976562 131.886719 221.230469 131.886719 C 217.613281 131.894531 214.535156 131.886719 212.007812 131.859375 C 211.746094 131.859375 211.53125 131.644531 211.53125 131.382812 L 211.53125 104.050781 C 211.53125 103.863281 211.683594 103.714844 211.867188 103.714844 C 218.636719 103.703125 222.910156 103.742188 224.671875 103.835938 C 226.695312 103.945312 229.296875 105.246094 230.628906 107.140625 C 232.792969 110.234375 232.90625 113.371094 230.957031 116.566406 C 230.761719 116.894531 230.808594 117.324219 231.066406 117.601562 Z M 215.898438 108.308594 C 215.953125 108.167969 216.175781 107.980469 216.578125 107.730469 C 216.839844 107.570312 216.792969 107.179688 216.503906 107.085938 C 216.476562 107.078125 216.222656 107.140625 215.738281 107.28125 C 215.523438 107.347656 215.402344 107.46875 215.355469 107.664062 C 215.300781 107.898438 215.347656 108.121094 215.496094 108.355469 C 215.597656 108.515625 215.832031 108.488281 215.898438 108.308594 Z M 218.554688 107.460938 C 218.554688 107.535156 219.871094 107.597656 221.492188 107.617188 C 223.113281 107.636719 224.429688 107.582031 224.429688 107.511719 C 224.429688 107.441406 223.113281 107.375 221.492188 107.355469 C 219.871094 107.335938 218.554688 107.394531 218.554688 107.460938 Z M 225.378906 107.617188 C 225.296875 107.617188 225.203125 107.617188 225.117188 107.628906 C 225.203125 107.636719 225.296875 107.644531 225.378906 107.644531 C 225.390625 107.644531 225.390625 107.636719 225.390625 107.628906 C 225.390625 107.628906 225.390625 107.617188 225.378906 107.617188 Z M 228.316406 110.625 C 228.222656 110.429688 228.167969 110.328125 228.160156 110.300781 C 228.128906 110.242188 228.046875 110.261719 228.039062 110.316406 C 228.039062 110.328125 228.046875 110.429688 228.066406 110.617188 C 228.074219 110.671875 228.121094 110.738281 228.207031 110.804688 C 228.214844 110.804688 228.234375 110.820312 228.28125 110.867188 C 228.355469 110.945312 228.382812 110.765625 228.316406 110.625 Z M 218.507812 110.589844 L 218.527344 114.304688 C 218.527344 114.511719 218.695312 114.679688 218.898438 114.679688 L 222.164062 114.671875 C 223.871094 114.660156 225.25 113.726562 225.25 112.578125 L 225.25 112.277344 C 225.25 111.128906 223.859375 110.195312 222.144531 110.207031 L 218.878906 110.214844 C 218.675781 110.214844 218.507812 110.382812 218.507812 110.589844 Z M 215.671875 110.550781 C 215.609375 110.550781 215.578125 111.832031 215.597656 113.402344 C 215.617188 114.980469 215.691406 116.25 215.75 116.25 C 215.8125 116.25 215.839844 114.96875 215.824219 113.398438 C 215.804688 111.820312 215.730469 110.550781 215.671875 110.550781 Z M 215.878906 118.527344 C 216.121094 117.761719 216.175781 117.304688 216.054688 117.164062 C 215.8125 116.882812 215.355469 117.097656 215.421875 117.464844 L 215.617188 118.519531 C 215.644531 118.660156 215.839844 118.660156 215.878906 118.527344 Z M 226.378906 117.523438 C 226.367188 117.378906 225.632812 117.332031 224.742188 117.417969 C 223.851562 117.5 223.132812 117.679688 223.148438 117.816406 C 223.160156 117.957031 223.898438 118.003906 224.789062 117.921875 C 225.679688 117.835938 226.394531 117.660156 226.378906 117.523438 Z M 228.804688 119.804688 C 228.738281 119.835938 228.859375 120.191406 229.078125 120.597656 C 229.296875 121.003906 229.519531 121.300781 229.585938 121.269531 C 229.652344 121.238281 229.53125 120.882812 229.308594 120.476562 C 229.089844 120.070312 228.867188 119.769531 228.804688 119.804688 Z M 215.6875 120.601562 C 215.617188 120.601562 215.542969 121.117188 215.535156 121.757812 C 215.523438 122.394531 215.570312 122.917969 215.640625 122.917969 C 215.710938 122.917969 215.785156 122.40625 215.792969 121.761719 C 215.804688 121.125 215.757812 120.601562 215.6875 120.601562 Z M 218.5625 121.199219 L 218.488281 125.03125 C 218.488281 125.246094 218.667969 125.429688 218.890625 125.429688 L 223.785156 125.523438 C 225.15625 125.542969 226.273438 124.636719 226.292969 123.488281 L 226.304688 123.003906 C 226.332031 121.863281 225.230469 120.910156 223.859375 120.890625 L 218.964844 120.808594 C 218.75 120.796875 218.5625 120.976562 218.5625 121.199219 Z M 229.835938 122.226562 C 229.941406 122.40625 229.976562 122.628906 229.949219 122.898438 L 229.957031 122.910156 C 230.003906 122.65625 229.96875 122.421875 229.835938 122.226562 C 229.808594 121.945312 229.761719 121.730469 229.707031 121.582031 C 229.621094 121.777344 229.660156 121.992188 229.835938 122.226562 Z M 215.5625 123.46875 C 215.5625 123.480469 215.570312 123.601562 215.597656 123.824219 C 215.617188 123.925781 215.746094 123.972656 215.8125 123.890625 C 215.839844 123.84375 215.859375 123.722656 215.859375 123.527344 C 215.859375 123.359375 215.625 123.3125 215.5625 123.46875 Z M 229.734375 124.171875 C 229.621094 124.132812 229.371094 124.554688 229.179688 125.105469 C 228.988281 125.664062 228.921875 126.140625 229.042969 126.1875 C 229.15625 126.226562 229.410156 125.804688 229.601562 125.25 C 229.789062 124.691406 229.855469 124.21875 229.734375 124.171875 Z M 215.945312 125.199219 C 215.988281 125.058594 216 124.878906 215.953125 124.664062 C 215.898438 124.402344 215.523438 124.386719 215.457031 124.648438 C 215.410156 124.816406 215.421875 125 215.503906 125.207031 C 215.589844 125.414062 215.867188 125.402344 215.945312 125.199219 Z M 215.726562 125.9375 C 215.625 125.9375 215.535156 126.253906 215.535156 126.644531 C 215.535156 127.039062 215.609375 127.355469 215.714844 127.355469 C 215.8125 127.355469 215.90625 127.039062 215.90625 126.648438 C 215.90625 126.253906 215.832031 125.9375 215.726562 125.9375 Z M 217.59375 129.144531 C 217.59375 129.195312 219.152344 129.242188 221.070312 129.242188 C 222.992188 129.242188 224.550781 129.203125 224.550781 129.15625 C 224.550781 129.101562 222.992188 129.054688 221.070312 129.054688 C 219.152344 129.054688 217.59375 129.09375 217.59375 129.144531 Z M 217.59375 129.144531 " fill-opacity="1" fill-rule="nonzero"/><path fill="#de01bb" d="M 198.011719 131.0625 L 198.011719 127.179688 C 198.011719 126.804688 197.703125 126.496094 197.324219 126.496094 L 186.550781 126.496094 C 186.261719 126.496094 186.011719 126.300781 185.9375 126.011719 C 185.636719 124.84375 185.730469 123.789062 186.207031 122.851562 C 187.054688 121.199219 190.570312 114.988281 196.753906 104.226562 C 196.941406 103.898438 197.277344 103.703125 197.648438 103.703125 L 204.53125 103.703125 C 204.753906 103.703125 204.929688 103.882812 204.929688 104.097656 L 204.929688 119.507812 C 204.929688 119.855469 205.109375 120.171875 205.40625 120.339844 L 206.542969 121.003906 C 206.871094 121.191406 207.074219 121.546875 207.074219 121.929688 L 207.074219 125.535156 C 207.074219 126.113281 206.601562 126.578125 206.023438 126.578125 L 205.695312 126.578125 C 205.238281 126.578125 204.875 126.953125 204.875 127.410156 L 204.875 131 C 204.875 131.484375 204.484375 131.875 204 131.875 L 198.824219 131.875 C 198.375 131.875 198.011719 131.511719 198.011719 131.0625 Z M 201.765625 110.28125 C 201.640625 110.28125 201.546875 110.605469 201.546875 111.011719 C 201.546875 111.410156 201.648438 111.738281 201.777344 111.738281 C 201.902344 111.738281 201.992188 111.410156 201.992188 111.007812 C 201.992188 110.605469 201.890625 110.28125 201.765625 110.28125 Z M 198.234375 113.558594 L 194.925781 120.144531 C 194.8125 120.367188 194.980469 120.628906 195.234375 120.628906 L 197.835938 120.628906 C 198.152344 120.628906 198.402344 120.386719 198.421875 120.070312 L 198.710938 113.585938 C 198.628906 113.511719 198.570312 113.429688 198.542969 113.34375 C 198.496094 113.230469 198.339844 113.222656 198.28125 113.335938 C 198.253906 113.390625 198.234375 113.464844 198.234375 113.558594 Z M 202.144531 123.207031 C 201.957031 123.132812 201.855469 123.097656 201.824219 123.085938 C 201.789062 123.078125 201.75 123.097656 201.742188 123.132812 C 201.734375 123.171875 201.75 123.207031 201.78125 123.226562 C 201.957031 123.328125 202.078125 123.375 202.132812 123.359375 C 202.207031 123.328125 202.207031 123.234375 202.144531 123.207031 Z M 199.421875 123.535156 C 199.421875 123.488281 197.75 123.449219 195.699219 123.449219 C 193.648438 123.449219 191.980469 123.488281 191.980469 123.535156 C 191.980469 123.582031 193.648438 123.617188 195.699219 123.617188 C 197.75 123.617188 199.421875 123.582031 199.421875 123.535156 Z M 199.421875 123.535156 " fill-opacity="1" fill-rule="nonzero"/><path fill="#f6f1eb" d="M 123.519531 104.722656 L 125.832031 106.589844 C 126.195312 107.019531 126.605469 107.335938 127.0625 107.550781 C 127.15625 107.785156 127.371094 107.898438 127.695312 107.890625 L 129.148438 108.71875 C 129.46875 109.757812 130.109375 110.34375 131.089844 110.484375 C 131.527344 110.542969 131.855469 110.914062 131.855469 111.355469 L 131.855469 111.605469 C 131.855469 111.960938 131.5 112.214844 131.164062 112.09375 C 129.605469 111.542969 128.191406 111.878906 126.921875 113.121094 C 126.269531 113.222656 125.691406 113.183594 125.179688 113 C 124.90625 112.90625 124.75 112.625 124.796875 112.34375 L 125.160156 110.101562 C 125.1875 110.074219 125.214844 110.054688 125.242188 110.046875 C 125.253906 110.046875 125.253906 110.046875 125.242188 110.046875 C 125.214844 110.054688 125.1875 110.074219 125.160156 110.101562 L 123.488281 108.824219 C 123.109375 108.535156 122.566406 108.683594 122.378906 109.121094 C 121.832031 110.449219 121.605469 111.847656 121.726562 113.316406 C 121.484375 113.679688 121.066406 113.78125 120.476562 113.625 C 117.496094 112.867188 114.40625 112.585938 111.21875 112.785156 C 110.445312 111.914062 111.058594 110.851562 113.066406 109.589844 L 116.589844 106.722656 C 116.542969 106.832031 116.496094 106.945312 116.449219 107.046875 L 119.667969 104.890625 C 121.148438 103.9375 122.425781 103.882812 123.519531 104.722656 Z M 123.519531 104.722656 " fill-opacity="1" fill-rule="nonzero"/><path fill="#d8dbe6" d="M 109.242188 104.742188 C 109.523438 105.03125 109.867188 105.078125 110.285156 104.898438 C 110.695312 104.851562 111.144531 104.945312 111.621094 105.199219 C 110.753906 105.226562 110.769531 105.757812 111.683594 106.796875 L 112.050781 108.113281 C 111.609375 109.316406 111.957031 109.8125 113.066406 109.589844 C 111.058594 110.851562 110.445312 111.914062 111.21875 112.785156 C 109.941406 112.726562 108.804688 112.34375 107.789062 111.632812 C 107.5 111.4375 107.105469 111.496094 106.890625 111.773438 C 106.828125 111.847656 106.789062 111.972656 106.769531 112.140625 C 106.734375 112.457031 106.464844 112.699219 106.136719 112.691406 L 101.175781 112.617188 C 101.644531 111.617188 102.042969 110.839844 102.371094 110.289062 C 102.613281 109.871094 102.6875 109.550781 102.59375 109.335938 C 102.492188 109.074219 102.238281 108.839844 101.847656 108.636719 C 103.925781 106.636719 106.164062 104.421875 109.242188 104.742188 Z M 109.242188 104.742188 " fill-opacity="1" fill-rule="nonzero"/><path fill="#405366" d="M 110.285156 104.898438 C 109.867188 105.078125 109.523438 105.03125 109.242188 104.742188 C 109.699219 104.65625 110.042969 104.714844 110.285156 104.898438 Z M 110.285156 104.898438 " fill-opacity="0.996" fill-rule="nonzero"/><path fill="#405366" d="M 125.449219 105.085938 C 126.203125 105.878906 127.117188 106.199219 128.207031 106.03125 C 129.671875 105.816406 130.941406 105.769531 132.03125 105.910156 C 132.300781 105.945312 132.515625 105.703125 132.460938 105.441406 C 132.421875 105.28125 132.339844 105.160156 132.21875 105.085938 C 133.503906 104.683594 134.828125 104.65625 136.191406 105.011719 L 134.914062 106.113281 C 134.25 107.945312 133.980469 109.851562 134.121094 111.820312 C 133.757812 112.09375 133.773438 112.550781 134.195312 113.195312 L 127.089844 114.855469 C 126.503906 114.996094 125.953125 114.519531 126.035156 113.941406 C 126.054688 113.8125 126.351562 113.539062 126.921875 113.121094 C 128.191406 111.878906 129.605469 111.542969 131.164062 112.09375 C 131.5 112.214844 131.855469 111.960938 131.855469 111.605469 L 131.855469 111.355469 C 131.855469 110.914062 131.527344 110.542969 131.089844 110.484375 C 130.109375 110.34375 129.46875 109.757812 129.148438 108.71875 C 129.589844 108.972656 129.941406 109.121094 130.230469 109.167969 C 130.578125 109.226562 130.902344 108.972656 130.941406 108.625 L 131.164062 106.488281 C 131.171875 106.386719 131.128906 106.28125 131.035156 106.226562 L 130.753906 106.066406 C 130.605469 105.984375 130.417969 106.085938 130.417969 106.261719 L 130.417969 107.039062 C 130.417969 107.320312 130.136719 107.515625 129.878906 107.421875 C 128.90625 107.078125 128.339844 106.804688 128.160156 106.609375 C 127.882812 106.28125 127.492188 106.066406 127.0625 106.011719 C 126.183594 105.898438 125.773438 106.09375 125.832031 106.589844 L 123.519531 104.722656 Z M 125.449219 105.085938 " fill-opacity="0.996" fill-rule="nonzero"/><path fill="#f6f1eb" d="M 21.132812 117.425781 L 33.011719 117.425781 C 33.367188 117.425781 33.675781 117.707031 33.703125 118.0625 C 34.421875 126.953125 28.371094 133.035156 19.566406 132.230469 C 11.042969 131.445312 5.777344 123.925781 7.4375 115.640625 C 8.339844 111.074219 12.0625 106.90625 16.546875 105.628906 C 22.429688 103.9375 27.566406 105.5625 31.941406 110.496094 C 32.359375 110.972656 32.238281 111.71875 31.691406 112.046875 L 28.910156 113.652344 C 28.453125 113.921875 27.867188 113.828125 27.519531 113.4375 C 26.449219 112.234375 25.722656 111.523438 25.339844 111.308594 C 19.773438 108.121094 13.722656 110.953125 12.769531 117.230469 C 11.746094 123.957031 17.03125 128.636719 23.671875 127 C 24.863281 126.710938 25.9375 126.046875 26.730469 125.105469 L 27.941406 123.675781 C 28.472656 123.050781 28.035156 122.078125 27.203125 122.078125 L 21.253906 122.078125 C 20.769531 122.078125 20.371094 121.675781 20.371094 121.179688 L 20.371094 118.191406 C 20.371094 117.773438 20.714844 117.425781 21.132812 117.425781 Z M 21.132812 117.425781 " fill-opacity="1" fill-rule="nonzero"/><path fill="#405366" d="M 119.667969 104.890625 L 116.449219 107.046875 C 116.644531 106.355469 116.050781 106.085938 114.660156 106.226562 C 115.351562 105.898438 115.769531 105.574219 115.910156 105.234375 C 116.953125 105.421875 118.203125 105.3125 119.667969 104.890625 Z M 119.667969 104.890625 " fill-opacity="0.996" fill-rule="nonzero"/><path fill="#919baf" d="M 129.636719 105.03125 L 130.726562 105.058594 L 132.21875 105.085938 C 132.339844 105.160156 132.421875 105.28125 132.460938 105.441406 C 132.515625 105.703125 132.300781 105.945312 132.03125 105.910156 C 130.941406 105.769531 129.671875 105.816406 128.207031 106.03125 C 127.117188 106.199219 126.203125 105.878906 125.449219 105.085938 Z M 129.636719 105.03125 " fill-opacity="1" fill-rule="nonzero"/><path fill="#405366" d="M 130.726562 105.058594 L 129.636719 105.03125 Z M 130.726562 105.058594 " fill-opacity="0.996" fill-rule="nonzero"/><path fill="#919baf" d="M 111.621094 105.199219 L 115.910156 105.234375 C 115.769531 105.574219 115.351562 105.898438 114.660156 106.226562 C 114.316406 106.261719 113.625 106.1875 112.582031 106.011719 C 112.105469 105.925781 111.804688 106.1875 111.683594 106.796875 C 110.769531 105.757812 110.753906 105.226562 111.621094 105.199219 Z M 111.621094 105.199219 " fill-opacity="1" fill-rule="nonzero"/><path fill="#d8dbe6" d="M 136.191406 105.011719 C 139.359375 106.851562 142.222656 109.269531 144.769531 112.269531 C 143.109375 112.570312 141.832031 112.261719 140.945312 111.355469 C 140.246094 110.636719 139.398438 109.550781 138.410156 108.09375 C 137.652344 106.972656 136.890625 106.871094 136.105469 107.777344 C 135.742188 108.195312 135.050781 107.898438 135.109375 107.335938 C 135.136719 107.019531 135.070312 106.609375 134.914062 106.113281 Z M 136.191406 105.011719 " fill-opacity="1" fill-rule="nonzero"/><path fill="#f6f1eb" d="M 57.378906 105.851562 L 57.378906 109.496094 C 57.378906 109.777344 57.15625 110 56.875 110 L 44.25 110 C 43.96875 110 43.746094 110.222656 43.746094 110.503906 L 43.746094 115.539062 C 43.746094 115.820312 43.96875 116.042969 44.25 116.042969 L 55.039062 116.042969 C 55.316406 116.042969 55.542969 116.269531 55.542969 116.546875 L 55.542969 120.210938 C 55.542969 120.488281 55.316406 120.714844 55.039062 120.714844 L 44.269531 120.714844 C 43.988281 120.714844 43.765625 120.9375 43.765625 121.21875 L 43.765625 126.878906 C 43.765625 127.160156 43.988281 127.382812 44.269531 127.382812 L 57.15625 127.382812 C 57.433594 127.382812 57.660156 127.609375 57.660156 127.886719 L 57.660156 131.371094 C 57.660156 131.652344 57.433594 131.875 57.15625 131.875 L 38.878906 131.875 C 38.597656 131.875 38.375 131.652344 38.375 131.371094 L 38.375 105.851562 C 38.375 105.574219 38.597656 105.347656 38.878906 105.347656 L 56.875 105.347656 C 57.15625 105.347656 57.378906 105.574219 57.378906 105.851562 Z M 57.378906 105.851562 " fill-opacity="1" fill-rule="nonzero"/><path fill="#f6f1eb" d="M 76.523438 122.5625 C 76.632812 122.5625 76.746094 122.453125 76.867188 122.207031 C 81.902344 111.832031 84.523438 106.402344 84.738281 105.925781 C 84.878906 105.574219 85.210938 105.347656 85.59375 105.339844 L 90.082031 105.339844 C 90.378906 105.328125 90.621094 105.582031 90.621094 105.878906 L 90.621094 131.34375 C 90.621094 131.632812 90.386719 131.867188 90.097656 131.867188 L 85.789062 131.867188 C 85.5 131.867188 85.269531 131.632812 85.269531 131.34375 L 85.269531 117.023438 C 85.269531 116.773438 84.921875 116.6875 84.8125 116.914062 C 81.015625 124.535156 79.003906 128.652344 78.769531 129.261719 C 78.414062 130.175781 77.519531 130.296875 76.511719 130.296875 C 75.515625 130.296875 74.609375 130.175781 74.265625 129.261719 C 74.023438 128.644531 72.019531 124.535156 68.234375 116.902344 C 68.121094 116.679688 67.777344 116.761719 67.777344 117.015625 L 67.765625 131.335938 C 67.757812 131.625 67.523438 131.859375 67.234375 131.859375 L 62.925781 131.859375 C 62.648438 131.847656 62.40625 131.613281 62.414062 131.324219 L 62.433594 105.863281 C 62.433594 105.5625 62.675781 105.320312 62.972656 105.328125 L 67.457031 105.328125 C 67.839844 105.339844 68.175781 105.574219 68.316406 105.917969 C 68.53125 106.394531 71.152344 111.832031 76.175781 122.207031 C 76.289062 122.453125 76.402344 122.5625 76.523438 122.5625 Z M 76.523438 122.5625 " fill-opacity="1" fill-rule="nonzero"/><path fill="#919baf" d="M 134.914062 106.113281 C 135.070312 106.609375 135.136719 107.019531 135.109375 107.335938 C 135.050781 107.898438 135.742188 108.195312 136.105469 107.777344 C 136.890625 106.871094 137.652344 106.972656 138.410156 108.09375 C 139.398438 109.550781 140.246094 110.636719 140.945312 111.355469 C 141.832031 112.261719 143.109375 112.570312 144.769531 112.269531 L 145.261719 112.914062 L 145.308594 113.78125 C 145.039062 114.242188 144.703125 114.640625 144.285156 114.996094 C 144.347656 114.585938 144.367188 114.371094 144.359375 114.34375 C 144.105469 113.875 143.480469 113.765625 143.089844 114.121094 C 141.234375 115.792969 139.464844 117.332031 137.777344 118.742188 C 137.167969 119.257812 137.105469 120.042969 137.578125 121.097656 C 135.714844 123.160156 133.476562 124.785156 130.875 125.964844 C 130.605469 126.085938 130.363281 126.234375 130.128906 126.421875 L 121.691406 133.378906 C 121.765625 131.820312 121.382812 130.25 120.542969 128.683594 C 122.746094 129.644531 124.414062 129.597656 125.550781 128.53125 L 128.785156 126.375 C 128.871094 126.320312 128.90625 126.214844 128.859375 126.140625 L 128.851562 126.132812 C 128.804688 126.046875 128.691406 126.019531 128.609375 126.074219 C 127.695312 126.738281 126.699219 126.953125 125.605469 126.703125 C 125.363281 126.550781 125.074219 126.496094 124.738281 126.535156 C 124.03125 126.5625 123.640625 126.320312 123.574219 125.785156 C 122.667969 124.421875 121.894531 124.171875 121.269531 125.03125 C 121.167969 125.199219 121.066406 125.28125 120.964844 125.28125 C 121 124.367188 121.523438 123.871094 122.53125 123.789062 C 122.820312 123.757812 123.042969 123.535156 123.050781 123.246094 C 123.070312 122.957031 122.867188 122.703125 122.585938 122.648438 C 120.945312 122.339844 120.019531 122.945312 119.808594 124.460938 C 119.761719 124.777344 119.527344 125.039062 119.210938 125.113281 L 118.484375 125.292969 C 117.875 123.878906 117.113281 123.066406 116.1875 122.835938 L 113.25 122.554688 C 112.832031 122.515625 112.476562 122.226562 112.347656 121.824219 L 111.171875 118.144531 C 111.03125 117.714844 111.164062 117.25 111.5 116.949219 C 112.273438 116.257812 113.269531 116.082031 114.484375 116.40625 C 115.574219 117.332031 116.449219 118.480469 117.128906 119.863281 C 117.34375 120.3125 117.96875 120.332031 118.222656 119.902344 L 120.691406 115.605469 C 120.925781 115.195312 120.730469 114.671875 120.292969 114.53125 C 118.296875 113.867188 116.347656 113.90625 114.453125 114.652344 C 113.222656 115.15625 111.816406 115.316406 110.238281 115.117188 C 108.582031 114.921875 105.027344 114.605469 99.589844 114.175781 L 101.175781 112.617188 L 106.136719 112.691406 C 106.464844 112.699219 106.734375 112.457031 106.769531 112.140625 C 106.789062 111.972656 106.828125 111.847656 106.890625 111.773438 C 107.105469 111.496094 107.5 111.4375 107.789062 111.632812 C 108.804688 112.34375 109.941406 112.726562 111.21875 112.785156 C 114.40625 112.585938 117.496094 112.867188 120.476562 113.625 C 121.34375 115.316406 121.625 116.988281 121.328125 118.640625 C 121.261719 118.984375 121.457031 119.332031 121.792969 119.453125 C 122.121094 119.574219 122.492188 119.445312 122.667969 119.136719 L 123.777344 117.203125 C 124.085938 116.660156 124.898438 116.742188 125.085938 117.34375 L 125.523438 118.734375 C 125.617188 119.042969 125.925781 119.230469 126.242188 119.183594 C 126.558594 119.125 126.792969 118.855469 126.792969 118.539062 C 126.800781 116.015625 123.777344 114.121094 121.726562 113.316406 C 121.605469 111.847656 121.832031 110.449219 122.378906 109.121094 C 122.566406 108.683594 123.109375 108.535156 123.488281 108.824219 L 125.160156 110.101562 L 124.796875 112.34375 C 124.75 112.625 124.90625 112.90625 125.179688 113 C 125.691406 113.183594 126.269531 113.222656 126.921875 113.121094 C 126.351562 113.539062 126.054688 113.8125 126.035156 113.941406 C 125.953125 114.519531 126.503906 114.996094 127.089844 114.855469 L 134.195312 113.195312 C 134.949219 113.726562 135.84375 114.0625 136.898438 114.222656 C 137.441406 114.304688 137.878906 113.792969 137.710938 113.269531 L 137.140625 111.464844 C 136.984375 110.960938 136.414062 110.71875 135.9375 110.945312 L 134.121094 111.820312 C 133.980469 109.851562 134.25 107.945312 134.914062 106.113281 Z M 135.613281 108.683594 C 135.0625 109.160156 134.761719 109.757812 134.71875 110.476562 C 134.699219 110.738281 135.007812 110.90625 135.21875 110.746094 C 135.621094 110.449219 135.753906 109.757812 135.613281 108.683594 C 136.070312 108.710938 136.273438 108.589844 136.21875 108.308594 C 136.023438 108.207031 135.816406 108.328125 135.613281 108.683594 Z M 135.613281 108.683594 " fill-opacity="1" fill-rule="nonzero"/><path fill="#405366" d="M 114.390625 106.972656 C 114.390625 107.015625 114.367188 107.039062 114.324219 107.039062 C 114.28125 107.039062 114.257812 107.015625 114.257812 106.972656 C 114.257812 106.929688 114.28125 106.90625 114.324219 106.90625 C 114.367188 106.90625 114.390625 106.929688 114.390625 106.972656 Z M 114.390625 106.972656 " fill-opacity="0.996" fill-rule="nonzero"/><path fill="#405366" d="M 116.589844 106.722656 L 113.066406 109.589844 C 111.957031 109.8125 111.609375 109.316406 112.050781 108.113281 C 112.460938 109 113.96875 108.535156 116.589844 106.722656 Z M 116.589844 106.722656 " fill-opacity="0.996" fill-rule="nonzero"/><path fill="#405366" d="M 127.695312 107.890625 C 127.371094 107.898438 127.15625 107.785156 127.0625 107.550781 C 127.378906 107.570312 127.59375 107.683594 127.695312 107.890625 Z M 127.695312 107.890625 " fill-opacity="0.996" fill-rule="nonzero"/><path fill="#405366" d="M 101.847656 108.636719 C 102.238281 108.839844 102.492188 109.074219 102.59375 109.335938 C 102.6875 109.550781 102.613281 109.871094 102.371094 110.289062 C 102.042969 110.839844 101.644531 111.617188 101.175781 112.617188 L 99.589844 114.175781 C 99.339844 114.203125 99.011719 114.484375 98.613281 115.007812 C 97.6875 114.371094 97.363281 113.746094 97.652344 113.121094 C 98.386719 111.503906 99.785156 110.007812 101.847656 108.636719 Z M 101.847656 108.636719 " fill-opacity="0.996" fill-rule="nonzero"/><path fill="#d8dbe6" d="M 125.160156 110.101562 C 125.1875 110.074219 125.214844 110.054688 125.242188 110.046875 C 125.253906 110.046875 125.253906 110.046875 125.242188 110.046875 C 125.214844 110.054688 125.1875 110.074219 125.160156 110.101562 Z M 125.160156 110.101562 " fill-opacity="1" fill-rule="nonzero"/><path fill="#405366" d="M 201.765625 110.28125 C 201.824219 110.28125 201.878906 110.351562 201.925781 110.492188 C 201.96875 110.632812 201.992188 110.804688 201.992188 111.007812 C 201.996094 111.207031 201.976562 111.378906 201.933594 111.523438 C 201.890625 111.664062 201.839844 111.738281 201.777344 111.738281 C 201.714844 111.738281 201.660156 111.667969 201.617188 111.523438 C 201.570312 111.382812 201.546875 111.210938 201.546875 111.011719 C 201.542969 110.808594 201.566406 110.636719 201.605469 110.496094 C 201.648438 110.351562 201.703125 110.28125 201.765625 110.28125 Z M 201.765625 110.28125 " fill-opacity="0.996" fill-rule="nonzero"/><path fill="#f6f1eb" d="M 134.195312 113.195312 C 133.773438 112.550781 133.757812 112.09375 134.121094 111.820312 L 135.9375 110.945312 C 136.414062 110.71875 136.984375 110.960938 137.140625 111.464844 L 137.710938 113.269531 C 137.878906 113.792969 137.441406 114.304688 136.898438 114.222656 C 135.84375 114.0625 134.949219 113.726562 134.195312 113.195312 Z M 134.195312 113.195312 " fill-opacity="1" fill-rule="nonzero"/><path fill="#405366" d="M 145.308594 113.78125 L 145.261719 112.914062 C 145.441406 113.082031 145.457031 113.371094 145.308594 113.78125 Z M 145.308594 113.78125 " fill-opacity="0.996" fill-rule="nonzero"/><path fill="#405366" d="M 198.710938 113.585938 C 198.441406 113.53125 198.28125 113.519531 198.234375 113.558594 C 198.234375 113.464844 198.253906 113.390625 198.28125 113.335938 C 198.339844 113.222656 198.496094 113.230469 198.542969 113.34375 C 198.570312 113.429688 198.628906 113.511719 198.710938 113.585938 Z M 198.710938 113.585938 " fill-opacity="0.996" fill-rule="nonzero"/><path fill="#d8dbe6" d="M 120.476562 113.625 C 121.066406 113.78125 121.484375 113.679688 121.726562 113.316406 C 123.777344 114.121094 126.800781 116.015625 126.792969 118.539062 C 126.792969 118.855469 126.558594 119.125 126.242188 119.183594 C 125.925781 119.230469 125.617188 119.042969 125.523438 118.734375 L 125.085938 117.34375 C 124.898438 116.742188 124.085938 116.660156 123.777344 117.203125 L 122.667969 119.136719 C 122.492188 119.445312 122.121094 119.574219 121.792969 119.453125 C 121.457031 119.332031 121.261719 118.984375 121.328125 118.640625 C 121.625 116.988281 121.34375 115.316406 120.476562 113.625 Z M 120.476562 113.625 " fill-opacity="1" fill-rule="nonzero"/><path fill="#d8dbe6" d="M 144.285156 114.996094 L 137.578125 121.097656 C 137.105469 120.042969 137.167969 119.257812 137.777344 118.742188 C 139.464844 117.332031 141.234375 115.792969 143.089844 114.121094 C 143.480469 113.765625 144.105469 113.875 144.359375 114.34375 C 144.367188 114.371094 144.347656 114.585938 144.285156 114.996094 Z M 144.285156 114.996094 " fill-opacity="1" fill-rule="nonzero"/><path fill="#d8dbe6" d="M 114.453125 114.652344 C 114.296875 115.324219 114.304688 115.914062 114.484375 116.40625 C 113.269531 116.082031 112.273438 116.257812 111.5 116.949219 C 111.164062 117.25 111.03125 117.714844 111.171875 118.144531 L 112.347656 121.824219 C 112.476562 122.226562 112.832031 122.515625 113.25 122.554688 L 116.1875 122.835938 L 114.976562 123.050781 C 114.6875 123.105469 114.472656 123.328125 114.425781 123.617188 C 114.332031 124.207031 114.445312 124.832031 114.753906 125.515625 L 114.015625 125.609375 C 113.894531 125.644531 113.820312 125.683594 113.773438 125.730469 C 113.738281 125.765625 113.753906 125.832031 113.8125 125.84375 L 114.210938 125.90625 C 114.417969 126.066406 114.632812 126.105469 114.855469 126.019531 C 115.117188 126.046875 115.3125 126.195312 115.453125 126.46875 C 115.472656 126.589844 115.507812 126.710938 115.574219 126.8125 L 116.113281 127.101562 L 116.347656 127.328125 C 116.550781 127.644531 116.851562 127.839844 117.253906 127.914062 C 118.566406 128.1875 119.667969 128.4375 120.542969 128.683594 C 121.382812 130.25 121.765625 131.820312 121.691406 133.378906 C 118.25 130.492188 114.726562 127.832031 111.097656 125.382812 C 108.523438 123.65625 106.371094 122.011719 104.644531 120.472656 C 102.621094 118.660156 100.609375 116.835938 98.613281 115.007812 C 99.011719 114.484375 99.339844 114.203125 99.589844 114.175781 C 105.027344 114.605469 108.582031 114.921875 110.238281 115.117188 C 111.816406 115.316406 113.222656 115.15625 114.453125 114.652344 Z M 114.453125 114.652344 " fill-opacity="1" fill-rule="nonzero"/><path fill="#f6f1eb" d="M 114.484375 116.40625 C 114.304688 115.914062 114.296875 115.324219 114.453125 114.652344 C 116.347656 113.90625 118.296875 113.867188 120.292969 114.53125 C 120.730469 114.671875 120.925781 115.195312 120.691406 115.605469 L 118.222656 119.902344 C 117.96875 120.332031 117.34375 120.3125 117.128906 119.863281 C 116.449219 118.480469 115.574219 117.332031 114.484375 116.40625 Z M 114.484375 116.40625 " fill-opacity="1" fill-rule="nonzero"/><path fill="#d8dbe6" d="M 120.964844 125.28125 C 121.074219 125.28125 121.011719 125.382812 120.757812 125.589844 C 119.964844 125.414062 119.433594 125.683594 119.164062 126.402344 C 119.078125 126.429688 118.996094 126.457031 118.910156 126.488281 C 118.863281 125.925781 118.714844 125.523438 118.484375 125.292969 L 119.210938 125.113281 C 119.527344 125.039062 119.761719 124.777344 119.808594 124.460938 C 120.019531 122.945312 120.945312 122.339844 122.585938 122.648438 C 122.867188 122.703125 123.070312 122.957031 123.050781 123.246094 C 123.042969 123.535156 122.820312 123.757812 122.53125 123.789062 C 121.523438 123.871094 121 124.367188 120.964844 125.28125 Z M 120.964844 125.28125 " fill-opacity="1" fill-rule="nonzero"/><path fill="#f6f1eb" d="M 116.1875 122.835938 C 117.113281 123.066406 117.875 123.878906 118.484375 125.292969 C 118.714844 125.523438 118.863281 125.925781 118.910156 126.488281 C 118.15625 126.824219 117.355469 126.980469 116.507812 126.953125 L 116.078125 126.703125 C 115.890625 126.578125 115.683594 126.503906 115.453125 126.46875 C 115.3125 126.195312 115.117188 126.046875 114.855469 126.019531 C 114.773438 125.832031 114.742188 125.664062 114.753906 125.515625 C 114.445312 124.832031 114.332031 124.207031 114.425781 123.617188 C 114.472656 123.328125 114.6875 123.105469 114.976562 123.050781 Z M 116.1875 122.835938 " fill-opacity="1" fill-rule="nonzero"/><path fill="#405366" d="M 123.574219 125.785156 L 121.269531 125.03125 C 121.894531 124.171875 122.667969 124.421875 123.574219 125.785156 Z M 123.574219 125.785156 " fill-opacity="0.996" fill-rule="nonzero"/><path fill="#405366" d="M 114.753906 125.515625 C 114.742188 125.664062 114.773438 125.832031 114.855469 126.019531 L 114.210938 125.90625 L 114.015625 125.609375 Z M 114.753906 125.515625 " fill-opacity="0.996" fill-rule="nonzero"/><path fill="#919baf" d="M 120.757812 125.589844 C 120.171875 126.046875 119.640625 126.320312 119.164062 126.402344 C 119.433594 125.683594 119.964844 125.414062 120.757812 125.589844 Z M 120.757812 125.589844 " fill-opacity="1" fill-rule="nonzero"/><path fill="#405366" d="M 120.65625 126.308594 C 120.65625 126.328125 120.644531 126.335938 120.628906 126.335938 C 120.609375 126.335938 120.597656 126.328125 120.597656 126.308594 C 120.597656 126.289062 120.609375 126.28125 120.628906 126.28125 C 120.644531 126.28125 120.65625 126.289062 120.65625 126.308594 Z M 120.65625 126.308594 " fill-opacity="0.996" fill-rule="nonzero"/><path fill="#405366" d="M 116.078125 126.703125 C 115.890625 126.683594 115.722656 126.71875 115.574219 126.8125 C 115.507812 126.710938 115.472656 126.589844 115.453125 126.46875 C 115.683594 126.503906 115.890625 126.578125 116.078125 126.703125 Z M 116.078125 126.703125 " fill-opacity="0.996" fill-rule="nonzero"/><path fill="#405366" d="M 125.605469 126.703125 C 125.316406 126.589844 125.027344 126.535156 124.738281 126.535156 C 125.074219 126.496094 125.363281 126.550781 125.605469 126.703125 Z M 125.605469 126.703125 " fill-opacity="0.996" fill-rule="nonzero"/><path fill="#405366" d="M 116.507812 126.953125 C 116.488281 127.09375 116.429688 127.222656 116.347656 127.328125 L 116.113281 127.101562 L 116.078125 126.703125 Z M 116.507812 126.953125 " fill-opacity="0.996" fill-rule="nonzero"/><path fill="#405366" d="M 125.550781 128.53125 C 124.414062 129.597656 122.746094 129.644531 120.542969 128.683594 Z M 125.550781 128.53125 " fill-opacity="0.996" fill-rule="nonzero"/></svg>