<?xml version="1.0" encoding="utf-8"?>
<!-- Generator: Adobe Illustrator 27.7.0, SVG Export Plug-In . SVG Version: 6.00 Build 0)  -->
<svg version="1.1"
	 id="svg2" xmlns:inkscape="http://www.inkscape.org/namespaces/inkscape" xmlns:sodipodi="http://sodipodi.sourceforge.net/DTD/sodipodi-0.dtd" xmlns:svg="http://www.w3.org/2000/svg" xmlns:dc="http://purl.org/dc/elements/1.1/" xmlns:cc="http://creativecommons.org/ns#" xmlns:rdf="http://www.w3.org/1999/02/22-rdf-syntax-ns#"
	 xmlns="http://www.w3.org/2000/svg" xmlns:xlink="http://www.w3.org/1999/xlink" x="0px" y="0px" viewBox="0 0 3500 3500"
	 style="enable-background:new 0 0 3500 3500;" xml:space="preserve">
<style type="text/css">
	.st0{fill:#43A6C1;}
	.st1{fill:#54EAED;}
	.st2{fill:#000032;}
</style>
<sodipodi:namedview  bordercolor="#666666" borderopacity="1.0" gridtolerance="1" guidetolerance="1" id="base" inkscape:current-layer="svg2" inkscape:cx="72.133113" inkscape:cy="78.907888" inkscape:pageopacity="0" inkscape:pageshadow="2" inkscape:showpageshadow="false" inkscape:window-height="705" inkscape:window-maximized="1" inkscape:window-width="1366" inkscape:window-x="-8" inkscape:window-y="-8" inkscape:zoom="1" objecttolerance="1" pagecolor="#ffffff" showgrid="false" showguides="false" units="px">
	</sodipodi:namedview>
<g id="_x23_ffffffff" transform="translate(0,-1065)">
</g>
<g id="_x23_2acbffff-4" transform="matrix(0.74035173,0,0,0.75447038,-840.95699,-751.15387)">
</g>
<g id="_x23_000000ff" transform="matrix(0.08460234,0,0,0.08460234,-16.502076,59.027103)">
	<path id="path3" inkscape:connector-curvature="0" class="st0" d="M29924.1,32540.1c-0.4,276.3,0,552.7,0,829
		c811.2,0.4,1622.5,0,2434,0v6196.1h977.8v-6195.7c701.4-0.2,1402.6-0.2,2104-0.4c802.7,2065.6,1605.6,4130.7,2408.7,6196.1h956.9
		c919.8-2341.6,1839.9-4682.9,2759.7-7024.7c-317.3-0.4-634.5,0-951.8,0c-525.6,1408-1050.8,2816.3-1576.1,4224.6
		c-248.3,671.6-514.8,1338.2-708.1,2028.5c-148.3-537.3-336.9-1062.1-526.4-1586.2c-558.5-1555.5-1116.9-3111.4-1675.8-4666.9
		c-115.6,0-231.3,0-347,0v-0.4L29924.1,32540.1z M2472.9,32545.1c-758.9,0.4-1518-0.7-2277.3,1.1c1.3,2339.6,1.5,4678.9-0.7,7019
		c471.8,1.8,943.6,0.7,1415.4,0.7c-0.9-882.9,1-1766-0.7-2648.9c740.9-7.5,1486,30.5,2222.1-71.5c401.9-51,778.7-241,1080.3-508.8
		c333.7-313.5,556.4-743.1,615.3-1197.7c68.6-514.9,31.2-1062.4-205.8-1532.4c-264.7-509.6-765-905.4-1339.2-991.2
		C3482.8,32545.2,2976.4,32548.3,2472.9,32545.1L2472.9,32545.1z M18038.2,32547c-1729.7-0.4-3459.3-3-5189,1.5
		c0,2338.7,0.5,4677.7-0.4,7016.8c1776.3,3.1,3552.1,3.1,5328,0c-6.6-394.8,9.3-789.9-8.3-1184.3c-1300.6,3.1-2601.8,1.1-3902.9,0.7
		c0.9-636.2,1.8-1272.4-0.4-1908.7c1172.2-1.3,2344.6,1.7,3517.2-1.5c-11.4-393.5-10.1-787.2,0-1180.7
		c-1172.2-3.1-2344.7-1.1-3516.9-1.1c1.3-518.4,1.3-1036.4,0-1554.8c1257.1-1.3,2514.1-0.4,3770.7-0.4
		C18038.6,33338.8,18035.7,32942.7,18038.2,32547L18038.2,32547z M21375.7,32560c-473.9-9.3-950.6,46.2-1394.8,209.4
		c-418.6,153.4-793,436.6-1008.5,820.4c-254.1,422-302.3,945.8-154.5,1410.4c156.5,484.1,540.6,886.3,1010.7,1105.6
		c730.3,355.3,1555.3,443.6,2321.7,699c221.2,80.8,457.9,199.5,554.6,421.7c124.9,286,23.6,628.2-201.5,839.9
		c-269.1,274.1-677.3,353.6-1053.3,360.4c-405.8,12.3-843.1-77.4-1142.1-360c-266.5-249.5-381.1-603.3-457.1-944.6
		c-456,51-913.9,89.1-1370.3,132.9c76.1,639.2,322.8,1292.5,837.7,1723.4c556.6,472.6,1327.2,607.6,2046.9,605.5
		c612.9-0.4,1250.8-74.4,1791.7-374.1c549.6-300.5,919.3-869.6,998-1471.4c50.1-476.9-18.9-988.1-302.9-1392.3
		c-286.7-425.9-762.1-688.2-1251.5-842c-704.8-255-1473.4-318.7-2154.9-636.6c-275.7-115.6-450.1-442.1-315.6-717.5
		c147.3-282.6,496.9-386.2,797.6-432.9c399.2-38.2,838.9-44.7,1189.7,170.8c277.4,175.1,380.4,498.2,449.9,794
		c467.8-35.3,937.8-39.7,1406-66.4c-18-500.7-196.3-1007.6-564.7-1368.8c-401.9-414.4-990.6-599.3-1561.3-657.5
		C21691.1,32573.3,21533.6,32563.1,21375.7,32560z M27404.9,32560.7c-379-9.1-759.2,22.9-1126.9,113.4
		c-449.4,111.8-881.7,338.5-1166.6,699.8c-291.1,364.2-433.7,839.2-370.8,1297.3c60.2,606.5,485.3,1146.6,1042.4,1416.5
		c729.9,365.9,1559.5,456.2,2331.1,707.4c218.1,77.8,450.7,185.3,563.3,393.6c152.6,286,57,650.5-175.1,869.8
		c-253.3,266.5-641.4,353.3-1002,366.9c-399.2,17.9-830.3-49-1142.1-309.1c-302.9-247.3-439.5-626.7-511.6-992.2
		c-456.8,48.4-914.5,88.2-1371.7,130.7c72.1,644.3,325.5,1302.4,847.4,1732.4c558.4,469.6,1329.9,599.8,2048.7,596.9
		c703.1-1.3,1455.3-103.6,2023.8-535.8c497.7-384.2,789-1002.4,768.4-1616.9c-3.5-438.2-130.6-887.8-427.9-1226.9
		c-300.3-365.1-748.8-575.7-1197.7-718.5c-527.6-180.2-1081.5-269.4-1614-432.2c-244.5-82.9-512.3-153.8-698.3-338.7
		c-197.9-190-197.5-534.1,8.7-718.5c212.4-184.4,500.4-263.4,779.6-288.9c354.4-23,734.6-19.6,1052.5,154.2
		c300.3,166.6,430.2,504.3,486,817.5c470-28.5,941.1-36.7,1411.1-63.9c-8.8-610.3-295.8-1222.6-814.6-1582.6
		c-394.4-282.2-884.6-401.9-1365.6-449.9C27657.4,32571.2,27531.2,32563.8,27404.9,32560.7L27404.9,32560.7z M6176.1,32580.9
		c0.4,2340.5,0.4,4680.4,0,7020.4c470.9,0,942.3,1.5,1413.6-0.4c-3.1-976.5-0.6-1952.6-1.1-2928.7c338.1,6.2,688.5-26.5,1014.3,83.4
		c346.5,131,553.2,457.6,761.1,743.8c480.6,693.8,939.9,1401.9,1412.2,2101.5c563.7,1.3,1126.9,0.7,1690.6,0.4
		c-454.6-711-875.3-1443.8-1359.8-2135.4c-269.1-397-634.6-721.7-1049.6-960.5c378.6-64.2,760.4-169.8,1079.6-391.4
		c382.5-256.8,640.8-678,722.2-1129.1c94.1-518.4,26.7-1079.5-257.8-1530.6c-213.7-353.9-561.1-626.5-963-731.2
		c-559.3-147.8-1144.1-141.9-1718.4-142.3L6176.1,32580.9z M2370.8,33733.1c253.6,0.7,507,5.5,760.1,23.1
		c276.6,16.3,558.3,119.2,743.5,332.9c231.7,250.6,271.9,628.5,180.9,946.4c-102.9,339-419.1,584.4-765.1,633.7
		c-556.2,84.9-1120.7,45.6-1680.4,54.9c1.3-663.1,0.8-1326.4,0.4-1989.9C1863.5,33735.7,2117.2,33732.4,2370.8,33733.1
		L2370.8,33733.1z M8584.5,33768.5c332.1-0.1,664.2,1.7,996.2,11.2c329.3,1.8,679.3,176.2,799.8,497.6
		c134.5,373.7,64.8,869.7-291.7,1096.6c-295.5,182.9-660.9,146.8-993.3,169.7c-502.1,10.6-1004.9,3.3-1507.5,5
		c0.9-593.1,0.3-1186.2,0.7-1779.4C7920.6,33770.7,8252.4,33768.7,8584.5,33768.5L8584.5,33768.5z"/>
</g>
<path id="path4603" inkscape:connector-curvature="0" class="st1" d="M1830.9,91.6c-339.7-12.1-678.1,109.3-938.2,336.5
	c-531.5,464.3-596.4,1234-145,1719.3c0,0,0,0,0,0c451.4,485.3,1248.1,502.3,1779.6,38c531.5-464.3,596.4-1234,145-1719.3
	c0,0,0,0,0,0C2459.7,237.5,2157.9,103.2,1830.9,91.6z M1603.3,372.2c217,0.1,428,70.9,601.2,201.6c122.2-25,243.3,18.4,312.5,112
	c66.9,91.1,73.7,214.2,17.5,320.4c45.4,115.7,68.9,238.8,69.2,363.1v1.9c0,551.5-446.9,998.7-998.4,999
	c-551.5,0.3-998.9-446.5-999.4-998.1C605.3,820.6,1051.8,373,1603.3,372.2z"/>
<path id="path4623" inkscape:connector-curvature="0" class="st2" d="M1614,697.6c-373.6,0-676.5,302.9-676.5,676.5c0,0,0,0,0,0
	c0,373.6,302.9,676.5,676.5,676.5c373.6,0,676.4-302.9,676.5-676.5c0-60.2-8.1-120.1-24-178.2c-107.7,7.7-208.3-36.8-268.5-118.6
	c-58.3-79.6-71.2-184.4-34.6-281.5C1858,731.8,1737.2,697.9,1614,697.6z"/>
</svg>
