<?xml version="1.0" encoding="utf-8"?>
<!-- Generator: Adobe Illustrator 27.7.0, SVG Export Plug-In . SVG Version: 6.00 Build 0)  -->
<svg version="1.1" id="Layer_1" xmlns="http://www.w3.org/2000/svg" xmlns:xlink="http://www.w3.org/1999/xlink" x="0px" y="0px"
	 viewBox="0 0 3500 3500" style="enable-background:new 0 0 3500 3500;" xml:space="preserve">
<style type="text/css">
	.st0{fill:#FFFFFF;}
</style>
<path class="st0" d="M1371.8,1353.2c-3.1,1.8-6,4.2-9.3,5.2c-19.4,6.1-36.8,15.9-53.8,26.9c-18.1,11.8-34.2,25.7-48.2,41.7
	c-9.6,11-18.1,23-26.1,35.2c-7.1,10.9-13.1,22.5-19.3,34c-2.2,4-3.8,8.4-5.1,12.7c-4.3,14.3-8.7,28.5-12.5,42.9
	c-1.5,5.5-1.3,11.5-2.3,17.2c-0.4,2.5-1.4,5.3-3.1,6.9c-0.7,0.6-4.3-1.1-6.1-2.4c-9.5-7.1-18.7-14.7-28.4-21.5
	c-15.7-11.2-32.7-19.6-50.8-26.7c-34.1-13.4-69.2-16.6-105.2-14.4c-23.3,1.4-45.6,7.7-67.3,16.2c-34.5,13.5-63.9,34.3-88.8,61.4
	c-14.5,15.7-26,33.7-36,52.7c-9.5,18-16.4,37-20.3,56.6c-5.8,29.1-6.6,58.6-2.3,88.3c4.7,32,15.7,61.5,32.6,88.6
	c18.7,30.1,43,55,73.3,74.3c14.8,9.5,30.1,17.6,46.4,23.3c23.6,8.3,47.5,15.8,73.1,15c8.9-0.3,17.7-0.3,26.6,0
	c16.2,0.6,31.5-4.3,46.8-8.3c35-9.2,66.3-25.9,93.7-49.7c17.4-15.1,31.9-32.5,44.8-51.6c9.7-14.3,15.4-30.4,23.4-45.4
	c2.5-4.7,3-10.5,4.6-15.8c5.9-19.6,10-39.6,9.5-60.2c-0.4-12.8,0-25.7-1.6-38.4c-3.1-24.2-9.4-47.7-20.6-69.8
	c-4.9-9.8-9.1-19.8-15.7-28.8c-4.8-6.6-2.6-10.1,5.6-10.1c34.2,0,68.5,0,102.7,0.1c1.5,0,3.1,0.1,4.6,0c6.9-0.5,8.3-2.1,9.6-9.6
	c1.6-9.6,2-19.3,6.1-28.5c13.2-29.1,33.5-51,64-61.5c21-7.2,42.3-8.7,64.8-2.7c34.8,9.3,56.7,31.6,71.8,62.6
	c11,22.6,10.6,46.3,5.1,69.7c-3.2,13.5-9.6,26.3-18.4,37.5c-25.5,32.3-51,64.6-76.6,96.8c-19.6,24.6-39.3,49-59.2,73.3
	c-16.4,20-33.3,39.7-50,59.5c-18.6,22.2-37,44.5-55.7,66.7c-17.1,20.3-34.4,40.4-51.5,60.7c-13.6,16.1-27,32.2-40.6,48.3
	c-9.6,11.4-19.4,22.7-29.2,33.9c-6.8,7.8-14,15.3-20.5,23.4c-3.8,4.7-8.3,6.8-14.2,6.8c-50.7-0.1-101.5,0.4-152.2-0.7
	c-15.6-0.3-31.6-2.1-46.9-7.2c-7.2-2.4-15-2.8-22.3-5c-11.6-3.5-22.9-8.1-34.6-11.5c-25.8-7.3-48.8-20.6-71.6-34.1
	c-31.5-18.6-59-42.2-84.1-68.6c-5-5.3-9.5-11-14.5-16.4c-4.3-4.7-6.1-4.6-10.4,0c-10.2,10.9-20,22.2-30.5,32.7
	c-8.4,8.4-17.2,16.5-26.6,23.7c-13.8,10.5-27.9,20.7-42.6,29.9c-33.5,21.1-70,35.7-108.2,45.7c-36.2,9.5-73.3,13.3-110.7,11.3
	c-18.3-1-36.6-2.2-54.7-4.5c-11.7-1.5-23.3-4.8-34.7-8.1c-15.8-4.6-31.7-9-46.8-15.1c-16.1-6.5-31.8-14.2-46.9-22.8
	c-15.8-9.1-30.9-19.4-45.6-30.2c-24.2-17.8-45.8-38.3-65-61.5c-18.7-22.6-35.5-46.7-48.6-72.8c-9.2-18.4-18.9-36.8-23.7-57.2
	c-1.9-8-4.9-15.7-7-23.6c-7.6-28.3-12.2-57.2-13.6-86.4c-0.8-17,0.4-34.1,1.7-51.1c1.8-23.4,6.8-46.4,12.7-69.1
	c4.9-18.8,10.9-37.4,19.5-54.9c7.3-14.7,14.3-29.6,22.6-43.8c18.5-31.9,41.7-60.2,68.5-85.3c20.7-19.4,42.9-36.8,67.5-51.4
	c22.9-13.6,46.6-25.5,71.6-34.2c19.2-6.7,38.5-13.5,59.1-15.9c5.3-0.6,10.3-3.3,15.5-5.1c39.8,0,79.5,0,119.3,0
	c6.4,1.8,12.7,3.9,19.2,5.4c6.8,1.6,14.1,1.7,20.6,4c18.9,6.7,38.3,11.6,56.9,19.5c26,11,50.7,24.4,73.5,40.6
	c29.4,20.8,56.4,44.6,78.6,73.4c1,1.3,2.8,2.1,4.5,3.4c5.5-5.8,10.8-11.2,15.7-16.9c21.3-24.6,45.8-45.6,72.9-63.4
	c12.9-8.5,26.5-16.3,40.1-23.5c13.4-7.1,26.9-14.6,41.1-19.5c21-7.2,41.7-15.5,64.1-18.2c4-0.5,7.8-3,11.8-4.6
	c138.2,0,276.4,0,414.6,0L1371.8,1353.2z M628.6,1819.1c-4.6-0.5-7.7-1.1-10.9-1.1c-66.6,0-133.3,0-199.9,0
	c-8.3,0-16.5,0.1-24.8-0.2c-2.1,0-5.2-1.5-5.7-3.1c-0.6-1.7,0.9-4.5,2.1-6.3c1.3-2,3.6-3.2,5.2-5.1c14-16.5,27.8-33.1,41.8-49.6
	c18.8-22,37.7-43.9,56.5-65.9c4.8-5.6,10.4-8.6,18.2-8.5c33,0.3,66,0.1,99,0.1c4.3,0,8.6,0.3,12.8,0c6.3-0.4,7.5-2.2,9.1-8.2
	c4.5-17.6,8.9-35.3,14.2-52.7c3-9.8,7.6-19.2,11.6-28.7c2.3-5.6,4.7-11.2,7.3-16.6c3.7-7.6,7.7-15,11.6-22.4
	c-4.6-4.3-9.4-2.8-13.8-2.8c-42.2,0-84.4,0.1-126.5-0.2c-5.2,0-11.2-1.4-15.5-4.2c-12.7-8.3-26.5-13.6-40.5-19
	c-23.9-9.4-48.7-13.3-74.2-14.1c-26.8-0.9-53.1,2.2-78.6,10.5c-11.3,3.7-22.8,7.4-33.2,13c-18.8,10.1-36.8,21.3-53,35.6
	c-22.8,20-41,43.4-55,70c-8.9,17-16.1,34.9-19.7,53.9c-3.9,20.3-8.8,40.5-7.6,61.5c1.8,29.4,8.2,57.8,18.8,85.2
	c7.5,19.4,18.5,36.9,31,53.5c12.3,16.4,26.1,31.4,43.1,43.1c12.5,8.7,25.1,17.2,38.3,24.7c15.2,8.6,31.5,14.8,48.6,18.5
	c14.6,3.1,28.8,8.2,44.1,7.6c13.4-0.6,26.9-0.2,40.3-0.4c4,0,8-0.2,11.8-1.3c21.1-5.9,42.5-10.2,62.8-19.6
	c15.4-7.1,29.5-15.8,43.2-25.4c22.5-15.7,40.5-35.9,56.2-58.3c13.3-18.9,21.4-40.2,31-63.2L628.6,1819.1z"/>
<path class="st0" d="M1643.9,1421c5.2,3.4,10.7,6.3,15.5,10.1c24.4,19.4,48.2,39.4,68.1,63.6c12.7,15.5,25.1,31.2,36.2,48.2
	c14.1,21.6,24.4,44.9,35.3,68.1c3.4,7.4,4.9,15.7,7.6,23.4c6.8,19.7,9.9,40.1,13,60.6c5.6,37.4,6.1,74.6-1,111.9
	c-2.4,12.8-3.8,25.9-6.5,38.7c-1.8,8.6-4.7,17-7.8,25.3c-4.3,11.7-9.9,22.9-13.7,34.8c-5.1,15.5-13.7,29.2-21.8,43
	c-13.1,22.4-28.7,43-46,62.4c-4.4,4.9-9.2,7.1-15.9,7.1c-48.6-0.2-97.2,0-145.8,0c-26.9,0-53.8,0-80.7,0c-1.5,0-3.1,0.4-4.6,0
	c-1.9-0.5-4.9-1.3-5.2-2.6c-0.5-1.9,0.3-4.7,1.7-6.3c5.2-6.4,10.9-12.3,16.2-18.6c14.3-17,28.7-34,42.7-51.3
	c19.4-23.9,38.5-48,57.7-72.1c11-13.8,22.3-27.5,32.4-41.9c13.8-19.7,27.1-39.7,39.6-60.2c9.1-15,16.8-30.9,24.7-46.6
	c9.6-19.1,14.9-39.8,21.2-60.2c6.1-20.1,8.1-40.6,8.1-61.3c0-23.5-2.8-46.5-9.9-69.3c-8.1-26.3-20-50.4-35.7-72.7
	c-5.4-7.7-12.2-14.4-18.3-21.5c-3-3.5-5.9-7-8.8-10.6C1642.8,1422.3,1643.4,1421.7,1643.9,1421L1643.9,1421z"/>
<path class="st0" d="M2686.6,1643c0.5-9,1-18.1,1.5-27.1c0-0.6-0.2-1.2-0.2-1.8c-0.6-16.6,0.3-17.6,16.9-17.6c9.5,0,18.9-0.2,28.4,0
	c8.6,0.2,10.7,2.4,10.7,11.1c0,58.9,0,117.7,0,176.6c0,40.9,0,81.7,0,122.6c0,9.4-0.7,10-9.7,10.1c-12.5,0.1-25.1,0.1-37.6,0
	c-8.4,0-9.2-1.1-9.3-9.7c-0.1-10.1-0.1-20.1-0.3-30.2c0-2.5-0.6-5.1-1.1-9.6c-2.9,3.4-4.6,5-5.9,6.9c-10.8,15.4-25.7,25.9-41.9,34.6
	c-26.4,14.1-55,17.2-84.4,14.5c-11.5-1-23-1.7-34.2-5.5c-15.4-5.2-29.9-11.7-43.6-20.6c-15.3-10-28.1-22.7-38.8-37.2
	c-9.4-12.7-17.1-26.7-20.8-42.4c-3.2-13.3-6.6-26.6-8.7-40c-2.4-15.7-1.9-31.6,0.6-47.4c2.8-17.2,6.6-34.1,14.2-49.9
	c15.6-32.4,39.7-56.2,71.9-72.5c25.9-13.1,53.5-16.3,81.6-16.2c18.3,0,36.8,3,53.6,10.5c19.2,8.5,37.7,18.8,50.1,37
	c1.3,1.9,3.3,3.2,5,4.8c0.7-0.3,1.4-0.6,2-0.9V1643z M2461.7,1756.9c0,2.7-0.1,5.5,0,8.2c0.7,14.1,2.5,27.9,8.3,41
	c5.6,12.6,12.9,23.9,22.7,34c16.3,16.8,35.8,27.6,58.7,31.2c21.2,3.4,42.2,2.9,63.1-4.5c13.6-4.8,26-11.3,36.2-20.6
	c19.1-17.3,29.9-40.2,34.5-65.1c4.8-25.9,1.8-51.4-10.3-75.5c-8.2-16.3-18-30.8-33.5-41.4c-8.5-5.8-17.7-9.3-26.8-13.5
	c-11.7-5.4-24.3-7.1-36.5-6.8c-15.1,0.3-30.1,2.5-44.8,7.9c-31.6,11.7-52.8,33.3-64.9,64c-5.1,13-7.3,27.1-6.6,41.3L2461.7,1756.9z"
	/>
<path class="st0" d="M3274.8,1779.5c-41,0-81.9,0-122.9,0c-0.9,0-1.8,0-2.8,0c-8.5,0.3-9.5,2-7.3,10c5.3,19.2,13.6,36.7,28.6,50.1
	c14.2,12.7,29.9,22.6,49.2,26.8c16.3,3.5,32.5,7.1,49,4.2c15-2.6,30.4-5.2,44.3-11.1c12.3-5.2,25.2-10.8,34.8-21.5
	c6.4-7.2,9.1-6.6,15.8,0c6.6,6.3,13.5,12.3,20.4,18.3c7.9,6.9,7.5,9.4,0.5,16.9c-12.3,13.2-27.7,21.9-43,30.6
	c-4.5,2.5-9.6,3.8-14.4,5.7c-31.6,12.3-64.4,14.9-98,12.2c-18.5-1.5-36-6.6-52.7-13.9c-29-12.6-51.8-32.8-68.5-59.8
	c-8.1-13.1-14-27.1-17.5-41.9c-5.5-22.9-9.9-46.3-5.8-69.7c3.7-21.4,7.8-42.8,18.8-62.6c13.5-24.5,31.4-44.4,54.5-59.2
	c13.4-8.6,27.6-16.8,44.2-18.7c13.3-1.6,26.5-5.1,39.8-5.7c14.6-0.6,29.3,0.3,43.8,2.3c11.7,1.6,23.4,4.7,34.4,8.9
	c10.4,4,20.2,9.9,29.7,15.8c13.3,8.3,24.2,19.4,33.7,31.9c15.5,20.4,24.3,43.4,26.7,69c0.9,9.7,2.1,19.3,3,29
	c0.2,2.1-0.2,4.2-0.4,6.3c-0.4,4.2-1.1,8.4-1.2,12.6c-0.2,10.8-2.7,13.4-13.5,13.4c-41,0-81.9,0-122.9,0l0,0L3274.8,1779.5z
	 M3248.9,1732.4c33.3,0,66.6,0,99.9,0c9,0,10.2-1.4,8.2-10.2c-1-4.4-2.6-8.7-4-13.1c-2.3-7.2-3.4-15.1-7.2-21.5
	c-14.2-24.1-35.9-39.3-63-44.5c-16.5-3.1-34-2.2-51-1.6c-17.2,0.6-32.6,8.3-46.5,17.7c-22.9,15.3-36.9,37.4-43.8,64
	c-1.8,7.1-0.7,8.8,6.6,9.1c1.8,0,3.7,0,5.5,0C3185.4,1732.3,3217.1,1732.3,3248.9,1732.4L3248.9,1732.4z"/>
<path class="st0" d="M2037.3,1717.5c0-62.5,0-125.1,0-187.6c0-1.5,0-3.1,0-4.6c-0.6-7.6-1.7-8.8-9.6-8.8c-37.3,0-74.6,0-111.8,0
	c-7.3,0-14.7,0.1-22,0c-9.1-0.1-10.6-1.8-10.5-10.6c0-10.1-0.1-20.1,0.1-30.2s1.2-11,11.2-11c36.1,0,72.1,0,108.2,0
	c77.3,0,154.6,0,231.9,0c2.1,0,4.3,0,6.4,0.1c4.9,0,7.5,2.9,7.5,7.4c0.3,12.2,0.4,24.4,0,36.6c-0.2,6-2.9,7.8-10,7.8
	c-20.8,0-41.6,0-62.3,0c-23.5,0-47.1-0.1-70.6,0c-7.8,0-9.4,1.2-9.6,8.8c-0.4,12.1-0.1,24.3-0.2,36.4c-0.1,15.2-0.5,30.4-0.5,45.6
	c0,10.9,0.3,21.9,0.3,32.8c0,17.6,0,35.3,0,52.9c0,11.8,0,23.7,0,35.5c0,0.6,0.2,1.2,0.2,1.8c-0.2,18.3-0.5,36.5-0.6,54.8
	c0,10.3,0.2,20.6,0.4,31c0,0.9,0.3,1.8,0.2,2.7c-0.2,17.6-0.6,35.3-0.6,52.9c0,10.9,0,21.9,0.6,32.8c0.5,10-1,12.4-10.6,12.5
	c-13.4,0.2-26.9,0.2-40.3,0c-7.1-0.1-8.4-2-8.3-8.9c0.2-25.9,0.4-51.9,0.5-77.8c0-37.5,0-75.1,0-112.6h0.1L2037.3,1717.5z"/>
<path class="st0" d="M2766.2,1597.6c3.5-0.5,6.1-1.1,8.7-1.2c13.8,0,27.5,0.3,41.2-0.1c5.9-0.2,9.3,2.1,11.4,7.1
	c5,12,9.9,24.2,15,36.2c4,9.5,8.4,18.9,12.3,28.4c6.8,16.9,13.3,34,20.2,50.9c6.6,16.3,13.9,32.4,20.3,48.7
	c6.5,16.4,12.1,33.1,18.5,49.4c4.3,10.9,9.3,21.5,14.8,34.4c2.7-3.9,4.5-5.7,5.4-8c3.7-9.4,6.9-18.9,10.5-28.2
	c9.4-24.4,18.8-48.7,28.4-73c9.3-23.5,18.8-46.8,28.4-70.2c8.7-21.3,17.7-42.6,26.5-63.9c4.4-10.8,6-11.9,17.6-11.8
	c11.9,0,23.8-0.2,35.8,0c3.5,0,7,0.8,11.7,1.4c-1.5,4.9-2.3,8.7-3.7,12.3c-8.4,20.2-17,40.3-25.6,60.4c-6.7,15.6-13.5,31.2-20,46.9
	c-6.9,16.6-13.3,33.3-20.4,49.9c-6.4,15.1-13.6,29.8-20.1,44.9c-4.3,10-7.9,20.4-12.1,30.5c-9.1,21.9-18.5,43.7-27.5,65.6
	c-2.5,6.1-6.1,9.5-12.9,9.4c-14.7-0.2-29.3-0.2-44-0.2c-5.1,0-8.6-1.8-10.7-6.9c-8.4-20.2-17.2-40.1-25.6-60.3
	c-6.3-15.2-12.1-30.6-18.5-45.7c-6.7-15.6-14-30.9-20.8-46.5c-4.1-9.5-7.6-19.2-11.6-28.8c-6.6-15.7-13.4-31.4-19.9-47.1
	c-6.5-15.4-12.9-30.9-19.2-46.3c-4.5-11-8.7-22-13-33.1C2766.9,1601.6,2766.8,1600.4,2766.2,1597.6L2766.2,1597.6z"/>
<path class="st0" d="M2254,1636.6c3.4-3.8,5.5-5.9,7.4-8.2c14.2-17.2,31.6-28.5,54-33.5c16.4-3.6,32.7-4.5,49.1-3.4
	c19.7,1.4,38.4,6.7,54.6,18.9c5.5,4.2,6.4,5.9,3.4,12.3c-3.9,8.2-8.7,16.1-13.1,24.1c-2.7,5-5.4,10-8.2,15.1
	c-9.6-4.3-18-8.4-26.7-11.8c-5.3-2-11.1-3.7-16.7-4c-9.4-0.5-19-0.4-28.4,0.4c-13.1,1.1-24.5,7.2-35.4,13.9
	c-16.1,9.9-27.1,24.4-34.4,41.7c-5.7,13.7-6.8,28.1-6.8,42.8c0.1,53.7,0,107.4,0,161.1c0,10.4-0.4,10.7-10.9,10.7
	c-11.3,0-22.6,0-33.9,0c-10.9,0-11-0.1-11-11.4c0-60.4,0-120.8,0-181.3c0-38.1,0-76.3,0-114.4c0-1.8-0.1-3.7,0-5.5
	c0.5-6.4,1.5-7.6,7.7-7.7c12.2-0.2,24.5-0.2,36.7,0c8.1,0.1,8.9,1.1,9.5,8.9c0.6,8.2,1,16.4,1.6,24.6c0.1,1.4,0.7,2.8,1.6,6.5
	L2254,1636.6z"/>
<path class="st0" d="M3444.7,1690.1c0-70.5,0-140.9,0-211.4c0-0.9,0-1.8,0-2.7c0.3-10.6,0.8-11.1,11.7-11.2c10.4,0,20.8,0,31.2-0.1
	c10.4,0,12.3,1.8,12.3,12.2c0,39,0,78.1,0,117.1c0,103.1,0,206.2,0,309.3c0,13.6,0,13.7-13.8,13.7c-9.8,0-19.6,0-29.3,0
	c-11.3,0-12.1-0.9-12.1-11.8C3444.7,1833.5,3444.7,1761.8,3444.7,1690.1L3444.7,1690.1L3444.7,1690.1z"/>
</svg>
