<?xml version="1.0" encoding="utf-8"?>
<!-- Generator: Adobe Illustrator 27.7.0, SVG Export Plug-In . SVG Version: 6.00 Build 0)  -->
<svg version="1.1" id="Layer_1" xmlns="http://www.w3.org/2000/svg" xmlns:xlink="http://www.w3.org/1999/xlink" x="0px" y="0px"
	 viewBox="0 0 3500 3500" style="enable-background:new 0 0 3500 3500;" xml:space="preserve">
<style type="text/css">
	.st0{fill-rule:evenodd;clip-rule:evenodd;fill:#423739;}
	.st1{fill-rule:evenodd;clip-rule:evenodd;fill:url(#SVGID_1_);}
	.st2{fill-rule:evenodd;clip-rule:evenodd;fill:url(#SVGID_00000181773280662801539740000000915241502884185513_);}
	.st3{fill-rule:evenodd;clip-rule:evenodd;fill:url(#SVGID_00000017482320950305748560000017012838311417077919_);}
	.st4{fill-rule:evenodd;clip-rule:evenodd;fill:url(#SVGID_00000060717853319991321260000008368271853644711848_);}
	.st5{fill-rule:evenodd;clip-rule:evenodd;fill:url(#SVGID_00000008858916216802264590000010305964667651768997_);}
	.st6{fill-rule:evenodd;clip-rule:evenodd;fill:url(#SVGID_00000111188762731696966450000004897365200910150796_);}
	.st7{fill-rule:evenodd;clip-rule:evenodd;fill:url(#SVGID_00000153707783822336763050000017613132098747717307_);}
	.st8{fill-rule:evenodd;clip-rule:evenodd;fill:url(#SVGID_00000171717970513781237240000015662381224748618907_);}
	.st9{fill-rule:evenodd;clip-rule:evenodd;fill:url(#SVGID_00000051359459949351642540000000624136804766811835_);}
	.st10{fill-rule:evenodd;clip-rule:evenodd;fill:url(#SVGID_00000049908743560222693420000017278081362039992724_);}
	.st11{fill-rule:evenodd;clip-rule:evenodd;fill:url(#SVGID_00000140706874942786115650000013784210132169255569_);}
	.st12{fill-rule:evenodd;clip-rule:evenodd;fill:url(#SVGID_00000003100137550282767610000006018433969565462163_);}
	.st13{fill-rule:evenodd;clip-rule:evenodd;fill:url(#SVGID_00000025420496035262252290000002007411926044187572_);}
	.st14{fill-rule:evenodd;clip-rule:evenodd;fill:url(#SVGID_00000077304989061132174300000002346522146033942916_);}
</style>
<g id="surface1">
	<path class="st0" d="M1840.1,1532.9c-18.5,0-35.4,12.3-40,30.8l-81.5,271l-106.1-301.8h-44.6c-13.8,0-24.6,7.7-29.2,21.5
		l-100,283.4L1354,1556c-3.1-13.9-16.9-23.1-29.2-23.1h-63.1l135.4,434.3h38.5c16.9,0,33.8-10.8,40-27.7l103.1-271l113.8,298.8h47.7
		c12.3,0,23.1-7.7,27.7-20l129.2-414.3H1840.1z M2873.9,1532.9H2817c-15.4,0-26.1,12.3-26.1,26.2v408.1h241.5
		c23.1,0,43.1-20,43.1-43.1v-35.4h-201.5V1532.9z M2647.7,1828.5c58.5-27.7,90.8-78.5,90.8-146.3c0-72.4-49.2-149.4-158.4-149.4
		H2397c-15.4,0-26.1,12.3-26.1,26.2v408.1h40c23.1,0,43.1-20,43.1-43.1v-86.2h93.8l106.1,129.3h98.4l-113.8-138.6
		C2640.1,1828.5,2647.7,1828.5,2647.7,1828.5z M2583.1,1759.2h-130.8v-147.8h129.2c27.7,0,44.6,13.8,53.8,24.6
		c10.8,13.8,16.9,32.3,16.9,49.3C2655.4,1716.1,2629.3,1759.2,2583.1,1759.2z M3260,1532.9h-124.6c-15.4,0-26.2,12.3-26.2,26.2
		v408.1h152.3c164.6,0,238.4-109.3,238.4-217.1C3498.5,1642.2,3424.6,1532.9,3260,1532.9z M3269.2,1888.6h-78.4v-277.2h78.4
		c46.1,0,83.1,15.4,109.2,44.7c23.1,24.6,35.4,58.5,35.4,93.9C3415.4,1816.2,3358.5,1888.6,3269.2,1888.6z"/>
	
		<linearGradient id="SVGID_1_" gradientUnits="userSpaceOnUse" x1="1694.8464" y1="1547.8667" x2="1699.5608" y2="1547.8667" gradientTransform="matrix(50.344 0 0 50.3981 -83333.3594 -76259.5938)">
		<stop  offset="0" style="stop-color:#43C4DC"/>
		<stop  offset="6.591000e-02" style="stop-color:#3EBCD8"/>
		<stop  offset="0.2703" style="stop-color:#29ADD0"/>
		<stop  offset="0.405" style="stop-color:#20A8CE"/>
		<stop  offset="0.5308" style="stop-color:#24A4CD"/>
		<stop  offset="0.7141" style="stop-color:#2C9ACA"/>
		<stop  offset="0.9318" style="stop-color:#3789C5"/>
		<stop  offset="1" style="stop-color:#3983C4"/>
	</linearGradient>
	<path class="st1" d="M2229.3,1750c0,65.5-53,118.6-118.4,118.6c-65.4,0-118.4-53.1-118.4-118.6s53-118.6,118.4-118.6
		C2176.3,1631.4,2229.3,1684.5,2229.3,1750z"/>
	
		<radialGradient id="SVGID_00000063615412107993980320000014639717305652971672_" cx="1698.2911" cy="1546.9954" r="3.8492" gradientTransform="matrix(50.344 0 0 50.3981 -83333.3594 -76259.5938)" gradientUnits="userSpaceOnUse">
		<stop  offset="0" style="stop-color:#0D91AE;stop-opacity:0"/>
		<stop  offset="0.8139" style="stop-color:#0D91AE;stop-opacity:0.8667"/>
		<stop  offset="0.9392" style="stop-color:#0D91AE"/>
	</radialGradient>
	<path style="fill-rule:evenodd;clip-rule:evenodd;fill:url(#SVGID_00000063615412107993980320000014639717305652971672_);" d="
		M2229.3,1750c0,65.5-53,118.6-118.4,118.6c-65.4,0-118.4-53.1-118.4-118.6s53-118.6,118.4-118.6
		C2176.3,1631.4,2229.3,1684.5,2229.3,1750z"/>
	
		<radialGradient id="SVGID_00000022544324465935378380000012534227000221150903_" cx="1695.8412" cy="1546.4551" r="4.3376" gradientTransform="matrix(50.344 0 0 50.3981 -83333.3594 -76259.5938)" gradientUnits="userSpaceOnUse">
		<stop  offset="1.871000e-02" style="stop-color:#0D91AE;stop-opacity:0"/>
		<stop  offset="0.3248" style="stop-color:#0D90AE;stop-opacity:0.3137"/>
		<stop  offset="0.5739" style="stop-color:#0D8AAF;stop-opacity:0.5647"/>
		<stop  offset="0.8024" style="stop-color:#0E81B0;stop-opacity:0.8"/>
		<stop  offset="1" style="stop-color:#0F76B1"/>
	</radialGradient>
	<path style="fill-rule:evenodd;clip-rule:evenodd;fill:url(#SVGID_00000022544324465935378380000012534227000221150903_);" d="
		M2229.3,1750c0,65.5-53,118.6-118.4,118.6c-65.4,0-118.4-53.1-118.4-118.6s53-118.6,118.4-118.6
		C2176.3,1631.4,2229.3,1684.5,2229.3,1750z"/>
	
		<radialGradient id="SVGID_00000114037266960851643200000001434917573730964159_" cx="1694.6807" cy="1535.824" r="3.0794" gradientTransform="matrix(80.9955 0 0 93.557 -135110.7188 -141918.2344)" gradientUnits="userSpaceOnUse">
		<stop  offset="0" style="stop-color:#C2C1BF"/>
		<stop  offset="1" style="stop-color:#23181B"/>
	</radialGradient>
	<path style="fill-rule:evenodd;clip-rule:evenodd;fill:url(#SVGID_00000114037266960851643200000001434917573730964159_);" d="
		M2189.3,1531.3l-18.5-4.6c-98.4-26.2-203.1,81.6-212.3,206.4c3.1-33.9,18.5-66.2,43.1-90.9c29.2-29.3,67.7-44.7,107.7-44.7
		c43.1,0,81.5,18.5,109.2,46.2c27.7,27.7,43.1,66.2,43.1,106.3c0,6.2,0,12.3-1.5,16.9c-9.2,124.7-113.8,232.5-212.3,206.4l-18.5-4.6
		c24.6,7.7,50.8,12.3,78.4,12.3c132.3,0,230.8-100.1,230.8-231C2341.6,1646.8,2280.1,1563.7,2189.3,1531.3z"/>
	
		<radialGradient id="SVGID_00000116233971904929455180000002202769234302248068_" cx="1692.8721" cy="1534.2196" r="4.7077" gradientTransform="matrix(80.9948 0 0 93.556 -135126.4219 -141918.8281)" gradientUnits="userSpaceOnUse">
		<stop  offset="0" style="stop-color:#C2C1BF"/>
		<stop  offset="1" style="stop-color:#23181B"/>
	</radialGradient>
	<path style="fill-rule:evenodd;clip-rule:evenodd;fill:url(#SVGID_00000116233971904929455180000002202769234302248068_);" d="
		M2110.9,1902.5c-55.4,0-104.6-29.3-130.8-75.5c-13.8-23.1-21.5-49.3-21.5-77c0-6.2,0-12.3,1.5-16.9
		c9.2-124.7,113.8-232.5,212.3-206.4l18.5,4.6c-24.6-7.7-50.8-12.3-78.4-12.3c-132.3,0-230.8,100.1-230.8,231
		c0,103.2,61.5,187.9,152.3,218.7l18.5,4.6c98.4,26.2,203.1-81.6,212.3-206.4C2253.9,1843.9,2187.8,1902.5,2110.9,1902.5z"/>
	
		<linearGradient id="SVGID_00000083810086929248394640000014981562375372029597_" gradientUnits="userSpaceOnUse" x1="1687.2911" y1="1532.8052" x2="1673.4075" y2="1534.6425" gradientTransform="matrix(86.007 0 0 92.1657 -143902.375 -139604.7656)">
		<stop  offset="0" style="stop-color:#43C4DC"/>
		<stop  offset="6.591000e-02" style="stop-color:#3EBCD8"/>
		<stop  offset="0.2703" style="stop-color:#29ADD0"/>
		<stop  offset="0.405" style="stop-color:#20A8CE"/>
		<stop  offset="0.5308" style="stop-color:#24A4CD"/>
		<stop  offset="0.7141" style="stop-color:#2C9ACA"/>
		<stop  offset="0.9318" style="stop-color:#3789C5"/>
		<stop  offset="1" style="stop-color:#3983C4"/>
	</linearGradient>
	<path style="fill-rule:evenodd;clip-rule:evenodd;fill:url(#SVGID_00000083810086929248394640000014981562375372029597_);" d="
		M638.6,1532.9H446.4c-16.9,0-30.8,13.8-30.8,30.8v405H491c21.5,0,40-18.5,40-40v-67.8h92.3l75.4,106.3h124.6L734,1839.3l10.8-6.2
		c41.5-26.2,70.8-81.6,70.8-137.1C814,1583.7,723.3,1532.9,638.6,1532.9z M640.2,1754.6H531V1636h109.2c38.5,0,58.5,29.3,58.5,58.5
		C698.6,1719.2,683.3,1754.6,640.2,1754.6z"/>
	
		<linearGradient id="SVGID_00000002347015923597362090000016066942268247108029_" gradientUnits="userSpaceOnUse" x1="1688.1125" y1="1532.0332" x2="1673.7675" y2="1533.8699" gradientTransform="matrix(83.2105 0 0 92.1625 -139267.7344 -139599.8125)">
		<stop  offset="0" style="stop-color:#43C4DC"/>
		<stop  offset="6.591000e-02" style="stop-color:#3EBCD8"/>
		<stop  offset="0.2703" style="stop-color:#29ADD0"/>
		<stop  offset="0.405" style="stop-color:#20A8CE"/>
		<stop  offset="0.5308" style="stop-color:#24A4CD"/>
		<stop  offset="0.7141" style="stop-color:#2C9ACA"/>
		<stop  offset="0.9318" style="stop-color:#3789C5"/>
		<stop  offset="1" style="stop-color:#3983C4"/>
	</linearGradient>
	<path style="fill-rule:evenodd;clip-rule:evenodd;fill:url(#SVGID_00000002347015923597362090000016066942268247108029_);" d="
		M137.1,1967.1H211c21.5,0,40-18.5,40-40v-289.5h104.6c18.5,0,33.8-15.4,33.8-33.9v-70.8H20.2c-12.3,0-21.5,9.2-21.5,21.5v83.2
		h138.4V1967.1z"/>
	
		<linearGradient id="SVGID_00000040565163297857880920000016343065595933971368_" gradientUnits="userSpaceOnUse" x1="1686.3888" y1="1533.2587" x2="1672.0431" y2="1535.0953" gradientTransform="matrix(83.2138 0 0 92.1657 -139097.3906 -139604.7656)">
		<stop  offset="0" style="stop-color:#43C4DC"/>
		<stop  offset="6.591000e-02" style="stop-color:#3EBCD8"/>
		<stop  offset="0.2703" style="stop-color:#29ADD0"/>
		<stop  offset="0.405" style="stop-color:#20A8CE"/>
		<stop  offset="0.5308" style="stop-color:#24A4CD"/>
		<stop  offset="0.7141" style="stop-color:#2C9ACA"/>
		<stop  offset="0.9318" style="stop-color:#3789C5"/>
		<stop  offset="1" style="stop-color:#3983C4"/>
	</linearGradient>
	<path style="fill-rule:evenodd;clip-rule:evenodd;fill:url(#SVGID_00000040565163297857880920000016343065595933971368_);" d="
		M966.3,1967.1h73.8c21.5,0,40-18.5,40-40v-289.5h104.6c18.5,0,33.8-15.4,33.8-33.9v-70.8H849.4c-12.3,0-21.5,9.2-21.5,21.5v83.2
		h138.5V1967.1z"/>
	
		<linearGradient id="SVGID_00000033360879770030824330000012256619192817865888_" gradientUnits="userSpaceOnUse" x1="1678.4045" y1="1537.563" x2="1680.6953" y2="1533.1644" gradientTransform="matrix(86.007 0 0 92.1657 -143902.375 -139604.7656)">
		<stop  offset="0" style="stop-color:#0F76B1"/>
		<stop  offset="0.2624" style="stop-color:#0F7AB1;stop-opacity:0.7373"/>
		<stop  offset="0.66" style="stop-color:#0E85B0;stop-opacity:0.3412"/>
		<stop  offset="1" style="stop-color:#0D91AE;stop-opacity:0"/>
	</linearGradient>
	<path style="fill-rule:evenodd;clip-rule:evenodd;fill:url(#SVGID_00000033360879770030824330000012256619192817865888_);" d="
		M638.6,1532.9H446.4c-16.9,0-30.8,13.8-30.8,30.8v405H491c21.5,0,40-18.5,40-40v-67.8h92.3l75.4,106.3h124.6L734,1839.3l10.8-6.2
		c41.5-26.2,70.8-81.6,70.8-137.1C814,1583.7,723.3,1532.9,638.6,1532.9z M640.2,1754.6H531V1636h109.2c38.5,0,58.5,29.3,58.5,58.5
		C698.6,1719.2,683.3,1754.6,640.2,1754.6z"/>
	
		<linearGradient id="SVGID_00000054962572296362194000000004732470515178791040_" gradientUnits="userSpaceOnUse" x1="1674.2045" y1="1535.4331" x2="1676.5719" y2="1531.0341" gradientTransform="matrix(83.2105 0 0 92.1625 -139267.7344 -139599.8125)">
		<stop  offset="0" style="stop-color:#0F76B1"/>
		<stop  offset="0.2624" style="stop-color:#0F7AB1;stop-opacity:0.7373"/>
		<stop  offset="0.66" style="stop-color:#0E85B0;stop-opacity:0.3412"/>
		<stop  offset="1" style="stop-color:#0D91AE;stop-opacity:0"/>
	</linearGradient>
	<path style="fill-rule:evenodd;clip-rule:evenodd;fill:url(#SVGID_00000054962572296362194000000004732470515178791040_);" d="
		M137.1,1967.1H211c21.5,0,40-18.5,40-40v-289.5h104.6c18.5,0,33.8-15.4,33.8-33.9v-70.8H20.2c-12.3,0-21.5,9.2-21.5,21.5v83.2
		h138.4V1967.1z"/>
	
		<linearGradient id="SVGID_00000137853493224553972120000000930718252972445102_" gradientUnits="userSpaceOnUse" x1="1680.1869" y1="1538.905" x2="1682.5543" y2="1534.5065" gradientTransform="matrix(83.2138 0 0 92.1657 -139097.3906 -139604.7656)">
		<stop  offset="0" style="stop-color:#0F76B1"/>
		<stop  offset="0.2624" style="stop-color:#0F7AB1;stop-opacity:0.7373"/>
		<stop  offset="0.66" style="stop-color:#0E85B0;stop-opacity:0.3412"/>
		<stop  offset="1" style="stop-color:#0D91AE;stop-opacity:0"/>
	</linearGradient>
	<path style="fill-rule:evenodd;clip-rule:evenodd;fill:url(#SVGID_00000137853493224553972120000000930718252972445102_);" d="
		M966.3,1967.1h73.8c21.5,0,40-18.5,40-40v-289.5h104.6c18.5,0,33.8-15.4,33.8-33.9v-70.8H849.4c-12.3,0-21.5,9.2-21.5,21.5v83.2
		h138.5V1967.1z"/>
	
		<linearGradient id="SVGID_00000073698692443554156190000010394039517896124544_" gradientUnits="userSpaceOnUse" x1="1681.4569" y1="1537.0325" x2="1680.2797" y2="1534.3579" gradientTransform="matrix(86.007 0 0 92.1657 -143902.375 -139604.7656)">
		<stop  offset="6.085000e-02" style="stop-color:#0D91AE"/>
		<stop  offset="1" style="stop-color:#0D91AE;stop-opacity:0"/>
	</linearGradient>
	<path style="fill-rule:evenodd;clip-rule:evenodd;fill:url(#SVGID_00000073698692443554156190000010394039517896124544_);" d="
		M638.6,1532.9H446.4c-16.9,0-30.8,13.8-30.8,30.8v405H491c21.5,0,40-18.5,40-40v-67.8h92.3l75.4,106.3h124.6L734,1839.3l10.8-6.2
		c41.5-26.2,70.8-81.6,70.8-137.1C814,1583.7,723.3,1532.9,638.6,1532.9z M640.2,1754.6H531V1636h109.2c38.5,0,58.5,29.3,58.5,58.5
		C698.6,1719.2,683.3,1754.6,640.2,1754.6z"/>
	
		<linearGradient id="SVGID_00000114069503400838102340000007899537509601899196_" gradientUnits="userSpaceOnUse" x1="1678.8989" y1="1538.262" x2="1677.6821" y2="1535.5872" gradientTransform="matrix(83.2105 0 0 92.1625 -139267.7344 -139599.8125)">
		<stop  offset="6.085000e-02" style="stop-color:#0D91AE"/>
		<stop  offset="1" style="stop-color:#0D91AE;stop-opacity:0"/>
	</linearGradient>
	<path style="fill-rule:evenodd;clip-rule:evenodd;fill:url(#SVGID_00000114069503400838102340000007899537509601899196_);" d="
		M137.1,1967.1H211c21.5,0,40-18.5,40-40v-289.5h104.6c18.5,0,33.8-15.4,33.8-33.9v-70.8H20.2c-12.3,0-21.5,9.2-21.5,21.5v83.2
		h138.4V1967.1z"/>
	
		<linearGradient id="SVGID_00000012436035901851037790000005264658421463601818_" gradientUnits="userSpaceOnUse" x1="1685.3375" y1="1535.1565" x2="1684.1212" y2="1532.4817" gradientTransform="matrix(83.2138 0 0 92.1657 -139097.3906 -139604.7656)">
		<stop  offset="6.085000e-02" style="stop-color:#0D91AE"/>
		<stop  offset="1" style="stop-color:#0D91AE;stop-opacity:0"/>
	</linearGradient>
	<path style="fill-rule:evenodd;clip-rule:evenodd;fill:url(#SVGID_00000012436035901851037790000005264658421463601818_);" d="
		M966.3,1967.1h73.8c21.5,0,40-18.5,40-40v-289.5h104.6c18.5,0,33.8-15.4,33.8-33.9v-70.8H849.4c-12.3,0-21.5,9.2-21.5,21.5v83.2
		h138.5V1967.1z"/>
</g>
</svg>
