<?xml version="1.0" encoding="utf-8"?>
<!-- Generator: Adobe Illustrator 27.7.0, SVG Export Plug-In . SVG Version: 6.00 Build 0)  -->
<svg version="1.1" id="Layer_1" xmlns="http://www.w3.org/2000/svg" xmlns:xlink="http://www.w3.org/1999/xlink" x="0px" y="0px"
	 viewBox="0 0 3500 3500" style="enable-background:new 0 0 3500 3500;" xml:space="preserve">
<style type="text/css">
	.st0{fill:#77BC1F;}
</style>
<path class="st0" d="M0,0h3500v3500H0V0z"/>
<path d="M2441.2,1349.9h-494.8v-118.1H3500v118.1h-470.1v918.2h-588.6L2441.2,1349.9z M1708.1,1231.9
	c160.8,6.2,287.7,138.7,286.8,299.6c0.5,129.9-83,245.2-206.6,285.1l338.4,451.6H1505l-301.4-437.1h-171v437.1H440.5V1231.9
	L1708.1,1231.9z M1242,1702.4c91.6-5.4,163.2-81.3,163-173.1c-0.1-45.8-18.3-89.7-50.7-122c-29.9-30.2-69.9-48.3-112.3-50.7h-209.3
	v345.9h210.6L1242,1702.4z"/>
</svg>
