<?xml version="1.0" encoding="UTF-8"?>
<svg id="Layer_1" data-name="Layer 1" xmlns="http://www.w3.org/2000/svg" version="1.1" viewBox="0 0 3500 3500">
  <defs>
    <style>
      .cls-1 {
        fill: #0181b2;
        stroke-width: 0px;
      }
    </style>
  </defs>
  <path class="cls-1" d="M1198.7,289.3c17.1,3.2,34.3,5.9,51.3,9.6,56,12.4,103.3,40.9,145.1,79.4,46.6,43,77.6,96.4,104.8,152.7,54,111.8,108.8,223.3,162.9,335.1,50.5,104.3,100.7,208.8,151.1,313.2,48.9,101.4,97.7,202.9,146.6,304.3,40.7,84.3,81.6,168.5,122.1,252.9,15.9,33.2,31.8,66.6,46.4,100.4,15.5,35.9,25.4,73.7,25.2,113-.3,71.3-26.1,133.5-71,188.3-38.5,46.9-87.1,76.7-146.6,88.3-27.7,5.4-55.2,6.7-83.8,3.8-50.4-5-94.1-26.2-137.3-49.4-54.8-29.5-111-55.7-169.6-76.5-42.9-15.2-86.3-29.8-130.4-40.7-44.2-10.9-89.4-17.9-134.4-24.8-26.3-4-53.1-4.1-79.7-6.2-5.1-.4-10.1-1.6-16.9-2.8,10.8-15.3,20.1-28.7,29.6-42.1,38.4-54.3,67.7-113.4,88.9-176.2,11.4-33.8,21.4-68.4,28.6-103.4,6.9-33.6,10.5-68,13.6-102.2,3.1-34.2,5.5-68.7,5.3-103-.2-47-6.2-93.7-15.3-139.9-10.4-52.5-25.2-103.8-45-153.3-17.1-42.7-37.4-84.3-57.1-125.9-21.9-46.2-41.3-93.1-52-143.3-11.5-54.1-8.7-106.2,21.2-154.5,18.7-30.2,44.4-52.5,76.7-67,4.7-2.1,9.8-3.1,14.7-4.7.7.8,1.4,1.6,2.1,2.3-2.5,4.4-4.6,9-7.4,13.2-27.9,41.6-40.4,87.9-40.5,137.5-.1,45.2.6,90.3,1.1,135.5,0,4.5,1.2,9,2.2,16,10.8-8.3,19.4-14.9,29.9-23,4.2,10.5,7.5,18.7,10.7,27,7,17.9,16.2,34.3,32.8,45.3,5.3,3.5,11.5,5.6,18.8,7.2-8.9-22-19.4-42.9-13.9-66.8,16.2-5.2,35.6-.2,47-19.3-11-7.5-21.3-14.3-31.5-21.5-30-21.1-54-47.2-68-81.6-13.5-33.2-15-66.9-4.5-101.1.8-2.5,2.4-4.7,3.6-7.1,1.1.1,2.2.2,3.4.3,0,7,.3,14,0,21-1.7,37.6,15.6,66.8,43.1,89.7,21.9,18.3,47.9,30.5,77.3,29.8,58.1-1.2,91.8-25.7,110.4-79.9,23.1-67.3,20.8-134.7-4.3-201.1-13.6-35.8-35.6-66.8-61.3-94.9-32.9-36-70.3-66.8-113.6-90.1-49.3-26.6-101.6-42.8-157.1-50.3-46.9-6.3-93.9-7.8-140.9-6-29,1.1-57.8,6.6-86.6,10.7-17.1,2.5-34.1,6.1-51.1,9.2-.8-.8-1.5-1.6-2.3-2.5,4.4-5.8,8.2-12.2,13.4-17.2,51.1-48.6,110.7-81.5,179.9-96.3,19.8-4.2,39.9-7.6,59.8-11.4,17.5,0,35,0,52.5,0Z"/>
  <path class="cls-1" d="M0,3204.8c6-13.2,12.4-26.2,17.9-39.6,59.6-144.5,119-289.1,178.4-433.7,24.4-59.3,48.9-118.5,73.1-177.8,9.5-23.3,26.1-37.5,51.3-39.2,25.8-1.7,47.1,7.7,59.2,31.5,9.4,18.6,17.7,37.8,25.7,57.1,61.5,150,122.8,300.2,184.2,450.2,19.1,46.7,38.4,93.4,57.6,140.1,2,4.8,3.6,9.8,5.7,15.6-3.6.6-5.8,1.3-8.1,1.3-34.5,0-69-.2-103.5.2-8.6.1-11.8-4.3-14.5-11.2-25.8-63.9-51.9-127.8-77.8-191.6-39.3-96.7-78.6-193.4-117.9-290.1-1.2-3.1-2.9-6-5.5-11.3-2.8,5.3-4.9,8.6-6.4,12.3-38.7,95.9-77.3,191.9-116,287.8-25.4,63-50.9,126-76.4,189-6.1,15-6.2,15-22,15-35,0-70,0-105,.1,0-1.9,0-3.9,0-5.8Z"/>
  <path class="cls-1" d="M2606,1315.1c4-30.9,7.6-58.7,11.3-86.4,5.7-43.4,8.5-86.8,2.6-130.5-5.7-41.5-29-69.8-65.2-88.8-24.2-12.7-50.5-17.1-77.3-18.2-32.5-1.2-65-2.1-97.5-2.2-84.1-.3-168.2-.2-252.3,0-52.5.1-105-1.6-156.7-11.2-94-17.4-178-55.4-243.7-126.8-43.6-47.4-69-103.8-76.7-168.1-6.7-56.3,1.4-110.6,23.2-162.5,17.1-40.8,43.9-74.9,76.5-105,39.2-36.2,84.1-62.1,133.6-80.8,38.4-14.5,78.3-22.2,118.8-27.6,50.7-6.7,101.6-6.6,152.6-6.6,289.2.1,578.4.1,867.6,0,44.4,0,88.5,2.8,131.8,12.7,84.4,19.2,161.3,53.7,221.7,118,35.7,38,62.6,81.6,76.5,132.2,30.3,110.5,1.6,205.8-75.7,288.1-35.9,38.2-78.8,67.2-124.1,93.1-143.3,82-286.3,164.5-429.4,246.9-67.8,39-135.5,78.1-203.2,117.1-3.7,2.1-7.7,3.6-14.4,6.6Z"/>
  <path class="cls-1" d="M2064.9,2212.3c3.5-1.7,7.5-2.8,10.4-5.3,54-45.8,90.4-104,113.6-169.8,24.6-69.7,18-138.3-15.6-204.5-36.5-71.8-72-144.2-107.7-216.4-15.9-32.2-31.7-64.4-46.8-96.9-8.3-17.9-7.6-18.5,9.4-28.1,87.4-49.6,174.9-99.1,262.3-148.6,75.2-42.6,150.4-85.2,225.6-127.7,2.8-1.6,5.9-2.8,11.5-5.4,0,5.9.5,9.9,0,13.8-5.2,37.9-12.5,75.6-15.3,113.7-2.1,29.8-1.4,60.5,3.1,90,7.2,46.5,37.5,75.2,81.2,90.4,25.4,8.8,51.8,13.7,78.5,13.9,132.6,1.2,265.2,1.6,397.8,2.4,97.6.6,188.5,25,269.6,80,81.3,55,132.3,131,144.2,229.1,9.9,81.6-12.5,156-63.6,220.9-58.5,74.3-136.2,118.3-226.7,141.6-40.7,10.5-82.2,14.5-124,14.5-328.5.2-657,.1-985.5,0-6.1,0-12.1-.6-18.2-.9-1.3-2.2-2.6-4.4-3.9-6.6Z"/>
  <path class="cls-1" d="M795.9,1121.6c-11.1-15.2-13-29.8-14.3-43.9-1.7-19.2-.6-38.6-.6-57.9,0-18.7,8-33.9,21.3-46.2,18.5-17.2,33.3-36.9,40.4-61.3,3.9-13.4,6.4-27.3,8.4-41.2,3.2-22.5,5.5-45.2,8.1-67.8.5-4.3.4-8.6.8-16-10.3,4-19.5,6.4-27.5,10.9-35.7,20-60.3,49.9-76.1,87.3-11.9,28.1-15.6,57.3-13.5,88,1.7,24.5-.6,49.4-1.8,74.1-.4,8.4-4.3,9.7-13.4,6.6-18.8-6.5-37.6-13-56.4-19.3-2.7-.9-5.6-1-11.6-2,2.7,6.9,3.3,13,6.7,16.6,13.3,14,27.2,27.5,41.4,40.6,7.1,6.5,15.4,11.8,23.4,17.3,18.8,13.1,29.7,31.3,35.9,53.7-2,1-3.6,2.5-5.2,2.4-26.7-1.2-52.9-2.5-76.4-18.9-13.7-9.5-29.7-16-45.2-22.5-21.6-9-43.1-.5-64.6,2.1-13.3,1.7-26.6,3.6-43.1,5.8,4.1-11.2,6.4-19.4,10-27,22.8-47.7,45.3-95.6,69.2-142.7,7.1-14.1,17.2-27.1,27.8-38.9,53.8-59.9,113.8-112.6,182.9-154.5,17.4-10.6,35.7-19.6,53.8-28.9,5-2.6,10.7-3.7,18.7-6.4-.4,6.3-.2,10.4-1,14.3-11.8,55.4-16.2,111.2-12.8,167.8,3,49.5,11.2,98.1,21.5,146.5,15.4,72.1,37.2,142.4,60.1,212.4,12.6,38.7,25.1,77.5,34.9,117,12.4,49.8,21.8,100.4,23.8,152,.9,22.8,2.4,45.6,2,68.3-1.2,74.4-16.5,145.7-54.7,210.2-33.4,56.4-77.2,103.6-135.6,135.2-54.7,29.6-113.7,34.8-174.2,24.8-71-11.7-133.1-41.7-183.6-93.7-24.2-24.9-43.2-53.6-58.2-84.9-25.9-54-38.8-111.2-44.4-170.6-4.3-46.1-2.1-91.9,0-138,1.6-35.6,13.2-66.9,29-98,23.7-46.7,45.4-94.4,68.1-141.6,14.5-30.2,29.3-60.2,44-90.3,1.2-2.5,3.4-4.6,5.6-7.5,18.9,7.6,36.9,15.4,46,36.9-4.5,3.9-8.5,8-13.2,11.1-60.8,40.6-96.2,97.7-108.5,169-11.3,65,18.8,127.3,73.1,161,23,14.3,47.3,12.6,71.4,2.9,14.9-6,29.2-13.1,43.8-19.8,12.4-5.6,14.9-4.7,20.9,8.1,4.7,10,3.6,12.1-8.6,18.6-18.4,9.9-37.3,18.9-54.7,30.4-9.8,6.4-18,16.2-24.8,25.9-9.3,13.4-5.5,34.5,6.6,47.1,10.2,10.7,31.5,14.5,44.5,6.2,8.3-5.3,17.1-12.3,21.7-20.7,12.2-22,22.1-45.2,33.2-67.8,2-4.1,5.6-11,7.9-10.7,6.9.7,14,3.5,20,7.2,1.7,1,.8,8-.4,11.7-5.3,17.1-12.8,33.7-16.2,51.2-3.1,16-2.8,32.8-2.2,49.2.4,12.1,7.7,20.1,20.1,23.7,22.7,6.7,42,2.2,51.6-14.5,7.7-13.5,5.8-28.5,1.5-42.5-6.9-22.1-15.5-43.7-23-65.7-1.5-4.5-3-12.7-.9-14.1,5.6-4,13.1-6.5,20-7.1,2.5-.2,6.1,6.4,8.3,10.4,8.9,16,16.5,32.9,26.5,48.2,7.1,10.8,17.1,19.8,25.9,29.4,7.8,8.5,17.9,10,28.2,6.5,14.5-4.9,24.8-15.2,30.8-29.2,5.9-13.7,2.2-26.5-8.9-35.5-12-9.7-24.9-18.5-38.4-26-14-7.7-29.1-13.3-43.7-19.9-3.9-1.8-7.6-3.9-12.1-6.2.9-4.4,1.3-8.2,2.5-11.7,4.4-13,7.1-13.8,20.2-9.3,17.9,6.2,35.6,13.2,54,17.1,13,2.8,27.1,2.8,40.4,1,17.1-2.3,27.4-19.7,27.1-41.1-.3-19.8-9.8-34-26.9-36-11.8-1.4-24.6-1.1-36,1.9-17.8,4.6-34.8,12.2-52.1,18.4-7.2,2.6-14.5,5.2-23.2,8.4-3.1-7.3-5.8-13.7-9-21.2,9.8-5.4,19-9.7,27.4-15.2,18.6-12.3,38.3-23.4,54.7-38.1,32.2-28.9,10.9-56.2-15.5-68.4-12.8-5.9-30.2-.3-41.1,14.1-9.6,12.7-17.6,26.7-24.7,40.9-6,12.1-9.7,25.3-14.5,38-4.1,10.9-6.7,12.2-17.3,8.8-11.3-3.7-13.2-7.2-9.7-18.3,5.4-17.1,12.1-33.8,16.1-51.2,2.9-12.6,3.4-26,3-39-.8-24.6-19-39.3-42.9-36.1-26.4,3.6-39,20.1-34.8,45.3,4.4,26.5,11.9,51.9,23.9,76,2.6,5.2,4.3,10.7,7.1,17.7-7.5,3.7-14.6,7.3-24,11.9-6.5-11.6-12.6-22.9-19.1-34-8.3-14.3-16.2-28.8-25.3-42.4-7.8-11.7-19.5-19-33.5-21-6-.9-12.4.2-18.5,1.2-10.3,1.7-14.2.7-15.8-9.4-2.3-14.7-5-30.3-2.2-44.5,4.2-21.2,12.6-41.7,19.9-62.2,3.8-10.6,12.3-16.6,22.7-21.2,28.4-12.4,58.2-18.3,88.6-22.2,3.8-.5,7.7,0,11.5,0,.4,1,.8,1.9,1.1,2.9-6.1,2.7-12.1,6.2-18.5,8-34.3,9.6-55.9,33.8-72.5,63.4-6.9,12.2-3.2,18,10.8,18.4,45.1,1.3,87.7-7.7,127.3-29.9,11.8-6.6,24-12.9,36.6-17.8,29.1-11.3,61.6-3.6,81.4,18.6,3.6,4.1,6,9.4,10.1,16-35-2.3-68.8-13.9-97.1,11.2,0,1.3,0,2.7,0,4,3.9.2,7.8.8,11.7.5,23.7-1.8,46.2,2.6,68.3,10.9,16,6,29.2,15.5,38.5,29.7,7.3,11.1,17.1,18.8,29.4,22.6,9.3,2.8,12.7,8.9,14.9,17.6,10.9,42.4,11.8,85.2,6.7,128.5-6,51-20.2,99.6-41.1,146.3-8.4,18.7-21.1,32.3-40.9,37.8.3,2.1.2,3.4.7,3.9,12,11.9,12.1,15.4-.4,25.9-17.1,14.3-34.4,28.2-53.2,43.5-1.1-4.6-2.3-7.5-2.3-10.5-.2-12.6.1-25.3-.3-37.9-.3-8.9-2.3-17.2-11.3-21.7-1.9,1.1-3.7,1.5-4.2,2.5-8.8,17.5-24.3,26.8-41,35.4-17.2,8.8-27.2,23.9-33.9,42-7.4,20-14.4,40.3-24.6,58.9-10.6,19.2-29,30.5-50.5,37.2-5-8.2.4-14.7,1.5-21.4,2.4-13.8,7.1-27.5,7.4-41.3.8-38.5-16.8-67.4-51.3-84.4-26.5-13-51.4-27.3-69.4-51.4-.7-.9-2.4-1.1-5.1-2.3-2.2,38-5.1,74.2,31.6,99.7,22.8,15.8,43.1,35.1,54.8,61.2,6.3,14,10.9,28.7,17.1,45.3-6.7.9-10.8,2.3-14.7,1.9-27.9-3.1-56.5-2.8-82.9-13.8-20.5-8.5-40.4-18.7-60.5-28.2-2.2-1-4-2.7-6.1-4-11.7-7.6-21.2-7.8-25.9-.6-4.4,6.7-.6,16.9,10.4,24.3,31.7,21.4,65.9,37,103.9,43.6,14.4,2.5,28.3,6.6,40,16.2,22.1,18.1,46.5,31.5,75.4,35.7,34.9,5,69.6,3.9,104.3-1.5,12.3-1.9,24.7-3.2,39.2-5.1-18.9-31.7-48.8-45.5-78.1-60,0-1.1,0-2.3,0-3.4,11.9-4.4,23.6-9.2,35.7-13,27.5-8.5,50.3,1.6,70.6,19.5,5.6,5,10.8,10.5,16.8,16.4,6.9-20.8,0-41.4-17.4-56.1-4.4-3.8-9.3-7.2-13-11.6-2.8-3.3-6.7-10.1-5.4-11.6,3.3-4.1,8.7-7.5,13.9-8.8,4.3-1.1,9.5,1.2,14.2,2.1,29.2,5.5,57.5,1.6,83.3-12.5,12.8-7,24-18,33.8-29.1,9.3-10.5,7.3-17.8-6-21.7-16.6-4.9-34.1-6.9-51.1-10.4-5-1-9.9-2.7-15.9-4.3,6.4-23,21.7-35.2,41.3-43.2,17.3-7,35-7.2,52.9-2.8,3.5.9,7.2.8,11.9,1.2-1.1-15.4-10.3-23.4-20-30.3-8.3-5.9-17.6-10.1-26.6-15-11.2-6-13-9.5-8.2-20.6,14-32.3,22.1-66.4,27-100.9,5.9-41.8,7.4-83.9.6-125.9-6.7-41.6-18.2-81.5-42.7-116.4-8.6-12.2-17.9-24.6-29-34.4-24.3-21.6-21.8-43-12.6-67.2,3.1-8.1,7.7-15.7,11.3-23.6,1.7-3.7,2.7-7.7,4.2-12.3-9.9-3.2-17.3,0-23.4,4.2-13.2,9-25.6,19-38.3,28.7-5.3,4.1-8.9,12.6-18,5.2-13.2-10.7-16.9-17.9-11.1-27.9,3.8-6.6,9.5-12.2,14.4-18.2,7.7-9.4,15.9-18.3,23-28.1,11.2-15.4,15.9-33.1,15.6-52.1-.3-17.4-1-34.7-1.6-55.1-25.6,14.1-40.9,33.3-53.5,55.2-12.8,22.3-13.4,47.8-17.6,75.4ZM423.2,1458c-1.5,0-2.9,0-4.4,0-4.7,19.6-9.9,39.1-14,58.9-5,24-.5,46.5,9.5,69.2,10.9,24.8,17.4,51.4,12.5,79.3-1.7,9.9-2,20.2-3.1,31.9,3.8-1.9,5.4-2.3,6.2-3.2,27.8-31.8,41.4-67.4,28.5-109.7-2.3-7.4-5.5-14.5-8.1-21.8-11.4-31.9-24.5-63.3-24.9-98,0-2.1-1.4-4.3-2.2-6.4Z"/>
  <path class="cls-1" d="M2445.8,2722.7c-2.1,4.7-4.6,9.2-6.2,14-15.4,44.4-30.7,89-46.1,133.4-15,43.5-30.2,87-45.2,130.5-14.7,42.6-29.2,85.2-44.1,127.8-6.1,17.4-12.7,34.6-19.4,51.7-4.9,12.4-14.4,19.8-27.6,20.6-15,.9-30.1,1.2-45.1.2-17.8-1.2-27.3-13.6-32.7-29.1-9.6-27.4-18.8-55-28.1-82.6-17.2-51-34.3-102-51.5-153.1-21.8-64.8-43.5-129.6-65.4-194.4-20.1-59.7-40.4-119.4-60.5-179.1-1-3.1-1.6-6.4-2.8-11.5,5.5-.7,10-1.7,14.6-1.7,23.3-.2,46.7-.2,70,0,13.5,0,13.8.1,18.3,13.7,19.5,59,38.8,118.1,58.3,177.2,31.9,96.9,63.8,193.8,95.7,290.6,1.8,5.3,3.9,10.5,7.2,19.2,4-8.1,6.8-12.6,8.5-17.5,18.4-54.2,36.5-108.5,54.9-162.6,22.6-66.5,45.5-133,68.3-199.5,10.4-30.3,20.4-60.7,31.2-90.8,7.9-22.1,19.3-29.9,42.6-30.3,9.2-.1,18.4.8,27.6,1.4,16,1,26.1,10.4,31.2,24.6,10.3,28.7,19.9,57.8,29.8,86.7,42.1,123.2,84.1,246.3,126.2,369.5,1.6,4.8,3.7,9.5,5.6,14.2,1.1,0,2.2,0,3.3,0,6.1-17.6,12.4-35.2,18.3-52.8,47.3-142.4,94.5-284.9,141.8-427.4,5.2-15.6,6.3-16.3,22.9-16.4,20.9,0,41.8,0,62.7,0,4.7,0,9.4.5,16.1.9-4.1,13.2-7.3,24.7-11.1,36-19.5,57.9-39.1,115.8-58.8,173.6-21.1,61.9-42.5,123.8-63.5,185.7-24.2,71.1-48.1,142.3-72.1,213.5-.8,2.3-1.3,4.7-2.2,7-10.4,28.5-20.6,35.6-50.9,35.6-2.9,0-5.8-.1-8.7,0-38.5,1.5-44.8-9.9-56.1-40.8-22.8-62.4-44-125.3-65.6-188.2-24.4-71.1-48.5-142.3-72.9-213.3-4.2-12.3-9.5-24.2-14.3-36.3-1.4-.1-2.7-.3-4.1-.4Z"/>
  <path class="cls-1" d="M1896.7,3007.2c24.9,29.8,48.2,57.7,72.8,87-14.9,13.8-29.3,27.4-44,40.6-47.7,43.1-104.7,63.5-167.9,70-42.3,4.3-84.5,4.6-126.2-4.3-90.1-19.3-158.2-70.2-205.3-148.5-74.4-123.8-64.4-279.6,26.3-391.9,67.7-83.9,157-125.2,265.1-116.1,105,8.8,184.2,62.7,239.5,151.5,38.7,62.2,53.4,130.7,49.2,203.5-.2,4.2-1.3,8.4-2.2,14.1h-509.8c-.2,4.5-1,7.4-.4,10,15.1,70.1,50.6,126.1,115.4,159.8,59.9,31.1,121.3,25.9,182,1.7,29.6-11.8,55.6-29.7,78.2-52.5,8.1-8.2,17-15.6,27.3-25ZM1895.5,2825c-1.1-6-1.7-9.8-2.6-13.5-9.1-35.9-25.5-68.1-49.2-96.5-53-63.2-138.1-88.1-211.9-59.9-75.8,28.9-118.1,86.9-136.6,164.1-.4,1.7.3,3.6.5,5.8h399.8Z"/>
  <path class="cls-1" d="M709.7,3201.7c-.3-7.7-.8-12.9-.8-18.1,0-205,0-409.9,0-614.9,0-2.9.2-5.8,0-8.7-.3-7.3,2.9-10.7,10.3-10.7,28.2.1,56.4.1,84.5,0,9,0,11.9,5.3,11.9,13.1.1,15.5,0,31.1.1,46.6,0,5.3,0,10.5,0,19.2,6.6-4.7,11.2-7.1,14.7-10.6,37.6-37.2,84-56.7,134.8-67.3,60.1-12.6,119.1-6.1,176.5,13.3,64.2,21.8,106.5,67.4,131.7,129.4,17.2,42.4,23.4,87,23.5,132.3.3,118,.1,236.1.1,354.1q0,22.3-22.8,22.3c-23.8,0-47.6,0-71.4,0-13.9,0-15.6-1.8-15.9-16.1-.2-12.1,0-24.3,0-36.4,0-108.3.1-216.6,0-324.9,0-27.8-4.2-54.9-13.8-81.3-17.7-48.6-51.6-78.7-101.5-91.2-49.3-12.4-97.8-8.2-144.1,11.3-53.2,22.3-84.9,64.3-99.8,119.5-9.1,33.6-10.8,67.8-10.8,102.3,0,97.1,0,194.3,0,291.4,0,3.4,0,6.8,0,10.2-.3,13.9-1.3,15.1-14.9,15.2-19.9.2-39.8,0-59.8,0-10.1,0-20.3,0-32.5,0Z"/>
  <path class="cls-1" d="M3139.6,3097h359.2c2.4,34.8.4,68.5,1.2,103.4-5.4.5-9.6,1.3-13.8,1.3-150.6,0-301.3.1-451.9,0-31.3,0-53.3-16.3-60.8-44.4-5.1-19.3.5-36.5,11.6-52.2,10.4-14.6,21.3-29,31.9-43.4,45-60.9,89.9-121.8,134.9-182.6,34.6-46.8,69.4-93.5,104.1-140.2,24.3-32.7,48.6-65.5,72.8-98.3,1.1-1.5,1.6-3.3,3.3-7h-333.7c-4.4-12-5.2-86.6-1.4-103.8,3.8-.4,8-1.1,12.2-1.1,143.8,0,287.7-.1,431.5,0,31,0,51.2,16.9,57.9,47,3.7,16.8-.7,31.9-10.5,45.3-25.1,34.6-50.5,68.9-75.8,103.3-41.1,55.9-82.1,111.9-123.2,167.8-46.5,63.4-93.1,126.7-139.7,190.1-2.8,3.8-5.2,7.8-9.9,14.8Z"/>
  <path class="cls-1" d="M941.7,683.1c-105.7,29.4-191.3,92.6-273.6,162.8.6-2.1,1-4.4,1.9-6.4,8.9-18.3,17.2-37,27.3-54.7,5.4-9.4,12.7-18.8,21.4-25.2,77.4-56.9,161.4-100.5,255.2-123.8,16.9-4.2,34.2-7.2,51.3-10.3,6-1.1,12.3-.9,21.9-1.6-4.2,7-6.4,11.5-9.3,15.5-36.1,50.3-57.3,106.8-67.8,167.2-7,40.3-6.5,81.2-5.2,122,1.8,60.2,14.8,118.3,36.6,174.2,12.3,31.6,27.5,62,40.9,93.2,27.9,65.1,50.6,132,67.1,201,15.1,63.4,19.1,127.7,15.5,192.3-5.8,101.5-37,195.3-96.6,278.2-52.4,72.9-119,130.5-200.3,169.3-35.2,16.8-73.1,25.1-112.7,25.9-35.3.6-69.9-2.3-103.7-12.5-37.5-11.3-72.3-28.2-103.3-52.3-54.8-42.6-97.5-95.5-132-155.3-35.2-60.9-55.7-126.8-65.7-196.1-2.4-16.7-2.5-34-1.1-50.8.9-10.2,6.1-20.3,10.5-29.9,5.1-11.2,11.3-21.9,17-32.9,1.1.3,2.1.6,3.2.9.3,3.1.9,6.2.9,9.3-.2,50,1.9,99.9,11.3,149.1,15.9,83.7,47.7,159.9,109.4,220.8,36.1,35.7,80.1,59.8,127,78,39.5,15.4,81.1,24.2,123.7,23.4,63.3-1.3,121-20.8,172.1-58.8,72.3-53.8,119.5-124.7,146-210.3,17.1-55.3,23.9-111.9,21.4-169.3-1.4-33.3-6.5-66.5-9.8-99.7-4.2-42.1-13.9-83.2-25.1-123.7-10.9-39.7-24.4-78.7-37-117.9-20.2-62.8-40.2-125.7-51.9-190.7-7-39.1-13.4-78.4-17.5-117.8-5.3-51.3-3.6-102.8,7-153.4,4.3-20.8,12.2-40.9,18.6-61.2,2.7-8.7,5.7-17.3,8.5-25.9-1-.8-2-1.7-3-2.5Z"/>
  <path class="cls-1" d="M1369.2,749.8c-25.1,7.5-38.2,32.8-32.6,56.9,6.2,26.6,38,49.6,65,45.2,8-1.3,16.8-6.1,22.4-12,18.8-19.8,29.7-43.9,34.5-70.9,9.7-54.4-4.6-102.6-36-147-36.3-51.3-81.5-92.1-137.9-120.3-34.2-17.1-70.4-28.7-108-33.4-45.6-5.7-91.5-7-137.7-2-52.5,5.6-103.3,17-153.3,33.2-17.9,5.8-35.8,11.3-57.4,18.2,3.6-9.3,5.6-15.5,8.3-21.3,18-38,18-39.3,62.7-50.1,40.5-9.8,81.3-18.9,123.3-20,30.5-.8,61.1-3.2,91.6-1.8,65.5,3.1,128.8,17.2,188.3,45.6,34.9,16.6,65.8,39,94.3,65.1,34.8,31.9,63.9,67.8,82.1,111.6,17.8,43,25.1,87.5,16.1,133.8-2.9,14.7-5.4,29.5-9.1,44.1-14.5,57-60.3,74.4-110.2,60.8-50.7-13.9-79.4-59.6-64-118.8.9-3.3,2.4-6.4,2.9-9.8,2.9-19.5,13.9-29.8,33.5-32.3,11.8-1.5,15.4-11.8,8.2-21.4-7.7-10.3-18.9-14.8-31.3-16.8-27.3-4.5-52,3.1-75.5,16.2-47,26.1-76.6,66.8-92.9,116.8-8.4,25.6-10.7,52.6-9,80.3,3.5,59.3,23.2,113.8,46.4,167.2,20.5,47.2,43.8,93,64.3,140.2,23,53.1,38.2,108.9,50.2,165.4,14.5,68.4,15.8,138,12.1,207.2-4.6,83.7-21.8,165.2-52.6,243.6-25.9,66-60.4,126.8-102,184.2-17.3,23.9-38.7,28-64.6,24.9-.7,0-1.3-1.3-3.1-3.1,8.2-9.6,16.4-19.5,24.8-29.2,51-59.1,88.5-126.1,115.3-199.3,16.7-45.7,28.1-92.8,35.4-140.8,8.9-58.7,9.4-118,6.4-177.2-3.4-66.8-18.9-131.3-38.4-195-19.7-64.6-43.8-127.4-72.1-188.8-12.2-26.3-22.8-53.5-31.8-81.1-14.9-45.5-22.7-92.5-19.4-140.4,3.8-56.9,16.4-111.3,53.7-157,30.2-36.9,68.5-62.5,114.7-72.9,52.3-11.8,96.4,7,127,52.8,18.3,27.3,23.6,57.1,15.3,89-1.9,7.4-4.8,14.8-8.6,21.5-9.8,17.5-29.7,23.2-47.6,14.3-26.1-13-32.3-40.5-14.1-63.2,2.7-3.3,5.6-6.5,10.5-12.3Z"/>
  <path class="cls-1" d="M559,2202.6c-18.5,7.9-36,16.6-55.1,18.9-8.4,1-17.9-3.5-26.4-6.7-34.8-13.4-65-34.6-94-57.7-37.7-30.1-70.6-65.1-101.7-101.8-40.3-47.6-74.1-99.6-102.4-155.2-5.1-10-7-19.6-2-30.4,5.6-12.2,10.1-25,15-37.5,1.2-.3,2.3-.5,3.5-.8,2.5,4.1,5.2,8.1,7.4,12.4,18.8,35.6,35.7,72.4,56.5,106.8,37.5,61.8,84.5,115.8,140.6,161.9,43.3,35.6,91.7,61.6,143.9,81,3.6,1.3,7.1,3,10.6,4.8,1.1.6,1.8,2,4,4.4Z"/>
  <path class="cls-1" d="M170.7,1945.4c68.1,114.7,152,214.4,269.9,281.4-.4,1-.9,1.9-1.3,2.9-4.1.4-8.2,1.4-12.2,1-35.4-3.1-70.4-8.6-103-23.5-34.2-15.7-62.4-39.3-86.5-67.6-31-36.4-51.8-78.4-63.2-124.7-4.3-17.3-5.6-35.4-7.8-53.1-.6-4.9.5-10.1.8-15.1,1.1-.4,2.2-.8,3.3-1.2Z"/>
  <path class="cls-1" d="M506.6,1490.4c-7.6-9.9-13.9-16.6-18.3-24.3-20.4-35.7-23.2-73.7-10.7-112.2,6.2-19.2,15.9-37.2,24.3-55.7,1.4-3.2,4.6-5.6,8.4-10.1,2.6,13.6,3.5,25.2,7.1,35.8,4.9,14.5,11.7,28.4,18.1,42.4,4,8.7,9.8,16.8,12.8,25.8,6.3,18.9,19.4,31.2,36.5,39.3,18.4,8.6,37.4,15.9,56.3,23.6,12.6,5.1,13.7,6.6,10.7,16.2-4.1,13.2-7.2,15.7-19.7,12.7-15.5-3.8-30.7-8.8-46.1-13.2-4.6-1.3-9.3-2.6-14-3.8-25.4-6.7-48.4-5.6-65.6,23.5Z"/>
  <path class="cls-1" d="M933.6,597.3c.4-3.7.2-6.2.9-8.4,8.9-25.6,18.4-51.1,34.7-73.2,9.8-13.4,22.3-21.4,39.7-19.3,15.5,1.9,22.7,11,19.1,26.1-1.8,7.4-4.7,14.9-8.8,21.4-13.8,22.1-57.1,49.1-85.6,53.4Z"/>
  <path class="cls-1" d="M843.6,641.1c0-13.5-.9-24,.2-34.3,1.8-16.8,4.4-33.5,7.8-50.1,3.1-15.1,9.3-28.6,25.7-34.2,20.9-7.2,36.8,6.4,33.8,28.4-3.1,22.6-14.4,41-29.4,57.1-10.7,11.4-20.6,24.2-38.1,33.1Z"/>
  <path class="cls-1" d="M1017.1,761.2c1.9-4.9,2.1-7.1,3.3-8.3,19.5-20.1,37.7-41.8,63.1-55.2,16.3-8.6,28.2-7.5,41.4,4,7.7,6.7,9.8,16.3,4.2,24.7-3.7,5.6-8.1,11.4-13.6,14.9-29.4,19-62.5,20.2-98.4,20Z"/>
  <path class="cls-1" d="M939.2,2001.9c1.5-1.2,2.8-3,4.4-3.4,25.1-5.3,50.1-10.8,75.3-15.2,13.5-2.4,25.9,1.3,35.7,11.9,12.5,13.5,9.5,30.5-7.6,37.5-7.4,3-16.1,5.5-23.9,4.8-30-2.8-57-14.1-81.7-31.2-1-.7-1.3-2.4-2.1-4.3Z"/>
  <path class="cls-1" d="M1070,570.7c1.9-4.4,2.7-8.3,4.9-11,13.7-16.9,27.1-34,41.9-50,5.7-6.1,14.2-9.8,22-13.6,8.9-4.3,18.1-2.5,26.7,1.7,11.2,5.4,14.8,16.2,10,28.1-5.5,13.6-17.1,21.1-29.1,27.1-21.4,10.6-44.4,16.3-68.2,19-2.2.2-4.5-.7-8.2-1.3Z"/>
  <path class="cls-1" d="M371,1857.3c-14.6,9.6-29.1,8.7-42.7,10.5-13.4,1.8-27.1,2.4-40.6,1.9-14.1-.6-26.5-5.6-33.4-19.5-8.5-16.9-1-33.6,17.8-35.7,9.7-1.1,20.4.6,29.9,3.6,25.1,7.8,47.9,20.3,69.1,39.2Z"/>
  <path class="cls-1" d="M1197.9,558.6c14.6-2.3,26.4-4.7,38.3-5.9,15.4-1.5,30.9-3,46.3-2.7,16.3.3,30.5,5.8,36.8,23.1,4.8,13.3.8,23.5-12.6,27.5-7.7,2.3-16.3,3.9-24.2,2.9-30.2-3.9-55.6-18.7-79.4-36.8-1.7-1.3-2.5-3.7-5.2-8.1Z"/>
  <path class="cls-1" d="M1082.9,654.3c3.9-3.6,5.7-5.9,8-7.3,20.1-12.6,40.2-25.4,60.6-37.4,12.6-7.4,25.9-10.8,39.7-1.5,15.5,10.4,17.4,26.6,3.6,38.9-5,4.4-11.1,8.2-17.4,10.2-26.4,8.5-53.5,7.8-80.5,2.9-4.3-.8-8.2-3.4-14-5.8Z"/>
  <path class="cls-1" d="M1009,1029.7c3.9-15.7,7.1-29.2,10.7-42.6,3.4-12.6,7.2-25.1,10.9-37.6,5.7-19.2,18.9-29.1,37.2-28,11.8.7,18.7,5.7,19.3,17.5.5,8.3-1,17.7-4.6,25.1-14.2,28.7-38,48.5-64.8,65-1.4.9-3.6.3-8.8.7Z"/>
  <path class="cls-1" d="M1050.1,1148.5c0-9.1-.5-16.2,0-23.1,2.1-23,1.8-46.3,11.4-68.2,4.6-10.4,11.3-17.9,21.6-22.2,15.7-6.6,29.6,1.8,31.1,18.6,1.1,12.4-1.7,24.1-7.6,34.9-11.7,21.6-28.8,38.7-46.7,55-2,1.8-4.8,2.5-9.8,5Z"/>
  <path class="cls-1" d="M653,2082.9c-.5,2.8-.1,5.9-1.5,7.9-14.3,21.2-28.1,42.9-43.7,63.1-12.8,16.5-30,19.9-44.9,11.7-9.9-5.4-14.5-13.8-10.1-24.1,3.9-9,9.4-18.4,16.7-24.7,22.5-19.3,50.1-28.4,78.5-35.3,1.2-.3,2.7.7,4.9,1.3Z"/>
  <path class="cls-1" d="M1084.5,1832.5c7.7-4.2,13.4-7.6,19.3-10.3,20.2-9.3,40.4-18.5,60.7-27.4,13.6-5.9,25.6-2.1,36,7.6,13.1,12.3,11.7,29.1-4.2,37.2-9.2,4.7-19.9,7.7-30.3,9.1-24.4,3.3-48.1-1.9-71.1-9.9-2.9-1-5.5-3.2-10.5-6.3Z"/>
  <path class="cls-1" d="M1146,1660.6c2.9-5.5,4.9-10.3,7.8-14.5,12.3-17.4,24.3-35.1,37.7-51.6,5.8-7.2,14.3-12.9,22.7-17.2,10.9-5.6,21.2-.9,29,7.2,7.6,7.9,6.5,17.5,2.6,27.2-4.6,11.5-13.8,18.6-23.6,24.9-21.1,13.5-44.4,21.4-69.1,25.4-1.7.3-3.6-.7-7.2-1.4Z"/>
  <path class="cls-1" d="M1091.2,1260.8c-1.3-5.7-2.8-8.9-2.6-12,1-25.2,1.5-50.5,10.2-74.5,2.7-7.5,7.1-15.1,12.7-20.8,10.2-10.3,22.6-11.2,33.2-4.4,8.6,5.5,13.1,17.6,8.6,29.8-4.6,12.6-10.2,25.4-18,36.3-9.5,13.3-21.6,24.9-32.8,37-2.5,2.7-6,4.6-11.2,8.6Z"/>
  <path class="cls-1" d="M1157.8,1565.8c.9-7.4,1.6-14.9,2.9-22.3,3.9-21.4,7.4-43.2,18.4-62.3,4.4-7.6,11.3-14.5,18.6-19.5,9.2-6.4,19.9-4.6,28.6,2,8.4,6.3,8.4,16,6.3,25.3-1.4,6.1-3.2,12.5-6.5,17.7-16.5,25.6-38.8,45.1-64.2,61.1-1.4-.6-2.7-1.3-4.1-1.9Z"/>
  <path class="cls-1" d="M1130.1,1361.5c-1.5-2.6-2.8-3.8-2.9-5-2-29-4.9-58.1,4-86.7,5-16.3,15-24.4,30.2-24.8,13.4-.3,19.9,4.7,22.3,17.9.7,3.8,1,7.8.4,11.6-5.4,36.6-27,63-54.1,87Z"/>
  <path class="cls-1" d="M494.2,2027.4c-3,1.5-5.7,3.6-8.7,4.2-20.8,4.2-41.7,8.4-62.7,12-7.6,1.3-15.5,1.8-23.1,1.1-13.2-1.2-22.4-8.3-26.7-21.2-3.9-11.8-.3-20.8,10.6-26.7,12.7-6.9,26.4-6.1,39.8-3.6,23.1,4.2,44.4,13.4,64.4,25.6,1.6,1,3.1,2.4,4.3,3.9.9,1,1.2,2.5,2.2,4.8Z"/>
  <path class="cls-1" d="M1141.1,1454.1c1-6.4,1.3-13,3-19.3,5.2-19.2,10.6-38.3,16.4-57.3,3.9-13,10.3-23.8,24.9-27.9,9.7-2.7,18.9-2.5,26,4.1,7.2,6.7,8.3,16.5,5.6,25.8-2,6.9-4.9,13.8-8.8,19.8-13.9,21.7-33,38-54.5,51.6-2.4,1.5-5.2,2.6-7.9,3.7-.8.3-1.8-.2-4.8-.6Z"/>
  <path class="cls-1" d="M1129.3,1748.6c8.5-7.6,14.7-13.5,21.1-19,14-11.9,27.9-24,42.4-35.2,14.3-11.1,30.7-11.5,43-2,11.8,9,13.7,21.6,3.7,32.7-5.4,6-12,11.6-19.2,15.2-25.5,12.7-52.9,14.5-80.7,12.2-2.3-.2-4.4-1.6-10.3-3.8Z"/>
  <path class="cls-1" d="M993.7,896.6c6.7-32.1,17.3-61.5,38.8-85.5,4.5-5,12.1-8.2,18.8-9.9,14.4-3.6,26.7,5.4,27.6,20.1.4,6.9-.6,15.2-4.1,20.8-18.7,29.8-48.8,43.6-81,54.5Z"/>
  <path class="cls-1" d="M1027.3,1932.6c.4-3,.3-3.7.6-3.8,27.9-20.4,56.5-39.1,93.4-36.2,11.6.9,19.8,6.4,24.5,17.5,3.4,7.8,2.6,14.9-3.9,19.5-7.7,5.5-16.2,11.5-25.2,13.5-30.7,7-60.1-.7-89.5-10.4Z"/>
  <path class="cls-1" d="M425.8,1955.1c-10.5,2-18.4,4.1-26.4,5-20.7,2.3-41.3,5.1-62.1,5.9-17,.6-27.7-8.3-32.8-23.7-4-12-.4-22.5,11.8-25.5,11.4-2.9,24.2-4.1,35.7-2,25.7,4.6,48.3,17,68.7,33.2,1.4,1.1,2.2,3,5.1,7.1Z"/>
  <path class="cls-1" d="M586.4,2072c-24.2,18.6-48.2,36.5-78,43.7-14.2,3.5-27,.4-37.4-10-9.7-9.8-9.3-22,2-29.9,7.7-5.5,16.8-10.6,25.9-12.2,29.4-5.2,58.3.7,87.4,8.4Z"/>
  <path class="cls-1" d="M764.2,699.5c-7.8-20.5-10.6-36.8-.4-54.5,11-18.8,19.4-39.1,29.1-58.7,2-4.1,5.1-7.7,8.3-12.4,11,9.7,13.7,20.9,12.1,32.5-5,35.9-23.6,64.7-49.2,93.1Z"/>
  <path class="cls-1" d="M317.1,1778.9c-26.7-1.2-51.9-5.5-76-14.5-11.9-4.5-13-6.8-7.5-18.2,5.5-11.6,11.6-22.8,18.1-35.4,31,16.1,49.9,40.2,65.4,68Z"/>
  <path class="cls-1" d="M743.6,1496.9c-.2,19.3-14.9,34.1-33.9,34.2-18.5.2-33.7-15.4-33.6-34.4.1-19.2,14.9-35,33-35.2,18.9-.2,34.6,16,34.4,35.3ZM691.2,1496.4c0,10,9.8,19.7,19.6,19.3,8.9-.3,17.7-10.2,17.6-19.7-.2-10.2-9.8-19.7-19.6-19.3-9,.4-17.6,10.1-17.6,19.7Z"/>
  <path class="cls-1" d="M735.4,2087.1c3.2,11.9-5.7,33.4-17.5,39.1-20.1,9.7-40.6,18.4-61,27.5-1.1.5-2.6.2-4,.3,3.6-24.5,50.9-62.6,82.5-66.8Z"/>
  <path class="cls-1" d="M912.9,2058c-29.7,14.8-35.5,10.1-39.4-6.5,13.8-3.5,25.6,1.4,39.4,6.5Z"/>
</svg>