<?xml version="1.0" encoding="utf-8"?>
<!-- Generator: Adobe Illustrator 27.7.0, SVG Export Plug-In . SVG Version: 6.00 Build 0)  -->
<svg version="1.1" id="Layer_1" xmlns="http://www.w3.org/2000/svg" xmlns:xlink="http://www.w3.org/1999/xlink" x="0px" y="0px"
	 viewBox="0 0 3500 3500" style="enable-background:new 0 0 3500 3500;" xml:space="preserve">
<style type="text/css">
	.st0{fill:#2B2B2B;}
	.st1{fill:#C91430;}
	.st2{fill:#F7F7F7;}
	.st3{fill:url(#SVGID_1_);}
</style>
<g>
	<path class="st0" d="M1170.2,2708.6c25.7,36.3,50.8,71.9,76.8,108.6c-19.5,0-37.6,0.1-55.7-0.2c-1.8,0-3.8-2.5-5.1-4.3
		c-19.7-28.3-39.3-56.6-58.7-85.1c-2.6-3.8-5.3-5-9.7-4.9c-13.8,0.2-27.5,0.1-41.9,0.1v94h-49.1c-0.1-1.9-0.3-4-0.3-6.1
		c0-84.5,0.1-169.1-0.2-253.6c0-5.8,1.7-7.4,7.3-7.5c29.8-0.6,59.7-2.1,89.5-2.3c23.1-0.2,45.5,4.1,65.4,16.8
		c27.8,17.7,37.7,43.8,34.6,75.7c-3.1,31.2-19.4,52.9-47.5,66.1C1174.2,2706.5,1172.7,2707.3,1170.2,2708.6L1170.2,2708.6z
		 M1076.1,2678.7c16.6,0,32.5,1.1,48.1-0.4c9.7-0.9,19.8-4.4,28.4-9.2c14-7.6,20.7-20.5,19.7-36.8c-1-15.7-9.9-26.1-23.7-32.1
		c-23.6-10.1-48-6.7-72.5-4.3L1076.1,2678.7L1076.1,2678.7z"/>
	<path class="st0" d="M783.7,2550.2h178.5v44.7H832.1c0,11,0,21,0,31.1c0,9.4,0.2,18.9-0.1,28.3c-0.2,4.9,1.4,6.4,6.3,6.3
		c34.9-0.2,69.8-0.1,104.8-0.1h8.2v44.1H832.1c0,12.5,0,24.1,0,35.6c0,8.4,0.4,16.7-0.1,25c-0.3,5.9,2.6,6.2,7.2,6.2
		c39.5-0.1,79.1-0.1,118.6-0.1c5.7,0,8.5,2.9,8.5,8.6c0,12.1,0,24.1,0,36.6H783.7L783.7,2550.2L783.7,2550.2z"/>
	<path class="st0" d="M258.9,2550.2h48.7c0,2.7,0,5.2,0,7.7c0,48.8-0.4,97.5,0.3,146.3c0.1,11.4,1.8,23.5,5.7,34.1
		c10.1,27,32.4,39.8,60.7,36.8c24.2-2.5,43-21.3,47.8-48.3c1.2-7.1,1.6-14.4,1.6-21.6c0.1-48.8,0.1-97.5,0.1-146.3
		c0-2.6,0-5.2,0-8.5H473c0.1,2.4,0.3,4.8,0.3,7.1c0,51.2,0.1,102.4,0,153.5c0,20.1-2.7,39.8-11.3,58.4c-12.1,26-32.3,42.4-59.6,49.8
		c-23.8,6.4-47.8,6.2-71.6-0.1c-38.5-10.1-64.9-41.1-70.4-82.4c-1.1-8.2-1.6-16.6-1.7-24.9c-0.1-51.6-0.1-103.2-0.1-154.8
		C258.6,2554.8,258.8,2552.7,258.9,2550.2L258.9,2550.2z"/>
	<path class="st0" d="M0,2779.6c10-12.9,19.5-25.2,29.3-37.9c12.8,11.8,26.4,21.2,42.2,27.2c19.6,7.5,39.5,10.4,59.9,3.3
		c17.8-6.2,26.2-22.1,20.7-38.4c-2.7-8-8.3-13.8-15.6-17c-12.2-5.4-24.8-9.8-37.4-14.4c-16.3-5.9-33.2-10.4-48.8-17.7
		c-55.9-25.7-45.5-94.4-12.5-119.4c16.9-12.8,36.1-19,56.8-20.3c39.6-2.4,75.2,7.7,104.5,35.9c1.1,1.1,2.1,2.2,3.2,3.4
		c0.4,0.5,0.8,1.1,1.5,2.1c-10.1,11.7-20.2,23.4-30.4,35.2c-7.8-6.3-14.9-12.8-22.7-18.3c-17.3-12.3-36.5-16.7-57.5-12.9
		c-9.3,1.7-17.8,5-24.2,12.2c-9.4,10.6-9.5,27.9,1.4,36.8c7.6,6.2,17,10.8,26.4,14.1c17.3,6.1,35.4,10.4,52.8,16.2
		c16.4,5.5,31.7,13.3,42.6,27.5c21.9,28.3,16.6,75-11.4,100.1c-18.5,16.7-41,23.2-65.3,24.2c-38.7,1.6-73.9-8.1-104.6-32.4
		C7.3,2786.6,4.1,2783.3,0,2779.6L0,2779.6z"/>
	<path class="st0" d="M587.3,2726.9v90h-48.6c-0.1-2.2-0.3-4.6-0.3-6.9c0-84.3,0-168.6-0.1-252.9c0-5.7,1.5-7.5,7.3-7.6
		c30.5-0.2,61-1.8,91.5-0.9c26.7,0.8,50.8,10.4,69.2,30.6c37.8,41.4,26.4,110.7-22.6,138c-28.1,15.6-57.9,17.5-88.8,11.1
		C592.7,2727.9,590.6,2727.5,587.3,2726.9L587.3,2726.9z M587.4,2595.7c0,28-0.1,55,0.1,81.9c0,1.6,1.8,4.3,3.2,4.6
		c22.3,4.8,44.5,5.8,65.2-6.2c15.5-9,22-23.3,20.7-41.1c-1.4-17.8-10.7-29.9-27.4-35.8C629.1,2592,608.6,2593.4,587.4,2595.7
		L587.4,2595.7z"/>
</g>
<g>
	<path class="st0" d="M2100.2,2656.3h118.5v-105.9h48.8v266.3h-48.4v-113.6h-118.5v113.4h-48.7v-266.2h48.3L2100.2,2656.3
		L2100.2,2656.3z"/>
	<path class="st0" d="M1740.2,2817.2c-17.1,0-33.1,0.2-49.2-0.2c-1.9-0.1-4.7-2.8-5.5-4.9c-6.8-16.9-13.4-33.9-19.7-51
		c-1.6-4.4-3.7-5.9-8.5-5.9c-34.5,0.2-69,0.2-103.4,0c-4.8,0-6.9,1.6-8.5,6c-6.2,16.9-12.8,33.6-19.1,50.5c-1.5,4.1-3.3,5.8-8,5.7
		c-15.1-0.4-30.3-0.1-46.4-0.1c5-12.9,9.6-25.1,14.4-37.3c28.5-72.7,57.1-145.5,85.6-218.2c4.6-11.8,4.5-11.9,17-11.9
		c13,0,25.9,0.3,38.9-0.1c5.2-0.1,7.7,1.4,9.7,6.3c16.7,42.7,33.6,85.4,50.5,128c16.5,41.8,33,83.7,49.5,125.6
		C1738.4,2811.8,1739.1,2814.1,1740.2,2817.2L1740.2,2817.2z M1647.1,2712.2c-13.9-36-27.4-71.1-41.4-107.5
		c-14.1,36.7-27.6,71.8-41.4,107.5H1647.1z"/>
	<path class="st0" d="M2386.3,2771.4h133v45.4h-182.2v-266.4h178.7v44.4h-129.4v65.8h118.6v44.1h-118.6L2386.3,2771.4L2386.3,2771.4
		z"/>
	<path class="st0" d="M1964.3,2744.4c12.8,11.7,25.1,22.9,37.3,34c-28.4,36-85.2,53.1-140.5,38.7c-57.9-15-94.6-62.7-97.4-127.5
		c-2.6-60.9,27.6-113.9,84.4-135.8c52.8-20.4,120.9-5.7,153.4,33.8c-11.4,12.5-22.9,25-34.8,37.9c-1.6-1.6-2.8-2.8-3.9-4.1
		c-38-44.4-109.4-36.2-136.7,15.6c-18,34.2-13.6,80.4,10.5,108.5c32.7,38.1,91.5,38.8,125.1,1.5
		C1963,2745.7,1964.2,2744.5,1964.3,2744.4L1964.3,2744.4z"/>
	<path class="st0" d="M1394.4,2816.8h-49.2c0-2.6,0-4.9,0-7.2c0-28.3,0.1-56.7-0.1-85c0-3.5-1-7.4-2.8-10.4
		c-30.7-52.5-61.6-104.9-92.4-157.4c-1.1-1.8-2-3.8-3.4-6.3c2.4-0.2,4.1-0.5,5.7-0.6c14.7,0,29.4,0.1,44.2-0.1
		c4-0.1,6.3,1.3,8.3,4.8c20.1,35.8,40.4,71.5,60.7,107.2c1.7,3,3.5,6,5.9,10.1c3-5.3,5.6-9.7,8-14.2c18.7-34.3,37.3-68.7,56.1-103
		c1.2-2.1,4-4.6,6.1-4.6c16.5-0.4,32.9-0.2,50.6-0.2c-1.2,2.6-1.9,4.5-2.9,6.2c-30,51.6-60.1,103.3-90.2,154.8
		c-3.1,5.3-4.7,10.5-4.6,16.7c0.2,27,0.1,54,0.1,81.1L1394.4,2816.8L1394.4,2816.8z"/>
</g>
<g>
	<path class="st0" d="M3401.7,2549.9c-5.6,14.9-10.9,29.1-16.2,43.1c-25.3,66.5-50.6,132.9-75.9,199.4c-2.6,6.8-5.4,13.5-7.6,20.3
		c-1.2,3.6-3.1,4.6-6.7,4.5c-14.9-0.2-29.9-0.2-44.8,0c-4.2,0.1-6-1.4-7.5-5.4c-17.1-45.4-34.4-90.7-51.7-136
		c-15-39.4-30-78.8-45-118.2c-0.8-2.2-1.5-4.4-2.4-7.2c1.9-0.3,3.1-0.6,4.3-0.6c14.7,0,29.4,0.1,44.2-0.1c3.7,0,5.4,1.2,6.6,4.7
		c15.6,42.5,31.3,84.9,46.9,127.3c8.8,23.9,17.6,47.8,26.4,71.7c0.5,1.4,1.2,2.7,2.3,5.2c3.5-9.8,6.8-18.6,9.9-27.4
		c20.8-58.5,41.7-117,62.4-175.6c1.6-4.6,3.8-6,8.5-5.9C3370.6,2550,3385.6,2549.8,3401.7,2549.9L3401.7,2549.9z"/>
	<path class="st0" d="M2995.5,2816.8v-220.8h-79.4v-45.7h208.1v45.4H3045v221.1H2995.5L2995.5,2816.8z"/>
	<path class="st0" d="M2642.3,2816.8v-220.8h-79.4v-45.7h208.1v45.4h-79.2v221.1H2642.3L2642.3,2816.8z"/>
</g>
<polygon class="st1" points="0,676 3500,1473.4 0,1473.4 "/>
<polyline class="st2" points="0,1473.4 0,2270.8 3500,1473.4 "/>
<linearGradient id="SVGID_1_" gradientUnits="userSpaceOnUse" x1="-7.8997" y1="-1067.3997" x2="1101.2203" y2="-1946.5496" gradientTransform="matrix(1 0 0 -1 0 0)">
	<stop  offset="0" style="stop-color:#FFFFFF;stop-opacity:0.4"/>
	<stop  offset="1" style="stop-color:#FFFFFF;stop-opacity:0"/>
</linearGradient>
<polygon class="st3" points="0,2270.8 1415.3,998.4 0,676 "/>
</svg>
