<?xml version="1.0" encoding="utf-8"?>
<!-- Generator: Adobe Illustrator 27.7.0, SVG Export Plug-In . SVG Version: 6.00 Build 0)  -->
<svg version="1.1" id="Layer_1" xmlns="http://www.w3.org/2000/svg" xmlns:xlink="http://www.w3.org/1999/xlink" x="0px" y="0px"
	 viewBox="0 0 3500 3500" style="enable-background:new 0 0 3500 3500;" xml:space="preserve">
<style type="text/css">
	.st0{fill:#13428A;}
</style>
<path class="st0" d="M0,767.3h3500v1965.3H0V767.3z M2552.5,1644.7c-4-8.1-5.9-11.2-7.2-14.6c-22.5-59.8-42-120.6-74.5-176.4
	c-30.1-51.6-70.7-92.3-121.4-122.9c-40.4-24.4-85.2-32.1-131.8-32.1c-267.7,0.3-535.3,0.2-803,0.6c-25.7,0-51.4,2.4-77,4.6
	c-52.7,4.7-96.7,28-133.6,65.1c-40.3,40.6-59.7,90.4-60.5,147.2c-0.7,57.3-0.2,114.7-0.3,172.1c0,6.8-0.7,13.6-1.1,21.7
	c-4.3-2.8-6.3-3.5-7.3-4.9c-55.4-82.3-110.8-164.7-166.2-247.1c-18.6-27.7-36.4-56.1-56.2-82.9c-30.7-41.7-71.3-69-123.5-75.6
	c-41.2-5.2-81.8-1.3-121.3,13.1c-30.6,11.2-51.6,31.3-65.3,60.4c-11,23.2-12.7,47.9-12.9,72.7c-0.6,87-0.3,174-0.4,261
	c0,10.2-0.9,20.3-1.4,31.9c-11,0.7-19.4,1.6-27.8,1.6c-77.4,0.2-154.9,0.2-232.3,0.3c-21,0-42.1-0.2-63.1-0.2
	c-42.4,0.1-86,32.8-86.1,94.7c0,41.7,36.3,86.3,85.2,85.9c138.6-1.1,277.2-0.7,415.8-0.5c28.1,0,50.4-12.1,67-33
	c16.8-21.2,26.4-45.7,26.2-74c-0.6-88.9-0.2-177.8-0.1-266.7c0-9.3,0-18.5,0-32.9c6.5,6.3,9.5,8.4,11.4,11.2
	c14.1,20.3,28.2,40.7,42,61.3c43.4,65.1,86.9,130.2,129.7,195.6c24.1,36.8,49.5,72.4,81.8,102.8c20.8,19.6,43.9,33.9,73.1,35.4
	c30.5,1.6,61.1,4.1,91.5,2.6c71.6-3.6,121.8-58.7,121-130.2c-0.4-38.2-2-76.5-1.1-114.7c1.1-45.8,3.5-91.5,6.8-137.2
	c2.3-32.9,16.4-48.8,48.2-55.2c25.1-5.1,50.6-2.8,76.8-0.9c-4.8,27.4-9.8,51.7-13.2,76.1c-16.4,120.3,14.2,222.5,113.2,300.1
	c51,40,106.7,61.2,171.7,60c73.6-1.3,147.2,0.2,220.8-0.8c105.4-1.4,180.9-57.4,235.6-140.8c44.1-67.2,50.9-144.8,38.1-223.7
	c-3.7-23.1-8.2-46.2-12.7-71.5c8,0.5,13.6,0,18.8,1.4c43.1,10.5,72.7,36.9,88.7,78c28.4,72.9,56.1,146.1,84.5,219
	c7.6,19.5,15.4,39.3,25.9,57.3c18.9,32.4,41.5,60.4,79.4,74.7c63.9,24,127.9-2.7,156.7-43c23.8-33.3,39.1-69.9,52.3-107.6
	c17.6-50.4,33.7-101.4,50.6-152.1c2.2-6.6,5.8-12.7,10.6-22.9c21.7,63.3,42.4,121.7,61.7,180.4c13.2,40.3,29.5,78.5,58.2,110.6
	c34.4,38.3,112.2,69.9,176.1,20.5c32.5-25.1,54.9-58.3,71-95.5c42.9-98.9,85.3-198.1,127.2-297.4c12.6-29.9,24.9-60.1,34.6-90.9
	c13.6-43.3-7.1-89.6-46.3-109.1c-41.7-20.8-90.7-10.2-117.5,28.2c-13.5,19.3-23.5,41.3-33,63.1c-31.7,72.6-62.3,145.6-93.5,218.3
	c-3.9,9.1-9.2,17.6-15.6,29.6c-3.5-7.8-5.3-11-6.4-14.4c-18.8-57.1-38.2-114-56.2-171.3c-13-41.4-31-80-57.9-114.2
	c-15.7-20-35.2-35.3-59.8-42.4c-55.7-15.9-103.9-1.2-143.8,39.6c-21.6,22.1-36,49.5-46.7,78.3c-12.9,34.8-24.7,70.1-36.5,105.4
	c-12.4,37.1-24.2,74.3-38,117L2552.5,1644.7z M413.1,2279.6c52.6,0,105.2,0,157.7,0c9.6,0,19.2,0.5,28.7-0.2
	c34.9-2.4,62-37.8,45.9-74.7c-11.3-25.8-32-33.4-57.8-33.4c-115.7,0-231.4,0-347,0c-38.3,0-65.3,22.3-63.9,54.5
	c1.6,37.1,31.6,55.3,64.4,54.2c57.3-2,114.7-0.6,172.1-0.5L413.1,2279.6z M413.4,2102.7c51.6,0,103.1,0,154.7,0
	c10.5,0,21.1-0.7,31.5,0c22.2,1.7,48.1-25.1,50.9-50.1c2.5-22.7-14.6-47.4-38.2-54.4c-9-2.7-18.7-3.8-28.2-3.8
	c-113.6-0.3-227.2-0.3-340.9,0c-10.3,0-21.1,1.4-30.9,4.5c-28.4,8.8-51.6,49.7-21.5,83.8c12.1,13.7,26,20.5,45,20.3
	C295,2102.1,354.2,2102.7,413.4,2102.7L413.4,2102.7z M2645.8,2129.8c-14.3,0.8-22.3,1.3-30.8,1.7c-7.2,32.4-14,62.8-21.8,97.9
	c-8.6-35.6-16.2-66.7-23.7-97.9h-28.9c-7.3,31.5-14.2,61.9-22.1,96.2c-12.1-34.5-6.9-68.6-23.7-98.3c-10.1,0.7-19.3,1.4-31.4,2.3
	c13.4,50.9,18.8,100.8,38.5,148.4c11.1-1.2,20.2-2.1,29.7-3.2c7.6-31.3,14.6-60.4,22.1-91.3c4.2,16.4,8.1,31.1,11.7,45.8
	c3.8,15.4,7.3,30.9,10.9,45.7h35c11.4-48.5,22.5-95.4,34.7-147.5L2645.8,2129.8z M1070.2,2224.4c-1.1-0.4-2.1-0.8-3.2-1.2
	c-5.5-30.6-11.1-61.3-16.9-93.5c-11.7,0.6-20.8,1-33,1.6c10.8,50.8,19.8,98.9,33.6,146.6h31.3c7.6-29.6,14.8-58.2,22.1-86.8l3.5,1
	c7.3,28.4,14.6,56.8,22.1,86.1h31.8c11.5-48.3,23-96.1,35-146.3h-30.7c-6.3,31.2-12.3,61.6-19.6,97.9c-8.7-36.3-16-67.2-23.3-97.9
	H1092c-7.5,31.9-14.5,62.2-21.6,92.6L1070.2,2224.4z M720.6,2278v-102.4c17.5,38.1,32.5,70.7,47,102.2h35.9c5.5-28,5-124-1-147.7
	c-7.5,0.5-15.5,1-25.2,1.6v92.5c-1,0.2-2.1,0.4-3.1,0.5c-15-31.5-29.9-63.1-44.3-93.4h-35.7c-6,35.2-5.2,140.3,1.9,146.6L720.6,2278
	L720.6,2278z M2090.2,2186.1v-54.7h-29.4c-5.5,26.9-5.1,123.9,0.5,146.5h28.9c1-20.9,2-40.3,3-59.6h43.6c1,19.9,2,38.5,3.1,58.8
	h30.1v-145.6h-30.1c-1.2,18.9-2.2,36.5-3.3,54.6h-46.2H2090.2z M3189.5,2279.5c21,0,38.9,0.2,56.8,0c26.7-0.3,45.3-13.2,55.6-37.6
	c9.7-22.9,9-46.8,2.9-70.2c-5.5-21-20.4-35.2-41.5-39.4c-24.1-4.8-48.6-4.5-73.8,0.4V2279.5z M2685.2,2203.4
	c3.9,14.5,5.9,29.9,12.1,43.4c17.9,39.6,80.5,45.8,105.2,10.5c19.2-27.5,23.7-58.2,11.5-89.7c-20.8-53.8-79.5-53.4-108.7-20.8
	c-14,15.6-17.9,35.2-20,56.5L2685.2,2203.4z M1611.2,2205.9c-0.5-10.2-0.5-17.9-1.4-25.5c-3.5-28.3-24.6-51.1-50.6-55.1
	c-31.9-4.8-57.4,8.6-69.8,37.6c-9.7,22.8-9.5,46.7-3.4,70.2c8.5,32.6,28.5,46.8,62.8,46.3c30.8-0.5,51.8-17,59.3-47.8
	c2.2-9.2,2.3-18.9,3.1-25.8V2205.9z M2878.3,2129.9v147.8h27.4c1.1-20,2.2-38.5,3.4-60.2c14.7,2.5,26.3,4.4,39.2,6.6
	c0.9,11,1.6,19.4,2.4,27.7c0.7,8.3,1.6,16.5,2.4,25.7h28.2c0-14,1.3-26.4-0.4-38.3c-1.7-11.8-6.4-23.2-10.4-36.6
	c1.6-2.2,5.1-5.6,7.3-9.7c16.6-31.2,0.5-60.9-34.8-62.9c-20.7-1.2-41.6-0.2-64.8-0.2L2878.3,2129.9z M2329,2217.6v-30.3h-58.6v-32.8
	h61.6c-0.5-9.6-0.9-15.7-1.3-23.2h-95.2c0.4,49.4-1.4,97.3,1.3,146.7h95.4c1.3-7.6,2.5-14.4,4.1-24c-24.1-1-45.3-1.9-66.4-2.8v-33.6
	L2329,2217.6L2329,2217.6z M905.5,2154.2h61.7c-1.1-9.8-1.8-16.7-2.7-24.5c-17.6,0-32.9-0.2-48.1,0c-14.8,0.3-29.6,1-43.7,1.5
	c-5.2,42.9-3.7,125.6,3.1,148.3c14,0,29.1,0,44.1,0s30.2,0,46.5,0c1.2-9.7,2.1-16.6,3.3-25.8c-22.8-0.9-43.2-1.7-63.3-2.4v-34.4
	c10.6,0,19.2,0.2,27.7,0c9.3-0.2,18.6-0.8,29.8-1.3v-26.8c-20.6-0.9-39.2-1.8-58.4-2.6v-31.9L905.5,2154.2z M1241.1,2235.4
	c1.7,26.2,15.8,37.9,35.4,43.2c24.9,6.8,54.4-2.3,65.3-18.3c1.1-1.6,2.1-3.2,2.9-4.9c12-23.5,3.1-49.1-22.5-62
	c-11-5.5-23.2-8.6-34.4-13.8c-11.4-5.2-14.6-14.5-9.1-23c5.1-8,16.1-9.9,25.1-3c5.8,4.5,10.1,10.8,15.8,17.2
	c8.4-0.9,16.5-1.7,24.6-2.6c-4.7-27.9-13.7-37.9-36.7-42.4c-24.5-4.8-48.4,3.5-58.5,20.3s-8.4,35.2,6.3,49.3
	c6.6,6.4,15.1,11.2,23.4,15.5c7.5,3.9,16.4,5.3,23.9,9.1c11.9,6,16,16.8,10.9,25.6c-5.6,9.8-19.2,13.1-30.1,5.8
	c-6.8-4.6-12-11.6-18.8-18.3c-6.7,0.6-14,1.3-23.7,2.3L1241.1,2235.4z M1672.9,2130.8v146.8h27.4c1.2-19.7,2.3-38.1,3.5-59.2h57.3
	v-24.7c-20.3-1.2-38.9-2.4-57.2-3.5v-35.5h58.9c1-6,2.3-9.6,2.1-13.1c-0.2-3.5-2-6.9-3.2-10.8H1673H1672.9z M1936,2157.5v121.7
	c12.4-0.7,22-1.3,34.4-2V2157c12.8-1.3,22.9-2.2,35.1-3.4c-0.5-8.4-0.9-15.2-1.3-22.4h-105.4v22.5
	C1911,2155,1921.3,2156,1936,2157.5L1936,2157.5z M3044.7,2131v146.9h90.3c1.1-7.9,2.1-14.7,3.5-25.1h-62.4
	c-5.3-42.2,1.3-82.1-4.3-121.7L3044.7,2131L3044.7,2131z"/>
<path class="st0" d="M1833.2,1483.7c24.8,0,49.7-1.7,74.4,0.3c65.3,5.3,112.8,35.2,128.1,105.4c14.7,67.3-32.1,134.9-100.1,145
	c-61.7,9.1-123.6,9-185.5,5.1c-34.8-2.2-67-12.7-92.7-39c-54.5-55.8-48.6-140.2,13.4-187.4c25.2-19.2,54.2-27.7,85.2-29.1
	c25.7-1.2,51.5-0.2,77.3-0.2L1833.2,1483.7z"/>
<path class="st0" d="M3222.9,2253.7V2159c33.3-7.4,48.2,1.4,51.8,33.2c1.6,13.6-0.5,28.5-4.5,41.7
	C3265,2251.2,3252.3,2255.7,3222.9,2253.7L3222.9,2253.7z"/>
<path class="st0" d="M2746.5,2150.2c25.5,2,36,16.2,37.3,35.8c1.1,15.7-1,32-4.1,47.6c-2.4,12.1-12.4,19-24.8,20.4
	c-10.8,1.2-22-8-26.8-21.6c-7.1-20.3-9-41.2,0.2-61c4-8.7,12.8-15.2,18.1-21.2H2746.5z"/>
<path class="st0" d="M1580.9,2201.8c-2.4,12-4,22.3-6.7,32.3c-3.4,12.4-13.1,19-24.9,20.1c-12.3,1.2-22.1-5-26.9-16.7
	c-9.4-22.8-9.3-45.9-1-69.1c4-11.1,13.1-16.7,23.8-17.5c12.2-0.9,22.8,5.3,27.3,16.7C1577,2178.8,1578.4,2191.2,1580.9,2201.8
	L1580.9,2201.8z"/>
<path class="st0" d="M2909.4,2154.9c9.7,0,17.3-0.3,24.8,0c9.5,0.5,16.3,4.7,17.5,15c1.3,11.5-4.7,18.2-15.2,20.4
	c-8.1,1.7-16.5,1.5-27.1,2.3V2154.9z"/>
</svg>
