<?xml version="1.0" encoding="UTF-8"?>
<svg xmlns="http://www.w3.org/2000/svg" version="1.1" viewBox="0 0 312.4 312.4">
  <defs>
    <style>
      .cls-1 {
        fill: #ba0001;
      }
    </style>
  </defs>
  <!-- Generator: Adobe Illustrator 28.7.1, SVG Export Plug-In . SVG Version: 1.2.0 Build 142)  -->
  <g>
    <g id="_Шар_1" data-name="Шар_1">
      <path class="cls-1" d="M0,56.2v88.2h88.2V56.2H0ZM61.5,118.4c-1.6,2.2-3.9,3.9-6.4,4.9-3.2,1.2-6.6,1.8-10,1.7h-19.9v-49.5h18.6c5.5,0,9.7,1.1,12.7,3.3s4.5,5.4,4.5,9.5c0,2.2-.5,4.3-1.6,6.1-1.2,1.8-2.8,3.2-4.8,4.1,2.7.8,5,2.4,6.7,4.6,1.6,2.2,2.4,4.9,2.3,7.7.2,2.7-.6,5.4-2.1,7.6h0ZM48.9,94.2c1.4-1.2,2.2-2.9,2.1-4.8,0-3.9-2.7-5.9-8-5.9h-7.6v12.3h7.6c2.5,0,4.5-.5,5.9-1.6ZM44.2,103.7h-8.9v13.4h8.8c3,0,5.3-.6,6.9-1.7,1.6-1.1,2.5-2.9,2.4-4.9,0-4.6-3.1-6.9-9.2-6.8h0ZM110.2,56.2v88.2h88.2V56.2h-88.2ZM171.7,118.4c-1.6,2.2-3.9,3.9-6.4,4.9-3.2,1.2-6.6,1.8-10.1,1.7h-19.8v-49.5h18.6c5.5,0,9.7,1.1,12.8,3.3,3,2.2,4.5,5.4,4.5,9.5.1,2.2-.5,4.3-1.6,6.1-1.2,1.8-2.8,3.2-4.8,4.1,2.7.8,5,2.4,6.7,4.6,1.6,2.2,2.4,4.9,2.3,7.7.1,2.7-.7,5.4-2.2,7.6h0ZM159.1,94.2c1.4-1.2,2.2-2.9,2.1-4.8,0-3.9-2.7-5.9-8-5.9h-7.6v12.3h7.6c2.5,0,4.5-.5,5.9-1.6h0ZM154.4,103.7h-8.9v13.4h8.8c3,0,5.3-.6,6.9-1.7,1.6-1.1,2.5-2.9,2.4-4.9,0-4.6-3-6.9-9.2-6.8h0ZM220.4,144.4h88.2V56.2h-88.2v88.2h0ZM283.7,121.9c-2.2,1.2-4.7,2.1-7.1,2.7s-5.7,1-8.5,1c-3.6,0-7.3-.5-10.7-1.7-3-1.1-5.8-2.8-8.1-5-2.2-2.3-4-5-5-8-1.2-3.4-1.8-7-1.8-10.6-.1-3.6.6-7.1,1.8-10.4,1.2-3,2.9-5.7,5.2-8,2.4-2.3,5.2-4,8.2-5.1,3.4-1.2,7.1-1.8,10.7-1.8s5.2.3,7.8.8c2.4.5,4.7,1.4,6.8,2.5v9.7c-1.9-1.3-4-2.2-6.2-2.9-2.3-.7-4.7-1-7.1-1-3-.1-6,.6-8.7,1.9-2.4,1.2-4.3,3.2-5.5,5.5-1.4,2.7-2,5.7-1.9,8.8-.1,3,.5,6.1,1.9,8.8,1.2,2.4,3.1,4.3,5.4,5.5,2.7,1.3,5.6,2,8.6,1.9,5,0,9.9-1.4,14.2-4v9.4h0Z"/>
      <g>
        <polygon class="cls-1" points="98.8 240.8 137.3 240.8 137.3 254.6 82.2 254.6 82.2 177.4 135.3 177.4 135.3 191.2 98.8 191.2 98.8 208 131.2 208 131.2 221.8 98.8 221.8 98.8 240.8"/>
        <path class="cls-1" d="M231.3,177.4h17.8c-3,13-6.2,26-9.6,39-3.4,12.8-6.9,25.5-10.6,38.2h-17.6c-4.9-17.3-9.5-34.8-14-52.2-4.3,17.5-8.9,34.9-13.8,52.2h-17.6c-3.7-12.7-7.2-25.4-10.6-38.2-3.4-12.9-6.6-25.9-9.6-39h18.1c1.8,10,3.7,20,5.7,30s4.1,19.8,6.4,29.5c4.8-18.7,9.4-37.4,13.7-56.2h16.2c4.3,18.4,8.8,36.7,13.6,55,2.2-9.6,4.3-19.3,6.3-28.9,2-9.8,3.8-19.6,5.6-29.4Z"/>
        <path class="cls-1" d="M312.4,231.9c0,5.1-1.3,9.5-3.8,13.1s-6.2,6.4-10.9,8.3c-4.8,1.9-10.5,2.9-17.2,2.9s-8.5-.5-12.6-1.4c-4.2-.9-8.2-2.4-11.9-4.4v-14.9c7.4,4.6,15.8,7,24.5,7s8.6-.8,11.2-2.5c2.4-1.4,3.9-4.1,3.8-6.9,0-2.2-.6-4-1.9-5.2-1.4-1.4-3.1-2.4-5-3-2.3-.8-4.6-1.5-7-2.1-3.8-.9-7.6-2-11.2-3.5-2.9-1.1-5.7-2.7-8.2-4.6-2.2-1.7-3.9-3.9-5.1-6.4-1.2-2.8-1.8-5.9-1.7-8.9,0-4.9,1.2-9.1,3.7-12.6,2.7-3.7,6.3-6.5,10.5-8.1,4.5-1.9,9.9-2.9,16.2-2.9s8.1.5,12.1,1.4c3.7.8,7.3,2.1,10.7,3.8v14.7c-3.3-2-7-3.5-10.7-4.5-3.9-1.1-8-1.6-12-1.6s-7.8.8-10.2,2.3c-2.3,1.3-3.7,3.8-3.6,6.5-.1,1.8.5,3.5,1.7,4.8,1.4,1.3,3.1,2.3,4.9,2.9,2.1.8,4.6,1.5,7.5,2.2,3.7.9,7.1,2,10.2,3.1,3,1,5.8,2.5,8.4,4.3,2.4,1.7,4.3,4,5.6,6.6,1.3,2.5,2,5.7,2,9.6Z"/>
        <path class="cls-1" d="M66.9,177.4v77.2h-16.8c-5.6-9-11.3-18-17-27-5.6-8.8-11.3-17.6-17-26.3v53.3H0v-77.2h16.8c5.8,8.7,11.5,17.4,17.2,26.2s11.3,17.7,16.9,26.6v-52.8h16Z"/>
      </g>
    </g>
  </g>
</svg>