<?xml version="1.0" encoding="utf-8"?>
<!-- Generator: Adobe Illustrator 27.7.0, SVG Export Plug-In . SVG Version: 6.00 Build 0)  -->
<svg version="1.1" id="Layer_1" xmlns="http://www.w3.org/2000/svg" xmlns:xlink="http://www.w3.org/1999/xlink" x="0px" y="0px"
	 viewBox="0 0 3500 3500" style="enable-background:new 0 0 3500 3500;" xml:space="preserve">
<style type="text/css">
	.st0{fill:url(#SVGID_1_);}
	.st1{fill:#D71769;}
	.st2{fill:#FFB436;}
</style>
<linearGradient id="SVGID_1_" gradientUnits="userSpaceOnUse" x1="196.3185" y1="-1372.0497" x2="2635.1985" y2="-1372.0497" gradientTransform="matrix(1 0 0 -1 0 0)">
	<stop  offset="0" style="stop-color:#4D010D"/>
	<stop  offset="0.5" style="stop-color:#CF2306"/>
	<stop  offset="1" style="stop-color:#52020D"/>
</linearGradient>
<path class="st0" d="M2176.1,2104.8c-12.2,33.8,4.4,72.5-16.8,105.8c-18.8-2.2-22.6-13.2-23-25.8c-0.6-17.4,0-34.9-0.2-52.4
	c-0.1-10.6-0.9-21.2-1.4-33.2c-10.1-0.6-17.6-0.3-24.8-1.6c-15.7-3-25.2-12.4-25.7-29.1c-0.3-8.7,0-17.5,0-26.2
	c2.6-217.1,5-434.3,8.1-651.4c0.8-58.9,3.4-117.7,5.8-176.5c0.4-9.9,4.4-19.6,6.8-29.3c3-0.4,6-0.8,9-1.3c4.7,9.7,9.5,19.3,15,30.6
	c1.7-19.1,1.7-37.3,5.3-54.8c6.7-32.5,19.4-38.8,55.6-26.9c3.4-43.5,6.6-85.8,10.1-130c-7.3,0.4-11.9-0.4-15.5,1
	c-49.7,19.5-99.1,40-149.1,58.8c-16,6-21.1,15.4-22.3,31.5c-11.6,147.8-21.1,295.5-21.5,443.9c-0.2,80.4-10.5,160.8-15.6,241.3
	c-1.9,30.5-1.7,61.1-3.4,91.6c-1.4,25-14.8,35.5-38.4,32.2c-14.9-2.1-24-10-25.2-25.3c-0.7-8.7-0.3-17.5,0-26.2
	c4.2-123.1,8.6-246.3,12.5-369.4c1-30.4,0.1-60.9-1.9-91.5c-11.3,89.1,7.8,181.4-25.3,268.9c-20.3-4.9-19.6-18.1-20.3-29.7
	c-1.2-17.7-8-26.7-27.5-29.3c-25.8-3.3-29.7-10-29.9-37.8c-0.3-41.5,0.1-82.9,0.2-124.4c0-10.7,0-21.4,0-32.1c-2.1-1-4.2-2-6.3-3.1
	c-7.2,7.2-15.2,13.8-21.4,21.8c-70.3,91.1-149.9,173-241.5,242.6c-70.1,53.3-144.4,100-222.7,141.2c-64.7,34.1-134,55.4-200.5,84.2
	c-26,11.3-56.6,12.2-85.1,17.7c-5.3,1-12.8-0.8-15.9,2.2c-19.4,18.6-42.8,9.9-64.8,11c-26.1,1.4-52.1,4.2-78.3,4.8
	c-42.3,0.9-84.8,1.8-127-0.2c-19-0.9-37.8-8.1-56.4-13.6c-101.2-29.8-200.4-64.7-282.5-134.2c-89.5-75.8-153.8-169.4-189.2-281.4
	c-19.8-62.6-29.8-127-28.7-193.3c1.7-99.3,29.1-191.4,76.2-277.7C345.4,894.9,457,805.7,598.4,754.8
	c93.9-33.8,191.3-40.3,290.4-24.2c55.5,9,107.6,27.3,158.6,49.5c24.5,10.7,30.1,25.8,18.5,46.4c-9.4,16.6-23.3,20-45,9.9
	c-42.8-19.9-87.4-33-133.8-41.5c-151.9-27.8-287.4,10.3-410.2,100.3C398.1,953,344.6,1030.1,308,1119.7c-3,7.2-3.2,15.6,0.4,25.7
	c11.1-14.1,22.1-28.2,35.4-45.1c6.5,19.2,4.1,34.8-0.6,51.9c-10,36.6-17.6,73.9-25.7,111.1c-1.1,5,0.7,10.6,1.4,18
	c5.8,0.4,10.9,0.8,15.9,1c21.6,1,32.3,8.9,37.1,29.2c2,8.4,1.7,17.3,2.2,26c8.7,148.9,79.6,260.9,205.8,336.8
	c109.6,65.9,230.4,82.7,356.4,68c166.9-19.5,313.2-88.9,448.8-184.4c11-7.8,23-14.1,36.7-22.5c0,16.4-7.3,34.3-22,53.7
	c12.6-8.2,25.4-16.2,37.7-24.8c19.7-13.6,38.3-29.2,59-41.1c26-14.9,38.1-7.8,43.8,24c26-4.4,37.9-27.1,54.7-42.4
	c17.7-16.1,33.7-34.2,49.9-51.8c16-17.3,31.4-35,48.4-54c-60.5-53.4-117.4-103.7-176.3-155.7c-26.8,16.2-52.8,31.9-78.8,47.7
	c-133.2,81.2-278.4,110.7-432.8,100.1c-32.8-2.3-40.3-8.4-41.6-30.3c-1.6-24.8,6.4-33.8,32-33.8c33.8,0,67.7,1.2,101.5,1.2
	c121.8,0,230.7-41.2,331.7-106.3c11.6-7.5,20.9-18.4,33.8-30c-28.3-29-54.6-56.1-81.1-83c-60.6-61.6-112.5-129.1-148.1-208.8
	c-32.6-72.8-41.8-149-31.1-226.4c5-36.6,23.7-71.4,37.7-106.5c15.9-40.1,36.2-76.8,83.1-88.1c36.8-36,85.2-44.6,132.2-47.4
	c89-5.2,167.4,22.9,225.7,93.9c82.2,100,97.9,214.9,75.9,339c-20,112.5-78.4,204.3-151,288.9c-22.8,26.5-23.1,25.9,2.9,51.4
	c24.9,24.5,49.3,49.3,73.8,74.2c5.3,5.4,10.4,11.3,14.6,17.6c13.6,20.3,11.7,26.5-12.9,40.5c4.4,5,8,10.4,12.7,14.5
	c21.6,18.6,25.5,18.4,46.4-0.8c2.4-2.2,4.5-4.7,6.9-7c22.9-21,26.7-21.2,56.2,0.4c3.8-14.9,9.3-27.8,10.1-40.9
	c2.8-45.7,3.8-91.5,5.8-137.3c0.5-10.4,2.3-20.7,3.8-33.5c13,2.3,22.1,3.9,31.2,5.5c7.5-23.7,26.7-35.8,57.6-36.2
	c17.9-33.1-2.1-62-10.5-93.9c-7.8-0.7-15.2-2-22.5-2c-29.1,0.2-48.9-13.2-59.5-40.1c-2.6-1.1-5.5-3-8.6-3.4
	c-12.4-1.8-25-3.5-24-20.3c0.9-16.4,15.2-16.5,26.3-19.4c15.5-4.1,31.3-7.1,52.3-11.8c-12.3-27.4-22.1-51.2-33.6-74.2
	c-51.5-103.3-74.9-212.6-72.3-327.7c0.3-13.1-0.9-26.2-0.3-39.2c0.4-9.3,2.3-18.6,4.3-27.7c1.4-6.3,5.5-12.2,6.2-18.5
	c6.1-50.9,28.9-95.4,50.5-140.9c30-63.5,87-103.4,129.2-156.1c27.5,0,41.4-27.8,68.3-32.1c20.4-3.3,39.2-16.1,58.7-24.7
	c3.9-1.7,7.8-5,11.7-5.1c35.7-1.2,71.4-1,107.1-3.1c44.1-2.5,81.4,17.7,121.3,31.1c93.6,31.4,154.7,98.4,206.2,177.6
	c46.5,71.4,77.6,149.8,91.8,233c12.7,73.8,24.2,148.6,12.6,224.4c-7.3,47.3-11.7,95.1-19.8,142.2
	c-17.6,102.1-57.2,196.4-106.7,286.6c-48,87.6-108.9,165.8-181.9,234.1c-11.9,11.1-27.7,17.9-47.5,30.4c0,3.2,0.2,13.9,0,24.6
	c-2.4,146.1-3.2,292.3-7.9,438.4c-3.7,115.5-11.3,230.8-18.6,346.1c-7.9,125.1-17.3,250.1-26.3,375.1c-1.2,16.3-3.4,32.5-6.1,48.6
	c-3.6,21.8-14.8,30.2-36,28.5c-20-1.6-29.8-12.8-28.7-35.9c1.8-37,5-73.9,7.5-110.9c1.5-21.8,3.3-43.5,4.2-65.3
	c4.6-104.6,9-209.1,13.3-313.7c0.7-17.4,0-34.8,0-52.2L2176.1,2104.8z M2550.3,784.2h-30.4c-11.8-50.2,4-102.2-9.1-151.1
	c-48,1.5-52.4-2.4-59.1-47.7c-7.9-53-19.6-105.1-41-154.3c-25.1-57.9-59.9-108.3-113.1-144.9c-113.6-78.1-236.5-31.1-296.1,61.7
	c-34,52.9-49,111.1-48.7,173.6c0,13.1,1.2,26.3-0.5,39.2c-1.8,13.6-14,17.3-23.5,7.5c-4.6-4.7-7.1-11.6-10.5-17.6
	c-2.2,17.3-0.2,33.5,0.7,49.6c0.7,11.8,1.4,24.1-0.7,35.6c-2.8,15.5-11,26.2-29.9,20.9c-3.5-1-7.8,1-11.4,1.6
	c0,43.6,58.7,206.8,85.5,234.6c45.9-15.6,94.7-28.9,140.7-48.5c107.2-45.7,213-94.7,319.6-141.8c8.1-3.6,22.7-7.5,26-3.8
	c9.7,10.7,17.7,24.5,21.5,38.5c3.4,12.5-9.7,17.3-19.7,22.4c-46.7,23.5-93.3,47.3-139.7,71.4c-10.6,5.5-20.5,12.3-30.7,18.6
	c9.4,2.5,16.3-1,23.3-1.4c6.6-0.3,17.1,0.9,19,4.9c2.4,4.9-1.6,13.5-3.8,20.1c-0.9,2.8-4.2,5-6.8,6.9c-13.2,9.5-16.6,21.2-11.7,37.1
	c2.7,8.8,4.4,21,0.4,28.3c-13.9,25.6-11.7,52.7-12.4,79.9c-1.9,79.6-4.5,159.1-5.8,238.7c-0.3,21.9-6.1,44.7,5.1,70.8
	c12.2-11.4,23-19,30.6-28.9c37-48.5,75.7-95.9,109-146.8c48-73.5,79.4-155.3,101-240.1c11.2-44.1,14.7-90.1,21.7-135.2
	c2-4.9,5.7-9.8,5.7-14.8c0.4-61.7,0.3-123.4,0.3-185.1c-1.8,0-3.7,0-5.5,0L2550.3,784.2L2550.3,784.2z M1506.3,1022.7
	c15.1,15.4,24.9,25.4,37,37.8c24.9-45.1,53.6-81.7,69-126c-4.9-2.7-7.6-4.6-10.5-5.8c-34.4-14.4-36.6-21.2-26.2-57.2
	c7.2-25,14.6-50.7,16.1-76.4c2.9-50.8-5.6-100-37.7-142.1c-26.5-34.8-75-51.7-109.7-36.5c-42,18.4-61.9,53.4-65.8,97.6
	c-3.7,42.2,5.8,81.8,24.9,119.8c28.3,56.4,69.6,102.4,112.1,147.7c9.9,10.5,17.9,22.8,30.5,39
	C1530.5,1021.4,1522.4,1021.8,1506.3,1022.7L1506.3,1022.7z M1685.7,822.2c-9.6,48.1-23.7,95-47.9,138.1
	c-23.8,42.4-49.4,83.9-74.2,125.8c2.3,1.1,4.5,2.2,6.8,3.3c60.6-79.1,109.1-163.7,115.4-267.2L1685.7,822.2z M2184.4,2003.7
	c1.1,0.2,2.3,0.4,3.4,0.6v-240.9c-1.1,0-2.3,0-3.4,0V2003.7z M277.5,1415.8c1.1-0.3,2.3-0.5,3.4-0.8v-194.4c-1.1,0-2.3,0-3.4,0
	v195.1V1415.8z"/>
<path class="st1" d="M1398.6,2791.6c-14.3,7.1-28.7,13.9-42.7,21.5c-9.6,5.2-18.2,12.3-27.9,17c-12.3,5.9-24.2,3-32-8
	c-8-11.3-1.6-21.3,7.3-28.5c11.8-9.6,24.3-18.5,37.2-26.6c45.2-28.5,90.7-56.4,135.9-85c11-6.9,22.4-14.3,20.7-32.1
	c-15.7-5.8-26,6.9-37.8,12.3c-34.2,15.5-37.7,14.8-56.1-20.5c-22.1,2.4-38,18.4-56.3,28.9c-41.6,23.8-82.4,49.2-124.3,72.6
	c-19.6,10.9-41,19.4-57.4-9.6c-19.1,12.3-36.2,23.8-53.7,34.5c-16,9.8-31,23.9-52.7,17.3c-4-22.1,11.9-29,23.7-37
	c44.2-29.9,89-59.1,133.8-88.2c39.3-25.5,77.9-52.2,118.4-75.7c113.1-65.4,225.6-132.2,341.2-193.1
	c115.4-60.8,234.2-115.1,351.6-172.2c12.7-6.2,26.3-10.5,38.3-17.8c21.4-12.9,25.2-31.5,11.6-52.5c-6.5-10-15-18.7-21.8-28.6
	c-13.7-20.1-23.1-41.8-23-66.8c0.1-31.6,0.6-63.3-0.3-94.9c-0.9-28.4-13.2-36-37.6-22.2c-15.8,8.9-31.3,13.7-49.4,13.6
	c-56.9-0.1-94-41.7-88.7-99.6c2.8-30.3,2.6-60.9,6.2-91.1c4.9-41.1-15.5-71.5-39.7-100c-16.9-19.9-36.2-37.8-55-56.1
	c-16-15.6-25.1-16.1-42.9-3.2c-7,5.1-13,11.6-19.2,17.7c-80.6,79.1-171.1,144.8-267.3,203.5c-84.1,51.3-174.4,88.2-266.7,121
	c-13.9,4.9-28,10.6-47.5,2.5c260.5-76.5,472.3-221.6,656.3-417.3c0.8,13.4,2.4,26.8,2.4,40.2c-0.1,28.9,9.8,50.7,38.2,62.1
	c10.2,4.1,60.4,78.5,60.1,88.8c-1.3,42.5-2.5,84.9-5.2,127.3c-1.8,27.7-3.4,53.8,19.1,76c21.5,21.3,47.4,17.2,70.7,12
	c21.3-4.7,31.6-26,33.9-47.7c4.8-45.5,8.9-91,12.1-136.7c3.3-46.7,4.2-93.7,7.7-140.4c5.4-71.6,12.5-143.2,18-214.8
	c3.5-45.6,4.8-91.4,8.4-137c3.9-49.9,8.9-99.7,13.9-149.6c1.4-13.9,8.3-24.2,22.4-29.4c18.4-6.8,36.2-15.5,54.8-21.4
	c7-2.2,15.7,1,23.6,1.8c-2.2,9.8-1.5,25.9-7,28.4c-24.1,10.7-36.8,29.8-47.4,51.8c-1.8,3.8-4.6,8.4-8.1,10
	c-25.8,11.6-26.2,33.9-27.7,57.7c-14.6,236.4-10.7,473.1-13.4,709.8c-0.5,47.8-6.8,95.5-9.9,143.2c-1.7,26.1,8.3,48.8,31.7,59.7
	c22.3,10.4,27.2,25.5,25.3,46.9c-2.3,26.3,6.5,50.9,22.7,69.7c14.7,17,16.8,34,15.6,54.1c-4.2,68.5-7.5,137-12,205.4
	c-3.3,49.9-7,99.9-12.2,149.6c-3.9,37.7,15.8,62.1,54.5,64.2c3.3,0.2,6.6,0,9.8,0.4c46.2,5.2,58.5-3.4,64.8-49
	c3.7-26.9,4.9-54.2,7-81.4c4.3-56.4,8.5-112.9,12.4-169.4c3-43.5,4.7-87,7.9-130.5c5.9-81.4,12.9-162.8,18.5-244.2
	c3.3-47.8,4.9-95.8,7-143.7c5-114.3,9.6-228.6,14.7-342.9c1.3-29.3,4.8-58.6,5.6-88c0.6-20.3,9.4-34.9,23.6-48.2
	c46.2-43.4,87.6-91,124.7-142.6c49.2-68.5,87.7-142.6,120.4-220c30.3-71.7,49.2-146.5,60.9-223.1c13.4-87.5,15.5-175.3,6.4-263.8
	c-6.2-60.1-16.4-119.1-36.4-175.5c-51-143.4-134.5-260.8-276.6-328.1c-54.1-25.6-110.7-36.3-170.9-36.8
	c-72.9-0.7-140.4,14.6-203.8,49.5c-108,59.5-179.3,149.9-221.3,264.7c-17.4,47.4-26.7,96.5-30,146.8c-0.3,4.9-2.6,9.8-5.5,20.6
	c-81.3-81.4-171.3-134.2-287.1-114.7c-112.8,19-193.3,83.3-248,184.5c0-5.4-1.8-11.6,0.3-15.9c21.4-43.8,52.1-80.5,89.8-111
	c45.7-36.9,97.8-61.7,155.3-72.7c24.2-4.6,50.7-5.4,74.9-0.9c52.3,9.7,104,22.5,149.6,53.3c38.6,26.1,51.3,20.1,65.6-23.9
	c12.1-37.2,22.1-75.3,37.5-111.1c49-113.7,130.7-197.1,242.5-250.4c57.8-27.6,120.6-42.8,183.6-41.1c80.3,2.2,156.3,26.9,225.9,69.4
	c80.4,49.2,139.6,116.8,185.3,198.4c59.8,106.9,87,221.7,94.6,343.3c9.6,154.2-17.6,301.8-73.9,444.1
	c-46,116.3-108.7,223.2-195.7,314.6c-18.8,19.7-38,39.3-54.1,61.2c-9.1,12.4-16.1,28.9-17.1,44c-4.2,61.9-4.8,124.1-8.4,186.1
	c-5.3,92.3-12.2,184.6-18.1,276.9c-2.7,42.4-5,84.8-6.7,127.2c-0.3,7.9,3.1,16,5.7,28.2c28.6-10.9,53.5-21.1,78.9-29.9
	c98.9-34.2,197.2-70.7,297.3-101c114.7-34.7,230.7-65.4,346.8-94.8c73.9-18.8,149.1-32.8,223.9-47.6c14.5-2.9,33.3-8.4,42.9,18.2
	c-14.8,6.1-28.8,13.9-43.8,17.8c-110.7,28.5-222.2,53.9-332.3,84.8c-103.9,29.2-206.9,61.6-309,96.6
	c-96.6,33.1-191.5,71.4-287,107.8c-7.3,2.8-13.4,8.8-18.4,16.5c129.8-43.8,257.3-92.9,389.7-127.6c-14.5,24.4-40.3,27.5-62.6,36.7
	c-21.9,9.1-44.1,17.2-65.3,25.5c0,6.8-0.8,10.2,0.1,13c9.1,29.4,6.4,34.7-22.8,45.5c-40.9,15.1-82,29.5-122.5,45.6
	c-37.1,14.8-73.4,31.4-110,47.2c0.7,2.2,1.3,4.3,2,6.5c5.5,0,11.4,1.4,16.4-0.2c99.7-31.8,199.3-63.3,302.2-83.8
	c52.3-10.4,104-23.7,156.1-35.1c36.4-8,57.2,10.6,53.3,47.1c-1.5,14.4-12.2,19.6-24.6,22.4c-23.4,5.3-46.9,10.1-70.2,16
	c-130.1,33.1-258.6,71.5-384.3,119.1c-19.4,7.3-38.8,14.5-58.2,21.9c-15.8,6.1-24.5,16.6-21.2,38.6c54.9-5,101.7-37.7,156.7-42.9
	c5.6,20.1-7.4,27.6-19.3,34c-12.4,6.7-26.3,10.5-39.3,16.3c-9.6,4.3-18.6,9.8-30,15.9c6.7,14.6,12.4,26.1,17.3,38
	c13.6,32.9,10.4,41.5-21.2,56.3c-14.8,6.9-29.8,14-45.3,18.8c-28.4,8.8-39,29.6-41.1,56.7c-1,13,0,26.2-1.3,39.2
	c-1.3,14.1-2.6,28.3-6.2,41.9c-11.5,42.9-32.7,56.3-83,54.2c-38.5-1.6-66.2-24.7-73.7-61.4c-5.2-25.4-9.9-28.4-31.8-15.8
	c-112.6,64.5-225,129.3-337.3,194.4c-17.2,10-33.4,21.7-51.3,33.4c-10.4-20.1-0.5-30,9.2-38.2c29.8-25,60.3-49.2,93.6-76.2
	c-8,0.8-14.1-0.1-18.4,2.2c-36.3,19.9-72.3,40.5-108.5,60.6c-8.5,4.7-17.3,9.6-26.6,12.3c-22.5,6.6-38.5-2.7-45.2-25
	c-0.9-3.1-0.8-6.5-1.6-9.7c-6-25.1-12.9-28.5-36.6-16.1c-20.3,10.6-39.6,23-59.8,33.9c-12.4,6.7-25.4,12.6-38.4,18.1
	c-15.7,6.6-31.4,9.6-46.2-2.7c-15.3-12.7-7.6-27-1.2-41.4c-2.2-1.9-4.3-3.8-6.5-5.7L1398.6,2791.6z M2109.1,2457.7
	c-6.7-0.9-13.9-4.3-18.4-2.1c-62.3,30.3-124.2,61.3-185.9,92.6c-2.1,1.1-1.4,7.7-2.7,16.1c10.5-1.2,19.1-0.3,26.1-3.3
	c51.9-22.1,103.7-44.6,155-67.9C2096.7,2487,2110,2478.4,2109.1,2457.7L2109.1,2457.7z M1992.4,2404.2c40.1-7.2,74-27.8,106.5-51.7
	C2060,2362.2,2024.2,2378.8,1992.4,2404.2L1992.4,2404.2z"/>
<path class="st1" d="M3018.5,3208.2c9.3-29.7,19.4-59.3,27.9-89.3c11.9-41.9,22.4-84.2,34-126.3c7.2-26.2,16.5-33,44.4-33.8
	c13.1-0.4,26.3-0.8,39.3,0.5c23.4,2.3,29.9,12.7,23.8,35.3c-34.8,128.3-69.6,256.6-104.5,384.8c-8.5,31.3-13.4,34.7-45,35.8
	c-70.4,2.4-71.9,2-89.7-64.9c-30-112.6-59.4-225.4-88.6-338.2c-12.2-47.2-7-53.3,41.8-53.4c5.5,0,10.9-0.1,16.4,0
	c26.6,1,34.8,6.6,41.2,32.7c10.9,44.4,20.7,89.2,31.1,133.8c6.4,27.5,12.9,54.9,19.3,82.3c3,0.2,5.9,0.4,8.9,0.6L3018.5,3208.2z"/>
<path class="st1" d="M2649.6,3230.5c0-45.8,0.3-91.6-0.1-137.4c-0.3-29.2-2.3-30.7-32.1-31.5c-37.1-0.9-55.6-19.9-55.4-56.9
	c0.2-40.3,4.5-45.4,44.7-45.8c64.4-0.6,128.8-0.5,193.1,0c38.5,0.3,45.2,7.9,44.6,46.5c-0.9,54.5-2,55.6-54.5,56.2
	c-36.4,0.4-37,0.7-37.1,36.4c-0.2,90.5,0,181,0,271.6c0,39.4-5.9,45-45.5,45.7c-5.5,0-10.9,0.2-16.4,0c-33.3-1.1-40.6-7.7-41-40.7
	c-0.6-48-0.2-96-0.2-144L2649.6,3230.5z"/>
<path class="st2" d="M2426.1,3316c-6.8,1.1-13.1,2.8-19.4,3c-28.8,0.7-32.2-2.3-32.5-30.8c-0.4-38.2,0.2-76.3-0.3-114.5
	c-0.2-11.2-2.6-22.4-4.8-39.9c-45.8,52.1-76.7,106.9-122.9,151.7c-49.7-44.5-78.5-101.7-125.2-154.7c-4.2,18.6-8.8,30.4-9.2,42.2
	c-1,37.1-0.2,74.1-0.5,111.2c-0.3,35.7-3.4,37.9-44.4,30.4c-0.8-9.5-2.5-19.9-2.5-30.4c-0.2-68.7-0.4-137.4,0.1-206.1
	c0-12.1-5.3-27.4,12-33.6c16.3-5.9,39.8,0,50.6,13.4c25.7,32.4,51,65.2,76.4,97.9c9.3,12,17.9,24.8,27.8,36.3
	c15.9,18.6,23.3,18.6,38.3-0.7c33.5-42.9,66.8-86,99.3-129.7c8.5-11.4,17.1-18.7,31.9-18.6c22.4,0,29.8,4.1,29.9,24.5
	c0.6,78.5,0,157-0.3,235.5c0,4-2.6,8-4.2,12.9L2426.1,3316z"/>
<path class="st2" d="M619.2,3114.4c-3.7-29.9-23.7-31.6-46.1-31.2c-39.3,0.7-78.6-0.3-117.9,0.4c-31.3,0.6-47.2,28.9-32.5,56.8
	c7.3,13.8,21.4,13.6,34.5,13.6c48,0.2,96.1-0.1,144.1,0.3c11.9,0.1,24.1,1.1,35.5,4c23,5.9,31,15.2,32.3,39.1
	c1.3,23.9,1.2,48,0.4,72c-1,29.3-19.9,47.6-49.9,49.4c-14.1,0.8-28.4,0.3-42.6,0.3c-50.2,0-100.4,0-150.7,0
	c-8.7,0-17.5,0.3-26.2-0.7c-24.4-2.8-37.6-16.9-39-40.4c-1.4-24.4,2.4-28.1,37.5-35.5c12.8,27,36.7,31,64.7,29.9
	c40.3-1.6,80.8,0,121.2-0.6c28-0.4,32.1-5.1,32.7-32.6c0.7-30.3-3.9-37.1-31.4-37.7c-48-1-96.1-0.3-144.1-0.4
	c-10.9,0-21.9,0.2-32.7-1c-19-2.2-34.7-11.1-36.4-31.4c-2.5-29.1-4.6-58.7-1.7-87.6c2.5-24.1,21.3-37.3,46.2-37.6
	c66.6-0.6,133.2-0.6,199.8,0.2c10.3,0.1,21.7,4,30.5,9.5c13.6,8.3,22.1,21.8,20.2,38.5c-2,17.7-18.8,15.3-30.4,19.6
	c-3.9,1.5-8.4,1.4-18.2,2.9L619.2,3114.4z"/>
<path class="st2" d="M810.1,3316.4c-1.4-8.4-3.1-13.6-3.1-18.8c-0.2-76.3-0.5-152.7,0-229c0.1-22.1,3.4-24.4,24.6-25.2
	c25.4-1,32.5,3.5,33.9,24c1.2,18.5-0.3,37.1,0.8,55.6c1.2,21.7,8.6,30.2,30,30.7c50.2,1,100.4,1,150.5,0c21.1-0.5,27.7-9,28.9-31.6
	c0.9-17.4-0.4-34.9,0.6-52.3c1.2-22.3,6.6-26.3,31.8-26.3c25.3,0,31.6,4,31.8,26.1c0.7,75.2,0.6,150.5,0,225.7
	c-0.2,21.5-5.1,24.2-32.8,24c-26.8-0.2-30.2-2.5-31-25.9c-0.8-21.8,0.4-43.6-0.5-65.4c-0.9-22.3-5.3-27.2-27.4-27.5
	c-51.3-0.8-102.6-0.8-153.8,0c-23.2,0.4-27.5,5.7-28.3,30.3c-0.7,19.6,0.2,39.3-0.3,58.9c-0.6,27.4-3.1,29.7-30.4,29.5
	c-7.5,0-14.9-1.5-25.2-2.7L810.1,3316.4z"/>
<path class="st2" d="M1951.3,3314.2c-50.8,11.6-58,9.5-79.4-29.6c-9.5-17.3-21.3-26.1-41.3-25.8c-43.7,0.7-87.3,0.2-131,0.3
	c-20.4,0-33.8,7.8-43.1,27.9c-16.6,36.1-20.7,36.6-68.4,27.3c7.5-15.9,13.8-31.3,21.8-45.8c38.2-68.4,76.8-136.6,115.5-204.7
	c17.1-30,68.4-29.6,85.8,0.7c45.5,79.3,90.8,158.7,136.2,238.1C1948.9,3305.3,1949.4,3308.6,1951.3,3314.2z M1702.9,3206.4
	c39.4,10.7,73.8,8.3,107.6,3.7c14.2-1.9,13.1-15.2,7.4-26.2c-12-23.2-23.7-46.5-36.4-69.3c-8.5-15.2-20.8-15.8-29.7-0.4
	C1735.6,3142.3,1721.3,3171.4,1702.9,3206.4z"/>
<path class="st2" d="M1244.4,3043.9c18.2,0,37-2.7,54.5,1c11.3,2.4,22,12.8,30.7,21.8c24.7,25.8,48.2,52.8,75.5,83
	c12.6-11.1,24.5-19.8,34.3-30.5c12.5-13.6,23.9-28.3,34.5-43.3c22.5-31.8,52.2-39.5,91.3-28.1c-4.4,7.1-7.2,13.9-11.8,18.9
	c-32.6,35-65.1,70.3-98.9,104.2c-14.3,14.4-20.2,29.7-19.4,49.6c1,25-0.2,50.1,0.2,75.2c0.3,16.6-7.4,22.8-23.6,23.8
	c-35.5,2.1-40.4-1.6-40.8-36c-0.1-9.8-1.3-19.8,0.2-29.4c7.1-45.5-11.4-78.7-44.6-108.9c-31-28.2-57.7-61.2-86.3-92.1
	c1.4-3,2.7-6.1,4.1-9.1L1244.4,3043.9z"/>
<path class="st2" d="M2504.5,3164.6c0-98.1,0-196.2,0.1-294.3c0-10.8,0.7-21.8,3.2-32.2c0.9-3.8,7.7-8.6,11.9-8.7
	c4,0,10.3,4.7,11.7,8.7c2.7,8.1,3.7,17,3.7,25.6c0.2,198.4,0.2,396.8,0,595.2c0,9.7-0.8,19.8-3.7,29c-1.5,4.9-8.2,8.2-12.5,12.2
	c-4.6-5-11.4-9.3-13.2-15.1c-2.4-8.1-1.2-17.3-1.2-26C2504.5,3360.9,2504.5,3262.8,2504.5,3164.6L2504.5,3164.6z"/>
<path class="st2" d="M1043.2,1435.3c30.1-3.1,60.1-6.6,90.3-9.1c54-4.5,106.4-15.2,158.7-30.4c64.6-18.8,123.2-48,179.5-83.3
	c25.2-15.8,27.5-15.4,50,6c6.6,6.3,16.8,15.3,23.4,13.9c21.5-4.7,31.9,8.7,44.5,20.6c10.3,9.7,21.8,18.1,32.5,27.3
	c20.2,17.3,20.8,23.3,3.9,42.4c-15.9,18-32.1,35.6-48.3,53.3c-8.4,9.2-17.7,18-30.9,9.3c-21.8-14.3-41.8-7.1-61.5,3.9
	c-12.3,6.9-24,15-38,23.9c-27.3-18.2-51.2-6.7-75.5,11.5c-77.1,57.9-161.5,103.4-251.9,135.9c-43.1,15.5-85.9,37.5-134.3,34.4
	c-65.6,25.7-133.5,5.4-200.9,8.3c2.9-0.8,5.7-1.9,8.6-2.2c3.2-0.4,6.5-0.2,9.8-0.2c22.9,0,45.9-0.9,68.7,0.4
	c68.4,4,133.5-13.5,196.8-34.9c56.4-19,111.5-43.3,164.7-70.2c43.6-22,84.7-49.5,124.5-77.9c22.5-16.1,46.1-23.2,72.3-27
	c12.7-1.9,25.6-4.9,37.6-9.5c23.3-9.1,45.8-17.9,72-18.5c14.8-0.3,31.7-9,43.4-19c33.2-28.2,31.5-54.4-5.1-78.6
	c-21.5-14.2-45-26.8-69.3-35.1c-12.7-4.3-31.4-2-43.4,4.6c-76.8,42.2-157.1,75.2-243.3,90.6c-52.3,9.3-105.6,12.9-158.5,18.5
	c-6.8,0.7-14-1.8-21-2.8C1042.7,1439.4,1043,1437.4,1043.2,1435.3L1043.2,1435.3z"/>
<path class="st2" d="M1011.2,1285.8c7.1-1.3,14.1-3.3,21.2-3.7c39.1-2.4,78.2-4.3,117.3-6.6c61.9-3.6,118.8-24.5,174.2-50.4
	c4.9-2.3,9.3-5.7,13.7-8.9c20.9-15.6,23-29.1,6.2-49.4c-25.7-31-52.7-60.9-78.3-92c-38.2-46.4-70.3-96.6-91.5-153.4
	c-7.6-20.3-15.9-40.3-25.2-59.9c-13-27.4-18.3-28.5-43.9-13.3c-3.4,2-7.5,3-19.4,7.6c6.6-15.6,9.4-25,14.2-33.3
	c12.2-21,13.1-33.1-5.2-49.2c-16-14.1-35.7-24-54-35.5c-5.2-3.2-11.2-5.1-15.5-12.2c7.1,0.8,14.5,0.8,21.3,2.7
	c6.2,1.8,11.5,6.1,17.5,8.7c54.7,23.8,62,20.3,75.9-42c5.1,38,10.1,70,13.5,102.3c8.9,83.4,42.3,156.4,89.3,225
	c38.4,56.1,82.7,106.5,132.4,152.6c21.3,19.8,20.6,31.5-6.6,43.6c-48.5,21.6-96.7,46.5-147.8,58.6c-68,16.1-138.3,25.9-209.4,8.6
	L1011.2,1285.8z"/>
<path class="st2" d="M1636.2,1179.8c32.9-50.1,63.7-96.1,93.5-142.7c8.1-12.7,12.7-27.7,20-41c9.2-17,18.3-18.9,34.2-8.4
	c3.6,2.4,7.7,5,9.7,8.5c16,27.8,39.7,41.9,71.8,44.1c6.9,0.5,13.4,8.2,25.4,16.1c-25.9,16.1-45.4,32-67.7,41.3
	c-25.4,10.6-33.7,26.4-33.7,52.6c0,42.4-3.3,84.8-5.3,127.1c-0.5,10.5-3.7,21-15.7,21.2c-11.1,0.2-26.4,0.2-32.8-6.5
	c-33.9-35.2-65.7-72.5-98.1-109.2c-1.3-1.5-1.4-4-1.2-3.4L1636.2,1179.8z M1824.5,1060.7c-10.7-11.1-19.8-23-31.2-31.8
	c-16.2-12.4-27.8-12-39.3,4.3c-28.7,40.8-55.5,82.9-82.5,124.8c-8.6,13.3-7.5,27,4,38.7c18.3,18.6,36.1,37.8,55.3,55.3
	c16.8,15.3,29.2,11.5,34.4-11.8c4.2-18.8,3.8-38.7,5.2-58.1c2.7-37.2,6.8-73.7,38.5-100C1814.4,1077.5,1817.7,1070.3,1824.5,1060.7z
	"/>
<path class="st2" d="M2451.8,657.1c-53.4,24-104.8,47.3-156.3,70.1c-75.8,33.5-153.3,62.1-233.4,83.9c-23,6.3-45.4,14.7-68.4,21.3
	c-22.1,6.4-28.7,3.1-37.2-18.9c-12.6-32.5-23.9-65.4-37-97.7c-5.5-13.4-2.4-22.4,7.3-31.9c7.6-7.4,16.3-15.9,19-25.4
	c7.1-25.1,13.6-49.4,33.2-69c6.3-6.3,6.4-20.2,6.8-30.8c1-25.1-1.9-50.5,1-75.2c8.2-69.6,34.7-129.6,93.3-173
	c65.2-48.3,153-40.6,214.3,12.1c52.1,44.7,85.7,101.4,104.2,166.8c10.1,35.5,16.6,72.1,24.3,108.3c7.6,35.7,7.3,35.7,28.7,59.3
	L2451.8,657.1z M2178.1,298.2c-32.3-2-60.4,8.1-86.1,26.5c-63.1,45.1-87.2,111-90.9,184c-2.3,45.3-3.8,88.6-29,128.4
	c-9.1,14.5-11.9,32.9-20,48.2c-10.5,20.1-11.2,39.1-1.7,59.4c5.1,10.8,8.3,22.6,13.4,33.3c16.3,34.1,24.8,38.4,61.8,26.2
	c67.3-22.2,134.8-44,201-69.4c49.8-19.1,98-42.6,146.2-65.8c32.1-15.4,36.2-26.2,30.5-60c-1.6-9.7-2.4-19.5-4.1-29.1
	c-12.2-69.2-29.6-136.8-71.8-194.5c-36.7-50.2-83.8-85.4-149.2-87.4L2178.1,298.2z"/>
<path class="st2" d="M2482.9,780.9c9.7,15.8,19.4,30.1,27.4,45.3c3.2,6.1,5,14.7,3.6,21.4c-26.3,125-73.4,241.3-145,347.4
	c-9.3,13.8-20.9,26-32,39.5c-4.7-5.1-7.5-6.7-7.4-8.1c2.4-41.2,5-82.3,7.9-123.4c1.9-26.7,7.4-51.9-10.7-78
	c-13.7-19.7-9-46.7,3.6-68.5c7-12,9.7-22.7,7.3-36.8c-1.6-9.4,3.7-20.4,7.2-30.2c4-11.1,8.9-22,14.5-32.4c4.4-8.3,8.7-18.7,16-23.1
	c29.9-17.6,61-33.4,91.8-49.5C2471.6,782.1,2477.3,782.1,2482.9,780.9L2482.9,780.9z M2375.9,1130.7c8.3-9.4,17.7-17.1,23.4-26.9
	c42.2-73.4,70.5-152.3,87.7-234.9c2.6-12.3-2-27.8-7.9-39.5c-3-6.1-17.3-11.6-24.5-9.7c-39.3,10.5-74.1,29.1-87.2,71.1
	c-10.4,33.1-18.2,67.2-25.5,101.2c-2.2,10.2,0.2,21.7,1.7,32.4c3,21.3,7.5,42.4,10.3,63.8c2,15,0.6,31,22,42.7V1130.7z"/>
<path class="st2" d="M1549.3,970.8c-55.1-58.3-107.3-117.8-132.1-195.6c-10.1-31.8-12.5-64.2,5.6-94.8c3.8-6.5,8.5-12.7,13.6-18.2
	c22.4-23.8,38.5-26,66.2-8.9c28.7,17.7,44.5,45.1,50.4,76.9c7.7,41.9,8.3,84-7.9,125.1c-4.7,12-6.9,25.3-8.2,38.2
	c-1.9,18.4,5.5,33.9,18.8,46.7c12.7,12.3,10.6,22.1-6.5,30.5L1549.3,970.8z M1545.7,779.9c-1.3-34-10-63.9-29-90.6
	c-12.1-16.9-28.4-27.4-50.5-23.1c-17.5,3.4-34.1,23.3-36.1,46.1c-5.1,57.2,12,107.9,50,150.7c19.6,22.1,36.3,19.7,46.4-7.9
	C1535.4,830.9,1539.4,805,1545.7,779.9L1545.7,779.9z"/>
</svg>
