<?xml version="1.0" encoding="utf-8"?>
<!-- Generator: Adobe Illustrator 27.7.0, SVG Export Plug-In . SVG Version: 6.00 Build 0)  -->
<svg version="1.1" id="Layer_1" xmlns="http://www.w3.org/2000/svg" xmlns:xlink="http://www.w3.org/1999/xlink" x="0px" y="0px"
	 viewBox="0 0 3500 3500" style="enable-background:new 0 0 3500 3500;" xml:space="preserve">
<style type="text/css">
	.st0{stroke:#FFFFFF;stroke-width:12;stroke-miterlimit:10;}
	.st1{fill:#D335B0;}
	.st2{fill:url(#SVGID_1_);}
	.st3{fill:url(#SVGID_00000061447647199065462830000010168270143033568188_);}
	.st4{clip-path:url(#SVGID_00000175282439100664547360000001098087333734724235_);}
	.st5{clip-path:url(#SVGID_00000137820366083263781130000010885030670065364616_);}
	.st6{clip-path:url(#SVGID_00000096027231902589269340000003890660370361718167_);}
	.st7{fill:#FFB717;}
	.st8{fill:url(#SVGID_00000117672311893526521770000002475555486994703544_);}
	.st9{fill:#FCFCFC;}
	.st10{fill:#FFFFFF;stroke:#AFAFAF;stroke-width:3;stroke-miterlimit:10;}
</style>
<g>
	<g id="Layer_1-2">
		<g>
			<circle class="st0" cx="1674.1" cy="1391.2" r="1134.1"/>
			<path class="st1" d="M2913.1,195.9c0,0,51.8,126.6,0,224.5s-512.3,587.2-512.3,587.2s-124.3-511.3-184.2-587.2
				c-43.2-54.7-115.1-34.5-172.7,0c-57.6,34.5-261.9,201.5-261.9,201.5s-57.6,132.4,106.5,74.8S2107.2,996,2107.2,996l51.8,230.3
				l-215.9,213c0,0-422.8,451.6-538.2,621.7c-47.8,70.4-115.1,221.6-66.2,333.9s129.5,238.9,166.9,259.1s109.4-11.5,54.7-138.2
				c-54.7-126.6-46.1-172.7-2.9-259.1s664.9-866.4,664.9-866.4l146.8,466.3c0,0,97.9,218.7,261.9,92.1
				c164.1-126.6,213-201.5,213-201.5s48.9-158.3-146.8-51.8s-241.8-480.7-241.8-480.7l564.1-515.2c0,0,152.6-146.8,106.5-287.8
				s-169.8-328.1-213-215.9l0,0L2913.1,195.9z"/>
			<path class="st1" d="M540.2,1200.4c0,0,44.3-236,90.3-308s115.1-92.1,264.8-95s664.9-80.6,734-112.2
				c69.1-31.7,153.2-25.9,44.9,155.4s-338.5,564.1-393.2,777.1c-54.7,213-48.9,509.5-48.9,509.5s-247.5,72-371.3,118
				c-123.8,46.1-256.2,92.1-166.9-161.2s449-877.9,590-1027.6c-365.5,34.5-388.6,14.4-474.9,51.8S533.3,1430.6,540.2,1200.4
				L540.2,1200.4L540.2,1200.4z"/>
			
				<linearGradient id="SVGID_1_" gradientUnits="userSpaceOnUse" x1="2228.082" y1="-405.7877" x2="2228.082" y2="-2903.8975" gradientTransform="matrix(1 0 0 1 0 3000)">
				<stop  offset="0" style="stop-color:#B0ACAB"/>
				<stop  offset="0.2" style="stop-color:#C9C6C6"/>
				<stop  offset="0.4" style="stop-color:#E5E4E4"/>
				<stop  offset="0.6" style="stop-color:#F6F6F6"/>
				<stop  offset="0.8" style="stop-color:#FDFDFD"/>
			</linearGradient>
			<path class="st2" d="M2912.9,130.5c0,0,51.8,126.6,0,224.5s-512.3,587.2-512.3,587.2S2276.3,430.9,2216.4,355
				c-43.2-54.7-115.1-34.5-172.7,0c-57.6,34.5-261.9,201.5-261.9,201.5s-57.6,132.4,106.5,74.8c164.1-57.6,218.8,299.3,218.8,299.3
				l51.8,230.3l-215.9,213c0,0-422.8,451.6-538.2,621.7c-47.8,70.4-115.1,221.6-66.2,333.9s129.5,238.9,166.9,259.1
				s109.4-11.5,54.7-138.2c-54.7-126.6-46.1-172.7-2.9-259.1s664.9-866.4,664.9-866.4l146.8,466.3c0,0,97.9,218.8,261.9,92.1
				c164.1-126.6,213-201.5,213-201.5s48.9-158.3-146.8-51.8s-241.8-480.7-241.8-480.7l564.1-515.2c0,0,152.6-146.8,106.5-287.8
				s-169.8-328.1-213-215.9l0,0L2912.9,130.5z"/>
			
				<linearGradient id="SVGID_00000009559167843654214640000017292929328318999485_" gradientUnits="userSpaceOnUse" x1="1133.0112" y1="-783.9552" x2="1133.0112" y2="-2394.8789" gradientTransform="matrix(1 0 0 1 0 3000)">
				<stop  offset="0" style="stop-color:#B0ACAB"/>
				<stop  offset="0.1" style="stop-color:#BAB7B6"/>
				<stop  offset="0.3" style="stop-color:#D7D5D4"/>
				<stop  offset="0.6" style="stop-color:#FDFDFD"/>
			</linearGradient>
			<path style="fill:url(#SVGID_00000009559167843654214640000017292929328318999485_);" d="M540.1,1135.1c0,0,44.3-236,90.3-308
				s115.1-92.1,264.8-95s664.9-80.6,734-112.2c69.1-31.7,153.2-25.9,44.9,155.4s-338.5,564.1-393.2,777.1
				c-54.7,213-48.9,509.5-48.9,509.5s-247.5,72-371.3,118c-123.8,46.1-256.2,92.1-166.9-161.2s449-877.9,590.1-1027.6
				c-365.5,34.5-388.6,14.4-474.9,51.8S533.3,1365.3,540.1,1135.1L540.1,1135.1L540.1,1135.1z"/>
			<g>
				<g>
					<defs>
						<circle id="SVGID_00000175324675531575280560000000312586048977400723_" cx="1640.7" cy="1391.2" r="347.3"/>
					</defs>
					<clipPath id="SVGID_00000162316045187926888480000007955378069248876210_">
						<use xlink:href="#SVGID_00000175324675531575280560000000312586048977400723_"  style="overflow:visible;"/>
					</clipPath>
					<g style="clip-path:url(#SVGID_00000162316045187926888480000007955378069248876210_);">
						<g>
							<defs>
								
									<rect id="SVGID_00000060730209852862069390000013359367350787519374_" x="1288.4" y="1038.9" width="704.6" height="704.6"/>
							</defs>
							<clipPath id="SVGID_00000119799165905585945800000010166244784166834855_">
								<use xlink:href="#SVGID_00000060730209852862069390000013359367350787519374_"  style="overflow:visible;"/>
							</clipPath>
							<g style="clip-path:url(#SVGID_00000119799165905585945800000010166244784166834855_);">
							</g>
						</g>
					</g>
				</g>
				<g>
					<defs>
						<circle id="SVGID_00000024714872802811699030000014605616515081431978_" cx="1640.7" cy="1391.2" r="347.3"/>
					</defs>
					<clipPath id="SVGID_00000103944577317178229580000015448060857065842827_">
						<use xlink:href="#SVGID_00000024714872802811699030000014605616515081431978_"  style="overflow:visible;"/>
					</clipPath>
					<g style="clip-path:url(#SVGID_00000103944577317178229580000015448060857065842827_);">
						<rect x="1288.4" y="1038.9" class="st7" width="704.6" height="704.6"/>
					</g>
				</g>
			</g>
			
				<radialGradient id="SVGID_00000171691801570950547700000002442135813930743741_" cx="1129.7888" cy="-1732.4221" r="226.1" gradientTransform="matrix(0.9 0 0 0.9 556.3001 3000.2)" gradientUnits="userSpaceOnUse">
				<stop  offset="0" style="stop-color:#0074B0"/>
				<stop  offset="0.2" style="stop-color:#006DAB"/>
				<stop  offset="0.4" style="stop-color:#015B9D"/>
				<stop  offset="0.7" style="stop-color:#023D86"/>
				<stop  offset="1" style="stop-color:#04186B"/>
			</radialGradient>
			<circle style="fill:url(#SVGID_00000171691801570950547700000002442135813930743741_);" cx="1597.5" cy="1391.2" r="207.2"/>
			<polygon class="st9" points="1537.1,1327.9 1537.1,1466.1 1686.7,1391.2 			"/>
			<g>
				<path class="st10" d="M446.2,3287.5l-111.1-441.6v478.5c0,26.5-5.9,46.3-17.7,59.6s-27.5,19.9-47,19.9s-34.4-6.5-46.3-19.6
					s-18-33-18-59.8V2776c0-30.3,7.9-50.7,23.6-61.2s37-15.8,63.8-15.8H337c26.2,0,45.2,2.4,57,7.1s20.6,13.2,26.2,25.5
					c5.7,12.3,12.1,32.3,19.4,60.1l100.7,379.7L641,2791.7c7.2-27.7,13.7-47.8,19.4-60.1s14.4-20.8,26.2-25.5s30.8-7.1,57-7.1h43.5
					c26.8,0,48.1,5.3,63.8,15.8s23.6,31,23.6,61.2v548.5c0,26.5-5.9,46.3-17.7,59.6s-27.7,19.9-47.5,19.9s-33.9-6.6-45.9-19.9
					c-12-13.2-18-33.1-18-59.6V2846l-111.1,441.6c-7.2,28.7-13.2,49.7-17.7,63.1c-4.6,13.4-13,25.6-25.3,36.6s-29.3,16.6-51.1,16.6
					s-30.3-3.6-41.6-10.6c-11.4-7.1-20.2-16.1-26.5-27.2c-6.3-11-11.3-23.2-14.9-36.6c-3.6-13.4-7.3-27.3-11.1-41.8l0,0
					L446.2,3287.5z"/>
				<path class="st10" d="M1019.7,3105.4v-333.3c0-28.4,6.4-49.6,19.2-63.8s29.6-21.3,50.4-21.3s39,7.1,51.8,21.3
					s19.2,35.5,19.2,63.8V3113c0,38.8,4.3,71.2,13,97.2s24,46.2,46.1,60.5c22.1,14.4,53,21.5,92.7,21.5s93.6-14.6,116.3-43.7
					c22.7-29.1,34-73.4,34-132.6v-343.8c0-28.7,6.3-50,18.9-64.1c12.6-14,29.5-21,50.6-21s38.2,7,51.3,21
					c13.1,14,19.6,35.4,19.6,64.1v333.3c0,54.2-5.3,99.5-15.8,135.7c-10.6,36.2-30.5,68.1-59.8,95.5c-25.2,23.3-54.5,40.4-87.9,51.1
					c-33.4,10.7-72.5,16.1-117.3,16.1s-99.1-5.8-137.6-17.3s-69.8-29.3-94.1-53.4c-24.3-24.1-42.1-55-53.4-92.7s-17-82.7-17-135l0,0
					H1019.7z"/>
				<path class="st10" d="M2281.2,3183.9c0,41.9-10.8,79.6-32.4,113c-21.6,33.4-53.2,59.6-94.8,78.5s-90.9,28.4-148,28.4
					s-124.8-12.9-169.3-38.8c-31.5-18.6-57.1-43.4-76.8-74.5c-19.7-31-29.6-61.2-29.6-90.6s5.9-31.6,17.7-43.7
					c11.8-12.1,26.9-18.2,45.2-18.2s27.3,4.7,37.6,14.2c10.2,9.5,19,23.5,26.2,42.1c8.8,22.1,18.4,40.5,28.6,55.3s24.7,27,43.3,36.6
					c18.6,9.6,43,14.4,73.3,14.4s75.4-9.7,101.4-29.1c26-19.4,39-43.6,39-72.6s-7-41.7-21-56s-32.1-25.3-54.4-32.9
					s-51.9-15.6-89.1-24.1c-49.8-11.7-91.5-25.3-125.1-40.9c-33.6-15.6-60.2-36.9-79.9-63.8c-19.7-26.9-29.6-60.4-29.6-100.5
					s10.4-72,31.2-101.7c20.8-29.6,50.9-52.4,90.3-68.3c39.4-15.9,85.7-23.9,139-23.9s79.4,5.3,110.4,15.8
					c31,10.6,56.8,24.6,77.3,42.1s35.5,35.9,44.9,55.1c9.5,19.2,14.2,38,14.2,56.3s-5.9,31.8-17.7,45.2s-26.6,20.1-44.2,20.1
					s-28.3-4-36.6-12.1c-8.4-8-17.4-21.2-27.2-39.5c-12.6-26.2-27.7-46.6-45.4-61.2c-17.7-14.7-46-22-85.1-22s-65.5,8-87.7,23.9
					s-33.3,35.1-33.3,57.4s3.8,25.9,11.3,35.9c7.6,10.1,18,18.8,31.2,26c13.2,7.3,26.6,12.9,40.2,17s35.9,10.1,67.1,18
					c39.1,9.1,74.5,19.2,106.1,30.3c31.7,11,58.6,24.4,80.9,40.2c22.2,15.8,39.6,35.7,52,59.8s18.7,53.7,18.7,88.7l0,0
					L2281.2,3183.9z"/>
				<path class="st10" d="M2406.1,3318.2v-546.1c0-28.4,6.5-49.6,19.4-63.8s29.6-21.3,50.1-21.3s38.2,7,51.3,21s19.6,35.4,19.6,64.1
					v546.1c0,28.7-6.5,50.1-19.6,64.3s-30.2,21.3-51.3,21.3s-36.8-7.2-49.9-21.5C2412.6,3368,2406.1,3346.6,2406.1,3318.2
					L2406.1,3318.2L2406.1,3318.2z"/>
				<path class="st10" d="M3294,3173c0,22.1-5.4,45.9-16.3,71.6c-10.9,25.7-28,50.9-51.3,75.6c-23.3,24.8-53.1,44.8-89.4,60.3
					c-36.2,15.4-78.5,23.2-126.7,23.2s-69.8-3.5-99.8-10.4s-57.1-17.7-81.6-32.4c-24.4-14.7-46.9-34-67.4-57.9
					c-18.3-21.8-33.9-46.1-46.8-73.1c-12.9-26.9-22.6-55.7-29.1-86.3s-9.7-63-9.7-97.4c0-55.8,8.1-105.8,24.4-149.9
					c16.2-44.1,39.5-81.9,69.7-113.2c30.3-31.4,65.7-55.2,106.4-71.6c40.7-16.4,84-24.6,130-24.6s106.1,11.2,149.9,33.6
					c43.8,22.4,77.4,50.1,100.7,83s35,64.1,35,93.4s-5.7,30.3-17,42.6s-25.1,18.4-41.1,18.4s-31.4-4.3-40.4-12.8s-19-23.2-30-44
					c-18.3-34.4-39.8-60.1-64.5-77.1c-24.8-17-55.2-25.5-91.5-25.5c-57.7,0-103.6,21.9-137.8,65.7s-51.3,106.1-51.3,186.8
					s7.6,98.8,22.7,134.5c15.1,35.8,36.6,62.5,64.3,80.1c27.7,17.7,60.2,26.5,97.4,26.5s74.5-10,102.4-30s48.9-49.4,63.1-88.2
					c6-18.3,13.4-33.2,22.2-44.7s23-17.3,42.6-17.3s31,5.8,43,17.5S3294.1,3155.6,3294,3173L3294,3173L3294,3173z"/>
			</g>
		</g>
	</g>
</g>
</svg>
