<?xml version="1.0" encoding="utf-8"?>
<!-- Generator: Adobe Illustrator 27.7.0, SVG Export Plug-In . SVG Version: 6.00 Build 0)  -->
<svg version="1.1" id="Layer_1" xmlns="http://www.w3.org/2000/svg" xmlns:xlink="http://www.w3.org/1999/xlink" x="0px" y="0px"
	 viewBox="0 0 3500 3500" style="enable-background:new 0 0 3500 3500;" xml:space="preserve">
<style type="text/css">
	.st0{fill:#C78424;}
	.st1{fill:#EBB236;}
	.st2{fill:#90600F;}
	.st3{fill:#D1AF64;}
	.st4{fill:#AD8650;}
	.st5{fill:#F4CE70;}
	.st6{fill:#F2082A;}
</style>
<g>
	<path class="st0" d="M2854.2,824.8c4.9,0.5,9.7,1,14.6,1.6c19.1,16.8,38.2,33.6,59.2,52c32.1-46.8,59.7-86.8,86.9-126.9
		c11.3-16.7,21.8-33.9,32.7-50.8c5.6-7.8,11.1-15.6,16.7-23.4c1.5,4.5,5.5,10,4.1,13.2c-27.2,63.3-56.5,125.7-81.6,189.8
		c-7.3,18.5-9.8,44.7-2.3,62c18.2,42,42.6,81.5,66.7,120.6c5.4,8.7,19.9,11.8,30.1,17.5l-1.3,0.6c2.1,8.4,4.2,16.9,6.3,25.3
		c0.4,11.5-1.2,23.6,1.8,34.4c1.9,6.8,10.8,17,16.1,16.7c55.8-3.3,111.6-8.2,167.2-13.7c4.4-0.4,8-8.7,11.9-13.3
		c11.8,0.1,23.6,0.3,35.5,0.4c0.6,2.6,1.2,5.1,1.8,7.7c-12.1,7.3-23.6,16.2-36.6,21.5c-9.1,3.8-20.7,1.1-30.2,4.3
		c-43.4,14.4-86.7,28.9-129.3,45.3c-13.5,5.2-30.6,13.8-35.8,25.5c-18,40.6-20.6,84.7-16.6,128.7c0.5,5.4,8.8,10,13.6,15
		c0.1,5.3,0.1,10.6,0.1,15.8c-27.7,8.5-8.5,31.1-13.9,46.3c-8.2,39-16.3,78.1-24.5,117.1c-5,12.8-10.1,25.7-15.1,38.5
		c-7.8,18-21.5,35.7-22.3,53.9c-2.8,63.3-3.1,127-0.1,190.3c1.1,22.8,13.9,45.2,21.4,67.7c2.8,7.8,5.7,15.7,8.5,23.6
		c-31.1,36.8-62.3,73.7-93.4,110.5c-2.6-10.9-5.2-21.8-7.8-32.7c-7.8-49.2-17.5-98.2-22.9-147.7c-6.3-57.7-21.4-73.5-78.9-87
		c-24.1-5.7-55.3-0.3-70.2-29.7l0.5-0.8c37.7,0,75.5,0,117.3,0c0-18.5,0-32.2,0-45.9c7.5-20.7,15-41.4,22.5-62.1
		c2.8-6.8,6.8-13.3,8.1-20.4c6.6-36.6,11.2-73.6,19.1-109.9c7.4-34,16.4-67.4,4.5-102c7.7-50.1,15.4-100.1,23.1-150.2
		c2.9-10.3,5.7-20.7,8.6-31.1c22.5-57.4,0.5-111.1-25.4-157.6c-29.2-52.6-74.4-95.7-131.1-122.7c-10.1-0.4-20.3-0.8-30.4-1.2
		c-5-11.7-11.1-23-14.8-35c-11.6-37.2-22.4-74.8-33.5-112.2c17.4,7.2,34.4,15.8,52.3,21.4C2809.1,822.4,2829.6,840.1,2854.2,824.8z"
		/>
	<path class="st0" d="M751.9,784.2l0.4,2.1c17-10.1,34.1-20.2,51.2-30.3c49.4,4.2,88.2-27.4,133-39c5.4-0.1,10.9-0.1,16.3-0.2
		c8.5,1.8,18.1,7.2,25.4,4.9c26.8-8.3,54.1-16.6,78.8-29.5c43.1-22.4,86-46.1,126-73.5c22.1-15.1,38.1-39,56.9-58.9
		c3.2-6.9,6.3-13.8,9.4-20.8c36.8,3.8,73.8,6.2,110.4,11.8c15.2,2.3,29.3,11.2,44,17.1c-45.9,37-91.5,74.3-137.7,111
		c-34.1,27.1-54.3,57.7-34.8,103.1c6.4,14.8,11.1,31,12.8,46.9c1.5,14.1-2.3,28.8-3.8,43.2c-19.8-36.2-39.7-72.5-60.7-111
		c-17.9,6.5-33.2,12.1-48.5,17.7c-15.8,3.7-32,6-47.1,11.4c-22.8,8-44.6,18.8-67.3,27c-43.9,15.9-88.3,30.6-132.2,46.6
		c-4.7,1.7-7.3,9.4-10.9,14.3c-7.7,5.6-15.4,11.2-23.1,16.8c-41.7,15.8-83.4,31.6-125,47.4c-10.5,0-21,0-31.4,0.1
		c-6.3,0.8-13.8-0.3-18.8,2.7c-77.4,45.9-136.5,106-152.3,199.1c2.7,36.6,5.3,73.2,8,109.8c-33.9,36.7-67.7,73.4-101.6,110.1
		c-2.5-12.2-5.2-24.5-7.6-36.7c-7.9-39.9-15.8-79.7-23.6-119.6c0-17.4,0-34.7,0-51.2c-41.5-4.2-76.8-9.7-112.3-10.8
		c-27.5-0.9-55.1,3.6-82.7,5.8c-4.4-0.1-8.9-0.2-13.3-0.3c-0.7-7.2-1.3-14.5-2-21.7c3-2.3,5.9-6.3,9.1-6.6
		c62.5-6,124.9-13,187.5-16.4c21.8-1.2,38.8-7.4,48.7-25.1c23.1-41.3,44.3-83.7,65.6-126c1.9-3.9-0.7-10-1.2-15.1l0.8,2
		c5.9-12.5,11.9-25.1,17.8-37.6c12.5-9,35.2-17.7,35.5-27.2c0.6-18.1-8.8-38.2-18.8-54.6c-22.5-36.5-47.9-71.3-72.1-106.7
		c14,7.5,29.8,12.9,41.7,22.9c38.2,32.1,74.7,66.3,112.4,98.9c6,5.2,17.1,11.3,22.7,9.1c35.1-13.8,69.3-29.9,103.8-45.3
		C744.8,796.1,748.4,790.2,751.9,784.2z"/>
	<path class="st1" d="M936.5,717c-44.7,11.6-83.6,43.2-133,39c11-30,21.4-60.2,33-89.9c8.1-20.5,10.7-39.8-4.7-58.2
		c-9-10.9-19.4-21.3-26-33.6c-17.8-33.3-63.8-46.8-64-92c35,21,71.9,39.4,104.2,63.8c19.8,14.9,32.2,17.3,47.6-1.7
		c6.4-7.9,13.3-15.4,20-23c12.1-3.7,25.4-5.3,36-11.5c36.3-21.3,70.5-46.7,107.8-65.8c30.3-15.5,48.4-35.8,50.9-69.9
		c2-26.8,3.6-53.6,7.2-80.1c4.3-31,10.6-61.8,16.1-92.7c5,19.4,12.3,38.6,14.4,58.3c4.3,39.4,4.7,79.2,9,118.6
		c1,9,10.8,23.5,17.7,24.2c16.8,1.7,34.2-3.2,51.4-5.4c2.7-2.1,5.4-4.1,8-6.2h3.3l3.2-0.7c2.6,2.7,5.1,5.5,7.7,8.2
		c-7.9,13.2-5.4,21.8,11,23.5c51.3,5.1,102.3,17.9,154.3,5.8c51.7,8,103.4,16,155.1,24.1c8,5.2,16,10.3,24,15.5l-0.3-0.3
		c1.6,10,4,19.9,4.5,29.9c1.4,26.5,2,53,2.9,79.5c-48.2-9.7-96.2-21-144.7-28c-10.4-1.5-23.1,12.8-34.7,19.9c-5-0.1-10-0.2-14.9-0.2
		c-14.6-5.9-28.8-14.8-44-17.1c-36.5-5.6-73.6-8.1-110.4-11.8c-17.7-8.3-36-24.6-53-23.4c-60.4,4.4-120.9,14.1-169.7,54.8
		C980.3,608.9,943.2,653.9,936.5,717z"/>
	<path class="st1" d="M2245.2,3085.7c-2.6-0.3-5.3-0.6-7.9-0.9c-11.7-7.4-22.6-19.1-35.2-21.4c-28.5-5.2-57.9-7.1-87-7.5
		c-8.6-0.1-17.4,8.8-26.2,13.6c-7.6,0.1-15.2,0.1-22.8,0.2c-41.3-12-82.5-24-125.1-36.4c0-38.4,0-74.7,0-110.9
		c33.7,5,67.3,10.8,101.2,14.7c13,1.5,29.6,4.8,32.7-16.1c4.7,0.5,9.4,1,14.1,1.5c12.8,7.1,25,18.5,38.6,20.5
		c36.1,5.2,72.8,6.4,109.3,9.2c8.4,5.5,16.5,15.1,25.3,15.7c28.2,2,57.9,5.9,84.8-0.5c36.7-8.8,74.9-20.9,105.9-41.5
		c32.6-21.7,58.6-54.1,85.4-83.7c17.1-19,29.9-41.7,18.4-69.5c44.3-12.8,88.5-25.7,132.8-38.5c-6.6,21.8-10.7,44.8-20.4,65.1
		c-27.7,58.5-26.4,71.4,20.1,118.4c7.3,7.4,15.6,13.9,21.8,22.1c19.2,25.2,37.6,50.9,56.3,76.5c-15.1-6.3-31.6-10.4-44.9-19.2
		c-32.6-21.6-63.7-45.4-100.4-72c-15.6,19-28.9,35.3-42.2,51.6c-14.8,2.2-36.6-1-43.2,7.5c-24.6,32-63.1,37.3-93.5,57
		c-20.1,13.1-38.8,34.8-47.9,56.9c-11.4,27.8-11.9,60-17.8,90.2c-5,25.8-10.9,51.4-16.4,77.1c-4.8-7.2-12.9-14.1-13.7-21.8
		c-4-37.1-7.1-74.5-8.5-111.8c-1.8-48.4-13.7-56.2-62.7-38.2C2265.8,3090.9,2255.5,3088.3,2245.2,3085.7z"/>
	<path class="st2" d="M1848.8,3249.4c-19.5,23.6-39.4,46.7-58.2,70.8c-20.9,26.7-51.9,30.6-75.9,6.3c-18-18.2-32.8-39.5-49.9-58.6
		c-5.5-6.1-13.9-9.7-20.9-14.5c2.4-6.5,4.9-13.1,7.3-19.6c8.9-14.6,8.9-14.6-20.4-17.1c-12.7-18.5-23.5-38.8-38.7-54.9
		c-15.8-16.8-27.5-32.5-25.2-57.3c1.3-13.5-3.5-27.6-6.2-45.5c14.2-6.3,29.8-13.3,45.4-20.2c47.1,63.4,94.2,126.8,143.6,193.1
		c48.8-65.3,93.5-125,138.1-184.7c12.9-0.1,26.4-2.4,38.6,0.5c8.1,2,21.2,12.6,20.4,17.5c-4.1,26.1-7,54.4-19.6,76.7
		c-17.2,30.6-42.7,56.4-64.7,84.3c-14.2,0-28.5,0-42.7,0c0.2,2.6,0.3,5.2,0.5,7.9C1829.9,3239.2,1839.3,3244.3,1848.8,3249.4z"/>
	<path class="st0" d="M1567,451.7c-51.7-8-103.4-16-155.1-24.1c-0.2-8.1-0.4-16.2-0.6-24.4c9-17.4,19.6-32.4,42.5-30
		c37.4-5,62.1-25.6,74.8-60.9c18.2-8.4,36.3-16.8,53.7-24.8c-14.5-32.3-24.1-60.7-39.3-85.6c-17.7-28.9-17.8-68.8-52.8-87
		c-2.3-10-4.7-20-7-30c8.3,4.6,18.7,7.4,24.5,14.1c31.2,35.6,69.2,68.3,89.8,109.5c32,64,81.9,69.3,140.9,63.8
		c-6.1,12.5-10.8,26-18.5,37.5c-21.5,32.1-43.7,63.8-66.7,94.8c-15.9,21.4-33.7,41.4-51.2,61.6c-1.8,2-7.5,0.6-11.3,0.8l0.3,0.3
		C1586.7,456.3,1588.7,435.6,1567,451.7z"/>
	<path class="st3" d="M398.1,1208c7.9,39.9,15.7,79.7,23.6,119.6c2.4,12.3,5.1,24.5,7.6,36.7c8,50.6-31.9,78.5-56.7,111.9
		c-12.6,17-20.3,48.2-53.3,43c0.6-4.8,1.2-9.6,1.8-14.3c21.2-28.9,40.9-59.2,64.3-86.1c16.8-19.4,22.1-39.7,19.9-63.8
		c-2.7-28.1-5.9-56.1-7.8-84.2c-2.9-40.8-39.8-38.5-64.2-48.2c-51.5-20.4-104.9-35.7-157.7-52.8c-24.2-7.9-48.4-15.7-73-22.4
		c-10.3-2.8-27.6,2.2-23.1-15.7c1.5-5.9,19.6-7.7,30.2-11.4c15.6,5.6,31.2,11.2,46.8,16.8c5.3,0.5,10.6,1,16,1.5
		c5.8,4.3,11.5,8.6,17.3,13c4.4,0.1,8.9,0.2,13.3,0.3c31.9,11,63.4,23.4,95.8,32.7C331.4,1193.8,364.9,1200.3,398.1,1208z"/>
	<path class="st0" d="M321.2,1504.9c-0.6,4.8-1.2,9.6-1.8,14.3c-2.1,3.1-5.3,5.9-6.2,9.3c-12.4,44.5-27,52.4-68.6,34.3
		c-37.5-16.4-74.1-34.7-111.6-51.2c-6.7-3-15.7-0.8-23.6-1.1c-6.8-0.4-13.5-0.8-20.2-1.2c-13-14.9-26-29.7-39.1-44.6
		c7.3-2.8,14.6-5.5,21.9-8.3c33.2,5.6,66.4,11,99.6,16.8c12.3,2.2,24.9,4,36.7,7.9c9.6,3.2,18.1,9.4,27.2,13.9
		c5.3,2.7,10.9,6.3,16.5,6.7C275,1503.5,298.1,1504,321.2,1504.9z"/>
	<path class="st3" d="M1131.7,201.4c-5.4,30.9-11.8,61.6-16.1,92.7c-3.7,26.5-5.2,53.4-7.2,80.1c-2.5,34-20.6,54.3-50.9,69.9
		c-37.4,19.1-71.5,44.5-107.8,65.8c-10.6,6.2-23.9,7.8-36,11.5c-3-5.1-5.9-10.1-8.9-15.2c12.1-14.8,40.8,3.9,46.9-23.1
		c34.6-21.6,68-45.5,104.1-63.8c20-10.1,28.5-20.3,30.5-42.9c8.2-93.3,18.4-186.4,28.8-279.5c1.2-10.3,8.2-20,12.4-30
		c3.7,0.2,7.3,0.3,11,0.5c3.3,20.5,6.7,41,10,61.5c-0.7,6.3-1.4,12.6-2.1,18.9l0.1-0.1C1141.6,165.6,1136.7,183.5,1131.7,201.4z"/>
	<path class="st3" d="M2361,3265.3c5.5-25.7,11.4-51.3,16.4-77.1c5.9-30.2,6.4-62.4,17.8-90.2c9-22.1,27.7-43.8,47.9-56.9
		c30.4-19.7,68.8-25,93.5-57c6.6-8.5,28.4-5.3,43.2-7.5c0.2,2.5,0.1,4.9-0.6,7.3c-2,3.1-4,6.1-6.1,9.2
		c-44.8,25.4-90.1,49.9-133.9,76.8c-10.8,6.6-21.1,20.5-23.7,32.7c-10.5,48.7-18.2,98-26.3,147.1c-2.5,15.2-2.7,30.7-3.9,46.1
		c-1.1,0.6-3.2,1.1-3.2,1.7c0,2.1,0.7,4.1,1.2,6.2c-0.4,10.4-0.9,20.9-1.3,31.3c-0.5,3.6-0.9,7.3-1.4,10.9c-2.6,17-5.2,34-7.9,51.1
		c-7.9-0.1-15.7-0.2-23.6-0.3c-4.8-18.4-9.7-36.7-14.5-55.1c4-5,8-9.9,11.9-14.9c2.7,1.6,5.4,3.1,8.1,4.7
		C2356.7,3309.4,2358.8,3287.4,2361,3265.3z"/>
	<path class="st3" d="M1371.2,3076.2c-17,4.9-33.9,13.5-51,13.9c-74.9,1.6-80.5,3.9-103.6,76c-15.6,48.9-26.9,99.2-42.9,148
		c-9.2,28.2-23.9,54.6-44.3,83.3c-5.7-17-13.3-33.6-16.5-51c-3.7-20.2-3.6-41.2-5.2-61.8l-1-2.5c-0.1-5.6-0.1-11.3-0.2-17
		c21.5-0.3,14.3,16.1,16.8,27.6c2.4,11.2,7.3,21.9,11.2,32.8c3.1-1,6.2-2,9.4-3c1.1-11.3,2.1-22.7,3.2-34c3.6-1.4,9.6-1.9,10.4-4.3
		c15-43.4,28.2-87.4,44.3-130.4c8.7-23.4,17-50.8,34.5-66c23.3-20.4,54.6-32.2,89.2-26.5c10,1.7,21.4-4.8,32.2-7.5
		c7.6,0.4,15.2,0.8,22.9,1.2C1377.3,3062.2,1374.2,3069.2,1371.2,3076.2z"/>
	<path class="st0" d="M3452.5,2033.3c-13.9,19.9-32.1,3.2-44.9,1.2c-55.2-8.9-109.5-23.3-163.9-36.8c-8.9-2.2-16.4-10.2-24.5-15.4
		c-12.6-3.9-25.3-7.7-37.9-11.6c6.4-19.9,12.8-39.8,20.1-62.7c57.6,24.8,111.8,48.1,166,71.5c9.4,5.8,18.8,11.6,28.1,17.6
		C3414.5,2009,3433.5,2021.2,3452.5,2033.3z"/>
	<path class="st3" d="M1084.8,3085.2c-37.7-19-75.3-38-113-57c-3.4-1.7-7.9-2.8-9.9-5.6c-27-37.5-58.8-26-92.6-11
		c-71,31.4-142.4,62.1-214.3,91.4c-13.6,5.6-31.7,16.1-43.8-3.7c12.1-12.7,24-25.1,36-37.6c8,0,16,0,24.1-0.1
		c5.2-2.5,10.4-4.9,15.6-7.4l-0.2,0.1c15.2-5.5,30.3-10.9,45.5-16.4c12.5-1.8,26-1.2,37.4-5.8c36.2-14.6,71.4-31.4,107.2-46.9
		c31-13.5,59.2-14.6,89.5,7.6c27.2,20,60.9,31.1,90,48.9c14.1,8.6,24.4,23.6,36.4,35.8C1090,3080.1,1087.4,3082.7,1084.8,3085.2z"/>
	<path class="st3" d="M3181.3,1970.6c12.6,3.9,25.3,7.7,37.9,11.6c-15.2,1.8-30.4,3.6-45.6,5.4c-2.9,1.9-5.8,3.9-8.6,5.8
		c-22.7,29.7-46,58.9-67.6,89.4c-6.3,8.9-9.9,21.4-10.2,32.5c-0.7,21.8,3.9,43.9,2.5,65.6c-2.7,42.6,10.4,70.8,55,84.1
		c67.1,19.9,132.8,44.2,199.2,66.6c9.1,5.7,18.2,11.4,27.3,17.2c-2.8,3.8-5.6,7.6-8.4,11.4c-14-4.5-27.9-9-41.9-13.6
		c-10.2-0.6-20.4-1.3-30.7-1.9c-5-4.9-9.1-12.5-15.1-14.4c-59.8-19-119.9-37-180-55.3c-10.5-47.1-21-94.2-31.5-141.4
		c-1.2-76.2,60.4-112.6,102.6-161.2C3168.8,1969.6,3176.2,1971.1,3181.3,1970.6z"/>
	<path class="st3" d="M2422.2,413.3c48.2,26,96.2,52.5,144.9,77.6c7.5,3.9,19.6,4.2,27.6,1c63.3-25.4,126-52.3,189.1-78.1
		c28.5-11.7,57.6-22,90-34.4c-0.1,31.5-20.3,42.7-34.3,57.8c-5.9-0.3-11.7-0.7-17.6-1c-13-13.1-20.2-8.6-23.5,7.8l0.2-0.2
		c-17.1,0-35.2-3-45.7,16c-44.8,14.3-90.9,25.7-134.1,43.8c-33.6,14.1-61.6,11.1-91.3-6.8c-29.6-17.8-61.1-32.8-90.1-51.5
		c-11.8-7.6-19.3-21.7-28.7-32.9C2413.1,412.7,2417.7,413,2422.2,413.3z"/>
	<path class="st4" d="M3320.9,2346.5c14,4.5,27.9,9,41.9,13.6c2.8-3.8,5.6-7.6,8.4-11.4c-9.1-5.7-18.2-11.4-27.3-17.2
		c25.8,5.7,51.6,11.4,77.4,17c1.1,3.5,2.1,7.1,3.1,10.6c-10.5,5.6-20.6,14.4-31.7,16.2c-59.1,9.4-118.4,18-177.9,24.8
		c-33.3,3.8-67,4.4-100.6,4.9c-19,0.2-30.5,6-38.6,24.8c-13.2,30.6-29.1,60.2-45.7,89.1c-9.2,16.2-22.1,30.3-33.3,45.4
		c-6.1-3-12.2-5.9-18.3-8.9c26.8-48.3,52.3-97.4,81.4-144.3c7.7-12.4,26.1-23.4,40.8-25.4c59.8-7.8,120.2-10.6,180.1-18
		C3294.8,2366,3307.5,2353.9,3320.9,2346.5z"/>
	<path class="st0" d="M1084.8,3085.2c2.6-2.6,5.3-5.1,7.9-7.7c72.9,1.2,73.6,3.8,62.9,80.3c-6,43.2-6,87.2-8.7,130.9
		c-1.1,11.3-2.1,22.7-3.2,34c-3.1,1-6.2,2-9.4,3c-3.8-10.9-8.7-21.6-11.2-32.8c-2.5-11.5,4.7-27.9-16.8-27.6
		c-7.7-46.6-21.9-92.5-14.1-140.6c9.6-11.2,14.3-22-3.1-30.5C1087.7,3091.3,1086.2,3088.3,1084.8,3085.2z"/>
	<path class="st3" d="M741.8,482.3c0.3,45.2,46.3,58.7,64,92c6.6,12.3,16.9,22.7,26,33.6c15.3,18.4,12.7,37.7,4.7,58.2
		c-11.7,29.7-22.1,59.9-33,89.9c-17,10.1-34.1,20.2-51.2,30.3c18.5-37.6,34.8-76.5,56.3-112.3c17.5-29.1,10.5-51.8-8.9-73.7
		C748.4,542.6,696,485.8,644.8,427.9c-10.1-11.4-16.8-25.8-25.1-38.8c2.2-1.5,4.4-3,6.6-4.4c7,2.1,14,4.3,21.1,6.4
		c11.6,8.5,23.5,16.1,24.8,33.2c0.3,4.1,9.2,7.5,14.1,11.2c7.8,5.4,15.5,10.9,23.3,16.3c-0.7,22,8.8,33.5,31.9,30.7L741.8,482.3z"/>
	<path class="st3" d="M2767.2,3016.2c-18.7-25.5-37.1-51.3-56.3-76.5c-6.2-8.2-14.5-14.7-21.8-22.1c-46.5-47-47.8-59.9-20.1-118.4
		c9.6-20.4,13.7-43.3,20.4-65.1c12.9-10.2,25.8-20.5,38.6-30.7c0.2,5.5,0.4,11.1,0.7,16.6c-18.8,41.2-42.5,81.2-53.8,124.4
		c-4.4,16.8,15.9,44,30.9,61.2c43.1,49.7,89.3,96.7,134.3,144.7c0.9,10.5,1.8,21,3.4,39.2c-18.5-11.4-31.4-19.4-44.4-27.4
		c-0.2-5.2-0.3-10.5-0.5-15.7c-5.6-5-11.3-10-16.9-14.9C2776.9,3026.4,2772.1,3021.3,2767.2,3016.2z"/>
	<path class="st4" d="M1371.2,3076.2c3.1-7,6.2-14,9.3-21c19.1,9.4,39.9,16.6,57,28.9c21.8,15.7,41.7,34.6,60.4,54.1
		c11.9,12.4,29.3,29.1,28.2,42.7c-2.8,36.7-15.1,72.6-21.8,109.2c-6.5,35.5-10.7,71.3-15.9,107c0.2,2.8,0.4,5.6,0.6,8.4
		c-7.2,8.8-15.9,16.8-20.9,26.7c-3.8,7.5-2.8,17.5-4,26.4c5.5,13.4,12.3,27.4-15.3,30.5c5.8-61.8,8.6-121.8,28.9-180.5
		c13.4-38.7,19.5-80.1,26.2-120.7c1.6-9.4-4.5-25.5-12.1-30C1450,3133,1420.7,3089.5,1371.2,3076.2z"/>
	<path class="st4" d="M156.5,1137c-15.6-5.6-31.2-11.2-46.8-16.8c37.5-21.7,78.9-15.6,119.4-18.9c40.3-3.3,80.4-12.6,119.7-22.5
		c43-10.9,64.4-29.1,88.1-61.7c19.1-26.3,40.3-51.1,60.6-76.6c0.5,5.1,3.1,11.2,1.2,15.1c-21.3,42.3-42.5,84.7-65.6,126
		c-9.9,17.7-26.8,23.9-48.7,25.1c-62.6,3.5-125.1,10.4-187.6,16.4c-3.2,0.3-6.1,4.3-9.1,6.6c-5.1,0-10.1-0.1-15.2-0.1
		C167.2,1132.1,161.9,1134.5,156.5,1137z"/>
	<path class="st4" d="M118.4,2373c-16.1-2.5-32.2-5-48.2-7.4c-0.1-4.3-0.2-8.5-0.2-12.8c103.3-33.3,206.6-66.6,317.7-102.3
		c3-27.5,6-59.8,10.4-91.9c1.5-10.6,6.6-20.6,10.1-30.9c4.4,15.3,8.8,30.6,13.2,45.9c-2.7,25.3-2.5,51.4-9.3,75.6
		c-3.6,12.7-17.5,27.7-30,31.8c-55.6,18.1-112.4,32.4-168.5,49c-6.9,2-12.1,9.9-18,15.1c-13.1,2.7-26.2,5.3-39.3,8
		c-13.6,0-27.1,0-42.8,0C115.5,2361.3,117,2367.1,118.4,2373z"/>
	<path class="st4" d="M3081.4,1080.4c-10.3-5.7-24.8-8.8-30.1-17.5c-24.1-39.1-48.6-78.6-66.7-120.6c-7.5-17.4-5-43.5,2.3-62
		c25.1-64.1,54.5-126.5,81.6-189.8c1.4-3.2-2.6-8.7-4.1-13.2c11.7-5.4,23.4-10.8,35.1-16.2c-23.2,59.7-46.2,119.5-69.9,179
		c-8.4,21.2-21.1,41.1-27.1,62.8c-3.3,12-0.5,28.8,5.8,39.8c19.7,34.4,43.2,66.6,63.4,100.7
		C3077.8,1053.9,3078.2,1067.9,3081.4,1080.4z"/>
	<path class="st3" d="M3072,1440.9c5.4-15.2-13.8-37.8,13.9-46.3c25,32.2,49.1,65.1,75.6,95.9c6.8,7.9,22.3,14.5,32.1,12.8
		c54.5-9.8,108.5-22.4,162.5-34.3c6.2-1.4,11.9-4.9,17.8-7.4c15.1,2.8,30.1,7,45.4,8.1c16.2,1.2,32.6-0.6,48.9-1.2
		c-4.4,4.3-8.9,8.5-13.3,12.8c-5.7,5.2-11.5,10.3-17.2,15.5c-1.6,2.2-3.8,3.5-6.5,3.9c-5.5-4.2-11-8.5-16.6-12.7
		c-15.5,2.8-31,5.5-46.5,8.2c-40,6.6-81,9.8-119.8,20.7c-64.9,18.2-84.1,13.3-125.1-40.5C3110.5,1459.5,3098.5,1439,3072,1440.9z"/>
	<path class="st3" d="M2222.7,403.4c8.4-1.7,16.9-3.5,25.3-5.2c3.6-6.6,7.1-13.2,10.7-19.8c18.6-58.3,37.3-116.6,55.8-175
		c7.9-25,14.4-50.6,24-74.9c3.4-8.5,14.4-14,21.9-20.8c4,0.4,8,0.9,12,1.3c0.1,4.1,0.1,8.2,0.2,12.3c-8.2,24.1-16.4,48.2-24.5,72.3
		c-2.9,10.5-5.7,21-8.6,31.5c-20.6,51.8-43,103-60.6,155.7c-5.6,16.8-13.9,24.5-27.4,33.2c-37,23.6-78.1,9.5-116.9,15.7
		c-9.9-0.6-19.9-1.2-29.8-1.9c0.2-5.4,0.4-10.9,0.6-16.3c6.9-0.1,13.7-0.2,20.6-0.3c3.5-1.4,6.9-2.8,10.4-4.2
		c18.1-1,36.2-2,54.2-2.9C2201.4,415.9,2212.2,416.4,2222.7,403.4z"/>
	<path class="st4" d="M1738.4,272.3c-58.9,5.5-108.9,0.2-140.9-63.8c-20.6-41.2-58.6-73.8-89.8-109.5c-5.9-6.7-16.2-9.5-24.5-14.1
		c-2.7-18.7-5.3-37.5-8-56.2c32.8,39,66,77.6,98.1,117.1c24.2,29.8,45.8,61.8,71.3,90.5c7.9,8.8,24.4,12.7,37.4,13.7
		c39.8,3,79.8,3.6,119.8,5.1c-0.3,3.2-0.6,6.5-0.9,9.8c-10.9,5.4-21.7,10.8-32.6,16.2C1758.4,278.1,1748.4,275.2,1738.4,272.3z"/>
	<path class="st4" d="M741.3,802c-34.5,15.3-68.7,31.5-103.8,45.3c-5.6,2.2-16.7-3.9-22.7-9.1c-37.8-32.6-74.2-66.8-112.4-98.9
		c-11.9-10-27.7-15.4-41.7-22.9c-7.6-3.1-15.2-6.3-22.8-9.4c-7.5-23.8-32.1-42.5-21.7-71.8c33.8,30,67.6,59.9,101.2,90.1
		c33.3,30,65.2,61.7,100.3,89.4c9.1,7.2,28.7,5.3,42,1.9c22-5.6,42.9-15.8,64.3-24.1C729.7,795.6,735.5,798.8,741.3,802z"/>
	<path class="st4" d="M399.6,2828.6c11.7-36.2,21.9-73,35.4-108.6c15.5-40.7,33.7-80.3,51.2-120.2c10.8-24.6,7-44-9.3-67.1
		c-23.2-32.9-39.3-71-58.4-106.9c3.8-0.9,7.7-1.9,11.5-2.8c7.5,8.4,16.1,16,22.3,25.3c15.5,22.9,27.3,48.8,45.6,69.1
		c17.1,18.9,22,37.6,13.9,59.6c-15,40.7-32.6,80.5-47.3,121.3c-10.8,29.9-18.8,60.9-28.1,91.3c-2.2,2.4-4.3,4.8-6.5,7.2
		c-2.7,0.1-5.4,0.3-8,0.4c-1.7-0.9-3.5-1.9-5.2-2.8c1.7,3.5,3.4,7,5.2,10.5c2.6,0.1,5.3,0.2,7.9,0.3
		C419.6,2813,409.6,2820.8,399.6,2828.6z"/>
	<path class="st4" d="M2105.2,411.4c-0.2,5.4-0.4,10.9-0.6,16.3c-45.9-20.5-84.8-50.8-121.1-85.3c-16.9-16.1-21.6-32-15.2-55.2
		c17.1-61.7,31.9-124,46.7-186.2c1.8-7.4-2.1-16.1-3.4-24.1c1.9-8.9,3.8-17.8,6.3-29.5c8.5,9.6,13.7,15.5,18.8,21.3
		c-0.9,13.8-0.1,28-3.1,41.3c-13.7,61.3-27.7,122.7-43.3,183.5c-8.9,34.9,20.1,44.8,38,60.6C2052.4,375.2,2079.5,392.5,2105.2,411.4
		z"/>
	<path class="st4" d="M3085.7,1378.8c-4.7-5-13.1-9.6-13.6-15c-4.1-44-1.4-88.1,16.6-128.7c5.2-11.6,22.3-20.3,35.8-25.5
		c42.6-16.4,85.9-31,129.3-45.3c9.5-3.2,21.1-0.5,30.2-4.3c12.9-5.4,24.5-14.2,36.6-21.5c5.4-0.4,10.8-0.8,16.2-1.2
		c5.2,5.9,10.3,11.8,15.5,17.7c-10.6,6.4-20.4,14.9-31.8,18.7c-48,16.1-96.5,30.7-144.8,45.9c-2.5,0.8-4.9,2.2-7.3,2.4
		c-64.4,3.6-72,25.9-76.1,96.6C3091.2,1338.7,3088,1358.7,3085.7,1378.8z"/>
	<path class="st3" d="M1475.2,28.8c2.7,18.7,5.3,37.5,8,56.2c2.3,10,4.7,20,7,30c0.7,10.2-0.1,20.7,2.4,30.4
		c5.8,23.2,14.6,45.7,19.5,69c6.8,32.4,11.1,65.3,16.5,98c-12.7,35.3-37.4,55.9-74.8,60.9c9.1-8.3,17.3-17.9,27.4-24.5
		c22.7-14.8,29.3-35.8,23.5-60.2c-18.9-79.4-39-158.4-58.5-237.6c-1.2-5-3.3-10.4-2.4-15.2c2-10.5,3-27.5,9-29.8
		C1470.9-0.8,1471.5,17,1475.2,28.8z"/>
	<path class="st3" d="M421.3,2173.6c-4.4-15.3-8.8-30.6-13.2-45.9c1.4-21.8-6-39.4-21-55.9c-17.2-19-31.1-41-46.1-61.9
		c-16.2-22.7-33.6-27.6-62.9-19c-54.6,16-111.5,24-167.4,35.3c-5.5-0.8-10.9-1.5-16.4-2.3c15-7.2,29.3-17.3,45.1-21.1
		c43.2-10.3,88.1-14.7,130.5-27.6c55.1-16.8,62.3-15.6,95.2,30c15.9,22,37,40.2,55.8,60.1C421,2101.4,421.1,2137.5,421.3,2173.6z"/>
	<path class="st4" d="M2728.7,2720c-0.2-5.5-0.4-11.1-0.7-16.6c9.1-7.6,17.1-17.8,27.5-22.4c24.5-11,51.6-16.7,75-29.5
		c22.1-12.1,39.1-8.3,55.5,6.5c46.3,41.8,91.7,84.6,138,126.3c12,10.8,26.1,19.2,39.3,28.7c-0.8,8.6-1.5,17.2-2.2,25.8
		c-55.1-48.8-110.3-97.6-165.3-146.5c-46.1-41-46.1-30.4-83-8.5C2786.7,2699.3,2756.8,2708.2,2728.7,2720z"/>
	<path class="st3" d="M2036.9,68.7c-5.2-5.9-10.4-11.7-18.8-21.3c-2.5,11.7-4.4,20.6-6.3,29.5c-3,2.7-5.9,5.4-8.9,8.2
		c-5.1,3.3-11.6,5.6-15.2,10.1c-44.3,56.4-88.2,113.1-132.2,169.7c-18.2,0-36.3,0-54.5,0c0.3-3.2,0.6-6.5,0.9-9.8
		c47,1.8,63.5-38.4,86.6-66.4c29-35,51.4-75.4,78.3-112.3c17.2-23.6,36.6-45.7,56.4-67.1C2028,4.1,2038.2,4,2051,0
		c-1.4,16.4-2.3,27.2-3.2,38.1c-2.6,5.1-5.2,10.3-7.9,15.4C2039,58.6,2038,63.7,2036.9,68.7z"/>
	<path class="st3" d="M89.1,1509.4c6.8,0.4,13.5,0.8,20.2,1.2c35.6,27.2,72.9,52.5,106.2,82.2c23.9,21.3,58.1,37.1,58.1,77
		c0.1,47.8,0.6,95.6-0.9,143.3c-0.3,8.8-9.6,17.4-14.8,26c-2.8-0.2-5.6-0.4-8.4-0.6c1-53.8,0.9-107.8,3.7-161.5
		c1.2-24-14.7-34.1-28.9-46.3c-25-21.5-50.6-42.4-75.9-63.5c-12.9-8.2-25.8-16.4-38.7-24.6c-8.6-6.7-17.2-13.4-25.7-20.1
		c0.2-3,0.3-6,0.5-8.9C86,1512.2,87.5,1510.7,89.1,1509.4z"/>
	<path class="st4" d="M249.6,1838.6c2.8,0.2,5.6,0.4,8.4,0.6c0.2,4.9,0.4,9.7,0.7,14.6c-34.6,26.4-70,51.7-103.4,79.6
		c-22,18.4-40.8,40.4-61.1,60.8c-10.1,7.7-20.1,15.3-30.1,23c1.3,2.2,2.7,4.4,4,6.6c8.7,0,17.4,0,26.1,0c5.5,0.8,10.9,1.5,16.4,2.3
		c-5.6,4.3-10.8,11.5-16.9,12.4c-21.6,3.1-45.8-9.2-64.6,13c-1.6,1.9-16.7-7.5-25.5-11.7c4.5-8.2,7-18.9,13.7-24.1
		c70.1-53.8,140.9-106.8,211.4-160C235.9,1850.3,242.6,1844.3,249.6,1838.6z"/>
	<path class="st3" d="M1985.7,3163.9c12.1,50.7,25.4,101.2,36.1,152.2c12.4,59.3,22.5,119.1,33.7,178.7c-3.4,1.7-6.7,3.5-10,5.2
		c-9.9-12-19.8-23.9-29.7-35.9c-1.3-11.9-2.6-23.7-3.9-35.6c-0.3-10.1-0.6-20.2-0.9-30.3c-15.7-71-31.4-142-47.2-213
		c3-7.4,6-14.9,9.1-22.3C1977.1,3163.2,1981.4,3163.6,1985.7,3163.9z"/>
	<path class="st1" d="M3047.6,700.7c-10.9,17-21.4,34.2-32.7,50.8c-27.2,40.2-54.8,80.1-86.9,126.9c-21-18.5-40.1-35.2-59.2-52
		c6.1-2.8,12.3-5.6,18.4-8.4c7.3-1.9,16.5-1.6,21.5-6.1c28.7-25.6,55.4-53.5,84.8-78.2C3009.5,720.2,3029.4,711.5,3047.6,700.7z"/>
	<path class="st4" d="M2799.1,3062.1c12.9,8,25.8,16,44.4,27.4c-1.6-18.2-2.5-28.7-3.4-39.2c24.9,13.6,41.4,33.5,49.3,66.2
		c-12.7-1.5-23.2-0.5-31.7-4.1c-91.2-39.2-182-79.1-273.1-118.7c-3.3-1.4-7.7-0.5-11.5-0.7c2-3.1,4-6.1,6.1-9.2
		c30.8,8.3,62.3,14.5,92.1,25.4C2714.5,3025.1,2756.6,3044.4,2799.1,3062.1z"/>
	<path class="st3" d="M3452.5,2033.3c-19-12.2-37.9-24.3-57-36.4c-9.3-5.9-18.7-11.7-28.1-17.6c-3.7-7.8-5.6-17.8-11.5-23
		c-33.3-28.8-67.9-56.2-101.4-84.9c-7.9-6.8-12.9-16.8-19.2-25.4c5.7-0.3,11.4-0.6,17.1-0.8c81,62.2,162,124.4,244.8,188.1
		C3478.9,2033.3,3465.7,2033.3,3452.5,2033.3z"/>
	<path class="st3" d="M3061.1,2838.8c0.8-8.6,1.5-17.2,2.2-25.8c-5.1-10.4-10.2-20.9-15.3-31.3c-1.4-15.3,0.6-31.9-5-45.5
		c-20.8-50.9-44.1-100.8-66.4-151c0.6-9.9,1.2-19.9,1.8-29.8c6.1,3,12.2,5.9,18.3,8.9c8.2,51.1,33.9,95.5,53.7,142.3
		c15,35.3,26.5,72.1,40.7,107.7c5.5,13.8,14.3,26.3,21.9,39.8C3089.2,2871.8,3073.1,2862.5,3061.1,2838.8z"/>
	<path class="st3" d="M416.1,635.1c-10.5,29.3,14.1,48,21.7,71.8c26.1,66,52.2,131.9,78.3,197.9c-5.9,12.5-11.9,25.1-17.8,37.6
		c-10.2-31.6-18.9-63.9-31-94.8c-30.4-77.3-62.4-154.1-97.4-239.9C389.8,619.6,403,627.4,416.1,635.1z"/>
	<path class="st4" d="M3252.4,1845.3c-5.7,0.3-11.4,0.6-17.1,0.8l-0.1,0.1c-0.1-67.5-0.2-134.9-0.3-202.4c4-7.7,6.1-17.8,12.3-22.7
		c20.9-16.7,44.1-30.6,64.9-47.3c34.8-27.9,68.5-57.2,102.6-85.9c5.5,4.2,11,8.5,16.6,12.7c-36.4,29.8-72.6,59.9-109.2,89.5
		c-20.9,17-42.8,32.8-63.4,50.2c-5.3,4.5-10.4,13-10.3,19.6C3249.1,1721.7,3250.9,1783.5,3252.4,1845.3z"/>
	<path class="st3" d="M3047.6,700.7c-18.1,10.8-38.1,19.6-54,33c-29.4,24.7-56.1,52.6-84.8,78.2c-5,4.5-14.2,4.2-21.5,6.1
		c10.1-14.3,18-31,30.6-42.6c60.2-56,121.7-110.7,182.9-165.6c4.2-3.7,10.6-4.9,20.6-9.3c-3.4,25.2,0.8,47.3-21.9,60.6
		c-11.7,5.4-23.4,10.8-35.1,16.2C3058.7,685.1,3053.1,692.9,3047.6,700.7z"/>
	<path class="st3" d="M2854.2,824.8c-24.6,15.3-45.1-2.4-66.5-9.1c-17.9-5.6-34.9-14.1-52.3-21.4c-10.5-8.5-24.1-15.1-30.9-25.9
		c-12-19.3-18.2-42.2-29.8-61.8c-16.7-28.4-29.1-57.1-24.1-90.9c7.7-5.3,15.4-10.7,23.1-16c4.4,0.5,8.8,1.1,13.2,1.7
		c-1.5,2.1-3.1,4.1-4.6,6.2c-2.8,5.3-5.6,10.5-8.5,15.8c0.5,12,1.1,23.9,1.6,35.9c1.9,3.6,3.8,7.2,5.6,10.8
		c12.3,26.6,23.7,53.7,37.2,79.6c4.9,9.4,13.5,18.9,22.8,23.5C2778.4,791.3,2816.4,807.7,2854.2,824.8z"/>
	<path class="st4" d="M686.2,435.4c-4.9-3.7-13.8-7.1-14.1-11.2c-1.3-17-13.2-24.7-24.8-33.2c16.8,3.5,34.6,4.7,50.3,11
		c65.9,26.4,130.7,55.6,197.1,80.6c16.7,6.3,37.8,0.7,56.9,0.5c-6.1,27-34.7,8.4-46.9,23.1c-55.6-20.7-111-41.6-166.8-61.9
		C721.5,438.3,706.7,419.6,686.2,435.4z"/>
	<path class="st4" d="M2011.8,3428.5c1.3,11.9,2.6,23.7,3.9,35.6c-55.6-71.5-111.3-143.1-166.9-214.6c-9.5-5.1-18.9-10.3-28.4-15.4
		c-0.2-2.6-0.3-5.2-0.5-7.9c14.2,0,28.5,0,42.7,0c3.3,6.9,5.5,14.5,9.9,20.5c26.3,35,55.2,68.2,79,104.8
		c11.8,18.2,22.2,33.6,44.1,38.1c2.4,2.6,4.8,5.1,7.2,7.7C2005.9,3407.8,2008.9,3418.1,2011.8,3428.5z"/>
	<path class="st3" d="M3352.4,1154.9c-5.2-5.9-10.3-11.8-15.5-17.7c-6-2.2-12-4.3-18-6.5c-11.8-0.1-23.6-0.3-35.5-0.4
		c-65.7-8-131.4-16-197-24c-2.1-8.4-4.2-16.9-6.3-25.3c17.8,1.4,35.7,2.7,53.5,4.1c2.9,1.7,5.9,3.3,8.8,4.9
		c23,0.9,46.1,1.8,69.1,2.7c2.6,0,5.2-0.1,7.9-0.1c29.8,4,60,6,89.2,12.5c25.3,5.6,49.5,16.2,74.2,24.6c-7.7,8-15.4,16-23.1,24.1
		l-3.5,1.3L3352.4,1154.9z"/>
	<path class="st3" d="M1464.1,3458.6c1.2-8.9,0.2-18.9,4-26.4c5-9.9,13.8-17.9,20.9-26.7c2.6-3.1,5.2-6.2,7.8-9.4
		c0.1-2.2,0.2-4.3,0.4-6.5c16.4-14.9,34.5-28.3,48.9-44.9c31.4-36.4,60.9-74.5,91.2-111.9c4.6,0.3,9.2,0.6,13.8,0.9
		c-2.4,6.5-4.9,13.1-7.3,19.6c-43.7,56.7-86.4,114.2-131.6,169.7C1500.1,3438.1,1480.3,3446.9,1464.1,3458.6z"/>
	<path class="st4" d="M2347.9,193.5c8.2-24.1,16.4-48.2,24.5-72.3c4,11.2,11.8,22.6,11.4,33.7c-2.1,54.2,8.8,105.9,22.5,157.8
		c5.1,19.2,1.4,40.8,1.7,61.3c-4.8,0-9.5,0-14.3,0c-12.5-46.5-28.1-92.4-23.9-141.9C2371.3,215.1,2371.5,197.1,2347.9,193.5z"/>
	<path class="st3" d="M430,2423.1c-3.8,0.9-7.7,1.9-11.5,2.8c-18.9-25.9-49.5-18-74.6-25.7c-19.1-2.1-38.3-4.3-57.4-6.4
		c-14.5-2.7-29-5.3-43.4-8c-27.4-2.2-54.9-4.5-82.3-6.7c-14.1-2-28.1-4.1-42.2-6.1c-1.4-5.9-2.9-11.7-4.9-20.1c15.7,0,29.2,0,42.8,0
		c18.9,2.3,37.9,4.6,56.8,6.9c4.1,0.1,8.2,0.1,12.4,0.2c59.2,17.3,119.6,25.9,181.3,23.9C414.5,2397,422.2,2410.1,430,2423.1z"/>
	<path class="st4" d="M671.2,3061.7c-8,0-16,0-24.1,0.1c58-64.7,116.1-129.4,174.1-194.2c6.8,0.2,13.6,0.5,20.3,0.7
		c0.2,2.4,0.2,4.7,0,7.1c-33.7,36.7-67.9,72.8-100.8,110.2c-19.2,21.9-36.2,45.8-54.2,68.8l0.2-0.1
		C681.6,3056.8,676.4,3059.2,671.2,3061.7z"/>
	<path class="st4" d="M2346.4,3326.8c-4,5-8,9.9-11.9,14.9c-12.9-35.1-26.2-70-38.5-105.3c-17.4-50.1-33.9-100.5-50.8-150.8
		c10.3,2.6,20.6,5.2,30.9,7.8c0.8,6.3,0.6,13,2.5,18.9C2301,3183.9,2323.7,3255.4,2346.4,3326.8z"/>
	<path class="st4" d="M2687,601.3c-4.4-0.5-8.8-1.1-13.2-1.7c3-6.8,4.5-15,9.2-20.3c31.6-35.1,64.2-69.2,95.6-104.3
		c8.1-9.1,13.4-20.8,19.9-31.3l-0.2,0.2c7.8-2.6,15.6-5.2,23.5-7.8c5.9,0.3,11.7,0.7,17.6,1c-28.4,31.1-56.5,62.4-85.2,93.3
		C2732.1,554.3,2709.4,577.7,2687,601.3z"/>
	<path class="st3" d="M617.8,2674.4c-37.8,34.9-75.3,69.9-113.6,104.3c-4.2,3.7-12.1,3.3-18.3,4.8l-2.5-2.5
		c30.6-33.2,60.3-67.2,92.1-99c11.1-11.1,27.5-16.9,41.5-25C617.3,2662.7,617.5,2668.6,617.8,2674.4z"/>
	<path class="st4" d="M1238.9,390.2l-3.2,0.7h-3.3c-2.6-0.7-5.2-1.4-7.8-2.1c-11.6-30.9-24.4-61.3-34.4-92.7
		c-10.7-33.5-18.8-67.9-28.1-101.9c3.7-0.2,7.3-0.4,10.9-0.5C1194.9,259.2,1216.9,324.7,1238.9,390.2z"/>
	<path class="st3" d="M2088.9,3069.3c8.7-4.8,17.5-13.7,26.2-13.6c29.1,0.5,58.4,2.3,87,7.5c12.6,2.3,23.6,14,35.2,21.4
		c-34.6,9.8-69.2,20.8-101.8-5.7c-5-1-10-2-15-3.1c-5.2,0-10.4,0-15.6,0C2099.6,3073.8,2094.2,3071.6,2088.9,3069.3z"/>
	<path class="st3" d="M841.6,2868.4c-6.8-0.2-13.6-0.5-20.3-0.7c-6-20.8-11.9-41.6-17.8-62.3c-1.5-2.7-3-5.5-4.5-8.2
		c-11.7-25.4-23.5-50.8-35.2-76.2c0.4-3.3,0.9-6.6,1.3-9.9c29,5.8,42,24.9,47,53c2.8,15.9,11.4,30.7,15.9,46.4
		C833.3,2829.5,837.1,2849,841.6,2868.4z"/>
	<path class="st4" d="M2088.9,3069.3c5.4,2.2,10.7,4.4,16.1,6.7c-26.4,20.4-52.6,41-79.3,60.9c-12.8,9.6-26.6,18-39.9,27
		c-4.3-0.3-8.7-0.7-13-1c5.6-7.9,10.1-16.9,16.9-23.4c25-23.8,50.9-46.7,76.4-70C2073.7,3069.5,2081.3,3069.4,2088.9,3069.3z"/>
	<path class="st3" d="M1411.3,403.3c0.2,8.1,0.4,16.2,0.6,24.4c-52,12.1-103-0.6-154.3-5.8c-16.4-1.6-18.9-10.2-11-23.5
		c10.5,1.4,21,2.7,31.5,4.1c24.8,2.6,49.7,5.1,74.6,7.7c1.8-0.4,3.4,0.1,4.6,1.6c2.5,0.5,5,0.9,7.5,1.3
		C1380.2,409.8,1395.8,406.6,1411.3,403.3z"/>
	<path class="st4" d="M765,2711c-0.4,3.3-0.9,6.6-1.3,9.9c-36.9-16.5-73.4-34-111-48.7c-9.9-3.9-23.2,1.2-34.9,2.2
		c-0.2-5.8-0.5-11.7-0.7-17.5c0.2-2.6,0.5-5.2,0.7-7.9c46.5,15.5,93,31,139.5,46.5C759.8,2700.7,762.4,2705.8,765,2711z"/>
	<path class="st3" d="M429.8,2796.8c2.2-2.4,4.3-4.8,6.5-7.1c3.1-0.1,6.1-0.1,9.2-0.1c12.6-2.9,25.3-5.7,38-8.6l2.5,2.5
		c-31.7,31-63.4,62-95.9,93.8c-10.2-29.8-10.2-29.8,9.6-48.6c10-7.8,20-15.6,30-23.4C429.6,2802.4,429.7,2799.6,429.8,2796.8z"/>
	<path class="st4" d="M3468.3,1468.4c-16.3,0.5-32.7,2.3-48.9,1.2c-15.2-1.1-30.3-5.3-45.4-8.1c39.1-8,78.1-16,118-24.1
		C3497.5,1464.9,3481.3,1465.1,3468.3,1468.4z"/>
	<path class="st4" d="M72,1456.5c-7.3,2.8-14.6,5.5-21.9,8.3c-1.5,8.9-3,17.8-4.4,26.7c-1.2-0.2-2.8-0.1-3.7-0.8
		c-13.2-10.3-26.5-20.7-39.1-31.8c-0.4-0.3,6.2-12.7,10.1-13.1C33.3,1444.1,56.2,1432.4,72,1456.5z"/>
	<path class="st4" d="M3359.7,1153.7c7.7-8,15.4-16,23.1-24.1c11.7,7,31.5-28.4,39.5,11.3
		C3400.8,1145.3,3380.2,1149.5,3359.7,1153.7z"/>
	<path class="st4" d="M160.6,2379.1c27.4,2.2,54.9,4.5,82.3,6.7C215.1,2388.6,186.5,2400.5,160.6,2379.1z"/>
	<path class="st3" d="M45.6,1491.5c1.5-8.9,3-17.8,4.4-26.7c13,14.9,26,29.7,39.1,44.6c-1.6,1.4-3.1,2.8-4.6,4.4
		c-3.2,0.5-6.5,0.9-9.7,1.4C65.1,1507.3,55.3,1499.4,45.6,1491.5z"/>
	<path class="st4" d="M1352.6,410.2c-24.8-2.6-49.7-5.1-74.6-7.7C1303.3,401.1,1329.7,389.4,1352.6,410.2z"/>
	<path class="st4" d="M2349,3396.8c7.9,0.1,15.7,0.2,23.6,0.3c-3.2,9.2-6.5,26.4-9.5,26.3C2346,3423,2344.8,3410.6,2349,3396.8z"/>
	<path class="st4" d="M2372.3,108.9c-4-0.4-8-0.9-12-1.3c0-13.5,0-27,0-44.9C2379.2,77.4,2382.3,91.4,2372.3,108.9z"/>
	<path class="st4" d="M109.8,1542.7c12.9,8.2,25.8,16.4,38.7,24.6C135.6,1559.1,122.7,1550.9,109.8,1542.7z"/>
	<path class="st4" d="M2222.7,403.4c-10.5,13-21.3,12.5-32.2,0.6C2201.2,403.8,2212,403.6,2222.7,403.4z"/>
	<path class="st4" d="M286.4,2393.8c19.1,2.1,38.3,4.3,57.4,6.4C324.6,2398.1,305.5,2395.9,286.4,2393.8z"/>
	<path class="st3" d="M1089.2,3094.3c17.4,8.5,12.7,19.2,3.1,30.5C1091.3,3114.6,1090.2,3104.4,1089.2,3094.3z"/>
	<path class="st3" d="M1161.8,155.6c1.3,1.9,1.7,4,1.1,6.3c-0.3,5.7-0.6,11.4-1,17.1l-0.1,0.1c-21.4-2.5-13.4-19.4-15.4-31.4
		l-0.1,0.1C1151.6,150.4,1156.7,152.9,1161.8,155.6z"/>
	<path class="st3" d="M2393.8,374c4.8,0,9.5,0,14.3,0c0.9,6.8,1.7,13.7,2.6,20.5c-1.1,3.5-2.3,7-3.4,10.5
		c-4.1-5.1-8.3-10.2-12.4-15.4C2394.4,384.4,2394.1,379.2,2393.8,374z"/>
	<path class="st3" d="M741.3,802c-5.8-3.2-11.5-6.4-17.3-9.6c9.3-2.7,18.7-5.5,28-8.2C748.4,790.2,744.8,796.1,741.3,802z"/>
	<path class="st4" d="M1161.8,155.6c-5.1-2.6-10.3-5.2-15.4-7.8c0.7-6.3,1.4-12.6,2.1-18.9C1153,137.8,1157.4,146.7,1161.8,155.6z"
		/>
	<path class="st4" d="M3437.8,1496.7c5.7-5.2,11.5-10.3,17.2-15.5C3449.3,1486.4,3443.6,1491.5,3437.8,1496.7z"/>
	<path class="st4" d="M2407.2,405c1.1-3.5,2.3-7,3.4-10.5c3.8,6.3,7.7,12.5,11.5,18.8c-4.5-0.3-9-0.5-13.6-0.8
		C2408.4,409.9,2407.9,407.4,2407.2,405z"/>
	<path class="st4" d="M2258.6,378.3c-3.6,6.6-7.1,13.2-10.7,19.8C2251.5,391.5,2255.1,384.9,2258.6,378.3z"/>
	<path class="st4" d="M2040,53.5c2.6-5.1,5.2-10.3,7.9-15.4C2045.3,43.2,2042.6,48.4,2040,53.5z"/>
	<path class="st3" d="M1172.9,193.7c-3.7,0.2-7.3,0.4-10.9,0.5c-0.1-5.1-0.1-10.1-0.1-15.2l0.1-0.1c3.2,0.4,6.3,0.7,9.5,1.1
		C1172,184.6,1172.5,189.2,1172.9,193.7z"/>
	<path class="st4" d="M1171.5,180.1c-3.2-0.4-6.3-0.7-9.5-1.1c0.3-5.7,0.6-11.4,1-17.1C1165.8,167.9,1168.6,174,1171.5,180.1z"/>
	<path class="st4" d="M2120.5,3076c5,1,10,2,15,3.1C2130.5,3078.1,2125.5,3077,2120.5,3076z"/>
	<path class="st4" d="M2673.9,623.3c2.8-5.3,5.6-10.5,8.5-15.8C2679.6,612.8,2676.7,618,2673.9,623.3z"/>
	<path class="st4" d="M2136.2,406.9c-3.5,1.4-6.9,2.8-10.4,4.2C2129.3,409.7,2132.8,408.3,2136.2,406.9z"/>
	<path class="st0" d="M3165,1993.4c2.9-1.9,5.8-3.9,8.6-5.8C3170.8,1989.5,3167.9,1991.5,3165,1993.4z"/>
	<path class="st4" d="M1364.7,413.1c-2.5-0.5-5-0.9-7.5-1.3C1359.7,412.2,1362.2,412.7,1364.7,413.1z"/>
	<path class="st4" d="M2681.2,670c-1.9-3.6-3.8-7.2-5.6-10.8C2677.4,662.8,2679.3,666.4,2681.2,670z"/>
	<path class="st4" d="M74.8,1515.1c3.2-0.5,6.5-0.9,9.7-1.4c-0.2,3-0.3,6-0.5,8.9C81,1520.2,77.9,1517.7,74.8,1515.1z"/>
	<path class="st4" d="M798.9,2797.1c1.5,2.7,3,5.5,4.5,8.2C801.9,2802.5,800.4,2799.8,798.9,2797.1z"/>
	<path class="st4" d="M3219.3,1092.6c-2.6,0-5.2,0.1-7.9,0.1C3214.1,1092.6,3216.7,1092.6,3219.3,1092.6z"/>
	<path class="st0" d="M1106.6,3282.3l1,2.5c-0.9,0.2-1.8,0.5-2.6,0.7C1105.6,3284.4,1106.1,3283.4,1106.6,3282.3z"/>
	<path class="st4" d="M2383.1,3303.8c-0.4-2.1-1.2-4.1-1.2-6.2c0-0.6,2.1-1.1,3.2-1.7C2384.5,3298.5,2383.8,3301.1,2383.1,3303.8z"
		/>
	<path class="st4" d="M2380.4,3346c0.5-3.6,0.9-7.3,1.4-10.9C2381.4,3338.7,2380.9,3342.4,2380.4,3346z"/>
	<path class="st4" d="M3142.4,1090c-2.9-1.7-5.9-3.3-8.8-4.9C3136.5,1086.7,3139.4,1088.3,3142.4,1090z"/>
	<path class="st1" d="M2407.2,405c0.7,2.5,1.2,5,1.4,7.5c9.4,11.1,17,25.3,28.7,32.9c29.1,18.7,60.5,33.6,90.1,51.5
		c29.7,17.9,57.7,20.9,91.3,6.8c43.2-18.1,89.3-29.5,134.1-43.8c-27.1,22.4-53.8,45.4-81.5,67c-16.8,13.1-35.1,24.2-55.7,38.2
		c13.6,19.7,24.2,35.2,34.9,50.7c-4.9,33.8,7.4,62.5,24.1,90.9c11.6,19.6,17.8,42.5,29.8,61.8c6.7,10.8,20.3,17.4,30.9,25.9
		c11.1,37.4,21.9,74.9,33.5,112.2c3.8,12,9.8,23.4,14.8,35c-14.9,6.9-14.5,16.7-10.2,31.6c23.7,82.4,63.2,156.1,117.9,221.8
		c19.9,23.9,32.1,57.3,70.6,59.2c-7.7,50.1-15.4,100.1-23.1,150.2c-8-1.3-16-2.7-24-4c2.9-42.2-31.4-58.9-57-80.2
		c-19.8-16.4-38.8-29.5-46.3-57.8c-5.6-20.9-23.7-39.9-51.4-39.1c-8.7-16-17.4-31.9-23.4-43c-23.7,5.1-39.3,8.4-54.9,11.8
		c-2.8,0.1-5.6,0.1-8.3,0.2c2.8-12.5,5.6-25.1,8.4-37.6c3.1-5.5,6.1-11,9.2-16.4c1.7,0.1,3.5-0.1,5.2-0.4c3-5.6,5.9-11.2,8.9-16.8
		c8.1-21.5,8.4-40.8-6.2-61.5c-11.5-16.3-17.1-37.1-24.2-56.3c-14.6-39.6-27.3-79.9-43.3-118.8c-3.6-8.8-17.3-13.5-26.3-20.1
		c-4.1-17.3-6.8-35.2-12.6-52c-11.1-32.3-24-63.9-36.2-95.8c-5.3-22.1-5.5-47.2-16.7-65.7c-39.8-66-101.5-107.4-174.7-124.8
		c-38.2-9.1-81.4-16-120.8,4.6c-45.9-23.5-82.5-57.1-109.7-100.9c38.8-6.2,79.9,8,116.9-15.7c13.5-8.6,21.8-16.4,27.4-33.2
		c17.7-52.8,40.1-103.9,60.6-155.7c2,16.1,6.1,32.3,5.5,48.3c-1.7,42.1-5.4,84.2-8.3,125.7c15.7,4.7,25.6,7.2,35.1,10.5
		c19.8,7,21.8-5.9,23-20C2398.9,394.7,2403,399.8,2407.2,405z"/>
	<path class="st1" d="M3235.3,1846.1c6.3,8.6,11.4,18.6,19.2,25.4c33.4,28.7,68.1,56,101.4,84.9c6,5.2,7.8,15.2,11.5,23
		c-54.2-23.3-108.4-46.7-166-71.5c-7.3,22.9-13.7,42.8-20.1,62.7c-5.1,0.5-12.5-1-15,1.8c-42.3,48.5-103.9,85-102.6,161.2
		c-10.4,6.9-22.8,12.1-31,21.1c-24.3,26.3-47,54.1-70.3,81.3c-14.1,7.6-29.9,13.2-41.9,23.4c-12.5,10.6-21.3,25.6-31.7,38.7
		c-59.1,74.1-101.9,156.1-121.4,249.5c-39.7,20.8-78.2,44.5-124.7,47.4c14.4-44.1,29.6-88.1,43-132.5c10.1-33.7,17.9-68,26.7-102.1
		c5.1-16.7,10.2-33.4,15.7-51.2c-10.3-6.4-19-11.4-27.2-17c-22.6-15.5-45-31.2-67.5-46.8c26.1,5.8,52.5,10.6,78.3,17.6
		c46.8,12.7,75.5,2.7,104.9-33.2c34.6-42.3,71.8-82.5,106.9-124.3c5.2-6.1,5.5-16.4,8.1-24.7c5-12.7,10-25.5,15-38.2
		c31.1-36.8,62.3-73.7,93.4-110.5c6.2-1.1,16-0.1,18.1-3.7c20.7-34.8,50-68.4,57.5-106.2c9.7-49.2,9-103.2-0.6-152.7
		c-8.1-41.9-22.6-88.1-67.4-111.5c8.2-39,16.3-78.1,24.5-117.1c26.5-1.9,38.6,18.5,51.4,35.3c41.1,53.8,60.3,58.7,125.1,40.5
		c38.8-10.9,79.8-14,119.8-20.7c-3.5,4.9-6,12.2-10.7,14.3c-25.8,11.4-53.3,19.4-78.1,32.4c-70.4,36.9-82.3,21.2-52.4,100.8
		c-2,4.8-5.8,9.5-5.8,14.3c-0.8,58.2-1.4,116.4-0.8,174.6c0.1,4.6,9.6,9.1,14.7,13.7L3235.3,1846.1z"/>
	<path class="st4" d="M2766.8,1745.4c14.9,29.4,46.1,24.1,70.2,29.7c57.5,13.5,72.6,29.3,78.9,87c5.4,49.5,15.1,98.5,22.9,147.7
		c-3.8,11.9-7.5,23.7-11.3,35.6c-3.9-7.8-9.9-15.3-11.3-23.5c-9.9-58.3-19.2-116.7-28.1-175.2c-3.4-22.7-12.4-34.7-37.5-41.1
		c-50.6-12.9-99.6-32.2-149.3-48.9C2723.1,1752.9,2744.9,1749.2,2766.8,1745.4z"/>
	<path class="st3" d="M3047.5,1558c44.9,23.5,59.3,69.6,67.4,111.5c9.5,49.4,10.3,103.4,0.6,152.7c-7.5,37.8-36.8,71.4-57.5,106.2
		c-2.1,3.6-11.9,2.6-18.1,3.7c-2.8-7.8-5.7-15.7-8.5-23.6c3.2-3.3,6.4-6.6,9.6-9.8c7.6-2.1,20.2-2.1,21.9-6.5
		c13.4-34.3,28.6-68.6,35.9-104.5c11.6-56.7-1.4-111.8-21.8-165.5c-6.7-17.8-17.3-24.2-34.6-23.4c-3.3-0.8-6.7-1.5-10-2.3
		C3037.4,1583.7,3042.4,1570.9,3047.5,1558z"/>
	<path class="st3" d="M2961.9,1254c-38.5-1.8-50.7-35.2-70.6-59.2c-54.7-65.7-94.2-139.4-117.9-221.8c-4.3-14.9-4.7-24.7,10.2-31.6
		c10.1,0.4,20.3,0.8,30.4,1.2c0,5.2,0,10.3,0,15.5c-23.9-2.2-21.1,10.7-15.8,26.5c27.2,81.3,71.3,153,126.5,217.8
		c7.2,8.4,24.6,8.2,37.2,12c2.8,2.8,5.7,5.6,8.5,8.4C2967.6,1233.3,2964.8,1243.7,2961.9,1254z"/>
	<path class="st1" d="M3086.3,1106.3c65.7,8,131.4,16,197,24c-4,4.6-7.6,12.9-11.9,13.3c-55.7,5.5-111.4,10.3-167.2,13.7
		c-5.2,0.3-14.2-9.9-16.1-16.7C3085.2,1129.9,3086.7,1117.8,3086.3,1106.3z"/>
	<path class="st4" d="M2970.5,1223c-2.8-2.8-5.7-5.6-8.5-8.4c-3.1-16.4-6.2-32.8-9.3-49.1c-10.2-53.7-24.8-105.2-68.2-143.2
		c-23.9-20.9-47-42.6-70.5-64c0-5.2,0-10.3,0-15.5c56.7,27,101.8,70.1,131.1,122.7C2971,1111.9,2993,1165.6,2970.5,1223z"/>
	<path class="st4" d="M3041,1898.6c-3.2,3.3-6.4,6.6-9.6,9.8c-7.5-22.6-20.3-44.9-21.4-67.7c-2.9-63.3-2.7-126.9,0.1-190.3
		c0.8-18.3,14.5-36,22.3-53.9c3.4,0.8,6.7,1.5,10,2.3c-5.3,60.2-13.7,120.4-14.9,180.8C3026.6,1819.2,3036.1,1859,3041,1898.6z"/>
	<path class="st3" d="M2766.8,1745.4c-21.8,3.8-43.7,7.5-65.5,11.2c-2.2-0.1-3.7-1.1-4.7-3.1c-0.2-5.8-0.3-11.6-0.5-17.4
		c49.1-17.8,97.1-41.8,147.7-51.3c38-7.1,45.2-26.7,49.1-56.3c4.8,2.7,9.5,5.3,14.3,8c-7.5,20.7-15,41.4-22.5,62.1
		c-35.9,10.2-72,20-107.7,31.2c-4.3,1.3-6.5,9.7-9.7,14.8L2766.8,1745.4z"/>
	<path class="st4" d="M2907.1,1636.5c-4.8-2.7-9.5-5.3-14.3-8c5.1-32.8,10.4-65.5,15.2-98.2c6.1-41.4,23.2-82.4,6.2-125
		c-1-1.8-0.8-3.5,0.7-5.1c8,1.3,16,2.7,24,4c11.9,34.6,2.9,68-4.5,102c-7.9,36.3-12.5,73.3-19.1,109.9
		C2913.9,1623.2,2909.9,1629.8,2907.1,1636.5z"/>
	<path class="st1" d="M2767.3,1744.6c3.2-5.1,5.3-13.4,9.7-14.8c35.7-11.1,71.7-20.9,107.7-31.2c0,13.7,0,27.5,0,45.9
		C2842.8,1744.6,2805,1744.6,2767.3,1744.6z"/>
	<path class="st3" d="M2927.4,2045.4c3.8-11.9,7.5-23.7,11.3-35.6c2.6,10.9,5.2,21.8,7.8,32.7c-5,12.7-10,25.5-15,38.2
		c-3-2.8-5.9-5.6-8.9-8.4C2924.2,2063.4,2925.8,2054.4,2927.4,2045.4z"/>
	<path class="st1" d="M3318.8,1130.8c6,2.2,12,4.3,18,6.5c-5.4,0.4-10.8,0.8-16.2,1.2C3320,1135.9,3319.4,1133.3,3318.8,1130.8z"/>
	<path class="st1" d="M258.7,1853.8c-0.2-4.9-0.4-9.7-0.7-14.6c5.2-8.7,14.5-17.2,14.8-26c1.5-47.7,1-95.6,0.9-143.3
		c-0.1-40-34.2-55.7-58.1-77c-33.4-29.7-70.6-55-106.2-82.2c7.9,0.2,16.9-1.9,23.6,1.1c37.5,16.4,74.1,34.8,111.6,51.2
		c41.6,18.2,56.2,10.3,68.6-34.3c1-3.4,4.1-6.2,6.2-9.3c33,5.2,40.6-26,53.3-43c24.8-33.4,64.6-61.3,56.7-111.9
		c33.9-36.7,67.7-73.4,101.6-110.1c27.9,5.3,44.6-12.6,57.3-31.8c34-51,69.3-101.7,97-156.1c19.4-38.2,27.1-82.3,40.1-123.8
		c41.7-15.8,83.4-31.6,125-47.4c-16.6,51.3-33.9,102.3-49.6,153.9c-8.1,26.5-13.6,53.8-20.2,80.7c-18.2,44.8-18.2,44.7,19.5,71.5
		c1.8,1.3,2.5,4.3,3.7,6.4c-13.9,4.7-30,16.4-41.1,12.8c-29.3-9.5-50.2,4.8-65.5,21.9c-32,35.7-59.5,75.5-88.8,113.6
		c-7.8,4.2-18.4,6.4-22.7,12.9c-13.3,20-42.3,33.1-31.1,64.8c-0.4,4.9-0.7,9.8-1.1,14.7c-13.2,9.3-29,16.3-39.1,28.3
		c-22,26-41.1,54.4-61.4,81.8c-14.5,8.8-36.2,14.2-42.3,27c-24.1,50.8-46.6,104-42.2,161.7c2.9,37.7,14.3,74.7,22.2,112
		c6.7,31.6,22.9,55.4,55.5,65.1c-8.4,47-16.8,94.1-25.2,141.1c-18.8-19.9-40-38.1-55.8-60.1c-32.9-45.7-40-46.8-95.2-30
		c-42.4,12.9-87.2,17.3-130.5,27.6c-15.8,3.8-30.1,13.8-45.1,21.1c-8.7,0-17.4,0-26.1,0c-1.3-2.2-2.7-4.4-4-6.6
		c10.1-7.7,20.1-15.3,30.1-23c57.1-24.7,114.9-47.8,170.8-75C289,1907.5,284.5,1878.3,258.7,1853.8z"/>
	<path class="st4" d="M1403.7,568c5,0.1,10,0.2,14.9,0.2c2.8,2,5.6,3.9,8.3,5.9c-52.2,43.3-104.1,86.8-156.7,129.6
		c-18.5,15.1-28.7,30.3-21.7,56.3c9.3,34.6,14.4,70.2,21.2,105.4c-3.7,11.1-7.4,22.2-12.2,36.8c-9.9-11.8-17.2-20.6-24.5-29.3
		c2.4-0.2,4.8-0.4,7.2-0.7c1.5-14.4,5.2-29.1,3.8-43.2c-1.7-15.9-6.4-32.1-12.8-46.9c-19.6-45.4,0.7-76,34.8-103.1
		C1312.2,642.4,1357.8,605,1403.7,568z"/>
	<path class="st3" d="M725.4,942.5c-12.9,41.5-20.7,85.6-40.1,123.8c-27.7,54.4-63.1,105.1-97,156.1c-12.8,19.2-29.5,37.1-57.3,31.8
		c-2.7-36.6-5.3-73.2-8-109.8c5.5,0.3,11,0.7,16.5,1c4.5,26.8-21,56.3,4.8,81.8c5-1.5,8.3-1.5,9.7-3.1
		c65-70.8,114.3-151,143.4-242.9c2.2-7-1.6-15.9-2.6-24c-0.3-4.8-0.5-9.7-0.8-14.5C704.4,942.5,714.9,942.5,725.4,942.5z"/>
	<path class="st3" d="M936.5,717c6.8-63.2,43.8-108.1,90.1-146.6c48.9-40.7,109.4-50.4,169.7-54.8c17-1.2,35.3,15.1,53,23.4
		c-3.2,6.9-6.3,13.8-9.4,20.8c-3.9-5-7.9-10-11.8-15c-17.5-2.4-35.5-8.7-52.3-6.5c-99.4,13-174.9,60.9-217.2,154.8
		c-1.9,7.9-3.9,15.8-5.8,23.7C947.3,716.9,941.9,717,936.5,717z"/>
	<path class="st1" d="M516.1,904.9c-26.1-66-52.2-131.9-78.3-197.9c7.6,3.1,15.2,6.3,22.8,9.4c24.2,35.5,49.6,70.2,72.1,106.7
		c10,16.3,19.4,36.5,18.8,54.6C551.2,887.1,528.6,895.8,516.1,904.9z"/>
	<path class="st4" d="M1228.1,544.8c3.9,5,7.9,10,11.8,15c-18.8,19.9-34.8,43.8-56.9,58.9c-40,27.4-82.9,51.1-126,73.5
		c-24.7,12.9-52,21.2-78.8,29.5c-7.3,2.2-16.9-3.1-25.4-4.9c1.9-7.9,3.9-15.8,5.8-23.7c11.1,0.4,24,4.8,32.9,0.7
		c53.1-24.8,106.9-48.8,157.1-78.9C1178.4,597,1201.8,568.5,1228.1,544.8z"/>
	<path class="st1" d="M398.1,1208c-33.1-7.7-66.6-14.2-99.3-23.6c-32.4-9.3-63.9-21.7-95.8-32.7c27.6-2.1,55.2-6.6,82.7-5.8
		c35.5,1.1,70.8,6.6,112.3,10.8C398.1,1173.3,398.1,1190.6,398.1,1208z"/>
	<path class="st4" d="M873.5,878.3c3.6-4.9,6.2-12.5,10.9-14.3c43.9-16.1,88.3-30.7,132.2-46.6c22.7-8.2,44.5-19.1,67.3-27
		c15.2-5.3,31.4-7.7,47.1-11.4c-0.2,2.3-0.4,4.5-0.5,6.8c-7.5,4.1-15.1,8.2-22.6,12.3c-15.1,8.6-29.5,19.2-45.6,25.6
		c-60.8,24-122.2,46.7-183.5,69.8C877.2,888.4,875.3,883.4,873.5,878.3z"/>
	<path class="st3" d="M873.5,878.3c1.8,5,3.7,10.1,5.5,15.1c-4.2,11.2-8.4,22.4-12.6,33.6c-0.5,2.6-1,5.2-1.5,7.8
		c-6.3,15.6-12.6,31.2-18.9,46.7c-1,2.7-2.1,5.4-3.1,8.1c-7,21.9-15,43.5-20.5,65.8c-6.1,24.5-9.8,49.6-14.5,74.4
		c-9-0.1-18.1-0.2-27.2-0.3c6.7-26.9,12.1-54.2,20.2-80.7c15.8-51.5,33-102.6,49.6-153.9C858.1,889.5,865.8,883.9,873.5,878.3z"/>
	<path class="st4" d="M694,942.5c0.3,4.8,0.5,9.7,0.8,14.5c-8.5,6-16.4,12.9-25.4,17.7c-53.8,28.6-91.2,71.1-112.2,128.4
		c-5.2,14.3-11.8,28.1-17.7,42.1c-5.5-0.3-11-0.7-16.5-1c15.8-93.1,74.9-153.2,152.3-199.1C680.2,942.3,687.7,943.3,694,942.5z"/>
	<path class="st1" d="M1130.6,785.8c0.1-2.3,0.3-4.5,0.5-6.8c15.3-5.6,30.6-11.2,48.5-17.7c21.1,38.5,40.9,74.7,60.7,111
		c-2.4,0.3-4.8,0.5-7.2,0.7c-11.6-9.6-22-21.3-34.9-28.4c-22.4-12.5-33.3-43.4-65.1-40.4c-2-0.5-3.4-1.7-4.3-3.6
		C1129.4,795.6,1130,790.7,1130.6,785.8z"/>
	<path class="st1" d="M172.6,1129.7c5.1,0,10.1,0.1,15.2,0.1c0.7,7.2,1.3,14.5,2,21.7c-5.8-4.3-11.5-8.6-17.3-13
		C172.5,1135.5,172.6,1132.6,172.6,1129.7z"/>
	<path class="st5" d="M608.3,1355.9c29.3-38.1,56.7-77.9,88.8-113.6c15.3-17.1,36.2-31.4,65.5-21.9c11.2,3.6,27.3-8.1,41.1-12.8
		c19.2-4.5,38.6-8.8,39.1-34.6c22-2.4,44.1-6.6,66.1-6.8c202-1.9,403.9-3.2,605.9-4.7c44.1-0.3,52.4-6,68.8-47.4
		c4.8-6.2,13.5-12.3,13.7-18.6c1.3-42.2,1.3-84.4,0.1-126.6c-0.2-6.4-8.9-12.5-13.6-18.7c-0.4-26-0.8-51.9-1.3-77.8
		c5.2-7.2,14.8-14.2,14.9-21.5c0.8-52.2,0-104.3-1.4-156.5c-0.1-3-9.5-5.8-14.6-8.7c0.1-28.5,0.2-57.1,0.2-85.6
		c5.4-7.9,10.8-15.8,16.2-23.7c-0.9-26.5-1.5-53-2.9-79.5c-0.5-10-2.9-19.9-4.5-29.9c3.9-0.2,9.6,1.2,11.3-0.8
		c17.5-20.1,35.2-40.2,51.2-61.6c23.1-31,45.2-62.7,66.7-94.8c7.7-11.5,12.4-24.9,18.5-37.5c10,2.9,20,5.8,30,8.8
		c37.2,58,74.4,115.9,114.2,178c10.4-15.2,15.4-22.5,24.5-35.8c5.8,9.1,9.2,14.5,12.7,19.9c-5.2,13.7-14.9,27.5-14.9,41.2
		c0,50.9,4.5,101.8,5,152.7c1,89.3,0.1,178.5,0.6,267.8c0.1,12.4,3.6,24.7,5.6,37.1c0.6,14,1.4,27.9,1.7,41.8
		c1.2,48.3,2.3,96.6,3.5,144.8c-2.8,2.3-8.5,5.2-8.1,6.8c5.4,26,30.2,42.9,56.2,39.6c19.1-2.4,38.3-6.3,57.4-5.9
		c41.2,1,82.3,6.1,123.4,6.2c41.1,0.1,82.2-6,123.3-5.5c120.4,1.4,240.8,4.7,361.2,7.2c2.6-0.4,5.1-0.7,7.7-1
		c10.4,5.3,20.7,10.6,31.1,15.9c2.8-0.1,5.6-0.1,8.3-0.2c25.4,41.2,47,49.8,78.3,31.2c27.7-0.9,45.9,18.2,51.4,39.1
		c7.5,28.3,26.6,41.4,46.3,57.8c25.6,21.3,59.9,38,57,80.2c-1.4,1.5-1.7,3.2-0.7,5.1c-12.6-11.8-25.1-23.6-39.9-37.5
		c-19,17.2-36.4,32.9-53.8,48.7c-52.6,41.8-106,82.8-157.5,126c-21.5,18.1-44,23.9-71.3,23.8c-196.1-0.5-392.1-2.1-588.2,1.3
		c-93.2,1.6-80.4,12.8-92.1,86.3c-2,12.7-1.7,26.2,0.4,38.8c1.3,7.8,8,14.7,12.2,22c-0.6,22.5-1.3,45.1-1.9,67.6
		c-0.5,11.6-1,23.1-1.6,34.7c0,11.9,0,23.8,0,35.8c-1.4,7.5-4.2,15-4.2,22.5c-0.2,151.2-0.2,302.4,0.1,453.5c0,8.7,3.2,17.4,5,26.1
		c1.3,181,2.7,362.1,4,543.1c-4.5,10.1-13,20.3-12.9,30.4c0.1,41.6-5.3,81.6-24.8,119c-44.7,59.7-89.3,119.4-138.1,184.7
		c-49.3-66.4-96.5-129.7-143.6-193.1c-5.2-23.5-10.9-46.9-15.3-70.5c-5.2-27.4-9.3-55-13.9-82.5c0.7-146.3,1.8-292.6,1.9-439
		c0.2-243.4-0.2-486.8-0.4-730.3c3.8-13.2,10.6-26.3,10.8-39.5c0.3-21.8-4.5-43.6-5.7-65.5c-1.2-23.3-12.5-36.2-35.5-38.1
		c-32.2-2.6-64.4-6.3-96.7-6.5c-181.6-0.7-363.2-0.1-544.8-1.3c-19.5-0.1-42.9-4.3-57.9-15.5c-52.9-39.4-102.9-82.6-154-124.4
		C679.6,1385.5,649.4,1363.9,608.3,1355.9z M2109.8,1293.1c-2.7,1.1-3.9,3.1-3.9,5.9c-3.3,6.1-6.6,12.3-10,18.4
		c-36,40-60.9,83.1-39.4,139.3c8.5,7.7,15.9,17.7,25.8,22.7c26.9,13.8,54.8,14,80.9-2.2c23.5-14.6,31.6-38,26.9-63.8
		c-9.5-52.6-45.1-91.5-71.8-143.7C2113.2,1283.7,2111.5,1288.4,2109.8,1293.1z M1640.2,1425c-97.7,19.7-98.4,2.1-104.6-65.9
		c-2.9-32.1-7.8-64.1-13.8-95.8c-2.2-11.2-10.6-21.1-16.2-31.6c-10.8,11.4-23.3,21.8-31.6,34.8c-4.1,6.4-1.5,17.8-0.2,26.7
		c7.2,48.6,12.8,97.6,23.8,145.3c4.2,17.9,19.8,44.2,33.7,46.6c38.4,6.6,78.8,4.1,118.2,2.3c15.6-0.7,30.9-8.8,48.1-14
		c-8.6,43.1-8.6,43.1,37.8,69.9c11.3-15.4,22.9-31.2,36.9-50.2c-22.1-10-39.8-18-57.5-26c44.2-10.1,88.8-14.9,133.6-17.7
		c37.2-2.2,47.9-12.1,49.6-52.7c-49.5-9.8-102.6-1.6-159.3-23.4c27.8-22.8,48.3-39.5,70-57.3c6.3,11.6,9,20.8,15.1,26.6
		c13.5,12.9,30.7,3.5,28.4-8.3c-4.7-24-13.6-51.1-30-67.8c-17.6-17.9-34.6,3.6-47.6,18.1c-32.8,36.7-70.9,62.9-120.7,73
		c-17.9,3.7-33.1,20.4-49.5,31.2c-0.8,4.3-1.7,8.6-2.5,12.9C1613,1408.4,1623.9,1415,1640.2,1425z M1070.6,1367.1
		c-30-10.2-44.6,5.7-52.2,22.3c-10,21.6-21.4,48.7,0.8,68.5c17.6,15.8,39.9,31.1,62.4,35.9c105.3,22.7,208.6,8.3,307.9-30.5
		c24.6-9.6,45.2-30.1,46.7-61.8c1.4-28.4-6-50.6-33.1-62.2c-33.2,15.8-22.6,42.7-16.8,70c-26.5,5.9-50,13.6-74.1,16
		c-55.2,5.7-110.8,12.4-166.1,11.4c-31.2-0.6-69.5,4.7-90.8-31.1C1059.9,1393.8,1064.5,1382.3,1070.6,1367.1z M2269.7,1495.9
		c-1.7,0-11.1-1.5-19.8,0.5c-6.6,1.5-12.2,7.5-18.3,11.4c4,5.9,6.6,14.6,12.1,17.4c99.5,50.6,179.5-10.3,201.7-89.2
		c9-31.9,4.8-64.7-16.2-92.6c-11.8-15.7-24.3-17.5-37.5-0.2c-13.6,17.8-14.9,34.9-1.7,53.1c15.7,21.6,13.3,42.4-7.4,57.8
		C2351.4,1477.3,2318.9,1499.2,2269.7,1495.9z M2265.4,1438.2c9.6-6,17.5-8.1,18.9-12.4c6.6-19.2,17-39.4,15.8-58.6
		c-3.7-57.6-11.9-115-19.3-172.3c-0.8-6.2-7.9-11.6-13.3-19.2c-21.6,22.5-34.8,45.7-30.9,74.4
		C2244.9,1310.9,2255,1371.3,2265.4,1438.2z M1145.9,1347.1c16.4,21.2,28.6,43.2,60.2,26.4c6.4-3.4,18-1.3,25.5,2.1
		c22.3,10.2,31.3-7,40.4-19.7c4.7-6.6,5.5-25,2.2-26.7c-14.9-7.8-31.7-13-48.4-16c-7.2-1.3-18.1,9.5-23.3,6.9
		C1170.9,1304.5,1162.1,1329.7,1145.9,1347.1z M1849.4,1202.2c-16-9.9-28.8-17.8-47.8-29.6c-8.7,17.8-21,32.6-21.4,47.7
		c-0.2,8.3,18.9,23.5,30.2,24.5C1834.3,1247,1839.7,1224.7,1849.4,1202.2z"/>
	<path class="st0" d="M1161.9,179.1c0.1,5.1,0.1,10.1,0.1,15.2c9.2,34,17.3,68.4,28.1,101.9c10,31.4,22.9,61.8,34.4,92.7
		c-0.1,2.8-0.1,5.5-0.2,8.3c-17.2,2.2-34.7,7.1-51.4,5.4c-6.9-0.7-16.7-15.2-17.7-24.2c-4.3-39.4-4.8-79.2-9-118.6
		c-2.1-19.7-9.5-38.9-14.4-58.3c4.9-17.9,9.9-35.8,14.8-53.8C1148.5,159.7,1140.4,176.6,1161.9,179.1z"/>
	<path class="st0" d="M686.2,435.4c20.5-15.7,35.2,3,51.8,9c55.7,20.3,111.2,41.2,166.8,61.9c3,5.1,5.9,10.1,8.9,15.2
		c-6.7,7.7-13.6,15.1-20,23c-15.5,19-27.8,16.6-47.6,1.7c-32.4-24.4-69.2-42.9-104.2-63.8l-0.3,0.1c-10.6-10.2-21.3-20.5-31.9-30.7
		C701.8,446.3,694,440.8,686.2,435.4z"/>
	<path class="st3" d="M1598,576.3c-5.4,7.9-10.8,15.8-16.2,23.7c-23.1-5.1-46.2-10.1-69.3-15.2c-9.1-1.3-18.2-2.7-27.3-4
		c-19.4-2.2-38.8-4.5-58.1-6.8c-2.8-2-5.6-3.9-8.3-5.9c11.6-7,24.3-21.3,34.7-19.9C1501.9,555.3,1549.8,566.6,1598,576.3z"/>
	<path class="st5" d="M1567,451.7c21.7-16.1,19.7,4.6,24,15.5C1582.9,462,1575,456.9,1567,451.7z"/>
	<path class="st3" d="M1224.3,397.1c0.1-2.8,0.1-5.5,0.2-8.3c2.6,0.7,5.2,1.4,7.8,2.1C1229.7,393,1227,395,1224.3,397.1z"/>
	<path class="st0" d="M2642.6,2595.1c46.5-2.9,85-26.7,124.7-47.4c24.8,1.6,48.1-1.1,64.7-22.8c12-4.1,26.1-5.5,35.7-12.7
		c76.8-58,105.9-139.4,109.3-232.1c0.2-6.8-7.6-13.8-11.8-20.8c-1-7.8-1.9-15.5-2.9-23.3c23.3-27.2,46-55,70.3-81.3
		c8.3-8.9,20.6-14.2,31-21.1c10.5,47.1,21,94.2,31.5,141.4c-1,49,4,60.1,32.8,61.9c54,3.5,108.1,5.3,162.2,7.7
		c10.2,0.6,20.4,1.3,30.7,1.9c-13.4,7.3-26.1,19.5-40.2,21.2c-59.9,7.3-120.3,10.2-180.1,18c-14.8,1.9-33.1,12.9-40.8,25.4
		c-29.1,46.9-54.6,96-81.4,144.3c-0.6,9.9-1.2,19.9-1.8,29.8c-53.5,23.3-54.3,26.4-20.3,70.2c7,9.1,12.5,19.3,19.3,28.6
		c24,32.7,48.3,65.2,72.4,97.8c5.1,10.4,10.2,20.9,15.3,31.3c-13.1-9.5-27.3-17.9-39.3-28.7c-46.3-41.7-91.8-84.5-138-126.3
		c-16.4-14.8-33.4-18.6-55.5-6.5c-23.4,12.8-50.5,18.5-75,29.5c-10.4,4.7-18.4,14.8-27.5,22.4c-12.9,10.2-25.8,20.5-38.6,30.7
		c-44.3,12.8-88.5,25.7-132.8,38.5c-10.6,0.4-21.3,0.7-31.9,1.1c-43.1,15.2-88.4,26.2-128.7,46.9c-44.9,23.1-85.7,54.5-127.4,83.5
		c-7.5,5.2-10.7,16.6-15.9,25.1c-5.3,7.6-10.5,15.2-15.8,22.9c-36.5-2.8-73.2-4-109.3-9.2c-13.6-2-25.8-13.4-38.6-20.5
		c40.1-33.7,77.1-72.4,121.1-99.8c65.3-40.5,73.3-89.6,43.4-154.7c-6.5-14.1-1.2-33.6-1.3-50.6c2.6,0.3,5.2,0.6,7.8,0.9
		c17.7,36.7,35.3,73.4,55.5,115.2c17.8-13.1,28.5-21,39.2-28.9c20.5-3,41-6,61.5-9c49.9-17,100.3-32.9,149.6-51.7
		c19.1-7.3,35.7-21.2,53.4-32.1C2627,2606.2,2634.8,2600.7,2642.6,2595.1z"/>
	<path class="st0" d="M1887.8,3047.2c19.5-37.3,24.9-77.3,24.8-119c0-10.1,8.4-20.3,12.9-30.4c2.8,0.6,5.6,1.1,8.4,1.7
		c2.4,7.6,4.8,15.1,7.1,22.7c0,36.2,0,72.5,0,110.9c42.6,12.4,83.8,24.4,125.1,36.4c-25.5,23.3-51.3,46.2-76.4,70
		c-6.9,6.5-11.4,15.5-16.9,23.4c-3,7.4-6,14.9-9.1,22.3c-48.7,4.7-54.3,14.5-33.2,57.7c5.1,10.4,10.7,20.6,15.4,31.2
		c16.8,38.4,33.2,77,49.8,115.6c-21.9-4.5-32.3-20-44.1-38.1c-23.8-36.6-52.7-69.9-79-104.8c-4.5-5.9-6.7-13.6-9.9-20.5
		c22-27.9,47.5-53.7,64.7-84.3c12.6-22.3,15.5-50.6,19.6-76.7c0.8-4.9-12.3-15.5-20.4-17.5
		C1914.2,3044.8,1900.7,3047.1,1887.8,3047.2z"/>
	<path class="st0" d="M2346.4,3326.8c-22.7-71.5-45.4-142.9-67.9-214.4c-1.9-6-1.7-12.6-2.5-18.9c49.1-18,60.9-10.2,62.7,38.2
		c1.4,37.3,4.5,74.6,8.5,111.8c0.8,7.7,8.9,14.5,13.7,21.8c-2.2,22.1-4.3,44.2-6.5,66.3C2351.8,3330,2349.1,3328.4,2346.4,3326.8z"
		/>
	<path class="st3" d="M2236.9,2952.1c5.3-7.6,10.5-15.2,15.8-22.9c5,2.8,10,5.6,15,8.4c21,29,46.1,9,70.1,6.3
		c84.9-9.5,146.3-51.8,182.1-129.8c3.4-7.4,3.9-16.2,5.7-24.3c-0.3-5.4-0.7-10.8-1-16.2c10.6-0.4,21.3-0.7,31.9-1.1
		c11.6,27.8-1.2,50.5-18.4,69.5c-26.7,29.6-52.7,62-85.4,83.7c-31,20.6-69.2,32.8-105.9,41.5c-26.8,6.4-56.5,2.5-84.8,0.5
		C2253.5,2967.2,2245.4,2957.6,2236.9,2952.1z"/>
	<path class="st4" d="M2252.2,2617.4c0.1,17-5.2,36.5,1.3,50.6c29.9,65.1,21.9,114.2-43.4,154.7c-44.1,27.3-81,66.1-121.1,99.8
		c-4.7-0.5-9.4-1-14.1-1.5c-0.4-2.2-0.8-4.3-1.2-6.5c49.2-42.9,97.4-87.3,148.2-128.2c23.9-19.2,29.6-38,21.4-66.8
		c-8.7-30.7-12-62.9-17.7-94.4c4.1-4.1,8.7-7.9,12.2-12.5C2244.4,2604,2244.2,2603.8,2252.2,2617.4z"/>
	<path class="st0" d="M2799.1,3062.1c-42.6-17.8-84.7-37-128-52.8c-29.8-10.9-61.4-17.1-92.1-25.4c0.6-2.4,0.9-4.9,0.6-7.3
		c13.3-16.3,26.6-32.6,42.2-51.6c36.7,26.6,67.9,50.4,100.4,72c13.4,8.9,29.9,13,44.9,19.2c4.8,5.1,9.7,10.2,14.5,15.3
		c5.6,5,11.3,10,16.9,14.9C2798.8,3051.7,2799,3056.9,2799.1,3062.1z"/>
	<path class="st3" d="M2073.7,2914.4c0.4,2.2,0.8,4.3,1.2,6.5c-3.2,20.9-19.8,17.6-32.7,16.1c-33.8-3.9-67.5-9.7-101.2-14.7
		c-2.4-7.6-4.8-15.1-7.1-22.7C1980.5,2904.5,2027.1,2909.5,2073.7,2914.4z"/>
	<path class="st0" d="M1576.8,2885.8c4.6,27.5,8.7,55.1,13.9,82.5c4.5,23.6,10.2,47,15.3,70.5c-15.6,6.9-31.1,13.8-45.4,20.2
		c2.7,17.9,7.5,32,6.2,45.5c-2.3,24.8,9.4,40.5,25.2,57.3c15.2,16.1,26,36.4,38.7,54.9l-1.6,1.9c-44.7-8.2-44.7-8.2-67.9,34.3
		c-12.8,23.4-26.6,46.3-37.9,70.4c-10.1,21.5-17.5,44.3-26.1,66.5c-0.2,2.1-0.3,4.3-0.4,6.5c-2.8,0.3-5.6,0.6-8.4,0.9
		c5.2-35.7,9.4-71.6,15.9-107c6.7-36.6,19-72.5,21.8-109.2c1-13.6-16.3-30.2-28.2-42.7c-18.7-19.5-38.6-38.3-60.4-54.1
		c-17.1-12.3-37.8-19.5-57-28.9c-7.6-0.4-15.2-0.8-22.9-1.2c-36.1-34.1-72.3-68.3-108.4-102.4c-8.1-10.5-16.1-21-24.2-31.6
		c-4.5-7.5-7.3-17.2-13.8-22c-35.8-26.7-69.9-57.2-109.4-76.8c-41.3-20.4-83.1-46.9-133.5-39.7c-8.1-2.5-16.2-5-24.3-7.4
		c-18.3-46.7-36.6-93.4-54.8-140.2c7.9,0.4,15.9,0.9,23.8,1.3c3.5,3.7,6.4,9.3,10.7,10.7c53.2,17.4,108,30.8,159.5,52.1
		c36.9,15.3,58.9,4.7,83.6-21.3c18.9-19.9,43.6-34.1,65.7-50.9c-10.3,20.6-19.3,42-31.3,61.6c-24.4,40.1-23.3,45,21.4,64
		c0.7,5.1,1.4,10.1,2.2,15.2c11.1,12.3,21,25.8,33.3,36.7c35.7,31.6,73.5,60.9,108.1,93.6c19.8,18.7,40.3,31.5,67.4,33.4
		c38.8,30.1,65.8,78.9,128.2,86.2c-10.9-43.5-27-79.6,0.6-113.6C1567.1,2897.3,1572,2891.6,1576.8,2885.8z"/>
	<path class="st0" d="M1651.2,3233.8c-4.6-0.3-9.2-0.6-13.8-0.9c-2.7-4.8-5.4-9.6-8.2-14.4l1.6-1.9
		C1660.1,3219.2,1660.1,3219.2,1651.2,3233.8z"/>
	<path class="st1" d="M1528.6,312.4c-5.4-32.7-9.7-65.6-16.5-98c-4.9-23.4-13.7-45.9-19.5-69c-2.4-9.7-1.7-20.2-2.4-30.4
		c35,18.2,35.1,58.1,52.8,87c15.2,24.9,24.8,53.3,39.3,85.6C1564.9,295.6,1546.8,304,1528.6,312.4z"/>
	<path class="st0" d="M172.6,1129.7c0,2.9-0.1,5.9-0.1,8.8c-5.3-0.5-10.6-1-16-1.5C161.9,1134.5,167.2,1132.1,172.6,1129.7z"/>
	<path class="st1" d="M889.1,2633.9c18.3,46.7,36.6,93.4,54.8,140.2c0.1,11.7-3,24.5,0.7,34.9c15.5,43.9,49.9,71.8,83.8,101.9
		c57.8,51.3,124.7,61.4,196.7,56.8c8.3-0.5,16-10.5,23.9-16.1c36.1,34.1,72.3,68.3,108.4,102.4c-10.8,2.7-22.2,9.2-32.2,7.5
		c-34.6-5.8-65.8,6.1-89.2,26.5c-17.5,15.3-25.7,42.7-34.5,66c-16.1,43-29.3,87-44.3,130.4c-0.8,2.3-6.8,2.9-10.4,4.3
		c2.7-43.7,2.6-87.7,8.7-130.9c10.7-76.5,10-79.1-62.9-80.3c-12-12.1-22.3-27.1-36.4-35.8c-29.1-17.8-62.8-28.9-90-48.9
		c-30.2-22.2-58.4-21.1-89.5-7.6c-35.8,15.6-71,32.3-107.2,46.9c-11.4,4.6-24.9,4-37.4,5.8c4.4-7.5,7.2-17.4,13.6-22.2
		c28.2-21.3,57-42,86.6-61.4c48.6-31.9,48.9-31.4,12.7-77.1c-0.7-0.9-2.2-1.2-3.4-1.8c0.2-2.4,0.2-4.7,0-7.1
		c-4.5-19.3-8.3-38.9-13.7-57.9c-4.5-15.7-13-30.5-15.9-46.4c-5-28.1-18-47.2-47-53c-2.6-5.2-5.2-10.3-7.8-15.5
		c-1.6-12.6-1.5-25.8-5.2-37.8c-11.1-36.4-23.6-72.5-35.5-108.6c1.9-12.8,8.5-27.1,4.9-38c-10.2-31.2-23.2-61.7-37.9-91.1
		c-5.6-11.2-18.4-18.8-28-28.1c-4.8-17.1-5.8-37-15.4-50.8c-20.5-29.5-44.3-57.1-69.2-83.1c-10-10.4-26.4-14.7-39.8-21.8
		c5.2-36.5,10.3-73,15.5-109.4c31-4.6,55.4,6,74,31.4c9.1,12.5,19.2,24.3,29.7,35.6c15.1,16.3,30.9,31.9,48.7,50.1
		c3-10.1,4.1-13.7,5.2-17.4c2.7,1,4.3,2.9,4.9,5.6c0.3,2.3,1.5,3.9,3.7,4.9c1.9,0.1,3,1.1,3.3,2.9c0.5,3.7,1.1,7.4,1.6,11.1
		c5.3,5.4,10.7,10.8,16,16.2c18.5,42.6,35.1,47.8,72.4,24.3c11.3-7.1,24.5-11.4,36.8-17c-12.5,19.1-22.4,40.9-38.3,56.6
		c-22,21.6-30.8,42.9-19.1,72.5c22,55.8,42.7,112.1,64.1,168.2C858.5,2595.2,863.1,2621.4,889.1,2633.9z"/>
	<path class="st0" d="M841.6,2875.4c1.1,0.6,2.6,0.9,3.4,1.8c36.3,45.7,36,45.2-12.7,77.1c-29.6,19.4-58.3,40.1-86.6,61.4
		c-6.5,4.9-9.2,14.7-13.6,22.2c-15.2,5.5-30.3,10.9-45.5,16.4c18-23,35-46.9,54.2-68.8C773.7,2948.3,808,2912.1,841.6,2875.4z"/>
	<path class="st0" d="M671.2,3061.7c5.2-2.5,10.4-4.9,15.6-7.4C681.6,3056.8,676.4,3059.2,671.2,3061.7z"/>
	<path class="st1" d="M3290.2,2344.6c-54.1-2.5-108.2-4.2-162.2-7.7c-28.8-1.9-33.9-13-32.8-61.9c60,18.3,120.1,36.3,180,55.3
		C3281.1,2332.1,3285.2,2339.7,3290.2,2344.6z"/>
	<path class="st0" d="M2650.6,615.7c-10.7-15.5-21.4-31-34.9-50.7c20.6-14,38.9-25.1,55.7-38.2c27.7-21.6,54.4-44.6,81.5-67
		c10.5-19,28.6-16,45.7-16c-6.6,10.5-11.8,22.2-19.9,31.3c-31.5,35.1-64.1,69.3-95.6,104.3c-4.8,5.3-6.2,13.5-9.2,20.3
		C2666,605,2658.3,610.3,2650.6,615.7z"/>
	<path class="st0" d="M2821.9,436.2c-7.8,2.6-15.6,5.2-23.5,7.8C2801.7,427.6,2808.9,423,2821.9,436.2z"/>
	<path class="st1" d="M709.5,451.7c10.6,10.2,21.3,20.5,31.9,30.7C718.3,485.2,708.8,473.7,709.5,451.7z"/>
	<path class="st1" d="M2798.6,3046.4c-5.6-5-11.3-10-16.9-14.9C2787.4,3036.4,2793,3041.4,2798.6,3046.4z"/>
	<path class="st1" d="M1488.4,3397.1c2.8-0.3,5.6-0.6,8.4-0.9c-2.6,3.1-5.2,6.2-7.8,9.4C1488.8,3402.8,1488.6,3399.9,1488.4,3397.1z
		"/>
	<path class="st0" d="M546.6,2126.7c-5.2,36.5-10.3,73-15.5,109.4c-26.5,32.1-10.1,67.6-8,102c6,44.9,15.7,89.3,50.2,121.4
		c33.5,31.1,70.1,58.9,105.3,88.1c12.6,0.5,25.2,0.9,37.8,1.4c12,36.2,24.5,72.2,35.5,108.6c3.6,12,3.5,25.1,5.2,37.8
		c-46.5-15.5-93-31-139.5-46.5c-16.3-9.7-32.6-19.4-52.1-31.1c-30.7,40.7-61.8,81-91.7,122.2c-11.1,15.3-19,32.8-28.4,49.3
		c-3.1,0.1-6.1,0.1-9.2,0.2c9.3-30.5,17.3-61.4,28.1-91.3c14.8-40.8,32.3-80.6,47.3-121.3c8.1-22,3.2-40.7-13.9-59.6
		c-18.3-20.2-30.1-46.2-45.6-69.1c-6.2-9.2-14.8-16.9-22.3-25.3c-7.7-13-15.5-26-23.2-39.1c-4.2-15.5-8.4-31-12.6-46.3
		c-41.5,0-78.9-1.9-115.9,0.8c-18.6,1.3-41.8-1.4-52.9,21.6c-4.1-0.1-8.2-0.1-12.4-0.2c-5.8-5-11.6-10-17.5-15
		c6-5.2,11.1-13,18-15.1c56.1-16.6,112.9-30.8,168.5-49c12.5-4.1,26.4-19.1,30-31.8c6.8-24.1,6.6-50.3,9.3-75.6
		c-0.2-36.1-0.4-72.2-0.5-108.3c8.4-47,16.8-94.1,25.2-141.1c2.5-5.2,5-10.3,7.5-15.5c18.8-1,22.4-13.3,22.8-29.2
		c2.3-81.9,6.2-163.8,6.7-245.8c0.1-18,2.8-41.9-21.3-52.3c-3-7.7-6-15.4-9.1-23c20.3-27.4,39.4-55.8,61.4-81.8
		c10.1-11.9,25.9-19,39.1-28.3c12.2,68.3,25,136.4,36.2,204.9c4.2,25.6,14.2,42.8,41,49.4c32.1,7.8,63.7,17.7,95.5,26.7
		c6.2,4.8,12.4,9.6,25.7,19.9c-52.1,0-95.8,0-138.3,0C576.2,1873.8,547.8,1997.9,546.6,2126.7z"/>
	<path class="st1" d="M195.6,2344.9c5.8,5,11.6,10,17.5,15c-18.9-2.3-37.9-4.6-56.8-6.9C169.4,2350.3,182.5,2347.6,195.6,2344.9z"/>
	<path class="st0" d="M3227.1,1643.7c-29.9-79.6-18.1-63.8,52.4-100.8c24.9-13,52.3-21,78.1-32.4c4.8-2.1,7.2-9.4,10.7-14.3
		c15.5-2.8,31-5.5,46.5-8.2c-34.1,28.7-67.8,58-102.6,85.9c-20.9,16.7-44,30.6-64.9,47.3c-6.2,4.9-8.3,15-12.3,22.7
		C3232.3,1643.8,3229.7,1643.7,3227.1,1643.7z"/>
	<path class="st0" d="M1919.7,443.2c-3.4-5.4-6.9-10.8-12.7-19.9c-9.1,13.2-14.1,20.6-24.5,35.8c-39.8-62.1-77-120.1-114.2-178
		c10.9-5.4,21.7-10.8,32.6-16.2c18.2,0,36.3,0,54.5,0c56.2,23,63,20.9,80.9-21.7c12.8-30.4,27.5-59.9,40.4-90.3
		c9.5-22.3,17.4-45.2,26-67.8c3-2.7,5.9-5.4,8.9-8.2c1.3,8.1,5.1,16.8,3.4,24.1c-14.8,62.3-29.6,124.6-46.7,186.2
		c-6.4,23.1-1.7,39.1,15.2,55.2c36.2,34.5,75.1,64.8,121.1,85.3c9.9,0.6,19.9,1.2,29.8,1.9c27.2,43.8,63.9,77.3,109.7,100.8
		c5.4,10.4,10.8,20.8,16.2,31.2c4.7,7.2,7.9,16.3,14.4,21.3c22.4,17.2,48.9,30,68.3,49.9c44.6,45.4,106.9,54.1,159.6,82.3
		c6.1,3.3,15.3,1,23,1.3c10.2,0,20.5,0,30.7,0c12.2,31.9,25.1,63.6,36.2,95.8c5.8,16.8,8.5,34.6,12.6,52c-1,1.1-2.2,1.8-3.6,2.1
		c-7.2-1.5-14.4-3-21.6-4.5c-0.7-5,0-13.6-2.3-14.5c-20-8-40.6-14.5-61-21.8c-38.4-13.6-76.2-29.1-115.3-40.3
		c-13.7-3.9-34.5-3-44.9,5.1c-26,20.1-47.4,46.1-71.7,68.6c-10.7,9.9-18.6,32.2-39.9,14.2c2.8-7.7,5.6-15.5,8.5-23.2
		c36.8-18.1,43.6-56.3,65.2-93.3c-16.1-6.7-29.2-12-42.2-17.4c-2.6-5.4-5.3-10.8-7.9-16.2c-2.2-7-2.3-16.7-7-20.7
		c-51.9-44-104.2-87.6-157.4-130c-9.1-7.2-23.2-8-35.1-11.7c-8.9-4.8-17.8-9.5-26.7-14.3C2001.5,512,1960.6,477.6,1919.7,443.2z"/>
	<path class="st0" d="M2394.7,389.6c-1.2,14.1-3.2,27-23,20c-9.6-3.4-19.5-5.9-35.1-10.5c2.9-41.5,6.6-83.6,8.3-125.7
		c0.6-16-3.5-32.2-5.5-48.3c2.9-10.5,5.7-21,8.6-31.5c23.6,3.5,23.4,21.5,21.9,38.5c-4.2,49.5,11.4,95.4,23.9,141.9
		C2394.1,379.2,2394.4,384.4,2394.7,389.6z"/>
	<path class="st3" d="M421.7,2805c-1.7-3.5-3.4-7-5.2-10.5c1.7,0.9,3.5,1.9,5.2,2.8C421.7,2799.8,421.6,2802.4,421.7,2805z"/>
	<path class="st0" d="M421.7,2805c0-2.6,0-5.1,0.1-7.7c2.7-0.1,5.4-0.3,8-0.4c-0.1,2.8-0.1,5.6-0.2,8.4
		C426.9,2805.1,424.3,2805.1,421.7,2805z"/>
	<path class="st1" d="M2002.9,85c-8.6,22.6-16.6,45.6-26,67.8c-12.9,30.3-27.6,59.9-40.4,90.3c-17.9,42.6-24.8,44.8-80.9,21.7
		c44-56.6,87.9-113.3,132.2-169.7C1991.3,90.6,1997.8,88.3,2002.9,85z"/>
	<path class="st0" d="M258.7,1853.8c25.8,24.6,30.3,53.8,6.3,65.5c-55.8,27.2-113.7,50.3-170.8,75c20.3-20.4,39.1-42.5,61.1-60.8
		C188.7,1905.5,224.1,1880.2,258.7,1853.8z"/>
	<path class="st1" d="M1995.7,3389.7c-16.6-38.5-33.1-77.1-49.8-115.6c-4.6-10.6-10.3-20.8-15.4-31.2c-21.1-43.2-15.5-53,33.2-57.7
		c15.7,71,31.4,142,47.2,213c-2.6-0.3-5.3-0.6-7.9-0.8C2000.5,3394.8,1998.1,3392.2,1995.7,3389.7z"/>
	<path class="st0" d="M2002.9,3397.4c2.6,0.3,5.3,0.6,7.9,0.8c0.3,10.1,0.6,20.2,0.9,30.3
		C2008.9,3418.1,2005.9,3407.8,2002.9,3397.4z"/>
	<path class="st1" d="M3048,2781.7c-24.2-32.6-48.4-65.1-72.4-97.8c-6.8-9.3-12.3-19.5-19.3-28.6c-34-43.8-33.2-46.9,20.3-70.2
		c22.4,50.3,45.6,100.1,66.4,151C3048.6,2749.8,3046.6,2766.5,3048,2781.7z"/>
	<path class="st3" d="M3227.1,1643.7c2.6,0.1,5.2,0.1,7.8,0.2c0.1,67.5,0.2,134.9,0.3,202.4c-5.1-4.6-14.7-9.1-14.7-13.7
		c-0.6-58.2,0-116.4,0.8-174.6C3221.3,1653.1,3225.1,1648.4,3227.1,1643.7z"/>
	<path class="st1" d="M1629.2,3218.5c2.7,4.8,5.4,9.6,8.2,14.4c-30.3,37.4-59.8,75.5-91.2,111.9c-14.4,16.6-32.5,30.1-48.9,44.9
		c8.6-22.2,16-45,26.1-66.5c11.3-24.1,25.2-47,37.9-70.4C1584.5,3210.3,1584.5,3210.3,1629.2,3218.5z"/>
	<path class="st1" d="M225.4,2360.1c11-22.9,34.2-20.2,52.9-21.6c37-2.6,74.4-0.8,115.9-0.8c4.1,15.2,8.4,30.8,12.6,46.3
		C345,2386,284.6,2377.4,225.4,2360.1z"/>
	<path class="st1" d="M445.5,2789.5c9.4-16.5,17.3-34,28.4-49.3c29.9-41.3,61.1-81.6,91.7-122.2c19.5,11.6,35.8,21.3,52.1,31.1
		c-0.2,2.6-0.5,5.2-0.7,7.9c-14,8.2-30.4,13.9-41.5,25c-31.9,31.9-61.6,65.9-92.1,99C470.8,2783.8,458.1,2786.7,445.5,2789.5z"/>
	<path class="st3" d="M2556.4,716.4c-10.2,0-20.5,0-30.7,0c0.1-6.4,0.2-12.8,0.4-19.2c1.9-4.3,6.8-10.2,5.4-12.6
		c-35.9-63.3-82.9-115-156.9-131.8c-33.2-7.5-67.4-17.8-102.4-8c-3.9,5.6-7.9,11.2-11.8,16.8c-5.4-10.4-10.8-20.8-16.2-31.2
		c39.5-20.6,82.6-13.7,120.8-4.6c73.2,17.4,134.9,58.8,174.7,124.8C2550.9,669.2,2551.1,694.3,2556.4,716.4z"/>
	<path class="st3" d="M2605.2,864.2c9,6.6,22.7,11.3,26.3,20.1c16,39,28.7,79.3,43.3,118.8c7.1,19.2,12.6,39.9,24.2,56.3
		c14.6,20.7,14.4,40,6.2,61.5c-3,5.6-5.9,11.2-8.9,16.8c-1.7,0.3-3.4,0.4-5.2,0.4c-2.6-0.3-5.1,0.1-7.5,1.2c-1-0.9-1.9-1.9-2.9-2.9
		c2.1-14.3,9.6-30.4,5.4-42.5c-26.7-76.4-56.1-151.9-84.5-227.7C2603,866,2604.2,865.3,2605.2,864.2z"/>
	<path class="st0" d="M2760.1,1223.2c-31.3,18.6-53,9.9-78.3-31.2c15.6-3.3,31.2-6.7,54.9-11.8
		C2742.8,1191.2,2751.4,1207.2,2760.1,1223.2z"/>
	<path class="st3" d="M2673.5,1192.1c-10.4-5.3-20.7-10.6-31.1-15.9c12.8-13.3,25.6-26.5,38.3-39.8c0.9,1,1.9,1.9,2.9,2.9
		c-0.6,5.1-1.1,10.2-1.7,15.2C2679.1,1167.1,2676.3,1179.6,2673.5,1192.1z"/>
	<path class="st5" d="M2696.2,1137.7c3-5.6,5.9-11.2,8.9-16.8C2702.2,1126.5,2699.2,1132.1,2696.2,1137.7z"/>
	<path class="st5" d="M2681.9,1154.5c0.6-5.1,1.1-10.2,1.7-15.2c2.4-1.1,4.9-1.5,7.5-1.2C2688,1143.6,2684.9,1149.1,2681.9,1154.5z"
		/>
	<path class="st3" d="M2931.5,2080.8c-2.6,8.3-2.9,18.5-8.1,24.7c-35.2,41.8-72.4,82-106.9,124.3c-29.4,36-58.2,45.9-104.9,33.2
		c-25.8-7-52.2-11.8-78.3-17.6c-9.9-0.5-19.9-0.9-29.8-1.4c-5.2,2.9-10.4,5.7-15.6,8.6c-22.2-3.3-33.5-19.8-27.3-37.8
		c6.2-18.1,22.3-9.7,38.4-3.8c33.6,12.3,69.1,20,104.2,27.1c39.4,8,73.1,6,101.5-33.7c34.2-47.6,78.1-88.3,117.9-132
		C2925.5,2075.2,2928.5,2078,2931.5,2080.8z"/>
	<path class="st3" d="M2832,2524.8c-16.6,21.7-39.9,24.4-64.7,22.8c19.5-93.4,62.4-175.4,121.4-249.5c10.4-13.1,19.2-28.1,31.7-38.7
		c11.9-10.1,27.8-15.8,41.9-23.4c1,7.8,1.9,15.5,2.9,23.3c-3.7,2.9-7.4,5.8-11.1,8.8c-10.3,6-23.6,9.6-30.4,18.3
		c-23.7,30.1-48,60.4-66.8,93.6c-21.3,37.6-37.2,78.4-54.9,118.1c-6.3,14.1-7.6,26.5,14.9,22
		C2821.9,2521.6,2826.9,2523.2,2832,2524.8z"/>
	<path class="st3" d="M2642.6,2595.1c-7.8,5.6-15.6,11.2-23.4,16.8c-0.3-6.3-0.6-12.6-0.9-18.8c23-64.5,46-129,68.9-193.5
		c1.9-1.1,2.9-2.7,2.9-4.8c0.9-9,1.9-18,2.8-27c1.4-4.9,2.8-9.9,4.2-14.8c5.1,2.5,10.1,5,15.2,7.6c-8.8,34.1-16.6,68.4-26.7,102.1
		C2672.2,2507,2657,2550.9,2642.6,2595.1z"/>
	<path class="st0" d="M2712.3,2360.5c-5.1-2.5-10.1-5-15.2-7.6c-2.8-5.4-4.7-11.6-8.7-16c-28.1-31.2-56.6-62-85-92.9
		c9.9,0.5,19.9,0.9,29.8,1.4c22.5,15.6,44.9,31.4,67.5,46.8c8.2,5.6,16.9,10.6,27.2,17C2722.6,2327.1,2717.4,2343.8,2712.3,2360.5z"
		/>
	<path class="st4" d="M2696.6,1753.6c-14.5-5.4-13.5-11.2-0.5-17.4C2696.2,1742,2696.4,1747.8,2696.6,1753.6z"/>
	<path class="st3" d="M452.8,1558.4c3,7.7,6,15.4,9.1,23c-2.9,2.1-5.8,4.1-8.8,6.2c-10,8.2-24,14.3-29.5,24.9
		c-33.9,65.4-41.9,135.2-22,205.9c8.6,30.6,10.1,67.2,43.6,86.1c2.8,1.4,5.5,2.8,8.3,4.2c-2.5,5.2-5,10.3-7.5,15.5
		c-32.6-9.7-48.8-33.5-55.5-65.1c-7.9-37.3-19.3-74.3-22.2-112c-4.5-57.7,18.1-110.8,42.2-161.7
		C416.5,1572.6,438.2,1567.2,452.8,1558.4z"/>
	<path class="st4" d="M726,1729.3c-31.8-9-63.4-18.9-95.5-26.7c-26.8-6.5-36.8-23.7-41-49.4c-11.2-68.4-24-136.6-36.2-204.9
		c0.4-4.9,0.7-9.8,1.1-14.7c4.2-0.2,8.5-0.4,12.7-0.6c5.6,22.3,12.4,44.3,16.4,66.9c9.4,52.7,17,105.7,26.8,158.4
		c1.3,7.1,9.5,15.8,16.5,18.4c26.1,9.7,53.1,16.8,79.5,25.7c15.2,5.1,29.8,11.8,44.7,17.8C742.7,1723.3,734.4,1726.3,726,1729.3z"/>
	<path class="st0" d="M842.8,1173.1c-0.5,25.7-19.9,30.1-39.1,34.6c-1.2-2.2-1.8-5.2-3.7-6.4c-37.7-26.7-37.7-26.7-19.5-71.5
		c9,0.1,18.1,0.2,27.2,0.3C819.4,1144.3,831.1,1158.7,842.8,1173.1z"/>
	<path class="st3" d="M567.1,1433.1c-4.2,0.2-8.5,0.4-12.7,0.6c-11.2-31.8,17.8-44.8,31.1-64.8c4.3-6.5,15-8.7,22.7-12.9
		c41.1,8.1,71.3,29.7,86.4,69.9c-3.2,0.4-6.3,0.8-9.4,1.2c-21.5-19.6-43.1-39.2-68.4-62.2C598.2,1390.3,582.7,1411.7,567.1,1433.1z"
		/>
	<path class="st3" d="M1269.8,865.5c4.9,14.4,11.5,28.5,14.2,43.3c1.3,7-2.9,17.7-8.3,22.4c-3.8,3.3-16.8,2.3-20.8-1.7
		c-41.2-41.2-81.3-83.5-121.8-125.4c31.8-3.1,42.7,27.9,65.1,40.4c12.9,7.2,23.4,18.8,34.9,28.4c7.3,8.7,14.6,17.5,24.5,29.3
		C1262.4,887.6,1266.1,876.5,1269.8,865.5z"/>
	<path class="st3" d="M1128.8,800.5c-6.9-0.8-13.8-1.6-20.8-2.4c7.5-4.1,15.1-8.2,22.6-12.3C1130,790.7,1129.4,795.6,1128.8,800.5z"
		/>
	<path class="st4" d="M845.9,981.6c-1,2.7-2.1,5.4-3.1,8.1C843.8,987,844.9,984.3,845.9,981.6z"/>
	<path class="st4" d="M866.4,927.1c-0.5,2.6-1,5.2-1.5,7.8C865.4,932.3,865.9,929.7,866.4,927.1z"/>
	<path class="st2" d="M2820.5,1416.5c7.6,8.3,14.7,17.1,22.9,24.7c25.2,23.4,25.7,46.9-1.1,68.6c-60.1,48.7-120.9,96.6-181.3,144.9
		c-26.4,21.2-56.9,29.1-90.2,29.2c-94.8,0.1-189.5-0.5-284.3,0.9c-101,1.4-202,3.6-302.9,8.2c-20.2,0.9-39.8,14.1-59.6,21.7
		c-4.3-7.3-10.9-14.2-12.2-22c-2.1-12.7-2.4-26.2-0.4-38.8c11.7-73.5-1.1-84.7,92.1-86.3c196-3.3,392.1-1.7,588.2-1.3
		c27.3,0.1,49.8-5.8,71.3-23.8C2714.5,1499.3,2767.9,1458.3,2820.5,1416.5z"/>
	<path class="st2" d="M1578.4,1716.6c-26.8-25.4-58.2-32.9-95.1-32.2c-106.3,1.8-212.7,1.3-319.1,0c-89.2-1.1-178.6-2.6-267.6-8.5
		c-23.4-1.6-48.6-16.7-67.8-32.1c-47.3-37.9-91.5-79.8-137.3-119.7c-5.6-4.9-13.1-7.7-19.9-11.2c-34.4-17.8-36.3-46.3-4.9-68.1
		c6.9-4.8,12.4-11.8,18.6-17.7c3.2-0.4,6.3-0.8,9.4-1.2c51.1,41.8,101.1,85,154,124.4c15,11.2,38.3,15.3,57.9,15.5
		c181.6,1.2,363.2,0.6,544.8,1.3c32.2,0.1,64.5,3.8,96.7,6.5c23,1.9,34.2,14.8,35.5,38.1c1.2,21.9,6,43.7,5.7,65.5
		C1589,1690.3,1582.2,1703.4,1578.4,1716.6z"/>
	<path class="st0" d="M1640.2,1425c-16.3-9.9-27.2-16.6-38.1-23.2c0.8-4.3,1.7-8.6,2.5-12.9c16.4-10.8,31.6-27.6,49.5-31.2
		c49.8-10.2,87.9-36.4,120.7-73c13-14.5,30-36,47.6-18.1c16.4,16.7,25.3,43.8,30,67.8c2.3,11.8-14.9,21.2-28.4,8.3
		c-6.1-5.8-8.8-15.1-15.1-26.6c-21.8,17.8-42.2,34.5-70,57.3c56.7,21.8,109.8,13.7,159.3,23.4c-1.7,40.6-12.4,50.4-49.6,52.7
		c-44.8,2.7-89.4,7.5-133.6,17.7c17.7,8,35.4,16,57.5,26c-14,19-25.6,34.9-36.9,50.2c-46.4-26.8-46.4-26.8-37.8-69.9
		c-17.2,5.3-32.5,13.3-48.1,14c-39.5,1.7-79.8,4.3-118.2-2.3c-13.9-2.4-29.5-28.7-33.7-46.6c-11.1-47.7-16.6-96.7-23.8-145.3
		c-1.3-8.9-3.9-20.3,0.2-26.7c8.3-13,20.8-23.4,31.6-34.8c5.6,10.5,14,20.4,16.2,31.6c6.1,31.6,10.9,63.7,13.8,95.8
		C1541.8,1427,1542.4,1444.7,1640.2,1425z"/>
	<path class="st0" d="M1070.6,1367.1c-6,15.2-10.6,26.7-15.3,38.5c21.3,35.8,59.6,30.6,90.8,31.1c55.3,1,110.9-5.8,166.1-11.4
		c24.1-2.5,47.6-10.1,74.1-16c-5.8-27.3-16.4-54.2,16.8-70c27.1,11.6,34.5,33.8,33.1,62.2c-1.6,31.8-22.2,52.2-46.7,61.8
		c-99.3,38.8-202.5,53.2-307.9,30.5c-22.5-4.8-44.8-20.2-62.4-35.9c-22.2-19.8-10.8-47-0.8-68.5
		C1026,1372.8,1040.6,1356.9,1070.6,1367.1z"/>
	<path class="st2" d="M2095.9,1317.4c3.3-6.1,6.6-12.3,10-18.4c1.3-2,2.6-4,3.9-5.9c1.7-4.7,3.5-9.4,8.7-23.3
		c26.6,52.2,62.3,91.1,71.8,143.7c4.7,25.8-3.4,49.3-26.9,63.8c-26.1,16.2-54.1,16-80.9,2.2c-9.9-5.1-17.3-15-25.8-22.7
		c7.9-7.8,21.2-14.5,22.9-23.4C2086.8,1395,2090.8,1356.1,2095.9,1317.4z"/>
	<path class="st1" d="M1925.2,598.5c-0.4,101.1-0.5,202.1-1.6,303.2c-0.1,13.5-4.9,26.9-7.5,40.4c-1.9-12.3-5.5-24.7-5.6-37.1
		c-0.5-89.3,0.3-178.5-0.6-267.8c-0.6-50.9-5-101.8-5-152.7c0-13.7,9.7-27.4,14.9-41.2c40.9,34.4,81.8,68.8,122.6,103.2
		c-30.6,7.4-61.3,14.1-91.6,22.6c-9.2,2.6-16.9,10.3-25.3,15.6C1925.3,589.3,1925.3,593.9,1925.2,598.5z"/>
	<path class="st0" d="M2269.7,1495.9c49.3,3.3,81.8-18.6,113-41.7c20.7-15.4,23.1-36.2,7.4-57.8c-13.2-18.2-11.9-35.4,1.7-53.1
		c13.2-17.3,25.7-15.5,37.5,0.2c21,27.9,25.2,60.7,16.2,92.6c-22.2,78.9-102.2,139.8-201.7,89.2c-5.6-2.8-8.1-11.5-12.1-17.4
		c6.1-4,11.7-9.9,18.3-11.4C2258.5,1494.4,2267.9,1495.9,2269.7,1495.9z"/>
	<path class="st3" d="M1921.2,1128.7c15.3,22.7,36.8,28.1,63.4,27.8c82.8-1.1,165.6-0.4,248.3,0.6c121.4,1.5,242.9,3.4,364.2,6.4
		c12.6,0.3,24.9,8.9,37.4,13.7c-120.4-2.5-240.8-5.8-361.2-7.2c-41.1-0.5-82.2,5.7-123.3,5.5c-41.1-0.1-82.2-5.2-123.4-6.2
		c-19.1-0.4-38.3,3.4-57.4,5.9c-26,3.3-50.8-13.6-56.2-39.6C1912.8,1133.9,1918.4,1131,1921.2,1128.7z"/>
	<path class="st0" d="M2265.4,1438.2c-10.4-66.8-20.4-127.3-28.8-188c-3.9-28.7,9.3-51.9,30.9-74.4c5.4,7.6,12.5,13,13.3,19.2
		c7.4,57.3,15.6,114.7,19.3,172.3c1.2,19.2-9.2,39.3-15.8,58.6C2282.8,1430.1,2274.9,1432.2,2265.4,1438.2z"/>
	<path class="st0" d="M1145.9,1347.1c16.2-17.4,25.1-42.6,56.5-27c5.3,2.6,16.1-8.2,23.3-6.9c16.7,3,33.5,8.2,48.4,16
		c3.3,1.7,2.5,20.1-2.2,26.7c-9.1,12.7-18.1,29.9-40.4,19.7c-7.4-3.4-19-5.5-25.5-2.1C1174.5,1390.3,1162.3,1368.3,1145.9,1347.1z"
		/>
	<path class="st2" d="M1920.6,1852.7c2.1,8.4,5.9,16.9,5.9,25.4c0.5,150.4,0.6,300.7,0.4,451.1c0,8.6-3.6,17.1-5.5,25.6
		c-1.7-8.7-4.9-17.4-5-26.1c-0.3-151.2-0.3-302.4-0.1-453.6C1916.4,1867.7,1919.1,1860.2,1920.6,1852.7z"/>
	<path class="st4" d="M2095.9,1317.4c-5.2,38.7-9.1,77.6-16.5,115.8c-1.7,9-15,15.7-22.9,23.4
		C2035,1400.5,2060,1357.4,2095.9,1317.4z"/>
	<path class="st0" d="M1849.4,1202.2c-9.7,22.5-15.1,44.8-39,42.7c-11.4-1-30.5-16.2-30.2-24.5c0.5-15.2,12.7-29.9,21.4-47.7
		C1820.6,1184.4,1833.4,1192.3,1849.4,1202.2z"/>
	<path class="st3" d="M1582.6,872.4c-0.4-62.2-0.7-124.5-1.1-186.7c5.1,2.9,14.5,5.7,14.6,8.7c1.4,52.2,2.2,104.3,1.4,156.5
		C1597.4,858.1,1587.8,865.2,1582.6,872.4z"/>
	<path class="st3" d="M1583.7,1114.2c0.1-54.7,0.1-109.3,0.2-163.9c4.7,6.2,13.4,12.3,13.6,18.7c1.2,42.2,1.2,84.4-0.1,126.6
		C1597.2,1101.9,1588.5,1107.9,1583.7,1114.2z"/>
	<path class="st2" d="M1922.2,1782.3c-0.5,11.6-1,23.1-1.6,34.7C1921.1,1805.4,1921.6,1793.8,1922.2,1782.3z"/>
	<path class="st4" d="M2109.8,1293.1c-1.3,2-2.6,4-3.9,5.9C2105.8,1296.2,2107.1,1294.2,2109.8,1293.1z"/>
	<path class="st4" d="M1512.4,584.8c-9.1-1.3-18.2-2.7-27.3-4C1494.2,582.2,1503.3,583.5,1512.4,584.8z"/>
	<path class="st4" d="M2954.1,2268c3.7-2.9,7.4-5.8,11.1-8.8c4.1,6.9,12,14,11.8,20.8c-3.4,92.7-32.5,174.1-109.3,232.1
		c-9.6,7.3-23.7,8.6-35.7,12.7c-5.1-1.6-10.1-3.2-15.2-4.8c15.1-11.5,30.5-22.7,45.3-34.6C2931.5,2429.4,2955.1,2353.8,2954.1,2268z
		"/>
	<path class="st4" d="M2524.7,2773.7c0.3,5.4,0.7,10.8,1,16.2c-98.8,26.8-180.8,83.1-257.9,147.7c-5-2.8-10-5.6-15-8.4
		c5.2-8.5,8.4-19.9,15.9-25.1c41.7-29,82.5-60.4,127.4-83.5C2436.3,2799.9,2481.6,2788.9,2524.7,2773.7z"/>
	<path class="st4" d="M2401.9,2682.9c34.9-16,69.4-32.9,104.8-47.6c36.7-15.2,74.4-28.3,111.6-42.3c0.3,6.3,0.6,12.6,0.9,18.8
		c-17.7,10.9-34.3,24.8-53.4,32.1c-49.3,18.8-99.6,34.7-149.6,51.7C2411.4,2691.4,2406.6,2687.1,2401.9,2682.9z"/>
	<path class="st1" d="M2354.7,2704.6c-10.7,7.9-21.3,15.7-39.2,28.9c-20.2-41.9-37.8-78.6-55.5-115.2c9.7,0.1,19.3,0.2,29,0.3
		l2.3,2.6c-3.7,29.4,22.8,53.5,59.3,53.8l1.2,1.5C2352.8,2685.9,2353.7,2695.3,2354.7,2704.6z"/>
	<path class="st3" d="M2289,2618.6c-9.7-0.1-19.3-0.2-29-0.3c-2.6-0.3-5.2-0.6-7.8-0.9c-8.1-13.6-7.8-13.4-14.4-5
		c-3.6,4.6-8.1,8.4-12.2,12.5c-1-5-2.1-10-3.1-15c11.5-11.6,9.8-19.6-6.6-23.4c1.9-7.9,3.8-15.9,5.8-23.8c4.5,0.4,9,0.8,13.6,1.2
		C2253.1,2582.1,2271.1,2600.4,2289,2618.6z"/>
	<path class="st3" d="M2354.7,2704.6c-1-9.4-1.9-18.7-2.9-28.1c16.7,2.1,33.4,4.2,50.1,6.3c4.8,4.3,9.6,8.5,14.3,12.8
		C2395.7,2698.6,2375.2,2701.6,2354.7,2704.6z"/>
	<path class="st3" d="M929.4,2229.5c-19.9,22-39.7,43.9-59.6,65.9c-16.5,18.2-32.8,36.6-49.6,54.5c-15,16.1-16.5,33.6-9.2,53.9
		c21,58.2,41.6,116.6,61.3,175.2c7,20.8,17.4,37,39.5,43.2c0.4,4.3,0.8,8.6,1.2,12.9c-7.9-0.4-15.9-0.9-23.8-1.3
		c-26-12.4-30.6-38.6-39.5-62c-21.4-56.1-42.1-112.4-64.1-168.2c-11.7-29.6-2.9-50.9,19.1-72.5c15.9-15.6,25.8-37.5,38.3-56.6
		c10.4-10.3,20.8-20.6,31.1-30.9c17.8-0.7,23.5-11.7,23.7-27.5c2.4-1.2,4.7-2.4,7.1-3.7C913.1,2218.2,921.2,2223.8,929.4,2229.5z"/>
	<path class="st4" d="M912.9,2635.2c-0.4-4.3-0.8-8.6-1.2-12.9c58.1,17.7,116.7,34.1,174.1,53.8c25.4,8.7,44,5.8,62.4-13.4
		c29.4-30.6,59.7-60.4,90.7-89.4c11.4-10.7,25.9-18.2,43.1-30c5.9,37.8,9.6,67.1-19.2,89.3c3.6-20.9,7.1-41.8,10.7-62.7
		c-1.8-0.2-3.6-0.4-5.3-0.6c-6.6,13.8-13.2,27.6-19.8,41.4c-2.8,4.8-5.7,9.5-8.5,14.3c-2.6,0.4-5.1,0.7-7.7,0.9
		c-22.1,16.8-46.9,31.1-65.7,50.9c-24.7,26-46.6,36.6-83.6,21.3c-51.5-21.4-106.3-34.8-159.5-52.1
		C919.3,2644.5,916.4,2638.8,912.9,2635.2z"/>
	<path class="st3" d="M1249.2,2951.6c-8,5.6-15.7,15.6-23.9,16.1c-72,4.5-138.9-5.5-196.7-56.8c-34-30.2-68.4-58-83.8-101.9
		c-3.7-10.4-0.7-23.2-0.7-34.9c8.1,2.5,16.2,5,24.3,7.4c-0.5,5-0.9,10.1-1.3,15.1c0.4,5.1-1,11.2,1.3,15.1
		c40,67.1,93.5,117.6,173.5,129.9c26,4,55.8,17.9,79.7-8.4c1.2-4.4,2.3-8.7,3.5-13.1C1233,2930.6,1241.1,2941.1,1249.2,2951.6z"/>
	<path class="st4" d="M1247.8,2711.5c-8.4,38.4,7.3,63.6,38.8,86.4c36.3,26.3,68,59,101.6,89.2c27.7,24.9,56.5,37.6,94.8,20.9
		c15.4-6.7,35.4-3,53.2-4.1c-29.2,28.1-68.6,17-102.6,26.4c-27.1-1.9-47.7-14.7-67.4-33.4c-34.6-32.7-72.4-62-108.1-93.6
		c-12.3-10.9-22.3-24.4-33.3-36.7c2.6-15.8,5.2-31.6,7.8-47.4l-0.2,0.4C1237.4,2716.9,1242.6,2714.2,1247.8,2711.5z"/>
	<path class="st1" d="M1433.5,2930.4c34.1-9.4,73.4,1.8,102.6-26.4c8.7-0.3,17.4-0.7,26.1-1c-27.6,34-11.5,70.1-0.6,113.6
		C1499.3,3009.2,1472.3,2960.5,1433.5,2930.4z"/>
	<path class="st4" d="M966.9,2796.6c0.5-5,0.9-10.1,1.3-15.1c50.4-7.1,92.2,19.3,133.5,39.7c39.5,19.6,73.7,50.1,109.4,76.8
		c6.5,4.8,9.3,14.6,13.8,22c-1.2,4.4-2.3,8.7-3.5,13.1c-62.3-49.9-128.6-93.1-203.8-121C1001.1,2805.9,983.8,2801.7,966.9,2796.6z"
		/>
	<path class="st1" d="M1232.3,2625.8c2.6-0.2,5.1-0.5,7.7-0.9l3.2,0.3l3.2-0.1c-4.7,31.5-9.5,63-14.2,94.5l0.2-0.4
		c-3.3,10.8-6.7,21.5-10,32.3c-44.7-19-45.8-23.9-21.4-64C1213,2667.8,1222,2646.4,1232.3,2625.8z"/>
	<path class="st5" d="M1222.4,2751.4c3.3-10.8,6.7-21.5,10-32.3c-2.6,15.8-5.2,31.6-7.8,47.4
		C1223.8,2761.6,1223.1,2756.5,1222.4,2751.4z"/>
	<path class="st3" d="M799.9,1733.4c3.2,4.9,6.4,9.9,9.5,14.8c-8.8,5.4-16.9,12.7-26.4,15.8c-45.5,14.6-90.8,31.5-137.5,40.5
		c-27.9,5.4-35.6,17.4-39.7,42.3c-8.9,54.3-19,108.4-31.9,161.9c-9.1,37.5-3.5,65.8,25.2,94.4c38,38.1,70.3,82,105.1,123.4
		c-1.1,3.6-2.2,7.3-5.2,17.4c-17.8-18.2-33.6-33.8-48.7-50.1c-10.5-11.3-20.6-23.2-29.7-35.6c-18.6-25.4-43-36-74-31.4
		c1.2-128.8,29.6-252.9,66.8-377.6c42.4,0,86.2,0,138.3,0c-13.3-10.3-19.5-15.1-25.7-19.9c8.3-3,16.7-6,25-9
		c2.3-0.3,4.2,0.4,5.6,2.3C765.4,1749,784.2,1735.1,799.9,1733.4z"/>
	<path class="st3" d="M523.2,2338.1c-2.2-34.4-18.5-69.8,8-102c13.5,7.1,29.8,11.4,39.8,21.8c24.9,26,48.7,53.6,69.2,83.1
		c9.6,13.8,10.5,33.7,15.4,50.8c-1.9,1.9-3.8,3.8-5.6,5.7c-35.3-44.2-58.8-98.7-106.5-132.2c-3.2,1.5-6.4,3-9.7,4.5
		c1.9,19.9,3.8,39.8,5.7,59.7C534.1,2332.4,528.7,2335.3,523.2,2338.1z"/>
	<path class="st0" d="M874.1,2243.7c-10.4,10.3-20.8,20.6-31.1,30.9c-12.3,5.6-25.5,9.8-36.8,17c-37.3,23.6-53.9,18.3-72.4-24.3
		c7.9-2.6,15.8-5.1,23.7-7.7C796.3,2254.3,835.2,2249,874.1,2243.7z"/>
	<path class="st4" d="M874.1,2243.7c-38.9,5.3-77.8,10.6-116.7,15.9c-13.2-2.8-26.4-5.7-39.6-8.5c-0.5-3.7-1.1-7.4-1.6-11.1
		c46.7-6.9,93.4-14.1,140.2-20.7c13.7-1.9,27.6-2.1,41.5-3.1C897.6,2232,891.9,2243,874.1,2243.7z"/>
	<path class="st3" d="M716.5,2549.1c-12.6-0.5-25.2-0.9-37.8-1.4c2.7-5.1,5.3-10.1,8-15.2c19.8-7.1,10.8-19.1,5.8-31.1
		c-14.4-34.5-28.4-69.2-42.6-103.9c1.9-1.9,3.8-3.8,5.6-5.7c9.5,9.2,22.4,16.9,28,28.1c14.6,29.4,27.7,59.9,37.9,91.1
		C725,2522,718.5,2536.3,716.5,2549.1z"/>
	<path class="st3" d="M717.8,2251.2c13.2,2.8,26.4,5.7,39.6,8.5c-7.9,2.6-15.8,5.1-23.7,7.7C728.4,2261.9,723.1,2256.5,717.8,2251.2
		z"/>
	<path class="st4" d="M709.2,2232.2c1.2,1.6,2.5,3.2,3.7,4.9C710.7,2236.1,709.5,2234.5,709.2,2232.2z"/>
	<path class="st4" d="M453.1,1587.7c2.9-2.1,5.8-4.1,8.8-6.2c24,10.4,21.4,34.3,21.3,52.3c-0.5,81.9-4.4,163.8-6.7,245.8
		c-0.5,15.8-4,28.2-22.8,29.2c-2.8-1.4-5.5-2.8-8.3-4.2c4.8-16,11-31.8,14.2-48.1C477,1766.4,470.1,1676.9,453.1,1587.7z"/>
	<path class="st4" d="M686.8,2532.5c-2.7,5.1-5.3,10.1-8,15.2c-35.2-29.2-71.8-57-105.3-88.1c-34.6-32.1-44.2-76.4-50.2-121.4
		c5.4-2.9,10.9-5.8,16.3-8.6c19,63.4,43.7,123.3,98.9,165C654.8,2506.8,670.7,2519.8,686.8,2532.5z"/>
	<path class="st4" d="M2580,861.8c-27.6-5.7-55.9-9.4-82.8-17.6c-31.9-9.8-62.7-23.2-93.7-35.6c-18.6-7.5-32.8-6.1-48.6,9.6
		c-34,33.6-71,64.3-106.7,96.2c-1.1-13.7-2.1-27.5-3.1-41.2c21.3,18,29.2-4.3,39.9-14.2c24.3-22.5,45.7-48.5,71.7-68.6
		c10.4-8,31.2-9,44.9-5.1c39.1,11.2,76.9,26.6,115.3,40.3c20.3,7.2,40.9,13.8,61,21.8C2580,848.3,2579.3,856.8,2580,861.8z"/>
	<path class="st4" d="M2250.7,748.3c-7.6-12.8-12.7-28.3-23.3-37.8c-48.1-42.9-97.2-84.6-147.2-125.2c-10-8.1-25.7-9.3-38.8-13.7
		c9.2-3.6,18.5-7.3,27.7-10.9c11.8,3.7,26,4.5,35.1,11.7c53.2,42.4,105.5,86,157.4,130c4.8,4,4.8,13.7,7,20.7
		C2262.6,731.5,2256.6,739.9,2250.7,748.3z"/>
	<path class="st4" d="M2260.4,561.7c3.9-5.6,7.9-11.2,11.8-16.8c6.8,9.1,12.2,19.7,20.6,27c68,59.7,145.7,101.7,233.3,125.3
		c-0.1,6.4-0.2,12.8-0.4,19.2c-7.8-0.3-16.9,2-23-1.3c-52.7-28.2-115-36.9-159.6-82.3c-19.5-19.8-46-32.7-68.3-49.9
		C2268.3,578,2265.1,568.8,2260.4,561.7z"/>
	<path class="st3" d="M2250.7,748.3c5.9-8.4,11.9-16.8,17.9-25.2c2.6,5.4,5.3,10.8,7.9,16.2c-7.7,36.9-15.3,73.8-23,110.7
		c-2.8,7.7-5.6,15.5-8.5,23.2c1.1,13.7,2.1,27.5,3.1,41.2c-8.7,7.7-17.5,15.4-26.2,23.1c-3.5-1.8-6.9-3.6-10.4-5.4
		C2211.1,868.5,2241.5,810.3,2250.7,748.3z"/>
	<path class="st1" d="M2253.5,850c7.7-36.9,15.3-73.8,23-110.7c13,5.4,26.1,10.7,42.2,17.4C2297.1,793.7,2290.2,831.9,2253.5,850z"
		/>
	<path class="st5" d="M2069.1,560.8c-9.2,3.6-18.5,7.3-27.7,10.9c-4.9,1.1-9.7,2.2-14.6,3.3c-5.4,2.3-10.8,4.6-16.3,6.9
		c-7.5,0.6-14.9,1.3-22.4,1.9c-2.5,0.4-4.9,0.7-7.4,1.1c-9.6,0.7-19.2,1.4-28.7,2.2c-8.8-0.8-17.7-1.5-26.6-2.3
		c8.4-5.3,16.2-13,25.3-15.6c30.2-8.5,61-15.2,91.6-22.6C2051.2,551.2,2060.2,556,2069.1,560.8z"/>
	<path class="st4" d="M2693,2367.8c-35.1-38.4-70.1-76.8-105.2-115.2c5.2-2.9,10.4-5.7,15.6-8.6c28.4,30.9,56.9,61.7,85,92.9
		c3.9,4.4,5.8,10.6,8.7,16C2695.8,2357.9,2694.4,2362.8,2693,2367.8z"/>
	<path class="st4" d="M2687.3,2399.5c1-1.6,1.9-3.2,2.9-4.8C2690.1,2396.9,2689.2,2398.5,2687.3,2399.5z"/>
	<path class="st3" d="M2350.6,2675.1c-36.5-0.3-63-24.4-59.3-53.8C2311,2639.2,2330.8,2657.1,2350.6,2675.1z"/>
	<path class="st4" d="M2215.9,2586.6c16.4,3.8,18.1,11.7,6.6,23.4C2220.3,2602.2,2218.1,2594.4,2215.9,2586.6z"/>
	<path class="st4" d="M2235.2,2563.9c-4.5-0.4-9-0.8-13.6-1.2c3.2-2.9,6.4-5.9,9.6-8.8C2232.6,2557.2,2233.9,2560.6,2235.2,2563.9z"
		/>
	<path class="st5" d="M1232.2,2719.5c4.7-31.5,9.5-63,14.2-94.5c0.7-4.8,1.4-9.6,2.1-14.4c6.6-13.8,13.2-27.6,19.8-41.4
		c1.8,0.2,3.6,0.4,5.3,0.6c-3.6,20.9-7.1,41.8-10.7,62.7c-3.1,16-6.1,32.1-9.2,48.1c-1.6,5.4-3.3,10.9-4.9,16.3
		c-0.3,4.9-0.7,9.7-1,14.5C1242.6,2714.2,1237.4,2716.9,1232.2,2719.5z"/>
	<path class="st4" d="M929.4,2229.5c-8.1-5.7-16.3-11.3-24.4-17c10.1-1.9,20.2-3.8,30.3-5.8C933.3,2214.3,931.3,2221.9,929.4,2229.5
		z"/>
	<path class="st4" d="M799.9,1733.4c-15.7,1.7-34.5,15.7-43.2-10.8C771.1,1726.2,785.5,1729.8,799.9,1733.4z"/>
	<path class="st4" d="M1248.8,2697c1.6-5.4,3.3-10.9,4.9-16.3C1252.1,2686.1,1250.4,2691.6,1248.8,2697z"/>
	<path class="st4" d="M1925.4,584.7c8.8,0.8,17.7,1.5,26.6,2.3c-8.9,3.8-17.8,7.7-26.8,11.5C1925.3,593.9,1925.3,589.3,1925.4,584.7
		z"/>
	<path class="st4" d="M2010.5,581.8c5.4-2.3,10.8-4.6,16.3-6.9C2021.4,577.2,2016,579.5,2010.5,581.8z"/>
	<path class="st4" d="M1980.7,584.8c2.5-0.4,4.9-0.7,7.4-1.1C1985.7,584.1,1983.2,584.4,1980.7,584.8z"/>
	<path class="st0" d="M1248.5,2610.6c-0.7,4.8-1.4,9.6-2.1,14.4l-3.2,0.1l-3.2-0.3C1242.8,2620.1,1245.7,2615.4,1248.5,2610.6z"/>
	<rect x="929.4" y="1172.7" class="st5" width="1596.7" height="382.3"/>
	<g>
		<path class="st6" d="M1400.6,1351.6c0,5.9-3.6,16.5-10.7,31.9s-13,24.8-17.5,28.5c-5.5,4.4-22.8,9.9-51.8,16.6
			c-34.5,7.9-66.5,11.9-95.8,11.9c-39.4,0-66.5-7.7-81.3-23.2c-9.4-9.8-14.1-24.3-14.1-43.5c0-26.1,7.5-50.8,22.4-73.9
			c0.6-0.1,1.3-0.2,2.1-0.2c5.5,0,9.3,2.1,11.5,6.4c-7.7,18.1-11.5,31.9-11.5,41.5c0,27.8,29.9,41.7,89.6,41.7
			c54.2,0,96.7-6.5,127.5-19.4c-5.3-13.7-12.2-26.3-20.7-37.7l28.6-38.9c5.8,7.2,11,17.5,15.6,31.1
			C1398.6,1336.3,1400.6,1345.4,1400.6,1351.6z M1261.4,1273.2l-27.9,26.2l-27.3-27.6l28.4-25.4L1261.4,1273.2z M1330.3,1269.7
			l-28,26.3l-27.3-27.7l28.7-25.6L1330.3,1269.7z"/>
		<path class="st6" d="M1512.7,1440.4h-11.5c-24,0-39.6-9.9-46.9-29.8c-4.9-13.4-8.2-43.4-9.8-89.9c-0.8-23-1.7-38.9-2.8-47.9
			c-2.1-17.3-6.2-32.7-12.1-46.2l34.4-36.2c5.8,9.2,9.3,23.3,10.7,42.4c0.5,6.9,0.8,21.5,0.8,43.9v55.6c0,16.6,1.2,28.6,3.6,36.2
			c4.3,13.4,12.8,20.2,25.6,20.2h7.9L1512.7,1440.4L1512.7,1440.4z"/>
		<path class="st6" d="M1759.3,1440.4h-14.9c-21.2,0-38.1-6.3-50.6-19.1c-10.1-10.2-18.8-26.6-26.2-49.1
			c-40.2,28.4-64.1,44.8-71.7,49.1c-22.7,12.7-45.7,19.1-68.9,19.1h-25.6v-51.6h33.9c20.5,0,37.2-2.1,50.3-6.2
			c8.9-2.8,25.7-10.3,50.3-22.7c-47.8-18.9-74.8-28.3-81-28.3c-5.5,0-10,1.8-13.4,5.3c-3,3-7.2,9.5-12.4,19.6
			c-2,0.9-3.8,1.3-5.5,1.3c-3.4,0-6.1-1.7-8.1-5.1c8.5-22.2,15.1-37.5,19.6-45.9c8.4-15.8,16.5-23.7,24.3-23.7
			c5,0,22.2,6.6,51.7,19.8c29.4,13.2,50.9,19.8,64.3,19.8c14.8,0,37.9-3,69.3-9l-20,45.7c-16.4,1.8-30,3.8-40.7,6
			c7.5,15.7,22.1,23.6,43.7,23.6h31.6L1759.3,1440.4L1759.3,1440.4z M1655.9,1498l-30.3,28.6l-29.8-29.8l30.8-28.1L1655.9,1498z"/>
		<path class="st6" d="M1837.8,1359.5c-4.4,26.7-10.4,44.8-18.1,54.3c-14.2,17.7-34,26.6-59.5,26.6h-12.1v-51.6h19.6
			c27.2,0,40.8-4.1,40.8-12.3c0-5.7-7.1-18.1-21.3-37.4l29-39.6C1830.6,1318.6,1837.8,1338.6,1837.8,1359.5z M1840.7,1243.8
			l-30.3,28.5l-29.8-29.7l30.9-28.2L1840.7,1243.8z"/>
		<path class="st6" d="M2067.7,1366.2c0,19.8-3.8,39.4-11.5,58.7c-12.1,10.3-27.5,15.4-46.3,15.4c-22.7,0-41.2-7.3-55.5-22
			c0-31,9-59.2,26.9-84.5l-10.9-4.5l15.4-46.5c22.7,6.2,39.7,13.3,51,21.5C2057.4,1319.1,2067.7,1339.7,2067.7,1366.2z M2049,1383.9
			c0-10.4-5.9-20.3-17.7-29.8c-10-8-20.6-13.2-31.6-15.6c-10.5,17.4-17.3,32-20.1,43.7c9.3,9.4,21.8,14.1,37.7,14.1
			C2031.5,1396.3,2042.1,1392.2,2049,1383.9z"/>
		<path class="st6" d="M2141.3,1190.3c3.3,16.1,4.9,39.1,4.9,69.1c0,49.4-4.5,103.6-13.6,162.5l-19,28.6l-0.2-70.8
			c0-65.8-5.6-116-16.8-150.6L2141.3,1190.3z"/>
		<path class="st6" d="M2285.1,1431.9c0,15.1-6.6,35.6-19.8,61.8c-12.7,25.1-25.7,44.3-39,57.6c-8.7,0-20.3-3-34.8-9
			c-14.6-6-25-12.1-31.2-18.3c22.7-10.4,43-22.5,60.8-36.3c21-16.2,33.4-30.8,37.3-43.9c-5.6-15.7-17.3-29.4-34.8-41.2l26-50.3
			c9.3,8,17.5,20.2,24.8,36.5C2281.5,1405.1,2285.1,1419.5,2285.1,1431.9z"/>
	</g>
</g>
</svg>
