<?xml version="1.0" encoding="utf-8"?>
<!-- Generator: Adobe Illustrator 27.7.0, SVG Export Plug-In . SVG Version: 6.00 Build 0)  -->
<svg version="1.1" id="Layer_1" xmlns="http://www.w3.org/2000/svg" xmlns:xlink="http://www.w3.org/1999/xlink" x="0px" y="0px"
	 viewBox="0 0 3500 3500" style="enable-background:new 0 0 3500 3500;" xml:space="preserve">
<style type="text/css">
	.st0{fill:#0099FF;}
</style>
<g>
	<path class="st0" d="M837.5,341.2h336.2c1314.1,101.6,2194,1167,2298.9,2432.3c5.1,61.8,9.7,123.8,13.6,186.2v199.2l-765.7-2.9
		c-5.6,0-8.3-2.8-8-8.4c4.2-76.1,3.9-155-0.7-236.6c-38.2-675.1-338.2-1287.7-904.2-1646.5C1266.4,921.6,591.4,886.7,47,1234.1
		c-1.6,1-3.6,0.5-4.6-1.1c-0.3-0.5-0.5-1.1-0.5-1.6V532.9c0-5.3,2.5-9,7.4-11C303,422.5,565.7,362.3,837.5,341.2z"/>
	<path class="st0" d="M779.6,2448.3h418.1c5.2,0,9.9-1.5,14.2-4.6l438.4-322.7c2.1-1.5,5-1.5,7.2,0l457.3,322.7
		c4.3,3.1,9.2,4.6,14.5,4.6h463.1c4.7-0.1,7.7,2.2,8.8,6.8c54.7,227.6,74,458.5,57.9,692.7c-0.4,5.3-3.3,8-8.7,8l-648.9,2
		c-5.3,0-10.1-1.6-14.3-4.9L1660,2898.7c-3.2-2.6-6.4-2.6-9.7,0l-310.4,252.8c-4,3.2-8.5,4.8-13.6,4.8l-1299.4-1
		c-5.4,0-8.2-2.7-8.3-8.1c-8.5-411.9,51.4-797.4,179.8-1156.6c131.8-368.7,337.8-687.5,618-956.5c4.3-4.2,13.6-6.1,27.7-5.8
		c269.3,6.9,558.7,83.7,803.5,195.4c2.4,1,3.4,3.8,2.3,6.2c-0.4,0.8-1,1.6-1.8,2.1c-416.9,274.5-721.5,678.1-861.5,1153.7
		c-5.1,17.4-9.8,35.4-14,54C771.3,2445.4,773.6,2448.3,779.6,2448.3z"/>
</g>
</svg>
