<?xml version="1.0" encoding="utf-8"?>
<!-- Generator: Adobe Illustrator 27.7.0, SVG Export Plug-In . SVG Version: 6.00 Build 0)  -->
<svg version="1.1" id="Layer_1" xmlns="http://www.w3.org/2000/svg" xmlns:xlink="http://www.w3.org/1999/xlink" x="0px" y="0px"
	 viewBox="0 0 3500 3500" style="enable-background:new 0 0 3500 3500;" xml:space="preserve">
<style type="text/css">
	.st0{fill:#FFFFFF;}
</style>
<path class="st0" d="M1601.6,2286c-26.7,27.3-48.1,54.8-74.7,75.4c-101,78.5-216.7,121.5-344.2,129.4
	c-143.9,8.9-282.3-9.9-411.8-80.7c-221.3-120.9-345.6-347.5-306.2-601.6c38.9-250.8,192.7-408.6,430.9-485.7
	c208.1-67.4,405.2-37.4,590.3,76.1c29.6,18.1,57.3,40.2,82.9,63.7c29.4,27,29.6,48.9,0.9,79c-46.8,48.9-94.8,96.6-144,143.1
	c-28.9,27.4-45.9,27.2-80.6,0.1c-42-32.7-87.1-57.3-138.9-70.6c-146.6-37.8-292,13.9-382.1,136.9c-58.2,79.5-54.9,208.8,1.4,289.5
	c120.6,172.9,381.8,176.5,508.6,72.1c52.3-43,60.4-40.2,109,7.9c35.7,35.3,72.2,69.8,107.4,105.6C1567,2243,1581.2,2262,1601.6,2286
	L1601.6,2286z"/>
<path class="st0" d="M2610.6,2077.3c27.9,26.1,59.6,55.3,90.8,85.1c26.8,25.6,54,51.1,79.2,78.2c34.5,37.2,34.5,54.3-1.7,87.8
	c-78.6,72.8-170.7,122.2-274.9,145.8c-116.7,26.5-235,26.6-351.6-0.3c-266-61.5-469.8-282.7-478.5-558.8
	c-9.4-299.7,194.7-522.6,440.3-595.5c205.1-60.8,397.3-34.1,579.3,74.4c31.6,18.9,60.9,42.7,88.3,67.5c31.4,28.3,31.5,49.1,3.3,78
	c-45.8,46.9-92.5,92.9-139.5,138.5c-34.8,33.7-49.4,33.6-89.8,3c-132-100-288.6-108.7-428.2-19.1
	c-83.9,53.9-135.2,132.1-133.5,234.4c1.8,107.5,56.9,189.1,150.2,237.5c144.1,74.8,285.8,69.1,417.7-33.7
	c8.5-6.7,17.9-12.3,27.4-17.7C2593,2080.3,2597.8,2080.2,2610.6,2077.3L2610.6,2077.3z"/>
<path class="st0" d="M0,1998.6c0-137.7-0.2-275.3,0-413c0.2-69.1,6.3-75.4,74.2-76.1c59-0.6,118-1.1,177,0.2
	c51.8,1.2,61.3,10.5,61.4,62.1c0.6,284,0.5,568.1,0,852.1c0,53.1-7.5,60.9-60.5,62.2c-63.3,1.6-126.7,1.8-190-0.2
	c-54.8-1.7-61.8-10.3-62-67.9C-0.4,2278.2,0,2138.3,0,1998.6L0,1998.6z"/>
<path class="st0" d="M156.5,1404c-88.2-0.7-156.3-67.3-156.1-152.6c0.2-82.1,72.5-151.9,157.4-151.9c86.8,0,155.2,67.7,154.7,153
	c-0.5,86.8-67.8,152-156,151.3V1404z"/>
<path class="st0" d="M3460.1,1208.3h-122.7c-22,0-39.9-17.8-39.9-39.9v-122.7c0-22-17.8-39.9-39.9-39.9h-107
	c-22,0-39.9,17.8-39.9,39.9v122.7c0,22-17.8,39.9-39.9,39.9h-122.7c-22,0-39.9,17.8-39.9,39.9v107c0,22,17.8,39.9,39.9,39.9h122.7
	c22,0,39.9,17.8,39.9,39.9v122.7c0,22,17.8,39.9,39.9,39.9h107c22,0,39.9-17.8,39.9-39.9V1435c0-22,17.8-39.9,39.9-39.9h122.7
	c22,0,39.9-17.8,39.9-39.9v-107C3500,1226.2,3482.2,1208.3,3460.1,1208.3z"/>
</svg>
