<?xml version="1.0" encoding="utf-8"?>
<!-- Generator: Adobe Illustrator 27.7.0, SVG Export Plug-In . SVG Version: 6.00 Build 0)  -->
<svg version="1.1" id="Layer_1" xmlns="http://www.w3.org/2000/svg" xmlns:xlink="http://www.w3.org/1999/xlink" x="0px" y="0px"
	 viewBox="0 0 3500 3500" style="enable-background:new 0 0 3500 3500;" xml:space="preserve">
<style type="text/css">
	.st0{fill:#FFFFFF;}
	.st1{fill:#F41E14;}
	.st2{fill:#3EA530;}
	.st3{fill:#273DA3;}
</style>
<g>
	<path d="M0.6,0h3498.8v3500H0.6V0z M523.9,2191.4c-81.8,379.9-162.8,756-244,1133c14.4,7.6,26.8,19.6,39.6,20.1
		c53.8,2.2,107.7,0.9,162.9,0.9c40-204.2,79.3-405.1,118.6-605.9c12.8,8.6,18.5,17.1,23,26.3c91.8,189.2,183.3,378.6,275.3,567.7
		c10.1,20.8,16.9,45.7,47.2,51.9c106.7-212.8,213.8-426.2,320.8-639.5l7.4,1.1c12.4,69.4,24.9,138.8,37.1,208.3
		c20.4,115.7,40.5,231.5,60.9,347.2c3.6,20.4,23.1,42.1,42,42.6c53.7,1.3,107.5,0.5,164.1,0.5c-6.8-34.3-12.9-64.2-18.6-94.1
		c-27.7-144.3-55-288.6-82.9-432.9c-29.2-151.2-57.6-302.6-88.8-453.3c-12.2-58.6-9.7-122.3-51.5-174.3
		c-135.9,267.5-268.1,535-406.6,805.3c-7.1-11.9-10.5-16.6-13-21.8c-104.1-214.7-207.4-429.6-312.5-643.8
		c-22.8-46.5-38.2-98-80.9-139.2L523.9,2191.4z M3360,3080.1c-4,2.8-9.8,6.6-15.3,10.8c-118.8,90.6-250.6,125.8-398,91.8
		c-101.2-23.4-186.1-73.7-243-162.1c-104.8-162.7-65.6-384.2,90.5-507.2c148.9-117.3,311.7-125,481.1-50
		c38.1,16.9,73,40.9,112.8,63.5c0-52.6-1.5-101.8,0.6-150.9c1.2-28.7-12.5-45.6-34.4-58.9c-9-5.5-18.7-9.9-28.4-14.2
		c-72.8-31.8-148.8-51.9-228.3-55c-217.9-8.3-401.9,62.4-538.8,237.6c-146.1,187-150,447.1-4.5,627.7
		c133.8,166,308.9,252.6,524.8,249.9c108.6-1.4,211.4-25.9,309.1-77.7c0-40.8,0.1-80.7,0-120.6c-0.1-30.7,7.1-63.6-27.9-84.7
		L3360,3080.1z M1947.5,2436v883.6c26.3,17.3,52.2,26,77.9,26c24.7,0,49.4,0,74.2,0c14.7,0,29.3,0,47.9,0v-911.7h265.4
		c0-40.2,0.1-76.6,0-112.9c-0.2-38.6-16.4-54.5-55.8-54.5c-213.1,0-426.1,0-639.2,0c-11.4,0-22.8,1.2-36.1,1.9v140.5
		c24.1,33.7,56.7,26.7,87.3,26.9c29.4,0.3,58.9,0,88.3,0c29.1,0,58.2,0,90,0L1947.5,2436z"/>
	<path class="st0" d="M523.9,2191.4c42.7,41.1,58.1,92.6,80.9,139.2c105.1,214.1,208.5,429.1,312.5,643.8c2.5,5.2,5.9,9.9,13,21.8
		c138.5-270.3,270.7-537.8,406.6-805.3c41.8,52.1,39.4,115.7,51.5,174.3c31.3,150.8,59.6,302.1,88.8,453.3
		c27.8,144.2,55.2,288.6,82.9,432.9c5.7,29.9,11.8,59.7,18.6,94.1c-56.6,0-110.3,0.8-164.1-0.5c-18.9-0.5-38.4-22.2-42-42.6
		c-20.4-115.7-40.6-231.5-60.9-347.2c-12.2-69.5-24.8-138.9-37.1-208.3l-7.4-1.1c-107,213.4-214,426.7-320.8,639.5
		c-30.3-6.2-37-31-47.2-51.9c-92-189.1-183.5-378.5-275.3-567.7c-4.4-9.2-10.2-17.7-23-26.3c-39.3,200.9-78.7,401.8-118.6,605.9
		c-55.2,0-109.1,1.3-162.9-0.9c-12.9-0.5-25.2-12.5-39.6-20.1c81.2-377,162.2-753.1,244-1133L523.9,2191.4z"/>
	<path class="st0" d="M3360,3080.1c35,21.1,27.8,54,27.9,84.7c0.2,39.9,0,79.8,0,120.6c-97.8,51.8-200.5,76.4-309.1,77.7
		c-215.8,2.7-390.9-83.9-524.8-249.9c-145.6-180.5-141.6-440.7,4.5-627.7c136.9-175.3,320.9-245.9,538.8-237.6
		c79.5,3,155.5,23.1,228.3,55c9.7,4.2,19.4,8.7,28.4,14.2c21.9,13.3,35.6,30.2,34.4,58.9c-2,49.1-0.6,98.3-0.6,150.9
		c-39.8-22.6-74.7-46.6-112.8-63.5c-169.4-75-332.2-67.3-481.1,50c-156.1,123-195.2,344.5-90.5,507.2
		c56.9,88.5,141.8,138.8,243,162.1c147.4,34,279.2-1.2,398-91.8c5.5-4.2,11.3-8,15.3-10.8L3360,3080.1z"/>
	<path class="st0" d="M1947.5,2436c-31.8,0-60.9,0-90,0c-29.4,0-58.9,0.2-88.3,0c-30.7-0.3-63.3,6.7-87.3-26.9v-140.5
		c13.3-0.7,24.7-1.9,36.1-1.9c213.1-0.1,426.1-0.1,639.2,0c39.4,0,55.6,15.9,55.8,54.5c0.2,36.3,0,72.7,0,112.9h-265.4v911.7
		c-18.6,0-33.3,0-47.9,0c-24.7,0-49.4,0-74.2,0c-25.7,0-51.6-8.7-77.9-26v-883.6L1947.5,2436z"/>
</g>
<path class="st1" d="M439.4,273.7c6.4-9.5,13.9-10,21.2-8.9c28.1,4.4,56.2,8.8,84.1,14.2c24,4.7,47.9,10.2,71.6,16.3
	c74.4,19.3,148.6,39.1,222.9,58.6c59.5,15.5,118.9,31.3,178.6,46c64.7,15.8,129.8,29.9,194.4,45.8c55.6,13.7,104.1,40.3,139.3,86.8
	c25.2,33.4,38.2,71.9,44.7,113.3c4.2,27,1.3,53.3-0.4,79.9c-0.8,12.5-1.6,25-1.6,37.5c-0.1,115.7-0.2,231.3,0,347
	c0,31.9,1.5,63.8,1.9,95.6c0.3,29,0.2,58,0,87c-1,150.8-2,301.6-3,452.5c0,0.8,0,1.6-0.1,2.4c-1.1,10.6-3.5,13-14.2,10.8
	c-36.2-7.6-72.3-15.6-108.3-23.7c-30.5-6.9-60.9-14.1-91.3-21.6c-32-7.9-64-16.1-95.9-24.3c-27-6.9-54.2-13.4-80.9-21.1
	c-43.1-12.5-86.9-22.9-128.1-41.8c-43.8-20.1-81.4-47.8-111.7-85c-39.2-48.2-82.9-96.9-81.6-303.7c0.2-5.1,0.6-10.2,0.6-15.4
	c0.2-194.9,0.9-389.7-0.1-584.6c-0.2-40.2-5-80.8-12-120.4c-10.5-59.5-43.9-106.6-88.7-146C543.4,338,500.6,313,458,287.7
	c-6.5-3.9-12.2-9.1-18.5-13.9L439.4,273.7z"/>
<path class="st2" d="M1275.7,391c8.4-7.8,16.4-7.4,24.3-6c41.4,7.7,83,14.5,124,23.9c45.5,10.4,90.4,23.3,135.5,35.3
	c49,13,97.8,26.5,146.8,39.3c47.9,12.6,95.8,25.1,143.9,36.9c54.7,13.4,109.5,26.7,164.6,38.7c40.9,8.9,80.3,20.8,115.9,43.5
	c45.5,29,76.1,69.5,92.8,120.7c8.6,26.3,11,53.2,10.9,80.9c-0.6,232.5-0.4,465-0.9,697.5c-0.3,112.2-1.6,224.3-2.4,336.5
	c0,9.7,0.4,19.4,0.5,29c0.2,11.9-2.4,14.6-13.9,12.4c-20.1-3.8-40.2-7.8-60.2-12.4c-37.1-8.6-74.2-17.6-111.3-26.5
	c-41-9.8-82.1-18.8-122.8-29.6c-51.2-13.6-102.1-28-152.9-43.1c-75.5-22.3-138.6-63.2-185-127.5c-28.2-39-49.3-81.9-64.3-127.7
	c-3.5-10.6-4.9-22.3-5.1-33.5c-0.6-31.3-0.3-62.7,0.2-94c1.2-90.6,2.9-181.1,4-271.7c0.9-76.3,1.9-152.7,1.9-229
	c0-49-0.4-98.1-3.4-146.9c-2.3-37.9-2.4-76.3-13.2-113.4c-10.5-36.1-26.8-69-51.1-97.5c-40.5-47.5-91.5-81.6-145.8-111.4
	c-11.7-6.4-24.3-11.8-33.2-24.2L1275.7,391z"/>
<path class="st3" d="M2101.4,492.8c10.9-11.4,22.8-8,33.3-6.4c27,4.1,54,8.6,80.6,14.7c43.8,10.1,87.4,21.4,131,32.7
	c29.2,7.6,58,16.6,87.2,24.1c81.5,21.1,163.1,41.7,244.7,62.6c28.1,7.2,56.1,14.8,84.3,21.7c44.2,10.9,89.1,19.3,132.6,32.4
	c63,19,112.6,55.3,140.6,117.7c15.4,34.3,23.6,69,23.5,107.2c-1,347-0.9,694-1.2,1041c0,8.5,0.1,17.2-1,25.6
	c-1.6,12.1-5,14.6-17.4,12.1c-25.7-5.2-51.2-10.9-76.8-16.6c-32.2-7.2-64.4-14.2-96.5-21.8c-28.2-6.7-56.2-14.1-84.3-21.2
	s-56.3-13.7-84.3-21.3c-20.8-5.6-41.4-12.3-62.1-18.7c-21.2-6.5-42.8-12-63.4-20c-24.3-9.5-49.7-18.3-71-32.8
	c-25.1-17.1-49.3-36.5-69.1-60.5c-1.1-1.4-2.3-2.8-3.4-4.2c-57.6-71.5-87.6-161.2-86.3-253c0.6-43.5,1.3-87,1.8-130.5
	c1.1-109.9,2.6-219.9,2.6-329.8c0-74-1.6-148.1-3.6-222.1c-0.8-27.8-3-55.8-7.6-83.3c-4.8-28.8-17.2-55.3-32.3-80.3
	c-35.1-57.7-87-97-143.7-130.9c-15.6-9.3-31.2-18.8-46.6-28.5C2109,500.2,2105.6,496.5,2101.4,492.8L2101.4,492.8z"/>
</svg>
