<?xml version="1.0" encoding="utf-8"?>
<!-- Generator: Adobe Illustrator 27.7.0, SVG Export Plug-In . SVG Version: 6.00 Build 0)  -->
<svg version="1.1" id="Layer_1" xmlns="http://www.w3.org/2000/svg" xmlns:xlink="http://www.w3.org/1999/xlink" x="0px" y="0px"
	 viewBox="0 0 3500 3500" style="enable-background:new 0 0 3500 3500;" xml:space="preserve">
<style type="text/css">
	.st0{fill:none;stroke:#C9C45C;stroke-width:2;}
	.st1{fill:#FBDC07;}
	.st2{fill:#96ABB0;}
</style>
<g>
	<path vector-effect="non-scaling-stroke" class="st0" d="M2447.3,1247.6c-5.5-80.8-21.5-153.3-48.2-217.5
		c-19.3-46.5-43.3-90.5-71.9-131.9c-17.1-24.8-34.6-49.3-52.5-73.5c-4.2-5.7-8.6-12.2-13.3-19.5"/>
	<path vector-effect="non-scaling-stroke" class="st0" d="M1236.5,817.9c0.4,0.6,0.7,1.3,0.7,2.2c0.1,1.7,0.7,3.2,1.7,4.5
		c15.7,20,30.8,40.2,45.3,60.6c48.4,67.8,82.6,138.6,102.5,212.2c5.7,21.2,11.6,44.3,17.6,69.4c5.2,22,10.1,44.2,14.7,66.5"/>
	<path vector-effect="non-scaling-stroke" class="st0" d="M2081.9,1321.6c4.5,17.8,9.8,48,15.9,90.8c5.5,38.5,19.4,85.6,41.6,141.3
		c4.4,11,9.3,22.3,14.7,33.7c5.4,11.3,11.1,22.3,17.1,32.8c9,15.8,18.3,32.3,28.5,47c7.5,10.9,15.1,21.7,22.8,32.4
		c2.5,3.5,10.1,12.4,22.6,26.6c8.7,9.9,15.6,20.4,20.8,31.6"/>
	<path vector-effect="non-scaling-stroke" class="st0" d="M1234.6,1761.3c-23.3-31.5-49.1-62-70.3-94.9
		c-7.4-11.6-14.2-22.8-20.3-33.6c-12-21.3-24.3-47.2-37-77.6c-7.1-16.9-17.2-48.3-30.4-94.3c-5-17.2-7.9-33.1-11.5-50.4
		c-2-9.5-1.5-18.5-3.7-27.7c-3.1-13.3-1.1-25.8-4.2-39.2c-1.3-5.5-2-11.4-2-17.8c-0.1-6.3-0.8-12.2-2.3-17.9"/>
</g>
<path class="st1" d="M2447.3,1247.6c-5.5-80.8-21.5-153.3-48.2-217.5c-19.3-46.5-43.3-90.5-71.9-131.9
	c-17.1-24.8-34.6-49.3-52.5-73.5c-4.2-5.7-8.6-12.2-13.3-19.5c12.9-2.1,21.3-5.4,25.4-9.9c51-55.5,109.1-98.7,174.3-129.4
	c48.5-22.9,85.5-38.5,110.9-46.8c51-16.7,106.7-26.7,159.4-33.1c13.2-1.6,27.1-1.8,40.6-0.5c29.7,2.9,57.8,5.2,84.1,6.8
	c81,4.9,160.6,32.3,235.7,70.2c154.2,77.8,265.1,196.1,332.7,354.9c4.9,11.6,9.9,23.5,15,35.8c0.6,1.6,2.4,2.3,4,1.7
	c0.5-0.2,1-0.6,1.4-1.1c3.2-4.8,5.5-10.3,6.9-16.4c0.2-1.2,1.4-1.9,2.5-1.7c0.6,0.1,1.2,0.5,1.5,1.1c8.3,14.7,7.2,28.2-3.2,40.5
	c-2,2.3-2.7,5.4-2,8.4c13.3,58.5,25.2,111.1,26,172.4c0.6,40.3,1.9,82-4.5,123.1c-26.1,169.6-99,310-218.7,421.1
	c-85.5,79.4-184,132.8-301.2,164.8c-8.9,2.4-18.3,4.1-28.2,5.1c-15.5,1.4-29.4,10.6-44.6,9.9c-16-0.7-31.4,1.5-46.1,6.7
	c-10.5,3.7-21.8-2.2-21.8-13.9c0.2-115.5,0.3-230.6,0.2-345.1c0-8.8,5.2-11.8,13.9-13.1c129.9-18.8,235.4-108.2,273-233.6
	c24.6-82,16.4-177.5-26.5-254c-73.4-131.2-219.2-194.3-364.4-166.3c-33.2,6.4-68.2,21.3-105.3,44.6
	c-65.1,41.1-111.2,100.2-138.4,177.1c-5.2,14.7-8.3,30-9.4,46c-0.1,1.4,0.2,2.7,0.8,4C2457.5,1239,2454.7,1243.4,2447.3,1247.6z"/>
<path class="st1" d="M1236.5,817.9c0.4,0.6,0.7,1.3,0.7,2.2c0.1,1.7,0.7,3.2,1.7,4.5c15.7,20,30.8,40.2,45.3,60.6
	c48.4,67.8,82.6,138.6,102.5,212.2c5.7,21.2,11.6,44.3,17.6,69.4c5.2,22,10.1,44.2,14.7,66.5c-5.3,43.9-4.1,85.3,3.4,123.9
	c13.8,70.9,49.8,131.1,107.9,180.6c95.3,81.4,204.7,102.3,328,62.9c14.9-4.8,27.5-10.1,38-16.1c2.8-1.6,5.4-1.3,8.1-2.8
	c84-47.3,143-117.7,168-212.3c4-15.2,1.2-27.3-1-41.9c-0.2-1.5,0.4-2.3,1.9-2.5c4.2-0.5,7.1-1.7,8.6-3.6c4.5,17.8,9.8,48,15.9,90.8
	c5.5,38.5,19.4,85.6,41.6,141.3c4.4,11,9.3,22.3,14.7,33.7c5.4,11.3,11.1,22.3,17.1,32.8c9,15.8,18.3,32.3,28.5,47
	c7.5,10.9,15.1,21.7,22.8,32.4c2.5,3.5,10.1,12.4,22.6,26.6c8.7,9.9,15.6,20.4,20.8,31.6c-19.8,17.1-38.6,35.2-56.4,54.1
	c-9.1,9.7-17.9,17.3-26.2,22.9c-28.2,18.9-57.9,39.3-88.9,61.3c-2,1.4-3.3,3.4-3.9,5.9c-0.3,1.6-1.3,2.5-3,2.7
	c-5.3,0.5-10.6,2.1-15.9,4.6c-41.9,19.7-78.4,35.1-109.4,46c-16.8,5.9-38.4,11.3-64.9,16.1c-67.1,12.2-133.5,23.3-201.9,14.1
	c-28.6-3.8-58.3-4.7-87.8-10.7c-40.3-8.3-77.8-20.6-112.7-37c-12.7-5.9-26.2-7.1-38.7-13.3c-83.4-41.5-157.3-95.9-221.7-163.3
	c-23.3-31.5-49.1-62-70.3-94.9c-7.4-11.6-14.2-22.8-20.3-33.6c-12-21.3-24.3-47.2-37-77.6c-7.1-16.9-17.2-48.3-30.4-94.3
	c-5-17.2-7.9-33.1-11.5-50.4c-2-9.5-1.5-18.5-3.7-27.7c-3.1-13.3-1.1-25.8-4.2-39.2c-1.3-5.5-2-11.4-2-17.8
	c-0.1-6.3-0.8-12.2-2.3-17.9c-3.3-41.3-4.2-82.9-17.8-122.2C989.2,1053,889.2,976,752,956.8c-2.6-0.4-4.6-2.6-4.6-5.3l0.5-347.1
	c0-13.5,6.7-19.2,20.1-17.1c53.7,8.5,108.2,15.5,161.7,33.9c71.8,24.6,138.4,57.8,199.8,99.6c5.2,3.6,10.6,4,16.7,4.7
	c5.5,0.6,9,3.6,10.7,8.8c2,6.2,4.5,11.4,9.3,16.1c23,22.3,45.7,44.9,68.3,67.7c0.3,0.3,0.6,0.4,0.9,0.4
	C1235.7,818.4,1236.1,818.2,1236.5,817.9z"/>
<path class="st2" d="M2261.4,805.3c4.7,7.2,9.1,13.7,13.3,19.5c17.8,24.2,35.3,48.7,52.5,73.5c28.6,41.4,52.6,85.4,71.9,131.9
	c26.7,64.2,42.7,136.7,48.2,217.5c-9.4,72.7,3,140,37.4,201.8c21.6,38.9,51.3,73.5,89.2,104.1c47,37.9,102.1,60.8,165.4,68.7
	c4,0.5,7.1,3.9,7.1,8v348.3c0,2.8-2.3,5.1-5.1,5.1c-0.1,0-0.3,0-0.4,0c-188-15.9-346.3-91.1-474.9-225.6
	c-5.2-11.2-12.1-21.8-20.8-31.6c-12.5-14.2-20-23.1-22.6-26.6c-7.7-10.7-15.3-21.5-22.8-32.4c-10.2-14.7-19.5-31.2-28.5-47
	c-6.1-10.5-11.8-21.5-17.1-32.8c-5.4-11.4-10.3-22.7-14.7-33.7c-22.2-55.7-36.1-102.8-41.6-141.3c-6.1-42.7-11.4-73-15.9-90.8
	c8-91.5-16.1-172.3-72.3-242.6c-25.9-32.4-54.8-58.8-86.7-79.3c-105.9-67.9-251.5-63.1-355.2,4.8
	c-69.7,45.6-116.8,110.9-141.4,195.9c-2.7,9.3,1,18.6,2.6,27.9c0.3,1.4-0.3,2.4-1.7,2.8l-8.1,2.3c-4.5-22.3-9.4-44.5-14.7-66.5
	c-6-25.1-11.8-48.3-17.6-69.4c-20-73.6-54.1-144.3-102.5-212.2c-14.5-20.3-29.6-40.5-45.3-60.6c-1-1.3-1.6-2.8-1.7-4.5
	c-0.1-0.8-0.3-1.5-0.7-2.2c18.3-18.1,36.5-36.5,55.8-53.2c134.8-116.6,292.8-173.8,474.2-171.6c118.8,1.4,237.4,38,340.2,99.3
	c43.7,26.1,89.5,61.8,137.5,107.4C2249.6,804.9,2255.4,806.8,2261.4,805.3z"/>
<path class="st2" d="M1052.9,1308c1.4,5.7,2.2,11.6,2.3,17.9c0.1,6.3,0.8,12.3,2,17.8c3.1,13.4,1.1,25.8,4.2,39.2
	c2.2,9.2,1.7,18.2,3.7,27.7c3.6,17.2,6.5,33.2,11.5,50.4c13.2,46,23.4,77.4,30.4,94.3c12.7,30.4,25.1,56.3,37,77.6
	c6.1,10.8,12.8,22.1,20.3,33.6c21.2,33,47,63.4,70.3,94.9c-3.8,2.2-7.2,4.7-10.2,7.6c-4.7,4.3-10,6.6-9,14.1
	c0.2,1.8-0.6,2.6-2.4,2.5c-4.8-0.4-6.6,1.8-5.4,6.8c0.3,1.3-0.5,2.7-1.8,3c-0.3,0.1-0.7,0.1-1,0c-4.3-0.8-8.8-0.3-12.1,2.8
	c-197.5,180.8-478.8,235.1-726.9,137c-199-78.7-350.1-242.6-412.1-447c-93.6-309.1,41.2-646.6,323-805.3
	c90.5-51,190.2-80.7,299.2-89.1c4.6-0.3,6.8,1.8,6.8,6.3v347.1c0,3.1-2.3,5.8-5.4,6.3c-103.9,16.7-189.6,66.3-244.4,156.2
	c-41.1,67.5-57.1,139.6-48,216.5c20,170.6,161.5,299.7,335.6,297.9c110.9-1.1,200.1-47,267.7-137.7c6.2-8.4,10.2-16.3,11.9-24
	c0.3-1.5,0.2-3-0.4-4.4l-0.6-1.3c-0.9-2.1-0.2-3.2,2.1-3.2c6.1,0,10.9-4.2,14.3-12.5c6.3-15.3,11.8-29.3,16.4-42.2
	c6.3-17.3,13.3-38.7,12.2-56.9c-0.6-9.5-1.3-19.4-2.1-29.5c-0.2-1.8,0.6-2.7,2.4-2.7C1047.7,1309.5,1050.6,1309,1052.9,1308z"/>
<path class="st2" d="M2726.6,2650c-16.5,29-35.9,50.8-68.9,55.9c-79.2,12.1-160.7,3.2-207.3-65.3c-1.6-2.3-4.7-2.9-7-1.3
	c-0.7,0.5-1.3,1.1-1.7,1.9c-13.9,27.7-35.2,46.4-63.9,56.1c-123.6,41.7-267.9-22.9-269.3-167.6c-0.8-86.7-132.4-93.8-137.3-6
	c-1.9,33.9,19,63.2,52.2,71.1c3.6,0.8,7.1,1.8,10.6,2.9c2,0.6,3.1,2,3.1,4.1l0.5,95.6c0,4.3-3.4,7.8-7.7,7.8c-0.3,0-0.7,0-1-0.1
	c-126.2-16.3-207.9-144.1-140.8-261.8c47.4-83,145.4-111.9,229.4-69.3c57.9,29.3,98,89.5,96.8,157.2c-1.2,67.2,71.9,81.3,121.4,66.6
	c26.1-7.7,25.3-36.5,15.4-56.5c-25-50.3-50.9-102.5-77.5-156.6c-9-18.3-16.8-42.1-12.9-62.2c4.1-21.1,18-43.1,39.2-50
	c95.2-30.9,183.4-59,264.6-84.3c1.2-0.4,2.5,0.2,3,1.4l33.8,74.5c0.6,1.2,0,2.7-1.2,3.3c-0.1,0.1-0.2,0.1-0.4,0.1
	c-73.3,20.7-148.1,42-224.4,63.8c-14.6,4.2-17.8,17.4-11.5,29.9c20,39.2,39.2,77.8,57.6,115.9c15.7,32.6,36.5,66.9,65.9,89.5
	c28.7,21.9,60,33.7,94.1,35.4c17.9,0.8,38.6,0.3,52.9-11.6c30.3-25.3,22.2-84.5,19.3-118.4c-0.1-1.4,0.9-2.7,2.3-2.8
	c0.1,0,0.1,0,0.2,0l90.1-0.3c1.1,0,1.9,0.8,1.9,1.9c0,0,0,0.1,0,0.1c-3.1,57.3,11.2,131.4,85,131.4c225.6-0.1,445.2,0,658.8,0.1
	c4.4,0,7.9,3.5,7.9,7.9l0,96.5c0,1.8-0.9,2.7-2.7,2.7c-210,0.5-431.7,0.2-665.2-0.8c-44.6-0.2-73.7-23.4-98-58.8
	c-1.4-2-4.1-2.5-6.1-1.1C2727.4,2648.9,2726.9,2649.4,2726.6,2650z"/>
<circle class="st2" cx="470.1" cy="2347.9" r="54.8"/>
<circle class="st2" cx="648.7" cy="2348.2" r="54.8"/>
<circle class="st2" cx="826.9" cy="2348.1" r="54.8"/>
<circle class="st2" cx="3383.5" cy="2355.4" r="54.8"/>
<circle class="st2" cx="3026.5" cy="2355.7" r="54.7"/>
<circle class="st2" cx="3205.3" cy="2355.7" r="54.7"/>
<path class="st1" d="M1677.8,2585.4c7.8-6.7,28.5-21.3,31.1-30.8c12.3-44.9-2.4-76.6-43.8-94.9c-2.5-1.1-5.3-1.2-7.8-0.3
	c-7.9,2.8-15.8,4.9-23.7,6.3c-29,5.1-46.5,33.1-47.9,60.7c-1.3,25.8-2.6,53.7-14.7,76.8c-30.3,58-85.8,101.5-151.9,111.9
	c-3.4,0.5-6.6-1.8-7.1-5.2c-0.1-0.3-0.1-0.6-0.1-1l0-104.1c0-2.9,2-5.4,4.8-5.9c6.5-1.4,14.4-3,19.7-6.9
	c17.7-13.2,27.9-29.2,30.6-48c5-35.5,7.2-77.6,27.8-107.9c37.6-55.1,98.2-98.5,166.5-92.5c22.2,1.9,45.4,11.9,66.9,18.5
	c20.4,6.2,36.4,24.8,51.9,39c32.2,29.5,47.4,64.7,50.2,111c4.3,71.1-22.1,127-78.7,163.8c-10.1,6.5-19.4,13.5-28,21
	c-2,1.8-4.3,2.3-6.9,1.7c-7-1.6-13.7-0.9-20.1,2.2c-13.8,6.6-30.4,8.4-45,4.9c-2.7-0.6-4.6-3.1-4.5-5.9l1.8-102.7
	c0.1-3.8,3.1-6.8,6.9-6.8C1663.3,2590.5,1671.5,2590.8,1677.8,2585.4z"/>
<path class="st2" d="M846.7,2678.4c-2.7,1.8-5.2,3.7-7.7,5.6c-19.4,15.2-49.1,23.3-74.4,25.4c-35.7,2.9-71.3,2-106.9-2.6
	c-22.9-3-44.8-11.9-65.9-26.8c-3.1-2.2-7.3-2-10.2,0.4c-20.6,17.2-44.5,26.5-71.7,27.8c-24.5,1.2-50.5,1.8-77.9,1.9
	c-55.1,0.1-95.9-3.5-135.2-40.3c-2.5-2.4-6.5-2.3-9,0.1c-28.5,27.7-68.3,39.4-108,39.6c-58.1,0.3-114.3,0.4-168.7,0.1
	c-3.8,0-6.9-3.1-6.9-6.9V2609c0-4.2,3.4-7.7,7.7-7.7c0,0,0,0,0,0c63.4,0.1,125,0.1,184.9-0.3c16.9-0.1,42.6-9.3,45.3-29.1
	c6.4-46.6,6.7-93-43.9-111c-44.5-15.8-85,17.7-92.6,60.7c-0.4,2.1-2.2,3.6-4.2,3.6H2.7c-2.7,0-3.9-1.3-3.7-4
	c5.8-62.2,31.4-108.6,76.9-139.4c56.2-38,124.7-43.5,183.5-9.7c54.2,31.2,90.9,87.1,93.9,151.7c0.5,10.6,0.3,21.4,4,31.5
	c19.8,54.2,88,47.7,132.8,44.6c26.6-1.8,42-16.8,46.1-44.9c3.4-23.3,3.5-45.4,0.4-66.1c-1.7-11.2,3.3-16.8,14.9-16.9
	c28.6-0.4,53.5-0.4,74.7-0.1c9.1,0.1,13.2,4.6,12.3,13.5c-4.1,42.2-10,113.5,51.6,116.8c19.7,1.1,37.4,1.2,53.2,0.4
	c38.5-2.1,53-23.7,55.2-60.6c1.1-18.9,0.8-37.5-1-55.9c-0.9-9.5,3.5-14.3,13.2-14.3c25.9,0,52.7,0,80.4,0c5.4,0,9.7,4.4,9.7,9.7
	c0,0.3,0,0.6,0,0.9c-4,44.3-11.1,119.1,55.8,119.1c149.6,0,294.2,0.2,433.7,0.4c3.6,0,6.5,2.9,6.5,6.5l0.7,96.2
	c0,3.8-1.9,5.7-5.7,5.7c-141.6-0.7-287.2-0.7-436.9,0.2c-39.2,0.2-73.8-10.4-103.7-31.8C849.6,2677.5,848.2,2677.5,846.7,2678.4z"/>
<circle class="st2" cx="2640.8" cy="2856.2" r="59"/>
</svg>
