<?xml version="1.0" encoding="utf-8"?>
<!-- Generator: Adobe Illustrator 27.7.0, SVG Export Plug-In . SVG Version: 6.00 Build 0)  -->
<svg version="1.1" id="Layer_1" xmlns="http://www.w3.org/2000/svg" xmlns:xlink="http://www.w3.org/1999/xlink" x="0px" y="0px"
	 viewBox="0 0 3500 3500" style="enable-background:new 0 0 3500 3500;" xml:space="preserve">
<style type="text/css">
	.st0{fill:#ECCC69;}
	.st1{fill:#FAFBFC;}
	.st2{fill:#EC0109;}
	.st3{fill:#013D89;}
	.st4{fill:#028132;}
</style>
<g>
	<path class="st0" d="M2224.4,3207.6v80.7h-295v123.9h329.7v77.9h-453.6v-460.3h441.6v77.3h-317.5v100.3h294.7L2224.4,3207.6z"/>
	<path class="st0" d="M2840.3,3166.4c-35.5,0-71.4,0.6-107.2-0.6c-5.8-0.2-14-7.7-16.4-13.8c-11.7-29.3-33.2-47.5-63.6-48.7
		c-35.5-1.3-71.7,0.3-106.6,6.6c-13,2.4-31.7,21.4-31.9,33.1c-0.2,11.5,17.9,29.7,31.3,33.7c45.7,13.8,93.2,21.9,139.6,33.9
		c33,8.5,66.4,17.2,97.6,30.7c47.6,20.6,77,57.7,77.3,111.4c0.2,53-26.8,92.1-73.4,114.5c-27.3,13.1-57.8,23-87.8,26.8
		c-68.1,8.5-136.8,10.4-203.7-10.8c-69.2-21.9-110.5-68-122.6-143c39.5-3.1,77.5-6.1,113.4-8.9c12.8,20.1,21.7,41.4,36.8,56.5
		c40.3,40.4,147.8,43.1,192.9,7.4c32.8-26,30-60.6-9.4-74.8c-37.5-13.5-77.8-19.1-116.5-29.6c-40.3-10.9-81.5-20.3-119.8-36.4
		c-44.4-18.6-75.4-52.2-74.8-104c0.6-52.4,31.2-87,77.4-105.1c94.8-37.2,191.3-36,286,0C2812.7,3065.7,2842.7,3112.6,2840.3,3166.4
		L2840.3,3166.4z"/>
	<path class="st0" d="M3482.6,3490.9h-120.5v-199h-232.8v197.9h-123v-459.5h121.3v178h232.3v-177.9h122.8v460.5H3482.6z"/>
	<path class="st0" d="M495.6,3491.7c33.1-66.3,63.8-128.1,94.7-189.9c42.1-84.1,84.8-168,126.3-252.5c7.9-16.2,17.5-22.3,35.4-21.4
		c29.1,1.5,58.3-0.7,87.4,1.1c9,0.6,21.6,6.8,25.5,14.1c76.4,145.3,151.8,291.2,227.4,437c1.1,2.2,1.5,4.7,3.5,11.3
		c-42.8,0-84,0.6-125.2-0.8c-4.9-0.2-10.7-10-14-16.4c-12.5-24.4-23.1-49.7-36.6-73.5c-4-7-14.9-14.1-22.8-14.2
		c-68.5-1.2-137.1-1.2-205.7-0.1c-7.6,0.1-18,8-22.1,15.2c-12.7,22.2-24.1,45.4-33.7,69.1c-6.3,15.8-14.2,22.3-32,21.4
		c-34.1-1.7-68.4-0.5-108-0.5L495.6,3491.7z M713.9,3305.6h158.8c-27.2-55.8-53.2-109.2-80.9-166.1
		C764.8,3197.1,740,3250.1,713.9,3305.6L713.9,3305.6z"/>
	<path class="st0" d="M1205.8,3028.6c75.2,0,148.6-0.5,222.1,0.2c35.1,0.3,70.3,1.1,105.1,4.9c95.4,10.5,154.3,95.9,124,181.8
		c-21.4,60.5-71.7,88.8-131.9,95.6c-54.2,6.1-109.3,4.6-164,6.4c-10.1,0.3-20.2,0-32.8,0v172.2h-122.4L1205.8,3028.6L1205.8,3028.6z
		 M1328.2,3235.5c45.3,0,87.9,0.3,130.6-0.2c9.2-0.1,18.6-2.6,27.7-5.1c31.3-8.5,50.1-29.8,50.9-56.8c0.8-27.1-16.4-53-48.7-57.3
		c-52.7-7.1-106.3-7.6-160.5-10.9V3235.5z"/>
	<path class="st0" d="M315.2,3490.3H192.8v-381.7H17.4v-78.9h471.7v78.2h-174v382.5L315.2,3490.3z"/>
</g>
<g>
	<path class="st1" d="M3491,1614.4c0,40.5,0,81.1-0.1,121.6v1.1c0,6.3,0,12.7-0.1,19l-0.1,1.4c-1,5.5-1.9,11-2.9,16.5
		c-4.2,7.3-8.4,14.6-12.5,22c-34.8,62.5-65.1,128-105.3,186.7c-57.5,83.9-133.6,149.1-232.2,181.6c-207.2,68.4-455.7-31.6-571.5-227
		c-61.7-104.1-93-217.7-111-336c-0.8-5.5-3-10.8-4.5-16.2c-22.1,113.3-54.3,220.8-110,320.5c-91.5,163.9-228.7,266.7-414.6,294.8
		c-63.8,9.7-131.5,2.6-196.4-5.7c-143-18.2-278.6-56.7-380.1-169.5c-2-10.6-5.8-21.3-5.8-31.9c-0.4-152.5-0.3-304.9-0.2-457.4
		c0-8.8,0-17.6,0-26.4c-6.1,6.1-7.4,12.5-8.2,19c-10.7,94.8-29.9,187.6-65.1,276.5c-70.5,178.1-185.5,312-372.5,374.6
		c-159,53.2-300.2,23.1-424.3-89.1c-2.7-2.4-6.3-3.8-9.7-5.8c-1.5,3.5-2.8,5-2.8,6.5c-0.3,162.7-1.8,325.4,0,488.1
		c0.9,79.7,44.7,136,120.6,160.7c29.6,9.6,61.5,12.1,93.1,18v60.4H7.7c2.7-24,5.1-46.1,7.5-68.1c18.8,0.4,37.6,1.4,56.4,1.1
		c64.2-0.9,111.6-31.3,133.1-90.5c13.7-37.7,20.8-79.9,20.9-120.2c1.4-492.4,1-984.7,0.8-1477.1c0-17.8-2.1-36-5.8-53.4
		c-12-56.7-50.2-89.2-107.9-84.2c-33,2.8-65.1,17.4-97.6,26.7c0-15.9,0-31.8,0-47.7c122.7-52.5,245.5-105,368.2-157.5
		c24-10.3,48.2-20.2,77.4-32.4v274.5c10-7.1,14.4-15,18.8-22.9c70.9-126.3,168-220,315-250.1c136.5-28,256.8,0.4,354.3,104.8
		c76.7,82.1,122,181.3,153.1,287.2c17,57.9,27.6,117.6,41.4,178c0-17.4,0-33.6,0-49.8c0-306.8,0-613.5,0-920.3
		c0-10.3,0.1-20.6-0.5-30.8c-4.7-78.9-52.9-120.6-131.1-110.1c-28.2,3.8-55.3,15.5-82.8,23.5c-7.3-39.4-6.9-40,27.6-54.7
		c64.6-27.6,129.2-55,193.5-83.2c42.9-18.8,85.1-39.1,127.6-58.7c33.5,0,67.1-0.1,100.6-0.2c0,329.8,0,659.5,0,989.3
		c9.6-6.7,13.5-14.1,17.5-21.4c62.1-113.5,146.7-201.9,273.5-242.4c174.6-55.8,328.1-7,435.9,141c79.8,109.5,121.3,234.9,144,367.3
		c3.2,18.4,6,36.9,9.3,57.4c12.8-56.5,22.3-110.4,37.2-162.7c92.5-325.9,415.4-480.3,669.7-424.9c121.4,26.4,222.5,84.8,283,197.7
		c16.6,30.9,23.2,67.1,34.5,100.9c-0.2,21.8-0.3,43.6-0.5,65.4c-2.7,7.8-5.6,15.6-8,23.5c-14.1,45.7-47.2,75.4-91.3,83.2
		c-51.9,9.2-101.4-1.9-130.6-54.7c-29.1-52.6-39-110.7-50.8-168.5c-9.3-45.5-28.3-85.6-66.9-114.6c-39-29.4-83.3-31.3-129.8-31.5
		c-45.1-0.2-84.8,12.1-122.6,34.9c-70.3,42.4-118,104.3-148.9,178.5c-62.7,150.3-74,307.3-50.5,466.7
		c20.3,137.7,72.1,262.7,170.8,363.6c62.1,63.5,134.9,110.2,228.8,104.3c152.7-9.5,263-88.2,339.3-217c25-42.2,44.1-87.8,65.8-131.5
		c0.6,1.4,2,4.4,3.3,7.3L3491,1614.4z M1579.5,1499.8c0,65.9,0,131.9,0,197.8s-0.2,131.9,0.1,197.8c0,8.1-0.3,19.1,4.5,23.9
		c32.8,33.2,63.8,69.4,101.2,96.5c106.7,77.4,282.2,91.2,395-51.2c66.1-83.4,101.1-178,116.8-281c24.2-158.1,7.6-314.1-28.2-468.7
		c-18.3-79-57.7-146.4-117.8-200.5c-68.8-61.8-147.8-94.6-242.5-77.5c-83.7,15.1-150,60-207.4,120c-16.4,17.1-22.6,37.6-22.3,62.6
		C1580.3,1246.2,1579.5,1373,1579.5,1499.8L1579.5,1499.8z M1094.8,1477.9c-8.9-54.6-24.3-157.8-43-260.4
		c-12-65.4-43.6-122.7-88.7-171.3c-74.6-80.2-165.3-119.1-275.2-93.5c-81.5,19-139.8,72.9-189.7,137.5
		c-25.6,33.1-37.1,68.1-36.6,111.1c2.1,186.8-0.3,373.7,1.8,560.5c0.5,42.2,8.6,85.3,20.2,126c21.8,76.6,67.2,136.6,141.8,169.9
		c74.5,33.2,152,31.4,229.2,11.9c21.5-5.5,43.3-16.5,60.9-30.1c55.2-42.8,94.9-98.4,122.5-162.4c48.4-111.8,59-229.8,56.8-399.3
		V1477.9z"/>
	<path class="st2" d="M1349.6,2025.3c101.5,112.8,237.2,151.4,380.1,169.5c64.8,8.2,132.6,15.3,196.4,5.7
		c185.8-28.1,323.1-130.9,414.6-294.8c55.7-99.7,87.8-207.2,110-320.5c1.5,5.4,3.6,10.7,4.5,16.2c18,118.3,49.2,231.9,111,336
		c115.8,195.4,364.3,295.4,571.5,227c98.7-32.6,174.8-97.7,232.2-181.6c40.2-58.7,70.5-124.3,105.3-186.7c4.1-7.4,8.4-14.7,12.5-22
		c1.5,10.9,4.4,21.8,4.4,32.7c0.2,325.6,0.2,651.2,0.2,976.8c0,35.5-0.1,35.5-34.7,35.5c-691,0-1382.1,0-2073.1,0
		c-13.7,0-27.4-0.8-41.1-1.2c0-253.8,0-507.6,0.2-761.4C1343.6,2046.1,1347.5,2035.8,1349.6,2025.3L1349.6,2025.3z"/>
	<path class="st3" d="M3482.9,1004.6c-11.2-33.8-17.9-70-34.5-100.9c-60.5-112.9-161.6-171.3-283-197.7
		c-254.3-55.4-577.3,99-669.7,424.9c-14.9,52.4-24.4,106.2-37.2,162.7c-3.3-20.5-6.1-39-9.3-57.4c-22.7-132.3-64.2-257.7-144-367.3
		c-107.8-148-261.4-196.8-435.9-141c-126.8,40.5-211.4,128.8-273.5,242.4c-4,7.3-7.9,14.7-17.5,21.4c0-329.8,0-659.5,0-989.3
		c11.1-0.6,22.2-1.8,33.2-1.8c614.9-0.2,1229.8,0,1844.7-0.6c24.4,0,33.8,3.9,33.7,31.7c-1.1,313.7-0.7,627.3-1,941
		C3488.9,983.4,3485,994,3482.9,1004.6L3482.9,1004.6z"/>
	<path class="st4" d="M1477.7,2.6c-42.5,19.6-84.8,39.8-127.6,58.7c-64.3,28.3-128.9,55.7-193.5,83.2
		c-34.5,14.7-34.9,15.3-27.6,54.7c27.5-8.1,54.7-19.7,82.8-23.5c78.3-10.6,126.4,31.1,131.1,110.1c0.6,10.3,0.5,20.6,0.5,30.8
		c0,306.8,0,613.5,0,920.3c0,16.2,0,32.5,0,49.8c-13.8-60.4-24.4-120.2-41.4-178c-31.1-105.9-76.5-205.1-153.1-287.2
		c-97.5-104.4-217.8-132.8-354.3-104.8c-147,30.2-244.1,123.9-315,250.1c-4.4,7.9-8.8,15.8-18.8,22.9V715.2
		c-29.3,12.2-53.4,22.2-77.4,32.4C260.6,800,137.9,852.6,15.2,905.1c-1-1.4-1.8-2.8-2.4-4.4c0.1-3.7,0.2-7.5,0.3-11.2
		c0.5-18.8,1.4-37.6,1.4-56.4c0-267.3,0-534.7,0-802c0-9.1,0-18.3,0-30.6c12.5,0,21.6,0,30.8,0c466.4,0,932.9,0,1399.3,0.1
		c11.1,0,22.1,1.4,33.2,2.1L1477.7,2.6z"/>
	<path class="st3" d="M3491,1614.4c-1.3-3-2.7-5.9-3.3-7.3c-21.7,43.7-40.8,89.4-65.8,131.5c-76.3,128.8-186.6,207.5-339.3,217
		c-93.9,5.8-166.7-40.8-228.8-104.3c-98.7-101-150.5-225.9-170.8-363.6c-23.5-159.4-12.2-316.4,50.5-466.7
		c31-74.2,78.7-136.1,148.9-178.5c37.8-22.8,77.6-35.1,122.6-34.9c46.4,0.2,90.8,2.1,129.8,31.5c38.5,29,57.6,69.1,66.9,114.6
		c11.8,57.8,21.7,115.9,50.8,168.5c29.2,52.8,78.8,63.9,130.6,54.7c44.1-7.8,77.2-37.5,91.3-83.2c2.4-7.9,5.3-15.7,8-23.5
		c2.4,13.6,7,27.2,7,40.8c0.3,146.9-0.1,293.9-0.2,440.8c0,20.9,1.2,41.9,1.8,62.8V1614.4z"/>
	<path class="st3" d="M1349.6,2025.3c-2.1,10.4-6,20.7-6,31.1c-0.3,253.8-0.2,507.6-0.2,761.4c-105.5,0.4-210.9,0.9-316.4,1
		c-117.5,0.1-234.9-0.2-352.4-0.3c0-20.3,0-40.6,0-60.4c-31.7-5.9-63.6-8.4-93.1-18c-75.9-24.7-119.7-81-120.6-160.7
		c-1.9-162.7-0.3-325.4,0-488.1c0-1.5,1.3-3,2.8-6.5c3.4,2,7,3.4,9.7,5.8c124.1,112.1,265.4,142.3,424.3,89.1
		c187-62.6,302-196.5,372.5-374.6c35.2-89,54.4-181.8,65.1-276.5c0.7-6.4,2-12.8,8.2-19c0,8.8,0,17.6,0,26.4
		c0,152.5-0.1,304.9,0.2,457.4c0,10.6,3.8,21.3,5.8,31.9L1349.6,2025.3z"/>
	<path class="st3" d="M15.2,952.8c32.5-9.3,64.5-23.9,97.6-26.7c57.7-4.9,95.9,27.5,107.9,84.2c3.7,17.4,5.8,35.6,5.8,53.4
		c0.3,492.4,0.6,984.7-0.8,1477.1c-0.1,40.2-7.2,82.5-20.9,120.2c-21.5,59.2-68.9,89.6-133.1,90.5c-18.8,0.3-37.6-0.7-56.4-1.1
		c-0.2-11.1-0.6-22.2-0.6-33.4c0-579.5,0-1159.1,0-1738.6c0-8.6,0.4-17.1,0.6-25.7L15.2,952.8z"/>
	<path class="st3" d="M1579.5,1499.8c0-126.8,0.7-253.5-0.6-380.3c-0.3-25,5.9-45.4,22.3-62.6c57.4-60,123.7-104.9,207.4-120
		c94.7-17.1,173.7,15.7,242.5,77.5c60.1,54.1,99.5,121.4,117.8,200.5c35.9,154.6,52.4,310.6,28.2,468.7
		c-15.7,103-50.7,197.6-116.8,281c-112.8,142.4-288.4,128.6-395,51.2c-37.4-27.1-68.4-63.3-101.2-96.5c-4.8-4.8-4.4-15.8-4.5-23.9
		c-0.3-65.9-0.1-131.9-0.1-197.8S1579.5,1565.7,1579.5,1499.8L1579.5,1499.8z"/>
	<path class="st3" d="M1094.8,1477.9c2.2,169.5-8.4,287.5-56.8,399.3c-27.7,64-67.4,119.5-122.5,162.4
		c-17.6,13.7-39.3,24.7-60.9,30.1c-77.2,19.6-154.7,21.4-229.2-11.9c-74.6-33.3-120-93.3-141.8-169.9c-11.6-40.7-19.7-83.9-20.2-126
		c-2.1-186.8,0.3-373.7-1.8-560.5c-0.5-43.1,11-78,36.6-111.1c49.9-64.6,108.2-118.5,189.7-137.5c109.9-25.6,200.7,13.3,275.2,93.5
		c45.1,48.5,76.8,105.9,88.7,171.3c18.8,102.6,34.1,205.8,43,260.4L1094.8,1477.9z"/>
</g>
</svg>
