<?xml version="1.0" encoding="utf-8"?>
<!-- Generator: Adobe Illustrator 27.7.0, SVG Export Plug-In . SVG Version: 6.00 Build 0)  -->
<svg version="1.1" id="Layer_1" xmlns="http://www.w3.org/2000/svg" xmlns:xlink="http://www.w3.org/1999/xlink" x="0px" y="0px"
	 viewBox="0 0 3500 3500" style="enable-background:new 0 0 3500 3500;" xml:space="preserve">
<style type="text/css">
	.st0{fill:none;stroke:#231845;stroke-width:2;}
	.st1{fill:none;stroke:#7FC421;stroke-width:2;}
	.st2{fill:none;stroke:#8F870F;stroke-width:2;}
	.st3{fill:none;stroke:#10562E;stroke-width:2;}
	.st4{fill:none;stroke:#7D201D;stroke-width:2;}
	.st5{fill:none;stroke:#EC8E11;stroke-width:2;}
	.st6{fill:#1F191B;}
	.st7{fill:#FEF502;}
	.st8{fill:#DA261F;}
	.st9{fill:#26176E;}
	.st10{fill:#009240;}
</style>
<g>
	<g>
		<path vector-effect="non-scaling-stroke" class="st0" d="M3494.5,1556.4c-0.2,0.7,0,1.3,0.5,1.7"/>
		<path vector-effect="non-scaling-stroke" class="st0" d="M3494.9,1653.4c-0.5,0.8-0.7,1.9-0.4,3.2"/>
		<path vector-effect="non-scaling-stroke" class="st0" d="M5.2,1153.4c-0.1,0-0.2,0-0.2,0"/>
		<path vector-effect="non-scaling-stroke" class="st1" d="M1244.9,2305.6c-0.1-0.2-0.2-0.3-0.4-0.4"/>
		<path vector-effect="non-scaling-stroke" class="st2" d="M1244.6,2305.2l16.2-92.4"/>
		<path vector-effect="non-scaling-stroke" class="st3" d="M1244.6,2305.2c-0.3,0.3-0.4,0.8,0,1.4"/>
		<path vector-effect="non-scaling-stroke" class="st2" d="M1168.4,2385.2l23.4-108"/>
		<path vector-effect="non-scaling-stroke" class="st4" d="M1165.3,2282.2c-0.2,0.3-0.4,0.7-0.3,1.2"/>
		<path vector-effect="non-scaling-stroke" class="st2" d="M1164.6,2285.8c-0.6,0.4-0.9,1-1.1,1.7c-6.8,30.2-14.6,66.3-23.4,108.1"
			/>
		<path vector-effect="non-scaling-stroke" class="st2" d="M1061.9,2483.2l-1.8-1.9c-1-1-1.3-2.4-0.9-3.7
			c5.9-18.3,11.1-36.8,15.7-55.4c2-8.1,3.3-14.1,3.8-17.9"/>
		<path vector-effect="non-scaling-stroke" class="st2" d="M900.3,2609.6c-0.4-8-0.5-14.7-0.2-20.1c0-0.6,0.4-1,1-1"/>
		<path vector-effect="non-scaling-stroke" class="st0" d="M845.2,2581.7l0.1-14.7"/>
		<path vector-effect="non-scaling-stroke" class="st4" d="M1059.9,2398.6c-0.8,1.2-1.2,2.5-1.3,3.8"/>
		<path vector-effect="non-scaling-stroke" class="st2" d="M1058.6,2402.5c-0.2,0.2-0.4,0.3-0.6,0.6c-0.2,0.2-0.3,0.4-0.4,0.7
			c-8,26.4-16.2,52.8-24.4,79.1c-1.8,5.7-5.5,7.5-11.1,5.5c-6-2.1-11.7-3.7-17.3-5"/>
		<path vector-effect="non-scaling-stroke" class="st5" d="M1059,2402.7c-0.1-0.1-0.2-0.1-0.3-0.2"/>
		<path vector-effect="non-scaling-stroke" class="st0" d="M946.5,1964.5c-0.9,1.3-0.9,2.4-0.2,3.3"/>
		<path vector-effect="non-scaling-stroke" class="st0" d="M509.8,1399c-15.6,1-31.1,1.2-46.5,0.7c-1.4,0-2.9-0.2-4.3-0.4"/>
		<path vector-effect="non-scaling-stroke" class="st0" d="M457.4,1489.6c0.5-0.6,0.8-1.6,0.8-3.1c0.2-27.9,0.2-55.7,0-83.6
			c0-0.4-0.1-1.1-0.4-2.3"/>
		<path vector-effect="non-scaling-stroke" class="st0" d="M540.3,1543.6l3.1,0c0.1,0,0.2,0.1,0.3,0.3l0,0c0.1,0.1,0,0.2-0.1,0.3
			c-0.1,0-0.1,0-0.2,0c-5.4,0-21.8,0-49.2-0.1c-28.9-0.1-57.5,0-86,0.4c-1,0-1.7,0.8-1.7,1.7l-0.1,49.7"/>
		<path vector-effect="non-scaling-stroke" class="st0" d="M579.1,1601.4l-117.4-0.1"/>
		<path vector-effect="non-scaling-stroke" class="st0" d="M453.8,1601.4c-0.5-0.1-1.1,0-1.6,0.1"/>
		<path vector-effect="non-scaling-stroke" class="st0" d="M438.4,1601.4l-3.5,0"/>
		<path vector-effect="non-scaling-stroke" class="st0" d="M508.2,1743.6c-17.6-1.3-35.1-1.3-52.6,0"/>
		<path vector-effect="non-scaling-stroke" class="st3" d="M3494.6,2732c-0.1,0-0.1,0-0.2-0.1"/>
		<path vector-effect="non-scaling-stroke" class="st0" d="M435.4,1866.6c-9-1.9-18.6-1.6-28.6,0.7"/>
		<path vector-effect="non-scaling-stroke" class="st0" d="M398.5,1867.8c-2.6-0.4-5.2-0.2-7.7,0.5"/>
		<path vector-effect="non-scaling-stroke" class="st0" d="M362.9,1873.6c-0.9,7.1-1,14.3-0.4,21.4"/>
		<path vector-effect="non-scaling-stroke" class="st0" d="M361.4,1929.4c-0.3,1.5-0.4,3.1-0.2,4.7"/>
		<path vector-effect="non-scaling-stroke" class="st0" d="M5.9,1931.1l-0.8-37.6"/>
		<path vector-effect="non-scaling-stroke" class="st0" d="M5.1,1870l0.7-9.4"/>
		<path vector-effect="non-scaling-stroke" class="st0" d="M39.2,1829.5c6.4,1.4,12.7,1.6,19.1,0.7"/>
		<path vector-effect="non-scaling-stroke" class="st0" d="M62.8,1862.3c-0.6,4.4-0.5,8.7,0.3,13"/>
		<path vector-effect="non-scaling-stroke" class="st0" d="M5.4,1851.5l0.1,4.1"/>
		<path vector-effect="non-scaling-stroke" class="st0" d="M1249.6,1841.2c-57.5,1-115,1.1-172.5,0.4c-1,0-1.8,0.8-1.8,1.8
			c0,0,0,0,0,0l-0.7,53.5"/>
		<path vector-effect="non-scaling-stroke" class="st0" d="M959.4,2446.4c-1.4,2.2-2.1,4.7-2.2,7.5"/>
		<path vector-effect="non-scaling-stroke" class="st0" d="M993.6,1985.2c4.4,0.6,8.9,0.5,13.4-0.4"/>
		<path vector-effect="non-scaling-stroke" class="st0" d="M373.7,2019.8c0.9-6.2,0.8-12.4,0-18.5"/>
	</g>
	<path class="st6" d="M5.1,752.4c0-0.3,0-0.6,0-0.9C5.1,751.8,5.1,752.1,5.1,752.4C5.1,753.8,5.1,753.8,5.1,752.4z"/>
	<path class="st6" d="M5.1,778.3c0-0.3,0-0.6,0-0.9C5.1,777.7,5.1,778,5.1,778.3C5.1,779.7,5.1,779.7,5.1,778.3z"/>
	<path class="st6" d="M5.1,791.2c0-0.3,0-0.6,0-0.9C5.1,790.6,5.1,790.9,5.1,791.2C5.1,792.6,5.1,792.6,5.1,791.2z"/>
	<path class="st6" d="M5.1,804.1c0-0.3,0-0.6,0-0.9C5.1,803.5,5.1,803.8,5.1,804.1C5.1,805.5,5.1,805.5,5.1,804.1z"/>
	<path class="st6" d="M5.1,817c0-0.3,0-0.6,0-0.9C5.1,816.4,5.1,816.7,5.1,817C5.1,818.4,5.1,818.4,5.1,817z"/>
	<path class="st6" d="M5.1,830c0-0.3,0-0.6,0-0.9C5.1,829.3,5.1,829.6,5.1,830C5.1,831.3,5.1,831.3,5.1,830z"/>
	<path class="st6" d="M5.1,842.9c0-0.3,0-0.6,0-0.9C5.1,842.3,5.1,842.6,5.1,842.9C5.1,844.2,5.1,844.3,5.1,842.9z"/>
	<path class="st6" d="M5.1,855.8c0-0.3,0-0.6,0-0.9C5.1,855.2,5.1,855.5,5.1,855.8C5.1,857.2,5.1,857.2,5.1,855.8z"/>
	<path class="st6" d="M5.1,868.7c0-0.3,0-0.6,0-0.9C5.1,868.1,5.1,868.4,5.1,868.7C5.1,870.1,5.1,870.1,5.1,868.7z"/>
	<path class="st6" d="M5.1,881.6c0-0.3,0-0.6,0-0.9C5.1,881,5.1,881.3,5.1,881.6C5.1,883,5.1,883,5.1,881.6z"/>
	<path class="st6" d="M5.1,894.5c0-0.3,0-0.6,0-0.9C5.1,893.9,5.1,894.2,5.1,894.5C5.1,895.9,5.1,895.9,5.1,894.5z"/>
	<path class="st6" d="M5.1,907.5c0-0.3,0-0.6,0-0.9C5.1,906.8,5.1,907.2,5.1,907.5C5.1,908.8,5.1,908.8,5.1,907.5z"/>
	<path class="st6" d="M5.1,920.4c0-0.3,0-0.6,0-0.9C5.1,919.8,5.1,920.1,5.1,920.4C5.1,921.8,5.1,921.8,5.1,920.4z"/>
	<path class="st6" d="M5.1,933.3c0-0.3,0-0.6,0-0.9C5.1,932.7,5.1,933,5.1,933.3C5.1,934.7,5.1,934.7,5.1,933.3z"/>
	<path class="st6" d="M5.1,946.2c0-0.3,0-0.6,0-0.9C5.1,945.6,5.1,945.9,5.1,946.2C5.1,947.6,5.1,947.6,5.1,946.2z"/>
	<path class="st6" d="M5.1,959.1c0-0.3,0-0.6,0-0.9C5.1,958.5,5.1,958.8,5.1,959.1C5.1,960.5,5.1,960.5,5.1,959.1z"/>
	<path class="st6" d="M5.1,972.1c0-0.3,0-0.6,0-0.9C5.1,971.4,5.1,971.7,5.1,972.1C5.1,973.4,5.1,973.4,5.1,972.1z"/>
	<path class="st6" d="M5.1,984.9c0-0.2,0-0.4,0-0.6C5.1,984.5,5.1,984.7,5.1,984.9L5.1,984.9z"/>
	<path class="st6" d="M3494.5,1556.4c-0.2,0.7,0,1.3,0.5,1.7c-0.3,0.2-0.5,0.5-0.5,0.8c0,25.4,0,50.7,0.1,76.1
		c0,5.8-0.1,11.6-0.4,17.4c0,0.4,0.2,0.7,0.7,1c-0.5,0.8-0.7,1.9-0.4,3.2c-1,3.1-2.4,8.5-4,16.2c-1.4,6.4-4.3,15-8.6,25.7
		c-2.9,7.2-6.9,15.3-11.9,24.3c-19.3,34.8-40.7,67.3-64.2,97.5c-6.5,8.4-13.4,16.6-20.8,24.7c-34,37.6-66.7,69.7-98.2,96.2
		c-51.3,43.2-86.8,73.6-106.3,91.1c-57,51.1-149.7,134.6-277.9,250.4c-3.8,3.4-11.9,10.6-24.2,21.4c-27.4,24.1-47.6,41.9-60.7,53.4
		c-129.2,113.3-276.1,240.4-440.7,381.1c-0.5,0.4-1,0.4-1.5,0.1c-0.4-0.3-0.8-0.7-1.1-1.2c-0.4-0.6-0.3-1.5,0.3-2
		c24.8-24.2,48.3-47.7,70.6-70.7c19.5-20,49.1-50.8,88.9-92.3c91.4-95.3,174.1-187.1,247.9-275.3c28.8-34.4,59.3-72.6,91.4-114.5
		c35.3-46.1,68.3-92.3,98.9-138.7c5.1-7.7,11-16.7,17.7-27c55.3-85.5,98.8-176.5,130.3-272.8c4.4-13.4,7.4-24.9,9.2-34.7
		c4.8-27.2,7.5-54.9,8-83.2c0.3-15,0.2-25.8-0.2-32.4c-2-34.7-12.9-66.7-32.5-96.2c-11.2-16.8-24.7-32.1-40.5-46
		c-16.6-14.6-34.7-27.2-54.3-37.8c-14.3-7.7-27.8-14-40.6-19c-21.6-8.4-43.3-15.6-64.9-21.9c-15.1-4.3-30.9-8.2-47.5-11.6
		c-0.5-0.1-0.8-0.5-0.9-1c0-1.1,0.6-1.8,1.9-2.1c2-0.4,5.1-0.6,9.4-0.7c9.5-0.1,19.6,0.2,30.2,0.9c89.4,5.5,174,13.7,253.8,24.4
		c1,0.1,1.7,0.1,2-0.1c1.1-0.7,1.1-1.3-0.1-1.9c-5.4-2.7-10.2-5-14.2-7.1c-29.6-15-52.5-39.2-67.1-69.4c-8-16.6-13.5-34-16.5-52.1
		c-4.8-28.8-1.8-58.6,9.9-85.4c19.3-44.5,55.8-80.1,102.4-95c12.8-4.1,23.4-6.8,31.9-8.1c5-0.8,14.8-0.9,29.6-0.5
		c5.1,0.1,10.1,0.9,14.8,2.2c1.5,0.4,6.3,1.6,14.6,3.6c12.8,3.1,25.6,7.9,38.6,14.4c44.8,22.3,71.8,60.6,83.6,108.3
		c2.6,10.6,3.9,21.3,3.9,32c0,21.7-2.9,41.2-8.5,58.7c-5.2,16.2-13.6,31.9-25.2,47c-22.5,29.3-51.6,49.4-87.6,60.2
		c-3.6,1.1-9.7,2.8-18.2,5.1c-1.1,0.3-1.1,0.6,0,0.9c2.9,0.9,5,1.4,6.2,1.5c3.6,0.4,5.4,0.5,5.5,0.5c25.8,3.9,51.1,9.1,75.8,15.7
		c5.8,1.5,16.6,5.2,32.5,10.9c24.2,8.7,45.9,20.3,65,34.7c11.8,8.9,23.1,20.2,33.9,33.9c13,16.5,22.4,35.5,28.1,57
		C3492.7,1552,3493.5,1554.2,3494.5,1556.4z"/>
	<path class="st6" d="M5.1,1100.5c0-0.1,0-0.2,0-0.3c0,0,0-0.1,0-0.1c0,0,0,0,0,0v0.8c0,0,0,0,0,0c0,0,0,0,0,0c0,0,0,0,0,0
		C5.1,1100.8,5.1,1100.7,5.1,1100.5z"/>
	<path class="st6" d="M789,1213.7h410.4c0.7,0,1.3,0.6,1.3,1.3v52.2c0,0.7-0.6,1.3-1.3,1.3H789c-0.7,0-1.3-0.6-1.3-1.3V1215
		C787.7,1214.3,788.3,1213.7,789,1213.7z"/>
	<path class="st7" d="M1244.9,2305.6c-0.1-0.2-0.2-0.3-0.4-0.4l16.2-92.4c4-10.9,8-21.7,12-32.5c4.7-12.7,10.7-24.1,18-34.1
		c38.1-52.7,69.8-97.1,95.1-133.2c56.8-80.9,102.9-167.3,138.3-259.4c10.8-28.1,19.9-56.5,27.3-85.4c2.7-10.7,4.7-22.2,5.9-34.6
		c1.8-18.5,2.9-35.6,3.3-51.3c0.4-13.5,0.2-24.2-0.5-32.3c-4.8-54.6-27.4-100.2-67.9-136.9c-40.1-36.3-85.9-61.7-137.5-76.4
		c-19.7-5.6-42-11.3-66.8-17c-3.1-0.7-6.6-1.4-8.5-3.7c-0.8-0.9-0.6-2.2,0.3-3c0.3-0.3,0.7-0.5,1.2-0.5c9.4-0.8,19.1-0.9,29-0.3
		c35.9,2.4,74.4,5.5,115.5,9.5c79,7.6,138.2,14,177.7,19.1c54.7,7,109.6,18,164.5,32.9c26,7,51.1,18.9,75.4,35.6
		c22,15.1,40.5,33.7,53.3,56c14,24.3,22,50.5,24.2,78.7c0.6,8.4,0.8,18.2,0.4,29.6c-0.3,10.1-1.4,19.9-3.2,29.3
		c-7.4,38.4-22.7,75-45.7,109.8c-14.4,21.7-26.6,39.4-36.8,53.2c-16,21.7-32.5,41.3-49.6,58.6c-34.2,34.8-68.9,67-104.1,96.5
		c-61,51-121.2,103.8-180.4,158.3c-52.9,48.7-114.8,104.4-185.7,167.2c-0.1,0.1-4.5,4-13.2,11.9c-16.3,14.7-33.4,28.4-51.3,41.2
		C1248.5,2301.3,1246.5,2303.2,1244.9,2305.6z"/>
	<path class="st6" d="M946.5,1964.5c-0.9,1.3-0.9,2.4-0.2,3.3c-13.2,175.9-46.2,348.4-98.8,517.3c-0.3,0.8-1.2,1.3-2,1
		c0,0-0.1,0-0.1,0l-46-17.1c-0.6-0.2-1-0.9-0.8-1.5c1.1-4.6,2.8-11.1,5.3-19.6c50.2-172.4,80.8-349.2,91.6-530.2
		c0.9-14.6,1.4-33.3,1.7-56.1c0.5-45.6,0.4-90.6-0.4-135.2c-0.2-11.4-0.5-22.2-1.1-32.3c-3.1-57-8.1-112.4-15-166.3
		c-4-30.7-8-58.2-12-82.6c-2-12.3-4.3-25.2-6.7-38.6c-0.2-1.2-0.6-3.5-1.2-6.8c-2.2-12.4-7.6-39-16.1-79.8c-0.3-1.6,0.7-3.2,2.4-3.6
		c0.1,0,0.3,0,0.4-0.1l48.9-3.2c0.7,0,1.4,0.4,1.6,1.2c1.6,5.2,2.9,10.8,4.2,16.8c18.3,89.6,31.4,174.5,39.1,254.7
		c7.5,77.5,11.1,157,11,238.6c0,8.6-0.3,19.4-0.8,32.3c-0.4,10-0.7,20.8-1.1,32.3C949.9,1905.4,948.6,1930.6,946.5,1964.5z"/>
	<path class="st8" d="M1760.4,1337.6c94.8,7.5,186.5,16.8,275,27.9c13.2,1.7,23.8,3.1,32,4.4c37.5,5.8,75.3,13.9,113.4,24.3
		c11.9,3.2,28,8,41.7,15c18.9,9.6,34.8,19.3,47.6,29.1c32.6,25,53.9,57.7,63.8,98.3c2.4,9.6,3.8,20.3,4.4,31.9
		c1.4,27.6-1.6,54.4-8.9,80.3c-5.8,20.7-14.6,41.2-26.3,61.6c-13.5,23.4-29,47.2-46.4,71.4c-18.5,25.7-38.5,49.5-59.9,71.3
		c-24.8,25.4-51,49.4-78.5,72.1c-13.5,11.2-40.4,34.1-80.7,68.9c-8,6.9-16,14-24.2,21.4c-254.5,231.6-512.9,458.5-775.1,680.9
		c-5.6,4.7-12.2,11.5-19.9,20.4c-0.1,0.1-0.3,0.1-0.5,0c0,0-0.1-0.1-0.1-0.1l-0.3-0.9c-0.1-0.5,0-1,0.3-1.4
		c6.1-7.9,11.3-14.1,15.6-18.5c96.4-99.5,167.5-174.1,213.3-223.9c51.1-55.4,104.5-115.7,160.1-180.6
		c38.7-45.2,74.3-89.6,106.9-132.9c38.9-51.7,75.7-103.9,110.6-156.6c49-74,88.7-153.9,120.8-237.7c11.3-29.4,19.5-58.4,24.5-86.9
		c3.8-21.5,6.3-43.2,7.5-65.1c0.7-12.2,0.6-24.3-0.1-36.3c-2.9-46.7-19.5-87.2-49.9-121.5c-30.3-34.3-70.2-59.9-113.1-78.4
		c-18.1-7.8-35.9-14.4-53.4-19.6c-18.4-5.5-37.8-10.7-58-15.5c-0.6-0.1-1-0.8-0.9-1.4c0-0.1,0.1-0.2,0.1-0.4
		c2.1-3.2,12.4-3.6,17.5-3.8C1725,1335.2,1738.7,1335.9,1760.4,1337.6z"/>
	<path class="st9" d="M2779.2,1379.5c34.2,4.2,64.2,8.6,90.1,13.3c32.2,5.8,62.3,12.8,90.4,20.8c10.1,2.9,20.3,6.9,30.8,12
		c26.8,13.1,51.5,29.4,70.8,50.9c24.5,27.4,38.7,61.5,42.5,98.2c5.4,53.3-5.4,103.4-32.3,150.2c-6.3,10.9-14.4,24-24.4,39.4
		c-39.5,60.3-87.5,115.3-142.9,161.3c-29.4,24.4-45.4,37.7-48.1,40c-9.3,7.9-17.5,14.9-24.5,21c-28.9,24.9-74.9,66-137.9,123.5
		c-71.2,64.9-160.4,144.5-267.5,238.7c-113.3,99.7-219.1,191.9-317.4,276.5c-34.7,29.9-75.6,64.5-122.7,104
		c-0.1,0.1-0.3,0.1-0.5,0.1l-0.5-0.2c-0.2-0.1-0.2-0.2-0.1-0.3c12.2-12.2,24.1-24.7,35.7-37.5c6-6.6,13.4-14.4,22.2-23.4
		c27.1-27.8,40.3-40.8,59.9-61.6c17.6-18.7,46.8-49.6,87.5-92.7c81.8-86.8,161.2-177.2,238.1-271.3c5.3-6.4,11.9-14.9,20-25.3
		c35.5-45.7,70.4-93.1,104.8-142.2c18.5-26.4,34.5-50.3,47.9-71.5c48.5-76.6,88.4-159,119.6-247.4c7.4-20.9,12.6-41,15.6-60.3
		c1.6-10.6,3.7-29.3,6.2-56.1c1.3-14.3,1.9-25,1.9-32.2c-0.6-54.1-18.8-101.2-54.7-141.3c-34.2-38.3-80.2-63.4-129.2-82
		c-28.7-10.9-56.7-19.2-84.1-25c-4.3-0.9-8.3-2.5-11.9-4.9c-0.8-0.5-1.1-1.6-0.5-2.5c0.3-0.4,0.7-0.7,1.1-0.8c0.8-0.2,1.8-0.2,3,0
		c1.9,0.2,2.9,0.3,3,0.3c93.4,5.3,185.8,13.5,277.3,24.7C2748.7,1375.8,2759,1377.1,2779.2,1379.5z"/>
	<path class="st10" d="M2084.2,1353.8c1-1.1,2.3-1.7,3.9-1.6c24.6,1.1,43.4,1.9,56.5,2.4c14.6,0.6,33.2,1.9,55.7,4
		c30.8,2.9,80.5,8,149.3,15.4c26.8,2.9,51.5,5.9,74.3,9c37.7,5.1,76.7,12.2,117.1,21.3c16,3.6,30.9,7.8,44.6,12.7
		c8.6,3,18.8,7.6,30.6,13.6c29.3,15,53.3,34.8,72,59.5c18.2,24,28.8,52.1,31.8,84.1c4.5,47.9-3.5,93.2-23.9,136
		c-3.4,7-8.7,16.4-15.9,28.1c-24.2,39-48.8,73.1-73.6,102.1c-25.2,29.4-58.7,61.7-92.9,91c-48.6,41.7-84.8,73-108.6,93.9
		c-20.9,18.4-51.9,46-92.9,82.7c-12.6,11.3-61.1,55.2-145.6,131.8c-23.8,21.6-75,66.5-153.5,134.7
		c-138.9,120.7-277.8,241.2-416.7,361.7c-0.3,0.2-0.4,0.2-0.4-0.2v-1.6c0-0.2,0.1-0.3,0.2-0.4c44-45.7,88.7-92.2,134-139.5
		c13.3-13.8,20.7-21.6,22.3-23.3c84.2-87.5,161.9-173.2,232.9-257c61.2-72.2,119.2-146.7,174.1-223.6c24.3-34,46.2-67.1,65.8-99.3
		c26.6-43.6,50.7-89,72.3-136.1c16.3-35.5,30.6-72.1,43.1-109.7c3.8-11.6,6.7-22,8.6-31.1c8.6-42.4,12.1-82.5,10.3-120.2
		c-1.9-39.9-14.3-76.4-37.3-109.5c-11.5-16.6-24.8-31-39.8-43.1c-33.5-27-70.2-47-110.3-60c-29.8-9.7-59.2-18.2-88.4-25.5
		c-0.5-0.1-0.8-0.6-0.7-1.1c0-0.1,0.1-0.2,0.2-0.3c0.1-0.1,0.2-0.2,0.5-0.4C2084,1354,2084.1,1353.9,2084.2,1353.8z"/>
	<path class="st9" d="M509.8,1399c-15.6,1-31.1,1.2-46.5,0.7c-1.4,0-2.9-0.2-4.3-0.4c0-0.1,0-0.3,0.1-0.4c0,0,0,0,0,0
		C475.9,1397.9,492.8,1397.9,509.8,1399z"/>
	<path class="st6" d="M457.4,1489.6c0.5-0.6,0.8-1.6,0.8-3.1c0.2-27.9,0.2-55.7,0-83.6c0-0.4-0.1-1.1-0.4-2.3
		c0.4-0.6,0.9-1.1,1.3-1.3c1.4,0.2,2.9,0.3,4.3,0.4c15.4,0.5,30.9,0.3,46.5-0.7c1.3-0.5,2.3-0.2,2.8,1c0.3,0.6,0.4,1.4,0.5,2.6
		c0.1,26.8,0.1,56.8,0,90.1c0,1-0.6,1.8-1.5,2.2c-0.5,0.2-1.4,0.3-2.9,0.3c-11.5,0.1-25.4,0-41.6,0c-3.2,0-5.8-0.2-7.8-0.4
		c-0.5-0.1-0.9-0.3-1.1-0.8C457.7,1492.6,457.4,1491.2,457.4,1489.6z"/>
	<path class="st9" d="M457.4,1489.6l0.4-89c0.2,1.2,0.4,1.9,0.4,2.3c0.2,27.9,0.1,55.7,0,83.6C458.1,1488,457.9,1489.1,457.4,1489.6
		z"/>
	<path class="st9" d="M540.3,1543.6l3.1,0c0.1,0,0.2,0.1,0.3,0.3l0,0c0.1,0.1,0,0.2-0.1,0.3c-0.1,0-0.1,0-0.2,0
		c-5.4,0-21.8,0-49.2-0.1c-28.9-0.1-57.5,0-86,0.4c-1,0-1.7,0.8-1.7,1.7l-0.1,49.7c-0.6-1.8-0.9-4.5-0.9-8.1
		c-0.1-13.5,0-27.2,0.1-41.1c0-2.1,1.1-3.2,3.2-3.2L540.3,1543.6z"/>
	<path class="st6" d="M579.1,1601.4l-117.4-0.1l-7.9,0c-0.5-0.1-1.1,0-1.6,0.1l-13.7-0.1l-3.5,0c-8.6-0.1-17.3-0.2-25.9-0.3
		c-2.8,0-3.7-1.8-2.7-5.2l0.1-49.7c0-1,0.8-1.7,1.7-1.7c28.5-0.4,57.2-0.5,86-0.4c27.5,0.1,43.9,0.2,49.2,0.1c0.2,0,0.3-0.1,0.4-0.2
		c0,0,0-0.1,0-0.1l0,0c-0.1-0.2-0.3-0.3-0.3-0.3l-3.1,0l39.5,0c0.7,0,1.1,0.4,1.1,1.1c0.2,18.4,0.2,36.4,0.1,54.1
		C580.9,1600.6,580.3,1601.5,579.1,1601.4z"/>
	<path class="st9" d="M438.4,1601.4l-3.5,0L438.4,1601.4z"/>
	<path class="st9" d="M453.8,1601.4l-1.6,0.1C452.7,1601.3,453.2,1601.3,453.8,1601.4z"/>
	<path class="st9" d="M579.1,1601.4l-117.4-0.1L579.1,1601.4z"/>
	<path class="st6" d="M508.2,1743.6c-17.6-1.3-35.1-1.3-52.6,0l-0.1-91.7c0-1.3,1.1-2.4,2.4-2.4h0h49.6c1.9,0,2.8,0.9,2.8,2.8
		c0.3,27.5,0.3,56.5,0,87.3C510.3,1742.8,509.6,1744.2,508.2,1743.6z"/>
	<path class="st6" d="M1136.9,1691l50.9-0.1c1.2,0,2.1,1,2.2,2.1l0.2,89.7c0,1.2-1,2.1-2.1,2.2l-50.9,0.1c-1.2,0-2.1-1-2.2-2.1
		l-0.2-89.7C1134.8,1691.9,1135.7,1691,1136.9,1691z"/>
	<path class="st9" d="M508.2,1743.6c-17.1,1.3-34.6,1.3-52.6,0C473.1,1742.3,490.6,1742.3,508.2,1743.6z"/>
	<path class="st6" d="M435.4,1866.6c-9-1.9-18.6-1.6-28.6,0.7l-8.4,0.5c-2.6-0.4-5.2-0.2-7.7,0.5c-9.3,0.7-17.5,1-24.6,0.8
		c-2.3-0.1-3.4,1.4-3.3,4.5c-0.9,7.1-1,14.3-0.4,21.4l-1.1,34.4c-0.3,1.5-0.4,3.1-0.2,4.7c-0.5,15.3-1.9,36.1-4.3,62.6
		c-5.6,62.1-15.7,123.8-30.2,185c-7.8,33.1-16.9,64.8-27.1,94.9c-14.7,43.4-32.9,86.3-54.8,128.8c-11.9,23.1-25.2,44.8-40,64.9
		c-7.6,10.3-16,20.1-25.2,29.4c-0.5,0.5-1.1,0.6-1.7,0.2c-0.4-0.2-0.9-0.7-1.4-1.5c-57.5-80.1-99.1-167.7-124.9-263
		c-21.3-78.7-35.4-159.1-42.3-241.2c-0.5-6.4-1.2-17.4-2-33.3c0-0.4-0.4-5.4-1.1-15c-0.4-5-0.5-10-0.3-15.1l-0.8-37.6V1870l0.7-9.4
		c-0.1-2.7,0.2-5.4,0.7-8.1c0.8-3.9,1.2-6.5,1.1-7.9c-0.1-4.7,0.1-9.6,0.6-14.8c0.2-1.9,1.9-3.4,3.8-3.2c0,0,0,0,0,0l27.1,2.8
		c6.4,1.4,12.7,1.6,19.1,0.7c1.4-0.3,2.6-0.2,3.3,0.4c0.6,0.4,0.9,1.3,1,2.7c0.2,9.8,0.3,19.5,0.1,29.2c-0.6,4.4-0.5,8.7,0.3,13
		c1,29.9,2.6,63.5,4.9,100.9c4.2,68.4,12.9,134.1,26.2,197c17.1,80.9,45,157.8,83.6,230.8c0.7,1.2,1.3,2.3,1.9,3
		c0.6,0.8,1.8,0.9,2.6,0.3c0.1-0.1,0.3-0.3,0.4-0.4c2.3-3.4,4.8-7.8,7.4-13c48.5-98.1,81.5-200.9,99.1-308.5
		c1.9-11.6,3.5-22.3,4.7-32c10-79.5,15.7-158.8,17.2-237.9c0.1-2.7,1.5-4.1,4.3-4.1c39.3-0.1,106.3-0.1,201.3-0.1
		c11.9,0,22.6-0.2,32.3-0.7c16.2-0.8,34.3-1.6,54.3-2.5c6.8-0.3,18.1-0.1,33.9,0.5c2.8,0.1,4.3,1,4.7,3.9c2.2,14.3,3,30.1,2.2,47.4
		c-0.1,2.2-0.3,3.7-0.5,4.5c-0.2,0.5-0.5,0.9-1,1c-1.9,0.5-3.3,0.8-4.2,0.8C570.6,1866.1,503,1866.2,435.4,1866.6z"/>
	<path class="st9" d="M58.3,1830.1c-6.4,0.9-12.8,0.7-19.1-0.7L58.3,1830.1z"/>
	<path class="st9" d="M1249.6,1841.2c-57.5,1-115,1.1-172.5,0.4c-1,0-1.8,0.8-1.8,1.8c0,0,0,0,0,0l-0.7,53.5
		c-1.1-17.6-1.2-35.2-0.5-52.9c0.1-1.7,1.5-3.1,3.3-3.1L1249.6,1841.2z"/>
	<path class="st6" d="M1074.6,1896.9l0.7-53.5c0-1,0.8-1.8,1.8-1.8c0,0,0,0,0,0c57.4,0.7,114.9,0.5,172.5-0.4c1.9-0.6,2.8,0.4,2.9,3
		c0.3,17.5,0.4,34.9,0.2,52.2c0,1.6-0.9,2.5-2.5,2.6c-4.7,0.2-9.7,0.3-15.1,0.3c-28.2,0-80.3,0.1-156.2,0.3
		C1075.6,1899.5,1074.2,1898.6,1074.6,1896.9z"/>
	<path class="st6" d="M5.5,1855.6l-0.1-4.1C5.9,1853.1,5.9,1854.5,5.5,1855.6z"/>
	<path class="st9" d="M62.8,1862.3l0.3,13C62.2,1871.1,62.1,1866.7,62.8,1862.3z"/>
	<path class="st9" d="M435.4,1866.6l-28.6,0.7C416.9,1865,426.4,1864.7,435.4,1866.6z"/>
	<path class="st9" d="M398.5,1867.8l-7.7,0.5C393.3,1867.5,395.9,1867.3,398.5,1867.8z"/>
	<path class="st9" d="M362.9,1873.6l-0.4,21.4C361.9,1887.9,362,1880.7,362.9,1873.6z"/>
	<path class="st6" d="M587.9,2203.3c0.7,3.6,1.4,3.6,2,0c1.7-10.2,3.5-23.1,5.2-38.7c2.4-21.4,4.2-43.4,5.6-66.1
		c0.7-11.2,1.1-22,1.2-32.3c0.3-27.6,0.3-54,0-79.2c0-2.2,1-3.3,3.2-3.5l51.3-3.4c0.8-0.1,1.2,0.3,1.2,1.1c0.2,25.8,0.3,48.8,0,68.8
		c0,2.4-0.3,8.2-0.7,17.5c-0.4,7.9,0,16.3-0.5,23.4c-2.7,42.7-5.1,72.5-7.1,89.4c-3.7,30.5-7.9,59.8-12.8,87.7
		c-13,74.5-32,148.1-57.1,220.6c-0.2,0.5-0.8,0.8-1.3,0.6l-49.5-18.4c-0.5-0.2-0.8-0.7-0.6-1.3c16.3-51.8,30-102.9,41.3-153.3
		c1-4.6,2.9-13.2,5.5-25.9c0.4-2.2-0.4-3.5-2.6-3.9l-30.2-5.9c-0.2,0-0.5-0.2-0.6-0.4c-1-1.1-1.7-2.6-2.1-4.5
		c-5.4-26.6-10.5-59.3-15.3-98.1c-1.3-10.7-2.2-21-2.7-30.9c-0.6-12.3-0.9-22.7-0.9-31.1c0-13.5-0.1-23.1-0.1-28.7
		c-0.1-22.4,1.4-44.4,4.4-66.1c1.9-13.8,3.7-24.4,5.2-31.9c7.7-37.9,23.2-72.2,46.7-103c3.4-4.5,7.3-5,11.6-1.6
		c6.3,5.1,15.1,12.3,26.2,21.8c2.1,1.7,3.7,3.4,5,4.9c0.3,0.4,0.5,0.9,0.4,1.4c-0.2,1.9-0.6,3.4-1.2,4.6
		c-7.5,14.6-14.3,29.4-20.4,44.6c-0.7,1.7-2.8,8-6.4,18.8c-2.4,7.2-4.1,13.5-5.3,19.1c-4.3,20.3-6.9,36-7.8,47.1
		C574.6,2098.8,577.7,2150.9,587.9,2203.3z"/>
	<path class="st6" d="M763.3,2213.3c1,0.7,2.3,0.5,3-0.4c0.2-0.3,0.4-0.6,0.4-1c5.9-42.5,9.8-83.6,11.7-123.3
		c1.5-30.3,2.1-62.9,1.8-97.6c0-1.1,0.8-2,2-2.1c16.2-1.2,31.4-2.2,45.5-3c2.3-0.1,4.4-0.1,6.2,0.1c0.6,0.1,0.9,0.4,1,1
		c0.1,1.2,0.2,3.1,0.2,5.9c0.1,22.7,0.1,51.3,0,85.9c0,10.2-1.2,29.3-3.5,57.3c-10.1,122.6-34.9,241.9-74.4,357.8
		c-0.3,0.8-1.2,1.3-2,1c0,0,0,0-0.1,0c-21.9-8.3-36.5-13.7-43.7-16.1c-1.9-0.6-3.7-1.5-5.4-2.6c-0.5-0.3-0.6-0.7-0.5-1.2
		c18.3-58.6,33.5-116.2,45.6-172.5c0.6-3,0.1-5.7-1.7-8.1c-9.5-12.7-18.3-25.6-26.5-38.6c-19.7-31.2-34.9-63.8-45.5-97.9
		c-1.6-5-3.7-13.6-6.5-25.7c-2.5-11-4.1-19.8-4.8-26.2c-2.6-23.1-2.2-46,1.2-68.8c3.9-26,13.9-49.3,30.1-70
		c27.1-34.7,66.5-58.3,108.7-71.2c2.2-0.7,3.9-1,5.2-1c0.6,0,1,0.4,1.2,0.9l14.3,46.9c0.2,0.6,0,1-0.6,1.2
		c-8.7,2.7-15.8,5.2-21.3,7.3c-20.8,8.1-40.9,20.5-55.2,37c-12.3,14.2-20.9,30.5-25.8,49c-8.7,32.6-6.9,66.2,2.9,98.7
		c7.2,23.7,17.3,46.6,30.5,68.9C759,2208,760.3,2211.1,763.3,2213.3z"/>
	<path class="st9" d="M361.4,1929.4l-0.2,4.7C361,1932.5,361.1,1931,361.4,1929.4z"/>
	<path class="st9" d="M946.5,1964.5l-0.2,3.3C945.6,1966.9,945.7,1965.8,946.5,1964.5z"/>
	<path class="st6" d="M515.8,1983.5c-0.3,6.7-0.5,30.5-0.4,71.3c0,3.5-0.8,7.4-0.9,10.3c-0.6,34.6-2.6,67.8-6,99.4
		c-1,9.8-2.4,21.7-4.1,35.9c-7,58.5-18.6,119.5-34.8,182.9c-8.9,34.8-19.8,70.7-32.6,107.6c-0.3,0.9-1.3,1.3-2.1,1c0,0,0,0,0,0
		l-48.2-17.9c-1-0.4-1.5-1.5-1.2-2.5c15.2-46.6,28.2-93.9,39-141.7c17.1-76,28.3-153.1,33.6-231.2c0.6-8.5,1.1-19.3,1.6-32.3
		c1-25.9,1.5-51.9,1.4-78.1c0-1.2,0.6-1.9,1.8-2l52.1-3.4C515.6,1982.7,515.8,1983,515.8,1983.5z"/>
	<path class="st6" d="M1059.9,2398.6c-0.8,1.2-1.2,2.5-1.3,3.8c-0.2,0.2-0.4,0.3-0.6,0.6c-0.2,0.2-0.3,0.4-0.4,0.7
		c-8,26.4-16.2,52.8-24.4,79.1c-1.8,5.7-5.5,7.5-11.1,5.5c-6-2.1-11.7-3.7-17.3-5l-21.8-8.6c-2.5-1-3.3-2.7-2.6-5.3
		c3.6-11.9,7.3-24.1,11.1-36.6c22.1-72.5,38.5-147,49.3-223.7c2.7-19.1,5.5-42.8,8.3-71.2c1.2-11.6,2.1-22.3,2.7-32.2
		c2.5-38.5,3.8-77.8,3.7-118c0-0.8,0.6-1.5,1.5-1.6l52.5-3.4c1.3-0.1,2,0.5,2,1.9c-0.3,13.3-0.9,38.6-1.9,75.9
		c-0.3,12-0.7,22.8-1.3,32.3c-2.4,42.4-5.5,77.8-9.2,106.2c-5.8,44.1-10.3,73.1-13.5,87.2c-2.4,10.6-4.8,22.6-7.2,35.9
		C1075.8,2336.5,1069.7,2362,1059.9,2398.6z"/>
	<path class="st6" d="M959.4,2446.4c-1.4,2.2-2.1,4.7-2.2,7.5c-3.2,10.5-6.7,21-10.5,31.4c-0.9,2.4-1.8,4.2-2.8,5.3
		c-0.4,0.4-0.8,0.6-1.4,0.6c-2,0.1-3.9-0.2-5.5-0.8c-8.8-3.4-19.1-7.2-31-11.4c-3.7-1.3-7.5-2.8-11.4-4.6c-0.5-0.2-0.8-0.6-0.9-1.2
		c-0.3-1.7-0.1-3.4,0.5-5.1c50.5-154.8,75.3-314.3,74.5-478.5c0-1.9,1.5-3.4,3.4-3.5l21.6-0.9c4.4,0.6,8.9,0.5,13.4-0.4
		c3.8-0.3,7.8-0.4,11.8-0.3c3.4,0.1,5.1,1.7,5.1,4.9c0.6,37.9-0.2,75.8-2.6,113.7c-0.6,9.8-1.6,23.2-3.1,40.3
		C1009.3,2246.4,989.7,2347.5,959.4,2446.4z"/>
	<path class="st9" d="M1006.9,1984.8c-4.5,0.9-8.9,1-13.4,0.4L1006.9,1984.8z"/>
	<path class="st6" d="M373.7,2019.8c0.9-6.2,0.8-12.4,0-18.5l-0.3-14.9c0-0.4,0.2-0.6,0.5-0.6h52.9c0.6,0,1,0.5,1,1
		c2.2,106.7-6.9,211.5-27.3,314.5c-12.4,62.8-29.3,126.4-50.8,191c-0.3,0.9-1.3,1.4-2.2,1.1c0,0,0,0-0.1,0l-48.6-18.1
		c-0.8-0.3-1.2-1.1-0.9-1.9c16-51.8,29.9-104,41.9-156.4c2.4-10.7,4.7-21.2,6.6-31.6c8.3-43.7,14.6-86.3,18.7-127.9
		C369.6,2113.1,372.4,2067.1,373.7,2019.8z"/>
	<path class="st6" d="M1165.3,2282.2c-0.2,0.3-0.4,0.7-0.3,1.2c-0.2,0.8-0.3,1.6-0.3,2.5c-0.6,0.4-0.9,1-1.1,1.7
		c-6.8,30.2-14.6,66.3-23.4,108.1c-9.2,31.5-18.7,63.1-28.3,94.8c-1.2,4-1.9,6.1-1.9,6.2c-0.9,1.7-2.4,2.6-4.5,2.7
		c-1.2,0.1-2.8-0.3-4.8-1.1c-13.1-5-26-10.1-38.7-15.1l-1.8-1.9c-1-1-1.3-2.4-0.9-3.7c5.9-18.3,11.1-36.8,15.7-55.4
		c2-8.1,3.3-14.1,3.8-17.9c37.9-133.6,55.4-269.8,52.7-408.5c0-0.6,0.5-1.2,1.1-1.2l53.2-3.5c0.6,0,1.1,0.4,1.1,0.9c0,0,0,0,0,0
		c0.7,10.1,0.9,20.7,0.8,31.7c-0.3,32.7-1.8,69.5-4.4,110.4C1180.6,2176.8,1174.6,2226.2,1165.3,2282.2z"/>
	<path class="st6" d="M1260.8,2212.8l-16.2,92.4c-0.3,0.3-0.4,0.8,0,1.4c-4.7,23.2-9.8,46.2-15.4,69.2
		c-10.2,41.6-22,81.2-35.2,118.6c-0.5,1.4-1,2.6-1.5,3.6c-0.6,1.3-2.1,1.9-3.4,1.4c-17.9-6.4-31.4-11.3-40.3-14.7
		c-1.9-0.7-3.8-1.6-5.5-2.7c-0.4-0.3-0.7-0.7-0.8-1.2c-0.3-2-0.3-3.4-0.1-4.2c1.8-6.7,4.6-17.1,8.6-31.2c5.7-19.9,11.5-39.9,17.5-60
		l23.4-108c6.4-33.3,10.9-61.6,13.6-85c6-52.9,9.8-103.4,11.2-151.2c0.3-9,0.4-23.9,0.3-44.6c0-1,0.8-1.9,1.8-2l51.4-3.4
		c0.9-0.1,1.4,0.4,1.4,1.3c0.4,27.9,0,57-1.4,87.4c-0.6,14.3-1.7,34-3.2,59.1c-0.6,10.4-1.5,21.1-2.5,32.1
		C1263.2,2184.8,1262,2198.8,1260.8,2212.8z"/>
	<path class="st9" d="M373.7,2019.8l0-18.5C374.5,2007.4,374.6,2013.6,373.7,2019.8z"/>
	<path class="st7" d="M1191.9,2277.1l-23.4,108c-6.6-1.5-11.6,0.2-15.1,5c-2.7,3.8-5.8,2.6-9.4,3.9c-1.2,0.4-2.5,1-3.9,1.6
		c8.8-41.9,16.6-77.9,23.4-108.1c0.2-0.7,0.5-1.3,1.1-1.7c1.1,1.6,2.5,2.5,4.2,2.8c1.3,0.2,2.7-0.3,4.3-1.4
		C1178.9,2283.1,1185.1,2279.8,1191.9,2277.1z"/>
	<path class="st8" d="M1165.3,2282.2l-0.3,1.2C1164.9,2282.9,1165,2282.5,1165.3,2282.2z"/>
	<path class="st10" d="M1244.6,2305.2c0.2,0.1,0.3,0.2,0.4,0.4c0,0.4-0.2,0.8-0.4,1C1244.2,2305.9,1244.2,2305.5,1244.6,2305.2z"/>
	<path class="st8" d="M1059.9,2398.6l-1,4c-0.1-0.1-0.2-0.1-0.3-0.2C1058.7,2401.2,1059.1,2399.9,1059.9,2398.6z"/>
	<path class="st7" d="M1058.6,2402.5c0.1,0.1,0.2,0.1,0.3,0.2c1.7,2.7,4.3,4.2,7.8,4.4c4.4,0.3,7.2,0.3,8.4,0.1
		c1.1-0.2,2.3-1.2,3.7-3c-0.5,3.9-1.8,9.9-3.8,17.9c-4.6,18.6-9.9,37.1-15.7,55.4c-0.4,1.3-0.1,2.8,0.9,3.7l1.8,1.9
		c-20.9,10.4-37.2,21-49.2,31.7c-15.3,13.8-31.1,27.2-47.1,40.1c-8.8,7.1-23.2,19.8-43,38.1c-4,3.6-11.4,9.1-22.2,16.5
		c-0.4-8-0.5-14.7-0.2-20.1c0-0.6,0.4-1,1-1c1.5,0.6,2.9,0.6,4.1,0.1c0.5-0.2,0.8-0.6,0.9-1.1c0.6-4.2,1.9-7.6,3.8-10.2
		c6.5-8.8,15.4-19.4,26.7-31.9c19.2-21.2,34.8-37.3,46.8-48.5c4.8-4.4,11.9-8.9,21.4-13.4c5.6,1.3,11.4,2.9,17.3,5
		c5.7,2,9.4,0.1,11.1-5.5c8.2-26.3,16.4-52.7,24.4-79.1c0.1-0.3,0.2-0.5,0.4-0.7C1058.2,2402.8,1058.4,2402.6,1058.6,2402.5z"/>
	<path class="st9" d="M959.4,2446.4l-2.2,7.5C957.2,2451.1,958,2448.6,959.4,2446.4z"/>
	<path class="st6" d="M901.1,2588.4c-0.6,0-0.9,0.4-1,1c-0.3,5.4-0.2,12.1,0.2,20.1c0.2,10.9,0.4,21.6,0.7,32.3
		c0.1,2.1-0.4,4-1.2,5.7c-0.2,0.5-0.6,0.8-1.1,1c-2.5,1-5.4,1.5-8.8,1.5c-13.3,0.1-23.6,0.1-30.7-0.1c-3.7-0.1-6.5-0.3-8.5-0.7
		c-1.9-0.4-3.2-1.3-4-2.6c-0.8-1.4-1.2-3.1-1.3-5.2c-0.3-19.9-0.4-39.9-0.2-59.8l0.1-14.7c-0.3-2.8,0-5.5,0.9-8.1
		c0.2-0.5,0.5-0.9,1-1.2c1.8-0.9,3.8-1.4,5.9-1.5c14.5-0.2,27.4-0.2,38.8-0.1c4.8,0.1,9.9,0.1,9.5,6.8c-0.5,8.8-0.8,16.9-0.8,24.2
		C900.6,2587.4,900.8,2587.8,901.1,2588.4z"/>
	<path class="st9" d="M845.2,2581.7l0.1-14.7L845.2,2581.7z"/>
	<path class="st6" d="M3494.6,2732c0,4.2,0,8.2-0.1,12c0,1.3,0,1.3-0.1,0c-0.1-3.8-0.1-7.8-0.1-12
		C3494.4,2731.9,3494.5,2732,3494.6,2732z"/>
	
		<ellipse transform="matrix(1.745302e-03 -1 1 1.745302e-03 741.6917 6236.4282)" class="st6" cx="3494.5" cy="2746.7" rx="1.8" ry="0.1"/>
</g>
</svg>
