<?xml version="1.0" encoding="UTF-8"?>
<svg id="Layer_01" data-name="Layer 01" xmlns="http://www.w3.org/2000/svg" version="1.1" viewBox="0 0 3500 3500">
  <defs>
    <style>
      .cls-1 {
        fill: #12a3aa;
      }

      .cls-1, .cls-2, .cls-3, .cls-4 {
        stroke-width: 0px;
      }

      .cls-2 {
        fill: #fff;
      }

      .cls-3 {
        fill: #0ac405;
      }

      .cls-4 {
        fill: #fefefe;
      }
    </style>
  </defs>
  <path class="cls-1" d="M341.09,1310.05v555.39c73.65,0,144.28-29.26,196.36-81.33,52.08-52.08,81.34-122.71,81.34-196.37s-29.26-144.28-81.33-196.36c-52.08-52.08-122.71-81.34-196.37-81.34Z"/>
  <path class="cls-1" d="M277.7,1622.12v555.39c-73.65,0-144.28-29.26-196.36-81.33C29.26,2044.1,0,1973.47,0,1899.81s29.26-144.28,81.33-196.36c52.08-52.08,122.71-81.34,196.37-81.34Z"/>
  <path class="cls-3" d="M248.05,1542.38c23.53-28.56,34.7-65.15,31.13-101.98-3.56-36.83-21.53-70.61-50.1-94.13-28.56-23.53-65.15-34.7-101.98-31.13-36.83,3.56-70.61,21.53-94.13,50.1-23.53,28.56-34.7,65.15-31.13,101.98,3.56,36.83,21.53,70.61,50.1,94.13,28.56,23.53,65.15,34.7,101.98,31.13,36.83-3.56,70.61-21.53,94.13-50.1Z"/>
  <g>
    <path class="cls-4" d="M3288.7,2018.13c-.02-5.27-1.1-10.48-3.73-15.04l-50.46-87.4c-.08.13-.15.26-.23.39-4.61-8.39-9.3-16.72-14-25.03l-16.35-28.33.07-.04c-34.01-58.43-69.74-115.19-105.02-171.79-1.56-2.51-4.31-4.03-7.26-4.03h-115.65c-6.78,0-10.81,7.58-7.01,13.2h0c66.8,98.69,133.58,197.4,200.54,295.98,4.23,6.22,5.97,12.44,5.94,19.88-.2,51.97-.13,103.95-.06,155.92,0,1.92.11,3.84.27,5.79.35,4.48,4.06,7.96,8.55,7.96h49.47c30.3,0,55.1-24.79,55.1-55.1v-43.41c0-51.26.14-17.62-.15-68.88,0-.03,0-.05,0-.08Z"/>
    <path class="cls-4" d="M3369.87,1690.26c-40.72,67.82-81.45,135.65-122.8,204.5-1.22,2.03-1.24,4.56-.06,6.61l37.77,65.41c6.73,11.65,23.34,12.25,30.89,1.12,61.14-90.21,122.16-180.49,183.18-270.78l.06-.09c2.85-4.23-.18-9.92-5.28-9.92h-118.2c-2.28,0-4.39,1.19-5.56,3.14Z"/>
  </g>
  <path class="cls-2" d="M1770.49,1777.54c30.99,46.44,60.44,96.16,89.68,144.34,5.89,9.43,8.99,19.87,9.66,31.05,1.92,55.49.72,110.93.69,166.5,3.21,54.3-47.56,70.9-93.06,65.45-14.57-1.05-11.02-18.76-11.53-29.29-.16-120.71-.33-241.6-.42-362.35.04-4.72-.35-15.47,4.44-15.82l.53.13Z"/>
  <path class="cls-2" d="M1145.65,2181.23c-.86-1.94.37-5.13,1.46-7.34,5.15-10.56,9.88-20.33,14.56-29.55,18.23-37.57,44.29-72.16,71.92-103.34,31.01-34.99,73.92-57.53,119.16-67.99,28.38-8.89,58.75-5.72,88.18-6.46,36.15-.92,72.6,8.05,105.05,23.76,35.11,17,61.01,42.16,85.3,72.17,27.07,33.43,50.04,68.4,67.54,108.35,6.26,13.2-6.74,13.15-16.37,13.23-20.95.2-41.66,1.19-62.77-1.11-24.6-2.37-45.38-17.55-57.99-38.59-28.57-43.23-74.01-65.81-125.05-68.39-52.56-5.91-108.01,13.54-141.31,55.31-8.91,11.21-17.79,22.25-27.33,32.96-9.98,11.77-24.52,17.52-39.45,18.73-23.63,2.03-47.3,1.01-74.25.82-2.8.01-6.97-.16-8.35-2.02l-.31-.52Z"/>
  <path class="cls-2" d="M1565.11,1877.67c-1.91-4.28-3.7-8.62-5.37-13.02l-19-46.07c-15.39-35.42-31.8-70.59-46.54-106.38-6.41-18.53-16.54-26.64-36.3-25.18-21.9.22-43.31.09-65.38.04-12.35.39-26.59-1.79-32.76,11.93-5.44,12.13-10.78,24.36-16.05,36.63l-15.39,36.48c-10.77,25.91-21.29,51.87-31.68,77.54-1.59,4.56-3.85,8.69-6.39,12.68l-61.77,146.39c1.56-1.06,3.51-2.72,5.91-5.08,26.17-24.55,59.37-37.02,92.43-49.1,56.38-14.37,67.87-95.16,89.96-141.2,3.86-9.19,8.52-9.92,12.21-.27,13.5,32.49,25.37,66.36,39.71,99,10.07,23.13,32.12,37.08,55.26,44.87,29.99,10.08,59.15,21.29,82.84,42.52,3.58,2.68,8.17,8.14,12.54,9.63l-54.21-131.41Z"/>
  <path class="cls-2" d="M984.45,1682.75c55.77.13,111.52-.03,167.52.07,9.26.22,21.83-.9,21.75,12.27.42,2.77.31,8.35.32,10.41-.96,11.72,1.66,23.77-2.64,34.92-8.02,19.13-29.89,35.81-51.67,34.06-58.16-.77-116.61-.18-174.81-.08-11.55,1.11-31.46-4.32-34.56,11.22-3.07,32.87-2.99,55.34-38.24,70.35-21.28,9-44.7,6.23-67.28,5.8-10.67.17-15.03-6.79-14.41-17.02-.09-44.45-.17-89.36-.15-134.1.18-14.1-1.57-28.35,17.37-27.68,58.64-.65,117.28-.17,175.82-.2h.98Z"/>
  <circle class="cls-3" cx="1116.29" cy="1931.67" r="67.13"/>
  <path class="cls-2" d="M2442.73,1951.03c.13-53.37.28-107.4.09-160.99-.92-36.99-1.5-81.93,34.19-102.07,18.66-8.66,41.26-5.4,61.31-5.26,17.4.8,25.8,11.3,26.05,27.94.41,126.71-.25,253.72.46,380.58-.36,61.73-14.26,100.86-84.66,94.52-25.25,1.09-38.38-8.85-37.35-35.1-.35-66.24-.13-132.12-.09-198.07v-1.57Z"/>
  <path class="cls-2" d="M909.51,2073.02c-.2-10.14-.08-20.24,0-30.37v-6.05c0-3.6.01-7.2-.06-10.83-.33-7.98.71-19.88-9.55-21.48-24.6-3.02-51.41-2.22-74.09,7.12-30.06,13.73-38.34,51.99-36.28,82.34.45,28.29-.95,56.43.69,84.75.84,13.61,15.69,10.85,25.6,11.46,31.28.01,62.47,0,93.69-.01v-116.92Z"/>
  <path class="cls-2" d="M1018.69,1931.67c0-15.98,3.92-31.02,10.73-44.33-58.66-.15-117.3.27-175.93.24-8.89-.12-17.87.96-25.53,5.86-24.78,15.15-38.22,37.25-37.36,66.76.2,4.12.42,9.17,3.26,12.12,7.11,5.25,18.13,3.03,26.66,3.62,36.23-.18,72.89.54,108.99-.33l.97-.06c30.72-1.09,61.84,0,92.68-.47,1.92-.04,3.87-.03,5.81-.02-6.51-13.08-10.27-27.78-10.27-43.39Z"/>
  <circle class="cls-3" cx="2045.95" cy="2033.4" r="67.13"/>
  <circle class="cls-3" cx="2737.13" cy="2096.84" r="66.53"/>
  <path class="cls-4" d="M2737.13,2000.11c20.51,0,39.5,6.43,55.15,17.31.36-2.63.61-5.3.61-8.04v-303.88c0-10.15-8.23-18.38-18.38-18.38h-34.03c-32.64,0-59.1,26.46-59.1,59.1v271.66c15.77-11.15,34.97-17.77,55.76-17.77Z"/>
  <path class="cls-4" d="M3036.21,2086.49h-202.91c.36,3.4.57,6.85.57,10.35,0,40.54-24.96,75.21-60.34,89.59h211.55c39.88,0,72.21-32.33,72.21-72.21v-6.66c0-11.64-9.43-21.07-21.07-21.07Z"/>
  <path class="cls-2" d="M2013.29,1941.52c-25.07-41.13-60.46-99.22-60.46-99.22-16.4-29.56-34.21-58.3-52.23-86.9-9.15-14.52-18.33-29.01-27.47-43.54-6.9-10.96-16.43-23.14-29.95-24.55-22.29-2.32-44.95-.51-67.4.48-8.78.35-10.13,9.1-9.93,16.16,2.55,35.05,30.5,60.6,48.11,88.87,35.47,63,72.44,125.33,112.54,185.55,7.91,13.32,15.47,26.9,23.05,40.47,5.39-35.97,30.34-65.45,63.74-77.32Z"/>
  <path class="cls-2" d="M2325.67,1700.97c-.48-7.71-2.83-12.12-10.23-13.07-10.09-1.27-20.78-.71-30.98-.88-29.12-1.03-57.18,2.5-71.94,30.31-10.53,19.83-24.34,38.44-35.6,57.96-11.01,19.1-21.21,38.45-32.3,57.52-21.38,36.72-44.46,72.2-66.05,108.7,0,0,0,0,0,0,11.74,4.17,22.44,10.49,31.62,18.53,0,0,0,0,0,0,2.96,2.59,5.75,5.37,8.37,8.3.15.17.3.33.45.5,5.32,6.01,9.92,12.66,13.64,19.85.03.05.05.1.07.15,1.75,3.4,3.27,6.92,4.62,10.53.17.45.33.9.5,1.35,1.31,3.69,2.45,7.47,3.32,11.35,0,0,0,0,0,0,19.89-35.21,40.77-69.86,61.57-104.55,1.79-3.02,4.31-7.24,7.11-8.49l.61-.24c6.23-1.12,6.88,9.85,6.92,14.88.62,60.85.69,122.25.99,183.21-4.23,65.35,27.21,91.21,91.18,86.88,10.95.6,15.98-3.88,16.12-15.14.31-155.7.8-312.11.03-467.66Z"/>
</svg>