<?xml version="1.0" encoding="utf-8"?>
<!-- Generator: Adobe Illustrator 27.7.0, SVG Export Plug-In . SVG Version: 6.00 Build 0)  -->
<svg version="1.1" id="Layer_1" xmlns="http://www.w3.org/2000/svg" xmlns:xlink="http://www.w3.org/1999/xlink" x="0px" y="0px"
	 viewBox="0 0 3500 3500" style="enable-background:new 0 0 3500 3500;" xml:space="preserve">
<style type="text/css">
	.st0{fill:#FCFFFA;}
	.st1{fill:#63BAB1;}
</style>
<g>
	<path class="st0" d="M3500,2251.3v844.5l0,0c-347.8,0-629.7-281.9-629.7-629.7v-251.6c0-318.3-203.1-611.1-510.1-695.4
		c-18.1-5-36.6-9.3-55.2-13c-15.5-3.1-31.8-5.4-48.1-7.8c-124.8-213.2-300.9-393.1-511-522.6c130.3-42.7,269.1-65.1,413.3-65.1
		s97.7,2.3,145.8,7.7c206.3,22.5,398.6,91.5,565.3,196.2C3248.7,1351,3500,1772.1,3500,2251.3z"/>
	<path class="st1" d="M2159.3,955.4c50.1,0,96.2,2.4,140.8,7.5l0,0l0,0c98.1,10.7,194.8,32.6,287.5,65
		c90.6,31.7,177.6,73.6,258.8,124.6l0,0l0,0c91.1,56.9,175,125.2,249.4,203c74.5,77.9,139.1,164.8,192.1,258.5
		c53.8,95.2,95.4,196.9,123.5,302.4c29,108.7,43.7,221.4,43.7,335v798c-63.2-4.7-124.5-19.6-182.9-44.3
		c-34.6-14.7-68.1-32.8-99.3-53.9c-31-20.9-60.1-45-86.6-71.4c-26.5-26.5-50.5-55.6-71.4-86.6c-21.1-31.3-39.3-64.7-53.9-99.3
		c-30.5-72.1-45.9-148.7-45.9-227.6v-251.6c0-347.1-223.3-650.8-543-738.6c-19.2-5.3-38.9-9.9-58.4-13.7c-9.7-1.9-19.5-3.6-29.1-5
		c-110.4-182.7-258.6-341.7-432.8-465.1c99.6-24.4,202.6-36.7,307.5-36.7 M2159.3,910.6c-144.2,0-283,22.5-413.3,65.1
		c210.1,129.5,386.2,309.4,511,522.6c16.3,2.3,32.6,4.6,48.1,7.8c18.7,3.7,37.1,8,55.2,13c306.9,84.3,510.1,377.1,510.1,695.4v251.6
		c0,347.8,281.9,629.7,629.7,629.7l0,0v-844.5c0-479.2-251.2-900.3-629.7-1136.8c-166.7-104.7-359-173.7-565.3-196.2
		C2257,912.9,2208.9,910.6,2159.3,910.6L2159.3,910.6z"/>
</g>
<g>
	<path class="st0" d="M2346.1,2251.3v844.5l0,0c-347.8,0-629.7-281.9-629.7-629.7v-354.8c0-118.3-39.6-233.3-112.5-326.5l-1.4-1.8
		c-110.1-141.1-269.1-241.2-451.3-276.8v1589.7l0,0c-347.8,0-629.7-281.9-629.7-629.7v-974H93c-80.9,0-123.3-97-68-156.1
		c136.9-146.6,306.2-262.2,496.5-335.5V404.2h138.1c271.5,0,491.5,220.1,491.5,491.5v22.6c160.5,17.8,312.5,63.6,451.3,132.6
		c38.8,19.4,77.5,40.3,114,63.6c157.4,98.5,293.1,228.8,397.8,382.3C2260,1711.6,2346.1,1972.1,2346.1,2251.3L2346.1,2251.3z"/>
	<path class="st1" d="M659.6,449c60.3,0,118.8,11.8,173.9,35.1c53.2,22.5,101,54.7,142,95.8c41,41,73.3,88.8,95.8,142
		c23.3,55,35.1,113.6,35.1,173.9v62.7l39.8,4.4c152.5,17,299.3,60.1,436.2,128.2c43.2,21.6,79.2,41.7,109.9,61.3h0.2
		c0,0.1,0.2,0.2,0.2,0.2c75.8,47.4,146.9,102.9,211.4,164.8c64.6,62,122.8,130.9,173.2,204.7l0,0
		c71.4,105.3,126.9,220.1,164.9,341.3c39.3,125.4,59.2,256,59.2,388v798c-63.2-4.7-124.5-19.6-182.9-44.3
		c-34.6-14.7-68.1-32.8-99.3-53.9c-31-20.9-60.1-45-86.6-71.4c-26.5-26.5-50.5-55.6-71.4-86.6c-21.1-31.3-39.3-64.7-53.9-99.3
		c-30.5-72.1-45.9-148.7-45.9-227.6v-354.8c0-127.7-43.3-253.5-122.1-354.1l-1.4-1.8c-118.6-152-288.3-256.1-478-293.2l-53.4-10.4
		v54.4v1543.2c-63.2-4.7-124.5-19.6-182.9-44.3c-34.6-14.7-68.1-32.8-99.3-53.9c-31-20.9-60.1-45-86.6-71.4
		c-26.5-26.5-50.5-55.6-71.4-86.6c-21.1-31.3-39.3-64.7-53.9-99.3c-30.5-72.1-45.9-148.7-45.9-227.6V1447.8H93
		c-10.2,0-19.3-2.7-27.1-8.2c-7.4-5.1-13.2-12.3-17-20.9c-3.7-8.5-5-17.7-3.7-26.5c1.4-9.3,5.6-17.8,12.5-25.2
		c66.2-70.9,140.5-134.4,220.6-188.7c81-54.9,168.2-100.5,259.2-135.6l28.7-11.1V449H659.6 M659.6,404.2H521.5v596.3
		c-190.3,73.3-359.6,189-496.5,335.5c-55.2,59.1-12.9,156.1,68,156.1h428.4v974c0,347.8,281.9,629.7,629.7,629.7l0,0V1506.1
		c182.2,35.7,341.2,135.7,451.3,276.8l1.4,1.8c72.9,93.2,112.5,208.1,112.5,326.5V2466c0,347.8,281.9,629.7,629.7,629.7l0,0v-844.5
		c0-279.2-86.1-539.7-231.9-754.5c-104.7-153.5-240.4-283.8-397.8-382.3c-36.4-23.3-75.2-44.2-114-63.6
		c-138.8-69-290.8-114.8-451.3-132.6v-22.6C1151,624.1,930.9,404.1,659.6,404.2L659.6,404.2L659.6,404.2z"/>
</g>
</svg>
