<?xml version="1.0" encoding="utf-8"?>
<!-- Generator: Adobe Illustrator 27.7.0, SVG Export Plug-In . SVG Version: 6.00 Build 0)  -->
<svg version="1.1" id="Layer_1" xmlns="http://www.w3.org/2000/svg" xmlns:xlink="http://www.w3.org/1999/xlink" x="0px" y="0px"
	 viewBox="0 0 3500 3500" style="enable-background:new 0 0 3500 3500;" xml:space="preserve">
<style type="text/css">
	.st0{fill:url(#SVGID_1_);}
	.st1{fill:url(#SVGID_00000146477009199301142850000015762891727939695536_);}
	.st2{fill:url(#SVGID_00000180368640827115823410000012585604919099645116_);}
	.st3{fill:url(#SVGID_00000103252907696980359760000018142683337146459266_);}
	.st4{fill:url(#SVGID_00000029739837434544447340000004403636172775114167_);}
	.st5{fill:url(#SVGID_00000005251443663082177310000000722925762052281021_);}
	.st6{fill:#7D7D7D;}
</style>
<linearGradient id="SVGID_1_" gradientUnits="userSpaceOnUse" x1="2786.6021" y1="-1994.751" x2="3246.4919" y2="-1084.101" gradientTransform="matrix(1 0 0 1 0 3001.5601)">
	<stop  offset="0" style="stop-color:#395A8F"/>
	<stop  offset="1" style="stop-color:#332C54"/>
</linearGradient>
<path class="st0" d="M3483.9,1749.8c-49.4-117.1-101.1-233.2-152.8-349.3c-36.5-81.8-75.1-162.7-112.2-244.3
	c-36.2-79.6-70.1-160.3-108-239c-25.8-53.5-65.5-95.9-120.5-121.4c-44.6-20.7-92.5-27.7-141-29.6c-57.9-2.3-111.5,11.5-160.4,44.5
	c-83.1,56.2-133.1,137.4-172.2,226.4c-13.5,30.8-25.3,62.4-37,94c26.2-5.9,76.4-14.7,123.3-8.4c67.5,9.2,169.7,36.1,244.9,246.2
	c3.9,11,6.9,22.8,9.1,35.1c20.9,46.9,41.4,94,62.5,140.8c55.2,122.8,110.2,245.8,166.2,368.3c46.1,100.9,136.2,144.1,242.6,125.2
	C3454.7,2015.9,3536.3,1873.9,3483.9,1749.8L3483.9,1749.8L3483.9,1749.8z"/>
<linearGradient id="SVGID_00000013903714554967148290000011521351041681093770_" gradientUnits="userSpaceOnUse" x1="2412.7417" y1="-1150.5393" x2="2669.9517" y2="-1737.3093" gradientTransform="matrix(1 0 0 1 0 3001.5601)">
	<stop  offset="0" style="stop-color:#395A8F"/>
	<stop  offset="1" style="stop-color:#35386A"/>
	<stop  offset="1" style="stop-color:#33366E"/>
</linearGradient>
<path style="fill:url(#SVGID_00000013903714554967148290000011521351041681093770_);" d="M2603.1,1122.8
	c-46.9-6.4-97.1,2.4-123.3,8.4c-8.1,21.9-16.2,43.8-24.8,65.4c-39,97.8-78.6,195.4-118.4,293c-31.9,78.4-64.3,156.7-96.9,234.8
	c-37.3,89.2-31.1,173.3,28,251.9c50.5,67.1,134.9,86,209.2,65.3c69.7-19.5,118.6-65.7,146.8-131.3c41.7-97.3,80.7-195.7,120.6-293.7
	c29.9-73.4,59.4-147,89.2-220.5c1.9-4.7,4.7-9.1,8.8-16.9c5,7.6,8.8,12,11.1,17c1.2,2.7,2.4,5.4,3.6,8.1
	c-2.2-12.4-5.2-24.2-9.1-35.1C2772.8,1158.9,2670.6,1132,2603.1,1122.8L2603.1,1122.8L2603.1,1122.8z"/>
<linearGradient id="SVGID_00000021089260203445290270000009294853128866000571_" gradientUnits="userSpaceOnUse" x1="5554.2583" y1="-1994.7391" x2="6014.1484" y2="-1084.0891" gradientTransform="matrix(-1 0 0 1 6267.6299 3001.5601)">
	<stop  offset="0" style="stop-color:#ECC935"/>
	<stop  offset="1" style="stop-color:#E68B28"/>
</linearGradient>
<path style="fill:url(#SVGID_00000021089260203445290270000009294853128866000571_);" d="M16.1,1749.8
	c49.3-117.1,101.1-233.2,152.8-349.3c36.5-81.8,75.1-162.7,112.2-244.3c36.2-79.6,70.1-160.3,108-239
	c25.8-53.5,65.5-95.9,120.5-121.4c44.7-20.7,92.6-27.7,141-29.6c57.9-2.3,111.5,11.5,160.4,44.5c83.1,56.2,133.1,137.4,172.2,226.4
	c13.5,30.8,25.3,62.4,37,94c-26.2-5.9-76.4-14.7-123.3-8.4c-67.5,9.2-169.7,36.1-244.9,246.2c-3.9,11-6.9,22.8-9.1,35.1
	c-20.9,46.9-41.4,94-62.5,140.8c-55.2,122.8-110.2,245.8-166.2,368.3c-46.1,100.9-136.2,144.1-242.6,125.2
	C45.3,2015.9-36.3,1873.9,16.1,1749.8L16.1,1749.8z"/>
<linearGradient id="SVGID_00000088135050990538899220000005095553060806986680_" gradientUnits="userSpaceOnUse" x1="5180.437" y1="-1150.5413" x2="5437.6074" y2="-1737.3113" gradientTransform="matrix(-1 0 0 1 6267.6299 3001.5601)">
	<stop  offset="0" style="stop-color:#EED83A"/>
	<stop  offset="1" style="stop-color:#F18329"/>
</linearGradient>
<path style="fill:url(#SVGID_00000088135050990538899220000005095553060806986680_);" d="M896.9,1122.8c46.9-6.4,97,2.4,123.3,8.4
	c8.1,21.9,16.2,43.8,24.8,65.4c39,97.8,78.6,195.4,118.4,293c31.9,78.4,64.3,156.7,96.9,234.8c37.3,89.2,31.2,173.3-28,251.9
	c-50.5,67.1-134.8,86-209.2,65.3c-69.7-19.5-118.7-65.7-146.8-131.3c-41.7-97.3-80.7-195.7-120.6-293.7
	c-29.9-73.4-59.4-147-89.2-220.5c-1.9-4.7-4.7-9.1-8.8-16.9c-5,7.6-8.8,12-11.1,17c-1.2,2.7-2.4,5.4-3.6,8.1
	c2.2-12.4,5.2-24.2,9.1-35.1C727.1,1158.9,829.3,1132,896.9,1122.8L896.9,1122.8L896.9,1122.8z"/>
<linearGradient id="SVGID_00000155130876618394887520000006701054826668854968_" gradientUnits="userSpaceOnUse" x1="5206.2764" y1="-2220.6931" x2="5666.166" y2="-1310.0431" gradientTransform="matrix(-1 0 0 -1 7042.1699 -412.11)">
	<stop  offset="0" style="stop-color:#D7184D"/>
	<stop  offset="1" style="stop-color:#841942"/>
</linearGradient>
<path style="fill:url(#SVGID_00000155130876618394887520000006701054826668854968_);" d="M1138.6,1065.7
	c49.3,117.1,101.1,233.2,152.8,349.3c36.5,81.8,75.1,162.7,112.2,244.3c36.2,79.6,70.1,160.3,108,239
	c25.8,53.5,65.5,95.9,120.5,121.4c44.6,20.7,92.5,27.7,141,29.6c57.9,2.3,111.5-11.5,160.4-44.6c83.1-56.2,133.1-137.4,172.2-226.4
	c13.5-30.8,25.3-62.4,37-94c-26.2,5.9-76.4,14.7-123.3,8.4c-67.5-9.2-169.7-36.1-244.9-246.2c-3.9-11-6.9-22.8-9.1-35.1
	c-20.9-46.9-41.4-94-62.5-140.8c-55.2-122.8-110.2-245.8-166.2-368.3C1490.6,801.3,1400.5,758,1294.1,777
	C1167.8,799.5,1086.2,941.5,1138.6,1065.7L1138.6,1065.7L1138.6,1065.7z"/>
<linearGradient id="SVGID_00000088104335349658678230000005832499126616794024_" gradientUnits="userSpaceOnUse" x1="4832.4038" y1="-1376.4927" x2="5089.6138" y2="-1963.2527" gradientTransform="matrix(-1 0 0 -1 7042.1699 -412.11)">
	<stop  offset="0" style="stop-color:#C31E51"/>
	<stop  offset="1" style="stop-color:#88163F"/>
	<stop  offset="1" style="stop-color:#33366E"/>
</linearGradient>
<path style="fill:url(#SVGID_00000088104335349658678230000005832499126616794024_);" d="M2019.4,1692.6
	c46.9,6.4,97.1-2.4,123.3-8.4c8.1-21.9,16.2-43.8,24.8-65.4c39-97.8,78.6-195.4,118.4-293c31.9-78.4,64.3-156.7,96.9-234.8
	c37.3-89.2,31.1-173.3-28-251.9c-50.5-67.1-134.9-86-209.2-65.3c-69.7,19.5-118.7,65.7-146.8,131.3
	c-41.7,97.3-80.7,195.7-120.6,293.7c-29.9,73.4-59.4,147-89.2,220.5c-1.9,4.7-4.7,9.1-8.8,16.9c-5-7.6-8.8-12-11.1-17
	c-1.2-2.7-2.4-5.4-3.6-8.1c2.2,12.4,5.2,24.2,9.1,35.1C1849.7,1656.5,1951.9,1683.4,2019.4,1692.6L2019.4,1692.6L2019.4,1692.6z"/>
<g>
	<path class="st6" d="M330.8,2586.1l54.6-4.8c2.6,21.9,8.6,39.8,18,53.8s24.1,25.4,44,34c19.9,8.6,42.2,13,67.1,13
		c22.1,0,41.6-3.3,58.5-9.8s29.5-15.6,37.7-27s12.4-23.9,12.4-37.4s-4-25.7-11.9-35.9c-8-10.2-21.1-18.8-39.4-25.8
		c-11.7-4.6-37.7-11.7-77.9-21.3c-40.2-9.6-68.3-18.7-84.4-27.3c-20.9-10.9-36.4-24.5-46.7-40.7c-10.2-16.2-15.4-34.4-15.4-54.4
		c0-22.1,6.3-42.7,18.8-61.9s30.8-33.8,54.9-43.7s50.8-14.9,80.2-14.9c32.4,0,61,5.2,85.8,15.7s43.8,25.8,57.1,46.1
		c13.3,20.3,20.5,43.2,21.5,68.9l-55.5,4.2c-3-27.6-13.1-48.5-30.3-62.6c-17.2-14.1-42.6-21.2-76.2-21.2s-60.5,6.4-76.5,19.2
		c-16,12.8-24,28.3-24,46.4c0,15.7,5.7,28.6,17,38.8c11.1,10.1,40.2,20.5,87.2,31.2c47,10.6,79.3,19.9,96.8,27.9
		c25.5,11.7,44.2,26.6,56.4,44.6c12.1,18,18.2,38.7,18.2,62.2s-6.7,45.2-20,65.8s-32.5,36.6-57.4,48c-25,11.4-53,17.1-84.3,17.1
		c-39.6,0-72.7-5.8-99.5-17.3c-26.8-11.5-47.7-28.9-62.9-52.1C339.5,2641.6,331.5,2615.4,330.8,2586.1L330.8,2586.1z"/>
	<path class="st6" d="M881.2,2726.6v-437.2h316.2v51.6H939.1v133.9H1181v51.3H939.1V2675h268.4v51.6L881.2,2726.6L881.2,2726.6z"/>
	<path class="st6" d="M1410.5,2726.6v-437.2h193.9c39,0,68.6,3.9,88.9,11.8c20.3,7.9,36.5,21.7,48.6,41.6
		c12.1,19.9,18.2,41.9,18.2,65.9c0,31-10,57.2-30.1,78.4c-20.1,21.3-51.1,34.8-93.1,40.6c15.3,7.4,26.9,14.6,34.9,21.8
		c16.9,15.5,32.9,34.9,48,58.2l76.1,119h-72.8l-57.9-91c-16.9-26.2-30.8-46.3-41.8-60.2c-10.9-13.9-20.7-23.7-29.4-29.2
		c-8.7-5.6-17.4-9.4-26.4-11.6c-6.6-1.4-17.3-2.1-32.2-2.1h-67.1v194.2H1410.5L1410.5,2726.6z M1468.4,2482.3h124.4
		c26.4,0,47.1-2.7,62-8.2c14.9-5.5,26.2-14.2,34-26.2c7.8-12,11.6-25.1,11.6-39.2c0-20.7-7.5-37.7-22.5-51c-15-13.3-38.7-20-71.1-20
		h-138.4V2482.3L1468.4,2482.3z"/>
	<path class="st6" d="M1982.8,2726.6v-437.2h57.9v437.2H1982.8z"/>
	<path class="st6" d="M2266,2726.6v-437.2h316.1v51.6h-258.3v133.9h241.9v51.3h-241.9V2675h268.4v51.6L2266,2726.6L2266,2726.6z"/>
	<path class="st6" d="M2774.7,2586.1l54.6-4.8c2.6,21.9,8.6,39.8,18,53.8s24.1,25.4,44,34s42.2,13,67.1,13c22.1,0,41.6-3.3,58.5-9.8
		s29.5-15.6,37.7-27s12.4-23.9,12.4-37.4s-4-25.7-11.9-35.9c-8-10.2-21.1-18.8-39.4-25.8c-11.7-4.6-37.7-11.7-77.9-21.3
		c-40.2-9.6-68.3-18.7-84.4-27.3c-20.9-10.9-36.4-24.5-46.7-40.7c-10.2-16.2-15.4-34.4-15.4-54.4c0-22.1,6.3-42.7,18.8-61.9
		s30.8-33.8,54.9-43.7c24.1-9.9,50.8-14.9,80.2-14.9c32.4,0,61,5.2,85.8,15.7c24.8,10.4,43.8,25.8,57.1,46.1
		c13.3,20.3,20.5,43.2,21.5,68.9l-55.5,4.2c-3-27.6-13.1-48.5-30.3-62.6c-17.2-14.1-42.6-21.2-76.2-21.2s-60.5,6.4-76.5,19.2
		c-16,12.8-24,28.3-24,46.4c0,15.7,5.7,28.6,17,38.8c11.1,10.1,40.2,20.5,87.2,31.2c47,10.6,79.3,19.9,96.8,27.9
		c25.4,11.7,44.2,26.6,56.4,44.6c12.1,18,18.2,38.7,18.2,62.2s-6.7,45.2-20,65.8c-13.3,20.6-32.5,36.6-57.4,48s-53,17.1-84.3,17.1
		c-39.6,0-72.7-5.8-99.5-17.3c-26.8-11.5-47.7-28.9-62.9-52.1C2783.5,2641.6,2775.5,2615.4,2774.7,2586.1L2774.7,2586.1z"/>
</g>
</svg>
