<?xml version="1.0" encoding="utf-8"?>
<!-- Generator: Adobe Illustrator 27.7.0, SVG Export Plug-In . SVG Version: 6.00 Build 0)  -->
<svg version="1.1" id="Layer_1" xmlns="http://www.w3.org/2000/svg" xmlns:xlink="http://www.w3.org/1999/xlink" x="0px" y="0px"
	 viewBox="0 0 3500 3500" style="enable-background:new 0 0 3500 3500;" xml:space="preserve">
<style type="text/css">
	.st0{fill:#001F60;}
	.st1{fill:#093A69;}
	.st2{fill:#AD3030;}
	.st3{fill:#FFFFFF;}
	.st4{fill:url(#SVGID_1_);}
	.st5{fill:url(#SVGID_00000138561118149274863920000004695174810501332378_);}
	.st6{fill:#D50000;}
	.st7{fill:url(#SVGID_00000049196990278309868510000012913431740555328917_);}
</style>
<g>
	<path class="st0" d="M1463.4,398.7c20.6-47.9,36.4-89.3,56.3-128.6c6.2-12.2,23-26.7,35.1-26.9c127.4-1.9,254.8-1.2,393.5-1.2
		c-21.7,64.9-26.8,126.1-69.5,171c-25.2,26.5-27.8,54-17.3,83.3c23.2,65.3,49.7,129.4,79.2,205.1c35-63.7,60.6-119.8,66.3-181.4
		c5.5-59-22.6-103.3-82.4-121.4c3.6-15.3,5.1-24.3,7.9-32.8c41.2-124.1,41.3-124.1,168.3-124.1c58.2,0,116.4-0.1,174.6,0.1
		c4.5,0,8.9,1.9,21.2,4.7c-10.2,56.7-37.7,107.1-60.1,158.8c-69.4,160.5-140.1,320.3-188.6,489c-27.4,95.5-28.2,94.9-124.4,98.4
		c-30.2,1.1-60.2,5.7-90.4,7c-64.3,2.9-76.8-5.2-93.3-67.3c-36-135.8-81.9-267.6-149.7-391.1
		C1559.8,486.1,1529.2,431.3,1463.4,398.7z"/>
	<path class="st0" d="M1015.5,404.8c-28.9-5.4-55.8-10.5-90.1-16.9c16.2-43,29.4-81.8,45.9-119.2c5-11.3,17.3-22.6,28.9-27.3
		c63.8-25.5,99.7-75.7,119.3-137.7c11.1-35.1,30.6-53.6,65-63.4c35.4-10,69.4-25,110.6-40.3c31.5,76.7,3,155.7,22.2,237
		c56.5,2.6,113.5,5.1,174.2,7.9c-2.7,12.7-4.2,21.2-6.3,29.5c-31,118.3-31,118.3-148.4,126.1c-4.5,0.3-8.8,2.6-17.5,5.4
		c-2.8,10.5-9,23.3-9.2,36.2c-0.8,79.4-1.9,158.9,0.3,238.2c2.2,79.9,37.7,108.4,116.8,97.6c22.2-3,44-8.7,71.1-14.1
		c-6,73.5-43.6,131.1-66.2,193.5c-3.7,10.3-20.5,19.3-32.9,22.3c-75,18.2-150.5,29.5-227.8,12.2c-67.7-15.1-112.6-55.8-130.2-122.1
		c-10.6-40.1-17.1-82.3-17.8-123.8c-2-102.6,0.7-205.3,0.6-307.9C1024,427,1018.5,416,1015.5,404.8z"/>
	<path class="st1" d="M2370.3,2260.4c0,344.3-280.2,624.6-624.6,624.6c-344.3,0-624.6-280.3-624.6-624.6
		c0-344.5,280.3-624.6,624.6-624.6c209,0,394.2,103.1,507.5,260.9C2326.9,1999.2,2370.3,2124.7,2370.3,2260.4z"/>
	<polygon class="st2" points="2462.6,342.7 2892.8,342.7 2985.1,250.4 2370.3,250.4 	"/>
	<path class="st2" d="M2253.2,1129.4c-31,20.1-61.8,40.6-92.3,61.4v485.7c36.8,70.7,67.7,144.5,92.3,220.2V1129.4L2253.2,1129.4z"/>
	<path class="st3" d="M2985.1,2260.4v8.9h-0.1C2985.1,2266.3,2985.1,2263.3,2985.1,2260.4z"/>
	<path class="st3" d="M1434.6,1691.1c-5.4,3.8-7.2,3.1-7.2,3c-0.1-0.1,0.1-0.3,0.3-0.5c0,0,3.7-3.2,4.1-3.4c0.3-0.2,2.5-1.3,3.9-1.9
		c0.4-0.1,0.7-0.2,0.9-0.2C1437.2,1688.2,1437.6,1689,1434.6,1691.1z M1428,1684.7c-0.2-0.1-0.3,0-0.4,0.1c-0.9,0.3-2.9,1.3-3.3,1.6
		c-0.4,0.2-0.8,0.7-0.6,0.8c0.2,0.1,1.1-0.2,1.9-0.6C1425.9,1686.2,1427.9,1684.9,1428,1684.7z M1443.7,1677.4
		c1.6-0.4,1.6-0.4,3.1-1c0.2-0.1,1.6-0.7,3.8-1.9c0,0,2.6-1.4,3-1.7c-0.2-0.1-0.2-0.1-0.6,0.1c-0.1,0-9.6,3.5-18.3,8.3l4.8-1.9
		C1441,1678.6,1442.2,1677.8,1443.7,1677.4z M1433.6,1683.3c-0.1,0-0.1,0-0.2-0.1c0.2-0.2,0.3-0.3,3.9-1.8c1.2-0.5,2.9-1.2,3.8-1.7
		c0.2-0.1,0.4-0.2,0.5-0.3c-0.2,0-0.5,0.1-0.8,0.2c-10.4,3.4-18.5,9-19.9,10.2c0.8,0.2,11.9-5.4,12.6-5.9
		C1433.4,1683.7,1433.5,1683.5,1433.6,1683.3z M1444.1,1682.3c0.2-0.1,0.4-0.3,0.6-0.5c0.4-0.3,0.7-0.7,1-1c0.6-0.6,1.3-1.1,1.9-1.7
		c0.4-0.3,0.4-0.4,0.4-0.5c-0.1-0.1-0.1-0.1-0.3,0c-2.1,0.7-5.8,3.5-6,3.8c0,0,0,0,0,0.1c0.3,0.2,0.3,0.2-0.6,1.5
		C1441.4,1684,1444.1,1682.3,1444.1,1682.3z M1418.1,1701.9c-0.2,0-0.4,0.1-0.7,0.1c-0.9,0.3-1.8,0.7-1.8,0.7
		c-2.5,1.3-5.4,3.5-5.6,3.7c0,0,0,0,0,0.1c0.4,0,5.1-1.9,7.1-3.4C1417.9,1702.7,1418.6,1702,1418.1,1701.9z M1422.8,1712.9
		c-0.2-0.2-0.5-0.4-1.9-0.2c-0.2,0-0.5,0.1-0.8,0.1c-2.3,0.5-4.5,0.9-6.8,1.4c-2.8,0.6-11.8,5-13,6.8c0,0.1,0,0.2,0.1,0.2
		c0.7,0.2,1.5-0.2,2.2,0.3c1.1,0.8,0.8,1.3,0.5,1.6c-0.4,0.7-6.4,5.2-8,6.1c-0.7,0.4-0.8,0.4-1.1,0.3c-0.4-1.8,1.7-2.4,1.7-3.9
		c-1.1,0.2-6.7,3.2-7.3,4.8c-0.1,0.2-0.2,0.4-0.1,0.6c0.3,1.3,1.1,2.5,1.3,3.9c0.1,0.5,0.4,1,0.4,1.6c0,1-0.6,1.9-0.5,2.9
		c0,0.2,0.1,0.4,0.2,0.5c1.7,1.8,16.8-7.3,20.9-11.5c0.9-0.9,3.6-6.3,1.8-6.2c-1.9,0.1-3.6,1-5.4,1.4c3.5-2.4,7.5-4.1,11.1-6.6
		C1418.3,1717.1,1422.7,1713.2,1422.8,1712.9z M1379.4,1712.2c6.6-3,12.1-7.8,18.6-11c-6.5,4.2-6.5,4.2-6.8,4.6l22.1-12.9
		c0.4-0.3,1.1-0.7,1.8-1.5c-0.2-0.1-0.6,0.1-0.8,0.2c-4.7,2.2-36,19.3-42.6,24.9c3.3-0.4,5.4-3.2,8.2-4.6
		C1379.6,1712,1379.5,1712.2,1379.4,1712.2z M1379.4,1759.9c-0.1,0-0.2,0-0.3,0c-0.3,0.1-0.8,0.3-1.5,0.9c-2.9,2.3-5,5.3-8.1,7.3
		c-5.2,3.2-6.8,4.2-7,5c0,0,0.1,0.1,0.1,0.1c0.4,0.1,0.8,0,2-0.3c2-0.4,2.2-0.4,2.6-0.1c0.7,0.5,0.5,1.6,1.4,1.9
		c0.3,0.1,1.7,0,3.1-0.3c8.9-1.7,12.7-5.5,12.7-5.5c1-1.2-1.5-5.9-1.5-6C1381.9,1761,1379.7,1759.9,1379.4,1759.9z M1392,1721.2
		c-0.2,0-0.6,0-1.5,0.2c-4.8,1.3-8.2,4.4-8.4,4.8c0,0,0,0.1,0.1,0.1c0.5,0,0.9-0.2,1.4,0c0.1,0.3,0.1,0.4-0.3,1.4
		c-0.3,0.6-1,2.2,0,1.9c1.6-0.5,6.4-4.8,6.9-5.3C1392.4,1722.2,1392.9,1721.3,1392,1721.2z M1605.4,1632.4c-3.2,4-11.6,6.3-16.1,7.6
		c-0.2,0.1-23,6.8-23.9,8.2c-6.3,8.6,9.5,11.4,9.7,11.4c39.2-2.9,39.7-2.5,42.4-0.1c0.2,0.2,18.4,20.9,12.5,32.2
		c-2.4,4.6-2.4,4.8-2.3,5.4c0.4,2.4,3.3,2.6,4.1,4.6c1.2,3.1,0,6.7,1.7,9.8c5.2-1.2,9.3-6.7,15.5-3.9c10.5,4.8,5.7,13.4,5.6,13.5
		c-4.3,5.2-12.2,5-16,10.9c-2.1,3.2-4.2,12.1-2.6,17.3c10.2,33.6,65.8,87.2,85.8,64.2c3.9-4.4,10.5-38.7,10.6-39.1
		c1-5.1-1.6-10.4,1.2-15.3c1.5-2.5,1.7-2.6,10.8-5.4c28.9-8.9,28.9-8.9,29.6-14.6c0.8-5.8,1.2-9,6.4-11.7
		c12.6-6.5,27.1-7.5,39.7-14.1c5.2-2.7,10.8-4.5,15.5-7.9c0.1-0.1,2.5-1.8-0.5-5.7c-4.3-5.7-10.8-8.9-15-14.8
		c-2.6-3.7-2.5-8.4-4.4-12.5c-2.1-4.7-1.2-6,1.4-8.6c3.6-3.7,1.1-5.2-6.2-9.6c-24-14.5-24.2-14.8-26.2-18.1c0.1-0.3,0.3-0.7,0.4-1
		c0.4-0.2,0.9-0.3,1.2-0.5c-7-7-21.2-1.5-24.6-14.8c-0.7-0.4-1.7-0.9-2.4-1.2c0.1-0.6,0.3-1.4,0.5-2.1c0.3-0.1,0.7-0.2,1-0.2
		c-3.1-0.4-12.2-1-12.3-1c-6.1-0.4-13.8,1-15.2,1.3c-5.2,1-9.7-2.6-14.8-2.7c-7.1-0.2-22.7-0.3-28.9,0c-11.4,0.7-11.4,0.7-12.8,1.6
		c0,0,0,0-0.1,0c-12.5,0.7-12.5,0.7-18.4,1.9h0c-0.1,0-0.3-0.1-0.3,0.1c0,0.1,0.1,0,0.1,0c0.1,0,0.3,0,0.4,0.1
		c7.3,0.6,7.3,0.6,9.5,1.1c-0.6,0.1-0.6,0.1-8.7-0.1c-3.3,0-4.6-0.1-8.5,0.3c-29.2,3.3-50.2,13-50.4,13.1
		C1601.2,1632.4,1601.2,1632.4,1605.4,1632.4z M1494.8,1758.9c1.5-4.1,0.8-5.9-1.9-5.5c-0.1,0-8.4,2.3-10,6.1
		c-0.9,2.2,2.6,7.9,4,8.8C1490.3,1770.5,1494.8,1759,1494.8,1758.9z M1554.2,1638c-1.8,0.8-3.8,1.5-5.7,2.2c6-1.4,25.4-6.9,28.5-7.8
		c-13,4.4-23.2,7.9-34.2,10.3c-2.6,0.6-3.3,1.2-4.3,1.9c0,0.8-1.1,4.6-2.9,6.3c-5.8-1.8-20.8,7.1-21.4,7.6c1.3,0.6,2.9,0.3,4.2,1.2
		c-0.1,0.2-0.2,0.5-0.2,0.7c1.9-0.3,2.7-0.3,9.1-2.8c-11.1,6.2-12.3,4.7-13.2,3.7c-8.4,0.2-8.9,3.5-9.1,5
		c-4.8,3.2-10.9,3.6-15.2,7.8c0.1,0.2,0.3,0.4,0.4,0.6c1.3,0.1,2.3,0.1,11-1.6c6.4-1.3,12.2-6,19.2-4.4c-0.5,1.3-0.5,1.3-2,2.4
		c4.7,1,19.8-6.5,18.4-10.3c-0.5-0.2-1.2-0.3-1.7-0.4c1.1-1.6,11.1-8.1,13.3-8.6c13.5-3.3,18.2-8.5,18.3-9.7
		c-0.2-0.1-0.5-0.2-0.7-0.2c12.5-3.3,18.2-4.9,22-7.5c-1-0.1-1-0.1-3.2,0.3c0.1,0,28.2-9,29.7-9.4c-7.3,1.1-7.7,1.1-10.5,1.3
		c7-1.9,14.1-3,21.1-4.8c-6.8,0-18,1.4-18.1,1.5c-0.3,0-27.4,4.8-33.2,7.1c0.2,0.3,0.7,0.7,1.1,0.9c-1.1,0.3-2.1,0.7-4.9,0.3
		c-2-0.2-25.3,5.5-27.7,8.5C1543.8,1640.6,1544.1,1640.7,1554.2,1638z M1445.2,1686c-0.5,0.8-0.9,1.7-1.5,2.4
		c-0.8,1-0.9,1.1-3.8,3.4c0.3-0.7,0.7-1.7,1-2.4c0.1-0.4,0.3-0.7,0.3-1.2c-0.2-0.1-2.6,0.1-5,2.7c0.3,0,0.6,0,0.8,0
		c0,0.1,0,0.2,0,0.3c-2.8,2.4-6.6,2.8-9.7,4.6c0.5,0.3,1-0.3,1.5,0c-0.4,0.8-0.4,0.8-0.4,1c0.5,0.2,0.5,0.2,9.5-2.9
		c-2.8,1.6-10.4,5.9-11,7.8c0,0.1,0.1,0.1,0.1,0.1c0,0,10.2-3.8,11.5-4.6c0.9-0.5,0.9-0.5,6.6-5.6c0,0.1,0.2,0.3,0,0.9
		c0,0.1-0.1,0.1-0.1,0.2c2.6-2.6,2.6-2.6,9.6-8.4c1.5-1.2,1.6-1.3,1.8-1.8c-0.5-0.1-0.5-0.1-1,0c-0.1,0-9,2.7-9.9,3.3
		C1445.4,1685.9,1445.3,1685.9,1445.2,1686z M1543.5,1759.6c4.2-0.4,13.4,11.5,13.5,11.7c2.2,2.9,4.5,6,6.6,5.6
		c5.8-1.1,14.4-23.7,14.5-23.9c0.2-0.7,0.4-1.7,0.4-2.4l-42.2-9.8c1.2-0.9,2.3-1.8,12.4-6.4c4.4-2,6.7-3,6.5-4.2
		c-0.3-3.1-15.2-17.5-22.4-18.7c-3.2-0.5-6.6,0.5-9.7-1.1c-3.3-1.7-2.9-7.1-7.4-7.5c-4.1-0.3-13,3.1-19.5,5.6
		c-6.6,2.5-6.7,2.5-7.7,2.5c-0.4-1.1-0.9-2.2-1.3-12c-2.7-1.1-11,0.4-13.5,0.8c-12.7,3.1-50.6,35.5-43.4,40.5
		c7.1,4.9,31.3-0.2,34.6-1.8c-0.5-2.1-0.8-3.4,9.8-4.6c9-1,10.3-3.2,11.2-4.7c2.2,1.2,8,6.3,8,6.3c3.1,3.4,4.4,8,7.3,11.5
		c3.6,4.4,12,4,12.1,12.1c0,0.2-1.8,18.5-26.8,26.2c-7.5,2.3-15.6,1.8-22.7,5.7c-3.1,1.7-3.2,7.1-2.3,7.9c1.4,1.3,5.8,1.8,18.9-2.7
		c10-3.5,10-3.5,27.9,4.5c-1.4,1.6-1.4,1.6-8.6,4.3c3.9,3.6,34.4,10.1,40.6,6.5c-0.2-1-0.2-1-1.8-1.8c-0.8-0.4-0.8-0.4-14.4-13.3
		c10.6,1.2,13.9,2.6,19.9,6.7c1.2,0.8,2,1.4,2.6,1.2c3.4-1.1,9.1-14.2,6.3-17.1c-5.9-6.3-16.9-5.5-20.3-15.3
		C1529.9,1763.9,1543.3,1759.6,1543.5,1759.6z M1405.6,1698.1c0.4,0.3,2.7-0.9,4.7-2.1c0.4-0.2,1.1-0.7,1.2-0.9c0,0,0,0,0,0
		c-0.1,0-0.2,0-0.3,0.1C1410.2,1695.5,1405.7,1697.7,1405.6,1698.1z M1645.5,1721c0,0,1.7-0.8,2.1-2c0.3-0.8,0-1.3-0.3-1.8
		c-0.6-1-1.7-1.3-2.4-2.2c-0.4-0.5-0.4-1.1-0.4-1.4c0-0.1,0-0.2-0.1-0.3c0,0-0.8-0.6-3.1-0.3c-2.9,0.6-11.1,5.5-6.6,8.3
		c1,0.6,2.7,1.2,4.5,0.8L1645.5,1721z M1512.7,1699.6c0.1,0,0.1-0.1,0.1-0.1c-0.7-1.1-9.6-3.8-16.3-2.7c-5.8,1-4,5-2.6,6.1
		C1498.3,1706.6,1512.6,1699.7,1512.7,1699.6z M1467.4,1668.7c-1.8,0.7-4.9,2-5.5,2.5c0.3,0,0.6-0.1,0.8-0.2
		c2.9-0.9,5.7-0.7,5.7-0.7c-0.3,1-1.7,1-1.9,2.1c0.4,0.5,5.2-1.5,5.6-1.7c1.8-0.9,7.4-6,7.4-7c-0.8-0.2-1.4,0.4-2.1,0.4
		c0.6-1.3,2.2-1.2,3-2.2c-0.1,0-0.1,0-0.5,0.1c-5.1,1.7-11.8,4.8-12.6,5.4c1.1,0.3,2.1-0.5,3.2-0.4
		C1470.7,1667.3,1470.1,1667.7,1467.4,1668.7z M1443,1696.2c-1.2,0.9-1.6,1.2,0.2,2.4c1.6,1,5.7,0.1,9.2-2.9c2-1.8,6.1-6,4.2-6.2
		c-0.2,0-0.6,0.1-0.8,0.1C1452.6,1690.5,1443.5,1695.8,1443,1696.2z M1498.3,1665.2c0,0-0.1-0.1-0.1-0.1c-0.2,0-0.3,0.1-0.4,0.1
		c-0.1,0.1-0.3,0.1-0.4,0.1c-2.6,0.8-5.1,1.8-7.7,2.7c-3,0.9-6.1,1.5-9.1,2.5c-2.1,0.7-3.4,1.2-3.9,1.4c0.8,0.2,9.6-1.3,14.2-2.6
		c2.3-0.7,3.4-1.1,6.6-3.4C1497.8,1665.7,1498.1,1665.5,1498.3,1665.2z M1476.6,1669.9C1476.7,1669.9,1476.7,1670,1476.6,1669.9
		c1,0,10-3.9,12.6-5.1c1.1-0.5,1.4-0.8,1.4-1.3c0-0.6-0.8-0.3-0.9-0.9c0-0.3,0.2-0.5,0-0.8c0,0,0-0.1-0.1-0.1c0,0-0.1-0.2-0.4-0.2
		c-0.4-0.2-0.7-0.1-1.2,0.1c-0.3,0.1-0.8,0.4-1.4,0.8c-2,1.4-3.3,3.7-5.6,4.6C1478.2,1668.1,1477.2,1668.5,1476.6,1669.9z
		 M1497.5,1656.1c6.3-3.2,6.4-3.3,6.5-3.5c-0.2,0-0.4,0.1-0.7,0.1c-0.1,0-6.4,2.1-8.2,3c-2.1,1.1-1.4,1.8-1.4,1.8
		C1494.1,1657.8,1495.6,1657.1,1497.5,1656.1z M1511.2,1653.1c2.7-0.8,3.6-1.1,4.5-0.7c0,0.1,0,0.2-0.1,0.3
		c-0.8,0.5-1.7,0.8-4.4,1.7c-7.3,2.4-9.2,3.2-9.7,3.6c-1.7,1.1-1.8,3-1.1,3.4c0.2,0.1,0.2,0.1,4.9-1.3c1.9-0.6,3.9-0.1,5.7-0.8
		c4.5-1.7,8.4-4.7,12.8-6.7c2.7-1.2,5.7-1.6,8.4-3c0.2-0.1,0.4-0.3,0.6-0.4c-0.1-0.2-0.1-0.2-2.1-0.6c0-0.1,0-0.1-0.1-0.2
		c0.4-0.3,0.9-0.5,1.4-0.7c3.8-1.8,3.8-1.9,3.8-2.3c-0.4-0.1-0.9,0-1.2-0.3c0.6-0.8,2-1.1,1.7-2.5c0.8-1,2.1-1.3,2.8-2.3
		c-0.2,0-0.6,0-0.8,0c-4.5,1.2-21.1,7.5-22.7,8.6c0.9,0.2,1.7-0.2,2.5-0.4c-1.2,1.1-4.6,1.8-6.1,2.2c-5,1.2-7.6,4.1-7.6,4.1
		C1505.1,1654.9,1510.5,1653.3,1511.2,1653.1z M1458.9,1696.4c0.4,0,46.4-4.8,58.5-17.2c3.3-3.3-4.8-3.8-4.9-3.8
		c-4.2-0.1-24.9,7.2-29.2,8.9c-3.8,1.6-6.8-2.1-6-3c0.4-0.4,1-0.6,2.4-1c7.4-2.1,3.8-4.6,3-4.6c-1.9-0.1-3.6,1.1-5.5,1.3
		c-2.2,0.3-4.3-0.6-6.4-0.3c-0.6,0.1-2.8,0.4-4.2,0.7c-1.1,0.5-4.8,4.3-4.7,5.3c0.9,0,1,0,2.8-0.7c2.1-0.7,4.9-1.7,5.5-1.3
		c1.2,0.8-2.5,5.6-2.7,5.8c-2.2,2.1-5.4,2.9-7.5,5.3C1456,1696.5,1457.6,1696.5,1458.9,1696.4z M2376.4,2338.8
		c0.1-1.1,0.1-2.2,0.1-3.3c-1.5,22.2-2.5,30.3-3.2,36.8l-1.9,14.2l-0.3,2.3c-0.3,2-0.8,4.8-1.2,6.8c0.2-1.1,0.4-2.6,0.6-3.7
		c-0.9,5-0.9,5-18.3,43.5c-2.9-0.7-2.9-0.7-9.6,2.5c-1.9-61.7,15.4-123.5-1-185.1c-0.5,2.2-1.9,5.1-3.6,6.6
		c-1.7-11.8-1.7-11.8-3.3-14.4l6.7,81.7c2.3,25.9-2.7,51.7-2.2,77.6c0.2,10,2.4,19.8,1.3,29.9c-3,27.1-3,27.1-1.6,29.1
		c6.5-1.4,6.5-1.4,10.2-0.2c-22.5,78.5-70.2,99.1-88.3,144.2c-2.3,5.7-24.1,51.4-47.6,74.4c-9.8,9.6-23.1,14.2-33.1,23.6
		c-8.7,8.2-13.6,19.6-21.7,28.3l-36.1,29.4l-28.5,20.6c-7.1,5-28.8,20.1-47.2,14.2c4.1-9.5,6.2-11.8,10.1-15.9
		c5.8-6.1,6.8-7.2,42.8-72.6c9.2-16.8,10.4-36.9,20.4-53.4c10.7-17.8,26.3-32.1,34.5-51.7c17.7-42.5,13.4-61.9,10.2-76
		c-5.1-22.7,20.4-37.4,12-63.3c-5.7-1.8-12.3,0.4-17.4-4.1c-5.2-4.6-1.4-12.8-6.7-17.4c-0.7-0.6-1.9-1.4-2.8-1.6
		c-29.4-3.2-57.2,7.8-86,10.6c-5.8,0.6-36.3-29.3-40.4-38c-9.7-20.7-21-40.6-29.2-62.1c-5.5-14.3,11.8-20.2,11.6-32.6
		c-0.2-14.7-10-27.4-8.7-42.5c0,0,31.8-56.5,36.1-63.6c1.5-2.4,13.4-11.9,20.4-15.4c7.8-3.8,7.8-3.8,9.3-33.3c0.1-2.7-0.6-6.7,0.9-9
		c5-7.6,15.2-7.5,20.6-14.4c4.4-5.6,1-13.5,5.4-19.1c0.8-1,2.1-1.9,3-2.8c0,0,0.1,0,1.4,0.9c7.3,8.9,9.6,8.5,16.3,7.1
		c0.5,0,0.9,0,3.5,0.3c23.7,8.4,43-18.3,66.8-8.8c1.1-1.9,3-4.1,4.5-5.6c18.4,4.3,18.4,4.3,22.8,0.9c3.3,1.8,4.4,2.4,9.9,6.1
		c2.1,27.7,2.1,27.7-0.6,32.1c-1.2,1.9-2.6,5.3-1.5,7.2c3.6,6.1,53.8,52.8,58.5,56.4c0.9-0.4,2.2-0.9,3.1-1.3c2.9-8-0.4-17,3.8-24.8
		c22.9,0.4,20.9,32.9,42.7,34.6c1.3-1.3,3.8-2.4,5.6-2.4c2.1,6.6,3.2,8.1,9.8,8.6c5-12.6,4.6-19.8,2.2-66.7c-1.8-0.7-4-2.3-5.4-3.7
		c-0.2,2.1-0.8,4.8-1.5,6.7c-5.6-3.5-7.2-10.4-12.1-14.6c0,1,0.1,2.3,0.1,3.3c-0.7,0.7-1.6,1.7-2.3,2.4
		c-14.9-12.8-17.9-35.9-19.4-48.2c-0.9-0.3-2.1-0.6-3-0.9c-0.1-2.2,0.1-5.2,0.4-7.5c3.9-2,8.9-0.1,12.6-3.3
		c-1.4-1.3-2.6-3.6-3.1-5.5c1.9,0.4,4.5,1.2,6.4,1.9c1.3-1.4,2.3-4,2.4-5.9c15.9-4.3,15.4,18,25.3,24.8c0.9-0.5,2-1.1,2.9-1.6
		c0.8-24.7-17.8-40.8-26-61.5c0.6-0.8,1.3-2,1.9-2.8c-2.6-10.4-2.6-10.4-4.4-13.3c0.5-0.9,1.2-2.2,1.7-3.1c-1.5-4-2.3-5.7-7.4-4.6
		c-3.4,9.8,13.6,21.8,2.2,28.5c-2.7-3.8-4.1-8.4-7.2-12c1.1-6.6,1.1-6.6,0.1-10.9c-3.5-2.1-4.7-3.1-7.7-6.6c0.4-0.9,1-2.1,1.4-3
		c-1.7-0.8-4.4-0.9-6.1-0.3c-2.9,24.1,13.9,45,10.8,69.2c-1,0.1-2.4,0.1-3.4,0.2c-0.7,1.9-1.8,4.5-2.8,6.3
		c-2-7.7-11.8-13.7-16.4-14.7c-2.6,2-2.6,2,2.7,28.5c1.6,8.2,4.8,16.1,4.8,24.6c0,2.1-0.2,4.9-0.4,6.9l-15.3-35.8
		c-14.3-42.2-14.3-42.2-14.5-42.5l-48.1-57.9c-1.8,0.7-3.9,2.5-4.9,4.1c21.2,44.4,27.5,47.3,35.5,50.9c-0.2,1-0.5,2.3-0.8,3.3
		c17,20.8,17,20.8,18,26.1c-1.3-1.8-3-4.2-4.3-5.9c-1,0.3-2.2,0.6-3.2,0.9c-0.1,4.1-0.1,4.1,3.1,15.3c-2.5,4.1-3.5,8.9-6.2,13
		c-0.9-0.1-2.2-0.3-3.1-0.4c-1.1,5.8,2.5,11.5,0.7,17.4c-0.1-0.1-12.9-11.4-17-18.6c21.1-3,22.9-3.2,19.1-15.7
		c-4.9-16.5-55-75.4-55.5-75.8c-9.1-8.1-14-1.2-19.8,9.4c-6.4,0-11.7-9.3-18.6-3.5c-1.6,1.3-1.6,1.3-1.8,20.8
		c-14.8,5.9-15.1,6.1-20.8,30.2c5.4,8.6,2.9,21.5-7.1,22.8l-35.9,12.2c-0.1-0.2-0.1-0.2-2.7-10.8c-6.6-1.5-9.8-1.3-25.1-0.1
		c0.4-1.7,0.4-1.7,2.4-20.2c-7.6-2.3-10-62.4-10-63c-1.5-1.6-3.2-4.1-4.2-6c21.9,2.3,43.2,9,65.2,10.6c0.3-0.4,7.7-49.1-39.6-62.5
		c0.8-0.6,1.9-1.4,2.7-2c-2-1.8-4.6-4.2-6.6-5.9c0.4-0.9,1-2.2,1.4-3.2c7.9,0.2,7.9,0.2,12.8,3.4c2.1-0.5,4.9-1.6,6.9-2.5
		c0.3-1,0.7-2.4,1.1-3.4c-1.3-1.8-2.9-4.4-4-6.3c4.4,3.3,6,4.5,16.1,5c0.9-2,1.5-5,1.5-7.2c2.4-0.8,5.4-2.3,7.4-3.7
		c-3.8-9.5-3.8-9.5-3.8-9.9c4.9-1.9,4.9-1.9,13.7-1.7c0.5-0.9,1.2-2.1,1.7-3.1c-3.5-10-4.5-15.4-5.1-18.4c2.9-2.9,2.9-2.9,13.4-2.6
		c0.6-0.8,1.4-1.9,1.9-2.8c2-0.3,4.6-0.8,6.6-1.1c2.8-0.6,2.9-0.7,3.4-1.2c-0.1-0.3-0.3-0.9-4.1-5.4c-9.4-11.1-22.5-34.6-23.3-36.8
		c-1.8-5.1,8.5-5.1,8.9-5.1c3.6,0.4,8.4,14.2,8.3,17.5c-0.3,7.9,6.1,17.2,11.5,23.5c7.4,8.7,8,8.6,10.6,8.5c7.7-0.4,12,2.9,13.6,4.2
		l-9.6-1.7c5.4,1.2,10.7,2.7,14.8,5.1c0.8-0.5,1.9-1.2,2.7-1.7c0.1-2,0.1-2,19.9-0.5l0.1,0c-0.2-0.3-0.5-0.7-0.7-1
		c0.6-1.4,0.8-2.9,1.4-4.2c0.8-0.2,0.8-0.2,5.1,0.2c0.4-3.3-5.3-10.9-6.5-12.3c-0.9-1.1-9.3-17-9.4-17.2c0.2-0.4,0.5-0.8,0.8-1.2
		c7.6-0.6,8.1,9.8,15.1,10.1c-5.6-11.3-15.7-18.8-22.8-28.8c6.5,0.9,12.5,3.7,18.8,5.5c-0.8-1.2-1.7-2.4-2.3-3.7
		c0.3-0.2,0.7-0.5,1.1-0.7c1.7,0.7,3.3,1.7,5.1,2c-10.8-10.1-27.1-8.6-37.9-18.8c-12.3-11.7-12.3-11.7-25.3-41.4
		c0.4-0.1,0.9-0.1,1.4-0.1c-1.2-3.5-18-14.9-23-16.6c-0.2,0.3-0.5,0.7-0.7,1.1c0.2,0.5,0.5,1.2,0.8,1.8c0.4,0.8,0.4,0.8,13.9,15.2
		c5.2,5.5-0.6,12.8,2.9,18.5c9.2,15.1,9.2,15.1,15.9,19.7c9.8,6.6,10.1,7.9,10,11.3c-3.8,3.6-5.5,5.2,2,19.4
		c3.2,6.2,2.7,19.7,1.7,21.6c-5.2,0-8-4.9-11-10c-6.3-10.8-39.9-45-41.5-46.2c1.5,4.9,4.5,15.1-1.6,18
		c-18.8,8.9-39.1-39.8-39.3-40.3c-1.5-3.7-1.6-4.7,1.2-6.8c7.6-5.6,7.6-5.6,9.5-19.7c0.1-0.6,0.5-5.9-9.2-21.1
		c-0.1-0.2-13.1-23.6-13.6-27.8c-0.3-2.8-0.3-2.8,1.7-7.3c-1.1-2.6-3.9-3.8-4.9-6.4c5.6,2,8.4,8.1,14,10.1c-2.7-3.2-2.7-3.2-3.4-5.1
		c1.2,0.4,17.4,7.9,18.9,11.5c-0.8-0.2-1.8-0.6-2.6-0.9c8.8,6.1,11.1,7,12.2,7.5c0.3-0.2,0.7-0.6,1-0.8c3.7,2.3,4.5,2.9,5.9,4.1
		c-0.7-0.3-1.7-0.7-2.5-1c1.4,1.3,2.8,2.7,16.1,10.9c18.4,11.4,46.4,36.1,48.7,40.5c-10-4.7-17.2-13.4-26.4-19.2
		c18.4,15,33.9,33.3,52.1,48.5c0.3-0.2,0.7-0.5,1-0.7c-4.3-4.4-9.8-7.6-12.8-13.3c1.8,1.3,3.5,2.9,5.5,4.1
		c-10.9-11.5-11.3-12.1-12.4-13.7c1,0.9,2,1.8,3,2.7l0.1,0.1l26.1,27c24.4,26.9,25.2,28,64.6,83.1c9.2,14.1,20.3,33.6,28.9,48.1
		c-6.1-8.9-14.1-16.3-23.9-22.7c10.6,6.9,17.8,14.3,23.9,22.7l22.4,45c10,22.2,13.5,29.8,20.9,52.2c-0.1-0.1-0.2-0.2-0.3-0.3
		c0.4,3.4,0.4,3.4,21.4,74.8c-0.1-0.2-0.2-0.5-0.3-0.7c8.6,52.4,9,54.8,13.4,69.6c0.7,4.8,1.4,9.9,2.3,15.6
		c1.9,18.6,2.8,43.6,3.8,62.4C2378.5,2295.6,2377.2,2319.6,2376.4,2338.8z M2376.5,2335c0.4-21.4-0.7-58.5-3.6-62.9
		c-1,6.4-1.7,11,0,61.2c0.4-3.2,0.4-3.2,1-10.6c-0.9,23.2-0.9,23.2,0.3,26C2375.2,2345.1,2375.6,2343.8,2376.5,2335z M2360.1,2129.1
		c0.2,0.8,0.5,1.9,0.6,2.8l3.3,15c-0.1-0.2-0.1-0.5-0.2-0.7c1.2,8.9,2.9,17.7,4.6,26.5c-5-32.9-6.9-39.6-14.3-67
		c-1.3-4.2-2.6-8.2-3.8-12c7.7,26.9,7.9,28,11.2,42.1C2361.1,2133.6,2360.6,2131.3,2360.1,2129.1z M2348.3,2086.7
		c0.3,0.9,0.6,1.7,1,2.5c-1-3.2-2.3-6.4-2.9-9.7c0.4,1.1,0.7,2.1,1.1,3.2l-7.8-23.6l0.1,0.3c-0.9-2.6-1.2-3.1-1.5-3.5
		c3.1,9.3,6.8,21.1,12.1,37.7C2349.7,2091.5,2349.1,2089.2,2348.3,2086.7z M2372.9,2201.4c-1-9.7-2.8-19.2-4.6-28.8
		c1.1,7.4,2.4,16.1,3.9,26.7C2372.5,2200,2372.7,2200.7,2372.9,2201.4z M1999.3,1886.3c-0.1,0.2-0.1,0.4-0.2,0.6
		c-2.5,4.9-4.2,14.3-4.2,14.4c-0.6,3.8-0.4,5.6,0.8,7.1c2.1,2.6,11.9,1.5,19-3.2c1.8-1.2,3.4-2.6,5.4-3.5c2.2-1.1,5.2-0.3,6.9-2.8
		c1-1.4,0.6-4.6-1.2-9.6c-0.9-2.5-1.9-4.1-3.1-5.8c-1.8-2.8-2-3.8-0.7-6.7c0.5-1.2,1.4-3.3,0.7-5.9c-0.7-2.6-2.6-4.3-4.1-5.4
		c-0.8-0.5-1.8-1.1-2.7-1.5c-2.3-1.1-4.7-1.6-7-2.7c-1.7-0.8-2.2-1.4-2.5-1.7c-0.2-0.2-0.2-0.2-0.4-0.2c-0.6,0.2-15.4,3.9-6.1,9.2
		c0.6,0.3,0.9,0.5,2.2,0.6c-0.3,0.3-0.9,0.6-1.3,0.8c-6.1,3.1-7.6,4.6-9,6c-1,1-2.1,2.8-1.7,5.6c0.4,1,0.9,2.4,3.3,3.6
		C1995.2,1886.1,1997.3,1885.8,1999.3,1886.3z M1386.3,1708.9C1386.3,1708.9,1386.4,1708.9,1386.3,1708.9
		C1386.4,1708.9,1386.4,1708.9,1386.3,1708.9c-1.4,0.7-13.2,7.7-13.7,8.5C1373.2,1717.4,1373.8,1717.4,1386.3,1708.9z
		 M2310.5,2170.6c0.1,0,0.2-0.1,0.3-0.1c0-0.1,0-0.2,0-0.2c-0.1-0.1-5.6-7.4-5.6-7.4c-1-1.1-2.1-1.5-2.4-1.6
		c-1.8-0.4-3.7-0.4-5.5-1.1c-3.2-1.2-3.2-1.2-3.4-1.2c-1.4,0.1-1.9,1.3-1,2.9C2294.6,2165.1,2307.1,2171.8,2310.5,2170.6z
		 M2191.7,2080.5c1.1,1.3,3.6,0.7,4.1,2.9c0.4,2.1-0.4,4.2,0.2,6.2c0.5,1.7,1.6,2,2.1,2.1c1.4,0.3,8.2-1.9,8.3-7.5
		c0-0.6-0.1-1.5-0.1-2.1c-0.3-2.3-1.2-4.6-1.5-6.9c-0.3-2.5-0.2-5.1-0.5-7.5c-0.6-3.9-1.9-4.4-3.3-4.6c-2.2,0.1-7.5,2.1-9.4,5.7
		C2190.3,2071,2190,2078.7,2191.7,2080.5z M2157.6,2079.4c0,0,2.8-3.2,2.8-3.3c0.2-1.1-1.7-2.1-5.1-2.5c-3.7-0.4-9.6,0.4-7.3,3.2
		c1.3,1.5,6.1,3.6,8.1,3.5C2156.8,2080.2,2157.2,2079.9,2157.6,2079.4z M2191.6,2047.7c-0.6,0.5-1.1,1-0.9,2.2
		c0.1,0.4,0.5,1.3,1,1.9c0,0.1,5.3,6.4,5.7,6.6c1.2-0.6,0.1-10.2-0.9-15.2c0-0.1-1.7-7.7-2.7-8.4c0,0-0.1,0-0.1,0
		c-0.1,0.1-0.2,0.3-0.3,0.8c0,0.1-0.1,0.3-0.1,0.5c-0.4,2.4,0.4,4.8,0.4,7.2C2193.5,2046,2192.4,2047,2191.6,2047.7z M2332.4,2187.8
		c0,0,3.1,0.6,3.4,0.3c0.5-0.5,1.1-7.7,1.1-7.8c0-0.1,0-0.3,0-0.4c0-0.8-0.2-0.8-0.4-0.9c-0.9,0-1.7,0.6-2.6,0.6
		c-0.6,0-1.3-0.2-1.9-0.6c-0.8-0.5-1.4-1.4-2.3-1.8c-0.7-0.3-1,0.1-1.2,0.3c-0.9,1.1,0.1,6.7,2.2,9.2
		C2331.5,2187.4,2332.1,2187.7,2332.4,2187.8z M1320.2,1759.4c0.1,0.1,0.2,0.2,0.2,0.2c0.2,0,0.6-0.2,0.8-0.3
		c3.8-2.6,7-5.9,10.7-8.6c6.8-4.8,14-8.8,20.7-13.8c1.5-1.2,1.5-1.2,3.5-4.9c-0.1-0.1-0.1-0.3-0.2-0.4c-2.3,0.5-4.1,2.2-6.1,3.3
		c1.7-1.5,1.7-1.5,2-2.7c-0.1,0-0.2-0.1-0.3-0.2c-0.2,0.1-0.6,0.2-0.8,0.2c-8.3,3.6-8.3,3.6-45,34.4c-3.2,2.7-5.7,4.8-8.3,10.4
		c0.1,0,0.2,0.1,0.3,0.2C1306.5,1773.1,1312.7,1765.4,1320.2,1759.4z M1371.6,1723.9c0.9,0.1,3.8-1.6,6.7-3.2
		c11.3-6.5,17.1-9.1,17.2-9.1c3.7-1.4,7.5-2.4,11-4.3c2.8-1.5,13.3-9,13.4-9c2-1.4,2.2-1.7,2.4-2.1c-1.5-0.1-3.2,0.8-3.2,0.9
		c-3.2,1.9-6,4.4-9.2,6.3c4-4,8.6-7.2,12.4-11.4c-0.1,0-0.3,0-0.4,0.1c-0.1,0.1-13.2,7-13.6,8.8c-0.3,1.4-2.1,4.8-12.1,7.2
		c-0.1-0.1-0.1-0.2-0.2-0.2c0.2-0.3,0.5-0.6,0.8-0.9c0.1-0.1,0.2-0.2,0.2-0.3c1.4-1.5,6-2.4,4.1-4.6c-0.3,0.1-27.1,13.3-27.3,17.1
		c0.1,0.1,0.1,0.1,13-7.2c-1.3,2.2-3.7,2.9-5.5,4.4c0.3,0,0.4,0,3.6-1.7c0.8-0.5,2.4-1.3,5.7-2.5c-2.9,2.1-12.5,7.2-17.9,9.6
		C1370.5,1722.6,1370.5,1723.7,1371.6,1723.9z M1296.9,1791.8c1.9,0.5,3.4-1.3,5.3-1.2c0.1,0.1,0.2,0.2,0.3,0.3
		c-0.8,2.4-3,3.7-4.2,5.9c2.2,0,20.2-8.2,30.5-16.6c3.3-2.7,4.6-3.8,6.5-4.5c0.1,0.1,0.3,0.2,0.4,0.2c-0.8,1.7-0.8,1.7-1,2
		c0.9,0.9,7.7,2.4,7.8,2.4c6.4-2.2,6.4-2.2,12.7-9.4c0.2-0.3,0.3-0.3,0.3-0.4c-0.7-0.1-0.7-0.1-6.6,3.2c0.7-2.2,6.9-7,11.2-6.8
		c1.5,0.1,1.8,0,2.4-0.4c0,0,3.3-3.1,2.8-5.8c-3.4-2-4.8-5.8-3-8c1.6-2,15.4-19.4,15.1-20.8c-0.7-0.3-1.3-0.4-2-0.7
		c-0.1-0.2-0.2-0.5-0.3-0.7c0,0-0.1,0.1-0.2,0.1c-6.4,5.6-10.8,13.3-18.3,17.7c-0.7-3.2,2.5-4.2,3.4-6.4c-0.2-0.1-0.4-0.3-0.6-0.4
		c-2.9,1.1-5.4,3.4-8.6,4.1c0.9-1.4,2.4-2.3,3.1-3.9c-0.1-0.1-0.2-0.2-0.3-0.3c-4.2,1.3-7.3,4.6-11.3,6.2c2.5-3.5,6.6-5.1,9.4-8.2
		c-2.5,0.3-35.5,22.1-34.7,26.1c0.4,0.2,0.9,0.4,1.3,0.7c-0.6,1.1-0.7,1.1-4.6,3.6c-6.6,4.1-6.8,4.9-6.8,5.8
		c0.3,0.2,0.8,0.2,1.2,0.2c3.7-0.7,6.6-3.2,10.3-4.1c2.6-0.6,5.2,0.6,7.7,0c-4.6,3.6-10.8,5.5-13.4,6.3
		C1295.5,1783.3,1293.8,1791.1,1296.9,1791.8z M1447.7,1823.8c0.6-1.5-0.9-1.4-2.1-1.2c-0.1,0-5,1-6.3,2.5c-1.8,2.3-1.3,5.4-0.6,6.1
		C1440.6,1832.8,1446.9,1825.9,1447.7,1823.8z M1439.3,1811.5c0.2-0.1,0.9-0.5,1.2-1c0.6-1.2-0.3-3.1-0.9-3.7
		c-1.1-1.1-2.5-1.7-3.6-2.8c-1.8-1.9-2.7-4.6-4.8-6.3c-0.3-0.2-0.8-0.6-1.1-0.8c-2.1-1.3-4.7-1.1-6.7-2.4c-1.3-0.8-1.3-2.7-2.7-3.5
		c-0.2-0.1-0.4-0.1-0.6,0c-1.9,0.9-8.3,10.2-8.6,10.5c-0.8,1.2-1.9,2.8-2.6,4.1l-7,11.6c4.2,0.3,4.2,0.3,4.5,2.5
		c0.4,2.7,0.4,2.7,0.8,2.7c0.6-0.1,1.7-1,4-3c3.3-2.8,8.8-7.6,15.2-8.3C1430.6,1810.6,1434.9,1813.1,1439.3,1811.5z M1427.8,1819.4
		c-0.1,0-9.3,2.1-12.3,4.4c-1.8,1.4-2.1,5.4-1.1,6.2c1.9,1.4,13.5-5.6,15.7-8.9C1430.7,1820.1,1430.8,1818.9,1427.8,1819.4z
		 M1404,2350.9c-3.5,1.5-1.5,7.1,0.7,7.9c1.5,0.5,10.6,2.3,10.4-1.6C1415,2354.9,1408.6,2349.9,1404,2350.9z M2041.7,1883.8
		c-0.6,0.1-0.5,0.4-0.4,1.1l4.4,0.3C2043.4,1884.1,2042.5,1883.8,2041.7,1883.8z M1613.3,1931.6c4.2-5.6,6.1-9.4,5.5-11.2
		c-0.2-0.1-0.5-0.2-0.8-0.2c-2.3,0.8-8.4,6.1-13.2,12.1c-5.7,7.2-9.7,15.7-15.3,23c-3,3.9-7.2,6.6-10,10.7c-1.1,1.6-0.2,2,0.2,2.2
		c0.7,0.4,0.7,0.4,17.8,1.8c9.8,0.8,16.9,1.7,24.5,3.8c0.9,0.2,2,0.7,2.9,0.7c2.8,0.2,5.6-2.7,8.3,0.2c1.3,1.4,1.5,4.1,1.6,5.8
		c0.1,1.9,1,2.1,1.5,2c2.7-0.3,6.1-5.7,6.4-10.3c0.5-7.3-4.9-18.7-10.4-24.7c-2.8-3.1-2.8-3.1-12.9-0.9c-3.1,0.7-3.7,0-4.4-2.6
		c-1.3-4.9-2.5-5.8-4.4-6.8c-1-0.5-1-0.9-0.5-1.8C1611.1,1934.4,1612.4,1932.9,1613.3,1931.6z M2011.7,1840.8
		c0.6,3.6-2.1,6.9-0.7,10.5c1.1,0.4,3.3,0.2,8.1-3.5c1.7-1.3,3.2-2.5,4.4-1.8c4.9,2.8-0.8,8.1,0.9,12c3.4,7.9,7.3,9,12.4,10.3
		c7.9,2.1,8.9,2.4,10.3,3.4c0.2,1.3-0.5,2.6,0.2,3.8c2.1,3.8,5.9,6.5,7.7,10.5c1,4.2-4,1.7-7.6,0c-1.6-0.8-1.6-0.8-6-1.1
		c1.8,5.3,7.6,7.8,8.7,13.5c0.6,3.1-2.2,4.7-6.2,6.7c-1.1,0.5-2.7,1.3-2.1,2.5c0.3,0.6,2.1,2.7,11.6,2.5c4.1-0.1,12.5-0.4,12.7,2.5
		c0.2,2.6-1.7,2.6-4.6,2.5c-2.8,0-3.7,0.8-4.8,1.8c-2.1,1.9-2.4,4.9-4.2,7c-2.2,2.6-5.3,4.1-7.6,6.6c0,0.2,0.1,0.6,0.1,0.8
		c1.3,0.3,1.3,0.3,19.5-2c9.2-1.2,18.6-0.4,27.8-1.8c0.1,0,0.2,0,0.3-0.1l15.9-5.5c0.1-0.1,0.1-0.4,0.2-0.6
		c-3.3-3.3-7.5-0.4-11.1-1.7c-1.7-4.9,2.7-9.4,0.9-14.2c-3.2-8.7-6.6-8.6-9.3-8.4c-6.1,0.3-10.3-8.5-10.3-8.6c0-0.1,0.1-0.3,0.2-0.4
		c0.4-0.1,0.4-0.1,5.2,1c2.2,0.8,5.2,1.8,4.9,0.7c0-0.1-0.1-0.1-0.1-0.2c-0.3-0.4-0.9-1.3-2.5-2.6c-7.5-5.9-16.8-8.8-23.6-15.7
		c-3.3-3.3-5.6-7.5-9.6-10.1c-6.9-4.5-13.2-5.4-16.4-5.6c0,0,0,0-0.1,0c4-3.7,9.3-21.9-1.5-22.3c-2-0.1-4.2,0.2-5.7,0.4
		c-6.8,0.9-8.1,1.1-8.1-0.8c-0.1-3.7,6-10.6,1-10.9c-0.1,0-13.5,0.3-15.5,5.1c-0.2,0.5,0.1,1.1,0.1,1.6
		C2008.1,1833,2011.1,1836.4,2011.7,1840.8z M1127.3,2019.6c1.7-4.1,2.7-8.5,4.3-12.7c0.9-2.5,2.1-4.9,3-7.4
		c0.1-0.3,0.2-0.7,0.3-0.9c0-0.1,0.7-2.3-0.4-2.1c-0.2,0-0.4,0.2-0.5,0.3c-3.6,3-7.7,22.2-7,23.4
		C1127.1,2020.1,1127.2,2019.8,1127.3,2019.6z M1924.2,1749.5c0-0.2,0.1-0.6,0-0.8c-0.8-1.4-2.9-3.9-5.5-5c-0.4-0.2-1-0.4-1.4-0.5
		c-3.9-1.1-8-0.1-11.8-1.7c-2.7-1.1-4.7-3.9-7.9-3.7c-3.7,0.9-7.2,2.5-10.9,3.4c-3.6,0.9-7.4,0.7-11,1.9c-2.3,0.8-0.6,3.7-2.4,4.7
		c-1.9,1.1-3.9-1-5.8,0.1c-0.3,0.2-0.7,0.4-1,0.6c-0.7,3.3,2.2,7-1.3,9.9c-1.1-0.4-9.2-7.3-10.6-9.9c-3.1-5.9-16-9.6-19.6-6.7
		c1,3,4.6,2.4,6.2,4.6c-1,4.3-6.1,3.7-8.1,6.7c1.2,0.9,5.2,0.3,7.5-0.2c4-0.7,16.7,3.8,9.6,9.7c3,3.8,7.1,0.6,10.5,1.6
		c3.6,1,3.6,2.4,3.6,5.6c0.8,0.7,1.6,1,8.7,0.3c4.7-0.5,6.3-0.6,7.8-0.5c3.4,0.2,6.6,1.8,10,2c0.4,0,1,0.1,1.4,0
		c1.2,0,2.9-0.1,12.3-2.4c8.5-2.1,21.6-11.8,20.9-14.6c-0.4-1.8-1.9-3.1-2.5-4.8C1923.1,1749.4,1923.1,1749.4,1924.2,1749.5z
		 M1415.6,2335.3c3.7,5,27.1,6.8,27.5,4c0.2-1.5-29.7-36.9-30.1-37.1c-3.1-2.2-12.4-8.8-29.7-5.2c-9.7,3.2-16.4,9.9-16.4,10.2
		c1.2,1.2,8.6,0.1,14.7-3.5c8.7-5.1,14.4-2.2,15-0.7c-0.5,0.9-1.6,2.1-4.4,0.5c-0.1,0.1-0.2,0.2-0.3,0.2c0.3,4.3,7.3,6.1,11.9,7.2
		c8.5,2.2,9,4,10.8,9.5c0.9,2.7,1.4,4.4,3.2,6.7c1.2,1.6,2.2,2.8,2.2,3.7C1420.2,2333.9,1416.9,2333.7,1415.6,2335.3z
		 M1452.8,2364.6c2.4,1.4,0.5,6,3.9,6.3c6,0.6,5.3-7.6,10.4-8.2c0.6-0.1,1.1,0,2.9,0.3c9.2,1.6,24.9,2.1,25,2.1
		c0.8-0.1,1.3-0.3,1.3-1c0.2-2.7-2.1-5-1.4-7.8c2.2-8.7-41.4-12.6-44.1-12.1c-0.7,0.2-0.8,0.3-1.1,0.6c0,0.7,0,0.7,0.6,1.3
		c6.4,6.1,4.3,13.1,4,13.4c-0.8,0.7-4.3,0.2-9.1-0.6c-8.8-1.5-9.7-1.2-10.2-1c0.1,0.1,0.2,0.4,0.3,0.5
		C1440.9,2361.6,1447.4,2361.5,1452.8,2364.6z M1540.5,1950.7c-3.7,1.4,4.8,5.7,6.6,6.5c11.2,5.4,15.2-0.4,15.2-0.5
		C1563.6,1953.6,1544.6,1950,1540.5,1950.7z M2244,2667.3c-12.3,16.3-12.6,16.4-20.7,19.3c-6.6,2.4-8.7,5.5-18.6,20.3
		c-4.9,7.4-6.8,8.9-11.7,12.8c-14.9,12-35.1,38.4-35.7,40.5c5.4,0.1,5.4,0.1,26-20.1c16.8-16.4,31.5-34.8,47.6-52
		c-0.1,0.5-0.1,0.5-1.5,2.9c0.6-0.5,0.6-0.5,2.2-2.4c3.8-4.9,15.4-20.9,17.2-26.6c-0.1-0.1-0.3-0.1-0.4-0.2
		C2247,2663.3,2247,2663.3,2244,2667.3z M1830.7,2556.5c0.1,0.3,0,0.8,0,1.1c0,0.3-9.1,28.5-34.6,38c0.2,0.9,0.8,2,1.3,2.7
		c2.8,3.9,1.3,6.2-2.7,12.1c-3.4,5.2-0.4,10.6-0.6,15.9c-0.4,9.5,0.4,19-0.8,28.4c-0.6,4.3-0.9,4.3-5.4,3.7
		c-2.6-0.4-5.7-0.3-9.1,2.9c-7.6,7.1-7.8,20.1-18.6,24.7c-4.7,2-16.2,7.7-20.6,17.3c-0.1,0.8-13.1,76.1-43.5,77l3.9,5.7
		c3.5,5.2-1,16.5-14.4,12.3c-0.6,0.4-1.3,0.9-1.9,1.2c0.6,5.5,0.6,5.5-7,12.4c9.8,13.9,9.8,13.9,9.9,14.8c-8.1-0.3-8.1-0.3-9.9,0.3
		c11.3,31.9,11.3,31.9,17.3,38.4c-4.1,18.7-4.1,18.7,39.1,41.4c-0.4,0.1-45.2,7.5-91.5-59.2c-36.5-52.6-57.5-148.8-57.7-149.8
		c-3.9-20.3-11.9-35.8-22.6-43.6c-14.1-10.4-32.2-13.1-45.6-24.9c-0.4-0.4-55.2-55.8-68.5-76c-0.8-1.2-1.7-2.9-2.3-4.2
		c-4.2-7.7,5.6-48.9,5.7-49.2c10.2-22.9,10.2-22.9,8.9-28.3c-4-17.4-15.1-54.4-33.2-23.5c-40.7,1.5-56-45.5-93.1-50.9
		c-1.2-0.2-2.9-0.4-4.2-0.5c-8.3-0.9-8.3-0.9-31.9-14.7c-10.3-6-21.5,0.2-32-2.4c-10.3-2.6-20.8-4.2-31-6.9
		c-2.9-0.8-6.5-2.8-9.3-3.9c-1.5-0.6-3.7-1.4-5-2.4c-9.9-7.2-7.6-19.8-12.5-29.3c-6-11.7-18.2-17.7-25.3-28.4
		c-5.5-8.2-11.9-15.8-17.1-24.3c-2.4-4-3.8-10.3-5-15.9c-1.7-7.9-3-14.1-15.8-23.6c10.2,42.1,16.1,50.8,21.4,58.5
		c11.7,16.9,9.3,20.5,6.9,24c-0.2-0.3-25.6-33.8-29.1-41.2c2.1-0.1,4.8-0.2,6.8-0.2c-28.7-60.2-28.7-60.2-30.4-60.5
		c-13.2-23.7-6.3-150.4,13.5-175.7c1.7,0.8,3.8,2,5.4,2.9c0.3-5-1.4-9.7-3-14.4c0,0.1,0,0.2,0,0.2c0,0.8,0.2,1.6,0.2,2.4
		c0,0.6-0.1,1.8-0.5,3c-0.5,1.3-1.3,2.2-2.2,2.4c-0.1,0-3.4,0.7-4.8-4.1c-1.7-5.8-0.2-12.9-0.2-13c0,0,0,0,0.1,0
		c0.6,0.1,1.3,2.6,1.5,3.4c0.4,1.5,0.5,1.6,0.7,1.8c0.2,0.3,0.6,0.4,1.3,0.4c1.4,0.1,2.4,0.3,3,0.6c-1.5-4.5-2.6-9-1.6-13.9
		c4-20.7,4-20.7,7.8-32.8c-0.5-0.9-1.3-2.1-1.8-3c0.8-2.4,1.8-5.6,2.6-8c1.4-8.3,1.4-8.3,13.2-38.6c-0.3,0.4-0.6,0.9-0.9,1.3
		c17.4-29.6,18.3-30.8,57.9-83.6c9.2-10.6,21.5-24.7,30.7-35.2c-0.7,0.8-1.4,2-1.9,2.9c14.9-15.2,26.8-24.3,26.8-24.3
		c-5.3,5.1-11,9.7-16.3,14.9c0,0,0,0,0.1,0c16.7-14.5,16.7-14.5,25.8-23.1c-5.3,6.7-5.3,6.7-7,10.4c3.3-3.3,3.3-3.3,5.4-4.8
		c-0.7,0.9-1.6,2.3-2.1,3.4c3-2.1,5.2-5.4,9-6.2c0.8,0.7,1.7,1.8,2.3,2.7c5.4,0.6,5.6,0.4,7.5-0.6c0.4,0.2,1,0.6,1.4,0.8
		c-1.3,5.7-6.9,6.9-10.3,10.4c8.2,1.3,14.4-5.1,22-6.3c0.5,4-3.1,7.5-1.6,11.7c8.3-16.6,12.5-24.9,26.4-28.6c1.2,1.7,1,3.9,2.1,5.5
		c17.3,0.8,22-2.2,22.7-2.8c14-11.3,14-11.3,18.3-10.2c-7.5,8.2-7.5,8.2-3.5,12.5c4.3-10.2,15.7-13.3,21-22.5
		c-0.5-0.1-1.1-0.3-1.6-0.4c0,0,0,0,0,0s0,0,0.1-1.3c2.5-2.4,3.4-2.9,8.8-5.7c-0.1-0.5-0.3-1.2-0.4-1.6c-2.6,0.2-5.2,0.8-7.8,0.8
		c-0.2-0.5-0.6-1.2-0.8-1.8c0.2-0.4,33.5-47.7,58.1-53.6c3.4-0.6,3.4-0.6,5.6-0.4c-30.7,18.5-30.7,18.5-37.3,28.9
		c0.5,0.4,1.2,0.9,1.7,1.3c0,2.3,0,2.3-11.5,21.3c6.7,0.3,6.7,0.3,7.1,0.4c-0.1,0.1-7.7,10.2-6.3,14.1c5.5-5,8.5-12.7,15.9-15.5
		c6.6,7.1-7.5,11.6-8.5,18.7c11.7,10.7,18.6-12.4,28.2-18c5.3-23.1,20.9-6.8,21.1-6.7c-0.9,1.7-1.1,3.8-2.3,5.3
		c-2.2,2.4-6.1,2.1-7.8,5.2c-1.8,3.5,1.5,7.2-0.5,10.6c-0.7,1.2-2,2.7-3,3.6c-4.9,4.4-4.9,4.4-23.4,11.2c-5.6-3.6-10.9,2.9-10.9,3
		c1,0.1,2.3,0.5,3.1,1.1c-8.1,12.7-21.8,5.9-32.5,9.8c9,5.2,11.3,4.8,22.4,2.8c-16.3,17.8-16.3,17.8-44.9,23
		c2.8,2.3,7.7,0.2,9.4,4.8c-14.7,11.2-49.2,37.3-46.7,51.8c10.9,0.9,10.9,0.9,11.7,5.6c2.2,13.6,2.2,13.6,4,15.1
		c5-1.5,9.2-5.9,15-4.8c1.1,0.2,2.6,0.6,3.7,1c6.4,2.3,9.8,9.2,16.4,11c6.5,1.8,13.9-3.6,19.9,2.4c1.1,0,2.6,0.1,3.7,0.2
		c0.2,0.6,0,1.7,0.2,2.2c-1,0.8-2.6,2.2-3.6,3c1.9,4.8,3.4,8.6-0.1,19c6.4,4.7,14.6,6.8,19.2,14c14.8-10.5,6.2-27,9.7-40.3
		c2.6-2,2.9-2.3,3.5-3.2c-1.4-4.8,5-6.9,7.8-7.6c12.9-3,12.5-25.9,12.4-26.1c-0.2-5.7-6-9.1-5.7-15c0.3-5.1,5.8-6.6,7.2-10.9
		c-7.2-9.3,3.4-17.2,1.8-26.1c9.1-3.9,19.1-1.8,28.5-4.3c1.7-0.2,2.2-0.2,4.5,0.6c10.2,3.4,11.2,5.2,11.7,6c1.3,2.2,1.9,2.9,2.8,3.3
		c4.1,1.6,8.5-0.5,12.6,0.9c-4.3,3.5-7.1,18.4-5.8,20.6c7.1,1.6,12.7,8.3,20.8,5.8c1.3-0.4,1.3-0.4,6-6.9c2.1-2.8,5.9-0.5,8.1-3
		c1.9-2.2-1-4.5,0.1-6.7c7.3-14.3,7.3-14.3,22.2,13c5.9,10.8,5.9,10.8,3.2,14.7c-1.8,2.6-2.5,3.8-1.5,5.2c2.3,3.2,6.9,2.4,9.2,5.6
		c1.7,2.3-0.2,5.1,0.6,7.5c1.4,0.5,1.4,0.5,4.2-0.2c48.3-13,2.4,18.1,1.9,18.8c0.4,0.9,0.9,2,1.3,2.9c11.1-7.4,17.4-8.1,19.4-8.3
		c0,0,0.1,0,3,0c3.4,0.7,6.8,1.5,10.2,2.2c0.6,0.9,1.3,2.1,1.9,3c-3.1,7.7-3.1,7.7-1,13c-6.5,12-48.9,33.6-58.3,26.9
		c-41.5,12.9-41.5,12.9-81.9,55.8c58.7-37.6,58.7-37.6,62.9-33.3c-1.8,8.5-7.7,10.1-15.9,12.4c2.3,2.9,2.7,3.4,8.2,5.5
		c2.3,7.2,3.3,10.3,9.1,13.1c-1.7-3.6,0.2-8.5,0.5-9c0.1,0,0.1-0.1,0.2-0.1c0.1,0.1,0.2,0.2,0.2,1.2c-0.2,2.6,0.2,4.3,3.2,5.9
		c1.2,0.6,4.7,2,10.7,1c0.9-0.2,1-0.2,1.3-0.1c0,0,0,0.1,0.1,0.1c0,0.1,0,0.1-0.1,0.2c0,0-2.6,3.8-6,4.5c3.4,1,7.5,2.2,12.5,3.6
		c3.9-6,4.1-14.1,10.6-18.5c8.4,21.6-38.6,49.6-53.8,49.3c0.3-4.8,0.3-4.8,22.8-21.1c0-1,0-2.4,0-3.4c-2.2,0.1-5-0.7-7-1.4
		c0.4-0.8,0.9-2,1.3-2.8c-38.9,23.1-38.9,23.1-41.2,22.9c-13.4,12.8-13.4,12.8-15.9,37.3c-2-0.1-29.3,15-29.4,15.2
		c-6.4,6.4-5,15.9-9.2,23.3c-0.8-3.9-3.7-6.5-5.4-9.8c-1.9,31.2-1.9,31.2-4.1,32.6c0,0,0-21.4-0.3-28.4l-4.7,47.4
		c0.9,0.3,2,0.8,2.9,1.1c-0.1,1.1-0.3,2.6-0.4,3.7c-0.9,0.3-2.1,0.6-2.9,0.9c-0.1,0.9-0.2,2.2-0.4,3.1c0.6,0.7,1.5,1.7,2.1,2.4
		c0,0,0,0,0.3,0c-14.1,16.5-39.3,22.5-43.6,48.4c-4.1,25,32.8,47,9.9,71.8c-19.5-11.6-7.1-40.7-27.4-51.8
		c-0.2-0.1-47.6,4.1-53.5,7.6c-0.2,1-0.5,2.4-0.7,3.4c2.6,2.1,5.9,3,8.2,5.5c-0.8,0.7-1.9,1.6-2.7,2.3c-0.2-0.1-30-7-37.7-0.9
		c-4.3,3.4-22.7,22.5-25.7,32.7c-2.4,7.9,6.7,11.2,6.8,18.1c0.2,10.8-9.1,19.7-5.8,31.1c2.7,9.2,10.7,26.7,34.2,40.5
		c10,5.9,15.7-6.7,24.4-6.1c5.4-58.7,30.8-37.7,33.7-35.1c-2.4,14.3-2.4,14.3-9,30.1c3.7,7.9,3.7,7.9-1.4,25
		c15.2,1.1,30.6-7.1,45.7,0.8c0.1,0.1,8.4,14.7,5.6,34.6c-4.6,32.9,45.1,10.6,64.5,24.7c5.8-52.9,57.3-45,122.6-34.9
		c2.1,0.3,5,1.2,6.9,2.2c13.5,6.6,21.9,19.9,34.5,27.7c15.9,9.9,35.6,6.7,51.7,16c12.2,7.2,21,19.8,32.8,27.7
		c6.9,7.6,7.9,20.8,19,25c19.2,4.9,38.8,8.4,57.8,14.3c12.7,4,21.4,15.8,34.7,18.8c4.1,0.9,8.2-2.2,12.3-0.1c5.8,3-0.3,9.4,0.5,14.1
		C1827.7,2551.1,1830.2,2553.4,1830.7,2556.5z M1153.9,1940.8c0.1-0.1,0.1-0.2,0.2-0.3c0,0,0,0,0,0L1153.9,1940.8z M1510.4,2368
		c-3.5,2.4,1,7,5.3,7.8c3,0.5,12.8-0.9,13.2-1.9c0.2-0.5-0.5-1.7-7.7-4C1513.2,2367.3,1512,2367.6,1510.4,2368z"/>
	<g>
		<path class="st2" d="M2370.3,250.4c0,577.3,0,1154.5,0,1731.8c0,307,6.4,610.5-281.9,800c-596.2,391.9-1284.7-414-804.8-941.6
			c264.5-290.9,738.7-260.6,969.6,56.1l0,0c-456.2-628.4-1436.6,18-1045.3,680.8c156.8,265.6,496.2,378.9,780.7,258.4
			c291-123.2,381.7-394.8,381.7-686.8C2370.3,1516.2,2370.3,883.3,2370.3,250.4L2370.3,250.4L2370.3,250.4z"/>
		<path class="st2" d="M506.3,2260.4c2.1,690.8,587.3,1260.7,1279.2,1238.7c677.5-21.5,1188.9-586.2,1199.6-1251
			c10.8-665.5,0-1332,0-1997.6l0,0c0,468.6,0,937.3,0,1405.9c0,293.9,35.2,616.7-37.2,905.9c-118.5,473-517.9,841.5-999,920.9
			C871.5,3660.9,96.9,2395.6,752.5,1518.8c343.9-460,976.3-623.5,1500.7-389.4l0,0c-608.2-271.1-1342.6-1.8-1627.9,600.5
			C546.8,1895.5,506.8,2077.1,506.3,2260.4L506.3,2260.4z"/>
		<path class="st2" d="M506.7,2292.4c-14.7-662.8,511-1236.1,1175.2-1269.8c195.9-10,392.2,27,571.3,106.8v767.3
			c-456.2-628.4-1436.6,18-1045.3,680.8c156.8,265.6,496.2,378.9,780.7,258.4c291-123.2,381.7-394.8,381.7-686.8
			c0-632.9,0-1265.7,0-1898.6h614.8c0,626.2,0,1252.5,0,1878.7c0,317.1-50.7,609.9-244.8,870.8
			c-406.7,546.8-1206.8,659.6-1748.1,244.6C696.5,3017.8,517.2,2664.6,506.7,2292.4L506.7,2292.4z"/>
		
			<linearGradient id="SVGID_1_" gradientUnits="userSpaceOnUse" x1="1028.9509" y1="-1613.5621" x2="2468.9741" y2="-1613.5621" gradientTransform="matrix(1 0 0 -1 0 0)">
			<stop  offset="0" style="stop-color:#810000"/>
			<stop  offset="0.2086" style="stop-color:#A90000"/>
			<stop  offset="0.4425" style="stop-color:#CE0000"/>
			<stop  offset="0.6601" style="stop-color:#E90000"/>
			<stop  offset="0.8526" style="stop-color:#F90000"/>
			<stop  offset="1" style="stop-color:#FF0000"/>
		</linearGradient>
		<path class="st4" d="M1029.7,2223.6c-22.6,503,486,884.9,962.4,710.1c567.9-208.3,470.6-843.2,470.6-1325.3
			c0-421.9,0-843.8,0-1265.7l-92.3-92.3c0,577.3,0,1154.5,0,1731.8c0,307,6.4,610.4-281.9,800c-596.2,391.9-1284.7-414-804.8-941.6
			c264.5-290.9,738.7-260.6,969.6,56.1c-24.6-75.8-55.6-149.5-92.3-220.2C1705.9,1351.4,1061.1,1671.8,1029.7,2223.6L1029.7,2223.6z
			"/>
		
			<linearGradient id="SVGID_00000108291769027413808970000005061851688388970380_" gradientUnits="userSpaceOnUse" x1="506.3662" y1="-1867.0674" x2="2987.5923" y2="-1867.0674" gradientTransform="matrix(1 0 0 -1 0 0)">
			<stop  offset="0" style="stop-color:#FF0000"/>
			<stop  offset="0.1474" style="stop-color:#F90000"/>
			<stop  offset="0.3399" style="stop-color:#E90000"/>
			<stop  offset="0.5575" style="stop-color:#CE0000"/>
			<stop  offset="0.7914" style="stop-color:#A90000"/>
			<stop  offset="1" style="stop-color:#810000"/>
		</linearGradient>
		<path style="fill:url(#SVGID_00000108291769027413808970000005061851688388970380_);" d="M600.1,2319.5
			c-29.4-604.5,431.3-1143.4,1035.5-1200.9c177.8-16.9,358.8,7.7,525.4,72.2c30.5-20.8,61.3-41.3,92.3-61.4
			C1240.7,677.5,164.5,1738.7,609.7,2756.6c431.4,986.4,1887,964,2287.1-35.9c114-284.9,88.4-591.1,88.4-891.3
			c0-526.4,0-1052.7,0-1579.1l-92.3,92.3c0,607.3,0,1214.6,0,1821.9c0,288.7-56,556.9-234.8,791.1
			c-376.2,492.9-1101.4,595.8-1598.7,223.9C788,2976.7,617.6,2657.9,600.1,2319.5L600.1,2319.5z"/>
		<path class="st6" d="M598.6,2260.4c1.1,630.8,530.4,1155.1,1161.9,1146.9c630-8.2,1119.6-528.2,1132.4-1148.1
			c13.1-638.2,0-1278,0-1916.4h-430.2c0,544.5,0,1089,0,1633.5c0,330.2,0.2,647.4-295.1,863.5
			c-619.9,453.4-1435.6-307.5-1030.1-958.2c215.2-345.2,691.3-441.9,1023.5-205v-485.7C1602.1,974.4,952.7,1237.5,702.8,1782
			C634.1,1931.8,598.9,2095.6,598.6,2260.4L598.6,2260.4z"/>
	</g>
	
		<radialGradient id="SVGID_00000081647769194187152030000009970193382288285570_" cx="1745.7101" cy="-2260.3701" r="624.63" gradientTransform="matrix(1 0 0 -1 0 0)" gradientUnits="userSpaceOnUse">
		<stop  offset="0" style="stop-color:#FFFFFF;stop-opacity:0.8"/>
		<stop  offset="1" style="stop-color:#C4FFFF;stop-opacity:0"/>
	</radialGradient>
	<path style="fill:url(#SVGID_00000081647769194187152030000009970193382288285570_);" d="M2370.3,2260.4
		c0,344.3-280.2,624.6-624.6,624.6c-344.3,0-624.6-280.3-624.6-624.6c0-344.5,280.3-624.6,624.6-624.6
		c209,0,394.2,103.1,507.5,260.9C2326.9,1999.2,2370.3,2124.7,2370.3,2260.4z"/>
</g>
</svg>
