<?xml version="1.0" encoding="utf-8"?>
<!-- Generator: Adobe Illustrator 27.7.0, SVG Export Plug-In . SVG Version: 6.00 Build 0)  -->
<svg version="1.1" id="Layer_1" xmlns="http://www.w3.org/2000/svg" xmlns:xlink="http://www.w3.org/1999/xlink" x="0px" y="0px"
	 viewBox="0 0 3500 3500" style="enable-background:new 0 0 3500 3500;" xml:space="preserve">
<style type="text/css">
	.st0{fill:none;stroke:#80C78B;stroke-width:2;}
	.st1{fill:#008F16;}
	.st2{fill:#FFFFFF;}
</style>
<g>
	<g>
		<path vector-effect="non-scaling-stroke" class="st0" d="M1696.2,2822.4c6.7,46.5,5.8,97.8-8.1,142.4c-3.5,11.3-6.2,18.8-8.2,22.5
			c-8.6,16.1-21.7,42-39.1,77.5c-13.9,28.3-21.7,60.9,1.1,86.9c31.5,35.8,87.8,25.1,127,6.7c31.2-14.7,58.7-36,82.3-64
			c17.5-20.7,30.7-38.1,39.5-52c18.3-29.1,43.2-69.2,74.5-120.3c19.6-31.9,35.9-55,49-69.3c50.7-55.1,110.8-85.6,180.4-91.5
			c12.9-1.1,39.8-0.6,80.5,1.5c35.6,1.8,62.5,2.2,80.7,1.2c211.1-11.9,419.8-48.9,626.1-110.9c151.5-45.5,284.6-119.5,399.5-222
			c14.7-13.1,31-34.6,48.9-64.5c4.3-7.2,5.9-14,4.7-21.6c-4.6-29.8-22.7-65.1-45-84c-18.3-15.5-41.1-18-68.4-7.6
			c-55.4,20.9-101.9,51.5-151.8,90.2c-30.5,23.6-68.3,49.1-113.4,76.6c-23.8,14.5-48.7,27.2-74.7,37.9
			c-235.2,97.6-482.9,135.5-743.1,113.7c-46.6-3.9-89.1-13.7-94.9-68.4c-24.5-233.8-51.8-457.4-81.9-670.5
			c-25.3-178.9-76.5-353.7-149.1-520.2c-27.4-62.8-50.2-111.5-68.6-146c-52.3-98.3-148.2-276.4-287.8-534.1c-2.1-3.9-5-8.9-8.8-14.9
			c-4.9-7.8-9.6-8.7-18.2-6.8c-27.2,6-54.7,11.9-82.4,17.5c-17.9,3.7-30.2,7.5-37.1,11.6c-26,15.4-45.6,45.4-34.5,76.1
			c18.5,51.1,44.1,100.4,76.9,148c18.8,27.3,45.9,64.8,81.2,112.3c20.5,27.7,44.1,63.8,70.8,108.5
			c218,365.6,338.1,761.9,360.1,1188.9c2.1,40.1,3.2,71.4,3.3,93.7c0.8,115.8-15.4,229.5-48.7,341.2c-13,43.8-22.4,71-28.2,81.5
			c-15.5,28.2-35.1,55.9-58.8,83.2c-0.9,1-2.4,1.1-3.4,0.3c-0.5-0.4-0.8-0.9-0.8-1.5c-2.2-14.8,4.8-24.9,12.2-42.6
			c3.8-8.9,6.4-16.8,8-23.9c28.4-125.8,32.8-246.8,13.2-363c-20.5-121.8-50.1-251.4-89-389c-29.7-105.4-72.9-201.9-129.4-289.2
			c-12.2-18.9-27.6-36-46-51.4c-14.1-11.7-27.2-16.2-41.6-2.9c-27.8,25.6-34.6,56.6-20.4,92.8c34.1,87,65.5,160.9,81.2,243.2
			c5.3,27.4,7.1,61.5,0,84.8c-5.5,18.2-13.6,30.8-24.2,38c-31,21.1-55.9,43.2-74.6,66.5c-11.1,13.8-28.5,39.8-52.2,77.9
			c-32.8,52.8-64.4,110.1-94.8,172c-13.2,27-24,44.5-32.2,52.5c-15.5,15.1-35.1,24.1-58.8,26.8c-13.1,1.5-24.4,3.3-33.9-2.8
			c-8.1-5.2-10.8-13.5-8.1-25.1c2.3-9.9,5.3-20,9.2-30.4c47.4-128.4,98.4-255.2,153.1-380.5c12.9-29.6,21.3-52.6,25.2-69.2
			c5.3-22.6,7.5-47.2,6.6-73.9c-0.9-24.2-22.8-45.7-47.2-47.7c-29.5-2.4-48.9,11.2-58.4,40.9c-5.1,16-13.4,42.8-24.8,80.6
			c-11.3,37.2-20.4,63.8-27.5,79.7c-57.7,129.9-171.4,207.5-308,236.7c-94.1,20.2-188.4,34.3-282.7,42.2
			c-84.2,7.1-171.7,7.6-262.5,1.5c-51.2-3.4-98.6-15.7-138.8-47.1c-27.2-21.3-38.8-49.7-34.9-85.3c5-45.8,37.6-93.2,69.1-127
			c38.2-40.9,81.1-75.2,128.5-102.6c69.9-40.5,146.7-62,230.1-64.7c29.1-0.9,47.2-2.6,54.4-5.1c19.8-6.8,32.7-21.9,38.6-45.4
			c3.3-13.4,3.9-30.4,1.5-50.9c-5.3-46.4-40.1-60.6-82.1-58.4c-124.2,6.5-240.6,36.2-349.5,89.2c-85.4,41.6-157.4,104.4-216.1,188.3
			c-16.8,24-28.8,46.1-36.1,66.4c-33.2,92-18.8,188.4,52.3,256c30.5,29,65.8,51.9,105.9,68.6c65.8,27.4,134.6,43,206.4,46.8
			c108.9,5.7,214.5,4.9,316.7-2.3c50.2-3.6,91.7-8.1,124.6-13.6c50.1-8.4,105.1-23.4,165-45.1c3.8-1.4,6.4-1.6,7.7-0.6
			c3.1,2.3,4.3,6.4,3,10.2c-14.3,43.2-21.3,85.4-20.8,126.6c0.7,63.4,21.2,119.9,61.5,169.5c22.6,27.8,49.8,51.9,84.8,57.9
			c66.6,11.4,130.6-53.9,167.9-101.5c2.8-3.6,5.9-6.1,9.1-7.6c5-2.3,9.3-0.8,12.9,4.8c36.6,57,92.9,111.2,161,110.1
			c49.7-0.8,97.8-17.4,147-35.1c2.4-0.9,5,0.4,5.8,2.7C1696.1,2821.8,1696.2,2822.1,1696.2,2822.4"/>
		<path vector-effect="non-scaling-stroke" class="st0" d="M2935.9,1831.1c7.8,66.8,10.6,134.6,12.2,201.8
			c0.2,7.9,2.5,13.2,10.7,14.2c12,1.6,24.1,1.2,36.2-1c10.9-2.1,21.1-3.7,21.1-14.4c-0.2-72.9-4.2-142.5-12-208.7
			c-7.7-66.2-19.8-134.8-36.5-205.8c-2.4-10.4-12.7-9.7-23.8-9.1c-12.3,0.6-24.1,3.1-35.4,7.4c-7.7,2.9-8.7,8.5-7.1,16.3
			C2915.2,1697.6,2928,1764.2,2935.9,1831.1"/>
		<path vector-effect="non-scaling-stroke" class="st0" d="M552,1803.4c153.6,5.7,305-10.3,454-48c50.7-12.9,87.3-38.4,101.7-89.9
			c3.9-14,3.7-25.3-0.5-34c-6.5-13.2-18.4-19.4-35.6-18.4c-108,6.1-217.1,14.7-327.5,25.9c-61.3,6.2-111.7,12.8-151.1,19.8
			c-42.3,7.6-89.8,31-97.2,78.6c-2.3,15.1,0.9,27.9,9.9,38.4C517.8,1790,534.2,1802.8,552,1803.4"/>
		<path vector-effect="non-scaling-stroke" class="st0" d="M2310.6,2049.9c2.6,0.8,4,3.6,3.2,6.2c-0.1,0.3-0.2,0.6-0.4,0.9
			c-12.4,21.9-25.3,44-38.4,66.4c-10.8,18.3,3.1,24.5,18.8,33.8c8.9,5.2,16.8,9.7,23.6,13.5c2.6,1.4,5.8,0.9,7.7-1.4
			c27.2-31,48.7-67.1,64.3-108.5c2.7-7,7.6-10.7,14.6-11.1c26-1.3,67.1-1.4,123.3-0.3c41.8,0.8,77.5-12.2,97.2-50.4
			c12.1-23.5,16.2-48.4,12.3-74.7c-2.6-17.7-6.8-35-12.6-51.7c-16-46-31.4-87.8-46.2-125.4c-1.8-4.6-7-6.8-11.6-5
			c-0.3,0.1-0.5,0.2-0.8,0.4c-15.7,8-30.3,15.8-44,23.4c-7,3.8-9.1,9.2-6.5,16c20.6,53.2,35.8,97,45.7,131.5
			c3.9,13.6,5.3,24.6,4.1,33.1c-3.7,25.8-22.7,31.3-47.1,32.8c-31.4,1.8-67.8,1.7-108.9-0.3c-4.7-0.2-8.7-3.8-9.3-8.5
			c-9.9-77.7-40.6-145.2-92-202.4c-8.3-9.3-20.2-16.7-35.5-22.2c-49.1-17.7-75.2,32.7-87.4,70.3c-22.4,69-16.7,135.6,17.2,199.7
			c10.2,19.3,26.9,30.2,50.3,32.8c16.9,1.9,33,2,48.5,0.5C2304.7,2048.9,2308,2049.1,2310.6,2049.9"/>
		<path vector-effect="non-scaling-stroke" class="st0" d="M3127.1,1961.6c5.3,57.1-19.4,112-52.1,157.9c-5.8,8.1-8.4,15-3.7,23.7
			c1.8,3.5,6.1,7.1,12.8,11c9.6,5.6,18.3,10.6,26.2,15c7.8,4.4,14.4,3.3,19.9-3.3c47.2-56.3,69-121.6,65.3-195.8
			c-3.8-74.8-32.1-149.7-65.3-223.5c-2.2-4.9-7.9-7-12.8-4.8c-0.3,0.1-0.6,0.3-0.8,0.4l-39.7,23c-6.2,3.5-8.6,11.2-5.7,17.7
			C3096.6,1839.7,3121.7,1903.2,3127.1,1961.6"/>
		<path vector-effect="non-scaling-stroke" class="st0" d="M2810.2,1948.8c6.7,10.5,1.7,24.4-8.6,29.7c-3.5,1.8-9.1,2.7-17,2.7
			c-55.7,0-85.4,0.1-89.1,0.1c-8.7,0.1-15.7,7.2-15.7,15.9v42.1c0,5,4,9.1,9,9.1c0,0,0,0,0,0c36.4,0.1,71.2-0.1,104.3-0.6
			c26.8-0.4,45.3-3.4,55.4-8.9c19.6-10.7,31.6-27.3,35.9-50c6.2-32.8-1.1-63.4-21.9-91.6c-63.6-86.4-97.7-132.8-102.2-139.1
			c-4.3-5.9-12.5-7.3-18.5-3.2l-33.3,22.6c-6,4.1-7.6,12.3-3.4,18.4c0,0,0,0,0,0C2773.4,1895.1,2808.4,1946,2810.2,1948.8"/>
		<path vector-effect="non-scaling-stroke" class="st0" d="M2644.4,2109.1c0-9-7.3-16.3-16.3-16.3h-151.5c-9,0-16.3,7.3-16.3,16.3
			v46c0,9,7.3,16.3,16.3,16.3h151.5c9,0,16.3-7.3,16.3-16.3V2109.1"/>
	</g>
	<path class="st1" d="M1907.2,1138.1c3.7,6.7,5.8,6.2,6.4-1.4c1.3-16.3,2.1-33.2,2.3-50.7c0.2-11.6,1.3-28.6,3.4-50.8
		c18.9-202.7,92.2-383.4,220-542c18.3-22.7,39.2-46.8,62.8-72.2c77.9-84.1,173.7-139.1,287.6-165c5.1-1.2,10.2,1.8,11.8,6.8
		c1.3,4.2,2.2,9.2,2.8,14.9c6.5,65.7,11.8,136.6,15.9,212.7c0.9,17.3,0.6,54.5-0.9,111.4c-1.8,69.3-12.3,141.8-31.4,217.6
		c-30.6,121.2-89.4,222.7-176.3,304.5c-27.8,26.2-61.1,53.6-99.7,82.1c-34.1,25.1-88.6,61.8-163.7,109.9
		c-1.4,0.9-11.6,7.4-30.8,19.5c-7.4,4.7-11.6,9.7-12.6,14.9c-1.4,7.9,0.9,15.2,6.9,21.7c5.2,5.7,12.1,6.8,20.9,3.4
		c50.5-19.7,91.8-35.4,123.8-47.1c28-10.3,58.1-18.8,90.2-25.8c80.7-17.3,156.3-26.9,226.7-28.8c151.1-3.9,292.9,27.5,425.3,94.2
		c28.5,14.4,55.6,30,81.3,46.9c140.4,92.4,252.3,212.5,335.5,360.3c43.5,77.2,79.2,158.8,107.1,244.6
		c30.6,94.1,54.7,191.1,72.5,290.9c5,28.2,8.3,48.2-1,77.1c-9.4,28.9-25.5,55.6-48.4,80.2c-20.5,21.9-43.2,42.2-68.3,60.7
		c-79.3,58.7-163.5,106.6-252.6,143.7c-70.6,29.3-139.1,52.8-205.3,70.4c-127.6,33.9-262.3,59-404,75.2
		c-71.9,8.2-136.3,12.4-193.3,12.8c-29.1,0.1-60-0.3-92.6-1.1c-11-0.3-20.5,0-28.4,1.1c-3.5,0.5-12.9,1.6-28.3,3.5
		c-34.4,4.1-64.6,19.5-90.7,46c-16.1,16.4-30.7,34.6-43.7,54.8c-31.1,48.1-78.1,134.7-124.1,193.8c-11.3,14.6-26.6,30.6-45.7,48
		c-45,41-97,63.3-155.8,66.7c-43.6,2.6-85.4-8.3-115.7-38.2c-22.1-22-34.7-49-37.5-81.3c-2.8-31.4,3-61.8,17.5-91.3
		c19-38.7,36.3-77.8,51-111.8c1.2-2.6,0-5.7-2.6-6.8c-1-0.4-2.1-0.6-3.2-0.3c-92.5,19.9-174.9-0.3-247.3-60.7
		c-2.9-2.4-7.1-2.6-10.2-0.5c-17.6,12.1-37.3,25.2-59.2,39.3c-5.2,3.4-14.1,7.8-26.7,13.3c-59.9,26.3-116,21.5-168.3-14.4
		c-69.2-47.6-115.1-130.7-128.6-214c-4.6-28.8-6.7-57.4-6.1-85.8c0-2.9-2.3-5.2-5.2-5.3c-0.4,0-0.7,0-1.1,0.1
		c-64.2,12.8-130.7,21.4-199.7,25.8c-43.7,2.8-67.9,4.3-72.6,4.6c-63,3.8-134.2,2.2-190,2c-32.1-0.1-57.4-2.7-93.9-6.2
		c-58.5-5.6-115.9-18.5-172.3-38.7c-54-19.3-100.3-46.2-138.9-80.5c-57.8-51.4-103.9-136.4-102.1-216c0.7-29.2,4.9-60.3,12.8-93.2
		c21.5-89.7,50.2-177.2,86.1-262.5c56.6-134.3,136.7-265.5,239.1-370.8c143.2-147.2,315.9-236.8,517.9-268.8
		c30.5-4.8,61.6-7.9,93.4-9.2c116.1-4.9,229.5,9.6,340.1,43.6c48.3,14.9,100.3,32.8,155.9,53.8c42.3,16,71.7,26.4,88.4,31.4
		c48.6,14.6,101.6,26,158.9,34.2c3.7,0.5,6.8,0,7.8-1.2c1.7-2.1,1.6-5.1-0.1-9.1c-71.4-161.7-147.3-299.4-227.9-413
		c-9.2-13-29.5-40.8-60.9-83.6c-26.6-36.1-44.2-61.9-52.8-77.2c-18.4-32.8-34.4-67.7-47.8-104.6c-17.6-48.1-9.6-92,23.9-131.6
		c26.5-31.2,54.1-41.2,97.3-51.3c35.2-8.2,63.5-16.2,85-24c14.5-5.2,26.3-7.2,35.5-5.9c22.4,3.3,39.1,15.2,50.1,35.7
		C1794.7,928.5,1896.1,1117.8,1907.2,1138.1z M1696.2,2822.4c6.7,46.5,5.8,97.8-8.1,142.4c-3.5,11.3-6.2,18.8-8.2,22.5
		c-8.6,16.1-21.7,42-39.1,77.5c-13.9,28.3-21.7,60.9,1.1,86.9c31.5,35.8,87.8,25.1,127,6.7c31.2-14.7,58.7-36,82.3-64
		c17.5-20.7,30.7-38.1,39.5-52c18.3-29.1,43.2-69.2,74.5-120.3c19.6-31.9,35.9-55,49-69.3c50.7-55.1,110.8-85.6,180.4-91.5
		c12.9-1.1,39.8-0.6,80.5,1.5c35.6,1.8,62.5,2.2,80.7,1.2c211.1-11.9,419.8-48.9,626.1-110.9c151.5-45.5,284.6-119.5,399.5-222
		c14.7-13.1,31-34.6,48.9-64.5c4.3-7.2,5.9-14,4.7-21.6c-4.6-29.8-22.7-65.1-45-84c-18.3-15.5-41.1-18-68.4-7.6
		c-55.4,20.9-101.9,51.5-151.8,90.2c-30.5,23.6-68.3,49.1-113.4,76.6c-23.8,14.5-48.7,27.2-74.7,37.9
		c-235.2,97.6-482.9,135.5-743.1,113.7c-46.6-3.9-89.1-13.7-94.9-68.4c-24.5-233.8-51.8-457.4-81.9-670.5
		c-25.3-178.9-76.5-353.7-149.1-520.2c-27.4-62.8-50.2-111.5-68.6-146c-52.3-98.3-148.2-276.4-287.8-534.1c-2.1-3.9-5-8.9-8.8-14.9
		c-4.9-7.8-9.6-8.7-18.2-6.8c-27.2,6-54.7,11.9-82.4,17.5c-17.9,3.7-30.2,7.5-37.1,11.6c-26,15.4-45.6,45.4-34.5,76.1
		c18.5,51.1,44.1,100.4,76.9,148c18.8,27.3,45.9,64.8,81.2,112.3c20.5,27.7,44.1,63.8,70.8,108.5
		c218,365.6,338.1,761.9,360.1,1188.9c2.1,40.1,3.2,71.4,3.3,93.7c0.8,115.8-15.4,229.5-48.7,341.2c-13,43.8-22.4,71-28.2,81.5
		c-15.5,28.2-35.1,55.9-58.8,83.2c-0.9,1-2.4,1.1-3.4,0.3c-0.5-0.4-0.8-0.9-0.8-1.5c-2.2-14.8,4.8-24.9,12.2-42.6
		c3.8-8.9,6.4-16.8,8-23.9c28.4-125.8,32.8-246.8,13.2-363c-20.5-121.8-50.1-251.4-89-389c-29.7-105.4-72.9-201.9-129.4-289.2
		c-12.2-18.9-27.6-36-46-51.4c-14.1-11.7-27.2-16.2-41.6-2.9c-27.8,25.6-34.6,56.6-20.4,92.8c34.1,87,65.5,160.9,81.2,243.2
		c5.3,27.4,7.1,61.5,0,84.8c-5.5,18.2-13.6,30.8-24.2,38c-31,21.1-55.9,43.2-74.6,66.5c-11.1,13.8-28.5,39.8-52.2,77.9
		c-32.8,52.8-64.4,110.1-94.8,172c-13.2,27-24,44.5-32.2,52.5c-15.5,15.1-35.1,24.1-58.8,26.8c-13.1,1.5-24.4,3.3-33.9-2.8
		c-8.1-5.2-10.8-13.5-8.1-25.1c2.3-9.9,5.3-20,9.2-30.4c47.4-128.4,98.4-255.2,153.1-380.5c12.9-29.6,21.3-52.6,25.2-69.2
		c5.3-22.6,7.5-47.2,6.6-73.9c-0.9-24.2-22.8-45.7-47.2-47.7c-29.5-2.4-48.9,11.2-58.4,40.9c-5.1,16-13.4,42.8-24.8,80.6
		c-11.3,37.2-20.4,63.8-27.5,79.7c-57.7,129.9-171.4,207.5-308,236.7c-94.1,20.2-188.4,34.3-282.7,42.2
		c-84.2,7.1-171.7,7.6-262.5,1.5c-51.2-3.4-98.6-15.7-138.8-47.1c-27.2-21.3-38.8-49.7-34.9-85.3c5-45.8,37.6-93.2,69.1-127
		c38.2-40.9,81.1-75.2,128.5-102.6c69.9-40.5,146.7-62,230.1-64.7c29.1-0.9,47.2-2.6,54.4-5.1c19.8-6.8,32.7-21.9,38.6-45.4
		c3.3-13.4,3.9-30.4,1.5-50.9c-5.3-46.4-40.1-60.6-82.1-58.4c-124.2,6.5-240.6,36.2-349.5,89.2c-85.4,41.6-157.4,104.4-216.1,188.3
		c-16.8,24-28.8,46.1-36.1,66.4c-33.2,92-18.8,188.4,52.3,256c30.5,29,65.8,51.9,105.9,68.6c65.8,27.4,134.6,43,206.4,46.8
		c108.9,5.7,214.5,4.9,316.7-2.3c50.2-3.6,91.7-8.1,124.6-13.6c50.1-8.4,105.1-23.4,165-45.1c3.8-1.4,6.4-1.6,7.7-0.6
		c3.1,2.3,4.3,6.4,3,10.2c-14.3,43.2-21.3,85.4-20.8,126.6c0.7,63.4,21.2,119.9,61.5,169.5c22.6,27.8,49.8,51.9,84.8,57.9
		c66.6,11.4,130.6-53.9,167.9-101.5c2.8-3.6,5.9-6.1,9.1-7.6c5-2.3,9.3-0.8,12.9,4.8c36.6,57,92.9,111.2,161,110.1
		c49.7-0.8,97.8-17.4,147-35.1c2.4-0.9,5,0.4,5.8,2.7C1696.1,2821.8,1696.2,2822.1,1696.2,2822.4z M2935.9,1831.1
		c7.8,66.8,10.6,134.6,12.2,201.8c0.2,7.9,2.5,13.2,10.7,14.2c12,1.6,24.1,1.2,36.2-1c10.9-2.1,21.1-3.7,21.1-14.4
		c-0.2-72.9-4.2-142.5-12-208.7c-7.7-66.2-19.8-134.8-36.5-205.8c-2.4-10.4-12.7-9.7-23.8-9.1c-12.3,0.6-24.1,3.1-35.4,7.4
		c-7.7,2.9-8.7,8.5-7.1,16.3C2915.2,1697.6,2928,1764.2,2935.9,1831.1z M552,1803.4c153.6,5.7,305-10.3,454-48
		c50.7-12.9,87.3-38.4,101.7-89.9c3.9-14,3.7-25.3-0.5-34c-6.5-13.2-18.4-19.4-35.6-18.4c-108,6.1-217.1,14.7-327.5,25.9
		c-61.3,6.2-111.7,12.8-151.1,19.8c-42.3,7.6-89.8,31-97.2,78.6c-2.3,15.1,0.9,27.9,9.9,38.4C517.8,1790,534.2,1802.8,552,1803.4z
		 M2310.6,2049.9c2.6,0.8,4,3.6,3.2,6.2c-0.1,0.3-0.2,0.6-0.4,0.9c-12.4,21.9-25.3,44-38.4,66.4c-10.8,18.3,3.1,24.5,18.8,33.8
		c8.9,5.2,16.8,9.7,23.6,13.5c2.6,1.4,5.8,0.9,7.7-1.4c27.2-31,48.7-67.1,64.3-108.5c2.7-7,7.6-10.7,14.6-11.1
		c26-1.3,67.1-1.4,123.3-0.3c41.8,0.8,77.5-12.2,97.2-50.4c12.1-23.5,16.2-48.4,12.3-74.7c-2.6-17.7-6.8-35-12.6-51.7
		c-16-46-31.4-87.8-46.2-125.4c-1.8-4.6-7-6.8-11.6-5c-0.3,0.1-0.5,0.2-0.8,0.4c-15.7,8-30.3,15.8-44,23.4c-7,3.8-9.1,9.2-6.5,16
		c20.6,53.2,35.8,97,45.7,131.5c3.9,13.6,5.3,24.6,4.1,33.1c-3.7,25.8-22.7,31.3-47.1,32.8c-31.4,1.8-67.8,1.7-108.9-0.3
		c-4.7-0.2-8.7-3.8-9.3-8.5c-9.9-77.7-40.6-145.2-92-202.4c-8.3-9.3-20.2-16.7-35.5-22.2c-49.1-17.7-75.2,32.7-87.4,70.3
		c-22.4,69-16.7,135.6,17.2,199.7c10.2,19.3,26.9,30.2,50.3,32.8c16.9,1.9,33,2,48.5,0.5C2304.7,2048.9,2308,2049.1,2310.6,2049.9z
		 M3127.1,1961.6c5.3,57.1-19.4,112-52.1,157.9c-5.8,8.1-8.4,15-3.7,23.7c1.8,3.5,6.1,7.1,12.8,11c9.6,5.6,18.3,10.6,26.2,15
		c7.8,4.4,14.4,3.3,19.9-3.3c47.2-56.3,69-121.6,65.3-195.8c-3.8-74.8-32.1-149.7-65.3-223.5c-2.2-4.9-7.9-7-12.8-4.8
		c-0.3,0.1-0.6,0.3-0.8,0.4l-39.7,23c-6.2,3.5-8.6,11.2-5.7,17.7C3096.6,1839.7,3121.7,1903.2,3127.1,1961.6z M2810.2,1948.8
		c6.7,10.5,1.7,24.4-8.6,29.7c-3.5,1.8-9.1,2.7-17,2.7c-55.7,0-85.4,0.1-89.1,0.1c-8.7,0.1-15.7,7.2-15.7,15.9v42.1c0,5,4,9.1,9,9.1
		c0,0,0,0,0,0c36.4,0.1,71.2-0.1,104.3-0.6c26.8-0.4,45.3-3.4,55.4-8.9c19.6-10.7,31.6-27.3,35.9-50c6.2-32.8-1.1-63.4-21.9-91.6
		c-63.6-86.4-97.7-132.8-102.2-139.1c-4.3-5.9-12.5-7.3-18.5-3.2l-33.3,22.6c-6,4.1-7.6,12.3-3.4,18.4c0,0,0,0,0,0
		C2773.4,1895.1,2808.4,1946,2810.2,1948.8z M2644.4,2109.1c0-9-7.3-16.3-16.3-16.3h-151.5c-9,0-16.3,7.3-16.3,16.3v46
		c0,9,7.3,16.3,16.3,16.3h151.5c9,0,16.3-7.3,16.3-16.3V2109.1z"/>
	<path class="st2" d="M1696.2,2822.4c-0.3-2.5-2.6-4.2-5.1-3.9c-0.3,0-0.6,0.1-0.9,0.2c-49.2,17.7-97.2,34.3-147,35.1
		c-68.1,1-124.4-53.1-161-110.1c-3.5-5.5-7.8-7.1-12.9-4.8c-3.2,1.5-6.3,4.1-9.1,7.6c-37.3,47.6-101.3,112.9-167.9,101.5
		c-35-6-62.3-30.1-84.8-57.9c-40.3-49.5-60.7-106-61.5-169.5c-0.5-41.2,6.5-83.4,20.8-126.6c1.3-3.8,0.1-8-3-10.2
		c-1.3-1-3.9-0.8-7.7,0.6c-59.8,21.7-114.8,36.8-165,45.1c-32.9,5.5-74.4,10-124.6,13.6c-102.2,7.3-207.8,8-316.7,2.3
		c-71.8-3.8-140.5-19.3-206.4-46.8c-40.1-16.7-75.4-39.6-105.9-68.6c-71.1-67.6-85.5-164.1-52.3-256c7.3-20.3,19.4-42.4,36.1-66.4
		c58.7-84,130.7-146.8,216.1-188.3c108.8-53,225.3-82.7,349.5-89.2c42-2.2,76.8,12,82.1,58.4c2.3,20.5,1.8,37.4-1.5,50.9
		c-5.9,23.4-18.7,38.6-38.6,45.4c-7.1,2.5-25.3,4.2-54.4,5.1c-83.5,2.7-160.2,24.2-230.1,64.7c-47.5,27.5-90.3,61.7-128.5,102.6
		c-31.5,33.8-64.1,81.2-69.1,127c-3.9,35.6,7.8,64,34.9,85.3c40.2,31.4,87.6,43.7,138.8,47.1c90.8,6.1,178.3,5.6,262.5-1.5
		c94.4-8,188.6-22.1,282.7-42.2c136.6-29.2,250.3-106.8,308-236.7c7.1-15.9,16.2-42.4,27.5-79.7c11.4-37.7,19.7-64.6,24.8-80.6
		c9.4-29.6,28.9-43.2,58.4-40.9c24.4,2,46.3,23.5,47.2,47.7c1,26.7-1.2,51.3-6.6,73.9c-3.9,16.6-12.4,39.6-25.2,69.2
		c-54.6,125.3-105.6,252.1-153.1,380.5c-3.9,10.4-6.9,20.6-9.2,30.4c-2.7,11.6,0,20,8.1,25.1c9.5,6.1,20.8,4.3,33.9,2.8
		c23.8-2.8,43.4-11.7,58.8-26.8c8.3-8,19-25.5,32.2-52.5c30.4-61.8,62-119.2,94.8-172c23.7-38.1,41.1-64.1,52.2-77.9
		c18.7-23.2,43.6-45.4,74.6-66.5c10.6-7.2,18.6-19.8,24.2-38c7.1-23.3,5.3-57.4,0-84.8c-15.8-82.3-47.1-156.2-81.2-243.2
		c-14.2-36.2-7.4-67.2,20.4-92.8c14.4-13.3,27.5-8.8,41.6,2.9c18.5,15.4,33.8,32.5,46,51.4c56.5,87.4,99.6,183.8,129.4,289.2
		c38.8,137.6,68.5,267.2,89,389c19.6,116.2,15.2,237.2-13.2,363c-1.6,7-4.2,15-8,23.9c-7.4,17.7-14.4,27.8-12.2,42.6
		c0.2,1.3,1.4,2.3,2.7,2.1c0.6-0.1,1.1-0.4,1.5-0.8c23.6-27.2,43.2-55,58.8-83.2c5.8-10.5,15.2-37.7,28.2-81.5
		c33.2-111.7,49.4-225.5,48.7-341.2c-0.2-22.4-1.3-53.6-3.3-93.7c-22.1-427-142.1-823.3-360.1-1188.9
		c-26.7-44.7-50.2-80.8-70.8-108.5c-35.3-47.5-62.3-84.9-81.2-112.3c-32.8-47.6-58.5-97-76.9-148c-11.1-30.6,8.5-60.7,34.5-76.1
		c6.9-4.1,19.2-7.9,37.1-11.6c27.7-5.6,55.1-11.5,82.4-17.5c8.5-1.9,13.2-1,18.2,6.8c3.8,6,6.7,11,8.8,14.9
		c139.6,257.8,235.5,435.8,287.8,534.1c18.3,34.5,41.2,83.2,68.6,146c72.5,166.6,123.8,341.3,149.1,520.2
		c30.1,213.2,57.4,436.7,81.9,670.5c5.7,54.8,48.2,64.5,94.9,68.4c260.2,21.8,507.8-16.1,743.1-113.7c26-10.8,50.9-23.4,74.7-37.9
		c45.1-27.5,82.9-53.1,113.4-76.6c50-38.7,96.5-69.3,151.8-90.2c27.3-10.4,50.1-7.8,68.4,7.6c22.4,18.9,40.5,54.2,45,84
		c1.2,7.6-0.4,14.4-4.7,21.6c-17.9,29.8-34.2,51.3-48.9,64.5c-114.9,102.4-248,176.4-399.5,222c-206.3,62-415,99-626.1,110.9
		c-18.2,1-45.1,0.6-80.7-1.2c-40.7-2.1-67.5-2.5-80.5-1.5c-69.6,5.9-129.7,36.4-180.4,91.5c-13.1,14.3-29.5,37.4-49,69.3
		c-31.3,51.1-56.2,91.3-74.5,120.3c-8.8,13.9-21.9,31.2-39.5,52c-23.7,28-51.1,49.4-82.3,64c-39.2,18.4-95.5,29.2-127-6.7
		c-22.8-26-15.1-58.6-1.1-86.9c17.4-35.5,30.5-61.3,39.1-77.5c2-3.7,4.7-11.2,8.2-22.5C1702,2920.3,1702.9,2868.9,1696.2,2822.4z"/>
	<path class="st2" d="M3004,1823.1c7.8,66.2,11.7,135.8,12,208.7c0,10.7-10.1,12.3-21.1,14.4c-12.1,2.2-24.2,2.5-36.2,1
		c-8.2-1-10.5-6.3-10.7-14.2c-1.6-67.3-4.5-135-12.2-201.8c-7.8-66.9-20.7-133.4-34.6-199.3c-1.6-7.7-0.7-13.4,7.1-16.3
		c11.3-4.3,23.1-6.8,35.4-7.4c11.1-0.5,21.3-1.2,23.8,9.1C2984.2,1688.3,2996.4,1756.9,3004,1823.1z"/>
	<path class="st2" d="M552,1803.4c-17.7-0.7-34.2-13.4-46.2-27.5c-8.9-10.5-12.2-23.3-9.9-38.4c7.4-47.6,54.8-71,97.2-78.6
		c39.4-7.1,89.7-13.7,151.1-19.8c110.3-11.1,219.5-19.7,327.5-25.9c17.2-1,29,5.2,35.6,18.4c4.3,8.7,4.4,20,0.5,34
		c-14.4,51.4-51,77-101.7,89.9C856.9,1793.2,705.6,1809.2,552,1803.4z"/>
	<path class="st2" d="M2310.6,2049.9c-2.6-0.8-5.9-1-9.9-0.6c-15.5,1.5-31.6,1.4-48.5-0.5c-23.4-2.6-40.1-13.5-50.3-32.8
		c-33.8-64.1-39.6-130.7-17.2-199.7c12.2-37.7,38.3-88.1,87.4-70.3c15.4,5.5,27.2,12.9,35.5,22.2c51.4,57.2,82.1,124.7,92,202.4
		c0.6,4.7,4.5,8.3,9.3,8.5c41.2,1.9,77.5,2,108.9,0.3c24.4-1.4,43.4-7,47.1-32.8c1.2-8.5-0.2-19.5-4.1-33.1
		c-9.9-34.5-25.2-78.3-45.7-131.5c-2.7-6.9-0.5-12.2,6.5-16c13.7-7.5,28.3-15.3,44-23.4c4.4-2.2,9.8-0.5,12,3.9
		c0.1,0.3,0.2,0.5,0.4,0.8c14.8,37.7,30.2,79.5,46.2,125.4c5.8,16.7,10,34,12.6,51.7c3.8,26.3-0.3,51.2-12.3,74.7
		c-19.7,38.2-55.5,51.1-97.2,50.4c-56.2-1-97.3-0.9-123.3,0.3c-7.1,0.3-11.9,4-14.6,11.1c-15.7,41.4-37.1,77.6-64.3,108.5
		c-2,2.2-5.2,2.8-7.7,1.4c-6.9-3.8-14.8-8.2-23.6-13.5c-15.7-9.2-29.6-15.5-18.8-33.8c13.2-22.4,26-44.5,38.4-66.4
		c1.3-2.4,0.5-5.4-1.8-6.7C2311.2,2050.1,2310.9,2050,2310.6,2049.9z"/>
	<path class="st2" d="M3127.1,1961.6c-5.3-58.3-30.5-121.8-56-178.7c-2.9-6.5-0.4-14.2,5.7-17.7l39.7-23c4.6-2.7,10.5-1,13.2,3.6
		c0.2,0.3,0.3,0.5,0.4,0.8c33.2,73.8,61.5,148.6,65.3,223.5c3.7,74.2-18,139.5-65.3,195.8c-5.5,6.6-12.2,7.7-19.9,3.3
		c-7.9-4.4-16.7-9.4-26.2-15c-6.7-3.9-10.9-7.6-12.8-11c-4.7-8.7-2.1-15.6,3.7-23.7C3107.6,2073.5,3132.3,2018.6,3127.1,1961.6z"/>
	<path class="st2" d="M2801.5,1978.5c10.4-5.3,15.3-19.3,8.6-29.7c-1.8-2.8-36.8-53.7-105.2-152.9c-4.1-6-2.6-14.3,3.4-18.4
		c0,0,0,0,0,0l33.3-22.6c6-4.1,14.2-2.7,18.5,3.2c4.6,6.3,38.6,52.7,102.2,139.1c20.8,28.3,28.1,58.8,21.9,91.6
		c-4.3,22.7-16.3,39.4-35.9,50c-10.1,5.5-28.6,8.5-55.4,8.9c-33.1,0.5-67.8,0.7-104.3,0.6c-5,0-9-4.1-9-9.1v0v-42.1
		c0-8.7,7-15.8,15.7-15.9c3.7-0.1,33.4-0.1,89.1-0.1C2792.4,1981.3,2798.1,1980.4,2801.5,1978.5z"/>
	<path class="st2" d="M2476.6,2092.8h151.5c9,0,16.3,7.3,16.3,16.3v46c0,9-7.3,16.3-16.3,16.3h-151.5c-9,0-16.3-7.3-16.3-16.3v-46
		C2460.3,2100.1,2467.6,2092.8,2476.6,2092.8z"/>
</g>
</svg>
