<?xml version="1.0" encoding="UTF-8"?>
<svg id="Layer_1" data-name="Layer 1" xmlns="http://www.w3.org/2000/svg" version="1.1" viewBox="0 0 3500 3500">
  <defs>
    <style>
      .cls-1 {
        fill: #1899d4;
      }

      .cls-1, .cls-2, .cls-3, .cls-4, .cls-5, .cls-6 {
        stroke-width: 0px;
      }

      .cls-2 {
        fill: #000;
      }

      .cls-3 {
        fill: #faa518;
      }

      .cls-4 {
        fill: #f37221;
      }

      .cls-5 {
        fill: #febf10;
      }

      .cls-6 {
        fill: #f6851f;
      }
    </style>
  </defs>
  <path class="cls-1" d="M1699.5,915.6v436.1c-36.8-1.1-71.1-4.7-105-2.5-93.6,5.9-153.8,58.9-187.7,143-51.9,128.9,42.4,275.9,174.9,296.1,132.5,20.2,256.9-89,255.8-216.1-1.9-225.8-.1-451.6,0-677.4,0-201.9,0-403.8,0-605.8,0-57.4,0-115,22.2-169.3,24.1-58.7,64.8-96.5,129.4-111.6,71.5-16.8,140.4-4.9,208.2,11.7,115.6,28.2,229.3,63.9,344.6,93.5,82.8,21.2,166.8,38.1,250.5,55.9,34.6,7.4,69.7,12.1,106.8,18.4-3.6,2.8-6.4,6.5-10.2,7.7-55.6,18.2-111.6,35.6-170.5,36.8-66.9,1.4-134,3.1-200.7-.4-50.9-2.7-101.5-12.1-151.9-20.9-46.5-8.1-92.6-19.2-139.7-26.2,66.9,35.3,136.2,65.1,208.2,87.4,72.8,22.5,146,44.7,220.4,61,73,16,147.7,24.3,221.7,36,75.5,11.9,151.6,15.7,227.9,13.1,75.3-2.5,150.5-7.7,228.9-11.9-46.8,107.1-102.7,202-190.4,273.9-65,53.3-139.9,85.8-223.7,97.2-70,9.5-139.9,12.5-210.1,1.5-10.3-1.6-21.1-.2-32.2,2.9,99.1,49.1,205,68.9,321.9,72.7-52.6,41.1-105.7,62.1-163.1,73.5-100.2,19.8-191.7-9.2-279.6-52.9-67.6-33.6-129.6-75.9-185.8-126.7-27.9-25.3-56.6-49.7-90.7-79.4-.9,47.5-2.1,88.5-2.3,129.5,0,19.1,2.5,38.1,2.5,57.2.2,209.1.2,418.2,0,627.3,0,60.8,4,122.1-2.8,182.2-9.3,81.6-29.6,161.4-68.6,235.1-72.6,137.5-177,241.5-318.9,307.1-116.1,53.6-237.8,69.9-362.9,48.6-115.6-19.7-203.3-85.3-264.5-184.5-57.5-93.3-86.6-194.9-85.6-305.6.7-69.8,6.9-137.9,29.8-204.1,2.6-7.4,3.6-15.3,2-23.7-104.5,147.2-137.3,308.9-98,486.9-58.1-61.9-98.6-133.4-123.2-212.3-52-167.1-45.7-332.7,30.3-491.9,141.5-296.3,451.9-412.4,682.2-368.9Z"/>
  <path class="cls-4" d="M1597,2395.7c93.2,3.5,181.7-12.6,271.6-36.7,6.5,12.6,13.5,22.2,16.9,33,48.5,153.4,96.5,306.9,144.6,460.4,9.1,29.2,18.3,58.4,28.7,91.8-35.3,11.7-66.9,25.9-100.1,32.4-72.3,14.1-145.1,25.4-218.1,35.4-37.7,5.2-76,6.1-114.2,7.4-38.3,1.3-47.3-7.1-46.8-45,1.6-138.4,3.2-276.7,6.5-415,1.2-52.1,6.8-104.1,10.9-163.6Z"/>
  <path class="cls-4" d="M1641.1,731c-96.9,13.8-187.1,26.6-278.7,39.7-18-28.1-178.7-534.6-182.6-580.5,37.4-19.2,79.7-25.7,120.8-36.3,101.1-26.1,204.7-28.9,308-33.8,12.3-.6,24.9,3.7,42.5,6.6-3.4,203.8-6.7,404.6-10,604.3Z"/>
  <path class="cls-6" d="M2305.1,2834.1c-97.7-177.5-194.7-353.6-291.9-530.2,75.9-58.4,148.9-114.5,225.7-173.7,149.5,132.6,296.1,269.5,443,403.9-34.5,73.1-286.9,273.6-376.8,299.9Z"/>
  <path class="cls-6" d="M1218.1,831.7c-75.4,58.6-146.5,113.8-222.3,172.7-5.3-3.3-17.4-8.5-26.5-16.9-46.6-42.6-92-86.4-138.6-129-61.5-56.1-124.3-111-185.6-167.3-33.1-30.4-64.4-62.8-98.3-96,109.5-122.4,233.1-219.3,378-298.2,99.3,181,197.4,359.7,293.4,534.7Z"/>
  <path class="cls-6" d="M1443,2383.8c-43.8,197.6-87.3,393.5-131.6,593.1-14.6-.7-28.1,1.6-39.4-2.2-83.5-28.2-167.3-55.8-249.5-87.5-43.1-16.7-83.3-41-124.3-62.7-11-5.9-20.2-15.2-29.1-21.9,9.6-34.2,293.4-505.6,315.1-522.5,41.7,19.3,83,40.3,125.9,57.6,41.7,16.8,85,29.8,132.8,46.3Z"/>
  <path class="cls-3" d="M350.9,2266.1c31.3-30,505.6-289.5,531.4-293.7,56.5,72.5,111.9,143.6,167.6,215-24.9,36.3-381.1,431.8-412.9,443.9-115.5-103.5-209.5-226.3-286.1-365.2Z"/>
  <path class="cls-3" d="M205.1,1259.1c32-159.9,90.7-303.6,176.9-442.1,22.9,12.6,41.7,22.1,59.7,32.9,90,54.1,179.8,108.5,269.6,163,57.1,34.6,114.1,69.3,170.7,104.6,19.5,12.2,19.7,21.2,8.5,45.5-20.4,44.4-41,88.7-59.1,134-11,27.4-17.5,56.5-26.9,88-13.3,0-27.6,2.5-40.9-.4-96.7-20.7-193.1-42.7-289.7-64-75.7-16.7-151.5-32.9-227.2-49.6-11.4-2.5-22.5-6.4-41.7-12Z"/>
  <path class="cls-3" d="M2332.6,2004.4c34.2-85.5,67.3-168,102.6-256.2,7.3,0,21.6-2.5,34.7.4,158.3,35.1,316.4,71,474.6,106.8,17.4,3.9,34.6,8.9,52.1,12.8,18.3,4,27.4,15.2,24.2,33.4-4.4,24.6-9,49.4-16.6,73.2-34,107.1-73.8,211.8-131.3,309-18.9,31.9-24.3,34.8-56.4,15.9-76.1-44.7-151.3-91-227-136.5-67.5-40.6-135.1-80.9-202.4-121.8-19.1-11.6-37.2-25-54.5-36.8Z"/>
  <path class="cls-5" d="M240.6,2001.3c-6.7-17.9-14.4-34-18.7-51-19.3-76.2-33.2-153.5-41.6-231.7-4.7-43.7-8.8-87.6-12.9-131.4-.8-8.3-.3-16.7-.3-25,0-16.2,8.8-23.9,24.4-24.5,9.5-.4,19.1-.5,28.6-.4,114.6.3,229.3-.3,343.9,1.2,61.9.8,123.8,4.7,185.7,7.7,26.7,1.3,32.5,6.4,32.8,31.8.9,73.1,14.7,144.2,31.3,215,1.8,7.9,2.2,16.1,3.1,23.1-29.9,21.9-497.1,172.3-576.4,185.4Z"/>
  <path class="cls-5" d="M2991.4,1132.2c51.9,148,67.3,301.4,71.8,460.6-22.8,3-40.2,7.4-57.5,7.2-134.8-1.3-269.7-2.7-404.4-5.8-49.7-1.1-99.2-6.9-154-10.9,5.6-90.8-12.6-177.7-34.6-262.7,22.8-18.2,479.2-166.4,578.8-188.4Z"/>
  <path class="cls-2" d="M1540.4,3494.3h-104.9c4.2-20.2,6.4-37.5,11.4-54.1,26.7-88.9,54.3-177.6,80.8-266.6,5.2-17.6,14.6-26.1,33.1-25.7,26.3.5,52.6-.7,78.8.4,33.4,1.4,48.7,15.2,56.9,48.6,3.9,16.1,7.8,32.1,12.8,52.6,8.7-8,14.8-12.6,19.7-18.4,9.3-10.8,18-22.2,26.8-33.4,27.5-34.9,61-55.9,107.9-50.2,19.6,2.4,39.8.4,66.3.4-29.1,119.7-70.1,229.7-100.2,345.6h-107.6c12.5-69.7,41.5-132.6,50.7-202.6-13.6,16.5-27.2,33.1-40.9,49.5-17.6,21-35.8,41.5-52.7,63.1-8.2,10.5-18.5,19.1-29.9,12.7-8.8-4.9-16.1-17-18.8-27.3-6.5-25.3-9.7-51.4-14.7-77-1.5-7.5-4.6-14.7-13.1-22.1-20.6,67.6-41.3,135.1-62.4,204.2Z"/>
  <path class="cls-2" d="M852.9,3495.9c35.5-118.6,69.2-231,103.7-346.2,40.7,0,78.7-2.1,116.2.8,22.5,1.7,39,16.6,43.4,41.3,5.5,30.4,11.7,60.8,17.8,91.1,2.6,12.8,5.9,25.4,10.6,45.7,7.4-21.7,12.9-36.5,17.5-51.5,10.4-34.1,20.5-68.4,30.3-102.7,4.8-16.7,13.3-27,32.6-26.4,24.7.9,49.5.2,81.2.2-35.7,119.4-69.6,232.5-103.6,346.3h-126.5c-15.1-69.9-29.8-138.1-46.4-215.2-6.8,16-11.5,24.6-14.3,33.8-15.7,51.3-31.6,102.5-45.9,154.1-6.1,22.2-17.8,31.7-40.9,30-23.3-1.6-46.8-.9-75.7-1.3Z"/>
  <path class="cls-2" d="M2252.8,3265.7c-14,42.8-31.2,84.9-41.1,128.7-14.3,63.6-57.7,92.8-115.5,101-44.5,6.3-90.7,5.5-135.7,1.8-63.9-5.3-88.7-45.1-69.3-103.7,23.9-72.4,44.3-145.9,66.5-218.9,2.4-7.8,6.7-15,11.1-24.4h97.3c-3.2,14.4-5.4,27.9-9.3,40.9-18,60.6-36.5,121.1-54.9,181.6-11.1,36.8-2.5,49.3,34.9,50.4,40.3,1.3,55.9-9.7,68-48.7,20.1-64.9,39.7-130,59.6-194.9,9.4-30.8,10.8-31.7,42.2-31.7,23.5,0,47,0,77.5,0-11.9,44.1-21.9,81.3-31.9,118.5l.4-.7Z"/>
  <path class="cls-2" d="M606.6,3150.9h99.9c-25.7,86.9-50.2,169.5-74.3,250.9,38.8,38.2,94.3,26.4,109.2-21.6,19-61.3,37.1-123,55.9-184.4,4.5-14.7,10.3-28.9,16-44.7h108.8c-9.6,33.7-17.5,63-26.2,92.1-15,50.2-33.3,99.6-45.2,150.5-15.1,64.6-58.9,94.3-118.6,101.7-44.6,5.6-90.4,2.6-135.6,1.6-12.6-.3-25.7-5.5-37.4-10.8-20.9-9.6-34.7-25.4-33.5-50.1.7-14.2-.1-29.1,3.8-42.5,23.2-78.9,47.5-157.4,71.6-235.9.6-2.1,2.9-3.7,5.5-6.8Z"/>
  <path class="cls-2" d="M2252.4,3266.4c12.7-18.6,24.9-37.5,38.1-55.8,31.8-44.1,75.9-63,129.5-62.7,47.7.3,95.5-.1,143.2.2,12.6,0,25.2,1.9,43.2,3.4-7.1,29.1-13.1,53.8-20.2,82.8-24.6.3-48.1.8-71.6.9-23.9.2-47.7-.3-71.6.5-8.1.3-16.1,3.5-24.1,5.8-12.2,3.5-23.2,9.4-21.8,24.1,1.6,16.5,15.7,14.5,27.4,15.9,28.1,3.4,56.4,6.3,84.3,11.5,29,5.3,44.5,25.3,46,55.1,3.9,79.6-48.6,141-132.6,147.4-54.5,4.2-109.7.4-164.5-.2-3.2,0-6.4-2.7-13.5-5.9,5.4-24.6,11-49.6,17-77.1,14.6-1.1,27.3-2.7,40.1-2.9,31-.4,62,0,93.1-.1,7.2,0,14.4.4,21.5-.4,22.3-2.6,40-14.3,37.7-26-4.4-22.3-23.3-15.6-37.8-16.6-15.5-1-31.1.5-46.5-1.3-41.6-4.9-59.1-21.7-66.5-62.5-2.5-13.7-3.6-27.7-5.8-45-7.7,4.3-15.1,6.9-20.7,11.8-10.1,8.8-17,5.3-23.4-3.9l-.4.7Z"/>
  <path class="cls-2" d="M544.9,3150.6c6.8,26.9-3.8,50.4-12.8,72.7-2.9,7-19.8,11.1-30.6,11.5-34.5,1.4-69.2-.4-103.8,1-15,.6-30.4,4.8-44.6,10.1-13.1,4.9-16.3,16.1-8.7,32.4,10.3,1,22,1.6,33.4,3.3,28,4.1,56.3,7.1,83.8,13.5,25.9,6.1,33.5,19.8,36.2,46.4,4.6,44.8-13.9,80.4-39.5,115.1-23.7,32.2-59.5,35.8-92.4,38.6-53.3,4.6-107.3,1.2-160.9.8-4.4,0-8.7-2.7-17.6-5.6,5.5-23.3,8.6-46.7,17.3-67.9,3-7.2,19.6-12,30.3-12.4,38.1-1.5,76.3-.2,114.5-.8,10.5-.2,21.6-1.5,31.2-5.3,13.9-5.5,20.2-16.2,10.3-35.3-10.6-.7-23.3-1.7-36-2.2-8.3-.4-16.7.5-25-.2-61.9-4.9-78.9-19.9-86.6-85.8-.8-6.9-.1-14.1-.1-24.6-14.2,6.1-25.4,10.9-43.9,18.9,22-56.5,51.5-96.9,103.7-115.8,19.7-7.1,41.7-9.7,62.8-10.4,52.4-1.8,105-1.6,157.4-1.7,6.8,0,13.7,2.3,21.5,3.7Z"/>
  <path class="cls-2" d="M3105.2,3151.7c-8.3,28.6-15.8,54.1-24.4,83.6-24,0-45.1,0-66.3,0-23.8,0-47.7.5-71.5-.1-17.1-.4-28.3,5.5-37.8,20.9-21.5,35.2-33.9,73.2-40.7,113.3-5,29.7,2.8,39.3,33.4,39.9,41.4.8,82.9.2,127.2.2-.5,24.2-9,49.7-18.8,74.3-2.6,6.6-15.1,12.9-23.2,13.1-59.5,1.3-119.1,2.7-178.5.4-27.1-1.1-44.7-22.5-53.8-46.8-6.1-16.3-10.4-35.5-8-52.3,10.1-70.9,25.2-140.7,68-200.6,22.7-31.9,52.7-50.2,93.3-49.7,56,.6,112.1,0,168.1.3,9.2,0,18.3,1.9,32.8,3.5Z"/>
  <path class="cls-2" d="M2677.3,3493.5h-107.2c5.8-22.3,10-40.5,15.5-58.4,25.8-84.2,52-168.2,78-252.3,10.4-33.7,11.3-34.4,47.5-34.8,21.1-.2,42.3,0,69.5,0-30.3,120.1-66.4,232.7-103.4,345.5Z"/>
</svg>