<?xml version="1.0" encoding="utf-8"?>
<!-- Generator: Adobe Illustrator 27.7.0, SVG Export Plug-In . SVG Version: 6.00 Build 0)  -->
<svg version="1.1" id="Layer_1" xmlns="http://www.w3.org/2000/svg" xmlns:xlink="http://www.w3.org/1999/xlink" x="0px" y="0px"
	 viewBox="0 0 3500 3500" style="enable-background:new 0 0 3500 3500;" xml:space="preserve">
<style type="text/css">
	.st0{fill:#F9F9F9;}
	.st1{fill:url(#SVGID_1_);}
	.st2{fill:url(#SVGID_00000131338949977086999920000002450178752236691353_);}
	.st3{fill:#EA5101;}
	.st4{fill:#E97401;}
	.st5{stroke:#000000;stroke-width:13.3307;stroke-miterlimit:10;}
</style>
<g>
	<rect x="478.3" y="222" class="st0" width="764.7" height="422.5"/>
	<rect x="1784" y="1114" class="st0" width="729.7" height="446"/>
	<rect x="748.4" y="887" class="st0" width="415.1" height="500.8"/>
	
		<linearGradient id="SVGID_1_" gradientUnits="userSpaceOnUse" x1="406.4502" y1="-110.2008" x2="2098.2493" y2="-1885.272" gradientTransform="matrix(1 0 0 -1 0 0)">
		<stop  offset="0" style="stop-color:#FFFFFF"/>
		<stop  offset="1" style="stop-color:#000000"/>
	</linearGradient>
	<path class="st1" d="M2482.9,121.2c-6.3,28.5-16.9,46.2-34.8,58.4c-51.2,34.8-90.4,79.6-122.9,132.3c-26,42.2-57.5,81.2-87.1,121.1
		c-20.8,28.1-37,33.6-67.8,18.9c-30-14.3-56.8-7.9-81.8,8c-20.3,13-39.8,28.6-56,46.4c-38.8,42.5-71.8,89.5-97.6,141.2
		c-4.8,9.6-12,18.1-17.6,26.4c-19,0-23.3-14.2-31.6-23.9c-26.1-30.5-58.8-50.5-99-38.6c-24.5,7.2-49.1,22.3-67.6,40.2
		c-23.6,22.7-41.6,51.4-61.2,78.2c-27,36.9-56.5,71.2-99.7,89.7c-29.9,12.8-61.2,18.4-94,12.2c-10.8-2-22-3.8-32.9-3.2
		c-16.1,0.9-37.5-1.7-46.9,7.3c-19.4,18.6-36.3,41.2-35.2,72.4c1.5,42.1,1.2,84.3,0,126.4c-1.8,63-3.2,126.2-8.2,189
		c-2.4,29.2-12.7,57.7-20.1,86.4c-12.9,49.8-36.3,94.5-64.3,137.7c-31.6,48.7-69,91.4-113.2,128.7c-44.4,37.5-94.4,66-148.2,86.1
		c-40.9,15.3-82.9,30.1-128.1,30.7c-17.6,0.2-35.1,5.9-52.6,5.9c-82.9,0-159.9-21.6-227.1-70.6c-52-37.9-77.9-92.6-83.1-155.9
		c-6.7-81,10.8-157.9,40.9-233.2c21.3-53.2,37.8-108.2,55.4-162.8c3.2-9.8,1.6-21.1,2.6-38c-8.4,6.6-12.7,8.3-14.2,11.4
		c-25.1,51.6-51.3,102.7-74.1,155.4c-17,39.3-30.3,80.2-43.5,121c-15.6,48.3-30.4,97-43.5,146c-6.2,23.3-7.6,47.9-11.2,71.8
		c-10.2,67.4-10.6,134.7,8.5,200.7c17,58.7,46.4,110.1,96.9,147.2c22.9,16.9,45.9,33.7,71.2,52.3c-6.3,2.7-11.3,6.3-16.8,7
		c-8.7,1.2-17.7,0.5-26.6,0.5c-108.8,0-217.5-1.2-326.3,0.5c-41.6,0.6-81.6-6-121.6-14.8c-38.5-8.5-70.7-46.5-71.3-89.9
		c-0.5-33.9,4.2-68.3,10.5-101.8c7.6-40,19.1-79.3,29.3-118.8c9.1-35.2,19.4-70.1,28-105.4c11.4-47.1,21.3-94.5,32.7-141.6
		c11.4-47.2,24.2-94,36-141.1c9.9-39.6,19.1-79.3,28.9-118.8c18-72.8,36.5-145.5,54.2-218.4c7.8-32.1,13.6-64.8,21.6-96.9
		c9.1-36.4,21.9-72,29-108.8c15.4-79.3,39.8-156.2,58.7-234.5c15.3-63.3,25.8-128,45.4-189.9c19.2-60.6,56.1-109.4,121.2-131.1
		c42.7-14.2,86.1-18.7,130.6-18.7c592.7-0.2,1185.3-0.5,1778-0.7C2449.1,121.2,2463.2,121.2,2482.9,121.2z M849.1,362.3
		c19,69.3,38.1,139.3,57.8,211.4c26.6,0,51.9-0.8,77.2,0.3c17.7,0.8,28-5.8,37-21.4c41.9-72.6,85.2-144.4,127.8-216.6
		c4.3-7.2,8-14.8,14.8-27.5c-23.6,0-42.2,1-60.7-0.3c-22-1.5-34.7,8-44.1,27.4c-18.3,37.8-38.7,74.6-57.8,112.1
		c-3,5.8-3.6,12.7-6.1,18.8c-4.3,10.5-2.2,27.4-19.1,26.9c-17.6-0.4-14.4-18-16.8-28.3c-11.7-50.5-21.7-101.3-32.9-154.9
		c-12.1-0.6-24-1.6-35.8-1.6c-84.4-0.2-168.7-0.3-253.1-0.1c-59,0.1-56.8-6.9-62.9,56.5c-0.2,1.8,2,3.7,3.4,6.3
		c31.5,2.9,66.7-15.8,93.5,8.9c-6.4,35.9-13.3,67.2-17.2,98.8c-3.8,30.9-13.9,61.7-8,94.5c23.5,0,43.4-0.4,63.3,0.1
		c14.7,0.4,23.1-5.8,25.1-20.4c2.9-21.9,5.5-43.9,8.8-65.8c4.6-30.6,8.7-61.4,14.7-91.8c4.4-22,11-25.4,35-27.1
		C811.3,367.2,829.5,364.5,849.1,362.3z M939.9,992.7c-28.3,46.9-56.1,92.9-83.9,138.8c-9.1,15-18.6,29.8-27.4,45
		c-19,33-15.7,39.8,15,61.5c31.3,22.2,61,46.8,89.7,72.4c20.9,18.7,20.3,21,42.4,2.9c39.1-32,65.6-73.2,87.6-118.6
		c20.1-41.6,15.2-78.9-8.4-115.9C1043.7,1061.1,968.3,1003.4,939.9,992.7z"/>
	
		<linearGradient id="SVGID_00000144325301816121338510000015706986315295332010_" gradientUnits="userSpaceOnUse" x1="1266.8807" y1="-551.5261" x2="2907.8127" y2="-1816.136" gradientTransform="matrix(1 0 0 -1 0 0)">
		<stop  offset="0" style="stop-color:#F98601"/>
		<stop  offset="1" style="stop-color:#D01503"/>
	</linearGradient>
	<path style="fill:url(#SVGID_00000144325301816121338510000015706986315295332010_);" d="M895.9,1942.8c30-16,60.1-31.9,90.1-47.9
		c59.4-31.8,107-78.1,151-127.8c49.9-56.4,90.3-119.4,126.1-186c33-61.6,59.7-125.5,82.2-191.1c27.5-80.3,46.8-163.1,62.4-246.6
		c6.1-32.5,9.2-65.5,13.7-98.3c2.7-19.8,8.3-26.5,37.1-29.8c21.7-2.5,40.7-9.3,59.2-19.8c25.4-14.4,47.2-32.5,64.1-56.6
		c23.5-33.5,48-66.2,72.1-99.4c17.5-24.1,39.9-41.2,68.9-49.2c26.4-7.3,48-3.2,70.2,16.1c33.7,29.3,42.2,63,31.6,104.3
		c-8.5,33.2-16,66.7-24.4,100c-4.9,19.3-5.3,19.2,2.1,44.7c6.6-4.3,14.9-6.7,17.6-11.9c10.7-20.5,20.4-41.5,29-63
		c29.2-72.6,51.3-148.5,92.9-215.5c25.5-41.1,42.7-87.7,80.4-121c20.8-18.4,42.9-30.7,71.4-29.2c13.3,0.7,26.7-0.7,39.9,0.5
		c25.4,2.4,44.9-6.1,60.7-26.5c35.8-46.1,72.3-91.6,109.2-136.8c12.6-15.4,26.3-30,41.4-42.9c6.8-5.8,17.9-8.3,27.3-9.1
		c30.3-2.8,59.6,3.2,87.9,14c42,16,76.7,5.1,110.2-29.1c33-33.8,45.2-76.1,55.3-118.7c8.4-35.1-8-67.1-30.6-94.6
		c-12.5-15.2-25.2-30.2-42.1-50.4c14.6-2.6,23.7-5.8,32.8-5.6c65.4,1.2,130.7,3.3,196,4.8c22.2,0.5,44.4,0.4,66.6,0.6
		c43.6,0.6,80.1,14.6,103.3,54.2c14,23.8,16.4,49.9,14.1,76.4c-3.3,37.5-11.3,73.8-21.9,110.2c-17.5,60.2-28.5,122.3-43.5,183.2
		c-16.1,65.4-34,130.2-50.1,195.6c-8.7,35.3-14.2,71.5-22.9,106.8c-15.6,64.3-33.2,128.2-48.6,192.6c-9.3,38.6-15.7,77.9-24.5,116.7
		c-6.8,30-15.5,59.6-23,89.4c-4.3,16.9-7.6,34.1-12,51c-11.6,44.8-24.1,89.4-35,134.4c-8.8,36.4-15.2,73.4-23.7,109.9
		c-8.2,35.4-18.1,70.5-26.7,105.9c-9.1,37.5-17.2,75.2-26.2,112.7c-14.6,60.8-41.7,114.9-92.1,153.6c-16.1,12.4-37.4,18.4-56.8,26.1
		c-43.4,17.2-89.2,13.7-134.5,13.7c-462.8,0.1-925.7,0-1388.5-0.2c-13.6,0-27.3-2.3-40.9-3.6C895,1947.3,895.5,1945.1,895.9,1942.8z
		 M2003.9,1473.6c9.8-6.9,18.3-12.1,25.8-18.4c34.7-28.9,60.8-65.2,79.5-105.4c21.1-45.3,18.3-91.3-16.3-130.2
		c-15.2-17.2-34.4-31.3-53.4-44.6c-18.5-13-25.9-11.3-38.3,7.1c-37.5,56.1-74.6,112.4-111.2,169.1c-11.1,17.2-9.1,32.5,6.3,44.2
		C1930.7,1421.5,1966,1446.2,2003.9,1473.6z M2256.7,1156.1c-7.5,8-18.1,16.5-25.3,27.2c-33.7,50.3-66.7,101.1-99.6,151.9
		c-11.9,18.4-10.4,25.9,6.1,39.5c17,14,34.1,27.8,51.6,41.3c19,14.7,38.4,28.9,56.4,42.4c45.1-23.4,113-117.3,119.4-168
		c0.7-5.4,1.6-11.1,0.8-16.4C2359.1,1227.6,2311.5,1158.1,2256.7,1156.1z"/>
	<path class="st3" d="M2580.1,1931.1c13-15.4,21.8-26.5,31.3-36.9c48-52.2,61.7-118.6,77.1-184.4c1.5-6.4,2.7-12.9,4.3-19.4
		c9.5-38.4,19-76.8,28.5-115.2c6.9-27.9,13.6-55.9,20.7-83.7c16.3-64.2,33.2-128.2,49-192.5c8.7-35.4,15.6-71.2,23.2-106.9
		c1.2-5.4,1.6-11,3-16.3c11.8-44.7,24.8-89.1,35.5-134.1c14.9-62,27.5-124.6,42.3-186.7c12.1-50.6,26-100.8,38.9-151.1
		c14.9-57.8,30.4-115.3,44.2-173.4c9.1-38.6,15.6-77.8,23.5-116.7c1.5-7.6,4.4-14.8,6.1-22.4c10.5-47.4,23.9-94.4,30.2-142.3
		c4.3-32.9-7.3-65.4-26.5-93.7c-2.9-4.4-5.8-8.8-10.1-15.5c8.7-4,15.3-9.6,22-9.6c60.8-0.8,121.8-5.4,182.1,8.7
		c24.1,5.6,44.1,17.5,57.8,36.3c16.8,23,17.6,51.1,14.7,78.9c-11.5,110.4-48.2,215.2-71.9,322.8c-14.3,64.8-29.4,129.3-45.3,193.7
		c-15.9,64.2-35,127.7-49,192.3c-7.2,33.4-13.6,66.8-22.4,100c-21,79-39,158.8-58.5,238.1c-15.5,63.3-33.8,126.1-46.5,189.9
		c-10.6,53.2-24.6,105.2-39.3,157.2c-9.9,34.9-15.7,70.9-23,106.5c-13,63.1-41.6,115.8-97.4,151.7c-28.6,18.4-60.3,29-93.1,31.4
		c-41.9,3.1-84.3,1.1-126.4,0.5C2597.9,1938.4,2591,1934.5,2580.1,1931.1z"/>
	<path d="M224.3,2296.1c-19.9,115.7-39.8,231.5-59,343.1c7.2,12.4,17.6,22.1,16.2,29.7c-2.6,13.9-17.9,9.3-28.3,9.4
		c-41.1,0.4-82.1,0.3-123.2,0.1c-7.7-0.1-15.6-0.7-22.9-2.8c-3.2-0.9-6.9-6.2-7.2-9.7c-0.2-3.4,3.2-9.8,6-10.3
		c31.3-6.3,28.6-30.9,31.4-54c3-24.9,8.9-49.4,13.5-74.1c10.7-58.3,21.9-116.5,27.9-175.7c4.1-40.4,14.2-80.4,23.8-120
		c7.6-31.4,18.4-62.1-14.9-90.7c12.9-4,19.8-8,26.6-8.1c75.5-0.5,150.9-0.3,226.4-0.3c3.3,0,6.7-0.1,10,0.6
		c12.5,2.6,17.9,15.3,7.9,21.1c-24.4,14.1-16.4,35.2-12.2,52.9c11.6,49.2,26.1,97.6,39.8,146.3c1.1,3.8,4.6,6.9,9.5,14
		c48.4-64.7,86-132.9,129.8-197.9c-7.1-9.9-12.7-17.8-18.5-26c2.4-3.1,3.9-7.2,6.2-7.8c7.4-1.8,15.2-3.1,22.8-3.1
		c75.5-0.2,150.9-0.2,226.4,0c8.4,0,16.8,2.1,28.8,3.8c-4.4,8.6-6.1,17.6-9.9,18.6c-22.9,5.8-26.9,24.1-30.5,42.8
		c-10.6,55-21.4,110-31.2,165.2c-4.2,23.9-5.1,48.3-9.3,72.2c-9.5,52.9-20.5,105.6-30.1,158.6c-2.5,14-5.2,29.1-2.5,42.7
		c2.2,11.4,12.1,21.4,20,34.2c-7.6,3.1-13.2,7.2-18.9,7.3c-56.6,0.5-113.2,0.4-169.8,0.4c-4.4,0-9.2-0.1-13-1.9
		c-3.7-1.7-9-5.6-8.9-8.4c0.1-4.6,3.2-12.2,6.5-13.1c26.1-6.9,27.7-27.4,31-49c5.9-38.1,14.6-75.7,21.5-113.6
		c3.2-17.4,4-35.2,7.3-52.5c7-36.8,15.2-73.3,22.3-110.1c1.6-8.2,0.2-16.9-4.8-27c-39,59.5-79.5,118.2-116.7,178.8
		c-36.7,59.7-71.8,120.2-117.8,180.3c-32.7-61.8-35.2-125.9-56.4-184.4c-21.2-58.4-31.3-120.8-46.3-181.4
		C230.3,2296.1,227.3,2296.1,224.3,2296.1z"/>
	<path d="M3207.1,2667.9c6.4-7.9,12.8-15.9,21.6-26.8c-71.8-98-144.2-196.8-220.1-300.5c-20.9,51.8-22.6,102.3-31,151.3
		c-8.6,49.8-18.5,99.4-28.1,150.1c8,6.8,15.4,12.9,22.7,19.1c-1.2,4.3-1.2,9.4-3,10c-7.9,3.1-16.3,6.8-24.5,6.9
		c-48.8,0.6-97.6,0.3-146.4,0.2c-4.4,0-9.5,0.6-13.1-1.3c-4.2-2.3-8.5-6.6-10-11c-1-2.9,1.9-9.7,4.7-11c29.2-13.4,28-41.8,33.3-66.6
		c6.2-29,11.4-58.2,16.7-87.4c1.9-10.8,2.4-21.9,4.3-32.7c5.1-29.2,10.5-58.4,15.9-87.5c1-5.4,2.8-10.7,3.6-16.1
		c4.8-29.4,9.3-58.8,14.2-88.1c5.6-33.7,11.8-67.2,16.8-101c0.8-5.4-3.2-11.9-6.1-17.4c-2.9-5.5-7.2-10.3-12.6-17.7
		c7.9-3.2,13.6-7.4,19.2-7.5c71-0.5,142-0.5,213-0.2c6,0,12.1,3.2,17.4,4.7c4.6,23.2-16.1,18.4-27.8,28.5
		c61.4,85.2,123,170.6,188.4,261.4c4.7-24.6,8.2-42.3,11.5-60c10.1-54.2,21.1-108.4,29.6-162.9c3.3-21.1,0.5-43,0.5-65.8
		c19.8-8.4,147.9-9.9,182.2-0.2c-2.7,5.8-4.2,14.9-7.9,15.9c-23.5,6.4-25.6,27.3-28.9,44.6c-9.2,47.6-14.5,95.9-23.2,143.6
		c-8.2,45.5-18.9,90.6-28,135.9c-3.4,17.3-4.7,35-7.8,52.3c-4.8,27-11.8,53.8-15,80.9c-1.8,15.1-7.5,32.4,12.7,44
		c10.5,6,6,19.1-6.2,21.5c-7.5,1.5-15.4,1.1-23.2,1.1c-43.3,0.1-86.5,0.2-129.8-0.1c-10.7-0.1-21.4-1.2-32.1-1.9
		C3209.5,2673.6,3208.3,2670.7,3207.1,2667.9z"/>
	<path d="M1965.3,2137.4c-1.5,7.1-1.2,12.2-3,13.1c-36.6,18.9-30.5,56.8-39.1,87.8c-4.4,15.9-5.1,32.7-8,49
		c-10.5,57.5-22,114.9-31.7,172.5c-8.5,51-14.8,102.4-22.6,153.5c-1.5,9.7-5.2,19-8.5,30.4c3.8,3,8.5,5.8,12.1,9.6
		c10.2,10.8,7.9,20.9-5.4,24.1c-5.3,1.3-11,1-16.6,1c-51.1,0.1-102.1,0.1-153.2-0.1c-6.6,0-13.8,0.3-19.6-2.2
		c-8.6-3.7-11.3-15.7-4.1-18.4c30.6-11.6,25.8-41.8,33.9-63.6c8.2-22.1,6.6-47.8,9.8-71.9c1.5-10.9,4.2-21.6,6.5-32.3
		c1.8-8.3,3.9-16.6,6.9-29.1c-85-3.9-166.5-1.3-248.3-1.7c-12.1,22.4-17.7,43.7-19.4,67.6c-2.1,29.6-8.6,59-14.8,88.2
		c-3.3,15.6-8.5,28.5,9.5,40.4c11.5,7.7,5.7,20.3-9,22.6c-6.5,1-13.3,0.6-19.9,0.6c-47.7,0-95.5,0.1-143.2-0.1
		c-10.7-0.1-21.3-1.2-34.6-2.1c2.2-8.8,2.2-17.2,4.9-18.2c30.5-11.3,29.1-39.9,33.6-63.6c18.6-98.6,35.9-197.4,52.9-296.2
		c6-34.8,8.7-70.1,14.6-104.8c3.2-18.4,0.9-34.1-14.3-49c7.2-4.7,12.2-10.9,17.3-10.9c62.1-0.5,124.2-0.2,186.3,0.2
		c2.8,0,5.5,3,10.5,5.8c-2.9,5.8-4.3,14.1-8.4,15.9c-21.8,9.3-26.2,28.7-30.4,48.3c-4.4,20.4-9.3,40.7-11.7,61.3
		c-1.9,16.1-0.4,32.7-0.4,48.7c24.7,7.1,206.9,8.7,247.8,2.2c5.2-25.9,10.7-52.8,16-79.6c2.8-14.1,5-28.3,8.1-42.4
		c3.4-15.2,8.8-28.9-10.4-39.9c-10-5.7-4.4-18.3,8.1-21c3.2-0.7,6.6-0.6,9.9-0.6c56.6,0,113.2,0,169.8,0.3
		C1952.6,2132.9,1957.8,2135.4,1965.3,2137.4z"/>
	<path class="st4" d="M3317.9,137.9c32.9-4.6,57.7-5.2,82.7,2.4c57.1,17.4,73.8,56.8,70.5,112.2c-2.6,44.4-14.1,87.2-26.8,129.7
		c-6,20-7.4,41.4-12.5,61.7c-13.1,52.4-27.9,104.5-40.6,157c-15.4,64.3-28.9,129.1-44,193.5c-8.3,35.5-18.2,70.6-27,105.9
		c-16,64.2-31.9,128.5-47.6,192.9c-20.4,83.7-40.8,167.4-60.8,251.2c-17.2,72-33.9,144.1-51,216.1c-5.1,21.4-10.6,42.8-16.2,64.1
		c-12,45.9-26.5,91.3-35.1,137.8c-4.4,23.6-12.7,44.3-22.8,65.2c-23.4,48.3-60.4,81.2-111.7,97.4c-14.8,4.7-29.8,8.7-45,12
		c-11.9,2.6-24.2,4.1-34.9-8.9c3.4-5.3,6-11.3,10.3-15.5c39.3-39,66.9-84.1,79-138.9c8.1-36.6,20.1-72.3,29.6-108.6
		c3.6-13.8,5-28.2,7.2-42.3c1-6.6,0.9-13.3,2.5-19.7c29.1-114.7,58.7-229.2,87.5-344c18.3-73,34.9-146.4,53-219.5
		c24.2-97.7,49.6-195.1,73.3-293c15.9-65.5,29-131.7,44.7-197.3c17.4-73.1,35.2-146.3,55-218.8c10.8-39.4,11.8-78.9,9.4-118.7
		c-0.8-13.8-7.9-27.3-13-40.6C3330,161.5,3324.8,152.2,3317.9,137.9z"/>
	<path d="M2651.9,2667.6c-11.3,4.9-17.7,9.4-24.4,10.3c-42.1,5.5-165.6,0.7-183.7-6.5c-0.4-2.1-1.8-5.5-0.9-6.2
		c19.1-15.9,20.2-33.3,8.9-55.2c-5.7-11-4.1-25.8-6.1-41.5c-8.4-1.2-16.8-3.4-25.1-3.4c-63.2-0.3-126.4,0.5-189.6-0.6
		c-18.1-0.3-29.2,5.4-36.3,21.8c-4.4,10.1-11.4,19-16.4,28.8c-8.7,17.1-20.9,34.1-0.2,57.6c-58.9,11.1-112.7,3.8-165.9,5.3
		c-7.4,0.2-14.9-4.8-27.5-9.3c41.8-35.3,59.7-79.7,83.6-119.8c32.1-54,60.7-110.1,91-165.1c35.7-64.6,70.6-129.8,108.2-193.3
		c10.2-17.2,14.3-31.1,1.9-50.4c9.1-3,15.9-7,22.7-7.1c74.3-0.5,148.6-0.4,222.9-0.2c6.2,0,12.4,2.8,20.9,4.8
		c-18.3,51.1,0.2,97.6,11.5,145c14.2,60.1,27,120.4,41,180.6c9.7,41.7,20.2,83.3,30.4,124.9c0.8,3.2,2.2,6.6,1.9,9.7
		C2618.2,2624,2630.2,2644.6,2651.9,2667.6z M2249.6,2474.5c64.1,0,119.7,0,179.7,0c-5.7-79.4-35-150.7-47-225.6
		c-2.4-0.5-4.9-1-7.3-1.5C2334.5,2320.7,2294,2394.1,2249.6,2474.5z"/>
	<path d="M951.6,2136.8c11.4-1.8,19.7-4.1,28-4.2c52.1-0.4,104.3-0.2,156.4-0.2c5.5,0,11.2,0,16.5,1.2c10.2,2.4,15.1,15.3,7,19.7
		c-33.1,17.9-29.2,51.5-35.7,80.3c-5.1,22.5-6.8,45.8-10.2,68.7c-3.6,24-6.8,48-11.3,71.9c-3,16.2-8.9,31.9-11.6,48.1
		c-8.4,49.9-13.2,100.3-26.1,149.5c-5.8,22.1-6.6,45.4-10.1,71.4c5.1,4.8,12.8,12.1,24.6,23.3c-10.2,4.9-17.2,11.1-24.2,11.2
		c-57.7,0.8-115.4,0.8-173.1,0.1c-6.3-0.1-15.6-4.8-18.2-10c-4.1-8.4,4.4-12.2,11.2-16.9c6.5-4.4,13.1-12.1,14.6-19.5
		c7.8-36.6,13.7-73.7,20.7-110.5c4.3-22.8,9.9-45.3,13.8-68.1c9.2-54.2,17.4-108.6,26.8-162.8c5.3-30.4,12.3-60.6,18.8-90.8
		c4-18.4,11.7-37.3-13.2-47.9C954.4,2150.6,954.3,2145.5,951.6,2136.8z"/>
	<g>
		<path class="st5" d="M307.4,2970.6c-12.3,17.8-22.5,35.6-32.7,53.4c13.6,22.1,25.4,50,35.6,83.5c6.4,21.2,13.1,45.8,13.1,75.1
			c0,8.1-10.6,20.8-29.3,35.2c-26.7,20.8-68.7,36.9-102.6,36.9c-31.8,0-61.9-11.4-80.2-28.4c-16.5-15.3-28.4-37.7-28.4-73.8
			c0-19.5,9.3-52.2,23.8-79.3l-16.1-8.9c-19.5,32.2-36.5,69.6-36.5,123.4c0,75.5,50.5,128.5,130.2,128.5c50,0,104.8-25.9,141.2-64.5
			c17-17.8,30.1-65.7,30.1-108.1c0-64.5-16.1-118.3-45.4-173.9L307.4,2970.6z"/>
		<path class="st5" d="M245.9,2878.2c-16.5-17.4-33.5-32.6-50.9-45.4c-11.4,13.1-22.9,28-34.4,43.3c17,14.4,33.5,28,50,43.7
			C225.1,2907.4,236.6,2893.4,245.9,2878.2z"/>
		<path class="st5" d="M700.1,3300.1c-10.6,11-22.5,25-33.5,40.3c17,14,32.2,27.6,49.6,44.1c11.9-11,20.3-22.1,32.2-39
			C731.9,3327.7,717.5,3313.7,700.1,3300.1z"/>
		<path class="st5" d="M781.9,3294.6c-10.6,11-22.5,25-33.5,40.3c17,14,32.2,27.6,49.6,44.1c11.9-11,20.3-22.1,32.2-39
			C813.8,3322.2,799.3,3308.2,781.9,3294.6z"/>
		<path class="st5" d="M667.5,3215.3h5.1c64.9,0,95-6.4,114.1-25.4c17-22.5,29.7-47.1,29.7-78.9c0-42-22.9-95-42.4-129.3h-2.1
			c-11,13.6-21.6,29.7-31.8,47.9c22,43.3,42.4,84.8,42.4,104.8c0,7.2-9.3,13.1-24.2,18.7c-18.7,6.8-47.5,8.1-83.5,8.1h-7.2h0h-37.7
			c-11.9-86.9-52.2-141.6-91.2-141.6c-26.7,0-49.2,17.4-65.3,40.7c-12.3,17.4-21.6,39.4-21.6,68.3c0,59.4,44.1,86.9,130.6,86.9H603
			c-5.5,21.6-19.5,38.6-39.9,59.4c-36.5,37.3-75.1,58.5-117.9,58.5c-25.4,0-45.8-6.4-62.3-15.3l-7.2,14
			c40.7,25,83.5,42.8,122.1,42.8c22.5,0,69.5-22.9,102.2-72.5c17.8-26.7,30.1-60.2,32.2-86.9L667.5,3215.3L667.5,3215.3z
			 M524.5,3154.7c-26.3-7.6-46.2-20.4-46.2-42c0-17,24.2-37.3,47.9-37.3c15.7,0,31.4,8.5,45,23.8c14.4,15.7,25,38.2,29.7,61.9
			C573.3,3161,547.9,3161,524.5,3154.7z"/>
		<path class="st5" d="M1043.6,2967.2c-16.5-17.4-33.5-32.6-50.9-45.4c-11.5,13.1-22.9,28-34.3,43.3c17,14.4,33.5,28,50,43.7
			C1022.8,2996.5,1034.3,2982.5,1043.6,2967.2z"/>
		<path class="st5" d="M1247.2,3294.6c-10.6,11-22.5,25-33.5,40.3c17,14,32.2,27.6,49.6,44.1c11.9-11,20.3-22.1,32.2-39
			C1278.9,3322.2,1264.5,3308.2,1247.2,3294.6z"/>
		<path class="st5" d="M1165.3,3300.1c-10.6,11-22.5,25-33.5,40.3c17,14,32.2,27.6,49.6,44.1c11.9-11,20.3-22.1,32.2-39
			C1197.1,3327.7,1182.7,3313.7,1165.3,3300.1z"/>
		<path class="st5" d="M1132.7,3215.3h5.1c64.9,0,95-6.4,114.1-25.4c17-22.5,29.7-47.1,29.7-78.9c0-42-22.9-95-42.4-129.3h-2.1
			c-11,13.6-21.6,29.7-31.8,47.9c22.1,43.3,42.4,84.8,42.4,104.8c0,7.2-9.3,13.1-24.2,18.7c-18.7,6.8-47.5,8.1-83.5,8.1h-7.2l0,0
			h-7.6c-49.2,0-71.2-33.5-95.4-91.6l-3,0.4c-7.2,14-14.8,29.7-23.3,49.2c9.8,20.4,20.4,39.9,36.9,63.2c5.5,7.2,9.3,14,11.4,19.1
			c-9.3,62.8-84,127.2-140.8,127.2c-21.6,0-37.3-3.8-48.8-9.3l-6.4,14.4c35.2,18.7,74.2,33.1,106,33.1c31.4,0,67.9-25.4,101.4-84.4
			c11.4-20.4,17-45.8,17-65.7c0-4.7-0.4-9.8-0.8-14.8h1.7c10.6,9.8,24.2,13.6,42.8,13.6L1132.7,3215.3L1132.7,3215.3z"/>
		<path class="st5" d="M1865.9,2906.2c-16.5-17.8-31-31.8-48.3-45.4c-10.6,11-22.5,25-33.5,40.3c17,14,32.2,27.6,49.6,44.1
			C1845.5,2934.2,1854,2923.1,1865.9,2906.2z"/>
		<path class="st5" d="M1899.4,2855.3c-10.6,11-22.5,25-33.5,40.3c17,14,32.2,27.6,49.6,44.1c11.9-11,20.3-22.1,32.2-39
			C1931.2,2882.9,1916.8,2868.9,1899.4,2855.3z"/>
		<path class="st5" d="M1898.9,2981.7c-11,13.6-21.6,29.7-31.8,47.9c22.1,43.3,42.4,84.8,42.4,104.8c0,7.2-9.3,13.1-24.2,18.7
			c-18.7,6.8-47.5,8.1-83.5,8.1h-7.2l0,0h-5.5c-49.2,0-62.8-28.8-62.8-48.3c0-129.8-0.4-233.7-8.5-333.3l-2.1-0.9l-37.8,38.2
			l1.3,21.2c6.4,97.5,11,173.9,11,259.1c0,30.1-7.6,43.7-20.4,50.9c-13.2,7.2-31.8,13.1-49.2,13.1h-8.5l0,0h-37.7
			c-11.9-86.9-52.2-141.6-91.2-141.6c-26.7,0-49.2,17.4-65.3,40.7c-12.3,17.4-21.6,39.4-21.6,68.3c0,59.4,44.1,86.9,130.6,86.9h20.8
			c-5.5,21.6-19.5,38.6-39.9,59.4c-36.5,37.3-75.1,58.5-117.9,58.5c-25.4,0-45.8-6.4-62.3-15.3l-7.2,14
			c40.7,25,83.5,42.8,122.1,42.8c22.5,0,69.6-22.9,102.2-72.5c17.8-26.7,30.1-60.2,32.2-86.9h35.2l0,0h7.2
			c41.1,0,68.7-20.8,81.8-44.9h1.7c13.6,31.4,43.3,44.9,82.7,44.9h8.9l0,0h5.1c64.9,0,95-6.4,114.1-25.4
			c17-22.5,29.7-47.1,29.7-78.9c0-42-22.9-95-42.4-129.3L1898.9,2981.7L1898.9,2981.7z M1469.4,3154.7c-26.3-7.6-46.2-20.4-46.2-42
			c0-17,24.2-37.3,47.9-37.3c15.7,0,31.4,8.5,44.9,23.8c14.4,15.7,25,38.2,29.7,61.9C1518.1,3161,1492.7,3161,1469.4,3154.7z"/>
		<path class="st5" d="M2133.2,2982.9c-19.9,0-41.1,14-60.6,35.2c-16.5,21.2-27.1,44.9-27.1,72.9c0,56.4,42.8,79.7,92.5,79.7
			c19.1,0,38.2-2.6,56.4-7.6c-3,25-20.8,50-39.9,70.8c-39,43.3-81.9,64.9-124.7,64.9c-20.8,0-41.1-3.8-61.9-14.4l-6.4,13.6
			c42.4,28.8,82.7,41.6,121.7,41.6c35.2,0,71.2-23.3,109-80.6c22.5-34.8,32.2-72.1,32.2-111.5c0-47.1-11-87.4-27.1-116.6
			C2180.7,3000.3,2157.8,2982.9,2133.2,2982.9z M2143.8,3119.1c-34.8,0-72.1-18.7-72.1-44.9c0-15.7,27.6-37.7,47.5-37.7
			c36.5,0,61.1,34.4,72.5,77.2C2176.5,3117.4,2159.9,3119.1,2143.8,3119.1z"/>
		<path class="st5" d="M2613,3300.1c-10.6,11-22.5,25-33.5,40.3c17,14,32.2,27.6,49.6,44.1c11.9-11,20.4-22.1,32.2-39
			C2644.8,3327.7,2630.4,3313.7,2613,3300.1z"/>
		<path class="st5" d="M2694.8,3294.6c-10.6,11-22.5,25-33.5,40.3c17,14,32.2,27.6,49.6,44.1c11.9-11,20.4-22.1,32.2-39
			C2726.6,3322.2,2712.2,3308.2,2694.8,3294.6z"/>
		<path class="st5" d="M2580.3,3215.3h5.1c64.9,0,95-6.4,114.1-25.4c17-22.5,29.7-47.1,29.7-78.9c0-42-22.9-95-42.4-129.3h-2.1
			c-11,13.6-21.6,29.7-31.8,47.9c22.1,43.3,42.4,84.8,42.4,104.8c0,7.2-9.3,13.1-24.2,18.7c-18.7,6.8-47.5,8.1-83.5,8.1h-7.2l0,0
			h-37.7c-11.9-86.9-52.2-141.6-91.2-141.6c-26.7,0-49.2,17.4-65.3,40.7c-12.3,17.4-21.6,39.4-21.6,68.3
			c0,59.4,44.1,86.9,130.6,86.9h20.8c-5.5,21.6-19.5,38.6-39.9,59.4c-36.5,37.3-75.1,58.5-117.9,58.5c-25.4,0-45.8-6.4-62.3-15.3
			l-7.2,14c40.7,25,83.5,42.8,122.1,42.8c22.5,0,69.6-22.9,102.2-72.5c17.8-26.7,30.1-60.2,32.2-86.9L2580.3,3215.3L2580.3,3215.3z
			 M2437.4,3154.7c-26.3-7.6-46.2-20.4-46.2-42c0-17,24.2-37.3,47.9-37.3c15.7,0,31.4,8.5,44.9,23.8c14.4,15.7,25,38.2,29.7,61.9
			C2486.2,3161,2460.7,3161,2437.4,3154.7z"/>
		<path class="st5" d="M2881.4,2918.5l-3.4,0.4c-9.8,15.7-21.6,37.7-21.6,48.3c0,5.1,3.4,10.6,13.6,15.7
			c30.1,15.3,62.3,38.2,86.5,64c25,27.6,39.9,57.7,39.9,80.6c0,3.4-3,7.2-8.5,10.2c-31,17.4-58.9,27.6-92,27.6
			c-53,0-68.3-28.8-69.6-65.3h-16.5c-2.1,13.6-2.1,24.2-2.1,31c0,62.8,33.1,89.5,81.4,89.5c39.9,0,80.1-17,117.9-39.4
			c11-22.9,17.8-47.9,17.8-74.2c0-35.6-16.1-68.3-42-100.5C2954.3,2971.1,2915.8,2939.7,2881.4,2918.5z"/>
		<path class="st5" d="M3151.9,3087.3c0-98.8-2.1-206.1-11-298.6l-3.8-1.3c-13.1,11.9-29.7,29.7-41.6,44.9
			c6.8,73.4,15.3,186.2,15.3,263.8v41.6c0,28-0.4,58.1-4.7,84.8l5.5,3c24.6-27.1,36.1-44.9,37.3-68.3
			C3151.1,3138.6,3151.9,3113.1,3151.9,3087.3z"/>
		<path class="st5" d="M3355.1,3053.8l-30.1-57.2l-2.5-0.4c-10.6,17.4-20.4,34.8-30.1,53c18.7,28.4,35.6,59.4,50.9,93.3
			c2.6,7.2,5.9,15.3,5.9,22.5c0,4.7-1.3,11.4-4.7,18.7c-28,62.8-89.1,114.1-148.9,114.5c-18.7,0-33.9-3.4-47.1-7.6l-4.7,14.4
			c41.6,21.2,77.6,32.6,109,32.6c21.2,0,44.1-11.4,70-38.6c33.1-39.9,53.4-80.1,53.4-117.9v-46.6
			C3376.3,3097.9,3366.1,3075,3355.1,3053.8z"/>
	</g>
</g>
</svg>
