<?xml version="1.0" encoding="utf-8"?>
<!-- Generator: Adobe Illustrator 27.7.0, SVG Export Plug-In . SVG Version: 6.00 Build 0)  -->
<svg version="1.1" id="Layer_1" xmlns="http://www.w3.org/2000/svg" xmlns:xlink="http://www.w3.org/1999/xlink" x="0px" y="0px"
	 viewBox="0 0 3500 3500" style="enable-background:new 0 0 3500 3500;" xml:space="preserve">
<style type="text/css">
	.st0{fill:#FFFFFF;}
	.st1{fill:#FF0000;}
</style>
<path class="st0" d="M2046.6,2683.1c-1.2,1.2-2.6,1.6-4.1,1.2c-5.8-1.4-11.4-4.3-16.8-8.7c-1.4-1.2-1.6-2.5-0.7-4.1
	c0.2-0.4,0.4-0.8,0.5-1.2c0.1-0.4,0.2-0.9,0.1-1.3c-7.3-46.6-10.9-86.1-10.8-118.4c1.4-531,1.5-1063.5,0.2-1597.4
	c-0.1-37.4,3.4-74.4,5.3-111.1c0.1-2.8,2.3-5.2,5.1-5.6c49.3-7.7,98.3-10.9,147.2-9.7c18.4,0.5,36.2,0.7,53.4,0.7
	c342.9,0.2,676.4,0.5,1000.5,0.6c19.2,0,40.7,1,64.6,2.9c10.2,0.8,19.4,3.4,27.6,7.8c14.7,7.9,30.2,16,46.7,24.2
	c11.8,5.9,22.2,12.6,31.4,20.1c13.8,11.3,28.6,22.2,39.1,36.9c20.3,28.5,38.1,60,53.5,94.4c4.3,9.7,6.9,20,7.9,31
	c1.9,22.4,2.9,43.8,2.9,64.2c-0.2,434-0.3,860.7,0,1279.9c0,33.8,0.2,73.4-12.9,106.2c-10.1,25.3-19.6,45.6-28.6,60.9
	c-7.1,12.1-16.7,25-28.7,38.8c-35.8,40.8-77.7,68.3-125.7,82.7c-13.4,4-28.2,4.4-40,11.5c-21.3,12.8-47.2,15.3-71.5,15.8
	c-44.7,0.9-88,0.7-129.8-0.6c-31.3-1-62.6,1.4-94.4,0.6c-13.7-0.4-30.9-2.5-51.4-6.4c-5.3-1-9.6-2.7-13.1-5.2
	c-3.9-2.8-8.1-5.5-12.4-8.1c-1.4-0.9-2.9-1.1-4.5-0.7c-6.2,1.4-12.1,4.2-17.7,8.5c-1.3,1-3.1,1.4-4.7,1c-6.5-1.5-8.9-5.5-7.2-12.2
	c3.9-15.4,7.1-31,9.5-46.7c5.7-36.8,13.9-72.7,21.9-109.3c9-41.2,15-83.4,24.4-124.7c4.5-19.9,8.8-40.7,12.7-62.2
	c8.4-45.7,17.7-92.7,28.2-141.1c7.7-35.5,12.6-72.9,21-109c8.4-35.7,15.5-70.3,21.2-103.8c8.6-49.7,21.6-100.6,29.8-148.8
	c11.1-65.1,27.6-125,36.9-190.5c0.3-1.8,1-3.4,2.2-4.7c2.8-3.2,4-6.8,3.6-10.7c-1-9.1,2.4-18.2,4.4-26.8c0.4-1.6,0.3-3.1-0.2-4.6
	c-1.3-3.9-1.2-8,0.2-12.5c3.3-10,7.5-19,9.2-29.7c2.6-17.1,4.6-33.9,6.1-50.2c0.9-10.4,2.6-19.7,5-27.8c13.7-46.2,7-94.9-15.8-138
	c-23.6-44.5-47.5-81.1-91.2-105.9c-36.4-20.7-78.1-36.1-121.1-37.6c-81.1-2.9-163.8-3-248.1-0.4c-25.1,0.8-49.4-1.2-74.4-1.3
	c-14.3,0-27,4.6-41.3,2c-8.2-1.5-14.3,5.5-16,12.7c-19.8,84.4-37.9,172.5-54.2,264.3c-3,17-4.2,34.8-5.1,51.9
	c-0.2,2.8,2,5.3,4.9,5.4c0.1,0,0.2,0,0.3,0c32.7-0.3,65.3-0.4,97.6-0.4c38.1,0,76.5,6.7,114.6,1.7c3-0.4,5.8,1.7,6.2,4.7
	c0.1,0.6,0.1,1.2-0.1,1.8c-52.3,261-105.2,525.2-158.8,792.5c-2,10.2-3.4,20.4-4.1,30.8c-0.8,12.2-2.8,24.5-6,36.9
	c-0.3,1-0.8,1.8-1.6,2.5c-1.4,1.2-2.3,2.7-2.7,4.6c-18.4,91.3-37.2,182.8-56.4,274.4c-2.6,12.6-13.4,18.5-24.1,23.9
	c-5,2.5-8.7-0.2-13.7-0.2c-66.7-0.2-127.1-0.7-181.2-1.7c-7.8-0.2-15.8,0.1-23.8,0.8c-18.1,1.5-35.3,2.6-51.8,3.2
	c-7.9,0.3-16-0.6-24.1-2.7c-17.4-4.5-34.9-5.7-46.4-21.4c-1.8-2.5-5.4-3-7.9-1.2C2047,2682.7,2046.8,2682.9,2046.6,2683.1z
	 M3072.7,2698c7.7,0.1,15.2-0.2,22.6-0.8c1-0.1,1.8-0.5,2.4-1.2c0.5-0.6,0.7-1.3,0.7-2.1c-0.1-1.3-1.3-2.2-2.6-2.1c0,0-0.1,0-0.1,0
	c-7.6,1.2-15.3,2.7-23.1,4.6C3068.3,2697.5,3068.4,2698,3072.7,2698z"/>
<path class="st1" d="M1114.3,1210.9c26.4,3.8,49.9,16.9,70.4,39.3c30,32.7,50.9,70.6,62.6,113.6c5,18.4,10,40.2,14.9,65.4
	c3.4,17.2,5,35.1,4.9,53.7c-0.2,23.5-0.4,48.2-0.7,74.1c-0.2,19.3-3.2,42.6-9,70.1c-29.8,139.7-93,265.7-178.4,376.5
	c-51.4,66.7-105.2,130.4-161.6,191.1c-77.2,83.2-156,163.4-244.6,241.2c-118.6,104.1-252.6,189.7-408.3,205.4
	c-38.5,3.9-74.9,3-109-2.6c-33-5.5-69-18.6-96.9-35.6c-24.3-14.8-38-43.4-45.6-71.9c-10.8-40.3-22.7-79.5-23.4-121
	c-0.7-45.3-1.1-90.8-1.1-136.6c0-339.5-0.1-680.5-0.3-1022.8c0-44.1,0.2-86.7,0.8-127.7c0.4-28.4,2.4-53,6.1-73.9
	c1.9-10.8,5.9-27.9,12-51.4c21-80.7,72.9-136.5,155-162.3c15.5-4.9,30.4-7.3,44.8-7.3c535-0.7,1055.6-0.6,1561.6,0.3
	c27.3,0,54.2,2.3,80.8,6.8c6.9,1.2,10.4,5.1,10.4,11.9c0.5,122.4,0.5,248.5,0.1,378.3c-0.1,23-4,47.7-11.9,74.3
	c-14.9,50.1-30.9,99.3-56.8,143c-35.7,60.3-77.2,113.2-124.4,158.5c-58.6,56.3-127.1,108.7-194.4,158.2c-6.8,5-12.5,14.9-14.6,23.2
	c-21.3,83.9-40.1,168.5-76.3,247c-3.1,6.8-4.8,15.2-5.1,25.1c-0.4,11.2,12.6,13.7,19.5,6.3c26.5-27.9,57-51.3,85.1-79
	c120.1-118.6,239.3-250.9,310-405.4c19.1-41.8,37.5-86.7,55.1-134.5c2.8-7.5,7.2-13.5,13.2-18c1.5-1.1,3.7-0.8,4.8,0.7
	c0.5,0.6,0.7,1.4,0.7,2.2c-2.8,57.2-4.2,114.2-4.3,170.9c-0.2,319.9-0.3,634.1-0.2,942.7c0,28.2-0.8,52.4-2.4,72.4
	c-1.7,21.6-2.5,41.6-2.2,60.1c0.3,16.9-19.7,25.1-33.1,25.6c-87.7,2.8-177.9,6.6-266.8,6.2c-212.6-0.8-406.9-0.5-583,0.8
	c-18.7,0.2-40.4,1.4-58.5-5.8c-6.4-2.5-13.2-4.4-20.5-5.8c-4.1-0.8-6.8-4.7-6.1-8.8c0.2-1.3,0.8-2.6,1.7-3.6
	c50.6-58.5,101.4-117.4,146.4-179.8c57.2-79.2,111.9-157.3,164.3-234.3c11.2-16.4,25.6-40.9,36.4-62.1
	c117.6-229.4,185.4-472.5,203.2-729.3c0.8-11.4-1.8-41.2-7.7-89.3c-7.3-59.1-21.2-119.2-49.8-169.9
	c-51.7-91.3-128.3-153.5-229.9-186.7c-16.2-5.3-33-8.5-50.3-9.8c-53.7-3.7-107.8-4.8-159.3,9c-54.7,14.6-103.9,35.4-147.6,62.4
	c-96,59.2-181,147.6-243.8,240.9c-15.5,23-31,48.4-46.6,76c-61.1,108.6-107.2,228.9-135,344.7c-15.6,65.2-26.6,118.9-32.8,161
	c-6.8,46.4-8,92.8-3.4,139.4c1.8,18.7,6.1,41,12.8,66.8c24.5,94.2,81.7,162.9,172.5,206c8.6,4.1,17,6.7,25.2,7.9
	c10.7,1.5,20.8,9.2,30.8,8.5c13.8-0.9,27.2,1.6,41,1.5c27.3-0.2,49.4-2.6,73.3-18.1c15.1-9.9,28.5-19.7,40-29.3
	c44-36.6,87.8-79,124.9-119.3c49.7-54.1,97.5-109.4,143.4-165.8c1.6-2,1.4-4.9-0.5-6.7c-4.6-4.1-10.1-5.1-16.7-2.9
	c-21,6.9-41.5,14.4-63.6,16c-54.8,4-119.2,7-167.9-14.2c-25.8-11.2-50.2-29.2-73.1-54.1c-24.1-26.2-32.9-51.3-43.6-84.1
	c-5.4-16.8-8.5-32.3-9.2-46.5c-1.9-38.5-0.3-71.2,4.5-98.2c7.8-43.1,20.4-90.1,40-131.4c15.7-33.1,32.2-64.4,49.4-93.9
	c62.7-107.2,145.2-191.9,247.4-254.2c8.5-5.2,23.6-12.1,45.3-20.7c12.9-5.1,26.1-8.6,39.6-10.4
	C1072.1,1208,1093.7,1208,1114.3,1210.9z"/>
</svg>
