<?xml version="1.0" encoding="utf-8"?>
<!-- Generator: Adobe Illustrator 27.7.0, SVG Export Plug-In . SVG Version: 6.00 Build 0)  -->
<svg version="1.1" id="Layer_1" xmlns="http://www.w3.org/2000/svg" xmlns:xlink="http://www.w3.org/1999/xlink" x="0px" y="0px"
	 viewBox="0 0 3500 3500" style="enable-background:new 0 0 3500 3500;" xml:space="preserve">
<style type="text/css">
	.st0{fill:none;stroke:#EA6048;stroke-width:2;}
	.st1{fill:#FEBF00;}
	.st2{fill:#D50090;}
</style>
<g>
	<path vector-effect="non-scaling-stroke" class="st0" d="M3043.9,2653c0.4,0.3,0.8,0.4,1.2,0.5c1.1,0.2,1.7-0.2,2-1.3
		c0.2-1.2,0.2-2.4-0.1-3.8"/>
	<path vector-effect="non-scaling-stroke" class="st0" d="M3044.3,2608.3l4.2-25c0.1-0.7-0.4-1.4-1.1-1.6c-0.3-0.1-0.6,0-0.9,0.1
		c-3.6,2-6.7,4.9-9.3,8.5"/>
</g>
<path class="st1" d="M2339.2,384.8h76.6h29.6h6.8c16.1-0.3,35.2,0.9,49.9,7.9c11.1,5.3,23.1,6.9,34.6,10.6
	c28.5,9.1,57.9,15.2,84.8,24.8c52.6,19,100.3,40.8,143,65.4c44.6,25.7,83.2,52.7,116,81c37,31.8,60,53,69.1,63.5
	c13.8,15.9,27.8,32,42,48.3c6.1,7,19.8,26.3,40.9,57.6c5.3,7.9,18.1,10,27,9.6c27-1.3,54.2-2.1,81.7-2.3c14.2-0.1,37-1.8,68.5-4.9
	c41.2-4.1,82.3-1.7,123.7-6c15.7-1.6,30.9-2.9,45.6-3.9c5.7-0.4,12.6,0.8,17.8,3.3c2.1,0.9,3,3.3,2.3,5.5c-1.7,4.7-3.8,8.6-6.2,11.8
	c-11.3,14.9-22.7,29.7-34.3,44.5c-20.4,26.2-42.7,52.1-63.6,78.5c-22.3,28.1-45.7,55.1-68.3,84c-14,17.9-29.2,34.8-44,52.2
	c-4.2,4.9-9.6,17.9-0.5,20.8c28.3,9.2,59.2,17.3,92.7,24.5c6.2,1.3,12,3.8,18.2,4.7c4.6,0.7,9.1,1.7,13.6,2.9
	c46.7,12.7,95.4,23.8,144.3,36.1c12,3,25,5.3,39,7c2,0.2,4.5,0,7.7-0.6c1.1-0.2,1.8,0.2,2.2,1.3l1.9,6.2v17.5
	c-0.5,2.8-0.9,4.7-3.5,6.1c-23.1,12.5-43,28.5-65,43.5c-72.7,49.7-144.5,98.7-215.4,146.8c-19.1,12.9-29.3,28.8-30.8,50.9
	c-1.1,15.3-5.6,29.2-7.9,44.2c-1.4,9.4-5,18.1-7,27.3c-1.6,7.2-3.4,14.3-5.4,21.2c-16.2,55.4-34.8,108.3-55.8,158.8
	c-17.7,42.3-37.2,79.3-58.8,111c-42.2,62.1-97.6,123.5-154.7,175.2c-30.7,27.8-65.6,53.5-104.5,76.9c-30.8,18.6-57.9,33.6-81.3,45
	c-23.5,11.4-39.2,18.4-46.9,21c-19.9,6.7-39.5,13.7-58.8,21.2c-16.3,6.3-17.8,18.9-17.7,34.4c0.4,271.3,0.6,527.5,0.4,768.6
	c0,16.3-3.4,32.7-6.1,48.5c-12,70.7-61.9,140.2-128.6,169.7c-21.2,9.4-38.2,6.8-59.1,8.1h-94.5c-11.4-0.5-22.8-0.9-34.2-0.9
	c-7-0.1-19.4-4-37.3-11.7c-15.4-6.7-32.1-16.8-50.3-30.5c-35.4-26.5-61.1-70-70.2-112.2c-5-22.9-6.9-45.7-7.1-69.6
	c-0.8-97.3-1-189.4-0.5-276.3c0.1-12.6-0.8-24.1-2.5-34.3c-1.6-9.6-11.4-8.9-18.6-9c-20.5-0.3-40.1-0.3-58.9-0.1
	c-17.2,0.2-34-4.9-50.7-6.4c-40.8-3.7-79-9.3-114.7-16.6c-7.9-1.6-15.4-2.9-22.4-3.8c-8.8-1.1-16.8-4.5-25.1-6
	c-14.6-2.8-28.9-6-43.1-9.7c-39.6-10.5-74.1-20.7-103.5-30.8c-38.1-13-76.8-25.9-113.2-42.2c-24.2-10.8-48.4-20.8-72.1-32.6
	c-79.8-39.5-155.7-86.7-227.8-141.7c-9.6-7.3-19.2-15.1-28.8-23.3c-12.3-10.6-25.5-20.6-37.2-31.6c-20.4-19-41.1-38.2-62.1-57.5
	c-13.1-12-25.1-24.3-36.2-36.9c-15.4-17.6-32-32.7-46.1-51.3c-16.6-22-32.5-42.7-47.6-65.8c-24.4-37.2-47.8-73.5-70.4-108.7
	c-16.1-25.3-31.5-52.1-45.2-80.1c-20.6-42.1-43.9-83.3-60.9-127.2c-13.2-34.1-27.2-71.7-41.9-112.7c-11.6-32.3-25.4-79.1-41.4-140.4
	c-5-19.1-10.6-39-15.1-58.3c-2.4-10.1-5.3-21.9-8.6-35.5c-3.2-12.8-5.2-25-6.1-36.4c-3.8-51.1-8.2-100.6-5.3-149.4
	c2.5-43.3,15.2-84.1,40.1-117.8c8.9-12,20-24.1,33.5-36.5c30.6-28,67.7-40.3,108.5-50.4c11.6-2.9,23.5-4.7,35.8-5.4
	c32.7-2,61.1-1,85.1,3c13.1,2.2,29.7,7.9,49.6,17.3c48.8,22.9,85.2,59.2,109.2,109.1c9.4,19.5,16,36.9,19.8,52.3
	c7.5,30,12.5,62.6,14.9,98c1.2,17.1,5.1,33.2,6.9,49.8c0.8,7.1,2.4,14.1,4.8,20.9c3.4,9.7,2.9,20.3,5.5,30.7
	c7.9,32.4,16.7,63.3,26.3,92.6c23.2,70.5,53.8,137.3,91.9,200.4c6.4,10.7,16.1,25.5,28.9,44.6c38.2,56.7,84.6,108.5,135.5,155.3
	c13,12,27.5,23.1,41.3,35.1c5.3,4.6,10.9,9.1,16.6,13.6c45,34.6,93.7,65.6,146,93c16.3,8.5,34.2,16.7,53.7,24.4
	c21.7,8.6,43.7,17.4,65.9,26.5c15.2,6.2,29,10.7,41.4,13.4c14.1,3.2,26.2,8.2,39.2,13.3c2.9,1.1,5,0.7,6.3-1.3
	c0.6-0.8,0.5-1.6-0.3-2.2c-8-6.8-16.8-11.3-25.4-17.6c-49.2-36.2-100.4-69.8-145.6-112.2c-26.1-24.5-50.9-48.8-74.6-72.9
	c-13.9-14.1-26.5-28.5-37.8-43.2c-53.8-69.4-98.9-143.1-128.2-220.7c-13.5-35.8-23.8-68.4-30.9-98.1c-2.2-9-4.4-18-6.8-27
	c-2.2-8.4-4-16.6-5.2-24.6c-1.8-11.3-4.9-22.1-5.7-33.6c-1.5-20.7-6.6-41.1-7.3-62.7c-1.2-35.2-5.2-71.7-3.2-108.9
	c1.5-26.8,4-55.4,7.5-85.8c2.5-21.6,5.7-42,9.7-61.2c39.6-191.6,139.1-369.5,288.1-494.5c30.4-25.5,64.9-49.9,103.5-73.2
	c22.7-13.7,46.5-25.2,70.1-37.4c9.9-5.1,19.5-9.6,28.9-13.5c38.9-16.1,76.1-29.2,111.6-39.4c24.2-6.9,49.9-13.3,77.1-19.1
	c5.1-1.1,13.2-3.6,24.1-7.6c14-5.1,29.5-7.5,46.6-7.2C2219.3,385.7,2266.4,385.5,2339.2,384.8z M2690.9,1141.3
	c-13-42.3-35.9-86.9-65.6-122.9c-10.2-12.4-21.2-24.6-32.9-36.6c-45.2-46.3-98.7-79.3-160.5-98.9c-12-3.8-24.1-5.6-36.2-8.6
	c-8.8-2.1-17.8-3.9-27.2-5.2c-34.4-4.7-68.7-4.8-102.9-0.2c-94.7,12.7-174.4,53-239.1,120.8c-29,30.3-51.8,63.2-68.6,98.7
	c-9,19-16.1,39.9-22.2,60c-8.3,27.5-13,53.7-14.1,78.8c-1.2,27.4-1.9,61.5,1.8,90.3c5.7,44.2,20.1,88.5,43.2,132.9
	c7.8,15.1,17.1,29.7,27.9,44c12.2,16.1,23.2,29.4,33.2,39.8c51,53.8,113.3,90.3,186.8,109.5c11.6,3,22.7,5.3,33.2,6.8
	c9.3,1.4,18.8,2.9,28.5,4.5c27,4.7,51.5,5.1,73.4,1.3c9.4-1.6,18.7-3.1,27.9-4.5c12.2-1.8,21.4-3.6,27.7-5.2
	c79.2-20.4,145.9-60.4,199.9-120c42.9-47.3,73.1-102.5,90.7-165.7c13.4-48,13.7-100.2,9.9-149.3c-0.8-10.3-2.5-21.7-5.3-34.1
	C2697.5,1164.6,2694.3,1152.5,2690.9,1141.3z"/>
<ellipse transform="matrix(0.9987 -5.059294e-02 5.059294e-02 0.9987 -57.9444 121.4658)" class="st1" cx="2370.3" cy="1205.3" rx="217.6" ry="217.3"/>
<path class="st2" d="M1167.7,3115.2h-55.2c-330.9-0.4-661.7-0.8-992.6-1.1c-9.8,0-20.4,0-31.9,0.1c-8.4,0.1-18.4-2.4-25.8-6.5
	c-25.7-14.4-44.2-33.6-55.6-57.6c-8.6-18.2-7.9-36.8-7.9-56.5c0.3-257.3,0.2-514.8-0.2-772.6c0-26.2,0.9-43.5,2.9-51.8
	c10.3-43.4,49.3-76,93.7-82.7c6.7-1,21.1-1.5,43.2-1.5c223.2,0.1,434.8,0.2,634.6,0.4c27.6,0,42.4,14.2,57.4,37.9
	c47.3,74.4,106.7,141.1,170.2,200c35.6,33.1,75.2,69.6,114.9,100.7c47.6,37.4,97.1,72,148.7,103.9c0.5,0.3,0.7,1,0.4,1.5
	c-0.1,0.1-0.1,0.2-0.2,0.2c-11.5,10.4-25,17.8-36.2,28.7c-10.3,10-20.9,20.5-31.9,31.5c-20.8,20.9-38,47.3-52.7,75.6
	c-6.9,13.2-12.4,25.7-16.5,37.3c-13.1,36.8-24.2,76.8-24.8,115.6c-0.4,21.3-0.1,42.2,0.8,62.6c0.6,13.4,4.5,25.5,6.6,38.6
	c0.8,5.1,1.9,10,3.1,14.8c10.8,41.1,27.2,78.9,49,113.4c5.9,9.3,15,21.1,27.2,35.5c8.3,9.7,14.6,29.3-5.3,30.9
	C1178.3,3114.5,1173,3114.9,1167.7,3115.2z M221.6,2474.7c1.2,7.4,1.8,14.4,1.7,21.1c-0.8,95.1-1.1,190.8-0.7,286.9
	c0.1,15.3,6.1,26.5,18.3,33.5c10.7,6.2,27.5,6.2,39.5,4.8c24.2-2.8,33.6-28.2,33.9-50.2c1.2-99.6-0.5-194.9,0.9-294.2
	c0-2.8,2-5.1,4.7-5.7c19.5-4.1,40.7,1.1,60.2-3c2.1-0.4,3.5-2.5,3-4.6c0,0,0-0.1,0-0.1c-3.4-14.7-7-29.1-10.7-43.2
	c-6.6-25-20.6-42-49.1-41.8c-45.7,0.4-107.3-0.5-184.7-2.6c-21.1-0.6-41.1,4.9-49.5,26.8c-5.6,14.4-3.3,36,5.6,48
	c9.5,12.7,22.6,19.1,39.4,19.2c23.4,0.2,46.6,0.3,69.8,0.5c5.6,0,10.8,0.8,15.6,2.2C220.7,2472.8,221.4,2473.5,221.6,2474.7z
	 M655.9,2558.3c0.5-0.7,1.5-0.8,2.2-0.3c0.3,0.2,0.5,0.5,0.6,0.9c1.6,6.4,3.5,12.9,5.9,19.3c2.1,5.7,4,12.4,5.8,20.1
	c12.1,53.6,24.4,107.3,37,160.8c4.5,19.1,9.6,32.8,15.2,41c16.8,24.6,49.5,34.8,78.7,24.2c23.2-8.5,37.9-24.5,44-48.1
	c26.1-100.8,52.4-201.8,78.8-302.8c3.1-11.7,4.6-23.5,8-35c4.8-16.2-6.3-37-18.2-46c-26.8-20.4-64.6-8.1-73,25.1
	c-17,66.7-33.2,130.9-48.4,192.6c-1.8,7.1-5.2,12.9-6.2,20.3c-1,6.8-3.6,13.4-7.9,19.9c-0.2,0.3-0.6,0.4-1,0.2
	c-0.2-0.1-0.3-0.3-0.3-0.4c-8.8-35.5-17.5-71.7-26-108.6c-7.5-32.8-16.4-65.8-23.1-98.3c-9.1-44.9-42.9-71.5-89.6-59.5
	c-15.2,3.9-26.5,11.6-33.9,23c-8.7,13.4-11.1,30.6-15.4,46.6c-4.6,17-9,33.7-13.4,50.1c-1.9,7-2.8,14-5,21.1
	c-1.5,4.9-2.9,10-4.2,15.4c-1.4,6-2.9,12.1-4.6,18.2c-5.4,20-10.1,40-14.1,60c-2.4,11.7-7.9,21.1-9.7,32.8c-0.5,3.1-1.2,3.2-2.2,0.2
	c-3.4-10-7.6-19.5-9.4-29.9c-2.9-16.6-6.1-31.9-9.6-46c-11.5-46.1-22.5-92-32.9-137.9c-8.1-35.7-17.7-58.9-57.2-59.2
	c-18.8-0.2-36.7,0-53.6,0.5c-2.8,0.1-5.1,2.5-5,5.3c0,1,0.3,1.9,0.9,2.7c7.4,11,12.4,22.3,14.9,33.9c2.2,10.4,3.4,21,7.1,30.8
	c2.1,5.4,3.5,11.3,4.4,17.5c1.1,8.1,5,15.8,6.8,24.1c7.4,34.1,16.3,72.7,26.8,115.8c10.3,42.2,20.3,84.1,30,125.6
	c1.9,8.1,3.8,16.2,5.6,24.2c5.5,24.9,16.9,53.8,44.6,62.2c9.4,2.9,22.3,7.6,32,5c11.2-2.9,23.1-5,32.7-11.7
	c15.1-10.6,24.9-25,29.2-43.4c8.1-34.6,16.7-68.8,25.8-102.7c3-11,5.6-22.2,7.8-33.5c2.3-11.7,7.7-21,7.9-32.9
	c0.1-5.2,2.2-10.1,4.6-14.7c3.7-7.4,3.6-16.4,4.9-24.5C654.3,2560.8,654.9,2559.5,655.9,2558.3z"/>
<path class="st2" d="M3113.3,2778.8c-1.7,0.4-2.8,2-2.6,3.8c3.9,25.2,3.4,51-1.5,77.4c-7.1,38.3-27.8,72.3-54.1,101.1
	c-27.2,29.8-62.1,50.1-104.8,60.9c-10.5,2.7-21.9,3.2-32.9,4.2c-52.7,4.4-100.6-9.5-143.7-41.9c-41-30.9-71.5-80.7-79-130.8
	c-3.9-26-3.9-51.4,0.1-75.9c7.8-48.4,39.2-101.6,78.7-128.8c12.1-8.3,24.3-15.9,36.6-22.8c3.2-1.8,5.7-4.3,7.5-7.5
	c0.7-1.2,0.2-2.7-1-3.4c0,0,0,0,0,0c-20.8-11.4-42.4-24.2-59.8-40.6c-29.5-27.8-49.4-62.6-59.7-104.4c-4.2-17.2-5.7-39-4.4-65.3
	c1-20,5-39.3,12-57.9c28.2-74.3,93.1-125.5,171.7-136.1c19.6-2.6,41-1.9,64.2,2.4c33,6,63.4,19.6,91.1,40.7
	c37,28.1,62.5,67.1,76.4,117c1.5,5.5,2.5,11.2,3,17.2c1,13.2,4.1,25.8,3,38.7c-0.6,7.6-1.6,15.3-2.7,22.9c-0.3,1.9-0.3,3.8,0,5.7
	c0.3,1.9,2.1,3.2,4.1,2.9c0.6-0.1,1.1-0.3,1.6-0.7c28.3-20.7,60.8-38.7,93.2-45.7c12.6-2.7,28.8-4,48.6-3.9
	c38.9,0.2,74.4,10.3,106.5,30.3c39,24.4,66.9,55.9,83.6,94.6c28.4,65.7,23.7,138.7-14.3,198.2c-8.7,13.6-20.8,28.1-36.4,43.4
	c-23.8,23.3-53.2,37.2-84.9,47.4c-8.8,2.8-17.7,4.7-26.7,5.6c-11.8,1.2-24.5,5-36.1,3.3c-15.4-2.2-31.7-2.9-46.4-7
	c-31.8-9.1-59.6-24.8-86.5-43.8C3116.4,2778.8,3114.9,2778.5,3113.3,2778.8z M3037.2,2590.3c-15.3,9.6-31,17.5-47.2,23.5
	c-1.5,0.6-2.3,2.3-1.7,3.8c0.1,0.3,0.2,0.5,0.4,0.8c4.2,5.4,19,11.7,25.3,14.6c9.2,4.3,15.4,12.2,23.1,18.4c1.9,1.5,4.1,2,6.7,1.6
	c0.4,0.3,0.8,0.4,1.2,0.5c1.1,0.2,1.7-0.2,2-1.3c0.2-1.2,0.2-2.4-0.1-3.8c0.3-1.1,0.1-2.2-0.7-3.2c-0.6-0.8-1-1.7-1-2.7l-0.9-34.4
	l4.2-25c0.1-0.7-0.4-1.4-1.1-1.6c-0.3-0.1-0.6,0-0.9,0.1C3043,2583.8,3039.9,2586.7,3037.2,2590.3z"/>
<path class="st1" d="M3044.3,2608.3c-0.4-8.4-2.8-14.3-7.1-18c2.6-3.6,5.7-6.5,9.3-8.5c0.7-0.4,1.5-0.1,1.9,0.5
	c0.1,0.3,0.2,0.6,0.1,0.9L3044.3,2608.3z"/>
<path class="st1" d="M3047,2648.5c0.3,1.4,0.3,2.6,0.1,3.8c-0.2,1.1-0.9,1.5-2,1.3c-0.4-0.1-0.8-0.3-1.2-0.5
	C3044.1,2649.9,3045.2,2648.4,3047,2648.5z"/>
<ellipse transform="matrix(1 -8.726535e-03 8.726535e-03 1 -24.8179 16.2891)" class="st1" cx="1854.2" cy="2852" rx="185.9" ry="176"/>
<ellipse transform="matrix(0.9999 -1.570732e-02 1.570732e-02 0.9999 -44.6167 23.5534)" class="st1" cx="1477.1" cy="2852.1" rx="185.7" ry="175.8"/>
</svg>
