<?xml version="1.0" encoding="utf-8"?>
<!-- Generator: Adobe Illustrator 27.7.0, SVG Export Plug-In . SVG Version: 6.00 Build 0)  -->
<svg version="1.1" id="Layer_1" xmlns="http://www.w3.org/2000/svg" xmlns:xlink="http://www.w3.org/1999/xlink" x="0px" y="0px"
	 viewBox="0 0 3500 3500" style="enable-background:new 0 0 3500 3500;" xml:space="preserve">
<style type="text/css">
	.st0{fill:#FCBA04;}
</style>
<path class="st0" d="M1839.9,103.2h14c43.7,19.8,84.5,44.6,122.4,74.4c99.6,78,195.4,160.6,287.2,247.8
	c246,233.5,499.4,499.6,760.2,798.2c113.9,130.3,219.9,262.8,317.8,397.4c47.6,65.4,88.9,134,123.9,205.8
	c34.2,69.8,43.9,147.2,29.1,232.2c-23.6,134.8-69,263.5-136.3,386.4c-180.6,330.3-425,605-733.3,824.2
	c-111.9,79.7-242.5,122.1-391.9,127.2h-79.6c-346.9-19.6-665.1-191.1-839.5-497c-4.5-7.8-2.3-10.6,6.4-8.5
	c72,18.3,141.1,30,207.3,35.1c297,22.7,587.8-17.8,872.2-121.7c186.7-68,345.1-182.4,496.2-312.3c101.8-87.4,193-178.1,273.7-272.2
	c27.4-31.9,49-66.2,64.9-103c6.6-15.4,5-33-4.2-47c-40-60.5-85.9-119-137.6-175.5c-309.1-337.9-636.5-667.9-931.1-974.7
	c-107.7-112-212.6-230.2-314.6-354.4c-10.5-12.9-24.1-45.8-29.1-65.9C1783.6,363.6,1790.9,231.5,1839.9,103.2z"/>
<path class="st0" d="M1168,3396.8h-63.7c-205-33.3-375.8-176.2-520.5-321.3c-149.3-149.8-309.8-298.8-426-468.8
	c-109-159.4-162-338.7-159-538c1.7-116,60.7-241.4,112.2-343.1c120.9-238.5,270.7-450.8,449.4-636.8
	c190.9-199,414.1-312.9,669.6-341.9c353.9-40.1,670.6,95.1,881.6,389.4c16.7,23.4,31.6,46.8,44.6,70.2c4.6,8.2,2.2,11.4-7,9.5
	c-313.8-65.9-628.8-38.5-945.1,82.3c-347.8,132.6-698.8,380.4-927.4,669.8c-13.5,17.1-25.1,36.1-34.9,57.2
	c-2.7,5.9-3.1,11.9-1.3,18.1c7.5,26.6,18.4,50.8,32.8,72.6c119,180.1,290.7,350.3,439,497.4c229,227,459.9,451.7,692.5,673.9
	c3,2.9,3,7.7,0.2,10.6c-0.3,0.3-0.5,0.5-0.8,0.7C1334.2,3353.6,1255.5,3386.3,1168,3396.8z"/>
<path class="st0" d="M1181.5,2245.5c22.9-61.2,9-109.8-41-153.5c-63-55.2-113.4-105.1-151.3-149.8c-64.7-76.4,16.7-125.4,81.1-143.8
	c51.4-14.8,104-31,157.8-48.7c58-18.9,89.2-57.6,93.6-115.9c4.6-62,9.7-124,15.4-186.1c8.5-94.5,65.4-132.7,150.5-76.2
	c49.8,33,101.7,67.8,155.7,104.5c53.5,36.3,107.8,34.4,162.8-5.7c55.1-40.1,111.1-76.9,168.2-110.2c44.5-26.1,99.5-19.4,116.9,35.8
	c23.4,74.1,19.9,162,27.6,241.6c5.7,57.3,36.4,94.7,92.1,112.4c58.5,18.5,115,36.3,169.4,53.3c99.1,30.9,124.1,94.5,45.1,170.9
	c-38.2,36.9-77.3,73.2-117.2,108.8c-51.7,46.3-76.6,91-50.8,159.8c22.3,60,43.4,115.9,63.4,167.7c35.1,91,11.2,157.3-98.8,142.4
	c-60.1-8-122.8-16.8-188.3-26.4c-58.9-8.6-103.2,12.1-133.1,62.2c-29.2,49.2-59,100.1-89.4,153c-50.7,87.9-121.4,106.7-178.2,9
	c-29.6-51-60.2-103.7-91.6-157.8c-32-55.4-80.9-77.3-146.8-65.7c-76.8,13.6-144.8,22.1-204,25.6c-98.3,5.9-99.8-77.2-72.9-143.6
	C1139.9,2354.3,1161.1,2299.7,1181.5,2245.5z M1670.9,1625.8c-40.2-26.4-84-55.3-131.2-86.8c-53.2-35.3-101.7-16.1-108.7,46
	c-6.2,54.7-11.1,107.1-14.5,157.2c-3,42.9-25.1,71.2-66.2,84.9c-57.5,19.2-139.4,33.6-187.1,71.1c-14.8,11.8-20.5,31.7-14,49.5
	c33.4,93.8,206.1,143.3,161.2,258.1c-17.4,44.2-34.8,89.6-52.3,135.9c-17.7,46.8-8.5,101.7,55.2,98.5c51.7-2.6,105.5-9,161.3-19.4
	c49.3-9.1,86.3,8.3,111,52.3c28.9,51.5,64,131.2,113.5,164.3c5.5,3.7,11.5,5.1,18.2,4.3c60.4-6.7,114-130.2,143.6-178.2
	c22.8-37.1,58.1-51.2,105.8-42.3c51.6,9.6,100.2,16,145.8,19.2c61.7,4.3,85.8-22.3,72.1-79.9c-9.5-39.9-25.7-84.4-48.7-133.6
	c-25.4-54.7-17.2-100.5,24.7-137.4c34-29.9,67.5-61.6,100.6-95.3c71.4-72.6,9.5-109.8-56.7-130.2c-38.7-11.9-76.4-23.9-113.2-35.8
	c-41.4-13.3-63.8-40.7-67.2-82.4c-4.2-50-8.7-100.6-13.4-151.6c-5.7-63.2-47.8-93.1-105.8-56.8c-42.4,26.3-84.8,54.2-127.4,83.6
	C1740.7,1646.5,1705.1,1648.1,1670.9,1625.8z"/>
<path class="st0" d="M1877.2,1958.1c23.4,37.2,32.4,77.1,26.9,119.5c-0.8,6.7,2.1,10.8,8.5,12.2l188.1,43.5c3.3,0.8,5,2.8,4.8,6.2
	v6.4c0,4.3-3.5,7.9-8,7.9c-0.6,0-1.2-0.1-1.7-0.2l-187.8-42.8c-6.5-1.6-10.8,0.8-13,7.2c-14.8,41.9-40.4,73.7-76.7,95.5
	c-5.9,3.6-7.4,8.5-4.3,14.7l81.8,170c3,6.2,1.4,10.9-4.8,13.9l-4.5,2.3c-2.7,1.3-5.9,0.2-7.4-2.5l-84.6-175.9
	c-2.7-5.5-6.9-7.1-12.5-4.8c-40.3,15.3-81.1,15.4-122.2,0.5c-6.9-2.5-12-0.4-15.2,6.2l-83.8,173.2c-1.1,2.3-3.6,3.6-6.2,3.2l-4.8-1
	c-7.9-1.8-10.1-6.3-6.5-13.5l82.6-171.7c2.5-5.1,0.7-11.3-4.2-14.2c-37.6-23.1-63.2-55.1-76.9-96.1c-2-6.1-6.1-8.5-12.4-7.2
	l-185.9,42.5c-6.4,1.4-10.1-1-11.2-7.4l-0.8-4.5c-0.6-3.8,1.7-7.4,5.3-8.2l186.7-42.6c6.8-1.6,9.8-5.8,9-12.7
	c-4.8-44.8,4.2-84.5,27.1-119c3.8-5.8,3-10.9-2.3-15.4l-150.1-120.2c-2.8-2.2-3.4-6.3-1.3-9.4l3-4.5c2.4-3.7,7.4-4.7,11.1-2.3
	c0.2,0.1,0.4,0.3,0.6,0.4l150,119.4c5.5,4.3,10.5,4,15.2-1c29-30.3,65.4-48,109.3-53.2c7.6-0.9,11.4-5.1,11.4-12.5l0.2-187.1
	c0-6.2,3.1-9.5,9.4-9.7l5.7-0.3c3.9-0.1,5.9,1.8,5.9,5.7v191.1c0,7.6,3.8,11.9,11.4,12.9c44.2,5.5,80.6,23.1,109.2,53
	c4.8,5.1,9.9,5.5,15.4,1l150.1-119.2c3.2-2.7,6.4-2.5,9.4,0.5l4.2,4.2c3,3.1,3,8-0.1,11c-0.2,0.2-0.4,0.4-0.6,0.5l-149.6,119.5
	C1874.4,1947.3,1873.5,1952.4,1877.2,1958.1z"/>
</svg>
