<?xml version="1.0" encoding="utf-8"?>
<!-- Generator: Adobe Illustrator 27.7.0, SVG Export Plug-In . SVG Version: 6.00 Build 0)  -->
<svg version="1.1" id="Layer_1" xmlns="http://www.w3.org/2000/svg" xmlns:xlink="http://www.w3.org/1999/xlink" x="0px" y="0px"
	 viewBox="0 0 3500 3500" style="enable-background:new 0 0 3500 3500;" xml:space="preserve">
<style type="text/css">
	.st0{fill:url(#SVGID_1_);}
	.st1{fill:#FFFFFF;stroke:#000000;stroke-width:2.8;stroke-miterlimit:10;}
</style>
<path d="M1752.7,2366.5c506.9,0,1013.7,0,1520.6-0.1c49.4,0,97,5.1,138.6,35c77.1,55.3,106.6,151.9,76.5,250.4
	c-25.1,82-105.2,138.8-199.1,139.2c-149.3,0.7-298.6,0.2-447.8,0.2c-871.4,0-1742.8,0-2614.2-0.1c-71.2,0-135.7-18-181.3-77.1
	c-80.2-104-50.1-255.9,49.5-317c38.8-23.8,81.6-30.6,126.3-30.6c145.8,0,291.6,0,437.4,0c364.5,0,729.1,0,1093.6,0L1752.7,2366.5
	L1752.7,2366.5z M1748.2,2763c0-0.2,0-0.4,0-0.7c378.5,0,757.1,0,1135.6,0c137.8,0,275.5,0.5,413.3-0.8
	c95.6-0.9,166.4-69.1,173.4-163.9c1.1-14.9,0.9-30-0.3-44.9c-5.6-73.7-57.7-136.6-129.6-153.4c-24.5-5.7-50.4-7.7-75.6-7.7
	c-541.8-0.5-1083.5-0.6-1625.3-0.7c-474.6,0-949.2,0.9-1423.8-0.5c-122.9-0.4-201.4,92.5-189,205c8,72.3,41.9,130.1,115.5,153.9
	c28,9.1,58.8,13.1,88.3,13.1C736.6,2763.2,1242.4,2763,1748.2,2763L1748.2,2763z"/>
<path d="M1068.4,862.8c-32.9,35-32.7,43.1-9.7,84.7c25,45.3,54,89.5,71,137.7c27.8,78.9,25.7,161.1,4,242.1
	c-29.4,109.8-113,167.3-208.7,212.3c-38.7,18.2-79.2,32.6-117.2,52c-59.6,30.4-63.1,41.7-46.1,105.1c3.9,14.5,7.8,30.6-11.9,38
	c-20.3,7.6-26.7-8.2-33.1-21.6c-23.3-48.6-8.2-103.5,42.2-131.2c47.4-26.1,98.7-45,148.2-67.4c74.9-33.9,148.9-72.9,179.4-153.9
	c43.7-116.2,50-233.9-11.7-348.5c-16.3-30.3-29.1-62.7-40.4-95.3c-8.8-25.4,2.1-43.5,34.1-54.1L1068.4,862.8z"/>
<path d="M990.7,1967.2c-0.3,25.8-20.9,45.8-46.4,45.2c-22.5-0.5-41.2-19.4-41.5-42.1c-0.3-23.2,23.6-46.7,46.8-45.8
	C971,1925.3,991,1946.1,990.7,1967.2L990.7,1967.2z"/>
<path d="M1063.4,1884.3c-27.4,26.7-52.6,2.1-76.6,4.3c-26.1,2.4-52.7,0.5-81.1,0.5C941.6,1869.7,1016.2,1866.7,1063.4,1884.3z"/>
<path d="M289.1,1058.8c-7.6-31.4,3.9-52.6,32.1-59.1c25-5.8,49.6,8.6,56.4,32.8c7,25-8.5,52.2-33.7,59.3
	c-26.3,7.4-45.5-4.3-55.8-34.2c4.6,3.2,9,6.6,13.7,9.7c15.2,10.1,31.6,8.9,37.1-7.7c3.4-10.4-2.2-29.5-10.6-36.8
	c-14.1-12.1-28.4-1.6-36.1,12.9c-3.4,6.4-2.1,15.3-3,23.1L289.1,1058.8z"/>
<path d="M1156.9,1944.7c-2.3-3.5,3.4-24.4,7.2-37.4c-2.4-4.2-5.3-7.1-4.9-9.6c10.3-81.1-64.6-99.1-121.4-90.8
	c-47.9,7-96.9,9.4-143.5,21.4c-64.7,16.6-129,36.5-190.7,61.7c-66.2,27-128.7,29.6-199.1,13.9c-46-10.3-61.6-35.9-79-69
	c-49.5-94.4-41.4-191.7-14.6-289.7c11.1-40.6,39.2-69,70.3-96.2c52.8-46.3,107.4-91.6,153.9-143.9
	c115.6-130.1,51.4-293.6-68.1-358.8c-5-2.7-9.9-5.7-11.5-6.6c-5.5-25.7-10.3-48.3-15.6-72.8c66.6,5,128,31.4,178,79.7
	c108.3,104.6,160.5,234.8,167.4,383.7c0.4,9.1-9.7,23.9-18.2,27.1c-28,10.5-57.5,16.8-86.5,24.8c-18.9,5.2-38.2,9.6-56.7,16.1
	c-126.4,44.3-186,133.8-178.1,267.5c4.5,77.3,28.8,149.1,62.9,218c1.9,3.9,5.6,7,12.1,9.2c-9.5-38-21-75.7-28-114.1
	c-6.4-35-11.2-70.9-11.3-106.4c-0.7-133.8,56.4-206.6,185.5-245c49.7-14.8,99.3-31.3,146.5-52.4c51.7-23.2,91.1-61.9,116.5-113.9
	c26.2-53.5,26.4-107.9,2.7-160.6c-16.4-36.5-40.1-69.7-61.4-103.9c-15.2-24.5-33.8-47.1-47.3-72.4c-25.3-47.5-10.5-101,38.6-123.2
	c31.5-14.3,68.6-22.8,103.2-22.9c481.6-1.5,963.3-1.1,1444.9-1.2c16.1,0,32.3,0,55.5,0c-33.7,63.4-77.9,95.5-146.2,95.2
	c-232.7-1.3-465.4-0.8-698.1-1.1c-68.3,0-136.6,0-204.9-0.4c-20.7-0.1-34.7,4.4-26.9,33.4h918.6c-14.2,57.9-83.1,105.4-139.3,104.5
	c-114.6-1.9-229.2-0.4-343.8-0.4c-144.7,0-289.4,0-434.2-0.3c-18.8,0-36.3-0.3-31.6,30.6h789.5c-10.4,65.4-60.5,107.4-126.3,107.7
	c-145.9,0.6-291.8,0.4-437.6,0.5c-74.1,0-148.2,0.4-222.3,0.2c-19.5,0-35.6,2.1-29.1,32.8h650.9c-16.2,56.4-74.9,95.8-140.8,96
	c-125,0.3-250.1-0.7-375.1-1.2c-44-0.2-88,0.4-132-1.4c-23.3-1-31.3,8.2-36.2,30.2c-8.2,36.9-16.5,73.7-24.8,110.5l35.3-97.9
	c-1.1-1.5-2.2-3.1-3.5-4.8c18.6,0,31.1,0,43.7,0c154,0,308.1-2.8,462,1.1c94,2.4,159.4-36.4,206.8-113.7c4.9-8,13.9-17.8,22-18.7
	c75-8.2,115.7-55.8,144.2-119.5c4-9,13.6-20.1,22.2-21.7c65-11.6,103-54.3,129.4-109.7c9.9-20.7,22.9-30.8,45.6-35.5
	c65.2-13.6,121.6-78.9,129.2-147.2c-9.1-0.8-18.1-2.2-27.1-2.2c-506,0-1012.1-0.3-1518.1,0.8c-34.1,0-69.3,6.8-101.9,17.1
	c-60.9,19.3-90.1,73.1-71.6,133.7c9.9,32.3,28,63,46.6,91.7c34.8,53.6,67.1,107.7,80.4,171.2c10.2,49-16.6,114.1-57,138.5
	c-15.3-49.9-29.2-100.8-46.4-150.5c-23.5-67.6-52.6-133.3-99.5-188.2c-59.3-69.4-128.8-125.8-222-143.1
	c-47.6-8.8-95.8-13.7-141.8-20.2c-2.8,31.3-5.2,57.3-7.7,84.5c12.7,1.1,32.7,0.2,51,5.3c9.8,2.8,18.5,14.9,23.9,24.9
	c2.5,4.6-5.2,20.6-6.8,20.4c-11.7-1.6-26.9-2.6-33.5-10.2c-16.6-19-31.6-14.1-49-4c-6.2,3.6-13.3,5.6-28.1,11.5
	c9.3-16.1,14.2-24.5,21.6-37.2c-17.4,8-30.2,13.8-43,19.6c-0.9-1.8-1.9-3.6-2.8-5.3c11.7-7.8,23.3-15.6,35-23.5
	c-0.7-2.1-1.5-4.1-2.2-6.2c-32.5-2.7-65.1-5.4-97.5-8c-14.7-13.7-32.3-30-49.9-46.4c17.1,5.5,32.1,16,48.8,21.8
	c23.8,8.2,50.4,17.4,71.6-3.8c13.4-13.4-1.5-44.3-33.4-64.2c-28.8-17.9-60.6-31.1-94.1-47.9c76.3,10.4,128.7,56.9,184.6,100.9
	c-2.3-15.1-6.1-29.5-15.3-38.2c-51.6-49.1-116.3-70-185-78.7c-52.2-6.6-65,13.1-41.1,61.5c8,16.2,20.2,30.8,32.2,44.6
	c10.3,11.8,23,21.6,34.8,32.4c-23.7,17.3-45.6,33.6-67.8,49.5c-48.5,34.7-66.8,86.8-81.1,140.8c-1.3,4.9,4,12.8,8.2,17.7
	c22.3,26.7,22.2,63.4,10.6,86.4c-31.9,62.9-14.9,120.9,3.3,180c5.9,19.2,17.7,38.3,31.7,52.8c12.8,13.3,28.5,32.6,52.1,16.1
	c0,0.1,0,0.2,0,0.3c0-0.1,0.1-0.3,0.2-0.4c0.3-0.2,0.5-0.3,0.8-0.5c-0.2,0-0.3-0.1-0.5-0.1c4.7-12,8.7-24.5,14.6-35.9
	c8-15.5,14.1-37.7,27.2-43.8c35.4-16.3,74.1-25.7,111.4-37.8c1.3,3.4,2.7,6.8,4,10.2c-25.3,17.4-51.8,33.2-75.5,52.5
	c-24.9,20.2-43.7,45.1-37.1,84.7c27-9.6,48.4-17.7,70.2-24.8c13.1-4.3,26.8-10.5,40-10c16.2,0.6,43.5,3.7,46.1,12
	c5.9,18.5,1.2,41.3-2.8,61.7c-1.8,9-12.4,16.2-18.8,24.4c-23.3,29.9-40.1,63.7-39.6,101.4c0.8,52.9,2.7,106.4,12,158.3
	c10.1,56.2,29.1,110.7,44.7,167.6c-19.7,15.7-38.9,21.2-67.5,11.5c-80.4-27.4-80.4-24.5-143.3,28.9c-13.8,11.7-34.3,17.4-52.7,21.4
	c-43.6,9.7-76.9,53.9-70.5,97.2c6.3,42.8,39,60.2,92,54.7c28-2.9,57.2,0,85.2,4.2c24.6,3.6,46.3,4.8,70.3-6.9
	c21-10.2,47.1-17.3,70-15.1c76.9,7.3,153.4,18.4,229.8,29.9c81.3,12.2,162,22.2,244.8,10.9c81.7-11.2,160.4-45.9,246.3-30
	c12.7,2.4,34.7-16.3,44-30.6c19.1-29.4,5.4-60-7.1-89.1c-7.3-17-14.9-34.1-6.6-53.9L1156.9,1944.7z M926.7,1205.8
	c6.6,25.4,13.6,49.3,18.9,73.6c9,41,6.7,44.4-37.8,63.3c-5.7-42.1-11.2-83.7-17.3-128.4C904,1211.1,913.8,1208.8,926.7,1205.8
	L926.7,1205.8z M208.3,736.4c51.6,7.6,98.9,23.4,137.4,57.9c6.2,5.6,7.8,17.6,8.6,26.9c0.2,1.8-14.2,8.3-20.1,6.6
	C281.4,812.9,236.2,786.7,208.3,736.4L208.3,736.4z M375.5,1368.1c-30.3,5.8-58.8,20.9-90.7,29.6c36.1-67.8,107.7-98.2,163.6-145.3
	c8.4-16.6,16.8-33.3,26.6-52.5c-3.3-0.9-7.4-3.3-10.9-2.7c-68.7,11-134.3,30.6-192.2,70.9c-33.8,23.5-52.4,53.8-45,96.7
	c1.4,8.4-0.7,17.4-1.5,26.1c-50.9-13.2-94.2-86.6-78.8-135.8c5.5-17.7,16.2-25.5,37.2-17.9c15,5.5,32.5,4.1,48.9,5.6
	c15.9,1.5,31.8,2.9,47.8,4.3c0.4-3.8,0.7-7.6,1.1-11.4c-22.2-1.4-44.5-1.6-66.5-4.4c-23.6-3-46.8-8.4-71.3-12.9
	c-10.4-43.2,10-72.2,53.7-72.9c34.5-0.6,63.6-11.5,82.2-44.9c10.3,4.4,19.2,9,28.6,12c31.1,10,67.4-4.6,83.6-33.1
	c17-30,10.5-66.1-15.9-87.5c-26.3-21.3-62.4-21-89.3,1.4c-25,20.8-32.5,49.2-33.8,80.2c-1.7,40.7-39,66.5-77.1,51.8
	c-21.6-8.3-27.2-25.2-20.6-48c17.4-60.2,53.1-107.1,103.6-142.9c19.7-13.9,41.1-25.9,62.8-36.5c30.3-14.8,34-12.1,43,23
	c-6.9,3.2-13.8,6.4-20.6,9.8c-0.6,0.3-0.4,2.1-0.5,3.2c127.9,72.5,129.1,74.7,105.8,196.7c39-29.8,40-106.9,14.9-139.7
	c15.3,12.4,39.8-11.8,60.7-23.2c13.8-7.5,22.1-7.4,33.1-2c63.9,31,89.6,86.2,97.4,153.1c12.2,104.2-27.6,184.2-112.2,244.3
	c-28.1,20-54.8,41.8-87.1,66.6c0.7-48.9-2.4-92.2,34.9-127.3c28.2-26.5,37.5-98.4,20.6-133.6c-8.1-16.8-22.3-26.4-39.4-18.3
	c-40.8,19.1-80.4,40.9-119.2,66.5c30.8-10.3,61.3-21.8,92.6-30.2c14-3.8,37.3-7.4,43.2-0.3c14.9,18-1.7,33-15.9,46
	c-5.7,5.2-9.5,12.4-14.1,18.7c10.9-6,21.7-12,33.4-18.4c1.8,3.7,4.6,6.8,4.3,9.5C489.2,1303.5,434.9,1356.8,375.5,1368.1
	L375.5,1368.1z M273.7,1045.2c-0.4-30.6,27.3-57,58.3-55.7c31.3,1.3,58,28.4,57.5,58.2c-0.6,30-30,58.4-58.9,57
	c-30.4-1.5-56.5-28.8-56.8-59.5H273.7z M205.1,2078.6c0.7,5.6,0.8,11.2,1.1,15.2c-3,3.2-4.3,5.6-6.2,6.4c-17.8,7.3-39.2,21.3-53.3,1
	c-16.1-23.1,9.9-33.5,23.3-46.1c9.8-9.3,20.7-17.5,37-31.1c-20.9-8.2-35.8-14-53.4-20.8c7.5-3.8,13.1-8.7,19.1-9.3
	c26.9-2.9,44.7-15,61.1-38.3c22.1-31.2,59.2-31,97.8-26.8c-29.8,24.3-54.6,51.5-85.3,67.7C209.7,2015.7,200.6,2042.2,205.1,2078.6
	L205.1,2078.6z M1153.8,2074.8c-9.2,11.3-29.7,19.1-44.7,18.1c-10.4-0.6-22.9-17-28.6-29.1c-6-12.6-5-28.4-7.1-43.4
	c-3.5,1.9-7,2.8-7,3.9c-2.5,47.8-41.2,51.9-75,64.9c-153.1,58.8-308,46.6-464,16.1c-47.4-9.2-95.6-14.4-143.2-22.2
	c-7.1-1.2-13.5-6.9-16.5-8.6c-22,13.2-42.6,30.5-66.4,37.8c-14.2,4.4-38.3-2-48.8-12.6c-14.2-14.3-1.2-31.8,12.2-44.6
	c2.3-2.2,3.1-6,5.6-11c-6.9-8.1-14.1-16.5-17.2-20.2c14.3-16.1,28.8-30.5,41-46.7c17.1-22.9,43.1-23.7,54.3,3.9
	c14.6,35.8,40.1,42.4,72.2,36.2c30.3-5.8,60.9-12.5,89.6-23.5c37.3-14.3,69.9-16.8,104,9.4c31.8,24.4,68.4,37.8,110.5,28.1
	c12-2.8,25.3,1.1,37.9-0.1c44.5-4.2,88.9-9.3,133.4-14.1c0-5,0-10.1,0-15.1c-17-2.4-34.3-7.7-51.1-6.5
	c-29.9,2.1-59.3,10.1-89.2,12.1c-32.8,2.2-65.9,0.5-98.8,0.5c0-2.4,0-4.7,0.1-7.1c54.7-6.1,109.4-12.1,164.1-18.2
	c-36.8-14.5-75.5-24.6-114.7-11.1c-38.8,13.3-74.8,11.9-114.4,1.5c-23.5-6.1-51.5,2.5-77,7c-28.2,5-55.5,15-83.8,19
	c-34.6,4.9-59-13.2-76.5-40.6c33.6-11,65.3-23.7,98.2-31.4c22-5.2,47.2-9.3,68.3-3.6c83.5,22.4,161,3.2,236.2-29.7
	c94.8-41.5,192.8-62.5,296.4-57.6c56.8,2.7,82.6,28.9,76.9,85.9c-4,39.8-8.1,76.8,24,109.5c7.4,7.6,6.5,33.8-1.1,43L1153.8,2074.8z"
	/>
<path d="M1270.8,2090.8c53.6-6.6,97.7-27.2,136.4-57.9c27.7,26.1,36.8,70.5,84.9,59.7c38.8,51.5,76.8,101.9,114.4,151.8
	c114.6-11,173.6-77.3,199.4-182.9c35.8,26.4,75.2,32,116.2,31.6c30.1-0.3,60.2,0,90.3,0c62.3-0.2,115.9-19.4,155.3-70.1
	c2.7-3.5,6.4-6.2,7.1-6.9c20.6,20,37.4,43.3,60.1,56.5c21,12.1,48.2,17.8,72.9,18.5c78.9,2.2,161.8,18.9,225.1-52.3
	c15.9,19,29.8,35.6,43.6,52c55.2-2.3,101.1-24,141.3-59.4c17.5,22.1,32.4,40.9,50.2,63.5c30.8-11.7,62.7-19.7,90-35.5
	c28.2-16.4,52-40.4,78.9-62c11.4,29.3,30.5,51.8,62.9,57.6c69.2,12.3,129.1-43.2,123.5-113.4c-0.6-7.2,0-14.6,0-27.4
	c58.7,60.1,113.7,116.3,173.2,177.2c47.5-209.2,93.2-411,139.2-613.4c-57.6-55.3-113.4-109-172.4-165.6
	c-31.8,114.4-49.2,225.5-82.9,341.1c-22.6-48.4-41.3-88.5-60-128.7c-90.9,2.2-181.6-15.7-259,48.4c-1.2-2-2.5-4-3.7-6
	c6-26.6,12.1-53.1,18.7-82.3c-58.9-56-116.1-115-182.3-172.8c-13.4,58.1-25,109.7-37.2,161.1c-12.3,52-25.2,103.8-39.2,161.3
	c-48.5-46.6-92.1-88.5-135.1-129.9c6.6-13.1,12.3-22,15.7-31.7c23.6-67.9-12.7-124.1-76.5-129.1c-68.7-5.4-131.2,58.8-124.3,127
	c0.9,9,2.8,18,4.5,29.1c-8.1-2-14-3.5-21.8-5.5c-9.1,37-18.1,73.3-26.6,107.8c-29-25.3-55.9-48.9-83.2-72.7
	c10.5-11.5,22.6-22.4,32.1-35.3c40.6-54.7,20.5-129.1-39.5-148.3c-60.7-19.5-134.3,25.5-146,88.2c-6.5,34.7,2.4,64.9,26.3,94
	c-61.1,17-106.4,51.5-143.3,99.3c-60-51.8-111.3-108.4-171.6-159.2c-12,49.3-22.7,93.4-33.5,137.5c-2.2,1.1-4.4,2.2-6.7,3.3
	c-26.8-54.1-75.4-75.5-129.4-87.1c3-16.3,5.3-28.5,6.7-36.2c-29.7-31.2-56.8-59.5-83.6-88.1c-26.7-28.5-59.1-51.9-87.4-89
	c-0.2,6.3-62.9,273.8-101.1,436.6c-7.6,33.2-15.1,66.4-22.7,99.5c-1.8,7.9-4.2,15.6-6.2,23.4c0,0-0.8,32-30.9,36.3l0,0
	c-4.8,1.8-10.1,3-15.8,3.5c-21.6,2-43.4,0.4-67.3,0.4v28c0.6-0.9,1.3-1.8,2-2.8c40.3,53.4,79.6,105.6,118.5,157.1L1270.8,2090.8z
	 M3100.3,1959.4c-1,40.2-39.1,74.3-81.2,72.7c-36-1.3-63.1-29.9-62-65.4c1.1-38.5,38.9-71.6,79.9-70
	C3075.9,1898.2,3101.2,1923.2,3100.3,1959.4L3100.3,1959.4z M3061.5,1868.3c-36.5,0-64.5-27.3-64.5-62.9c0-39.3,39.4-75.2,81.3-73.9
	c33.6,1,62.6,29.7,62.7,61.8c0,41.2-35.7,75-79.4,75H3061.5z M3273.9,1369.6c41.2,39.9,77.9,75.7,114.8,111.3
	c13.2,12.7,9,27.1,5.6,41.8c-15.4,66.1-30.7,132.2-46,198.3c-21.5,93-43,186.1-64.5,279.2c-1.5,6.7-3.8,13.2-5,17.3
	c-42.9-39.3-84.4-77.3-128-117.2c40.9-176.1,81.4-350.4,123.2-530.6L3273.9,1369.6z M3004.6,1548.6c31.1-0.4,62.2,0,95.6,0
	c22.2,49.5,43.7,97.4,67.4,150.3h-184.4c-3.9,13.6-7.6,24.1-10.1,35c-13.1,58.5-25.9,117-38.7,175.5
	c-18.2,83.3-71.9,130.6-156.3,153.1c-28.9-38.1-57.8-76.3-88.9-117.3c9.5-2.9,16.5-5.5,23.8-7.2c41.2-9.4,66.2-33.3,75.1-75.7
	c12.5-59.7,26.4-119.1,41.6-178.2C2851,1601.4,2918.7,1549.6,3004.6,1548.6L3004.6,1548.6z M2704.8,1402.4
	c1.8-7.7,4.5-15.3,8.4-28.4c39.5,38,74.8,72.7,110.8,106.5c11.8,11.1,12.9,23.1,9.6,37.6c-25.7,114.6-50.9,229.2-76.8,343.7
	c-7.7,33.9-22.8,46.2-57.9,48.4c-19.4,1.2-39,0.2-67.4,0.2c23.7,35.1,43.1,63.8,63,93.3c-27.2,32.6-61.4,49.4-105.4,57.9
	c-28.2-36.9-57.4-74.9-89.4-116.8c11.4-2.9,19.6-4.8,27.6-7.1c35.4-10.2,60.6-28.6,69.4-68c35-156,72-311.6,108.3-467.3
	L2704.8,1402.4z M2406.9,1370.3c43.9,0,73.8,25.7,75.1,64.6c1.6,45.5-40.8,87.2-89.3,87.9c-38.2,0.6-72.5-30.9-73.9-67.9
	C2317.2,1412.5,2361.1,1370.3,2406.9,1370.3L2406.9,1370.3z M2456.2,1533c-8.1,34.8-15.2,65.3-23.3,100.3
	c-30.9-31.8-57.8-59.3-85-87.3c18.5,0.8,36.8,3.7,54.5,1.8C2418.9,1546,2434.9,1539.1,2456.2,1533z M2287.6,1583.4
	c2.4-9.9,5.7-19.5,9.9-33.7c39.8,38.5,76.9,74.4,114.1,110.3c12.3,11.9,7.1,25.6,4.1,38.9c-14.1,61.7-28.5,123.4-42.5,185.1
	c-3.8,16.5-6.7,33.2-10.1,49.9c2.6,1,5.2,2,7.8,3c19.2-13,24.4-34.1,29.4-55.2c23.9-99.6,47.6-199.2,71.4-298.7
	c2.1-8.9,4.7-17.6,8.3-31.3c46.8,37.9,84.2,80.6,125.3,119.1c-14.8,68.5-28.6,134.9-43.6,201c-6.1,26.8-19.3,36.4-50,38.8
	c-20.3,1.6-40.7,1.7-68.2,2.7c24.7,35.1,45.6,64.6,66.6,94.4c-18.8,31.9-48.4,48.7-80.2,50.7c-51.5,3.2-104.3,3.5-155-4.6
	c-62.6-10-86.8-55.6-71.9-118.1C2231.1,1818.2,2259.3,1700.8,2287.6,1583.4L2287.6,1583.4z M2036.7,1451.8
	c-1-44,39.8-83.4,87.4-84.3c44.2-0.8,74.8,26.8,75,67.5c0.2,45.3-42.4,85.6-90.6,85.7C2069.7,1520.7,2037.6,1489.9,2036.7,1451.8
	L2036.7,1451.8z M1738.9,1539.8c0.7-3.1,2.5-6,6.2-14.9c41.9,44.8,80.4,85.9,122.4,130.8c-17,78.1-35.6,163.4-54.8,251.6
	c11.9,1.4,20.7,3.2,29.5,3.2c46.3,0.3,92.6,0.5,138.9,0.1c38.5-0.3,46.4-6.8,55.2-43.1c7.3-30.2,13.5-60.7,21.7-90.7
	c4.4-16.2,11.4-31.9,18.2-47.3c5.2-11.7,14.4-24.6,3.3-34.8c-6.7-6.2-21.3-8.4-30.8-6c-15.3,3.9-30.5,19.3-24.3,32.8
	c13.1,28.7,2.2,53.7-3.1,80c-5.2,25.9-12,51.4-18.8,79.9c-40.4,1.6-69.5-17.3-93.3-44.9c-27.3-31.5-36.5-69.6-29.1-110.1
	c20.4-110.3,134.5-187.2,224.5-178.5c87.1,8.4,141.4,74.6,124.4,160.4c-15.6,79.1-33.1,157.9-52,236.3
	c-18.1,75.2-72.9,116.3-151,116.8c-37,0.3-74.1,1.1-111.1,0.2c-51.8-1.3-95.7-17-121.8-71.3c-6.2,26-13.2,51.8-18.4,78
	c-13.5,69.2-60,109.3-120.5,137.1c-10.2,4.7-22,5.9-35.4,9.2c-29.7-39.3-58.8-77.6-90.8-119.9c11.6-2.3,18.9-3.5,26.1-5.2
	c40.5-9.7,65.2-31.5,74.8-75.2c34.9-158.5,73-316.4,109.9-474.5L1738.9,1539.8z M1672,1699.9c-15,83.7-34.5,166.8-55.4,249.3
	c-16.3,64.3-72.2,118.1-150.3,110.4c-28.9-38.1-57.3-75.6-85.4-112.5c2.9-3.6,4-6.4,5.5-6.7c64.2-10.8,79.3-24.3,94.3-87.3
	c9.9-41.4,18.8-82.9,27.8-124.5c1.6-7.5,1.6-15.3,2.5-25.1c-25.9-1.1-49.8-2.2-79.4-3.5c29.2-51.4,56.8-99.8,83.6-146.9
	c91.7-18.9,173,56.4,156.7,146.9L1672,1699.9z M1200,1942.4c62.5-7.2,87.9-44.5,100.1-104.4c29.5-145.6,65.3-289.9,98.7-434.6
	c2-8.8,5.2-17.4,9.3-31c40.4,39.2,75.8,73.9,111.6,108.1c11.4,10.9,15.3,22.5,6.6,39.7c-22,0.9-32.1,18.5-42.7,36.7
	c-28.5,48.8-57.9,97.1-86.8,145.7c-4.5,7.6-7.9,15.8-14,27.9h97.8c-3.6,19-6,34.5-9.4,49.8c-6.2,28.1-13.1,56.1-19.3,84.2
	c-6.7,30.7-16.5,40.7-48.3,45c-14.8,2-30,1.6-45,2.4c-11.1,0.6-22.3,1.5-40,2.6c24.9,33.6,46.4,62.6,69.2,93.4
	c-29.9,30.4-63.1,48.3-105.2,54.4c-29.3-38.9-58-77.1-86-114.3C1198.9,1944.2,1199.4,1942.5,1200,1942.4L1200,1942.4z"/>
<linearGradient id="SVGID_1_" gradientUnits="userSpaceOnUse" x1="25.6156" y1="-1736.4614" x2="3471.2224" y2="-1736.4614" gradientTransform="matrix(1 0 0 -1 0 0)">
	<stop  offset="0" style="stop-color:#ECC868"/>
	<stop  offset="0.1" style="stop-color:#E9D163"/>
	<stop  offset="0.6" style="stop-color:#D4B248"/>
	<stop  offset="1" style="stop-color:#C08F3A"/>
</linearGradient>
<path class="st0" d="M1745.1,1524.9c41.9,44.8,80.4,85.9,122.4,130.8c-17,78.1-35.6,163.4-54.8,251.6c11.9,1.4,20.7,3.2,29.5,3.2
	c46.3,0.3,92.6,0.5,138.9,0.1c38.5-0.3,46.4-6.8,55.2-43.1c7.3-30.2,13.5-60.7,21.7-90.7c4.4-16.2,11.4-31.9,18.2-47.3
	c5.2-11.7,14.4-24.6,3.3-34.8c-6.7-6.2-21.3-8.4-30.8-6c-15.3,3.9-30.5,19.3-24.3,32.8c13.1,28.7,2.2,53.7-3.1,80
	c-5.2,25.9-12,51.4-18.8,79.9c-40.4,1.6-69.5-17.3-93.3-44.9c-27.3-31.5-36.5-69.6-29.1-110.1c20.4-110.3,134.5-187.2,224.5-178.5
	c87.1,8.4,141.4,74.6,124.4,160.4c-15.6,79.1-33.1,157.9-52,236.3c-18.1,75.2-72.9,116.3-151,116.8c-37,0.3-74.1,1.1-111.1,0.2
	c-51.8-1.3-95.7-17-121.8-71.3c-6.2,26-13.2,51.8-18.4,78c-13.5,69.2-60,109.3-120.5,137.1c-10.2,4.7-22,5.9-35.4,9.2
	c-29.7-39.3-58.8-77.6-90.8-119.9c11.6-2.3,18.9-3.5,26.1-5.2c40.5-9.7,65.2-31.5,74.8-75.2c34.9-158.6,73-316.4,109.9-474.5
	c0.7-3.1,2.5-6,6.2-14.9L1745.1,1524.9z M2363,1933.9c3.3-16.6,6.3-33.3,10.1-49.9c14.1-61.7,28.4-123.4,42.5-185.1
	c3-13.3,8.2-27-4.1-38.9c-37.2-35.9-74.3-71.8-114.1-110.3c-4.2,14.1-7.5,23.8-9.9,33.7c-28.3,117.4-56.5,234.9-84.6,352.3
	c-14.9,62.5,9.3,108.1,71.9,118.1c50.7,8.1,103.5,7.8,155,4.6c31.8-2,61.4-18.7,80.2-50.7c-21-29.8-41.8-59.3-66.6-94.4
	c27.6-1,48-1.1,68.2-2.7c30.7-2.5,43.9-12,50-38.8c15-66.1,28.8-132.5,43.6-201c-41.2-38.5-78.6-81.2-125.3-119.1
	c-3.7,13.7-6.2,22.5-8.3,31.3c-23.8,99.6-47.5,199.2-71.4,298.7c-5,21.1-10.3,42.2-29.4,55.2
	C2368.2,1935.9,2365.6,1934.9,2363,1933.9L2363,1933.9z M1616.6,1949.2c20.9-82.5,40.4-165.5,55.4-249.3
	c16.3-90.5-65.1-165.8-156.7-146.9c-26.8,47.1-54.3,95.5-83.6,146.9c29.6,1.3,53.5,2.4,79.4,3.5c-0.9,9.7-0.9,17.6-2.5,25.1
	c-9,41.6-18,83.1-27.8,124.5c-15,63-30.1,76.5-94.3,87.3c-1.6,0.3-2.7,3.1-5.5,6.7c28,36.9,56.4,74.4,85.4,112.5
	c78.1,7.7,134-46.1,150.3-110.4L1616.6,1949.2z M1398.8,1403.4c-33.4,144.8-69.2,289.1-98.7,434.6c-12.1,59.9-37.6,97.2-100.1,104.4
	c-0.7,0-1.2,1.8-3.5,5.6c28,37.2,56.7,75.4,86,114.3c42.1-6,75.3-23.9,105.2-54.4c-22.8-30.8-44.3-59.8-69.2-93.4
	c17.8-1.2,28.9-2,40-2.6c15-0.8,30.2-0.4,45-2.4c31.8-4.3,41.6-14.3,48.3-45c6.2-28.1,13.1-56.1,19.3-84.2
	c3.4-15.3,5.8-30.7,9.4-49.8h-97.8c6-12.1,9.5-20.3,14-27.9c28.8-48.6,58.3-96.9,86.8-145.7c10.6-18.2,20.7-35.8,42.7-36.7
	c8.8-17.1,4.8-28.7-6.6-39.7c-35.8-34.3-71.2-68.9-111.6-108.1C1403.9,1386,1400.7,1394.5,1398.8,1403.4L1398.8,1403.4z
	 M2482.1,1434.9c-1.4-38.9-31.3-64.6-75.1-64.6c-45.8,0-89.7,42.2-88.1,84.6c1.4,37,35.6,68.5,73.9,67.9
	C2441.3,1522.1,2483.7,1480.4,2482.1,1434.9L2482.1,1434.9z M2199.1,1435c-0.2-40.7-30.8-68.3-75-67.5
	c-47.5,0.9-88.4,40.3-87.4,84.3c0.9,38.2,33,69,71.7,68.9C2156.6,1520.7,2199.2,1480.3,2199.1,1435L2199.1,1435z M1748.2,2762.3
	c378.5,0,757.1,0,1135.6,0c137.8,0,275.5,0.5,413.3-0.8c95.6-0.9,166.4-69.1,173.4-163.9c1.1-14.9,0.9-30-0.3-44.9
	c-5.6-73.7-57.7-136.6-129.6-153.4c-24.5-5.7-50.4-7.7-75.6-7.7c-541.8-0.5-1083.5-0.6-1625.3-0.7c-474.6,0-949.2,0.9-1423.8-0.5
	c-122.9-0.4-201.4,92.5-189,205c8,72.3,41.9,130.1,115.5,153.9c28,9.1,58.8,13.1,88.3,13.1c505.9,0.8,1011.7,0.6,1517.6,0.6
	C1748.3,2762.8,1748.3,2762.6,1748.2,2762.3L1748.2,2762.3z M2510.7,776.6c-481.6,0-963.3-0.3-1444.9,1.2
	c-34.6,0.1-71.7,8.6-103.2,22.9c-49.1,22.2-63.8,75.7-38.6,123.2c13.5,25.3,32.1,47.9,47.3,72.4c21.3,34.2,45,67.5,61.4,103.9
	c23.7,52.7,23.5,107.1-2.7,160.6c-25.4,52-64.8,90.7-116.5,113.9c-47.2,21.2-96.9,37.6-146.5,52.4
	c-129.1,38.5-186.2,111.3-185.5,245c0.2,35.5,4.9,71.4,11.3,106.4c7.1,38.5,18.5,76.1,28,114.1c-6.6-2.1-10.2-5.2-12.1-9.2
	c-34.1-68.9-58.4-140.7-62.9-218c-7.9-133.8,51.7-223.3,178.1-267.5c18.5-6.5,37.8-10.8,56.7-16.1c28.9-8,58.5-14.3,86.5-24.8
	c8.6-3.2,18.7-18.1,18.2-27.1c-7-148.8-59.1-279.1-167.4-383.7c-50-48.3-111.4-74.7-178-79.7c5.2,24.5,10.1,47.1,15.6,72.8
	c1.6,0.9,6.5,3.9,11.5,6.6c119.5,65.2,183.6,228.8,68.1,358.8c-46.5,52.3-101.1,97.6-153.9,143.9c-31.1,27.3-59.2,55.6-70.3,96.2
	c-26.8,98-34.9,195.3,14.6,289.7c17.4,33.2,33,58.8,79,69c70.4,15.7,132.9,13.2,199.1-13.9c61.7-25.2,126.1-45.1,190.7-61.7
	c46.6-11.9,95.6-14.4,143.5-21.4c56.8-8.3,131.7,9.7,121.4,90.8c-0.3,2.7,2.9,5.8,5.4,10.3c7.7,0,15.7,0,23.7,0
	c67.7,0.6,75.8-5.4,91.2-72.3c40.8-177.6,81.7-355.2,121.3-533.1c4.9-22.1,12.9-31.2,36.2-30.2c43.9,1.8,88,1.2,132,1.4
	c125,0.5,250.1,1.5,375.1,1.2c65.9-0.1,124.6-39.6,140.8-96H1434c-6.5-30.8,9.6-32.9,29.1-32.8c74.1,0.2,148.2-0.1,222.3-0.2
	c145.9-0.1,291.8,0,437.6-0.5c65.8-0.2,115.9-42.3,126.3-107.7h-789.5c-4.7-30.9,12.8-30.6,31.6-30.6c144.7,0.3,289.4,0.3,434.2,0.3
	c114.6,0,229.3-1.5,343.8,0.4c56.2,0.9,125.2-46.6,139.3-104.5h-918.6c-7.8-29,6.2-33.5,26.9-33.4c68.3,0.5,136.6,0.4,204.9,0.4
	c232.7,0.2,465.4-0.2,698.1,1.1c68.3,0.4,112.5-31.8,146.2-95.2c-23.2,0-39.4,0-55.5,0L2510.7,776.6z M1058.7,947.5
	c25,45.3,54,89.5,71,137.7c27.8,78.9,25.7,161.1,4,242.1c-29.4,109.8-113,167.3-208.7,212.3c-38.7,18.2-79.2,32.6-117.2,52
	c-59.6,30.4-63.1,41.7-46.1,105.1c3.9,14.5,7.8,30.6-11.9,38c-20.3,7.6-26.7-8.2-33.1-21.6c-23.3-48.6-8.2-103.5,42.2-131.2
	c47.4-26.1,98.7-45,148.2-67.4c74.9-33.9,148.9-72.9,179.4-153.9c43.7-116.2,50-233.9-11.7-348.5c-16.3-30.3-29.1-62.7-40.4-95.3
	c-8.8-25.4,2.1-43.5,34.1-54.1c-32.9,35-32.7,43.1-9.7,84.7L1058.7,947.5z M1080.5,2063.8c5.8,12.1,18.2,28.5,28.6,29.1
	c15,0.9,35.4-6.8,44.7-18.1c7.5-9.2,8.5-35.4,1.1-43c-32.1-32.7-28-69.8-24-109.5c5.7-56.9-20.2-83.2-76.9-85.9
	c-103.6-4.9-201.6,16.1-296.4,57.6c-75.2,32.9-152.7,52.1-236.2,29.7c-21-5.7-46.3-1.6-68.3,3.6c-32.9,7.7-64.6,20.4-98.2,31.4
	c17.5,27.4,41.9,45.5,76.5,40.6c28.3-4,55.6-14,83.8-19c25.5-4.5,53.5-13.2,77-7c39.5,10.3,75.6,11.8,114.4-1.5
	c39.2-13.5,77.8-3.4,114.7,11.1c-54.7,6.1-109.4,12.1-164.1,18.2c0,2.4,0,4.7-0.1,7.1c32.9,0,66,1.7,98.8-0.5
	c29.9-2,59.3-10,89.2-12.1c16.8-1.2,34,4.1,51.1,6.5c0,5,0,10.1,0,15.1c-44.5,4.8-88.9,9.9-133.4,14.1c-12.5,1.2-25.9-2.6-37.9,0.1
	c-42.1,9.7-78.8-3.7-110.5-28.1c-34.1-26.2-66.7-23.8-104-9.4c-28.6,11-59.3,17.6-89.6,23.5c-32.1,6.2-57.6-0.3-72.2-36.2
	c-11.3-27.6-37.2-26.8-54.3-3.9c-12.1,16.2-26.7,30.6-41,46.7c3.1,3.7,10.3,12.1,17.2,20.2c-2.5,5-3.3,8.8-5.6,11
	c-13.3,12.8-26.4,30.3-12.2,44.6c10.5,10.6,34.6,16.9,48.8,12.6c23.7-7.3,44.3-24.6,66.4-37.8c3,1.6,9.4,7.4,16.5,8.6
	c47.7,7.8,95.9,13,143.2,22.2c156,30.5,310.9,42.7,464-16.1c33.9-13,72.5-17.1,75-64.9c0-1.1,3.5-2,7-3.9c2.1,15,1.1,30.9,7.1,43.4
	L1080.5,2063.8z M944.3,2012.4c-22.5-0.5-41.2-19.4-41.5-42.1c-0.3-23.2,23.6-46.7,46.8-45.8c21.4,0.8,41.4,21.6,41.1,42.7
	C990.4,1993,969.8,2013,944.3,2012.4L944.3,2012.4z M986.8,1888.5c-26.1,2.4-52.7,0.5-81.1,0.5c35.9-19.4,110.5-22.4,157.7-4.8
	C1036,1910.9,1010.8,1886.3,986.8,1888.5L986.8,1888.5z M464.1,991c-1.4-1.9-2.9-3.6-4.5-5.2C461,988,462.5,989.7,464.1,991z
	 M226.2,1391.1c-0.3,0-0.5-0.2-0.8-0.2c0,0.4,0,0.8-0.1,1.2L226.2,1391.1L226.2,1391.1z M655.3,1118.9
	c-7.8-66.9-33.5-122.1-97.4-153.1c-11.1-5.4-19.4-5.5-33.1,2c-20.9,11.4-45.4,35.5-60.7,23.2c25.1,32.8,24.2,109.9-14.9,139.7
	c19.8-103.9,21.8-120.9-57-168.4l191-27.1L457.7,828.1l-103.4-80.4l-111.8-37.8l-34.3,19.6v24.2l90.7,135.9l12.6,13.5
	c-18.3,9.3-36.2,19.7-52.8,31.5c-50.5,35.8-86.2,82.7-103.6,142.9c-6.6,22.7-1,39.6,20.6,48c38,14.7,75.4-11.1,77.1-51.8
	c1.3-31,8.7-59.4,33.8-80.2c26.9-22.4,63.1-22.7,89.3-1.4c26.4,21.4,33,57.6,15.9,87.5c-16.3,28.6-52.6,43.2-83.6,33.1
	c-9.4-3-18.3-7.6-28.6-12c-18.6,33.4-47.7,44.3-82.2,44.9c-43.7,0.7-64.2,29.7-53.7,72.9c24.4,4.5,47.7,9.9,71.3,12.9
	c22,2.8,44.3,3.1,66.5,4.4c-0.4,3.8-0.7,7.6-1.1,11.4c-15.9-1.4-31.8-2.8-47.8-4.3c-16.4-1.6-33.9-0.2-48.9-5.6
	c-21-7.6-31.6,0.2-37.2,17.9c-15.4,49.1,27.9,122.6,78.8,135.8c0.8-8.7,2.9-17.7,1.5-26.1c-7.4-42.9,11.2-73.2,45-96.7
	c57.9-40.3,123.5-59.9,192.2-70.9c3.6-0.6,7.6,1.8,10.9,2.7c-9.7,19.2-18.2,35.9-26.6,52.5l10.3-1.2c4.6-6.3,8.4-13.5,14.1-18.7
	c14.1-13,30.7-28,15.9-46c-5.9-7.1-29.2-3.5-43.2,0.3c-31.3,8.4-61.8,20-92.6,30.2c38.8-25.6,78.4-47.4,119.2-66.5
	c17.2-8,31.4,1.5,39.4,18.3c16.9,35.2,7.6,107.1-20.6,133.6c-37.4,35.1-34.2,78.3-34.9,127.3c32.3-24.8,59-46.7,87.1-66.6
	c84.6-60.1,124.4-140.1,112.2-244.3L655.3,1118.9z M284.8,1397.7c31.9-8.6,60.4-23.7,90.7-29.6c59.3-11.4,113.6-64.7,120.9-125.8
	c0.3-2.7-2.5-5.7-4.3-9.5c-11.6,6.4-22.5,12.4-33.4,18.4c-3.4,0.4-6.9,0.8-10.3,1.2C392.5,1299.5,320.9,1329.9,284.8,1397.7
	L284.8,1397.7z M205.1,2078.6c-4.4-36.5,4.6-62.9,41.2-82.1c30.7-16.1,55.5-43.4,85.3-67.7c-38.7-4.1-75.7-4.4-97.8,26.8
	c-16.5,23.3-34.2,35.4-61.1,38.3c-6,0.6-11.6,5.5-19.1,9.3c17.6,6.9,32.5,12.7,53.4,20.8c-16.3,13.6-27.1,21.8-37,31.1
	c-13.4,12.6-39.4,23-23.3,46.1c14.1,20.3,35.5,6.2,53.3-1c1.9-0.8,3.2-3.2,6.2-6.4C205.9,2089.8,205.8,2084.1,205.1,2078.6
	L205.1,2078.6z M334.2,827.8c5.9,1.7,20.3-4.9,20.1-6.6c-0.9-9.3-2.4-21.3-8.6-26.9c-38.5-34.4-85.8-50.3-137.4-57.9
	C236.2,786.7,281.4,812.9,334.2,827.8z M907.8,1342.7c44.4-18.9,46.8-22.3,37.8-63.3c-5.3-24.3-12.3-48.2-18.9-73.6
	c-12.8,3-22.6,5.3-36.1,8.5C896.6,1259.1,902.2,1300.7,907.8,1342.7L907.8,1342.7z M332,989.5c-31-1.3-58.7,25.1-58.3,55.7
	c0.4,30.7,26.4,58,56.8,59.5c29,1.4,58.4-27,58.9-57c0.6-29.9-26.2-57-57.5-58.2L332,989.5z M321.2,999.7c25-5.8,49.6,8.6,56.4,32.8
	c7,25-8.5,52.2-33.7,59.3c-26.3,7.4-45.5-4.3-55.8-34.2l1.1,1.2c-7.6-31.4,3.9-52.6,32.1-59.1L321.2,999.7z M288,1057.7
	c4.6,3.2,9,6.6,13.7,9.7c15.2,10.1,31.6,8.9,37.1-7.7c3.4-10.4-2.2-29.5-10.6-36.8c-14.1-12.1-28.4-1.6-36.1,12.9
	c-3.4,6.4-2.1,15.3-3,23.1L288,1057.7z M1233.4,1904.5L1233.4,1904.5c30.1-4.3,30.9-36.3,30.9-36.3
	C1259.6,1886.7,1248.8,1898.8,1233.4,1904.5z M1270.5,1844.8c7.6-33.2,15.1-66.3,22.7-99.5c-16.8,71.6-28.9,122.9-28.9,122.9
	C1266.3,1860.4,1268.7,1852.7,1270.5,1844.8L1270.5,1844.8z M2108.5,1520.7c48.2,0,90.8-40.4,90.6-85.7c-0.2-40.7-30.8-68.3-75-67.5
	c-47.5,0.9-88.4,40.3-87.4,84.3C2037.6,1490,2069.7,1520.8,2108.5,1520.7L2108.5,1520.7z M1431.7,1700c29.6,1.3,53.5,2.4,79.4,3.5
	c-0.9,9.7-0.9,17.6-2.5,25.1c-9,41.6-18,83.1-27.8,124.5c-15,63-30.1,76.5-94.3,87.3c-1.6,0.3-2.7,3.1-5.5,6.7
	c28,36.9,56.4,74.4,85.4,112.5c78.1,7.7,134-46.1,150.3-110.4c20.9-82.5,40.4-165.5,55.4-249.3c16.3-90.5-65.1-165.8-156.7-146.9
	c-26.8,47.1-54.3,95.5-83.6,146.9L1431.7,1700z M1387.7,2007.9c-22.8-30.8-44.3-59.8-69.2-93.4c17.8-1.2,28.9-2,40-2.6
	c15-0.8,30.2-0.4,45-2.4c31.8-4.3,41.6-14.3,48.3-45c6.2-28.1,13.1-56.1,19.3-84.2c3.4-15.3,5.8-30.7,9.4-49.8h-97.8
	c6-12.1,9.5-20.3,14-27.9c28.8-48.6,58.3-96.9,86.8-145.7c10.6-18.2,20.7-35.8,42.7-36.7c8.8-17.1,4.8-28.7-6.6-39.7
	c-35.8-34.3-71.2-68.9-111.6-108.1c-4.1,13.6-7.3,22.1-9.3,31c-33.4,144.8-69.2,289.1-98.7,434.6c-12.1,59.9-37.6,97.2-100.1,104.4
	c-0.7,0-1.2,1.8-3.5,5.6c28,37.2,56.7,75.4,86,114.3C1324.5,2056.3,1357.7,2038.4,1387.7,2007.9L1387.7,2007.9z M1901.9,1879.9
	c-14.3-18.4-25.6-33-41.8-53.9c-4.6,21.6-7.8,36.5-11.5,53.9H1901.9z M2392.7,1522.8c48.5-0.7,90.9-42.4,89.3-87.9
	c-1.4-38.9-31.3-64.6-75.1-64.6c-45.8,0-89.7,42.2-88.1,84.6C2320.2,1491.9,2354.4,1523.4,2392.7,1522.8L2392.7,1522.8z
	 M1150.3,1908.4c23.9,0,45.7,1.6,67.3-0.4c5.7-0.5,11-1.7,15.8-3.5C1203.3,1908.8,1150.3,1908.4,1150.3,1908.4L1150.3,1908.4z
	 M2274.9,2053.9c50.7,8.1,103.5,7.8,155,4.6c31.8-2,61.4-18.7,80.2-50.7c-21-29.8-41.8-59.3-66.6-94.4c27.6-1,48-1.1,68.2-2.7
	c30.7-2.5,43.9-12,50-38.8c15-66.1,28.8-132.5,43.6-201c-41.2-38.5-78.6-81.2-125.3-119.1c-3.7,13.7-6.2,22.5-8.3,31.3
	c-23.8,99.6-47.5,199.2-71.4,298.7c-5,21.1-10.3,42.2-29.4,55.2c-2.6-1-5.2-2-7.8-3c3.3-16.6,6.3-33.3,10.1-49.9
	c14.1-61.7,28.4-123.4,42.5-185.1c3-13.3,8.2-27-4.1-38.9c-37.2-35.9-74.3-71.8-114.1-110.3c-4.2,14.1-7.5,23.8-9.9,33.7
	c-28.3,117.4-56.5,234.9-84.6,352.3C2188.1,1998.3,2212.3,2043.9,2274.9,2053.9L2274.9,2053.9z M2788.2,1862.3
	c-8.9,42.4-33.9,66.3-75.1,75.7c-7.3,1.7-14.3,4.3-23.8,7.2c31.1,41,60,79.2,88.9,117.3c84.4-22.5,138.1-69.8,156.3-153.1
	c12.8-58.5,25.6-117.1,38.7-175.5c2.4-10.8,6.1-21.4,10.1-35h184.4c-23.7-52.9-45.2-100.9-67.4-150.3c-33.4,0-64.5-0.3-95.6,0
	c-85.8,1-153.5,52.8-174.8,135.5C2814.7,1743.2,2800.8,1802.6,2788.2,1862.3L2788.2,1862.3z M2527.1,1937.7
	c-8,2.3-16.2,4.2-27.6,7.1c32.1,41.9,61.2,79.9,89.4,116.8c44-8.6,78.2-25.4,105.4-57.9c-19.9-29.5-39.3-58.2-63-93.3
	c28.5,0,48,1,67.4-0.2c35.2-2.2,50.3-14.5,57.9-48.4c26-114.5,51.1-229.2,76.8-343.7c3.3-14.5,2.2-26.5-9.6-37.6
	c-36-33.9-71.3-68.5-110.8-106.5c-3.9,13.2-6.6,20.7-8.4,28.4c-36.3,155.7-73.2,311.3-108.3,467.3c-8.9,39.5-34,57.8-69.4,68H2527.1
	z M3278.7,2017.4c1.2-4.1,3.5-10.6,5-17.3c21.6-93,43-186.1,64.5-279.2c15.3-66.1,30.6-132.2,46-198.3c3.4-14.7,7.7-29-5.6-41.8
	c-37-35.5-73.7-71.3-114.8-111.3c-41.8,180.1-82.3,354.5-123.2,530.6c43.6,39.9,85.1,78,128,117.2L3278.7,2017.4z M3037,1896.7
	c-41-1.5-78.8,31.5-79.9,70c-1,35.5,26,64,62,65.4c42.2,1.6,80.2-32.5,81.2-72.7C3101.2,1923.3,3075.9,1898.2,3037,1896.7
	L3037,1896.7z M3078.2,1731.4c-41.9-1.2-81.4,34.6-81.3,73.9c0,35.6,28.1,62.9,64.5,62.9c43.7,0,79.4-33.8,79.4-75
	c0-32.2-29.1-60.8-62.7-61.8H3078.2z"/>
<g>
	<path class="st1" d="M288,2712.7v-247.2h49.9v247.2H288z"/>
	<path class="st1" d="M385.7,2712.7v-247.2h105c26.4,0,45.6,2.2,57.6,6.7c12,4.4,21.6,12.3,28.7,23.7c7.2,11.4,10.8,24.3,10.8,38.9
		s-5.5,33.9-16.4,45.9c-10.9,12.1-27.2,19.7-48.9,22.8c10.8,6.3,19.7,13.2,26.7,20.7s16.5,20.9,28.4,40.1l30.2,48.2h-59.7
		l-36.1-53.8c-12.8-19.2-21.6-31.3-26.3-36.3c-4.7-5-9.7-8.4-15-10.3c-5.3-1.9-13.7-2.8-25.1-2.8h-10.1v103.2h-49.9L385.7,2712.7z
		 M435.6,2570.1h36.9c23.9,0,38.9-1,44.9-3c6-2,10.6-5.5,14-10.5c3.4-4.9,5.1-11.1,5.1-18.5s-2.2-15-6.7-20.1
		c-4.4-5.1-10.7-8.3-18.8-9.7c-4-0.6-16.2-0.8-36.4-0.8h-38.9v62.7L435.6,2570.1z"/>
	<path class="st1" d="M857.8,2712.7h-54.3l-21.6-56.1h-98.8l-20.4,56.1h-52.9l96.3-247.2h52.8L857.8,2712.7L857.8,2712.7z
		 M765.9,2614.9l-34.1-91.7l-33.4,91.7H765.9L765.9,2614.9z"/>
	<path class="st1" d="M884.8,2712.7v-247.2h48.6l101.2,165.1v-165.1h46.4v247.2h-50.1l-99.7-161.2v161.2H884.8z"/>
	<path class="st1" d="M1127.9,2646.8v-47.4h93.1v47.4H1127.9z"/>
	<path class="st1" d="M1248.6,2712.7v-247.2h183.3v41.8h-133.4v54.8h124.1v41.6h-124.1v67.3h138.1v41.6L1248.6,2712.7L1248.6,2712.7
		z"/>
	<path class="st1" d="M1473.2,2646.8v-47.4h93.1v47.4H1473.2z"/>
	<path class="st1" d="M1594.3,2712.7v-247.2h169.5v41.8h-119.5v58.5h103.2v41.8h-103.2v105L1594.3,2712.7L1594.3,2712.7z"/>
	<path class="st1" d="M2008.7,2712.7h-54.3l-21.6-56.1H1834l-20.4,56.1h-52.9l96.3-247.2h52.8L2008.7,2712.7L2008.7,2712.7z
		 M1916.8,2614.9l-34.1-91.7l-33.4,91.7H1916.8L1916.8,2614.9z"/>
	<path class="st1" d="M2035.4,2712.7v-247.2h105c26.4,0,45.6,2.2,57.6,6.7c12,4.4,21.6,12.3,28.7,23.7c7.2,11.4,10.8,24.3,10.8,38.9
		s-5.5,33.9-16.4,45.9c-10.9,12.1-27.2,19.7-48.9,22.8c10.8,6.3,19.7,13.2,26.7,20.7s16.5,20.9,28.4,40.1l30.2,48.2h-59.7
		l-36.1-53.8c-12.8-19.2-21.6-31.3-26.3-36.3s-9.7-8.4-15-10.3c-5.3-1.9-13.7-2.8-25.1-2.8h-10.1v103.2h-49.9L2035.4,2712.7z
		 M2085.3,2570.1h36.9c23.9,0,38.9-1,44.9-3s10.6-5.5,14-10.5c3.4-4.9,5.1-11.1,5.1-18.5s-2.2-15-6.7-20.1
		c-4.4-5.1-10.7-8.3-18.8-9.7c-4-0.6-16.2-0.8-36.4-0.8h-38.9v62.7L2085.3,2570.1z"/>
	<path class="st1" d="M2284.4,2465.5h91.2c20.6,0,36.3,1.6,47,4.7c14.5,4.3,26.9,11.9,37.3,22.8c10.3,10.9,18.2,24.3,23.6,40
		c5.4,15.8,8.1,35.3,8.1,58.4s-2.5,37.9-7.6,52.6c-6.2,18-15,32.5-26.5,43.7c-8.7,8.4-20.3,15-35.1,19.7c-11,3.5-25.7,5.2-44.2,5.2
		h-93.9v-247.2L2284.4,2465.5z M2334.3,2507.4v163.7h37.3c13.9,0,24-0.8,30.2-2.4c8.1-2,14.8-5.5,20.1-10.3s9.7-12.8,13.1-23.9
		c3.4-11.1,5.1-26.2,5.1-45.3s-1.7-33.8-5.1-44c-3.4-10.2-8.1-18.2-14.2-23.9c-6.1-5.7-13.8-9.6-23.1-11.6c-7-1.6-20.6-2.4-41-2.4
		L2334.3,2507.4L2334.3,2507.4z"/>
	<path class="st1" d="M2756.9,2712.7h-54.3l-21.6-56.1h-98.8l-20.4,56.1h-52.9l96.3-247.2h52.8l99,247.2H2756.9z M2665,2614.9
		l-34.1-91.7l-33.4,91.7h67.4H2665z"/>
	<path class="st1" d="M2922.1,2712.7v-205.4h-73.3v-41.8h196.4v41.8H2972v205.4H2922.1z"/>
	<path class="st1" d="M3140.5,2712.7l-88.4-247.2h54.1l62.6,182.9l60.5-182.9h52.9l-88.5,247.2H3140.5L3140.5,2712.7z"/>
</g>
</svg>
