<?xml version="1.0" encoding="utf-8"?>
<!-- Generator: Adobe Illustrator 27.7.0, SVG Export Plug-In . SVG Version: 6.00 Build 0)  -->
<svg version="1.1" id="Layer_1" xmlns="http://www.w3.org/2000/svg" xmlns:xlink="http://www.w3.org/1999/xlink" x="0px" y="0px"
	 viewBox="0 0 3500 3500" style="enable-background:new 0 0 3500 3500;" xml:space="preserve">
<style type="text/css">
	.st0{fill:#136027;}
</style>
<g>
	<path class="st0" d="M1804.3,918.9l-1.6-880.7h-45.4l-59.7,9.3c-211.3,27.1-400.8,104.3-568.6,231.6
		C978.1,393.6,840.6,532,704,642.1C503.5,803.7,273,883.6,12.7,881.7c-6.7,0-12.1,5.4-12.1,12.1l0.6,738.1l0.5,38.6l-2.7,90.8
		c0,0.1,0,0.2,0,0.3c0,6.2,5.1,11.3,11.3,11.3c278.2-0.7,521.1-86.2,728.8-256.4c161.1-132.1,315.3-292.9,490.4-408
		c172.9-113.7,357-161.9,565-178.9C1801.2,929.1,1804.4,925.5,1804.3,918.9z"/>
	<path class="st0" d="M2216.1,1600.7c-30.9-94.1-89.5-176.8-168-237.1c-148.2-113.8-347.9-133.9-515.9-52.1
		c-95.4,46.5-173.3,122.6-221.9,216.9c-83.2,161-71.2,354.6,31.1,504.3c54.6,79.9,131.5,141.9,221.1,178.2
		c177.5,72,380.5,34.9,520.7-95.3C2224.2,1984.5,2276.1,1783.5,2216.1,1600.7z"/>
	<path class="st0" d="M3499.7,1734c0-0.1,0-0.2,0-0.3c-0.2-3.1-2.8-5.5-5.8-5.3c-69.7,2.1-138.7,11.6-207,28.4
		c-185.3,41.3-357.9,136.2-496.6,259.9c-101.9,90.8-201.6,181.4-299.3,272c-28.6,26.6-58.1,51-88.3,73.9l-174,106.8
		c-139.8,67.7-293.1,101.7-460,101.7h0c-1.8,0-3.3,1.5-3.3,3.3l0.5,672l1.6,63.3l-2.4,152.2h91.9c75.7-10.4,128.9-18.9,159.6-25.8
		c192.4-42.2,363.5-140.4,504.4-268.7c91.3-83,179.5-164.2,264.8-243.6c202.6-188.4,438.5-290.5,707.6-306.1c5-0.3,7.5-3,7.5-8.2
		L3499.7,1734z M1791,3271.1c0.1,0,0.2,0.1,0.2,0.1c-0.5-0.1-1.1,0-1.6,0.1C1790.1,3271.2,1790.6,3271.1,1791,3271.1z M3254,2184.9
		c-0.1-0.5,0.2-1,0.3-1.5c-0.1,0.6-0.3,1.1-0.2,1.7C3254.1,2185,3254,2184.9,3254,2184.9z M3290.6,2223.1c0,0.9,0,1.7-0.1,2.6
		C3290.6,2224.9,3290.6,2224,3290.6,2223.1z M3290.3,2228.5c-0.1,0.9-0.4,1.7-0.6,2.6C3289.9,2230.2,3290.1,2229.3,3290.3,2228.5z
		 M1796,3273.7c-0.3-0.4-0.7-0.7-1.1-1C1795.3,3273,1795.7,3273.3,1796,3273.7z M1796.8,3275.1c0.1,0.3,0.3,0.6,0.5,0.9
		C1797.1,3275.7,1796.9,3275.4,1796.8,3275.1z M1793.9,3272c-0.4-0.2-0.8-0.3-1.2-0.4C1793.1,3271.7,1793.5,3271.8,1793.9,3272z
		 M1788.7,3271.4c-0.8,0.2-1.7,0.6-2.4,1.2C1787,3272,1787.8,3271.6,1788.7,3271.4z"/>
</g>
</svg>
