<?xml version="1.0" encoding="utf-8"?>
<!-- Generator: Adobe Illustrator 28.0.0, SVG Export Plug-In . SVG Version: 6.00 Build 0)  -->
<svg version="1.0" id="Layer_1" xmlns="http://www.w3.org/2000/svg" xmlns:xlink="http://www.w3.org/1999/xlink" x="0px" y="0px"
	 viewBox="0 0 3500 3500" style="enable-background:new 0 0 3500 3500;" xml:space="preserve">
<style type="text/css">
	.st0{fill:#FFFFFF;}
	.st1{fill:#06BE03;}
	.st2{fill:#E8E8E8;}
	.st3{fill:#9E9D9E;}
	.st4{fill:#D9D1DB;}
	.st5{fill:#A3A3A3;}
	.st6{fill:#E0E0E0;}
	.st7{fill:#A8ACB2;}
	.st8{fill:#EAEAEA;}
	.st9{fill:#BDC3C9;}
	.st10{fill:#C6C4C6;}
	.st11{fill:#E5E5E5;}
	.st12{fill:#A5A5A5;}
	.st13{fill:#BACECD;}
	.st14{fill:#D9D7DB;}
	.st15{fill:#DBD5E0;}
	.st16{fill:#9AA1A8;}
	.st17{fill:#A1A7AF;}
	.st18{fill:#AFAFAF;}
	.st19{fill:#959AA0;}
	.st20{fill:#D8D8D8;}
	.st21{fill:#ADACAD;}
	.st22{fill:#E8DFEA;}
	.st23{fill:#B2B2B2;}
	.st24{fill:#939393;}
	.st25{fill:#A7A7A8;}
	.st26{fill:#C1C1C1;}
	.st27{fill:#7F7F7F;}
	.st28{fill:#DDDDDD;}
	.st29{fill:url(#SVGID_1_);}
	.st30{fill:#F4F4F4;}
	.st31{fill:#E6E7E8;}
</style>
<g>
	<g>
		<g id="Objects">
			<g>
				<g>
					<path class="st0" d="M53.34,1842.75c-16.55-9.35-29.58-22.23-39.08-38.62C4.75,1787.74,0,1769.65,0,1749.72
						s4.6-38.16,13.95-54.56c9.35-16.4,22.07-29.27,38.47-38.62c16.24-9.35,34.33-13.95,54.4-13.95c18.24,0,35.25,4.14,51.19,12.57
						c15.79,8.43,29.12,20.54,40,36.32l-32.65,23.29c-14.86-22.53-34.48-33.87-58.55-33.87c-18.85,0-34.33,6.44-46.29,19.31
						c-12.11,12.87-18.08,29.42-18.08,49.5s6.13,36.63,18.54,49.5c12.26,12.87,27.9,19.31,46.9,19.31c16.4,0,29.58-4.14,39.85-12.26
						c10.12-8.12,16.4-18.24,19-30.19h-62.99v-35.71h104.83c0.46,4.44,0.77,10.12,0.77,16.7c0.15,53.34-37.85,99.92-101.46,99.78
						c-19.92,0-38.16-4.75-54.56-14.1L53.34,1842.75z"/>
					<path class="st0" d="M246.12,1853.79v-208.12h148.05v35.86H287.5v47.97h92.57v35.86H287.5v52.72h108.97v35.71L246.12,1853.79
						L246.12,1853.79z"/>
					<path class="st0" d="M434.77,1853.79v-208.12h43.83l67.13,138.54l66.98-138.54h43.83v208.12h-41.38v-127.67l-56.09,113.72
						h-26.82l-56.09-113.72v127.67H434.77L434.77,1853.79z"/>
				</g>
				<rect x="1100.25" y="1643.66" class="st1" width="9.78" height="209.44"/>
				<g>
					<g>
						<g>
							<polygon class="st2" points="877.85,1697.12 809.01,1697.12 819.92,1673.71 							"/>
							<polygon class="st3" points="819.92,1673.71 797.78,1648.06 741.66,1678.2 769.15,1697.12 							"/>
							<polygon class="st4" points="809.01,1697.12 819.92,1673.71 769.15,1697.12 							"/>
							<polygon class="st5" points="769.15,1697.12 728.82,1697.12 741.66,1678.2 							"/>
							<polygon class="st6" points="728.82,1697.12 696.75,1697.12 741.66,1678.2 							"/>
							<path class="st7" d="M696.75,1697.12c0,0,57.52-49.18,58.37-49.07c0.85,0.11-13.47,30.15-13.47,30.15L696.75,1697.12
								L696.75,1697.12z"/>
							<polygon class="st8" points="755.13,1648.06 797.78,1648.06 741.66,1678.2 							"/>
							<polygon class="st9" points="797.78,1648.06 819.92,1673.71 877.85,1648.06 							"/>
							<polygon class="st10" points="877.85,1697.12 946.71,1697.12 935.8,1673.71 							"/>
							<polygon class="st11" points="877.85,1648.06 819.92,1673.71 877.85,1697.12 935.8,1673.71 							"/>
							<polygon class="st0" points="935.8,1673.71 957.93,1648.06 1014.06,1678.2 986.56,1697.12 							"/>
							<polygon class="st12" points="946.71,1697.12 935.8,1673.71 986.56,1697.12 							"/>
							<polygon class="st13" points="986.56,1697.12 1026.89,1697.12 1014.06,1678.2 							"/>
							<polygon class="st14" points="1026.89,1697.12 1058.96,1697.12 1014.06,1678.2 							"/>
							<path class="st15" d="M1058.96,1697.12c0,0-57.52-49.18-58.37-49.07c-0.85,0.11,13.47,30.15,13.47,30.15L1058.96,1697.12
								L1058.96,1697.12z"/>
							<polygon class="st0" points="1000.59,1648.06 957.93,1648.06 1014.06,1678.2 							"/>
							<polygon class="st16" points="957.93,1648.06 935.8,1673.71 877.85,1648.06 							"/>
						</g>
						<g>
							<polygon class="st17" points="809.01,1697.12 851.99,1802.97 769.15,1697.12 							"/>
							<polygon class="st0" points="769.15,1697.12 826.97,1802.97 877.85,1856.85 851.99,1802.97 							"/>
							<polygon class="st8" points="769.15,1697.12 728.82,1697.12 826.97,1802.97 							"/>
							<polygon class="st18" points="877.85,1856.85 826.97,1802.97 696.75,1697.12 							"/>
							<polygon class="st19" points="728.82,1697.12 696.75,1697.12 826.97,1802.97 							"/>
							<polygon class="st20" points="877.85,1697.12 851.99,1802.97 877.85,1856.85 903.73,1802.97 							"/>
							<polygon class="st11" points="946.71,1697.12 903.73,1802.97 986.56,1697.12 							"/>
							<polygon class="st21" points="986.56,1697.12 928.74,1802.97 877.85,1856.85 903.73,1802.97 							"/>
							<polygon class="st22" points="986.56,1697.12 1026.89,1697.12 928.74,1802.97 							"/>
							<polygon class="st23" points="877.85,1856.85 928.74,1802.97 1058.96,1697.12 							"/>
							<polygon class="st24" points="1026.89,1697.12 1058.96,1697.12 928.74,1802.97 							"/>
							<polygon class="st25" points="946.71,1697.12 903.73,1697.12 903.73,1802.97 							"/>
							<polygon class="st2" points="877.85,1697.12 809.01,1697.12 851.99,1802.97 							"/>
						</g>
						<g>
							<polygon class="st0" points="728.82,1697.12 809.01,1697.12 797.78,1648.06 							"/>
							<polygon class="st26" points="809.01,1697.12 877.85,1697.12 946.71,1697.12 877.85,1648.06 							"/>
							<polygon class="st27" points="1000.59,1648.06 1026.89,1697.12 1058.96,1697.12 							"/>
							<polygon class="st26" points="946.71,1697.12 1026.89,1697.12 957.93,1648.06 							"/>
						</g>
						<path class="st28" d="M1026.89,1691.57H703.27c-3.99,3.4-6.51,5.56-6.51,5.56h362.21c0,0-2.52-2.15-6.51-5.56H1026.89
							L1026.89,1691.57z"/>
						
							<linearGradient id="SVGID_1_" gradientUnits="userSpaceOnUse" x1="910.6007" y1="1745.1382" x2="941.0845" y2="1723.8529" gradientTransform="matrix(1 0 0 -1 0 3500)">
							<stop  offset="0" style="stop-color:#D6D6D6"/>
							<stop  offset="1" style="stop-color:#191919"/>
						</linearGradient>
						<polygon class="st29" points="877.85,1856.85 953.96,1697.12 1006.73,1697.12 						"/>
					</g>
					<polygon class="st30" points="903.73,1697.12 877.85,1697.12 903.73,1802.97 					"/>
					<polygon class="st30" points="877.85,1856.85 877.85,1697.12 851.99,1697.12 					"/>
					<polygon class="st31" points="769.15,1691.57 797.78,1648.06 807.74,1691.57 					"/>
					<polygon class="st31" points="1000.59,1648.06 957.93,1648.06 1023.12,1691.57 					"/>
				</g>
			</g>
		</g>
	</g>
	<g>
		<g>
			<path class="st1" d="M3257.64,1778.17c16.79,25.34,33.32,50.3,50.35,76c-2.21,0.19-3.36,0.38-4.5,0.38
				c-14.41,0.02-28.82-0.08-43.23,0.09c-2.9,0.03-4.36-1.13-5.77-3.41c-12.72-20.57-25.58-41.05-38.24-61.66
				c-1.64-2.67-3.37-3.66-6.49-3.59c-9.65,0.21-19.3,0.07-28.95,0.09c-1.33,0-2.66,0.12-4.47,0.2c0,22.71,0,45.19,0,67.98
				c-15.21,0-29.93,0-44.95,0c0-69.5,0-138.89,0-208.71c1.37-0.07,2.68-0.2,3.98-0.2c28.28-0.01,56.55-0.12,84.83,0.05
				c14.45,0.09,28.37,2.94,41.1,10.11c19.16,10.79,30.2,27.2,33.36,48.94c2.14,14.74,0.57,28.98-5.8,42.55
				c-5.47,11.65-13.87,20.69-24.79,27.43C3262.11,1775.62,3260.1,1776.73,3257.64,1778.17z M3176.5,1747.21
				c15.98,0,31.48,0.52,46.92-0.16c12.45-0.55,22.18-9.04,24.9-20.62c1.07-4.55,1.23-9.42,1.08-14.12
				c-0.43-13.13-8.38-22.87-21.1-26.15c-3.12-0.81-6.41-1.28-9.63-1.32c-12.9-0.15-25.81-0.08-38.71-0.07
				c-1.16,0-2.32,0.19-3.46,0.29C3176.5,1705.93,3176.5,1726.39,3176.5,1747.21z"/>
			<path class="st1" d="M3426.74,1854.33c-15.24,0-29.87,0-45.25,0c0-1.62,0-3.18,0-4.74c0-24.46-0.06-48.92,0.06-73.38
				c0.02-3.56-0.88-6.52-2.71-9.54c-23.12-38.08-46.16-76.2-69.17-114.35c-1.12-1.86-1.81-3.99-3.02-6.71
				c2.33-0.14,3.63-0.28,4.94-0.28c14.27-0.02,28.54,0.07,42.81-0.08c2.73-0.03,4.07,1.02,5.41,3.22
				c15.12,24.99,29.49,50.39,42.29,76.66c0.59,1.21,1.25,2.38,2.24,4.24c1.04-1.98,1.86-3.45,2.6-4.96
				c12.58-25.76,26.61-50.73,41.26-75.37c1.69-2.84,3.51-3.84,6.75-3.8c13.32,0.17,26.63,0.07,39.95,0.07c1.47,0,2.94,0,4.26,0
				c1.74,2.61,0.41,4.44-0.7,6.28c-10.98,18.28-21.98,36.55-32.96,54.82c-12.32,20.48-24.68,40.94-36.87,61.5
				c-1.17,1.97-1.8,4.55-1.81,6.86c-0.13,24.87-0.08,49.74-0.08,74.61C3426.74,1850.86,3426.74,1852.33,3426.74,1854.33z"/>
			<path class="st1" d="M1629.3,1746.5c-0.58,34.5-10.03,61.89-33.34,83.4c-16.4,15.13-36.1,23.36-58.07,26.24
				c-24.72,3.25-48.62,0.26-70.84-11.41c-29.37-15.43-46.34-40.14-52.35-72.57c-4.16-22.44-2.49-44.47,6.13-65.61
				c11.89-29.16,33.18-48.66,63.23-57.99c29.81-9.25,59.38-8.01,87.69,5.53c30.53,14.6,48.39,39.43,55.04,72.37
				C1628.35,1734.15,1628.77,1742.06,1629.3,1746.5z M1521.01,1814.58c27.42-0.07,48.52-13.71,57.52-37.48
				c4.81-12.72,5.82-25.92,3.72-39.32c-3.63-23.1-15.16-40.65-37.77-48.38c-23.85-8.15-46.79-5.73-66.46,11.5
				c-12.86,11.26-18.32,26.35-19.5,43.04C1455.6,1785.15,1480.55,1814.78,1521.01,1814.58z"/>
			<path class="st1" d="M1202.04,1854.36c0-69.87,0-139.03,0-208.57c1.25-0.09,2.41-0.25,3.58-0.25
				c25.68-0.01,51.37-0.19,77.05,0.04c24.2,0.22,46.83,5.96,66.35,20.98c22.31,17.16,34.32,40.3,37.67,67.9
				c3.76,31.07-2.33,59.84-22.54,84.52c-16.75,20.45-39.01,31.11-64.93,34.36c-6.84,0.86-13.81,0.94-20.72,0.97
				c-23.92,0.11-47.84,0.04-71.75,0.04C1205.28,1854.36,1203.83,1854.36,1202.04,1854.36z M1246.97,1813.61
				c15.05,0,29.91,1.03,44.58-0.23c23.77-2.05,40.9-17.41,47.25-40.43c3.94-14.29,4.12-28.74,0.78-43.15
				c-5.54-23.94-22.52-40.22-46.92-42.84c-14.92-1.6-30.11-0.61-45.19-0.77c-0.09,0-0.19,0.17-0.5,0.46
				C1246.97,1728.82,1246.97,1771.19,1246.97,1813.61z"/>
			<path class="st1" d="M1858.18,1716.97c-1.14,0.06-2.32,0.18-3.51,0.18c-12.37,0.01-24.75-0.08-37.11,0.08
				c-2.71,0.04-4.07-0.87-5.33-3.2c-20.51-37.82-79.61-37.71-101.7-3.48c-15.51,24.02-15.49,67.76,9.07,89.46
				c11.11,9.82,24.17,14.28,38.8,14.51c21.99,0.34,40.17-6.98,52.26-26.35c0.29-0.46,0.7-0.9,0.81-1.41
				c1.62-7.48,6.82-8.07,13.32-7.8c11.38,0.46,22.8,0.13,34.59,0.13c-0.12,1.32-0.07,2.36-0.32,3.32
				c-11.29,43.9-44.16,71.01-89.49,74.41c-20.63,1.55-40.46-1-59.09-10.09c-28.76-14.04-46.08-37.45-53.17-68.28
				c-6.24-27.11-4.4-53.85,7.86-79.12c15.84-32.64,42.58-50.77,78.23-55.4c25.42-3.3,49.93,0.28,72.31,13.63
				c22.42,13.37,35.79,33.52,42.61,58.36C1858.37,1716.17,1858.25,1716.46,1858.18,1716.97z"/>
			<path class="st1" d="M2058.37,1645.75c0,1.73,0,2.94,0,4.16c0,41.6,0.05,83.2-0.03,124.8c-0.04,18.77-4.32,36.38-15.74,51.67
				c-13.39,17.92-31.9,27.04-53.63,29.95c-20.68,2.77-40.75,0.43-59.3-9.69c-20.87-11.38-33.16-29.26-37.53-52.46
				c-1.3-6.89-1.84-14.01-1.87-21.03c-0.17-40.92-0.08-81.84-0.08-122.76c0-1.46,0-2.93,0-4.62c14.93,0,29.41,0,44.36,0
				c0.09,1.73,0.25,3.43,0.25,5.12c0.01,40.24-0.04,80.48,0.07,120.72c0.01,5.27,0.32,10.66,1.41,15.79
				c3.46,16.33,16.25,26.89,33.41,27.58c5.65,0.22,11.48-0.05,16.98-1.24c14.45-3.14,24.04-14.03,26.06-28.87
				c0.57-4.16,0.85-8.39,0.85-12.58c0.06-40.51,0.04-81.03,0.04-121.54c0-1.59,0-3.18,0-4.99
				C2028.67,1645.75,2043.28,1645.75,2058.37,1645.75z"/>
			<path class="st1" d="M2311.12,1645.35c0,69.85,0,139.12,0,208.7c-14.73,0-29.32,0-44,0c0-39.03,0-78.09,0-117.73
				c-3.65,3.9-7.13,7.58-10.57,11.3c-15.58,16.88-31.14,33.77-46.72,50.64c-3.45,3.73-5.07,3.75-8.6-0.03
				c-17.81-19.07-35.59-38.17-53.39-57.25c-1.29-1.38-2.59-2.76-4.16-4.43c0,39.36,0,78.31,0,117.54c-14.35,0-28.96,0-43.89,0
				c0-69.32,0-138.7,0-208.69c5.27,0,10.64-0.16,16,0.13c1.17,0.06,2.39,1.59,3.35,2.65c27.9,30.84,55.77,61.7,83.66,92.56
				c0.73,0.8,1.49,1.57,2.6,2.75c5.26-5.77,10.46-11.42,15.6-17.12c23.5-26.02,47.02-52.03,70.44-78.12
				c1.9-2.11,3.77-3.11,6.62-2.95C2302.25,1645.52,2306.46,1645.35,2311.12,1645.35z"/>
			<path class="st1" d="M2706.31,1855.05c-5.29,0-10.18,0.21-15.03-0.13c-1.47-0.1-3.07-1.5-4.2-2.7
				c-32.09-33.81-64.12-67.66-96.17-101.51c-5.5-5.81-11.02-11.61-16.72-17.6c0,40.4,0,80.46,0,120.88c-14.02,0-28.45,0-43.16,0
				c0-69.65,0-139.27,0-209.33c5.29,0,10.43-0.16,15.54,0.12c1.2,0.06,2.48,1.44,3.46,2.46c36.73,38.21,73.42,76.45,110.11,114.7
				c0.84,0.88,1.46,1.96,2.89,2.41c0-39.4,0-78.81,0-118.52c14.18,0,28.61,0,43.28,0
				C2706.31,1715.49,2706.31,1785.01,2706.31,1855.05z"/>
			<path class="st1" d="M3095.02,1854.36c-3.51,0-6.19,0-8.87,0c-12.23,0-24.47-0.07-36.7,0.06c-2.55,0.03-3.8-0.76-4.83-3.13
				c-4.1-9.46-8.51-18.79-12.65-28.23c-0.97-2.21-2.2-2.94-4.58-2.94c-27.19,0.08-54.37,0.08-81.56,0c-2.4-0.01-3.6,0.78-4.56,2.98
				c-4.19,9.57-8.5,19.09-12.96,28.54c-0.55,1.17-2.17,2.59-3.32,2.6c-14.81,0.16-29.63,0.09-44.45,0.05c-0.38,0-0.76-0.22-1.68-0.5
				c0.51-1.67,0.79-3.39,1.51-4.91c31.89-67.18,63.84-134.33,95.68-201.53c1.31-2.77,2.82-3.82,5.84-3.6
				c4.58,0.34,10.12-1.24,13.52,0.83c3.23,1.97,4.27,7.57,6.19,11.61c30.42,63.98,60.83,127.96,91.21,191.95
				C3093.67,1849.89,3094.14,1851.82,3095.02,1854.36z M2960.33,1780.62c17.67,0,34.71,0,52.29,0
				c-8.7-21.58-17.24-42.77-26.13-64.83C2977.63,1737.76,2969.08,1758.94,2960.33,1780.62z"/>
			<path class="st1" d="M2359.91,1645.75c42.52,0,84.86,0,127.54,0c0,13.25,0,26.46,0,40.18c-27.72,0-55.37,0-83.29,0
				c0,14.41,0,28.33,0,42.66c26.23,0,52.25,0,78.48,0c0,13.28,0,26.14,0,39.65c-26.09,0-52.19,0-78.51,0c0,15.54,0,30.44,0,45.86
				c28.65,0,57.23,0,86.08,0c0,13.61,0,26.7,0,40.02c-43.45,0-86.74,0-130.3,0C2359.91,1784.69,2359.91,1715.33,2359.91,1645.75z"/>
			<path class="st1" d="M2736.06,1645.75c51.57,0,103,0,154.71,0c0,13.3,0,26.41,0,39.98c-18.07,0-36.07,0-54.59,0
				c0,56.34,0,112.23,0,168.38c-15.13,0-29.74,0-44.87,0c0-55.86,0-111.76,0-168.08c-18.65,0-36.8,0-55.25,0
				C2736.06,1672.39,2736.06,1659.18,2736.06,1645.75z"/>
		</g>
	</g>
</g>
</svg>
