<?xml version="1.0" encoding="utf-8"?>
<!-- Generator: Adobe Illustrator 27.7.0, SVG Export Plug-In . SVG Version: 6.00 Build 0)  -->
<svg version="1.1" id="Layer_1" xmlns="http://www.w3.org/2000/svg" xmlns:xlink="http://www.w3.org/1999/xlink" x="0px" y="0px"
	 viewBox="0 0 3500 3500" style="enable-background:new 0 0 3500 3500;" xml:space="preserve">
<style type="text/css">
	.st0{fill:#FF7900;}
</style>
<path class="st0" d="M1751.1,0.7L3498.3,1748c0.9,0.9,0.9,2.4,0,3.3c-215.7,215.8-407.5,407.5-575.5,575.3
	c-22.1,22.1-45.6,49.1-64,69.6c-7.1,7.9-22.6,23.9-46.5,47.7c-12,12-32.9,31.4-62.7,58.4c-17.6,15.9-34,31.5-49.2,46.7
	c-254.6,254.7-570.8,570.9-948.5,948.8c-1.3,1.3-3.4,1.3-4.7,0L0.4,1751c-0.8-0.8-0.8-1.6,0-2.4L1748.2,0.7
	C1749.2-0.2,1750.1-0.2,1751.1,0.7z M1784.2,216.1c0.5-0.2,0.8-0.9,0.5-1.4c-0.1-0.1-0.1-0.2-0.2-0.3l-34-34.7
	c-0.4-0.4-1.1-0.4-1.5,0c0,0,0,0,0,0l-87.5,86.2c-0.4,0.4-0.5,1.1-0.1,1.5c0.3,0.3,0.8,0.4,1.2,0.2L1784.2,216.1z M1660,266.4
	c-0.4,0.6-0.2,0.8,0.4,0.8c0.5,0,1-0.3,1.3-0.8c1-1.5,0.8-1.9-0.7-1.1C1660.7,265.5,1660.3,265.9,1660,266.4z M1372.3,710.8
	c0.2,0.4,0.6,0.5,0.9,0.4c0,0,0,0,0,0c4.3-2.4,7.7-6.2,11.7-8.5c46.2-26.9,73.5-42.7,81.7-47.5c27.9-16.3,69.4-37,124.6-62.2
	c29.7-13.6,56.5-24.7,80.4-33.4c79.1-28.8,150.3-50.4,213.3-65c15.8-3.7,26.9-6.1,33.2-7.3c26.1-4.9,47.6-10.3,75.1-13.6
	c15.5-1.8,29.6-3.7,42.2-5.7c2.3-0.4,3.9-2.6,3.6-4.9c-0.1-0.9-0.6-1.7-1.2-2.3l-145.2-145.2c-1.6-1.6-3.8-2.2-6-1.7
	c-10.5,2.3-17.7,4.1-21.6,5.3c-41,12.7-82.1,28.6-123.4,47.5c-19.2,8.8-39.1,19.5-59.7,32.2c-41.4,25.4-71.9,45.9-91.6,61.6
	c-40.6,32.4-81.6,71.8-123,118.1c-17.9,20.1-32.2,37.5-42.9,52.2c-13.3,18.3-31.1,43.7-53.3,76c-0.7,1-0.6,1.9,0.3,2.7
	C1371.8,709.8,1372.1,710.2,1372.3,710.8z M1595.1,730.3c-2.1,0.8-3.2,2.4-3.4,4.9c0,0.7,0.5,1.3,1.2,1.3c0.1,0,0.3,0,0.4,0
	c20.6-5.8,45.6-11.8,75-17.9c108.3-22.6,218.5-27.6,330.4-15c116.3,13,227.5,45,333.6,96c6.4,3.1,27.6,13.9,63.6,32.5
	c3,1.5,5.2,1,6.8-1.7c0.4-0.8,0.3-1.5-0.3-2.1l-243.8-243.8c-2.3-2.3-5.5-3.5-8.8-3.3c-39.1,3-80,7.4-122.7,13.1
	c-19.9,2.7-59.7,10.4-119.3,23.3c-23.8,5.1-45.8,10.8-65.8,16.9c-58.5,17.8-117.2,38.7-176.2,62.9c-27.3,11.2-49.9,21.8-67.8,31.9
	C1597.9,729.3,1596.9,729.7,1595.1,730.3z M1221.2,709.3c-1.7,0.1-2.8,0.5-3.3,1c-7.2,7.3-33.9,34.1-80.1,80.3
	c-542.3,541.9-859.2,858.8-950.9,950.8c-3.1,3.1-5.6,5.9-7.5,8.3c-1.1,1.4-1,3.5,0.2,4.8c42,42,122.1,121.2,240.1,237.6
	c3.8,3.8,9.4,9.3,16.9,16.6c40.8,39.9,117.4,116.1,229.7,228.6c4.2,4.2,8.3,8,12.4,11.3c1,0.8,1.9,1,2.7,0.4c1.1-0.7,1.4-1.7,1-2.9
	c-36.9-110.4-54.6-224.2-53.2-341.2c0.3-23,1-44.3,2.2-64c1.3-22.6,3.5-43.9,6.6-63.9c9.4-61.4,20.4-115.8,33-163.1
	c9.2-34.7,18.2-64.1,27.1-88.4c17.5-48,36-92.3,55.2-133.1c17.4-36.9,35-70.3,52.7-100.1c25.3-42.6,43.8-73,55.7-91.3
	c32.6-50.2,70.2-101.1,112.8-152.6c15.9-19.3,31-36.2,45.1-50.8c41.2-42.6,83.6-83,127.3-121.1c1.6-1.4,2.7-3,3.4-4.9
	c13.9-37.9,31.6-79.1,53-123.5c7.9-16.4,14.8-28.7,20.8-37.1c0.3-0.4,0.5-1.1,0.7-1.9c0.3-1.5-0.2-1.8-1.4-0.9
	C1222.3,709,1221.6,709.3,1221.2,709.3z M2729.9,1526.7c-2.1-17.3-4.6-33.6-7.5-48.9c-18.9-100.8-56.3-193.1-112.2-276.8
	c-46.5-69.6-101.8-130.1-166.1-181.5c-126.4-101.1-270.6-163.3-432.3-186.6c-18.7-2.7-41.1-4.8-67.4-6.3
	c-60-3.4-115.2-2.5-165.6,2.8c-105.7,11.1-207.9,40.9-306.6,89.2c-71.7,35.1-138.8,82.5-197.6,136c-13.2,12-25.1,24.2-35.7,36.5
	c-3.5,4-5.7,9.1-6.8,15.2c-3.6,20.3-5.8,41-6.7,62.1c-2,46.3-1.9,87.8,0.4,124.8c4,65.7,16.1,132.4,36.1,200.2
	c34.3,116.2,90.5,220.2,168.6,312c8.6,10.1,19.4,21.7,32.5,34.9c15.6,15.7,26.8,26.6,33.6,32.6c61.5,54.8,125.4,96.6,191.6,125.4
	c137.1,59.6,280.1,75.5,429.1,47.7c94.3-17.6,182.2-52.1,263.6-103.5c60.6-38.3,113.1-79.7,157.4-124.3
	c76.4-76.7,138.2-164.9,185.5-264.4c2.6-5.4,7.3-15.7,6.9-21.6C2730.4,1531.7,2730.2,1529.9,2729.9,1526.7z M2804.9,1303.7
	c-0.5,0.6-0.3,1.1,0.5,1.4c0.8,0.4,1.3,0.1,1.4-0.8c1.4-9.3,2.2-18.2,2.4-26.8c0.1-5.2,0.9-10.3,2.3-15.3c1.4-4.9,2.9-17.9-1.5-22.4
	c-6.9-7.1-12.9-13.8-18-19.9c-12.8-15.5-26.9-29.1-39.8-41.8c-0.9-0.9-1.5-0.7-1.9,0.4l-1.2,3.5c-0.4,1.1-0.2,2.2,0.6,3.1
	c1.3,1.5,2.8,3.8,4.5,7c20.6,39,37.5,75.8,50.9,110.5C2805.1,1302.9,2805.1,1303.3,2804.9,1303.7z M1100.2,1290.5
	c-0.7,2.9-1.3,6.7-2.1,8.6c-15.4,34.9-28.2,70.7-38.3,107.4c-6.7,24.3-12.2,46.3-16.4,66c-8.4,38.9-12.9,76.8-13.5,113.7
	c-1.5,93.1,14.4,183.1,47.8,269.9c30.8,80.1,72.8,151.9,126,215.5c35.6,42.6,73.2,79.9,112.8,112.1c96.9,78.8,206,134.4,327.5,166.9
	c107.6,28.8,216.9,37.4,327.8,25.7c20-2.1,42.3-5.6,67.1-10.4c38.6-7.6,71-14.8,97-21.6c107.6-28.4,209.1-80.6,298.3-148.1
	c32-24.2,60.1-50.9,87.8-79.4c39.1-40.3,73.7-84.6,103.6-132.7c10.3-16.5,21-36.4,32.2-59.7c12.6-26.2,23.9-51,33.8-74.3
	c0.4-0.9,1.3-4,2.9-9.3c0.3-1.1,0-1.8-1.1-2.2c-1.8-0.7-3.2-0.5-4.3,0.6c-11.2,11.5-22.5,23.7-34,36.8
	c-9.7,11.1-21.5,22.9-35.3,35.5c-30.4,27.8-47.3,43.1-50.9,46.1c-43.2,36.1-88.6,68.2-136.2,96.3c-106,62.6-220.1,101.8-342.5,117.8
	c-28.2,3.7-56.2,5.6-84.1,5.8c-41.1,0.4-66.9,0.1-77.3-0.6c-186.7-14-349.5-79.6-488.6-197c-41.5-35-79.1-73.3-113-115
	c-48.1-59.2-87.3-119.6-117.8-181.4c-54.4-110.2-88-227.5-100.9-352c-0.8-7.7-1.7-14.5-2.8-20.3c-2.3-12.7-3.6-19.4-3.7-20.1
	C1101.4,1288.5,1100.8,1288.2,1100.2,1290.5z M952.6,1323.3c-2.3,0.3-3.7,0.8-4.1,1.4c-6.7,8.8-16,23.5-28.1,44.1
	c-13.5,23.2-31.9,58.2-55.2,105.2c-9.4,19-19.2,42.1-29.4,69.2c-26.5,70.6-46.3,139.3-59.4,206.2c-10,51-16.4,107.7-19.2,170.2
	c-0.7,16.9-0.4,38,1.2,63.2c1.8,29.5,3.6,50.5,5.5,62.7c6.2,39.4,15.2,81.8,26.9,127c6.5,25.1,14,48.6,22.6,70.6
	c19.9,51,45.2,101.3,75.8,150.7c61,98.4,139.4,179.7,235.2,243.7c64.8,43.4,132,77.1,201.6,101.4c60.8,21.2,120.2,36.3,178,45.3
	c108.8,17,218.2,19.1,328.1,6.4c33.3-3.8,59.6-7.5,78.9-10.9c156.2-27.8,304.9-79.8,445.9-155.9c58.2-31.4,113.9-66,167.2-103.6
	c26.6-18.8,56.5-40.7,89.7-65.8c3.7-2.8,8.9-5.6,15.8-8.4c8.2-3.3,15.1-7.6,20.5-12.9c18.1-17.5,61-60,128.6-127.8
	c17-17.1,34.4-36.2,52.1-57.4c71.3-85.7,130.5-177.3,177.5-275c9.3-19.3,18.2-40.1,26.8-62.4c18.2-47.6,34.7-94.1,49.5-139.6
	c20.7-63.7,33.1-131.4,44-198.5c0.6-3.8-0.6-7.6-3.3-10.3l-193.8-193.8c-4.2-4.2-7.3-3.5-9.5,2c-1.8,4.4-3.4,10-4.9,16.7
	c-9.8,43-22.3,84.8-37.5,125.4c-7.9,21-13.1,35.4-15.8,43.2c-2.4,7.1-2.4,10.6-3.3,19.4c-0.7,7.6-2,35.3-3.7,83.2
	c-1.5,41.2-7.2,84.8-17.2,130.6c-20.9,96.1-58.6,187.7-113,274.9c-33,52.8-72.2,102.7-117.7,149.7
	c-82.3,85.1-175.8,152.6-280.4,202.6c-75.2,36-152.9,62.2-233,78.7c-179.7,36.9-356.4,28.4-530.1-25.8
	c-113.3-35.3-217.8-89.6-313.3-163c-76.5-58.8-142.2-127.9-196.9-207.3c-78.6-114-127.5-238.1-146.8-372.4
	c-3-20.6-5.1-43.1-6.3-67.4c-2.5-49.4-1.8-91.1,2-125c7.2-63.5,23.3-132.7,48.4-207.7c0,0,0.4-0.5,1-1.5
	C954.2,1323.5,953.9,1323.1,952.6,1323.3z M3181.9,1883c0,0.8,0.6,1.4,1.3,1.4c0,0,0.1,0,0.1,0c1.6-0.1,3.2-0.8,4.7-2.2
	c5.5-5,10.8-10.1,16-15.4c32-32.6,70.6-71.3,115.8-116.1c0.3-0.3,0.4-0.9,0-1.2c0,0,0,0,0,0l-74-74c-1.6-1.6-4.1-1.6-5.7,0
	c-0.6,0.6-0.9,1.3-1.1,2c-9.4,46-21,92.2-35,138.7c-2.6,8.6-9.6,28.5-20.9,59.6C3182.3,1877.9,3181.9,1880.3,3181.9,1883z
	 M1294.1,2860.6c-4.2-1.3-4.7,0.4-1.4,5.1c2.1,3,6.3,7.6,12.6,14c131.2,131.1,278.3,278.2,441.5,441.4c0.8,0.8,2.1,0.8,2.9,0.1
	c22.8-21.2,46.7-47.9,65.9-67c33.8-33.8,94.1-93.9,180.8-180.3c20.6-20.6,41.5-42,62.5-64.5c18.5-19.8,34.1-36.1,47-49
	c18.7-18.7,65.3-65,140.1-138.8c3.1-3,5.3-6.5,6.9-10.4c0.3-0.8-0.1-1.6-0.8-1.9c-0.4-0.1-0.8-0.1-1.1,0
	c-62.5,25.8-126.4,47.8-191.7,65.9c-18.6,5.2-40.6,10.4-66,15.9c-74.5,15.8-150.2,26.4-227,31.9c-23,1.6-45.1,2.3-66.4,2
	c-10.1-0.1-32.4-0.5-66.9-1.3c-30.5-0.6-62-3.3-94.7-8c-50.7-7.3-101.1-16.5-151.1-27.8c-12.7-2.9-28.3-7.2-46.7-12.9
	C1309.8,2865.5,1294.4,2860.6,1294.1,2860.6z"/>
<circle class="st0" cx="1601.2" cy="1357.1" r="75.2"/>
<circle class="st0" cx="2362.6" cy="1357.3" r="75.2"/>
</svg>
