<?xml version="1.0" encoding="utf-8"?>
<!-- Generator: Adobe Illustrator 27.7.0, SVG Export Plug-In . SVG Version: 6.00 Build 0)  -->
<svg version="1.1" id="Layer_1" xmlns="http://www.w3.org/2000/svg" xmlns:xlink="http://www.w3.org/1999/xlink" x="0px" y="0px"
	 viewBox="0 0 3500 3500" style="enable-background:new 0 0 3500 3500;" xml:space="preserve">
<style type="text/css">
	.st0{fill:#FFFFFF;}
	.st1{fill:#BA0000;}
	.st2{fill:#E8E8E8;}
	.st3{fill:#9E9D9E;}
	.st4{fill:#D9D1DB;}
	.st5{fill:#A3A3A3;}
	.st6{fill:#E0E0E0;}
	.st7{fill:#A8ACB2;}
	.st8{fill:#EAEAEA;}
	.st9{fill:#BDC3C9;}
	.st10{fill:#C6C4C6;}
	.st11{fill:#E5E5E5;}
	.st12{fill:#A5A5A5;}
	.st13{fill:#BACECD;}
	.st14{fill:#D9D7DB;}
	.st15{fill:#DBD5E0;}
	.st16{fill:#9AA1A8;}
	.st17{fill:#A1A7AF;}
	.st18{fill:#AFAFAF;}
	.st19{fill:#959AA0;}
	.st20{fill:#D8D8D8;}
	.st21{fill:#ADACAD;}
	.st22{fill:#E8DFEA;}
	.st23{fill:#B2B2B2;}
	.st24{fill:#939393;}
	.st25{fill:#A7A7A8;}
	.st26{fill:#C1C1C1;}
	.st27{fill:#7F7F7F;}
	.st28{fill:#DDDDDD;}
	.st29{fill:url(#SVGID_1_);}
	.st30{fill:#F4F4F4;}
	.st31{fill:#E6E7E8;}
</style>
<g>
	<g id="Objects">
		<g>
			<g>
				<path class="st0" d="M75.3,1881.4c-23.4-13.2-41.8-31.4-55.2-54.6S0,1778.1,0,1750s6.5-53.9,19.7-77.1
					c13.2-23.2,31.2-41.3,54.3-54.6c23-13.2,48.5-19.7,76.8-19.7c25.8,0,49.8,5.8,72.3,17.8c22.3,11.9,41.1,29,56.5,51.3l-46.1,32.9
					c-21-31.8-48.7-47.8-82.7-47.8c-26.6,0-48.5,9.1-65.4,27.3C68.4,1698.3,60,1721.7,60,1750s8.7,51.7,26.2,69.9
					c17.3,18.2,39.4,27.3,66.2,27.3c23.2,0,41.8-5.8,56.3-17.3c14.3-11.5,23.2-25.8,26.8-42.7h-89v-50.4h148.1
					c0.6,6.3,1.1,14.3,1.1,23.6c0.2,75.3-53.5,141.2-143.3,140.9C124.3,1901.3,98.5,1894.6,75.3,1881.4L75.3,1881.4z"/>
				<path class="st0" d="M347.6,1897v-294h209.1v50.7H406.1v67.8h130.8v50.7H406.1v74.5H560v50.4L347.6,1897L347.6,1897z"/>
				<path class="st0" d="M614.1,1897v-294H676l94.8,195.7l94.6-195.7h61.9v294h-58.5v-180.3l-79.2,160.6h-37.9l-79.2-160.6V1897
					H614.1L614.1,1897z"/>
			</g>
			<rect x="1554.1" y="1600.2" class="st1" width="13.8" height="300.4"/>
			<path class="st1" d="M3001,1692.1h-58.1c-0.6-0.8-1-1.2-1.1-1.6c-3-19.8-16.3-28.8-34.4-32.3c-13-2.5-26.2-2.2-39.1,1.2
				c-4.3,1.1-8.6,2.9-12.5,5.1c-9.6,5.3-14.6,13.7-14.3,24.7c0.3,11.4,6.1,19.3,16.4,24c11.9,5.4,24.7,7.2,37.5,8.7
				c19.7,2.3,39.3,5.5,57.9,12.7c6,2.3,11.9,5,17.6,8.1c27.3,15.2,39.7,38.9,38.9,69.9c-0.8,29.7-14.6,51.9-39.4,67.5
				c-16.5,10.4-34.8,15.7-54,17.8c-26.9,2.9-53.5,1.8-79.1-7.9c-33.1-12.6-54.3-35.6-60.2-71.3c-0.7-4.2-0.7-8.4-1-13.3h60.2
				c0.4,2.4,0.6,4.5,1.1,6.5c3,12.9,11.1,21.4,23.1,26.3c14.5,6,29.8,7,45.1,4.9c7.9-1.1,16-3.2,23.3-6.4
				c5.2-2.3,10.2-6.6,13.6-11.2c9.2-12.6,5.4-29-8-37.2c-9.6-5.8-20.4-8.2-31.2-10c-15.3-2.5-30.9-4-46-7.4
				c-11.3-2.6-22.6-6.5-33-11.6c-28.6-13.8-43.5-37.3-44.5-69c-1-31.6,13.2-55.2,40-71.2c39.5-23.7,102.7-23.2,141.3,1.2
				c25,15.8,38,39,40.4,68.3C3001.4,1689.6,3001.2,1690.5,3001,1692.1L3001,1692.1z"/>
			<path class="st1" d="M2734.2,1692.2h-59.1c-0.6-2.2-1.2-4-1.6-5.8c-2.5-11.4-9.3-19.5-19.9-23.8c-20.3-8.2-41.1-8.2-61.4,0
				c-10.3,4.2-17.2,11.8-17.9,23.8c-0.8,12.8,4.8,21.6,16.2,26.8c11.9,5.5,24.7,7.2,37.5,8.8c18.3,2.2,36.4,5,53.9,11.2
				c5.4,1.9,10.7,4.1,15.9,6.5c59,27,55.3,102.6,15.1,133.5c-16.1,12.4-34.2,19.9-54,23.3c-28.7,4.9-57.2,4.3-85-5
				c-31.1-10.5-53.4-30.2-62.2-62.9c-1.9-7.2-2.5-14.9-3.8-23.1h60.3c0.4,1.3,1.2,2.8,1.4,4.4c2.1,14.2,10.6,23.2,23.4,28.5
				c14.7,6.1,30.2,6.8,45.8,5c10.3-1.2,20.2-3.6,28.8-9.8c10-7.2,14.3-18.9,11.2-30.2c-2.2-8.3-8.2-13.2-15.5-16.8
				c-11.8-5.7-24.6-7.5-37.4-9.5c-14.1-2.2-28.4-4.3-42.3-7.3c-12.9-2.8-24.8-8.3-36.2-15.2c-43.5-26.7-47.5-93.8-8.2-126
				c11.3-9.2,23.9-15.8,37.8-19.9c31.1-9,62.4-9.5,93.2,0.9c34,11.6,56.2,34.4,62.7,70.7C2733.6,1683.8,2733.7,1687.6,2734.2,1692.2
				L2734.2,1692.2z"/>
			<path class="st1" d="M3500,1791.4c-0.4,2.2-0.7,4.3-1.2,6.3c-13.3,53.7-55.4,91.8-110.1,99.4c-33.1,4.7-65.5,2.2-95.8-13
				c-41.6-20.9-65.6-55.4-74.3-100.6c-6.8-35.2-3.9-69.8,11.8-102.3c22.2-46.2,59.8-71.5,110.2-78c29-3.8,57.4-0.5,84.3,11.4
				c38.2,16.8,61.4,46.7,72.9,86.2c0.3,1.1,0.2,2.3,0.4,4.2c-5.3,0-10.3,0-15.2,0c-13.4,0-26.8-0.1-40.2,0.1
				c-3.9,0.1-6.4-0.9-8.6-4.7c-17.3-31.4-50.5-43.7-84.8-39c-39.5,5.4-64.5,35.8-69.3,73.3c-2.8,22.2-0.7,43.6,9.9,63.4
				c15.2,28.4,39.8,41.6,71.5,42c34.1,0.4,60.1-13.4,75.2-44.9c1.3-2.8,2.6-4.8,6.2-4.8c17.9,0.1,35.9,0.1,53.8,0.1
				C3497.6,1790.5,3498.5,1791,3500,1791.4L3500,1791.4z"/>
			<path class="st1" d="M1975.9,1705.1c-10,0-19.3,0-28.6,0c-9.3,0-18.6-0.1-28,0.1c-3.5,0.1-5.5-1-7.3-4.2
				c-25.9-48.1-90.9-50-123.8-23.3c-17.2,14-26.6,32.3-30,53.8c-4,25.8-1.4,50.7,13.1,73.1c15.7,24.2,38.9,35.2,67.3,35.5
				c34.4,0.4,60.5-13.4,75.7-45.2c1.2-2.5,2.2-4.5,5.6-4.5c18.2,0.1,36.3,0.1,54.5,0.2c0.9,0,1.8,0.6,3,1c-0.3,2-0.4,3.9-0.8,5.7
				c-13,54-56.7,93-111.8,100.2c-30.4,3.9-60.2,2.2-88.5-10.5c-41.9-18.7-67.7-51.3-78.4-95.5c-9.6-39.8-6.4-79,12.8-115.6
				c22.6-43,59.3-66.3,107.1-72.5c29-3.8,57.3-0.6,84.2,11.2c38.5,16.8,61.8,46.8,73.4,86.6C1975.9,1702,1975.8,1703,1975.9,1705.1
				L1975.9,1705.1z"/>
			<path class="st1" d="M2511.8,1894.3c-3.8,0.3-5.9,0.6-7.9,0.6c-17.9,0-35.9-0.2-53.8,0.1c-4.9,0.1-7.3-1.7-9.1-6
				c-5.1-12.1-10.9-23.9-15.9-36c-1.8-4.4-4-6.1-8.9-6.1c-36.3,0.2-72.7,0.2-109,0c-4.9,0-7.1,1.7-9,6
				c-5.2,12.3-10.9,24.4-16.3,36.7c-1.5,3.4-3.2,5.4-7.4,5.3c-18.9-0.2-37.8-0.1-56.6-0.1c-1.6,0-3.2-0.5-5.6-1
				c1.1-3.1,1.7-5.8,2.9-8.3c43.7-91.9,87.5-183.8,131.2-275.7c2-4.2,4.4-6.3,9.3-5.8c6.1,0.6,13.5-1.4,18.2,1.4
				c4.3,2.6,5.9,10,8.4,15.3c41.9,87.7,83.8,175.4,125.6,263.2C2509.1,1886.9,2510.1,1890,2511.8,1894.3L2511.8,1894.3z
				 M2362.4,1705.5h-1.5c-11.7,28.7-23.4,57.4-35.4,86.9h71.9C2385.6,1763,2374,1734.2,2362.4,1705.5L2362.4,1705.5z"/>
			<path class="st1" d="M3041.1,1894.3V1845h40.4v-188.7h-36.4v-49.7h135.6c1.9,5.2,2.2,42,0.2,49.6h-35.8v188.3h40v49.8
				L3041.1,1894.3L3041.1,1894.3z"/>
			<path class="st1" d="M2025.6,1606.6h61.7c0.1,15.4,0.1,30.8,0.1,46.2c0,15.3,0,30.6,0,45.9v92.5c0,15.5,0,31,0,47.6h113.9v54.6
				c-5.1,1.8-166.6,2.4-175.7,0.6L2025.6,1606.6L2025.6,1606.6z"/>
			<g>
				<g>
					<g>
						<polygon class="st2" points="1240,1675.7 1142.7,1675.7 1158.1,1642.6 						"/>
						<polygon class="st3" points="1158.1,1642.6 1126.9,1606.4 1047.6,1649 1086.4,1675.7 						"/>
						<polygon class="st4" points="1142.7,1675.7 1158.1,1642.6 1086.4,1675.7 						"/>
						<polygon class="st5" points="1086.4,1675.7 1029.5,1675.7 1047.6,1649 						"/>
						<polygon class="st6" points="1029.5,1675.7 984.2,1675.7 1047.6,1649 						"/>
						<path class="st7" d="M984.2,1675.7c0,0,81.2-69.5,82.5-69.3c1.2,0.2-19,42.6-19,42.6L984.2,1675.7L984.2,1675.7z"/>
						<polygon class="st8" points="1066.6,1606.4 1126.9,1606.4 1047.6,1649 						"/>
						<polygon class="st9" points="1126.9,1606.4 1158.1,1642.6 1240,1606.4 						"/>
						<polygon class="st10" points="1240,1675.7 1337.2,1675.7 1321.8,1642.6 						"/>
						<polygon class="st11" points="1240,1606.4 1158.1,1642.6 1240,1675.7 1321.8,1642.6 						"/>
						<polygon class="st0" points="1321.8,1642.6 1353.1,1606.4 1432.4,1649 1393.5,1675.7 						"/>
						<polygon class="st12" points="1337.2,1675.7 1321.8,1642.6 1393.5,1675.7 						"/>
						<polygon class="st13" points="1393.5,1675.7 1450.5,1675.7 1432.4,1649 						"/>
						<polygon class="st14" points="1450.5,1675.7 1495.8,1675.7 1432.4,1649 						"/>
						<path class="st15" d="M1495.8,1675.7c0,0-81.2-69.5-82.4-69.3c-1.2,0.2,19,42.6,19,42.6L1495.8,1675.7L1495.8,1675.7z"/>
						<polygon class="st0" points="1413.3,1606.4 1353.1,1606.4 1432.4,1649 						"/>
						<polygon class="st16" points="1353.1,1606.4 1321.8,1642.6 1240,1606.4 						"/>
					</g>
					<g>
						<polygon class="st17" points="1142.7,1675.7 1203.4,1825.2 1086.4,1675.7 						"/>
						<polygon class="st0" points="1086.4,1675.7 1168.1,1825.2 1240,1901.3 1203.4,1825.2 						"/>
						<polygon class="st8" points="1086.4,1675.7 1029.5,1675.7 1168.1,1825.2 						"/>
						<polygon class="st18" points="1240,1901.3 1168.1,1825.2 984.2,1675.7 						"/>
						<polygon class="st19" points="1029.5,1675.7 984.2,1675.7 1168.1,1825.2 						"/>
						<polygon class="st20" points="1240,1675.7 1203.4,1825.2 1240,1901.3 1276.5,1825.2 						"/>
						<polygon class="st11" points="1337.2,1675.7 1276.5,1825.2 1393.5,1675.7 						"/>
						<polygon class="st21" points="1393.5,1675.7 1311.9,1825.2 1240,1901.3 1276.5,1825.2 						"/>
						<polygon class="st22" points="1393.5,1675.7 1450.5,1675.7 1311.9,1825.2 						"/>
						<polygon class="st23" points="1240,1901.3 1311.9,1825.2 1495.8,1675.7 						"/>
						<polygon class="st24" points="1450.5,1675.7 1495.8,1675.7 1311.9,1825.2 						"/>
						<polygon class="st25" points="1337.2,1675.7 1276.5,1675.7 1276.5,1825.2 						"/>
						<polygon class="st2" points="1240,1675.7 1142.7,1675.7 1203.4,1825.2 						"/>
					</g>
					<g>
						<polygon class="st0" points="1029.5,1675.7 1142.7,1675.7 1126.9,1606.4 						"/>
						<polygon class="st26" points="1142.7,1675.7 1240,1675.7 1337.2,1675.7 1240,1606.4 						"/>
						<polygon class="st27" points="1413.3,1606.4 1450.5,1675.7 1495.8,1675.7 						"/>
						<polygon class="st26" points="1337.2,1675.7 1450.5,1675.7 1353.1,1606.4 						"/>
					</g>
					<path class="st28" d="M1450.5,1667.8H993.4c-5.6,4.8-9.2,7.8-9.2,7.8h511.6c0,0-3.6-3-9.2-7.8H1450.5L1450.5,1667.8z"/>
					
						<linearGradient id="SVGID_1_" gradientUnits="userSpaceOnUse" x1="1286.2384" y1="-1757.2622" x2="1329.2985" y2="-1787.3221" gradientTransform="matrix(1 0 0 -1 0 0)">
						<stop  offset="0" style="stop-color:#D6D6D6"/>
						<stop  offset="1" style="stop-color:#191919"/>
					</linearGradient>
					<polygon class="st29" points="1240,1901.3 1347.5,1675.7 1422,1675.7 					"/>
				</g>
				<polygon class="st30" points="1276.5,1675.7 1240,1675.7 1276.5,1825.2 				"/>
				<polygon class="st30" points="1240,1901.3 1240,1675.7 1203.4,1675.7 				"/>
				<polygon class="st31" points="1086.4,1667.8 1126.9,1606.4 1140.9,1667.8 				"/>
				<polygon class="st31" points="1413.3,1606.4 1353.1,1606.4 1445.2,1667.8 				"/>
			</g>
		</g>
	</g>
</g>
</svg>
