<?xml version="1.0" encoding="utf-8"?>
<!-- Generator: Adobe Illustrator 28.0.0, SVG Export Plug-In . SVG Version: 6.00 Build 0)  -->
<svg version="1.0" id="Layer_1" xmlns="http://www.w3.org/2000/svg" xmlns:xlink="http://www.w3.org/1999/xlink" x="0px" y="0px"
	 viewBox="0 0 3500 3500" style="enable-background:new 0 0 3500 3500;" xml:space="preserve">
<style type="text/css">
	.st0{fill:#FFFFFF;}
</style>
<g>
	<path class="st0" d="M1012.41,2393.34c-61.55-67.15-117.62-137.32-155.58-220.34c-33.2-72.6-65.85-145.45-85.34-223.16
		c-13.02-51.93-23.78-104.44-26.72-158.16c-0.11-2.06,0.33-4.33-0.37-6.16c-16.01-41.99-4.42-85.6-7.61-128.33
		c11.57-24.91,7.81-52.28,12.49-78.31c4.85-26.97,7.48-54.37,13.11-81.16c6.49-30.91,14.04-61.7,23.17-91.92
		c28.81-95.41,70.69-184.78,127.61-266.77c48.87-70.39,105.21-134.12,169.6-190.91c49.72-43.86,102.2-83.7,159.52-116.99
		c64.45-37.43,131.67-68.55,203.95-87.95c27.44-7.37,55.8-14.75,70.47-42.27c8.96-16.8,15.15-35.22,21.21-53.38
		c20.85-62.51,41.21-125.2,61.55-187.88c20.14-62.07,39.8-124.3,60.14-186.3c11.98-36.52,24.92-72.73,37.32-109.12
		c17.49-51.33,34.85-102.71,52.36-154.03c1.23-3.62,3.17-6.99,4.66-10.19c10.79,1.14,10.72,9.35,12.66,15.39
		c7.12,22.18,13.55,44.59,20.59,66.8c11.21,35.36,22.85,70.59,34.03,105.96c10.74,33.97,21.02,68.08,31.68,102.06
		c17.28,55.04,34.65,110.04,52.09,165.03c15.57,49.11,31.03,98.25,46.99,147.22c10.43,31.98,22.69,63.39,32.17,95.63
		c5.48,18.64,16.46,29.12,34.05,35.06c33.86,11.43,67.61,23.2,101.29,35.18c69.67,24.77,135.74,56.89,197.63,97.46
		c67.1,43.97,128.26,95.16,182.05,154.59c35.07,38.75,66.51,80.42,95.24,124.4c42.37,64.85,76.4,133.73,104.42,205.51
		c13.44,34.42,22.55,70.69,31.5,106.65c9.27,37.23,17.4,74.87,23.35,112.75c4.51,28.72,12.32,57.01,10.27,86.9
		c-2.02,29.5-0.4,59.24-0.45,88.87c-0.02,11.71-0.03,23.44-0.45,35.14c-0.37,10.12-0.09,19.81-5.96,29.66
		c-4.1,6.89-1.55,17.47-3.03,26.22c-10.98,65.09-23.03,130.03-44.48,192.61c-27.25,79.5-61.15,156.1-108.92,225.66
		c-28.81,41.95-59.52,82.59-89.75,123.54c-3.65,4.95-9.68,8.14-16.7,13.85c-9.09-29.91-17.11-56.32-26.09-85.89
		c-9.91,10.69-16.91,19.05-24.74,26.54c-30.81,29.45-60.56,60.22-93.22,87.48c-34.26,28.59-70.08,55.79-107.62,79.86
		c-55.04,35.29-113.45,64.85-176.23,84.28c-39.91,12.35-79.97,24.79-120.74,33.54c-30.01,6.44-60.96,9.48-91.6,13.3
		c-45.35,5.66-90.5,6.36-135.86,6.04c-14.36-0.1-28.7-2.46-43.06-3.57c-79.08-6.11-156.22-20.57-231.46-46.82
		c-65.34-22.8-127.36-52.1-185.34-89.13c-36.98-23.62-72.23-50.61-105.36-79.42c-37.84-32.92-72.51-69.49-108.37-104.66
		c-1.82-1.78-1.94-5.3-2.85-8c-2.1,0.96-4.21,1.92-6.31,2.88c-5.52,25.8-11.04,51.6-16.58,77.47c17.87,18.3,34.15,38.18,53.61,54.21
		c36.58,30.15,74.31,59.03,112.81,86.7c54.37,39.07,112.8,71.19,174.47,97.54c46.29,19.78,93.66,35.62,142.56,47.7
		c44.06,10.88,88.23,19.31,133.46,24.05c46.64,4.89,93.2,8.21,139.99,6.74c26.03-0.82,52.01-3.97,77.96-6.65
		c26.58-2.74,53.26-5.15,79.58-9.58c27.74-4.67,55.55-10.01,82.52-17.85c34.19-9.93,67.71-22.25,101.26-34.28
		c70.39-25.24,135.02-61.55,196.44-103.79c52.86-36.35,102.21-76.97,147.44-122.53c1.94-1.96,3.9-3.9,5.86-5.84
		c16.38-16.2,27.71-13.03,33.99,9.63c0.91,3.28,1.19,6.77,1.42,10.19c4.94,73.54,8.01,147.25,3.52,220.78
		c-2.12,34.75-4.13,69.68-9.72,104.51c-8.49,52.96-16.61,105.85-30.65,157.65c-22.76,83.94-54.67,163.98-97.87,239.79
		c-36.18,63.49-80.48,119.98-134.3,169.01c-43.4,39.54-90.74,74.06-143.54,99.86c-38.8,18.96-78.37,37.09-119.14,51.09
		c-34.21,11.75-70.84,16.24-106.07,25.27c-62.46,16.02-125.87,7.68-188.74,6.84c-30.18-0.4-60.51-10.16-90.25-17.75
		c-82.04-20.95-158.56-55.43-228.68-102.44c-52.59-35.26-100.17-76.77-141.69-125.47c-72.42-84.95-125.08-180.9-162.11-285.39
		c-15.78-44.52-28.24-90.65-37.24-137.01c-10.83-55.83-20.69-112.18-18.95-169.68c0.45-15-2.18-30.08-3.12-45.14
		c-0.43-6.86-0.5-13.79-0.17-20.65c1.09-22.63,2.11-45.26,3.76-67.85c2.66-36.28,5.58-72.56,8.94-108.78
		C1006.8,2409.52,1009.93,2402.34,1012.41,2393.34z M1052.59,2189.25c10.98-4.89,15.14,1.21,20.24,7.4
		c17.05,20.69,34.07,41.47,52.17,61.23c39.59,43.23,83.23,82.17,129.68,117.85c70.93,54.49,148.52,96.79,233.31,125.67
		c58.15,19.81,118.06,30.91,179.03,37.02c11.59,1.16,23.18,3.52,34.76,3.49c50.83-0.1,101.53,2,152.35-6.34
		c32.45-5.33,65.23-9.08,97.2-16.94c26.62-6.54,53.34-13.41,79.08-22.71c47.88-17.3,94.56-37.45,138.16-64.3
		c48.76-30.03,93.97-64.28,136.98-102.29c46.74-41.3,86.05-88.83,125.94-136.13c6.18-7.33,8.79-14.74,5.49-24.61
		c-5.65-16.9-9.93-34.24-15.1-51.31c-1.24-4.09-3.71-7.81-6.46-13.4c-5.34,7.65-9.42,13.12-13.13,18.84
		c-28.56,44-61.51,84.8-97.87,122.24c-29.6,30.47-62.41,58.17-95.89,84.43c-65.61,51.47-139.24,88.49-219.31,111.74
		c-33.55,9.74-67.87,17.4-102.29,23.39c-33.07,5.75-66.64,10.17-100.13,11.43c-34.93,1.31-70.02-2.12-105.05-3
		c-53.99-1.36-106.43-12.27-157.88-27.34c-107.49-31.5-201.65-86.93-283.72-162.88c-51.7-47.85-97.74-100.68-136.85-159.41
		c-5.08-7.63-11.17-14.59-18.62-24.22c-2.57,7.28-4.03,10.92-5.15,14.66c-5.15,17.12-10.28,34.25-15.25,51.42
		c-2.02,6.99-4.95,14.63-13.13,13.07c-5.81-1.11-12.37-5.96-15.64-11.04c-7.05-10.94-11.91-23.28-18.18-34.76
		c-31.34-57.36-59.91-115.77-77-179.37c-20.04-74.58-34.48-149.59-35.08-227.38c-0.51-67.05,3.2-133.42,18.27-198.69
		c15.34-66.44,37.27-130.9,66.49-192.57c34.66-73.15,78.54-140.4,134.41-199.26c35.56-37.46,73.07-72.74,115.09-103.29
		c56.92-41.38,115.57-79.35,182.57-102.39c17.1-5.88,28.5-15.85,33.34-33.29c6.19-22.31,12.5-44.59,18.81-67.03
		c-2.34-0.33-3.79-1.02-4.8-0.61c-61.31,24.55-122.12,50.3-179.1,83.94c-97.94,57.83-185.52,127.66-256.67,217.6
		c-60.36,76.31-106.77,159.91-140.21,250.91c-20.36,55.42-35.76,112.21-46.55,170.37c-8.68,46.78-13.34,93.87-14.48,141.26
		c-0.66,27.41,2.94,54.9,2.93,82.35c-0.02,52.07,11.27,102.57,23.54,152.35c13.79,55.98,34.85,109.96,59.58,162.34
		c29.15,61.75,63.84,120.16,103.65,175.57c2.06,2.86,5.41,4.8,8.13,7.14C1038.07,2243.29,1045.48,2215.71,1052.59,2189.25z
		 M1759.65,2215.82c19.76-0.12,51.35,0.82,82.41-7.87c27.65-7.73,56.45-11.76,83.53-20.98c47.04-16.03,90.99-38.78,131.26-68.42
		c41.37-30.45,77.62-66.09,107.3-107.8c34.03-47.84,59.87-99.65,75.96-156.81c10.32-36.64,16.98-73.78,20.96-111.06
		c6.32-59.24-1.28-118.25-17.21-175.53c-21.9-78.77-60.52-148.82-116.97-208.38c-34.28-36.17-73.97-65.28-116.78-90.98
		c-65.65-39.42-137.42-60.29-212.18-67.98c-58.63-6.03-117.72-2.47-175.82,13.69c-83.48,23.22-156.26,64.27-218.9,123.34
		c-55.32,52.17-97.11,113.89-125.26,184.74c-17.14,43.12-29.21,87.95-31.4,133.91c-2.32,48.55-3.57,97.33,5.89,146.05
		c7.78,40.07,17.43,79.37,34.7,115.96c43.9,93.04,109.44,167.49,197.3,221.88C1565.15,2189.58,1651.79,2218.77,1759.65,2215.82z
		 M1116.74,1956.23c6.46,8.62,11.5,13.88,14.88,20.05c49.12,89.86,105.94,174,184.08,241.5c27.5,23.76,56.65,46.09,87.18,65.76
		c51.69,33.29,108.01,56.81,167.77,72.26c42.09,10.88,84.68,19.25,127.91,20.48c45.29,1.29,90.73-1.07,136.05-3.06
		c46.94-2.05,92.08-13.35,136.83-27.59c81.41-25.92,153.04-68.54,216.69-124.59c58.27-51.31,105.74-112,146.23-178.07
		c17.21-28.09,33.07-57,48.56-83.82c-10.4-34.01-20.41-66.74-31.26-102.21c-3.74,7.29-6.5,11.94-8.58,16.88
		c-9.59,22.81-18.22,46.07-28.6,68.51c-37.91,81.95-87.01,155.66-156.05,215.41c-45.61,39.47-94.87,73.13-148.82,99.52
		c-44.5,21.76-91.04,37.9-140.16,47.29c-33.3,6.37-66.61,9.23-100.2,10.12c-14.99,0.4-30.17-3.93-45.08-3.07
		c-29.35,1.7-57.64-4.83-85.8-10.1c-65.12-12.2-127.76-32.07-186.29-64.52c-76.13-42.2-138.59-99.11-188.49-169.89
		c-43.89-62.26-76.67-130.27-100.47-202.61c-2-6.06-4.71-11.89-8.96-22.49c-6.88,22.53-11.33,40.45-17.86,57.58
		c-6.36,16.67-6.67,35.75-19.8,55.26c-5.31-10.27-9.83-16.2-11.58-22.86c-9.91-37.78-20.79-75.42-28.09-113.73
		c-5.63-29.54-7.94-59.95-8.99-90.07c-0.91-25.99,2.06-52.11,3.29-78.17c2.31-48.94,11.35-96.68,25.54-143.5
		c14.6-48.19,33.55-94.46,58.87-138.17c32.3-55.76,71.9-105.65,118.1-150.39c23.73-22.98,47.87-45.31,77.6-60.99
		c7.75-4.09,14.69-12.97,18.21-21.26c12.09-28.45,22.57-57.59,33.45-86.55c1.46-3.87,1.72-8.19,2.82-13.74
		c-54.8,27.38-102.78,60.96-146.86,99.36c-52.02,45.31-97.97,96.53-136.08,154.54c-24.28,36.95-44.29,75.98-62.39,116.19
		c-24.12,53.59-39.98,109.57-51.14,167.16c-4.73,24.39-7.77,48.76-9.27,73.49c-1.42,23.26-5,46.41-5.82,69.68
		c-0.55,15.68,1.45,31.54,3.32,47.2c4.08,34.05,5.99,68.69,13.98,101.84c9.79,40.6,23.82,80.32,38.16,119.64
		c7.64,20.95,19.81,40.25,29.93,60.3c1.67-0.06,3.35-0.13,5.02-0.19C1090.92,2015.3,1098.81,1986.65,1116.74,1956.23z
		 M2474.09,2268.98c192.35-227.39,258.26-598.14,129.63-907.65c-109.95-264.58-303.26-440.54-577.52-534.55
		c9.82,26.33,18.44,48.7,26.47,71.27c4.44,12.49,11.76,20.15,24.91,24.93c102.75,37.36,188.28,101.82,267.23,175.21
		c28.51,26.5,53.05,57.66,77.05,88.52c59.94,77.12,106.65,161.79,137.15,254.8c8.53,26.02,14.36,53.02,20.15,79.84
		c5.62,26.05,10.13,52.37,14.13,78.72c2.77,18.29,4.87,36.8,5.49,55.28c1.26,37.77,3.44,75.7,1.23,113.34
		c-1.96,33.4-9.11,66.51-14.37,99.68c-6.8,42.91-17.19,85.19-34.5,124.89c-23.88,54.77-50.68,108.28-76.56,162.17
		c-5.9,12.28-13.14,23.92-21.41,38.82C2459.27,2216.05,2466.26,2241,2474.09,2268.98z M2423.86,2050.64
		c5.27-9.73,9-16.09,12.24-22.7c20.94-42.64,37.18-86.96,48.78-133.09c11.41-45.4,21.28-90.97,21.54-138.02
		c0.21-37.2,1.13-74.48-0.79-111.6c-1.34-25.92-6.26-51.73-10.86-77.36c-3.02-16.8-8.66-33.11-12.57-49.77
		c-16.16-68.83-44.02-132.89-79.46-193.74c-37.61-64.57-84.01-121.99-138.88-173.02c-36-33.48-75.1-62.31-116.42-88.42
		c-13.73-8.67-28.47-15.73-46.52-25.58c5.49,14.72,9.8,25.23,13.34,35.98c14.29,43.41,35.19,82.03,74.65,108.22
		c10.26,6.81,19.63,15.17,28.56,23.72c36.33,34.76,71.16,70.73,100.36,112.09c41.71,59.07,71.52,123.77,92.45,192.45
		c14.02,46.01,21.85,93.6,25.87,141.66c1.32,15.72,4.36,31.5,3.78,47.14c-1,26.69-4.75,53.27-6.42,79.96
		c-3.37,54.06-18.24,105.35-35.94,156.08c-4.86,13.93-5.52,28.09-0.21,42.36C2405.94,2000.03,2414.05,2023.25,2423.86,2050.64z
		 M1164.12,1760.64c9.82-24.63,139.59-419.01,139.99-438.9C1207.95,1418.53,1140.64,1607.28,1164.12,1760.64z M2334.58,1745.1
		c32.54-104.3-41.32-334.52-133.37-412.73C2246.09,1471.23,2290.2,1607.74,2334.58,1745.1z"/>
	<path class="st0" d="M1752.88,2150.39c-4.13,0-8.27-0.09-12.4,0.01c-84.61,2.16-161.84-22.66-231.78-68.3
		c-78.79-51.41-135.08-122.17-168.36-210.69c-16.76-44.59-26.37-90.29-30.2-138.07c-9.03-112.69,23.75-212.11,92.1-299.94
		c55.36-71.13,126.65-120.91,213.13-149.04c40.34-13.12,81.06-19.19,123.21-20.06c44.28-0.91,88.31,1.72,130.77,13.68
		c31.54,8.89,62.54,21.13,92.07,35.43c42.96,20.8,81.04,49.24,113.79,84.37c62.59,67.15,103.49,145.05,117.15,236.44
		c9.68,64.75,7.31,129.33-9.74,192.29c-17.39,64.22-47.02,122.74-90.71,174.02c-44.7,52.46-98.89,91.71-161.93,117.77
		C1873.66,2141.6,1814.66,2154.88,1752.88,2150.39z M1410.7,1708.93c-4.13,58.99,10.11,114.17,39.6,165.64
		c61.83,107.9,154.73,166.71,278.82,175.3c42.13,2.92,83.73-2.32,124.65-12.69c61.7-15.63,114.69-46.45,157.3-93.63
		c39.03-43.21,63.65-94.22,76.24-151.12c17.36-78.49,16.04-155.79-16.01-230.6c-32.56-76.01-87.79-130.54-162.15-165.96
		c-35.68-16.99-73.24-29.03-112.44-32.78c-32.03-3.06-64.96-5.18-96.66-1.13c-45.12,5.75-87.43,22.53-126.76,46.54
		c-57.94,35.36-102.69,82.45-132.42,143.54C1416.86,1601.42,1409,1654.05,1410.7,1708.93z"/>
	<path class="st0" d="M1472.07,1708.21c-0.34-59.11,11.84-109.31,40.39-154.55c32.19-51,76.96-86.96,133.79-108.22
		c37.91-14.18,76.74-21.53,117.07-19.88c62.81,2.58,119.61,21.5,169.75,60.76c42.82,33.53,69.93,77.15,87.71,127.32
		c9.7,27.38,13.97,56.66,13.19,85.05c-1.96,72.04-18.6,140.36-66.88,197.06c-27.68,32.5-62.19,55.83-101.6,72.17
		c-34.01,14.11-69.93,19.72-106.08,23.54c-13.42,1.42-27.35-1.24-40.97-2.76c-57.11-6.35-106.43-29.57-150.01-67.02
		c-38.2-32.82-63.49-74.12-80.65-120.16C1476.07,1770.1,1470.28,1736.61,1472.07,1708.21z M1753.44,1525.18
		c-104.76-1.18-184.4,77.16-184.64,187.1c-0.21,98.64,89.93,175.73,186.36,177.48c93.56,1.7,180.58-89.02,181.78-179.74
		C1938.3,1609.03,1847.68,1520.2,1753.44,1525.18z"/>
	<path class="st0" d="M1748.6,1590.39c56.66-2.09,92.79,24.1,116.39,70.46c1.56,3.06,3.34,6.25,3.83,9.55
		c10.63,71.21-13.54,127.84-88.7,150.68c-22.52,6.84-46.29,2.72-68.68-6.27c-35.42-14.23-61.91-37.38-76.85-73.18
		c-7.84-18.8-5.63-37.91-2.82-56.88c1.28-8.64,5.92-16.81,9.26-25.1C1658.76,1615.81,1696.13,1586.13,1748.6,1590.39z"/>
</g>
</svg>
