<?xml version="1.0" encoding="utf-8"?>
<!-- Generator: Adobe Illustrator 27.7.0, SVG Export Plug-In . SVG Version: 6.00 Build 0)  -->
<svg version="1.1" id="Layer_1" xmlns="http://www.w3.org/2000/svg" xmlns:xlink="http://www.w3.org/1999/xlink" x="0px" y="0px"
	 viewBox="0 0 3500 3500" style="enable-background:new 0 0 3500 3500;" xml:space="preserve">
<style type="text/css">
	.st0{fill:#A81AC1;}
	.st1{fill:#FFFFFF;}
	.st2{fill:#E8E8E8;}
	.st3{fill:#9E9D9E;}
	.st4{fill:#D9D1DB;}
	.st5{fill:#A3A3A3;}
	.st6{fill:#E0E0E0;}
	.st7{fill:#A8ACB2;}
	.st8{fill:#EAEAEA;}
	.st9{fill:#BDC3C9;}
	.st10{fill:#C6C4C6;}
	.st11{fill:#E5E5E5;}
	.st12{fill:#A5A5A5;}
	.st13{fill:#BACECD;}
	.st14{fill:#D9D7DB;}
	.st15{fill:#DBD5E0;}
	.st16{fill:#9AA1A8;}
	.st17{fill:#A1A7AF;}
	.st18{fill:#AFAFAF;}
	.st19{fill:#959AA0;}
	.st20{fill:#D8D8D8;}
	.st21{fill:#ADACAD;}
	.st22{fill:#E8DFEA;}
	.st23{fill:#B2B2B2;}
	.st24{fill:#939393;}
	.st25{fill:#A7A7A8;}
	.st26{fill:#C1C1C1;}
	.st27{fill:#7F7F7F;}
	.st28{fill:#DDDDDD;}
	.st29{fill:url(#SVGID_1_);}
	.st30{fill:#F4F4F4;}
	.st31{fill:#E6E7E8;}
</style>
<g>
	<g id="Objects">
		<g>
			<polygon class="st0" points="3331.9,1897.9 3331.9,1789.5 3236.6,1789.5 3236.6,1716.7 3331.9,1716.7 3331.9,1608.2 
				3404.7,1608.2 3404.7,1716.7 3500,1716.7 3500,1789.5 3404.7,1789.5 3404.7,1897.9 			"/>
			<g>
				<path class="st1" d="M73.9,1878.1c-23-13-41-30.8-54.2-53.6C6.6,1801.8,0,1776.7,0,1749.1s6.4-52.9,19.3-75.7
					c13-22.7,30.6-40.6,53.3-53.6c22.5-13,47.6-19.3,75.4-19.3c25.3,0,48.9,5.7,71,17.4c21.9,11.7,40.4,28.5,55.5,50.4l-45.3,32.3
					c-20.6-31.2-47.8-47-81.2-47c-26.1,0-47.6,8.9-64.2,26.8c-16.8,17.8-25.1,40.8-25.1,68.6s8.5,50.8,25.7,68.6
					c17,17.8,38.7,26.8,65,26.8c22.7,0,41-5.7,55.2-17c14-11.3,22.7-25.3,26.4-41.9h-87.3v-49.5h145.3c0.6,6.2,1.1,14,1.1,23.2
					c0.2,73.9-52.5,138.5-140.7,138.3C122,1897.6,96.7,1891,73.9,1878.1L73.9,1878.1z"/>
				<path class="st1" d="M341.2,1893.4v-288.6h205.3v49.7H398.6v66.5h128.3v49.7H398.6v73.1h151.1v49.5H341.2L341.2,1893.4z"/>
				<path class="st1" d="M602.8,1893.4v-288.6h60.8l93.1,192.1l92.9-192.1h60.8v288.6h-57.4v-177L775.1,1874h-37.2l-77.8-157.7v177
					L602.8,1893.4L602.8,1893.4z"/>
			</g>
			<rect x="1525.4" y="1615.4" class="st0" width="13.6" height="279.1"/>
			<path class="st0" d="M2363.8,1894.1c-4.3,0-6.1-1.2-8.4-5.5c-6.7-12.6-13.6-25.4-20.4-37.7c-6.5-11.9-13.3-24.3-19.8-36.5
				c-2.5-4.8-6.6-10.3-15.6-10.3c-0.4,0-0.8,0-1.2,0c-3.6,0.2-7.6,0.3-12.5,0.3c-3.1,0-6.1,0-9.3-0.1c-3.4,0-6.8-0.1-10.4-0.1h-4.8
				v89h-66.4v-281.7c0.7-0.1,1.3-0.2,1.9-0.2c12.1,0,24.1-0.1,36.2-0.2c12.5-0.1,25-0.2,37.5-0.2c20.1,0,36.6,0.2,51.8,0.7
				c33.4,1,60,14.1,79.1,38.8c14.9,19.4,21.7,47.6,17.7,73.7c-2.7,17.4-11.3,41.8-37,59.7c-1.5,1-2.9,2.1-4.6,3.4
				c-0.8,0.6-1.7,1.3-2.6,2l-3.5,2.6l62.1,101.9c-0.7,0-1.4,0.1-2.1,0.1h-4.9c-5.4,0-10.9,0-16.3,0c-5.4,0-10.9,0-16.3,0
				c-12,0-21.2,0.1-30,0.3L2363.8,1894.1L2363.8,1894.1z M2270,1749.4c4.3,0,8.5,0.1,12.7,0.2c4.2,0.1,8.4,0.2,12.6,0.2
				c9.8,0,17.4-0.6,24.5-1.8c20.4-3.6,33.1-18.8,33.1-39.8c0-21.4-13.4-37.6-32.6-39.5c-6.2-0.6-12.9-0.9-21.1-0.9
				c-5.4,0-10.9,0.1-16.3,0.2c-5.4,0.1-10.9,0.2-16.4,0.2h-4.8v81.1l4.8-0.1C2267.8,1749.4,2268.9,1749.4,2270,1749.4L2270,1749.4z"
				/>
			<path class="st0" d="M3017.9,1899.4c-14.6,0-29.9-2-45.7-5.9c-19.2-4.8-34.4-13.1-46.5-25.4c-14.7-14.9-22.4-33.6-23.4-57.2h64.8
				c6.9,21.1,19.5,29.8,42.7,29.9h0.2c11.5,0,21.5-0.9,30.5-2.6c5.7-1.1,12-4.8,16.9-9.7c5.5-5.6,8-13.1,6.8-20.5
				c-1.2-7.5-5.9-13.9-12.9-17.6c-5.4-2.8-11.8-5-18.4-6.1c-7-1.2-14.1-2.2-21-3.2c-9-1.3-18.3-2.6-27.3-4.4
				c-19.9-4.1-36.2-10.7-49.7-20.2c-19-13.3-30.6-38.1-30.3-64.6c0.3-26.7,12.5-50,33.5-64.1c21.1-14.2,46.1-21,76.1-21h2.2
				c26,0.3,47.8,6,66.5,17.6c24.4,15.1,37.8,36.8,40.9,66.3c0.1,0.5,0.1,1,0.1,1.6h-64.4c-1.7-8.7-5.7-15.2-12.1-19.8
				c-7.8-5.6-16.7-8.5-26.6-8.5c-0.6,0-1.2,0-1.9,0c-10,0.4-18.1,1.2-25.5,2.7c-4.2,0.8-8.8,3.3-13.4,7.3
				c-6.9,5.9-10.3,14.6-9.1,23.1c1.2,8.1,6.4,14.7,14.1,18.1c9.2,4,20.3,6.9,32.9,8.5c19.6,2.5,37.1,5.1,54.1,10.5
				c13.9,4.4,26.4,11.5,37.4,21.1c14.5,12.6,23.1,35,22.6,58.5c-0.6,24.2-10.6,45.2-28.2,59.1c-15.9,12.5-35,20.3-60.2,24.6
				C3035.4,1898.7,3026.7,1899.5,3017.9,1899.4L3017.9,1899.4z"/>
			<path class="st0" d="M1783.6,1899.4c-19,0-38.1-3.3-56.7-9.8c-34.7-12.2-56.9-42.2-58.2-78.7h65.6c2.7,15.2,12.4,24.7,29.1,28.2
				c7.2,1.5,14.3,2.3,21.1,2.3c8.2,0,16.2-1.1,23.9-3.3c5.1-1.4,10.1-4.1,14.1-7.5c6.7-5.7,10-14.1,8.8-22.4
				c-1.1-8-6.1-14.6-13.7-18.1c-9.2-4.2-19.4-6.2-28.2-7.6c-4.5-0.7-9-1.4-13.6-2c-15.4-2.2-30-4.2-44.2-9.4
				c-11-4-23.7-9.4-34.4-18.7c-15.2-13.1-23.4-30.5-25.3-53.2c-2.9-36.1,15.2-66,48.7-80.1c21-8.8,41.7-13.3,61.5-13.3
				c23.3,0,46,6.2,67.5,18.5c25.1,14.3,38.5,36.4,40.9,67.4h-64.1c-5.1-17.2-16.5-26.2-34.8-27.5c-4.5-0.3-8.3-0.6-12.1-0.6
				c-9.4,0-17,1.4-23.8,4.6c-10.8,5-16.5,12.4-17.4,22.7c-1,12,4.2,20.9,14.1,24.3c10.9,3.8,22.4,6.3,32.3,8.3
				c6.9,1.4,13.9,2.6,20.6,3.8c10.6,1.8,21.7,3.7,32.1,6.4c19.2,5,34.4,14.5,45.3,28.2c13.2,16.6,18.9,37.5,16.1,59
				c-2.9,22-14.8,42.1-32.7,55.3c-14,10.3-31.4,16.9-54.6,20.8C1802.3,1898.6,1792.9,1899.4,1783.6,1899.4L1783.6,1899.4z"/>
			<path class="st0" d="M2678.1,1893.2v-281.1h171.6v57.8h-105v53.7h97.2c0.2,13.5,0.2,26.5,0.1,40.3c0,5.5,0,11,0,16.6h-97.5v55.1
				h109.4v57.6H2678.1L2678.1,1893.2z"/>
			<polygon class="st0" points="1955.8,1893.3 1955.8,1612 2127,1612 2127,1669.6 2022.6,1669.6 2022.6,1723.9 2119.1,1723.9 
				2119.1,1780.3 2022.6,1780.3 2022.6,1835.4 2130.6,1835.4 2130.6,1893.3 			"/>
			<polygon class="st0" points="2476.8,1893.3 2476.8,1842.6 2512,1842.6 2512,1663.7 2480.2,1663.7 2480.2,1612 2613.2,1612 
				2613.2,1663.2 2580.2,1663.2 2580.2,1842.1 2616.4,1842.1 2616.4,1893.3 			"/>
			<g>
				<g>
					<g>
						<polygon class="st2" points="1217.1,1676.2 1121.7,1676.2 1136.8,1643.7 						"/>
						<polygon class="st3" points="1136.8,1643.7 1106.1,1608.1 1028.3,1649.9 1066.4,1676.2 						"/>
						<polygon class="st4" points="1121.7,1676.2 1136.8,1643.7 1066.4,1676.2 						"/>
						<polygon class="st5" points="1066.4,1676.2 1010.5,1676.2 1028.3,1649.9 						"/>
						<polygon class="st6" points="1010.5,1676.2 966,1676.2 1028.3,1649.9 						"/>
						<path class="st7" d="M966,1676.2c0,0,79.8-68.2,80.9-68c1.2,0.2-18.7,41.8-18.7,41.8L966,1676.2L966,1676.2z"/>
						<polygon class="st8" points="1046.9,1608.1 1106.1,1608.1 1028.3,1649.9 						"/>
						<polygon class="st9" points="1106.1,1608.1 1136.8,1643.7 1217.1,1608.1 						"/>
						<polygon class="st10" points="1217.1,1676.2 1312.6,1676.2 1297.4,1643.7 						"/>
						<polygon class="st11" points="1217.1,1608.1 1136.8,1643.7 1217.1,1676.2 1297.4,1643.7 						"/>
						<polygon class="st1" points="1297.4,1643.7 1328.1,1608.1 1405.9,1649.9 1367.8,1676.2 						"/>
						<polygon class="st12" points="1312.6,1676.2 1297.4,1643.7 1367.8,1676.2 						"/>
						<polygon class="st13" points="1367.8,1676.2 1423.7,1676.2 1405.9,1649.9 						"/>
						<polygon class="st14" points="1423.7,1676.2 1468.2,1676.2 1405.9,1649.9 						"/>
						<path class="st15" d="M1468.2,1676.2c0,0-79.8-68.2-80.9-68c-1.2,0.2,18.7,41.8,18.7,41.8L1468.2,1676.2L1468.2,1676.2z"/>
						<polygon class="st1" points="1387.3,1608.1 1328.1,1608.1 1405.9,1649.9 						"/>
						<polygon class="st16" points="1328.1,1608.1 1297.4,1643.7 1217.1,1608.1 						"/>
					</g>
					<g>
						<polygon class="st17" points="1121.7,1676.2 1181.2,1822.9 1066.4,1676.2 						"/>
						<polygon class="st1" points="1066.4,1676.2 1146.6,1822.9 1217.1,1897.6 1181.2,1822.9 						"/>
						<polygon class="st8" points="1066.4,1676.2 1010.5,1676.2 1146.6,1822.9 						"/>
						<polygon class="st18" points="1217.1,1897.6 1146.6,1822.9 966,1676.2 						"/>
						<polygon class="st19" points="1010.5,1676.2 966,1676.2 1146.6,1822.9 						"/>
						<polygon class="st20" points="1217.1,1676.2 1181.2,1822.9 1217.1,1897.6 1253,1822.9 						"/>
						<polygon class="st11" points="1312.6,1676.2 1253,1822.9 1367.8,1676.2 						"/>
						<polygon class="st21" points="1367.8,1676.2 1287.7,1822.9 1217.1,1897.6 1253,1822.9 						"/>
						<polygon class="st22" points="1367.8,1676.2 1423.7,1676.2 1287.7,1822.9 						"/>
						<polygon class="st23" points="1217.1,1897.6 1287.7,1822.9 1468.2,1676.2 						"/>
						<polygon class="st24" points="1423.7,1676.2 1468.2,1676.2 1287.7,1822.9 						"/>
						<polygon class="st25" points="1312.6,1676.2 1253,1676.2 1253,1822.9 						"/>
						<polygon class="st2" points="1217.1,1676.2 1121.7,1676.2 1181.2,1822.9 						"/>
					</g>
					<g>
						<polygon class="st1" points="1010.5,1676.2 1121.7,1676.2 1106.1,1608.1 						"/>
						<polygon class="st26" points="1121.7,1676.2 1217.1,1676.2 1312.6,1676.2 1217.1,1608.1 						"/>
						<polygon class="st27" points="1387.3,1608.1 1423.7,1676.2 1468.2,1676.2 						"/>
						<polygon class="st26" points="1312.6,1676.2 1423.7,1676.2 1328.1,1608.1 						"/>
					</g>
					<path class="st28" d="M1423.7,1668.4H975c-5.5,4.7-9,7.7-9,7.7h502.2c0,0-3.5-3-9-7.7H1423.7z"/>
					
						<linearGradient id="SVGID_1_" gradientUnits="userSpaceOnUse" x1="1262.4996" y1="-1756.2104" x2="1304.7596" y2="-1785.7104" gradientTransform="matrix(1 0 0 -1 0 0)">
						<stop  offset="0" style="stop-color:#D6D6D6"/>
						<stop  offset="1" style="stop-color:#191919"/>
					</linearGradient>
					<polygon class="st29" points="1217.1,1897.6 1322.6,1676.2 1395.8,1676.2 					"/>
				</g>
				<polygon class="st30" points="1253,1676.2 1217.1,1676.2 1253,1822.9 				"/>
				<polygon class="st30" points="1217.1,1897.6 1217.1,1676.2 1181.2,1676.2 				"/>
				<polygon class="st31" points="1066.4,1668.4 1106.1,1608.1 1119.9,1668.4 				"/>
				<polygon class="st31" points="1387.3,1608.1 1328.1,1608.1 1418.5,1668.4 				"/>
			</g>
		</g>
	</g>
</g>
</svg>
