<?xml version="1.0" encoding="utf-8"?>
<!-- Generator: Adobe Illustrator 27.7.0, SVG Export Plug-In . SVG Version: 6.00 Build 0)  -->
<svg version="1.1" id="Layer_1" xmlns="http://www.w3.org/2000/svg" xmlns:xlink="http://www.w3.org/1999/xlink" x="0px" y="0px"
	 viewBox="0 0 3500 3500" style="enable-background:new 0 0 3500 3500;" xml:space="preserve">
<style type="text/css">
	.st0{fill:#92EDFF;}
	.st1{fill:#FFFFFF;}
</style>
<path class="st0" d="M2651.6,1417.3c0-158.3,0.7-316.6-0.6-474.9c-0.2-29.6,8-40.1,38.7-39.7c128.9,1.8,257.9,0,386.9,2.3
	c57.7,1,117.2,0.7,172.3,14.8c104.5,26.8,174.7,99.2,212.1,198.9c44.7,119.1,26,233.2-55.1,330c-32.9,39.3-81.9,68.2-128.6,92
	c-33.5,17.1-75.3,18-113.4,25.8c-14.5,2.9-21.7,6-7.3,20.3c94.9,93.8,189.5,187.8,283.5,282.4c14.4,14.5,25.6,32.3,38.3,48.6
	c-19.5,2.5-38.9,7-58.4,7.2c-83.2,0.8-166.4,0.9-249.5-0.2c-13-0.2-29.2-4.3-38.3-12.6c-39.6-36.1-77.3-74.3-115.3-112.2
	c-29.3-29.2-57.6-59.3-87-88.3c-5.5-5.4-14-7.8-21.1-11.6c-3.3,9.4-9.5,18.9-9.3,28.2c1.5,55.6,4.2,111.1,7.2,166.6
	c1.4,26.1-8.9,36.4-35.7,35.8c-61-1.4-122.1-1.3-183.1-0.4c-27.5,0.4-36.8-10.7-36.6-38c0.9-158.3,0.5-316.6,0.5-474.9
	L2651.6,1417.3z M3033.9,1145c-32.7,0-65.5,0.7-98.2-0.3c-20-0.6-29.3,6.4-28.9,27.4c0.8,44.2-1.1,88.5,1.4,132.5
	c0.5,8.9,15.2,24,23.8,24.3c58.3,2.1,116.8,2.7,175.1,0.4c53.7-2.1,117.8-43.3,105.4-105.6c-2.7-13.7-11.3-28.8-21.9-37.9
	c-18.5-15.9-39.1-34.4-61.6-39.4c-30.4-6.7-63.3-1.7-95.2-1.6L3033.9,1145z"/>
<path class="st0" d="M0.2,1409C-1.9,1122.9,225,929,448.4,905c350.9-37.8,571.3,239.9,578.1,481.1c9.2,326.1-227.7,539-509.1,543.4
	C231.3,1934-7.2,1705.2,0.2,1409z M512.3,1669.9c138.1,13.1,265.8-130,260.4-265.3c-5.2-131-130.1-261.7-261.1-252.9
	c-137.4,9.3-267.4,111.5-259.2,284.1C257.6,1545.9,368,1681.6,512.3,1669.9L512.3,1669.9z"/>
<path class="st0" d="M2289.9,1411.8c0-157.3,0.6-314.7-0.5-472c-0.2-28.9,7.1-41.6,38.6-40.7c68,2.1,136.2,1.3,204.3,0.9
	c31.9-0.2,47.7,10,47.6,46.4c-1.1,315.6-0.9,631.1-0.2,946.7c0,29.3-10.9,38.7-39.2,38.1c-70.7-1.5-141.5-1.5-212.2-0.6
	c-28,0.3-39-9.5-38.9-38.8C2290.5,1731.8,2289.9,1571.8,2289.9,1411.8L2289.9,1411.8z"/>
<path class="st0" d="M1722.2,1464.7l539.1-561.2l-22.4-2l-316.8-1h-37.2l-361.6,362.3c-72-73.1-120-121.8-120-121.8H998l324.1,323.3
	l-466.7,467.6h417.8l253.4-263.7l262,261.3c0,0,397.8,0.8,394,0c-2.1-0.4-246-247.5-460.4-464.9L1722.2,1464.7z"/>
<polygon class="st1" points="3386.4,2022.4 3256.4,2450.6 3122.2,2022.4 3073.3,2022.4 3006,2022.4 2651.7,2022.4 2651.7,2120.3 
	2809.2,2120.3 2809.2,2601 2916.3,2601 2916.3,2120.3 3038.1,2120.3 3195.6,2601 3310,2601 3500,2022.4 "/>
</svg>
