<?xml version="1.0" encoding="utf-8"?>
<!-- Generator: Adobe Illustrator 27.7.0, SVG Export Plug-In . SVG Version: 6.00 Build 0)  -->
<svg version="1.1" id="Layer_1" xmlns="http://www.w3.org/2000/svg" xmlns:xlink="http://www.w3.org/1999/xlink" x="0px" y="0px"
	 viewBox="0 0 3500 3500" style="enable-background:new 0 0 3500 3500;" xml:space="preserve">
<style type="text/css">
	.st0{fill:#0586BB;}
	.st1{fill:#CE202B;}
	.st2{fill:#FFFFFF;}
</style>
<g>
	<path class="st0" d="M219.1,2233.1l5.4,231.7c0,28.7-9,53.9-26.9,75.4c-21.6,25.1-53.9,37.7-93.4,37.7c-16.2,0-30.5-1.8-44.9-7.2
		c-12.6-5.4-23.3-12.6-32.3-21.6c-9-9-16.2-19.8-19.8-32.3c-5.4-12.6-7.2-26.9-7.2-44.9c0-19.8,3.6-41.3,12.6-64.6l30.5,9
		c-7.2,19.8-10.8,37.7-10.8,53.9c0,10.8,1.8,19.8,5.4,28.7s9,16.2,14.4,21.6c5.4,7.2,14.4,12.6,23.3,16.2c9,3.6,19.8,5.4,30.5,5.4
		c12.6,0,23.3-1.8,32.3-5.4c10.8-3.6,19.8-7.2,26.9-14.4c7.2-5.4,12.6-12.6,18-21.6c3.6-9,7.2-18,7.2-28.7l-9-238.8L219.1,2233.1
		L219.1,2233.1z"/>
	<path class="st0" d="M357.4,2498.9h-25.1c-46.7,0-70-26.9-70-82.6v-183.2h39.5v179.6c0,16.2,1.8,26.9,7.2,34.1
		c5.4,9,16.2,12.6,30.5,12.6c109.5,0,219.1,0,326.8,0h1.8c14.4,0,23.3-3.6,26.9-9c1.8-3.6,3.6-12.6,3.6-28.7v-48.5h35.9v37.7
		c0,19.8,3.6,32.3,10.8,39.5c5.4,5.4,16.2,9,32.3,9h3.6l0,0c106,0,211.9,0,317.9,0c16.2,0,23.3-7.2,23.3-21.6v-61.1h34.1v18
		c0,44.9,12.6,68.2,35.9,68.2c10.8,0,18-7.2,18-23.4v-61.1h32.3v18c0,44.9,12.6,68.2,37.7,68.2c12.6,0,18-7.2,18-23.4v-62.9h32.3
		v37.7c0,30.5,12.6,44.9,35.9,44.9c64.7,0,91.6,0,156.2,0c18,0,25.1-5.4,25.1-18c0-5.4-1.8-10.8-5.4-18l-21.6-37.7l30.5-21.6
		c12.6,21.6,19.8,35.9,21.6,41.3c7.2,14.4,10.8,26.9,10.8,35.9c0,14.4-3.6,26.9-12.6,37.7c-10.8,12.6-26.9,19.8-46.7,19.8
		c-61.1,0-84.4,0-143.7,0h-7.2c-9,0-19.8-1.8-28.7-7.2c-10.8-5.4-18-10.8-21.6-19.8c-10.8,19.8-25.1,28.7-44.9,28.7
		s-34.1-9-44.9-28.7c-10.8,19.8-25.1,28.7-41.3,28.7c-21.6,0-37.7-9-46.7-28.7c-9,18-23.3,26.9-43.1,26.9c-106,0-213.7,0-319.7,0
		h-5.4l0,0c-23.3,0-41.3-9-50.3-26.9c-10.8,18-26.9,26.9-46.7,26.9C569.3,2498.9,463.3,2498.9,357.4,2498.9L357.4,2498.9z
		 M1556.9,2331.8H1521v-35.9h35.9V2331.8L1556.9,2331.8z M1221.1,2331.8h-35.9v-35.9h35.9V2331.8L1221.1,2331.8z M1246.3,2285.1
		h-35.9v-35.9h35.9V2285.1L1246.3,2285.1z M1271.4,2331.8h-35.9v-35.9h35.9V2331.8L1271.4,2331.8z M734.5,2331.8h-35.9v-35.9h35.9
		V2331.8L734.5,2331.8z"/>
	<path class="st0" d="M3424.1,2441.4c0,14.4-3.6,26.9-12.6,37.7c-10.8,12.6-26.9,19.8-46.7,19.8c-163.4,0-312,0-475.4,0l0,0l0,0
		c-23.4,0-41.3-9-50.3-26.9c-10.8,18-26.9,26.9-46.7,26.9c-158,0-317.9,0-475.9,0l0,0l0,0c-23.4,0-41.3-9-50.3-26.9
		c-10.8,18-26.9,26.9-46.7,26.9c-111.3,0-280.1,0-391.5,0c-21.6,0-37.7-7.2-50.3-23.4c-1.8,9-5.4,19.8-14.4,30.5
		c-23.3,35.9-77.2,75.4-158,116.7l-18-32.3c75.4-39.5,123.9-75.4,147.2-109.5c7.2-9,10.8-19.8,10.8-26.9c0-9-1.8-16.2-7.2-26.9
		l-30.5-41.3l32.3-19.8l26.9,52.1c14.4,26.9,32.3,39.5,57.5,39.5c105.9,0,271.2,0,377.1,0h3.6c14.4,0,23.4-3.6,26.9-9
		c1.8-3.6,3.6-12.6,3.6-28.7v-48.5h35.9v37.7c0,19.8,3.6,32.3,10.8,39.5c5.4,5.4,16.2,9,32.3,9h3.6l0,0c152.6,0,305.3,0,457.9,0h3.6
		c14.4,0,23.4-3.6,26.9-9c1.8-3.6,3.6-12.6,3.6-28.7v-48.5h35.9v37.7c0,19.8,3.6,32.3,10.8,39.5c5.4,5.4,16.2,9,32.3,9h3.6l0,0
		c159.8,0,308.4,0,468.2,0c18,0,25.1-5.4,25.1-18c0-5.4-1.8-10.8-5.4-18l-21.6-37.7l30.5-21.6c12.6,21.6,19.8,35.9,21.6,41.3
		C3420.5,2419.8,3424.1,2430.6,3424.1,2441.4L3424.1,2441.4z M2248.3,2342.6h-35.9v-35.9h35.9V2342.6L2248.3,2342.6z M2298.6,2342.6
		h-35.9v-35.9h35.9V2342.6L2298.6,2342.6z M2848.1,2331.8h-35.9v-35.9h35.9V2331.8L2848.1,2331.8z M3373.8,2574.3h-35.9v-35.9h35.9
		V2574.3L3373.8,2574.3z M3422.3,2574.3h-35.9v-35.9h35.9V2574.3L3422.3,2574.3z"/>
	<polygon class="st0" points="3460,2498.9 3497.7,2498.9 3497.7,2233.1 3460,2233.1 	"/>
	<path class="st1" d="M1565.9,877.2H12.6c-3.6,0-7.2,3.6-7.2,7.2v1210.4c0,3.6,3.6,7.2,7.2,7.2h1553.4c3.6,0,7.2-3.6,7.2-7.2V884.4
		C1573.1,880.8,1569.5,877.2,1565.9,877.2L1565.9,877.2z"/>
	<path class="st0" d="M1625.2,877.2h1867.6c3.6,0,7.2,3.6,7.2,7.2v1210.4c0,3.6-3.6,7.2-7.2,7.2H1625.2c-3.6,0-7.2-3.6-7.2-7.2
		V884.4C1618,880.8,1621.6,877.2,1625.2,877.2L1625.2,877.2z"/>
	<path class="st2" d="M1522.8,1764.4v-553.1c0-5.4,3.6-9,9-9h134.7c3.6,1.8,5.4,3.6,5.4,7.2v553.1c0,5.4-3.6,9-9,9h-134.7
		C1524.6,1771.6,1522.8,1769.8,1522.8,1764.4L1522.8,1764.4z"/>
	<path class="st2" d="M1736.5,1766.2v-553.1c0-5.4,3.6-9,9-9H1979c32.3,0,61.1,5.4,88,12.6c25.1,9,46.7,21.6,64.6,37.7
		s30.5,35.9,39.5,59.3c9,21.6,14.4,46.7,14.4,73.6c0,35.9-9,68.2-25.1,95.2c-16.2,28.7-39.5,48.5-70,64.7l105.9,217.3
		c1.8,3.6,1.8,5.4,0,7.2c-1.8,1.8-3.6,3.6-5.4,3.6h-145.5c-5.4,0-10.8-3.6-12.6-9l-89.8-193.9h-53.9c-3.6,0-5.4,1.8-5.4,5.4V1768
		c0,5.4-3.6,9-9,9h-131.1C1738.3,1775.1,1736.5,1771.6,1736.5,1766.2L1736.5,1766.2z M1889.2,1329.8c-3.6,0-5.4,1.8-5.4,5.4v111.3
		c0,3.6,1.8,5.4,5.4,5.4h79c21.6,0,37.7-5.4,50.3-16.2c12.6-10.8,18-25.1,18-44.9c0-18-5.4-32.3-18-44.9
		c-12.6-10.8-28.7-16.2-50.3-16.2L1889.2,1329.8L1889.2,1329.8L1889.2,1329.8z"/>
	<path class="st2" d="M2422.5,1202.3H2559c5.4,0,9,3.6,10.8,9l193.9,553.1c1.8,5.4,0,9-5.4,9h-138.3c-5.4,0-9-3.6-10.8-9l-26.9-88
		h-185l-26.9,88c-1.8,5.4-5.4,9-10.8,9h-138.3c-5.4,0-7.2-3.6-5.4-9l197.5-553.1C2413.6,1205.9,2417.1,1202.3,2422.5,1202.3
		L2422.5,1202.3z M2489,1376.5l-55.7,177.8h111.3l-52.1-177.8H2489L2489,1376.5L2489,1376.5z"/>
	<path class="st2" d="M2785.3,1764.4v-553.1c0-5.4,3.6-9,9-9h123.9c7.2,0,12.6,3.6,14.4,9l172.4,323.2h3.6v-323.2c0-5.4,3.6-9,9-9
		h116.7c5.4,0,9,3.6,9,9v553.1c0,5.4-3.6,9-9,9h-123.9c-7.2,0-12.6-3.6-14.4-9l-170.6-321.5h-5.4v321.4c0,5.4-3.6,9-9,9h-116.7
		C2787.1,1773.3,2785.3,1769.8,2785.3,1764.4L2785.3,1764.4z"/>
	<path class="st2" d="M396.9,1645.8c0,18,1.8,32.3,7.2,44.9c3.6,12.6,10.8,21.6,18,28.7c7.2,7.2,16.2,12.6,25.1,16.2
		c9,3.6,19.8,5.4,28.7,5.4c50.3,0,75.4-30.5,75.4-89.8v-251.4c0-5.4,3.6-9,9-9h123.9c5.4,0,9,3.6,9,9v258.6c0,37.7-5.4,68.2-18,95.2
		c-12.6,25.1-28.7,46.7-48.5,62.8c-19.8,16.2-43.1,26.9-70,34.1s-53.9,10.8-82.6,10.8s-55.7-3.6-82.6-10.8s-50.3-19.8-70-35.9
		c-19.8-16.2-35.9-37.7-48.5-62.8c-12.6-26.9-18-57.5-18-97c0-25.1,3.6-52.1,10.8-80.8s16.2-55.7,30.5-79c1.8-3.6,7.2-5.4,12.6-3.6
		l111.3,30.5c3.6,1.8,5.4,3.6,5.4,5.4s0,3.6,0,7.2c-7.2,16.2-14.4,32.3-19.8,50.3C400.5,1600.9,396.9,1622.5,396.9,1645.8
		L396.9,1645.8z"/>
	<path class="st2" d="M912.3,1680c0,5.4-3.6,9-9,9H772.2c-5.4,0-9-3.6-9-9v-468.7c0-5.4,3.6-9,9-9h131.1c5.4,0,9,3.6,9,9V1680
		L912.3,1680z"/>
	<path class="st2" d="M1000.3,1337c0-5.4,3.6-9,9-9h125.7c5.4,0,9,3.6,9,9v190.3c0,12.6,5.4,21.6,14.4,28.7
		c10.8,7.2,25.1,10.8,43.1,10.8h71.8c14.4,0,23.3-3.6,30.5-9c7.2-7.2,9-18,9-34.1V1337c0-5.4,3.6-9,9-9h127.5c5.4,0,9,3.6,9,9v244.2
		c0,35.9-7.2,62.8-23.3,80.8c-14.4,16.2-39.5,25.1-75.4,25.1h-134.7c-19.8,0-34.1-1.8-48.5-5.4c-12.6-3.6-23.3-12.6-34.1-23.3v10.8
		c0,66.4-14.4,114.9-41.3,145.5c-26.9,30.5-71.8,46.7-134.7,46.7h-46.7c-5.4,0-9-3.6-9-9V1750c0-5.4,3.6-9,9-9h18
		c26.9,0,44.9-7.2,52.1-23.3c7.2-14.4,10.8-37.7,10.8-66.4L1000.3,1337L1000.3,1337z"/>
	<path class="st2" d="M1361.2,1759h89.8c3.6,0,5.4,3.6,5.4,5.4v89.8c0,3.6-3.6,5.4-5.4,5.4h-89.8c-3.6,0-5.4-3.6-5.4-5.4v-89.8
		C1355.8,1762.6,1357.6,1759,1361.2,1759L1361.2,1759z"/>
	<path class="st2" d="M1228.3,1759h89.8c3.6,0,5.4,3.6,5.4,5.4v89.8c0,3.6-3.6,5.4-5.4,5.4h-89.8c-3.6,0-5.4-3.6-5.4-5.4v-89.8
		C1222.9,1762.6,1224.7,1759,1228.3,1759L1228.3,1759z"/>
	<path class="st2" d="M454.3,1202.3h89.8c3.6,0,5.4,3.6,5.4,5.4v89.8c0,3.6-3.6,5.4-5.4,5.4h-89.8c-3.6,0-5.4-3.6-5.4-5.4v-89.8
		C449,1205.9,450.7,1202.3,454.3,1202.3L454.3,1202.3z"/>
</g>
</svg>
