<?xml version="1.0" encoding="utf-8"?>
<!-- Generator: Adobe Illustrator 27.7.0, SVG Export Plug-In . SVG Version: 6.00 Build 0)  -->
<svg version="1.1" id="Layer_1" xmlns="http://www.w3.org/2000/svg" xmlns:xlink="http://www.w3.org/1999/xlink" x="0px" y="0px"
	 viewBox="0 0 3500 3500" style="enable-background:new 0 0 3500 3500;" xml:space="preserve">
<style type="text/css">
	.st0{fill:#FEFEFE;}
	.st1{fill:#F61E2F;}
	.st2{fill:#272223;}
</style>
<g>
	<g>
		<path class="st0" d="M2592,2956.2c4.7-3.2,10-5.8,13.9-9.7c92.6-92.1,183.5-185.9,263.6-289.4c67.1-86.7,133.6-173.8,200.8-260.4
			c71.6-92.2,134.9-189.6,189.2-292.9c3.4-3.1,8.2-5.5,10.1-9.4c33.3-66.5,70.1-131.7,98.4-200.3c34.5-83.5,63.3-169.4,92-255.2
			c25.9-77.3,35.9-157.9,39.2-239.2c3.2-78.5-3.3-156.5-17.2-233.9c-13.5-75.4-32.5-149.3-65.8-218.4
			c-21.4-44.5-47.1-86.9-71.4-129.9c-31.5-55.7-69.4-106.6-115.4-151.2c-19-18.4-38-36.7-57.8-54.2c-15.7-13.9-33.7-25.2-48.8-39.7
			c-68.5-66-153.9-102.6-241.2-132.7c-90.8-31.3-185.9-41.1-282.4-36.6c-65.1,3-130,7.3-191.1,31.5c-46.8,18.5-93.6,38.2-137.8,62.1
			c-81.1,44-145.1,107.1-194.2,185.3c-8.8,14-19.2,27-30,42.1c-20.9-31.8-38.8-60.8-58.6-88.4c-43-59.9-95.3-111.5-149.2-161.5
			c-39.1-36.3-82.8-68.3-118.6-107.4c-43.6-47.6-81.9-100.1-121-151.6c-39.9-52.6-69.5-111.2-97.4-177c-4.8,17-9.8,29.7-11.8,42.9
			c-2.6,16.9-1.3,34.5-4.1,51.3c-11,66.2-41.8,124.3-77.1,180.2c-26.9,42.7-64.8,66.1-116,74.4c-82,13.4-161.2,38.5-236,75.8
			c-4.9,2.5-10.8,3-17.6,4.8C958.6,389.4,902,291.3,824,208.9c-4.8,7.6-7.6,11.5-9.9,15.6c-17.2,30.7-33.3,62.2-51.7,92.1
			c-36.1,58.8-88.3,101.8-143.3,141.6c-18.5,13.4-37.3,26.7-57.5,37.1c-95.9,49.2-199,77.2-303.4,101.2c-31.8,7.3-63.3,16-94.9,24.1
			c90.9,32.4,182.9,58,265,106.7c81.6,48.4,159,103.4,230.4,163.8c-21.7,66.9-43,129.1-62,191.9c-8.8,29.3-20.3,48.9-52.4,63
			c-92.6,40.8-185.4,80.3-283.3,106.2c-40.4,10.7-81.4,19.7-122.6,26.9c-44.7,7.8-89.9,12.8-138.5,19.4c4.9,8.8,7.1,14.9,11.1,19.4
			c30.2,34.2,58.4,70.7,91.8,101.4c39.1,35.9,82.9,66.7,124.6,99.9c46.7,37.2,99.3,66.3,154.4,86c67,23.9,137.9,37.5,207.5,53.5
			c27.5,6.3,37.8,12.4,46.1,39.7c9.2,30.1,18.5,60.1,28.5,89.9c34.9,104.5,87.3,200.8,140.1,296.8c3,5.5,9,9.2,13.7,13.8
			c36.5,62.4,69,127.6,110.3,186.6c79.7,113.6,161.4,226.1,247.9,334.7c77.5,97.3,162.1,189,244.5,282.3
			c17.3,19.6,38.8,35.4,58.3,52.9c2.8,4.9,4.6,10.6,8.4,14.4c44.4,44.8,88.1,90.3,133.8,133.5c67.2,63.5,135.8,125.5,204,187.9
			c53.4,48.9,106.7,97.8,160.7,145.9c35.2,31.3,38.6,30.9,77.8,6.3c6.4-4.1,13-8.1,18.9-12.9c60.6-50.7,122.4-100.1,181.2-152.9
			c82.2-74,162.8-149.9,242.6-226.5C2536.7,3021.8,2563.4,2988.1,2592,2956.2z"/>
		<path class="st1" d="M817.7,2099.1c-4.6-4.6-10.7-8.4-13.7-13.8c-52.8-96-105.2-192.3-140.1-296.8c-10-29.8-19.4-59.8-28.5-89.9
			c-8.3-27.3-18.6-33.4-46.1-39.7c-69.7-16-140.5-29.6-207.5-53.5c-55.1-19.7-107.7-48.8-154.4-86c-41.6-33.2-85.5-63.9-124.6-99.9
			c-33.4-30.7-61.6-67.2-91.8-101.4c-4-4.5-6.1-10.6-11.1-19.4c48.6-6.7,93.8-11.6,138.5-19.4c41.2-7.2,82.2-16.2,122.6-26.9
			c97.9-26,190.7-65.4,283.3-106.2c32.1-14.1,43.5-33.8,52.4-63c19-62.9,40.2-125.1,62-192c-71.4-60.4-148.7-115.4-230.4-163.8
			c-82.2-48.7-174.1-74.3-265-106.7c31.6-8.1,63.1-16.8,94.9-24.1c104.4-24,207.5-52,303.4-101.2c20.2-10.4,39-23.7,57.5-37.1
			c55-39.8,107.2-82.9,143.3-141.6c18.4-30,34.5-61.4,51.7-92.1c2.3-4.1,5.1-8,9.9-15.6c78,82.3,134.6,180.5,214.7,258.9
			c6.7-1.8,12.6-2.3,17.6-4.8c74.8-37.3,153.9-62.4,236-75.8c51.1-8.4,89.1-31.7,116-74.4c35.2-55.9,66.1-114,77.1-180.2
			c2.8-16.9,1.6-34.4,4.1-51.3c2-13.2,7-25.9,11.8-42.9c27.9,65.8,57.5,124.4,97.4,177c39.1,51.5,77.4,104,121,151.6
			c35.9,39.2,79.5,71.1,118.6,107.4c53.9,50,106.2,101.6,149.2,161.5c19.8,27.6,37.6,56.7,58.6,88.4c10.8-15.1,21.2-28.1,30-42.1
			c49.1-78.3,113.1-141.4,194.2-185.4c44.2-24,91-43.6,137.8-62.1c61.1-24.2,126-28.5,191.1-31.5c96.5-4.5,191.6,5.2,282.4,36.6
			c87.3,30.1,172.7,66.7,241.2,132.7c15,14.5,33.1,25.8,48.8,39.7c19.8,17.5,38.9,35.8,57.8,54.2c46,44.7,84,95.5,115.4,151.2
			c24.3,43,50,85.5,71.4,129.9c33.3,69.1,52.3,143,65.8,218.4c13.9,77.4,20.4,155.4,17.2,233.9c-3.3,81.2-13.3,161.8-39.2,239.2
			c-28.7,85.7-57.5,171.7-92,255.2c-28.4,68.6-65.1,133.8-98.4,200.3c-1.9,3.9-6.7,6.3-10.1,9.4c-8-3-15.8-8.1-23.9-8.6
			c-25.2-1.6-50.4-1.5-75.7-2.1c12.1-24.7,24.4-49.2,36.2-74c34.3-72.1,68.9-144,102.3-216.5c7.4-16,10.7-33.9,16.9-54.1
			c-12.2-2.6-21.1-6-30.1-6.2c-110.6-2.1-221.3-3.9-331.9-5.2c-8.8-0.1-17.7,4.6-26.5,7.1l-2.3,0.4c-10.4-3.3-20.8-9.3-31.3-9.6
			c-88.8-2.2-177.7-3.8-266.5-4.8c-166.2-1.9-332.5-3.3-498.7-5.1c-10.2-0.1-20.3-1.4-31.9-2.2c-0.7-10.1-1.7-17.5-1.7-24.9
			c0.5-74.5,0.9-149.1,1.9-223.6c0.9-71.7,2.1-143.3,3.9-214.9c0.3-13.7,3.6-27.3,5.8-43.2c19.3,0,34.5,0,49.7,0
			c72.6,0.2,145.2,0.5,217.8,0.3c11.8,0,23.7-2.5,37.1-4c0-40.5,0-77.3,0-116.5c-13.5-2.2-26.4-5.9-39.4-6.2
			c-46.7-1.2-93.5-1.3-140.3-1.7c-34.4-0.3-68.8-0.6-103.2-0.5c-17.2,0-26.9-6.1-26.4-25.2c1.5-59.2,2.6-118.4,3.4-177.6
			c0.5-36.9,0.1-73.9,0.1-114.3c-44.5,0-86.7,0-130.1,0c-1.4,6.6-3.4,12-3.5,17.5c-0.7,50.6-0.8,101.2-1.7,151.8
			c-0.7,40.1-0.8,80.2-4.3,120.1c-2.2,24.8-9.9,27.9-34.9,25.5c-14.2-1.4-28.5-2.4-42.8-2.6c-55.4-0.9-110.8-1.7-166.2-2.1
			c-20.5-0.1-41.1,0.9-63,1.5c0,44.1,0,83.6,0,128.1c101.3,0,200.2,0,302.4,0c1.6,16.7,3.8,28.6,3.7,40.5
			c-1.3,84.1-3.5,168.1-4.7,252.2c-0.9,64-0.8,128.1-1.4,192.1c-0.2,24.7-3.8,27.4-28.8,26.5c-16.2-0.6-32.5-1-48.7-1.1
			c-176.8-0.8-353.6-1.4-530.4-2.4c-68.8-0.4-137.6-2.3-206.4-2.4c-70.6-0.1-141.3,1.6-211.9,1.5c-56.3,0-112.7-1.7-169-2.1
			c-8.6-0.1-17.3,3-26.7,4.8c14.9,60.9,39.6,113.3,66.3,165c35.8,69.4,72,138.5,108,207.8c-11.3,0.8-22.6,1.8-33.9,2.5
			C856.9,2096.7,837.3,2097.8,817.7,2099.1z M1510.7,1426.3c27.6-48.1,47.6-93.4,43.2-144.5c-5.5-64.1-27-120.6-86.9-155.7
			c-20.1-11.8-17.3-31.7,4.6-40.8c60.8-25.2,122.2-48.9,182.6-75c42.7-18.5,86.4-36.3,125.6-60.9c50.7-31.7,91.6-74.1,111.4-133.6
			c15.4-46.3,17.5-93,1.3-137.7c-24-66-60.3-125.7-110.8-175.5c-63.9-63-122.2-130.8-169.3-207.3c-29.5-47.8-56.8-97-85.2-145.6
			c-4-6.8-8.3-13.4-15.5-24.8c-3.5,11-5.1,16-6.6,21.1c-11.7,38.1-20.9,77.3-35.5,114.2c-36.8,92.6-95.7,170.9-163.1,243.3
			c-43.5,46.7-86.3,93.9-129.2,141.2c-15.5,17.1-24.8,17.2-41.6-2.4c-31-36.2-62.5-72-92.2-109.2c-55.3-69.2-109.4-139.4-164.2-209
			c-8-10.2-17.1-19.5-22.8-26c-73.6,62.2-143,124.4-216.2,181.9c-73.8,58-159.9,94.1-253.7,122.9c8.8,9.5,12.8,14.3,17.4,18.6
			c19.5,18,39.3,35.7,58.7,53.8c40.4,37.7,78.7,78,121.5,112.8c53.1,43.2,111,80.5,164.9,122.9c41.1,32.3,79.6,68,118.1,103.5
			c7.3,6.7,14.4,21.8,11.5,29.1c-3,7.4-18,10.6-28.2,14.3c-5.2,1.9-11.5,0.3-17.1,1.3c-26.2,4.7-52.6,8.2-78.3,14.9
			c-83.4,21.6-151,76.6-229.1,109.8c-47.3,20.1-92.6,45-140,65.1c-28.8,12.2-59.2,21.6-89.8,27.9c-73.8,15.1-147.7,31.2-223.6,33
			c-6.1,0.2-12.2,2.7-21,4.7c4.7,7.7,7.2,13.8,11.3,18.4c54.9,61.6,118.1,113.8,187.3,158c69.3,44.3,143.5,78.9,222.4,103.7
			c72.9,22.9,146.6,39.3,222.5,24.1c84-16.8,166.5-40.2,246.5-72c91.7-36.4,174.9-88.8,260.2-137.2c46.7-26.5,94.3-51.6,148.6-56.3
			c47-4.1,94.3-2.3,130.4,35.8C1490.3,1399.2,1498.3,1410.8,1510.7,1426.3z"/>
		<path class="st2" d="M817.7,2099.1c19.6-1.2,39.2-2.4,58.8-3.7c11.3-0.7,22.6-1.7,33.9-2.5c27.6,1.9,55.2,5.3,82.8,5.3
			c710.1,0.3,1420.1,0.3,2130.2,0c12.2,0,24.3-3.3,36.5-5c25.2,0.6,50.5,0.5,75.7,2.1c8.1,0.5,15.9,5.6,23.9,8.6
			c-54.3,103.3-117.6,200.7-189.2,292.9c-67.2,86.6-133.8,173.7-200.8,260.4c-80.1,103.5-170.9,197.2-263.6,289.4
			c-3.9,3.9-9.2,6.5-13.9,9.7c-10.1-2.2-20.1-6.3-30.1-6.3c-350.9-0.2-701.8-0.1-1052.7,0.2c-10.1,0-20.3,3.5-30.4,5.4
			c-19.5-17.5-41-33.4-58.3-52.9c-82.4-93.3-167-185-244.5-282.3c-86.4-108.5-168.2-221-247.9-334.7
			C886.7,2226.7,854.2,2161.5,817.7,2099.1z M1555.2,2277c3.6-2.3,7.1-4.5,10.6-6.8c10.6-5.8,21.2-11.5,36-19.6
			c-18.7-1.2-31.2-2-43.7-2.8c-3-2.7-5.9-5.4-8.9-8.2c-0.8-1.4-1.7-2.7-2.6-4.1c-3.9-3.6-7.8-7.3-11.7-10.9c1-7.8,2-15.5,3.7-29
			c-13,8-19.8,12.1-26.6,16.3c-13.6-1.4-27.1-2.9-40.7-4.3c1.5-2.2,3-4.4,6.4-9.4c-11.4-1.8-21-3.3-33.6-5.3
			c1.8,8.8,2.6,13.1,3.5,17.3c-15.3-13.5-31.5-19.5-52.3-11.3c-8.1,3.2-18.7-0.3-27.9,0.7c-12.3,1.2-24.5,3.8-37.2,5.8
			c2.6,8.9,3.8,13.1,5.6,19.1c-8.8-5.5-14.7-12-21.2-12.6c-21.3-2.2-42.8-2.3-64.2-3.4c-4.5-0.2-9.5,0-13.4-1.9
			c-24.4-11.7-32.4-9.1-45.4,16.6c-19.3-12.3-37.8-3.4-56.5,3c-25.4,8.6-25.4,8.7-38.9-15.5c-35.8,0.4-72.7-6.8-110.1,13.2
			c12.9,21.2,24.4,41.5,37.6,60.7c2.8,4.1,12.4,6.6,17.9,5.3c40.1-9.1,73,9,101.5,31.6c16.7,13.2,36.6,32.1,24.9,61.1
			c-2.3,5.6,0.4,17,5,21.1c20.2,18.3,41.2,36.1,63.4,51.8c14.3,10.1,36,10.6,38.6,34.7c0.4,3.9,9.8,8.1,15.8,10
			c36.4,11.8,75.7,15.1,108.7,37.1c2.4,1.6,6.9,0.2,8.2,0.2c1-18.5-7.7-29.1-23.8-31.3c-2.1-8.7-3.8-15.6-5.6-23.4
			c-21.8,5.4-41.3,23.7-66.2-0.5c10.2-12.1,18.7-32.1,30.1-33.9c28.3-4.4,60.7-17.8,82.2,12.7c5.2-9.7,7.5-20.4,14.1-25
			c10.9-7.5,24.5-11,37.1-16.2c1.4-4.9,1.2-14.4,5.7-18.1c17.4-14.1,36.2-26.7,58.6-26c1.2-10.1,2.3-18.9,3.2-27
			c20.2-2.5,37-4.6,53.8-6.7c1.7-0.9,3.4-1.7,5.1-2.5c-1.5-2.1-2.9-4.3-4.4-6.4c-10.4-6.5-20.7-13-31.1-19.5
			c6.4-2.5,12.6-5.9,19.2-7.3c7-1.5,14.3-1.2,21.5-1.7c-0.2-2.4-0.3-4.9-0.4-7.3c-13.7,0-27.4,0-41.2,0c-5.8-1.6-11.6-3.2-17.3-4.9
			C1550.6,2287.3,1552.9,2282.1,1555.2,2277z M2055.5,2750c18.4,0,33.3,2.9,46.2-0.8c13.8-3.9,28.1-12,37.8-22.3
			c8.5-9,11-23.7,16.2-35.9c1.1,0.6,2.2,1.1,3.2,1.6c0-11.8,0-23.5,0-34.2c12.2,0,21.7,0,35,0c-4.9-18-8.7-32.1-13.3-49.4
			c17.3-9.2,33.8-20.3,51.8-26.9c17-6.3,26.8-15.8,30.7-36.6c-18.4,1.6-34.7,3-53.8,4.7c-1.3-19.8-8.9-33.5-25.2-42.3
			c-7-3.8-12.1-12.3-15.9-19.8c-1.7-3.3,1.8-9.2,4.3-20.1c21.2,24.6,38.7,44.9,58.9,68.4c21.4-25,61.7-3.8,82-35.1
			c-9.8-23.7-25.1-4.3-37-6.9c-11.4-9.1-22.8-18.3-34.1-27.4c0.7-2.2,1.4-4.3,2-6.5c6.3,1.1,12.9,1.5,18.9,3.7
			c6.7,2.4,12.5,8.8,19.1,9.5c27,2.8,54.1,4,85,6.1c20.2,17.3,43.3,37,70.4,60.1c12.6-0.3,26.7-7.1,30.4-25.7
			c12.4-4.7,22.8-10,33.8-12.3c10.8-2.2,25.6-6,32.8-0.9c17.3,12.4,31.2,29.6,43.5,41.9c15.4,3.3,28.3,6,47.1,10
			c1.9-1.3,9.2-6.3,16.5-11.3c-7.6-10.9-13.2-19.1-19.6-28.4c20.2-5.3,37.4-10.4,55-14.2c28-6,31-8.9,36.8-41.5
			c-5.1-2.9-10.3-6-15.5-9.1c5.2-9.4,9.7-17.4,13.5-24.2c12.8,0.8,27.4,6.2,34.4,1.1c16.4-11.8,30.7-23.8,52.8-20.7
			c4,0.6,8.8-6.8,13.8-9.4c7.1-3.8,14.8-6.5,23.8-10.4c3.3,9,5.4,14.8,6.9,19.1c2.7-10.8,5.6-22.3,9.4-37.3
			c-14.6-6.9-31.2-14.9-47.8-22.8c0.5-2.4,1-4.9,1.5-7.4c40.7-5.7,81.4-11.3,127.1-17.7c-5,10.4-9.6,20-15.1,31.2
			c3.1,4.2,7.3,10.1,13.2,18.2c11.8-9.6,21.9-18,32.3-26c9.4-7.1,18.6-18.1,29.1-19.7c33.7-5.4,38.5-34.1,52.8-58.1
			c-17.2-3.9-33.1-3.6-48.9-3.9c-21.6-0.5-43.3-0.5-64.8-2.5c-10.6-1-21.2-5.3-31.2-9.4c-20-8-44-0.2-60.1-7.1
			c-20.4-8.8-32.8-2.5-49.7,2.1c-15.3,4.1-34.9,16.9-47.6-0.9c-13.8-19.4-31-18.8-50.3-17.9c-16,0.8-32.1,0.1-48.1,0.1
			c0.5-1.9,0.9-3.7,1.4-5.6c-9.4-4.4-18.5-9.9-28.4-12.8c-20.1-5.9-40.8-17.1-60.2,2.4c-0.9,0.9-3.7-0.7-5.6-0.4
			c-25.2,3.8-50.3,11.1-75.4,10.8c-23.4-0.2-43.8,3-63.6,15.6c-4.2,2.7-12.4-0.9-18.8-1.7c-6.3-0.8-12.5-1.7-18.4-2.4
			c-5.1,9.9-9.2,18.1-10.8,21.1c-25,2.4-45.2,6.1-65.3,5.9c-58.8-0.6-117.8,2.4-175.4-15.4c-29.2-9-60.2,1.5-80.5,18.6
			c-19.1,16.1-38.7,26.9-67.4,36.8c10.6,5.5,16,9.4,22.1,11.4c7.8,2.5,17.2,1.6,23.8,5.6c18.2,11.1,26,5.8,32.9-13.5
			c7.5-21.2,24.8-27.8,43-21.1c-5.1,6-10.1,11.9-14.5,17.2c5.2,7.5,9.3,13.3,16.5,23.7c-25.9,6.6-48.2,16.9-70.2,16.6
			c-22.4-0.3-40.4,7.5-59.6,15c-5.7,2.2-11.2,5.2-16.9,7.9c-11.4-29.3-11.4-29.3-32.5-32.8c2.5,18.9,4.9,37.1,7.5,56.4
			c-12.2,3.4-22.9,6.4-32.6,9.1c-11.3,21.3,2.9,27.8,14.3,31.2c-15.7,15.9-28.9,35.4-47.3,46.3c-24.5,14.5-31.7,32.9-28.2,58.7
			c7.8,6.8,15.8,13.4,23.3,20.5c10.6,10,21.4,14.8,36.1,7.7c15.5-7.5,31-4.6,47.1,1.4c38.2,14.1,38.4,13.5,66.3,43.7
			c5.7,6.2,12.3,11.5,20.1,18.8c-3.9,14.6-7.7,29.1-12.2,46.2c6.3,5.9,13.7,12.9,17.3,16.3C2041.7,2708.4,2048.5,2728.8,2055.5,2750
			z M1696.8,2613.3c-7.8-7.9-21.1-13.3-38.9-11.8c-20,1.7-41.5,0-53.1-19.2c-5.1-8.4-7.7-14.5-18.3-17.8
			c-14-4.4-27.8-11.8-39.7-20.5c-27.8-20.5-58.9-4.7-88.1-9.9c-8.2-1.4-47.4,49.2-45.3,58c4.8,19.9,8.7,40.7,29.4,52.7
			c12.5,7.2,23.4,17.4,37.9,28.5c-30.7,27.3-20.2,76.9-69.3,88.4c11.5,8.4,19.7,14.5,27.9,20.5c-1.4,0.7-2.9,1.4-4.4,2.1
			c5.5,12.4,11.1,24.8,16.2,36.4c6.8-1.6,9.1-1.5,10.3-2.6c23.5-21.1,34.4-53.4,68-66.6c21.7-8.5,39.2-27.6,58.4-42.1
			c18.1-13.6,36.3-25.8,60.1-28.5c7.7-0.9,16.3-9.6,21.1-17C1679.2,2648.7,1686.8,2632.2,1696.8,2613.3z"/>
		<path class="st1" d="M1478.7,2955.5c10.1-1.9,20.3-5.4,30.4-5.4c350.9-0.4,701.8-0.5,1052.7-0.2c10.1,0,20.1,4.1,30.1,6.3
			c-28.6,31.8-55.2,65.6-86,95.1c-79.8,76.6-160.3,152.5-242.6,226.5c-58.7,52.8-120.6,102.2-181.2,152.9
			c-5.8,4.9-12.4,8.9-18.9,12.9c-39.2,24.6-42.7,25-77.8-6.3c-54.1-48.1-107.3-97.1-160.7-145.9c-68.2-62.4-136.8-124.4-204-187.9
			c-45.8-43.3-89.5-88.8-133.8-133.5C1483.2,2966.1,1481.4,2960.4,1478.7,2955.5z"/>
		<path class="st0" d="M1510.7,1426.3c-12.4-15.5-20.4-27.2-30-37.3c-36.1-38.1-83.3-39.9-130.4-35.8
			c-54.3,4.7-101.8,29.8-148.6,56.3c-85.3,48.4-168.4,100.8-260.2,137.2c-80,31.7-162.5,55.1-246.5,72
			c-75.9,15.2-149.6-1.2-222.5-24.1c-78.9-24.8-153.1-59.4-222.4-103.7c-69.2-44.2-132.4-96.4-187.3-158
			c-4.1-4.6-6.6-10.7-11.3-18.4c8.8-2,14.8-4.6,21-4.7c75.9-1.8,149.7-18,223.6-33c30.6-6.2,61.1-15.7,89.8-27.9
			c47.4-20,92.7-44.9,140-65.1c78.1-33.2,145.7-88.2,229.1-109.8c25.7-6.6,52.1-10.2,78.3-14.9c5.6-1,11.9,0.6,17.1-1.3
			c10.2-3.7,25.3-6.9,28.2-14.3c2.9-7.2-4.2-22.3-11.5-29.1C828.6,979,790.1,943.3,749,911c-53.9-42.4-111.7-79.7-164.9-122.9
			c-42.8-34.8-81-75.1-121.5-112.8c-19.4-18.1-39.2-35.8-58.7-53.8c-4.6-4.2-8.6-9.1-17.4-18.6c93.7-28.8,179.9-64.9,253.7-122.9
			c73.1-57.5,142.6-119.6,216.2-181.9c5.7,6.5,14.8,15.9,22.8,26c54.8,69.6,108.9,139.8,164.2,209c29.7,37.2,61.2,73.1,92.2,109.2
			c16.8,19.6,26.1,19.5,41.6,2.4c42.9-47.2,85.7-94.5,129.2-141.2c67.5-72.4,126.4-150.7,163.1-243.3
			c14.7-36.9,23.8-76.1,35.5-114.2c1.6-5.1,3.2-10.1,6.6-21.1c7.2,11.4,11.5,18,15.5,24.8c28.3,48.5,55.7,97.7,85.2,145.6
			c47.2,76.5,105.4,144.3,169.3,207.3c50.5,49.8,86.9,109.5,110.8,175.5c16.2,44.6,14.1,91.4-1.3,137.7
			c-19.8,59.6-60.7,101.9-111.4,133.6c-39.2,24.6-82.9,42.4-125.6,60.9c-60.4,26.1-121.9,49.7-182.6,75c-21.9,9.1-24.7,29-4.6,40.8
			c59.9,35.1,81.4,91.6,86.9,155.7C1558.3,1332.9,1538.2,1378.2,1510.7,1426.3z"/>
		<path class="st2" d="M2926.7,1744.4c8.3,7,16.7,14.1,28.1,23.7c-11.2,9.7-19.9,17.1-31,26.7c-9.5-8.7-17.5-16-28.8-26.3
			c12.8-10.4,21.1-17,29.3-23.7L2926.7,1744.4z"/>
		<path class="st0" d="M2055.5,2750c-7-21.2-13.8-41.6-21.9-66c-3.6-3.4-11-10.4-17.3-16.3c4.5-17.1,8.3-31.5,12.2-46.2
			c-7.8-7.2-14.4-12.6-20.1-18.8c-27.9-30.2-28-29.7-66.3-43.7c-16.1-5.9-31.5-8.9-47.1-1.4c-14.7,7.1-25.5,2.3-36.1-7.7
			c-7.5-7.1-15.6-13.7-23.4-20.5c-3.5-25.8,3.7-44.1,28.2-58.7c18.4-10.9,31.6-30.4,47.3-46.3c-11.3-3.4-25.6-9.9-14.3-31.2
			c9.7-2.7,20.4-5.7,32.6-9.1c-2.6-19.4-5-37.5-7.5-56.4c21,3.5,21,3.5,32.5,32.8c5.7-2.7,11.2-5.6,16.9-7.9
			c19.2-7.5,37.2-15.3,59.6-15c22.1,0.3,44.3-9.9,70.2-16.6c-7.2-10.4-11.3-16.3-16.5-23.7c4.4-5.3,9.5-11.2,14.5-17.2
			c-18.2-6.8-35.5-0.1-43,21.1c-6.8,19.3-14.6,24.6-32.8,13.5c-6.6-4-16.1-3.1-23.8-5.6c-6.1-2-11.6-5.8-22.1-11.4
			c28.7-9.9,48.3-20.8,67.4-36.8c20.3-17.1,51.3-27.6,80.5-18.6c57.6,17.8,116.6,14.8,175.4,15.4c20.1,0.2,40.3-3.5,65.3-5.9
			c1.6-3.1,5.7-11.1,10.8-21.1c5.8,0.8,12.1,1.7,18.4,2.4c6.4,0.8,14.6,4.4,18.8,1.7c19.7-12.6,40.1-15.8,63.6-15.6
			c25.1,0.3,50.3-6.9,75.4-10.8c1.8-0.3,4.7,1.2,5.6,0.4c19.4-19.4,40.1-8.3,60.2-2.4c9.9,2.9,18.9,8.5,28.4,12.8
			c-0.5,1.9-0.9,3.7-1.4,5.6c16,0,32.1,0.6,48.1-0.1c19.4-0.9,36.5-1.6,50.3,17.9c12.7,17.8,32.3,5.1,47.6,0.9
			c16.9-4.6,29.3-10.9,49.7-2.1c16,6.9,40.1-0.9,60.1,7.1c10.1,4,20.6,8.4,31.2,9.4c21.5,2,43.2,2,64.8,2.5
			c15.8,0.3,31.6,0.1,48.9,3.9c-14.4,23.9-19.2,52.7-52.8,58.1c-10.5,1.7-19.7,12.6-29.1,19.7c-10.4,7.9-20.5,16.4-32.3,26
			c-5.9-8.1-10.2-14-13.2-18.2c5.4-11.2,10-20.8,15.1-31.2c-45.7,6.4-86.4,12-127.1,17.7c-0.5,2.4-1,4.9-1.5,7.4
			c16.6,7.9,33.2,15.9,47.8,22.8c-3.8,15-6.7,26.5-9.4,37.3c-1.6-4.4-3.7-10.1-6.9-19.1c-8.9,3.8-16.6,6.6-23.8,10.4
			c-5,2.6-9.8,10-13.8,9.4c-22.1-3.1-36.4,8.9-52.8,20.7c-7,5.1-21.6-0.4-34.4-1.1c-3.8,6.9-8.3,14.8-13.5,24.2
			c5.2,3.1,10.5,6.1,15.5,9.1c-5.8,32.6-8.8,35.5-36.8,41.5c-17.6,3.8-34.8,8.9-55,14.2c6.4,9.3,12.1,17.5,19.6,28.4
			c-7.3,5-14.6,10-16.5,11.3c-18.8-4-31.7-6.7-47.1-10c-12.3-12.3-26.2-29.5-43.5-41.9c-7.2-5.1-22-1.3-32.8,0.9
			c-11,2.3-21.4,7.6-33.8,12.3c-3.6,18.6-17.8,25.4-30.4,25.7c-27.1-23.1-50.1-42.9-70.4-60.1c-30.9-2.1-58-3.3-85-6.1
			c-6.6-0.7-12.5-7.1-19.1-9.5c-5.9-2.2-12.6-2.5-18.9-3.7c-0.7,2.2-1.4,4.3-2,6.5c11.4,9.1,22.8,18.3,34.1,27.4
			c11.9,2.7,27.2-16.8,37,6.9c-20.4,31.2-60.6,10.1-82,35.1c-20.2-23.5-37.8-43.8-58.9-68.4c-2.6,10.9-6,16.9-4.3,20.1
			c3.9,7.5,9,16,15.9,19.8c16.3,8.9,23.9,22.5,25.2,42.3c19.1-1.7,35.4-3.1,53.8-4.7c-3.9,20.8-13.7,30.4-30.7,36.6
			c-18,6.7-34.5,17.7-51.8,26.9c4.7,17.2,8.5,31.4,13.3,49.4c-13.3,0-22.9,0-35,0c0,10.7,0,22.5,0,34.2c-1.1-0.6-2.2-1.1-3.2-1.6
			c-5.1,12.2-7.6,26.9-16.2,35.9c-9.8,10.3-24.1,18.4-37.8,22.3C2088.8,2752.9,2073.9,2750,2055.5,2750z M2090.8,2423
			c-16.2-12.7-27.4-21.4-40.3-31.4c-1.8,9.9-2.7,15-4.3,24.3c-40.1-34.4-77.5-36.2-115,7.2c20.9,1.2,39.1,3.2,57.3,3
			c24.9-0.3,46.8,5.4,62.5,25.5c10-3.8,18.7-7.2,26.5-10.1c29.3,13.9,52,15.9,84.5,6c-17.2-16.8-47.7-13.6-53.7-39.6
			c-0.2-0.8-3.4-1-11.1-3C2095.7,2409,2093.1,2416.4,2090.8,2423z M2133.4,2393.8c0.1,3,0.3,6,0.4,8.9c28.1,5.1,56.3,10.3,84.5,15.4
			c1-1.4,2.1-2.7,3.1-4.1c-14-11.8-28-23.6-42.5-36C2163.9,2383.3,2148.6,2388.5,2133.4,2393.8z M2253.9,2423.4
			c12.1,3.8,23.8,8.7,31.4-5.5c1.4-2.6-4.1-12.3-8.1-13.6C2262.3,2399.5,2254.8,2406.7,2253.9,2423.4z"/>
		<path class="st0" d="M1596.9,2342.2c-16.8,2.1-33.7,4.2-53.8,6.7c-1,8.1-2,16.9-3.2,27c-22.4-0.7-41.2,11.8-58.6,26
			c-4.5,3.7-4.3,13.1-5.7,18.1c-12.6,5.2-26.2,8.7-37.1,16.2c-6.6,4.6-8.9,15.3-14.1,25c-21.6-30.5-53.9-17.1-82.2-12.7
			c-11.4,1.8-19.9,21.8-30.1,33.9c24.9,24.2,44.4,5.9,66.2,0.5c1.9,7.7,3.5,14.7,5.6,23.4c16.1,2.3,24.9,12.9,23.8,31.3
			c-1.4,0-5.8,1.4-8.2-0.2c-33-22-72.3-25.3-108.7-37.1c-5.9-1.9-15.3-6.1-15.8-10c-2.6-24.1-24.2-24.6-38.6-34.7
			c-22.2-15.7-43.2-33.5-63.4-51.8c-4.6-4.1-7.3-15.4-5-21.1c11.7-29-8.1-47.9-24.9-61.1c-28.5-22.6-61.4-40.7-101.5-31.6
			c-5.5,1.2-15.1-1.2-17.9-5.3c-13.2-19.2-24.7-39.6-37.6-60.7c37.4-20,74.3-12.9,110.1-13.2c13.5,24.2,13.4,24.1,38.9,15.5
			c18.7-6.3,37.2-15.2,56.5-3c13-25.8,21-28.3,45.4-16.6c3.9,1.9,8.9,1.7,13.4,1.9c21.4,1.1,42.9,1.1,64.2,3.4
			c6.5,0.7,12.3,7.2,21.2,12.6c-1.8-6-3-10.2-5.6-19.1c12.7-2.1,24.9-4.6,37.2-5.8c9.3-0.9,19.8,2.6,27.9-0.7
			c20.7-8.2,36.9-2.2,52.3,11.3c7.9-0.9,15.8-1.7,23.7-2.6c13.6,1.4,27.1,2.9,40.7,4.3c7.6,4.2,15.2,8.5,22.8,12.7
			c3.9,3.6,7.8,7.3,11.7,10.9c0.8,1.4,1.7,2.7,2.6,4.1c3,2.7,5.9,5.4,8.9,8.2c2.6,7.5,5.2,15,7.8,22.5c-3.6,2.3-7.1,4.5-10.6,6.8
			c-7.9,5.4-15.9,10.9-23.8,16.3c1.2,1.8,2.4,3.7,3.7,5.5c4.4-2.1,8.8-4.2,13.2-6.2c5.8,1.6,11.6,3.2,17.3,4.9
			c0.3,5.4,0.6,10.9,0.9,16.3c10.4,6.5,20.7,13,31.1,19.5C1597.3,2336.2,1597.1,2339.2,1596.9,2342.2z"/>
		<path class="st0" d="M1696.8,2613.3c-10.1,18.9-17.6,35.4-27.4,50.4c-4.8,7.4-13.4,16.1-21.1,17c-23.8,2.8-42,14.9-60.1,28.5
			c-19.3,14.5-36.8,33.6-58.4,42.1c-33.5,13.1-44.5,45.5-68,66.6c-1.2,1.1-3.5,0.9-10.3,2.6c-5.2-11.6-10.7-24-16.2-36.4
			c1.4-0.7,2.9-1.4,4.4-2.1c-8.2-6-16.4-12.1-27.9-20.5c49.1-11.5,38.6-61.1,69.3-88.4c-14.6-11.1-25.4-21.3-37.9-28.5
			c-20.7-12-24.6-32.7-29.4-52.7c-2.1-8.7,37.2-59.4,45.3-58c29.1,5.2,60.3-10.6,88.1,9.9c11.9,8.8,25.6,16.1,39.7,20.5
			c10.6,3.3,13.2,9.4,18.3,17.8c11.6,19.2,33.1,20.9,53.1,19.2C1675.7,2600,1689,2605.4,1696.8,2613.3z"/>
		<path class="st1" d="M1596.9,2342.2c0.2-3,0.5-6,0.7-8.9c1.5,2.1,2.9,4.3,4.4,6.4C1600.3,2340.5,1598.6,2341.4,1596.9,2342.2z"/>
		<path class="st1" d="M1549.2,2239.6c-0.8-1.4-1.7-2.7-2.6-4.1C1547.5,2236.9,1548.3,2238.2,1549.2,2239.6z"/>
		<path class="st2" d="M2090.8,2423c2.3-6.6,4.9-13.9,6.4-18.1c7.7,2,10.9,2.2,11.1,3c6,25.9,36.4,22.8,53.7,39.6
			c-32.5,9.9-55.2,7.9-84.5-6c-7.8,3-16.5,6.3-26.5,10.1c-15.8-20.1-37.7-25.8-62.5-25.5c-18.2,0.2-36.5-1.8-57.3-3
			c37.5-43.3,74.9-41.5,115-7.2c1.6-9.2,2.5-14.3,4.3-24.3C2063.4,2401.6,2074.6,2410.3,2090.8,2423z"/>
		<path class="st2" d="M2133.4,2393.8c15.2-5.3,30.5-10.5,45.5-15.7c14.6,12.3,28.6,24.2,42.5,36c-1,1.4-2.1,2.7-3.1,4.1
			c-28.1-5.1-56.3-10.3-84.5-15.4C2133.7,2399.7,2133.6,2396.8,2133.4,2393.8z"/>
		<path class="st2" d="M2253.9,2423.4c0.9-16.7,8.4-23.9,23.3-19.1c4,1.3,9.5,11,8.1,13.6C2277.7,2432.1,2266,2427.1,2253.9,2423.4z
			"/>
		<path class="st0" d="M2386.5,1969.2c-23.6-17.9-26.4-27.1-14.2-47.1C2393.4,1936,2397.2,1948.7,2386.5,1969.2z"/>
		<polygon class="st0" points="2731.8,1731.8 3064.1,1744.4 2977.3,1838.6 2821.6,1847.5 		"/>
	</g>
	<g>
		<path d="M1266.6,2005.6h-11.3c-18.7,0-32.9-9.9-42.5-29.6c-27.5,26.5-68.6,39.8-123.2,39.8c-32.3,0-55.7-6.9-70.2-20.7
			c-13.8-13-20.7-33.4-20.7-61.2c0-11.9,1.7-23.8,5-35.8c4-14.8,9.2-22.3,15.8-22.3c7.2,0,11.1,5.6,11.7,16.8
			c0.8,14.7,4.2,25.2,10.1,31.3c10.8,11.2,32.3,16.8,64.4,16.8c34,0,61.9-4.5,83.6-13.5c14.2-5.9,26.3-14.4,36.5-25.3
			c8.6-9,13.9-13.5,15.9-13.5c6.1,0,9.1,3.8,9.1,11.3c0,2.4-1,6.4-2.9,12.1c-1.9,5.7-3.6,9.6-5,11.7c2.4,3,6.7,4.4,13,4.4h10.8
			L1266.6,2005.6L1266.6,2005.6z M1159.3,1836c1.6,1.3,1.6,2.6,0,4.1l-20.4,20c-1.5,1.5-3,1.5-4.4,0l-19.2-18.7l-19,18.7
			c-1.3,1.6-2.7,1.6-4.4,0l-20.4-19.9c-1.6-1.6-1.4-3.4,0.5-5.3l18.7-19c1.7-1.7,3.5-1.7,5.3,0l19.4,18.3l17.8-18.3
			c1.8-1.8,3.7-1.8,5.5,0L1159.3,1836z"/>
		<path d="M1441.7,1915.1c0,20-3,38.5-9.1,55.5c-8.4,23.4-20.8,35.1-37,35.1c-6.6,0-13.4-2.5-20.2-7.5c-5.8-4.3-10.4-9.4-13.9-15.1
			c-6.6,14.8-15.9,22.3-27.8,22.3c-16.6,0-27.7-7.6-33.4-22.8c-7,15.5-17.1,23.3-30.5,23.3h-13.4v-77.3h13c7.9,0,13.5-3.2,16.8-9.6
			c1.8-5.9,3.7-12,5.7-18.2s5.4-9.3,10.4-9.3c5.4,0,8.9,3.2,10.6,9.6c1.7,5.9,3.4,11.9,5,18c3.2,6.4,9.2,9.6,18.2,9.6
			c6.6,0,11.1-3.3,13.4-9.8c1.3-5.9,2.6-11.9,3.9-18c1.8-6.5,5.6-9.8,11.3-9.8c5.1,0,8.6,3.4,10.3,10.3l4.4,19
			c3.2,6.8,9.2,10.3,18,10.3c10.6,0,15.9-3.8,15.9-11.5c0-4.3-1-9-2.9-14.1c-1.8-4.1-3.6-8.2-5.3-12.3l22.1-24.3
			c2.4-2.6,4.2-2.5,5.3,0.5C1438.6,1884,1441.7,1899.3,1441.7,1915.1z"/>
		<path d="M1546.8,1916.3c0,11-1.7,24.5-5.1,40.6c-3.2,15.4-6.6,26.9-10.1,34.4c-4.8,10.1-9.3,15.1-13.5,15.1
			c-4.6,0-8.5-6.1-11.8-18.3c-4.7-17.4-14.6-76.8-29.8-178.3l51.7-56.4c3.3-3.5,5.5-5.3,6.5-5.3c0.9,0,1.7,1.6,2.4,4.8
			c5,22.3,8.1,49.4,9.2,81.4C1546.7,1844.9,1546.8,1872.2,1546.8,1916.3z"/>
		<path d="M1967.5,2005.6h-11.3c-18.7,0-32.9-9.9-42.5-29.6c-27.5,26.5-68.6,39.8-123.2,39.8c-32.3,0-55.7-6.9-70.2-20.7
			c-13.8-13-20.7-33.4-20.7-61.2c0-11.9,1.7-23.8,5-35.8c4-14.8,9.2-22.3,15.8-22.3c7.2,0,11.1,5.6,11.7,16.8
			c0.8,14.7,4.2,25.2,10.1,31.3c10.8,11.2,32.3,16.8,64.4,16.8c34,0,61.9-4.5,83.6-13.5c14.2-5.9,26.3-14.4,36.5-25.3
			c8.6-9,13.9-13.5,15.9-13.5c6.1,0,9.1,3.8,9.1,11.3c0,2.4-1,6.4-2.9,12.1c-1.9,5.7-3.6,9.6-5,11.7c2.4,3,6.7,4.4,13,4.4h10.8
			L1967.5,2005.6L1967.5,2005.6z M1860.2,1836c1.6,1.3,1.6,2.6,0,4.1l-20.4,20c-1.5,1.5-3,1.5-4.4,0l-19.2-18.7l-19,18.7
			c-1.3,1.6-2.7,1.6-4.4,0l-20.4-19.9c-1.6-1.6-1.4-3.4,0.5-5.3l18.7-19c1.7-1.7,3.5-1.7,5.3,0l19.4,18.3l17.8-18.3
			c1.8-1.8,3.7-1.8,5.5,0L1860.2,1836z"/>
		<path d="M2066.5,2005.6h-13.2c-16.4,0-29.2-7.6-38.2-22.8c-8.9,15.2-22.4,22.8-40.6,22.8h-16.8v-77.8h10.8
			c12.2,0,20.7-3.7,25.5-11c1.1-1.8,3.4-8.5,6.8-20c2.2-7.3,6.1-11,11.8-11c5.4,0,8.9,3.7,10.6,11c2.5,11.4,4.4,18.1,5.7,20
			c4.2,7.3,12.3,11,24.3,11h13.2L2066.5,2005.6L2066.5,2005.6z M2040.6,2055.6c1.6,1.5,1.5,3.1-0.2,4.8l-22.9,22.9
			c-1.6,1.6-3.2,1.6-5,0l-23.3-22.6c-1.9-1.8-1.8-3.9,0.5-6.2l21.4-21.6c1.9-1.9,3.9-1.9,5.8,0L2040.6,2055.6z"/>
		<path d="M2279.6,2005.6H2246c-30.8,0-50.9-17.6-60.3-52.8c-12.6,16.7-29.4,29.8-50.4,39.2c-19.9,9-40.5,13.5-62,13.5h-17.1v-77.8
			h29.6c33.2,0,62.2-5.9,87-17.8c-29.6-8.9-48.3-13.4-56.2-13.4c-8,0-14.6,3-19.9,9.1c-5.3,6.1-10.2,9.1-14.9,9.1
			c-6.5,0-9.8-4.7-9.8-14.1c0-10.3,4.4-23.2,13.2-38.7c11.3-20,25.1-30,41.3-30c7.8,0,24.2,4.4,49.3,13.2
			c25.1,8.8,46.3,13.2,63.6,13.2h19.7c4.1,0,6.2,0.9,6.2,2.6c0,0.9-0.5,2.8-1.4,5.8l-16.6,52.4h-31.9c5.2,5.7,16,8.6,32.4,8.6h31.7
			L2279.6,2005.6L2279.6,2005.6z"/>
		<path d="M2408.6,1951.8c0,16.6-5.5,30.1-16.6,40.6c-10.1,9.6-21.6,14.4-34.8,14.4c-18.7,0-34-9-45.7-27.1
			c-7.9,17.2-18.4,25.9-31.5,25.9h-11v-77.8h5.6c14.4,0,21.9-4.5,22.4-13.5c0.7-12,4.1-22.5,10.1-31.5c9-13.7,22.6-20.6,40.8-20.6
			c21.6,0,37.9,11.4,48.8,34.3C2404.6,1913.1,2408.6,1931.6,2408.6,1951.8z M2381.5,1937.9c0-9.5-2.5-18.3-7.5-26.6
			c-5-8.2-10.1-12.3-15.2-12.3c-3.3,0-6.1,1.3-8.5,4s-3.5,5.8-3.5,9.3c0,8.6,1.9,17,5.6,25.3c4.9,10.5,11.4,15.8,19.5,15.8
			C2378.3,1953.5,2381.5,1948.3,2381.5,1937.9z"/>
		<path d="M2631.5,1916.3c0,11-1.7,24.5-5.1,40.6c-3.2,15.4-6.6,26.9-10.1,34.4c-4.8,10.1-9.3,15.1-13.5,15.1
			c-4.6,0-8.5-6.1-11.8-18.3c-4.7-17.4-14.6-76.8-29.8-178.3l51.7-56.4c3.3-3.5,5.5-5.3,6.5-5.3c0.9,0,1.7,1.6,2.4,4.8
			c5,22.3,8.1,49.4,9.2,81.4C2631.4,1844.9,2631.5,1872.2,2631.5,1916.3z"/>
		<path d="M2853,2005.6h-14.9c-21.8,0-39.7-14.2-53.6-42.5c-9.7,17.4-18.7,29.4-27.1,36.1c-10.1,8.1-22.8,12.2-38.4,12.2
			c-34.9,0-52.4-20.5-52.4-61.5c0-8.7,1.3-18,3.8-28.1c3.4-13.8,8.2-20.7,14.2-20.7c6.2,0,10.3,3.1,12.3,9.4
			c3.2,10.5,5.2,16.3,6.2,17.5c4.4,6.3,12.8,9.4,25,9.4c7.9,0,15.9-1.2,24.1-3.6c9.8-3,14.7-6.5,14.7-10.6c0-0.8-0.2-1.6-0.5-2.2
			l-28.4-68l38-38.4c1.8-1.8,3.2-2.7,4.1-2.7c0.8,0,1.7,1.4,2.7,4.1l32.2,88.6c5.6,15.5,13.9,23.3,25,23.3h12.9V2005.6z"/>
		<path d="M3053.6,1899l-19.5,46.1c-18.5-0.3-33.2,2.1-44,7.2c-4.3,2.1-13,8.4-26,18.9s-24.9,18.3-35.6,23.2
			c-16.3,7.4-34.4,11.1-54.1,11.1h-31.4v-77.8h39.2c35.3,0,61.4-3.2,78.3-9.6c-11.3-4.7-22.7-9.4-34.1-14.2
			c-12.3-4.9-21-7.4-25.9-7.4c-5.7,0-11.7,2.4-18,7.2c-6.3,4.8-10.7,7.2-13.2,7.2c-6.5,0-9.8-3.8-9.8-11.3c0-8.2,5.5-20,16.4-35.3
			c13.7-18.9,28.8-28.4,45.2-28.4c11.5,0,25.9,5.4,43.2,16.3c22.3,13.9,38,22.6,47.1,25.9c8.1,2.8,21,6.2,38.7,10.1
			c3.5,0.8,5.3,2.2,5.3,4.3C3055.5,1893.9,3054.9,1896,3053.6,1899z M2973.3,1776.5c1.6,1.5,1.5,3.1-0.2,4.8l-22.9,23.1
			c-1.6,1.6-3.3,1.6-5,0l-23.3-22.8c-1.7-1.7-1.5-3.7,0.5-5.8l21.4-21.9c1.8-1.9,3.8-1.9,5.8,0L2973.3,1776.5z"/>
	</g>
</g>
</svg>
