<?xml version="1.0" encoding="utf-8"?>
<!-- Generator: Adobe Illustrator 27.7.0, SVG Export Plug-In . SVG Version: 6.00 Build 0)  -->
<svg version="1.1" id="Layer_1" xmlns="http://www.w3.org/2000/svg" xmlns:xlink="http://www.w3.org/1999/xlink" x="0px" y="0px"
	 viewBox="0 0 3500 3500" style="enable-background:new 0 0 3500 3500;" xml:space="preserve">
<style type="text/css">
	.st0{fill:#1798DE;}
</style>
<g>
	<path class="st0" d="M750.5,1540.9c-8.6,0-16,0-23.5,0c-117.2,0-234.5,0-351.8,0c-5,0-10,0.2-15-0.1c-19.2-0.9-28.4-10.2-29.1-29.4
		c-1-29.9,4.7-58.9,16-86.3c38.5-93.5,125.5-151.4,226.4-151.6c136.1-0.1,272.1-0.1,408.2,0.2c8.4,0,17.7,1.3,25.1,4.9
		c10.4,5.1,13.4,15.4,13.2,27.1c-0.4,30.7-0.1,61.4-0.1,92.2c0,121,0.6,242-0.2,363c-0.6,91.3-41.1,161.2-118.7,208.9
		c-40,24.6-84.8,33-131.4,33c-149.2-0.1-298.5,0-447.7,0c-8,0-16.1,0-26.4,0c-0.6,9-1.6,16.2-1.6,23.4
		c-0.1,55.2,0.1,110.3-0.2,165.5c0,7.3-1,15.3-4,21.7c-5.6,11.8-17,13.1-28.9,13.1c-50.2-0.2-100.3-0.1-150.5-0.1
		c-25.1,0-50.2,0.1-75.2,0c-26.6-0.1-34.9-8.2-35-34.7c-0.1-90.9,0-181.8,0-272.8c0-51.4-0.3-102.8,0.1-154.2
		c0.9-121.4,95.2-223.9,215.9-235c15.6-1.4,31.3-2.6,46.9-2.2c21,0.6,30.7,10.9,30.9,32c0.3,49.5,0.1,99.1,0.1,148.6
		c0,4.4-0.2,8.8,0.1,13.2c0.8,13.2,2.1,14.4,15.9,15.2c2.5,0.2,5,0.1,7.5,0.1c106,0,211.9,0.2,317.9-0.1c33.1-0.1,63.2-9,86.6-34.2
		c17.6-19,29.5-41,30.9-66.9c1.5-28.1,0.4-56.4,0.3-84.6C753.1,1548.6,751.9,1546.3,750.5,1540.9z"/>
	<path class="st0" d="M1607.8,1542.2c-9.8-0.5-16.5-1.1-23.2-1.2c-40.1-0.1-80.3-1-120.4,0.3c-27.7,0.9-38.9-15.8-36.6-38
		c4.1-38.9,12.7-76.2,33.4-110.5c37.1-61.6,91-98.9,160.6-113.8c16.4-3.5,33.5-5,50.3-5c232-0.3,463.9-0.2,695.9-0.2
		c6.9,0,14.1-0.4,20.5,1.4c11.3,3.2,17.2,12.1,19.1,23.4c0.8,4.9,0.5,10,0.5,15c0,148.6,0,297.2,0,445.8
		c0,68.6-23.4,127.8-72.8,175.5c-40,38.6-87.5,62.1-143.9,65.6c-13.1,0.8-26.2,2.4-39.4,2.3c-28.8-0.1-36.8-8.4-36.9-36.9
		c0-130.4,0-260.8,0-391.2c0-3.8,0-7.5,0-11.3c-0.1-22.3-0.1-22.4-21.5-22.4c-56.4-0.1-112.8-0.1-169.3,0c-23,0-23.3,0.3-23.3,23
		c-0.1,128.5,0,257.1,0,385.6c0,5,0,10,0,15.1c-0.1,31.5-6.7,38.2-38.9,38.3c-54.6,0.2-109.1,0.1-163.6,0.1
		c-17.6,0-35.1,0.3-52.7-0.1c-29.5-0.6-37.7-9-37.7-38.7c-0.1-131.7,0-263.3,0-395C1607.8,1561.1,1607.8,1553,1607.8,1542.2z"/>
	<path class="st0" d="M2886.9,2003c-120.9,0-241.9,0-362.8,0c-40.2,0-47.1-7-47.1-46.8c0-61.4-0.7-122.8,0.2-184.2
		c0.8-56,16.5-107.4,51.9-151.7c42.8-53.5,98.3-84.1,166.8-90.4c14.9-1.4,30-2.6,44.9-1.9c20.7,0.9,29.1,10.2,29.2,31.1
		c0.3,50.1,0.1,100.2,0.1,150.4c0,5,0.1,10,0.2,15c0.2,8.5,4.8,12.4,13.1,12.4c5.6,0,11.3,0.1,16.9,0.1c218.1,0,436.1,0,654.2,0
		c5.6,0,11.3-0.2,16.9,0.1c20.2,0.9,28,8.9,28.5,29c2.1,92.7-58.1,181.4-147.4,218.7c-33.7,14.1-68.9,18.1-104.7,18.2
		C3127.5,2003.2,3007.2,2003,2886.9,2003z"/>
	<path class="st0" d="M3105.4,1541c-85.8,0-171.7,0-257.5,0c-5,0-10,0.2-15-0.1c-18.4-1.2-29-11.6-28.6-30.2
		c0.6-30.9,5.6-61.4,18.6-89.5c44.7-96.4,121.1-145.9,227.1-147.2c105.2-1.3,210.5-0.3,315.8-0.3c4.4,0,8.8-0.2,13.1,0.1
		c18.3,1.3,28.8,11.6,29.5,29.9c0.6,15.6,0.2,31.3,0.2,47c0,51.4,0.1,102.8,0,154.1c-0.1,26.6-9.5,36.1-36.2,36.2
		C3283.4,1541.1,3194.4,1541,3105.4,1541z"/>
	<path class="st0" d="M1396.2,1762.9c0,65.1,0,130.2,0,195.4c0,5,0.2,10-0.1,15c-1,17.9-9,26.2-27,26.7c-17.5,0.5-35.1,0.2-52.6,0.2
		c-59.5,0-119,0.1-178.5,0c-26.1,0-34.7-8.7-34.8-34.9c-0.1-67-0.2-134,0.1-201c0.5-113.3,82.6-212.7,193.9-233.2
		c22.6-4.2,46-4,69.1-4.4c21.2-0.3,29.6,8.5,29.8,29.7c0.3,36.9,0.1,73.9,0.1,110.8C1396.2,1699,1396.2,1731,1396.2,1762.9z"/>
</g>
</svg>
