<?xml version="1.0" encoding="utf-8"?>
<!-- Generator: Adobe Illustrator 27.7.0, SVG Export Plug-In . SVG Version: 6.00 Build 0)  -->
<svg version="1.1" id="Layer_1" xmlns="http://www.w3.org/2000/svg" xmlns:xlink="http://www.w3.org/1999/xlink" x="0px" y="0px"
	 viewBox="0 0 3500 3500" style="enable-background:new 0 0 3500 3500;" xml:space="preserve">
<style type="text/css">
	.st0{fill:#C3C3C3;}
</style>
<g>
	<path class="st0" d="M452.4,2947.9c-2,2.2-4.3,2.3-6.9,0.4c-65.5-47.9-126.1-101.2-181.9-160C162.1,2681.2,90.8,2557.4,50,2416.8
		c-8-27.5-15.6-57-22.9-88.3c-3.9-16.6-6-33.1-6.4-49.4c-2.5-99.6-2.8-197-1-292.1c0.1-2,1.1-3.1,3.2-3.1l8.1-0.1
		c2.7,0,4.2-1.4,4.5-4c8.7-67.3,25.2-133.7,49.5-199.4c58.2-157.2,136.8-304.4,235.7-441.6c216.2-299.7,487.5-556.3,792.6-771.5
		c187.6-132.4,371.9-241.8,578.3-327.8c75.8-31.6,155.2-57.2,238.4-76.9c16.3-3.8,31.5-2.7,47.7-2.7c0.9,0,1.7,0.8,1.7,1.8
		c0,0,0,0,0,0l-0.3,1271.8c0,5.9-4,11-9.7,12.5c-11.3,2.9-23.1,4.5-35.6,4.9c-27.6,0.9-55.8,1.6-83.4,5.2
		c-310.6,40.2-609.6,144.3-862.6,324.3c-63.8,45.4-115,94.4-167.7,151.3c-144,155.4-203,339.7-176.8,552.8
		c3.8,30.8,9.1,58.3,16,82.6c16,56.3,44.1,107.9,74.1,159.4c27.3,46.9,55.8,83.7,96.3,119.2c16.8,14.7,32.4,31,46.8,48.8
		c3.8,4.7,8.3,9.3,13.4,13.7c107.1,92.1,234.1,167.5,381.1,226.4c194.3,77.8,393.7,135.2,598.4,180.1c23.9,5.2,48,8.7,72.3,10.4
		c6.6,0.5,6.7,1.5,0.2,3c-25,5.8-49.5,12.3-75.7,11.8c-29.4-0.5-58.7-0.5-87.9,0c-12.9,0.2-26.4-1.4-40.7-4.6
		c-14-3.2-27.9-5.7-41.6-7.3c-71.4-8.6-149.3-14.4-222.9-24.8c-208.5-29.6-412.7-79.6-612.6-149.8c-85.3-30-169.6-68.7-252.8-116
		c-2-1.1-3.7-0.8-5.2,1.1l-5.7,7.6c-1.2,1.5-2.5,1.7-4,0.5c-38.9-30.4-81.2-58.2-127-83.3c-1.4-0.8-2.3-1.9-2.7-3.5
		c-1.2-4.6-3.7-8.6-7.3-12C454.5,2946.7,453.4,2946.8,452.4,2947.9z"/>
	<path class="st0" d="M2735.6,1888.5l-8.7,1.7c-2.3,0.5-3.7-0.5-4.1-2.8c-23.8-126.1-147-233.8-262.8-276.1
		c-2.2-0.8-2.9-2.4-2.1-4.6l3.3-8.5c0.7-1.9,0.2-3.3-1.7-4.2c-131.3-59.8-266.2-103.7-404.8-131.5c-1.7-0.3-2.8-2-2.5-3.7
		c0,0,0,0,0,0l0.9-4.3c0.5-2.2,1.8-3,3.9-2.4c11.9,3.1,23.4,5.5,34.6,7.1c47.3,6.7,93.2,11,141.1,19.5
		c209.5,37.6,413.7,100,612.5,187.3c90.6,39.8,179.9,94.2,263.8,148.5c148.5,96,265.2,229.3,325.4,395.9
		c10.4,28.9,24.4,72.5,42,130.9c3.8,12.6,5.5,24.3,5.1,35.1c-0.6,17.9-0.6,36.7,0,56.3c0.3,9.7-0.9,19.4-3.6,29.2
		c-19.3,70.7-35.1,140.5-69.3,206.7c-34.5,66.9-76.5,127.8-125.8,182.4c-14.8,16.4-31.5,32.6-50.2,48.4
		c-62.5,53.3-127.4,100.5-194.6,141.6c-64.1,39.3-141.1,77.5-231.1,114.8c-205.3,85.1-423.6,144.6-654.8,178.6
		c-28.2,4.2-54.7,6.1-79.6,5.7c-31-0.4-60.1-0.5-87.4-0.1c-0.6,0-1.2-0.5-1.2-1.1c0,0,0,0,0,0V2611c0-2.2-1.1-3.5-3.3-3.9l-9.5-1.6
		c-1.6-0.3-2.3-1.2-2-2.8l10.3-60c0.3-1.8,1.3-2.6,3.2-2.2c7,1.4,14.2,1.4,21.5-0.1c189.2-39.8,376.4-104.9,539.6-209.5
		c66.5-42.5,124.8-97.9,165.3-163.8c51.5-83.8,59.2-179.4,30.7-276.2C2738.9,1888.9,2737.6,1888.1,2735.6,1888.5z"/>
	<path class="st0" d="M1573.2,1885.7c1.4-5.5,3-11.2,4.6-17c33.1-117.5,118.5-210.3,227.6-261.7c38.7-18.3,81.5-28.8,128.3-31.5
		c16.7-1,31.6-4.4,46.9-10c5.2-1.9,10.8-2.2,16.7-0.9c41.2,9.6,82.2,13.2,121.7,26.4c61.4,20.5,121,51.8,168.3,94.1
		c60.1,53.7,98.5,139.6,112.9,217.7c5.2,28.3,12.9,55.9,23,83.2c1.7,4.5,1.6,9.5-0.3,13.9c-6.1,14.1-12.4,28.6-14.4,44
		c-15.7,122.3-70.4,222.8-170.1,295.2c-105.1,76.2-222.1,99.7-351,70.4c-2-0.5-3.4,0.3-3.9,2.3l-2.5,8.4c-0.6,2.1-1.9,2.7-3.9,2
		c-66.5-23.8-126.2-57.3-179.2-100.5c-5-4.1-5.6-8.9-8-14.5c-5.2-12-14.2-18.1-27-18.3c-1.9,0-3.1-1-3.6-2.9l-0.9-4.4
		c-0.3-1.5-1-3-2-4.1c-95.6-110.5-121.2-246.1-99.1-389.1c0.3-1.8,1.3-2.5,3.1-2.2l9.6,1.6
		C1571.6,1888.2,1572.7,1887.5,1573.2,1885.7z"/>
</g>
</svg>
