<?xml version="1.0" encoding="utf-8"?>
<!-- Generator: Adobe Illustrator 27.7.0, SVG Export Plug-In . SVG Version: 6.00 Build 0)  -->
<svg version="1.1" id="Layer_1" xmlns="http://www.w3.org/2000/svg" xmlns:xlink="http://www.w3.org/1999/xlink" x="0px" y="0px"
	 viewBox="0 0 3500 3500" style="enable-background:new 0 0 3500 3500;" xml:space="preserve">
<style type="text/css">
	.st0{fill:#FFFFFF;}
	.st1{fill:#CA3AD6;}
	.st2{fill:#E8E8E8;}
	.st3{fill:#9E9D9E;}
	.st4{fill:#D9D1DB;}
	.st5{fill:#A3A3A3;}
	.st6{fill:#E0E0E0;}
	.st7{fill:#A8ACB2;}
	.st8{fill:#EAEAEA;}
	.st9{fill:#BDC3C9;}
	.st10{fill:#C6C4C6;}
	.st11{fill:#E5E5E5;}
	.st12{fill:#A5A5A5;}
	.st13{fill:#BACECD;}
	.st14{fill:#D9D7DB;}
	.st15{fill:#DBD5E0;}
	.st16{fill:#9AA1A8;}
	.st17{fill:#A1A7AF;}
	.st18{fill:#AFAFAF;}
	.st19{fill:#959AA0;}
	.st20{fill:#D8D8D8;}
	.st21{fill:#ADACAD;}
	.st22{fill:#E8DFEA;}
	.st23{fill:#B2B2B2;}
	.st24{fill:#939393;}
	.st25{fill:#A7A7A8;}
	.st26{fill:#C1C1C1;}
	.st27{fill:#7F7F7F;}
	.st28{fill:#DDDDDD;}
	.st29{fill:url(#SVGID_1_);}
	.st30{fill:#F4F4F4;}
	.st31{fill:#E6E7E8;}
</style>
<g>
	<g id="Objects">
		<g>
			<g>
				<path class="st0" d="M60.4,1855.3c-18.7-10.6-33.5-25.2-44.2-43.7c-10.8-18.6-16.1-39-16.1-61.6s5.2-43.2,15.8-61.8
					c10.6-18.6,25-33.1,43.6-43.7c18.4-10.6,38.9-15.8,61.6-15.8s39.9,4.7,58,14.2c17.9,9.5,33,23.2,45.3,41.1l-37,26.4
					c-16.8-25.5-39-38.4-66.3-38.4s-38.9,7.3-52.4,21.9c-13.7,14.6-20.5,33.3-20.5,56s6.9,41.5,21,56c13.9,14.6,31.6,21.9,53.1,21.9
					s33.5-4.7,45.1-13.9c11.5-9.2,18.6-20.6,21.5-34.2h-71.3v-40.4h118.7c0.5,5,0.9,11.5,0.9,18.9c0.2,60.4-42.9,113.1-114.9,113
					C99.7,1871.2,79.1,1865.8,60.4,1855.3L60.4,1855.3L60.4,1855.3z"/>
				<path class="st0" d="M278.7,1867.8v-235.6h167.6v40.6H325.5v54.3h104.8v40.6H325.5v59.7h123.4v40.4H278.7z"/>
				<path class="st0" d="M492.2,1867.8v-235.6h49.6l76,156.9l75.8-156.9h49.6v235.6h-46.8v-144.5L632.9,1852h-30.4L539,1723.3v144.5
					h-46.9l0,0H492.2z"/>
			</g>
			<rect x="1245.7" y="1629.9" class="st1" width="11.1" height="237.1"/>
			<path class="st1" d="M1523.7,1749.9c4.5,9.4,9.4,17.5,12.4,26.2c12.7,36.6-9.8,79.2-47.2,89.3c-7.1,1.9-14.6,2.9-21.9,2.9
				c-31.5,0.3-63,0.1-94.5,0.1c-9.9,0-12.2-2.3-12.2-12.5c0-56.9,0-113.8,0-170.7v-39.4c0-1.7,0-3.5,0-5.2c0.6-6.4,3.2-8.9,9.7-9
				c5.2-0.1,10.5,0,15.8,0c28.2,0,56.4-0.2,84.7,0.1c31.2,0.3,59.4,22.6,67,53c5.8,23.1,2.4,44.6-12.8,63.6
				C1524.2,1749,1523.7,1749.7,1523.7,1749.9L1523.7,1749.9L1523.7,1749.9z M1414.2,1819.4c1.4,0.2,2,0.3,2.7,0.3
				c15.3,0,30.6,0,45.9,0c16.9,0,27.6-15,22.3-31.1c-2.7-8.4-7.6-12-16.4-12c-16.4,0-32.8,0-49.2,0c-1.7,0-3.4,0.2-5.3,0.3V1819.4
				L1414.2,1819.4L1414.2,1819.4z M1414.2,1725.2c18.6,0,36.6,0,54.7,0c1.4,0,3-0.7,4.3-1.3c9.7-4.4,14.6-14.1,12.6-24.8
				c-1.8-9.5-10.9-17-21.2-17.1c-15.5-0.1-31,0-46.5,0c-1.2,0-2.5,0.2-4,0.4L1414.2,1725.2L1414.2,1725.2L1414.2,1725.2z"/>
			<path class="st1" d="M1685.2,1629c62.9-1.2,120.9,50.4,120.9,120.7c0,67.3-53.3,121-120.9,121c-69.5,0-120.8-56.8-120.6-121.2
				C1564.8,1681.4,1621.3,1628.1,1685.2,1629L1685.2,1629L1685.2,1629z M1617.9,1747.3c0.2,18.4,3.8,32,11.1,44.5
				c25,43,81.3,43.6,108.1,7c16.7-22.8,19.7-48.1,11-74.7c-12.2-37.4-55.1-56.2-90.5-39.3c-27.6,13.2-38.6,37.1-39.8,62.5l0,0
				H1617.9z"/>
			<path class="st1" d="M2296.3,1720.3c4.4-7.1,8.5-13.7,12.6-20.3c12.1-19.7,24.4-39.3,36.3-59.2c3.9-6.5,8.5-9.6,16.4-9.2
				c11.8,0.7,23.6,0.1,35.4,0.2c9.6,0,12.9,6,7.9,14.2c-26.2,42.8-52.5,85.7-78.8,128.5c-2.1,3.5-3.2,6.9-3.2,11
				c0.1,23.2,0,46.4,0,69.6c0,2.4-0.2,4.8-0.7,7.1c-0.9,4.1-3.6,6.4-7.9,6.4c-12.2,0-24.5,0.1-36.7,0c-5.4,0-8.3-3.2-8.4-8.8
				c-0.2-7,0-14,0-21c0-16.8-0.2-33.7,0.1-50.5c0-5.5-1.3-10.1-4.1-14.7c-25.5-41.5-50.9-83-76.3-124.6c-0.9-1.5-1.9-3-2.7-4.5
				c-3.3-6.1,0-12.3,6.9-12.4c14.2-0.2,28.4,0,42.7,0c5.1,0,7.7,3.5,10.1,7.3c9.9,16,19.7,32,29.6,48c6,9.7,11.9,19.4,17.9,29
				c0.8,1.3,1.8,2.4,3.1,4.2l0,0L2296.3,1720.3z"/>
			<path class="st1" d="M1895.9,1819.7h100.2c10.8,0,13.2,2.4,13.2,12.9c0,8.5,0,17.1,0,25.6c0,7.7-2.7,10.3-10.2,10.3
				c-49,0-98,0-147,0c-7.3,0-9.8-2.5-9.8-9.9c0-72.4,0-144.8,0-217.2c0-7,2.5-9.6,9.4-9.6c11.4-0.1,22.7-0.1,34.1,0
				c6.7,0,9.5,2.7,9.9,9.5c0.1,2,0,3.9,0,5.9v172.5l0,0L1895.9,1819.7z"/>
			<path class="st1" d="M2096.7,1819.7h28c24.5,0,49,0,73.5,0c9.4,0,12.2,2.8,12.2,12c0,8.8,0,17.5,0,26.3c0,8-2.7,10.6-10.6,10.6
				c-48.6,0-97.1,0-145.7,0c-8.4,0-10.6-2.1-10.6-10.4c0-72,0-144,0-215.9c0-8.3,2.2-10.4,10.6-10.4c10.3,0,20.6,0,30.9,0
				c9.6,0,11.7,2,11.7,11.4c0,15.1,0,30.2,0,45.3L2096.7,1819.7L2096.7,1819.7L2096.7,1819.7z"/>
			<path class="st1" d="M2636.8,1751.2c6.1-18.3,11.9-35.4,17.6-52.6c6.3-18.8,12.4-37.7,18.7-56.5c2.8-8.4,5.6-10.4,14.4-10.4
				c10.9,0,21.9,0,32.8,0c8.6,0,11.6,4.6,8.9,12.8c-23.8,71.6-47.6,143.2-71.5,214.7c-0.9,2.8-2.2,5.9-4.3,7.8
				c-5.7,5.1-13.5,3.1-17.4-4.3c-5.4-10.2-10.5-20.6-15.7-30.9c-11.1-22-22.2-44.1-33.4-66c-1.5-3-2.5-7.9-6.4-7.1
				c-2.5,0.5-4.8,4.6-6.3,7.5c-16,31.3-31.8,62.7-47.7,94c-0.6,1.2-1.1,2.4-1.8,3.5c-2.5,4-6,6.6-10.8,5.9s-8.3-3.3-9.9-8.3
				c-9.8-29.8-19.6-59.6-29.5-89.4c-13-39.1-26.1-78.2-39.1-117.3c-1.2-3.7-2.6-7.4-3.7-11.2c-2-7.1,1.3-11.6,8.7-11.7
				c11.6-0.1,23.2,0,34.8,0c6.9,0,9.9,2,12.2,8.6c5.7,16.5,11.2,33.1,16.7,49.6c6.2,18.6,12.3,37.3,18.5,55.9c0.4,1.2,1,2.3,2.1,4.6
				c2.9-6.5,5.5-12.1,7.9-17.8c11.8-27.5,23.6-54.9,35.4-82.4c4-9.4,13.2-12.6,20.6-6.9c2.3,1.7,4,4.6,5.2,7.3
				c13,30,25.9,60.1,38.8,90.2c1.3,3,2.6,6,4.5,10.4l0,0L2636.8,1751.2z"/>
			<path class="st1" d="M3128.6,1628.9c62.7-1.1,120.8,50.4,120.7,120.8c0,67.3-53.4,121-120.8,121c-69.6,0-120.8-56.9-120.8-121.1
				C3007.7,1681.6,3064.3,1627.7,3128.6,1628.9L3128.6,1628.9z M3061.1,1747.9c0.2,17.8,3.7,31.6,11.3,44.2
				c24.4,41,78.2,44.8,107.3,7.1c17.5-22.6,20.3-48.4,11.5-75.1c-12.2-37.4-55.3-56.2-90.6-39.1c-27.2,13.2-38.3,36.9-39.6,62.9l0,0
				H3061.1z"/>
			<path class="st1" d="M2861.4,1628.9c63.5-1.2,120.5,51.4,120.9,120c0.4,65.8-51.9,121.7-120.7,121.8
				c-68.3,0-120.8-54.8-120.9-120.9C2740.7,1680.2,2798.3,1627.8,2861.4,1628.9L2861.4,1628.9z M2928.7,1750.8
				c0-14.2-2.9-25.6-9.5-37.7c-22.6-41.4-80-46.3-109.2-9.4c-21.8,27.6-21.2,68.7,1.5,97.2c23.9,29.9,67.9,32.5,94.9,5.5
				c15.3-15.3,22.2-34.2,22.2-55.7L2928.7,1750.8z"/>
			<g>
				<g>
					<g>
						<polygon class="st2" points="993.9,1690.4 916,1690.4 928.3,1663.9 						"/>
						<polygon class="st3" points="928.3,1663.9 903.2,1634.9 839.7,1669 870.8,1690.4 						"/>
						<polygon class="st4" points="916,1690.4 928.3,1663.9 870.8,1690.4 						"/>
						<polygon class="st5" points="870.8,1690.4 825.2,1690.4 839.7,1669 						"/>
						<polygon class="st6" points="825.2,1690.4 788.9,1690.4 839.7,1669 						"/>
						<path class="st7" d="M788.9,1690.4c0,0,65.1-55.7,66.1-55.6s-15.3,34.1-15.3,34.1L788.9,1690.4L788.9,1690.4z"/>
						<polygon class="st8" points="855,1634.9 903.2,1634.9 839.7,1669 						"/>
						<polygon class="st9" points="903.2,1634.9 928.3,1663.9 993.9,1634.9 						"/>
						<polygon class="st10" points="993.9,1690.4 1071.8,1690.4 1059.5,1663.9 						"/>
						<polygon class="st11" points="993.9,1634.9 928.3,1663.9 993.9,1690.4 1059.5,1663.9 						"/>
						<polygon class="st0" points="1059.5,1663.9 1084.6,1634.9 1148.1,1669 1117,1690.4 						"/>
						<polygon class="st12" points="1071.8,1690.4 1059.5,1663.9 1117,1690.4 						"/>
						<polygon class="st13" points="1117,1690.4 1162.6,1690.4 1148.1,1669 						"/>
						<polygon class="st14" points="1162.6,1690.4 1198.9,1690.4 1148.1,1669 						"/>
						<path class="st15" d="M1198.9,1690.4c0,0-65.1-55.7-66.1-55.6s15.3,34.1,15.3,34.1L1198.9,1690.4L1198.9,1690.4z"/>
						<polygon class="st0" points="1132.9,1634.9 1084.6,1634.9 1148.1,1669 						"/>
						<polygon class="st16" points="1084.6,1634.9 1059.5,1663.9 993.9,1634.9 						"/>
					</g>
					<g>
						<polygon class="st17" points="916,1690.4 964.6,1810.3 870.8,1690.4 						"/>
						<polygon class="st0" points="870.8,1690.4 936.3,1810.3 993.9,1871.3 964.6,1810.3 						"/>
						<polygon class="st8" points="870.8,1690.4 825.2,1690.4 936.3,1810.3 						"/>
						<polygon class="st18" points="993.9,1871.3 936.3,1810.3 788.9,1690.4 						"/>
						<polygon class="st19" points="825.2,1690.4 788.9,1690.4 936.3,1810.3 						"/>
						<polygon class="st20" points="993.9,1690.4 964.6,1810.3 993.9,1871.3 1023.2,1810.3 						"/>
						<polygon class="st11" points="1071.8,1690.4 1023.2,1810.3 1117,1690.4 						"/>
						<polygon class="st21" points="1117,1690.4 1051.5,1810.3 993.9,1871.3 1023.2,1810.3 						"/>
						<polygon class="st22" points="1117,1690.4 1162.6,1690.4 1051.5,1810.3 						"/>
						<polygon class="st23" points="993.9,1871.3 1051.5,1810.3 1198.9,1690.4 						"/>
						<polygon class="st24" points="1162.6,1690.4 1198.9,1690.4 1051.5,1810.3 						"/>
						<polygon class="st25" points="1071.8,1690.4 1023.2,1690.4 1023.2,1810.3 						"/>
						<polygon class="st2" points="993.9,1690.4 916,1690.4 964.6,1810.3 						"/>
					</g>
					<g>
						<polygon class="st0" points="825.2,1690.4 916,1690.4 903.2,1634.9 						"/>
						<polygon class="st26" points="916,1690.4 993.9,1690.4 1071.8,1690.4 993.9,1634.9 						"/>
						<polygon class="st27" points="1132.9,1634.9 1162.6,1690.4 1198.9,1690.4 						"/>
						<polygon class="st26" points="1071.8,1690.4 1162.6,1690.4 1084.6,1634.9 						"/>
					</g>
					<path class="st28" d="M1162.6,1684.1H796.2c-4.5,3.9-7.4,6.3-7.4,6.3h410.1c0,0-2.9-2.4-7.4-6.3H1162.6L1162.6,1684.1z"/>
					
						<linearGradient id="SVGID_1_" gradientUnits="userSpaceOnUse" x1="1030.9967" y1="-1244.1953" x2="1065.4967" y2="-1220.0953" gradientTransform="matrix(1 0 0 1 0 3000)">
						<stop  offset="0" style="stop-color:#D6D6D6"/>
						<stop  offset="1" style="stop-color:#191919"/>
					</linearGradient>
					<polygon class="st29" points="993.9,1871.3 1080.1,1690.4 1139.8,1690.4 					"/>
				</g>
				<polygon class="st30" points="1023.2,1690.4 993.9,1690.4 1023.2,1810.3 				"/>
				<polygon class="st30" points="993.9,1871.3 993.9,1690.4 964.6,1690.4 				"/>
				<polygon class="st31" points="870.8,1684.1 903.2,1634.9 914.5,1684.1 				"/>
				<polygon class="st31" points="1132.9,1634.9 1084.6,1634.9 1158.4,1684.1 				"/>
			</g>
		</g>
	</g>
</g>
<path class="st1" d="M3291.7,1867.5c-4.7,0-8.6-3.8-8.6-8.6v-219.2c0-4.7,3.8-8.6,8.6-8.6h87.9c16.2,0,32,3.1,47,9.2
	c14.8,6.3,27.8,14.7,38.5,25.1c22.2,21.9,35,52.4,35,83.7s-3.2,31.4-9.4,45.9c-6.4,14.4-15,27.2-25.6,37.8
	c-10.6,10.4-23.5,18.9-38.5,25.2c-14.9,6.2-30.7,9.4-47,9.4L3291.7,1867.5L3291.7,1867.5z M3350,1675.8c-7.2,0-13,5.8-13,13V1810
	c0,7.2,5.8,13,13,13h23.8c20.5,0,37.5-7.3,50.6-21.6c13.1-14.2,19.7-31.8,19.7-52.2s-6.6-38-19.7-52.1
	c-13.2-14.1-30.2-21.3-50.6-21.3H3350z"/>
</svg>
