<?xml version="1.0" encoding="utf-8"?>
<!-- Generator: Adobe Illustrator 27.7.0, SVG Export Plug-In . SVG Version: 6.00 Build 0)  -->
<svg version="1.1" id="Layer_1" xmlns="http://www.w3.org/2000/svg" xmlns:xlink="http://www.w3.org/1999/xlink" x="0px" y="0px"
	 viewBox="0 0 3500 3500" style="enable-background:new 0 0 3500 3500;" xml:space="preserve">
<style type="text/css">
	.st0{fill:#FFFFFF;}
</style>
<polygon class="st0" points="2255.2,1267.6 2255.2,2253.7 2016.4,2253.7 1837.4,1714 1837.4,2253.7 1629.9,2253.7 1629.9,1267.6 
	1871.5,1267.6 2047.7,1791.5 2047.7,1267.6 "/>
<polygon class="st0" points="3305.3,2253.7 3079.2,2253.7 2978.4,2021.3 2877.6,2253.7 2651.5,2253.7 2865.3,1760.7 2652.8,1270.5 
	2878.9,1270.5 2978.4,1500 3077.9,1270.5 3304.1,1270.5 3091.4,1760.7 "/>
<path class="st0" d="M1175.2,2164.4c-222.6,0-403.7-181.1-403.7-403.7S952.6,1357,1175.2,1357s403.7,181.1,403.7,403.7
	S1397.8,2164.4,1175.2,2164.4z M1175.2,1442.5c-175.4,0-318.1,142.7-318.1,318.1s142.7,318.1,318.1,318.1s318.1-142.7,318.1-318.1
	S1350.6,1442.5,1175.2,1442.5z"/>
<path class="st0" d="M1038.8,1632.2V1929c0,35.6,38.7,57.8,69.4,39.9l254.4-148.4c30.5-17.8,30.5-61.9,0-79.8l-254.4-148.4
	C1077.4,1574.3,1038.8,1596.5,1038.8,1632.2z"/>
<path class="st0" d="M666.6,1719.5c61.1-34.1,65.3-92.5,65.3-92.5v-184.4c-1-80.3-66.3-131.8-108.9-156.8
	c-20.4-12-43.5-18.1-67.2-18.1H174.9v986.1h207.4v-432.7c22.5,0.7,58.6,1.1,86.7-0.7c44.1-2.9,55.4,49.7,55.4,49.7v298.4
	c0,39.3,31.8,71.1,71,71.1h136.4v-369.5c0,0,0-39.8-14.2-79.6c-14.2-39.7-89.5-46.9-89.5-46.9s-22.8,10,38.3-24.2L666.6,1719.5z
	 M514.5,1658.3H382.4v-240.1h103.7c42.6,0,38.3,24.3,38.3,24.3v184.4c4.2,28.2-10,31.4-10,31.4L514.5,1658.3z"/>
<path class="st0" d="M524.5,1442.5v184.4C520.2,1598.6,524.5,1442.5,524.5,1442.5z"/>
<path class="st0" d="M656.6,2239.5h75.3v-49.8c0,0,8.2,46.9,39.6,49.8C803,2242.3,656.6,2239.5,656.6,2239.5L656.6,2239.5z"/>
<g>
	<rect x="2371.7" y="1267.6" class="st0" width="207.5" height="130.7"/>
	<rect x="2371.7" y="1458" class="st0" width="207.5" height="795.7"/>
</g>
<path class="st0" d="M3344.3,2451.4H155.7C69.8,2451.4,0,2381.5,0,2295.7V1204.4c0-85.9,69.9-155.7,155.7-155.7h3188.5
	c85.9,0,155.7,69.9,155.7,155.7v1091.3c0,85.9-69.9,155.7-155.7,155.7H3344.3z M155.7,1117.1c-48.1,0-87.3,39.1-87.3,87.3v1091.3
	c0,48.1,39.1,87.3,87.3,87.3h3188.5c48.1,0,87.3-39.1,87.3-87.3V1204.4c0-48.1-39.1-87.3-87.3-87.3L155.7,1117.1L155.7,1117.1z"/>
</svg>
