<?xml version="1.0" encoding="utf-8"?>
<!-- Generator: Adobe Illustrator 27.7.0, SVG Export Plug-In . SVG Version: 6.00 Build 0)  -->
<svg version="1.1" id="Layer_1" xmlns="http://www.w3.org/2000/svg" xmlns:xlink="http://www.w3.org/1999/xlink" x="0px" y="0px"
	 viewBox="0 0 3500 3500" style="enable-background:new 0 0 3500 3500;" xml:space="preserve">
<style type="text/css">
	.st0{fill:#FFFFFF;}
	.st1{fill:#FFC022;}
</style>
<g>
	<g>
		<path class="st0" d="M3341.8,1799.9c12.2-38,24.7-76,36.7-114.2c19.6-62.4,11.6-51.3,69.3-52.8c15.9-0.4,31.8-0.1,52.2-0.1
			c-3.8,14.4-5.6,23.5-8.5,32.2c-33.9,101.7-68.3,203.2-101.8,305.1c-5.6,16.9-13.4,25.5-32.5,24.7c-30.6-1.3-61.4,0.1-92-0.8
			c-6.4-0.2-14.4-4.5-18.3-9.5c-1.8-2.4,3.6-11.6,7.2-16.6c19.9-28.1,40.7-55.4,59.8-84c3.6-5.3,2.6-15.5,0.4-22.5
			c-3.2-10.6-10.3-20.1-13.8-30.6c-19.2-58.1-38.5-116.3-56.3-174.9c-5.4-17.6-13.9-25.1-32.5-24.3c-26.5,1.2-53.1,0.3-83.7,0.3
			c3,12.9,4.3,21,6.8,28.8c31.1,96.6,62.4,193.1,93.5,289.7c8.9,27.7,9.1,28.2-14.3,45.3c-101.1,73.6-210.3,91.7-325.2,38.8
			c-113.2-52.2-174.2-144.9-183.9-268.2c-13.5-171.9,131-325.3,303.8-330.6c142.9-4.4,253.4,78.6,308.1,203.5
			c17.9,40.8,23,84.8,19.9,129.5c-0.7,10.3-1.1,20.7-1.6,31C3337.3,1799.6,3339.5,1799.7,3341.8,1799.9z M2889.4,1526.1
			c0,27,0.2,50.7-0.1,74.5c-0.3,30.7-0.5,31.1-30.1,31.1c-53.5-0.1-48.9-3.4-48.9,50.4c0.1,52.4-5,48.6,47.2,48.8
			c31,0.1,31.6,0.7,31.8,32.7c0.2,34.4-0.9,69,0.4,103.4c2.6,63.5,40.4,113.9,99.7,124c35.9,6.1,73.7,1.1,114.7,1.1
			c0-26.4,0.2-52.9-0.1-79.3c-0.2-13.1-9.8-14.8-20.1-14.9c-17.2-0.2-34.6,0.6-51.7-0.7c-22.1-1.6-33.2-12.7-33.8-34.9
			c-0.9-37.3,0-74.7-0.4-112c-0.2-15.3,7.7-20,21.5-19.8c18.2,0.3,36.4-0.5,54.6,0.2c16.8,0.7,25.5-5.3,23.8-23.2
			c-0.7-7.6-0.1-15.3-0.1-23c-0.2-58.3,5.6-52.9-51.8-52.8c-14.9,0-29.9,0-48.6,0c0-38,0-70.9,0-105.7
			C2960.8,1526.1,2927.7,1526.1,2889.4,1526.1z"/>
	</g>
	<path class="st1" d="M2632.2,1609.4c-3.6,0.2-6.1,0.4-8.7,0.4c-28.1,0-56.2-0.1-84.4,0.1c-6.3,0.1-10.9-1.8-15.3-6.4
		c-16.1-17.2-34.1-31.9-54.6-43.6c-28.8-16.5-59.8-24.8-92.8-26.5c-39.1-2-76.5,4.7-111.3,22.9c-59.8,31.3-98,80.3-113.2,145.8
		c-29.1,125.3,49.3,228.6,143.4,259.7c79,26.1,150.5,10.1,213.1-44.7c2.7-2.4,5.6-4.8,7.9-7.6c4.8-6.1,10.8-7.5,18.3-7.4
		c23.7,0.4,47.5,0.2,71.2,0.2c6.9,0,13.8,0,21.8,0c-0.9,2.8-1.1,4.9-2,6.5c-44.9,73.8-108.6,122.1-193,142.1
		c-34.4,8.1-69.4,10.3-104.5,6.1c-54.9-6.7-104.4-27.1-147.9-61.3c-59.7-46.9-98-107.4-113.7-181.8c-6.8-32.1-7.4-64.5-3.7-97
		c5.4-47.6,20.6-91.9,47-131.9c48.6-73.7,116.4-118.9,203.8-133c75.2-12.1,146.2,0.5,211.4,41.1c41.1,25.6,73.1,60.2,98.9,100.8
		C2626.8,1598.3,2630.2,1602.6,2632.2,1609.4z"/>
	<path class="st1" d="M571.6,1609.3c-3.3,0.2-5.8,0.5-8.3,0.5c-28.5,0-57-0.1-85.5,0.2c-6,0.1-10.2-1.8-14.3-6.2
		c-14-15.1-29.6-28.2-47-39.2c-30.6-19.4-64.2-29.3-100.3-31.2c-39.1-2-76.5,4.5-111.4,22.7c-59.9,31.2-98.1,80.2-113.4,145.6
		c-29.3,125.1,49,229.6,145.1,260.6c78.3,25.3,149.1,9.1,211.1-45.1c1.9-1.7,4.1-3.2,5.6-5.3c6-8.1,13.8-10.3,23.8-10
		c26.3,0.7,52.6,0.2,78.9,0.2c3.5,0,7.1,0.3,11.7,0.4c-1.3,3-1.9,5-3,6.7c-45.1,73.7-108.9,121.8-193.3,141.6
		c-34.1,8-68.7,10.1-103.4,5.9c-54.6-6.5-103.8-26.7-147.1-60.4c-60.6-47.1-99.3-108.2-115-183.5c-6.7-31.7-7.2-63.8-3.6-95.9
		C8.1,1666,25,1619,54.6,1576.9c48.6-69.1,114.6-111.5,198.2-125.1c68-11.1,133.2-1.5,194.4,31c41.4,22,75,53.1,102.4,90.8
		c6.9,9.4,13,19.4,19.3,29.2C570,1604.6,570.5,1606.7,571.6,1609.3z"/>
	<path class="st1" d="M1508.7,1611c-11.9,1.8-77.5,1.6-86.5-0.2c-1.1-5.8-2-11.9-3.5-17.8c-3.8-15.2-10.8-28.7-22.2-39.6
		c-12.9-12.4-28.3-19.1-46.1-20.2c-10.7-0.6-21.1,0.1-31.4,3.4c-28,9-49.5,32.7-53.2,66c-1.2,11.2-0.9,22.6,1.8,33.8
		c3.1,13.4,10.2,24.1,21.2,32.2c8.3,6.1,17.6,10.3,27.2,14c17.1,6.5,34.9,10.4,52.6,15c12,3.1,24,6.3,35.7,10.4
		c57.6,20.4,93.4,61.8,108.8,119.7c26,97.9-34.1,202.5-135.5,226.1c-89.8,20.9-190.4-24.3-217.2-133c-3.4-13.9-5-28-5.8-42.2
		c-0.1-1.4,0.2-2.8,0.4-4.8c9.1-2,18.2-0.8,27.2-1c9.5-0.2,19-0.1,28.5-0.1c9.1,0,18.2,0,27.7,0c2,4.4,2.4,8.7,3.1,12.9
		c2.2,14.2,6.2,27.8,13,40.5c14.7,27.6,37.9,42.7,68.9,45.8c17.7,1.8,35.1,0.4,51.6-6.5c32.2-13.5,51.2-37.6,57.3-71.9
		c2.7-15,1.8-29.8-2-44.5c-3.7-14.3-11.6-25.8-23-35.1c-8-6.5-17-11.3-26.4-15.4c-15.4-6.7-31.7-10.8-47.9-15.3
		c-17.9-5-35.9-9.8-53.5-15.8c-37.2-12.7-65.5-36.3-83.7-71.4c-10.1-19.4-15.9-40.1-17.6-61.7c-2.4-29.5,1.2-58.5,12.9-85.8
		c24.4-56.6,67.8-89,128.3-98.8c24.1-3.9,48.1-3,71.7,3.3c44.1,11.8,76.5,38.4,97.6,78.6c11.4,21.6,17.3,44.9,19.9,69
		C1509,1603.9,1508.7,1607.2,1508.7,1611z"/>
	<path class="st1" d="M1892.2,1610.7c-8.8,1.8-74.3,2.1-86.4,0.4c-0.4-2.2-1-4.6-1.4-7c-1.6-9.8-3.9-19.3-8.4-28.2
		c-13.9-27.6-36-42.3-67.2-42.9c-22.7-0.4-42.3,6.9-58.2,23.3c-13.3,13.6-20.3,30.2-21.5,49.1c-0.6,10.2-0.5,20.4,1.8,30.5
		c3.2,14.3,10.8,25.3,22.7,33.7c8.1,5.7,17.1,9.7,26.4,13.2c17.1,6.5,34.9,10.4,52.6,14.9c11.3,2.9,22.6,5.9,33.6,9.7
		c55.7,19.1,91.4,58.3,108.4,113.5c30.2,98.3-28.2,209.7-135.3,233.1c-65.9,14.4-124.7-1.9-172.3-51.4c-24.7-25.7-38.7-57.2-45.4-92
		c-2.3-11.8-3.4-23.8-3.8-36.3c2-0.6,3.7-1.5,5.3-1.5c25.2-0.1,50.4-0.1,75.6,0c1,0,2.1,0.5,3.8,0.9c0.8,4.4,1.7,9,2.5,13.6
		c2.6,14.5,6.8,28.4,14.1,41.2c14.8,26.1,37.5,40.2,67.1,43.3c15.8,1.7,31.4,0.9,46.5-4.4c35.9-12.7,56.9-37.9,63.3-75.6
		c2.1-12.5,1.5-24.8-0.8-37.1c-3.4-18.5-13.1-33-28.4-43.9c-10.2-7.2-21.4-12.7-33.2-16.5c-14.9-4.8-30.1-8.8-45.1-13.2
		c-16.8-5-33.8-9.3-50.1-15.6c-54.7-21-85.2-62-94.9-118.9c-6-35-1.9-69.3,12.7-101.8c24.6-54.6,67.6-85.6,126.3-95.2
		c26.7-4.4,53.2-3,79.1,5.2c47.2,15,79.2,46.7,97.8,92.2c7.1,17.4,10.9,35.6,12.9,54.1C1892.5,1604.5,1892.2,1607.7,1892.2,1610.7z"
		/>
	<path class="st1" d="M848.8,1879.9c-10.4,15.1-20.8,30.1-31.3,45.3c-34.8,0-69.5,0-104.4,0c-1.3-3.9,1.8-6,3.5-8.4
		c25.9-36.7,51.8-73.4,77.7-110.1c78.7-111.2,157.4-222.5,236.1-333.7c8.7-12.2,5.6-10.4,20.4-10.5c20.1-0.1,40.2-0.1,60.3,0
		c3.6,0,7.1,0.3,10.1,0.4c0.9,1,1.1,1.3,1.3,1.6c0.2,0.3,0.4,0.6,0.4,1c0.1,2.9,0.3,5.8,0.3,8.8c0,190.3-0.1,380.7-0.2,571
		c0,0.7-0.3,1.4-0.5,2.1c-0.1,0.3-0.4,0.6-0.7,0.9c-8.9,1.8-73.5,1.9-83.2-0.1c-1.9-9.2-0.6-18.7-0.9-28c-0.2-9.1-0.1-18.3-0.1-27.4
		c0-9.5,0-19,0-28.5c0-9.1,0-18.3,0-27.4c0-9.5,0-19,0-28.5c0-9.1,0-18.2,0-27.8c-2.7-0.5-4.7-1.2-6.7-1.2
		c-59.2-0.1-118.4,0-177.6,0C852.3,1879.3,851.2,1879.6,848.8,1879.9z M1037.7,1796.3c0-4.9,0-8.5,0-12.1c0-17.2,0-34.3,0-51.4
		c0-37.9,0-75.9-0.1-113.8c0-2.6,1-5.6-1.9-8.3c-3.1,4.3-5.9,8.1-8.6,12c-38,54.4-76,108.9-113.9,163.4c-2.1,3-5.3,5.7-5.3,10.3
		C951.1,1796.3,993.6,1796.3,1037.7,1796.3z"/>
	<path class="st1" d="M687.1,1463.3c0.5,14.4,0.2,28.2,0.3,42c0.1,14.2,0,28.5,0,42.7c0,13.9,0,27.8,0,41.6s0,27.8,0,41.6
		s0,27.8,0,41.6c0,14.2,0,28.5,0,42.7c0,13.9,0,27.8,0,41.6s0,27.8,0,41.6s0,27.8,0,41.6c0,14.2,0,28.5,0,42.7c0,13.9,0,27.8,0,41.6
		c0,13.8-0.1,27.6,0.2,42.3c13.4,0.5,25.8,0.2,38.1,0.3c12,0.1,24.1,0,36.2,0c12.4,0,24.8,0,37.2,0c12,0,24.1,0,36.2,0
		c12.4,0,24.8,0,37.2,0c12,0,24,0,36.5,0c0.6,2.2,1.5,3.8,1.5,5.5c0.1,23.7,0.1,47.5,0,71.2c0,1.4-0.5,2.7-0.7,3.9
		c-10.4,2-201.1,2.9-298.1,1.4c-2.8-0.1-5.7-0.5-8.3-0.7c-2.2-11.6-3.2-478.1-1.3-576.7c0.1-2.8,0.5-5.7,0.7-8.3
		C611.8,1462.2,672.7,1461.9,687.1,1463.3z"/>
	<path class="st1" d="M2024.4,2046.2c-27.5,0-54.8,0-82.8,0c-0.4-2.6-0.9-5-1.1-7.4c-0.2-2.5-0.1-5.1-0.1-7.7c0-185.5,0-371,0-556.5
		c0-4.6-0.8-9.4,0.8-13.8c9.1-1.9,73.7-2,83.1-0.2c0.3,0.2,0.6,0.5,0.8,0.8s0.3,0.7,0.3,1c0.2,2.5,0.4,5.1,0.4,7.6
		c-0.1,191-0.1,382-0.2,572.9C2025.7,2043.7,2025.2,2044.3,2024.4,2046.2z"/>
</g>
</svg>
