<?xml version="1.0" encoding="utf-8"?>
<!-- Generator: Adobe Illustrator 27.7.0, SVG Export Plug-In . SVG Version: 6.00 Build 0)  -->
<svg version="1.1" id="Layer_1" xmlns="http://www.w3.org/2000/svg" xmlns:xlink="http://www.w3.org/1999/xlink" x="0px" y="0px"
	 viewBox="0 0 3500 3500" style="enable-background:new 0 0 3500 3500;" xml:space="preserve">
<style type="text/css">
	.st0{fill:#F58402;}
</style>
<ellipse transform="matrix(8.367790e-02 -0.9965 0.9965 8.367790e-02 1320.1663 2782.5027)" class="st0" cx="2173.1" cy="673.4" rx="462.3" ry="440.9"/>
<path class="st0" d="M197.6,2583.9c-111.9,0.3-181.5-93.9-181.2-198.6c0.6-480.1,0.6-964,0-1451.6c0-104.3,85.7-185.6,189.4-185.6
	c464.8,0,927.1,0,1387,0c11.6,0,18.3,5.7,20.2,17c39.5,246,182.7,407,429.6,482.8c9.7,3.2,14.5,9.9,14.5,20.2l0.3,379.1
	c-0.1,12.1-9.1,22.4-21.1,24c-322.1,42.9-616.1,204.2-789.2,481.9c-85.5,137-151.6,274.9-198.2,413.8c-4,11.6-12.1,17.3-24.3,17.3
	C734.5,2583.6,458.8,2583.5,197.6,2583.9z M739.7,1585.2c212.4,131.4,489.1,0.6,447.8-269.8c-13.7-89.7-28.7-175.8-45.1-258.1
	c-1.5-7.4-5.8-9.9-12.9-7.6L978.9,1097c-3.6,1.1-5.3,3.5-5,7.2c2.3,55.7,9,110.3,20.2,163.9c26.2,124.8-31.2,227.2-169.6,213
	c-62-6.3-101.3-40.8-117.9-103.4c-28.2-106.7-53.9-212.2-77.2-316.4c-2.5-10.7-8.9-14.3-19.2-10.7l-145.3,47.9
	c-9.2,3.2-12.4,9.3-9.5,18.6c51.5,170.8,78.1,339.4,79.7,505.8c2.3,213.7,2.4,430.9,0.3,651.7c-0.2,11.3,5.5,17.1,17,17.3l158.5,0.3
	c11.3,0.2,16.9-5.4,16.7-16.7l-11.3-677C716,1579.8,723.7,1575.3,739.7,1585.2z"/>
<path class="st0" d="M3481.6,2015l-323,206.7c-9.7,6.3-22.6,3.9-29.3-5.4c-241.4-336-549.3-523-923.7-561
	c-14.9-1.5-22.4-9.7-22.4-24.6l0.3-348.9c0-13.7,6.8-19.9,20.5-18.6c299.4,25.2,588.7,85.7,831.7,257.8
	c169.1,120,318.5,281.5,448.2,484.7C3486.1,2009.5,3485.4,2012.5,3481.6,2015z"/>
<path class="st0" d="M2701.9,2502.6c-362.7-486.9-962.8-341.6-1150.6,204.5c-7.1,21.2-21.9,30.2-44.1,26.8l-342.6-51.7
	c-12.4-1.9-17-8.9-13.9-21.1c56.3-216,156.4-401.5,300.3-556.6c351.4-378.2,948.6-401.8,1336.3-79.7
	c101.1,84,185.3,176.3,252.8,276.7c3.6,5.3,2.2,12.6-3.3,16.4c-0.2,0.1-0.3,0.2-0.5,0.3l-307.9,189.4
	C2719.6,2513,2708.1,2510.8,2701.9,2502.6z"/>
<ellipse transform="matrix(0.1461 -0.9893 0.9893 0.1461 -943.1028 4564.9868)" class="st0" cx="2172.7" cy="2828.8" rx="462" ry="440.9"/>
</svg>
