<?xml version="1.0" encoding="utf-8"?>
<!-- Generator: Adobe Illustrator 27.7.0, SVG Export Plug-In . SVG Version: 6.00 Build 0)  -->
<svg version="1.1" id="Layer_1" xmlns="http://www.w3.org/2000/svg" xmlns:xlink="http://www.w3.org/1999/xlink" x="0px" y="0px"
	 viewBox="0 0 3500 3500" style="enable-background:new 0 0 3500 3500;" xml:space="preserve">
<style type="text/css">
	.st0{fill:#FFFFFF;}
</style>
<path class="st0" d="M324,2897.1c-108.2-136.4-215.5-271.7-324-408.4c21.9-17.5,42.5-33.9,63.1-50.3c25.3-20.1,50.8-40.1,76-60.3
	c13.2-10.5,12.9-10.6,4.2-25.8c-21.1-36.8-42.2-73.7-62.9-110.7c-23.4-41.6-36.2-87.1-48-132.9c-12.7-49.3-21.6-99.3-22.9-150.5
	c-0.6-22.8-2.7-45.5-2.8-68.3C6.4,1787.4,7,1685,6.5,1582.5c-0.5-103.4,15.3-204,51.4-300.8c11.1-29.6,26.2-58,41.7-85.7
	c22.6-40.2,45.7-80.3,71.5-118.5c30.3-44.7,62.6-88.2,96.1-130.7c39.5-50.1,84.8-95,133.4-136.4c65-55.4,136.1-101.2,214.4-135.8
	c74.3-32.9,151.8-54,232.2-64.3c33-4.2,66.5-6.9,99.8-6.9c537.9-0.4,1075.8-0.7,1613.7,0c116.4,0.2,228.3,24.6,334.9,72.3
	c85,38.1,161.1,89.5,230.6,151.3c98.2,87.2,176.5,190.4,243.9,302.3c20,33.2,38.5,67.2,57,101.2c31.1,57,46.2,119.4,59.4,182.3
	c11.6,55.3,13.6,111.3,13.2,167.7c-0.8,112.6-1,225.1,0,337.7c0.8,83.7-14.9,164.3-39.1,243.9c-14.5,47.7-38.2,90.8-62.4,133.8
	c-36.7,65.3-76.9,128.4-122.7,187.8c-81.7,106-175.7,198.6-291.4,267.4c-88.9,52.9-184.1,88.8-286.4,105.8
	c-50.9,8.5-101.9,12.3-153.5,12.3c-527.8-0.1-1055.6-0.3-1583.5,0.1c-101.9,0-200.5-16.3-296.2-50.8c-46.5-16.8-91-38.2-133.8-62.8
	c-15.6-9-15.7-9.5-30.2,2c-54.5,43.1-108.8,86.5-163.2,129.7c-4,3.2-8.4,6-13.6,9.6L324,2897.1z M1522.2,1079.4
	c-7.2-0.4-13.4-1-19.6-1c-81.2,0-162.4-0.4-243.7,0c-57.3,0.4-114.6,0.3-171.8,3.7c-45.9,2.7-91.8,8.3-137.1,16.2
	c-79.9,13.9-156.5,38.4-226.6,80.6c-71.4,43-126.6,100.8-161.9,176.9c-30,64.6-42.9,133.3-43.9,203.7c-1.5,112-0.3,224-0.5,336
	c0,47.4,5.2,94.1,16.1,140.2c15.2,64,43,122,86.1,171.9c49.6,57.4,111.5,97.5,181.7,125.3c60.9,24.1,124.1,38.9,188.9,48.8
	c61,9.3,122.3,13.3,183.6,14.4c110.4,2,220.8,0.6,331.2,0.5c5.6,0,11.2-0.8,17.2-1.2v-1316L1522.2,1079.4z M1987.1,2396.6
	c8.3,0,15.1,0,21.8,0c80.2,0,160.4-0.2,240.5,0c73.7,0.3,147.3-1.8,220.8-9.1c50.8-5,100.8-13.6,150.1-26.4
	c76.1-19.9,147.9-49.2,210.4-98.4c51.9-40.8,91.5-90.9,118.6-151.2c31.3-69.7,41.1-143.5,42.1-218.6c1.4-100.3,0.8-200.7,0.1-301
	c-0.3-45-3.5-90-12.2-134.4c-14.8-75.6-46.1-143.4-97.8-200.6c-44.8-49.5-99.9-85.2-161.3-111.2c-106.5-45.3-219-63.2-333.4-66.3
	c-127.4-3.4-254.9-1-382.3-1c-5.6,0-11.2,0.8-17.6,1.3v1316.9L1987.1,2396.6z"/>
</svg>
