<?xml version="1.0" encoding="utf-8"?>
<!-- Generator: Adobe Illustrator 27.7.0, SVG Export Plug-In . SVG Version: 6.00 Build 0)  -->
<svg version="1.1" id="Layer_1" xmlns="http://www.w3.org/2000/svg" xmlns:xlink="http://www.w3.org/1999/xlink" x="0px" y="0px"
	 viewBox="0 0 3500 3500" style="enable-background:new 0 0 3500 3500;" xml:space="preserve">
<style type="text/css">
	.st0{fill:#FFFFFF;}
	.st1{fill:#D21D07;}
	.st2{fill:#E8E8E8;}
	.st3{fill:#9E9D9E;}
	.st4{fill:#D9D1DB;}
	.st5{fill:#A3A3A3;}
	.st6{fill:#E0E0E0;}
	.st7{fill:#A8ACB2;}
	.st8{fill:#EAEAEA;}
	.st9{fill:#BDC3C9;}
	.st10{fill:#C6C4C6;}
	.st11{fill:#E5E5E5;}
	.st12{fill:#A5A5A5;}
	.st13{fill:#BACECD;}
	.st14{fill:#D9D7DB;}
	.st15{fill:#DBD5E0;}
	.st16{fill:#9AA1A8;}
	.st17{fill:#A1A7AF;}
	.st18{fill:#AFAFAF;}
	.st19{fill:#959AA0;}
	.st20{fill:#D8D8D8;}
	.st21{fill:#ADACAD;}
	.st22{fill:#E8DFEA;}
	.st23{fill:#B2B2B2;}
	.st24{fill:#939393;}
	.st25{fill:#A7A7A8;}
	.st26{fill:#C1C1C1;}
	.st27{fill:#7F7F7F;}
	.st28{fill:#DDDDDD;}
	.st29{fill:url(#SVGID_1_);}
	.st30{fill:#F4F4F4;}
	.st31{fill:#E6E7E8;}
</style>
<g>
	<g id="Objects">
		<g>
			<g>
				<path class="st0" d="M104.5,1932.3c-32.4-18.3-58-43.6-76.6-75.7C9.3,1824.5,0,1789,0,1750s9-74.8,27.3-106.9
					c18.3-32.1,43.2-57.4,75.4-75.7c31.8-18.3,67.3-27.3,106.6-27.3c35.7,0,69.1,8.1,100.3,24.6c30.9,16.5,57.1,40.2,78.4,71.2
					l-64,45.7c-29.1-44.2-67.6-66.4-114.7-66.4c-36.9,0-67.3,12.6-90.7,37.8c-23.7,25.2-35.4,57.7-35.4,97s12,71.8,36.3,97
					c24,25.2,54.7,37.8,91.9,37.8c32.1,0,58-8.1,78.1-24c19.8-15.9,32.1-35.7,37.2-59.2H203.3v-70h205.4c0.9,8.7,1.5,19.8,1.5,32.7
					c0.3,104.5-74.2,195.8-198.8,195.5C172.4,1959.9,136.7,1950.6,104.5,1932.3L104.5,1932.3z"/>
				<path class="st0" d="M482.3,1953.9v-407.8h290.1v70.3h-209v94h181.4v70.3H563.4V1884h213.5v70L482.3,1953.9L482.3,1953.9z"/>
				<path class="st0" d="M852,1953.9v-407.8h85.9l131.6,271.5l131.2-271.5h85.9v407.8h-81.1v-250.2l-109.9,222.8H1043l-109.9-222.8
					v250.2L852,1953.9L852,1953.9z"/>
			</g>
			<rect x="2156.1" y="1542.2" class="st1" width="19.2" height="410.4"/>
			<polygon class="st1" points="3291,1917.7 3291,1798.8 3172.6,1798.8 3172.6,1708.3 3291,1708.3 3291,1586.2 3381.6,1586.2 
				3381.6,1708.3 3500,1708.3 3500,1798.8 3381.6,1798.8 3381.6,1917.7 			"/>
			<g>
				<path class="st1" d="M2352.4,1621.4v-76.2h303.4v76.2h-108.9v333.9h-84.9v-333.9H2352.4z"/>
				<path class="st1" d="M2900.1,1789.6l43.4-112.1l55.1-132.4h93.1v12.9L2917,1958.8h-36.3l-176.3-400.7v-12.9h93.1l55.1,131.8
					l45.7,112.6L2900.1,1789.6L2900.1,1789.6z"/>
			</g>
			<g>
				<g>
					<g>
						<polygon class="st2" points="1720.3,1646.9 1585.4,1646.9 1606.7,1601 						"/>
						<polygon class="st3" points="1606.7,1601 1563.4,1550.8 1453.4,1609.8 1507.3,1646.9 						"/>
						<polygon class="st4" points="1585.4,1646.9 1606.7,1601 1507.3,1646.9 						"/>
						<polygon class="st5" points="1507.3,1646.9 1428.2,1646.9 1453.4,1609.8 						"/>
						<polygon class="st6" points="1428.2,1646.9 1365.4,1646.9 1453.4,1609.8 						"/>
						<path class="st7" d="M1365.4,1646.9c0,0,112.7-96.4,114.4-96.2c1.7,0.2-26.4,59.1-26.4,59.1L1365.4,1646.9L1365.4,1646.9z"/>
						<polygon class="st8" points="1479.8,1550.8 1563.4,1550.8 1453.4,1609.8 						"/>
						<polygon class="st9" points="1563.4,1550.8 1606.7,1601 1720.3,1550.8 						"/>
						<polygon class="st10" points="1720.3,1646.9 1855.2,1646.9 1833.8,1601 						"/>
						<polygon class="st11" points="1720.3,1550.8 1606.7,1601 1720.3,1646.9 1833.8,1601 						"/>
						<polygon class="st0" points="1833.8,1601 1877.2,1550.8 1987.2,1609.8 1933.3,1646.9 						"/>
						<polygon class="st12" points="1855.2,1646.9 1833.8,1601 1933.3,1646.9 						"/>
						<polygon class="st13" points="1933.3,1646.9 2012.3,1646.9 1987.2,1609.8 						"/>
						<polygon class="st14" points="2012.3,1646.9 2075.2,1646.9 1987.2,1609.8 						"/>
						<path class="st15" d="M2075.2,1646.9c0,0-112.7-96.4-114.4-96.2c-1.7,0.2,26.4,59.1,26.4,59.1L2075.2,1646.9L2075.2,1646.9z"
							/>
						<polygon class="st0" points="1960.8,1550.8 1877.2,1550.8 1987.2,1609.8 						"/>
						<polygon class="st16" points="1877.2,1550.8 1833.8,1601 1720.3,1550.8 						"/>
					</g>
					<g>
						<polygon class="st17" points="1585.4,1646.9 1669.6,1854.3 1507.3,1646.9 						"/>
						<polygon class="st0" points="1507.3,1646.9 1620.6,1854.3 1720.3,1959.9 1669.6,1854.3 						"/>
						<polygon class="st8" points="1507.3,1646.9 1428.2,1646.9 1620.6,1854.3 						"/>
						<polygon class="st18" points="1720.3,1959.9 1620.6,1854.3 1365.4,1646.9 						"/>
						<polygon class="st19" points="1428.2,1646.9 1365.4,1646.9 1620.6,1854.3 						"/>
						<polygon class="st20" points="1720.3,1646.9 1669.6,1854.3 1720.3,1959.9 1771,1854.3 						"/>
						<polygon class="st11" points="1855.2,1646.9 1771,1854.3 1933.3,1646.9 						"/>
						<polygon class="st21" points="1933.3,1646.9 1820,1854.3 1720.3,1959.9 1771,1854.3 						"/>
						<polygon class="st22" points="1933.3,1646.9 2012.3,1646.9 1820,1854.3 						"/>
						<polygon class="st23" points="1720.3,1959.9 1820,1854.3 2075.2,1646.9 						"/>
						<polygon class="st24" points="2012.3,1646.9 2075.2,1646.9 1820,1854.3 						"/>
						<polygon class="st25" points="1855.2,1646.9 1771,1646.9 1771,1854.3 						"/>
						<polygon class="st2" points="1720.3,1646.9 1585.4,1646.9 1669.6,1854.3 						"/>
					</g>
					<g>
						<polygon class="st0" points="1428.2,1646.9 1585.4,1646.9 1563.4,1550.8 						"/>
						<polygon class="st26" points="1585.4,1646.9 1720.3,1646.9 1855.2,1646.9 1720.3,1550.8 						"/>
						<polygon class="st27" points="1960.8,1550.8 2012.3,1646.9 2075.2,1646.9 						"/>
						<polygon class="st26" points="1855.2,1646.9 2012.3,1646.9 1877.2,1550.8 						"/>
					</g>
					<path class="st28" d="M2012.3,1636h-634.2c-7.8,6.7-12.8,10.9-12.8,10.9h709.8c0,0-4.9-4.2-12.8-10.9H2012.3z"/>
					
						<linearGradient id="SVGID_1_" gradientUnits="userSpaceOnUse" x1="1784.4487" y1="-1760.0818" x2="1844.1887" y2="-1801.7819" gradientTransform="matrix(1 0 0 -1 0 0)">
						<stop  offset="0" style="stop-color:#D6D6D6"/>
						<stop  offset="1" style="stop-color:#191919"/>
					</linearGradient>
					<polygon class="st29" points="1720.3,1959.9 1869.4,1646.9 1972.8,1646.9 					"/>
				</g>
				<polygon class="st30" points="1771,1646.9 1720.3,1646.9 1771,1854.3 				"/>
				<polygon class="st30" points="1720.3,1959.9 1720.3,1646.9 1669.6,1646.9 				"/>
				<polygon class="st31" points="1507.3,1636 1563.4,1550.8 1582.9,1636 				"/>
				<polygon class="st31" points="1960.8,1550.8 1877.2,1550.8 2004.9,1636 				"/>
			</g>
		</g>
	</g>
</g>
</svg>
