<?xml version="1.0" encoding="utf-8"?>
<!-- Generator: Adobe Illustrator 27.7.0, SVG Export Plug-In . SVG Version: 6.00 Build 0)  -->
<svg version="1.1" id="Layer_1" xmlns="http://www.w3.org/2000/svg" xmlns:xlink="http://www.w3.org/1999/xlink" x="0px" y="0px"
	 viewBox="0 0 3500 3500" style="enable-background:new 0 0 3500 3500;" xml:space="preserve">
<style type="text/css">
	.st0{fill:#00ADEE;}
	.st1{fill:#0E2457;}
</style>
<g>
	<path class="st0" d="M705.1,2183.8c136.6,136.1,306.9,231.7,494.2,276.9c266.5,64.2,545.4,20.9,780.7-120
		c118.3-70.8,220.5-163.7,306.4-278.6c85.7-114.5,144.5-244.1,176.6-388.6c16.2-72.9,26-148.1,29.5-225.7c0.2-3.8,3.3-6.8,7.1-6.8
		h379.6c3.5,0,6.3,2.8,6.3,6.3c0,0,0,0,0,0c-1.2,198.9-40.6,388.3-118.1,568.2c-207.8,482.5-670.3,816.8-1193.5,864.8
		c-350.1,32.1-706.2-67.9-989.2-276.5c-54.7-40.3-108.1-86.5-160.3-138.5c-52.1-51.9-98.5-105.2-139-159.8
		c-209.7-282.2-310.9-638-280-988.2C51.6,794,384.4,330.4,866.2,120.9C1045.8,42.8,1235,2.8,1433.9,0.8c3.5-0.1,6.3,2.7,6.4,6.2
		c0,0,0,0,0,0.1l1.3,379.6c0,3.8-3,6.9-6.8,7.1c-77.5,3.8-152.7,13.9-225.6,30.3c-144.4,32.5-273.7,91.8-388,177.9
		c-114.6,86.3-207.1,188.8-277.6,307.4c-140,235.8-182.4,514.8-117.2,781.1C472.3,1877.6,568.5,2047.6,705.1,2183.8z"/>
	<circle class="st1" cx="1443.9" cy="1443.1" r="800.3"/>
	<path class="st1" d="M2898.2,2894.8c-214.8,215.2-472.4,380-759.1,482.5c-181.7,65-371,104.5-568,118.5
		c-39.7,2.8-78.1,3.9-115.4,3.1c-4.9-0.1-8.9-4.1-8.9-9.1v-374.2c0-6.9,3.4-10.3,10.3-10.4c271.2-3.7,525.7-68.5,763.4-194.4
		c147.2-78,280-176.2,398.3-294.8c118.3-118.5,216.3-251.5,294-398.9c125.5-238,189.8-492.5,193-763.7c0.1-6.9,3.6-10.3,10.4-10.3
		l374.2-0.7c4.9,0,9,3.9,9.1,8.9c0.8,37.2-0.1,75.7-2.9,115.4c-13.6,197-52.8,386.4-117.5,568.2
		C3277.4,2421.7,3113,2679.6,2898.2,2894.8z"/>
</g>
</svg>
