<?xml version="1.0" encoding="utf-8"?>
<!-- Generator: Adobe Illustrator 27.7.0, SVG Export Plug-In . SVG Version: 6.00 Build 0)  -->
<svg version="1.1" id="Layer_1" xmlns="http://www.w3.org/2000/svg" xmlns:xlink="http://www.w3.org/1999/xlink" x="0px" y="0px"
	 viewBox="0 0 3500 3500" style="enable-background:new 0 0 3500 3500;" xml:space="preserve">
<style type="text/css">
	.st0{fill:#FFFFFF;}
</style>
<g>
	<path class="st0" d="M2384.4,634.6c-616.3,0-1115.6,499.3-1115.6,1115.3c0,338.6,150.6,641.8,388.6,846.1
		c195.3,167.9,449.3,269.5,727,269.5c312.9,0,595.5-128.6,798-336.1c196.5-200.9,317.6-476,317.6-779.5
		C3500,1133.9,3000.4,634.6,2384.4,634.6z M2944.7,2529.3H2335c0,0,590.8-397.8,705.6-689.2c100-253.4,65.4-524.8-131.4-688.9
		c-196.8-164.1-631.4-245.9-1066.2,0v422.6c0,0,258.8-164.8,422.6-184.6c200.9-24.8,434.6,49.1,356.6,360.7
		c-50.9,204.4-530.8,555-828.8,756.2c-224.5-175.8-368.5-449-368.5-756.2c0-529.8,429.5-959.6,959.6-959.6
		c529.8,0,959.6,429.8,959.6,959.6C3344,2070.9,3186.5,2354.8,2944.7,2529.3z"/>
	<polygon class="st0" points="808.6,1433.7 731.4,1574.8 652.3,1433.7 402.4,1433.7 402.5,1433.8 0,1433.8 0,2066.3 220.3,2066.3 
		220.3,1860.5 434.8,1860.5 434.8,1688.2 220.3,1688.2 220.3,1612 522.5,1612 606.2,1736.4 403.3,2066.3 652.1,2066.3 731.2,1916.9 
		809.3,2066.3 1058.9,2066.3 858,1736 1060,1433.7 	"/>
</g>
</svg>
