<?xml version="1.0" encoding="utf-8"?>
<!-- Generator: Adobe Illustrator 27.7.0, SVG Export Plug-In . SVG Version: 6.00 Build 0)  -->
<svg version="1.1" id="Layer_1" xmlns="http://www.w3.org/2000/svg" xmlns:xlink="http://www.w3.org/1999/xlink" x="0px" y="0px"
	 viewBox="0 0 3500 3500" style="enable-background:new 0 0 3500 3500;" xml:space="preserve">
<style type="text/css">
	.st0{fill:#FFFFFF;}
</style>
<path class="st0" d="M2608.7,2113.1c-41.1,0-79.4,0.5-117.7-0.1c-63.2-0.9-88.3-27-88.8-92c-0.4-56.1,2.6-112.3-1.5-168.1
	c-2.1-29.1-10.8-60.5-25.7-85.4c-34.5-57.6-113.1-56.6-145.7,2.2c-14.8,26.7-21.6,60.2-23.3,91.1c-3.4,65.5-1.1,131.3-1.1,197
	c0,15.7,0,31.4,0,45.8c-40.9,11.4-158.3,12.2-206.5,1.8c-0.7-14.5-2.2-30.1-2.2-45.6c-0.1-62.5,2.6-125.1-0.6-187.4
	c-1.7-32.8-8.7-67.1-21.7-97c-14.9-34.5-46.1-52.7-85.9-48.5c-38.5,4-66.8,23.5-78,61.1c-6.7,22.6-10.3,46.9-10.9,70.5
	c-1.5,56,0.3,112.1-0.5,168.2c-0.8,58.7-27,84.2-85.8,85.1c-33.6,0.5-67.3,0-100.9-0.4c-4.6,0-9.3-1.9-16.1-3.5
	c-2.4-8.2-7.3-17.1-7.2-26c1.1-72,0-144.3,5.5-216c7.2-93.5,58.1-159.4,146.2-190c110.7-38.4,223.1-41.2,332.7,6.5
	c21.7,9.4,37.6,5.7,58.3-2.7c113.4-45.8,228.7-44.2,341.9-0.9c92.8,35.5,133.2,112.9,140.7,206.4c5.6,70,1.5,140.8,1.4,211.3
	c0,4.3-3.4,8.6-6.8,16.5L2608.7,2113.1z"/>
<path class="st0" d="M431.9,1740.1h-88.4v-84.6c27.5-1.7,54.2-3.3,87.1-5.3c3.7-87.1,22.6-169,104.9-217.4
	c60.9-35.8,126.8-49.9,197.2-43.7c9.9,19.4,9,34.1-11.9,39.3c-65.5,16.3-81.8,65.3-83.8,123.8c-1,31.6-0.2,63.2-0.2,99.6h140.7v84.6
	c-44.1,1.9-89.4,3.9-137.2,6c-1.2,15.2-3,27.5-3,39.8c-0.3,75.3-0.1,150.5-0.1,225.8c0,82.4-20.3,103.2-101.2,102.9
	c-30.4-0.1-60.8-0.9-91.1-1.8c-2.8,0-5.5-2.8-13-7v-361.9V1740.1z"/>
<path class="st0" d="M1250.4,2105.3c0-17.8,0-33.6,0-49.3c-0.1-188.9-0.2-377.8-0.3-566.7c0-11.2-0.7-22.5,0.6-33.6
	c4.8-41.8,30.4-67.3,72.1-68.8c43-1.5,86.1-0.3,133-0.3c1.8,13.4,5,25.4,5,37.5c0,200.1,0,400.2-0.6,600.3
	c-0.2,61.4-26.5,86.6-88.4,87.1c-33.6,0.3-67.2,0-100.8-0.6c-4.5,0-9-2.4-20.5-5.7L1250.4,2105.3z"/>
<path class="st0" d="M3.7,2110.6c-1.1-19.8-2.3-32.3-2.3-44.8c-0.3-105.6-0.6-211.3-0.5-316.9c0.1-70.5,24.8-95.1,95.2-95.7
	c35-0.3,70,0,108.2,0c1.7,15.7,4.2,27.9,4.3,40.1c0.4,107.2-0.9,214.5,0.9,321.7c1.1,65.7-33,100.9-95.6,96.2
	C79.1,2108.6,44,2110.7,3.7,2110.6L3.7,2110.6z"/>
<path class="st0" d="M912.6,1656.4c53.1-6.7,102.4-8.1,151.2-0.7c34.1,5.2,53.4,30.8,56.2,68.2c2.1,28.7,2.1,57.5,2.2,86.3
	c0.2,75.2,0,150.4-0.1,225.6c0,23.6,0,47.2,0,75c-52.8,0-98.9,2.4-144.6-0.7c-39.8-2.7-63.6-32.6-64.2-76.2
	c-1.1-86.4-0.5-172.8-0.6-259.2c0-38.2,0-76.3,0-118.1L912.6,1656.4z"/>
<path class="st0" d="M1016.2,1596.1c-58.5-0.4-104.1-45.5-103.7-102.5c0.4-55.8,48.7-103.5,104.6-103.4
	c55.8,0,104.2,48.8,103.6,104.2C1120.1,1551.5,1073.9,1596.5,1016.2,1596.1L1016.2,1596.1z"/>
<path class="st0" d="M205.7,1496c-0.9,58.2-46.1,101-105.4,99.6c-55.2-1.3-100-46.4-100.3-101.2c-0.3-54.8,49.9-104.7,104.3-103.4
	C162.4,1392.3,206.6,1438.1,205.7,1496L205.7,1496z"/>
<path class="st0" d="M3310.9,1493.3c-91.2,2.9-182.6,0.7-273.8,2.9c-25.1,0.6-51.7,4.6-74.6,14.3c-79.5,33.8-115.6,96.9-115.2,182.4
	c0.5,123.3,0.5,246.7,1.2,370c0,14,2.6,27.9,4,42c9.2,2.7,15.2,6,21.2,6.1c150.5,1.1,301.2,5.2,451.6,1.3
	c97.8-2.5,171.4-86.5,172.8-184.8c1.2-81.7-2.9-163.6,1.8-245c5.8-101.3-92.9-192.2-188.8-189.1L3310.9,1493.3z M3326.8,2022.1
	h-301.7v-56.9c109.2-103.2,186.1-176.4,186.1-237.9s-23-64.4-60.8-64.4s-54.7,21-76.2,43.6l-53.8-53.6c42.2-45.2,82.3-68,143.6-68
	s142.3,54,142.3,136.7s-67.5,149.2-137.7,221.8c22.1-2.5,52-4.9,71.8-4.9h86.4v83.5L3326.8,2022.1z"/>
</svg>
