<?xml version="1.0" encoding="utf-8"?>
<!-- Generator: Adobe Illustrator 27.7.0, SVG Export Plug-In . SVG Version: 6.00 Build 0)  -->
<svg version="1.1" id="Layer_1" xmlns="http://www.w3.org/2000/svg" xmlns:xlink="http://www.w3.org/1999/xlink" x="0px" y="0px"
	 viewBox="0 0 3500 3500" style="enable-background:new 0 0 3500 3500;" xml:space="preserve">
<style type="text/css">
	.st0{fill:#60B1C8;}
	.st1{fill:#E9CB2E;}
</style>
<path class="st0" d="M1749.6,291.7h2.5c375.3,204.8,758.5,401.9,1107.6,650.6c323.1,230.3,618.8,528.1,640.3,946.8v61.2
	c-8.9,113.6-43.2,219.5-102.9,317.5c-138.6,227.9-353.1,402.5-581.6,542.6c-309.3,189.4-666.8,334.1-1024.9,394.8
	c-19.8,3.4-20.9,0.3-3.2-9.3c280.1-152.3,578.2-321.4,811.6-525.1c158-138.1,291-316.2,314.2-531.3c26.8-250-119.2-461.8-303.4-624
	c-107.9-95-231.5-183.8-370.9-266.4c-297.2-176.2-635.5-329.8-965.7-471.7c-4-1.7-7.5-1.1-10.6,1.9
	c-81.2,78.2-163.9,160.4-248,246.6c-193.1,197.9-353.9,421.3-364.2,704.2c-14.6,406.1,425.8,686.3,758,798.6
	c116.2,39.2,227.9,60.1,335.2,62.6c3.8,0.1,5.7,2.1,5.7,5.9l0.4,611h-13.3c-316-42.5-623.5-143.3-915.6-279.3
	C658,2853.3,506.4,2761.4,366,2653.3c-91.9-70.7-172.5-154.2-241.8-250.4C53.7,2305,12.3,2196.6,0,2077.8v-73.9
	c15.3-145.9,66.3-283.3,152.8-412.3c56-83.4,108.1-151.9,156.4-205.5c119.9-133.2,253.5-258.9,400.7-376.9
	C1039.5,745.1,1390.5,513.8,1749.6,291.7z"/>
<circle class="st1" cx="1675" cy="2124.9" r="374.7"/>
</svg>
