<?xml version="1.0" encoding="utf-8"?>
<!-- Generator: Adobe Illustrator 27.7.0, SVG Export Plug-In . SVG Version: 6.00 Build 0)  -->
<svg version="1.1" id="Layer_1" xmlns="http://www.w3.org/2000/svg" xmlns:xlink="http://www.w3.org/1999/xlink" x="0px" y="0px"
	 viewBox="0 0 3500 3500" style="enable-background:new 0 0 3500 3500;" xml:space="preserve">
<style type="text/css">
	.st0{fill:#53B2F4;}
	.st1{fill:#ED9100;}
</style>
<path class="st0" d="M1671.1,0h8.9c3.2,95.3,29.5,185.6,83.7,264.2c42.9,62.3,100.4,120.3,156.6,170.8
	c63.4,57,126.5,112.7,187.6,170.1c181.2,170.1,364,341.7,548.6,514.7c0.6,0.5,0.9,1.2,0.9,2v876.8c0,0.3-0.3,0.6-0.6,0.6
	c-0.1,0-0.3-0.1-0.4-0.2c-328.1-291.3-656.2-582.8-984.1-874.4c-35.1-31.2-71-69.7-107.8-115.6c-47.7-59.6-86.4-124.1-116.1-193.6
	c-76-178.1-82.4-379.1-15.2-560c14.8-39.7,33.3-77.3,55.7-112.8C1529.5,78.2,1592.1,9.2,1671.1,0z"/>
<path class="st0" d="M234.8,2629.3v-783.4l0.4-208.3c0-1,0.4-2,1.1-2.8c139.7-152.7,278.8-304.9,417.2-456.7
	c174.6-191.5,453.4-296.4,708.1-222c139.2,40.6,259.4,133,336.8,255.1c29,45.8,53.9,99.6,57.4,154.1c0,0.8-0.6,1.5-1.4,1.6
	c-0.1,0-0.1,0-0.2,0c-54.2-4.4-107.8-3.8-160.7,1.6c-106.3,10.9-200.4,49.6-282.4,115.9c-35.7,28.9-69.3,60.1-100.6,93.6
	c-78.4,83.7-150.9,172.8-227.4,258.3c-248.8,277.9-497.6,555.9-746.4,833.8c-0.3,0.3-0.8,0.3-1.1,0.1c-0.2-0.1-0.3-0.3-0.3-0.6
	L234.8,2629.3z"/>
<path class="st0" d="M3265.2,2017.4v150.8c-11.1,117.3-48.4,225.7-112,325.4c-28.6,44.8-59.5,86.4-92.8,124.9
	c-254.4,293.8-508.6,587.5-762.9,881.2c-0.2,0.3-0.6,0.3-0.9,0.1c0,0,0,0,0,0l-509.4-465.5c-0.7-0.7-0.8-1.4-0.1-2.1
	c269.7-302.1,540.2-605,811.6-908.8c58.6-65.6,110.2-138.5,156.7-216.8c104.6-176.1,172.8-374.4,170-577.2c0-0.6,0.5-1.1,1.1-1.1
	c0.2,0,0.4,0.1,0.6,0.2c18.1,11.4,35.3,25.2,51.5,41.4c30.8,30.8,59.2,64.8,85.2,102C3176.5,1633.2,3247.6,1821.3,3265.2,2017.4z"/>
<circle class="st1" cx="1690.9" cy="2075.4" r="577.9"/>
<path class="st0" d="M1717.3,3082.3c-69,142.1-183.4,255.6-344.2,279.5c-61.3,9.1-121.2,6.4-179.6-8.2
	c-123.8-30.9-228.2-111.4-320.6-198.9c-33.8-32-65-62.9-93.7-92.6c-0.7-0.7-1.1-1.6-1.1-2.6v-928.7c0-0.3,0.3-0.5,0.5-0.5
	c0.1,0,0.2,0.1,0.3,0.1c80.7,79.3,160.4,159.6,239,238c76.2,75.9,159.2,152.5,244.6,220.1c44.7,35.4,90.3,67.2,136.7,95.5
	c121.4,73.9,260.7,122.9,401.5,86.5c0.4-0.1,0.8,0.1,0.9,0.5c0,0.1,0,0.2,0,0.3C1790.7,2880.2,1764.3,2985.4,1717.3,3082.3z"/>
</svg>
