<?xml version="1.0" encoding="utf-8"?>
<!-- Generator: Adobe Illustrator 27.7.0, SVG Export Plug-In . SVG Version: 6.00 Build 0)  -->
<svg version="1.1" id="Layer_1" xmlns="http://www.w3.org/2000/svg" xmlns:xlink="http://www.w3.org/1999/xlink" x="0px" y="0px"
	 viewBox="0 0 3500 3500" style="enable-background:new 0 0 3500 3500;" xml:space="preserve">
<style type="text/css">
	.st0{fill:#7D7D7D;}
	.st1{fill:url(#SVGID_1_);}
	.st2{fill:url(#SVGID_00000170992755121865767860000007493435396020503739_);}
	.st3{fill:url(#SVGID_00000163051062290389438630000005882453277054153900_);}
	.st4{fill:url(#SVGID_00000068659344678370543940000000162370354688680328_);}
	.st5{fill:url(#SVGID_00000005249474256255300640000010815374045503313834_);}
	.st6{fill:url(#SVGID_00000141432570992439901670000005659226963067350917_);}
</style>
<g>
	<path class="st0" d="M1763.5,2193.9l-0.9,2.7c-15.4,43.8-31.8,88-47.8,130.8c-32.5,87.1-66,177-92.1,268.4
		c-24.4-90.4-56.2-179.4-86.9-265.6c-15.6-43.6-31.7-88.7-46.6-133.3l-0.9-2.8h-90.6l-1.1,11.4c-0.5,5.2-1,10.1-1.3,15
		c-1.1,15.1-2,30.1-3,45.2c-1.2,18.1-2.4,36.1-3.7,54.1c-2.6,36.4-5.1,72.9-7.7,109.3l-5,70.4c-2.3,32.1-4.6,64.2-6.7,96.4
		c-2.2,33.1-4.4,66.2-6.4,99.4c-0.1,2.5,0.1,4.9,0.3,7c0.1,0.9,0.2,1.7,0.2,2.5l0.3,3.8h68.1l0.3-3.8
		c8.4-121.4,17.8-263.8,23.9-408.8c24.5,88.6,54.6,176.4,83.9,261.5c16.3,47.4,33.1,96.3,48.7,144.8l0.9,2.8h56.7l27-74.9
		c8.8-24.3,17.6-48.6,26.4-72.9l33-90.8c6.5-18,13.1-35.9,19.4-54c7.6-21.7,15.4-44.7,24.6-72.6c2.7-8.1,5.2-16.3,7.8-24.5
		c2.7-8.8,5.5-17.8,8.5-26.7c1.9,93.1,7.6,187,13.1,278c2.7,45.2,5.6,92.1,7.9,138.1l0.2,3.9h72.4l-32.1-514.7h-90.8L1763.5,2193.9
		L1763.5,2193.9z"/>
	<path class="st0" d="M868.3,2193.8l-174.6,515.7h5.7c7,0,13.8,0,20.4,0.1c16.6,0.1,32.2,0.2,48-0.7l2.8-0.2l52.1-157.9h173.5
		l54.1,158.8h3c7-0.1,14.1-0.1,21.1,0c4,0,8.1,0,12.2,0c12,0,24.2-0.2,36.9-1l5.3-0.4l-175-514.5L868.3,2193.8L868.3,2193.8
		L868.3,2193.8z M979,2489.2H839.8c7.4-23.2,15.3-46.4,23-69c16.6-48.7,33.7-98.9,46.3-150.4c12,49.4,28.7,98.1,45,145.2
		C962.4,2439.3,971,2464.2,979,2489.2L979,2489.2L979,2489.2z"/>
	<path class="st0" d="M215.6,2198.1c0.2,133.9,0.2,267.3,0.2,400.9v109.8h72.9v-227.6l1.3-0.1c3-0.2,5.7-0.5,8.4-0.5l166.3-0.1
		c2.7,0,5.4-0.2,8-0.4l7.4-0.5v-60.7H366.7c-11.2,0.1-22.5,0.1-33.7-0.1c-5.1-0.1-10.2,0-15.3,0.1c-9.3,0.1-18.9,0.3-28.4-0.7
		v-161.8h206.2V2194h-280V2198.1L215.6,2198.1L215.6,2198.1z"/>
	<path class="st0" d="M3325.9,2194.6c-0.9-0.2-1.6-0.5-2.2-0.6c-1.3-0.4-2.5-0.8-3.9-0.8c-18.1,0-36.3,0-55.3,0h-15.4l-1.2,2.2
		c-11.3,21.9-22.8,43.8-34.2,65.7c-29.1,55.4-59,112.7-86.6,171.5c-26.8-58.8-56.1-115.9-84.5-171.1c-11.3-22.1-22.6-44-33.7-66
		l-1.2-2.3h-2.5c-9.3,0.1-18.5,0.1-27.6,0c-15.2-0.1-30.9-0.1-46.9,0.3l-6.6,0.2l12.1,22.7c6.1,11.4,11.8,22.3,17.7,33
		c10.3,18.8,20.6,37.5,31,56.3c10.6,19.2,21.2,38.5,31.8,57.8c9,16.3,17.9,32.7,26.7,49c12.6,23.2,25.3,46.4,38,69.5
		c3.5,6.3,5.1,12.6,5.1,19.8c-0.2,63.8-0.1,127.5-0.1,191.3c0,2.7,0.3,5.5,0.6,8.2c0.1,1.2,0.2,2.4,0.4,3.6l0.3,3.7h71.6l0.5-8.5
		c0.2-2.9,0.4-5.6,0.4-8.3v-58.4c0-44.9,0-89.9,0.1-134.8c0-4.6,0.8-8.5,2.3-11.2c20-35.3,41.3-72.4,63.4-110.2
		c16.3-28,32.7-56,49.1-83.9c12.9-22.1,25.8-44.1,38.7-66.1c3.4-5.8,6.5-11.6,9.7-17.8c1.5-2.9,3.1-5.8,4.7-8.8l2.5-4.6
		L3325.9,2194.6L3325.9,2194.6L3325.9,2194.6z"/>
	<path class="st0" d="M2796.7,2645.4h-215v-451.6h-72.2v514.6l7.1,0.6c2.3,0.2,4.3,0.4,6.4,0.4c86.6,0,173.2-0.1,259.9-0.2
		c2.6,0,5.2-0.4,7.9-0.8c1.3-0.2,2.6-0.4,4-0.6l3.5-0.5v-3.6c0.1-4.2,0.2-8.4,0.3-12.5c0.4-13.6,0.7-27.6-1.3-42.3L2796.7,2645.4
		L2796.7,2645.4L2796.7,2645.4z"/>
	<path class="st0" d="M2130,2196.8c-0.8,3-3.9,498.3,0.6,510.1l1,2.6h2.8c5.6,0,11.4,0,17.2,0.1c5.1,0.1,10.4,0.1,15.6,0.1
		c9.8,0,19.7-0.2,29.7-0.9l3.8-0.3v-514.8h-69.9L2130,2196.8L2130,2196.8L2130,2196.8z"/>
</g>
<linearGradient id="SVGID_1_" gradientUnits="userSpaceOnUse" x1="2786.6021" y1="-1970.4309" x2="3246.4919" y2="-1059.781" gradientTransform="matrix(1 0 0 1 0 3001.5601)">
	<stop  offset="0" style="stop-color:#395A8F"/>
	<stop  offset="1" style="stop-color:#332C54"/>
</linearGradient>
<path class="st1" d="M3483.9,1774.1c-49.4-117.1-101.1-233.2-152.8-349.3c-36.5-81.8-75.1-162.7-112.2-244.3
	c-36.2-79.6-70.1-160.3-108-239c-25.8-53.5-65.5-95.9-120.5-121.4c-44.6-20.7-92.5-27.7-141-29.6c-57.9-2.3-111.5,11.5-160.4,44.5
	c-83.1,56.2-133.1,137.4-172.2,226.4c-13.5,30.8-25.3,62.4-37,94c26.2-5.9,76.4-14.7,123.3-8.4c67.5,9.2,169.7,36.1,244.9,246.2
	c3.9,11,6.9,22.8,9.1,35.1c20.9,46.9,41.4,94,62.5,140.8c55.2,122.8,110.2,245.8,166.2,368.3c46.1,100.9,136.2,144.1,242.6,125.2
	C3454.7,2040.2,3536.3,1898.2,3483.9,1774.1L3483.9,1774.1L3483.9,1774.1z"/>
<linearGradient id="SVGID_00000007420975377951382150000017990524897266555552_" gradientUnits="userSpaceOnUse" x1="2412.7417" y1="-1126.2192" x2="2669.9517" y2="-1712.9893" gradientTransform="matrix(1 0 0 1 0 3001.5601)">
	<stop  offset="0" style="stop-color:#395A8F"/>
	<stop  offset="1" style="stop-color:#35386A"/>
	<stop  offset="1" style="stop-color:#33366E"/>
</linearGradient>
<path style="fill:url(#SVGID_00000007420975377951382150000017990524897266555552_);" d="M2603.1,1147.1
	c-46.9-6.4-97.1,2.4-123.3,8.4c-8.1,21.9-16.2,43.8-24.8,65.4c-39,97.8-78.6,195.4-118.4,293c-31.9,78.4-64.3,156.7-96.9,234.8
	c-37.3,89.2-31.1,173.3,28,251.9c50.5,67.1,134.9,86,209.2,65.3c69.7-19.5,118.6-65.7,146.8-131.3c41.7-97.3,80.7-195.7,120.6-293.7
	c29.9-73.4,59.4-147,89.2-220.5c1.9-4.7,4.7-9.1,8.8-16.9c5,7.6,8.8,12,11.1,17c1.2,2.7,2.4,5.4,3.6,8.1
	c-2.2-12.4-5.2-24.2-9.1-35.1C2772.8,1183.2,2670.6,1156.4,2603.1,1147.1L2603.1,1147.1L2603.1,1147.1z"/>
<linearGradient id="SVGID_00000047038444784214274550000018440259902871916172_" gradientUnits="userSpaceOnUse" x1="5554.2583" y1="-1970.4191" x2="6014.1484" y2="-1059.7692" gradientTransform="matrix(-1 0 0 1 6267.6299 3001.5601)">
	<stop  offset="0" style="stop-color:#ECC935"/>
	<stop  offset="1" style="stop-color:#E68B28"/>
</linearGradient>
<path style="fill:url(#SVGID_00000047038444784214274550000018440259902871916172_);" d="M16.1,1774.1
	c49.3-117.1,101.1-233.2,152.8-349.3c36.5-81.8,75.1-162.7,112.2-244.3c36.2-79.6,70.1-160.3,108-239
	c25.8-53.5,65.5-95.9,120.5-121.4c44.7-20.7,92.6-27.7,141-29.6c57.9-2.3,111.5,11.5,160.4,44.5c83.1,56.2,133.1,137.4,172.2,226.4
	c13.5,30.8,25.3,62.4,37,94c-26.2-5.9-76.4-14.7-123.3-8.4c-67.5,9.2-169.7,36.1-244.9,246.2c-3.9,11-6.9,22.8-9.1,35.1
	c-20.9,46.9-41.4,94-62.5,140.8c-55.2,122.8-110.2,245.8-166.2,368.3c-46.1,100.9-136.2,144.1-242.6,125.2
	C45.3,2040.2-36.3,1898.2,16.1,1774.1L16.1,1774.1z"/>
<linearGradient id="SVGID_00000170279686494247445160000001526617811834428326_" gradientUnits="userSpaceOnUse" x1="5180.437" y1="-1126.2212" x2="5437.6074" y2="-1712.9912" gradientTransform="matrix(-1 0 0 1 6267.6299 3001.5601)">
	<stop  offset="0" style="stop-color:#EED83A"/>
	<stop  offset="1" style="stop-color:#F18329"/>
</linearGradient>
<path style="fill:url(#SVGID_00000170279686494247445160000001526617811834428326_);" d="M896.9,1147.1c46.9-6.4,97,2.4,123.3,8.4
	c8.1,21.9,16.2,43.8,24.8,65.4c39,97.8,78.6,195.4,118.4,293c31.9,78.4,64.3,156.7,96.9,234.8c37.3,89.2,31.2,173.3-28,251.9
	c-50.5,67.1-134.8,86-209.2,65.3c-69.7-19.5-118.7-65.7-146.8-131.3c-41.7-97.3-80.7-195.7-120.6-293.7
	c-29.9-73.4-59.4-147-89.2-220.5c-1.9-4.7-4.7-9.1-8.8-16.9c-5,7.6-8.8,12-11.1,17c-1.2,2.7-2.4,5.4-3.6,8.1
	c2.2-12.4,5.2-24.2,9.1-35.1C727.1,1183.2,829.3,1156.4,896.9,1147.1L896.9,1147.1L896.9,1147.1z"/>
<linearGradient id="SVGID_00000065789657359977687760000013589736565314427790_" gradientUnits="userSpaceOnUse" x1="5206.2764" y1="-2245.0132" x2="5666.166" y2="-1334.3632" gradientTransform="matrix(-1 0 0 -1 7042.1699 -412.11)">
	<stop  offset="0" style="stop-color:#D7184D"/>
	<stop  offset="1" style="stop-color:#841942"/>
</linearGradient>
<path style="fill:url(#SVGID_00000065789657359977687760000013589736565314427790_);" d="M1138.6,1090
	c49.3,117.1,101.1,233.2,152.8,349.3c36.5,81.8,75.1,162.7,112.2,244.3c36.2,79.6,70.1,160.3,108,239
	c25.8,53.5,65.5,95.9,120.5,121.4c44.6,20.6,92.5,27.7,141,29.6c57.9,2.3,111.5-11.5,160.4-44.6c83.1-56.2,133.1-137.4,172.2-226.4
	c13.5-30.8,25.3-62.4,37-94c-26.2,5.9-76.4,14.7-123.3,8.4c-67.5-9.2-169.7-36.1-244.9-246.2c-3.9-11-6.9-22.8-9.1-35.1
	c-20.9-46.9-41.4-94-62.5-140.8c-55.2-122.8-110.2-245.8-166.2-368.3c-46.1-100.9-136.2-144.1-242.6-125.2
	C1167.8,823.8,1086.2,965.8,1138.6,1090L1138.6,1090L1138.6,1090z"/>
<linearGradient id="SVGID_00000165228333668625564660000003554558292016595362_" gradientUnits="userSpaceOnUse" x1="4832.4038" y1="-1400.8127" x2="5089.6138" y2="-1987.5726" gradientTransform="matrix(-1 0 0 -1 7042.1699 -412.11)">
	<stop  offset="0" style="stop-color:#C31E51"/>
	<stop  offset="1" style="stop-color:#88163F"/>
	<stop  offset="1" style="stop-color:#33366E"/>
</linearGradient>
<path style="fill:url(#SVGID_00000165228333668625564660000003554558292016595362_);" d="M2019.4,1716.9
	c46.9,6.4,97.1-2.4,123.3-8.4c8.1-21.9,16.2-43.8,24.8-65.4c39-97.8,78.6-195.4,118.4-293c31.9-78.4,64.3-156.7,96.9-234.8
	c37.3-89.2,31.1-173.3-28-251.9c-50.5-67.1-134.9-86-209.2-65.3c-69.7,19.5-118.7,65.7-146.8,131.3
	c-41.7,97.3-80.7,195.7-120.6,293.7c-29.9,73.4-59.4,147-89.2,220.5c-1.9,4.7-4.7,9.1-8.8,16.9c-5-7.6-8.8-12-11.1-17
	c-1.2-2.7-2.4-5.4-3.6-8.1c2.2,12.4,5.2,24.2,9.1,35.1C1849.7,1680.8,1951.9,1707.7,2019.4,1716.9L2019.4,1716.9L2019.4,1716.9z"/>
</svg>
