<?xml version="1.0" encoding="utf-8"?>
<!-- Generator: Adobe Illustrator 27.7.0, SVG Export Plug-In . SVG Version: 6.00 Build 0)  -->
<svg version="1.1" id="Layer_1" xmlns="http://www.w3.org/2000/svg" xmlns:xlink="http://www.w3.org/1999/xlink" x="0px" y="0px"
	 viewBox="0 0 3500 3500" style="enable-background:new 0 0 3500 3500;" xml:space="preserve">
<style type="text/css">
	.st0{fill:#FFFFFF;}
</style>
<path class="st0" d="M3072,1322H428c-236.4,0-428,191.6-428,428l0,0c0,236.4,191.6,428,428,428h2644.1c236.4,0,428-191.6,428-428
	l0,0c0-236.4-191.6-428-428-428H3072z M915,2082.1h-95v-229.5H444.7v229.5h-95v-554h95v229.5H820v-229.5h95V2082.1z M1557.3,2014.6
	c0,37.3-30.2,67.5-67.5,67.5h-393.5c-37.3,0-67.5-30.2-67.5-67.5v-418.9c0-37.3,30.2-67.5,67.5-67.5h393.5
	c37.3,0,67.5,30.2,67.5,67.5V2014.6L1557.3,2014.6z M2305.2,1562.4v519.7h-95v-412.2l-146.5,165.9l-63.3,71.7l-63.4-71.8
	l-153.2-173.4V2082h-95v-554h103.1l208.4,235.9l208.4-235.9h96.5v32.2l1,0.9l-1,1.1V1562.4z M2944.7,2082.5h-483.6v-0.4h-21.2v-554
	h294.7v95h-199.7v126.7h299.2v95h-299.2v142.7h409.8V2082.5z M3150.3,1623.1h-110.6v110.6h-95v-110.6h-110.6v-95h110.6v-110.6h95
	v110.6h110.6V1623.1z"/>
<polygon class="st0" points="1123.8,1623.1 1123.8,1987.1 1293,1987.1 1462.3,1987.1 1462.3,1623.1 1293,1623.1 "/>
</svg>
