<?xml version="1.0" encoding="utf-8"?>
<!-- Generator: Adobe Illustrator 27.7.0, SVG Export Plug-In . SVG Version: 6.00 Build 0)  -->
<svg version="1.1" id="Layer_1" xmlns="http://www.w3.org/2000/svg" xmlns:xlink="http://www.w3.org/1999/xlink" x="0px" y="0px"
	 viewBox="0 0 3500 3500" style="enable-background:new 0 0 3500 3500;" xml:space="preserve">
<style type="text/css">
	.st0{fill:#FFFFFF;}
	.st1{fill:#F8140C;}
</style>
<path class="st0" d="M1487.8,2511.6h-217.5c3.4-10.9,5.9-20.6,9.3-29.9c40.6-110.6,84.6-219.8,134.8-326.5
	c7.5-15.9,16.5-21.1,33.8-20.6c47.8,1.5,95.8,0.9,143.6,1.1c6.7,0,13.4,0,22.7,0c41.1-182,82.1-363.5,123.7-547.4
	c44.1-1.9,88.4,0.2,135-1.3c8.3-35.6,16.6-71.4,25.3-108.7h-55.6c-3.8,14.9-7.5,29.7-11.8,46.4h-134.4
	c-41.4,182.6-82.4,363.5-123.9,546.7c-82.6,1.9-165.2-0.7-250.3,0.1c-6.6-45-13.2-89.3-19.8-134.5c-7-0.4-13-1-19-1
	c-61.4,0-122.8,0.4-184.2-0.4c-13.6-0.2-20.5,4.9-27,16c-21.1,36-43.4,71.3-64.6,107.3c-5.5,9.3-11.6,13-22.5,12.8
	c-37.7-0.7-75.5-0.3-116.6-0.3c7.7-13.6,14.1-24.9,20.6-36.3c-0.6-0.6-1.1-1.3-1.7-1.9c-2,1.7-4.1,3.3-6,5.2
	c-55,54.3-122.5,77.4-198.3,76c-87.6-1.6-166.3-30.9-235.6-84.4c-12.7-9.8-23.9-21.6-37.6-34.2c21.6-19.7,43.2-36.3,65.3-54.5
	c6.8,6,13.2,11.7,19.7,17.4c35.9,31.6,77.2,52.3,125.2,55.9c79.4,6,157.5-56.4,172.9-135c8.2-41.7,1-81.9-10.3-121.5
	c-15.5-54.3-33.1-108.1-48.1-162.5c-6.8-24.5-12.3-50.1-13.3-75.4c-2.9-69.5,23.9-127.6,76.2-173.2c42-36.6,92.2-54.9,147.4-59.8
	c61-5.4,119.5,4.9,175.9,28.3c31.5,13.1,59,31.8,81.5,59.2c-19.2,16.1-37.8,31.6-57,47.6c-6.3-3.9-12-7.3-17.5-10.8
	c-24.6-15.9-51.1-26.9-80.1-32.2c-79.3-14.4-157.3,47.1-162.1,127.6c-2.6,43.1,6.8,84.3,19,125.1c13.1,43.8,28.3,87.1,39.9,131.3
	c12.9,49.3,16.4,99.6,6.4,150.1c-1.7,8.5-4.3,16.8-5,26.3c4.6-7.2,9.3-14.2,13.7-21.5c97.2-162.4,194.6-324.7,291.3-487.3
	c7.8-13.2,15.9-19.2,31.7-18.2c24.7,1.6,49.6,0.4,75.8,0.4c30.1,205.1,60,408.5,89.9,611.9c1.1,0,2.2-0.1,3.3-0.2
	c37.4-165.3,74.7-330.6,112.7-498.6c-44.6-2.6-87.4,0-132.7-1.6c4.3-38.4,15.8-73.8,23.3-112c8.2,0,15.4,0,22.7,0
	c114.7,0,229.4-0.3,344,0.4c14.6,0,22.9-4.5,30.8-16.6c45.4-69.3,91.9-137.9,137.6-207c10-15.1,18.8-31.1,27.9-46.9
	c2.7-4.6,4.6-9.7,6.4-14.8c7.4-20.6,1.5-30.5-20-30.1c-17.4,0.3-35,2.5-52.1,5.7c-139.9,25.6-278,58.8-414.9,96.9
	c-31.1,8.7-62.3,17-96.2,26.3c-23.6-39.1-47.4-78.6-72.5-120.3c11.4-4.9,20.8-10.2,30.9-13.1c56.9-16.4,113.5-34.6,171.2-47.6
	c92-20.6,184.5-39.2,277.3-55.5c75.1-13.2,151.1-20.7,227.5-17.4c30.8,1.3,61.4,7.3,92,11.6c5.9,0.8,11.7,3.2,17.3,5.4
	c31.2,11.8,40.2,27.4,35.5,60.8c-4.7,32.9-15.7,64-28.6,94.4c-25.1,59.7-56.6,116.1-89,172.1c-116.3,201.1-232.5,402.3-348.6,603.5
	c-64.1,111.1-113.4,229.1-163.2,346.9c-31.2,73.7-62.2,147.6-93.3,221.4c-3.1,7.4-6.6,14.7-10.4,23L1487.8,2511.6z M1263.3,1606.2
	c-1.3,0-2.5,0.2-3.8,0.3c-39.2,74.9-78.4,149.9-117.9,225.5c32.5,3.5,134.7,2.3,149.2-1.6c-9.2-74.7-18.3-149.4-27.5-224.1
	L1263.3,1606.2z"/>
<path class="st0" d="M2432.1,2424H2244c-19.5,33.8-39.3,68-59.6,103.3h-139.5c103-171.5,205.2-341.6,307.5-512H2507
	c19.7,140.5,39.4,280.8,59.1,421c1,0,2,0,3.1,0c32.5-140.3,65-280.6,97.7-421.9c7.9,0,13.8,0,19.8,0c62.1,0,124.1,0,186.2,0
	c33.2,0,66.1,2.6,97.8,12.9c11.5,3.7,23,8,33.7,13.5c28.9,14.8,48.9,37.4,57.3,69.4c1.8-1,3.5-1.4,4-2.4
	c30.3-52,78.9-77.8,134.8-91.7c46.8-11.6,94.5-14.1,142.6-10.6c42.5,3,84.4,8.8,125.1,21.8c10.1,3.2,20,7.2,31.7,11.4
	c-8.4,39.9-16.6,78.4-24.5,116.2c-9.1,3.8-15.5,2.3-22-2.8c-53.8-41.8-115.7-55.6-182.5-51.5c-21,1.3-41.4,5.5-60,16.1
	c-11.6,6.6-20.1,15.7-23.6,28.9c-4.5,17.3,1.3,34.2,17.8,43.2c15.3,8.3,31.6,15,48.2,20.4c31.3,10.3,63.6,17.9,94.6,29
	c21.4,7.7,42.3,17.8,61.6,29.7c31.3,19.3,47.2,48.6,48.7,85.8c2.4,59.8-21.3,105.9-71.3,138.3c-37.5,24.3-79.5,35.8-123.5,41.1
	c-71.7,8.5-142.6,5-212.8-12.6c-2.5-0.6-5.1-1-8.2-1.7c-0.4,3-0.8,5.4-1.3,8.8h-145.6c-32-62.3-64-124.4-96.4-187.3h-74.5
	c-14.4,61.8-28.9,123.8-43.6,186.8h-236.5C2440.4,2493.2,2436.3,2459.4,2432.1,2424L2432.1,2424z M3012.6,2372.1
	c8.8,3.4,15.4,5.4,21.5,8.5c4.1,2.1,7.3,5.9,11.1,8.7c65.3,47.1,138.6,59.9,217,49.1c18.1-2.5,35.4-8.6,48.4-22.8
	c20.3-22.2,16.7-52.2-9.4-66.6c-14-7.7-29.5-13.1-44.8-18.2c-33.2-11-66.9-20.4-100-31.8c-45.7-15.8-85.1-39.6-102.6-91.5
	c-27.3,55.8-74.1,83.7-128,104.1c23.6,43,46.5,84.6,71.2,129.7c5.5-24.4,10-44.5,15.5-69.2H3012.6z M2746.3,2246.7
	c39.7-1.4,76.7,3.9,113-5.8c10.2-2.7,20.3-7.4,29.3-13c23-14.3,33.5-36.2,33.3-62.9c-0.1-27.3-13.3-44.9-39.6-51.4
	c-34.4-8.5-69.2-3.9-104.3-4.6c-10.7,46.4-20.9,90.6-31.8,137.7H2746.3z M2422,2329.7c-3.3-30.5-5.9-59.8-9.7-88.9
	c-3.8-28.7-4.7-57.8-12-90.2c-35.3,61.9-69.1,119.4-102.2,179.1L2422,2329.7L2422,2329.7z"/>
<path class="st1" d="M2588,1028.8c-24.9-99.2-85.9-169.1-177.3-213.1c-57.2-27.6-118.4-39.9-181.2-45.6c-9.2-0.8-18.3-2.9-27.4-4.4
	h-101.2c-5.1,1.2-10.2,3-15.4,3.5c-20.8,1.8-41.8,2.1-62.4,5c-60,8.3-120.2,15.8-179.6,27c-120.6,22.7-238.1,57.6-353.6,98.7
	c-102.8,36.6-205.4,73.6-301.4,126.5c-45.4,25-91,49.9-135.9,75.8c-146.2,84.4-286.9,176.6-414.3,288
	C526,1488.5,419.6,1592.5,323.7,1707c-96.4,115.2-180.4,238.4-243.6,375.1c-34,73.6-61.1,149.3-73.8,229.8
	c-1.8,11.7-4.2,23.4-6.4,35.1v72.8c1.4,4.3,3.6,8.5,4.1,12.9c12.6,100.2,60.7,178.6,145.7,233.5c61.4,39.6,130.5,56.6,202.2,64.1
	c53.8,5.6,107.6,4.9,161.6,1.2c83.6-5.6,166-18.1,247.7-35.6c141.9-30.4,279.6-74.4,414.9-126.3c11.8-4.5,23.6-9.2,38.6-15
	c-5.6-0.7-7.5-1.2-9.3-1.1c-3.4,0.2-6.7,0.7-10,1.3c-123.8,24.8-248.7,39.4-375.1,40.6c-108.7,1-217-3.7-323.9-25.5
	c-56.9-11.7-112.2-28.3-163.6-56.4c-51.5-28.2-88.7-68.8-112.6-122.7c-34.3-77.4-37.8-157.7-25.1-239.6c11.9-77,37.4-150,69.9-220.6
	c55.2-119.8,130.7-226.2,218.4-323.9c141.7-157.8,301.3-295.2,479.2-410.8c55.9-36.3,114.1-69.1,171.1-103.7
	c82-49.9,169-90.2,258.6-123.5c114.2-42.5,231.3-76.7,350.9-101.3c111.5-22.9,223.7-34,337.5-22c56.5,6,111.8,17.2,164.9,37.7
	c82.4,31.8,149.3,82.7,192.7,161.4c44.6,80.9,51.6,167.3,37.2,256.7c-12,74.3-37.1,144.5-69.1,212.3
	c-87.5,185.4-212.2,343.9-353.9,490.2h8.2c2.8-2.7,5.3-5.3,7.8-7.9c53.5-56.1,108.6-110.7,160.1-168.6
	c98.8-111.1,185.6-231.1,256.8-361.9c45.6-83.7,83.8-170.3,102.1-264.5c11.2-57.4,14.5-115,0.1-172.3L2588,1028.8z"/>
<path class="st0" d="M2091.1,2025.9c-9.1-2.5-18.3-4.3-27.5-6.3c-10.7-2.3-36-4-36-4c-71.5-0.7-143-0.9-214.5-1.1
	c-5.8,0-11.6,0.9-17.8,1.4c-39.6,171.1-78.9,340.6-118.4,511.3h133.6c6.6-28.3,12.8-55.8,19.3-83.2c6.6-27.8,13.3-55.7,20.3-85
	c32.7,0,63.1,1.3,93.3-0.3c48.8-2.7,96.2-12.6,139.7-36c58.6-31.6,97.8-77.6,105-146.1C2196,2101.2,2165.3,2046.7,2091.1,2025.9
	L2091.1,2025.9z M2004.2,2244.7c-12.2,6.6-26,11.1-39.6,14.3c-29.6,6.9-59.7,4.2-92.8,4.5c12-52.5,23.3-101.9,34.7-152
	c23.2,0,45.4-0.4,67.5,0.2l0,0l0,0c1.9,0,3.8,0.1,5.6,0.2c1,0,2.1,0.4,3.1,1c7.1,1,17.1,2.7,25.2,4.6c0.9,0,1.8,0,2.6,0.2
	c2.3,0.7,4.5,1.5,6.7,2.5c0.9,0.3,1.6,0.7,2.2,1l0,0c12.3,6,21.1,16,25,30.6c7.1,26.8,0.2,70.9-40.3,92.8L2004.2,2244.7z"/>
</svg>
