<?xml version="1.0" encoding="utf-8"?>
<!-- Generator: Adobe Illustrator 27.7.0, SVG Export Plug-In . SVG Version: 6.00 Build 0)  -->
<svg version="1.1" id="Layer_1" xmlns="http://www.w3.org/2000/svg" xmlns:xlink="http://www.w3.org/1999/xlink" x="0px" y="0px"
	 viewBox="0 0 3500 3500" style="enable-background:new 0 0 3500 3500;" xml:space="preserve">
<style type="text/css">
	.st0{fill:#FB981B;}
	.st1{fill:#FFFFFF;}
</style>
<path class="st0" d="M2338.1,2722.7c-20.7,2.3-32,4.6-43.3,4.6c-348.2-0.7-696.4-1.5-1044.6-2.5c-68.4-0.2-61.8,5.6-61.8-64.2
	c0-638.9,0-1277.8-0.1-1916.7c0-63.1-0.5-63.2-64.6-63.2c-301,0-602,0-903,0c-53.3,0-53.5-0.1-53.6-53
	c-0.4-198.1-0.4-396.2-1.5-594.3c-0.1-19.7,7.4-27.6,24.7-28.8c17.5-1.2,35-1.5,52.6-1.5c840.9,0,1681.8,0.1,2522.7-0.2
	c162,0,323.9-2.3,485.9-2.9c53.7-0.2,54.6,1,54.4,54.1c-1,192.7-2.3,385.4-3.6,578.1c0,12.8-2,25.7-3.6,45.5
	c-40.1-20.8-73.8-39.1-108.3-55.9c-158.5-77.2-326.1-110.2-502.1-101.5c-173.5,8.6-334.9,58.6-481.7,149.8
	c-130.5,81-241.6,184.2-330.3,311.2c-134.2,192.2-205.3,404.8-212.8,638.5c-7.7,239.5,51,462,177.6,665.8
	c69.6,112,156.5,210,262.7,288.2c64.7,47.6,136.7,85.4,205.3,127.7c7.4,4.6,14.1,10.2,29.2,21.1L2338.1,2722.7z"/>
<path class="st1" d="M2783.2,2142.7c17.3,0,34.6,0,51.9,0c143.1,0,286.1,0,429.2,0.1c44.3,0,47.6,2.9,47.6,44.6
	c0.2,121.3,0.2,242.6-0.3,363.9c-0.2,45.2-5.4,49.2-49,46c-17.5-1.3-35-1.6-52.6-1.6c-313.1,0-626.2,0-939.4-0.1
	c-15.8,0-31.6-1.5-53.3-2.6c6.7-51.9,10.8-99.9,19.3-147.1c39.2-217.8,129.8-412.7,270.1-583.5c92.2-112.3,188.3-221.4,282.4-332.1
	c51.6-60.7,101.5-122.9,132.8-197c41.8-99,52.4-198.2-10.7-293.3c-58-87.4-161.6-87.8-221.1-1.2c-37.9,55-47.2,119.7-57.1,183.6
	c-8.5,55.1-7.1,53.3-63.3,45.6c-96.2-13.3-192.7-24.6-289.2-35.2c-22.4-2.5-35.8-7.6-32.8-33.5c17.8-154.8,42-307.7,139.4-436.8
	c71.6-94.9,166.7-151.1,286-163.5c110.6-11.5,220.4-11.7,329.1,19c112,31.7,191.1,102.2,247.6,200.7
	c59.1,103.1,81.8,215.5,84.5,333.2c5.1,220.2-66.9,413.4-208,580c-85.1,100.6-178.3,194.3-266.4,292.4
	c-30.2,33.6-55.9,71.3-83.7,107.1c2.3,3.7,4.7,7.5,7,11.2L2783.2,2142.7z"/>
<g>
	<path class="st0" d="M389.1,3483.3v-535H204v-73.7h450.2v73.7H470v535h-81H389.1z"/>
	<path class="st0" d="M691.1,3483.3L913,2873.7h89.5l222.7,609.6H1143l-64.3-179.1H835.8l-64.3,179.1H691L691.1,3483.3z
		 M863.7,3229.7h188.1l-94.2-268.6l-93.8,268.6H863.7z"/>
	<path class="st0" d="M1300.6,3483.3v-608.7h210.8c60.5,0,106.4,14.9,137.5,44.5c31.1,29.7,46.7,73.2,46.7,130.7
		s-5.2,57.7-15.6,81.4s-25.9,43.7-46.5,60c-16.6,12.9-35.4,21.9-56.5,27.2s-56.4,7.9-105.8,7.9h-89.5v257L1300.6,3483.3
		L1300.6,3483.3z M1489.5,2949.1h-107.9v202.6h101.5c47.7,0,81-7.9,99.8-23.6c18.8-15.7,28.3-41.8,28.3-78.4s-9.2-61.8-27.6-77.3
		c-18.4-15.6-49.8-23.3-94-23.3H1489.5z"/>
	<path class="st0" d="M1829.7,3483.3v-608.7h379.1v73.7h-298.1v182.5h272v72.8h-272v206h305v73.7h-385.9H1829.7z"/>
	<path class="st0" d="M2403.7,3282.4c0,44.3,13,79.3,39,105.2c26,25.8,61,38.8,104.9,38.8s72-10.1,96.2-30.2
		c24.1-20.1,36.2-46.9,36.2-80.3s-42.8-79.2-128.5-102.4c-17.1-4.6-30.4-8.1-39.8-10.7c-68.8-19.4-114.2-40.9-136.2-64.5
		s-33-56.5-33-98.7s17.8-97.6,53.5-130.9c35.7-33.3,82.4-49.9,140.1-49.9s117.1,17.1,153.4,51.2c36.3,34.1,54.4,82.3,54.4,144.6v1.7
		h-79.7c-3.1-40.6-15.5-71.6-37.1-93.2c-21.6-21.6-51-32.3-88.5-32.3s-62.2,8.8-82.9,26.3c-20.7,17.6-31.1,40.9-31.1,70
		s7.8,50.5,23.3,64.3c15.6,13.7,56.6,28.3,123.2,43.7c77.4,18,128.3,39.4,152.7,64.3s36.6,60.7,36.6,107.5s-19.5,106.1-58.5,140.9
		c-39,34.8-91.6,52.3-157.9,52.3s-120.6-18.8-158.7-56.5c-38.1-37.7-58.8-91.4-61.9-161.1h80.1L2403.7,3282.4z"/>
	<path class="st0" d="M2866.7,3483.3v-608.7h81.8v248h243.7v-248h81v608.7h-81v-286.1h-243.7v286.1H2866.7z"/>
</g>
</svg>
