<?xml version="1.0" encoding="utf-8"?>
<!-- Generator: Adobe Illustrator 27.7.0, SVG Export Plug-In . SVG Version: 6.00 Build 0)  -->
<svg version="1.1" id="Layer_1" xmlns="http://www.w3.org/2000/svg" xmlns:xlink="http://www.w3.org/1999/xlink" x="0px" y="0px"
	 viewBox="0 0 3500 3500" style="enable-background:new 0 0 3500 3500;" xml:space="preserve">
<style type="text/css">
	.st0{fill:#F97600;}
	.st1{fill:#FFFFFF;}
</style>
<g>
	<path class="st0" d="M506,1548.8c0,55.6-45.7,101.1-101.4,100.9c-55.7-0.1-101.2-45.8-100.9-101.5c0.2-55.3,45.6-100.4,101-100.5
		C460.4,1447.7,506.1,1493.1,506,1548.8L506,1548.8z M404.7,1498.3c-27.5,0-50.4,22.9-50.4,50.3s22.7,50.3,50.2,50.5
		c27.8,0.2,51.1-23.1,50.8-50.8c-0.2-27.5-23.2-50.2-50.7-50.1L404.7,1498.3z"/>
	<path class="st0" d="M303.6,1750.8c0,55.6-45.7,101.1-101.4,101S101,1806,101.3,1750.4c0.2-55.3,45.6-100.4,101-100.5
		c55.7,0,101.4,45.4,101.4,101L303.6,1750.8z M203.1,1700.3c-27.4-0.5-50.6,21.9-51.3,49.5c-0.7,27.3,21.7,50.6,49.4,51.4
		c27.6,0.8,51.3-22.1,51.7-49.9C253.3,1724,230.7,1700.9,203.1,1700.3z"/>
	<path class="st0" d="M708.4,1750.8c0,55.6-45.7,101.1-101.4,100.9c-55.7-0.1-101.2-45.8-100.9-101.5c0.2-55.3,45.6-100.4,101-100.5
		C662.8,1649.7,708.5,1695.1,708.4,1750.8L708.4,1750.8z M657.8,1750.8c0-27.4-22.8-50.3-50.3-50.5c-27.4-0.2-50.5,22.5-50.8,50
		c-0.3,27.7,22.9,51,50.7,50.9C634.9,1801.1,657.7,1778.2,657.8,1750.8L657.8,1750.8z"/>
	<path class="st0" d="M404.9,2053.7c-55.7,0-101.3-45.5-101.3-101.1s45.8-101,101.5-100.9c55.4,0.2,100.7,45.4,100.8,100.7
		c0.2,55.6-45.4,101.2-101.1,101.3H404.9z M404.7,1902.3c-27.5,0.1-50.3,22.9-50.4,50.4c0,27.4,22.7,50.3,50.3,50.5
		c27.8,0.2,51.1-23.1,50.8-50.8C455.1,1924.9,432.2,1902.2,404.7,1902.3L404.7,1902.3z"/>
	<path class="st0" d="M455.4,1750.5c0.2,27.4-22.5,50.4-50.1,50.7c-27.7,0.3-51.1-22.9-51-50.6c0.1-27.5,23-50.2,50.5-50.3
		C432.3,1700.3,455.2,1723,455.4,1750.5L455.4,1750.5z"/>
</g>
<path class="st0" d="M840.8,2104.4c-0.8,0-1.6,0-2.4,0c-48.1-0.1-178,0-226,0h-10.5c4.2-2.7,6.3-4.2,8.6-5.6
	c83.1-49.8,141.7-120,175-210.7c19.8-53.8,27.3-109.7,22.8-167c-8.4-105.3-51.1-194.3-128.3-266.3
	c-63.7-59.4-139.4-94.2-226.1-104.8c-5.6-0.7-11.2-0.9-16.7-1.8c-2.4-0.4-4.7-2-7-3.1h-50.6c-2.6,1.1-5.2,2.9-7.9,3.1
	c-129.6,12.6-231.3,72.7-304.4,180c-39.2,57.4-60.5,121.5-65.8,190.9c-0.2,2.2-0.9,4.3-1.4,6.5v50.5c2.1,15.2,3.7,30.5,6.5,45.6
	c20,108.2,75,194.5,164.4,258.7c60.4,43.4,128.2,67.4,202.5,73c10.3,0.8,20.7,1.4,31,1.4c116.3,0,314.5,0,430.8,0
	c1.9,0,3.8,0,5.6,0.2L840.8,2104.4L840.8,2104.4z M50.6,1749.8c0.8-194.6,160.5-353.2,354.9-352.6c194.9,0.6,353.9,159.9,353.5,354
	c-0.4,194.5-159.9,353.3-354.5,353C209.4,2103.9,49.8,1944.1,50.6,1749.8L50.6,1749.8z"/>
<g>
	<path class="st1" d="M2006.4,1687.9c0.6,7.7,0.8,14.7,1.7,21.6c4.1,30.3,5.2,60.7,4.9,91.3c-0.4,32.1,0,64.2,0,96.2
		c0,2.4,0,4.7,0,7.5h-74.7v-349.9h79.7c39.4,72.3,78.5,144.8,118,217.1c0.8-0.3,1.5-0.5,2.3-0.8c0-3.3,0.3-6.7,0-10
		c-1.1-11.6-2.5-23.1-3.5-34.7c-4.4-53.3-1-106.7-2-160c0-3.7,0-7.4,0-11.5h74.9v350c-2.4,0.1-4.8,0.3-7.1,0.3
		c-22,0-43.9-0.2-65.9,0.2c-5.4,0-8.1-1.7-10.6-6.3c-36.8-68.1-73.7-136.1-110.7-204.1c-1.3-2.4-1.7-6.1-6.8-6.7L2006.4,1687.9z"/>
	<path class="st1" d="M1303.1,1554.2h7.1c58.9,0,117.8,0,176.7,0c9.7,0,19.3,0.8,28.5,3.9c26.1,8.8,41.3,27.1,46.6,53.8
		c1.1,5.8,1.5,11.8,1.5,17.7c0.2,25.9,0.2,51.9,0,77.8c-0.2,27.7-17.4,51.7-43.4,60.9c-1.8,0.6-3.7,1.2-6.3,2
		c1.3,2.5,2.4,4.7,3.7,6.9c17,28.5,34,56.9,51.1,85.3c2.4,3.9,3.5,7.8,3.4,12.4c-0.3,9.7,0,19.3,0,29.5h-71.9
		c-9.9-20.3-20.1-41.2-30.3-62c-10.2-20.8-20.4-41.7-30.6-62.5h-61v124.7h-75.1v-350.3L1303.1,1554.2z M1378.5,1622.7v88.3
		c29.7,0,58.9,0.3,88-0.1c12.7-0.2,21.4-9.3,21.7-22c0.4-14.7,0.4-29.4,0-44.1c-0.3-11.1-6.4-18.2-17.3-21c-2.9-0.7-6-1-9.1-1.1
		c-24.1,0-48.3,0-72.4,0C1385.9,1622.7,1382.4,1622.7,1378.5,1622.7L1378.5,1622.7z"/>
	<path class="st1" d="M967.4,1729.7c0-34.7,0-69.4,0-104.1c0-12,1.4-23.7,6.3-34.7c10.4-23,28.5-36.1,53.1-40.5
		c4.5-0.8,9.2-1.3,13.7-1.3c41.1,0,82.2-0.2,123.2,0c16.8,0,32.6,4.5,46,15.1c14.8,11.7,23.4,27.1,25.5,45.9
		c0.9,8,1.3,16.2,1.3,24.3c0,66.3,0,132.7,0,199c0,11.5-1.4,22.8-6,33.4c-10.1,23.6-28.2,37.4-53.5,41.8c-4.5,0.8-9.2,1.3-13.7,1.3
		c-41.1,0-82.2,0.2-123.2,0c-15.5,0-30-3.9-42.8-13c-18.6-13.2-27.9-31.5-29.8-54c-0.3-4.2-0.3-8.3-0.3-12.5c0-33.6,0-67.2,0-100.8
		L967.4,1729.7z M1042.6,1729.4c0,23.3,0,46.6,0,69.8c0,6.8-0.2,13.6,0.2,20.4c0.5,10,6.4,19.4,18.9,20.9c3,0.4,6.1,0.8,9.2,0.8
		c11.6,0,23.3,0,34.9,0c10.1,0,20.2,0.2,30.3,0c14.9-0.4,22.8-7,25.2-20.8c0.4-2.6,0.3-5.3,0.3-7.9c0-55.3,0-110.7,0-166
		c0-2,0-4,0-5.9c-0.8-10.9-6.3-18.8-15.5-21.5c-3.9-1.1-8.2-1.5-12.3-1.6c-21.1-0.1-42.2-0.1-63.2,0c-3.1,0-6.1,0.4-9.1,0.9
		c-10.9,1.8-17.4,8.9-18.4,20c-0.3,2.8-0.2,5.7-0.2,8.6c0,27.4,0,54.9,0,82.3L1042.6,1729.4z"/>
	<path class="st1" d="M1892.4,1904.6h-73.6c-5.8-22.3-11.6-44.5-17.4-66.9h-113.9c-5.8,22.3-11.6,44.5-17.4,66.8h-73.5
		c0-6.9,0.4-13.6,0-20.3c-0.6-9.4,1.3-18.2,4.1-27.1c26.4-83.3,52.7-166.6,79-249.9c5.1-16.3,10.3-32.5,15.5-48.8
		c0.4-1.2,0.9-2.4,1.5-4h95.8c5.4,17,10.9,34,16.3,51.1c23.5,74.1,47,148.2,70.5,222.2c4,12.5,8,25,12,37.6c0.5,1.7,1.2,3.4,1.2,5.1
		c0.1,11.2,0,22.3,0,34L1892.4,1904.6z M1741.9,1628.7c-12.3,47.3-24.4,94.2-36.7,141.5h78.3c-0.3-1.3-0.5-2.2-0.7-3
		c-8.4-32.4-16.8-64.8-25.2-97.2c-3.2-12.3-6.3-24.6-9.5-36.9C1747.4,1630.3,1747,1626.6,1741.9,1628.7L1741.9,1628.7z"/>
	<path class="st1" d="M2513.1,1554.2c0,15.5,0,30.2,0,44.9c0,1.5-1.1,3.3-2.2,4.5c-5.2,5.6-10.8,10.9-15.9,16.7
		c-2.5,2.8-5.4,2.4-8.4,2.4c-36.7,0-73.4,0-110.1,0c-3.5,0-7,0.5-10.4,1.3c-10.2,2.6-16,9.8-16.6,20.2c-0.1,2,0,4,0,5.9
		c0,52.9,0,105.9,0,158.8c0,3.1-0.1,6.2,0.6,9.2c2.7,11.5,9.2,17.6,22.1,17.9c27.2,0.7,54.5,0.2,82.4,0.2v-126.3h75.1v194.5
		c-1.8,0.1-3.5,0.3-5.2,0.3c-58.7,0-117.3,0-176,0c-20.1,0-38-5.8-52.7-20.1c-14-13.6-20.6-30.4-21.3-49.5
		c-0.6-16-0.2-32.1-0.2-48.1c0-53.4,0-106.8,0-160.2c0-12.5,2.4-24.5,8.4-35.5c12.9-23.9,33.7-35.4,60.4-37.2
		c3.1-0.2,6.1-0.1,9.2-0.1c51.2,0,102.4,0,153.6,0h7.5L2513.1,1554.2z"/>
	<path class="st1" d="M2824.6,1554.6v15.2c0,8.6-0.2,17.1,0,25.7c0.1,3.8-1.1,6.6-3.9,9.2c-4.8,4.5-9.6,9.1-14,14
		c-2.8,3.1-5.7,4.1-9.8,4.1c-38.9-0.1-77.8,0-116.6,0h-7.6v71.3h102.9v67h-102.9v75.3h151.2v68.3h-226.4v-349.9h227L2824.6,1554.6z"
		/>
</g>
<g>
	<path class="st1" d="M3354.8,1830.1c0.9-1.7,2.1-3.2,2.5-5c4.9-18.4,9.6-36.9,14.4-55.3c11.3-43.4,22.7-86.8,34-130.3
		c6.7-25.9,13.4-51.7,20.1-77.6c0.6-2.3,1.3-4.6,2-7.3h72.1c-1.1,16.7,1.3,33.1-3.9,49.6c-20.8,67.1-40.7,134.5-61,201.9
		c-9.8,32.7-19.8,65.4-29.7,98.4h-101.9c-2.2-7.3-4.6-14.7-6.9-22.2c-26.3-87.7-52.6-175.3-78.9-263c-1.3-4.2-2.2-8.5-3.8-12.6
		c-6.7-16.9-3.9-34.5-4.3-52.2h71.5c23.8,91.6,47.7,183.3,71.5,275C3353.2,1829.7,3353.9,1829.9,3354.8,1830.1L3354.8,1830.1z"/>
	<path class="st1" d="M3193.9,1554.6c0,15.4,0,30.3-0.1,45.2c0,1.7-1.1,3.7-2.4,5c-5.7,5.8-11.4,11.6-17.4,17
		c-1.7,1.5-4.6,2.3-7,2.3c-20.9,0.2-41.7,0.1-62.6,0.1c-2.4,0-4.8,0-7.9,0v280.3h-75.1v-280.1H2925v-69.8H3193.9z"/>
</g>
</svg>
