<?xml version="1.0" encoding="utf-8"?>
<!-- Generator: Adobe Illustrator 27.7.0, SVG Export Plug-In . SVG Version: 6.00 Build 0)  -->
<svg version="1.1" id="Layer_1" xmlns="http://www.w3.org/2000/svg" xmlns:xlink="http://www.w3.org/1999/xlink" x="0px" y="0px"
	 viewBox="0 0 3500 3500" style="enable-background:new 0 0 3500 3500;" xml:space="preserve">
<style type="text/css">
	.st0{fill-rule:evenodd;clip-rule:evenodd;fill:#F2EE06;}
	.st1{fill-rule:evenodd;clip-rule:evenodd;fill:#F4B804;}
</style>
<g id="Layer_x0020_1">
	<circle class="st0" cx="2215.2" cy="1987.3" r="472.3"/>
	<path class="st1" d="M1043,1868.5l380.1,282.7L535,3345.1L0,2947.2l773.5-1039.9c5.2-7,11-13.4,16.6-20.3
		C855.6,1805.8,982.9,1823.8,1043,1868.5L1043,1868.5z"/>
	<path class="st1" d="M3500,1987.3c0,718.6-575.4,1284.8-1284.8,1284.8c-29.5,0-58.7-0.5-87.9-3.7
		c-526.9-58.4-691.4-276.8-996-503.4l394.3-531.4c105.9,78.8,213.2,156.1,317.7,236.7c102,78.5,233.3,121.6,371.9,121.6
		c333.8,0,604.5-270.7,604.5-604.6c0-189.7-87.5-359-224.2-469.9c-289.3-215.2-578.6-430.3-867.9-645.5
		c-138.5-103.1-174.7-265.2-74.4-410.4c72-104.3,152-204.8,227.7-306.6l648.7,482.5c182.3,135.5,379.2,253.6,547.6,407.3
		C3338.9,1291.7,3500,1623.4,3500,1987.3L3500,1987.3z"/>
</g>
</svg>
