<?xml version="1.0" encoding="utf-8"?>
<!-- Generator: Adobe Illustrator 27.7.0, SVG Export Plug-In . SVG Version: 6.00 Build 0)  -->
<svg version="1.1" id="Layer_1" xmlns="http://www.w3.org/2000/svg" xmlns:xlink="http://www.w3.org/1999/xlink" x="0px" y="0px"
	 viewBox="0 0 3500 3500" style="enable-background:new 0 0 3500 3500;" xml:space="preserve">
<style type="text/css">
	.st0{fill:#FFFFFF;}
	.st1{fill:#37A513;}
	.st2{fill:#E51313;}
</style>
<g>
	<path class="st0" d="M3104.9,1746.8h-2011c23.5,147.5,152.9,264,388.1,349.6c180.3,65.8,397.3,98.7,650.8,98.7
		s299.2-13.3,427.3-39.8s265.2-74.3,411.6-143.3l133.3,26.1c-198.6,122.9-418.2,209.9-658.6,261c-240.4,51.1-518.7,76.7-835,76.7
		c-543.6,0-955.2-63.4-1234.8-190.2c-224.8-102.2-337.1-229.1-337.1-380.5s165.3-333.1,495.9-442.9s718-164.7,1162.3-164.7
		s693.2,46.2,966.3,138.5s420.1,229.3,441,410.8H3104.9z M2140.5,1667.1c0-127.6-22.9-215.2-68.6-262.8
		c-45.8-47.6-117-83.6-213.7-108.2c-54.9-14.2-128.1-21.4-219.5-21.4c-135.9,0-247,20.2-333.2,60.6
		c-154.2,70.6-231.3,167.3-231.3,290.1v41.6L2140.5,1667.1L2140.5,1667.1z"/>
	<path d="M1611.3,2386.9c-271.1,0-512.7-16-718.1-47.7c-205.8-31.7-381.2-80-521.3-143.5c-113.3-51.5-199.6-110.3-256.6-174.6
		c-57.8-65.2-87.1-137.9-87.1-216s43-182.4,127.7-258.1c83.4-74.5,209.9-140.2,375.8-195.3c330.2-109.6,722.4-165.2,1165.8-165.2
		s696.8,46.8,969.9,139.1c137.4,46.5,244.8,105.1,319.1,174.3c75.1,70,118.7,152.7,129.4,245.7l1.4,12.4H1107.1
		c28.2,136.5,155.5,246.9,378.6,328.1c178.2,65,395.9,98,647,98s298.4-13.3,425-39.6c126.6-26.2,264.2-74.2,409.1-142.4l3.3-1.5
		l164.7,32.3l-24.1,14.9c-198.8,123-421.6,211.3-662.2,262.4c-240.1,51-521.8,76.9-837.3,76.9L1611.3,2386.9z M1697.6,1208.6
		c-441,0-830.9,55.2-1158.8,164.1c-163.1,54.2-286.9,118.4-368,190.8C91,1634.8,50.5,1716,50.5,1805.1
		c0,146,111.2,270.6,330.6,370.4c276.8,125.6,690.8,189.3,1230.2,189.3s594-25.7,832.7-76.4c228.3-48.6,440.3-130.9,630.7-244.8
		l-101.7-19.9c-145.3,68.2-283.5,116.1-410.8,142.5c-128.1,26.6-272.6,40.1-429.5,40.1c-253.7,0-473.9-33.4-654.6-99.4
		c-118.4-43.1-211.6-94.8-277.1-153.8c-66.3-59.7-106.1-128.5-118.2-204.5l-2-12.8h2011.4c-25.6-170-170.8-300.9-431.9-389.2
		c-270.8-91.5-594.7-138-962.8-138L1697.6,1208.6z M2151.6,1678.2H1063.1v-52.7c0-127,80-228,237.8-300.2
		c87.2-40.9,200.9-61.6,337.8-61.6s166.7,7.3,222.3,21.7c98.2,25,171.8,62.4,218.9,111.3c47.6,49.5,71.7,140.5,71.7,270.5v11.1
		V1678.2z M1085.3,1656h1044c-1.3-118.1-23.3-200.1-65.4-244c-44.1-45.8-114.2-81.2-208.4-105.2c-53.8-14-126.8-21-216.8-21
		c-133.6,0-244.2,20-328.5,59.6c-149.3,68.3-224.9,162.5-224.9,280.1V1656z"/>
</g>
<g>
	<g>
		<path class="st1" d="M291.1,1117.1c87.3-3.2,158.3,22.2,212.8,76.4c54.6,54.2,81.9,122,81.9,203.3s-20.4,130.7-61,183.5
			c-53.9,70.1-130,105.1-228.4,105.1S121.5,1652,67.6,1585.1c-42.6-52.8-63.9-115.5-63.9-188s27.7-149.2,83.1-203.5
			s123.5-79.8,204.4-76.6L291.1,1117.1z M296,1143c-50.1,0-88.3,25.6-114.4,76.8c-21.3,42-31.9,102.4-31.9,181.1
			s16.4,162.7,49.3,207.4c22.9,31.3,55,46.9,96.2,46.9s50.9-6.7,69.5-20.2c23.7-17.2,42.2-44.8,55.4-82.7
			c13.2-37.9,19.8-87.3,19.8-148.2s-6.7-126.7-20.2-162.7s-30.7-61.4-51.5-76.2C347.3,1150.4,323.3,1143,296,1143L296,1143z"/>
		<path d="M296.4,1689.2c-99.4,0-177.3-34.2-231.7-101.6C21.8,1534.3,0,1470.3,0,1397.3s28.3-151.4,84.2-206.2
			c55.9-54.8,125.5-80.9,207-77.7c87.9-3.2,160.4,22.8,215.4,77.5c55,54.6,83,123.9,83,206s-20.8,132.6-61.8,185.8
			c-54.4,70.7-132.2,106.6-231.3,106.6L296.4,1689.2z M277.9,1120.5c-73.8,0-137.1,25.5-188.5,75.8c-54.4,53.3-82,120.9-82,200.9
			s21.2,133.8,63.1,185.7c52.9,65.6,128.9,98.9,225.9,98.9s172.6-34.9,225.5-103.7c40-51.9,60.3-112.9,60.3-181.3
			s-27.2-147.5-80.8-200.7s-124.3-78.5-210.1-75.3h-0.1h-0.1c-4.4-0.2-8.8-0.3-13.1-0.3H277.9z M295.2,1658.9
			c-42.3,0-75.7-16.3-99.2-48.4c-33.2-45.2-50-115.7-50-209.6s10.9-140.4,32.3-182.8c26.7-52.3,66.3-78.8,117.7-78.8
			s52.9,7.7,74.3,22.9c21.4,15.2,39.2,41.4,52.9,77.9c13.6,36.2,20.4,91.4,20.4,164s-6.7,111.3-20,149.4
			c-13.4,38.4-32.5,66.8-56.7,84.4C347.7,1651.8,323.6,1658.8,295.2,1658.9L295.2,1658.9z M296,1146.7c-48.4,0-85.8,25.2-111.1,74.8
			c-20.9,41.3-31.5,101.7-31.5,179.4s16.4,161.3,48.6,205.2c22.1,30.1,53.4,45.4,93.2,45.4s49.5-6.6,67.4-19.5
			c23-16.7,41.2-43.9,54.1-80.9c13-37.3,19.6-86.7,19.6-146.9s-6.7-126-20-161.4c-13.2-35.1-30.1-60.2-50.2-74.5
			c-20.2-14.3-43.7-21.6-70-21.6H296z"/>
	</g>
	<g>
		<path class="st1" d="M1009.9,1486.2l148.8-361.4h223.2v15h-17.8c-16.2,0-29.1,2.8-38.8,8.5c-6.7,3.8-12.1,10.1-16.2,19
			c-3,6.5-4.4,23.3-4.4,50.5v361.4c0,28,1.5,45.6,4.4,52.6c3,7,9,13.1,18.2,18.4s21.4,7.9,36.8,7.9h17.8v15h-286.2v-15h17.8
			c16.2,0,29.1-2.8,38.8-8.5c6.7-3.8,12.1-10.2,16.2-19.4c3-6.5,4.4-23.4,4.4-50.9V1173l-210.2,500.1H953l-213.5-496.4v386.1
			c0,27,0.7,43.5,2,49.7c3.5,13.5,11.1,24.5,22.8,32.9c11.7,8.5,30.1,12.7,55.2,12.7v15H631.9v-15h5.7c12.1,0.3,23.4-1.7,34-5.9
			c10.5-4.2,18.5-9.8,23.9-16.8s9.6-16.8,12.5-29.5c0.5-3,0.8-16.7,0.8-41.2v-346.9c0-27.8-1.5-45.1-4.4-51.9
			c-3-6.9-9-12.9-18.2-18.2c-9.2-5.3-21.4-7.9-36.8-7.9H632v-15h224L1009.9,1486.2L1009.9,1486.2z"/>
		<path d="M1385.6,1676.7H1092v-22.4h21.5c15.4,0,27.9-2.7,36.9-8c6.1-3.4,11-9.3,14.7-17.7c1.9-4.1,4.1-16,4.1-49.4v-387.9
			l-204.1,485.4h-14.6l-207.3-482.2v368.1c0,26.6,0.7,43,1.9,48.9c3.2,12.4,10.4,22.8,21.4,30.7c11,8,28.9,12,53,12h3.7v22.4h-195
			v-22.4h9.4c11.7,0.3,22.6-1.6,32.6-5.6c9.8-3.9,17.3-9.2,22.3-15.6c5-6.6,9-16,11.9-28.1c0.2-1.4,0.7-8.7,0.7-40.4v-346.9
			c0-33.8-2.3-46.1-4.1-50.5c-2.6-6.1-8.2-11.6-16.6-16.4c-8.6-4.9-20.3-7.4-34.9-7.4h-21.1v-22.4h230.1l151.5,355.5l146.4-355.5
			h229.3v22.4h-21.5c-15.4,0-27.9,2.7-36.9,8c-6.1,3.4-11,9.2-14.7,17.3c-1.9,4.1-4.1,15.9-4.1,49V1579c0,34.1,2.3,46.6,4.2,51.1
			c2.6,6.2,8.2,11.8,16.6,16.6c8.6,4.9,20.3,7.4,35,7.4h21.5v22.4L1385.6,1676.7z M1099.3,1669.3h278.8v-7.6H1364
			c-15.9,0-28.9-2.8-38.6-8.4c-9.8-5.6-16.5-12.4-19.8-20.2c-3.2-7.5-4.7-25.2-4.7-54v-361.4c0-28,1.6-45.1,4.8-52.1
			c4.3-9.6,10.3-16.5,17.7-20.7c10.2-5.9,23.9-9,40.6-9h14.1v-7.6h-217l-151.2,367.3l-156.5-367.3H635.6v7.6h13.7
			c15.9,0,28.9,2.8,38.6,8.4c9.8,5.6,16.5,12.3,19.7,19.9c3.2,7.4,4.8,24.9,4.8,53.4v346.9c0,33.3-0.5,39.8-0.9,41.9
			c-3.1,13.3-7.6,23.7-13.2,31.1c-5.8,7.5-14.3,13.6-25.4,18c-10.9,4.3-22.8,6.4-35.4,6.1h-1.9v7.6h180.2v-7.6
			c-23.9-0.4-41.9-4.9-53.7-13.4c-12.4-9-20.6-20.8-24.3-35c-1.5-6.6-2.1-23.2-2.1-50.7v-386.1l7.1-1.5l212.5,494.2h4.8l209.3-497.8
			l7.1,1.4V1579c0,28.3-1.6,45.5-4.8,52.5c-4.3,9.8-10.3,16.9-17.7,21.1c-10.2,5.9-23.9,9-40.6,9h-14.1v7.6V1669.3z"/>
	</g>
	<g>
		<path class="st1" d="M1700,1658v15h-286.6v-15h18.2c15.9,0,28.7-2.8,38.4-8.5c7-3.8,12.4-10.2,16.2-19.4c3-6.5,4.4-23.4,4.4-50.9
			v-360.6c0-28-1.5-45.5-4.4-52.6c-3-7-9-13.1-18-18.4s-21.2-7.9-36.6-7.9h-18.2v-15H1700v15h-18.2c-15.9,0-28.7,2.8-38.4,8.5
			c-7,3.8-12.5,10.2-16.6,19.4c-3,6.5-4.4,23.4-4.4,50.9v360.6c0,28,1.5,45.6,4.6,52.6s9.2,13.1,18.2,18.4s21.2,7.9,36.6,7.9H1700
			L1700,1658z"/>
		<path d="M1703.7,1676.7h-294v-22.4h21.9c15.2,0,27.5-2.7,36.5-8c6.3-3.4,11.2-9.3,14.6-17.6c1.9-4.2,4.2-16.1,4.2-49.5v-360.6
			c0-34.1-2.3-46.6-4.2-51.1c-2.6-6.2-8.2-11.8-16.4-16.6c-8.4-4.9-20.1-7.4-34.7-7.4h-21.9v-22.4h294v22.4h-21.9
			c-15.2,0-27.5,2.7-36.5,8c-6.3,3.4-11.4,9.4-15.1,17.7c-1.9,4.1-4.1,16-4.1,49.4v360.6c0,34.1,2.4,46.6,4.3,51.1
			c2.8,6.2,8.4,11.9,16.7,16.7c8.4,4.9,20.1,7.4,34.7,7.4h21.9V1676.7L1703.7,1676.7z M1417.1,1669.3h279.2v-7.6h-14.5
			c-16,0-28.9-2.8-38.4-8.4c-9.7-5.6-16.3-12.4-19.7-20.1c-3.3-7.5-5-25.2-5-54v-360.6c0-28.3,1.6-45.5,4.8-52.5
			c4.3-9.8,10.5-17,18.2-21.1c10.1-5.9,23.7-8.9,40.2-8.9h14.5v-7.6h-279.2v7.6h14.5c15.9,0,28.9,2.8,38.4,8.4
			c9.7,5.6,16.3,12.4,19.5,20.1c3.2,7.6,4.7,25.2,4.7,54v360.6c0,28.3-1.6,45.4-4.8,52.5c-4,9.8-10,17-17.8,21.1
			c-10.1,5.9-23.7,8.9-40.2,8.9H1417v7.6H1417.1z"/>
	</g>
	<g>
		<path class="st1" d="M1729.9,1673v-15h18.2c15.9,0,28.1-2.5,36.6-7.5s14.8-11.8,18.8-20.4c2.4-5.7,3.6-22.6,3.6-50.9v-360.6
			c0-28-1.5-45.5-4.4-52.6c-3-7-9-13.1-18-18.4s-21.2-7.9-36.6-7.9h-18.2v-15h245.4c65.5,0,118.2,8.9,158.1,26.7
			c48.8,21.8,85.8,54.8,111,99s37.8,94.2,37.8,150s-6.2,74.1-18.6,106.5c-12.4,32.5-28.4,59.3-48.1,80.5
			c-19.7,21.2-42.4,38.1-68.1,50.9c-25.7,12.8-57.2,22.7-94.4,29.7c-16.4,3.2-42.3,4.9-77.6,4.9H1730L1729.9,1673z M1938.9,1155.9
			v427.7c0,22.6,1.1,36.5,3.2,41.6c2.2,5.1,5.8,9,10.9,11.7c7.3,4,17.8,6.1,31.5,6.1c45,0,79.4-15.4,103.1-46.1
			c32.3-41.5,48.5-105.9,48.5-193.2s-11.1-126.5-33.1-168.6c-17.5-32.9-40-55.2-67.5-67.1
			C2016.1,1159.6,1983.9,1155.6,1938.9,1155.9L1938.9,1155.9z"/>
		<path d="M1975.3,1676.7h-249.1v-22.4h21.9c15.2,0,26.8-2.3,34.7-7c7.8-4.6,13.6-10.9,17.3-18.8c1.5-3.4,3.3-14.9,3.3-49.4v-360.6
			c0-34.1-2.3-46.6-4.2-51.1c-2.6-6.2-8.2-11.8-16.4-16.6c-8.4-4.9-20.1-7.4-34.7-7.4h-21.9V1121h249.1c65.7,0,119.4,9.1,159.6,27
			c49.3,22.1,87.2,55.9,112.7,100.6c25.4,44.6,38.3,95.6,38.3,151.8s-6.3,75.1-18.8,107.8c-12.5,32.8-29,60.2-48.9,81.7
			c-19.9,21.4-43.2,38.8-69.2,51.7c-25.9,12.9-58,23-95.4,30c-16.6,3.3-42.9,4.9-78.3,4.9L1975.3,1676.7z M1733.6,1669.3h241.7
			c34.9,0,60.8-1.6,76.9-4.8c36.7-6.9,68.1-16.8,93.5-29.4c25.2-12.5,47.8-29.4,67.1-50.1s35.2-47.4,47.4-79.3s18.4-67.3,18.4-105.2
			c0-54.9-12.6-104.7-37.3-148.2c-24.7-43.3-61.5-76.1-109.3-97.5c-39.2-17.5-91.9-26.4-156.6-26.4h-241.7v7.6h14.5
			c15.9,0,28.9,2.8,38.4,8.4c9.7,5.6,16.3,12.4,19.5,20.1c3.2,7.6,4.7,25.2,4.7,54v360.6c0,38.7-2.2,48.5-3.9,52.4
			c-4.4,9.4-11.2,16.8-20.3,22.1c-9,5.3-22,8-38.5,8h-14.5v7.6L1733.6,1669.3z M1984.6,1646.8c-14.5,0-25.4-2.1-33.3-6.5
			c-5.8-3-10-7.6-12.5-13.5c-1.5-3.6-3.5-11.9-3.5-43.1v-431.4h3.7c45.3-0.3,78.3,3.9,98.1,12.4c28.2,12.1,51.5,35.3,69.3,68.8
			c22.3,42.4,33.6,99.7,33.6,170.3s-16.6,153.5-49.3,195.5C2066.4,1630.8,2030.7,1646.8,1984.6,1646.8L1984.6,1646.8z
			 M1942.6,1159.6v424c0,27.5,1.6,37,2.9,40.2c1.8,4.4,4.9,7.6,9.2,9.9c6.8,3.8,16.8,5.6,29.8,5.6c43.6,0,77.3-15,100.2-44.6
			c31.7-40.7,47.7-104.9,47.7-191s-11-125.5-32.7-166.9c-17-31.9-39.1-54-65.7-65.4c-18.3-7.9-48.9-11.8-91.1-11.8L1942.6,1159.6
			L1942.6,1159.6z"/>
	</g>
</g>
<g>
	<g>
		<path class="st2" d="M1703,2271.4v15h-286.6v-15h18.2c15.9,0,28.7-2.8,38.4-8.5c7-3.8,12.4-10.2,16.2-19.4
			c3-6.5,4.4-23.4,4.4-50.9V1832c0-28-1.5-45.5-4.4-52.6c-3-7-9-13.1-18-18.4s-21.2-7.9-36.6-7.9h-18.2v-15H1703v15h-18.2
			c-15.9,0-28.7,2.8-38.4,8.5c-7,3.8-12.5,10.2-16.6,19.4c-3,6.5-4.4,23.4-4.4,50.9v360.6c0,28,1.5,45.6,4.6,52.6
			s9.2,13.1,18.2,18.4c9,5.3,21.2,7.9,36.6,7.9L1703,2271.4L1703,2271.4z"/>
		<path d="M1706.7,2290h-294v-22.4h21.9c15.2,0,27.5-2.7,36.5-8c6.3-3.4,11.2-9.3,14.6-17.6c1.9-4.2,4.2-16.1,4.2-49.5v-360.6
			c0-34.1-2.3-46.6-4.2-51.1c-2.6-6.2-8.2-11.8-16.4-16.6c-8.4-4.9-20.1-7.4-34.7-7.4h-21.9v-22.4h294v22.4h-21.9
			c-15.2,0-27.5,2.7-36.5,8c-6.3,3.4-11.4,9.4-15.1,17.7c-1.9,4.1-4.1,16-4.1,49.4v360.6c0,34.1,2.4,46.6,4.3,51.1
			c2.8,6.2,8.4,11.9,16.7,16.7c8.4,4.9,20.1,7.4,34.7,7.4h21.9V2290L1706.7,2290z M1420,2282.6h279.2v-7.6h-14.5
			c-16,0-28.9-2.8-38.4-8.4c-9.7-5.6-16.3-12.4-19.7-20.1c-3.3-7.5-5-25.2-5-54v-360.6c0-28.3,1.6-45.5,4.8-52.5
			c4.3-9.8,10.5-17,18.2-21.1c10.1-5.9,23.7-8.9,40.2-8.9h14.5v-7.6h-279.2v7.6h14.5c15.9,0,28.9,2.8,38.4,8.4
			c9.7,5.6,16.3,12.4,19.5,20.1c3.2,7.6,4.7,25.2,4.7,54v360.6c0,28.3-1.6,45.5-4.8,52.5c-4,9.8-10,17-17.8,21.1
			c-10.1,5.9-23.7,8.9-40.2,8.9h-14.5v7.6H1420z"/>
	</g>
	<g>
		<path class="st2" d="M1941.9,2036.5v153.6c0,29.6,1.8,48.3,5.5,56c3.6,7.7,10,13.8,19.2,18.4c9.2,4.6,26.3,6.9,51.3,6.9v15h-280.6
			v-15c25.3,0,42.5-2.4,51.5-7.1c9-4.7,15.4-10.8,19-18.4c3.6-7.5,5.5-26.1,5.5-55.8v-355.8c0-29.6-1.8-48.3-5.5-56
			c-3.6-7.7-10-13.8-19.2-18.4s-26.3-6.9-51.3-6.9v-15H1992c66.3,0,114.8,4.6,145.5,13.7c30.7,9.2,55.8,26.1,75.2,50.7
			c19.4,24.7,29.1,53.6,29.1,86.7s-14.6,73.9-43.7,100.3c-18.6,16.7-44.6,29.2-78,37.6l131.8,185.6c17.2,24,29.5,38.9,36.8,44.9
			c11,8.4,23.9,12.9,38.4,13.7v15h-172.6l-176.7-249.8h-36L1941.9,2036.5z M1941.9,1767.7v240.1h23c37.5,0,65.5-3.4,84.1-10.3
			c18.6-6.9,33.2-19.3,43.9-37.2c10.6-17.9,16-41.3,16-70.1c0-41.8-9.8-72.6-29.3-92.6c-19.5-19.9-51-29.9-94.4-29.9H1941.9
			L1941.9,1767.7z"/>
		<path d="M2330.9,2290h-178.2l-1.1-1.6L1976,2040.1h-30.4V2190c0,36.1,2.8,49.5,5.1,54.4c3.3,6.9,9.2,12.5,17.5,16.7
			c8.6,4.3,25.3,6.5,49.7,6.5h3.7v22.4h-288v-22.4h3.7c24.6,0,41.4-2.2,49.8-6.7c8.3-4.3,14.1-9.9,17.4-16.7
			c2.3-4.8,5.1-18.1,5.1-54.2v-355.8c0-36.1-2.8-49.5-5.1-54.4c-3.3-6.9-9.1-12.5-17.5-16.7c-8.6-4.3-25.3-6.5-49.7-6.5h-3.7v-22.4
			H1992c66.3,0,115.7,4.7,146.6,13.9c31.3,9.3,57.3,26.8,77,52c19.8,25.2,29.9,55.2,29.9,89s-15.1,76-44.9,103
			c-18,16.2-43,28.6-74.4,37.1l128.7,181.2c17,23.6,29.1,38.5,36.1,44.1c10.3,7.8,22.5,12.2,36.3,12.9l3.5,0.2v22.2L2330.9,2290z
			 M2156.4,2282.6h167v-7.8c-13.8-1.4-26.2-6.1-36.9-14.2c-7.7-6.3-20-21.2-37.6-45.7l-134.9-190l5.3-1.3
			c32.7-8.2,58.4-20.5,76.5-36.8c28.2-25.5,42.4-58.4,42.4-97.5s-9.5-60.5-28.3-84.4s-43.5-40.6-73.3-49.5
			c-30.2-9-78.9-13.6-144.5-13.6h-251v7.6c23.8,0.2,40,2.6,49.3,7.2c9.9,4.9,16.9,11.7,20.9,20.1c3.9,8.3,5.8,27.1,5.8,57.6v355.8
			c0,30.5-1.9,49.3-5.8,57.4c-4,8.2-10.9,15-20.6,20.1c-9.2,4.8-25.4,7.3-49.6,7.5v7.6h273.2v-7.6c-23.9-0.2-40-2.6-49.3-7.2
			c-9.9-4.9-16.9-11.7-20.9-20.1c-3.9-8.3-5.8-27.1-5.8-57.6v-157.3h41.6l1.1,1.6l175.6,248.3L2156.4,2282.6z M1964.9,2011.5h-26.7
			V1764h47c44.2,0,76.9,10.4,97,31s30.4,52.6,30.4,95.2s-5.5,53.6-16.5,72c-11,18.6-26.4,31.6-45.8,38.8
			C2031.4,2008,2002.7,2011.5,1964.9,2011.5z M1945.6,2004.1h19.3c36.8,0,64.7-3.4,82.8-10.1c17.7-6.5,31.8-18.5,42-35.6
			c10.3-17.3,15.5-40.2,15.5-68.3c0-40.6-9.5-70.9-28.3-90c-18.7-19.1-49.6-28.8-91.8-28.8h-39.6V2004L1945.6,2004.1z"/>
	</g>
	<g>
		<path class="st2" d="M2664.3,2130.3h-193.6l-23,53.4c-7.5,17.8-11.3,32.5-11.3,44.1s6.2,26.7,18.6,34c7.3,4.3,25.2,7.5,53.8,9.7
			v15h-182.3v-15c19.7-3,35.8-11.1,48.5-24.5c12.7-13.3,28.3-40.9,46.9-82.7l196.1-437.4h7.7l197.7,449.5
			c18.9,42.6,34.4,69.4,46.5,80.4c9.2,8.4,22.1,13.2,38.8,14.6v15h-265.2v-15h10.9c21.3,0,36.2-3,44.9-8.9
			c5.9-4.3,8.9-10.5,8.9-18.6s-0.8-9.8-2.4-15c-0.5-2.4-4.6-12.5-12.1-30.3l-29.1-68.3L2664.3,2130.3z M2650.6,2100.4l-81.7-188.8
			l-84.1,188.8H2650.6z"/>
		<path d="M2912.2,2290h-272.6v-22.4h14.6c20.4,0,34.8-2.8,42.8-8.2c4.9-3.6,7.3-8.7,7.3-15.5s-0.8-9.1-2.3-13.8v-0.3
			c-0.4-1.2-2.3-6.7-12-29.7l-28.1-66.1h-188.8l-22.1,51.1c-7.3,17.2-11,31.6-11,42.6s5.5,24.1,16.8,30.8c4.7,2.8,17.5,6.6,52.2,9.2
			l3.4,0.3v22.1h-189.7v-21.8l3.1-0.5c18.7-2.8,34.3-10.7,46.4-23.3c12.3-13,27.9-40.4,46.2-81.6l197.1-439.6h12.5l1,2.2
			l197.7,449.5c18.6,41.9,33.9,68.5,45.6,79.2c8.5,7.8,20.8,12.3,36.6,13.6l3.4,0.3v22.1L2912.2,2290z M2647,2282.6h257.8v-7.9
			c-15.9-1.8-28.5-6.9-37.6-15.2c-12.6-11.5-28.1-38.2-47.4-81.7l-196.7-447.3h-2.9l-195.1,435.2c-18.9,42.5-34.5,69.9-47.6,83.7
			c-12.5,13.2-28.5,21.6-47.5,25v8.1h174.9v-7.8c-27.4-2.2-44.4-5.5-52-9.9c-13.5-7.9-20.4-20.4-20.4-37.1s3.9-27.4,11.6-45.5
			l24-55.6h198.5l30.1,70.6c9.9,23.4,11.8,28.9,12.3,30.8c1.7,5.4,2.6,10.8,2.6,15.9c0,9.3-3.5,16.6-10.4,21.6
			c-9.4,6.5-24.8,9.6-47,9.6h-7.2v7.6L2647,2282.6z M2656.2,2104.1h-177.1l89.8-201.7l87.2,201.7H2656.2z M2490.5,2096.7h154.4
			l-76.1-175.9L2490.5,2096.7L2490.5,2096.7z"/>
	</g>
	<g>
		<path class="st2" d="M3124,1738.1l270.5,340v-235.7c0-32.9-4.7-55.1-14.2-66.7c-12.9-15.6-34.6-23.2-65.1-22.6v-15h181.1v15
			c-23.2,3-38.7,6.8-46.7,11.5s-14.2,12.4-18.6,23c-4.4,10.6-6.7,28.9-6.7,54.8v456.4h-13.7l-370.7-456.4v348.5
			c0,31.5,7.2,52.8,21.6,63.9c14.4,11.1,30.9,16.6,49.5,16.6h12.9v15h-194.5v-15c30.2-0.3,51.2-6.5,63.1-18.6
			c11.9-12.1,17.8-32.7,17.8-61.9V1804l-11.7-14.6c-11.6-14.6-21.8-24.1-30.7-28.7s-21.7-7.1-38.4-7.7v-15L3124,1738.1L3124,1738.1z
			"/>
		<path d="M3428,2302.6h-19.2l-1.1-1.4l-364.1-448.3V2191c0,30.2,6.8,50.7,20.2,60.9c13.7,10.5,29.6,15.8,47.3,15.8h16.6v22.4
			h-201.9v-22.3h3.7c29-0.3,49.4-6.2,60.5-17.5c11.1-11.4,16.7-31.3,16.7-59.3v-385.6l-10.9-13.5c-11.2-14.1-21.2-23.4-29.5-27.7
			c-8.4-4.3-20.7-6.7-36.8-7.3h-3.6v-22.4h199.9l265,333.1v-225.1c0-31.8-4.5-53.5-13.3-64.4c-12.1-14.6-33-21.8-62.2-21.3h-3.8
			v-22.4H3500v21.9l-3.2,0.4c-22.6,2.9-37.8,6.6-45.3,11c-7.2,4.3-13,11.4-17.1,21.3c-4.2,10.1-6.4,28.1-6.4,53.4L3428,2302.6
			L3428,2302.6z M3412.4,2295.2h8.3v-452.7c0-26.6,2.3-45,7-56.2c4.7-11.3,11.5-19.7,20.1-24.8c8.1-4.8,22.8-8.6,44.9-11.6v-8H3319
			v7.5c29.6,0.1,51.2,8.2,64.2,24c10.1,12.4,15,35,15,69.1v246.3l-275.9-346.9h-189v7.7c15.5,0.8,27.7,3.5,36.4,7.9
			c9.5,4.9,19.9,14.6,31.9,29.7l12.5,15.6V2191c0,30-6.3,51.7-18.8,64.4c-12,12.3-32.9,18.9-62,19.6v7.6h187.1v-7.6h-9.2
			c-19.4,0-36.8-5.8-51.8-17.3c-15.3-11.7-23.1-34.2-23.1-66.8V1832l376.2,463.1L3412.4,2295.2z"/>
	</g>
</g>
</svg>
