<?xml version="1.0" encoding="utf-8"?>
<!-- Generator: Adobe Illustrator 27.7.0, SVG Export Plug-In . SVG Version: 6.00 Build 0)  -->
<svg version="1.1" id="Layer_1" xmlns="http://www.w3.org/2000/svg" xmlns:xlink="http://www.w3.org/1999/xlink" x="0px" y="0px"
	 viewBox="0 0 3500 3500" style="enable-background:new 0 0 3500 3500;" xml:space="preserve">
<style type="text/css">
	.st0{fill:#FFFFFF;}
	.st1{fill:#E5C634;}
	.st2{fill:#E8E8E8;}
	.st3{fill:#9E9D9E;}
	.st4{fill:#D9D1DB;}
	.st5{fill:#A3A3A3;}
	.st6{fill:#E0E0E0;}
	.st7{fill:#A8ACB2;}
	.st8{fill:#EAEAEA;}
	.st9{fill:#BDC3C9;}
	.st10{fill:#C6C4C6;}
	.st11{fill:#E5E5E5;}
	.st12{fill:#A5A5A5;}
	.st13{fill:#BACECD;}
	.st14{fill:#D9D7DB;}
	.st15{fill:#DBD5E0;}
	.st16{fill:#9AA1A8;}
	.st17{fill:#A1A7AF;}
	.st18{fill:#AFAFAF;}
	.st19{fill:#959AA0;}
	.st20{fill:#D8D8D8;}
	.st21{fill:#ADACAD;}
	.st22{fill:#E8DFEA;}
	.st23{fill:#B2B2B2;}
	.st24{fill:#939393;}
	.st25{fill:#A7A7A8;}
	.st26{fill:#C1C1C1;}
	.st27{fill:#7F7F7F;}
	.st28{fill:#DDDDDD;}
	.st29{fill:url(#SVGID_1_);}
	.st30{fill:#F4F4F4;}
	.st31{fill:#E6E7E8;}
</style>
<g>
	<g id="Objects">
		<g>
			<g>
				<path class="st0" d="M98.2,1921.4c-30.5-17.2-54.5-40.9-72-71.2C8.8,1820,0,1786.7,0,1750s8.5-70.3,25.7-100.5
					s40.7-53.9,70.9-71.2c29.9-17.2,63.2-25.7,100.2-25.7c33.6,0,64.9,7.6,94.3,23.2c29.1,15.5,53.6,37.8,73.7,66.9l-60.1,42.9
					c-27.4-41.5-63.5-62.4-107.9-62.4c-34.7,0-63.2,11.9-85.3,35.6c-22.3,23.7-33.3,54.2-33.3,91.2s11.3,67.5,34.2,91.2
					c22.6,23.7,51.4,35.6,86.4,35.6c30.2,0,54.5-7.6,73.4-22.6c18.6-15,30.2-33.6,35-55.6h-116v-65.8h193.1
					c0.9,8.2,1.4,18.6,1.4,30.8c0.3,98.2-69.7,184.1-186.9,183.8C162.1,1947.3,128.4,1938.6,98.2,1921.4L98.2,1921.4z"/>
				<path class="st0" d="M453.4,1941.7v-383.4h272.7v66.1H529.6v88.4h170.5v66.1H529.6v97.1h200.7v65.8L453.4,1941.7L453.4,1941.7z"
					/>
				<path class="st0" d="M800.9,1941.7v-383.4h80.8l123.7,255.2l123.4-255.2h80.8v383.4h-76.2v-235.2L1029.9,1916h-49.4
					l-103.3-209.5v235.2H800.9L800.9,1941.7z"/>
			</g>
			<rect x="2026.8" y="1554.6" class="st1" width="18" height="385.8"/>
			<path class="st0" d="M3109.7,1553.1c9.6,0,18.4,0.1,27.3-0.1c4.1-0.1,6,2.9,8.3,5.4c17.7,19.6,35.4,39.2,53.1,58.8
				c34.1,37.7,68.1,75.4,102.2,113.2c1.1,1.3,2.3,2.5,4,4.3c2.1-2.1,4.1-3.9,5.9-5.9c50.6-56,101.3-112,151.7-168.2
				c4.8-5.4,9.6-8.3,16.9-7.6c6.8,0.7,13.7,0.1,20.9,0.1v385.7c-6.1,1.7-61,2.3-81.6,0.8c-0.8-72.7-0.1-145.4,2.2-220.1
				c-3.2,3.2-5.3,5.2-7.3,7.4c-32.9,35.7-65.8,71.3-98.7,107c-1.4,1.5-2.6,3.1-4.1,4.4c-3.2,2.8-7.6,2.9-10.8,0.1
				c-1.9-1.7-3.6-3.7-5.4-5.6c-32.7-35.1-65.4-70.2-98.1-105.2c-1.7-1.8-3.6-3.5-5.9-5.8c0.7,73,1.4,145,2,216.8
				c-6.8,2.1-63.9,2.7-82.6,1.1L3109.7,1553.1L3109.7,1553.1z"/>
			<path class="st1" d="M2359.6,1628.2v84h137.3v73.7h-137.4v153.7h-82.5v-384.2c5.9-1.6,224-2.1,235.9-0.4v73.3L2359.6,1628.2
				L2359.6,1628.2z"/>
			<path class="st0" d="M2563.3,1554.3h181.9v65.6H2696v253h54.4c0.5,11.5,0.2,22.3,0.3,33c0.1,10.9,0,21.8,0,32.7
				c-6.3,1.9-172.8,2.7-192.4,0.9v-66h54.1v-253.3h-49.1V1554.3L2563.3,1554.3z"/>
			<path class="st0" d="M2819.9,1939.7v-385.3h82.1c0.6,10,0.2,20.2,0.3,30.4c0.1,10.3,0,20.7,0,31v249.8h152.2v74.1H2819.9
				L2819.9,1939.7z"/>
			<g>
				<g>
					<g>
						<polygon class="st2" points="1617.1,1653.1 1490.3,1653.1 1510.4,1610 						"/>
						<polygon class="st3" points="1510.4,1610 1469.6,1562.7 1366.2,1618.2 1416.9,1653.1 						"/>
						<polygon class="st4" points="1490.3,1653.1 1510.4,1610 1416.9,1653.1 						"/>
						<polygon class="st5" points="1416.9,1653.1 1342.6,1653.1 1366.2,1618.2 						"/>
						<polygon class="st6" points="1342.6,1653.1 1283.5,1653.1 1366.2,1618.2 						"/>
						<path class="st7" d="M1283.5,1653.1c0,0,106-90.6,107.5-90.4c1.6,0.2-24.8,55.5-24.8,55.5L1283.5,1653.1L1283.5,1653.1z"/>
						<polygon class="st8" points="1391.1,1562.7 1469.6,1562.7 1366.2,1618.2 						"/>
						<polygon class="st9" points="1469.6,1562.7 1510.4,1610 1617.1,1562.7 						"/>
						<polygon class="st10" points="1617.1,1653.1 1744,1653.1 1723.9,1610 						"/>
						<polygon class="st11" points="1617.1,1562.7 1510.4,1610 1617.1,1653.1 1723.9,1610 						"/>
						<polygon class="st0" points="1723.9,1610 1764.6,1562.7 1868,1618.2 1817.4,1653.1 						"/>
						<polygon class="st12" points="1744,1653.1 1723.9,1610 1817.4,1653.1 						"/>
						<polygon class="st13" points="1817.4,1653.1 1891.7,1653.1 1868,1618.2 						"/>
						<polygon class="st14" points="1891.7,1653.1 1950.8,1653.1 1868,1618.2 						"/>
						<path class="st15" d="M1950.8,1653.1c0,0-106-90.6-107.5-90.4c-1.6,0.2,24.8,55.5,24.8,55.5L1950.8,1653.1L1950.8,1653.1z"/>
						<polygon class="st0" points="1843.2,1562.7 1764.6,1562.7 1868,1618.2 						"/>
						<polygon class="st16" points="1764.6,1562.7 1723.9,1610 1617.1,1562.7 						"/>
					</g>
					<g>
						<polygon class="st17" points="1490.3,1653.1 1569.5,1848.1 1416.9,1653.1 						"/>
						<polygon class="st0" points="1416.9,1653.1 1523.4,1848.1 1617.1,1947.3 1569.5,1848.1 						"/>
						<polygon class="st8" points="1416.9,1653.1 1342.6,1653.1 1523.4,1848.1 						"/>
						<polygon class="st18" points="1617.1,1947.3 1523.4,1848.1 1283.5,1653.1 						"/>
						<polygon class="st19" points="1342.6,1653.1 1283.5,1653.1 1523.4,1848.1 						"/>
						<polygon class="st20" points="1617.1,1653.1 1569.5,1848.1 1617.1,1947.3 1664.8,1848.1 						"/>
						<polygon class="st11" points="1744,1653.1 1664.8,1848.1 1817.4,1653.1 						"/>
						<polygon class="st21" points="1817.4,1653.1 1710.9,1848.1 1617.1,1947.3 1664.8,1848.1 						"/>
						<polygon class="st22" points="1817.4,1653.1 1891.7,1653.1 1710.9,1848.1 						"/>
						<polygon class="st23" points="1617.1,1947.3 1710.9,1848.1 1950.8,1653.1 						"/>
						<polygon class="st24" points="1891.7,1653.1 1950.8,1653.1 1710.9,1848.1 						"/>
						<polygon class="st25" points="1744,1653.1 1664.8,1653.1 1664.8,1848.1 						"/>
						<polygon class="st2" points="1617.1,1653.1 1490.3,1653.1 1569.5,1848.1 						"/>
					</g>
					<g>
						<polygon class="st0" points="1342.6,1653.1 1490.3,1653.1 1469.6,1562.7 						"/>
						<polygon class="st26" points="1490.3,1653.1 1617.1,1653.1 1744,1653.1 1617.1,1562.7 						"/>
						<polygon class="st27" points="1843.2,1562.7 1891.7,1653.1 1950.8,1653.1 						"/>
						<polygon class="st26" points="1744,1653.1 1891.7,1653.1 1764.6,1562.7 						"/>
					</g>
					<path class="st28" d="M1891.7,1642.9h-596.2c-7.3,6.3-12,10.2-12,10.2h667.2c0,0-4.6-4-12-10.2H1891.7L1891.7,1642.9z"/>
					
						<linearGradient id="SVGID_1_" gradientUnits="userSpaceOnUse" x1="1677.4517" y1="-1759.4675" x2="1733.6117" y2="-1798.6776" gradientTransform="matrix(1 0 0 -1 0 0)">
						<stop  offset="0" style="stop-color:#D6D6D6"/>
						<stop  offset="1" style="stop-color:#191919"/>
					</linearGradient>
					<polygon class="st29" points="1617.1,1947.3 1757.3,1653.1 1854.5,1653.1 					"/>
				</g>
				<polygon class="st30" points="1664.8,1653.1 1617.1,1653.1 1664.8,1848.1 				"/>
				<polygon class="st30" points="1617.1,1947.3 1617.1,1653.1 1569.5,1653.1 				"/>
				<polygon class="st31" points="1416.9,1642.9 1469.6,1562.7 1488,1642.9 				"/>
				<polygon class="st31" points="1843.2,1562.7 1764.6,1562.7 1884.7,1642.9 				"/>
			</g>
		</g>
	</g>
</g>
</svg>
