<?xml version="1.0" encoding="utf-8"?>
<!-- Generator: Adobe Illustrator 27.7.0, SVG Export Plug-In . SVG Version: 6.00 Build 0)  -->
<svg version="1.1" id="Layer_1" xmlns="http://www.w3.org/2000/svg" xmlns:xlink="http://www.w3.org/1999/xlink" x="0px" y="0px"
	 viewBox="0 0 3500 3500" style="enable-background:new 0 0 3500 3500;" xml:space="preserve">
<style type="text/css">
	.st0{fill:#FFFFFF;}
	.st1{fill:#E4BB39;}
	.st2{fill:#E8E8E8;}
	.st3{fill:#9E9D9E;}
	.st4{fill:#D9D1DB;}
	.st5{fill:#A3A3A3;}
	.st6{fill:#E0E0E0;}
	.st7{fill:#A8ACB2;}
	.st8{fill:#EAEAEA;}
	.st9{fill:#BDC3C9;}
	.st10{fill:#C6C4C6;}
	.st11{fill:#E5E5E5;}
	.st12{fill:#A5A5A5;}
	.st13{fill:#BACECD;}
	.st14{fill:#D9D7DB;}
	.st15{fill:#DBD5E0;}
	.st16{fill:#9AA1A8;}
	.st17{fill:#A1A7AF;}
	.st18{fill:#AFAFAF;}
	.st19{fill:#959AA0;}
	.st20{fill:#D8D8D8;}
	.st21{fill:#ADACAD;}
	.st22{fill:#E8DFEA;}
	.st23{fill:#B2B2B2;}
	.st24{fill:#939393;}
	.st25{fill:#A7A7A8;}
	.st26{fill:#C1C1C1;}
	.st27{fill:#7F7F7F;}
	.st28{fill:#DDDDDD;}
	.st29{fill:url(#SVGID_1_);}
	.st30{fill:#F4F4F4;}
	.st31{fill:#E6E7E8;}
</style>
<g>
	<g id="Objects">
		<g>
			<g>
				<path class="st0" d="M91.7,1909.4c-28.4-16.1-50.8-38.2-67.2-66.4S0,1783.8,0,1749.5s7.9-65.6,24-93.8
					c16.1-28.2,37.9-50.3,66.1-66.4c27.9-16.1,59-24,93.5-24c31.3,0,60.6,7.1,88,21.6c27.1,14.5,50,35.3,68.7,62.4l-56.1,40
					c-25.5-38.7-59.2-58.2-100.6-58.2c-32.4,0-59,11.1-79.5,33.2c-20.8,22.1-31.1,50.6-31.1,85.1s10.5,62.9,31.9,85.1
					c21.1,22.1,47.9,33.2,80.6,33.2c28.2,0,50.8-7.1,68.5-21.1c17.4-14,28.2-31.3,32.7-51.9H178.3v-61.4h180.1
					c0.8,7.6,1.3,17.4,1.3,28.7c0.3,91.7-65,171.7-174.4,171.4C151.2,1933.6,119.8,1925.5,91.7,1909.4L91.7,1909.4z"/>
				<path class="st0" d="M422.9,1928.4v-357.7h254.4v61.6H494v82.4h159.1v61.6H494v90.6h187.2v61.4H422.9z"/>
				<path class="st0" d="M747.1,1928.4v-357.7h75.3l115.3,238.1l115.1-238.1h75.3v357.7h-71.1V1709l-96.4,195.4h-46.1L818.2,1709
					v219.4H747.1L747.1,1928.4z"/>
			</g>
			<rect x="1890.7" y="1567.3" class="st1" width="16.8" height="359.9"/>
			<path class="st1" d="M2242,1935.7c-96.1,0-182.9-64.7-182.9-185.9s88.9-185.4,184.4-185.4s182.9,64.7,182.9,185.4
				C2426.4,1859.2,2350.9,1935.7,2242,1935.7L2242,1935.7z M2243.1,1865.3c56,0,106.8-37,106.8-115.6s-50.3-114.5-106.3-114.5
				s-106.8,38.5-106.8,114.5S2185.5,1865.3,2243.1,1865.3z"/>
			<path class="st0" d="M2566.1,1724.1v205.5h-76.5v-361.1h24.1l201.9,205.5V1570h77.1v360.6h-23.1L2566.1,1724.1L2566.1,1724.1z"/>
			<path class="st0" d="M2999.2,1709.7l35.4-65.8l43.1-74h81.7v11.3l-123.3,204.4v143.8h-77.1v-143.8l-123.8-204.4V1570h82.7
				l44.7,76.5l33.9,63.2L2999.2,1709.7L2999.2,1709.7z"/>
			<path class="st0" d="M3334.1,1685.3l34.9-59.4l35.4-56h83.2v11.3l-108.4,158.2l120.7,179.3v10.8h-80.6l-46.7-69.3l-38.5-58.9
				h-2.6l-39.6,60.9l-44.7,67.3h-81.7v-10.8l121.2-179.3L3178,1581.3V1570h83.7l37.5,59.1l32.9,56.3L3334.1,1685.3L3334.1,1685.3z"
				/>
			<g>
				<g>
					<g>
						<polygon class="st2" points="1508.5,1659.2 1390.2,1659.2 1409,1618.9 						"/>
						<polygon class="st3" points="1409,1618.9 1370.9,1574.8 1274.5,1626.6 1321.7,1659.2 						"/>
						<polygon class="st4" points="1390.2,1659.2 1409,1618.9 1321.7,1659.2 						"/>
						<polygon class="st5" points="1321.7,1659.2 1252.4,1659.2 1274.5,1626.6 						"/>
						<polygon class="st6" points="1252.4,1659.2 1197.3,1659.2 1274.5,1626.6 						"/>
						<path class="st7" d="M1197.3,1659.2c0,0,98.8-84.5,100.3-84.3c1.5,0.2-23.2,51.8-23.2,51.8L1197.3,1659.2L1197.3,1659.2z"/>
						<polygon class="st8" points="1297.6,1574.8 1370.9,1574.8 1274.5,1626.6 						"/>
						<polygon class="st9" points="1370.9,1574.8 1409,1618.9 1508.5,1574.8 						"/>
						<polygon class="st10" points="1508.5,1659.2 1626.8,1659.2 1608.1,1618.9 						"/>
						<polygon class="st11" points="1508.5,1574.8 1409,1618.9 1508.5,1659.2 1608.1,1618.9 						"/>
						<polygon class="st0" points="1608.1,1618.9 1646.1,1574.8 1742.6,1626.6 1695.3,1659.2 						"/>
						<polygon class="st12" points="1626.8,1659.2 1608.1,1618.9 1695.3,1659.2 						"/>
						<polygon class="st13" points="1695.3,1659.2 1764.6,1659.2 1742.6,1626.6 						"/>
						<polygon class="st14" points="1764.6,1659.2 1819.7,1659.2 1742.6,1626.6 						"/>
						<path class="st15" d="M1819.7,1659.2c0,0-98.8-84.5-100.3-84.3c-1.5,0.2,23.2,51.8,23.2,51.8L1819.7,1659.2L1819.7,1659.2z"/>
						<polygon class="st0" points="1719.4,1574.8 1646.1,1574.8 1742.6,1626.6 						"/>
						<polygon class="st16" points="1646.1,1574.8 1608.1,1618.9 1508.5,1574.8 						"/>
					</g>
					<g>
						<polygon class="st17" points="1390.2,1659.2 1464.1,1841 1321.7,1659.2 						"/>
						<polygon class="st0" points="1321.7,1659.2 1421.1,1841 1508.5,1933.6 1464.1,1841 						"/>
						<polygon class="st8" points="1321.7,1659.2 1252.4,1659.2 1421.1,1841 						"/>
						<polygon class="st18" points="1508.5,1933.6 1421.1,1841 1197.3,1659.2 						"/>
						<polygon class="st19" points="1252.4,1659.2 1197.3,1659.2 1421.1,1841 						"/>
						<polygon class="st20" points="1508.5,1659.2 1464.1,1841 1508.5,1933.6 1553,1841 						"/>
						<polygon class="st11" points="1626.8,1659.2 1553,1841 1695.3,1659.2 						"/>
						<polygon class="st21" points="1695.3,1659.2 1596,1841 1508.5,1933.6 1553,1841 						"/>
						<polygon class="st22" points="1695.3,1659.2 1764.6,1659.2 1596,1841 						"/>
						<polygon class="st23" points="1508.5,1933.6 1596,1841 1819.7,1659.2 						"/>
						<polygon class="st24" points="1764.6,1659.2 1819.7,1659.2 1596,1841 						"/>
						<polygon class="st25" points="1626.8,1659.2 1553,1659.2 1553,1841 						"/>
						<polygon class="st2" points="1508.5,1659.2 1390.2,1659.2 1464.1,1841 						"/>
					</g>
					<g>
						<polygon class="st0" points="1252.4,1659.2 1390.2,1659.2 1370.9,1574.8 						"/>
						<polygon class="st26" points="1390.2,1659.2 1508.5,1659.2 1626.8,1659.2 1508.5,1574.8 						"/>
						<polygon class="st27" points="1719.4,1574.8 1764.6,1659.2 1819.7,1659.2 						"/>
						<polygon class="st26" points="1626.8,1659.2 1764.6,1659.2 1646.1,1574.8 						"/>
					</g>
					<path class="st28" d="M1764.6,1649.6h-556.1c-6.9,5.8-11.2,9.6-11.2,9.6h622.4c0,0-4.3-3.7-11.2-9.6H1764.6z"/>
					
						<linearGradient id="SVGID_1_" gradientUnits="userSpaceOnUse" x1="1564.7883" y1="-1758.3824" x2="1617.1783" y2="-1794.9524" gradientTransform="matrix(1 0 0 -1 0 0)">
						<stop  offset="0" style="stop-color:#D6D6D6"/>
						<stop  offset="1" style="stop-color:#191919"/>
					</linearGradient>
					<polygon class="st29" points="1508.5,1933.6 1639.3,1659.2 1730,1659.2 					"/>
				</g>
				<polygon class="st30" points="1553,1659.2 1508.5,1659.2 1553,1841 				"/>
				<polygon class="st30" points="1508.5,1933.6 1508.5,1659.2 1464.1,1659.2 				"/>
				<polygon class="st31" points="1321.7,1649.6 1370.9,1574.8 1388,1649.6 				"/>
				<polygon class="st31" points="1719.4,1574.8 1646.1,1574.8 1758.2,1649.6 				"/>
			</g>
		</g>
	</g>
</g>
</svg>
