<?xml version="1.0" encoding="utf-8"?>
<!-- Generator: Adobe Illustrator 27.7.0, SVG Export Plug-In . SVG Version: 6.00 Build 0)  -->
<svg version="1.1" id="Layer_1" xmlns="http://www.w3.org/2000/svg" xmlns:xlink="http://www.w3.org/1999/xlink" x="0px" y="0px"
	 viewBox="0 0 3500 3500" style="enable-background:new 0 0 3500 3500;" xml:space="preserve">
<style type="text/css">
	.st0{fill:#FFFFFF;}
	.st1{fill:#80E33B;}
	.st2{fill:#CB5216;}
	.st3{fill:#5291FB;}
	.st4{fill:#DD9228;}
	.st5{fill:#E8E8E8;}
	.st6{fill:#9E9D9E;}
	.st7{fill:#D9D1DB;}
	.st8{fill:#A3A3A3;}
	.st9{fill:#E0E0E0;}
	.st10{fill:#A8ACB2;}
	.st11{fill:#EAEAEA;}
	.st12{fill:#BDC3C9;}
	.st13{fill:#C6C4C6;}
	.st14{fill:#E5E5E5;}
	.st15{fill:#A5A5A5;}
	.st16{fill:#BACECD;}
	.st17{fill:#D9D7DB;}
	.st18{fill:#DBD5E0;}
	.st19{fill:#9AA1A8;}
	.st20{fill:#A1A7AF;}
	.st21{fill:#AFAFAF;}
	.st22{fill:#959AA0;}
	.st23{fill:#D8D8D8;}
	.st24{fill:#ADACAD;}
	.st25{fill:#E8DFEA;}
	.st26{fill:#B2B2B2;}
	.st27{fill:#939393;}
	.st28{fill:#A7A7A8;}
	.st29{fill:#C1C1C1;}
	.st30{fill:#7F7F7F;}
	.st31{fill:#DDDDDD;}
	.st32{fill:url(#SVGID_1_);}
	.st33{fill:#F4F4F4;}
	.st34{fill:#E6E7E8;}
</style>
<g>
	<g id="Objects">
		<g>
			<g>
				<path class="st0" d="M97.3,1909.1c-30.2-17.1-54-40.5-71.3-70.4s-26-62.9-26-99.2s8.4-69.6,25.4-99.5
					c17-29.9,40.2-53.4,70.2-70.4c29.6-17.1,62.6-25.4,99.2-25.4c33.3,0,64.3,7.6,93.4,22.9c28.8,15.4,53.1,37.5,73,66.2l-59.5,42.5
					c-27.1-41.1-62.9-61.8-106.8-61.8c-34.4,0-62.6,11.7-84.4,35.2c-22.1,23.5-33,53.7-33,90.3s11.2,66.8,33.8,90.3
					c22.4,23.5,50.9,35.2,85.5,35.2c29.9,0,53.9-7.6,72.7-22.4c18.5-14.8,29.9-33.3,34.7-55.1H189.2v-65.1h191.2
					c0.8,8.1,1.4,18.4,1.4,30.5c0.3,97.3-69.1,182.3-185.1,182C160.4,1934.8,127.2,1926.1,97.3,1909.1L97.3,1909.1z"/>
				<path class="st0" d="M448.9,1929.2v-379.6h270v65.4H524.4v87.5h168.8v65.4H524.4v96.2h198.8v65.1L448.9,1929.2L448.9,1929.2z"/>
				<path class="st0" d="M793,1929.2v-379.6h80l122.4,252.7l122.2-252.7h79.9v379.6H1122v-232.8l-102.3,207.4h-48.9l-102.3-207.4
					v232.8H793L793,1929.2z"/>
			</g>
			<rect x="2006.8" y="1546" class="st0" width="17.8" height="382"/>
			<g>
				<path class="st1" d="M3202.1,1665.6c31,11.3,60.7,8.3,92.3,12.4c35.9,4.2,72.1,8.4,107.5,15.8c66.2,11.1,109.6,69.9,95.4,136.6
					c-24,101.2-182.1,128.2-265.3,89.9c-84.5-28.7-152.1-143.4-27.1-168.5c49.8-6.8,102.2,1.8,147.6,23c33.6,18.9,28,43.4-9.3,50.8
					c-45.9,10.9-91.8-36.5-135.4-12.2c-45.6,41.2,176.8,51.9,209.2-11.8c22.8-44.9-95.5-52.5-122.6-58.8
					c-47.6-4.2-97.7,1.1-143-16.8c-49.9-24.6-39.1-101.5,4.8-126.6c24.5-17.6,52.3-27.4,81.3-33.7c63.9-17,129.8-16.7,194.5-4.4
					c19.3,2.7,35,11.5,47.5,27.1c14.9,18.5,5.5,50.5-19.4,50.8c-51.4,6.8-103.2-5.9-154.7,2.4
					C3270.7,1647.5,3232.3,1645.1,3202.1,1665.6L3202.1,1665.6z"/>
				<path class="st2" d="M2872.9,1750.1c0,25.5,0,51,0,76.4c0,17.3,3.5,20.4,20.9,21.7c44.4,2.6,86.8-21.2,112.7-56.3
					c38.8-94.9-79.1-165.9-158.5-182.1c-24.2-5.4-48.7-7.7-73.3-8.7c-14-1.8-32.6,5.5-41.4-9.1c-44.4-69.3,73.6-55.9,111.9-53
					c123.1,11.2,247.7,101.4,252.9,232.8c3,105.9-113.9,162.2-205.9,165.6c-11.9-0.4-16.6,10.2-24.7,16.9
					c-28.3,24.2-67.1-0.2-68.6-35c0.2-4.9-3-7.3-6.5-9.7c-29.4-20.3-58-47.1-66.5-83.1c-2.9-12.6,1.1-53.6,21.3-40
					c9.9,6.3,18.3,16.2,29.9,19.2c26.9,12.2-5.2-126.3,31.2-170.5c14.1-20.3,33.1-18.3,47.2-4c28.4,29.9,12.5,81,16.4,119
					C2872.3,1750.1,2872.6,1750.1,2872.9,1750.1L2872.9,1750.1z"/>
				<path class="st3" d="M2357.4,1690.6c65-16.8,96.5-76.1,144.2-116.7c20.9-19.9,43.5-7.5,59.2,11.8
					c42.6,53.1-96.3,147.6-133.8,175.9c29.6,30.9,67.7,51,103.7,73.4c22,11.6,46.3,24.2,50.7,51.2c5.6,23.1-13.4,56.6-39.8,46.5
					c-67.3-21.2-118-70.9-172.2-113.3c-7-4.3-12-1.9-12,6.1c0,20.2,0.4,40.4,1,60.6c-1.1,14.5,9.4,35.1-8.5,42.3
					c-19.6,8.8-45.6,12.3-64.8,2.4c-20.1-27.3-10.8-64.8-15.1-96.8c-3.3-85.3-6.8-170.6-5.1-256c0.2-17.1,8.2-23.8,25.4-26.1
					C2358.8,1550.2,2351.2,1643.6,2357.4,1690.6L2357.4,1690.6z"/>
				<path class="st4" d="M2607.5,1736.6c0-49.4-0.2-98.8,0.2-148.3c1.4-17.8,4.1-44.8,27.9-43.3c37.9,0.5,59.8,41.1,59.8,75.4
					c1.8,93.2,7.1,186.3,6.1,279.6c3,34.5-40.3,43.2-66.6,33.1c-17.9-9-27.2-30.1-27.5-49.4
					C2607.8,1834.7,2607.6,1785.6,2607.5,1736.6C2607.6,1736.6,2607.6,1736.6,2607.5,1736.6L2607.5,1736.6z"/>
			</g>
			<g>
				<g>
					<g>
						<polygon class="st5" points="1601.1,1643.5 1475.6,1643.5 1495.5,1600.8 						"/>
						<polygon class="st6" points="1495.5,1600.8 1455.1,1554 1352.7,1609 1402.9,1643.5 						"/>
						<polygon class="st7" points="1475.6,1643.5 1495.5,1600.8 1402.9,1643.5 						"/>
						<polygon class="st8" points="1402.9,1643.5 1329.3,1643.5 1352.7,1609 						"/>
						<polygon class="st9" points="1329.3,1643.5 1270.8,1643.5 1352.7,1609 						"/>
						<path class="st10" d="M1270.8,1643.5c0,0,104.9-89.7,106.5-89.5c1.6,0.2-24.6,55-24.6,55L1270.8,1643.5L1270.8,1643.5z"/>
						<polygon class="st11" points="1377.3,1554 1455.1,1554 1352.7,1609 						"/>
						<polygon class="st12" points="1455.1,1554 1495.5,1600.8 1601.1,1554 						"/>
						<polygon class="st13" points="1601.1,1643.5 1726.7,1643.5 1706.8,1600.8 						"/>
						<polygon class="st14" points="1601.1,1554 1495.5,1600.8 1601.1,1643.5 1706.8,1600.8 						"/>
						<polygon class="st0" points="1706.8,1600.8 1747.2,1554 1849.6,1609 1799.4,1643.5 						"/>
						<polygon class="st15" points="1726.7,1643.5 1706.8,1600.8 1799.4,1643.5 						"/>
						<polygon class="st16" points="1799.4,1643.5 1873,1643.5 1849.6,1609 						"/>
						<polygon class="st17" points="1873,1643.5 1931.5,1643.5 1849.6,1609 						"/>
						<path class="st18" d="M1931.5,1643.5c0,0-104.9-89.7-106.5-89.5c-1.6,0.2,24.6,55,24.6,55L1931.5,1643.5L1931.5,1643.5z"/>
						<polygon class="st0" points="1825,1554 1747.2,1554 1849.6,1609 						"/>
						<polygon class="st19" points="1747.2,1554 1706.8,1600.8 1601.1,1554 						"/>
					</g>
					<g>
						<polygon class="st20" points="1475.6,1643.5 1554,1836.5 1402.9,1643.5 						"/>
						<polygon class="st0" points="1402.9,1643.5 1508.3,1836.5 1601.1,1934.8 1554,1836.5 						"/>
						<polygon class="st11" points="1402.9,1643.5 1329.3,1643.5 1508.3,1836.5 						"/>
						<polygon class="st21" points="1601.1,1934.8 1508.3,1836.5 1270.8,1643.5 						"/>
						<polygon class="st22" points="1329.3,1643.5 1270.8,1643.5 1508.3,1836.5 						"/>
						<polygon class="st23" points="1601.1,1643.5 1554,1836.5 1601.1,1934.8 1648.3,1836.5 						"/>
						<polygon class="st14" points="1726.7,1643.5 1648.3,1836.5 1799.4,1643.5 						"/>
						<polygon class="st24" points="1799.4,1643.5 1693.9,1836.5 1601.1,1934.8 1648.3,1836.5 						"/>
						<polygon class="st25" points="1799.4,1643.5 1873,1643.5 1693.9,1836.5 						"/>
						<polygon class="st26" points="1601.1,1934.8 1693.9,1836.5 1931.5,1643.5 						"/>
						<polygon class="st27" points="1873,1643.5 1931.5,1643.5 1693.9,1836.5 						"/>
						<polygon class="st28" points="1726.7,1643.5 1648.3,1643.5 1648.3,1836.5 						"/>
						<polygon class="st5" points="1601.1,1643.5 1475.6,1643.5 1554,1836.5 						"/>
					</g>
					<g>
						<polygon class="st0" points="1329.3,1643.5 1475.6,1643.5 1455.1,1554 						"/>
						<polygon class="st29" points="1475.6,1643.5 1601.1,1643.5 1726.7,1643.5 1601.1,1554 						"/>
						<polygon class="st30" points="1825,1554 1873,1643.5 1931.5,1643.5 						"/>
						<polygon class="st29" points="1726.7,1643.5 1873,1643.5 1747.2,1554 						"/>
					</g>
					<path class="st31" d="M1873,1633.3h-590.3c-7.3,6.2-11.9,10.1-11.9,10.1h660.6c0,0-4.6-3.9-11.9-10.1H1873L1873,1633.3z"/>
					
						<linearGradient id="SVGID_1_" gradientUnits="userSpaceOnUse" x1="1660.8605" y1="-1748.7893" x2="1716.4604" y2="-1787.6093" gradientTransform="matrix(1 0 0 -1 0 0)">
						<stop  offset="0" style="stop-color:#D6D6D6"/>
						<stop  offset="1" style="stop-color:#191919"/>
					</linearGradient>
					<polygon class="st32" points="1601.1,1934.8 1739.9,1643.5 1836.2,1643.5 					"/>
				</g>
				<polygon class="st33" points="1648.3,1643.5 1601.1,1643.5 1648.3,1836.5 				"/>
				<polygon class="st33" points="1601.1,1934.8 1601.1,1643.5 1554,1643.5 				"/>
				<polygon class="st34" points="1402.9,1633.3 1455.1,1554 1473.2,1633.3 				"/>
				<polygon class="st34" points="1825,1554 1747.2,1554 1866.1,1633.3 				"/>
			</g>
		</g>
	</g>
</g>
</svg>
