<?xml version="1.0" encoding="utf-8"?>
<!-- Generator: Adobe Illustrator 27.7.0, SVG Export Plug-In . SVG Version: 6.00 Build 0)  -->
<svg version="1.1" id="Layer_1" xmlns="http://www.w3.org/2000/svg" xmlns:xlink="http://www.w3.org/1999/xlink" x="0px" y="0px"
	 viewBox="0 0 3500 3500" style="enable-background:new 0 0 3500 3500;" xml:space="preserve">
<style type="text/css">
	.st0{fill:#00A2E8;}
</style>
<path class="st0" d="M1516.2,1855.7l-307.6,1.8c-2.4,0-4.4,2-4.4,4.5c0,1.1,0.4,2.2,1.2,3l209.2,209.6c1.7,1.7,1.8,4.5,0.1,6.3
	c0,0,0,0-0.1,0.1l-453.7,452.2c-0.8,0.8-1.9,1.2-3,1.3l-932.1,0.1c-2.4,0-4.4-1.9-4.5-4.4c0-0.6,0.1-1.2,0.3-1.7l186.8-463.1
	c0.5-1.1,0.5-2.4,0-3.5L4.4,1610c-1-2.2,0-4.8,2.3-5.8c0.6-0.2,1.2-0.4,1.8-0.4l592.2-0.1c2.4,0,4.4-1.9,4.5-4.4
	c0-1.2-0.5-2.4-1.3-3.2l-416.9-415.7c-1.7-1.7-1.7-4.5,0.1-6.3c0.4-0.4,0.9-0.7,1.5-0.9L635.3,1006c1.1-0.4,2-1.3,2.5-2.4
	l209.4-486.1c1-2.2,3.5-3.3,5.8-2.3c0.5,0.2,0.9,0.5,1.3,0.8l407.8,396.4c1.8,1.7,4.6,1.6,6.2-0.2c0.8-0.8,1.2-1.9,1.2-3l-0.5-569.6
	c0-2.4,2-4.4,4.5-4.4c0.5,0,1.1,0.1,1.6,0.3l473.3,185.7c1.1,0.4,2.2,0.4,3.3,0l469.2-184.7c2.3-0.9,4.8,0.2,5.7,2.5
	c0.2,0.5,0.3,1,0.3,1.6v571.6c0,2.4,1.9,4.4,4.4,4.5c1.2,0,2.4-0.5,3.2-1.3l396.8-397.2c1.7-1.7,4.5-1.7,6.3,0
	c0.4,0.4,0.7,0.9,0.9,1.4l204.1,483.8c0.5,1.1,1.5,2,2.7,2.4l476.6,169.4c2.3,0.8,3.5,3.3,2.7,5.6c-0.2,0.6-0.6,1.2-1.1,1.7
	l-413.3,413.6c-1.7,1.7-1.8,4.5-0.1,6.3c0.8,0.8,1.9,1.3,3.1,1.3l582.2,0.1c2.4,0,4.4,1.9,4.5,4.4c0,0.7-0.1,1.3-0.4,1.9
	L3290.9,2062c-0.5,1.1-0.5,2.4,0,3.5l195.4,462.6c1,2.2,0,4.8-2.3,5.8c-0.6,0.2-1.2,0.4-1.8,0.4l-952.8,0.1c-1.1,0-2.2-0.5-3-1.3
	l-447.6-446.9c-1.7-1.7-1.8-4.5-0.1-6.3c0,0,0,0,0.1-0.1l214.4-215.4c1.7-1.7,1.8-4.5,0.1-6.3c-0.8-0.9-2-1.3-3.2-1.3h-305.4
	c-2.4,0-4.4-2-4.4-4.4c0,0,0,0,0,0l-0.4-325.8c0-2.4-2-4.4-4.5-4.4c-1.2,0-2.3,0.5-3.1,1.3l-219,230.5c-1.7,1.8-4.5,1.9-6.2,0.2
	c0,0,0,0-0.1-0.1L1528.6,1536c-1.7-1.7-4.5-1.8-6.3-0.1c-0.8,0.8-1.3,1.9-1.3,3.1l-0.4,312.3
	C1520.6,1853.7,1518.6,1855.7,1516.2,1855.7z M1525.9,1185.3l222.3,207.8c2.9,2.7,5.7,2.7,8.5-0.1l217.8-217.4
	c3.9-3.9,6-9.1,5.9-14.5c-0.8-91.5-0.8-197.5,0.1-317.8c0.1-20.5-3.7-38.4-11.5-53.4c-29.3-56.6-97-104.3-154.2-127.6
	c-105.6-42.8-219.2,34.9-280.2,119.8c-6.3,8.6-12.3,24.6-12.4,35.4c-1.8,120.8-2.4,239.4-1.8,355.6
	C1520.6,1177.8,1522.4,1182,1525.9,1185.3z M862.3,1012.8c-70.2,10.1-134.2,40-163.8,109.1c-26.5,61.6-49,191.8,4.2,244.7
	c76,75.6,155.4,155.5,238.2,239.5c2.5,2.6,5.6,3.5,9.2,2.8c4.4-0.8,8.6-1.3,12.8-1.5c91.1-4.2,187.3-7.2,288.5-9.1
	c5.8-0.1,10.5-4.8,10.5-10.6l0.1-312.1c0-2.5-1-4.9-2.7-6.6c-72.1-71.8-145.5-145.3-220.2-220.3c-49.8-49.9-96.6-40.8-161.2-40.4
	c-2.9,0-5.7,0.7-8.2,2C867.4,1011.5,865,1012.4,862.3,1012.8z M2797.2,1364.7c28.3-28.5,34.4-73.6,32.6-112
	c-4-92-29.2-182.7-122.9-220.7c-63.7-25.8-184.9-45.7-240.8,9.9c-75.8,75.5-151.6,151.2-227.4,226.9c-6,6-9.3,14.3-9,22.7l10.1,303
	c0.2,3.3,1.9,4.9,5.2,4.9H2557c3.7,0,6.9-1.3,9.5-3.8C2642.6,1520.3,2719.6,1443.4,2797.2,1364.7z M3137,1953.2
	c-31.8-44.3-80.2-96.5-135.5-96.4c-112.3,0.3-225,0.3-338,0c-4.4,0-8.6,1.8-11.6,5.1L2445,2082.2c-2.9,3.1-2.8,6.1,0.3,9.1
	l217.9,218c4.5,4.5,9.9,6.7,16.2,6.7c115.2-0.3,223.8-0.3,325.8-0.1c62.7,0.1,127.5-85,155.8-135.5
	C3201.5,2107.7,3193.5,2032,3137,1953.2z M464.7,1867.3c-1.1-0.2-2.1-0.7-2.9-1.5c-1.9-1.7-3.8-1.9-5.9-0.5
	c-61.1,38.1-105.3,94-132.8,167.5c-38.4,103,49.8,224.5,130.2,274.4c15.2,9.4,31.8,14.1,50,13.9c109.9-0.8,220.5-1.2,331.8-1.1
	c4.4,0,8.1-1.6,11.1-4.9l210.7-224.5c1.9-1.9,1.8-3.9-0.1-5.8l-219.7-218.7c-3.3-3.3-7.2-4.9-11.9-4.9
	c-112.3-0.3-226.3-0.2-342.2,0.4c-2.5,0.1-4.8,0.9-6.7,2.5C473.1,1867.1,469.1,1868.2,464.7,1867.3z"/>
<path class="st0" d="M1682.4,2319.3c-99,16.9-197.4,71.8-258.7,151.7c-32.9,42.9-34.1,85.4-3.7,127.2
	c72.8,99.8,204.8,160.4,322.1,160.6c5.1,0,7.6,2.6,7.6,7.7l-1,392.9c0,5.7-2,6.6-6.1,2.5l-621.3-621.3c-3.5-3.5-3.5-6.9,0-10.4
	l623-622.6c3.6-3.6,7.2-3.6,10.7,0l618.2,619.9c4.5,4.5,3.6,6.8-2.8,6.8l-259.2,0.1c-6.4,0-9.9-3.2-10.6-9.6
	c-6.2-55.5-78.7-115.7-124.3-143.9C1882,2322.6,1784,2302.1,1682.4,2319.3z"/>
<circle class="st0" cx="1750.3" cy="2537" r="195.2"/>
</svg>
