<?xml version="1.0" encoding="utf-8"?>
<!-- Generator: Adobe Illustrator 27.7.0, SVG Export Plug-In . SVG Version: 6.00 Build 0)  -->
<svg version="1.1" id="Layer_1" xmlns="http://www.w3.org/2000/svg" xmlns:xlink="http://www.w3.org/1999/xlink" x="0px" y="0px"
	 viewBox="0 0 3500 3500" style="enable-background:new 0 0 3500 3500;" xml:space="preserve">
<style type="text/css">
	.st0{fill:none;stroke:#809373;stroke-width:2;}
	.st1{fill:#0165D6;}
	.st2{fill:#FFC00F;}
</style>
<g>
	<g>
		<path vector-effect="non-scaling-stroke" class="st0" d="M1115,784.8c-169.2,20.5-310.7,90.1-424.4,209"/>
		<path vector-effect="non-scaling-stroke" class="st0" d="M1527.6,3252c70-127.5,122.1-254.7,156.2-381.6"/>
	</g>
	<path class="st1" d="M1496.7,0h176c395.8,19.8,790.7,49.5,1184.8,89.1v9.5l-175.3,757.9c-0.6,2.9-2.4,4.1-5.3,3.8
		c-413.2-43.7-832.9-85.7-1240.8-98.2c-102-3.2-209.1,4.3-321.2,22.7c-169.2,20.5-310.7,90.1-424.4,209
		C754.2,763.6,819.1,534.1,885,305.1c8.7-30.2,21.1-54.2,37.2-72.1C1071.7,68.5,1281.9,16.5,1496.7,0z"/>
	<path class="st2" d="M1115,784.8l128.6,94.7c3,2.2,4.4,6,3.7,9.7l-162.9,750.4c-0.5,2.2-2.7,3.6-4.9,3.2c-0.3-0.1-0.7-0.2-1-0.4
		c-55-27.3-108.2-57.4-159.5-90.4c-141-90.6-233.2-207.8-276.6-351.8v-36.6l48.1-169.8C804.3,874.9,945.7,805.2,1115,784.8z"/>
	<path class="st1" d="M1527.6,3252c70-127.5,122.1-254.7,156.2-381.6c16.3-79.3,24.2-150.5,23.6-213.8
		c-4-494.1-13.8-987.6-29.4-1480.5c-0.1-2.9,2.2-5.2,5-5.3c0,0,0.1,0,0.1,0h735.4c5.4,0,8.3,2.8,8.6,8.3
		c11.1,301.9,22.3,612.3-1.2,914.6c-12.9,165-62.3,314.7-148.3,449.1c-30.1,47.1-75.4,99.3-135.9,156.8
		C1944.5,2887.1,1739.8,3071.3,1527.6,3252z"/>
	<path class="st2" d="M1683.8,2870.4c-34.2,126.9-86.2,254.1-156.2,381.6c-123.9,128.4-278.6,206.9-464.3,235.5
		c-22.3,3.4-62.3,7.6-119.9,12.4H823.3l-159.9-12.1c-5.3-0.5-6.1-2.6-2.2-6.2l635.9-604.6c4.9-4.7,10.8-7.1,17.7-7.1L1683.8,2870.4z
		"/>
</g>
</svg>
