<?xml version="1.0" encoding="utf-8"?>
<!-- Generator: Adobe Illustrator 27.7.0, SVG Export Plug-In . SVG Version: 6.00 Build 0)  -->
<svg version="1.1" id="Layer_1" xmlns="http://www.w3.org/2000/svg" xmlns:xlink="http://www.w3.org/1999/xlink" x="0px" y="0px"
	 viewBox="0 0 3500 3500" style="enable-background:new 0 0 3500 3500;" xml:space="preserve">
<style type="text/css">
	.st0{fill:none;stroke:#FFC30F;stroke-width:2;}
	.st1{fill:#FFC700;}
	.st2{fill:#FFAB01;}
	.st3{fill:#FFBF1D;}
</style>
<g>
	<path vector-effect="non-scaling-stroke" class="st0" d="M2373.8,1563.2c-504.2,61.5-951.8,257.9-1342.6,589.3"/>
	<path vector-effect="non-scaling-stroke" class="st0" d="M908.6,2276.9c-106.2,107.7-197.4,226.6-273.6,356.7"/>
</g>
<path class="st1" d="M1405.9,1024.2c-247.5,157.9-480.9,411.7-567,694.7c-5.8,19-12.7,19.4-20.7,1.4
	c-187-420.4-129.2-872.8,259.7-1150.9c220.2-157.3,441.8-318.8,664.8-484.4c6.4-4.7,10-3.1,10.8,4.7
	C1790.1,430.4,1713.6,827.5,1405.9,1024.2z"/>
<path class="st1" d="M2833.9,867.3c217.1,160.2,437.1,320,650.7,476.9c8,5.8,7.4,10.7-1.9,14.6c-256,109.6-577.8,167.5-834.9,52.7
	c-95.3-42.3-173.1-118.8-259.5-177.9c-243.1-165.9-489.3-249-738.5-249.1c-11.9,0-13.4-3.9-4.5-11.8
	c290.1-257.4,638.3-367.5,994.7-223C2690.9,770.4,2755.5,809.6,2833.9,867.3z"/>
<path class="st1" d="M2373.8,1563.2c-504.2,61.5-951.8,257.9-1342.6,589.3c-75.6-232.7-30.7-487.7,119.7-680.6
	c157.2-201.5,407.6-307.2,661.5-279.3C2048.3,1218.5,2257.2,1356.4,2373.8,1563.2z"/>
<path class="st1" d="M908.6,2276.9c-106.2,107.7-197.4,226.6-273.6,356.7c-105.4-62.4-191.4-142.9-258.1-241.4
	c-49.1-72.3-94-175-134.8-308.2c-77.5-252.5-153.9-489.3-229.4-710.5c-2-5.5,0.9-11.6,6.6-13.5c2-0.7,4.1-0.8,6.1-0.3
	C291,1420.6,571,1555.6,718,1789c25.1,39.8,50.7,103.5,76.7,191C825.3,2083.2,863.2,2182.2,908.6,2276.9z"/>
<path class="st2" d="M2627.1,1534.5c314.3,184.2,534.5,479.2,518,846c-3.6,77.8-26.4,178.5-68.5,302.1
	c-83.1,244.2-160.8,483.5-232.9,718c-1.7,5.4-7.4,8.6-12.8,7c-1.8-0.5-3.4-1.6-4.6-3c-189.1-212.9-347.5-518.3-304.9-806.9
	c10.8-73.6,43.1-142.3,65.6-212.4c92.9-288,113.4-563.9,27.5-840.8C2610.3,1530.2,2614.4,1526.9,2627.1,1534.5z"/>
<path class="st3" d="M2373.8,1563.2c39.9,70.6,67.8,147.2,82.6,226.8c44.2,237.1-30.4,480.9-199.7,652.6
	c-180.6,183.1-443.5,258.8-693.8,199.7c-250.6-59.1-452.2-244.8-531.7-489.8C1422,1821.1,1869.5,1624.6,2373.8,1563.2z"/>
<path class="st3" d="M908.6,2276.9c88,185.9,211.9,339.8,371.7,461.8c6.6,5.2,5.9,8.9-2.1,11.1c-19.8,5.5-51.3,8.8-94.6,9.9
	c-204.8,5-387.7-37-548.6-126.1C711.2,2503.6,802.4,2384.7,908.6,2276.9z"/>
<path class="st2" d="M2391.6,2630.3c-85.9,442.3-403.5,789.3-875.9,785.1c-287.6-2.7-563.4-3-827.2-0.9c-4.9,0-8.9-4-9-8.9
	c0-1.6,0.4-3.1,1.2-4.5c169.4-281.4,453.8-567,804.8-547.4c310.1,17.2,644.6-41.6,893-231.3
	C2390.1,2613.7,2394.5,2616.3,2391.6,2630.3z"/>
</svg>
