<?xml version="1.0" encoding="utf-8"?>
<!-- Generator: Adobe Illustrator 27.7.0, SVG Export Plug-In . SVG Version: 6.00 Build 0)  -->
<svg version="1.1" id="Layer_1" xmlns="http://www.w3.org/2000/svg" xmlns:xlink="http://www.w3.org/1999/xlink" x="0px" y="0px"
	 viewBox="0 0 3500 3500" style="enable-background:new 0 0 3500 3500;" xml:space="preserve">
<style type="text/css">
	.st0{fill:none;stroke:#888FB9;stroke-width:2;stroke-opacity:0.98;}
	.st1{fill:#0BD0FF;fill-opacity:0.957;}
	.st2{fill:#FF5076;}
</style>
<path vector-effect="non-scaling-stroke" class="st0" d="M1273.2,948.8c0.1-3,0.5-4.8,1.4-5.5"/>
<path class="st1" d="M2825.9,0h55c75.9,7.7,142.4,32.6,199.7,74.6c79.3,58.2,125.3,137.6,138.1,238.3c1.5,11.4,2.9,22.5,4.4,33.2
	c9.9,71.7,19.1,143.9,27.5,216.4c1.9,16.3,5.7,31.7,6,47.6c0.5,22.2,7.9,42.3,7.8,64.6c-0.1,20.6,7.9,38.3,7.1,60
	c-0.6,15.4,6.2,30.4,6.2,46.1c0,11.7,1.3,22.9,4,33.7c4.8,19,1.9,37.8,6.8,56.7c5.1,19.8,2.7,39.9,7.4,59.9
	c3.9,16.3,2.5,32.9,5.4,49.5c1.6,9.3,3,18.6,4.2,28.2c15.2,127,29.9,249.9,44,368.7c0.8,6.7,1.8,13.5,3,20.4
	c3.1,17.4,1.4,33.8,5.8,51.5c4.4,17.6,2,35,6.2,52.6c3,12.5,4.5,25,4.6,37.3c0.2,17.5,6.4,33.8,6.9,51.5c0.4,12.1,2,24.2,4.6,36.4
	c4,17.9,2.2,35.7,6.2,54.1c2.2,10.3,3.6,20.7,4.2,31.2c1.3,23.9,7.8,46.3,8.5,70.7c0.5,15.2,6.2,29.3,6.3,45
	c0.2,21.3,7.1,40.7,7.7,62.1c0.4,13.5,2.3,27.1,5.7,40.8c2.9,11.7,0,23.5,2.7,34.9c5.8,24.5,5.6,47.6,10.1,72.3
	c3.6,19.4,2.1,38.1,6.7,57.1c2.6,10.8,3.8,22.2,3.5,34.5c-0.4,15.9,7.1,29.4,6.6,45.3c-0.7,22.7,7.2,43.2,7.5,66.1
	c0.1,9.2,1.3,18.4,3.6,27.8c4.2,17.1,1.7,34,5.9,51.1c4,16.5,4,33.4,6.2,50.3c8.9,69.4,17.3,138.9,25.4,208.6v58
	c-6.8,68.9-32,129.2-75.6,180.7c-63.8,75.5-144,119.5-240.7,132c-69.8,9-133.1,2.4-189.8-19.9c-220.6-86.6-437.2-171.5-649.8-254.7
	c-47.8-18.7-95-36.6-141.8-53.8c-2.4-0.9-3.7-3.6-2.7-6.1c0.4-1.1,1.2-2,2.3-2.5c197.2-100.6,390.5-199.5,579.8-296.7
	c84.9-43.6,143.2-113.9,175.1-211c2.7-8.1,1.5-15.9,4.9-23.9c2.2-5.2,3.5-10.7,3.9-16.4c3.1-49.2,2.9-82-0.7-98.4
	c-25.4-117.9-88.3-202.2-188.9-252.9c-194.1-97.7-387.9-196.2-581.3-295.5c-41.5-21.3-82.1-42-121.7-62.1
	c-264.6-133.9-530.3-269.6-797.1-406.9c0.1-3,0.5-4.8,1.4-5.5C1445.9,833.9,1616,724.2,1785,614.1c38-24.8,76.3-49.5,114.9-74.2
	c158.4-101.3,316.3-203.3,473.7-306c84.8-55.4,183.9-116.6,258.9-166C2692.1,28.6,2756.6,6,2825.9,0z"/>
<path class="st2" d="M1274.6,943.4c-0.8,0.6-1.3,2.5-1.4,5.5c-203.8,133.9-409.7,266.7-617.5,398.3c-56.6,35.9-97.7,64.3-123.2,85.2
	c-72.3,59.4-112.6,138.4-120.7,237.1c-1.1,13.6-1.2,24.2-0.2,31.7c2.1,15.7,1.4,32.3,4.6,47.5c22,104.2,77.1,180.9,165.4,230.2
	c22.7,12.7,54.9,27.3,96.4,43.8c182.4,72.3,378.6,148.6,588.5,228.7c45,17.2,87.5,33.7,127.6,49.4
	c265.8,104.8,530.8,208.5,795.1,311.1c3.1,1.2,4.6,4.6,3.4,7.7c-0.5,1.4-1.6,2.5-2.9,3.2c-101.8,50.3-205.5,102.7-311.1,157.3
	c-220.8,114-428.5,219.8-623,317.3c-39.9,20-80.5,40.7-122,62.1c-187.2,97.2-375.8,193.3-565.9,288.3
	c-59.9,29.9-115.8,47.4-167.8,52.2h-61.2c-147.5-14.2-291.5-113.1-326.2-262.1c-6.1-26-9.1-69.7-9-131.3C4,2394.7,4,1662.8,3.5,911
	c0-49.4,2.1-85,6.4-106.6C38.9,659.7,176.7,550.6,320.8,535c82.3-8.9,154.5,2.4,216.7,33.8c191.8,97,381.8,197.4,574.4,292.9
	c13.7,6.7,40.7,20.6,80.9,41.4C1220,917.2,1247.2,930.6,1274.6,943.4z"/>
</svg>
