<?xml version="1.0" encoding="utf-8"?>
<!-- Generator: Adobe Illustrator 27.7.0, SVG Export Plug-In . SVG Version: 6.00 Build 0)  -->
<svg version="1.1" id="Layer_1" xmlns="http://www.w3.org/2000/svg" xmlns:xlink="http://www.w3.org/1999/xlink" x="0px" y="0px"
	 viewBox="0 0 3500 3500" style="enable-background:new 0 0 3500 3500;" xml:space="preserve">
<style type="text/css">
	.st0{fill:#FEC10E;}
	.st1{fill:#C5168D;}
</style>
<path class="st0" d="M1941.5,44.2h193.8c336.4,39.2,597,193.7,781.9,463.6c1.1,1.8,2.8,2.6,5,2.5l441.2-24c2.6-0.2,4.8,1.8,4.9,4.4
	c0.1,1.2-0.3,2.3-1.1,3.3l-289.6,356.4c-2,2.3-1.7,5.7,0.5,7.7c0.7,0.6,1.4,1,2.3,1.2l422.2,108.3c0,1.1,0,2.3,0,3.4
	c-123,86.4-246.8,171.3-371.5,254.7c-17.6,11.7-27.9,27.7-31.2,47.8c-24.6,155.7-77,300.9-157,435.6
	c-129.1,217.1-313.4,365.7-553,446c-22.1,7.3-38.2,11.4-38,38.8c1.2,295.5,1.5,608.2,0.6,938.3c-0.4,184-85.5,291.9-255.3,323.7
	h-82.3c-14.4-4.8-29.2-8.8-44.4-12c-136.5-29.6-213.1-128.2-216.1-270.6c-2.6-120.5-3-252.7-1.1-396.6c0.1-6-2.9-9.1-9-9.3
	c-215.4-5.9-420.7-46.1-615.8-120.4c-313.5-119.4-566.9-312.5-760.1-579.2c-86.1-119-154.4-238.4-205-358.3
	C96.2,1549.7,40.9,1366.3-2.5,1159v-133.2C23.9,858.6,121.2,770,289.2,760c86.5-5,179.6,25.4,234.1,90
	c82.7,98.1,76.6,190.1,97.1,304.2c53.8,300.6,188.3,542.1,403.5,724.7c143,121.3,326,210.9,549,268.7c10.9,2.8,11.7,1.1,2.3-5.1
	c-14.8-10-31.3-13.4-46.9-22.1c-144-81.8-266.3-183.6-366.9-305.3C822.6,1404.8,844.1,774.5,1206,385
	c166.1-178.6,376.2-286.2,630.3-322.6C1871.3,57.4,1906.4,51.4,1941.5,44.2z M2504,1137.3c0-270-218.9-488.8-488.8-488.8
	c-270,0-488.8,218.9-488.8,488.8l0,0c0,270,218.9,488.8,488.8,488.8h0C2285.1,1626.2,2504,1407.3,2504,1137.3z"/>
<ellipse transform="matrix(0.7071 -0.7071 0.7071 0.7071 -144.0364 1787.0023)" class="st0" cx="2085.1" cy="1067.4" rx="273.2" ry="273.2"/>
<path class="st1" d="M3006.5,2988.6c30.2,134.4-6.9,235.5-111.4,303.5c-38.6,25-85.8,37.4-141.6,37.2
	c-205-0.8-322.6-235.9-214-402.4c34.8-53.5,82.8-89.7,144.1-108.6c12.3-3.8,12.3-7.8,0.2-11.8c-161.9-54.1-234.5-231.8-137.9-377.1
	c77.6-116.7,240.7-146.4,351.9-61.2c78.4,60,110.8,141.7,97.2,244.9c-1.2,9.6,1.7,11.1,8.9,4.7c194.9-172.1,485.4,38,384.5,274.5
	c-29.5,69-77.9,113.7-145.2,134.1c-84.7,25.9-161.7,12-230.9-41.4C3007,2980.8,3005.1,2982.1,3006.5,2988.6z M2915.7,2754.6
	c-31.3,21-66.4,43-103,50.6c-14.5,3.1-14.5,6.3,0,9.5c40.6,9,78.2,26.8,112.8,53.3c7.5,5.7,10.2,4,8.1-5.1
	c-7.5-33-9.8-66.9-6.9-101.7c0.3-3.9-2.7-7.4-6.6-7.7C2918.6,2753.4,2917,2753.8,2915.7,2754.6z"/>
<path class="st0" d="M1199.5,3172.3c-48.4,156.6-227.9,215-359.1,123.5c-178.8-124.6-90.7-422.3,131.9-421.1
	c111.2,0.7,187.7,57.3,229.3,169.6c2.7,7.3,5.3,7.3,7.9,0c32.9-93.7,96.4-147.5,190.4-161.5c87.2-12.9,181.3,33.2,224,109.5
	c67.9,122,18.8,273.2-112.9,324.5c-124.8,48.4-258.4-17.3-300.2-144.6C1207,3160.4,1203.2,3160.4,1199.5,3172.3z"/>
</svg>
