<?xml version="1.0" encoding="utf-8"?>
<!-- Generator: Adobe Illustrator 27.7.0, SVG Export Plug-In . SVG Version: 6.00 Build 0)  -->
<svg version="1.1" id="Layer_1" xmlns="http://www.w3.org/2000/svg" xmlns:xlink="http://www.w3.org/1999/xlink" x="0px" y="0px"
	 viewBox="0 0 3500 3500" style="enable-background:new 0 0 3500 3500;" xml:space="preserve">
<style type="text/css">
	.st0{fill-rule:evenodd;clip-rule:evenodd;fill:url(#SVGID_1_);}
</style>
<g id="Layer_x0020_1">
	
		<radialGradient id="SVGID_1_" cx="1143.1343" cy="-1925.7994" r="541.4521" gradientTransform="matrix(1 0 0 -1 0 2.855)" gradientUnits="userSpaceOnUse">
		<stop  offset="0" style="stop-color:#CBF4FF"/>
		<stop  offset="0.2" style="stop-color:#00ABFF"/>
		<stop  offset="1" style="stop-color:#008CFF"/>
	</radialGradient>
	<path class="st0" d="M763.7,2511.7L763.7,2511.7c-18.9-788.7,651.5-1049.1,858-1626.1c99.6-278.2,81.1-657.5,41.2-885.6
		c199.9,213.8,374.2,485.8,394.8,762.1c17.6,236.6-43.3,530.2-136.5,753.3c-33,75-82.4,182.8-137.9,262
		c214.8-116,556.4-73.1,771.7,158.5c105.1,113,181.7,323.9,181.7,572.4c0,504.1-425.8,998.3-984.9,991.6
		C1206.2,3493.4,763.7,3057.4,763.7,2511.7L763.7,2511.7z M2491.9,2330.2c28,68.2,43.5,142.9,43.5,221.1c0,321.4-260.6,582-582,582
		c-321.4,0-582-260.6-582-582c0-76.5,14.8-149.5,41.6-216.4c90.5,101.8,96.9,249.7,196.2,381.3c53.2-105.7,186.9-272.8,281.9-275.1
		c142.5-3.5,298.3,29.5,399.3,10.1C2356.9,2438.5,2420.7,2369.8,2491.9,2330.2L2491.9,2330.2z"/>
</g>
</svg>
