<?xml version="1.0" encoding="utf-8"?>
<!-- Generator: Adobe Illustrator 27.7.0, SVG Export Plug-In . SVG Version: 6.00 Build 0)  -->
<svg version="1.1" id="Layer_1" xmlns="http://www.w3.org/2000/svg" xmlns:xlink="http://www.w3.org/1999/xlink" x="0px" y="0px"
	 viewBox="0 0 3500 3500" style="enable-background:new 0 0 3500 3500;" xml:space="preserve">
<style type="text/css">
	.st0{fill:#FFFFFF;}
	.st1{fill:#EF9E0F;}
	.st2{fill:#E8E8E8;}
	.st3{fill:#9E9D9E;}
	.st4{fill:#D9D1DB;}
	.st5{fill:#A3A3A3;}
	.st6{fill:#E0E0E0;}
	.st7{fill:#A8ACB2;}
	.st8{fill:#EAEAEA;}
	.st9{fill:#BDC3C9;}
	.st10{fill:#C6C4C6;}
	.st11{fill:#E5E5E5;}
	.st12{fill:#A5A5A5;}
	.st13{fill:#BACECD;}
	.st14{fill:#D9D7DB;}
	.st15{fill:#DBD5E0;}
	.st16{fill:#9AA1A8;}
	.st17{fill:#A1A7AF;}
	.st18{fill:#AFAFAF;}
	.st19{fill:#959AA0;}
	.st20{fill:#D8D8D8;}
	.st21{fill:#ADACAD;}
	.st22{fill:#E8DFEA;}
	.st23{fill:#B2B2B2;}
	.st24{fill:#939393;}
	.st25{fill:#A7A7A8;}
	.st26{fill:#C1C1C1;}
	.st27{fill:#7F7F7F;}
	.st28{fill:#DDDDDD;}
	.st29{fill:url(#SVGID_1_);}
	.st30{fill:#F4F4F4;}
	.st31{fill:#E6E7E8;}
</style>
<g>
	<g id="Objects">
		<g>
			<g>
				<path class="st0" d="M83.1,1894.8c-25.8-14.6-46.1-34.6-60.8-60.1C7.4,1809.2,0,1781,0,1750s7.2-59.4,21.7-85
					c14.6-25.5,34.4-45.6,59.9-60.1c25.3-14.6,53.4-21.7,84.7-21.7c28.4,0,54.9,6.4,79.7,19.6c24.6,13.1,45.3,32,62.3,56.6
					l-50.8,36.3c-23.1-35.1-53.7-52.7-91.2-52.7c-29.4,0-53.5,10-72.1,30.1c-18.8,20.1-28.2,45.8-28.2,77.1s9.6,57,28.9,77.1
					c19.1,20.1,43.4,30.1,73,30.1c25.5,0,46.1-6.4,62.1-19.1c15.8-12.7,25.5-28.4,29.6-47h-98.1v-55.6h163.2
					c0.7,6.9,1.2,15.8,1.2,26c0.2,83.1-59,155.6-158,155.3C137,1916.8,108.6,1909.4,83.1,1894.8L83.1,1894.8z"/>
				<path class="st0" d="M383.2,1912V1588h230.5v55.8H447.7v74.7h144.1v55.8H447.7v82.1h169.7v55.6L383.2,1912L383.2,1912z"/>
				<path class="st0" d="M677,1912V1588h68.2l104.5,215.7L954,1588h68.2V1912h-64.4v-198.8l-87.3,177.1h-41.8l-87.3-177.1V1912H677
					L677,1912z"/>
			</g>
			<rect x="1713.2" y="1584.8" class="st1" width="15.2" height="326.1"/>
			<polygon class="st0" points="3311.2,1911.9 3311.2,1790.1 3204.2,1790.1 3204.2,1708.3 3311.2,1708.3 3311.2,1586.5 3393,1586.5 
				3393,1708.3 3500,1708.3 3500,1790.1 3393,1790.1 3393,1911.9 			"/>
			<path class="st0" d="M2238.9,1912.9h-76.2c-0.4-0.5-0.6-0.6-0.7-0.8c-0.1-0.2-0.2-0.4-0.2-0.6c-0.1-0.2-0.1-0.4-0.1-0.6
				c0-0.7-0.1-1.3-0.1-2c0-62.3-0.1-124.7-0.1-187c0-0.2-0.1-0.4-0.4-1c-1.3,1.9-2.5,3.6-3.6,5.2c-24.9,37.2-49.8,74.4-74.5,111.7
				c-2.9,4.4-6,6-11.2,5.9c-12.2-0.4-24.5-0.3-36.7,0c-4.4,0.1-7.1-1.3-9.6-5.1c-24.6-37.1-49.4-74.1-74.2-111.1
				c-1.6-2.3-3.3-4.5-5.7-7.9v192.2c-0.6,0.6-0.8,0.7-1,0.8c-0.2,0.1-0.3,0.4-0.5,0.4c-1.1,0.1-2.2,0.2-3.3,0.2
				c-23.4,0-46.8-0.1-70.2-0.1c-0.4,0-0.8-0.3-1.5-0.7v-326.8c1.3-0.2,2.8-0.6,4.2-0.6c20.1,0,40.2,0,60.4-0.1
				c3.4,0,5.6,0.9,7.6,3.9c11.4,17.3,22.9,34.6,34.5,51.8c17.9,26.6,35.9,53.2,53.9,79.8c7.3,10.9,14.6,21.8,21.8,32.7
				c0.7,1.1,1.5,2.1,2.7,3.8c1.4-1.9,2.6-3.5,3.8-5.2c30.6-45.7,61.2-91.5,91.7-137.2c5.8-8.7,11.8-17.3,17.4-26.2
				c1.7-2.7,3.6-3.3,6.5-3.2c13.8,0.1,27.6,0,41.3,0h23.1c0.6,0.6,0.8,0.7,0.9,0.9c0.1,0.2,0.3,0.4,0.3,0.5
				c0.1,107.6,0.2,215.2,0.3,322.8C2239.2,1910.2,2239,1911.3,2238.9,1912.9L2238.9,1912.9z"/>
			<path class="st1" d="M3116.1,1912.9c-2.5,0.2-4.2,0.4-5.9,0.4c-21.6,0-43.3,0-64.9,0c-5.7,0-5.7-0.1-7.9-5.5
				c-8.2-20.6-16.5-41.2-24.9-62.2h-147.6c-1.6,4-3.4,8.2-5.1,12.4c-6.8,17-13.6,33.9-20.3,50.9c-1.2,3-2.7,4.4-6.2,4.4
				c-23.6-0.2-47.2-0.1-70.8-0.1c-0.4,0-0.8-0.2-1.2-0.3c-0.2-0.2-0.4-0.2-0.5-0.4c-0.1-0.2,0-0.4,0.1-0.6
				c43.4-108.3,86.8-216.6,130.1-325c0.2-0.6,0.7-1.1,1.1-1.7h93.2c1.3,2.7,2.9,5.8,4.2,8.9c13.2,33.2,26.4,66.3,39.6,99.5
				c11.6,29.1,23.1,58.3,34.7,87.4c13.1,32.8,26.3,65.4,39.5,98.2c4.1,10.1,8,20.2,12,30.4
				C3115.5,1910.3,3115.6,1911.2,3116.1,1912.9L3116.1,1912.9z M2985,1777.6c-16.6-44.2-43.3-110.2-47-115.3
				c-15.6,38.5-31,76.7-46.5,115.3H2985L2985,1777.6z"/>
			<path class="st1" d="M2758.4,1585.5v71.7h-193.8v71.9h157.8c1.2,5.4,1.5,61.2,0.5,70.5c-0.1,0.2-0.3,0.3-0.4,0.5
				c-0.2,0.1-0.4,0.3-0.5,0.3c-0.4,0.1-0.9,0.2-1.3,0.2c-0.4,0-0.9,0-1.3,0c-51.2,0-102.3,0.1-153.5,0.1c-0.2,0-0.4,0.2-1.4,0.6
				c-0.1,1.9-0.2,4.2-0.2,6.5c0,32.4,0,64.7,0,97.1c0,2.6-0.3,5.1-0.5,8.4c-25.8,0.1-51,0-76.1,0c-1.2-5.6-1.4-321-0.3-327.5
				C2492.1,1584.7,2750.1,1584.5,2758.4,1585.5L2758.4,1585.5z"/>
			<path class="st0" d="M2324.3,1584.9h6.4c21.2,0,42.4,0,63.6,0c0.9,0,1.8,0,2.6,0c3.9,0.2,4.3,0.7,4.5,4.7c0.1,1.1,0,2.2,0,3.3
				c0,104.1,0,208.2,0,312.3c0,2.3-0.2,4.7-0.3,6.8c-5.1,1.4-66,1.8-76.3,0.7c-0.2-0.2-0.4-0.3-0.5-0.4c-0.1-0.2-0.3-0.4-0.3-0.6
				c-0.1-107.6-0.2-215.2-0.2-322.8C2323.9,1588,2324.1,1586.9,2324.3,1584.9L2324.3,1584.9z"/>
			<g>
				<g>
					<g>
						<polygon class="st2" points="1366.9,1668.1 1259.7,1668.1 1276.7,1631.6 						"/>
						<polygon class="st3" points="1276.7,1631.6 1242.2,1591.7 1154.8,1638.6 1197.6,1668.1 						"/>
						<polygon class="st4" points="1259.7,1668.1 1276.7,1631.6 1197.6,1668.1 						"/>
						<polygon class="st5" points="1197.6,1668.1 1134.8,1668.1 1154.8,1638.6 						"/>
						<polygon class="st6" points="1134.8,1668.1 1084.9,1668.1 1154.8,1638.6 						"/>
						<path class="st7" d="M1084.9,1668.1c0,0,89.6-76.6,90.9-76.4c1.3,0.2-21,46.9-21,46.9L1084.9,1668.1L1084.9,1668.1z"/>
						<polygon class="st8" points="1175.8,1591.7 1242.2,1591.7 1154.8,1638.6 						"/>
						<polygon class="st9" points="1242.2,1591.7 1276.7,1631.6 1366.9,1591.7 						"/>
						<polygon class="st10" points="1366.9,1668.1 1474.1,1668.1 1457.1,1631.6 						"/>
						<polygon class="st11" points="1366.9,1591.7 1276.7,1631.6 1366.9,1668.1 1457.1,1631.6 						"/>
						<polygon class="st0" points="1457.1,1631.6 1491.6,1591.7 1579,1638.6 1536.2,1668.1 						"/>
						<polygon class="st12" points="1474.1,1668.1 1457.1,1631.6 1536.2,1668.1 						"/>
						<polygon class="st13" points="1536.2,1668.1 1598.9,1668.1 1579,1638.6 						"/>
						<polygon class="st14" points="1598.9,1668.1 1648.9,1668.1 1579,1638.6 						"/>
						<path class="st15" d="M1648.9,1668.1c0,0-89.6-76.6-90.9-76.4c-1.3,0.2,21,46.9,21,46.9L1648.9,1668.1L1648.9,1668.1z"/>
						<polygon class="st0" points="1558,1591.7 1491.6,1591.7 1579,1638.6 						"/>
						<polygon class="st16" points="1491.6,1591.7 1457.1,1631.6 1366.9,1591.7 						"/>
					</g>
					<g>
						<polygon class="st17" points="1259.7,1668.1 1326.6,1832.9 1197.6,1668.1 						"/>
						<polygon class="st0" points="1197.6,1668.1 1287.7,1832.9 1366.9,1916.8 1326.6,1832.9 						"/>
						<polygon class="st8" points="1197.6,1668.1 1134.8,1668.1 1287.7,1832.9 						"/>
						<polygon class="st18" points="1366.9,1916.8 1287.7,1832.9 1084.9,1668.1 						"/>
						<polygon class="st19" points="1134.8,1668.1 1084.9,1668.1 1287.7,1832.9 						"/>
						<polygon class="st20" points="1366.9,1668.1 1326.6,1832.9 1366.9,1916.8 1407.2,1832.9 						"/>
						<polygon class="st11" points="1474.1,1668.1 1407.2,1832.9 1536.2,1668.1 						"/>
						<polygon class="st21" points="1536.2,1668.1 1446.1,1832.9 1366.9,1916.8 1407.2,1832.9 						"/>
						<polygon class="st22" points="1536.2,1668.1 1598.9,1668.1 1446.1,1832.9 						"/>
						<polygon class="st23" points="1366.9,1916.8 1446.1,1832.9 1648.9,1668.1 						"/>
						<polygon class="st24" points="1598.9,1668.1 1648.9,1668.1 1446.1,1832.9 						"/>
						<polygon class="st25" points="1474.1,1668.1 1407.2,1668.1 1407.2,1832.9 						"/>
						<polygon class="st2" points="1366.9,1668.1 1259.7,1668.1 1326.6,1832.9 						"/>
					</g>
					<g>
						<polygon class="st0" points="1134.8,1668.1 1259.7,1668.1 1242.2,1591.7 						"/>
						<polygon class="st26" points="1259.7,1668.1 1366.9,1668.1 1474.1,1668.1 1366.9,1591.7 						"/>
						<polygon class="st27" points="1558,1591.7 1598.9,1668.1 1648.9,1668.1 						"/>
						<polygon class="st26" points="1474.1,1668.1 1598.9,1668.1 1491.6,1591.7 						"/>
					</g>
					<path class="st28" d="M1598.9,1659.4H1095c-6.2,5.3-10.1,8.7-10.1,8.7h564c0,0-3.9-3.3-10.1-8.7H1598.9L1598.9,1659.4z"/>
					
						<linearGradient id="SVGID_1_" gradientUnits="userSpaceOnUse" x1="1417.8771" y1="-1758.0143" x2="1465.347" y2="-1791.1443" gradientTransform="matrix(1 0 0 -1 0 0)">
						<stop  offset="0" style="stop-color:#D6D6D6"/>
						<stop  offset="1" style="stop-color:#191919"/>
					</linearGradient>
					<polygon class="st29" points="1366.9,1916.8 1485.4,1668.1 1567.6,1668.1 					"/>
				</g>
				<polygon class="st30" points="1407.2,1668.1 1366.9,1668.1 1407.2,1832.9 				"/>
				<polygon class="st30" points="1366.9,1916.8 1366.9,1668.1 1326.6,1668.1 				"/>
				<polygon class="st31" points="1197.6,1659.4 1242.2,1591.7 1257.7,1659.4 				"/>
				<polygon class="st31" points="1558,1591.7 1491.6,1591.7 1593.1,1659.4 				"/>
			</g>
		</g>
	</g>
</g>
</svg>
