<?xml version="1.0" encoding="utf-8"?>
<!-- Generator: Adobe Illustrator 27.7.0, SVG Export Plug-In . SVG Version: 6.00 Build 0)  -->
<svg version="1.1" id="Layer_1" xmlns="http://www.w3.org/2000/svg" xmlns:xlink="http://www.w3.org/1999/xlink" x="0px" y="0px"
	 viewBox="0 0 3500 3500" style="enable-background:new 0 0 3500 3500;" xml:space="preserve">
<style type="text/css">
	
		.st0{fill:url(#SVGID_1_);stroke:url(#SVGID_00000005989066210921227190000011130965297451192485_);stroke-width:14.2;stroke-miterlimit:10;}
</style>
<linearGradient id="SVGID_1_" gradientUnits="userSpaceOnUse" x1="974.3168" y1="-3379.1746" x2="2681.6396" y2="-421.9616" gradientTransform="matrix(1 0 0 -1 0 0)">
	<stop  offset="0" style="stop-color:#5E4E3F"/>
	<stop  offset="0.3" style="stop-color:#ECDFBB"/>
	<stop  offset="0.3" style="stop-color:#FFF2CB"/>
	<stop  offset="0.5" style="stop-color:#6C6552"/>
	<stop  offset="0.8" style="stop-color:#D1C9AA"/>
	<stop  offset="1" style="stop-color:#897554"/>
</linearGradient>
<linearGradient id="SVGID_00000054966711063167050430000015258118948489658244_" gradientUnits="userSpaceOnUse" x1="600.1973" y1="-260.7864" x2="2394.314" y2="-3368.2156" gradientTransform="matrix(1 0 0 -1 0 0)">
	<stop  offset="0" style="stop-color:#5E4E3F"/>
	<stop  offset="0.3" style="stop-color:#FFF2CB"/>
	<stop  offset="0.5" style="stop-color:#6C6552"/>
	<stop  offset="0.8" style="stop-color:#D1C9AA"/>
	<stop  offset="1" style="stop-color:#897554"/>
</linearGradient>
<path style="fill:url(#SVGID_1_);stroke:url(#SVGID_00000054966711063167050430000015258118948489658244_);stroke-width:14.2;stroke-miterlimit:10;" d="
	M2543,2797.3c-0.5-7.7-2.7-14.9-0.9-21c21.3-76,22.6-153.8,21.8-231.7c-0.8-77.6-21.5-149.7-51.5-221.5
	c-37.1-89.2-90.4-166.3-157.4-233.1c-50.9-50.7-107.2-97.3-166.3-138.3c-78.6-54.6-161.4-103.1-243.7-152.1
	c-102.6-61.2-207.3-118.9-309.6-180.6c-65.4-39.4-130.5-80-191.7-125.6c-91.7-68.3-176-145.4-234.7-245.5
	c-83-141.5-121.1-293.6-89.1-456.6c17.5-89.1,53.5-172.5,110.6-245.3c23.9-30.5,47.3-61.3,85.6-86.1c4.8,11.8,11.6,20.9,11.7,30.1
	c0.5,43.1-2,84.5-24,125c-47.9,87.9-50.2,184.2-39.2,280.9c14.2,124.2,80.9,219.5,171.6,300.5c15.5,13.8,30.5,28.2,46.2,41.9
	c96.7,84.3,202,155.8,314.4,217.5c154.8,85,310.3,168.9,463,257.6c120.6,70.1,231,154.9,323.7,260.3
	c57.2,65.1,103.6,137.3,138.8,217.1c51.6,116.9,72.6,239.3,66.8,366c-2.3,51.1-13.2,102-23.1,152.4c-2.6,13.5-13.1,29.3-24.6,36.4
	c-55.5,34.1-119.2,43.9-181.8,56.4C2554.9,2802.9,2549.4,2799.3,2543,2797.3L2543,2797.3z M2547.2,3044.8c-30.6-0.8-61.5,1.8-91.8-1
	c-37.3-3.4-66.5,11.8-88.2,37.9c-35,42.2-76.5,76.3-119.2,109.9c-70.6,55.5-148.8,96.7-231.1,131.9
	c-90.5,38.6-186.1,56.3-282.1,71.4c-96.6,15.1-193.9,14.3-290.5-5.2c-25.8-5.2-52.2-7.6-78.3-11.9c-20.6-3.4-41.8-5.3-61.4-11.8
	c-128.7-42.5-250-97.6-357.4-183.7c-165.6-132.7-277.2-297.8-327.4-504.5c-25.6-105.4-33.7-211.4-17.9-318.8
	c13.7-93,42.4-182.1,87.8-263.8c46.2-83,107.9-154.3,183.1-214.4c105.8-84.4,222.6-134.8,359.5-132.5c19.5,0.3,39,0.8,58.5,0.5
	c31.3-0.4,36.8-5.8,38.4-35.8c1.9-35.4-6.1-45.9-41.1-48.5c-115.4-8.6-228.7,5.8-336,48c-106.6,41.9-203.3,102-285.4,183.9
	c-61.5,61.3-114.2,128.5-156.1,205c-47.8,87.3-88.5,176.6-96.3,277.3c-9.9,127.9-12.8,254.6,24,380.7
	c40.6,139.1,106.3,262.5,201.7,370.4c120.9,136.7,272.8,226.9,442.7,288.4c126.4,45.7,257.8,68.1,391.4,78
	c128.3,9.5,256.8,1,382.6-21c134.2-23.5,262.7-69,385.2-131.7c123.1-63,228.5-147.4,323.4-246.3c10.1-10.5,17.2-23.9,32.3-45.5
	c-24.3-3.4-37.3-6.4-50.5-6.8L2547.2,3044.8z M2068.2,2971c22.3,0,44.5,0,66.8,0c299.3,0,598.5,0,897.8,0c54.3,0,58.6-4.5,59-59.9
	c0-2.8,0-5.6,0-8.4c0.1-376.1,0.3-752.1,0.2-1128.2c0-13.7-0.5-28-4.3-41.1c-4.4-15.3-17.7-20.2-33.2-19.3
	c-14.6,0.9-23.4,8.8-26.3,22.4c-2,9.4-2.5,19.3-2.2,28.9c1.1,36.1,4.5,72.3,4.1,108.4c-1.8,150.3-4.6,300.6-7.3,450.9
	c-0.1,8.3-1.4,16.6-2.6,24.9c-10.8,74.3-21.9,148.2-45.1,220.3c-16.5,51.1-38.3,98.3-71.5,140c-39.9,50.2-95.5,79.7-150.1,110.4
	c-45.5,25.6-94.9,40.7-146,46.9c-49.6,6.1-99.8,7.2-149.9,8.4c-155.7,4-311.5,6.7-467.3,10.5c-44.4,1.1-88.8,5.9-133.2,6.2
	c-130.5,0.9-241.8-112.2-237.5-235.3c0.8-23.6,1.3-47.4-0.2-71c-1.7-26.5-15.7-34.9-41.9-33c-44.2,3.1-88.5,5.3-132.8,5.1
	c-31.8-0.1-44.1,5.7-47.3,36.9c-3.1,30.4-1.1,61.3-3.5,91.8c-1.6,20.6-2.8,42.7-11,61.1c-43.1,96.6-119,147.3-224.4,153.3
	c-25,1.4-50.1-0.4-75.1,0.6c-25.4,1.1-37.8,13.3-37.8,34.6c0,22.4,11.4,33.2,37,34.5c9.7,0.5,19.5,0.1,29.2,0.1
	c318.8,0,637.5,0,956.3,0v-0.4L2068.2,2971z M1512.6,0c-136.5,0-272.9,0-409.3,0c-11.1,0-22.3-0.2-33.4,0.9
	c-14.8,1.5-24.1,12.2-22.7,25.2c1.2,10.7,8.7,22.8,17.1,29.7c6.3,5.2,18.5,4,28.1,4.2c22.3,0.5,45.2-3.2,66.7,1
	c40.5,7.9,84.6,12.4,119.2,32.2c77,44.1,123,111.3,117,205.5c-0.9,13.9,0,27.9,0,41.8c0.1,211.7,0.7,423.5,0,635.2
	c-0.2,54.6,15.4,101.5,55.2,139c43.5,41,87.4,81.5,131.9,121.2c6.1,5.5,19,9.5,25.5,6.6s12.3-15.2,12.3-23.3
	c0-86.3-1.7-172.7-2.1-259c-0.8-174-1.1-348-1.6-522c-0.1-37.5,1.5-75-0.2-112.4c-3.3-71.3,16.2-134.1,63.7-187.8
	c48.4-54.7,111.5-75.8,182-78.9c26.4-1.2,53,0.9,79.3-0.8c19.8-1.2,31.6-15.8,29.9-33c-2-19.5-15.4-24.6-32.5-24.4
	c-2.8,0-5.6,0.2-8.3,0.2c-139.2,0-278.4,0-417.6,0c0-0.4,0-0.8,0-1.2L1512.6,0z M2189.1,794.1c0-171.2,0-342.4,0-513.5
	c0-11.1,0-22.3-0.3-33.4c-0.3-15-9.4-22.4-22.8-25.8c-24.7-6.2-41.8,7.4-45.3,33.5c-3.2,24.6-3.6,51.1-13.8,72.8
	c-18,38.3-52.7,48.7-104.3,38.2c-42.2-8.6-83.8-21.5-126.3-26.1c-50.9-5.6-102.4-4.5-153.7-6.1c-14.9-0.5-27.5,3.1-32.9,19.5
	c-11.4,34.9,2.4,58.8,38.8,67.4c31.1,7.3,62.5,13.6,92.9,23.1c138.3,43.2,217.3,143.5,260.5,276.4c31.3,96.2,38.8,196,39.4,296.4
	c0.6,96,0.1,192.1,0.3,288.1c0,11.1-0.6,22.5,1.6,33.3c3.6,17.4,19.1,26.7,38,24.5c17.4-2,28.4-10.5,28.2-29.5
	c0-11.1,0.2-22.3,0.2-33.4c0-168.4,0-336.8,0-505.2h-0.4L2189.1,794.1z M1395.7,1598.6c-0.4,218.8-0.5,437.5-0.7,656.3
	c0,68.4,8,76.2,77.6,73.2c64.1-2.7,142.7-47.7,144.4-143.9c1.7-93.2,2.9-186.4,2.8-279.7c0-57-3.9-114-4.7-171.1
	c-0.4-28.2-13.5-46-36.1-61.4c-49.2-33.6-96.9-69.4-145.7-103.6c-7.4-5.2-17.2-6.8-34-13C1397.6,1574.5,1395.6,1586.5,1395.7,1598.6
	L1395.7,1598.6z M1176.9,2280.6c-33.4,36.2-32.7,46.8,4.8,81.4c46.5,42.9,98.4,76.1,159.2,95.8c74.6,24.3,149.1,43.7,228.6,26.6
	c67.4-14.5,132.7-35.8,185-81.1c67.2-58.2,98.8-134.8,103.1-224.4c3.3-70.1-11.7-135.4-38.2-198.9
	c-25.6-61.1-67.6-109.7-120.7-154.8c-4.3,13.1-9.7,22-9.7,31c-0.1,62.6,0.5,125.2,1.7,187.8c0.9,44.5,4.3,88.9,4.3,133.4
	c0,45.8-14.7,89.4-41.1,125.1c-117.4,158.6-338.6,103.8-412.6-18c-8.6-14.1-14.8-30.5-38.7-32.9c-9.1,10.3-17.1,19.8-25.5,28.9
	L1176.9,2280.6z"/>
</svg>
