<?xml version="1.0" encoding="UTF-8"?>
<svg id="Layer_1" data-name="Layer 1" xmlns="http://www.w3.org/2000/svg" version="1.1" viewBox="0 0 3500 3500">
  <defs>
    <style>
      .cls-1 {
        fill: #fff;
        stroke-width: 0px;
      }
    </style>
  </defs>
  <g>
    <path class="cls-1" d="M1107.6,1089.6c1.6,325.4-3.4,649.5-4,976.8-11,0-20.1,0-29.2,0-173-.1-346,0-518.9-.7-15.1,0-25.2,5.9-34.5,16.2-42.3,46.5-84.8,92.8-127.1,139.3-41.3,45.3-82.6,90.6-123.7,136-17.9,19.7-35.4,39.8-54.9,58.7,14.2-35.5,35.4-67.3,53.5-100.6,19.1-35.2,39.8-69.5,59.6-104.2,19.5-34.1,38.8-68.3,58.1-102.5,19.3-34.2,38.3-68.5,57.6-102.7,19.3-34.2,38.9-68.2,58.3-102.3,19.8-34.8,39.6-69.6,59.5-104.4,19.5-34.1,39.2-68,58.6-102.1,19.4-34,38.6-68,59.2-104.3-24.7-7.5-46.9-13.9-69-20.8-135.8-42.5-262-105-381.7-181.4-48.4-30.9-93.9-65.7-136.4-104.2-24-21.8-45.6-45.8-60.5-74.7-6.3-12.3-10.8-26.1-12.9-39.8-4-26.4,9.3-44.8,31.4-58.2,25.5-15.5,53.9-22,82.6-24.2,42.2-3.3,84.7-4.9,127-4.9,214.7.3,429.3,1.2,644,2.1,59.7.3,119.5,1.1,179.2,1.8,6.9,0,13.9.8,24.3,1.4ZM752,1887.6v90.9c29.6,1.8,57.9,1.5,86.2-.1v-90.7h-86.2ZM655.1,1173.2c-29.3-3.5-57.7-2.1-86.3-1.3v90.9h86.3v-89.7ZM839.3,1264.5v-91.7h-82.9v91.7h82.9ZM384.3,1172.9v89.2h83.2v-89.2h-83.2ZM1024.2,1174.3h-83.9v91.6h83.9v-91.6ZM1023.8,1888.2h-83.4v91.7c28.9,1.5,55.8,2.6,83.4,0v-91.7ZM282.9,1173.8h-83.1v87.6h83.1v-87.6ZM651.2,1888.3h-82.3v88.4h82.3v-88.4Z"/>
    <path class="cls-1" d="M229.6,1614.5c14.5-33.5,27.2-62.7,40.3-92.9,33,17.5,63.2,33.6,96,51.1-15.5,30.1-30.3,59-46.5,90.6-30.9-16.8-59.5-32.3-89.8-48.7Z"/>
    <path class="cls-1" d="M401.3,1697.9c16.1-30,30.8-57.4,47-87.6,32,12.1,63,23.9,96.6,36.6-4.5,10-7.7,18.4-12.1,26.3-8.3,15-17.7,29.5-25.8,44.6-6.1,11.3-13.1,15.9-26.4,10.7-21.8-8.4-44.3-14.9-66.4-22.6-4.1-1.4-7.6-4.7-12.9-8.1Z"/>
    <path class="cls-1" d="M154.1,1565.9c-24.9-19.3-45.4-34.7-65.3-51-3.6-2.9-7-10-5.9-13.9,7.7-27.6,16.6-54.8,25.7-84.3,26.9,18.4,51.4,34.7,75.3,51.9,3.4,2.5,6.5,10.1,5.2,13.6-10.4,26.7-22,53-35,83.7Z"/>
    <path class="cls-1" d="M0,1317.6c10.2,10.4,20.9,20.3,30.2,31.4,2.7,3.3,2.8,10.4,1.6,15.1-5.5,20.2-12,40.1-19.9,60.2C.1,1390.2,1.5,1354.4,0,1317.6Z"/>
  </g>
  <g>
    <path class="cls-1" d="M1297.5,1091.3h77.9v354.1h-77.9v-354.1Z"/>
    <path class="cls-1" d="M1463.9,1091.3h161.9c44.9,0,79.3,12,103.2,35.9,20.2,20.2,30.4,47.2,30.4,80.9v1c0,28.7-7,52-21,70.1-14,18-32.3,31.3-54.9,39.7l86.5,126.5h-91.1l-75.9-113.3h-61.2v113.3h-77.9v-354.1ZM1620.8,1263.3c19.2,0,34-4.5,44.3-13.7,10.3-9.1,15.4-21.3,15.4-36.4v-1c0-16.9-5.4-29.5-16.2-37.9-10.8-8.4-25.8-12.6-45-12.6h-77.4v101.7h78.9Z"/>
    <path class="cls-1" d="M1951.1,1088.8h71.8l151.8,356.7h-81.5l-32.4-79.4h-149.7l-32.4,79.4h-79.4l151.8-356.7ZM2033.1,1297.2l-47.1-114.8-47.1,114.8h94.1Z"/>
    <path class="cls-1" d="M2229.4,1091.3h71.8l165.9,218v-218h76.9v354.1h-66.3l-171.5-225.1v225.1h-76.9v-354.1Z"/>
  </g>
  <g>
    <path class="cls-1" d="M1301.6,1587.7h99.7l230.4,302.7v-302.7h106.8v491.7h-92l-238.1-312.6v312.6h-106.8v-491.7Z"/>
    <path class="cls-1" d="M2025,1584.2h99.7l210.7,495.2h-113.1l-45-110.3h-207.9l-45,110.3h-110.3l210.7-495.2ZM2138.8,1873.6l-65.3-159.4-65.3,159.4h130.6Z"/>
    <path class="cls-1" d="M2411.3,1587.7h116.6l129.2,207.9,129.2-207.9h116.6v491.7h-106.8v-321l-138.4,210h-2.8l-137-207.9v318.9h-106.8v-491.7Z"/>
    <path class="cls-1" d="M3189.5,1584.2h99.7l210.7,495.2h-113.1l-45-110.3h-207.9l-45,110.3h-110.3l210.7-495.2ZM3303.3,1873.6l-65.3-159.4-65.3,159.4h130.6Z"/>
  </g>
</svg>