<?xml version="1.0" encoding="utf-8"?>
<!-- Generator: Adobe Illustrator 27.7.0, SVG Export Plug-In . SVG Version: 6.00 Build 0)  -->
<svg version="1.1" id="Layer_1" xmlns="http://www.w3.org/2000/svg" xmlns:xlink="http://www.w3.org/1999/xlink" x="0px" y="0px"
	 viewBox="0 0 3500 3500" style="enable-background:new 0 0 3500 3500;" xml:space="preserve">
<style type="text/css">
	.st0{fill:#BAD12C;}
	.st1{fill:#2563A3;}
</style>
<path class="st0" d="M684.8,310.8h29.3c109.8,22.8,219.6,44.8,329.5,65.9C1648.4,492.9,2288.1,667.5,2775,1050
	c380.3,298.6,605.3,700.5,717.2,1169.4v11.8l-763.4-0.2c-9.1,0-17.5-2.4-25.1-7.1c-49-30.6-93.7-63.6-134-99
	c-147.8-130.2-293.2-273.4-462.1-383.2c-192.5-125.4-391.9-159.8-610-63.1c-148.9,66-283.6,165.7-408.5,269
	c-121.4,100.4-235.3,192.9-341.7,277.6c-5.1,4-10.9,6.1-17.5,6.2l-712.6,5.7c-6.1,0.1-8.4-2.8-6.8-8.7
	c67.3-263.1,234.3-507.8,432.4-702.2c44-43.1,90.3-81.5,138.9-115.1c1.2-0.9,1.5-2.6,0.7-3.8c-0.3-0.4-0.6-0.6-1-0.8
	c-107.3-53.4-219.9-86.1-337.7-97.9c-6.2-0.6-8-3.8-5.4-9.5L684.8,310.8z"/>
<path class="st1" d="M1788,2477.4c-5,4.8-7.1,13.2-12.6,19.4c-205.6,234.2-419.6,462.8-642,685.7c-4.2,4.1-9.8,6.4-15.7,6.4H90.6
	c-3.7,0-6.7-2.7-7.3-6.2c-37.6-222.1-59.7-455-66.2-698.6c-0.2-5.9,2.6-8.8,8.5-8.8c235.5-0.3,479.3-0.1,731.6,0.8
	c22.5,0,39.8,1.2,60-11c250.6-152.3,434.2-380.6,673.2-530.6c153.6-96.4,306.8-119.2,473.4-26.2c66.9,37.3,128.7,81.9,185.3,133.9
	c105.6,96.7,212.2,194.4,319.9,293.1c52.6,48.1,114.8,93.6,186.6,136.2c4.5,2.7,9.5,4,14.9,4l798.6-0.3c14.9,0,21.4,7.4,19.7,22.2
	c-31.1,262.7-63.4,491.9-97,687.6c-0.4,2.3-2.4,4-4.6,4H1976.5c-4.8,0-9-3.2-10.2-7.9l-170.3-701.2c-0.5-2.5-3-4.1-5.6-3.5
	C1789.5,2476.4,1788.7,2476.9,1788,2477.4z"/>
</svg>
