<?xml version="1.0" encoding="utf-8"?>
<!-- Generator: Adobe Illustrator 27.7.0, SVG Export Plug-In . SVG Version: 6.00 Build 0)  -->
<svg version="1.1" id="Layer_1" xmlns="http://www.w3.org/2000/svg" xmlns:xlink="http://www.w3.org/1999/xlink" x="0px" y="0px"
	 viewBox="0 0 3500 3500" style="enable-background:new 0 0 3500 3500;" xml:space="preserve">
<style type="text/css">
	.st0{fill-rule:evenodd;clip-rule:evenodd;fill:#FF9900;}
</style>
<g id="Layer_x0020_1">
	<g id="_79788400">
		<path id="_79788688" class="st0" d="M2630.2,1353.3l-461.7-238.8c-53.1-225.5-231.8-700.5-581.1-700.5
			c-281.1,0-666.1,238.8-804,477.6C642.8,599.7,1330.5-1.1,1547.6,0C2009.6,2.3,2802.7,1042.8,2630.2,1353.3L2630.2,1353.3z"/>
		<circle id="_82928760" class="st0" cx="1834" cy="1809.6" r="497.5"/>
		<path id="_67310712" class="st0" d="M2514,2425.9l84.4-512.9c198.1-120.2,594.6-436.9,486.7-769.1
			c-86.9-267.3-432.9-559.7-702.7-617.1c234.1-223.9,1018,244.5,1084.1,451.3C3607.1,1418.1,2862.6,2494,2514,2425.9L2514,2425.9
			L2514,2425.9z"/>
		<path id="_84681416" class="st0" d="M1458,2646.8l513.9-78.2c175.5,151.3,599.2,430.5,881.9,225.2
			c227.4-165.2,398.5-584.7,369.7-859c285.3,153.5,82.1,1043.7-94.2,1170.5C2754.2,3374.9,1500.9,2999.3,1458,2646.8L1458,2646.8
			L1458,2646.8z"/>
		<path id="_84352584" class="st0" d="M921.5,1710.7l233.2,464.6c-89.6,213.7-224.3,703,58.4,908.3
			c227.4,165.2,679.2,198.4,931.2,86.2c-57.8,318.8-967.3,400.6-1142.3,272.1C629.6,3168.5,599.5,1860.5,921.5,1710.7L921.5,1710.7
			L921.5,1710.7z"/>
		<path id="_85571856" class="st0" d="M1646,911.3l-369.8,365.3c-230.9-19.2-737.8,3.9-845.8,336.2
			c-86.9,267.3,21.2,707.3,205.8,912.2c-321.1,43.6-679.9-796.2-611.8-1002.3C169.4,1084.1,1404.1,651.3,1646,911.3L1646,911.3
			L1646,911.3z"/>
	</g>
</g>
</svg>
