<?xml version="1.0" encoding="utf-8"?>
<!-- Generator: Adobe Illustrator 27.7.0, SVG Export Plug-In . SVG Version: 6.00 Build 0)  -->
<svg version="1.1" id="Layer_1" xmlns="http://www.w3.org/2000/svg" xmlns:xlink="http://www.w3.org/1999/xlink" x="0px" y="0px"
	 viewBox="0 0 3500 3500" style="enable-background:new 0 0 3500 3500;" xml:space="preserve">
<style type="text/css">
	.st0{fill:#02AAC7;}
</style>
<g>
	<path class="st0" d="M1428.9,764.1l314-312.9c6-6,15.8-6,21.9,0l312.9,314c6,6,6,15.8,0,21.9l-314,312.9c-6,6-15.8,6-21.9,0
		l-312.9-314C1422.8,779.9,1422.8,770.1,1428.9,764.1z"/>
	<path class="st0" d="M1758.9,1496.9c2.8-0.5,7.1-3.6,12.9-9.3c241.8-240.4,479.8-478.1,714.1-713.2
		c154.5-155,383.6-177.7,574.9-72.5c30.1,16.6,56.5,36.2,79.3,58.7c6.2,6.1,7.5,15.6,3.2,23.1c-5.6,9.9-12.4,18.9-20.4,26.9
		c-447.9,449.1-898.2,900.4-1351.1,1353.7c-11.9,11.9-23.8,11.9-35.8,0C1284.1,1712.9,835.2,1264.3,389,818.6
		c-9.7-9.7-18-20.3-25-31.8c-5.3-9-3.6-20.5,4.2-27.6C516.3,625.8,731.5,601,908.6,692.6c44.6,23,106.1,74.1,184.5,153.5
		c227.2,230,441.9,444.8,644.2,644.2C1742.9,1495.8,1751,1498.3,1758.9,1496.9z"/>
	<path class="st0" d="M335.1,1857.4c6.9-7.2,6.7-18.6-0.4-25.7c-78-77.4-150.1-151.9-216.3-223.6c-39.2-42.2-67-92.3-83.5-150.2
		c-48.2-169.4-18.5-321.5,89.1-456.2c7.4-9.4,13.5-14.7,18.3-16.1c11.2-3.4,21-1,29.2,7.3c448.1,447.7,897.3,896.9,1347.5,1347.7
		c9.9,9.9,18.7,20.3,26.6,31.3c2.5,3.5,2.7,7.2,0.6,11.1c-6,11.3-13.1,21-21.3,29.1c-144.6,142.6-284.9,283.1-420.7,421.5
		c-81.6,83.2-143.3,136-185,158.5c-163.3,88.1-383.1,86.7-525.6-40.5c-69.4-62-142-133.1-217.7-213.2c-37.8-40-70.5-78.8-98.1-116.5
		c-64.1-87.6-74.1-238.4-57.6-337.5c18.1-109.2,83.3-198.7,164.7-276.3C236.1,1959.5,286.2,1909.3,335.1,1857.4z M867.8,2392.3
		c7.7-7.8,7.6-20.3-0.1-28l0,0L697.6,2196c-7.8-7.7-20.3-7.6-28,0.1l0,0l-168.7,170.5c-7.7,7.8-7.6,20.3,0.1,28l0,0l170.1,168.3
		c7.8,7.7,20.3,7.6,28-0.1l0,0L867.8,2392.3z"/>
	<path class="st0" d="M2820,2568.4c5.1,1.6,10.7,0.3,14.6-3.6l165.4-165.2c13-12.9,13-25.9,0-38.9l-483.3-483.8
		c-18.3-18.3-18.3-48.1,0-66.4c259.5-259,521.7-521.3,786.6-786.7c13.9-14,28.3-26.6,43.3-37.8c7.6-5.7,14.6-5.1,20.9,1.9
		c43.8,47.3,78.8,106.6,105,177.9c18.7,51.1,24.9,110.3,18.6,177.6c-11.7,126.3-63.5,234.5-155.4,324.6
		c-54.7,53.6-109.1,107.9-163.4,162.9c-8,8.2-8,21.3,0.1,29.4c67.6,67.3,136.6,138.6,207,213.8c137.4,147,145.7,382.7,48.1,546
		c-26.8,44.9-67.1,92.8-120.9,143.9c-43,40.7-86.7,84.2-131,130.5c-126.8,132.5-279.2,181.4-457.1,146.8
		c-79-15.4-151.4-53.4-217.1-113.9c-63.7-58.7-129.1-122.9-196.4-192.4c-7.5-7.8-19.4-9.5-28.7-4c-11.5,6.9-21.8,15.1-31,24.5
		c-55.5,57.1-115.4,113.1-173.3,170.6c-56.2,55.8-120.7,92.4-193.5,109.8c-170.5,40.8-318.4,5.3-443.7-106.5
		c-11.6-10.2-11.9-20.8-1-31.7l839.7-841.6c5.3-5.4,13.6-6.5,20.2-2.8c7.5,4.3,14.3,9.4,20.4,15.5
		c162.2,162.3,325.6,325.6,490.3,490.1C2808.7,2563.3,2813.9,2566.4,2820,2568.4z"/>
</g>
</svg>
