<?xml version="1.0" encoding="utf-8"?>
<!-- Generator: Adobe Illustrator 27.7.0, SVG Export Plug-In . SVG Version: 6.00 Build 0)  -->
<svg version="1.1" id="Layer_1" xmlns="http://www.w3.org/2000/svg" xmlns:xlink="http://www.w3.org/1999/xlink" x="0px" y="0px"
	 viewBox="0 0 3500 3500" style="enable-background:new 0 0 3500 3500;" xml:space="preserve">
<style type="text/css">
	.st0{fill:url(#SVGID_1_);}
	.st1{fill:#FFFFFF;}
</style>
<linearGradient id="SVGID_1_" gradientUnits="userSpaceOnUse" x1="0" y1="-1749.95" x2="3500" y2="-1749.95" gradientTransform="matrix(1 0 0 -1 0 0)">
	<stop  offset="0" style="stop-color:#4BDB40"/>
	<stop  offset="1" style="stop-color:#05C151"/>
</linearGradient>
<path class="st0" d="M516.4,1233.6h2467.2c285.2,0,516.4,231.2,516.4,516.3v0c0,285.2-231.2,516.3-516.4,516.3H516.4
	C231.2,2266.3,0,2035.1,0,1749.9v0C0,1464.8,231.2,1233.6,516.4,1233.6z"/>
<path class="st1" d="M999.3,1605.4c-99.2,0-188.9-3.3-278.2,1c-80.6,3.8-141.8,67.5-148.7,144.4c-6.5,71.9,42.3,141.8,118.8,161.5
	c34.5,8.9,71.8,8.2,107.9,9.7c95.8,3.9,135.4,57.7,110.9,161.1c-87,4.2-176.8,15-264.1-6.4c-161.7-39.6-257.3-187.8-238.3-359.9
	c16.4-149,153-273.1,309.2-276.3c131-2.7,262-0.9,393-0.4c16.4,0,32.7,4,54,6.8c1.7,26.3,4.4,49.9,4.5,73.4
	c0.5,92.2,0,184.4,0.3,276.6c0,19.3-0.4,39.2,3.6,57.9c8.8,41.5,45.8,69.2,83.8,65.5c35-3.4,66.2-33.1,68.6-73.3
	c3.2-53.2,0-106.7,2-160c3.2-90.5,37.2-166.8,118.8-211.5c34.8-19.1,76.8-30.4,116.6-34c62.6-5.5,126.1-3,189.1-1.1
	c126.5,4,224.7,100.3,231.3,226.3c2.2,41.1,0.6,82.5,0.8,123.7c0,14.6-0.6,29.2,0.6,43.7c4.5,53.9,35.2,87.4,79,87.1
	c43.7-0.2,76.6-34.5,77.6-87.6c1.8-97,0.6-194.1,0.7-291.1c0-28.9,0-57.8,0-84.5c90.9-37,158.7-3.1,168.7,85.8
	c7,62.3,3,125.9,3.7,189c0.4,36.4-1.3,72.9,0.8,109.1c3,52,24.6,76.5,76.1,79c65.3,3.2,131.1,4,196.4,0
	c88.7-5.3,150.5-71.9,151.3-156.1c0.8-83-61.5-150.7-149-159.5c-37.9-3.8-76.3-3.4-119.5-5.1v-154.3c76.1-11.9,150.7-4.4,224.7-5.8
	c72.8-1.3,145.6-0.2,218.3-0.2c74.7,0,149.4,0,221.5,0c30.7,101.2-10.1,160.6-105.8,163.5c-50.3,1.5-100.7,0.3-155.1,0.3
	c10.8,39.3,20.1,69.2,27.3,99.5c42.6,179.1-106.5,372.7-295.1,381.5c-77.5,3.6-155.7,5.9-232.7-0.8c-49-4.2-96.5-26.1-157.6-43.8
	c-94,61.2-203.1,70.6-307.1-3.8c-167.5,73.1-330.3,72.3-506,0.7c-39.1,24.7-89.8,50.4-150.9,49.8c-136.8-1.3-241.6-97.7-247.2-234.1
	c-2.3-55.7-0.3-111.6-0.9-167.4c-0.3-23.7-2.1-47.5-3.7-80.3L999.3,1605.4z M1499.5,1763.2
	C1499.5,1763.2,1499.5,1763.2,1499.5,1763.2c0.1,26.5-1.6,53.2,0.5,79.6c3.9,50.4,26.9,75.4,77,78.2c52.9,2.9,106.3,3.1,159.2-0.2
	c48.4-3,75.8-29.6,79.3-78.4c3.8-52.8,3.8-106.3-0.2-159.1c-3.6-48.7-31.2-74.7-79.9-77.5c-52.9-3.1-106.3-3.1-159.2,0
	c-51.6,2.9-73,26.6-76.4,77.8C1498,1710,1499.5,1736.7,1499.5,1763.2z"/>
</svg>
