<?xml version="1.0" encoding="UTF-8"?>
<svg id="Layer_01" data-name="Layer 01" xmlns="http://www.w3.org/2000/svg" version="1.1" viewBox="0 0 3500 3500">
  <defs>
    <style>
      .cls-1 {
        fill: #12a3aa;
      }

      .cls-1, .cls-2, .cls-3 {
        stroke-width: 0px;
      }

      .cls-2 {
        fill: #025a91;
      }

      .cls-3 {
        fill: #fff;
      }
    </style>
  </defs>
  <path class="cls-1" d="M446.54,1176.85v727.1c96.42,0,188.88-38.3,257.06-106.48,68.18-68.18,106.49-160.65,106.49-257.07s-38.3-188.88-106.48-257.06c-68.18-68.18-160.65-106.49-257.07-106.49Z"/>
  <path class="cls-1" d="M363.55,1585.4v727.1c-96.42,0-188.88-38.3-257.06-106.48C38.3,2137.84,0,2045.36,0,1948.94s38.3-188.88,106.48-257.06c68.18-68.18,160.65-106.49,257.07-106.49Z"/>
  <path class="cls-2" d="M324.73,1481.01c30.8-37.39,45.42-85.29,40.76-133.51-4.66-48.22-28.19-92.43-65.59-123.23-37.39-30.8-85.29-45.42-133.51-40.76-48.22,4.66-92.43,28.19-123.23,65.59-30.8,37.39-45.42,85.29-40.76,133.51,4.66,48.22,28.19,92.43,65.59,123.23,37.39,30.8,85.29,45.42,133.51,40.76,48.22-4.66,92.43-28.19,123.23-65.59Z"/>
  <path class="cls-3" d="M1188.53,2312.49c-34.27,0-68.06-.52-102.19-.54-61.26-.03-70.48-9.35-70.51-71.2-.05-165.86-.02-340.93,0-506.88,65.71,1.78,152.04-18.12,159.33,75.02,0,0,0,359.7,0,359.7,61.74-3.8,177.66-2.86,240.38-9.22,69.85-9.66,118.66-50.41,141.15-117.85,42.45-123.5,12.85-300.68-128.95-340.14-63.94-18.52-146.05-7.89-210.06-9.88v-.59h-128.36c-39.77.84-74.73-34.51-73.39-74.27.26-59.43,7.25-70.99,68.4-71.56,81.21-.88,203.51-.71,281.58.36,191.18,3.13,338,113.59,367.8,303.88,36.14,200.43-56.48,411.25-271.09,450.16-83.84,17.74-185.05,11.15-274.09,12.99Z"/>
  <path class="cls-3" d="M2110.09,2323.15c-213.36.85-319.79-155.33-271.71-358.97,2.47-9.19,10.94-15.48,20.46-15.48h114.7c15.7-.02,25.78,16.38,19.11,30.58-30.8,76.41-12.8,182.64,68.98,209.16,93.73,32.38,187.24-31.35,181.17-133.21,2.55-84.73-46-149.79-131.43-149.47,0,0-211.16,0-211.16,0-17.84,0-27.75-20.65-16.6-34.58,33.67-42.06,82.19-70.03,144.85-83.36,160.25-32.33,331.45,25.87,360.18,196.81,36.64,201.32-75.69,339.15-278.56,338.54Z"/>
  <path class="cls-3" d="M3405.18,1940.12c-9.71,0-20.15-3.51-31.02-10.44-27.66-17.62-58.38-26.55-91.31-26.55-3.27,0-6.61.09-9.94.26h-169.96c-13.15,0-22.05-13.29-17.19-25.5,35.78-83.67,117.28-94.51,188.64-98.82,50.43,1.27,95.51,4.05,136.1,23.66,23.84,11.52,45.33,28.86,61.39,42.68,12.55,10.8,13.69,22.78,3.48,36.62-19.63,23.29-40.5,56.62-70.2,58.09Z"/>
  <path class="cls-3" d="M3252.2,2322.15c-45.13,0-85.32-6.02-122.85-18.4-40.26-14.07-120.76-57.6-74.27-103.44,17.71-16.16,42.54-46.74,66.57-50.02,6.83,0,13.94,3.46,23.07,11.21,45.64,39.91,106.45,42.9,168.32,30.71,49.82-8.8,46.86-64.69,3.53-78.97-48.95-13.76-99.58-18.67-148-33.94-55.21-18.78-85.86-54.08-93.02-107.47-1.8-13.46,8.5-25.49,22.08-25.49h111.96c14.5-.76,18.63,14.63,31.18,19.07,45.99,19.22,99.21,25.51,147.11,40.49,142.9,38.06,153.28,235.88,7.87,293.69-41.36,16.43-97.41,22.72-143.51,22.56Z"/>
  <path class="cls-3" d="M2845.37,1939.06c-9.43,0-19.69-3.29-30.5-9.78-17.88-10.73-35.7-16.91-54.31-18.81v-2.35h-233.32c-9.27,0-14.83-10.18-9.95-18.06,32.66-52.77,83.82-87.09,152.5-102.2,85.4-20.83,186.5-6.36,248.09,50.84,10.63,10.69,19.81,27.28,3.2,45.55-18.37,17.58-48.23,53.92-75.71,54.82Z"/>
  <path class="cls-2" d="M2920.47,2276.54c-124.71-3.28-124.68-185.88,0-189.14,124.7,3.28,124.68,185.88,0,189.14Z"/>
  <path class="cls-3" d="M2745.66,2321.86c-127.44,1.89-244.5-66.61-264.1-202.26-8.65-28.99-9.7-163.12,14.77-168.53,0,0,113.56,0,113.56,0,18.66,0,31.29,18.6,24.89,36.12-13.24,36.32-14.91,74.7-4.98,114.05,14.71,72.11,91.75,102.04,161.56,86.69,19.38-4.03.42,59.71,70.52,98.93,30.4,24.9-104.07,37.28-116.21,34.99Z"/>
</svg>