<?xml version="1.0" encoding="utf-8"?>
<!-- Generator: Adobe Illustrator 27.7.0, SVG Export Plug-In . SVG Version: 6.00 Build 0)  -->
<svg version="1.1" id="Layer_1" xmlns="http://www.w3.org/2000/svg" xmlns:xlink="http://www.w3.org/1999/xlink" x="0px" y="0px"
	 viewBox="0 0 3500 3500" style="enable-background:new 0 0 3500 3500;" xml:space="preserve">
<style type="text/css">
	.st0{fill:url(#SVGID_1_);}
	.st1{fill:url(#SVGID_00000011749786470140034480000014716610298762416287_);}
	.st2{fill:url(#SVGID_00000070822786520044900900000006138207832841458590_);}
	.st3{fill:url(#SVGID_00000047021647445681929700000015811557678377254806_);}
</style>
<g>
	
		<linearGradient id="SVGID_1_" gradientUnits="userSpaceOnUse" x1="918.2162" y1="-1806.7991" x2="1959.2064" y2="-1806.7991" gradientTransform="matrix(1 0 0 -1 0 0)">
		<stop  offset="0" style="stop-color:#CED5D5"/>
		<stop  offset="1" style="stop-color:#F6FBFF"/>
	</linearGradient>
	<path class="st0" d="M956.9,1496.9c5.4-0.4,8.9-1,12.3-0.9c78.4,0.9,156.7,0.8,235,3.1c93,2.8,166.5,43.8,221.2,118.8
		c4.5,6.1,8.8,12.3,13.2,18.5c0.3,0.4,0.9,0.5,2.1,1.2c8.5-12,17-24.2,26.6-37.8c38.6,40.3,83.2,66.9,137.3,81.2
		c-4.3,4.2-7.6,7.7-11.1,10.8c-70.8,60.7-63.7,154.2-19.5,213.4c23.7,31.7,58,47.1,96.9,49.2c39.8,2.2,79.8,1.8,119.8,2.5
		c17.2,0.3,21.2-3.7,21.2-21.4c0-45,0.4-90-0.3-134.9c-0.8-58.4-37.6-111.7-91.2-131.2c-14-5.1-29.5-8.2-44.3-8.6
		c-57.3-1.6-109.5-17.8-155.3-52.3c-36.5-27.5-63.5-63.3-85.8-102.8c-1.1-2-1.3-4.6-2.1-7.8c4.2-0.6,7.6-1.5,10.9-1.5
		c82.4,1.1,164.9,0,247.1,4.1c91.2,4.5,162.2,48.8,213.4,123.8c37.5,54.9,55.3,116.4,54.9,182.9c-0.6,98-1.7,196.1-2.7,294.1
		c-0.2,16-0.6,16.4-16,16.3c-89-0.7-177.9-0.6-266.9-2.5c-68.8-1.5-128.9-26.6-180.1-72.8c-2.8-2.5-5.9-4.8-11.7-9.5v84.8
		c-13,0-23.9,0-34.8,0c-76.8-0.7-153.7-2-230.5-2c-36.3,0-71.6-4.8-105.7-16.9c-35.6-12.7-67-32.7-94.6-58.7
		c-55.3-52-85.8-116.7-95.2-191.3c-11.3-89.5,12-170.1,66.3-241.9c0.9-1.2,2-2.3,3.2-3.2c0.8-0.6,1.8-0.8,3.9-1.7
		c36.6,38.6,81.2,64.9,136.1,79.4c-5.3,4.8-9.1,8.3-13,11.6c-83.3,71.3-54.9,191.8,5.2,235.5c21.8,15.9,46.3,25.1,73.1,26.1
		c40.9,1.5,81.9,1.6,122.8,2.1c13.3,0.2,16.8-3.3,16.8-17.2c0.1-48.5,1.4-97.1-0.4-145.5c-2.7-72.3-61.6-131.3-133.9-133
		c-28.5-0.7-56.1-5.2-83.3-14.1c-52.9-17.3-94.1-50.1-127.4-93.7c-12.8-16.7-25.6-33.7-33.9-55.9L956.9,1496.9z"/>
	
		<linearGradient id="SVGID_00000034769623021564626410000013513522155532371870_" gradientUnits="userSpaceOnUse" x1="0.1262" y1="-1807.8685" x2="975.4" y2="-1807.8685" gradientTransform="matrix(1 0 0 -1 0 0)">
		<stop  offset="0" style="stop-color:#CED5D5"/>
		<stop  offset="1" style="stop-color:#F6FBFF"/>
	</linearGradient>
	<path style="fill:url(#SVGID_00000034769623021564626410000013513522155532371870_);" d="M894.9,1745.8
		c-9.7-12.8-18-25.4-27.8-36.6c-45.2-51.6-110.8-55.7-156.4-38.6c-56,21-94.1,74.8-94.5,134.2c-0.6,97.5-0.3,195.1-0.4,292.6
		c0,5.9,0,11.9,0,19.1h-163c0-5.4,0-10.3,0-15.2c0-93,0-186-0.2-279c0-11.1-1.4-22.1-2.1-33.2c-3.9-60-58.1-116.7-121.3-125.7
		c-63.1-9-125.6,24.1-153,82.8c-7.8,16.7-12,34.3-12.1,52.8c-0.2,98.5-0.3,197.1-0.4,295.6c0,6.9,0,13.9,0,22H1.7
		c-0.3-4.5-1-9.3-1-14c-0.1-103.1-1.3-206.2,0.1-309.3c1-72.5,28.9-135.5,76.5-189.8c45.5-51.8,102.4-85.1,170-98.2
		c54.3-10.5,108.3-8,161.2,10.7c45.6,16.1,85,41.6,119.4,75.4c2.1,2.1,4.3,4,7.3,6.7c76.8-78.3,169.3-109.9,277.1-94.6
		c58.5,8.3,136.2,49.5,163.1,85.3c-39.8,45.3-65.3,98.6-80.3,157.3L894.9,1745.8z"/>
	
		<linearGradient id="SVGID_00000007404946520080691730000017483133270641642134_" gradientUnits="userSpaceOnUse" x1="1980.3596" y1="-1748.7998" x2="2597.6333" y2="-1748.7998" gradientTransform="matrix(1 0 0 -1 0 0)">
		<stop  offset="0" style="stop-color:#CED5D5"/>
		<stop  offset="1" style="stop-color:#F6FBFF"/>
	</linearGradient>
	<path style="fill:url(#SVGID_00000007404946520080691730000017483133270641642134_);" d="M2153.7,1382.7v257.7
		c6.8-2.8,12.1-5.1,17.6-7.2c115.2-42.4,222.1-28.2,317.1,50.6c63,52.2,98.2,120.9,106.7,202.6c1.9,18,2.3,36.3,2.4,54.4
		c0.3,52,0,104.1,0,156.2c0,5.5,0,11,0,17.8H2436c-0.3-5.7-1-11.5-1-17.3c-0.2-60.1,0-120.3-0.5-180.4c-0.4-42-16.6-77.4-47-106.4
		c-63.1-60-169.5-47.9-217.6,24.7c-17.5,26.4-26.3,55.4-26.3,87.2c0,57.1-0.1,114.2-0.2,171.3c0,6.5,0,13,0,21H1983
		c-0.3-2.5-0.8-5.3-0.9-8.2c-0.6-59.6-1.5-119.2-1.7-178.8c-0.2-70.2,0.4-140.5,0.6-210.7c0-27.8-1.4-55.6,0.3-83.3
		c3.2-52.2,22.6-99,51.7-142c29.6-43.7,66.2-80.1,113.2-105.3c2.1-1.1,4.3-2.2,7.6-3.9L2153.7,1382.7z"/>
</g>
<linearGradient id="SVGID_00000106128465694864493490000011595827257844755873_" gradientUnits="userSpaceOnUse" x1="3068" y1="-2116.0049" x2="3068" y2="-1498.9446" gradientTransform="matrix(1 0 0 -1 0 0)">
	<stop  offset="0" style="stop-color:#DB0F90"/>
	<stop  offset="1" style="stop-color:#9E077A"/>
</linearGradient>
<path style="fill:url(#SVGID_00000106128465694864493490000011595827257844755873_);" d="M2913.9,1633.2c7.5,0,13,0,18.4,0
	c45.5-0.9,91-1.7,136.4-2.6c21.8-0.4,23.7,1,30.4,21.2c30.1,90.5,60.3,181.1,90.6,271.5c3.8,11.3,8.4,22.3,12.7,33.4
	c1.1,0,2.2,0.1,3.3,0.2c3.7-9.2,7.9-18.2,11-27.6c29.5-90.2,58.7-180.5,88.1-270.7c1.6-4.8,3.3-9.5,5.4-14.1
	c3.3-7.6,9-11.9,17.6-11.9c56.6,0,113.1,0,172.3,0c-6.4,17.3-11.9,32.7-17.9,48c-33.3,84.6-66.6,169.1-100.1,253.6
	c-21.5,54.5-43.5,108.7-64.7,163.3c-5.1,13-11.9,18.7-26.8,18.5c-59.6-0.8-119.3-0.2-179-0.2c-18.4,0-18.8,0-25.5-17.2
	c-22.8-58.3-45.4-116.7-67.8-175.1c-19.6-50.9-39-101.8-58.2-152.9c-2.7-7.3-6.4-10.6-14.3-10.2c-9.5,0.5-19.1,0.1-30.3,0.1
	c-0.3,6.3-0.9,11.6-0.9,17c0.2,61.1,0.3,122.3,0.7,183.4c0.1,28.8,11.3,41.9,39.4,45.9c16.9,2.4,33.8,4.2,50.9,6.2v102.6
	c-13.8,0-26.4,0.3-39,0c-39.9-1-79.8-1.2-119.7-3.6c-26.5-1.6-51.4-9.7-72.9-26.5c-24.3-19-36.1-44.7-38.9-74.3
	c-2.5-26.6-3-53.4-3.4-80.2c-0.6-44-0.6-87.9-0.5-131.9c0-44.2,0.9-38.6-38.2-38.8c-18.6-0.1-37.2,0-57.1,0v-106.7
	c9.9,0,19.9,0,29.8,0c16.2,0.1,32.4,0.6,48.5,0.4c14.3-0.1,18-3.6,18.1-18.1c0.2-22.7-0.2-45.5-0.3-68.2c0-16.7,0-33.4,0.1-50
	c0-5.4,0.8-10.8,1.3-17.4c41.1,0.2,81-4.4,120.6,2.3c37.3,6.3,59.3,33.2,59.7,70.9c0.2,19.1,0,38.3,0,59.8L2913.9,1633.2z"/>
</svg>
