<?xml version="1.0" encoding="utf-8"?>
<!-- Generator: Adobe Illustrator 27.7.0, SVG Export Plug-In . SVG Version: 6.00 Build 0)  -->
<svg version="1.1" id="Layer_1" xmlns="http://www.w3.org/2000/svg" xmlns:xlink="http://www.w3.org/1999/xlink" x="0px" y="0px"
	 viewBox="0 0 3500 3500" style="enable-background:new 0 0 3500 3500;" xml:space="preserve">
<style type="text/css">
	.st0{fill-rule:evenodd;clip-rule:evenodd;fill:#D4BA05;}
</style>
<g id="Layer_x0020_1">
	<circle class="st0" cx="1726.4" cy="2438.5" r="320.8"/>
	<path class="st0" d="M607,2149.6c597.1,597.1,1053.5,854.8,1802.7,803.8c-1058.9,349-1571.1,34.8-2106.2-500.3L0,2149.6l1750-1750
		L3326.4,1976h0l2.7,2.7l2.7,2.7l2.8,2.8l2.8,2.8l2.8,2.8l2.8,2.8l2.8,2.8l2.8,2.8l5.6,5.6l2.8,2.8l2.8,2.8l2.8,2.8l2.8,2.8l2.8,2.8
		l2.8,2.8l2.8,2.8l2.8,2.8l2.8,2.8l2.8,2.8l2.8,2.8l5.7,5.7l2.8,2.8l2.8,2.8l2.8,2.8l2.8,2.8l2.8,2.8l2.8,2.8l2.8,2.8l2.8,2.8
		l2.8,2.8l2.8,2.8l2.8,2.8l2.8,2.8l2.8,2.8l2.8,2.8l2.8,2.8l2.7,2.8l2.7,2.7l2.7,2.7l2.7,2.7l2.7,2.7l2.7,2.7l2.7,2.7l2.7,2.7
		l2.7,2.7l2.6,2.6l2.6,2.6l2.6,2.6l2.6,2.6l2.6,2.6l2.6,2.6l2.6,2.6l2.5,2.5l2.5,2.5l2.5,2.5l2.5,2.5l2.5,2.5l2.4,2.4l2.4,2.4
		l2.4,2.4l2.4,2.4l2.4,2.4c-259.1,259.1-619.3,281.9-846.6,239.6c-365.4-68-750.3-574.5-1610.3-474.6
		c657.9-341.7,1127.9-181.8,1849.9,235l-1143-1143L607,2149.6L607,2149.6z"/>
</g>
</svg>
