<?xml version="1.0" encoding="utf-8"?>
<!-- Generator: Adobe Illustrator 27.7.0, SVG Export Plug-In . SVG Version: 6.00 Build 0)  -->
<svg version="1.1" id="Layer_1" xmlns="http://www.w3.org/2000/svg" xmlns:xlink="http://www.w3.org/1999/xlink" x="0px" y="0px"
	 viewBox="0 0 3500 3500" style="enable-background:new 0 0 3500 3500;" xml:space="preserve">
<style type="text/css">
	.st0{fill:#FFFFFF;}
	.st1{fill:#004E8C;}
	.st2{fill:#CC005A;}
</style>
<g>
	<path class="st0" d="M3312.3,1289.5c-123.4-126.8-289.4-197.5-467.2-199.1c-0.6,0-1.2,0-1.8,0v0H661.1c-177,0-343,68.2-467.4,192.2
		C70.3,1405.6,1.5,1569.5,0,1744.1c-1.5,177.8,66.2,344.9,190.6,470.3c123.1,124.1,292.6,195.2,465.2,195.2c1.8,0,3.5,0,5.2,0v0
		h2172c0.2,0,0.5,0,0.7,0c0.7,0,1.4,0,2.1,0h7.4c360.9,0,655.5-294.9,656.7-657.4C3500.6,1578.7,3433.9,1414.4,3312.3,1289.5z"/>
	<path class="st1" d="M2169.5,1767H75.7c4.3,149.2,63.6,288.5,168.5,394.3c30.2,30.5,63.6,57.3,99.3,80.2
		c12.8,0.9,25.9,1.4,39.3,1.5c670.8,2.3,1341.7,0.9,2012.6,0.9c5.6,0,11.1-0.6,18.3-1C2244.6,2122,2172.6,1960.3,2169.5,1767z
		 M713.4,1893.8H608.3v288.1h-76.6v-287.3H426.9v-63.8h286.5L713.4,1893.8L713.4,1893.8z M979.7,1980.8c-12,0-23.1-0.2-34.2,0
		c-29.4,0.6-50,19.6-50.7,49.1c-1,43.8-0.5,87.6-0.6,131.4c-0.1,21.8-0.1,21.9-21.8,22c-17.4,0.1-34.8,0-53.2,0v-265.6h71v37.6
		c10.6-14.9,20.8-28.7,37.5-35.9c16.7-7.3,33.6-8,51.9-2L979.7,1980.8L979.7,1980.8z M1320.6,2174.3c0,1.8-0.7,3.6-1.7,8
		c-22.3,1.8-45,1.3-69.6,0.1c-0.7-10.2-1.3-19.2-2.1-30.8c-15,18.1-31.7,30.4-53.5,34.2c-22.8,4-45.1,3.1-66.5-6
		c-29.5-12.4-44.1-35.4-45.4-67.4c-1.4-33.3,10.5-59.9,42.2-72.5c20-8,42.2-10.7,63.6-15.1c11.6-2.3,23.7-2.4,35.4-4.8
		c9.1-1.8,18.9-3.8,20.9-15.7c1.8-11.2-4.9-24.1-15.7-29.7c-19.6-10.3-48.8-4.7-60.7,14c-6.3,10-13.2,11.7-23.1,10.8
		c-16.8-1.7-33.6-3.1-53.2-4.9c5.9-31.7,22.5-53.9,49.4-66.4c44.5-20.5,90.2-20,134.5,0.8c29.1,13.7,44.7,38.5,45.2,70.5
		C1321.4,2057.8,1320.7,2116,1320.6,2174.3z M1707.5,2181.9h-71.7v-34.5c-2.8,0.5-4.6,0.3-4.9,1c-30.9,55.1-114.3,49.2-151.1,1.4
		c-14.1-18.3-22.9-38.8-25.9-61.6c-4.6-35-5.3-69.9,7.4-103.7c17.7-47.1,54.3-71.3,104.4-69.9c28,0.8,48.5,14.2,64.2,36.7
		c1.3-0.3,2.7-0.7,4-1v-119.3h72.3C1710.2,1843.1,1711.8,2153.8,1707.5,2181.9z M2096,2070.9h-175.7c-0.9,28.8,10.9,47.5,33.8,55.8
		c25.1,9.1,50.4,2.3,66.4-16.9c3.5-4.2,9.6-9.1,14.4-9c19.3,0.4,38.6,2.6,58.9,4.3c-0.3,17-7.8,29.8-17.2,41.6
		c-20.5,25.6-48.8,37.7-80.2,40.1c-21.6,1.6-44.3,0.5-65.2-4.5c-48.5-11.6-82.7-54.3-87.1-106.3c-2.2-26.2-2.2-52.4,6.6-78.1
		c16.9-49.3,57.8-81.2,109.6-83c15-0.5,30.5-0.4,44.9,2.9c43.4,9.7,71.7,36.9,84.7,79.4C2097.1,2020.2,2099.2,2043.7,2096,2070.9z"
		/>
	<path class="st1" d="M2839.1,2334.1c-313.5,2.9-588.4-252.9-585.7-589.4c2.6-319.8,262.4-581.7,591-578.8
		c328.9,2.9,581.1,271.8,580.1,586C3423.4,2074.4,3158.9,2336.4,2839.1,2334.1z M2340.2,1749.7c-3.4,268.7,218.7,495.6,492.6,499
		c276,3.4,504.4-220.9,505.6-496.1c1.1-279.5-228.6-498.7-495.1-500.8C2565.6,1249.7,2337.3,1478.1,2340.2,1749.7z"/>
	<path class="st2" d="M993.2,1343.1c-35.2,0-69,0-104.1,0c-1-3.1-2.1-6.4-3-9.8c-16.6-64.8-74.8-83.3-121-78
		c-53.2,6-86.9,37.3-103.2,86.6c-17.6,53.2-17.4,107.5,1.9,160.4c29.2,79.9,106.7,93.3,162.8,71.9c33.8-12.9,52.7-39.1,61.7-75.1
		c17.5,0,35,0,52.4,0c16.9,0,33.8,0,53.1,0c-1.8,9.8-2.5,18.3-4.8,26.3c-23.5,79.5-77.5,127.4-157.4,145
		c-50.5,11.1-101.3,7.9-149.7-12.3c-62.3-26.1-103.1-72.8-123.3-136.4c-21.4-67.4-22.5-136.2-0.3-203.4
		c30.1-91.5,94.5-143.6,191-154.7c45.9-5.3,90.1,0.8,132.3,19.8C945.5,1212,987.1,1271.1,993.2,1343.1z"/>
	<path class="st2" d="M1887.7,1555.8c30.8,2.2,60.7,4.3,92.4,6.6c-1.1,6.6-1.3,11.5-2.8,15.9c-14.6,42.9-45.4,70-86.8,85.1
		c-45.5,16.6-92.4,17.5-138.9,5.2c-57.8-15.2-96.2-52.4-114.5-109.1c-16.7-51.6-16.8-103.9,1.1-155.1
		c30.7-87.8,109.3-123.2,192.1-114.2c63.4,6.9,111.1,37.2,137.2,97c10.6,24.3,16,50,16.1,76.7c0.1,13.8,0,27.5,0,44
		c-85.3,0-169.6,0-253.5,0c-4.8,39.2,16.7,73.7,51.6,86.3C1823.8,1609.2,1861.4,1596,1887.7,1555.8z M1884.5,1442.6
		c4.3-39.2-27.6-74.1-68.4-76.1c-48.9-2.4-85.9,29.8-86.2,76.1C1781.4,1442.6,1833,1442.6,1884.5,1442.6z"/>
	<path class="st2" d="M1359.2,1667.7c-31.2,0-61.8,0-94.8,0c-0.7-15.5-1.4-30.8-2.2-48.8c-4.1,3.5-7.1,5.2-8.9,7.7
		c-22.4,32.6-54.1,47-92.8,48.8c-22.8,1.1-45.2-0.2-66.8-8.1c-51.5-18.8-73.1-60.3-69.2-114.1c3.2-44.9,27.3-75.6,69.8-88.3
		c30.4-9.1,62.5-12.5,93.8-18.2c13.6-2.4,27.5-3.2,40.8-6.4c27.8-6.7,36.6-26.2,21.9-50.6c-5.1-8.5-14.4-16.4-23.5-20.1
		c-30.7-12.3-74.8-4.8-91.9,32.2c-0.8,1.7-1.7,3.2-3.2,5.9c-30.8-2.6-61.9-5.2-94.4-7.9c8.9-40.2,30.6-69.2,65.5-88.2
		c38.3-20.8,79.8-26.4,122.3-20.9c22.7,2.9,45.8,8.8,66.8,17.7c44,18.7,67.4,54.2,68.1,101.6c1.2,84,0.3,168,0.2,252
		C1360.8,1663,1360.2,1664.2,1359.2,1667.7z M1258.2,1498.7c-31.3,5.6-59.8,9.7-87.7,16.1c-11.8,2.7-24,8.4-33.3,16
		c-20.5,16.6-18.1,48.2,2.9,63.4c29.3,21.1,100.5,14.3,114.9-41.8C1259.4,1535.5,1257.3,1516.8,1258.2,1498.7z"/>
	<path class="st2" d="M1542.5,1667.6c-36.2,0-69.3,0-104.2,0c0-98.4,0-195.8,0-296c-18.3,0-34.9,0-52.2,0c0-26.9,0-51.2,0-77.8
		c16.5,0,33.1,0,50.3,0c1.4-18.4,1.6-34.6,4-50.5c8.3-56.3,41.5-89.3,98.8-96.7c31.2-4,62.4-1.1,95.3,9.3
		c-5.8,25.1-11.6,49.7-17.4,75.1c-23.1-1.2-46.8-11.4-65.3,7.7c-14.2,14.7-9.4,33.8-8.8,54.6c12.9,0,25.2,0,37.5,0
		c11.8,0,23.6,0,36.2,0c0,26.3,0,50.5,0,77.5c-24.1,0-48.1,0-74,0C1542.5,1470.9,1542.5,1568.3,1542.5,1667.6z"/>
	<path class="st1" d="M1529.5,2050.1c0.7-17.2,4.2-34,9.1-46.5c7.3-18.6,23.1-28.2,42.8-28.4c19.5-0.2,35.3,8.5,43.8,26.9
		c14.9,31.9,14.8,64.2,0,96.1c-8.3,17.9-23.2,27.8-43.3,27.8C1540.2,2126.2,1528.1,2087.3,1529.5,2050.1z"/>
	<path class="st1" d="M1244.7,2064.7c-0.6,12.3,0.7,24.5-2.2,35.6c-7.5,28.6-48.5,43.6-74.2,28.4c-16.7-9.9-18.6-32.3-2.9-44
		c6.3-4.7,14.4-7.7,22.1-9.4C1205.8,2071.2,1224.3,2068.4,1244.7,2064.7z"/>
	<path class="st1" d="M1920.8,2020.1c1.9-29.3,23.1-48.4,52.5-48.4c28.1-0.1,47.5,17.9,50.6,48.4
		C1989.9,2020.1,1956,2020.1,1920.8,2020.1z"/>
	<path class="st1" d="M2414.5,1750.4c0-235.4,190-424.6,427.1-423.7c227.7,0.9,421.5,181.7,421.7,423.4
		c0.2,237.1-188.2,423.1-423.3,423.6C2597.6,2174.3,2414.5,1979.3,2414.5,1750.4z M2800,1668.3c25.1,71.3,48.8,138.3,72.1,205.5
		c2.6,7.5,7.2,9.2,14.1,9.2c13.2-0.2,26.4-0.9,39.5,0.2c13.5,1.1,19.8-3.8,24.2-16.8c20.4-60.4,41.9-120.4,63-180.5
		c1.7-5,2.6-10.3,4.4-17.8c-18,0-33.6,0.7-49.1-0.2c-11.7-0.7-16.8,4.4-19.6,15c-7.3,27.2-15.2,54.1-23.1,81.1
		c-4.9,16.8-10,33.5-15.9,53c-2.3-7.4-3.8-11.5-5-15.7c-11.4-39-22.6-78-34.1-117c-2-6.9-2.4-15.8-12.7-16
		C2839.7,1668.1,2821.6,1668.3,2800,1668.3z M2695.4,1718.2c0.4,7.1,1,13.2,1,19.4c0.1,28.2-0.1,56.4,0.1,84.7
		c0.2,18,4,35,18.2,47.7c20.6,18.4,61.3,21.8,86.9,7c-1.2-7.1-2.2-14.5-3.9-21.7c-1.6-7.1-3.9-14-5.8-20.5
		c-29.7,1.4-33.6-2.5-33.6-31.7c0-15.7,0-31.3,0-47c0-12.4,0-24.8,0-37.7c14.6-1.1,26.8-2.1,39-3c0-16.2,0-30.3,0-45.8
		c-13.2-0.9-25.4-1.7-39.5-2.7c0-16.6,0-31.3,0-46.6c-21.2,0-40.2,0-61.5,0c0,16.2,0,31,0,46.4c-10,1.3-17.9,2.2-26.9,3.4
		c0,15.4,0,29.9,0,45.3C2678.2,1716.2,2685.5,1717.1,2695.4,1718.2z"/>
</g>
</svg>
