<?xml version="1.0" encoding="utf-8"?>
<!-- Generator: Adobe Illustrator 27.7.0, SVG Export Plug-In . SVG Version: 6.00 Build 0)  -->
<svg version="1.1" id="Layer_1" xmlns="http://www.w3.org/2000/svg" xmlns:xlink="http://www.w3.org/1999/xlink" x="0px" y="0px"
	 viewBox="0 0 3500 3500" style="enable-background:new 0 0 3500 3500;" xml:space="preserve">
<style type="text/css">
	.st0{fill:#FFFFFF;}
	.st1{fill:#01539D;}
</style>
<rect y="1082.3" class="st0" width="3500" height="1335.4"/>
<path class="st1" d="M0,1082.3v1335.4h3500V1082.3L0,1082.3L0,1082.3z M3371.6,2258.1H2153V2118h-147.9v140.1H128.5V1242H2005v731.9
	h148V1242h1218.5v1016.1l0,0H3371.6z"/>
<polygon class="st1" points="3237.8,1370.4 3089.9,1518.3 2490.2,2117.9 2281.1,2117.9 2880.5,1518.3 2386.6,1518.3 2386.6,1370.4 
	"/>
<polygon class="st1" points="1886.3,1370.4 1886.3,2217.1 1728.6,2059.5 1728.6,1750 1132.9,1750 1132.9,1370.4 1292.6,1370.4 
	1292.6,1588.4 1728.6,1588.4 1728.6,1370.4 "/>
<polygon class="st1" points="890.7,1960.2 424.3,1960.2 424.3,1755.8 1010.3,1755.8 1010.3,1370.4 226.5,1370.4 375.3,1519.1 
	852.8,1519.1 852.8,1593.7 257,1593.7 257,1632.1 257,1714.5 257,2117.9 1048.4,2117.9 "/>
</svg>
