<?xml version="1.0" encoding="utf-8"?>
<!-- Generator: Adobe Illustrator 27.7.0, SVG Export Plug-In . SVG Version: 6.00 Build 0)  -->
<svg version="1.1" id="Layer_1" xmlns="http://www.w3.org/2000/svg" xmlns:xlink="http://www.w3.org/1999/xlink" x="0px" y="0px"
	 viewBox="0 0 3500 3500" style="enable-background:new 0 0 3500 3500;" xml:space="preserve">
<style type="text/css">
	.st0{fill:#FFFFFF;}
	.st1{fill:#BA0000;}
	.st2{fill:#E8E8E8;}
	.st3{fill:#9E9D9E;}
	.st4{fill:#D9D1DB;}
	.st5{fill:#A3A3A3;}
	.st6{fill:#E0E0E0;}
	.st7{fill:#A8ACB2;}
	.st8{fill:#EAEAEA;}
	.st9{fill:#BDC3C9;}
	.st10{fill:#C6C4C6;}
	.st11{fill:#E5E5E5;}
	.st12{fill:#A5A5A5;}
	.st13{fill:#BACECD;}
	.st14{fill:#D9D7DB;}
	.st15{fill:#DBD5E0;}
	.st16{fill:#9AA1A8;}
	.st17{fill:#A1A7AF;}
	.st18{fill:#AFAFAF;}
	.st19{fill:#959AA0;}
	.st20{fill:#D8D8D8;}
	.st21{fill:#ADACAD;}
	.st22{fill:#E8DFEA;}
	.st23{fill:#B2B2B2;}
	.st24{fill:#939393;}
	.st25{fill:#A7A7A8;}
	.st26{fill:#C1C1C1;}
	.st27{fill:#7F7F7F;}
	.st28{fill:#DDDDDD;}
	.st29{fill:url(#SVGID_1_);}
	.st30{fill:#F4F4F4;}
	.st31{fill:#E6E7E8;}
</style>
<g>
	<g id="Objects">
		<g>
			<g>
				<path class="st0" d="M51.4,1839.6c-16-9-28.5-21.4-37.7-37.2C4.6,1786.6,0,1769.2,0,1750s4.4-36.8,13.4-52.6
					c9-15.8,21.3-28.2,37.1-37.2c15.7-9,33.1-13.4,52.4-13.4c17.6,0,34,4,49.3,12.1c15.2,8.1,28.1,19.8,38.6,35l-31.5,22.4
					c-14.3-21.7-33.2-32.6-56.4-32.6c-18.2,0-33.1,6.2-44.6,18.6c-11.7,12.4-17.4,28.4-17.4,47.7s5.9,35.3,17.9,47.7
					c11.8,12.4,26.9,18.6,45.2,18.6c15.8,0,28.5-4,38.4-11.8c9.8-7.8,15.8-17.6,18.3-29.1H100V1741h101c0.4,4.3,0.7,9.8,0.7,16.1
					c0.1,51.4-36.5,96.3-97.8,96.2C84.8,1853.2,67.2,1848.6,51.4,1839.6L51.4,1839.6z"/>
				<path class="st0" d="M237.2,1850.3v-200.6h142.7v34.6H277v46.2h89.2v34.6H277v50.8h105v34.4L237.2,1850.3L237.2,1850.3z"/>
				<path class="st0" d="M419,1850.3v-200.6h42.2l64.7,133.5l64.5-133.5h42.2v200.6h-39.9v-123l-54,109.6h-25.8l-54-109.6v123H419
					L419,1850.3z"/>
			</g>
			<rect x="1060.2" y="1647.8" class="st1" width="9.4" height="201.8"/>
			<g>
				<path class="st1" d="M1280.3,1687h-80.1v40.9h74.9v37.7h-74.9v46.1h82.4v39.2h-125.9v-201.6h123.6V1687L1280.3,1687z"/>
				<path class="st1" d="M1364.4,1735.7v115.2h-42.9v-202.5h13.5l113.2,115.2v-114.3h43.2v202.2h-13L1364.4,1735.7L1364.4,1735.7z"
					/>
				<path class="st1" d="M1519.9,1686.7v-37.4h149.2v37.4h-53.6v164.2h-41.8v-164.2H1519.9L1519.9,1686.7z"/>
				<path class="st1" d="M1821.2,1687h-80.1v40.9h74.9v37.7h-74.9v46.1h82.4v39.2h-125.9v-201.6h123.6L1821.2,1687L1821.2,1687z"/>
				<path class="st1" d="M2029.5,1844.6v6.1h-46.1l-41.5-66.5h-36v66.5h-43.2V1649c28.8,0,57.3-0.3,86.1,0
					c46.1,0,71.2,33.4,71.2,69.1c0,25.6-13,48.1-36,59.3L2029.5,1844.6L2029.5,1844.6z M1948.6,1748.7c18.2,0,30-14.1,29.7-31.4
					c0-17-11.2-30.5-29.7-30.5h-43.2v61.9H1948.6z"/>
				<path class="st1" d="M2040.4,1686.7v-37.4h149.2v37.4h-53.6v164.2h-41.8v-164.2H2040.4L2040.4,1686.7z"/>
				<path class="st1" d="M2238.6,1817.5l-15.6,33.4h-44.9v-5.8l92.8-197.6h19.9l92.2,197.6v5.8h-44.6l-15.8-33.4H2238.6z
					 M2252.8,1781.2h55.9l-27.9-66.5L2252.8,1781.2z"/>
				<path class="st1" d="M2494.7,1816.7v34.3h-100.2v-34.3h28.5v-133.9h-26.2v-33.4h95.6v33.4h-26.2v133.9L2494.7,1816.7
					L2494.7,1816.7z"/>
				<path class="st1" d="M2573.9,1735.7v115.2H2531v-202.5h13.5l113.2,115.2v-114.3h43.2v202.2h-13L2573.9,1735.7L2573.9,1735.7z"/>
				<path class="st1" d="M2925.3,1648.7h15.6v202.2h-43.2v-109.2l-50.7,63.4h-5.5l-50.7-63.4v109.2h-43.2v-202.2h15.8l80.9,95.9
					L2925.3,1648.7L2925.3,1648.7z"/>
				<path class="st1" d="M3111.1,1687H3031v40.9h74.9v37.7H3031v46.1h82.4v39.2h-125.9v-201.6h123.6L3111.1,1687L3111.1,1687z"/>
				<path class="st1" d="M3195.2,1735.7v115.2h-42.9v-202.5h13.5l113.2,115.2v-114.3h43.2v202.2h-13L3195.2,1735.7L3195.2,1735.7z"
					/>
				<path class="st1" d="M3350.8,1686.7v-37.4H3500v37.4h-53.6v164.2h-41.8v-164.2H3350.8L3350.8,1686.7z"/>
			</g>
			<g>
				<g>
					<g>
						<polygon class="st2" points="845.9,1699.3 779.6,1699.3 790.1,1676.8 						"/>
						<polygon class="st3" points="790.1,1676.8 768.8,1652 714.7,1681.1 741.2,1699.3 						"/>
						<polygon class="st4" points="779.6,1699.3 790.1,1676.8 741.2,1699.3 						"/>
						<polygon class="st5" points="741.2,1699.3 702.3,1699.3 714.7,1681.1 						"/>
						<polygon class="st6" points="702.3,1699.3 671.4,1699.3 714.7,1681.1 						"/>
						<path class="st7" d="M671.4,1699.3c0,0,55.4-47.4,56.2-47.3s-13,29.1-13,29.1L671.4,1699.3z"/>
						<polygon class="st8" points="727.7,1652 768.8,1652 714.7,1681.1 						"/>
						<polygon class="st9" points="768.8,1652 790.1,1676.8 845.9,1652 						"/>
						<polygon class="st10" points="845.9,1699.3 912.3,1699.3 901.8,1676.8 						"/>
						<polygon class="st11" points="845.9,1652 790.1,1676.8 845.9,1699.3 901.8,1676.8 						"/>
						<polygon class="st0" points="901.8,1676.8 923.1,1652 977.2,1681.1 950.7,1699.3 						"/>
						<polygon class="st12" points="912.3,1699.3 901.8,1676.8 950.7,1699.3 						"/>
						<polygon class="st13" points="950.7,1699.3 989.5,1699.3 977.2,1681.1 						"/>
						<polygon class="st14" points="989.5,1699.3 1020.5,1699.3 977.2,1681.1 						"/>
						<path class="st15" d="M1020.5,1699.3c0,0-55.4-47.4-56.2-47.3s13,29.1,13,29.1L1020.5,1699.3z"/>
						<polygon class="st0" points="964.2,1652 923.1,1652 977.2,1681.1 						"/>
						<polygon class="st16" points="923.1,1652 901.8,1676.8 845.9,1652 						"/>
					</g>
					<g>
						<polygon class="st17" points="779.6,1699.3 821,1801.3 741.2,1699.3 						"/>
						<polygon class="st0" points="741.2,1699.3 796.9,1801.3 845.9,1853.2 821,1801.3 						"/>
						<polygon class="st8" points="741.2,1699.3 702.3,1699.3 796.9,1801.3 						"/>
						<polygon class="st18" points="845.9,1853.2 796.9,1801.3 671.4,1699.3 						"/>
						<polygon class="st19" points="702.3,1699.3 671.4,1699.3 796.9,1801.3 						"/>
						<polygon class="st20" points="845.9,1699.3 821,1801.3 845.9,1853.2 870.9,1801.3 						"/>
						<polygon class="st11" points="912.3,1699.3 870.9,1801.3 950.7,1699.3 						"/>
						<polygon class="st21" points="950.7,1699.3 895,1801.3 845.9,1853.2 870.9,1801.3 						"/>
						<polygon class="st22" points="950.7,1699.3 989.5,1699.3 895,1801.3 						"/>
						<polygon class="st23" points="845.9,1853.2 895,1801.3 1020.5,1699.3 						"/>
						<polygon class="st24" points="989.5,1699.3 1020.5,1699.3 895,1801.3 						"/>
						<polygon class="st25" points="912.3,1699.3 870.9,1699.3 870.9,1801.3 						"/>
						<polygon class="st2" points="845.9,1699.3 779.6,1699.3 821,1801.3 						"/>
					</g>
					<g>
						<polygon class="st0" points="702.3,1699.3 779.6,1699.3 768.8,1652 						"/>
						<polygon class="st26" points="779.6,1699.3 845.9,1699.3 912.3,1699.3 845.9,1652 						"/>
						<polygon class="st27" points="964.2,1652 989.5,1699.3 1020.5,1699.3 						"/>
						<polygon class="st26" points="912.3,1699.3 989.5,1699.3 923.1,1652 						"/>
					</g>
					<path class="st28" d="M989.5,1694H677.7c-3.8,3.3-6.3,5.4-6.3,5.4h349c0,0-2.4-2.1-6.3-5.4H989.5L989.5,1694z"/>
					
						<linearGradient id="SVGID_1_" gradientUnits="userSpaceOnUse" x1="877.4916" y1="-1754.9476" x2="906.8616" y2="-1775.4576" gradientTransform="matrix(1 0 0 -1 0 0)">
						<stop  offset="0" style="stop-color:#D6D6D6"/>
						<stop  offset="1" style="stop-color:#191919"/>
					</linearGradient>
					<polygon class="st29" points="845.9,1853.2 919.3,1699.3 970.1,1699.3 					"/>
				</g>
				<polygon class="st30" points="870.9,1699.3 845.9,1699.3 870.9,1801.3 				"/>
				<polygon class="st30" points="845.9,1853.2 845.9,1699.3 821,1699.3 				"/>
				<polygon class="st31" points="741.2,1694 768.8,1652 778.4,1694 				"/>
				<polygon class="st31" points="964.2,1652 923.1,1652 985.9,1694 				"/>
			</g>
		</g>
	</g>
</g>
</svg>
