<?xml version="1.0" encoding="utf-8"?>
<!-- Generator: Adobe Illustrator 27.7.0, SVG Export Plug-In . SVG Version: 6.00 Build 0)  -->
<svg version="1.1" id="Layer_1" xmlns="http://www.w3.org/2000/svg" xmlns:xlink="http://www.w3.org/1999/xlink" x="0px" y="0px"
	 viewBox="0 0 3500 3500" style="enable-background:new 0 0 3500 3500;" xml:space="preserve">
<style type="text/css">
	.st0{fill:#1133BB;}
</style>
<path class="st0" d="M521,1018.6H0l521,1462.8h521l100.2-280.5c-251-328.2-188.5-797.7,139.6-1048.7
	c83.3-63.7,179.1-109.2,281.2-133.5h-521l-260.5,734.7 M3500,2481.4h-527.7l-260.5-734.7l-260.5,734.7H1937
	c401.9-95.8,650.1-499.2,554.3-901.1c-24.3-102-69.8-197.8-133.5-281.2l100.2-280.5h521 M1743.3,1406
	c-188.1,3.7-337.6,159.2-333.9,347.3s159.2,337.6,347.3,333.9c188.1-3.7,337.6-159.2,333.9-347.3c-3.6-182.9-151-330.3-333.9-333.9"
	/>
</svg>
