<?xml version="1.0" encoding="utf-8"?>
<!-- Generator: Adobe Illustrator 27.7.0, SVG Export Plug-In . SVG Version: 6.00 Build 0)  -->
<svg version="1.1" id="Layer_1" xmlns="http://www.w3.org/2000/svg" xmlns:xlink="http://www.w3.org/1999/xlink" x="0px" y="0px"
	 viewBox="0 0 3500 3500" style="enable-background:new 0 0 3500 3500;" xml:space="preserve">
<style type="text/css">
	.st0{fill:#DD3D23;}
</style>
<path class="st0" d="M3496.9,2145.2v50.9c-8.7,56.5-28,95.4-57.9,116.8c-491.4,351.8-983,703.2-1474.7,1054.4
	c-71.9,51.4-127.3,81.3-166.1,89.9c-69.6,15.5-135.4,1.3-197.3-42.8c-511.7-364.4-1023.4-729-1535.1-1093.8
	c-36.1-25.8-57-66.2-62.7-121.3V2145c8.7-55.8,24.5-91.8,47.5-108C332.8,1835.8,615,1634.6,897,1433.3
	c86.1-61.5,143.3-113,171.5-154.4c46.1-67.7,69.3-148.2,69.7-241.5c1.3-272,2.9-552.3,4.7-841c0.5-93.7,123.1-158.2,197.3-159.3
	c65.5-0.8,144.1,6.3,235.8,21.5c155.2,25.7,308.8,57.6,461,95.7c100.1,25.1,189.4,54.1,267.9,87.1c71.8,30.1,135.1,94.2,134.6,176.5
	c-1.9,276.6-2.3,542.9-1.1,798.9c0.4,61.1-28.8,104.8-97.3,94.4c-6-0.9-11.4-4.4-14.7-9.7c-15.5-25.4-25.9-53.6-31-84.6
	c-18-108.5-43.8-201.1-77.4-277.9c-85.1-194.8-385.6-318-576.2-392.6c-55-21.7-103.4,2.9-105,64.9c-3.3,116.8-3.3,244.6,0,383.2
	c1.2,54.2,1.1,108.3-0.4,162.1c-4.1,140.8,19.2,343.5-115.2,431.1c-263.9,172.2-528.4,344.4-793.5,516.4
	c-53.9,34.9-58.6,96.9-3.4,133.1c323.2,211.9,646.6,423.6,970.2,635c57,37.1,100.7,57.9,131.2,62.2c76.9,11.1,132.8-35.3,193-74.4
	c276.6-179.5,553-359.5,829.2-540c16.8-11,26-29.1,27.4-54.3c3-53.9-36.4-82.8-85.6-82.8c-49.7-0.1-100.5,0.4-152.3,1.4
	c-22.1,0.4-41.9-3.8-59.3-12.4c-62.5-30.8-66.8-121.5-6.6-156.8c17.2-10,42.6-15.1,76.3-15.1c267.3,0.5,537.7,0.3,811.1-0.5
	C3438.2,1999.4,3484.3,2047.9,3496.9,2145.2z"/>
<path class="st0" d="M2424.7,1597.1c-15,38.5-29.6,84.4-55,117.9c-3.5,4.7-8.4,8-14,9.7c-27.4,8.4-55.7,11-84.9,8.1
	c-16.5-1.6-17.5-6.4-3-14.5l84.9-46.8c10.9-6,15.7-19.2,11.3-30.8c-19-48.9-64-78.7-108-103c-5.9-3.2-8.4-8.2-7.7-14.9l4.5-43.5
	c0.7-6,3.8-7.8,9.3-5.6l66.5,28c7.9,3.3,8.5,7.8,2,13.3l-6.1,5c-2.1,1.7-2.3,4.8-0.6,6.9c0.1,0.1,0.2,0.3,0.4,0.4
	c26.6,25.4,44.6,56.1,53.9,91.9c3.8,14.8,8.9,15.3,15.2,1.4c22.3-48,35.8-101.1,40.5-159.1c0.6-6.7,4.1-8.9,10.4-6.6l5.2,2
	c1.2,0.5,1.8,1.3,1.8,2.5l7.7,171.8c1,21.7,12.4,32.6,34.2,32.6l819.7-0.2c7.3,0,13.2-6,13.2-13.3c0-2.5-0.7-5-2.1-7.1
	c-7.3-11.2-15.2-20.2-23.8-26.9c-6.7-5.1-7.7-11.3-3-18.5l19.5-30.3c6.4-9.8,12.8-9.7,19,0.2c30.6,48.9,30.7,94.5,0.4,137.1
	c-10.2,14.1-25.2,21.2-45.2,21.3c-270.1,0.7-543.1,1-819,0.7c-13.6,0-25.6-8.9-29.4-21.9c-9.3-31.9-12.8-67.4-10.4-106.4
	C2433,1582.7,2430.6,1582.3,2424.7,1597.1z"/>
<path class="st0" d="M3386.2,1499.6l56.6-39.6c1.2-0.9,2.9-0.7,3.8,0.5c0.4,0.5,0.6,1.2,0.5,1.8c-6,87.2-13,172.1-21.1,254.8
	c-0.4,4.3-2.5,7.2-6.4,8.6c-4.3,1.5-9-0.6-10.5-4.8c-0.2-0.6-0.4-1.2-0.4-1.8l-25.4-212.5C3382.8,1503.9,3384,1501.2,3386.2,1499.6z
	"/>
<path class="st0" d="M2142.4,1603.5c-2.4-25.3,9-45.5,34.2-60.6c5.9-3.5,12.1-4.2,18.6-2.2c27.6,8.5,52,23.8,73.3,45.9
	c5.3,5.6,7.5,12.2,6.6,19.7c-3,23.3-11.9,44.6-26.7,64c-4.7,6-10.8,8.7-18.3,8.2l-84.9-6.1c-9.3-0.7-14,3.6-14,13.1
	c0.2,35.1,7,127.2-10.6,157.8c-11.1,19.4-17.5,17.9-19.2-4.5c-3.8-53.6-6.2-110.7-7-171.1c-0.4-29.7,13.2-47.8,40.7-54.3
	C2140.6,1612.4,2143,1609,2142.4,1603.5z M2233.6,1610.5c-17.6-9.2-35.7-15.6-54.5-19.2c-5-1-9.9,2.1-10.9,7l-1.3,5.6
	c-1,4.3,1.5,8.7,5.7,10c19.2,5.9,38.8,8.3,58.6,7.3C2245,1620.5,2245.8,1617,2233.6,1610.5z"/>
<circle class="st0" cx="1750" cy="2172.2" r="424.1"/>
<path class="st0" d="M3342.3,1784.3l15.1-15.4c3-3.1,8-3.2,11.1-0.1c0,0,0.1,0.1,0.1,0.1l18.1,18.3c3.1,3.1,3.1,8,0,11.1l-18.1,18.6
	c-3,3.2-8,3.3-11.1,0.3c-0.1-0.1-0.2-0.2-0.3-0.3l-14.7-15.4c-3-3.2-8-3.3-11.1-0.3c-0.1,0.1-0.2,0.2-0.3,0.3l-14.9,15.4
	c-3,3.2-8,3.3-11.1,0.3c0,0-0.1-0.1-0.1-0.1l-18.3-18.6c-3.1-3.1-3.1-8,0-11.1l18.3-18.5c3-3.1,8-3.2,11.1-0.1c0,0,0.1,0.1,0.1,0.1
	l14.7,15.4c3,3.2,8,3.3,11.1,0.3C3342.1,1784.5,3342.2,1784.4,3342.3,1784.3z"/>
</svg>
