<?xml version="1.0" encoding="utf-8"?>
<!-- Generator: Adobe Illustrator 27.7.0, SVG Export Plug-In . SVG Version: 6.00 Build 0)  -->
<svg version="1.1" id="Layer_1" xmlns="http://www.w3.org/2000/svg" xmlns:xlink="http://www.w3.org/1999/xlink" x="0px" y="0px"
	 viewBox="0 0 3500 3500" style="enable-background:new 0 0 3500 3500;" xml:space="preserve">
<style type="text/css">
	.st0{fill:#22B14C;}
</style>
<path class="st0" d="M1761,242.1c249.9,123,498.7,245.6,746.6,367.6c0.8,0.4,1.1,1.4,0.7,2.2c-0.2,0.3-0.4,0.6-0.7,0.7
	c-202,97.7-403.4,198.2-604.1,301.3c-183.7,94.4-362.3,190.8-541,297.9c-128.5,76.9-242.5,154.8-342.2,233.7
	c-59.5,47.1-113.6,97.5-162.3,151.1c-84.1,92.6-165.1,228.1-145.6,356.9c51.3,339.7,427.4,509.1,724.5,577.5c3,0.7,3.1,1.7,0.4,3.1
	l-807.5,403.8c-1,0.5-2.2,0.4-3.1-0.2C273.9,2712.4,16.6,2356.1,13.9,1928.2C12.8,1754,59,1575.4,137,1426.7
	c67.3-128.3,156.7-247.3,268-357.1c106.8-105.3,212.8-196.9,318.3-274.8c313.4-231.7,664-414.9,1029.1-550.4
	C1754.7,241.1,1757.6,240.4,1761,242.1z"/>
<path class="st0" d="M2587.7,3090.6c-190.5,82.1-398.7,133.9-624.8,155.2c-375,35.4-759.9-22-1102.9-180
	c-15.9-7.3-31.5-14.9-46.9-22.7c-2.3-1.2-2.3-2.4,0-3.6c314.8-156.8,630-313.8,945.5-471c10.6-5.3,21.6-8.7,33.1-10.4
	c198.3-29.2,403-77.2,582.9-154.5c148.6-63.9,307.2-162.2,378.7-311.7c83.1-174.1,12.2-354.5-99.4-496.2
	c-111.1-141-260.9-256.7-417.8-353.5c-93.2-57.5-188.7-109.3-286.6-155.4c-0.7-0.3-1-1.2-0.7-1.9c0.1-0.3,0.4-0.6,0.7-0.7l727.9-362
	c1.9-0.9,4.2-0.9,6,0.2c159.2,89.7,298.3,196.4,417.4,320c250.6,260.1,408.1,605.3,376.8,967.6
	C3433.1,2523.8,3038,2896.3,2587.7,3090.6z"/>
<circle class="st0" cx="1750.9" cy="1870.9" r="348.5"/>
</svg>
