<?xml version="1.0" encoding="UTF-8"?>
<svg id="Layer_01" data-name="Layer 01" xmlns="http://www.w3.org/2000/svg" version="1.1" viewBox="0 0 3500 3500">
  <defs>
    <style>
      .cls-1 {
        fill: #12a3aa;
      }

      .cls-1, .cls-2, .cls-3 {
        stroke-width: 0px;
      }

      .cls-2 {
        fill: #c10000;
      }

      .cls-3 {
        fill: #fff;
      }
    </style>
  </defs>
  <path class="cls-1" d="M328.63,1321v535.11c70.96,0,139.01-28.19,189.19-78.36,50.18-50.18,78.37-118.23,78.37-189.19s-28.19-139.01-78.36-189.19c-50.18-50.18-118.23-78.37-189.19-78.37Z"/>
  <path class="cls-1" d="M267.55,1621.67v535.11c-70.96,0-139.01-28.19-189.19-78.36C28.19,2028.24,0,1960.19,0,1889.23s28.19-139.01,78.36-189.19c50.18-50.18,118.23-78.37,189.19-78.37Z"/>
  <path class="cls-2" d="M238.99,1544.85c22.67-27.52,33.43-62.77,30-98.26-3.43-35.49-20.75-68.03-48.27-90.69-27.52-22.67-62.77-33.43-98.26-30-35.49,3.43-68.03,20.75-90.69,48.27-22.67,27.52-33.43,62.77-30,98.26,3.43,35.49,20.75,68.03,48.27,90.69,27.52,22.67,62.77,33.43,98.26,30,35.49-3.43,68.03-20.75,90.69-48.27Z"/>
  <path class="cls-3" d="M1779.32,1970.86c3.15-4.11,2.11-11.93,2.46-17.33,1.32-73-2.96-146.4,2.16-219.29,2.51-16.77,16.27-32.47,31.77-38.28,18.52-6.03,40.35-4.18,60.33-4.24,10.02-.08,15.34,6.48,14.91,16.32.24,29.08.05,58.07.09,87.19-.48,121.33.68,243.13-.64,364.33-1.74,16.42-21.88,11-33.38,12.19-19.92.07-40.76.98-58.25-7.8-6.42-3.19-12.11-8.16-17.09-13.79-31.6-33.62-57.04-71.93-87.27-106.7-30.63-36.69-63.32-72.03-91.46-110.69-18.79-25.82-42.54-47.42-62.49-72.4-15.02-18.8-29.29-38.18-44.62-56.73-14.78-17.89-32.18-33.72-43.9-53.98-4.73-10.46-2.69-23.24-2.98-35.11.11-6.11-.65-13.29,3.09-18.41,3.74-4.61,10.64-4.38,16.21-4.27,18.35.76,36.74,1.31,54.96,2.57,8.68.43,16.72,3.85,22.86,10.01,43.33,39.98,75.96,88.85,114.13,133.73,31.34,36.72,60.78,75.23,90.6,112.92,6.08,7.32,13.39,14.34,21.31,19.35,2.75,1.58,5.16,2.05,6.73.82l.45-.41Z"/>
  <path class="cls-3" d="M924.86,1805.95c-1.63,5.52-9.67,9.45-13.77,13.69-21.94,19.36-34.44,47.49-41.59,75.95-4.54,22.76-1.67,45.76-.44,68.34.45,18.08,9.77,33.97,18.12,49.56,16.44,31.09,44.38,48.35,76.36,61.1,30.15,12.89,62.14,9.73,93.25,6.52,33.75-3.26,62.93-37.99,98.84-28.78,18.68,4.08,33.28,17,47.26,29.21,3.99,3.58,8.37,8.31,6.8,14-16.3,28.47-47.82,46.63-77.14,59.73-81.67,35.01-185.41,32.21-262.16-14.65-27.88-17.02-52.41-39.47-71.91-65.67-9.69-13.02-19.58-27.56-25.57-42.74-6.79-17.2-10.14-35.87-14.77-53.73-4.82-18.6-3.59-38.38-3.71-57.38-.16-26.26,4.76-55.95,14.95-80.29,8.58-20.48,23.91-37.04,47.14-38.24,32.6-1.69,65.65-.83,98.3-.75,3.33.32,9.1-.21,10.06,3.61l-.02.53Z"/>
  <path class="cls-3" d="M2962.49,2168.68c-.84-1.88.36-4.97,1.42-7.11,4.99-10.23,9.57-19.69,14.1-28.63,17.66-36.4,42.9-69.91,69.67-100.11,30.05-33.9,71.61-55.73,115.45-65.87,27.5-8.62,56.92-5.54,85.43-6.26,35.02-.89,70.33,7.8,101.77,23.02,34.01,16.47,59.1,40.84,82.64,69.92,26.22,32.39,48.48,66.26,65.44,104.97,6.06,12.79-6.53,12.74-15.86,12.81-20.3.19-40.36,1.15-60.81-1.07-23.83-2.3-43.97-17-56.18-37.39-27.68-41.88-71.7-63.76-121.15-66.26-50.92-5.73-104.64,13.12-136.9,53.59-8.63,10.86-17.23,21.55-26.48,31.93-9.66,11.4-23.75,16.98-38.22,18.14-22.9,1.97-45.83.97-71.93.79-2.71.01-6.75-.16-8.09-1.96l-.3-.5Z"/>
  <path class="cls-3" d="M2131.76,1691.61c52.76.12,105.49-.03,158.47.07,8.76.21,20.65-.85,20.57,11.61.4,2.62.3,7.9.31,9.84-.91,11.08,1.57,22.48-2.5,33.03-7.59,18.1-28.28,33.87-48.88,32.22-55.01-.72-110.31-.17-165.36-.08-10.93,1.05-29.76-4.09-32.69,10.61-2.9,31.1-2.83,52.35-36.17,66.55-20.13,8.51-42.28,5.89-63.64,5.48-10.1.16-14.22-6.42-13.63-16.1-.09-42.05-.16-84.53-.14-126.86.17-13.34-1.48-26.81,16.43-26.19,55.47-.62,110.94-.16,166.32-.19h.93Z"/>
  <path class="cls-3" d="M1454.36,1795.09c1.41.3,3.03,1.61,4.57,3.3,28.65,31.34,52.85,66.42,81.18,97.96,11.1,12.36,16.23,28.32,15.18,44.88-.56,57.12-.27,114.13-.3,171.26,1.88,23.59-11.53,46.01-33.89,54.2-18.61,7.81-37.45,5.18-56.19,5.65-7.66.66-15.05-2.34-15.31-11.3-1.13-116.32-.18-232.9-.52-349.29.16-5-.62-15.96,4.68-16.75l.59.08Z"/>
  <path class="cls-3" d="M2392.66,1778.9c29.92,44.85,58.37,92.86,86.61,139.39,5.68,9.11,8.68,19.19,9.33,29.99,1.86,53.59.69,107.12.67,160.79,3.1,52.44-45.93,68.48-89.87,63.21-14.07-1.01-10.65-18.12-11.13-28.29-.15-116.57-.32-233.32-.4-349.94.04-4.55-.34-14.94,4.29-15.28l.51.13Z"/>
  <path class="cls-3" d="M811.32,1774.95c-1.68-3.38,4.61-9.47,7.53-12.69,21.63-22.75,44.82-44.22,74.67-55.32,35.52-13.21,68.62-20.72,106.73-22,38.3-1.28,77.61.62,114.07,13.4,35.53,12.46,64.29,31.89,90.78,58.62,4.9,4.74,9.92,11.77,4.52,17.65-21.77,21.08-53.08,46.16-85.7,33.62-32.7-15.25-65.56-32.46-102.64-30.33-62.71.69-125.54.25-188.11.16-6.97-.69-16.03,1.43-21.54-2.64l-.31-.48Z"/>
  <path class="cls-3" d="M2197.9,2169.07c-4.07,3.41-12.51,1.85-18.01,2.3-69.2.04-138.32.05-207.65.02-9.37-.57-23.43,2.04-24.22-10.84-1.55-26.79-.23-53.41-.65-80.17-1.95-28.7,5.88-64.9,34.32-77.89,21.45-8.83,46.82-9.59,70.09-6.73,9.71,1.51,8.72,12.77,9.04,20.32.37,18.43-.62,36.53.37,54.96.05,9.53,6.74,11.68,15.16,11.71,30.33.62,60.09-.1,90.48.28,5.11.3,7.6.23,11.14,2.26,4.07,2.67,3.46,10.84,3.55,14.8-.17,10.75-1.3,22.02,1.14,32.51,2.08,11.11,8.32,21.1,14.5,30.52,1.27,2.21,1.79,4.13,1.05,5.46l-.32.48Z"/>
  <path class="cls-3" d="M2079.77,1968.64c-34.15.81-68.83.14-103.1.31-8.07-.55-18.49,1.54-25.22-3.42-2.69-2.79-2.9-7.57-3.08-11.46-.82-27.91,11.9-48.81,35.34-63.15,7.25-4.63,15.74-5.66,24.15-5.54,74.5.04,149.02-.7,223.56.15,15.4-.4,11.15,17.67,12.45,28.13.55,19.74-9.55,34.21-25.44,45.21-14.2,11.52-32.8,8.93-50.08,9.28-29.18.43-58.61-.59-87.67.44l-.91.05Z"/>
  <path class="cls-3" d="M2928.81,1704.95c-.46-7.44-2.73-11.7-9.88-12.63-9.75-1.23-20.07-.68-29.92-.85-28.12-.99-55.22,2.42-69.48,29.27-10.17,19.15-23.51,37.12-34.38,55.97-10.64,18.45-20.48,37.13-31.2,55.55-26,44.66-54.73,87.32-79.72,132.6-4.66,7.79-13.8,24.65-22.86,12.17,0,0-82.63-135.6-82.63-135.6-15.84-28.54-33.04-56.3-50.44-83.92-8.83-14.02-17.71-28.02-26.53-42.05-6.66-10.59-15.87-19.1-28.92-20.46-21.52-2.24-43.41-3.75-65.09-2.79-8.48.34-9.79,8.79-9.59,15.61,2.46,33.85,29.46,58.53,46.46,85.83,34.26,60.84,69.96,121.04,108.68,179.19,22.94,38.63,42.82,79.48,69.51,115.88,9.63,8.98,14.06,25.66,27.55,29.83,11.36,2.24,27.09,2.89,38.57-1.72,4.05-2.25,6.91-6.34,9.28-10.35,12.76-22.62,28.65-43.34,42.65-65.26,24.84-46.49,52.1-91.61,79.2-136.82,1.73-2.91,4.16-6.99,6.87-8.2l.59-.23c6.02-1.08,6.65,9.51,6.68,14.37.6,58.77.66,118.06.95,176.94-4.09,63.11,26.27,88.09,88.05,83.91,10.58.57,15.43-3.75,15.56-14.62.3-150.37.77-301.42.02-451.64Z"/>
  <path class="cls-3" d="M3368.86,1874.59c-1.85-4.14-3.59-8.35-5.2-12.61l-18.41-44.63c-14.91-34.32-30.81-68.38-45.09-103.06-6.21-17.95-16.03-25.81-35.17-24.39-21.22.21-41.96.09-63.34.04-11.97.38-25.77-1.74-31.73,11.56-5.27,11.75-10.45,23.6-15.55,35.48l-14.91,35.34c-10.44,25.1-20.62,50.25-30.69,75.12-1.54,4.42-3.73,8.42-6.19,12.29l-59.85,141.83c1.51-1.03,3.4-2.63,5.73-4.92,25.35-23.78,57.52-35.87,89.54-47.57,54.62-13.92,65.75-92.19,87.15-136.8,3.74-8.91,8.25-9.61,11.83-.26,13.07,31.47,24.57,64.29,38.47,95.91,9.76,22.4,31.12,35.92,53.54,43.47,29.06,9.77,57.31,20.63,80.25,41.2,3.47,2.6,7.91,7.88,12.15,9.33l-52.52-127.31Z"/>
  <circle class="cls-2" cx="1330.32" cy="1748.11" r="63.5"/>
  <circle class="cls-2" cx="2262.05" cy="2110.13" r="63.5"/>
  <path class="cls-3" d="M1384.88,1820.75c-15.21,11.44-34.06,18.3-54.56,18.3s-39.89-7.05-55.21-18.79c-2.31,3.24-1.05,9.52-1.51,14.38-.03,70.43.03,141.51.05,212.06.05,36.42-.03,72.92.1,109.28.04,6.41.95,14.27,8.17,16.13,31.68,2.86,71.04,4.76,92.26-23.82,6.88-7.11,12.83-14.46,12.7-24.84.13-98.06.35-196.26-.08-294.33-.26-3.88-.93-6.57-1.92-8.37Z"/>
</svg>