<?xml version="1.0" encoding="utf-8"?>
<!-- Generator: Adobe Illustrator 27.7.0, SVG Export Plug-In . SVG Version: 6.00 Build 0)  -->
<svg version="1.1" id="Layer_2_00000046307036690218320250000009380104086999460285_"
	 xmlns="http://www.w3.org/2000/svg" xmlns:xlink="http://www.w3.org/1999/xlink" x="0px" y="0px" viewBox="0 0 3500 3500"
	 style="enable-background:new 0 0 3500 3500;" xml:space="preserve">
<style type="text/css">
	.st0{fill:#9B0002;}
</style>
<g id="Layer_1-2">
	<g>
		<g>
			<path class="st0" d="M1465.9,1645.3c0,296.5-240.4,537-537,537H609.3l-212.7,209.5v-437.9h548.2c170.5,0,308.6-138.1,308.6-308.6
				c0-85.2-34.5-162.4-90.3-218.2c-55.8-55.9-133-90.5-218.2-90.5H0v-228.3h928.9c148.3,0,282.6,60.2,379.7,157.2
				C1405.9,1362.8,1465.9,1496.9,1465.9,1645.3z"/>
			<path class="st0" d="M984,1645.3c0,65-52.7,117.7-117.9,117.7H190.7v628.8H0v-864.4h866.1c32.5,0,62.1,13.1,83.3,34.5
				C970.9,1583.2,984,1612.8,984,1645.3z"/>
		</g>
		<g>
			<g>
				<path class="st0" d="M2000.4,1708h-69.2v-280.6h-1.5l-95.6,280.6h-58.7l-96-280.6h-1V1708h-69.2v-374.1h96l99.7,283.1h1
					l98.6-283.1h96V1708H2000.4z"/>
				<path class="st0" d="M2310.9,1596.9c0,38.5-15.4,68-46.5,89c-21.9,14.9-54.1,22.3-96.6,22.3h-100.1v-374.3h80.9
					c15.9,0,28.8,0.4,39.2,1.3c10.3,0.9,22,3.5,35.1,8.2c13.1,4.5,24.5,11.1,33.9,19.5c9.5,8.4,17,18.9,23,31.6
					c6,12.7,8.9,25.3,8.9,38.2c0,31.6-14,55.5-42,71.2c42.8,15.4,64.2,46.5,64.2,93.1L2310.9,1596.9z M2219.4,1439.1
					c0-27-17.9-40.5-53.6-40.5h-28.8v80.9h26.2c37.4,0,56.1-13.4,56.1-40.5L2219.4,1439.1z M2241.7,1594.3c0-17.5-6.7-30.3-20-38.2
					c-13.4-7.9-29.4-11.9-48.2-11.9h-36.4v99.1h34.8c46.5,0,69.8-16.3,69.8-49.1V1594.3z"/>
				<path class="st0" d="M2712.8,1440.6H2634c-28.3-33.1-61.6-49.5-100.1-49.5c-33.7,0-62.5,13.1-86.2,39.2s-35.7,56.2-35.7,90.2
					s12.2,64.7,36.7,91.1c24.5,26.4,53.6,39.5,87.7,39.5s65.4-15.7,94.1-47.1h80.4c-14.1,33.7-37.3,60.8-69.5,81.1
					c-32.2,20.4-66.7,30.6-103.4,30.6c-53.6,0-99.5-19.2-137.8-57.8c-38.3-38.6-57.4-84.6-57.4-138.3s19.1-98.3,57.1-136.2
					c38-37.9,83.6-56.8,136.5-56.8c38.5,0,73.6,10.3,105.5,30.9c31.9,20.5,55.5,48.4,71.1,83.5L2712.8,1440.6z"/>
			</g>
			<g>
				<path class="st0" d="M1864.7,1815.7c-29.7-20.4-68.9-30.6-117.4-30.6h-132.9V2192h67.2v-160.5h65.7c48.5,0,87.7-10.2,117.4-30.4
					c29.9-20.4,44.7-51.3,44.7-92.7C1909.4,1867,1894.5,1836,1864.7,1815.7z M1815.6,1960.2c-17.8,11.2-40.5,16.8-68.3,16.8h-65.7
					v-137.4h65.7c27.8,0,50.6,5.5,68.3,16.8c17.9,11.2,26.8,28.6,26.8,52C1842.4,1931.8,1833.5,1949.2,1815.6,1960.2z"/>
				<path class="st0" d="M2209.4,1839.6v-54.5h-247.8V2192h247.8v-54.5h-180.7v-123.7h180.7v-54.3h-180.7v-119.9
					C2028.7,1839.6,2209.4,1839.6,2209.4,1839.6z"/>
				<path class="st0" d="M2469.3,2040.2l119,151.8h-83.9l-137.2-196.8h30.4c16.5,0,31.6-1.2,45.3-3.6c13.7-2.3,27-6.3,39.8-11.8
					c12.8-5.4,23-13.7,30.4-24.8c7.4-10.9,11.1-24.2,11.1-39.5c0-24.6-9.8-43.4-29.4-56.4c-19.7-13-43.9-19.5-72.4-19.5h-70.8V2192
					h-67v-406.9h142.2c55.5,0,96.3,11.4,122.4,34.1c28.1,23.9,42.2,55.9,42.2,96.3c0,59.7-29,98.8-87,117.1
					C2488.2,2037.7,2483,2040.2,2469.3,2040.2L2469.3,2040.2z"/>
				<path class="st0" d="M2895.7,2022.1c-7.6-15.4-17.2-27.4-29-35.7c-11.8-8.4-24.9-15.7-39.3-21.9c-14.6-6-29-11.1-43.6-15.3
					c-14.4-4.2-27.5-8.7-39.3-13.5c-11.8-4.7-21.4-11.1-29-18.9c-7.4-7.9-11.1-17.6-11.1-29.4c0-15,6.1-28,18.2-39
					c12.2-10.9,26.7-16.5,43.3-16.5c19.8,0,35.5,5.4,47.2,16.2c11.5,10.9,17.3,25.1,17.3,42.7h67c0-34.1-12.2-61.5-36.9-82.2
					c-24.6-20.7-56.2-31.2-94.7-31.2c-35.7,0-66,10.6-91.1,31.9s-37.6,47.5-37.6,78.7c0,12.8,1.5,24.3,4.1,34.7
					c2.6,10.2,7.3,19.4,14,27.2c6.6,7.9,12.8,14.3,18.6,19.5c5.8,5.1,14.9,10.3,27.2,15.9c12.5,5.5,22.3,9.6,29.6,12.4
					c7.3,2.8,18.9,6.8,35.1,12.4c1.2,0.3,3.1,0.9,5.5,1.6c9.5,3.4,18.1,6.7,25.8,9.9c7.7,3.4,14.9,7.3,21.7,11.8
					c6.8,4.7,12.1,10.5,15.6,17.6c3.5,7.1,5.2,15.7,5.2,25.6c0,20.1-6.6,36.6-19.8,49.4s-31.3,19.2-54.1,19.2
					c-22.7,0-41.5-7-54.6-21.1c-13.3-14.1-20-31.6-20-52.4h-67c0,37,13.1,67.6,39.3,91.8c26.4,24.2,60.5,36.3,102.3,36.3
					s74.7-11.5,101.3-34.4c26.4-22.9,39.6-52.4,39.6-88.7C2906.8,2055.7,2903.1,2037.6,2895.7,2022.1L2895.7,2022.1z"/>
				<path class="st0" d="M2969.6,1785.1V2192h67v-406.9H2969.6z"/>
				<path class="st0" d="M3325.5,1785.1h-60.3L3090.6,2192h70.8l51-119.9h165.2l50.8,119.9h71.5L3325.5,1785.1L3325.5,1785.1z
					 M3236,2017.8l59-155.6h1.2l58.4,155.6H3236z"/>
			</g>
		</g>
	</g>
</g>
</svg>
