<?xml version="1.0" encoding="UTF-8"?>
<svg id="Layer_01" data-name="Layer 01" xmlns="http://www.w3.org/2000/svg" version="1.1" viewBox="0 0 3500 3500">
  <defs>
    <style>
      .cls-1 {
        fill: #12a3aa;
      }

      .cls-1, .cls-2, .cls-3 {
        stroke-width: 0px;
      }

      .cls-2 {
        fill: #f9c7a1;
      }

      .cls-3 {
        fill: #fff;
      }
    </style>
  </defs>
  <path class="cls-1" d="M372.88,1267.66v607.16c80.51,0,157.73-31.98,214.66-88.91,56.93-56.93,88.92-134.15,88.92-214.67s-31.98-157.73-88.91-214.66c-56.93-56.94-134.15-88.92-214.67-88.92Z"/>
  <path class="cls-1" d="M303.58,1608.82v607.16c-80.51,0-157.73-31.98-214.66-88.91C31.99,2070.14,0,1992.92,0,1912.4s31.98-157.73,88.91-214.66c56.93-56.94,134.15-88.92,214.67-88.92Z"/>
  <path class="cls-2" d="M271.17,1521.65c25.72-31.22,37.93-71.22,34.04-111.49-3.89-40.27-23.54-77.19-54.77-102.91-31.22-25.72-71.22-37.93-111.49-34.04-40.27,3.89-77.19,23.54-102.91,54.77-25.72,31.22-37.93,71.22-34.04,111.49,3.89,40.27,23.54,77.19,54.77,102.91,31.22,25.72,71.22,37.93,111.49,34.04,40.27-3.89,77.19-23.54,102.91-54.77Z"/>
  <path class="cls-3" d="M2857.98,1783.04c-53.63-82.27-132.25-124.26-227.68-137.18-46.51-6.3-92.75-2.52-137.98,10.26-51.4,14.52-96.51,38.66-133.43,74.54-7.95,7.72-2.51,21.21,8.58,21.21h219.62v.02c.35,0,.69-.02,1.04-.02,107.72.57,185.32,77.66,184.63,187.72-.75,118.11-91.68,184.82-186.71,184.37-94.66-.45-184.85-68.04-184.63-186.46.25-60.2,23.85-110.01,62.54-142.82,8.73-7.4,3.42-21.67-8.02-21.67h-126.43c-4.09,0-7.95,2-10.21,5.4-43.43,65.26-55.51,137.63-41.96,215.29,11.46,65.67,42.86,120.15,93.53,163.05,62.42,52.84,135.89,75.12,216.76,75.56,29.48.21,58.33-3.69,86.99-10.55,123.16-29.5,226.55-131.77,227.25-280.35.27-57.14-12.63-110.44-43.88-158.38Z"/>
  <g>
    <path class="cls-3" d="M3464.68,1745.47c-43.37-61.65-106.16-89.11-178.58-91.75-87.03-3.17-174.26-.99-261.41-1.03-13.48,0-16.36,3.15-16.36,17.71-.02,89.88,0,174.73,0,264.61,0,6.81,5.52,12.35,12.33,12.35h42.54c41.52,0,75.18-33.66,75.18-75.18v-98.11c0-6.79,5.5-12.27,12.28-12.31,41.21-.25,81.63-1.54,121.88.53,47.15,2.42,82.75,31.36,93.92,72.43,17.18,63.17-13.98,132.7-98.26,137.75-29.51,1.77-59.16,1.39-88.79,1.09h-100.68c-38.89,0-70.42,31.53-70.42,70.42,0,6.51,0,13.01,0,19.52,0,6.81,5.52,12.33,12.33,12.33h164.35s0,.12,0,.12c25.15-.07,50.31-.15,75.45.15,29.92.36,59.29-2.85,88.02-11.21,90.68-26.39,151.55-97.94,151.52-196.06-.01-44.76-9.39-86.47-35.32-123.34Z"/>
    <path class="cls-3" d="M3060.32,2101.99c-28.71,0-51.99,23.28-51.99,51.99,0,18.97,0,32.91,0,51.87,0,14.28,3.72,17.96,17.75,18.01,13.69.04,27.37.07,41.06.07,38.93.01,70.49-26.56,70.49-65.49,0-14.71,0-29.42,0-44.13,0-6.81-5.52-12.32-12.33-12.32h-64.97Z"/>
  </g>
  <g>
    <path class="cls-3" d="M2158.65,1745.47c-43.37-61.65-106.16-89.11-178.58-91.75-87.03-3.17-174.26-.99-261.41-1.03-13.48,0-16.36,3.15-16.36,17.71-.02,89.88,0,174.73,0,264.61,0,6.81,5.52,12.35,12.33,12.35h42.54c41.52,0,75.18-33.66,75.18-75.18v-98.11c0-6.79,5.5-12.27,12.28-12.31,41.21-.25,81.63-1.54,121.88.53,47.15,2.42,82.75,31.36,93.92,72.43,17.18,63.17-13.98,132.7-98.26,137.75-29.51,1.77-59.16,1.39-88.79,1.09h-116.71c-30.04,0-54.39,24.35-54.39,54.39,0,11.85,0,23.7,0,35.54,0,6.81,5.52,12.33,12.33,12.33h164.35s0,.12,0,.12c25.15-.07,50.31-.15,75.45.15,29.92.36,59.29-2.85,88.02-11.21,90.68-26.39,151.55-97.94,151.52-196.06-.01-44.76-9.39-86.47-35.32-123.34Z"/>
    <path class="cls-3" d="M1754.29,2099.47c-28.71,0-51.99,23.28-51.99,51.99,0,18.97,0,35.42,0,54.39,0,14.28,3.72,17.96,17.75,18.01,13.69.04,27.37.07,41.06.07,38.93.01,70.49-31.59,70.49-70.52,0-14.71,0-26.91,0-41.62,0-6.81-5.52-12.32-12.33-12.32h-64.97Z"/>
  </g>
  <g>
    <path class="cls-3" d="M882.45,1994.05l89.94-88.21c11.7-11.47,18.29-27.17,18.29-43.55,0-53.73,0-107.46-.01-161.19h0c0-17.37-17.77-48.61-52.37-48.61h-22.18v.14c-12.49,0-24.97.01-37.46.05-14.28.04-17.15,2.77-17.16,16.87-.03,105.24-.01,210.47,0,315.71,0,10.92,13.16,16.45,20.96,8.8Z"/>
    <path class="cls-3" d="M1425.6,2208.44c-1.31-2.53-3.76-4.46-5.68-6.67-74.37-85.19-148.74-170.38-223.08-255.6-8.06-9.24-16-18.6-24.13-28.14-4.19-4.92-3.89-12.26.72-16.79.08-.08.16-.16.24-.23,77.12-75.12,154.26-150.2,231.38-225.32,3.59-3.5,7.35-6.95,10.32-10.94,4.7-6.31,2.5-10.84-5.4-11.95-2.06-.29-4.18-.14-6.28-.14-42.32,0-84.64.25-126.96-.16-11.29-.11-20.21,3.4-28.11,11.18-74.3,73.15-148.67,146.24-223.03,219.32l.15.15-160.54,157.46c-2.36,2.32-3.69,5.49-3.69,8.8,0,52.3-.02,104.59,0,156.89,0,13.82,3.93,17.53,18.14,17.57,12.16.03,24.32.04,36.48.04v.05h31.06c35.49,0,43.5-33.67,43.5-51.03v-18.22c.02-34.42-.08-31.03.18-65.44.03-4.65.82-10.77,3.77-13.69,23.15-22.99,46.74-45.54,70.66-68.53,5.07-4.87,13.19-4.52,17.8.79l.08.09c57.19,65.84,114.5,131.57,171.42,197.63,10.28,11.93,25.31,18.68,41.05,18.4,22.94-.42,45.9-.05,68.86-.06,18.02,0,36.04.27,54.05-.25,3.53-.1,8.28-2.5,10.01-5.33,1.22-2-1.31-6.74-2.93-9.87Z"/>
  </g>
  <circle class="cls-2" cx="1497.31" cy="1960.5" r="90.51"/>
</svg>