<?xml version="1.0" encoding="utf-8"?>
<!-- Generator: Adobe Illustrator 27.7.0, SVG Export Plug-In . SVG Version: 6.00 Build 0)  -->
<svg version="1.1" id="Layer_1" xmlns="http://www.w3.org/2000/svg" xmlns:xlink="http://www.w3.org/1999/xlink" x="0px" y="0px"
	 viewBox="0 0 3500 3500" style="enable-background:new 0 0 3500 3500;" xml:space="preserve">
<style type="text/css">
	.st0{fill:#FFFFFF;}
	.st1{fill:#EF9E0F;}
	.st2{fill:#E8E8E8;}
	.st3{fill:#9E9D9E;}
	.st4{fill:#D9D1DB;}
	.st5{fill:#A3A3A3;}
	.st6{fill:#E0E0E0;}
	.st7{fill:#A8ACB2;}
	.st8{fill:#EAEAEA;}
	.st9{fill:#BDC3C9;}
	.st10{fill:#C6C4C6;}
	.st11{fill:#E5E5E5;}
	.st12{fill:#A5A5A5;}
	.st13{fill:#BACECD;}
	.st14{fill:#D9D7DB;}
	.st15{fill:#DBD5E0;}
	.st16{fill:#9AA1A8;}
	.st17{fill:#A1A7AF;}
	.st18{fill:#AFAFAF;}
	.st19{fill:#959AA0;}
	.st20{fill:#D8D8D8;}
	.st21{fill:#ADACAD;}
	.st22{fill:#E8DFEA;}
	.st23{fill:#B2B2B2;}
	.st24{fill:#939393;}
	.st25{fill:#A7A7A8;}
	.st26{fill:#C1C1C1;}
	.st27{fill:#7F7F7F;}
	.st28{fill:#DDDDDD;}
	.st29{fill:url(#SVGID_1_);}
	.st30{fill:#F4F4F4;}
	.st31{fill:#E6E7E8;}
</style>
<g>
	<g id="Objects">
		<g>
			<g>
				<path class="st0" d="M93.3,1912.7c-28.9-16.3-51.7-38.9-68.3-67.6S0,1784.8,0,1750s8-66.7,24.4-95.4s38.6-51.2,67.3-67.6
					c28.4-16.3,60-24.4,95.2-24.4c31.9,0,61.6,7.2,89.5,22c27.6,14.7,50.9,35.9,70,63.5l-57.1,40.7c-26-39.4-60.3-59.2-102.4-59.2
					c-33,0-60,11.3-80.9,33.8c-21.2,22.5-31.6,51.5-31.6,86.6s10.7,64.1,32.4,86.6c21.4,22.5,48.8,33.8,82,33.8
					c28.7,0,51.7-7.2,69.7-21.4c17.7-14.2,28.7-31.9,33.2-52.8H181.4v-62.4h183.3c0.8,7.8,1.3,17.7,1.3,29.2
					c0.3,93.3-66.2,174.8-177.4,174.5C153.8,1937.4,121.9,1929.1,93.3,1912.7L93.3,1912.7z"/>
				<path class="st0" d="M430.5,1932v-364h258.9v62.7H502.8v83.9h161.9v62.7H502.8v92.2h190.6v62.4L430.5,1932L430.5,1932z"/>
				<path class="st0" d="M760.4,1932v-364h76.7l117.4,242.3l117.1-242.3h76.7v364h-72.4v-223.3l-98.1,198.9h-46.9l-98.1-198.9V1932
					H760.4L760.4,1932z"/>
			</g>
			<rect x="1924.3" y="1564.5" class="st1" width="17.1" height="366.3"/>
			<path class="st0" d="M2514.7,1933h-85.6c-0.5-0.5-0.7-0.7-0.8-0.9c-0.1-0.2-0.2-0.4-0.2-0.7c-0.1-0.2-0.1-0.5-0.1-0.7
				c0-0.7-0.1-1.5-0.1-2.2c0-70-0.1-140-0.1-210.1c0-0.2-0.2-0.4-0.4-1.1c-1.5,2.1-2.8,4-4.1,5.9c-27.9,41.8-56,83.5-83.7,125.4
				c-3.3,4.9-6.8,6.8-12.6,6.6c-13.8-0.4-27.5-0.3-41.3,0c-5,0.1-8-1.5-10.8-5.7c-27.6-41.7-55.5-83.2-83.4-124.7
				c-1.7-2.6-3.7-5.1-6.4-8.9v215.9c-0.7,0.6-0.9,0.8-1.1,0.9c-0.2,0.2-0.4,0.4-0.6,0.4c-1.2,0.1-2.4,0.3-3.7,0.3
				c-26.3,0-52.6-0.1-78.9-0.2c-0.4,0-0.8-0.4-1.7-0.8v-367.1c1.5-0.2,3.1-0.7,4.7-0.7c22.6-0.1,45.2,0,67.8-0.1
				c3.8,0,6.3,1.1,8.5,4.4c12.8,19.5,25.7,38.8,38.7,58.1c20.1,29.9,40.4,59.7,60.5,89.6c8.2,12.2,16.3,24.5,24.5,36.7
				c0.8,1.2,1.7,2.4,3,4.2c1.6-2.1,3-3.9,4.2-5.8c34.4-51.4,68.7-102.7,103-154.1c6.5-9.8,13.2-19.4,19.5-29.4
				c1.9-3,4.1-3.7,7.3-3.7c15.5,0.1,31,0,46.4,0h25.9c0.7,0.7,0.9,0.8,1.1,1c0.1,0.2,0.3,0.4,0.3,0.6c0.1,120.9,0.2,241.7,0.3,362.6
				C2515.1,1930,2514.9,1931.2,2514.7,1933L2514.7,1933z"/>
			<path class="st1" d="M3500,1932.9c-2.8,0.2-4.7,0.4-6.6,0.4c-24.3,0-48.6,0-72.9,0c-6.4,0-6.4-0.1-8.8-6.2
				c-9.2-23.2-18.6-46.3-28-69.9h-165.8c-1.9,4.5-3.8,9.2-5.7,14c-7.6,19.1-15.3,38.1-22.8,57.2c-1.3,3.4-3.1,5-7,5
				c-26.5-0.2-53-0.1-79.6-0.1c-0.5,0-0.9-0.2-1.4-0.4c-0.2-0.2-0.5-0.3-0.6-0.5s0-0.5,0.1-0.7c48.7-121.7,97.4-243.3,146.2-365
				c0.3-0.7,0.8-1.2,1.3-1.9h104.7c1.4,3.1,3.3,6.5,4.7,10.1c14.9,37.2,29.7,74.5,44.5,111.8c13,32.7,25.9,65.5,39,98.2
				c14.7,36.8,29.6,73.5,44.3,110.3c4.6,11.3,9,22.7,13.5,34.1C3499.4,1930.1,3499.5,1931,3500,1932.9L3500,1932.9z M3352.8,1781
				c-18.6-49.6-48.7-123.7-52.8-129.5c-17.5,43.3-34.8,86.2-52.3,129.5H3352.8z"/>
			<path class="st1" d="M3098.3,1565.3v80.5h-217.7v80.7h177.2c1.3,6.1,1.7,68.7,0.6,79.2c-0.2,0.2-0.3,0.4-0.5,0.5
				c-0.2,0.1-0.4,0.3-0.6,0.3c-0.5,0.1-1,0.2-1.4,0.2c-0.5,0-1,0-1.5,0c-57.5,0.1-114.9,0.1-172.4,0.2c-0.2,0-0.4,0.2-1.5,0.6
				c-0.1,2.2-0.3,4.7-0.3,7.3c0,36.3,0,72.7,0,109c0,2.9-0.3,5.7-0.6,9.4c-29,0.1-57.3,0-85.5,0.1c-1.4-6.3-1.6-360.6-0.4-367.9
				C2799.1,1564.4,3088.9,1564.1,3098.3,1565.3L3098.3,1565.3z"/>
			<path class="st0" d="M2610.7,1564.6h7.2c23.8,0,47.6,0,71.5,0c1,0,2,0,2.9,0c4.4,0.2,4.8,0.7,5.1,5.3c0.1,1.2,0,2.5,0,3.7
				c0,116.9,0,233.8,0,350.8c0,2.6-0.2,5.3-0.4,7.7c-5.7,1.6-74.2,2.1-85.7,0.8c-0.2-0.2-0.4-0.3-0.5-0.5c-0.1-0.2-0.3-0.4-0.3-0.6
				c-0.1-120.8-0.2-241.7-0.3-362.5C2610.3,1568,2610.5,1566.8,2610.7,1564.6L2610.7,1564.6z"/>
			<g>
				<g>
					<g>
						<polygon class="st2" points="1535.3,1658 1414.9,1658 1434,1617.1 						"/>
						<polygon class="st3" points="1434,1617.1 1395.3,1572.2 1297.1,1624.9 1345.2,1658 						"/>
						<polygon class="st4" points="1414.9,1658 1434,1617.1 1345.2,1658 						"/>
						<polygon class="st5" points="1345.2,1658 1274.7,1658 1297.1,1624.9 						"/>
						<polygon class="st6" points="1274.7,1658 1218.6,1658 1297.1,1624.9 						"/>
						<path class="st7" d="M1218.6,1658c0,0,100.6-86,102.1-85.8c1.5,0.2-23.6,52.7-23.6,52.7L1218.6,1658L1218.6,1658z"/>
						<polygon class="st8" points="1320.7,1572.2 1395.3,1572.2 1297.1,1624.9 						"/>
						<polygon class="st9" points="1395.3,1572.2 1434,1617.1 1535.3,1572.2 						"/>
						<polygon class="st10" points="1535.3,1658 1655.7,1658 1636.7,1617.1 						"/>
						<polygon class="st11" points="1535.3,1572.2 1434,1617.1 1535.3,1658 1636.7,1617.1 						"/>
						<polygon class="st0" points="1636.7,1617.1 1675.4,1572.2 1773.5,1624.9 1725.4,1658 						"/>
						<polygon class="st12" points="1655.7,1658 1636.7,1617.1 1725.4,1658 						"/>
						<polygon class="st13" points="1725.4,1658 1796,1658 1773.5,1624.9 						"/>
						<polygon class="st14" points="1796,1658 1852.1,1658 1773.5,1624.9 						"/>
						<path class="st15" d="M1852.1,1658c0,0-100.6-86-102.1-85.8c-1.5,0.2,23.6,52.7,23.6,52.7L1852.1,1658L1852.1,1658z"/>
						<polygon class="st0" points="1750,1572.2 1675.4,1572.2 1773.5,1624.9 						"/>
						<polygon class="st16" points="1675.4,1572.2 1636.7,1617.1 1535.3,1572.2 						"/>
					</g>
					<g>
						<polygon class="st17" points="1414.9,1658 1490.1,1843.1 1345.2,1658 						"/>
						<polygon class="st0" points="1345.2,1658 1446.3,1843.1 1535.3,1937.4 1490.1,1843.1 						"/>
						<polygon class="st8" points="1345.2,1658 1274.7,1658 1446.3,1843.1 						"/>
						<polygon class="st18" points="1535.3,1937.4 1446.3,1843.1 1218.6,1658 						"/>
						<polygon class="st19" points="1274.7,1658 1218.6,1658 1446.3,1843.1 						"/>
						<polygon class="st20" points="1535.3,1658 1490.1,1843.1 1535.3,1937.4 1580.6,1843.1 						"/>
						<polygon class="st11" points="1655.7,1658 1580.6,1843.1 1725.4,1658 						"/>
						<polygon class="st21" points="1725.4,1658 1624.3,1843.1 1535.3,1937.4 1580.6,1843.1 						"/>
						<polygon class="st22" points="1725.4,1658 1796,1658 1624.3,1843.1 						"/>
						<polygon class="st23" points="1535.3,1937.4 1624.3,1843.1 1852.1,1658 						"/>
						<polygon class="st24" points="1796,1658 1852.1,1658 1624.3,1843.1 						"/>
						<polygon class="st25" points="1655.7,1658 1580.6,1658 1580.6,1843.1 						"/>
						<polygon class="st2" points="1535.3,1658 1414.9,1658 1490.1,1843.1 						"/>
					</g>
					<g>
						<polygon class="st0" points="1274.7,1658 1414.9,1658 1395.3,1572.2 						"/>
						<polygon class="st26" points="1414.9,1658 1535.3,1658 1655.7,1658 1535.3,1572.2 						"/>
						<polygon class="st27" points="1750,1572.2 1796,1658 1852.1,1658 						"/>
						<polygon class="st26" points="1655.7,1658 1796,1658 1675.4,1572.2 						"/>
					</g>
					<path class="st28" d="M1796,1648.3h-566c-7,6-11.4,9.7-11.4,9.7h633.5c0,0-4.4-3.8-11.4-9.7H1796z"/>
					
						<linearGradient id="SVGID_1_" gradientUnits="userSpaceOnUse" x1="1592.5873" y1="-1758.9938" x2="1645.9073" y2="-1796.2137" gradientTransform="matrix(1 0 0 -1 0 0)">
						<stop  offset="0" style="stop-color:#D6D6D6"/>
						<stop  offset="1" style="stop-color:#191919"/>
					</linearGradient>
					<polygon class="st29" points="1535.3,1937.4 1668.4,1658 1760.7,1658 					"/>
				</g>
				<polygon class="st30" points="1580.6,1658 1535.3,1658 1580.6,1843.1 				"/>
				<polygon class="st30" points="1535.3,1937.4 1535.3,1658 1490.1,1658 				"/>
				<polygon class="st31" points="1345.2,1648.3 1395.3,1572.2 1412.7,1648.3 				"/>
				<polygon class="st31" points="1750,1572.2 1675.4,1572.2 1789.4,1648.3 				"/>
			</g>
		</g>
	</g>
</g>
</svg>
