<?xml version="1.0" encoding="utf-8"?>
<!-- Generator: Adobe Illustrator 27.7.0, SVG Export Plug-In . SVG Version: 6.00 Build 0)  -->
<svg version="1.1" id="Layer_1" xmlns="http://www.w3.org/2000/svg" xmlns:xlink="http://www.w3.org/1999/xlink" x="0px" y="0px"
	 viewBox="0 0 3500 3500" style="enable-background:new 0 0 3500 3500;" xml:space="preserve">
<style type="text/css">
	.st0{fill:#92BA23;}
	.st1{fill:#C7D01B;}
	.st2{fill:#EEE32F;}
	.st3{fill:#F4D020;}
	.st4{fill:#EDB226;}
</style>
<path class="st0" d="M2553.3,2243.3c3.5,1,7.9,1.4,13.2,1.4c82.2-0.2,153.2-5.7,212.9-16.3c57.2-10.2,109.1-29.5,155.8-57.9
	c25.8-15.7,47.1-34.2,64-55.4c38.6-48.6,58.9-104,61-166.3c0.9-27.1-0.1-52.9-2.9-77.5c-5.2-44.3-15.5-89.9-30.9-136.7
	c-24.8-75.5-56.6-145.3-93.3-215.3c-0.4-0.7-0.4-1.6-0.1-2.3c40.9-95.4,85.6-199.1,134-311.2c7.9-18.1,13.6-29.3,10.5-45.4
	c-1.8-9.5-7.5-15.9-17-19.1c-7.8-2.7-15.9-4-24.4-4c-107.6-0.2-200.4-0.3-278.6-0.2c-6.3,0-10.7-0.2-13.5-0.7
	c-1.2-0.2-2-0.8-2.5-1.9c-15.6-33.2-31.8-66.2-48.6-99.2c-1.8-3.4-4.1-8.8-7-16.2c-0.5-1.2,0-2.5,1.1-3.1
	c127.8-66.7,268.6-140.6,422.4-221.8c16.3-8.6,32.7-16.8,49.2-24.7c1.7-0.8,3.6-0.2,4.6,1.3c31.1,48.2,60.5,98.3,88.1,150.5
	c6,11.4,18.6,35.8,37.9,73.1c12.4,24,22.6,44.7,30.7,62.1c31.7,67.9,60.6,137.7,86.7,209.7c26.9,74.3,48.9,149.2,65.9,224.8
	c6.5,28.8,12.3,61.1,17.3,96.7c13.7,96.1,13.5,186.6-0.7,271.5c-12.3,73.7-39.1,140.3-80.3,199.8c-13.8,19.9-34.1,42.9-61,69.2
	c-17.4,17-35.2,31.8-53.2,44.2c-41,28.2-84.4,50.6-130.2,67.1c-46,16.6-95.4,29.6-148,38.8c-66.3,11.6-132.8,17.6-199.3,17.8
	c-5.2,0-275.7,0.1-811.6,0.2c-8.4,0-16.5-0.4-24.5-1.2c-0.8-0.1-1.3-0.8-1.3-1.6c0-0.1,0.1-0.3,0.1-0.4l492.8-1086.1
	c1.2-2.7,3.9-4.5,6.9-4.5h511c3.3,0,4.8,1.7,4.3,5c-0.6,4.2-2.1,8.9-4.5,14.3c-17.1,38.6-161,370.3-431.7,995.1
	c-2.8,6.6-5.5,13.6-8.1,21.2c-0.7,2,0.4,4.2,2.5,4.9C2553.2,2243.2,2553.3,2243.3,2553.3,2243.3z"/>
<path class="st0" d="M1230.2,2286.6l677.2-1437.7c0.7-1.5,2.3-2.5,3.9-2.5l503.3,0.2c2.4,0,4.4,1.9,4.4,4.4c0,0.6-0.1,1.3-0.4,1.9
	l-677,1437.5c-0.7,1.5-2.3,2.5-3.9,2.5l-503.5,0c-2.4,0-4.4-1.9-4.4-4.4C1229.8,2287.8,1229.9,2287.2,1230.2,2286.6z"/>
<path class="st0" d="M953.1,1251.1c-0.1-1.3-1.1-2.1-3.1-2.2c-14.5-1.3-37.5-1.4-69.1-0.5c-16,0.5-43.8,2.3-83.2,5.4
	c-39.7,3.1-78.9,9.7-117.7,19.7c-41.8,10.8-81.1,27.8-117.9,51c-55.9,35.2-92.8,87.5-110,150.9c-11.1,40.8-14.5,83.2-10.1,127.3
	c2.5,25.7,6.3,50.1,11.2,73.2c13.3,61.9,36,128.5,68.2,199.9c21.3,47.3,36.6,79.4,46,96.5c0.6,1,0.7,2.1,0.4,3.2
	c-0.6,2.6-1.4,4.9-2.4,6.9c-5.7,11.7-49.6,113.2-131.8,304.5c-7.4,17.3-11.2,29.5-11.3,36.6c-0.2,12.6,5.5,21.7,17.1,27.3
	c6.3,3.1,15.9,4.6,28.9,4.6c147.4-0.1,242.4-0.1,284.9-0.1c2.5,0,4.7,1.4,5.8,3.6l55.3,111.3c1.5,2.9,0.7,5.2-2.2,6.7
	c-198.6,103.5-335.3,175.4-410.1,215.6c-13.4,7.2-33.2,17.1-59.5,29.7c-1.9,1-4.3,0.3-5.5-1.5c-31-47.6-59.8-96.8-86.5-147.9
	c-16.3-31.3-47.3-89.1-67.2-131.3c-43.7-92.6-81.4-187.6-113.2-285.2c-24.5-75.3-43.2-151.2-56-227.5c-12.2-73.2-16-150.2-11.3-231
	c3.7-63.5,20-129.6,44.6-186c15.9-36.4,37.5-71.4,64.6-104.9c14.4-17.8,35.7-38.9,63.8-63.3c16.9-14.6,35.6-28,56.3-40.1
	c28.3-16.6,55.1-30.1,80.4-40.5c51.6-21.2,106.5-37,164.8-47.3c48.5-8.6,97.9-14.5,148.1-17.8c20.2-1.3,43.3-2,69.1-2
	c286.2-0.1,556.4-0.1,810.7,0c4.9,0,9.6,0.3,13.8,1c0.9,0.1,1.6,1,1.4,1.9c0,0.2-0.1,0.3-0.1,0.5l-492.3,1085.1
	c-1.4,3.1-4.5,5-7.8,5c-268,0.3-436.2,0.3-504.6,0.1c-4.1,0-7.8-0.2-11-0.5c-1.5-0.1-2-0.9-1.4-2.3L953,1251.4
	C953.1,1251.3,953.1,1251.2,953.1,1251.1z"/>
<path class="st1" d="M863.9,2712.1L975.4,2472c0.7-1.6,2.4-2.7,4.2-2.7l242.6,0.4c2.5,0,4.6,2.1,4.5,4.6c0,0.6-0.1,1.3-0.4,1.9
	l-111,239.6c-0.7,1.6-2.4,2.6-4.1,2.6l-243.1,0.1c-2.5,0-4.6-2-4.6-4.6C863.5,2713.4,863.6,2712.8,863.9,2712.1z"/>
<path class="st2" d="M1296.4,2710.3l110.5-237.6c1-2.1,3.1-3.4,5.4-3.4l243,0.2c3.3,0,5.9,2.7,5.9,5.9c0,0.9-0.2,1.7-0.6,2.5
	l-110.4,237.2c-1,2.1-3.1,3.4-5.4,3.4l-243.1,0.3c-3.3,0-5.9-2.7-5.9-5.9C1295.9,2712,1296.1,2711.1,1296.4,2710.3z"/>
<path class="st3" d="M1718.6,2711.9l111.7-240.1c0.8-1.7,2.5-2.7,4.3-2.7l245.7,0.5c2.6,0,4.7,2.1,4.7,4.8c0,0.7-0.1,1.3-0.4,2
	l-110.8,239.5c-0.8,1.7-2.5,2.7-4.3,2.7l-246.6,0.1c-2.6,0-4.7-2.1-4.7-4.7C1718.1,2713.2,1718.3,2712.5,1718.6,2711.9z"/>
<path class="st3" d="M2153.6,2710.8l111.5-238.4c0.9-1.9,2.8-3.1,4.9-3.1l241.2,0.2c3,0,5.4,2.4,5.4,5.4c0,0.8-0.2,1.6-0.5,2.3
	l-110.7,238.2c-0.9,1.9-2.8,3.1-4.9,3.1l-242,0c-3,0-5.4-2.4-5.4-5.4C2153.1,2712.3,2153.3,2711.6,2153.6,2710.8z"/>
<path class="st4" d="M2947.9,2477.8l-111.8,237.3c-1,2.1-3.1,3.4-5.3,3.4l-242.1,0.2c-3.2,0-5.9-2.6-5.9-5.9c0-0.9,0.2-1.7,0.6-2.5
	l110.5-237.5c1-2.1,3-3.4,5.3-3.4l243.5,0c3.2,0,5.9,2.6,5.9,5.9C2948.4,2476.2,2948.2,2477,2947.9,2477.8z"/>
</svg>
