<?xml version="1.0" encoding="utf-8"?>
<!-- Generator: Adobe Illustrator 27.7.0, SVG Export Plug-In . SVG Version: 6.00 Build 0)  -->
<svg version="1.1" id="Layer_1" xmlns="http://www.w3.org/2000/svg" xmlns:xlink="http://www.w3.org/1999/xlink" x="0px" y="0px"
	 viewBox="0 0 3500 3500" style="enable-background:new 0 0 3500 3500;" xml:space="preserve">
<style type="text/css">
	.st0{fill:#00A2E8;}
</style>
<path class="st0" d="M2960.9,2345.4l-0.2,623.8c0,2.5-2,4.5-4.5,4.5h-641.5c-1,0-1.9,0.4-2.7,1l-555.3,443.9c-1.6,1.3-3.9,1.3-5.5,0
	l-570.1-443.9c-0.8-0.6-1.7-1-2.7-1l-643.7-0.1c-2.5,0-4.5-2-4.5-4.5l0,0v-625.6c0-1.1-0.4-2.2-1.2-3L6.2,1796
	c-1.6-1.8-1.6-4.5,0.1-6.2L1743.4,81.5c1.7-1.7,4.6-1.7,6.3,0c0,0,0,0,0,0l1744.5,1707.9c1.7,1.7,1.7,4.6,0,6.3c0,0,0,0,0,0
	l-531.9,546.5C2961.4,2343.1,2960.9,2344.2,2960.9,2345.4z M2645.8,2203.6c0-1.5,0.5-2.9,1.5-3.9l384-394.7c2.1-2.2,2.1-5.7-0.1-7.8
	L1768.4,560.8c-2.2-2.2-5.7-2.2-7.8,0L503.3,1797.5c-2.1,2.1-2.2,5.5-0.1,7.7l379.5,395.1c1,1.1,1.5,2.5,1.5,3.9v447.3
	c0,3.1,2.5,5.5,5.5,5.5l460.7,0.3c1.2,0,2.4,0.4,3.4,1.2l412.9,321.6c2,1.6,4.8,1.6,6.8,0l401.4-321.6c1-0.8,2.2-1.2,3.5-1.2
	l461.9-0.1c3.1,0,5.5-2.5,5.5-5.5l0,0L2645.8,2203.6z"/>
<path class="st0" d="M2342.5,1205.6c267.9,253.9,351.3,624.2,215.7,967c-149.9,379.2-561.4,602.5-961.8,529.1
	c-370.6-67.9-652.2-356.4-709.5-730.5c-29.3-192.2,9.9-369.8,117.7-532.9c85.4-129.2,198.2-243.1,313.7-348c2.1-2,4.2-2,6.3-0.1
	l290.3,256.2c3.6,3.1,3.6,6.2,0,9.3c-144.8,125.2-322.2,318.9-308.4,524c19.9,294.1,314,478.8,587.7,385.1
	c150.3-51.5,263-178.7,292.3-337.8c9.4-51.3,12-96.5,7.8-135.6c-6.2-56.1-26.5-112.5-61.1-169.3c-60.6-99.6-130.9-186.3-210.7-260.2
	c-145.9-135-295.6-272.2-449.1-411.6c-3.8-3.4-3.8-6.9-0.2-10.5l283.8-277.5c3.1-3,6.2-3,9.3-0.1
	C1962.2,846,2154.2,1027.2,2342.5,1205.6z"/>
</svg>
