<?xml version="1.0" encoding="utf-8"?>
<!-- Generator: Adobe Illustrator 27.7.0, SVG Export Plug-In . SVG Version: 6.00 Build 0)  -->
<svg version="1.1" id="Layer_1" xmlns="http://www.w3.org/2000/svg" xmlns:xlink="http://www.w3.org/1999/xlink" x="0px" y="0px"
	 viewBox="0 0 3500 3500" style="enable-background:new 0 0 3500 3500;" xml:space="preserve">
<style type="text/css">
	.st0{fill-rule:evenodd;clip-rule:evenodd;fill:#4C9450;}
</style>
<g id="Layer_x0020_1">
	<circle id="_81172288" class="st0" cx="1750" cy="2677.6" r="295.2"/>
	<path id="_67129824" class="st0" d="M1750,527.2c102.7,0,411.2,346.2,411.2,757.1c-165.1,145.9-378.5,284.3-411.2,817.7
		c-33.4-533.4-247.6-671.8-411.2-817.7C1338.8,873.5,1647.3,527.2,1750,527.2z"/>
	<path id="_80915168" class="st0" d="M2987.4,1039.8c72.6,72.6,45.9,535.6-244.6,826.2c-219.9-13.6-468.7-66.6-869,287.4
		c353.5-400.8,300-650.1,287.4-869C2451.8,993.9,2914.8,967.2,2987.4,1039.8L2987.4,1039.8L2987.4,1039.8z"/>
	<path id="_81191040" class="st0" d="M3500,2277.2c0,102.7-346.3,411.2-757.1,411.2c-145.9-165.1-284.3-378.5-817.7-411.2
		c533.4-33.4,671.8-247.6,817.7-411.2C3153.8,1866,3500,2174.6,3500,2277.2z"/>
	<path id="_80036232" class="st0" d="M512.6,1039.8c72.6-72.6,535.6-45.9,826.2,244.6c-13.6,219.9-66.6,468.7,287.4,869
		c-400.8-353.5-650.1-300-869-287.4C466.6,1575.4,440,1112.4,512.6,1039.8L512.6,1039.8L512.6,1039.8z"/>
	<path id="_78593888" class="st0" d="M0,2277.2C0,2174.6,346.3,1866,757.1,1866c145.9,165.1,284.3,378.5,817.7,411.2
		c-533.4,33.4-671.8,247.6-817.7,411.2C346.2,2688.5,0,2379.9,0,2277.2z"/>
</g>
</svg>
