<?xml version="1.0" encoding="utf-8"?>
<!-- Generator: Adobe Illustrator 27.7.0, SVG Export Plug-In . SVG Version: 6.00 Build 0)  -->
<svg version="1.1" id="Layer_1" xmlns="http://www.w3.org/2000/svg" xmlns:xlink="http://www.w3.org/1999/xlink" x="0px" y="0px"
	 viewBox="0 0 3500 3500" style="enable-background:new 0 0 3500 3500;" xml:space="preserve">
<style type="text/css">
	.st0{fill:url(#SVGID_1_);}
</style>
<rect y="-440.4" width="3500" height="4380.8"/>
<linearGradient id="SVGID_1_" gradientUnits="userSpaceOnUse" x1="1750.0178" y1="-3773.2002" x2="1750.0178" y2="273.1778" gradientTransform="matrix(1 0 0 -1 0 0)">
	<stop  offset="0" style="stop-color:#459FFF"/>
	<stop  offset="0" style="stop-color:#58A9FF"/>
	<stop  offset="0.3" style="stop-color:#85C0FF"/>
	<stop  offset="0.5" style="stop-color:#A8D2FF"/>
	<stop  offset="0.7" style="stop-color:#C1DFFF"/>
	<stop  offset="0.9" style="stop-color:#D0E7FF"/>
	<stop  offset="1" style="stop-color:#D6EAFF"/>
</linearGradient>
<path class="st0" d="M1152.2,2552.7c7-18.2,14-34.3,19.4-51c45.9-142.2,126-262.6,229.7-369c144.1-147.8,313-259.9,498.2-348
	c94.9-45.1,192.9-83.7,289.8-124.4c15.4-6.5,32.7-8.6,56.4-14.5c-6.4,17.8-8.6,28.3-13.6,37.1c-30.3,53.1-68.2,99.1-123.6,128
	c-59.3,31-118.4,62.4-178.2,92.5c-153.2,77.1-299,165.3-427.8,279.7c-102.1,90.7-191.6,191.2-249.1,316.8c-5.7,12.4-11,25-15.5,37.9
	c-10.8,30.9-8.1,39.1,23.4,47.9c53.9,15,108.2,28.9,163,40.3c60.1,12.5,121,21.5,181.5,32.4c12.9,2.3,25.5,6.6,38.2,10
	c-0.3,3.1-0.7,6.1-1,9.2c-16.4-1.2-33.1-1.2-49.3-3.7c-110.7-17.1-221.3-34.8-332-51.9c-14.6-2.3-29.4-2.4-48.1-3.8
	c-2.3,17.2-5.6,31.6-5.8,46.1c-0.7,43.8-2.8,87.7,0.6,131.2c2.4,30.8,9.6,62.2,20.3,91.3c40.8,111.1,114.7,198,205.9,270.9
	c122.4,97.8,263.4,159.4,411.1,207.9c116,38,236,57.9,355.1,81.8c15.9,3.2,31.6,7.2,46.8,16.7c-39.7-3.1-79.8-3.6-119-9.9
	c-148.4-23.8-296.3-50.9-437.5-104.9c-123.5-47.2-238.4-109.4-337.3-198.5c-101.3-91.3-174.2-200.5-198.3-336.2
	c-10.2-57.4-9-116.8-12.6-175.4c-0.9-14.9-0.1-29.8-0.1-47.1c-26.2-10.8-51.2-21.3-76.3-31.5c-87.5-35.5-173.1-74.9-251.9-127.6
	c-135-90.3-236.2-207.5-280.6-366.4c-49.8-178-17.8-347,68-507c66.3-123.6,162.9-222.4,268.9-312.2
	c177.7-150.7,378-264.4,590.2-358.5c15-6.6,30.4-12.2,45.9-17.6c37.4-13.1,74.2-13.9,111.9,1.8c41.8,17.4,45,15.3,70.9-20.7
	c8.6-11.9,16.9-23.8,29.5-41.5c1,80.6-23.9,143.5-72.7,196.9c-40.6,44.4-70.2,50.9-126.7,28c-26.6-10.8-50.3-5.4-74.9,5.6
	c-131.1,58.7-259.8,122-380,201.1c-119.3,78.5-230,167.3-322.7,276.9c-76,89.9-133.4,189.5-160.5,305.5
	c-30.9,132.3-8,254.9,63.3,369.3c56.8,91.1,134.2,161.5,223,220.2c81.3,53.7,168.7,95.5,259.3,130.9c7.3,2.9,15.1,4.5,24.8,7.3
	V2552.7z M2825.2,1318.9c-9.1,91.1-15.4,182.6-28.8,273.1c-16.7,112.9-69.3,208.8-150.2,289.9c-74.6,74.7-160.9,131.7-258.7,169.9
	c-62.2,24.3-126.8,42.4-190.3,63.5c-14.8,4.9-29.2,11-49,18.5c24.1,18.1,45.2,16.8,64.4,14c51.2-7.6,104.7-10.5,152.5-28.4
	c300.4-112.4,485.2-321.1,524.8-646.3c8.6-70.5,16.4-141.1,23.7-211.8c2.5-24,12.9-42.2,34.4-52c40.8-18.7,81-40.9,123.9-52.6
	c56.6-15.4,94.1-47.4,115.2-100.6c6.3-15.9,20.8-33.3,5.2-49.1c-15.4-15.7-33.9-3.4-49.3,3.9c-59.2,28.2-117.8,57.7-176.8,86.3
	c-9,4.4-18.8,7-29.4,10.9c-7-29.1,9.9-57.3-12.5-87.4c-17.5,34.5-34.2,64-47.6,94.8c-11,25.2-27,44.5-51.3,56.1
	c-86.3,41.1-172.8,81.8-259.4,122.2c-11.7,5.5-24.8,8.1-44.4,14.2c5.6-58.5,9.6-109.9,15.8-161c6.1-49.9,14.5-99.4,21.9-149.1
	c-3.5-1.1-7-2.3-10.4-3.4c-9.6,17.4-20.4,34.3-28.5,52.4c-33.8,75.4-51.8,155.5-63.2,236.8c-6,42.1-27,65.9-67,77.6
	c-215.5,62.8-433.7,101.7-659.3,75.3c-86.1-10.1-169.4-30.3-245.7-73.5c-75.6-42.8-96.9-86.1-85.9-172.5c2.3-18.1,2.9-36.5,4.3-54.7
	c-3.1-1-6.2-2-9.3-2.9c-5.7,11.3-12.3,22.3-17,34.1c-13.2,33-25.7,66.2-38.3,99.4c-35.4,92.5-98.1,159.6-187,202.9
	c-13.4,6.5-27.1,13.8-38,23.7c-16,14.5-16.1,33.6-8.6,53c7,18.2,21.5,23.1,39.2,23.7c31.8,1.2,60.3-7.8,81.6-31.3
	c22.8-25.3,43.2-52.8,64.3-79.6c8.8-11.2,17-22.9,28.1-37.9c52.2,105.4,139.2,154.4,243.6,178.1c74.9,17,151,25.4,227.8,24.6
	c124.9-1.2,248-18.7,368.6-50.5c73.9-19.5,146.4-44,219.7-65.9c16.2-4.8,32.9-8.2,52.9-13.1c1.7,94.9-29.2,171.2-86.4,237.9
	c-32.1,37.5-71,63.5-119.8,74c-42.1,9.1-84,19.2-126.3,28.9c43.6,76.1,108.6,94.5,178.2,45.7c33-23.1,62.8-53.1,87.8-84.9
	c66.2-84.1,105.3-182,129.1-285.3c8.5-37,25.4-60.1,58.7-77.1c84-42.7,166.8-88,250.1-132.1c5.8-3.1,12.3-4.9,21.1-8.2
	c0.6,10.3,2.3,18.3,1.5,26.1L2825.2,1318.9z M1246.8,591.1c-80.1,41.4-160.8,81.6-240.3,124.2C857,795.4,724,897.1,608.6,1021.7
	C496,1143.3,421,1284,398.7,1449c-16.3,120.1-3.8,237.5,56.6,346c6.4,11.5,14,22.5,21,33.7c0.1-31.8-5.2-61.1-12.8-89.8
	c-26.8-101.9-20.3-203.7,4-304.3c25.5-105.9,82.6-195.7,152.7-277.6c110.8-129.5,246.2-228.7,393.4-311.8
	c110.6-62.4,224.3-119.4,336.3-179.4c56.6-30.3,112.8-61.4,168.7-92.9c39.4-22.2,60.4-58.7,72.3-100.6c9.6-33.8,0.4-58.3-31.7-70.5
	c-64.7-24.7-130.9-29.8-194.1,4.7c-40.4,22.1-68.9,57.8-92.7,96.7c-5.2,8.5-6.5,19.4-10.2,30.9c17.3,6.6,31,11.7,53,20.1
	c-27.9,15.1-48,26.5-68.5,37.1L1246.8,591.1z M1347.9,75c-16.2,20-31.8,40.7-49.9,58.9c-29.7,30-62.2,57.2-91.6,87.5
	c-21.8,22.5-40.6,48-60.5,72.3c-12.5,15.2-26.3,27.7-47.4,29c-39.4,2.5-73.1,20.7-106.8,39.1c-19.1,10.5-38.6,20.5-58.7,29.1
	c-44.2,19-86.1,13.2-123.2-16.8c-36-29.1-34.7-68.7-25.6-109.1c10.4-46.6,22.2-93,32.1-139.7c5.6-26.6,11.6-53.8,12.1-80.8
	c0.8-50.5-32.1-74.7-80.8-62.6c-6.6,1.6-13.3,3.3-19.5,6C624.9,32.2,553.7,108.3,511.2,211.2c-17,41.1-15.3,80.6,25.5,109.8
	c5.5,3.9,9.7,9.6,14.6,14.4c18.2,17.8,25.2,38.7,17.4,63.4c-5.3,16.9-9.7,34.2-17,50.2c-34.1,74.9-83.3,137.4-151.1,185.1
	c-59.7,42-123.8,74.7-193.5,96.4c-15.2,4.7-29.9,11-44.8,16.5c10.7,5.6,19.9,5.7,28.9,4.6c116.1-13.4,212.4-67.6,296.6-145.5
	c75.5-69.8,135.5-150.4,161.8-251.7c16.9-65,24.2-129.2-26.8-185.7c-14.5-16-11.2-34.1,4.9-51.7c26.7-29.3,60.7-41,99.9-36.6
	c34.7,4,48.1,22.5,38.7,56.2c-14.3,51.3-30.2,102.1-46.2,152.9c-15.8,50-23.8,101.1-21.3,153.4c2.9,61.1,40.7,110.7,93.8,126.2
	c42.5,12.5,78.6-2.4,111-27c27.1-20.6,51.7-44.6,76.9-67.7c22.1-20.2,46.8-33.2,77.5-31.5c25.4,1.5,44.5-9,60.9-27.7
	c23.4-26.8,48.2-52.3,71.3-79.3c35-40.9,75.7-66.8,132.4-55.9c29,5.6,49.3-8.6,67.8-29c39.3-43.2,57.5-137.2-6.1-223.9
	c-13.9,18.3-24.6,33.3-36.2,47.6L1347.9,75z M3034.3,1603.2c-24.8-21.4-38.7-23.7-65.7-5.4c-14.4,9.7-26.6,23.4-37.7,37
	c-32.5,40-52.7,86.3-63.4,136.3c-7.9,37.1,8.8,54.9,46.9,51.3c13.3-1.2,26.3-6.5,39.1-10.9c12.9-4.4,25.3-11.2,40.9,4.4
	c-6.5,13.3-11.9,28.4-20.5,41.4c-24.5,37.1-56.7,67.4-95.4,88.5c-62.2,34-126.1,65-189.4,96.9c-13.3,6.7-30.6,9.8-28.6,29.5
	c2.1,20.1,19,27,35.4,28.1c23,1.5,47.2,2.7,69.1-2.8c88.9-22.2,162.7-69.4,219.8-141.7c36.1-45.8,59.4-98.4,75.5-153.7
	c25.1-85.9,73.6-154.4,143-209.9c36.3-29,70.6-60.6,104.7-92.1c10.8-9.9,20.2-22.6,26.6-35.7c7.9-16.1,0.4-26.6-17.2-27.5
	c-8.1-0.4-16.3,1.9-24.5,1.8c-27-0.2-54.1,0-81-1.6c-35.3-2.3-70.6-9.9-105.7-8.7c-87.4,3-163.3,68.9-187.7,164.4
	c14.4-15.7,23.6-27.3,34.3-37.2c16.9-15.7,33.3-32.9,52.6-45.1c47.1-29.6,118.8-19.5,166.5,24.2c-32.7,32.4-65.3,64.5-101.2,100.1
	c-15.9-13.8-26.1-22.7-36.3-31.5L3034.3,1603.2z M2049.3,2096.2c11.4,1.2,23.3,4.9,34.2,3.1c118.3-19.4,227.3-59.2,312.1-148.8
	c30-31.7,58.5-65,87.9-97.3c11-12.1,22-24.5,34.4-35c20-16.8,27.1-16.1,45.9,0.8c4.1,3.6,7.4,8.1,11.4,11.8
	c32.2,30.5,65.2,28.6,88.3-9.7c14.4-23.9,24-52,30.4-79.4c8.9-38.2,6.7-38.6-30.7-55.3c-6.2-2.8-12-6.5-17.9-10
	c-42.4-25.5-61.8-26.1-99.1,7.1c-27.3,24.3-52,52.4-74.1,81.6c-100.3,132.8-224.1,234.3-381.1,293.3c-15.7,5.9-29.8,16.2-44.6,24.5
	c1,4.4,2,8.8,3,13.2L2049.3,2096.2z M1301.6,1621c-18.3,55.6-38.4,110.9-51.5,167.7c-10,43.5-13.8,89-2.7,134
	c16.1,65.4,91.9,97.7,148.1,61.3c19.3-12.5,36.5-28.6,53.4-44.4c28.3-26.5,58.6-45.8,98.3-54.3c57.3-12.4,89.2-62.6,87-119.6
	c-23.1,10-46.7,25.1-72.2,29.9c-24.9,4.7-47,12.4-68,25.4c-13.9,8.6-28.2,16.6-42.2,25c-58.2,34.9-154.1,4.3-140.6-91.1
	c4.8-33.7,11-67.2,15.9-100.9c2.8-19.3,10.6-39-4-65.4C1313.8,1602.2,1304.9,1610.7,1301.6,1621L1301.6,1621z M2339.6,2293.1
	c-22.4-15.2-31.7-14.7-48.9,6.7c-19.7,24.4-37.7,50.3-54.7,76.7c-32.1,49.7-30.1,60.3,14.6,99.2c2.1,1.8,4.1,3.7,6.2,5.3
	c24.6,18.9,38.5,19.3,61.8-0.7c11.4-9.7,21.4-21.1,31.4-32.3c35.3-39.8,35.1-39.7,73.5-5.5c10.9,9.7,23.3,17.8,35.5,26.9
	c40.9-22.5,67.7-54.7,88-92.5c21.2-39.5,18.1-62.5-11-97.2c-34-40.5-54.8-40.2-88,0.7c-14.5,17.9-29.5,35.3-48.1,57.6
	c-23.4-17.6-41.2-32.1-60.2-44.9H2339.6z M2824.8,2396.7c19.7-22,27.8-23.9,51-5.8c9.7,7.5,17.9,16.9,27.5,24.5
	c19.9,15.8,28.8,17.7,46-0.7c22.1-23.7,41.8-50.2,59.2-77.6c36.7-57.9-0.2-95.5-35.8-121.1c-14.4-10.4-28.4-8.6-40.4,4.1
	c-8.4,8.9-15.5,19-23.7,28.2c-14.2,16-28.8,31.6-46.2,50.7c-20.3-17.6-36.1-32.1-52.8-45.5c-19.2-15.3-29.7-16-46.3,1.7
	c-18.6,19.8-35.1,41.9-50.5,64.3c-49.1,71.3-45,89.1,28.9,134.4c4.5,2.8,9.7,4.6,19.6,9.3c20.8-21.6,42.9-43.3,63.6-66.4
	L2824.8,2396.7z M1857.9,467.9c24.2,19.1,36,20.8,57-0.9c21.5-22.2,38.5-48.9,56.6-74.2c25.2-35.1,13.4-66.7-10.5-96.9
	c-31.4-39.8-51.9-40.5-84.4-2.4c-16.5,19.4-33,38.9-50.9,60c-18.4-13.1-32.6-23.4-47-33.4c-32.5-22.6-45.7-22.3-69.5,7.1
	c-20.6,25.3-39.7,52.1-56.6,80.1c-20.3,33.7-15.2,52.6,15.7,77.7c49.6,40.2,61.5,38.8,102.2-11.6c11.8-14.6,23.8-29,38.6-47
	c18.2,15.6,33,29.1,48.7,41.5H1857.9z M2231.8,964.1c24.4,20.2,37.8,21.3,60.4-1.7c19-19.3,36.2-41.1,50.1-64.3
	c26.4-44.1,20.3-78.9-16.2-114.1c-29-28.1-44.8-27.8-70.8,2.2c-12.5,14.4-23.3,30.5-36.4,44.3c-18.1,19.1-25,18.9-44.7,2.6
	c-9.5-7.8-18.1-16.8-28.4-23.5c-25.3-16.4-37.8-15.6-56.3,8.1c-22.7,29-43.9,59.3-63.5,90.5c-16.5,26.3-14.1,38.3,6.5,62.3
	c7.1,8.2,15.1,15.9,23.7,22.6c32.8,25.6,44.7,24.9,73.1-4.8c18.7-19.6,36.6-40.1,57.7-63.2c18.1,15.8,31.2,27.7,44.8,38.9
	L2231.8,964.1z M2548.3,735.8c20,15.7,32.1,16.7,51-0.7c17.6-16.4,33.6-36,45.4-56.9c25.6-45.3,15.9-86.3-24.3-119.5
	c-27.5-22.6-44.3-22.7-65.6,5.4c-26.3,34.6-49.4,71.6-76.6,111.6C2505,698.8,2525.9,718.3,2548.3,735.8L2548.3,735.8z M1072-77.3
	c22,13.5,32.6,11.8,49.4-9c15.3-18.9,29.3-39.4,40.7-60.9c21.7-40.8,11.4-83.9-24.7-112.8c-23-18.4-44.5-18.1-64.6,4.5
	c-28.9,32.6-53.5,68.4-69.6,109.4c14.7,32.1,40.9,51.6,68.8,68.7L1072-77.3z M2408,452.9c21.6-39.3,10.6-88.8-25.6-115.2
	c-22.5-16.4-43.8-16.9-61.2,4.6c-23.7,29.5-43.8,61.9-65,93.3c-11.2,16.5-6.9,30.5,8.4,42.4c23.5,18.3,46.8,37.1,71.7,56.9
	C2371.5,508.2,2388.6,488.2,2408,452.9L2408,452.9z M2879.9,2421c-20.3-16.7-30.5-16.7-50.5-0.6c-31.4,25.2-53.7,57.5-68.5,94.7
	c-6.2,15.5-7.9,32.4,6.7,45.3c18.3,16.1,36.5,32.8,56.5,46.5c7.2,5,23.4,7,29.2,2.4c37.1-29.3,64.4-65.6,71.3-111.4
	C2924.6,2461.2,2903.2,2440.2,2879.9,2421L2879.9,2421z M1744.7,148.2c33.9-48.1,21-102.2-28.5-133.9c-12.6-8.1-25.4-11.8-37.6-1.5
	c-35.9,30.2-65.8,64.9-80.1,110.9c-5.2,16.8-0.1,29.4,12.9,39.5c22.4,17.4,45.1,34.6,72,55.2C1704.3,194.7,1727,173.2,1744.7,148.2
	L1744.7,148.2z M2151.2,786.9c22.9,17.3,47.4,17.8,67.8-0.8c63.8-58.2,76.8-109.2,13.2-168.9c-1-0.9-2-1.9-3-2.8
	c-26.9-23.6-39-24.2-59.8,5.4c-25,35.5-46,73.7-71.8,115.5C2118.2,755.4,2133.2,773.3,2151.2,786.9L2151.2,786.9z M636.7,788.6
	c17.2-40.8,1.7-91.7-35.3-115.9c-20.4-13.3-34.4-13.9-50.6,4.9c-23.9,27.8-46.2,57.4-66.2,88.1c-15.3,23.5-13.3,31.2,6.7,49.9
	c21.8,20.3,45.5,38.7,69.4,58.8c34-23.9,65.2-60,76.1-85.9L636.7,788.6z M927,2843.8c22,19.9,31,19.2,51.1-3.4
	c14.4-16.1,27.5-33.9,38.6-52.5c30.2-50.6,18.7-96.4-31.1-129.6c-20.1-13.4-30.6-13.5-46.3,4.4c-29.5,33.8-57.1,69.1-77.1,115.8
	C884.8,2801.5,904.8,2823.9,927,2843.8L927,2843.8z M314.8,3773.1v-204.4h-41.3v204.4H314.8z M405.6,3773.1v-85.3h8.4
	c9.5,0,16.4,0.8,20.8,2.3s8.5,4.4,12.4,8.5s11.2,14.2,21.8,30.1l29.8,44.5h49.4l-25-39.9c-9.9-15.9-17.7-27-23.5-33.2
	s-13.2-11.9-22.1-17.2c17.9-2.6,31.4-8.9,40.4-18.9s13.5-22.7,13.5-38s-3-22.8-8.9-32.2s-13.9-15.9-23.8-19.6
	c-9.9-3.7-25.8-5.5-47.6-5.5h-86.9v204.4L405.6,3773.1L405.6,3773.1z M405.6,3603.3h32.2c16.7,0,26.8,0.2,30.1,0.7
	c6.7,1.1,11.9,3.8,15.5,8c3.7,4.2,5.5,9.8,5.5,16.7s-1.4,11.2-4.2,15.3c-2.8,4.1-6.6,7-11.6,8.7c-4.9,1.7-17.3,2.5-37.1,2.5h-30.5
	v-51.9H405.6z M683,3568.7h-43.7l-79.6,204.4h43.8l16.9-46.4h81.7l17.9,46.4h44.9L683,3568.7L683,3568.7z M633.1,3692.2l27.6-75.9
	l28.2,75.9H633.1z M835.5,3773.1v-133.3l82.4,133.3h41.4v-204.4h-38.4v136.5l-83.7-136.5H797v204.4H835.5L835.5,3773.1z
	 M1184.3,3568.7h-43.7l-79.6,204.4h43.8l16.9-46.4h81.7l17.9,46.4h44.9L1184.3,3568.7L1184.3,3568.7z M1134.4,3692.2l27.6-75.9
	l28.2,75.9H1134.4L1134.4,3692.2z M1339.5,3773.1v-85.3h8.4c9.5,0,16.4,0.8,20.8,2.3s8.5,4.4,12.4,8.5s11.2,14.2,21.8,30.1
	l29.8,44.5h49.4l-25-39.9c-9.9-15.9-17.7-27-23.5-33.2s-13.2-11.9-22.1-17.2c17.9-2.6,31.4-8.9,40.4-18.9s13.5-22.7,13.5-38
	s-3-22.8-8.9-32.2s-13.9-15.9-23.8-19.6c-9.9-3.7-25.8-5.5-47.6-5.5h-86.9v204.4L1339.5,3773.1L1339.5,3773.1z M1339.5,3603.3h32.2
	c16.7,0,26.8,0.2,30.1,0.7c6.7,1.1,11.9,3.8,15.5,8c3.7,4.2,5.5,9.8,5.5,16.7s-1.4,11.2-4.2,15.3c-2.8,4.1-6.6,7-11.6,8.7
	c-4.9,1.7-17.3,2.5-37.1,2.5h-30.5L1339.5,3603.3L1339.5,3603.3z M1598.7,3773.1v-85.8l75.2-118.7h-47.6l-47.1,80.9l-48.1-80.9
	h-48.4l74.9,118.4v86h41.1V3773.1z M1780.7,3568.7H1737l-79.6,204.4h43.8l16.9-46.4h81.7l17.9,46.4h44.9L1780.7,3568.7
	L1780.7,3568.7z M1730.7,3692.2l27.6-75.9l28.2,75.9H1730.7L1730.7,3692.2z M2049.9,3773.1v-34.4h-114.2v-55.6h102.6v-34.4h-102.6
	v-45.3H2046v-34.6h-151.6v204.4L2049.9,3773.1L2049.9,3773.1z M2250.5,3773.1v-34.4h-114.2v-55.6h102.6v-34.4h-102.6v-45.3h110.3
	v-34.6H2095v204.4L2250.5,3773.1L2250.5,3773.1z M2414.9,3773.1v-204.4h-41.3v204.4H2414.9z M2503,3773.1v-133.3l82.4,133.3h41.4
	v-204.4h-38.4v136.5l-83.7-136.5h-40.2v204.4h38.4H2503z M2767.9,3773.1v-169.9h60.5v-34.6h-162.5v34.6h60.7v169.9H2767.9z
	 M2867.3,3773.1v-39.2h-39.2v39.2H2867.3z M3000.1,3773.1v-169.9h60.5v-34.6h-162.5v34.6h60.7v169.9H3000.1z M3193.5,3773.1
	l73.2-204.4h-43.8l-50.1,151.3l-51.7-151.3h-44.8l73.1,204.4H3193.5z"/>
</svg>
