<?xml version="1.0" encoding="utf-8"?>
<!-- Generator: Adobe Illustrator 27.7.0, SVG Export Plug-In . SVG Version: 6.00 Build 0)  -->
<svg version="1.1" id="Layer_1" xmlns="http://www.w3.org/2000/svg" xmlns:xlink="http://www.w3.org/1999/xlink" x="0px" y="0px"
	 viewBox="0 0 3500 3500" style="enable-background:new 0 0 3500 3500;" xml:space="preserve">
<style type="text/css">
	.st0{fill:#D81B60;}
</style>
<g>
	<path class="st0" d="M1036.5,793.4h28.8c79.8,4.8,149.5,32,209.1,81.5c122.1,101.4,158.7,272.5,93.4,414.8
		c-6,13-13.8,27.8-23.4,44.4c-228.3,394.7-455.7,788.7-682.1,1181.9c-10.1,17.6-19,31.8-26.6,42.6c-62.8,89-163.4,142.9-272.5,147.5
		c-77.6,3.3-157.6-21.6-217.6-65.5C56.3,2575.4,7.8,2485.6,0,2371.2v-30.8c3.3-57.6,18.7-110.3,46.3-158.2
		c233.1-403.9,466.2-807.8,699.3-1211.7C807,864.2,913.1,800.4,1036.5,793.4z"/>
	<path class="st0" d="M2086.5,793.4h28.4c97.8,6,178.9,43.9,243.3,113.7c102.8,111.4,120.4,280.5,44.9,411.3
		c-233.2,404-466.3,808-699.5,1212.1c-81.9,141.8-252.7,210.4-410.6,159.2c-212-68.7-307.9-314.8-196.1-508.5
		c232.4-402.6,461-799,686-1189c12.8-22.1,22.8-38.3,29.9-48.6C1876.8,852.3,1973.4,800.4,2086.5,793.4z"/>
	<path class="st0" d="M3136.4,793.4h28.4c186.6,11,326.8,154,335.1,340.7v20.6c-2.5,59.3-17.9,113.5-46.3,162.7
		c-232.2,402.4-464.5,804.8-696.7,1207.1c-30.1,52.1-66.8,92.6-110.4,121.4c-117.9,78.2-266.9,81.3-385.9,4.7
		c-156.8-101-207.6-307.1-113.4-470.4c232.7-403.2,465.4-806.4,698.1-1209.6C2906.5,864.8,3013.1,799.8,3136.4,793.4z"/>
</g>
</svg>
