<?xml version="1.0" encoding="utf-8"?>
<!-- Generator: Adobe Illustrator 27.7.0, SVG Export Plug-In . SVG Version: 6.00 Build 0)  -->
<svg version="1.1" id="Layer_1" xmlns="http://www.w3.org/2000/svg" xmlns:xlink="http://www.w3.org/1999/xlink" x="0px" y="0px"
	 viewBox="0 0 3500 3500" style="enable-background:new 0 0 3500 3500;" xml:space="preserve">
<style type="text/css">
	.st0{fill:none;stroke:#82014B;stroke-width:2;}
	.st1{fill:none;stroke:#670C40;stroke-width:2;}
	.st2{fill:none;stroke:#600B3C;stroke-width:2;}
	.st3{fill:none;stroke:#550B36;stroke-width:2;}
	.st4{fill:none;stroke:#700041;stroke-width:2;}
	.st5{fill:none;stroke:#5A0035;stroke-width:2;}
	.st6{fill:none;stroke:#49002C;stroke-width:2;}
	.st7{fill:none;stroke:#3E0026;stroke-width:2;}
	.st8{fill:none;stroke:#EB8709;stroke-width:2;}
	.st9{fill:none;stroke:#F1A412;stroke-width:2;}
	.st10{fill:none;stroke:#F3AD15;stroke-width:2;}
	.st11{fill:none;stroke:#FBD321;stroke-width:2;}
	.st12{fill:none;stroke:#F8C41C;stroke-width:2;}
	.st13{fill:none;stroke:#F09E10;stroke-width:2;}
	.st14{fill:none;stroke:#F4AF16;stroke-width:2;}
	.st15{fill:none;stroke:#F5B518;stroke-width:2;}
	.st16{fill:none;stroke:#EF980F;stroke-width:2;}
	.st17{fill:none;stroke:#F2A713;stroke-width:2;}
	.st18{fill:none;stroke:#EC8F0C;stroke-width:2;}
	.st19{fill:none;stroke:#F2A613;stroke-width:2;}
	.st20{fill:#88024F;}
	.st21{fill:#451530;}
	.st22{fill:#7B0047;}
	.st23{fill:#64003B;}
	.st24{fill:#4F002F;}
	.st25{fill:#430029;}
	.st26{fill:#380023;}
	.st27{fill:#E87D06;}
	.st28{fill:#FDDC24;}
	.st29{fill:#F9CA1E;}
	.st30{fill:#F7BE1A;}
	.st31{fill:#ED900C;}
	.st32{fill:#F3AC15;}
	.st33{fill:#F0A011;}
</style>
<g>
	<path vector-effect="non-scaling-stroke" class="st0" d="M2499.2,279.4c-7,21.2-22.7,28.8-47.3,22.7c-2.2-0.6-3.8,0.1-4.8,2.2
		l-1.8,3.6c-2.2,3.9-5.4,5.8-9.8,5.8h-25.8c-4.1,0-6.6,2-7.6,6c-0.2,0.9-0.8,1.7-1.6,2.2c-2.5,1.7-5.2,2.6-8.2,2.7
		c-9.3,0.1-19.2-0.1-29.6-0.5c-2-0.1-3.7,1.4-3.8,3.5c0,0.3,0,0.6,0.1,0.9c0.4,1.7,0,2.9-1.2,3.9c-2.9,2.3-6.2,3.4-10.1,3.2
		c-9-0.3-17.6-0.5-25.8-0.5c-1.9,0-3.2,0.8-4.1,2.5c-0.4,0.9-0.9,1.7-1.3,2.6c-1.9,3.4-4.7,5.1-8.6,5.3c-15,0.3-28.8,3.4-41.5,9.3
		c-4.9,2.3-10,2.9-15.3,1.9c-4.1-0.9-7.3,0.5-9.7,4.1c-4.5,6.9-11.3,9.2-20.4,7c-2.6-0.6-5.3-0.7-8-0.2l-24.4,4.5"/>
	<path vector-effect="non-scaling-stroke" class="st1" d="M2188.4,371.9c-44.4-79.9-102.2-148.7-173.2-206.4
		c-21.5-17.5-69.5-51.3-143.8-101.3c-35.3-23.8-66.3-36.3-93.2-37.7"/>
	<path vector-effect="non-scaling-stroke" class="st2" d="M2188.4,371.9c54.9,103.3,70.5,212.6,47.1,327.8"/>
	<path vector-effect="non-scaling-stroke" class="st3" d="M2235.5,699.7c-56.8,234-279.8,397.1-481.5,497.6
		c-1.7,0.8-3.8,0.1-4.6-1.6c-0.2-0.5-0.4-1-0.3-1.5c0.1-8.5-5.1-14.6-4.8-24.2c0.9-53.7,0.1-108.9-2.4-165.7"/>
	<path vector-effect="non-scaling-stroke" class="st4" d="M2741.5,538.9c-5.2,4.5-6.1,8.9-2.7,13.1c5,6.2,3.6,9.3-4.4,9.3h-10.3
		c-3.6,0-7.1,1.6-9.4,4.3c-6.2,7.2-15.5,9.2-27.9,6.1c-5.5-1.4-10.3-0.1-14.4,4c-7.9,8-19,10.2-33.2,6.4c-3.8-0.9-7.7,0.6-9.8,3.9
		c-4.9,7.9-12.8,10.3-23.7,7.2c-2.8-0.8-5.8,0.1-7.8,2.3c-0.9,1-1.7,2.1-2.2,3.3c-1.6,3.7-4.4,5.6-8.5,5.6h-26.9c-4.2,0-6.7,2-7.6,6
		c-0.2,1.1-0.9,2-1.9,2.6c-2.4,1.3-5,2-7.6,2c-8.3,0.2-17.1,0.2-26.3-0.1c-3.9-0.1-6.3,1.8-7.1,5.7c-0.2,1.1-0.8,2-1.8,2.7
		c-2.5,1.7-5.2,2.6-8.1,2.6c-8.2,0.1-16.8,0-25.7-0.2c-3.9-0.1-6.4,1.8-7.3,5.7c-0.3,1.4-1,2.4-2.2,3c-2.9,1.6-6,2.4-9.3,2.4
		c-9.5-0.1-18.6-0.2-27-0.3c-1.3,0-2.3,0.6-2.9,1.7l-1.8,3.4c-2.1,3.9-5.3,5.8-9.7,5.8h-26.2c-2.3,0-4.4,1.1-5.6,3
		c-5.3,7.8-13.2,10.3-23.7,7.5c-3.4-1-6.2-0.1-8.4,2.8c-6.6,8.8-17.1,11.3-31.3,7.5c-4.5-1.2-8.3,0-11.4,3.6
		c-7.2,8.3-17.8,10.7-32,7.4c-5.6-1.4-8.4,0.9-8.4,6.7v6.9c0,4.4-2.2,6.6-6.6,6.7l-24.9,0.1"/>
	<path vector-effect="non-scaling-stroke" class="st5" d="M2961.5,1279.7c-3,2.8-4.7,7.3-5,13.5c-0.2,4.5-2.4,7.4-6.7,8.8
		c-7,2.4-14.5,2.8-22.3,1.2c-3.6-0.7-7.1,1.3-8.3,4.7l-1,2.8c-0.9,2.7-2.8,4-5.6,4H2881c-1.7,0-3,0.8-3.8,2.4
		c-0.6,1-1.1,2.1-1.6,3.2c-1.7,3.4-4.4,5.2-8.2,5.2H2838c-1.9,0-3.2,0.8-4,2.4c-0.5,1-1,2-1.4,2.9c-1.6,3.7-4.3,5.5-8.3,5.5h-27
		c-3,0-5.3,1.3-7,3.8c-4.5,7.2-11.3,9.4-20.4,6.8c-6-1.8-10.3,0.1-12.8,5.7c-1.7,3.5-4.4,5.3-8.3,5.3h-29.4c-1.7,0-3,0.8-3.9,2.4
		c-0.5,1.1-1,2.1-1.5,3.1c-1.7,3.5-4.4,5.3-8.2,5.3h-29.5c-1.7,0-3,0.8-3.8,2.4c-0.6,1-1.1,2-1.6,3.1c-1.7,3.5-4.4,5.3-8.2,5.3
		h-29.5c-1.7,0-3,0.8-3.8,2.3c-0.6,1.1-1.1,2.2-1.6,3.2c-1.7,3.5-4.4,5.3-8.2,5.3h-29.5c-1.7,0-3,0.8-3.9,2.4c-0.5,1-1,2-1.5,3.1
		c-1.7,3.5-4.4,5.3-8.2,5.3h-29.4c-1.8,0-3.1,0.8-4,2.4c-0.5,1-1,2-1.4,3c-1.7,3.6-4.4,5.4-8.3,5.4h-27.2c-2.9,0-5.2,1.3-6.8,3.8
		c-4.5,7.3-11.2,9.5-20.4,6.8c-6-1.8-10.3,0.1-12.9,5.7c-1.6,3.5-4.3,5.3-8.1,5.3h-29.4c-1.8,0-3.1,0.8-3.9,2.3
		c-0.6,1.1-1.1,2.2-1.6,3.2c-1.7,3.5-4.4,5.3-8.2,5.3h-29.5c-1.7,0-3,0.8-3.8,2.3c-0.6,1.1-1.1,2.2-1.6,3.2
		c-1.7,3.5-4.4,5.3-8.2,5.3h-29.5c-1.7,0-3,0.8-3.8,2.4c-0.6,1-1.1,2.1-1.6,3.2c-1.7,3.4-4.4,5.2-8.2,5.2h-29.5
		c-1.7,0-3,0.8-3.8,2.4c-0.6,1-1.1,2.1-1.6,3.2c-1.7,3.4-4.4,5.2-8.2,5.2h-29.4c-1.8,0-3.1,0.8-4,2.4c-0.5,1-1,2-1.4,3
		c-1.6,3.6-4.3,5.4-8.3,5.4h-27c-3,0-5.3,1.3-7,3.8c-4.5,7.2-11.3,9.4-20.2,6.8c-6.1-1.8-10.4,0.1-13,5.8c-1.6,3.4-4.3,5.2-8.1,5.2
		H2138c-1.8,0-3.1,0.8-3.9,2.3c-0.6,1.1-1.1,2.2-1.6,3.2c-1.7,3.5-4.4,5.3-8.2,5.3h-29.5c-1.7,0-3,0.8-3.8,2.4
		c-0.6,1.1-1.1,2.2-1.6,3.2c-1.7,3.4-4.4,5.2-8.2,5.2h-29.5c-1.7,0-3,0.8-3.8,2.4c-0.6,1-1.1,2.1-1.6,3.2c-1.7,3.4-4.4,5.2-8.2,5.2
		h-29.4c-1.9,0-3.2,0.8-4,2.4c-0.5,0.9-0.9,1.9-1.3,2.9c-1.7,3.7-4.5,5.5-8.4,5.5h-27c-3,0-5.3,1.3-7,3.8
		c-4.5,7.2-11.3,9.4-20.2,6.8c-6.1-1.8-10.4,0.1-13,5.8c-1.6,3.4-4.3,5.2-8.1,5.2h-29.5c-1.7,0-3,0.8-3.8,2.3
		c-0.6,1.1-1.1,2.2-1.6,3.2c-1.7,3.5-4.4,5.3-8.2,5.3h-29.5c-1.7,0-3,0.8-3.8,2.4c-0.6,1-1.1,2.1-1.6,3.2c-1.7,3.4-4.4,5.2-8.2,5.2
		h-29.5c-1.7,0-3,0.8-3.8,2.3c-0.6,1.1-1.1,2.2-1.6,3.3c-1.7,3.4-4.4,5.2-8.2,5.2H1761c-1.7,0-3,0.8-3.8,2.4c-0.6,1-1.1,2.1-1.6,3.2
		c-1.7,3.4-4.4,5.2-8.2,5.2H1718c-1.8,0-3.1,0.8-4,2.4c-0.5,1-1,2-1.4,3c-1.7,3.6-4.4,5.4-8.3,5.4h-27.1c-3,0-5.3,1.3-6.9,3.8
		c-4.5,7.3-11.2,9.5-20.2,6.8c-6.1-1.8-10.4,0.1-13,5.7c-1.6,3.5-4.3,5.3-8.1,5.3h-29.5c-1.7,0-3,0.8-3.8,2.3
		c-0.6,1.1-1.1,2.2-1.6,3.2c-1.7,3.5-4.4,5.3-8.2,5.3h-29.5c-1.7,0-3,0.8-3.8,2.4c-0.6,1-1.1,2.1-1.6,3.2c-1.7,3.4-4.4,5.2-8.2,5.2
		h-29.5c-1.7,0-3,0.8-3.8,2.4c-0.6,1-1.1,2.1-1.6,3.2c-1.7,3.4-4.4,5.2-8.2,5.2h-29.5c-1.8,0-3.1,0.8-3.9,2.4c-0.5,1-1,2-1.5,3.1
		c-1.6,3.5-4.3,5.3-8.2,5.3h-29.4c-1.9,0-3.2,0.8-4,2.5c-0.5,0.9-0.9,1.9-1.3,2.8c-1.7,3.7-4.5,5.5-8.4,5.5h-26.9
		c-3.1,0-5.5,1.3-7.1,3.9c-4.5,7.1-11.2,9.3-20.1,6.7c-6.2-1.8-10.6,0.1-13.1,5.8c-1.6,3.4-4.3,5.2-8.1,5.2h-29.5
		c-1.7,0-3,0.8-3.8,2.3c-0.6,1.1-1.1,2.2-1.6,3.2c-1.6,3.5-4.3,5.3-8.2,5.3h-29.6c-3.4,0-5.1,1.7-5.3,5.1c-0.1,1.3-0.5,2.3-1.4,3
		c-2.7,2.2-5.7,3.2-9.3,2.8c-12.8-1.4-24.3,1.2-34.6,7.6c-3.2,2-6.7,3-10.4,3h-22.8c-3.7,0-6.2,1.7-7.8,5c-2.4,5.3-6.7,7.4-12.9,6.1
		c-3.8-0.8-7.6-0.8-11.4,0.1c-9.6,2.2-18.8,1.7-27.6-1.7"/>
	<path vector-effect="non-scaling-stroke" class="st4" d="M1026.4,1625.2l-4.8-212.7c-0.1-3.7-1.7-6.3-5-7.9l-12.8-6.2"/>
	<path vector-effect="non-scaling-stroke" class="st6" d="M2910.3,1594.6c-7.5-14.3-18.1-13.8-33.2-13.6c-5.7,0.1-10.2,2.7-13.6,7.8
		c-1.7,2.5-4.1,3.8-7.1,3.8h-26.8c-4.7,0-7.6,2.3-8.7,6.8c-0.3,1-0.9,1.8-1.7,2.3c-3.9,2.4-8.1,3.1-12.8,2
		c-13.4-3.2-23.5-0.6-30.6,7.8c-2.7,3.2-7,4.5-10.9,3.3c-12.9-3.7-23.2-1.5-31,6.4c-4.1,4.2-9,5.6-14.8,4.1
		c-12.5-3.2-22.2-0.8-29.2,7.4c-2.9,3.4-7.4,4.8-11.6,3.7c-14.4-3.7-24.8-1.3-31.3,7.4c-2.1,2.7-5.6,3.9-8.9,3
		c-9.6-2.7-17-0.6-22.2,6c-2.2,2.8-5,4.2-8.4,4.2l-30.7,0.6c-2.3,0.1-4,1.9-4,4.1c0,0.4,0.1,0.8,0.2,1.1c0.5,1.6,0.2,2.7-1,3.4
		c-4.2,2.4-8.9,3.1-14,1.8c-12.6-2.9-22.1-0.6-28.8,6.7c-3.9,4.3-8.7,5.7-14.3,4.3c-12.4-3.2-22-1-28.8,6.4c-4,4.5-8.9,5.9-14.8,4.4
		c-12.1-3.2-21.5-1-28.2,6.4c-4.1,4.5-9,5.9-14.9,4.4c-11.8-3.1-21.1-1.1-27.9,5.8c-2.4,2.4-5.3,3.8-8.7,4l-59.8,3.6
		c-1.4,0.1-2.5,0.6-3.6,1.7c-1,1.1-1.7,2.3-2,3.8c-0.6,3.2-2.6,4.7-5.8,4.7h-27.2c-3.5,0-6.4,1.3-8.7,4c-6.7,7.5-16.2,9.7-28.4,6.4
		c-5.7-1.5-10.6-0.1-14.6,4.3c-6.7,7.5-16.3,9.7-28.8,6.5c-5.5-1.5-10.2-0.1-14.1,4.2c-6.8,7.5-16.4,9.8-28.6,6.7
		c-5.6-1.4-10.4-0.1-14.5,4c-7.8,8-18.9,10.1-33.2,6.5c-3.8-1-7.8,0.6-9.9,4c-4.8,7.7-12.4,10.1-22.8,7.2c-3.7-1.1-6.6-0.1-8.8,3
		c-6.5,8.6-16.5,11.1-29.9,7.4c-5.4-1.4-9.9-0.1-13.5,4.1c-6.9,7.9-16.6,10.1-29.2,6.7c-5.1-1.4-10.5,0.2-14,4.2
		c-6.9,7.8-16.7,10-29.5,6.6c-5.3-1.4-9.8,0-13.5,4.1c-7,7.8-16.7,10.1-29.3,6.8c-5.5-1.5-10.2-0.1-14,4.2
		c-6.8,7.6-16.4,9.8-28.8,6.6c-5.7-1.5-10.6,0-14.5,4.4c-6.7,7.5-16.1,9.6-28.1,6.4c-6.3-1.7-11.5,0-15.6,5.2
		c-5.1,6.4-12.3,8.3-21.5,5.8c-3.9-1-7.1,0.1-9.6,3.2c-6.6,8.5-16.4,10.9-29.3,7.3c-5.6-1.6-10.3-0.2-14.1,4.2
		c-6.8,7.6-16.5,9.8-29,6.6c-5.6-1.4-10.3,0-14.2,4.3c-6.8,7.6-16.5,9.8-29.1,6.5c-5.4-1.5-10-0.1-13.8,4.1
		c-6.8,7.7-16.7,9.9-29.6,6.8c-4.7-1.1-8.8-0.1-12.3,3c-11.1,10-25.3,12.1-42.5,6.5c-0.6-0.2-1.3-0.5-1.8-1c-0.8-0.6-1-1.4-0.8-2.4
		c1.4-3.8,1-4-1.2-0.5c-3.5,5.7-9.9,7.5-19.3,5.5c-4.1-0.9-7.6,0.2-10.6,3.2l-15.1,15.3c-3,3-6.6,4-10.7,3c-9.3-2.4-16-0.3-20.2,6.6
		c-1.7,2.8-4.2,4.2-7.5,4.2H1464c-3.5,0-6.4,1.3-8.7,4c-6.6,7.6-16.7,9.7-30.3,6.1c-4.7-1.2-8.7,0-11.7,3.7
		c-7.1,8.3-17.1,10.8-30,7.3c-5.4-1.4-9.9-0.1-13.7,4.1c-6.8,7.7-16.4,9.9-28.8,6.8c-5.6-1.4-10.4-0.1-14.5,4
		c-7.8,8-18.6,10.1-32.4,6.5c-4.4-1.1-9,0.7-11.4,4.6c-3.9,6.6-9.8,8.9-17.4,7c-4.7-1.1-9-0.2-12.8,2.8l-17,13.1
		c-3.1,2.4-6.6,3.3-10.6,2.6c-8.3-1.6-14.8,0.6-19.3,6.6c-2.3,3-5.3,4.5-9.2,4.5h-27.4c-3.2,0-5.1,1.6-5.7,4.7
		c-0.4,1.8-1.3,3.2-2.8,4.2c-2.4,1.5-4.9,2-7.6,1.6c-13.9-2.1-26.6,1.2-37.9,9.8"/>
	<path vector-effect="non-scaling-stroke" class="st0" d="M784.9,1962.8c-5.9,0.5-6.4-3.9-1.5-13.1c1.7-3.2,2.6-6.6,2.6-10.2
		l-0.9-299.4c0-10.1-3.3-11.2-9.8-3.6c-5.2,6.2-10,6.4-14.4,0.5"/>
	<path vector-effect="non-scaling-stroke" class="st7" d="M2800.8,1855.2c-15.1-6-26.9-4.6-35.4,4.2c-2.4,2.4-5.2,3.7-8.6,3.7h-25.3
		c-3.2,0-5.3,1.5-6.5,4.4l-1.1,2.8c-0.9,2.4-2.5,3.6-5.1,3.6h-30.5c-3.2,0-5.3,1.5-6.5,4.4l-1.1,2.8c-0.9,2.4-2.5,3.6-5.1,3.6h-30.5
		c-3.2,0-5.3,1.5-6.5,4.4l-1.1,2.8c-0.9,2.4-2.5,3.6-5.1,3.6h-31.8c-2.3,0-3.8,1.1-4.4,3.2c-0.4,1.2-0.9,2.3-1.5,3.3
		c-1.9,2.8-4.5,4.2-7.9,4.2h-24.9c-3.9,0-7.1,1.6-9.4,4.7c-4.5,6.2-10.8,8.3-19,6.1c-3.9-1.1-7.6-0.6-11.1,1.3
		c-1.6,0.8-2.6,2-3.1,3.7c-1.1,3.8-3.7,5.7-7.6,5.7h-28.3c-3.2,0-5.3,1.5-6.5,4.4l-1.1,2.8c-0.9,2.4-2.5,3.6-5.1,3.6h-30.5
		c-3.2,0-5.3,1.5-6.5,4.4l-1.1,2.8c-0.9,2.4-2.5,3.6-5.1,3.6h-30.5c-3.2,0-5.3,1.5-6.5,4.4l-1.1,2.8c-0.9,2.4-2.5,3.6-5.1,3.6h-30.5
		c-3.2,0-5.3,1.5-6.5,4.4l-1.1,2.8c-0.9,2.4-2.5,3.6-5.1,3.6h-31.7c-2.2,0-3.7,1-4.4,3.1c-0.4,1.1-0.9,2.2-1.5,3.2
		c-1.8,2.9-4.4,4.4-7.9,4.4h-25c-3.9,0-7.1,1.6-9.4,4.8c-4.5,6.2-10.7,8.2-18.8,6c-4-1.1-7.9-0.7-11.5,1.4c-1.4,0.9-2.3,2-2.8,3.6
		c-1.1,3.8-3.7,5.7-7.6,5.7h-28.3c-3.2,0-5.3,1.5-6.5,4.4l-1.1,2.8c-0.9,2.4-2.5,3.6-5.1,3.6h-30.5c-3.2,0-5.3,1.5-6.5,4.4l-1.1,2.8
		c-0.9,2.4-2.5,3.6-5.1,3.6h-30.5c-3.2,0-5.3,1.5-6.5,4.4l-1.1,2.8c-0.9,2.4-2.5,3.6-5.1,3.6h-30.5c-3.2,0-5.3,1.5-6.5,4.4l-1.1,2.8
		c-0.9,2.4-2.5,3.6-5.1,3.6h-31.6c-2,0-3.5,0.9-4.4,2.8c-0.6,1.1-1.1,2.2-1.6,3.3c-1.5,3-4,4.6-7.4,4.6l-26.9,0.1
		c-3.4,0-6,1.4-7.9,4.3c-4.1,6.5-10.2,8.7-18.4,6.5c-4.1-1.1-8.4-0.5-12,1.6c-1.4,0.8-2.4,1.9-2.9,3.4c-1.1,3.7-3.7,5.6-7.6,5.6
		h-28.2c-3.2,0-5.3,1.5-6.5,4.4l-1.1,2.8c-0.9,2.4-2.5,3.6-5.1,3.6h-30.5c-3.2,0-5.3,1.5-6.5,4.4l-1.1,2.8c-0.9,2.4-2.5,3.6-5.1,3.6
		H1816c-3.2,0-5.3,1.5-6.5,4.4l-1.1,2.8c-0.9,2.4-2.5,3.6-5.1,3.6h-31.7c-2.2,0-3.7,1.1-4.5,3.2c-0.4,1.1-0.8,2.2-1.4,3.2
		c-1.7,2.9-4.3,4.3-7.6,4.3h-25.1c-4,0-7.2,1.6-9.5,4.8c-4.5,6.2-10.7,8.1-18.8,5.9c-4-1.1-7.9-0.6-11.5,1.5c-1.4,0.9-2.3,2-2.8,3.6
		c-1.1,3.8-3.7,5.7-7.6,5.7h-28.3c-3.2,0-5.3,1.5-6.5,4.4l-1.1,2.8c-0.9,2.4-2.5,3.6-5.1,3.6h-30.5c-3.2,0-5.3,1.5-6.5,4.4l-1.1,2.8
		c-0.9,2.4-2.5,3.6-5.1,3.6h-30.5c-3.2,0-5.3,1.5-6.5,4.4l-1.1,2.8c-0.9,2.4-2.5,3.6-5.1,3.6h-30.5c-3.2,0-5.3,1.5-6.5,4.4l-1.1,2.8
		c-0.9,2.4-2.5,3.6-5.1,3.6h-31.8c-2.2,0-3.7,1.1-4.4,3.2c-0.4,1.2-0.9,2.3-1.6,3.3c-1.9,2.8-4.5,4.2-7.8,4.2h-24.8
		c-4,0-7.2,1.7-9.6,5c-4.4,6.1-10.6,8-18.7,5.8c-4-1.1-7.9-0.5-11.5,1.6c-1.4,0.8-2.3,1.9-2.8,3.4c-1.1,3.8-3.7,5.7-7.6,5.7h-28.3
		c-3.2,0-5.3,1.5-6.5,4.4l-1.1,2.8c-0.9,2.4-2.5,3.6-5.1,3.6h-30.5c-3.2,0-5.3,1.5-6.5,4.4l-1.1,2.8c-0.9,2.4-2.5,3.6-5.1,3.6h-30.5
		c-3.2,0-5.3,1.5-6.5,4.4l-1.1,3c-0.8,2-2.7,3.3-4.8,3.3h-29.3c-4.1,0-6.4,2-7,6.1c-0.4,2.7-0.2,5.3,0.5,7.9c1.6,5.3,0,6.5-4.7,3.7
		c-8.7-5.3-14.6-5.6-17.8-0.9"/>
	<path vector-effect="non-scaling-stroke" class="st8" d="M1265.6,2525.3c-1.7,1.7-4.4,2-8.3,1.1c-1-0.2-1.7-0.8-1.9-1.8
		c-0.4-1.8-1.5-2.4-3.2-1.7c-2.8,1-4.2,2.8-4.2,5.3c0.4,201.2,0.1,405-0.8,611.2"/>
	<path vector-effect="non-scaling-stroke" class="st9" d="M1247.2,3139.2l-129.6-135"/>
	<path vector-effect="non-scaling-stroke" class="st10" d="M1117.6,3004.2c-135-164.7-227-343-243.3-558
		c-13.8-182,17.1-361.1,92.7-537.4"/>
	<path vector-effect="non-scaling-stroke" class="st11" d="M1117.6,3004.2c-7,0.4-11.3-1.2-13.1-5c-1.1-2.4-2.9-3-5.2-1.6
		c-1.4,0.8-2.2,2.2-2.2,4.3c1,74.4-0.3,137.7-3.8,190"/>
	<path vector-effect="non-scaling-stroke" class="st10" d="M2947.1,2566.2c-62.7,206.9-171.4,375.2-325.9,505"/>
	<path vector-effect="non-scaling-stroke" class="st11" d="M2621.2,3071.2c5.6-137.8,7-278.2,4.3-421.4
		c-0.4-22.8,0.1-80.6,1.7-173.4c0.9-57.2-1.2-115.1-6.4-173.6"/>
	<path vector-effect="non-scaling-stroke" class="st9" d="M2621.2,3071.2c-77.5,62.9-154.5,112.6-231,149.3"/>
	<path vector-effect="non-scaling-stroke" class="st12" d="M2390.2,3220.4l-1.3-740.1"/>
	<path vector-effect="non-scaling-stroke" class="st13" d="M2390.2,3220.4l-149.5,63"/>
	<path vector-effect="non-scaling-stroke" class="st14" d="M2240.8,3283.4l-173.1,49.5"/>
	<path vector-effect="non-scaling-stroke" class="st15" d="M2067.7,3333c-1.5-231.5-1.9-461.6-1.3-690.3c0-1.1,0.2-2.1,0.5-3
		c0.2-0.6,0.6-1,1.1-1.3c5.2-3.4,4.6-5.1-1.6-5c-2.8,0.1-5.2,0.9-7.2,2.4c-2.4,1.7-4.9,2.1-7.6,1.1c-4.2-1.6-7.6-3.9-10.1-7"/>
	<path vector-effect="non-scaling-stroke" class="st16" d="M1597.4,2658.4c-5,1.4-8.8,3.1-11.6,5.2c-2.7,2-4.1,5.5-4.1,10.6
		c0.6,215.7,0.3,433-1.1,652"/>
	<path vector-effect="non-scaling-stroke" class="st17" d="M1580.6,3326.1l-136.3-51.9"/>
	<path vector-effect="non-scaling-stroke" class="st10" d="M1444.3,3274.2c-72.8-36.3-138.5-81.3-197.1-134.9"/>
	<path vector-effect="non-scaling-stroke" class="st18" d="M2242.3,3406.1l-1.5-122.7"/>
	<path vector-effect="non-scaling-stroke" class="st19" d="M2067.7,3333c-25.4,7.9-56,14.1-91.9,18.7c-14,1.9-28,4.3-42.1,7.4
		c-18,3.9-36.5,4.6-55.4,1.9c-3.8-0.5-5.7-2.7-5.7-6.6v-669.1c0-3.5,0.9-6.7,2.8-9.7l9.4-15.2"/>
	<path vector-effect="non-scaling-stroke" class="st14" d="M1851.1,3500c-0.1-5.1-2.4-8.9-6.7-11.4c-2.8-1.6-4.2-4-4.2-7.2v-110.3
		c0-5.2-4.2-9.5-9.5-9.5l0,0c-39.8-0.2-77.4,1.5-117.4-6c-12.4-2.4-28-5-46.7-7.8c-24.8-3.7-53.5-10.9-86-21.8"/>
	<path vector-effect="non-scaling-stroke" class="st12" d="M1444.3,3274.2l-0.5,137.4c-0.1,3.7-1.9,6.1-5.5,7l-17.8,4.6"/>
</g>
<path class="st20" d="M1754.7,0h12.2c8.3,2.9,26,6.5,53.1,10.7c68.1,10.3,148.8,28.8,242.1,55.2c153.1,43.4,312.8,112.2,437.1,213.4
	c-7,21.2-22.7,28.8-47.3,22.7c-2.2-0.6-3.8,0.1-4.8,2.2l-1.8,3.6c-2.2,3.9-5.4,5.8-9.8,5.8h-25.8c-4.1,0-6.6,2-7.6,6
	c-0.2,0.9-0.8,1.7-1.6,2.2c-2.5,1.7-5.2,2.6-8.2,2.7c-9.3,0.1-19.2-0.1-29.6-0.5c-2-0.1-3.7,1.4-3.8,3.5c0,0.3,0,0.6,0.1,0.9
	c0.4,1.7,0,2.9-1.2,3.9c-2.9,2.3-6.2,3.4-10.1,3.2c-9-0.3-17.6-0.5-25.8-0.5c-1.9,0-3.2,0.8-4.1,2.5c-0.4,0.9-0.9,1.7-1.3,2.6
	c-1.9,3.4-4.7,5.1-8.6,5.3c-15,0.3-28.8,3.4-41.5,9.3c-4.9,2.3-10,2.9-15.3,1.9c-4.1-0.9-7.3,0.5-9.7,4.1c-4.5,6.9-11.3,9.2-20.4,7
	c-2.6-0.6-5.3-0.7-8-0.2l-24.4,4.5c-44.4-79.9-102.2-148.7-173.2-206.4c-21.5-17.5-69.5-51.3-143.8-101.3
	c-35.3-23.8-66.3-36.3-93.2-37.7C1768.4,20.4,1760.6,11.6,1754.7,0z"/>
<path class="st21" d="M2188.4,371.9c54.9,103.3,70.5,212.6,47.1,327.8c-56.8,234-279.8,397.1-481.5,497.6c-1.7,0.8-3.8,0.1-4.6-1.6
	c-0.2-0.5-0.4-1-0.3-1.5c0.1-8.5-5.1-14.6-4.8-24.2c0.9-53.7,0.1-108.9-2.4-165.7c66.2-41.3,124.9-91.2,176.2-149.8
	c104.2-118.9,139.7-271.9,98.4-428c-40-151.5-133.1-286.6-238.1-400.1c26.9,1.4,57.9,13.9,93.2,37.7c74.3,50,122.2,83.8,143.8,101.3
	C2086.3,223.1,2144,292,2188.4,371.9z"/>
<path class="st22" d="M2499.2,279.4c92.7,75.5,173.5,162,242.3,259.5c-5.2,4.5-6.1,8.9-2.7,13.1c5,6.2,3.6,9.3-4.4,9.3h-10.3
	c-3.6,0-7.1,1.6-9.4,4.3c-6.2,7.2-15.5,9.2-27.9,6.1c-5.5-1.4-10.3-0.1-14.4,4c-7.9,8-19,10.2-33.2,6.4c-3.8-0.9-7.7,0.6-9.8,3.9
	c-4.9,7.9-12.8,10.3-23.7,7.2c-2.8-0.8-5.8,0.1-7.8,2.3c-0.9,1-1.7,2.1-2.2,3.3c-1.6,3.7-4.4,5.6-8.5,5.6h-26.9c-4.2,0-6.7,2-7.6,6
	c-0.2,1.1-0.9,2-1.9,2.6c-2.4,1.3-5,2-7.6,2c-8.3,0.2-17.1,0.2-26.3-0.1c-3.9-0.1-6.3,1.8-7.1,5.7c-0.2,1.1-0.8,2-1.8,2.7
	c-2.5,1.7-5.2,2.6-8.1,2.6c-8.2,0.1-16.8,0-25.7-0.2c-3.9-0.1-6.4,1.8-7.3,5.7c-0.3,1.4-1,2.4-2.2,3c-2.9,1.6-6,2.4-9.3,2.4
	c-9.5-0.1-18.6-0.2-27-0.3c-1.3,0-2.3,0.6-2.9,1.7l-1.8,3.4c-2.1,3.9-5.3,5.8-9.7,5.8h-26.2c-2.3,0-4.4,1.1-5.6,3
	c-5.3,7.8-13.2,10.3-23.7,7.5c-3.4-1-6.2-0.1-8.4,2.8c-6.6,8.8-17.1,11.3-31.3,7.5c-4.5-1.2-8.3,0-11.4,3.6
	c-7.2,8.3-17.8,10.7-32,7.4c-5.6-1.4-8.4,0.9-8.4,6.7v6.9c0,4.4-2.2,6.6-6.6,6.7l-24.9,0.1c23.5-115.2,7.8-224.5-47.1-327.8
	l24.4-4.5c2.6-0.5,5.3-0.4,8,0.2c9,2.2,15.8-0.1,20.4-7c2.4-3.6,5.6-5,9.7-4.1c5.3,1,10.4,0.4,15.3-1.9c12.6-5.9,26.5-9,41.5-9.3
	c3.9-0.1,6.7-1.9,8.6-5.3c0.4-0.9,0.9-1.7,1.3-2.6c0.9-1.7,2.2-2.5,4.1-2.5c8.3,0.1,16.9,0.3,25.8,0.5c3.9,0.1,7.3-0.9,10.1-3.2
	c1.1-0.9,1.5-2.2,1.2-3.9c-0.4-2,0.8-3.9,2.8-4.3c0.3-0.1,0.6-0.1,0.9-0.1c10.4,0.4,20.3,0.6,29.6,0.5c2.9-0.1,5.7-1,8.2-2.7
	c0.9-0.5,1.4-1.2,1.6-2.2c1-4,3.6-6,7.6-6h25.8c4.4,0,7.6-1.9,9.8-5.8l1.8-3.6c1.1-2,2.7-2.7,4.8-2.2
	C2476.5,308.1,2492.3,300.5,2499.2,279.4z"/>
<path class="st23" d="M2741.5,538.9c102.1,144.7,169.3,303.9,201.6,477.6c7.2,38.7,10.3,89.6,18.4,134.4v128.8
	c-3,2.8-4.7,7.3-5,13.5c-0.2,4.5-2.4,7.4-6.7,8.8c-7,2.4-14.5,2.8-22.3,1.2c-3.6-0.7-7.1,1.3-8.3,4.7l-1,2.8c-0.9,2.7-2.8,4-5.6,4
	H2881c-1.7,0-3,0.8-3.8,2.4c-0.6,1-1.1,2.1-1.6,3.2c-1.7,3.4-4.4,5.2-8.2,5.2H2838c-1.9,0-3.2,0.8-4,2.4c-0.5,1-1,2-1.4,2.9
	c-1.6,3.7-4.3,5.5-8.3,5.5h-27c-3,0-5.3,1.3-7,3.8c-4.5,7.2-11.3,9.4-20.4,6.8c-6-1.8-10.3,0.1-12.8,5.7c-1.7,3.5-4.4,5.3-8.3,5.3
	h-29.4c-1.7,0-3,0.8-3.9,2.4c-0.5,1.1-1,2.1-1.5,3.1c-1.7,3.5-4.4,5.3-8.2,5.3h-29.5c-1.7,0-3,0.8-3.8,2.4c-0.6,1-1.1,2-1.6,3.1
	c-1.7,3.5-4.4,5.3-8.2,5.3h-29.5c-1.7,0-3,0.8-3.8,2.3c-0.6,1.1-1.1,2.2-1.6,3.2c-1.7,3.5-4.4,5.3-8.2,5.3h-29.5
	c-1.7,0-3,0.8-3.9,2.4c-0.5,1-1,2-1.5,3.1c-1.7,3.5-4.4,5.3-8.2,5.3h-29.4c-1.8,0-3.1,0.8-4,2.4c-0.5,1-1,2-1.4,3
	c-1.7,3.6-4.4,5.4-8.3,5.4h-27.2c-2.9,0-5.2,1.3-6.8,3.8c-4.5,7.3-11.2,9.5-20.4,6.8c-6-1.8-10.3,0.1-12.9,5.7
	c-1.6,3.5-4.3,5.3-8.1,5.3h-29.4c-1.8,0-3.1,0.8-3.9,2.3c-0.6,1.1-1.1,2.2-1.6,3.2c-1.7,3.5-4.4,5.3-8.2,5.3h-29.5
	c-1.7,0-3,0.8-3.8,2.3c-0.6,1.1-1.1,2.2-1.6,3.2c-1.7,3.5-4.4,5.3-8.2,5.3h-29.5c-1.7,0-3,0.8-3.8,2.4c-0.6,1-1.1,2.1-1.6,3.2
	c-1.7,3.4-4.4,5.2-8.2,5.2h-29.5c-1.7,0-3,0.8-3.8,2.4c-0.6,1-1.1,2.1-1.6,3.2c-1.7,3.4-4.4,5.2-8.2,5.2h-29.4c-1.8,0-3.1,0.8-4,2.4
	c-0.5,1-1,2-1.4,3c-1.6,3.6-4.3,5.4-8.3,5.4h-27c-3,0-5.3,1.3-7,3.8c-4.5,7.2-11.3,9.4-20.2,6.8c-6.1-1.8-10.4,0.1-13,5.8
	c-1.6,3.4-4.3,5.2-8.1,5.2H2138c-1.8,0-3.1,0.8-3.9,2.3c-0.6,1.1-1.1,2.2-1.6,3.2c-1.7,3.5-4.4,5.3-8.2,5.3h-29.5
	c-1.7,0-3,0.8-3.8,2.4c-0.6,1.1-1.1,2.2-1.6,3.2c-1.7,3.4-4.4,5.2-8.2,5.2h-29.5c-1.7,0-3,0.8-3.8,2.4c-0.6,1-1.1,2.1-1.6,3.2
	c-1.7,3.4-4.4,5.2-8.2,5.2h-29.4c-1.9,0-3.2,0.8-4,2.4c-0.5,0.9-0.9,1.9-1.3,2.9c-1.7,3.7-4.5,5.5-8.4,5.5h-27c-3,0-5.3,1.3-7,3.8
	c-4.5,7.2-11.3,9.4-20.2,6.8c-6.1-1.8-10.4,0.1-13,5.8c-1.6,3.4-4.3,5.2-8.1,5.2h-29.5c-1.7,0-3,0.8-3.8,2.3
	c-0.6,1.1-1.1,2.2-1.6,3.2c-1.7,3.5-4.4,5.3-8.2,5.3h-29.5c-1.7,0-3,0.8-3.8,2.4c-0.6,1-1.1,2.1-1.6,3.2c-1.7,3.4-4.4,5.2-8.2,5.2
	h-29.5c-1.7,0-3,0.8-3.8,2.3c-0.6,1.1-1.1,2.2-1.6,3.3c-1.7,3.4-4.4,5.2-8.2,5.2H1761c-1.7,0-3,0.8-3.8,2.4c-0.6,1-1.1,2.1-1.6,3.2
	c-1.7,3.4-4.4,5.2-8.2,5.2H1718c-1.8,0-3.1,0.8-4,2.4c-0.5,1-1,2-1.4,3c-1.7,3.6-4.4,5.4-8.3,5.4h-27.1c-3,0-5.3,1.3-6.9,3.8
	c-4.5,7.3-11.2,9.5-20.2,6.8c-6.1-1.8-10.4,0.1-13,5.7c-1.6,3.5-4.3,5.3-8.1,5.3h-29.5c-1.7,0-3,0.8-3.8,2.3
	c-0.6,1.1-1.1,2.2-1.6,3.2c-1.7,3.5-4.4,5.3-8.2,5.3h-29.5c-1.7,0-3,0.8-3.8,2.4c-0.6,1-1.1,2.1-1.6,3.2c-1.7,3.4-4.4,5.2-8.2,5.2
	h-29.5c-1.7,0-3,0.8-3.8,2.4c-0.6,1-1.1,2.1-1.6,3.2c-1.7,3.4-4.4,5.2-8.2,5.2h-29.5c-1.8,0-3.1,0.8-3.9,2.4c-0.5,1-1,2-1.5,3.1
	c-1.6,3.5-4.3,5.3-8.2,5.3h-29.4c-1.9,0-3.2,0.8-4,2.5c-0.5,0.9-0.9,1.9-1.3,2.8c-1.7,3.7-4.5,5.5-8.4,5.5h-26.9
	c-3.1,0-5.5,1.3-7.1,3.9c-4.5,7.1-11.2,9.3-20.1,6.7c-6.2-1.8-10.6,0.1-13.1,5.8c-1.6,3.4-4.3,5.2-8.1,5.2h-29.5
	c-1.7,0-3,0.8-3.8,2.3c-0.6,1.1-1.1,2.2-1.6,3.2c-1.6,3.5-4.3,5.3-8.2,5.3h-29.6c-3.4,0-5.1,1.7-5.3,5.1c-0.1,1.3-0.5,2.3-1.4,3
	c-2.7,2.2-5.7,3.2-9.3,2.8c-12.8-1.4-24.3,1.2-34.6,7.6c-3.2,2-6.7,3-10.4,3h-22.8c-3.7,0-6.2,1.7-7.8,5c-2.4,5.3-6.7,7.4-12.9,6.1
	c-3.8-0.8-7.6-0.8-11.4,0.1c-9.6,2.2-18.8,1.7-27.6-1.7c54.9-185.3,183.8-341.5,351.1-437.1c1.2-0.7,1.5-1.7,1-2.9l-0.1-0.1
	c-0.6-1.3-1.5-1.7-2.8-1.1c-167.7,71.4-316,171.6-444.8,300.7l-4.8-212.7c-0.1-3.7-1.7-6.3-5-7.9l-12.8-6.2
	c97.8-73.9,202-137.7,312.6-191.5c57.1-27.8,132.5-60.6,226.3-98.5c59.4-24,125.7-58.7,199.1-104.1c2.4,56.8,3.2,112,2.4,165.7
	c-0.2,9.6,5,15.7,4.8,24.2c0,1.9,1.5,3.5,3.4,3.5c0.5,0,1.1-0.1,1.5-0.3c201.7-100.6,424.7-263.6,481.5-497.6l24.9-0.1
	c4.4-0.1,6.6-2.3,6.6-6.7V686c0-5.8,2.8-8,8.4-6.7c14.1,3.3,24.8,0.8,32-7.4c3.1-3.6,6.9-4.8,11.4-3.6c14.3,3.8,24.7,1.3,31.3-7.5
	c2.2-2.9,5-3.8,8.4-2.8c10.5,2.8,18.4,0.3,23.7-7.5c1.2-1.9,3.3-3,5.6-3h26.2c4.4,0,7.6-1.9,9.7-5.8l1.8-3.4
	c0.6-1.1,1.6-1.7,2.9-1.7c8.5,0.1,17.5,0.3,27,0.3c3.3,0,6.4-0.8,9.3-2.4c1.1-0.6,1.9-1.7,2.2-3c0.9-3.9,3.4-5.8,7.3-5.7
	c9,0.2,17.6,0.3,25.7,0.2c2.9,0,5.6-0.9,8.1-2.6c1-0.6,1.6-1.5,1.8-2.7c0.8-3.9,3.2-5.9,7.1-5.7c9.2,0.3,17.9,0.3,26.3,0.1
	c2.7-0.1,5.2-0.8,7.6-2c1.1-0.6,1.7-1.4,1.9-2.6c0.9-4,3.5-6,7.6-6h26.9c4.1,0,6.9-1.9,8.5-5.6c0.5-1.2,1.2-2.3,2.2-3.3
	c1.9-2.2,4.9-3.1,7.8-2.3c10.9,3.1,18.8,0.7,23.7-7.2c2.1-3.3,6-4.8,9.8-3.9c14.2,3.8,25.3,1.7,33.2-6.4c4.1-4.1,8.9-5.4,14.4-4
	c12.4,3.1,21.7,1,27.9-6.1c2.3-2.7,5.7-4.3,9.4-4.3h10.3c8,0,9.4-3.1,4.4-9.3C2735.5,547.8,2736.4,543.4,2741.5,538.9z"/>
<path class="st24" d="M2961.5,1279.7v43.4c-3.1,15.9-6.7,44.3-10.9,85c-5.1,50.1-18.6,112.3-40.4,186.5
	c-7.5-14.3-18.1-13.8-33.2-13.6c-5.7,0.1-10.2,2.7-13.6,7.8c-1.7,2.5-4.1,3.8-7.1,3.8h-26.8c-4.7,0-7.6,2.3-8.7,6.8
	c-0.3,1-0.9,1.8-1.7,2.3c-3.9,2.4-8.1,3.1-12.8,2c-13.4-3.2-23.5-0.6-30.6,7.8c-2.7,3.2-7,4.5-10.9,3.3c-12.9-3.7-23.2-1.5-31,6.4
	c-4.1,4.2-9,5.6-14.8,4.1c-12.5-3.2-22.2-0.8-29.2,7.4c-2.9,3.4-7.4,4.8-11.6,3.7c-14.4-3.7-24.8-1.3-31.3,7.4
	c-2.1,2.7-5.6,3.9-8.9,3c-9.6-2.7-17-0.6-22.2,6c-2.2,2.8-5,4.2-8.4,4.2l-30.7,0.6c-2.3,0.1-4,1.9-4,4.1c0,0.4,0.1,0.8,0.2,1.1
	c0.5,1.6,0.2,2.7-1,3.4c-4.2,2.4-8.9,3.1-14,1.8c-12.6-2.9-22.1-0.6-28.8,6.7c-3.9,4.3-8.7,5.7-14.3,4.3c-12.4-3.2-22-1-28.8,6.4
	c-4,4.5-8.9,5.9-14.8,4.4c-12.1-3.2-21.5-1-28.2,6.4c-4.1,4.5-9,5.9-14.9,4.4c-11.8-3.1-21.1-1.1-27.9,5.8c-2.4,2.4-5.3,3.8-8.7,4
	l-59.8,3.6c-1.4,0.1-2.5,0.6-3.6,1.7c-1,1.1-1.7,2.3-2,3.8c-0.6,3.2-2.6,4.7-5.8,4.7h-27.2c-3.5,0-6.4,1.3-8.7,4
	c-6.7,7.5-16.2,9.7-28.4,6.4c-5.7-1.5-10.6-0.1-14.6,4.3c-6.7,7.5-16.3,9.7-28.8,6.5c-5.5-1.5-10.2-0.1-14.1,4.2
	c-6.8,7.5-16.4,9.8-28.6,6.7c-5.6-1.4-10.4-0.1-14.5,4c-7.8,8-18.9,10.1-33.2,6.5c-3.8-1-7.8,0.6-9.9,4c-4.8,7.7-12.4,10.1-22.8,7.2
	c-3.7-1.1-6.6-0.1-8.8,3c-6.5,8.6-16.5,11.1-29.9,7.4c-5.4-1.4-9.9-0.1-13.5,4.1c-6.9,7.9-16.6,10.1-29.2,6.7
	c-5.1-1.4-10.5,0.2-14,4.2c-6.9,7.8-16.7,10-29.5,6.6c-5.3-1.4-9.8,0-13.5,4.1c-7,7.8-16.7,10.1-29.3,6.8c-5.5-1.5-10.2-0.1-14,4.2
	c-6.8,7.6-16.4,9.8-28.8,6.6c-5.7-1.5-10.6,0-14.5,4.4c-6.7,7.5-16.1,9.6-28.1,6.4c-6.3-1.7-11.5,0-15.6,5.2
	c-5.1,6.4-12.3,8.3-21.5,5.8c-3.9-1-7.1,0.1-9.6,3.2c-6.6,8.5-16.4,10.9-29.3,7.3c-5.6-1.6-10.3-0.2-14.1,4.2
	c-6.8,7.6-16.5,9.8-29,6.6c-5.6-1.4-10.3,0-14.2,4.3c-6.8,7.6-16.5,9.8-29.1,6.5c-5.4-1.5-10-0.1-13.8,4.1
	c-6.8,7.7-16.7,9.9-29.6,6.8c-4.7-1.1-8.8-0.1-12.3,3c-11.1,10-25.3,12.1-42.5,6.5c-0.6-0.2-1.3-0.5-1.8-1c-0.8-0.6-1-1.4-0.8-2.4
	c1.4-3.8,1-4-1.2-0.5c-3.5,5.7-9.9,7.5-19.3,5.5c-4.1-0.9-7.6,0.2-10.6,3.2l-15.1,15.3c-3,3-6.6,4-10.7,3c-9.3-2.4-16-0.3-20.2,6.6
	c-1.7,2.8-4.2,4.2-7.5,4.2H1464c-3.5,0-6.4,1.3-8.7,4c-6.6,7.6-16.7,9.7-30.3,6.1c-4.7-1.2-8.7,0-11.7,3.7
	c-7.1,8.3-17.1,10.8-30,7.3c-5.4-1.4-9.9-0.1-13.7,4.1c-6.8,7.7-16.4,9.9-28.8,6.8c-5.6-1.4-10.4-0.1-14.5,4
	c-7.8,8-18.6,10.1-32.4,6.5c-4.4-1.1-9,0.7-11.4,4.6c-3.9,6.6-9.8,8.9-17.4,7c-4.7-1.1-9-0.2-12.8,2.8l-17,13.1
	c-3.1,2.4-6.6,3.3-10.6,2.6c-8.3-1.6-14.8,0.6-19.3,6.6c-2.3,3-5.3,4.5-9.2,4.5h-27.4c-3.2,0-5.1,1.6-5.7,4.7
	c-0.4,1.8-1.3,3.2-2.8,4.2c-2.4,1.5-4.9,2-7.6,1.6c-13.9-2.1-26.6,1.2-37.9,9.8c-21.2-93.3-18.7-186,7.3-278
	c8.8,3.4,17.9,3.9,27.6,1.7c3.8-0.9,7.6-0.9,11.4-0.1c6.2,1.2,10.5-0.8,12.9-6.1c1.5-3.3,4.1-5,7.8-5h22.8c3.7,0,7.2-1,10.4-3
	c10.3-6.5,21.8-9,34.6-7.6c3.5,0.4,6.6-0.6,9.3-2.8c0.9-0.7,1.3-1.7,1.4-3c0.1-3.4,1.9-5.1,5.3-5.1h29.6c3.9,0,6.6-1.8,8.2-5.3
	c0.5-1.1,1-2.2,1.6-3.2c0.8-1.5,2-2.3,3.8-2.3h29.5c3.8,0,6.5-1.7,8.1-5.2c2.6-5.7,7-7.6,13.1-5.8c8.9,2.7,15.6,0.4,20.1-6.7
	c1.7-2.6,4-3.9,7.1-3.9h26.9c3.9,0,6.7-1.8,8.4-5.5c0.4-0.9,0.8-1.9,1.3-2.8c0.8-1.7,2.1-2.5,4-2.5h29.4c3.9,0,6.6-1.8,8.2-5.3
	c0.5-1.1,1-2.1,1.5-3.1c0.8-1.6,2.1-2.4,3.9-2.4h29.5c3.8,0,6.5-1.7,8.2-5.2c0.5-1.1,1-2.2,1.6-3.2c0.8-1.6,2-2.4,3.8-2.4h29.5
	c3.8,0,6.5-1.7,8.2-5.2c0.5-1.1,1-2.2,1.6-3.2c0.8-1.6,2-2.4,3.8-2.4h29.5c3.8,0,6.5-1.8,8.2-5.3c0.5-1.1,1-2.2,1.6-3.2
	c0.8-1.5,2-2.3,3.8-2.3h29.5c3.8,0,6.5-1.8,8.1-5.3c2.6-5.6,6.9-7.5,13-5.7c9,2.7,15.8,0.5,20.2-6.8c1.6-2.5,3.9-3.8,6.9-3.8h27.1
	c3.9,0,6.6-1.8,8.3-5.4c0.4-1,0.9-2,1.4-3c0.9-1.6,2.2-2.4,4-2.4h29.4c3.8,0,6.5-1.7,8.2-5.2c0.5-1.1,1-2.2,1.6-3.2
	c0.8-1.6,2-2.4,3.8-2.4h29.5c3.8,0,6.5-1.7,8.2-5.2c0.5-1.1,1-2.3,1.6-3.3c0.8-1.5,2-2.3,3.8-2.3h29.5c3.8,0,6.5-1.7,8.2-5.2
	c0.5-1.1,1-2.2,1.6-3.2c0.8-1.6,2-2.4,3.8-2.4h29.5c3.8,0,6.5-1.8,8.2-5.3c0.5-1.1,1-2.2,1.6-3.2c0.8-1.5,2-2.3,3.8-2.3h29.5
	c3.8,0,6.5-1.7,8.1-5.2c2.6-5.7,6.9-7.6,13-5.8c9,2.7,15.7,0.4,20.2-6.8c1.7-2.5,4-3.8,7-3.8h27c3.9,0,6.7-1.8,8.4-5.5
	c0.4-1,0.8-2,1.3-2.9c0.8-1.6,2.1-2.4,4-2.4h29.4c3.8,0,6.5-1.7,8.2-5.2c0.5-1.1,1-2.2,1.6-3.2c0.8-1.6,2-2.4,3.8-2.4h29.5
	c3.8,0,6.5-1.7,8.2-5.2c0.5-1.1,1-2.2,1.6-3.2c0.8-1.6,2-2.4,3.8-2.4h29.5c3.8,0,6.5-1.8,8.2-5.3c0.5-1.1,1-2.2,1.6-3.2
	c0.8-1.5,2.1-2.3,3.9-2.3h29.4c3.8,0,6.5-1.7,8.1-5.2c2.6-5.7,6.9-7.6,13-5.8c9,2.7,15.7,0.4,20.2-6.8c1.7-2.5,4-3.8,7-3.8h27
	c3.9,0,6.7-1.8,8.3-5.4c0.4-1,0.9-2,1.4-3c0.9-1.6,2.2-2.4,4-2.4h29.4c3.8,0,6.5-1.7,8.2-5.2c0.5-1.1,1-2.2,1.6-3.2
	c0.8-1.6,2-2.4,3.8-2.4h29.5c3.8,0,6.5-1.7,8.2-5.2c0.5-1.1,1-2.2,1.6-3.2c0.8-1.6,2-2.4,3.8-2.4h29.5c3.8,0,6.5-1.8,8.2-5.3
	c0.5-1.1,1-2.2,1.6-3.2c0.8-1.5,2-2.3,3.8-2.3h29.5c3.8,0,6.5-1.8,8.2-5.3c0.5-1.1,1-2.2,1.6-3.2c0.8-1.5,2.1-2.3,3.9-2.3h29.4
	c3.8,0,6.5-1.8,8.1-5.3c2.6-5.6,6.9-7.5,12.9-5.7c9.1,2.7,15.9,0.5,20.4-6.8c1.6-2.5,3.8-3.8,6.8-3.8h27.2c3.9,0,6.6-1.8,8.3-5.4
	c0.4-1,0.9-2,1.4-3c0.9-1.6,2.2-2.4,4-2.4h29.4c3.8,0,6.5-1.8,8.2-5.3c0.5-1.1,1-2.1,1.5-3.1c0.9-1.6,2.2-2.4,3.9-2.4h29.5
	c3.8,0,6.5-1.8,8.2-5.3c0.5-1.1,1-2.2,1.6-3.2c0.8-1.5,2-2.3,3.8-2.3h29.5c3.8,0,6.5-1.8,8.2-5.3c0.5-1.1,1-2.1,1.6-3.1
	c0.8-1.6,2-2.4,3.8-2.4h29.5c3.8,0,6.5-1.8,8.2-5.3c0.5-1,1-2,1.5-3.1c0.9-1.6,2.2-2.4,3.9-2.4h29.4c3.9,0,6.6-1.8,8.3-5.3
	c2.5-5.6,6.8-7.5,12.8-5.7c9,2.7,15.8,0.4,20.4-6.8c1.7-2.5,4-3.8,7-3.8h27c3.9,0,6.7-1.8,8.3-5.5c0.4-0.9,0.9-1.9,1.4-2.9
	c0.8-1.6,2.1-2.4,4-2.4h29.4c3.8,0,6.5-1.7,8.2-5.2c0.5-1.1,1-2.2,1.6-3.2c0.8-1.6,2-2.4,3.8-2.4h31.8c2.8,0,4.7-1.3,5.6-4l1-2.8
	c1.2-3.4,4.7-5.5,8.3-4.7c7.8,1.7,15.3,1.3,22.3-1.2c4.2-1.4,6.5-4.4,6.7-8.8C2956.9,1287,2958.5,1282.5,2961.5,1279.7z"/>
<path class="st22" d="M1003.8,1398.4l12.8,6.2c3.2,1.6,4.9,4.2,5,7.9l4.8,212.7c-96.6,96.1-177.2,208.7-241.6,337.6
	c-5.9,0.5-6.4-3.9-1.5-13.1c1.7-3.2,2.6-6.6,2.6-10.2l-0.9-299.4c0-10.1-3.3-11.2-9.8-3.6c-5.2,6.2-10,6.4-14.4,0.5
	C831.6,1546.8,912.5,1467.2,1003.8,1398.4z"/>
<path class="st25" d="M2910.3,1594.6c-26.9,91-63.4,177.9-109.5,260.6c-15.1-6-26.9-4.6-35.4,4.2c-2.4,2.4-5.2,3.7-8.6,3.7h-25.3
	c-3.2,0-5.3,1.5-6.5,4.4l-1.1,2.8c-0.9,2.4-2.5,3.6-5.1,3.6h-30.5c-3.2,0-5.3,1.5-6.5,4.4l-1.1,2.8c-0.9,2.4-2.5,3.6-5.1,3.6h-30.5
	c-3.2,0-5.3,1.5-6.5,4.4l-1.1,2.8c-0.9,2.4-2.5,3.6-5.1,3.6h-31.8c-2.3,0-3.8,1.1-4.4,3.2c-0.4,1.2-0.9,2.3-1.5,3.3
	c-1.9,2.8-4.5,4.2-7.9,4.2h-24.9c-3.9,0-7.1,1.6-9.4,4.7c-4.5,6.2-10.8,8.3-19,6.1c-3.9-1.1-7.6-0.6-11.1,1.3
	c-1.6,0.8-2.6,2-3.1,3.7c-1.1,3.8-3.7,5.7-7.6,5.7h-28.3c-3.2,0-5.3,1.5-6.5,4.4l-1.1,2.8c-0.9,2.4-2.5,3.6-5.1,3.6h-30.5
	c-3.2,0-5.3,1.5-6.5,4.4l-1.1,2.8c-0.9,2.4-2.5,3.6-5.1,3.6h-30.5c-3.2,0-5.3,1.5-6.5,4.4l-1.1,2.8c-0.9,2.4-2.5,3.6-5.1,3.6h-30.5
	c-3.2,0-5.3,1.5-6.5,4.4l-1.1,2.8c-0.9,2.4-2.5,3.6-5.1,3.6h-31.7c-2.2,0-3.7,1-4.4,3.1c-0.4,1.1-0.9,2.2-1.5,3.2
	c-1.8,2.9-4.4,4.4-7.9,4.4h-25c-3.9,0-7.1,1.6-9.4,4.8c-4.5,6.2-10.7,8.2-18.8,6c-4-1.1-7.9-0.7-11.5,1.4c-1.4,0.9-2.3,2-2.8,3.6
	c-1.1,3.8-3.7,5.7-7.6,5.7h-28.3c-3.2,0-5.3,1.5-6.5,4.4l-1.1,2.8c-0.9,2.4-2.5,3.6-5.1,3.6h-30.5c-3.2,0-5.3,1.5-6.5,4.4l-1.1,2.8
	c-0.9,2.4-2.5,3.6-5.1,3.6h-30.5c-3.2,0-5.3,1.5-6.5,4.4l-1.1,2.8c-0.9,2.4-2.5,3.6-5.1,3.6h-30.5c-3.2,0-5.3,1.5-6.5,4.4l-1.1,2.8
	c-0.9,2.4-2.5,3.6-5.1,3.6h-31.6c-2,0-3.5,0.9-4.4,2.8c-0.6,1.1-1.1,2.2-1.6,3.3c-1.5,3-4,4.6-7.4,4.6l-26.9,0.1
	c-3.4,0-6,1.4-7.9,4.3c-4.1,6.5-10.2,8.7-18.4,6.5c-4.1-1.1-8.4-0.5-12,1.6c-1.4,0.8-2.4,1.9-2.9,3.4c-1.1,3.7-3.7,5.6-7.6,5.6
	h-28.2c-3.2,0-5.3,1.5-6.5,4.4l-1.1,2.8c-0.9,2.4-2.5,3.6-5.1,3.6h-30.5c-3.2,0-5.3,1.5-6.5,4.4l-1.1,2.8c-0.9,2.4-2.5,3.6-5.1,3.6
	H1816c-3.2,0-5.3,1.5-6.5,4.4l-1.1,2.8c-0.9,2.4-2.5,3.6-5.1,3.6h-31.7c-2.2,0-3.7,1.1-4.5,3.2c-0.4,1.1-0.8,2.2-1.4,3.2
	c-1.7,2.9-4.3,4.3-7.6,4.3h-25.1c-4,0-7.2,1.6-9.5,4.8c-4.5,6.2-10.7,8.1-18.8,5.9c-4-1.1-7.9-0.6-11.5,1.5c-1.4,0.9-2.3,2-2.8,3.6
	c-1.1,3.8-3.7,5.7-7.6,5.7h-28.3c-3.2,0-5.3,1.5-6.5,4.4l-1.1,2.8c-0.9,2.4-2.5,3.6-5.1,3.6h-30.5c-3.2,0-5.3,1.5-6.5,4.4l-1.1,2.8
	c-0.9,2.4-2.5,3.6-5.1,3.6h-30.5c-3.2,0-5.3,1.5-6.5,4.4l-1.1,2.8c-0.9,2.4-2.5,3.6-5.1,3.6h-30.5c-3.2,0-5.3,1.5-6.5,4.4l-1.1,2.8
	c-0.9,2.4-2.5,3.6-5.1,3.6h-31.8c-2.2,0-3.7,1.1-4.4,3.2c-0.4,1.2-0.9,2.3-1.6,3.3c-1.9,2.8-4.5,4.2-7.8,4.2h-24.8
	c-4,0-7.2,1.7-9.6,5c-4.4,6.1-10.6,8-18.7,5.8c-4-1.1-7.9-0.5-11.5,1.6c-1.4,0.8-2.3,1.9-2.8,3.4c-1.1,3.8-3.7,5.7-7.6,5.7h-28.3
	c-3.2,0-5.3,1.5-6.5,4.4l-1.1,2.8c-0.9,2.4-2.5,3.6-5.1,3.6h-30.5c-3.2,0-5.3,1.5-6.5,4.4l-1.1,2.8c-0.9,2.4-2.5,3.6-5.1,3.6h-30.5
	c-3.2,0-5.3,1.5-6.5,4.4l-1.1,3c-0.8,2-2.7,3.3-4.8,3.3h-29.3c-4.1,0-6.4,2-7,6.1c-0.4,2.7-0.2,5.3,0.5,7.9c1.6,5.3,0,6.5-4.7,3.7
	c-8.7-5.3-14.6-5.6-17.8-0.9c-44.2-69-74.9-143.6-92.2-223.9c11.3-8.6,24-11.9,37.9-9.8c2.7,0.4,5.3-0.1,7.6-1.6
	c1.5-1,2.4-2.4,2.8-4.2c0.6-3.2,2.5-4.7,5.7-4.7h27.4c3.8,0,6.9-1.5,9.2-4.5c4.5-6,10.9-8.1,19.3-6.6c3.9,0.7,7.5-0.1,10.6-2.6
	l17-13.1c3.8-3,8.1-3.9,12.8-2.8c7.7,1.9,13.5-0.4,17.4-7c2.4-3.9,7-5.8,11.4-4.6c13.8,3.7,24.6,1.5,32.4-6.5
	c4.1-4.1,8.9-5.4,14.5-4c12.3,3.2,21.9,0.9,28.8-6.8c3.7-4.2,8.3-5.5,13.7-4.1c12.9,3.4,22.9,1,30-7.3c3.1-3.7,7-4.9,11.7-3.7
	c13.6,3.5,23.7,1.5,30.3-6.1c2.3-2.7,5.2-4,8.7-4h24.8c3.3,0,5.8-1.4,7.5-4.2c4.2-6.8,11-9,20.2-6.6c4.1,1,7.6,0,10.7-3l15.1-15.3
	c2.9-3,6.5-4.1,10.6-3.2c9.3,2,15.8,0.2,19.3-5.5c2.2-3.4,2.6-3.3,1.2,0.5c-0.3,0.9,0,1.7,0.8,2.4c0.6,0.4,1.2,0.8,1.8,1
	c17.2,5.7,31.4,3.5,42.5-6.5c3.5-3.2,7.6-4.2,12.3-3c12.9,3.2,22.8,0.9,29.6-6.8c3.8-4.2,8.4-5.6,13.8-4.1
	c12.6,3.3,22.3,1.1,29.1-6.5c3.9-4.3,8.6-5.7,14.2-4.3c12.5,3.2,22.1,1,29-6.6c3.8-4.4,8.5-5.8,14.1-4.2c12.9,3.6,22.7,1.1,29.3-7.3
	c2.5-3.2,5.7-4.2,9.6-3.2c9.3,2.5,16.4,0.6,21.5-5.8c4.1-5.2,9.3-6.9,15.6-5.2c12,3.2,21.4,1.1,28.1-6.4c3.9-4.5,8.8-5.9,14.5-4.4
	c12.3,3.2,21.9,1,28.8-6.6c3.8-4.3,8.5-5.7,14-4.2c12.6,3.3,22.3,1,29.3-6.8c3.7-4.1,8.1-5.5,13.5-4.1c12.8,3.4,22.6,1.3,29.5-6.6
	c3.5-4,8.9-5.6,14-4.2c12.6,3.4,22.3,1.2,29.2-6.7c3.6-4.2,8.1-5.5,13.5-4.1c13.4,3.7,23.4,1.2,29.9-7.4c2.2-3.1,5.2-4.1,8.8-3
	c10.4,2.9,18,0.5,22.8-7.2c2.1-3.3,6.1-4.9,9.9-4c14.3,3.7,25.3,1.5,33.2-6.5c4.1-4.1,8.9-5.4,14.5-4c12.3,3.1,21.8,0.9,28.6-6.7
	c3.9-4.3,8.6-5.7,14.1-4.2c12.4,3.2,22,1.1,28.8-6.5c4-4.4,8.9-5.8,14.6-4.3c12.2,3.3,21.7,1.2,28.4-6.4c2.3-2.7,5.2-4,8.7-4h27.2
	c3.2,0,5.2-1.6,5.8-4.7c0.4-1.4,1-2.7,2-3.8c1-1.1,2.2-1.7,3.6-1.7l59.8-3.6c3.4-0.2,6.4-1.5,8.7-4c6.8-7,16.1-8.9,27.9-5.8
	c5.8,1.5,10.8,0,14.9-4.4c6.7-7.4,16.2-9.5,28.2-6.4c5.8,1.5,10.7,0,14.8-4.4c6.7-7.4,16.3-9.5,28.8-6.4c5.6,1.4,10.4,0,14.3-4.3
	c6.6-7.3,16.2-9.5,28.8-6.7c5.1,1.2,9.8,0.6,14-1.8c1.1-0.7,1.5-1.9,1-3.4c-0.7-2.1,0.4-4.4,2.6-5.1c0.4-0.1,0.8-0.2,1.2-0.2
	l30.7-0.6c3.4,0,6.2-1.4,8.4-4.2c5.2-6.7,12.6-8.7,22.2-6c3.3,0.8,6.8-0.3,8.9-3c6.5-8.7,17-11.2,31.3-7.4c4.2,1.1,8.7-0.3,11.6-3.7
	c7-8.2,16.7-10.7,29.2-7.4c5.7,1.5,10.7,0.1,14.8-4.1c7.8-7.9,18.2-10,31-6.4c3.9,1.1,8.2-0.2,10.9-3.3c7-8.4,17.2-11,30.6-7.8
	c4.7,1.1,8.9,0.4,12.8-2c0.9-0.5,1.4-1.3,1.7-2.3c1.1-4.5,4.1-6.8,8.7-6.8h26.8c3,0,5.4-1.3,7.1-3.8c3.4-5.1,7.9-7.7,13.6-7.8
	C2892.2,1580.8,2902.7,1580.3,2910.3,1594.6z"/>
<path class="st20" d="M784.9,1962.8c-60.5,124.3-95.9,255.3-106.4,393c-14.4,188.2,18.8,385.6,98.1,555
	c60.3,129,137.9,253.9,232.8,374.7c1.9,2.4,1.5,5.9-0.9,7.9c-0.2,0.2-0.4,0.3-0.6,0.4c-2.7,1.6-5.5,2.1-8.5,1.6
	c-2.8-0.5-5.2-1.7-7.2-3.4c-232.8-200.5-376.9-446.8-432.5-739.1c-9.4-49.6-13.2-100.9-21.2-151.6v-157c4.7-28.2,8.8-56.5,12.2-84.8
	c22.9-194.3,93-368.5,210.2-522.4c4.5,5.8,9.3,5.6,14.4-0.5c6.5-7.7,9.8-6.5,9.8,3.6l0.9,299.4c0,3.6-0.9,7-2.6,10.2
	C778.5,1958.9,779,1963.3,784.9,1962.8z"/>
<path class="st26" d="M2800.8,1855.2c-166.2,299.7-439.8,517.7-763.6,625c-120,39.8-240.7,56.4-362.1,49.9
	c-27.2-1.5-51.5-6.6-78.2-11.3c-165.6-29.4-295.6-113.2-390-251.2c3.2-4.7,9.1-4.5,17.8,0.9c4.7,2.9,6.3,1.7,4.7-3.7
	c-0.7-2.5-0.9-5.1-0.5-7.9c0.6-4.1,2.9-6.1,7-6.1h29.3c2.1,0,4.1-1.3,4.8-3.3l1.1-3c1.1-2.9,3.3-4.4,6.5-4.4h30.5
	c2.5,0,4.2-1.2,5.1-3.6l1.1-2.8c1.1-2.9,3.3-4.4,6.5-4.4h30.5c2.5,0,4.2-1.2,5.1-3.6l1.1-2.8c1.1-2.9,3.3-4.4,6.5-4.4h28.3
	c3.9,0,6.5-1.9,7.6-5.7c0.5-1.5,1.4-2.7,2.8-3.4c3.7-2.2,7.5-2.7,11.5-1.6c8.1,2.2,14.4,0.3,18.7-5.8c2.4-3.3,5.6-5,9.6-5h24.8
	c3.3,0,5.9-1.4,7.8-4.2c0.7-1,1.3-2.1,1.6-3.3c0.7-2.2,2.2-3.2,4.4-3.2h31.8c2.5,0,4.2-1.2,5.1-3.6l1.1-2.8c1.1-2.9,3.3-4.4,6.5-4.4
	h30.5c2.5,0,4.2-1.2,5.1-3.6l1.1-2.8c1.1-2.9,3.3-4.4,6.5-4.4h30.5c2.5,0,4.2-1.2,5.1-3.6l1.1-2.8c1.1-2.9,3.3-4.4,6.5-4.4h30.5
	c2.5,0,4.2-1.2,5.1-3.6l1.1-2.8c1.1-2.9,3.3-4.4,6.5-4.4h28.3c3.9,0,6.5-1.9,7.6-5.7c0.5-1.5,1.4-2.7,2.8-3.6
	c3.7-2.1,7.5-2.6,11.5-1.5c8.1,2.2,14.4,0.3,18.8-5.9c2.3-3.2,5.5-4.8,9.5-4.8h25.1c3.4,0,5.9-1.4,7.6-4.3c0.6-1.1,1-2.2,1.4-3.2
	c0.8-2.2,2.3-3.2,4.5-3.2h31.7c2.5,0,4.2-1.2,5.1-3.6l1.1-2.8c1.1-2.9,3.3-4.4,6.5-4.4h30.5c2.5,0,4.2-1.2,5.1-3.6l1.1-2.8
	c1.1-2.9,3.3-4.4,6.5-4.4h30.5c2.5,0,4.2-1.2,5.1-3.6l1.1-2.8c1.1-2.9,3.3-4.4,6.5-4.4h28.2c3.9,0,6.5-1.9,7.6-5.6
	c0.5-1.5,1.5-2.7,2.9-3.4c3.6-2.1,7.9-2.7,12-1.6c8.2,2.2,14.3,0.1,18.4-6.5c1.9-2.9,4.5-4.3,7.9-4.3l26.9-0.1
	c3.4-0.1,5.9-1.6,7.4-4.6c0.5-1.1,1-2.3,1.6-3.3c0.9-1.9,2.4-2.8,4.4-2.8h31.6c2.5,0,4.2-1.2,5.1-3.6l1.1-2.8
	c1.1-2.9,3.3-4.4,6.5-4.4h30.5c2.5,0,4.2-1.2,5.1-3.6l1.1-2.8c1.1-2.9,3.3-4.4,6.5-4.4h30.5c2.5,0,4.2-1.2,5.1-3.6l1.1-2.8
	c1.1-2.9,3.3-4.4,6.5-4.4h30.5c2.5,0,4.2-1.2,5.1-3.6l1.1-2.8c1.1-2.9,3.3-4.4,6.5-4.4h28.3c3.9,0,6.5-1.9,7.6-5.7
	c0.5-1.5,1.4-2.7,2.8-3.6c3.7-2.1,7.5-2.5,11.5-1.4c8.1,2.2,14.4,0.1,18.8-6c2.3-3.2,5.4-4.8,9.4-4.8h25c3.4,0,6.1-1.5,7.9-4.4
	c0.6-1,1.1-2.1,1.5-3.2c0.7-2.1,2.2-3.1,4.4-3.1h31.7c2.5,0,4.2-1.2,5.1-3.6l1.1-2.8c1.1-2.9,3.3-4.4,6.5-4.4h30.5
	c2.5,0,4.2-1.2,5.1-3.6l1.1-2.8c1.1-2.9,3.3-4.4,6.5-4.4h30.5c2.5,0,4.2-1.2,5.1-3.6l1.1-2.8c1.1-2.9,3.3-4.4,6.5-4.4h30.5
	c2.5,0,4.2-1.2,5.1-3.6l1.1-2.8c1.1-2.9,3.3-4.4,6.5-4.4h28.3c3.9,0,6.5-1.9,7.6-5.7c0.5-1.7,1.5-2.9,3.1-3.7
	c3.5-1.9,7.2-2.4,11.1-1.3c8.2,2.2,14.5,0.1,19-6.1c2.3-3.2,5.4-4.7,9.4-4.7h24.9c3.4,0,6-1.4,7.9-4.2c0.6-1,1.1-2.1,1.5-3.3
	c0.6-2.2,2.1-3.2,4.4-3.2h31.8c2.5,0,4.2-1.2,5.1-3.6l1.1-2.8c1.1-2.9,3.3-4.4,6.5-4.4h30.5c2.5,0,4.2-1.2,5.1-3.6l1.1-2.8
	c1.1-2.9,3.3-4.4,6.5-4.4h30.5c2.5,0,4.2-1.2,5.1-3.6l1.1-2.8c1.1-2.9,3.3-4.4,6.5-4.4h25.3c3.4,0,6.2-1.2,8.6-3.7
	C2773.9,1850.6,2785.7,1849.2,2800.8,1855.2z"/>
<path class="st27" d="M1265.6,2525.3c-1.7,1.7-4.4,2-8.3,1.1c-1-0.2-1.7-0.8-1.9-1.8c-0.4-1.8-1.5-2.4-3.2-1.7
	c-2.8,1-4.2,2.8-4.2,5.3c0.4,201.2,0.1,405-0.8,611.2l-129.6-135c-135-164.7-227-343-243.3-558c-13.8-182,17.1-361.1,92.7-537.4
	c1.6-8,7-17.2,16.4-27.6c2.4-2.7,3.5-2.3,3.2,1.4c-7.3,90.3,1.2,178.9,25.5,265.8C1055.3,2302.4,1139.8,2428,1265.6,2525.3z"/>
<path class="st28" d="M967.1,1908.8c-75.6,176.3-106.5,355.4-92.7,537.4c16.3,215,108.2,393.3,243.3,558c-7,0.4-11.3-1.2-13.1-5
	c-1.1-2.4-2.9-3-5.2-1.6c-1.4,0.8-2.2,2.2-2.2,4.3c1,74.4-0.3,137.7-3.8,190c-224.6-237.9-340.3-564-287.2-891
	C829.1,2159.6,882.7,2028.9,967.1,1908.8z"/>
<path class="st28" d="M2947.1,2566.2c-62.7,206.9-171.4,375.2-325.9,505c5.6-137.8,7-278.2,4.3-421.4c-0.4-22.8,0.1-80.6,1.7-173.4
	c0.9-57.2-1.2-115.1-6.4-173.6c62.1-32.7,126.3-42.9,192.7-30.5c31.7,5.9,58.1,21.2,79.3,45.9c15.9,18.5,29,44.5,39.3,78.2
	C2949.3,2452.2,2954.3,2508.8,2947.1,2566.2z"/>
<path class="st29" d="M2620.9,2302.8c5.2,58.5,7.3,116.4,6.4,173.6c-1.6,92.8-2.2,150.6-1.7,173.4c2.7,143.2,1.3,283.6-4.3,421.4
	c-77.5,62.9-154.5,112.6-231,149.3l-1.3-740.1L2620.9,2302.8z"/>
<path class="st30" d="M2388.9,2480.4l1.3,740.1l-149.5,63l-173.1,49.5c-1.5-231.5-1.9-461.6-1.3-690.3c0-1.1,0.2-2.1,0.5-3
	c0.2-0.6,0.6-1,1.1-1.3c5.2-3.4,4.6-5.1-1.6-5c-2.8,0.1-5.2,0.9-7.2,2.4c-2.4,1.7-4.9,2.1-7.6,1.1c-4.2-1.6-7.6-3.9-10.1-7
	C2155.9,2599.3,2271.7,2549.5,2388.9,2480.4z"/>
<path class="st31" d="M1265.6,2525.3c81.6,57.1,171.3,96.6,269,118.6c20.7,4.6,41.6,9.4,62.8,14.5c-5,1.4-8.8,3.1-11.6,5.2
	c-2.7,2-4.1,5.5-4.1,10.6c0.6,215.7,0.3,433-1.1,652l-136.3-51.9c-72.8-36.3-138.5-81.3-197.1-134.9c0.9-206.2,1.1-409.9,0.8-611.2
	c0-2.5,1.4-4.3,4.2-5.3c1.7-0.6,2.8-0.1,3.2,1.7c0.3,1,0.9,1.6,1.9,1.8C1261.2,2527.3,1263.9,2526.9,1265.6,2525.3z"/>
<path class="st27" d="M2947.1,2566.2c-9.8,113.4-42.3,216.8-97.4,310.2c-133.2,225.9-320,395.6-560.4,508.8
	c-23.5,11.1-39.2,18-47.1,20.9l-1.5-122.7l149.5-63c76.5-36.6,153.5-86.4,231-149.3C2775.7,2941.4,2884.4,2773.1,2947.1,2566.2z"/>
<path class="st32" d="M2041.4,2629.8c2.5,3.1,5.9,5.4,10.1,7c2.7,1,5.3,0.6,7.6-1.1c2-1.5,4.4-2.3,7.2-2.4c6.2-0.1,6.8,1.5,1.6,5
	c-0.5,0.3-0.9,0.7-1.1,1.3c-0.4,0.9-0.5,1.9-0.5,3c-0.6,228.7-0.2,458.8,1.3,690.3c-25.4,7.9-56,14.1-91.9,18.7
	c-14,1.9-28,4.3-42.1,7.4c-18,3.9-36.5,4.6-55.4,1.9c-3.8-0.5-5.7-2.7-5.7-6.6v-669.1c0-3.5,0.9-6.7,2.8-9.7l9.4-15.2L2041.4,2629.8
	z"/>
<path class="st33" d="M1597.4,2658.4c34,2.9,68.2,7,102.6,12.2c36.8,5.6,98.4,2.3,184.8-10l-9.4,15.2c-1.9,2.9-2.8,6.2-2.8,9.7
	v669.1c0,3.9,1.9,6.1,5.7,6.6c18.9,2.7,37.3,2,55.4-1.9c14.1-3.1,28.1-5.6,42.1-7.4c35.8-4.6,66.4-10.8,91.9-18.7l173.1-49.5
	l1.5,122.7c-126.6,54.5-245.1,77.2-384.8,93.9h-6.4c-0.1-5.1-2.4-8.9-6.7-11.4c-2.8-1.6-4.2-4-4.2-7.2v-110.3c0-5.2-4.2-9.5-9.5-9.5
	l0,0c-39.8-0.2-77.4,1.5-117.4-6c-12.4-2.4-28-5-46.7-7.8c-24.8-3.7-53.5-10.9-86-21.8c1.4-219,1.7-436.3,1.1-652
	c0-5,1.4-8.5,4.1-10.6C1588.6,2661.5,1592.4,2659.7,1597.4,2658.4z"/>
<path class="st29" d="M1117.6,3004.2l129.6,135c58.6,53.6,124.3,98.6,197.1,134.9l-0.5,137.4c-0.1,3.7-1.9,6.1-5.5,7l-17.8,4.6
	c-125.2-56.1-234.2-133.2-327.1-231.3c3.5-52.3,4.8-115.6,3.8-190c0-2.1,0.7-3.5,2.2-4.3c2.3-1.4,4-0.8,5.2,1.6
	C1106.3,3003,1110.7,3004.6,1117.6,3004.2z"/>
<path class="st30" d="M1444.3,3274.2l136.3,51.9c32.5,10.8,61.2,18.1,86,21.8c18.7,2.8,34.3,5.4,46.7,7.8c40,7.5,77.5,5.8,117.4,6
	c5.2,0,9.5,4.2,9.5,9.5l0,0v110.3c0,3.2,1.4,5.6,4.2,7.2c4.3,2.5,6.5,6.3,6.7,11.4h-131.8c-30.9-5.7-61.9-10.3-93.2-13.7
	c-53-5.7-121.5-26.8-205.7-63.1l17.8-4.6c3.6-0.9,5.4-3.3,5.5-7L1444.3,3274.2z"/>
</svg>
