<?xml version="1.0" encoding="utf-8"?>
<!-- Generator: Adobe Illustrator 27.7.0, SVG Export Plug-In . SVG Version: 6.00 Build 0)  -->
<svg version="1.1" id="Layer_1" xmlns="http://www.w3.org/2000/svg" xmlns:xlink="http://www.w3.org/1999/xlink" x="0px" y="0px"
	 viewBox="0 0 3500 3500" style="enable-background:new 0 0 3500 3500;" xml:space="preserve">
<style type="text/css">
	.st0{fill:none;stroke:#B2DA80;stroke-width:2;}
	.st1{fill:#64B400;}
	.st2{fill:#FFFFFF;}
</style>
<g>
	<path vector-effect="non-scaling-stroke" class="st0" d="M2118.9,968.7c-3.7-7.2-8.3-14.2-13.9-21c-62-75.8-139.1-126-231.3-150.8
		c-9-2.4-17.8-4.1-26.3-5.1c-9.2-1-18.2-2.2-27.2-3.7c-13.4-2.2-26.9-3.6-40.6-4.2c-65.9-2.7-127.9,8.4-186,33.1
		c-76.5,32.5-139.8,84.1-189.7,154.8c-27,38.2-47.4,81.6-61.1,130.3c-0.4,1.4-1.3,2-2.7,2c-15.4-0.3-27.6-7.3-42-10
		c-103.9-20.1-200.5-7.1-289.8,39.1c-85,44-149.2,109.5-192.6,196.4c-13.7,27.4-24,56-31.1,85.9c-27,113.9-11.7,222.7,46,326.4
		c4,7.2,8.7,14.2,13.9,20.8c1.1,1.4,1.1,3.4-0.1,4.8c-27.1,29.8-50.8,62.2-71.1,97c-16.8,28.8-30.4,57.2-40.8,85.3
		c-44.3,120.2-47.9,243.3-10.9,369.2c7.4,25.1,17.8,51.1,31.2,78.2c55.8,112.5,139,198,249.8,256.5c107.7,56.9,234.1,74.8,353,55
		c8.1-1.3,16.1-3.2,23.9-5.5c7-2.1,14.2-3.7,21.6-4.9c13.2-2.1,26.8-5.4,40.8-10c45.6-14.9,86.7-32.9,123.5-54
		c13.6-7.8,26.6-17.7,39-29.6c23-22.3,40.1-51.3,37.4-83.8c-3.5-41.4-20.9-72.7-52.3-94.1c-23.5-16-51.1-26-82.7-30
		c-15.1-1.9-35.1-0.8-60,3.2c-17.5,2.8-36.6,5.3-57.3,7.3c-7.9,0.8-12.6,2.5-20-2.5c-18.3-12.3-23-36.9-25.5-57.3
		c-9.3-75.2-8.5-153.4,2.6-234.5c3.8-28,10.1-54,18.8-78c2.2-6,5.3-12.3,9.1-18.7c14.8-24.7,32.1-22.2,56.5-18.7
		c77.4,11.1,144.9,61.2,197.8,117.8c49.4,52.8,92.5,112.4,129.2,178.9c0.5,1,1.7,1.3,2.7,0.8c0.3-0.2,0.5-0.4,0.7-0.7
		c5.1-8,7.2-17.1,12.6-24.5c6.9-9.5,13.4-19.1,19.4-28.7c5.8-9.3,12.2-18.9,19-28.8c12.2-17.6,25.1-35.5,38.8-53.7
		c7-9.4,20-24.5,38.9-45.1c41.8-45.6,89.5-80,143.2-103.4c11.7-5.1,21.9-8.3,30.4-9.6c14.1-2.1,29.1-3.8,44.9-5
		c13.2-1.1,24.8,3.1,32.5,14.3c8.9,13.1,15.6,28.1,20,44.9c6.9,26.4,11.8,53.2,14.7,80.4c7,65.1,7.5,130.2,1.5,195.3
		c-1.3,13.9-3.4,27.6-6.4,40.8c-3.2,14.2-9.9,25-20,32.5c-6.9,5.1-14.6,5.1-22.8,3.6c-23.1-4.3-46.2-8-69.4-10.9
		c-31.9-4-62.7-0.3-92.4,11.2c-35.3,13.7-59.8,33.3-73.5,58.8c-6.3,11.8-10.1,23.1-11.4,33.8c-1.6,13.2-2,26.7-1.3,40.6
		c2.7,49.8,62.6,89.4,105.6,110.4c46.8,22.9,95,39.9,144.7,51.1c74.9,16.7,150.3,18.5,226.3,5.2c6.5-1.1,12.7-2.8,18.7-5.1
		c6.3-2.3,12.6-3.8,19.1-4.3c5.8-0.4,11.5-2,17.1-4.7c8.6-4.2,17.7-7,27.3-8.3c8.1-1.1,15.2-3.6,21.3-7.3c5.3-3.3,11-6.2,17.1-8.8
		c7.5-3.1,15-6.6,22.7-10.2c4.9-2.4,10-2,14.8-4.6c126.1-67.7,215.8-167.9,269.2-300.7c1.5-3.9,2.6-7.8,3.1-11.6
		c0.6-4.2,1.8-8.1,3.7-11.7c2.8-5.5,5.1-11.3,6.8-17.3c34.5-121.2,31.1-239.8-10-355.8c-24.5-69.1-63.2-133-116.1-191.9
		c-1-1.1-1.1-2.3-0.3-3.5c12.4-18.4,22.4-35.9,30-52.4c36.5-79.5,49.2-161.5,38.1-246.2c-4.1-31.4-11.1-60.8-21-88.1
		c-29.2-80.5-77.2-146.9-144.1-198.9c-28-21.8-54.5-38.4-79.5-49.8c-99.5-45.4-202.3-53.9-308.3-25.4c-1.4,0.4-2.8-0.4-3.1-1.8
		c-12.9-46.5-33.1-88.9-60.7-127.3c-0.4-0.5-0.8-0.9-1.4-1.2C2119.9,970.1,2119.3,969.5,2118.9,968.7"/>
	<path vector-effect="non-scaling-stroke" class="st0" d="M1781.9,1016.2c0.2,0.1,0.3,0.1,0.5,0.1c0.7,0.1,1.2-0.2,1.6-0.8
		c8.4-13.1,22.4-28.9,25.8-42.6c3.9-15.5,1.8-30.5-6.3-45.2c-0.1-0.2-0.3-0.3-0.6-0.2c-0.1,0-0.3,0-0.5,0c-0.8-0.1-1.3-0.5-1.7-1.2
		c-8.9-16.2-19.4-33.1-31.6-50.8c-3.5-5-6.3-10-8.4-15c-0.4-0.8-1.3-1.3-2.2-0.9c-0.3,0.1-0.6,0.4-0.8,0.7
		c-11.1,18.8-23.4,37.5-36.9,56.2c-8.3,11.5-12.8,25.8-13.6,42.8c-0.5,10.3,2.1,19.4,7.6,27.4c5.9,8.6,11.5,16.7,16.6,24.3
		c0.7,1,1,0.9,1-0.3c0-0.5,0.2-0.9,0.6-1.2c0.3-0.2,0.7-0.1,1,0.2c0,0.1,0.1,0.1,0.1,0.2c2.9,9,6.1,14.7,9.5,17.2
		c1.4,1,2.5,2.2,3.3,3.6l9.2,16.1c0.9,1.6,3,2.2,4.6,1.2c0.7-0.4,1.3-1.1,1.5-2c1.4-5.2,3.7-9.7,6.9-13.7
		c4.3-5.4,8.5-10.8,12.4-16.1C1781.6,1016.1,1781.7,1016.1,1781.9,1016.2"/>
	<path vector-effect="non-scaling-stroke" class="st0" d="M1667,1038.8c-1,0.8-1.5,1.9-1.5,3.3c-0.1,2.9-0.5,5.7-1.3,8.4
		c-2.3,8.1-2.2,16.9,0.2,26.2c5.6,21.3,14,41.9,25.2,61.8c2.6,4.5,5.6,9.1,9.1,13.6c3.1,4,5.6,8.4,7.6,13.1
		c5.8,13.4,8.7,20.2,8.8,20.3c12.6,23.7,26.4,46.8,41.4,69.4c2.6,3.9,4.6,3.6,6.1-0.8c2.4-7.2,6.1-14.3,11-21.1
		c3-4.2,7.2-6.5,9.7-10.7c6.9-11.7,13.5-23.3,19.9-34.8c0.6-1,0.8-2.2,0.7-3.3c-0.1-1.8,0.8-2.8,2.6-2.9c14-24.8,26.1-48.2,36.4-70
		c7.2-15.2,11.5-29.7,13.1-43.7c1.6-13.8-1.2-28.7-8.3-44.5c-0.5-1.2-1.4-2.1-2.5-2.6c-1.3-0.6-2.2-1.7-2.5-3.1
		c-1.3-5.9-3.3-11.5-6.2-16.7c-1.2-2.1-2.3-2.1-3.5,0l-18.6,34.1c-0.8,1.4-2,2.2-3.7,2.2c-1,0-1.9,0.4-2.4,1.2
		c-8.4,11.2-15.2,22.2-20.5,32.9c-1.6,3.3-3.3,6.3-5,9.2c-6.5,10.8-13.3,21.9-20.4,33.3c-2.5,4-4.7,3.9-6.7-0.4l-10.9-22.9
		c-0.2-0.6-0.7-0.8-1.2-0.6c-0.5,0.1-1,0.1-1.4-0.1c-0.4-0.2-0.7-0.4-0.9-0.7c-13.2-20-26.1-39.8-38.9-59.4
		c-5.6-8.6-11-18.3-16.1-29.1c-0.5-1.1-1.8-1.5-2.9-1c-0.5,0.2-0.9,0.7-1.1,1.2l-12.8,35C1669,1036.8,1668.2,1037.9,1667,1038.8"/>
	<path vector-effect="non-scaling-stroke" class="st0" d="M1921,1207.5c-0.7-5.2-1.3-10.3-1.8-15.1c-0.5-5.1-2.1-9.4-4.8-13
		c-2.6-3.4-4.6-7.1-5.9-11.1c-4.6-13.5-12-26-22.1-37.4c-3.1-3.5-6.6-4.8-10.2-3.7c-2.7,0.7-4.4,2.6-5.2,5.6
		c-2,7.6-4.9,14.7-8.7,21.1c-3.5,5.8-6.6,13-9.3,21.4c-3.3,10.3-7.9,20.1-13.7,29.2c-3.9,6.1-7.5,12-10.7,17.6
		c-15.1,25.9-30.2,52.2-45.2,78.9c-8,14.2-15.1,28-21.4,41.5c-0.6,1.3-2.2,1.9-3.5,1.2c-0.5-0.2-0.8-0.6-1.1-1
		c-27.9-47.1-54.4-93.9-79.5-140.5c-5.9-11-11.1-22-15.5-32.9c-4.8-12-9.3-23.4-13.3-34c-1.5-3.9-3.1-6.5-4.8-7.7
		c-3.7-2.6-7-2.4-9.9,0.5c-8.5,8.4-16.3,21.6-23.6,39.8c-5.7,14.4-10.7,28.1-14.9,41.2c-2,6.3-3.3,13.1-3.9,20.5
		c-0.5,6.2-1.3,12.4-2.3,18.7c-0.9,5.2-0.6,10.3,0.7,15.3c1.2,4.2,1.9,8.6,2.3,13c0.3,4.1,1.6,7.8,3.7,11.1c1.8,2.8,4.6,5.4,8.5,7.8
		c9.3,5.7,17.2,13,23.5,21.9c7.5,10.6,13.6,16.6,21.6,25c3.4,3.5,6.6,7.7,9.8,12.5c2.9,4.4,6,8.8,9.4,13.3
		c8.7,11.6,17.1,25.8,25.3,42.6c2.9,6,7.8,10.4,9.9,17.3c2.1,6.8,5.2,13.2,9.4,19.3c0.2,0.2,0.3,0.3,0.6,0.1
		c0.4-0.3,0.8-0.3,1.1-0.1c1.3,0.9,2,2.1,2.1,3.6c0.4,4.7,1.9,8.7,4.6,12c2.5,3.1,4.6,6.3,6.2,9.8c5.7,12.7,11.9,25.7,18.4,39
		c4.3,8.8,7.7,17.8,10.2,26.9c0.3,1,0.9,1.7,1.8,2.1c0.8,0.3,1.6,0.3,2.3,0c1.5-0.8,2.3-2.1,2.5-3.7c0.2-3.3,1.4-6.2,3.3-8.6
		c2.2-2.8,4.1-5.9,5.7-9.5c14.1-31.5,28.8-61.9,44.3-91c0.3-0.6,0.5-1.2,0.5-1.9c0-1.5,0.3-2.8,1.1-4.1c11.3-18,22.8-36.1,34.4-54.3
		c1.9-3,4.1-5.8,6.4-8.5c3-3.3,5.4-7,7.2-11.1c2.3-5.1,5.1-9.6,8.5-13.7c7.3-8.9,15.6-17.9,24.7-27.1c2.1-2.2,7-5.7,14.6-10.5
		c6.4-4,10.3-8.7,11.9-13.9c6-20,5.4-43.6-1.9-70.6c-0.2-0.6-0.6-1.2-1.1-1.6C1921.7,1209.9,1921.1,1208.8,1921,1207.5"/>
	<path vector-effect="non-scaling-stroke" class="st0" d="M1861.1,1434.4c0.1-0.2,0.1-0.4,0-0.6c-0.3-0.7-0.7-0.8-1.2-0.2
		c-3.9,4.2-6.6,9-8,14.3c-1,3.9-2.8,7.7-5.4,11.3c-16.8,24-30.1,47.5-39.8,70.7c-2.3,5.5-5,10.3-8.2,14.3c-0.7,0.9-1.3,2-1.7,3.2
		c-1.1,3.5-2.8,6.8-4.9,9.9c-0.1,0.2-0.2,0.2-0.4,0.1c-0.1-0.1-0.2-0.2-0.2-0.4c-0.2-0.8-0.6-0.8-0.9-0.1c-7.6,15-15.3,30.4-23.3,46
		c-3.2,6.2-2.5,12.3-5.1,18.6c-0.5,1.2-2,1.8-3.2,1.3c-0.4-0.2-0.8-0.5-1.1-0.9c-4.1-6.1-6.3-12.6-6.8-19.6
		c-0.1-1.8-0.7-3.5-1.7-5.1c-0.8-1.3-1.9-2.2-3.1-2.9c-1.4-0.7-2.5-1.7-3.2-3.1c-32.6-66.9-70.7-134.9-114.4-203.8
		c-8.5-13.4-18.8-23.7-30.9-31.1c-26-15.9-54.7,25.7-65.3,46.1c-0.5,0.9-1.2,1.6-2,2.1c-1.2,0.7-2.2,1.8-2.9,3.2
		c-6,11.5-11,21.6-14.9,34.5c-3,10.2-6.2,20.5-9.5,30.9c-5.4,16.9-8.9,35.1-10.4,54.4c-0.7,9.8,0.6,19.1,3.9,27.7
		c0.6,1.7,1.8,2.9,3.5,3.6c12.7,5.4,24.4,11.9,35.1,19.4c31.8,22.4,62.3,52.6,91.5,90.6c3.9,5,8.2,10,13,15c4.1,4.3,7.5,9,10.1,14.2
		c3.3,6.5,7.6,12.5,13,18c4.4,4.6,8.4,9.8,11.8,15.5c3.7,6.2,7.7,12.1,11.9,17.6c4.4,5.7,8.6,12,12.8,19
		c8.4,14.2,17.3,27.9,26.7,41.2c0.8,1.1,1.2,2.4,1.3,3.8c0.1,1.6,0.5,3.2,1.3,4.6c8.1,14.2,16.5,27.7,25.2,40.3
		c1.9,2.8,1.8,5.9,4,8.6c0.8,1,2.2,1.2,3.3,0.5c1.1-0.8,1.7-1.9,1.7-3.3c0-1.5,0.3-2.9,1-4.3c15.1-27.8,27.2-48.6,36.4-62.6
		c2.3-3.4,6.7-4.5,9.3-9.5c1.9-3.8,4.2-7.4,6.8-10.8c4.9-6.5,6.3-14.2,11.3-21.5c19.4-28.2,38.9-54.9,58.6-80.1
		c16.6-21.2,35.4-42.2,56.6-63.1c23-22.7,48.1-40.3,75.5-52.8c1.4-0.7,2.4-1.7,3.1-3.2c3.5-8.4,5-17,4.4-25.8
		c-0.6-10.5-0.9-21.7-3.1-32c-7.3-33.7-19.3-65.7-36.1-96c-3.9-7-10.1-16.1-18.7-27.3c-9-11.8-19.4-18.9-31.2-21.5
		c-4.4-1-8.6-0.4-12.5,1.6c-8.8,4.6-16.6,11.1-23.5,19.5c-10.6,12.9-20.6,28.3-30.2,46.1c-2.7,5.1-5.8,9.8-9.3,14.2
		C1861,1434.7,1861,1434.7,1861.1,1434.4"/>
	<path vector-effect="non-scaling-stroke" class="st0" d="M1957.6,1990.9c5.7-3.3,11.3-6.8,17-10.4c9.1-6,17.9-10.5,26.4-13.7
		c12.1-4.6,24.2-9.2,36.3-14c0.7-0.3,1.2-0.7,1.6-1.4c0.7-1.2,1.8-2,3.1-2.4c20.8-5.2,42.1-7.3,64-6.2c1.5,0.1,3-0.3,4.3-1.1
		c8.7-5.2,13-13.8,13-25.8c-0.1-17.7-0.3-34.5-0.5-50.5c-0.2-19.4-4.7-38.5-9.6-57.4c-0.9-3.3-1.3-8.8-1.4-16.3
		c-0.1-5.6-1.4-11.1-3.9-16.6c-5-10.9-2.4-22.9-7.5-33.9c-2.5-5.2-4.4-10.3-5.8-15.4c-6.6-23.9-15.1-47.7-25.4-71.3
		c-3.1-7.1-6.8-14.1-11.1-20.8c-9.3-14.7-21.1-34.2-41.8-21.5c-16.9,10.4-33.5,24.6-49.8,42.7c-29.7,32.9-56.7,66.2-81.1,99.9
		c-36.4,50.2-68.2,96.2-95.4,138.1c-4.8,7.3-9.8,14.6-15,21.7c-5.4,7.3-10,14.9-13.8,22.7c-0.4,0.7-1.3,1-2,0.6
		c-0.2-0.1-0.4-0.3-0.5-0.5c-9.8-14.5-19.5-29.2-29.1-44.1c-49.2-76-97.1-142.8-143.8-200.4c-23.4-28.8-48.7-58-79.4-78.8
		c-8.4-5.7-20.4-9.7-29-1.5c-8.2,7.8-14.8,16.5-19.8,26c-8.9,17-16.9,36.2-24,57.6c-22.4,67.5-35.1,135.8-38.2,205
		c-0.3,5.6,0,11,0.7,16.2c0.8,5.6,2.1,10.8,4,15.7c2.4,6.4,8.7,10.4,15.4,10c8.9-0.6,17-1.2,25.9,0.3c5,0.9,10,1.3,15,1.4
		c4.8,0.1,9.6,0.9,14.3,2.3c23.5,7.2,45,16.5,64.4,27.8c16.3,9.5,30.5,18.6,42.6,27.5c48.6,35.4,92.5,77.4,131.7,125.9
		c7.9,9.8,15.5,20.1,22.9,30.9c2.2,3.1,3.7,6.4,4.7,9.8c1.3,4.5,3.5,8.5,6.7,11.9c3.1,3.3,5.6,7,7.6,11.2c2.3,4.9,4.3,9.8,6,14.6
		c1.3,3.8,2.6,3.8,4,0c4.3-12.3,10.5-24.9,17.6-35.8c31.6-48.4,71.6-93.4,119.9-134.8c13.5-11.6,27.8-23.1,42.7-34.6
		C1947,1997.6,1952.3,1994,1957.6,1990.9"/>
</g>
<path class="st1" d="M3462,3371.5c0,51-41.4,92.4-92.4,92.4H126.8c-51,0-92.4-41.4-92.4-92.4V128.6c0-51,41.4-92.4,92.4-92.4l0,0
	h3242.9c51,0,92.4,41.4,92.4,92.4c0,0,0,0,0,0V3371.5z M2112.2,984.9c-3.6-7.1-8.1-13.9-13.6-20.6
	c-60.7-74.2-136.2-123.4-226.5-147.7c-8.8-2.4-17.4-4-25.8-5c-9-1-17.8-2.2-26.6-3.6c-13.1-2.2-26.4-3.5-39.8-4.1
	c-64.5-2.6-125.2,8.2-182.1,32.4c-75,31.9-136.9,82.4-185.8,151.6c-26.5,37.4-46.4,79.9-59.8,127.6c-0.4,1.3-1.3,2-2.6,1.9
	c-15-0.3-27-7.1-41.1-9.8c-101.7-19.7-196.3-7-283.8,38.3c-83.2,43.1-146.1,107.2-188.6,192.4c-13.4,26.8-23.5,54.9-30.5,84.2
	c-26.5,111.6-11.4,218.1,45,319.6c4,7.1,8.5,13.9,13.6,20.3c1.1,1.4,1,3.4-0.1,4.7c-26.5,29.2-49.8,60.9-69.7,94.9
	c-16.5,28.2-29.8,56.1-40,83.6c-43.4,117.7-46.9,238.2-10.6,361.5c7.2,24.6,17.4,50.1,30.5,76.6c54.6,110.2,136.2,193.9,244.7,251.2
	c105.5,55.7,229.2,73.3,345.7,53.9c7.9-1.3,15.7-3.1,23.4-5.4c6.8-2.1,13.9-3.7,21.1-4.8c13-2.1,26.3-5.3,39.9-9.8
	c44.6-14.6,84.9-32.2,120.9-52.9c13.3-7.6,26-17.3,38.2-29c22.6-21.8,39.2-50.2,36.6-82c-3.4-40.5-20.4-71.2-51.2-92.1
	c-23-15.7-50-25.5-81-29.4c-14.8-1.9-34.4-0.8-58.8,3.2c-17.2,2.8-35.9,5.2-56.1,7.2c-7.7,0.8-12.4,2.5-19.6-2.4
	c-17.9-12-22.5-36.1-25-56.1c-9.2-73.6-8.3-150.2,2.5-229.7c3.7-27.4,9.9-52.9,18.4-76.4c2.2-5.9,5.1-12,8.9-18.3
	c14.5-24.2,31.4-21.7,55.3-18.3c75.8,10.8,141.9,60,193.7,115.3c48.4,51.7,90.6,110.1,126.6,175.2c0.5,0.9,1.7,1.3,2.6,0.8
	c0.3-0.2,0.5-0.4,0.7-0.7c5-7.8,7.1-16.8,12.3-24c6.8-9.3,13.1-18.7,19-28.1c5.7-9.1,11.9-18.5,18.6-28.2c12-17.3,24.6-34.8,38-52.6
	c6.9-9.2,19.6-24,38.1-44.2c40.9-44.6,87.7-78.4,140.2-101.2c11.5-5,21.4-8.2,29.8-9.4c13.8-2.1,28.5-3.7,44-4.9
	c13-1,24.3,3,31.8,14c8.8,12.9,15.3,27.5,19.6,44c6.7,25.9,11.5,52.1,14.4,78.7c6.9,63.7,7.4,127.5,1.4,191.3
	c-1.3,13.7-3.4,27-6.3,40c-3.1,13.9-9.6,24.5-19.6,31.8c-6.8,5-14.3,5-22.3,3.5c-22.6-4.3-45.2-7.8-67.9-10.6
	c-31.2-3.9-61.4-0.3-90.5,11c-34.6,13.4-58.6,32.6-72,57.6c-6.2,11.5-9.9,22.6-11.2,33.1c-1.6,12.9-2,26.2-1.3,39.8
	c2.7,48.8,61.3,87.5,103.4,108.1c45.8,22.4,93.1,39.1,141.7,50c73.4,16.4,147.2,18.1,221.6,5.1c6.3-1.1,12.4-2.8,18.3-5
	c6.2-2.3,12.4-3.7,18.7-4.2c5.7-0.4,11.3-1.9,16.7-4.6c8.4-4.1,17.3-6.8,26.8-8.2c7.9-1.1,14.9-3.5,20.8-7.2
	c5.2-3.2,10.8-6.1,16.7-8.7c7.3-3.1,14.7-6.4,22.2-10c4.8-2.3,9.8-1.9,14.5-4.5c123.5-66.3,211.3-164.4,263.6-294.4
	c1.5-3.8,2.5-7.6,3.1-11.4c0.6-4.1,1.8-7.9,3.6-11.5c2.7-5.4,5-11,6.6-16.9c33.8-118.7,30.5-234.8-9.8-348.4
	c-23.9-67.6-61.9-130.3-113.7-187.9c-1-1.1-1.1-2.2-0.3-3.4c12.2-18.1,22-35.2,29.4-51.3c35.7-77.8,48.2-158.2,37.3-241.1
	c-4-30.8-10.9-59.5-20.6-86.3c-28.6-78.9-75.6-143.8-141.1-194.8c-27.4-21.4-53.4-37.6-77.9-48.8c-97.4-44.5-198.1-52.8-302-24.9
	c-1.3,0.4-2.7-0.4-3.1-1.8c-12.6-45.5-32.4-87.1-59.4-124.7c-0.4-0.5-0.8-0.9-1.4-1.2C2113.2,986.3,2112.6,985.7,2112.2,984.9z"/>
<path class="st2" d="M2120.7,970.6c0.6,0.3,1,0.8,1.4,1.2c27.6,38.4,47.8,80.9,60.7,127.3c0.4,1.4,1.8,2.2,3.1,1.8
	c106.1-28.5,208.9-20,308.3,25.4c25,11.4,51.5,28,79.5,49.8c66.9,52.1,114.9,118.4,144.1,198.9c9.9,27.3,16.9,56.7,21,88.1
	c11.1,84.7-1.6,166.7-38.1,246.2c-7.6,16.5-17.5,33.9-30,52.4c-0.8,1.2-0.7,2.4,0.3,3.5c53,58.8,91.7,122.8,116.1,191.9
	c41.1,116,44.5,234.6,10,355.8c-1.7,6-3.9,11.7-6.8,17.3c-1.9,3.6-3.1,7.6-3.7,11.7c-0.6,3.8-1.6,7.7-3.1,11.6
	c-53.4,132.8-143.1,233-269.2,300.7c-4.8,2.6-10,2.2-14.8,4.6c-7.6,3.7-15.2,7.1-22.7,10.2c-6.1,2.6-11.8,5.5-17.1,8.8
	c-6.1,3.7-13.2,6.2-21.3,7.3c-9.6,1.4-18.7,4.1-27.3,8.3c-5.6,2.7-11.2,4.2-17.1,4.7c-6.4,0.5-12.8,2-19.1,4.3
	c-6,2.3-12.2,3.9-18.7,5.1c-76,13.3-151.4,11.5-226.3-5.2c-49.7-11.1-98-28.2-144.7-51.1c-43-21-102.9-60.6-105.6-110.4
	c-0.7-13.9-0.3-27.4,1.3-40.6c1.3-10.8,5.1-22,11.4-33.8c13.7-25.5,38.2-45.1,73.5-58.8c29.7-11.5,60.5-15.2,92.4-11.2
	c23.2,2.9,46.3,6.5,69.4,10.9c8.1,1.5,15.8,1.6,22.8-3.6c10.2-7.5,16.9-18.3,20-32.5c3-13.3,5.1-26.9,6.4-40.8
	c6-65.2,5.6-130.3-1.5-195.3c-2.9-27.2-7.8-54-14.7-80.4c-4.4-16.8-11-31.8-20-44.9c-7.7-11.3-19.3-15.4-32.5-14.3
	c-15.8,1.2-30.8,2.9-44.9,5c-8.5,1.3-18.6,4.5-30.4,9.6c-53.6,23.3-101.3,57.8-143.2,103.4c-18.9,20.6-31.9,35.7-38.9,45.1
	c-13.6,18.2-26.6,36.1-38.8,53.7c-6.8,9.9-13.2,19.5-19,28.8c-6,9.7-12.5,19.2-19.4,28.7c-5.4,7.4-7.5,16.5-12.6,24.5
	c-0.6,0.9-1.8,1.2-2.8,0.6c-0.3-0.2-0.5-0.4-0.7-0.7c-36.8-66.5-79.8-126.1-129.2-178.9c-52.9-56.5-120.4-106.7-197.8-117.8
	c-24.4-3.5-41.6-6-56.5,18.7c-3.9,6.4-6.9,12.7-9.1,18.7c-8.7,24-15,50-18.8,78c-11.1,81.2-11.9,159.3-2.6,234.5
	c2.5,20.4,7.2,45,25.5,57.3c7.4,5,12.1,3.2,20,2.5c20.7-2,39.8-4.5,57.3-7.3c24.9-4.1,45-5.1,60-3.2c31.6,4,59.2,14,82.7,30
	c31.4,21.4,48.8,52.7,52.3,94.1c2.7,32.5-14.3,61.5-37.4,83.8c-12.4,12-25.4,21.9-39,29.6c-36.7,21.1-77.9,39.1-123.5,54
	c-13.9,4.6-27.5,7.9-40.8,10c-7.4,1.2-14.6,2.9-21.6,4.9c-7.8,2.3-15.8,4.2-23.9,5.5c-118.9,19.8-245.2,1.9-353-55
	c-110.8-58.5-194.1-144-249.8-256.5c-13.4-27-23.8-53.1-31.2-78.2c-37-125.9-33.4-249,10.9-369.2c10.4-28.1,24-56.5,40.8-85.3
	c20.3-34.8,44-67.1,71.1-97c1.2-1.3,1.3-3.4,0.1-4.8c-5.2-6.6-9.9-13.5-13.9-20.8c-57.7-103.6-73-212.4-46-326.4
	c7.1-29.9,17.5-58.6,31.1-85.9c43.4-87,107.7-152.5,192.6-196.4c89.4-46.2,186-59.2,289.8-39.1c14.4,2.8,26.6,9.8,42,10
	c1.4,0,2.3-0.6,2.7-2c13.7-48.6,34-92,61.1-130.3c50-70.6,113.2-122.2,189.7-154.8c58.1-24.7,120.1-35.7,186-33.1
	c13.7,0.6,27.2,1.9,40.6,4.2c9,1.5,18,2.7,27.2,3.7c8.5,1,17.3,2.7,26.3,5.1c92.2,24.8,169.3,75.1,231.3,150.8
	c5.6,6.8,10.2,13.8,13.9,21C2119.3,969.5,2119.9,970.1,2120.7,970.6z M1781.9,1016.2c0.2,0.1,0.3,0.1,0.5,0.1
	c0.7,0.1,1.2-0.2,1.6-0.8c8.4-13.1,22.4-28.9,25.8-42.6c3.9-15.5,1.8-30.5-6.3-45.2c-0.1-0.2-0.3-0.3-0.6-0.2c-0.1,0-0.3,0-0.5,0
	c-0.8-0.1-1.3-0.5-1.7-1.2c-8.9-16.2-19.4-33.1-31.6-50.8c-3.5-5-6.3-10-8.4-15c-0.4-0.8-1.3-1.3-2.2-0.9c-0.3,0.1-0.6,0.4-0.8,0.7
	c-11.1,18.8-23.4,37.5-36.9,56.2c-8.3,11.5-12.8,25.8-13.6,42.8c-0.5,10.3,2.1,19.4,7.6,27.4c5.9,8.6,11.5,16.7,16.6,24.3
	c0.7,1,1,0.9,1-0.3c0-0.5,0.2-0.9,0.6-1.2c0.3-0.2,0.7-0.1,1,0.2c0,0.1,0.1,0.1,0.1,0.2c2.9,9,6.1,14.7,9.5,17.2
	c1.4,1,2.5,2.2,3.3,3.6l9.2,16.1c0.9,1.6,3,2.2,4.6,1.2c0.7-0.4,1.3-1.1,1.5-2c1.4-5.2,3.7-9.7,6.9-13.7c4.3-5.4,8.5-10.8,12.4-16.1
	C1781.6,1016.1,1781.7,1016.1,1781.9,1016.2z M1667,1038.8c-1,0.8-1.5,1.9-1.5,3.3c-0.1,2.9-0.5,5.7-1.3,8.4
	c-2.3,8.1-2.2,16.9,0.2,26.2c5.6,21.3,14,41.9,25.2,61.8c2.6,4.5,5.6,9.1,9.1,13.6c3.1,4,5.6,8.4,7.6,13.1
	c5.8,13.4,8.7,20.2,8.8,20.3c12.6,23.7,26.4,46.8,41.4,69.4c2.6,3.9,4.6,3.6,6.1-0.8c2.4-7.2,6.1-14.3,11-21.1
	c3-4.2,7.2-6.5,9.7-10.7c6.9-11.7,13.5-23.3,19.9-34.8c0.6-1,0.8-2.2,0.7-3.3c-0.1-1.8,0.8-2.8,2.6-2.9c14-24.8,26.1-48.2,36.4-70
	c7.2-15.2,11.5-29.7,13.1-43.7c1.6-13.8-1.2-28.7-8.3-44.5c-0.5-1.2-1.4-2.1-2.5-2.6c-1.3-0.6-2.2-1.7-2.5-3.1
	c-1.3-5.9-3.3-11.5-6.2-16.7c-1.2-2.1-2.3-2.1-3.5,0l-18.6,34.1c-0.8,1.4-2,2.2-3.7,2.2c-1,0-1.9,0.4-2.4,1.2
	c-8.4,11.2-15.2,22.2-20.5,32.9c-1.6,3.3-3.3,6.3-5,9.2c-6.5,10.8-13.3,21.9-20.4,33.3c-2.5,4-4.7,3.9-6.7-0.4l-10.9-22.9
	c-0.2-0.6-0.7-0.8-1.2-0.6c-0.5,0.1-1,0.1-1.4-0.1c-0.4-0.2-0.7-0.4-0.9-0.7c-13.2-20-26.1-39.8-38.9-59.4
	c-5.6-8.6-11-18.3-16.1-29.1c-0.5-1.1-1.8-1.5-2.9-1c-0.5,0.2-0.9,0.7-1.1,1.2l-12.8,35C1669,1036.8,1668.2,1037.9,1667,1038.8z
	 M1921,1207.5c-0.7-5.2-1.3-10.3-1.8-15.1c-0.5-5.1-2.1-9.4-4.8-13c-2.6-3.4-4.6-7.1-5.9-11.1c-4.6-13.5-12-26-22.1-37.4
	c-3.1-3.5-6.6-4.8-10.2-3.7c-2.7,0.7-4.4,2.6-5.2,5.6c-2,7.6-4.9,14.7-8.7,21.1c-3.5,5.8-6.6,13-9.3,21.4
	c-3.3,10.3-7.9,20.1-13.7,29.2c-3.9,6.1-7.5,12-10.7,17.6c-15.1,25.9-30.2,52.2-45.2,78.9c-8,14.2-15.1,28-21.4,41.5
	c-0.6,1.3-2.2,1.9-3.5,1.2c-0.5-0.2-0.8-0.6-1.1-1c-27.9-47.1-54.4-93.9-79.5-140.5c-5.9-11-11.1-22-15.5-32.9
	c-4.8-12-9.3-23.4-13.3-34c-1.5-3.9-3.1-6.5-4.8-7.7c-3.7-2.6-7-2.4-9.9,0.5c-8.5,8.4-16.3,21.6-23.6,39.8
	c-5.7,14.4-10.7,28.1-14.9,41.2c-2,6.3-3.3,13.1-3.9,20.5c-0.5,6.2-1.3,12.4-2.3,18.7c-0.9,5.2-0.6,10.3,0.7,15.3
	c1.2,4.2,1.9,8.6,2.3,13c0.3,4.1,1.6,7.8,3.7,11.1c1.8,2.8,4.6,5.4,8.5,7.8c9.3,5.7,17.2,13,23.5,21.9c7.5,10.6,13.6,16.6,21.6,25
	c3.4,3.5,6.6,7.7,9.8,12.5c2.9,4.4,6,8.8,9.4,13.3c8.7,11.6,17.1,25.8,25.3,42.6c2.9,6,7.8,10.4,9.9,17.3c2.1,6.8,5.2,13.2,9.4,19.3
	c0.2,0.2,0.3,0.3,0.6,0.1c0.4-0.3,0.8-0.3,1.1-0.1c1.3,0.9,2,2.1,2.1,3.6c0.4,4.7,1.9,8.7,4.6,12c2.5,3.1,4.6,6.3,6.2,9.8
	c5.7,12.7,11.9,25.7,18.4,39c4.3,8.8,7.7,17.8,10.2,26.9c0.3,1,0.9,1.7,1.8,2.1c0.8,0.3,1.6,0.3,2.3,0c1.5-0.8,2.3-2.1,2.5-3.7
	c0.2-3.3,1.4-6.2,3.3-8.6c2.2-2.8,4.1-5.9,5.7-9.5c14.1-31.5,28.8-61.9,44.3-91c0.3-0.6,0.5-1.2,0.5-1.9c0-1.5,0.3-2.8,1.1-4.1
	c11.3-18,22.8-36.1,34.4-54.3c1.9-3,4.1-5.8,6.4-8.5c3-3.3,5.4-7,7.2-11.1c2.3-5.1,5.1-9.6,8.5-13.7c7.3-8.9,15.6-17.9,24.7-27.1
	c2.1-2.2,7-5.7,14.6-10.5c6.4-4,10.3-8.7,11.9-13.9c6-20,5.4-43.6-1.9-70.6c-0.2-0.6-0.6-1.2-1.1-1.6
	C1921.7,1209.9,1921.1,1208.8,1921,1207.5z M1861.1,1434.4c0.1-0.2,0.1-0.4,0-0.6c-0.3-0.7-0.7-0.8-1.2-0.2c-3.9,4.2-6.6,9-8,14.3
	c-1,3.9-2.8,7.7-5.4,11.3c-16.8,24-30.1,47.5-39.8,70.7c-2.3,5.5-5,10.3-8.2,14.3c-0.7,0.9-1.3,2-1.7,3.2c-1.1,3.5-2.8,6.8-4.9,9.9
	c-0.1,0.2-0.2,0.2-0.4,0.1c-0.1-0.1-0.2-0.2-0.2-0.4c-0.2-0.8-0.6-0.8-0.9-0.1c-7.6,15-15.3,30.4-23.3,46
	c-3.2,6.2-2.5,12.3-5.1,18.6c-0.5,1.2-2,1.8-3.2,1.3c-0.4-0.2-0.8-0.5-1.1-0.9c-4.1-6.1-6.3-12.6-6.8-19.6c-0.1-1.8-0.7-3.5-1.7-5.1
	c-0.8-1.3-1.9-2.2-3.1-2.9c-1.4-0.7-2.5-1.7-3.2-3.1c-32.6-66.9-70.7-134.9-114.4-203.8c-8.5-13.4-18.8-23.7-30.9-31.1
	c-26-15.9-54.7,25.7-65.3,46.1c-0.5,0.9-1.2,1.6-2,2.1c-1.2,0.7-2.2,1.8-2.9,3.2c-6,11.5-11,21.6-14.9,34.5
	c-3,10.2-6.2,20.5-9.5,30.9c-5.4,16.9-8.9,35.1-10.4,54.4c-0.7,9.8,0.6,19.1,3.9,27.7c0.6,1.7,1.8,2.9,3.5,3.6
	c12.7,5.4,24.4,11.9,35.1,19.4c31.8,22.4,62.3,52.6,91.5,90.6c3.9,5,8.2,10,13,15c4.1,4.3,7.5,9,10.1,14.2c3.3,6.5,7.6,12.5,13,18
	c4.4,4.6,8.4,9.8,11.8,15.5c3.7,6.2,7.7,12.1,11.9,17.6c4.4,5.7,8.6,12,12.8,19c8.4,14.2,17.3,27.9,26.7,41.2
	c0.8,1.1,1.2,2.4,1.3,3.8c0.1,1.6,0.5,3.2,1.3,4.6c8.1,14.2,16.5,27.7,25.2,40.3c1.9,2.8,1.8,5.9,4,8.6c0.8,1,2.2,1.2,3.3,0.5
	c1.1-0.8,1.7-1.9,1.7-3.3c0-1.5,0.3-2.9,1-4.3c15.1-27.8,27.2-48.6,36.4-62.6c2.3-3.4,6.7-4.5,9.3-9.5c1.9-3.8,4.2-7.4,6.8-10.8
	c4.9-6.5,6.3-14.2,11.3-21.5c19.4-28.2,38.9-54.9,58.6-80.1c16.6-21.2,35.4-42.2,56.6-63.1c23-22.7,48.1-40.3,75.5-52.8
	c1.4-0.7,2.4-1.7,3.1-3.2c3.5-8.4,5-17,4.4-25.8c-0.6-10.5-0.9-21.7-3.1-32c-7.3-33.7-19.3-65.7-36.1-96c-3.9-7-10.1-16.1-18.7-27.3
	c-9-11.8-19.4-18.9-31.2-21.5c-4.4-1-8.6-0.4-12.5,1.6c-8.8,4.6-16.6,11.1-23.5,19.5c-10.6,12.9-20.6,28.3-30.2,46.1
	c-2.7,5.1-5.8,9.8-9.3,14.2C1861,1434.7,1861,1434.7,1861.1,1434.4z M1957.6,1990.9c5.7-3.3,11.3-6.8,17-10.4
	c9.1-6,17.9-10.5,26.4-13.7c12.1-4.6,24.2-9.2,36.3-14c0.7-0.3,1.2-0.7,1.6-1.4c0.7-1.2,1.8-2,3.1-2.4c20.8-5.2,42.1-7.3,64-6.2
	c1.5,0.1,3-0.3,4.3-1.1c8.7-5.2,13-13.8,13-25.8c-0.1-17.7-0.3-34.5-0.5-50.5c-0.2-19.4-4.7-38.5-9.6-57.4
	c-0.9-3.3-1.3-8.8-1.4-16.3c-0.1-5.6-1.4-11.1-3.9-16.6c-5-10.9-2.4-22.9-7.5-33.9c-2.5-5.2-4.4-10.3-5.8-15.4
	c-6.6-23.9-15.1-47.7-25.4-71.3c-3.1-7.1-6.8-14.1-11.1-20.8c-9.3-14.7-21.1-34.2-41.8-21.5c-16.9,10.4-33.5,24.6-49.8,42.7
	c-29.7,32.9-56.7,66.2-81.1,99.9c-36.4,50.2-68.2,96.2-95.4,138.1c-4.8,7.3-9.8,14.6-15,21.7c-5.4,7.3-10,14.9-13.8,22.7
	c-0.4,0.7-1.3,1-2,0.6c-0.2-0.1-0.4-0.3-0.5-0.5c-9.8-14.5-19.5-29.2-29.1-44.1c-49.2-76-97.1-142.8-143.8-200.4
	c-23.4-28.8-48.7-58-79.4-78.8c-8.4-5.7-20.4-9.7-29-1.5c-8.2,7.8-14.8,16.5-19.8,26c-8.9,17-16.9,36.2-24,57.6
	c-22.4,67.5-35.1,135.8-38.2,205c-0.3,5.6,0,11,0.7,16.2c0.8,5.6,2.1,10.8,4,15.7c2.4,6.4,8.7,10.4,15.4,10c8.9-0.6,17-1.2,25.9,0.3
	c5,0.9,10,1.3,15,1.4c4.8,0.1,9.6,0.9,14.3,2.3c23.5,7.2,45,16.5,64.4,27.8c16.3,9.5,30.5,18.6,42.6,27.5
	c48.6,35.4,92.5,77.4,131.7,125.9c7.9,9.8,15.5,20.1,22.9,30.9c2.2,3.1,3.7,6.4,4.7,9.8c1.3,4.5,3.5,8.5,6.7,11.9
	c3.1,3.3,5.6,7,7.6,11.2c2.3,4.9,4.3,9.8,6,14.6c1.3,3.8,2.6,3.8,4,0c4.3-12.3,10.5-24.9,17.6-35.8c31.6-48.4,71.6-93.4,119.9-134.8
	c13.5-11.6,27.8-23.1,42.7-34.6C1947,1997.6,1952.3,1994,1957.6,1990.9z"/>
<path class="st1" d="M1781.5,1016.3c-4,5.3-8.1,10.6-12.4,16.1c-3.1,3.9-5.4,8.5-6.9,13.7c-0.5,1.8-2.4,2.8-4.2,2.3
	c-0.8-0.2-1.5-0.8-2-1.5l-9.2-16.1c-0.8-1.4-1.9-2.6-3.3-3.6c-3.4-2.5-6.6-8.2-9.5-17.2c-0.1-0.4-0.5-0.6-0.9-0.5
	c-0.1,0-0.1,0.1-0.2,0.1c-0.4,0.3-0.6,0.7-0.6,1.2c0,1.2-0.3,1.3-1,0.3c-5.1-7.6-10.7-15.8-16.6-24.3c-5.5-8-8-17.1-7.6-27.4
	c0.8-17,5.3-31.3,13.6-42.8c13.5-18.7,25.8-37.4,36.9-56.2c0.5-0.8,1.5-1,2.3-0.6c0.3,0.2,0.5,0.5,0.7,0.8c2.2,5,5,10,8.4,15
	c12.2,17.7,22.7,34.6,31.6,50.8c0.4,0.7,0.9,1.1,1.7,1.2c0.2,0,0.3,0,0.5,0c0.3-0.1,0.5,0,0.6,0.2c8,14.6,10.1,29.7,6.3,45.2
	c-3.4,13.7-17.3,29.5-25.8,42.6c-0.4,0.6-0.9,0.9-1.6,0.8c-0.2,0-0.3-0.1-0.5-0.1C1781.7,1016.1,1781.6,1016.1,1781.5,1016.3z"/>
<path class="st1" d="M1669.5,1035.4l12.8-35c0.4-1.1,1.7-1.7,2.8-1.3c0.5,0.2,0.9,0.6,1.2,1.1c5.1,10.8,10.5,20.5,16.1,29.1
	c12.7,19.6,25.7,39.4,38.9,59.4c0.2,0.3,0.6,0.6,0.9,0.7c0.4,0.2,0.9,0.2,1.4,0.1c0.6-0.2,1,0,1.2,0.6l10.9,22.9
	c2,4.2,4.2,4.3,6.7,0.4c7-11.3,13.8-22.4,20.4-33.3c1.7-2.8,3.4-5.9,5-9.2c5.3-10.7,12.1-21.7,20.5-32.9c0.6-0.7,1.4-1.1,2.4-1.2
	c1.6,0,2.9-0.8,3.7-2.2l18.6-34.1c1.1-2.1,2.3-2.1,3.5,0c2.8,5.2,4.9,10.7,6.2,16.7c0.3,1.4,1.2,2.5,2.5,3.1c1.2,0.6,2,1.5,2.5,2.6
	c7.1,15.8,9.9,30.6,8.3,44.5c-1.6,14-5.9,28.5-13.1,43.7c-10.3,21.9-22.4,45.2-36.4,70c-1.8,0.1-2.7,1.1-2.6,2.9
	c0.1,1.2-0.2,2.3-0.7,3.3c-6.4,11.5-13,23.1-19.9,34.8c-2.5,4.2-6.7,6.6-9.7,10.7c-4.9,6.9-8.6,13.9-11,21.1
	c-1.5,4.4-3.5,4.7-6.1,0.8c-15-22.6-28.8-45.7-41.4-69.4c-0.1-0.1-3-6.9-8.8-20.3c-2-4.7-4.5-9.1-7.6-13.1
	c-3.5-4.5-6.5-9.1-9.1-13.6c-11.3-19.9-19.7-40.5-25.2-61.8c-2.4-9.3-2.5-18-0.2-26.2c0.8-2.7,1.2-5.6,1.3-8.4
	c0.1-1.4,0.6-2.6,1.5-3.3C1668.2,1037.9,1669,1036.8,1669.5,1035.4z"/>
<path class="st1" d="M1922.9,1210.6c0.6,0.4,0.9,0.9,1.1,1.6c7.3,27,8,50.6,1.9,70.6c-1.6,5.2-5.5,9.9-11.9,13.9
	c-7.6,4.8-12.4,8.4-14.6,10.5c-9.1,9.2-17.4,18.3-24.7,27.1c-3.4,4.1-6.3,8.7-8.5,13.7c-1.9,4.1-4.3,7.8-7.2,11.1
	c-2.4,2.7-4.5,5.5-6.4,8.5c-11.6,18.2-23,36.3-34.4,54.3c-0.8,1.2-1.1,2.6-1.1,4.1c0,0.7-0.2,1.3-0.5,1.9
	c-15.4,29.2-30.2,59.5-44.3,91c-1.6,3.5-3.5,6.7-5.7,9.5c-2,2.5-3.1,5.4-3.3,8.6c-0.1,1.7-0.9,2.9-2.5,3.7c-0.7,0.4-1.5,0.4-2.3,0
	c-0.9-0.4-1.5-1.1-1.8-2.1c-2.5-9.1-5.9-18.1-10.2-26.9c-6.5-13.3-12.7-26.3-18.4-39c-1.6-3.5-3.6-6.8-6.2-9.8
	c-2.7-3.2-4.3-7.2-4.6-12c-0.1-1.5-0.8-2.7-2.1-3.6c-0.3-0.2-0.7-0.2-1.1,0.1c-0.2,0.1-0.4,0.1-0.6-0.1c-4.2-6.1-7.3-12.6-9.4-19.3
	c-2.1-6.8-7-11.2-9.9-17.3c-8.2-16.8-16.6-31-25.3-42.6c-3.4-4.5-6.5-8.9-9.4-13.3c-3.2-4.8-6.4-8.9-9.8-12.5
	c-8-8.5-14.1-14.4-21.6-25c-6.3-8.9-14.2-16.2-23.5-21.9c-3.8-2.4-6.6-5-8.5-7.8c-2.2-3.3-3.4-7-3.7-11.1c-0.4-4.4-1.1-8.8-2.3-13
	c-1.4-4.9-1.6-10-0.7-15.3c1-6.3,1.8-12.5,2.3-18.7c0.6-7.4,1.9-14.2,3.9-20.5c4.2-13.1,9.2-26.8,14.9-41.2
	c7.2-18.2,15.1-31.4,23.6-39.8c2.9-2.9,6.2-3,9.9-0.5c1.7,1.2,3.3,3.7,4.8,7.7c4,10.6,8.4,22,13.3,34c4.4,10.9,9.6,21.9,15.5,32.9
	c25.1,46.6,51.6,93.4,79.5,140.5c0.8,1.2,2.4,1.6,3.6,0.9c0.4-0.3,0.8-0.6,1-1.1c6.2-13.5,13.4-27.4,21.4-41.5
	c15.1-26.6,30.2-52.9,45.2-78.9c3.2-5.6,6.8-11.4,10.7-17.6c5.8-9.2,10.4-18.9,13.7-29.2c2.7-8.4,5.8-15.6,9.3-21.4
	c3.9-6.4,6.8-13.5,8.7-21.1c0.8-3,2.5-4.9,5.2-5.6c3.7-1,7.1,0.2,10.2,3.7c10.1,11.4,17.5,23.8,22.1,37.4c1.4,4,3.3,7.7,5.9,11.1
	c2.7,3.6,4.3,7.9,4.8,13c0.5,4.8,1,9.8,1.8,15.1C1921.1,1208.8,1921.7,1209.9,1922.9,1210.6z"/>
<path class="st1" d="M1861.1,1434.6c3.5-4.3,6.5-9,9.3-14.2c9.5-17.9,19.6-33.2,30.2-46.1c6.9-8.4,14.8-14.9,23.5-19.5
	c3.9-2.1,8-2.6,12.5-1.6c11.8,2.6,22.2,9.7,31.2,21.5c8.5,11.2,14.8,20.3,18.7,27.3c16.8,30.3,28.8,62.3,36.1,96
	c2.2,10.3,2.5,21.5,3.1,32c0.6,8.9-0.9,17.5-4.4,25.8c-0.6,1.4-1.6,2.5-3.1,3.2c-27.4,12.5-52.5,30.1-75.5,52.8
	c-21.2,20.9-40.1,42-56.6,63.1c-19.7,25.2-39.2,51.9-58.6,80.1c-5,7.3-6.4,15-11.3,21.5c-2.6,3.4-4.9,7-6.8,10.8
	c-2.6,4.9-7,6.1-9.3,9.5c-9.2,14-21.3,34.8-36.4,62.6c-0.7,1.3-1,2.7-1,4.3c0,1.4-0.5,2.5-1.7,3.3c-1,0.7-2.5,0.5-3.3-0.5
	c-2.2-2.7-2-5.7-4-8.6c-8.7-12.6-17.1-26.1-25.2-40.3c-0.8-1.4-1.3-3-1.3-4.6c-0.1-1.4-0.5-2.7-1.3-3.8c-9.4-13.3-18.3-27-26.7-41.2
	c-4.1-6.9-8.4-13.3-12.8-19c-4.3-5.5-8.2-11.4-11.9-17.6c-3.4-5.7-7.4-10.9-11.8-15.5c-5.3-5.5-9.6-11.5-13-18
	c-2.6-5.2-6-10-10.1-14.2c-4.8-5-9.1-10-13-15c-29.2-38-59.7-68.2-91.5-90.6c-10.7-7.5-22.4-14-35.1-19.4c-1.7-0.7-2.9-1.9-3.5-3.6
	c-3.4-8.6-4.7-17.9-3.9-27.7c1.5-19.3,4.9-37.5,10.4-54.4c3.3-10.4,6.5-20.7,9.5-30.9c3.9-13,8.9-23,14.9-34.5
	c0.7-1.4,1.7-2.5,2.9-3.2c0.9-0.5,1.6-1.3,2-2.1c10.5-20.4,39.2-62,65.3-46.1c12.1,7.4,22.5,17.8,30.9,31.1
	c43.7,69,81.8,136.9,114.4,203.8c0.7,1.4,1.8,2.5,3.2,3.1c1.3,0.6,2.3,1.6,3.1,2.9c1,1.6,1.6,3.3,1.7,5.1c0.5,7,2.7,13.5,6.8,19.6
	c0.7,1.1,2.3,1.5,3.4,0.7c0.4-0.3,0.7-0.6,0.9-1.1c2.6-6.3,1.9-12.4,5.1-18.6c8-15.6,15.7-30.9,23.3-46c0.4-0.7,0.7-0.7,0.9,0.1
	c0,0.2,0.1,0.3,0.2,0.4c0.2,0.1,0.3,0.1,0.4-0.1c2.1-3.1,3.8-6.4,4.9-9.9c0.4-1.2,1-2.2,1.7-3.2c3.1-4,5.9-8.8,8.2-14.3
	c9.8-23.2,23.1-46.7,39.8-70.7c2.5-3.6,4.3-7.3,5.4-11.3c1.4-5.3,4.1-10.1,8-14.3c0.5-0.6,0.9-0.5,1.2,0.2c0.1,0.2,0.1,0.4,0,0.6
	C1861,1434.7,1861,1434.7,1861.1,1434.6z"/>
<path class="st1" d="M1941.6,2001.7c-15,11.4-29.2,23-42.7,34.6c-48.4,41.4-88.4,86.4-119.9,134.8c-7.1,11-13.3,23.5-17.6,35.8
	c-1.4,3.8-2.7,3.8-4,0c-1.6-4.8-3.6-9.7-6-14.6c-2-4.2-4.5-7.9-7.6-11.2c-3.2-3.4-5.4-7.4-6.7-11.9c-1-3.4-2.5-6.6-4.7-9.8
	c-7.4-10.8-15-21.1-22.9-30.9c-39.2-48.5-83.1-90.5-131.7-125.9c-12.2-8.9-26.4-18.1-42.6-27.5c-19.4-11.3-40.9-20.6-64.4-27.8
	c-4.7-1.4-9.5-2.2-14.3-2.3c-5-0.1-10-0.5-15-1.4c-8.9-1.5-17-0.9-25.9-0.3c-6.8,0.4-13-3.6-15.4-10c-1.9-4.9-3.2-10.1-4-15.7
	c-0.8-5.2-1-10.6-0.7-16.2c3.1-69.2,15.8-137.5,38.2-205c7.1-21.4,15.1-40.6,24-57.6c5-9.5,11.6-18.2,19.8-26
	c8.6-8.2,20.6-4.3,29,1.5c30.7,20.8,56,50,79.4,78.8c46.7,57.6,94.6,124.4,143.8,200.4c9.6,14.9,19.3,29.6,29.1,44.1
	c0.5,0.7,1.4,0.9,2.1,0.4c0.2-0.1,0.4-0.3,0.5-0.5c3.9-7.8,8.5-15.4,13.8-22.7c5.2-7.1,10.3-14.4,15-21.7
	c27.2-41.9,59-87.9,95.4-138.1c24.4-33.7,51.4-67,81.1-99.9c16.3-18.1,32.9-32.3,49.8-42.7c20.6-12.7,32.4,6.8,41.8,21.5
	c4.3,6.8,8,13.7,11.1,20.8c10.3,23.6,18.8,47.4,25.4,71.3c1.4,5.1,3.3,10.2,5.8,15.4c5.2,10.9,2.5,23,7.5,33.9
	c2.5,5.5,3.8,11,3.9,16.6c0.1,7.6,0.5,13,1.4,16.3c4.9,18.9,9.4,38,9.6,57.4c0.2,15.9,0.3,32.8,0.5,50.5c0.1,12-4.2,20.6-13,25.8
	c-1.3,0.8-2.7,1.2-4.3,1.1c-21.9-1.1-43.2,1-64,6.2c-1.4,0.3-2.4,1.1-3.1,2.4c-0.4,0.6-0.9,1.1-1.6,1.4c-12.1,4.8-24.2,9.5-36.3,14
	c-8.5,3.2-17.3,7.7-26.4,13.7c-5.6,3.6-11.3,7.1-17,10.4C1952.3,1994,1947,1997.6,1941.6,2001.7z"/>
</svg>
