<?xml version="1.0" encoding="utf-8"?>
<!-- Generator: Adobe Illustrator 27.7.0, SVG Export Plug-In . SVG Version: 6.00 Build 0)  -->
<svg version="1.1" id="Layer_1" xmlns="http://www.w3.org/2000/svg" xmlns:xlink="http://www.w3.org/1999/xlink" x="0px" y="0px"
	 viewBox="0 0 3500 3500" style="enable-background:new 0 0 3500 3500;" xml:space="preserve">
<style type="text/css">
	.st0{fill:#E07C44;}
</style>
<path class="st0" d="M2919.6,630.2c-72.4-96.5-158.5-183.5-255.8-258.8c-43.7-33.8-89.7-65.3-137.6-94.1
	c-223.1-134.1-489.7-212.1-776.1-212.1c-784.2,0-1419.9,584.5-1419.9,1305.3c0,456.4,254.8,858.2,640.9,1091.5
	c67.2,40.6,138.3,76.1,212.8,105.9c173.4,69.4,364.9,107.9,566.2,107.9c26.2,0,52.3-0.7,78.2-2c82.3-4.1,162.7-14.7,240.7-31.1
	c165.3-34.9,319.6-96.2,457.2-179c185.2-111.3,340.4-261.4,452-437.8c122-192.6,191.8-416.5,191.8-655.5
	C3169.9,1095.6,3077.4,840.6,2919.6,630.2L2919.6,630.2z M2068.9,2424c-77.4,19.3-157.9,31.6-240.7,36.4
	c-25.8,1.5-51.9,2.3-78.2,2.3c-192,0-373.8-40.8-535.2-113.4l62.2-437.7h290.5l26,248.7l50.9-248.7l98.5-482.6L1632.2,371.4h-364
	l-264,1857.2c-280.6-200.2-461-510.4-461-858.1c0-445.4,296-829.3,719.4-999.1c2-0.8,3.9-1.5,5.9-2.4c75.5-29.8,155-52.9,237.6-68.3
	c38.4-7.2,77.4-12.6,116.9-16.5c41.8-3.9,84.1-6,127-6c26.2,0,52.3,0.8,78.2,2.3c82.8,4.8,163.3,17.1,240.7,36.5
	c58,14.3,114.3,32.6,168.5,54.3h-409.2v1919.3h571.4C2298.6,2349.3,2187.4,2394.6,2068.9,2424L2068.9,2424z M1313.9,1653
	l130.4-917.6l96.1,917.6H1313.9L1313.9,1653z M2526.1,2206.4V2026h-457.2v-584.4h342.9v-300h-342.9V630.2h457.2v-95.4
	c38.9,29.7,75.9,61.5,110.4,95.4c198.7,194.8,320.3,454.9,320.3,740.4c0,245.7-90.2,472.8-242,655.5
	C2659.6,2092.4,2596.3,2152.9,2526.1,2206.4L2526.1,2206.4z"/>
<g>
	<path d="M373.1,3162.6c0-42.6-9.6-80.3-28.8-113.1c-15.3-26-41.6-55.8-79-89.2c-20.8,47.8-34.9,84.4-42.4,109.7
		c61.5,62.4,92.2,100.8,92.2,115.1c0,26.7-25.6,61.5-76.8,104.6s-91.3,64.6-120.2,64.6c-20.8,0-54.9-10.9-102.4-32.7H2.9
		c-2,4.2-2.9,8.3-2.9,12.2c0,15.9,30.7,35.9,92.2,60c58.2,22.4,98,33.6,119.5,33.6c44.5,0,83.6-34.1,117-102.4
		C358.3,3266.9,373.1,3212.7,373.1,3162.6L373.1,3162.6z"/>
	<path d="M204.6,2857.1c21.9,16.8,36.2,25.6,42.7,26.6c51-28,76.6-47.6,76.6-59c0-2.9-12.2-15.4-36.6-37.3
		c-24.4-21.9-38-32.9-41-32.9c-4.6,0-18.1,10.7-40.7,31.9c-22.6,21.3-33.9,34.1-33.9,38.3C171.7,2829.6,182.6,2840.4,204.6,2857.1
		L204.6,2857.1z"/>
	<path d="M689.1,3021.7c-18.5-43.2-42.4-68.9-71.7-77.1c-30.9,8.8-60,36.6-87.3,83.4c-25.4,42.9-38,81.9-38,117
		c0,61.8,24.1,92.7,72.2,92.7c28.6,0,49.1-6.8,61.5-20.5c5.5-5.9,15.8-24.9,30.7-57.1c2.6,3.6,3.9,7.8,3.9,12.7
		c0,7.5-2.3,17.4-6.8,29.8c-12,29.3-40.1,62.4-84.1,99.5c-44.1,37.1-82.5,59.3-115.3,66.8c-14.3,3.6-39,6.2-74.1,7.8
		c-31.5,1-55.1,3.9-70.7,8.8v7.3c35.1,27.9,108.4,41.9,219.9,41.9c54.9,0,100.8-38.4,137.5-115.1c30.2-63.7,45.3-126.8,45.3-189.2
		C712,3094.4,704.3,3058.1,689.1,3021.7L689.1,3021.7z M621.3,3113.9v3.4c-19.2,6.8-30.4,10.2-33.7,10.2c-12.7,0-28.8-7.1-48.3-21.5
		c2.9-9.1,8.8-18.1,17.5-27.1c8.8-8.9,17.7-13.4,26.8-13.4c10.7,0,19.8,5.5,27.3,16.6C618.5,3093.2,621.9,3103.8,621.3,3113.9
		L621.3,3113.9z"/>
	<path d="M1493.2,2990c-2.9-12.4-5.5-24.4-7.8-36.1c-4.2-11.7-14-17.6-29.3-17.6c-28.6,0-62.8,14.2-102.7,42.7
		c-39.8,28.5-65.4,56.3-76.8,83.6c-18.5,43.2-30.4,67.1-35.6,71.7h-54.6c-44.6,0-79-15.3-103.4-45.8c-21.5-32.8-43.1-65.4-64.9-97.5
		c-5.5,7.5-17.1,25.6-34.6,54.4c-17.6,28.8-26.3,45.3-26.3,49.5c0,1.3,10.4,15.4,31.2,42.4c20.8,27,31.2,46.5,31.2,58.5
		c0,25-29.8,57.5-89.2,97.3c-59.5,39.8-104.8,59.7-136.1,59.7c-20.2,0-43.1-7.2-68.8-21.5c-25.7-14.3-37.5-21.5-35.6-21.5
		c-3.2,0-4.9,0.8-4.9,2.4v13.7c19.2,21.8,54.1,45.2,104.8,70.2c50.7,25,89.1,37.6,115.1,37.6c39.7,0,75.9-23.4,108.8-70.2
		c22.4-39.3,44.7-78.4,66.8-117l5.4-6.8c18.2,8.8,32.2,13.2,41.9,13.2h102.4c8.1,0,17.9-11.6,29.3-34.9
		c11.4-23.2,20.3-36.6,26.8-40.2c116.1,42.9,174.8,67.9,176.1,75.1c13-20.8,26.3-41.6,40-62.4c17.9-28.9,26.8-50.6,26.8-64.9
		c0-17.9-4.6-40.5-13.7-67.8C1508.4,3035.7,1500.9,3013.1,1493.2,2990L1493.2,2990z M1343.4,3062.7c19.2-13,35.6-19.5,49.2-19.5
		l6.8,1c11.1,21.5,18.2,38.7,21.5,51.7L1343.4,3062.7L1343.4,3062.7z"/>
	<path d="M1619.5,2914.9l48.3,346.2c41.9-48.8,62.9-109.7,62.9-182.9c0-63.1-10.6-164.5-31.7-304.3
		C1659.6,2828.3,1633.1,2875.2,1619.5,2914.9L1619.5,2914.9z"/>
	<path d="M3264.5,3132.4c-6.5,0-25.7-12.9-57.6-38.8s-47.8-41.2-47.8-46.1c0-2.9,0.3-4.4,1-4.4l1,1c26-13,64.7-19.5,116.1-19.5
		c36.1,0,64.9,4.2,86.3,12.7c2.9,1.3,28.1,15,75.6,41c-9.4-41.6-27.1-77.5-53.1-107.8c-29.9-34.1-64.2-51.2-102.9-51.2
		c-32.5,0-73.3,18.8-122.4,56.3c-49.1,37.6-78.7,72.1-88.8,103.6c-3.6,24.7-5.4,43.1-5.4,55.1h-89.2c7.5-20.8,11.2-34,11.2-39.5
		c0-28.9-13-55.3-39-79c-24.4-24.4-51.4-36.6-80.9-36.6c-61.8,0-169.4,51.7-322.8,155.1H2492c20.8-62.1,31.2-102.7,31.2-121.9v-6.3
		c0-3.9-0.3-10.7-1-20.5c-12.4,4.2-28.4,18.4-48.3,42.4c-21.1,24.4-31.7,41.1-31.7,50.2c0,20.5-4.2,39.2-12.7,56.1h-105.8
		c-44.6,0-79-15.3-103.4-45.8c-21.5-32.8-43.1-65.4-64.9-97.5c-5.5,7.5-17.1,25.6-34.6,54.4c-17.6,28.8-26.3,45.3-26.3,49.5
		c0,1.3,10.4,15.4,31.2,42.4c20.8,27,31.2,46.5,31.2,58.5c0,25-29.8,57.5-89.2,97.3c-59.5,39.8-104.8,59.7-136.1,59.7
		c-20.2,0-43.1-7.2-68.8-21.5c-25.7-14.3-37.6-21.5-35.6-21.5c-3.2,0-4.9,0.8-4.9,2.4v13.7c19.2,21.8,54.1,45.2,104.8,70.2
		c50.7,25,89.1,37.6,115.1,37.6c39.7,0,75.9-23.4,108.8-70.2c22.4-39.3,44.7-78.4,66.8-117l5.4-6.8c18.2,8.8,32.2,13.2,41.9,13.2
		h137.5c2.9,0,6.1-1.4,9.5-4.1c3.4-2.8,7-5.9,10.7-9.3c3.7-3.4,7-6.7,9.8-9.8s5.3-5.3,7.6-6.6c5.9,9.8,9.4,19.7,10.7,29.8h979.2
		l69.7-120.4L3264.5,3132.4L3264.5,3132.4z M2659.7,3133.4c12.4-5.9,24.5-12,36.3-18.5s23.8-12.8,35.8-19
		c30.9-14.3,56.7-21.5,77.5-21.5s39.8,5.6,58.8,16.8s32.8,25.3,41.2,42.2H2659.7L2659.7,3133.4z"/>
</g>
</svg>
