<?xml version="1.0" encoding="UTF-8"?>
<svg xmlns="http://www.w3.org/2000/svg" version="1.1" viewBox="0 0 909 909">
  <defs>
    <style>
      .cls-1 {
        fill: #fff;
      }

      .cls-2 {
        fill: #f58c35;
      }
    </style>
  </defs>
  <!-- Generator: Adobe Illustrator 28.7.1, SVG Export Plug-In . SVG Version: 1.2.0 Build 142)  -->
  <g>
    <g id="Layer_1">
      <path class="cls-1" d="M227.1,381.1c-37.2,0-67.6,30.5-67.6,67.9v57.7c0,11.6,9.4,20.9,20.9,20.9h5.8v-24.5c11.3,8.7,25.5,13.9,40.9,13.9,37.2,0,67.6-30.5,67.6-67.9s-30.3-67.9-67.6-67.9h0ZM227.1,491.7c-22.6,0-40.9-19.1-40.9-42.7s18.3-42.7,40.9-42.7,40.9,19.1,40.9,42.7-18.3,42.7-40.9,42.7Z"/>
      <path class="cls-1" d="M592.2,381.7c-36.1,0-65.7,28.5-67.6,64.2v70.9c0,0,26.6,0,26.6,0v-67.1c0-23.5,18.4-42.7,41-42.7s41,19.1,41,42.7v67.1h26.7v-70.9c-2.1-35.7-31.6-64.2-67.7-64.2h0Z"/>
      <path class="cls-1" d="M317.3,363.5v153.1h26.5v-153.1h-26.5Z"/>
      <path class="cls-1" d="M906.1,490s-7.5-.2-11.8-.2c-14.9,0-26.9-12-26.9-26.9v-23h24.8v-25.3h-24.8v-33.8h-26.4v84.8c0,28,22.6,50.6,50.6,50.6h17.3v-26.3h-2.8Z"/>
      <path class="cls-2" d="M148.8,527.3c20.6,17.2,46.9,26,73.5,24.5,19.2-1.9,37-8.8,54.9-15.8,6-2.6,12.1-5.6,18.6-8.7l1.2,1.2c-10,19.7-30.8,33.5-52.6,36.3-21.7,2.4-44.2-.4-63.8-10.3-12.7-6.5-24.1-15.3-32.9-26l1.2-1.2h0Z"/>
      <path class="cls-2" d="M1.5,380.6c18-21.9,46.2-35.6,74.7-36.9,14.6-.8,30.1,0,43.3,6.9,13.1,6.6,24.8,16.7,31.3,30l-1.2,1.2c-6.5-3.1-12.5-6-18.6-8.7-17.9-7-35.7-14-54.9-15.8-26.5-1.5-52.8,7.3-73.5,24.5l-1.2-1.2h0Z"/>
      <path class="cls-1" d="M434.1,381.7c-36.9,0-67,30.4-67,67.7s30.1,67.7,67,67.7,29.3-5.2,40.5-13.9v13.7h26.4v-71.3c-2-35.6-31.3-64-67-64ZM434.1,492c-22.4,0-40.5-19.1-40.5-42.6s18.2-42.6,40.5-42.6,40.5,19.1,40.5,42.6-18.2,42.6-40.5,42.6Z"/>
      <path class="cls-1" d="M818.1,447h0v-1c-1.4-36.1-31-64.9-67.4-64.9s-67.5,30.2-67.5,67.5,30.2,67.5,67.5,67.5,35.4-7.6,47.6-19.8l-17.8-17.8c-7.5,7.2-17.8,11.8-29.1,11.8-23.3,0-42.2-18.9-42.2-42.2s18.9-42.2,42.2-42.2,37.7,14.8,41.5,34.3h-66.3v25h91.7v-18.1h0Z"/>
      <path class="cls-1" d="M135.6,447h0v-1c-1.4-36.1-31-64.9-67.4-64.9S.7,411.4.7,448.7s30.2,67.5,67.5,67.5,35.4-7.6,47.6-19.8l-17.8-17.8c-7.5,7.2-17.8,11.8-29.1,11.8-23.3,0-42.2-18.9-42.2-42.2s18.9-42.2,42.2-42.2,37.7,14.8,41.5,34.3H44v25h91.6v-18.1h0Z"/>
    </g>
  </g>
</svg>