<?xml version="1.0" encoding="utf-8"?>
<!-- Generator: Adobe Illustrator 27.7.0, SVG Export Plug-In . SVG Version: 6.00 Build 0)  -->
<svg version="1.1" id="Layer_1" xmlns="http://www.w3.org/2000/svg" xmlns:xlink="http://www.w3.org/1999/xlink" x="0px" y="0px"
	 viewBox="0 0 3500 3500" style="enable-background:new 0 0 3500 3500;" xml:space="preserve">
<style type="text/css">
	.st0{fill:#FFFFFF;}
</style>
<g>
	<polygon class="st0" points="808.6,1433.7 731.5,1574.8 652.3,1433.7 402.4,1433.7 402.5,1433.8 0,1433.8 0,2066.3 220.3,2066.3 
		220.3,1860.6 434.9,1860.6 434.9,1688.2 220.3,1688.2 220.3,1612 522.5,1612 606.3,1736.4 403.3,2066.3 652.1,2066.3 731.2,1916.9 
		809.4,2066.3 1058.9,2066.3 858,1736 1060,1433.7 	"/>
	<path class="st0" d="M2384.5,634.5C1768.4,634.5,1269,1133.9,1269,1750c0,578.5,440.5,1054.5,1004.6,1109.9
		c36.4,3.7,73.3,5.5,110.9,5.5c183,0,355.5-44.1,507.7-122c361-184.8,607.8-560.4,607.8-993.5
		C3500,1133.9,3000.6,634.5,2384.5,634.5z M2892.2,2554.7V1086.1H2642c-85.6,58.8-216.9,141.7-320.4,176.8
		c-193.8,66.2-334.6,93.3-417.7,104.4v399.9l369.7,34.2v893.4c-473.5-54.8-840.7-456.9-840.7-944.8c0-525.6,426.1-951.6,951.6-951.6
		c525.2,0,951.3,426,951.3,951.6C3335.8,2088.9,3158.7,2386.1,2892.2,2554.7z"/>
</g>
</svg>
