<?xml version="1.0" encoding="utf-8"?>
<!-- Generator: Adobe Illustrator 27.7.0, SVG Export Plug-In . SVG Version: 6.00 Build 0)  -->
<svg version="1.1" id="Layer_1" xmlns="http://www.w3.org/2000/svg" xmlns:xlink="http://www.w3.org/1999/xlink" x="0px" y="0px"
	 viewBox="0 0 3500 3500" style="enable-background:new 0 0 3500 3500;" xml:space="preserve">
<style type="text/css">
	.st0{fill:#326DDF;}
	.st1{fill:none;}
	.st2{fill:#FFFFFF;}
</style>
<rect y="1236" width="3500" height="1028.1"/>
<path class="st0" d="M357.5,1414.5h412.4c61.5,0,111.4,49.9,111.4,111.4v412.4c0,61.5-49.9,111.4-111.4,111.4H357.5
	c-61.5,0-111.4-49.9-111.4-111.4v-412.4C246.1,1464.4,296,1414.5,357.5,1414.5z"/>
<g>
	<path class="st1" d="M1836,1946.9c-1.6-6.7-3-13.5-5.1-20c-5.8-17.5-8.2-24.6-34-25.4c-13.3-0.4-26.6-0.3-39.9-0.3
		c-23.6,0-47.3,0-70.9,0.1c-3,0-5.9,0-8.9,0c-18.1,1-26.2,8.8-29.4,26.7c-1.5,8.6-4.4,17-7.4,25.2c-1.3,3.6-3.5,6-6.1,7.6h211.6
		c-5-2.7-8.3-7.4-9.9-14L1836,1946.9z"/>
	<path class="st1" d="M1777.8,1823.3c5.6,0,8-3.8,7.5-8.8c-0.7-7.8-1-15.8-3.4-23.1c-8.2-25.2-17.2-50.1-26-75.1
		c-2.4-6.9-4.5-13.9-7.3-20.7c-1.9-4.6-4.5-9-10.9-7.6c-5.6,1.2-7.4,5.3-9,10.3c-9.3,28.9-19.3,57.6-28.3,86.6
		c-3.6,11.5-8.1,23.2-5.6,38.4C1723.1,1823.3,1750.5,1823.3,1777.8,1823.3L1777.8,1823.3z"/>
	<path class="st2" d="M507.1,1953.1c0.3-44.4,0.8-88.7,0.5-133.1c-0.1-20.2-2.1-40.3-3-60.4c-0.4-9.6,4.7-13.3,12.8-8.2
		c8.2,5.2,16.1,11.6,22.4,19c27.3,31.7,54,63.9,81,95.8c8.6,10.2,13.1,10.6,22.5,0.4c16.7-18.1,33.1-36.4,49.1-55
		c16.3-19,32.1-38.4,48-57.7c3.4-4.2,6.8-7.3,12.5-4.5c4.8,2.4,6.9,5.7,6.8,11.7c-0.9,29-1.3,58.1-1.5,87.1
		c-0.2,34.5,0,69.1,0.2,103.6c0,3.1,0.5,6.1,0.9,9.1h97.9c0.2-0.6,0.5-1.3,0.6-2c0.8-3.3,0.5-6.9,0.5-10.3
		c0.1-70.4,0.2-140.9,0.4-211.3c0-28.1,0-56.2,0.2-84.3c0-28.1,0.3-56.2,0.2-84.3c0-2.2-0.1-3.9-0.4-5.4h-64.3
		c-0.1,0.2-0.3,0.3-0.4,0.4c-6.4,8.1-13.6,15.5-20.3,23.4c-30.4,35.5-60.6,71.1-91,106.7c-14.4,16.8-28.6,33.8-43.1,50.5
		c-5,5.8-8.2,5.8-13.6,0.9c-2.1-2-3.8-4.5-5.7-6.8c-35-41.3-69.9-82.6-104.9-123.7c-14-16.5-28.5-32.6-42.6-49.1
		c-0.7-0.8-1.4-1.6-2.2-2.3h-63.4c-0.5,2.3-0.6,5.3-0.6,9.2c0.1,57.6,0.2,115.3,0.4,172.9c0.2,67.5,0.3,135,0.7,202.5
		c0,4.4,0.7,8.8,1.2,12.9H506c0.6-2.6,1.1-5.2,1.1-7.8L507.1,1953.1z"/>
	<path class="st2" d="M2869,1951.6c1-11.7,0.7-23.6,0.6-35.4c-0.3-49.8-0.6-99.6-1-149.4c0-5.2-3.5-12.3,2.6-14.6
		c4.8-1.8,11.3,0.2,16.8,1.7c3,0.8,5.8,3.6,8,6.2c11.2,13.1,22.3,26.3,33.3,39.5c17.6,21.1,34.9,42.5,52.8,63.3
		c4,4.6,9.8,7.7,14.3,11.2c2.7-1.3,4.4-1.6,5.3-2.6c19.3-21.7,38.5-43.4,57.6-65.2c13.9-15.9,27.7-31.8,41.3-47.9
		c6.1-7.2,13.4-9,24.2-6.5c0,7.3,0,14.5,0,21.7c-0.3,25.1-0.9,50.2-1,75.3c-0.2,32.5,0.2,65.1,0,97.6c0,7.8,0.1,12,2.2,14.4h93
		c2.2-2.6,2.5-7.1,2.6-15.3c0-3-0.2-5.9-0.2-8.9c-0.3-43.4-0.7-86.8-0.7-130.1c0-30,0.6-60.1,0.8-90.1c0.2-47.3,0.3-94.6,0.4-141.9
		c0-3.6-0.3-7.3-0.5-11.3h-59.1c-1.8,1.5-3.6,3.3-5.3,5.3c-24.4,29-49.4,57.5-74.1,86.2c-25,29.1-49.9,58.4-74.9,87.4
		c-3.4,3.9-7.5,7.1-11.7,11.1c-3.6-3.4-6.3-5.5-8.5-8.1c-23.2-27.4-46.2-54.9-69.6-82.2c-27.5-32.2-55.2-64.2-83-96.1
		c-1-1.2-2.2-2.4-3.4-3.7h-57.4c-2.6,47.1-1.2,360,1.5,397.6h92c0.7-2,1-4.9,1.4-9.3L2869,1951.6z"/>
	<path class="st2" d="M1640.4,1953.2c3-8.2,5.9-16.6,7.4-25.2c3.2-18,11.3-25.8,29.4-26.7c2.9-0.2,5.9,0,8.9,0
		c23.6,0,47.3-0.1,70.9-0.1c13.3,0,26.6,0,39.9,0.3c25.8,0.7,28.2,7.9,34,25.4c2.2,6.5,3.5,13.3,5.1,20c1.6,6.6,4.9,11.3,9.9,14
		h96.7c-51-133.3-101.5-265.4-152.1-397.6H1690c-5.5,13.1-11,26-16,39c-23.7,62.3-47,124.8-70.8,187.1
		c-19,49.5-38.9,98.7-57.6,148.3c-2.7,7.2-7.6,14.2-8.3,23.2h96.9c2.7-1.6,4.8-4,6.1-7.6L1640.4,1953.2z M1700.4,1784.9
		c9-29,19-57.7,28.3-86.6c1.6-5.1,3.4-9.1,9-10.3c6.4-1.4,9,3,10.9,7.6c2.8,6.8,4.9,13.8,7.3,20.7c8.7,25,17.8,49.9,26,75.1
		c2.4,7.3,2.7,15.4,3.4,23.1c0.5,5-1.9,8.8-7.5,8.8c-27.4,0-54.8,0-83,0C1692.3,1808.1,1696.8,1796.4,1700.4,1784.9L1700.4,1784.9z"
		/>
	<path class="st2" d="M1202.1,1884.2c-7.8-0.4-13.6-0.9-19.4-0.9c-52.2,0-104.5,0.1-156.7,0c-14.2,0-15.4-0.7-16.3-14.6
		c-1.6-24-2.3-48.1-3.4-72.3c8.4-13.4,20.4-14.4,33.8-14.1c33,0.6,66,0.3,99,0.2c14.8,0,15.7-1,16.1-16c0.5-16.2,1-32.5,1.6-48.7
		c0.4-12.6-1.2-14.3-14.3-14.5c-7.9-0.1-15.8,0-23.6,0c-31,0-62.1,0.1-93.1,0c-14.6,0-14.8-0.2-16.6-14.3
		c-1.3-10.2-2.4-20.4-3.2-30.7c-0.5-6.9,2-12.9,8.9-15.5c5.9-2.2,12.1-4.3,18.3-4.8c8.8-0.8,17.7,0,26.6,0c47.1,0,94.2,0,142.9,0
		c0.1-24.8,1.5-49.9-0.4-74.7H911.6c0,10.3,0,20.6,0,31c0,82.8,0,165.6,0,248.4c0,35.5,0,71,0.1,106.5c0,3.9,0.5,7.9,0.9,11.7h289.8
		C1203.4,1936,1203.9,1910.6,1202.1,1884.2L1202.1,1884.2z"/>
	<path class="st2" d="M2064.6,1950.5c-0.4-48.8-1.2-97.6-2.3-146.4c-0.3-13.1,3.7-19.5,16.7-21.1c4.9-0.6,9.8-0.4,14.8-0.4
		c32.5,0,65.1,0.1,97.6,0c17.7,0,19-1.5,19.3-19.6c0.2-14.8,0.4-29.6,0.4-44.4c0-13.8-1.2-15.1-15.3-15.2c-28.6-0.1-57.2,0-85.8,0
		s-21.7,0.3-32.5-0.1c-9.5-0.3-10.6-1.7-11.7-11.3c-1.3-11.2-2.5-22.5-3.8-33.7c-0.7-6.6,2-11.2,7.4-15c6.9-4.8,14.5-5.4,22.5-5.3
		c54.7,0.2,109.3,0,163.9,0c2.9-8.5,4.3-56.7,2.5-74.7h-291.9c-0.3,3.1-0.6,5.8-0.6,8.4c0,74.5,0.2,149,0.3,223.5
		c0,51.8,0,103.6,0,155.4c0,5,0.1,8.2,0.9,10.3h95.5c1.4-2.2,2-5.5,2-10.4L2064.6,1950.5z"/>
	<path class="st2" d="M1456.5,1957.9c0.2-2.9,0.2-5.9,0.2-8.9c0-79.4,0-158.8,0-238.2c0-15.8,0-31.6-1-47.3
		c-0.9-14.9,1.7-20.1,16.5-22.2c13.6-1.9,27.5-2.6,41.2-2.7c20.2-0.1,40.3,0.9,60.5,1.2c3.8,0,7.5-1,10.9-1.5
		c3.5-14.9,3.3-59.3,0.4-75.2h-355.3c-0.5,2.3-1,4.4-1,6.4c0,18.2,0.1,36.5,0.6,54.7c0.4,13.9,2.6,15.7,17.1,15.7
		c17.2,0,34.4,0.3,51.7,0.1c10.8-0.1,21.6-1.4,32.4-1c7.2,0.3,14.6,1.7,21.3,4.2c7.7,2.9,10.3,9.3,9.8,17.9
		c-1.2,19.1-2.2,38.3-2.2,57.5c-0.3,74.5-0.2,148.9,0,223.4c0,6,0.7,12.1,1.3,18.7h95.3c0.3-0.9,0.6-1.8,0.7-2.9L1456.5,1957.9z"/>
	<path class="st2" d="M2742.4,1882.3c-6.2,0-10.6,0-15,0c-53.7,0-107.4,0-161.1,0c-14.7,0-14.9-0.2-16.3-14.3
		c-0.8-7.8-1.4-15.7-1.4-23.6c-0.1-33,0-66.1,0-99.1c0-50.8,0-101.5,0-152.3c0-9.7,0-19.3,0-29.7H2451c0,3.6,0,7.5,0,11.4
		c0,22.7,0.3,45.3,0.3,68c0,101.5-0.1,203.1-0.1,304.6c0,6.8,0.3,11,1.7,13.5H2743C2743.2,1934.4,2743.9,1908.6,2742.4,1882.3
		L2742.4,1882.3z"/>
	<path class="st2" d="M2393,1563.3h-96.9c-0.4,1.6-0.6,3.6-0.5,6.3c0.2,8.9,1,17.7,1,26.6c0,116.3,0,232.6,0.1,348.9
		c0,5.7-0.5,11.5,0.8,15.9h95.4v-397.6L2393,1563.3z"/>
	<path class="st2" d="M505.2,1964.7c0.2-1.3,0.5-2.6,0.8-3.9h-97.1c0.2,1.3,0.3,2.6,0.5,3.9H505.2L505.2,1964.7z"/>
</g>
</svg>
