<?xml version="1.0" encoding="utf-8"?>
<!-- Generator: Adobe Illustrator 27.7.0, SVG Export Plug-In . SVG Version: 6.00 Build 0)  -->
<svg version="1.1" id="Layer_1" xmlns="http://www.w3.org/2000/svg" xmlns:xlink="http://www.w3.org/1999/xlink" x="0px" y="0px"
	 viewBox="0 0 3500 3500" style="enable-background:new 0 0 3500 3500;" xml:space="preserve">
<style type="text/css">
	.st0{fill:#009A00;}
	.st1{fill:url(#SVGID_1_);}
</style>
<path class="st0" d="M3344.4,1409.1h24.4c24.8,59.9,49.4,119.4,74.6,180.3h-27c-6.3-14.3-12.4-28.2-19.1-43.5h-80.7
	c-5.8,12.9-12.3,27.3-19.4,43h-26.9C3295.4,1528,3319.8,1468.7,3344.4,1409.1L3344.4,1409.1z M3323.6,1524h66.1
	c-11-28.5-21.1-54.7-31.2-80.9c-1.6,0.3-3.3,0.5-4.9,0.8C3344,1469.8,3334.3,1495.6,3323.6,1524L3323.6,1524z"/>
<g>
	<path class="st0" d="M877.2,1720.2c-33.9,12.2-68,24.5-103.5,37.3c-4-5.4-7.8-10.6-11.8-15.9c4.4-5.3,8.7-9.6,11.9-14.4
		c17.3-26.2,3.1-59.6-27.9-64.4c-11.7-1.8-23.8-0.9-35.7-0.9c-52.8-0.1-105.5-0.6-158.3,0.2c-32.3,0.5-49.8,22.1-44,51.4
		c2.8,13.9,11.6,22.5,23.6,28.2c24.6,11.7,38,32.3,48.8,58.1c-45.3,8.3-89.3,5.6-134.3,5.2c-9.6-21.5-18.9-42.3-28.7-64.2
		c3-4.4,6.6-9,9.5-14c17.4-29.7,0.6-62-34-64.7c-10.9-0.8-22-0.1-36.8-0.1c19.7-35.7,42.2-65.1,70.1-90.3
		c53.9-48.5,116.5-82.4,183.6-108.1c64-24.5,131-35.9,198.6-44.7c101.1-13.1,202-3.7,302.9,2.2c29.6,1.7,58.6-0.6,88.4-7.9
		c-2-2.9-2.8-5-3.6-5c-68.4-1.5-134.7-17.8-201.7-29c-91.7-15.4-184-23.8-276.9-17.4c-101.1,7-198.8,27.6-285.3,84.8
		c-71.9,47.5-123.6,111-153.1,192.3c-4,10.9-4.7,24.9-23.7,20.5c-7.2-21.1-3.2-43.2-1.9-64.8c4.7-78.1,26.5-150.7,73.8-214
		c56.5-75.8,134.4-118.1,224.2-141.6c129-33.7,256.5-24.2,382.2,15.6c62.4,19.8,123.8,42.7,185.1,65.8
		c102.2,38.6,202.8,36.4,302.6-8.1c1.4-0.6,3.2-0.4,8.5-1c-10.9,11.1-19.9,20.3-28.9,29.3c-94.2,94-193.7,181.5-305,255.1
		c-29.1,19.2-58.9,37.3-88,56.6c-11.2,7.4-22.8,10.5-36,9.8c-12.7-0.7-25.5-0.2-38.3-0.1C889.2,1662.1,875.6,1675.9,877.2,1720.2
		L877.2,1720.2z"/>
	
		<linearGradient id="SVGID_1_" gradientUnits="userSpaceOnUse" x1="791.1777" y1="-3043.502" x2="2816.2866" y2="-1018.4032" gradientTransform="matrix(1 0 0 -1 0 0)">
		<stop  offset="0" style="stop-color:#BB903F"/>
		<stop  offset="0.19" style="stop-color:#DBCF6F"/>
		<stop  offset="0.63" style="stop-color:#C9974D"/>
		<stop  offset="1" style="stop-color:#DBCF6F"/>
	</linearGradient>
	<path class="st1" d="M2156.7,1698.8h154.8c-4.3,7.1-5.9,13.1-9.6,15.1c-13.5,7-16.1,18.3-16.1,32c0.1,153.2,0.2,306.4-0.1,459.6
		c0,14.9,3.9,26.4,17.6,34c3.3,1.9,4.6,7.5,8.3,14.2H2147c2.2-5.6,2.9-10.6,5.6-14c12.5-15.4,13.4-17.2,1.4-32
		c-14.9-18.5-30.8-36.3-46.6-54.1c-76.4-85.8-152.9-171.3-229.2-257.1c-5-5.6-8.7-12.3-13-18.5c-2.3,1.3-4.7,2.6-7,3.8
		c0,5.4,0,10.7,0,16.1c0,98.7,0.1,197.5-0.1,296.2c0,19.2,0.1,37.8,21.7,47.3c2.2,1,2,7.4,3.3,12.8h-148.5c-5.5-8.1-1.9-13,5.2-16.3
		c12.7-5.9,15.5-16.4,15.5-29.4c-0.2-154.9-0.2-309.8,0-464.7c0-12.9-2.8-23.2-15.3-29.7c-3.7-1.9-5.9-6.7-9.2-10.7
		c18.4-7,148.4-8.3,176.3-2.2c-1.4,3.9-1.7,8.4-4.1,11.2c-14.9,17.2-15.8,21.2-0.9,38.4c33.3,38.7,67.1,76.8,100.9,115.1
		c55.8,63.1,111.7,126,167.3,189.2c2.7,3.1,3.9,7.5,5.7,11.3c2.3-1.2,4.6-2.4,6.9-3.6c0-6.3,0-12.5,0-18.8c0-95.3-0.1-190.7,0.1-286
		c0.1-19.3,0.5-37.9-21.8-46.7C2159.1,1710.6,2158.9,1705.5,2156.7,1698.8L2156.7,1698.8z M3088.7,2241.8
		c-21.2-8.3-21.4-25.7-21.2-44.4c0.5-54.5,0.1-108.9,0.3-163.4c0-6.5,1.1-13,1.8-19.8h288.3c1.4,2.8,2.8,4.3,2.8,5.7
		c0.2,63.8,0.4,127.6,0.5,191.5c0,10.9-4.3,19.4-13.8,25.7c-4.6,3.1-7.6,8.6-14.2,16.5H3500c-2.6-6-3.3-11.7-5.9-12.8
		c-19.6-8.4-20.4-24.9-20.2-42.6c0.4-43.4,0.1-86.8,0.1-130.2c0-104.7,0.1-209.4-0.1-314c0-16.6,0-32.6,18.6-41
		c3.1-1.4,4-7.7,6.1-12.1c-31.9-5.6-143.1-4.2-161.2,2c1.1,3,1.5,7.9,3.5,8.8c20,8,20.6,24.6,20.4,42.3
		c-0.3,46.8-0.1,93.6-0.2,140.4c0,7.5-0.8,14.9-1.2,22c-32.1,5.1-273,3.6-292.2-1.9c0-58.1,0-116.7,0-175.3
		c0-11.4,5.6-18.9,15.1-24.7c4.1-2.5,6.5-7.7,10.7-12.9c-27.7-5.5-143.6-4.8-163.2,0.6c0.9,3.1,1.1,8.2,2.9,9
		c20.7,8.7,20.9,25.9,20.8,44.6c-0.4,97.9-0.2,195.7-0.2,293.6c0,51.9-0.2,103.8,0.1,155.7c0.1,14.6-2.3,26.7-16.6,34.4
		c-3.7,2-5.3,8.1-9.7,15.1H3093C3090.8,2247.6,3090.6,2242.5,3088.7,2241.8L3088.7,2241.8z M2392.9,2255.4
		c141.3,0,282.5,0.1,423.8-0.2c17.3,0,32.3,0.9,39.1,20.5c1,2.8,7.7,3.6,12.2,5.5c5.3-30.4,4.2-125-1.9-144.3
		c-3.6,1.7-9.2,2.5-10.2,5.1c-7,18.9-21.8,20.9-39.2,20.9c-98.7-0.4-197.4-0.2-296.1-0.3c-5.6,0-11.3-1.2-18.7-2
		c-0.6-50.4-1.1-99.1,0.2-149.5c70.6,0,137.8,0,204.9,0c12.6,0,20.3,6.2,25.8,17.3c1.9,3.9,7.6,5.8,12.9,9.7
		c6-35.6,4.4-125.8-2.4-142.9c-2.9,1.5-7.4,2.3-8.1,4.3c-6.9,20.7-22.9,21.6-41.1,21.3c-54.4-0.7-108.9-0.2-163.4-0.3
		c-9,0-18.1-0.8-27.9-1.3v-126.5c3.8-0.9,6.2-2.1,8.6-2.1c102.1-0.1,204.2-0.1,306.4-0.3c12.4,0,21.5,3.9,26.3,15.8
		c2.8,7.1,6.6,12.1,15.2,7.8c4.8-32.7,3.3-123.7-2.8-141.8c-3,1-7.9,1.3-8.6,3.2c-8.2,22.8-26.8,22.4-46.2,22.4
		c-136.1-0.3-272.3-0.2-408.5-0.2c-9.1,0-18.2,0-26.8,0c-0.8,4.8-1.4,6.5-1.3,8.1c0.1,1.6,0.7,4.2,1.7,4.6
		c24.7,9.9,21.9,31.2,21.9,51.6c-0.1,143.1-0.1,286.1-0.1,429.2c0,6-0.1,11.9,0,17.9c0.2,12.9-3.6,23-16,29.5
		c-4.1,2.2-6.4,7.8-13.4,16.9C2374.8,2255.4,2383.9,2255.4,2392.9,2255.4L2392.9,2255.4z M1659.4,2137.8c-2.2,0.6-6.1,0.6-6.7,1.9
		c-9.4,22.3-27.9,23.3-48.6,23.1c-92.7-0.6-185.5-0.3-278.2-0.3h-28.8c-1.4-52.2-0.8-101-0.6-148.6c5.4-1.8,7-2.8,8.6-2.8
		c64.7-0.2,129.3-0.1,194-0.3c12.1,0,21.3,3.7,27.2,15.1c2.3,4.4,6.8,7.6,10.3,11.3l5.6-1.7c0.4-15.7,0.9-31.4,1.1-47.1
		c0.2-16.2,1-32.4-0.2-48.5c-1.1-14.9,6-31.4-6.2-45.6c-16,17.4-37.2,26-63.8,26c-51.9,0-103.8,0.1-155.7-0.1
		c-6.5,0-12.9-1.2-19.6-1.8v-126.8c5.4-0.6,9.5-1.4,13.6-1.4c99.6-0.1,199.1,0.1,298.7-0.2c13.3,0,23.3,3.4,28.8,16.2
		c2.9,6.7,6.5,12.4,15.2,7.3c5-36.9,3.2-124.5-3.1-141.1c-2.3,0.4-6.3,0.2-6.8,1.5c-9.7,23.7-29.5,23.8-50.8,23.8
		c-135.3-0.4-270.6-0.2-405.9-0.1c-9.5,0-18.9,1.1-28.3,1.7c0.5,5.5,0.1,8.2,0.9,8.6c23.8,12.2,23.9,33.4,23.8,56.3
		c-0.5,141.4-0.3,282.7-0.3,424.1c0,6.8-0.1,13.6-0.1,20.4c0,12.7-3.6,23.1-16,29.5c-4.2,2.2-6.8,7.6-10.1,11.5
		c0.7,1.8,1.4,3.7,2.2,5.5c9,0,18,0,27,0c142.1,0,284.2,0.2,426.3-0.2c16.7-0.1,30.4,1.9,37.2,19.7c1.1,2.9,5.9,4.4,9.5,6.8
		C1666.9,2259.3,1666.5,2156.7,1659.4,2137.8L1659.4,2137.8z M625.8,2248.2c-0.4-2.4-1-6.2-2.5-6.7c-28.6-9.9-37-36-47.8-59.8
		c-58.6-128.4-117-256.9-175.4-385.4c-7-15.5-14-31-20.1-46.8c-7.9-20.3-7-21.8,9.5-36.6c3.2-2.9,4.9-7.6,9.2-14.5
		c-62.2,1.9-120.9-3.8-182.8,1.6c3.8,7.2,4.7,12,7.6,13.9c17.9,12,17,27.9,10.1,45.1c-4.8,11.8-10,23.4-15.1,35.1
		c-58.8,133.9-117.6,267.8-176.4,401.6c-7.9,17.9-15.2,36.2-35.6,44.6c-3.1,1.3-4.2,7.6-6.5,12.1c30.4,5.4,153.1,4.1,174.4-2.7
		c-6-5.4-9.9-10.3-14.9-13.2c-12.6-7.1-16.3-18.1-11.5-30.3c12.4-31.4,26.1-62.2,38.6-91.4h232.7c12.8,28.4,25.4,55.4,37,82.8
		c9,21.4,6.2,27.8-13.1,42.5c-3.4,2.6-4.6,8-8,14.2h189.5C625.2,2251.4,626.1,2249.7,625.8,2248.2L625.8,2248.2z M301.4,1846.6
		c12.7,13.9,64,131.6,81.4,185.2c-17.7,4.8-118.2,6.3-160.9,1.9C249,1970,275.1,1908.6,301.4,1846.6z M821.4,1905.1
		c-22.5-34.9-45-69.8-67.3-104.8c-9-14.1-18.5-28-26.6-42.7c-11.3-20.5-7-35.5,12-49c2.1-1.5,2.9-4.9,4.7-8.1
		c-51.7-6.1-185.8-3.4-201.2,4.7c33.2,14.7,52.5,41.3,69.5,71c16.2,28.4,34.2,55.7,51.9,83.1c31.4,48.6,63.5,96.7,94.5,145.4
		c5.6,8.9,10.8,19.9,11,30.1c1,57.8,0.4,115.7,0.5,173.5c0,12.9-3.2,23.5-15.8,29.4c-6.8,3.1-11.7,7.2-6.6,15.9h158.5
		c0.4-3.5,0.8-5.2,0.6-6.8c-0.2-1.6-0.6-4.1-1.7-4.5c-23.6-10.3-22.7-30.9-22.6-51.7c0.3-49.3,0.4-98.7-0.1-148
		c-0.1-13.4,3.1-24.7,10.5-35.8c26-38.9,51.2-78.2,76.9-117.3c30.8-46.9,61.4-93.9,92.7-140.5c10.4-15.4,21.9-30.3,41.4-36.3
		c3.3-1,5-7,7.8-11.4c-27.4-5.7-180.7-3.9-199.3,2.5c3.3,2.4,5.7,4.4,8.2,6c18.9,12,22.5,21.8,10.6,41.3
		c-33.3,54.2-67.7,107.8-102.4,162.9C825.6,1909.9,823.1,1907.8,821.4,1905.1L821.4,1905.1z"/>
	<path class="st0" d="M1581.2,1553.7c19.7-47.7,39.4-95.3,59.6-144.1h36.1c1.6,28.5,0.5,57.9,0.7,87.3c0.2,29.7,0,59.5,0,91.8
		c-8.6,0.6-16.6,1.2-26.3,1.9v-139.3c-25.8,47.7-40.6,94.3-62.7,138h-20.4c-19.5-44.6-38.6-88.6-57.8-132.5c-1.3,0.4-2.7,0.8-4,1.3
		v131.2h-24.9v-179.6h35.3c19.8,47.8,39.5,95.5,59.2,143.2C1577.6,1553.2,1579.4,1553.4,1581.2,1553.7L1581.2,1553.7z"/>
	<path class="st0" d="M2456.1,1589.8v-180.7c29.6-1.1,58-3.9,86.3,3.4c32.1,8.3,50.9,30.2,53.6,63.2c0.8,10.2,0.3,20.4,0.3,30.6
		c-0.2,51.8-21.5,77.3-72.8,83.1C2501.8,1591.9,2479.7,1589.8,2456.1,1589.8z M2484.3,1571.2c14.6,0,26.5,1,38.1-0.2
		c27.2-2.8,43.6-19.1,45.4-46.2c1.2-17.7,1.1-35.7-0.2-53.4c-2-25.2-16.9-40.6-41.8-43.7c-13.2-1.6-26.7-0.3-41.4-0.3V1571.2z"/>
	<path class="st0" d="M2120.5,1483.6v19.9h-80.3v67.5h94.8v18h-120.2c-5-17.4-6.1-147.9-1.3-179.8h117.8c0.3,5.2,0.5,9.9,0.9,16.9
		h-91.4v57.5L2120.5,1483.6L2120.5,1483.6z"/>
	<path class="st0" d="M2947.4,1589.1h-24.9v-179.3h24.9V1589.1L2947.4,1589.1z"/>
</g>
</svg>
