<?xml version="1.0" encoding="utf-8"?>
<!-- Generator: Adobe Illustrator 27.7.0, SVG Export Plug-In . SVG Version: 6.00 Build 0)  -->
<svg version="1.1" id="Layer_1" xmlns="http://www.w3.org/2000/svg" xmlns:xlink="http://www.w3.org/1999/xlink" x="0px" y="0px"
	 viewBox="0 0 3500 3500" style="enable-background:new 0 0 3500 3500;" xml:space="preserve">
<style type="text/css">
	.st0{fill-rule:evenodd;clip-rule:evenodd;fill:#0099FF;}
</style>
<g id="Layer_x0020_1">
	<path class="st0" d="M937.7,1461.5C380.3,1761.6,0,2256.2,0,2256.2s783.7,1019.5,1750,1019.5c966.3,0,1750-1019.5,1750-1019.5
		s-384.7-500.3-947.3-800c5.8,57,56.6,155,90.3,233.4l0,0c398.2,247.6,658.4,566.6,658.4,566.6s-694.7,851.9-1551.4,851.9
		c-856.7,0-1551.4-851.9-1551.4-851.9s269.1-330,678.9-579.2l0,0C885.6,1605.8,907.4,1529.8,937.7,1461.5L937.7,1461.5z"/>
	<path class="st0" d="M1821.3,3100l0.7,0c13.8,0.6,27.7,1,41.7,1c491.6,0,890.2-398.6,890.2-890.2c0-157.9-41.2-306.2-113.3-434.8
		c-110.5-253.1-237.1-449.4-18.3-716.7c-373.7-73.5-580.1,188-580.1,377c0,269.4,116,411.6,116,883.7
		C2158.1,2582.7,1996.8,2980.5,1821.3,3100L1821.3,3100z"/>
	<path class="st0" d="M1094.2,1269.8c-122.1,109.4-292.7,566.7-90.5,1171.3c114.5,342.5,393.1,613.3,760.4,654.3l0.6,0.1
		c107.4-86.7,349.2-414.3,344.5-863.4c-6.3-587.9-569.7-1177-38-2007.8c-265.3,94.2-583.3,427.2-637.9,956.9
		c-65.9-71.2-91.3-182.8-87-319c-146.6,138.1-180.9,409.5-145,608.9C1144.5,1432.1,1105.9,1337.7,1094.2,1269.8L1094.2,1269.8z"/>
</g>
</svg>
