<?xml version="1.0" encoding="utf-8"?>
<!-- Generator: Adobe Illustrator 27.7.0, SVG Export Plug-In . SVG Version: 6.00 Build 0)  -->
<svg version="1.1" id="Layer_1" xmlns="http://www.w3.org/2000/svg" xmlns:xlink="http://www.w3.org/1999/xlink" x="0px" y="0px"
	 viewBox="0 0 3500 3500" style="enable-background:new 0 0 3500 3500;" xml:space="preserve">
<style type="text/css">
	.st0{fill:url(#SVGID_1_);}
	.st1{fill:url(#SVGID_00000048503041846657281050000013739375147931666084_);}
	.st2{fill:url(#SVGID_00000086676567879911597050000005397045910856409996_);}
	.st3{fill:#990000;}
	.st4{fill:#FDFDFD;}
	.st5{fill:#00933B;}
	.st6{fill:#800217;}
	.st7{fill:#AB160A;}
	.st8{fill:#E65F08;}
	.st9{fill:#FA9800;}
</style>
<linearGradient id="SVGID_1_" gradientUnits="userSpaceOnUse" x1="2952.95" y1="170.7" x2="2952.95" y2="-1331.9501" gradientTransform="matrix(1 0 0 1 0 3001.8101)">
	<stop  offset="0" style="stop-color:#391503"/>
	<stop  offset="0.89" style="stop-color:#FEC90F"/>
</linearGradient>
<path class="st0" d="M3500,1965.3h-737.5l-356.6,293.2v-332.4l301.2-256.2H3500L3500,1965.3L3500,1965.3z M2405.9,2435v436.2
	l373.9,301.2h702.8v-304.7h-668.2V2113L2405.9,2435L2405.9,2435L2405.9,2435z"/>
<linearGradient id="SVGID_00000004533679978544346250000012669052830875253158_" gradientUnits="userSpaceOnUse" x1="1481.4448" y1="170.71" x2="1481.4448" y2="-1345.7902" gradientTransform="matrix(1 0 0 1 0 3001.8101)">
	<stop  offset="0" style="stop-color:#391503"/>
	<stop  offset="0.89" style="stop-color:#FEC90F"/>
</linearGradient>
<path style="fill:url(#SVGID_00000004533679978544346250000012669052830875253158_);" d="M2222.4,1984.9h-599l-401.6,373.9v-373.9
	H740.5V1656h1481.9V1984.9z M1623.4,2196.1l-401.6,405.1v571.3h401.6V2196.1L1623.4,2196.1L1623.4,2196.1z"/>
<linearGradient id="SVGID_00000057858609577946860680000007849592492808137361_" gradientUnits="userSpaceOnUse" x1="331.955" y1="170.7" x2="331.955" y2="-1530.49" gradientTransform="matrix(1 0 0 1 0 3001.8101)">
	<stop  offset="0" style="stop-color:#391503"/>
	<stop  offset="0.89" style="stop-color:#FEC90F"/>
</linearGradient>
<polygon style="fill:url(#SVGID_00000057858609577946860680000007849592492808137361_);" points="515.5,2178.8 148.4,2587.4 
	148.4,3172.5 515.5,3172.5 "/>
<path class="st3" d="M2111.9,873.1c-21,85.7-71.2,162.2-102.2,203.3c-15.1,20-39.4,30-64.2,26.3c-127.5-18.4-546.2-72.4-830.9-28.8
	C780.7,1125,23.9,1256.7,0.4,1260.6c29.2-13.2,1149.5-512.5,1510.9-625.1c41.4-13,73-20.8,91.6-22.2c138.5-10.4,334.7-5.1,422.2-1.8
	c29.2,1,54.9,19.6,65.3,47.3C2109.3,708.3,2131.7,791.3,2111.9,873.1L2111.9,873.1L2111.9,873.1z"/>
<path class="st4" d="M1511.3,635.5C1149.9,748.1,29.6,1247.5,0.4,1260.6H0c0.4-0.4,0.8-0.8,1-1.2c110.5-112.6,662.8-578.6,893.5-753
	c33.7-25.5,60.6-44.7,78.3-55.7c117.3-73.4,306.9-111.8,362-122.1c12.2-2.2,24.7-1.4,36.7,2.5c22.2,7.5,57.5,24.7,85.9,64.2
	C1488,437.3,1504.1,560.4,1511.3,635.5L1511.3,635.5L1511.3,635.5z"/>
<path class="st5" d="M894.5,506.4c-230.7,174.4-783,640.4-893.5,753c27.1-36.5,533.1-713.2,569.2-763.8
	c26.5-36.9,118.9-89.5,170.3-116.9c20.2-10.6,45.1-5.5,59.7,12.2L894.5,506.4L894.5,506.4L894.5,506.4z"/>
<polygon class="st6" points="313.1,1553.9 313.1,1993.6 157.1,1993.6 157.1,1955.5 26.5,1824.8 68.8,1824.8 53.3,1725.2 
	138.1,1725.2 138.1,1688.9 180.7,1731.2 180.7,1604.1 262.9,1604.1 "/>
<polygon class="st7" points="445.5,1604.1 445.5,1690.6 313.1,1823.1 313.1,1553.9 363.1,1604.1 "/>
<polygon class="st8" points="567.2,1725.2 313.1,1979.4 313.1,1823.1 445.5,1690.6 445.5,1731.2 487.9,1688.9 487.9,1725.2 "/>
<polygon class="st9" points="599.6,1824.8 468.9,1955.5 468.9,1993.6 313.1,1993.6 313.1,1979.4 567.2,1725.2 572.7,1725.2 
	557.2,1824.8 "/>
</svg>
