<?xml version="1.0" encoding="UTF-8"?>
<svg id="Layer_01" data-name="Layer 01" xmlns="http://www.w3.org/2000/svg" version="1.1" viewBox="0 0 3500 3500">
  <defs>
    <style>
      .cls-1 {
        fill: #12a3aa;
      }

      .cls-1, .cls-2, .cls-3 {
        stroke-width: 0px;
      }

      .cls-2 {
        fill: #2d91c9;
      }

      .cls-3 {
        fill: #fff;
      }
    </style>
  </defs>
  <path class="cls-3" d="M2795.9,1889.66c-7.19,0-15.02-2.51-23.26-7.46-13.63-8.18-27.22-12.9-41.42-14.34v-1.79h-177.93c-7.07,0-11.31-7.76-7.59-13.77,24.9-40.24,63.92-66.42,116.3-77.94,65.12-15.88,142.22-4.85,189.19,38.77,8.1,8.16,15.11,20.8,2.44,34.74-14.01,13.4-36.78,41.12-57.73,41.8Z"/>
  <path class="cls-3" d="M2719.85,2181.58c-97.18,1.44-186.46-50.79-201.4-154.24-6.59-22.1-7.4-124.4,11.26-128.52,0,0,86.6,0,86.6,0,14.23,0,23.86,14.18,18.98,27.55-10.1,27.7-11.37,56.96-3.79,86.97,11.22,54.99,69.97,77.81,123.2,66.11,14.78-3.07.32,45.53,53.77,75.44,23.19,18.99-79.36,28.43-88.62,26.68Z"/>
  <path class="cls-3" d="M1351.74,1685.13c-.48-7.71-2.83-12.13-10.24-13.08-10.1-1.27-20.8-.71-31-.88-29.14-1.03-57.22,2.51-71.99,30.33-10.54,19.85-24.36,38.46-35.62,58-11.02,19.11-21.22,38.48-32.33,57.56-26.94,46.28-56.71,90.48-82.61,137.4-4.83,8.07-14.3,25.55-23.69,12.61,0,0-85.62-140.5-85.62-140.5-16.41-29.58-34.24-58.34-52.26-86.96-9.15-14.53-18.35-29.03-27.49-43.57-6.9-10.97-16.44-19.79-29.97-21.2-22.3-2.32-44.98-3.88-67.45-2.89-8.78.35-10.14,9.1-9.94,16.17,2.55,35.07,30.52,60.64,48.15,88.93,35.5,63.04,72.49,125.42,112.62,185.68,23.77,40.03,44.37,82.36,72.02,120.08,9.98,9.3,14.57,26.59,28.55,30.91,11.77,2.32,28.07,2.99,39.96-1.78,4.2-2.34,7.16-6.57,9.62-10.72,13.22-23.44,29.68-44.91,44.2-67.62,25.74-48.18,53.98-94.93,82.07-141.78,1.79-3.02,4.31-7.24,7.11-8.5l.61-.24c6.23-1.12,6.89,9.86,6.93,14.89.62,60.89.69,122.34.99,183.34-4.23,65.4,27.22,91.27,91.24,86.95,10.96.6,15.99-3.89,16.13-15.15.31-155.81.8-312.33.02-467.99Z"/>
  <circle class="cls-2" cx="843.94" cy="2123.8" r="60.39"/>
  <circle class="cls-2" cx="2860.58" cy="2079.85" r="60.39"/>
  <circle class="cls-2" cx="2406.15" cy="1726.85" r="60.39"/>
  <path class="cls-3" d="M843.94,2043.58c20.1,0,38.43,7.45,52.51,19.66.26-42.01.59-83.98-.86-125.98-.67-11.19-3.77-21.64-9.66-31.07-29.26-48.21-58.73-97.97-89.74-144.44l-.53-.13c-4.8.36-4.4,11.11-4.44,15.83.06,95.21.2,190.47.33,285.69,14.06-12.16,32.35-19.57,52.4-19.57Z"/>
  <path class="cls-3" d="M3390.82,1962.02c.59-70.36-1.6-141.84,1.21-212.32.61-15.08,5.84-30.64,19.09-39.09,17.57-12.7,41.36-11.05,63.07-11.1,13.62-.76,25.65,5.73,25.2,21.06,2.29,78.39-2.96,159.38.49,237.08-.22,60.36.68,121.7-2.4,181.85-7.17,40.91-59.77,53.08-95.11,45.23-8.77-2.92-11.27-11.91-11.42-20.37-.29-30.03-.02-61.75-.11-92.58-.02-36.59.04-73.53-.04-109.76Z"/>
  <path class="cls-1" d="M340.53,1313.01v554.47c73.53,0,144.04-29.21,196.03-81.2,51.99-51.99,81.2-122.51,81.2-196.04s-29.21-144.04-81.2-196.03c-51.99-51.99-122.51-81.2-196.04-81.2Z"/>
  <path class="cls-1" d="M277.24,1624.57v554.47c-73.53,0-144.04-29.21-196.03-81.2C29.21,2045.85,0,1975.33,0,1901.8s29.21-144.04,81.2-196.03c51.99-51.99,122.51-81.2,196.04-81.2Z"/>
  <path class="cls-2" d="M247.64,1544.96c23.49-28.52,34.64-65.04,31.08-101.81-3.56-36.77-21.5-70.49-50.02-93.98-28.52-23.49-65.04-34.64-101.81-31.08-36.77,3.56-70.49,21.5-93.98,50.02-23.49,28.52-34.64,65.04-31.08,101.81,3.56,36.77,21.5,70.49,50.02,93.98,28.52,23.49,65.04,34.64,101.81,31.08,36.77-3.55,70.49-21.5,93.98-50.02Z"/>
  <path class="cls-3" d="M3174.85,2182.76c-43.58,0-87.21,1.32-130.71-.51-24.8-1.04-43.12-17.06-60.26-34.58-51.86-53.78-27.79-142.09,40.04-169.13,48.21-20.84,97.76-11,146.78-13.75,15.64-1.52,40.81,6.73,33.48-19.72-10.07-50.02-74.07-66.36-114.2-54.67-13.37,3.9-26.62,8.52-40.25,11.16-34.59,6.71-65.59-11.77-71.98-45.82-1.3-6.92,11.69-20.97,20.93-24.68,85.51-34.73,206.31-49.77,277.28,22.29,21.85,23.94,37.49,51.62,37.19,85.93-.39,43.51-.58,87.04.45,130.53.37,15.66-5.02,20.98-20.11,19.63-10.82-.96-21.84-.95-32.68-.11-22.55,1.75-45.01-13.35-48.89-38.48-3.01-19.5-12.41-27.09-33.48-23.89-26.66,4.05-54.05,3.15-80.85,6.55-53.79,3.62-45.12,78.27,4.71,80.3,45.9,1.29,91.86,1.4,137.79,1.08,25.1-.46,66.39,16.79,72.54,42.18,3.45,24.47,1.34,26.74-23.31,26.94-38.15.32-76.31.08-114.47.08,0-.45,0-.9,0-1.35Z"/>
  <path class="cls-3" d="M2452.1,1986.92c0,47.33.09,94.66-.03,141.99-.06,23.9-23.76,49.5-47.82,51.3-13.91,1.04-27.98.2-41.85,1.56-15.4,1.51-18.08-5.92-18.02-19.25.4-93.11.17-186.22.25-279.33.03-37.58,22.05-67.88,65.99-64.48,41.33,3.2,41.49,1.14,41.48,42.51,0,41.9,0,83.8,0,125.7Z"/>
  <path class="cls-3" d="M1792.47,1964.33c-2.35-27.48-4.43-55.14-19.06-78.31-25.07-39.68-63-73.13-109.24-84.91-47.26-12.04-100.63-11.78-146.35,6.31-45.29,17.91-83.36,58.53-102.96,102.64-3.93,8.84-7.14,17.99-9.52,27.37-10.45,41.14-4.57,85.77,13.87,124.01,22.55,46.75,61.55,83.75,109.84,102.01,49.59,18.76,105.49,20.59,156.32,5.67,15.7-4.61,30.93-10.83,45.3-18.67,30.59-16.69,35.54-57.09-4.78-65.1-22.24-3.99-43.94,1.6-65.92,4.28-22.67,2.77-51.65,4.84-74.32,1.2-67.31-10.81-109.89-96.66-81.86-158.35,14.71-32.36,52.71-60.84,88.67-65.11,31.85-3.78,61.8,9.72,81.63,34.39,12.89,16.03,31.39,49.47-2.23,52.63-37.07,3.48-74.58-10.78-105.91,16.07-9.71,8.32-10.38,24.34.28,31.95,12.02,8.58,26.82,4.56,41,4.77,47.56.68,95.14.18,142.69.18,31.24.16,45.92-10.1,42.54-43.02Z"/>
  <path class="cls-3" d="M2140.25,1828.83c0-32.56-.34-53.8.06-75.03,1.61-84.55,12.95-94.05,112.05-84.18,0,48.47,0,98.25,0,148.04.01,48.13.51,96.27-.03,144.39-1.09,98.61-17.07,112.07-126.78,102.66,4.81-19.88,11.29-38.74,13.72-58.11,7.64-60.74-28.81-110.19-83.58-115.51-54.61-5.3-97.22,30.38-104.58,87.58-7.26,56.37,31.09,106.24,89.05,110.87,45.23,3.61,90.97.51,136.25,3.69,53.85,3.77,57.66,9.35,73.35,82.43-93.38,7.39-185.5,8.85-277.42-1.73-19.66-2.26-39.48-16.27-56.17-28.91-71.53-54.16-93.61-172.52-48.92-254.13,45.1-82.36,132.06-113.37,227.16-80.74,12.41,4.26,24.36,9.88,45.84,18.69Z"/>
</svg>