<?xml version="1.0" encoding="utf-8"?>
<!-- Generator: Adobe Illustrator 27.7.0, SVG Export Plug-In . SVG Version: 6.00 Build 0)  -->
<svg version="1.1" id="Layer_1" xmlns="http://www.w3.org/2000/svg" xmlns:xlink="http://www.w3.org/1999/xlink" x="0px" y="0px"
	 viewBox="0 0 3500 3500" style="enable-background:new 0 0 3500 3500;" xml:space="preserve">
<style type="text/css">
	.st0{fill:url(#SVGID_1_);}
	.st1{fill:url(#SVGID_00000037692442851998942910000013829852864011544247_);}
	.st2{fill:url(#SVGID_00000008827481594742271700000003929252415687975597_);}
	.st3{fill:url(#SVGID_00000085937014275708434570000017458124300252538002_);}
	.st4{fill:url(#SVGID_00000005946093532226777670000009421594615099899062_);}
	.st5{fill:url(#SVGID_00000064348447289906723200000011733608834423239871_);}
</style>
<g>
	<g>
		<g>
			<g>
				
					<linearGradient id="SVGID_1_" gradientUnits="userSpaceOnUse" x1="213.1999" y1="-1631.2711" x2="3171.0896" y2="-1631.2711" gradientTransform="matrix(1 0 0 -1 0 0)">
					<stop  offset="0" style="stop-color:#EE2D31"/>
					<stop  offset="1" style="stop-color:#EE3738"/>
				</linearGradient>
				<path class="st0" d="M1407.2,1686.8c-4.1,6.7-6.6,9.8-8,13.3c-31.7,78.1-63.5,156.2-95,234.4c-19.2,47.6-38.3,95.2-56.9,143
					c-10.9,28-29.9,49.7-52.6,67.8c-66.9,53.3-142.2,70.5-224.6,45.7c-53-15.9-93.7-50.9-129.2-92.7c-21.6-25.4-33.2-55.2-43.8-86.1
					c-19.7-57.4-40.2-114.6-60.2-172c-19-54.6-37.7-109.2-56.7-163.8c-15.1-43.5-30.2-86.9-45.5-130.3c-0.9-2.6-3.2-4.6-6.1-8.5
					c-3.2,3.9-6.6,6.4-7.8,9.7c-18.8,55.2-37.2,110.7-56,165.9c-19.2,56.4-38.9,112.6-58.1,168.9c-16.2,47.4-31.9,95-48.1,142.4
					c-16.2,47.4-32.7,94.8-49,142.2c-8,23.4-15.8,46.8-23.5,69.7c-20.9,3.9-159.4,2.9-173-1.4c0.7-3.6,0.9-7.6,2.1-11.2
					c13.4-40.9,27.1-81.7,40.6-122.6c13-39.2,25.9-78.4,38.9-117.5c13.4-40.3,26.8-80.6,40.1-120.9c13.5-40.9,27.1-81.7,40.6-122.6
					c13.1-39.8,26.2-79.5,39.4-119.3c13.3-40.3,26.6-80.6,40-120.9c13.2-39.7,26.4-79.5,39.5-119.2c13.8-41.4,27.5-82.8,41.2-124.2
					c13-39.2,25.8-78.4,38.7-117.6c8.9-26.9,17.4-53.9,27.2-80.4c3.2-8.5,9.3-16.5,15.7-23.2c7.7-8.2,15.8-7,22.3,2.1
					c3,4.2,5,9.3,6.6,14.3c27.1,81.1,53.9,162.2,81,243.3c28.1,83.8,56.6,167.5,84.6,251.4c25.2,75.5,49.7,151.2,74.8,226.7
					c22.9,68.8,46,137.5,69.3,206.2c7.2,21.2,19.8,39.4,38.6,51.6c28.1,18.3,56.7,13.3,83.6-2.9c19.6-11.8,34.3-28,40.7-51.3
					c13.3-48.3,27.9-96.3,42-144.4c16.2-54.9,32.5-109.7,48.6-164.6c16.2-55.5,32.2-111,48.4-166.5c13.2-45.3,26.9-90.5,40.1-135.8
					c13.2-45.3,26.2-90.6,39.3-135.9s26.5-90.6,39.8-135.8c3.8-13,7.3-26.2,12.1-38.8c2.6-6.9,6.8-13.8,12-19.2
					c14-14.6,26.3-11.2,32.2,8.7c3.7,12.4,6.5,25.2,9.5,37.8c10.9,44.7,21.6,89.5,32.5,134.2c10.2,41.8,20.3,83.7,30.5,125.5
					c9.9,40.7,19.9,81.4,29.9,122.1c10.8,44.1,21.5,88.3,32.4,132.4c10.3,41.8,21,83.6,31.4,125.4c10.1,40.7,19.8,81.4,29.8,122.1
					c11.8,48.1,21.6,96.9,36.5,144.1c12.6,40,49.3,67.1,98.2,49c11.5-4.2,22.6-10.2,32.9-16.8c22.6-14.5,30.2-37.9,35.9-62.7
					c10.5-45.4,22-90.6,33.1-135.8c10.1-41.3,19.9-82.6,30-123.8c10.4-42.4,21-84.8,31.4-127.2c10.2-41.8,20.3-83.7,30.5-125.6
					c10.1-41.3,20.2-82.5,30.3-123.8c10.4-42.4,20.9-84.8,31.4-127.2c11.9-48.1,23.5-96.3,35.8-144.3c1.8-7.2,6.3-14,11-19.9
					c6.7-8.5,14.2-8.5,20.3,0.3c4.9,7.2,9.2,15.4,11.5,23.8c9.6,34.7,18.6,69.6,27.2,104.5c14.2,57.3,28.2,114.6,41.9,172
					c13.3,55.7,26,111.5,39.3,167.2c10.6,44.8,22.5,89.3,32.3,134.3c16.5,76.2,52.7,142.5,101.1,202.4
					c57.8,71.3,129.2,125.2,212,165.2c48.6,23.5,99,33.1,152.2,34.2c91,1.9,181.9,5.2,272.9,7.9c7.7,0.2,15.4,0.1,23,0.5
					c8.9,0.4,13.2-3.2,12.7-12.5c-0.5-8.8-0.4-17.7-0.4-26.6c0-236.9,0-473.8,0-710.7c0-6.3,0.6-12.7,0.9-20.1
					c53.3,0,104.9,0,157.7,0c0,309.9,0,618.5,0,928.6c-7.7,0.4-14,0.9-20.4,0.9c-154.2,0.1-308.5,0.6-462.7-0.5
					c-26.2-0.2-53.1-4.8-78.6-11.6c-44.4-11.9-88.8-24.6-131.5-41.3c-89.7-35-170.7-84.4-231.9-160.4
					c-59.1-73.4-108-153.4-143.8-240.9c-5.6-13.6-8.6-28.2-13.2-42.2c-2.1-6.2-5.2-12-7.9-18c-1.4,0.2-2.9,0.3-4.3,0.5
					c-3.8,11.4-7.9,22.8-11.4,34.3c-23.4,75.5-46.7,151-70,226.5c-9.1,29.3-18.2,58.6-27.3,87.8c-19.8,63.1-60.5,109.3-118.2,139.4
					c-80.9,42.2-160.8,33.1-237.9-11.8c-38.9-22.7-72.4-51.8-92.1-93.1c-9.6-20.1-15.9-41.9-22-63.4c-17.8-61.8-35-123.7-51.9-185.7
					c-10.4-38.1-19.9-76.5-30.1-114.7C1414.2,1700.8,1411,1695.5,1407.2,1686.8z"/>
				
					<linearGradient id="SVGID_00000024709536195047221580000007819061727871635073_" gradientUnits="userSpaceOnUse" x1="171.7701" y1="-1631.27" x2="3207.3904" y2="-1631.27" gradientTransform="matrix(1 0 0 -1 0 0)">
					<stop  offset="0" style="stop-color:#FFFFFF"/>
					<stop  offset="0.2085" style="stop-color:#CACACA"/>
					<stop  offset="0.4296" style="stop-color:#919191"/>
					<stop  offset="0.5829" style="stop-color:#FFFFFF"/>
					<stop  offset="0.8065" style="stop-color:#CACACA"/>
					<stop  offset="1" style="stop-color:#5F5F5F"/>
				</linearGradient>
				<path style="fill:url(#SVGID_00000024709536195047221580000007819061727871635073_);" d="M2076.7,1023.5c3.5,0,7,2.2,10,6.7
					c4.9,7.2,9.2,15.4,11.5,23.8c9.6,34.7,18.6,69.6,27.2,104.5c14.2,57.3,28.2,114.6,41.9,172c13.3,55.7,26,111.5,39.3,167.2
					c10.6,44.8,22.5,89.3,32.3,134.3c16.5,76.2,52.7,142.5,101.1,202.4c57.8,71.3,129.2,125.2,212,165.2
					c48.6,23.5,99,33.1,152.2,34.2c91,1.9,181.9,5.2,272.9,7.9c7.7,0.2,15.4,0.1,23,0.5c0.4,0,0.9,0,1.3,0c8,0,11.9-3.7,11.4-12.5
					c-0.5-8.8-0.4-17.7-0.4-26.6c0-236.9,0-473.8,0-710.7c0-6.3,0.6-12.7,0.9-20.1c53.3,0,104.9,0,157.7,0c0,310,0,618.5,0,928.6
					c-7.7,0.4-14,0.9-20.4,0.9c-78.4,0-156.8,0.2-235.1,0.2c-75.9,0-151.7-0.1-227.6-0.7c-26.2-0.2-53.1-4.8-78.6-11.6
					c-44.4-11.9-88.8-24.6-131.5-41.3c-89.7-35-170.7-84.4-231.9-160.4c-59.1-73.4-108-153.4-143.8-240.9
					c-5.6-13.6-8.6-28.2-13.2-42.2c-2.1-6.2-5.2-12-7.9-18c-1.4,0.2-2.9,0.3-4.3,0.5c-3.8,11.4-7.9,22.8-11.4,34.3
					c-23.4,75.5-46.7,151-70,226.5c-9.1,29.3-18.2,58.6-27.3,87.8c-19.8,63.1-60.5,109.3-118.2,139.4
					c-35.7,18.6-71.2,27.2-106.3,27.2c-44.6,0-88.5-13.9-131.7-39c-38.9-22.7-72.4-51.8-92.1-93.1c-9.6-20.1-15.9-41.9-22-63.4
					c-17.8-61.8-35-123.7-51.9-185.7c-10.4-38.1-19.9-76.5-30.1-114.7c-1.5-5.8-4.8-11.1-8.6-19.7c-4.1,6.7-6.6,9.8-8,13.3
					c-31.7,78.1-63.5,156.2-95,234.4c-19.2,47.6-38.3,95.2-56.9,143c-10.9,28-29.9,49.7-52.6,67.8c-46.7,37.2-97.6,56.8-152.1,56.8
					c-23.5,0-47.7-3.6-72.5-11.1c-53-15.9-93.7-50.9-129.2-92.7c-21.6-25.4-33.2-55.2-43.8-86.1c-19.7-57.4-40.2-114.6-60.2-172
					c-19-54.6-37.7-109.2-56.7-163.8c-15.1-43.5-30.2-86.9-45.5-130.3c-0.9-2.6-3.2-4.6-6.1-8.5c-3.2,3.9-6.6,6.4-7.8,9.7
					c-18.8,55.2-37.2,110.7-56,165.9c-19.2,56.4-38.9,112.6-58.1,168.9c-16.2,47.4-31.9,95-48.1,142.4
					c-16.2,47.4-32.7,94.8-49,142.2c-8,23.4-15.8,46.8-23.5,69.7c-9,1.7-39.6,2.5-72.7,2.5c-44.1,0-92.6-1.4-100.3-3.9
					c0.7-3.6,0.9-7.6,2.1-11.2c13.4-40.9,27.1-81.7,40.6-122.6c13-39.2,26-78.4,39-117.5c13.4-40.3,26.8-80.6,40.1-120.9
					c13.5-40.9,27.1-81.7,40.6-122.6c13.1-39.8,26.2-79.5,39.4-119.3c13.3-40.3,26.6-80.6,40-120.9c13.2-39.7,26.4-79.5,39.5-119.2
					c13.8-41.4,27.5-82.8,41.2-124.2c13-39.2,25.8-78.4,38.7-117.6c8.9-26.9,17.4-53.9,27.2-80.4c3.2-8.5,9.3-16.5,15.7-23.2
					c3.5-3.7,7-5.5,10.5-5.5c4.2,0,8.2,2.6,11.7,7.6c3,4.2,5,9.3,6.6,14.3c27.1,81.1,53.9,162.2,81,243.3
					c28.1,83.8,56.6,167.5,84.6,251.4c25.2,75.5,49.7,151.2,74.8,226.7c22.9,68.8,46,137.5,69.3,206.2c7.2,21.2,19.8,39.4,38.6,51.6
					c12.5,8.1,25,11.6,37.5,11.6c15.6,0,31.1-5.5,46.1-14.5c19.6-11.8,34.3-28,40.7-51.3c13.3-48.3,27.9-96.3,42-144.4
					c16.2-54.9,32.5-109.7,48.6-164.6c16.2-55.5,32.2-111,48.4-166.5c13.2-45.3,26.9-90.5,40.1-135.8
					c13.2-45.3,26.2-90.6,39.3-135.9s26.5-90.6,39.8-135.8c3.8-13,7.3-26.2,12.1-38.8c2.6-6.9,6.8-13.8,12-19.2c5.8-6,11.3-9,16.1-9
					c6.9,0,12.6,6,16,17.7c3.7,12.4,6.5,25.2,9.5,37.8c10.9,44.7,21.6,89.5,32.5,134.2c10.2,41.8,20.3,83.7,30.5,125.5
					c9.9,40.7,19.9,81.4,29.9,122.1c10.8,44.1,21.5,88.3,32.4,132.4c10.3,41.8,21,83.6,31.4,125.4c10.1,40.7,19.8,81.4,29.8,122.1
					c11.8,48.1,21.6,96.9,36.5,144.1c9.9,31.3,34.5,54.7,68.2,54.7c9.3,0,19.3-1.8,29.9-5.7c11.5-4.2,22.6-10.2,32.9-16.8
					c22.6-14.5,30.2-37.9,35.9-62.7c10.5-45.4,22-90.6,33.1-135.8c10.1-41.3,19.9-82.6,30-123.8c10.4-42.4,21-84.8,31.4-127.2
					c10.2-41.8,20.3-83.7,30.5-125.6c10.1-41.3,20.2-82.5,30.3-123.8c10.4-42.4,20.9-84.8,31.4-127.2
					c11.9-48.1,23.5-96.3,35.8-144.3c1.8-7.2,6.3-14,11-19.9C2069.8,1025.7,2073.3,1023.5,2076.7,1023.5 M2076.7,987.2
					c-8.6,0-25,2.6-38.8,20.2c-9,11.5-14.8,22.4-17.6,33.3c-9.2,36-18.2,72.6-26.9,107.9c-3,12.2-6,24.5-9,36.7
					c-4.1,16.6-8.2,33.1-12.2,49.6c-6.3,25.4-12.8,51.7-19.1,77.6c-10.8,44-20.7,84.5-30.3,123.8c-4.4,18-8.8,36.3-13.1,54
					c-5.7,23.4-11.6,47.7-17.4,71.5c-5,20.5-10.2,41.4-15.2,61.6c-5.3,21.5-10.8,43.7-16.2,65.5c-5.7,23.4-11.5,47.2-17.1,70.3
					c-4.2,17.6-8.7,35.8-13,53.6c-3.6,14.7-7.3,29.7-10.9,44.2c-7.4,30.1-15.1,61.2-22.3,92c-5.6,24-10.7,34.2-20.2,40.3
					c-9.1,5.9-17.8,10.3-25.9,13.3c-6.2,2.3-12,3.5-17.3,3.5c-22,0-30.8-20.6-33.6-29.4c-10.1-32.1-17.7-64.6-25.7-99.1
					c-3.2-14-6.6-28.5-10.1-42.7c-4.6-18.7-9.2-37.8-13.7-56.3c-5.2-21.6-10.7-43.9-16.1-65.8c-5.2-21.1-10.6-42.6-15.8-63.3
					c-5.1-20.3-10.4-41.4-15.5-62.1c-7.5-30.3-15.1-61.2-22.3-91.1c-3.3-13.7-6.7-27.4-10.1-41.1c-3.3-13.3-6.5-26.6-9.8-39.9
					c-6.6-26.9-13.4-54.8-20.1-82.1c-9.8-40.2-19.8-81.3-30.5-125.5c-5.1-20.8-10.1-41.7-15.1-62.6c-5.7-23.5-11.6-47.8-17.3-71.6
					c-0.7-2.9-1.4-5.7-2.1-8.6c-2.4-10-4.8-20.4-7.9-30.9c-3.3-11.1-8.2-20.4-14.8-27.5c-9.6-10.5-22.4-16.2-36.1-16.2
					c-10.5,0-26.3,3.5-42.3,20.1c-8.4,8.7-15.2,19.6-19.7,31.4c-4.3,11.3-7.5,22.5-10.6,33.3c-0.8,2.8-1.6,5.5-2.4,8.2
					c-12.8,43.3-26.3,89.4-39.9,135.9c-6,20.7-12.1,41.7-17.9,62c-7,24.2-14.2,49.3-21.4,73.9c-6.7,22.8-13.5,45.9-20.2,68.3
					c-6.6,22.1-13.3,45-19.9,67.5c-7.9,26.9-15.8,54.2-23.4,80.7c-8.2,28.2-16.6,57.2-25,85.8c-9,30.8-18.3,62.1-27.3,92.4
					c-7,23.6-14.2,48.1-21.3,72.1c-3.4,11.4-6.7,22.8-10.1,34.2c-10.7,36.2-21.8,73.6-32.1,110.8c-3.5,12.7-11,21.9-24.4,29.9
					c-10.3,6.2-19.6,9.3-27.4,9.3c-6,0-11.7-1.8-17.7-5.8c-11-7.1-19-18.2-24-32.9c-25-73.7-47.7-141.1-69.2-205.9
					c-11.8-35.5-23.7-71.7-35.2-106.8c-12.9-39.3-26.3-80-39.6-120c-15.5-46.3-31.3-93.4-46.7-138.8
					c-12.5-36.9-25.3-75.1-37.9-112.6c-15-44.9-30.2-90.5-44.9-134.7c-11.8-35.6-24.1-72.4-36.2-108.6c-2.2-6.7-5.6-15.5-11.4-23.8
					c-14.1-20-32-23-41.4-23c-13.6,0-26.7,6-37,16.9c-11.2,11.9-18.8,23.5-23.2,35.4c-7.9,21.1-14.9,42.6-21.6,63.3
					c-2,6-4,12.3-6,18.4c-6.6,19.9-13.2,40.1-19.7,59.7c-6.2,19-12.7,38.6-19.1,57.9c-8.9,26.9-18,54.3-26.8,80.8
					c-4.8,14.5-9.6,28.9-14.4,43.4l-4.4,13.3c-11.5,34.7-23.4,70.6-35.1,105.9c-12.1,36.5-24.4,73.6-36.2,109.6l-3.8,11.4
					c-5.4,16.4-10.8,32.8-16.2,49.2c-7.7,23.3-15.4,46.7-23.1,70c-13,39.4-26.3,79.5-40.6,122.6c-6.9,20.8-13.9,41.7-20.8,62.6
					c-6.5,19.4-12.9,38.9-19.4,58.3c-7.3,22.1-14.6,44.1-21.9,66.2c-5.7,17.1-11.4,34.3-17,51.4c-3.6,10.7-7.1,21.4-10.7,32.1
					c-9.8,29.6-20,60.3-30,90.5c-1.8,5.5-2.5,10.4-3,13.9c-0.1,0.8-0.2,1.7-0.3,2.1l-5.8,31.4l30.4,9.7c5.4,1.7,13,3.4,46.3,4.5
					c18.5,0.6,42.2,1,65.1,1c41.8,0,68.5-1,79.4-3.1l20.9-3.9l6.8-20.2c2.4-7.1,4.8-14.3,7.2-21.5c5.3-15.7,10.7-32,16.2-48
					c7-20.4,14.2-41.2,21.2-61.4c9.2-26.5,18.6-53.9,27.8-80.9c8-23.5,16-47.4,23.8-70.5c7.9-23.6,16.1-48,24.3-71.9
					c9.1-26.6,18.5-53.7,27.5-79.9c10.1-29.2,20.5-59.3,30.6-89.1c9.2-27.1,18.5-54.7,27.5-81.4c0.6-1.8,1.2-3.6,1.8-5.4
					c5.7,16.3,11.5,33,17.5,50.2c8,23,16.1,46.5,23.9,69.1c10.7,31.1,21.8,63.2,32.8,94.7c8,23.1,16.3,46.6,24.3,69.2
					c11.8,33.6,24.1,68.4,35.8,102.6c11.2,32.6,24.3,67.1,50.5,97.8c46.8,54.9,93.3,88,146.4,103.9c27.9,8.4,55.8,12.6,83,12.6
					c62,0,120.8-21.8,174.7-64.7c30.8-24.5,51.7-51.7,63.8-83.1c18.5-47.7,37.4-94.6,56.7-142.5c21-52.2,42.2-104.4,62.9-155.4
					c3.3,12.7,6.7,25.4,10.2,38.1c19.9,72.7,36.4,131.8,52.1,186.2c6.5,22.7,13.3,46.1,24.2,68.9c20.8,43.5,55.6,79.1,106.6,108.8
					c50.1,29.2,100.5,43.9,149.9,43.9c41.7,0,83.1-10.5,123.1-31.3c33.2-17.3,61.5-39.5,84.1-65.9c23.2-27.2,40.7-59.1,51.9-94.8
					c9.8-31.1,19.3-61.9,27.4-88c8.7-28.1,17.4-56.3,26.1-84.4c8.4-27.3,17-55.2,25.7-83.1c15.4,34,32.9,67.6,52.4,100.1
					c24.4,40.6,52.5,80.8,83.5,119.3c59.4,73.7,140.2,129.8,247,171.5c45.5,17.7,91.9,30.9,135.3,42.5c31.2,8.3,60.7,12.7,87.7,12.9
					c66.4,0.5,136.7,0.7,227.8,0.7c42.5,0,85.8,0,127.6-0.1c35.3,0,71.7-0.1,107.6-0.1c5.3,0,10.4-0.3,15.2-0.6
					c2.2-0.1,4.5-0.3,6.8-0.4l34.6-1.6v-34.6V1272v-36.3h-36.3h-157.7h-34.6l-1.6,34.6c-0.1,2.2-0.2,4.5-0.4,6.6
					c-0.3,4.8-0.6,9.9-0.6,15.2c0,204.2,0,423.4,0,710.7v2.2c-26.9-0.8-54.2-1.7-80.7-2.5c-62.4-2-126.9-4-190.5-5.3
					c-52-1.1-96.9-11.1-137.2-30.6c-81.6-39.4-146.8-90.2-199.6-155.3c-48.9-60.4-79.6-121.7-93.9-187.2
					c-6.3-28.9-13.4-57.8-20.4-85.7c-4-16.2-8.2-32.8-12.1-49.2c-6.1-25.5-12.1-51.4-18-76.6c-6.9-29.7-14.1-60.4-21.3-90.7
					c-13.1-54.9-27.3-112.8-42-172.3c-9.7-38.9-18.6-73.4-27.5-105.4c-3.2-11.6-8.8-23.3-16.5-34.6
					C2106.9,995.5,2092.4,987.2,2076.7,987.2L2076.7,987.2z"/>
			</g>
			<g>
				
					<linearGradient id="SVGID_00000022540329401045888000000003468486955092626612_" gradientUnits="userSpaceOnUse" x1="36.2499" y1="-1404.4382" x2="3178.3059" y2="-1404.4382" gradientTransform="matrix(1 0 0 -1 0 0)">
					<stop  offset="0" style="stop-color:#EE2D31"/>
					<stop  offset="1" style="stop-color:#EE3738"/>
				</linearGradient>
				<path style="fill:url(#SVGID_00000022540329401045888000000003468486955092626612_);" d="M2244.2,1352.6
					c-8.8-7.9-9.8-18.2-11.6-27.8c-15.7-81.8-35.9-162.5-61.5-241.9c-8.7-27-16.5-54.2-26.2-80.8c-12.7-34.7-42.9-52.7-80.8-50
					c-32.4,2.3-60.1,26.5-68.4,60.2c-8.7,35.6-17.2,71.2-25.8,106.8c-23.3,95.8-46.7,191.6-70.1,287.3
					c-25.7,105.5-51.2,211.1-77.2,316.6c-12.7,51.6-26.2,102.9-39.6,154.3c-6.4,24.5-13.2,48.9-19.9,73.3c-2.9,10.6-9.1,18-20.7,19
					c-10.1,0.9-20.1-6.5-24.6-19.4c-5.4-15.6-9.9-31.5-14-47.5c-17.3-67.5-34.2-135.1-51.3-202.7c-16-62.9-32.3-125.8-48-188.7
					c-10.6-42.3-20.2-84.8-30.6-127.2c-9.1-37.2-18.9-74.3-28.1-111.5c-11.2-45.2-22.1-90.6-33.2-135.9
					c-9.7-39.6-19.3-79.1-29.1-118.7c-6.2-25.1-18.1-45.9-42.4-58c-39-19.3-80.5-2.6-93.8,39c-14.6,45.5-28.3,91.3-42.4,137
					c-14.7,47.9-29.7,95.7-44.2,143.6c-42.2,140.2-84.1,280.4-126.4,420.5c-23.1,76.3-46.5,152.6-70.5,228.6
					c-3.1,9.7-9.2,19.2-16.2,26.7c-8.4,8.9-18.2,9.1-26.7,0.3c-7.9-8.2-15.3-18.3-19.1-28.9c-13.5-37.2-25.5-74.9-37.9-112.4
					c-19.3-58.3-38.5-116.6-57.7-174.9c-17.1-52.1-33.9-104.3-51.2-156.4c-18.9-57.1-38.4-114-57.2-171.2
					c-19.2-58.3-37.9-116.7-57.1-175c-14.7-44.9-29.5-89.7-44.9-134.3c-11-31.7-39.5-50.7-73.7-50.7c-33.7,0.1-62.7,19.3-73.7,50.9
					c-17.3,49.6-33.7,99.5-50.2,149.4c-19.1,57.7-37.8,115.5-56.9,173.2c-22.6,68.4-45.4,136.7-68.3,205
					c-23.3,69.4-46.7,138.8-70.1,208.2c-18.8,55.9-37.6,111.8-56.5,167.7c-11.9,35.2-24.1,70.2-35.8,105.4
					c-3.6,10.9-11.1,14.6-21.5,14.6c-21.3,0-42.6,0.1-63.8,0.1c-24.2-0.1-48.5,0.2-72.7-0.4c-16.6-0.4-19.1-4.2-14-19.5
					c23.5-71.2,47.3-142.3,70.9-213.5c24.1-72.9,47.9-145.8,72-218.7c23.2-70,46.8-139.9,69.9-210c30.9-93.6,61.5-187.3,92.4-281
					c15.1-46,28.6-92.7,46.2-137.7c37.3-95.4,108-152.4,210-161.3c107.4-9.4,188.8,37.6,241.5,131.7c10.8,19.3,17.1,41.3,24.4,62.5
					c23.7,68.6,47,137.4,70.3,206.2c22.3,66,44,132.2,66.4,198.1c11.9,35.2,24.7,70.2,37.2,105.2c0.7,2,2.7,3.5,5.9,7.7
					c5.5-18.4,10.8-34.3,15.1-50.5c16.9-64.5,33.6-129.1,50.2-193.8c22.2-86.4,43.8-172.9,66.4-259.1c7.6-29,16.9-57.8,27.2-86
					c18.9-52.3,57.4-85.2,108-105.6c128.3-51.7,273.2,10.6,324,140.9c12.6,32.3,19.4,66.9,28.3,100.6
					c17.3,65.7,34.1,131.4,51.3,197.1c6.1,23.4,12.8,46.7,19.3,70c0.9,3.2,2.4,6.2,6.6,9.4c6-21.3,12.3-42.6,17.8-64
					c20.4-78.9,40.3-157.9,61.1-236.7c8.1-30.8,13.9-63,27.4-91.3c43.5-91,117.4-141,218.7-143.1c102.1-2.2,177,46.1,226.2,134.9
					c4.3,7.7,8.1,15.8,12.3,23.6c0.5,0.9,1.8,1.5,4.2,3.4c4.2-2.8,9.1-5.6,13.7-9c49.3-37,101.4-69.2,158.3-93.4
					c85.8-36.6,175.3-56.9,268.6-57.5c132.4-0.9,264.8-0.2,397.1-0.2c3.6,0,7.1,0,10.6,0.2c16.3,0.9,19.8,4,19.9,20.3
					c0.3,43.1,0.3,86.3-0.1,129.4c-0.1,14.6-3.1,17.2-18,17.9c-8.3,0.4-16.5,0.2-24.8,0.2c-120,0-239.9,0-359.9,0
					c-70.4,0-138.9,10.5-204.9,35.6c-66,25-125.2,61-176.2,110c-8.9,8.5-16.2,18.7-23.9,28.4c-50.7,64.7-89,136.2-117.5,213.1
					c-1.2,3.3-2.6,6.5-4.2,9.6C2248.2,1350.6,2246.8,1351,2244.2,1352.6z"/>
				
					<linearGradient id="SVGID_00000089545206245992292960000005969911498469431195_" gradientUnits="userSpaceOnUse" x1="-7.425082e-04" y1="-1404.415" x2="3214.5671" y2="-1404.415" gradientTransform="matrix(1 0 0 -1 0 0)">
					<stop  offset="0" style="stop-color:#FFFFFF"/>
					<stop  offset="0.2085" style="stop-color:#CACACA"/>
					<stop  offset="0.4296" style="stop-color:#919191"/>
					<stop  offset="0.5829" style="stop-color:#FFFFFF"/>
					<stop  offset="0.8065" style="stop-color:#CACACA"/>
					<stop  offset="1" style="stop-color:#5F5F5F"/>
				</linearGradient>
				<path style="fill:url(#SVGID_00000089545206245992292960000005969911498469431195_);" d="M1405.7,782.4
					c99,0,192.2,59.8,231,159.1c12.6,32.3,19.4,66.9,28.3,100.6c17.3,65.7,34.1,131.4,51.3,197.1c6.1,23.4,12.8,46.7,19.3,70
					c0.9,3.2,2.4,6.2,6.6,9.4c6-21.3,12.3-42.6,17.8-64c20.4-78.9,40.3-157.9,61.1-236.7c8.1-30.8,13.9-63,27.4-91.3
					c43.5-91,117.4-141,218.6-143.1c2.2,0,4.4-0.1,6.5-0.1c98.8,0,171.5,48,219.7,134.9c4.3,7.7,8.1,15.8,12.3,23.6
					c0.5,0.9,1.8,1.5,4.2,3.4c4.2-2.8,9.1-5.6,13.7-9c49.3-37,101.4-69.2,158.3-93.4c85.8-36.6,175.3-56.9,268.6-57.5
					c53.9-0.4,107.7-0.5,161.6-0.5c78.5,0,157,0.2,235.6,0.2c3.6,0,7.1,0,10.6,0.2c16.3,0.9,19.8,4,19.9,20.3
					c0.3,43.1,0.3,86.3-0.1,129.4c-0.1,14.6-3.1,17.2-18,17.9c-4.3,0.2-8.5,0.2-12.8,0.2c-4,0-8,0-12,0c0,0,0,0,0,0
					c-71.6,0-143.2,0-214.8,0c-48.4,0-96.8,0-145.1,0c-0.1,0-0.2,0-0.3,0c-70.3,0-138.7,10.6-204.6,35.6c-66,25-125.2,61-176.2,110
					c-8.9,8.5-16.2,18.7-23.9,28.4c-50.7,64.7-89,136.2-117.5,213.1c-1.2,3.3-2.6,6.5-4.2,9.6c-0.4,0.9-1.9,1.2-4.4,2.8
					c-8.8-7.9-9.8-18.2-11.6-27.8c-15.7-81.8-35.9-162.5-61.5-241.9c-8.7-27-16.5-54.2-26.2-80.8c-11.8-32.4-39-50.2-73.4-50.2
					c-2.4,0-4.9,0.1-7.4,0.3c-32.4,2.3-60.1,26.5-68.4,60.2c-8.7,35.6-17.2,71.2-25.8,106.8c-23.3,95.8-46.7,191.6-70.1,287.3
					c-25.7,105.5-51.2,211.1-77.2,316.6c-12.7,51.6-26.2,102.9-39.6,154.3c-6.4,24.5-13.2,48.9-19.9,73.3c-2.9,10.6-9.1,18-20.7,19
					c-0.6,0.1-1.1,0.1-1.7,0.1c-9.5,0-18.7-7.3-22.9-19.5c-5.4-15.6-9.9-31.5-14-47.5c-17.3-67.5-34.2-135.1-51.3-202.7
					c-16-62.9-32.3-125.8-48-188.7c-10.6-42.3-20.2-84.8-30.6-127.2c-9.1-37.2-18.9-74.3-28.1-111.5
					c-11.2-45.2-22.1-90.6-33.2-135.9c-9.7-39.6-19.3-79.1-29.1-118.7c-6.2-25.1-18.1-45.9-42.4-58c-10.9-5.4-22.1-8-32.7-8
					c-27.3,0-51.5,17-61.1,47c-14.6,45.5-28.3,91.3-42.4,137c-14.7,47.9-29.7,95.7-44.2,143.6c-42.2,140.2-84.1,280.4-126.4,420.5
					c-23.1,76.3-46.5,152.6-70.5,228.6c-3.1,9.7-9.2,19.2-16.2,26.7c-4.3,4.5-8.9,6.8-13.5,6.8c-4.5,0-9-2.1-13.2-6.4
					c-7.9-8.2-15.3-18.3-19.1-28.9c-13.5-37.2-25.5-74.9-37.9-112.4c-19.3-58.3-38.5-116.6-57.7-174.9
					c-17.1-52.1-33.9-104.3-51.2-156.4c-18.9-57.1-38.4-114.1-57.2-171.2c-19.2-58.3-37.9-116.7-57.1-175
					c-14.7-44.9-29.5-89.7-44.9-134.3c-11-31.7-39.4-50.7-73.5-50.7c0,0-0.1,0-0.2,0c-33.7,0.1-62.7,19.3-73.7,50.9
					c-17.3,49.6-33.7,99.5-50.2,149.4c-19.1,57.7-37.8,115.5-56.9,173.2c-22.6,68.4-45.4,136.7-68.3,205
					c-23.3,69.4-46.7,138.8-70.1,208.2c-18.8,55.9-37.6,111.8-56.5,167.7c-11.9,35.2-24.1,70.2-35.8,105.4
					c-3.6,10.9-11,14.6-21.5,14.6c-17.7,0-35.3,0.1-53,0.1c-3.6,0-7.2,0-10.8,0c-2.4,0-4.9,0-7.3,0c-6.9,0-13.8,0-20.7,0
					c-14.9,0-29.8-0.1-44.7-0.5c-16.6-0.4-19.1-4.2-14-19.5c23.5-71.2,47.3-142.3,70.9-213.5c24.1-72.9,47.9-145.8,72-218.7
					c23.2-70,46.8-139.9,69.9-210c30.9-93.6,61.5-187.3,92.4-281c15.1-46,28.6-92.7,46.2-137.7c37.3-95.4,108-152.4,210-161.3
					c9-0.8,17.8-1.2,26.5-1.2c94.4,0,166.8,46.7,215,132.9c10.8,19.3,17.1,41.3,24.4,62.5c23.7,68.6,47,137.4,70.3,206.2
					c22.3,66,44,132.2,66.4,198.1c11.9,35.2,24.7,70.2,37.2,105.2c0.7,2,2.7,3.5,5.9,7.7c5.5-18.4,10.8-34.3,15.1-50.5
					c16.9-64.5,33.6-129.1,50.2-193.8c22.2-86.4,43.8-172.9,66.4-259.1c7.6-29,16.9-57.8,27.2-86c18.9-52.3,57.4-85.2,108-105.6
					C1343.3,788.3,1374.8,782.4,1405.7,782.4 M1405.7,746.1c-36.5,0-72.3,7-106.6,20.8c-64.2,25.9-107.4,68.6-128.6,126.9
					c-11.5,31.8-20.7,61-28.2,89.1c-14.9,56.6-29.5,114.2-43.7,169.8c-7.5,29.3-15.2,59.7-22.8,89.5
					c-12.8,49.9-24.6,95.6-35.7,138.2c-1.1-3.1-2.1-6.3-3.2-9.4c-12.1-35.8-24.3-72.2-36-107.5c-9.9-29.7-20.2-60.4-30.3-90.6
					c-19.1-56.6-44.4-131.2-70.3-206.5c-1.3-3.9-2.7-7.8-4-12c-6.2-18.6-12.6-37.8-23-56.4c-55.5-99-140.8-151.4-246.7-151.4
					c-9.7,0-19.7,0.4-29.7,1.3c-57.3,5-107.3,23.8-148.4,55.8c-40,31.2-71.1,74.4-92.2,128.5c-13,33.1-23.8,67.1-34.2,100
					c-4.1,13-8.4,26.5-12.7,39.6c-13.3,40.5-26.9,81.7-39.9,121.6c-17.1,52.3-34.9,106.3-52.4,159.4
					c-12.2,36.9-24.7,74.4-36.9,110.7c-10.9,32.5-22.1,66.2-33.1,99.3c-12.7,38.4-25.6,77.6-38,115.4c-11.1,33.9-22.6,68.9-34,103.4
					c-11.7,35.4-23.7,71.3-35.2,106.1c-11.7,35.2-23.8,71.6-35.7,107.4c-2.6,7.9-9.5,28.8,3.6,47.5c13.2,18.8,35.5,19.4,43.9,19.6
					c15.6,0.4,31.1,0.5,45.6,0.5c3.5,0,6.9,0,10.4,0c3.4,0,6.9,0,10.3,0c2.4,0,4.8,0,7.2,0c3.6,0,7.2,0,10.9,0
					c10.2,0,20.5,0,30.4-0.1c7.5,0,15.1,0,22.6,0c12.4,0,23.4-3,32.7-8.8c7.6-4.8,17.7-13.9,23.2-30.6c7-21,14.3-42.4,21.4-63.1
					c4.7-13.8,9.6-28,14.4-42.1c12.4-36.8,25-74.1,37.1-110.3c6.4-19.2,12.9-38.3,19.3-57.5c7.7-22.9,15.5-45.8,23.2-68.8
					c15.4-45.7,31.4-93,46.9-139.5c25.2-75.2,47.5-142.2,68.4-205.1c9.5-28.6,19-57.6,28.2-85.7c9.4-28.7,19.1-58.4,28.7-87.5
					l5.5-16.7c14.4-43.4,29.2-88.3,44.5-132.1c5.8-16.6,20.6-26.5,39.5-26.6h0.1c19.2,0,33.5,9.6,39.2,26.3
					c14.7,42.5,29,86.1,42.9,128.3l1.8,5.5c8.8,26.7,17.6,53.8,26.1,80.1c10.1,31.1,20.5,63.3,31,95c9.9,30,20.1,60.4,30,89.7
					c9,26.7,18.3,54.3,27.3,81.5c10.1,30.5,20.2,61.6,30,91.7c6.9,21.2,14,43.1,21.1,64.6c17.2,52.4,35.5,108,57.7,175
					c2.9,8.7,5.8,17.6,8.6,26.2c9.4,28.6,19.1,58.2,29.6,87.2c6.6,18.2,18.4,32.7,27.1,41.8c10.9,11.3,24.9,17.5,39.2,17.5
					c14.7,0,28.9-6.5,39.9-18.2c11.2-11.9,19.9-26.3,24.4-40.6c23.2-73.6,46.3-148.5,70.7-229c23.8-78.7,47.8-158.8,71-236.2
					c18.1-60.4,36.9-122.9,55.4-184.3c10.2-33.7,20.8-68,31-101.2c4.4-14.1,8.7-28.2,13.1-42.3c4.1-13.4,8.3-27,12.3-40.2
					c9.7-31.7,19.7-64.4,29.9-96.4c4.4-13.8,14.1-21.8,26.6-21.8c5.3,0,10.9,1.4,16.6,4.2c8.4,4.1,17.7,11.4,23.3,34.1
					c8,32.5,16.1,65.6,23.9,97.6l5.1,21c3.8,15.6,7.6,31.2,11.4,46.8c7.1,29.2,14.4,59.4,21.8,89.1c4.3,17.6,8.9,35.4,13.3,52.6
					c4.9,19.3,10,39.3,14.8,58.9c4.6,18.8,9.2,38.1,13.6,56.8c5.5,23.1,11.2,47,17,70.6c9.9,39.7,20.2,80,30.2,119
					c5.9,22.9,11.9,46.6,17.8,69.9c6.5,25.8,13.2,52,19.6,77.3c10.4,41.1,21.1,83.6,31.8,125.4c4.8,18.6,9.6,35.1,14.9,50.3
					c4.2,12.2,11.3,22.7,20.5,30.4c10.5,8.8,23.5,13.6,36.7,13.6c1.6,0,3.2-0.1,4.9-0.2c13.9-1.2,26.3-6.8,35.8-16.2
					c7.8-7.7,13.4-17.5,16.6-29.3c1.1-4.1,2.2-8.1,3.4-12.2c5.6-20.1,11.3-40.9,16.7-61.7c2.1-7.9,4.1-15.8,6.2-23.7
					c11.2-42.9,22.7-87.2,33.6-131.1c17.9-72.6,35.8-146.4,53.2-217.9c7.9-32.4,16-65.9,24-98.8c9.8-40.4,19.7-80.8,29.6-121.2
					c13.3-54.5,27-110.8,40.5-166.2c3.8-15.8,7.7-31.8,11.4-47.3c4.7-19.5,9.5-39.6,14.4-59.4c4.5-18.3,18.8-31.4,35.7-32.6
					c1.6-0.1,3.2-0.2,4.8-0.2c19.7,0,32.9,8.9,39.3,26.4c6.3,17.2,11.7,34.7,17.4,53.1c2.7,8.6,5.4,17.6,8.3,26.4
					c24.2,75.1,44.5,155,60.4,237.6c0.2,0.9,0.3,1.8,0.5,2.7c2,11.2,5.4,29.9,22.5,45.2l20.1,18.1l23-14.1c0.1-0.1,0.2-0.1,0.4-0.2
					c3-1.6,12-6.3,17.6-17.2c2.1-4.2,4.1-8.7,5.9-13.5c28.2-76.1,65.9-144.5,112.1-203.3c1.4-1.8,2.7-3.5,4.1-5.3
					c5.6-7.3,10.9-14.2,16.4-19.3c45.8-43.9,100.9-78.3,163.9-102.2c58.9-22.3,121.6-33.2,191.7-33.2h0.3c48.4,0,96.8,0,145.1,0
					c45.6,0,91.1,0,136.7,0l78.1,0c2,0,3.9,0,5.8,0c2.1,0,4.1,0,6.2,0c3.9,0,9.1,0,14.5-0.3c8.1-0.4,25-1.2,38.1-14
					c14.3-13.9,14.4-32.1,14.5-39.9c0.3-43.3,0.3-87,0.1-129.9c-0.1-8.1-0.2-27-14.5-41.4c-13.5-13.5-31.1-14.5-39.6-15
					c-4.5-0.3-8.8-0.3-12.7-0.3c-39.1,0-78.9-0.1-117.3-0.1c-38.7-0.1-78.8-0.1-118.2-0.1c-62.7,0-114.1,0.2-161.8,0.5
					c-48.2,0.3-96.9,5.7-144.5,16.1c-46.1,10-92.5,24.9-138,44.3c-49.3,21-97.5,48.5-146.8,83.8c-26.7-45.7-60-81.2-99.1-105.7
					c-42.9-26.8-92.7-40.4-148.1-40.4c-2.4,0-4.8,0-7.3,0.1c-57,1.2-107.6,16.1-150.2,44.2c-42,27.7-75.8,67.9-100.4,119.5
					c-12,25.2-18.4,51.4-24.5,76.7c-1.8,7.3-3.4,14.2-5.2,21c-12.4,47.4-24.8,95.6-36.7,142.2c-3,11.8-6.1,23.8-9.2,35.8
					c-3.8-14.7-7.6-29.4-11.4-43.9c-9.3-36.1-19-73.3-28.7-110c-2.3-8.6-4.5-17.6-6.6-26.2c-6.3-25.7-12.9-52.3-23-78.3
					c-21.4-54.9-58.2-101.1-106.4-133.6c-23.2-15.7-48.6-27.8-75.3-36C1461.8,750.3,1433.9,746.1,1405.7,746.1L1405.7,746.1z"/>
			</g>
			<g>
				
					<linearGradient id="SVGID_00000122714359911894424290000009692460145240162490_" gradientUnits="userSpaceOnUse" x1="2285.4678" y1="-1505.5739" x2="3463.72" y2="-1505.5739" gradientTransform="matrix(1 0 0 -1 0 0)">
					<stop  offset="0" style="stop-color:#EE2D31"/>
					<stop  offset="1" style="stop-color:#EE3738"/>
				</linearGradient>
				<path style="fill:url(#SVGID_00000122714359911894424290000009692460145240162490_);" d="M3463.7,1040.1c0,54.4,0,105.6,0,158.6
					c-8,0.4-15.5,1-23,1c-225.1,0.1-450.2,0.3-675.4-0.1c-57.6-0.1-112.7,10.7-164.7,35.5c-69.1,33-115.4,86.1-138.7,159.4
					c-15.3,48.1-19.6,97.3-15.3,147.1c8.9,103,60.1,178.3,152.5,224.9c51.8,26.1,107.3,39.4,164.8,44.2c17.6,1.5,18.2,0.3,18.2-16.7
					c-0.1-162.4-0.1-324.9-0.1-487.3c0-5.2,0.6-10.4,1-16.8c6.1-0.8,11.2-1.9,16.4-2.2c43.6-2.7,87.3-5.2,130.9-7.7
					c19.8-1.1,20.3-0.5,20.3,18.6c0,218,0,435.9,0,653.9c0,18.3-0.1,18.5-19,18.5c-89.2,0.1-178.4-0.1-267.6,0.1
					c-30.3,0.1-58.2-9.8-85.6-20.5c-64.6-25.3-121.2-63-168.5-114.3c-46.4-50.4-78.5-108.7-98.6-174
					c-21.9-70.9-29.5-143.5-24.2-217.1c11.2-155.3,85.5-270.6,223.4-344.2c54.1-28.9,111.9-47,171.9-58.4c10.4-2,21.1-2.3,31.8-2.3
					c243.4-0.1,486.9-0.1,730.3-0.1C3450.2,1040.1,3456,1040.1,3463.7,1040.1z"/>
				
					<linearGradient id="SVGID_00000183965358095748972040000014406497333849950093_" gradientUnits="userSpaceOnUse" x1="2249.199" y1="-1505.5999" x2="3500.0298" y2="-1505.5999" gradientTransform="matrix(1 0 0 -1 0 0)">
					<stop  offset="0" style="stop-color:#FFFFFF"/>
					<stop  offset="0.2085" style="stop-color:#CACACA"/>
					<stop  offset="0.4296" style="stop-color:#919191"/>
					<stop  offset="0.5829" style="stop-color:#FFFFFF"/>
					<stop  offset="0.8065" style="stop-color:#CACACA"/>
					<stop  offset="1" style="stop-color:#5F5F5F"/>
				</linearGradient>
				<path style="fill:url(#SVGID_00000183965358095748972040000014406497333849950093_);" d="M3262.2,1040.1c45.5,0,91.1,0,136.6,0
					c15.2,0,30.4,0,45.7,0c5.8,0,11.6,0,19.3,0c0,54.4,0,105.6,0,158.6c-8,0.4-15.5,1-23,1c-125.4,0-250.7,0.1-376.1,0.1
					c-99.8,0-199.5-0.1-299.3-0.2c-0.2,0-0.5,0-0.7,0c-57.4,0-112.2,10.8-163.9,35.5c-69.1,33-115.4,86.1-138.7,159.4
					c-15.3,48.1-19.6,97.3-15.3,147.1c8.9,103,60.1,178.3,152.5,224.9c51.8,26.1,107.3,39.4,164.8,44.2c3.3,0.3,6.1,0.5,8.3,0.5
					c9.5,0,9.9-3.4,9.9-17.2c-0.1-162.4-0.1-324.9-0.1-487.3c0-5.2,0.6-10.4,1-16.8c6.1-0.8,11.2-1.9,16.4-2.2
					c43.6-2.7,87.3-5.2,130.9-7.7c3.5-0.2,6.3-0.3,8.7-0.3c11.2,0,11.6,3.2,11.6,18.9c0,218,0,435.9,0,653.9
					c0,18.3-0.1,18.5-19,18.5c-13.6,0-27.2,0-40.8,0c-41.3,0-82.7,0-124,0c-34.3,0-68.6,0-102.8,0.1c-0.1,0-0.2,0-0.3,0
					c-30.1,0-58-9.8-85.3-20.5c-64.6-25.3-121.2-63-168.5-114.3c-46.4-50.4-78.5-108.7-98.6-174c-21.9-70.9-29.5-143.5-24.2-217.1
					c11.2-155.3,85.5-270.6,223.4-344.2c54.1-28.9,111.9-47,171.9-58.4c10.4-2,21.1-2.3,31.8-2.3
					C2896.8,1040.1,3079.5,1040.1,3262.2,1040.1 M3262.2,1003.8c-175.8,0-362.9,0-548.1,0.1c-11.4,0-24.9,0.4-38.5,3
					c-68.9,13.2-128.5,33.5-182.1,62.1c-36.8,19.6-70,42.5-98.6,67.9c-28.8,25.6-53.7,54.5-74.1,85.8
					c-20.3,31.3-36.4,65.8-48.1,102.6c-11.5,36.3-18.9,75.8-21.9,117.3c-5.7,79,2.9,156.5,25.7,230.3c10.9,35.5,25.2,69,42.5,99.7
					c17.8,31.7,39.4,61.4,64.1,88.2c50,54.2,111.2,95.8,181.9,123.5c29.7,11.6,61.8,23,98.5,23h0.4c29.7-0.1,62.4-0.1,102.8-0.1
					c20.7,0,41.3,0,62,0c20.7,0,41.4,0,62,0c13.6,0,27.2,0,40.8,0c5.3,0,10.2,0,15.1-0.6c10.8-1.2,19.9-5.3,26.9-12.2
					c7.2-7,11.5-16.2,12.8-27.2c0.6-4.8,0.6-9.7,0.6-14.9c0-212,0-432,0-653.9c0-10.6,0-21.6-6-32.6c-5.1-9.4-13.6-16.5-23.8-19.9
					c-7-2.3-13.7-2.6-18.1-2.6c-3.4,0-7.1,0.2-10.8,0.4c-38.1,2.1-78.6,4.5-131.1,7.7c-5.1,0.3-9.6,1-14,1.7
					c-1.8,0.3-3.4,0.5-5.1,0.8l-29.5,4l-1.8,29.7c-0.1,1.9-0.2,3.7-0.4,5.5c-0.3,4.3-0.7,8.7-0.7,13.5c0,152,0.1,308.6,0.1,465.7
					c-48.6-6.1-91.5-18.7-130.4-38.3c-81.5-41.1-124.9-105.1-132.6-195.6c-4-46.8,0.6-91.6,13.8-133
					c20.3-63.9,59.4-108.9,119.8-137.7c45-21.5,93.5-31.9,148.3-31.9h0.2h0.4c88.9,0.1,184.1,0.2,299.4,0.2
					c78.3,0,157.8,0,234.8-0.1c47.1,0,94.2,0,141.3-0.1c6.1,0,11.9-0.3,17.5-0.7c2.5-0.2,4.8-0.3,7.2-0.4l34.6-1.6v-34.6v-158.6
					v-36.3h-36.3h-19.3h-45.7h-68.3L3262.2,1003.8L3262.2,1003.8z"/>
			</g>
		</g>
	</g>
	<g>
		<path d="M89.7,2724.4l85.2-289.6c3.4-10.5,10.5-15.7,21.4-15.7c10.5,0,17.1,4.4,19.9,13.4l84.4,294c0.7,2.2,1,4.3,1,6.3
			c0,5.9-2,10.9-6,15c-4,4.1-8.6,6.2-13.9,6.2c-11.1,0-18.1-5.1-21.1-15.4l-16.7-57.4h-96.9l-18.4,61.5c-0.5,2.7-2.6,5.2-6.3,7.6
			c-3.7,2.4-7.8,3.6-12.2,3.6c-6.2,0-11.4-2.1-15.4-6.3s-6.1-9.3-6.1-15.4C88.4,2729.7,88.8,2727.1,89.7,2724.4z M196,2517.1
			l-36.3,121.2h71.6L196,2517.1z"/>
		<path d="M400.5,2732.7v-313.6h149.6c17.3,0,32.2,6.3,44.7,18.9c12.5,12.6,18.8,27.6,18.8,45.1v24.2c0,17.6-6.2,32.7-18.6,45.2
			c-12.4,12.5-27.4,18.8-44.8,18.8h-27l86.4,148.6c2.7,4.4,4,8.7,4,13.1c0,5.7-2.2,10.6-6.6,14.7c-4.4,4.1-9.3,6.2-14.9,6.2
			c-8.4,0-14.8-3.7-19.2-11.3l-99.1-171.3h-30.6v161.5c0,5.9-2.1,10.9-6.4,15c-4.3,4.1-9.4,6.2-15.2,6.2s-10.9-2.1-15-6.2
			C402.5,2743.6,400.5,2738.6,400.5,2732.7z M442.8,2528.9h107.3c5.9,0,10.9-2.1,15-6.2c4.1-4.1,6.2-9.1,6.2-15v-24.7
			c0-5.9-2.1-10.9-6.2-15c-4.1-4.1-9.1-6.2-15-6.2H442.8V2528.9z"/>
		<path d="M732.2,2419.1h171.3c5.5,0,10.5,2.1,14.7,6.3c4.3,4.2,6.4,9.1,6.4,14.9c0,5.9-2.1,11-6.3,15.2s-9.2,6.4-14.9,6.4h-64
			v249.6h64c5.9,0,10.9,2.1,15,6.2c4.1,4.1,6.2,9.1,6.2,15s-2.1,10.9-6.3,15c-4.2,4.1-9.2,6.2-14.9,6.2H732.2
			c-5.9,0-10.9-2.1-15-6.2c-4.1-4.1-6.2-9.1-6.2-15s2-10.9,6.2-15c4.1-4.1,9.1-6.2,15-6.2h65v-249.6h-65c-5.9,0-10.9-2.1-15-6.3
			s-6.2-9.1-6.2-14.9c0-6.1,2-11.2,6.2-15.4C721.4,2421.2,726.3,2419.1,732.2,2419.1z"/>
		<path d="M1236.3,2440.8v313.1h-56.8l-114-259.9v238.8c0,5.9-2.1,10.9-6.2,15c-4.1,4.1-9.1,6.2-15,6.2s-10.9-2.1-15-6.2
			c-4.1-4.1-6.2-9.1-6.2-15v-313.6h55.9l114.4,259.4v-237.8c0-5.9,2.1-11,6.4-15.2s9.4-6.4,15.2-6.4s10.9,2.1,15,6.3
			C1234.2,2429.6,1236.3,2434.7,1236.3,2440.8z"/>
		<path d="M1336,2724.4l85.2-289.6c3.4-10.5,10.5-15.7,21.4-15.7c10.5,0,17.2,4.4,19.9,13.4l84.4,294c0.7,2.2,1,4.3,1,6.3
			c0,5.9-2,10.9-6.1,15c-4,4.1-8.6,6.2-13.8,6.2c-11.1,0-18.1-5.1-21.2-15.4l-16.7-57.4h-96.9l-18.4,61.5c-0.5,2.7-2.6,5.2-6.3,7.6
			c-3.7,2.4-7.8,3.6-12.2,3.6c-6.2,0-11.4-2.1-15.4-6.3c-4.1-4.2-6.1-9.3-6.1-15.4C1334.8,2729.7,1335.2,2727.1,1336,2724.4z
			 M1442.3,2517.1l-36.3,121.2h71.6L1442.3,2517.1z"/>
		<path d="M2043.1,2550.6v-10.8l-43.8-62.5v255.4c0,5.9-2.1,10.9-6.2,15c-4.1,4.1-9.1,6.2-15,6.2s-10.9-2.1-15-6.3
			c-4.1-4.2-6.2-9.1-6.2-14.9v-313.6h54.7l52,75.8l53.7-75.8h53.7v313.6c0,5.9-2.1,10.9-6.4,15c-4.3,4.1-9.4,6.2-15.2,6.2
			c-5.7,0-10.7-2.1-14.9-6.3c-4.2-4.2-6.3-9.1-6.3-14.9v-254.4l-42.8,60.4v11.8c0,5.7-2.1,10.7-6.3,14.9c-4.2,4.2-9.2,6.3-14.9,6.3
			c-5.9,0-10.9-2.1-15-6.3C2045.1,2561.3,2043.1,2556.3,2043.1,2550.6z"/>
		<path d="M2461.4,2461.9h-149.6v103h64.5c5.7,0,10.7,2.1,14.9,6.3c4.2,4.2,6.3,9.1,6.3,14.9c0,6.1-2.1,11.2-6.2,15.4
			c-4.1,4.2-9.1,6.3-15,6.3h-64.5v103.8H2462c5.7,0,10.7,2.1,14.9,6.2c4.2,4.1,6.3,9.1,6.3,15s-2.1,10.9-6.4,15
			c-4.3,4.1-9.4,6.2-15.2,6.2h-191.9v-334.8h191.9c5.9,0,11,2.1,15.2,6.4s6.4,9.4,6.4,15.2c0,5.7-2.1,10.7-6.4,14.9
			C2472.4,2459.8,2467.3,2461.9,2461.4,2461.9z"/>
		<path d="M2601.8,2419.1h83.6c10.9,0.2,21.5,3.7,31.9,10.6c10.3,6.9,17.9,15.2,22.8,24.9l41.8,84.6c7.9,15.3,11.8,31.2,11.8,47.9
			c0,15.4-4.2,31.3-12.6,47.6l-42.1,83.6c-5.4,10.8-13.1,19.4-23.2,25.8c-10.1,6.5-21.3,9.7-33.8,9.7h-80.9c-5.9,0-10.9-2.1-15-6.3
			c-4.1-4.2-6.2-9.1-6.2-14.9c0-5.9,2.1-11,6.2-15.2c4.1-4.3,9.1-6.4,15-6.4h22.2V2462h-21.7c-5.9,0-10.9-2.1-15-6.4
			c-4.1-4.3-6.2-9.4-6.2-15.2c0-5.7,2.1-10.7,6.2-14.9C2590.9,2421.2,2595.9,2419.1,2601.8,2419.1z M2665.7,2461.9v249.6l14.8-0.1
			c9.4,0,16.4-4.6,21.1-13.9l41.8-83.1c5.2-10.9,7.8-20.1,7.9-27.4c0-9.2-2.1-17.9-6.3-26.2l-43.3-86.2
			c-4.5-8.6-11.9-12.8-22.2-12.8H2665.7z"/>
		<path d="M2913.3,2419.1h171.3c5.5,0,10.4,2.1,14.7,6.3s6.4,9.1,6.4,14.9c0,5.9-2.1,11-6.3,15.2s-9.1,6.4-14.9,6.4h-64v249.6h64
			c5.9,0,10.9,2.1,15,6.2c4.1,4.1,6.2,9.1,6.2,15s-2.1,10.9-6.3,15c-4.2,4.1-9.1,6.2-14.9,6.2h-171.3c-5.9,0-10.9-2.1-15-6.2
			c-4.1-4.1-6.2-9.1-6.2-15s2.1-10.9,6.2-15c4.1-4.1,9.1-6.2,15-6.2h65v-249.6h-65c-5.9,0-10.9-2.1-15-6.3
			c-4.1-4.2-6.2-9.1-6.2-14.9c0-6.1,2.1-11.2,6.2-15.4C2902.5,2421.2,2907.5,2419.1,2913.3,2419.1z"/>
		<path d="M3205.5,2724.4l85.2-289.6c3.4-10.5,10.5-15.7,21.4-15.7c10.5,0,17.1,4.4,19.9,13.4l84.4,294c0.7,2.2,1,4.3,1,6.3
			c0,5.9-2,10.9-6.1,15c-4,4.1-8.6,6.2-13.9,6.2c-11.1,0-18.1-5.1-21.1-15.4l-16.7-57.4h-96.9l-18.4,61.5c-0.5,2.7-2.6,5.2-6.3,7.6
			c-3.7,2.4-7.8,3.6-12.1,3.6c-6.2,0-11.4-2.1-15.4-6.3s-6.1-9.3-6.1-15.4C3204.3,2729.7,3204.7,2727.1,3205.5,2724.4z
			 M3311.8,2517.1l-36.3,121.2h71.6L3311.8,2517.1z"/>
	</g>
</g>
</svg>
