<?xml version="1.0" encoding="utf-8"?>
<!-- Generator: Adobe Illustrator 27.7.0, SVG Export Plug-In . SVG Version: 6.00 Build 0)  -->
<svg version="1.1" id="Layer_1" xmlns="http://www.w3.org/2000/svg" xmlns:xlink="http://www.w3.org/1999/xlink" x="0px" y="0px"
	 viewBox="0 0 3500 3500" style="enable-background:new 0 0 3500 3500;" xml:space="preserve">
<style type="text/css">
	.st0{fill:none;stroke:#F58E92;stroke-width:2;}
	.st1{fill:#EB1C24;}
	.st2{fill:#FFFFFF;}
</style>
<g>
	<path vector-effect="non-scaling-stroke" class="st0" d="M2372.6,1905.6c-126.4,121.7-334.9,32.2-337.2-141.8c0-1-0.6-1.6-1.6-1.6
		h-81.5c-1.1,0-1.7,0.6-1.7,1.7c0.7,46.5,11.2,89.4,31.8,128.7c75.9,145.1,256.9,197.9,398,113.4c85.5-51.3,137.7-142.7,138.3-243.2
		c0-0.4-0.2-0.6-0.6-0.6h-82.6c-0.9,0-1.4,0.5-1.4,1.4C2432.3,1820.5,2411.8,1867.8,2372.6,1905.6"/>
	<path class="st1" d="M2661.9,1750c0,237.9-192.9,430.8-430.8,430.8l0,0c-237.9,0-430.8-192.9-430.8-430.8
		c0-237.9,192.9-430.8,430.8-430.8C2469,1319.2,2661.9,1512.1,2661.9,1750z M2372.6,1905.6c-126.4,121.7-334.9,32.2-337.2-141.8
		c0-1-0.6-1.6-1.6-1.6h-81.5c-1.1,0-1.7,0.6-1.7,1.7c0.7,46.5,11.2,89.4,31.8,128.7c75.9,145.1,256.9,197.9,398,113.4
		c85.5-51.3,137.7-142.7,138.3-243.2c0-0.4-0.2-0.6-0.6-0.6h-82.6c-0.9,0-1.4,0.5-1.4,1.4
		C2432.3,1820.5,2411.8,1867.8,2372.6,1905.6z"/>
	<path d="M3162.2,1473.8h86.2c0.7,0,1.2,0.6,1.2,1.2v89c0,0.7-0.6,1.2-1.2,1.2h-86.2c-0.7,0-1.2-0.6-1.2-1.2v-89
		C3161,1474.4,3161.5,1473.8,3162.2,1473.8z"/>
	<path d="M84.8,1963.2v69.8c0,0.7-0.6,1.3-1.3,1.3l0,0H1.7c-1,0-1.6-0.5-1.6-1.6c-0.2-92.5-0.2-183.6,0-273.2
		c0.3-184.3,176.5-320.1,355.1-271.9c115.3,31.2,197.5,129.6,208.2,248.6c10.9,121-59.2,236.2-170.6,283.5
		c-105.5,44.8-224.1,22.1-307-57.1c-0.3-0.2-0.7-0.2-0.9,0C84.8,1962.9,84.8,1963.1,84.8,1963.2z M479.7,1760.3
		c0-109-88.4-197.4-197.4-197.4S85,1651.3,85,1760.3s88.4,197.4,197.4,197.4S479.7,1869.3,479.7,1760.3z"/>
	<path d="M3413.6,1784.8c8.8-69.5-19.9-139.8-76.3-182.4c-0.5-0.4-0.6-1.1-0.2-1.7c0,0,0,0,0,0l49.8-65.5c0.5-0.7,1.5-0.8,2.2-0.3
		c0,0,0,0,0,0c54.6,43.2,89.3,97.6,104,163.2c26.2,116.4-23.6,237.1-123.7,301.1c-142.6,91.2-330.4,39.1-407.1-111.6
		c-59.5-116.9-28.9-257.9,68.5-342.5c0.6-0.5,1.5-0.4,2,0.2c0,0,0,0,0,0l53.2,62.3c0.6,0.7,0.6,1.4-0.1,2.1
		c-42.8,38.3-65.7,85.7-68.7,142.1c-5.4,101.3,69.1,188.9,167.5,205.2C3296.7,1975.6,3399.7,1894.9,3413.6,1784.8z"/>
	<path d="M1482.5,1621.4c-0.3,0-0.6,0.3-0.6,0.6c0,0.1,0,0.2,0.1,0.3c34.3,67,42.3,135.8,24.1,206.5
		c-35.4,137.5-170.1,228.3-311.2,209.3c-50.5-6.8-96-26-136.5-57.6c-142.2-111-148.6-320.8-12.1-439.2c0.6-0.5,1.4-0.5,1.9,0.1
		c0,0,0,0,0,0l53.1,62.2c0.7,0.8,0.7,1.6-0.2,2.4c-98.9,87.8-89.1,236.7,16,312.8c114.8,83.1,278.5,19,308.9-119.1
		c13.8-62.4-3-125.1-44.1-174.1c-12.4-14.7-15.1-37.4-7.5-55.1c6.4-14.8,17-25,31.9-30.5c6.6-2.5,15.6-3.6,26.9-3.6
		c44.1,0.3,85.8,0.3,125.4,0.1c0.4,0,0.7,0.3,0.7,0.7l0,0v82.8c0,0.9-0.4,1.3-1.3,1.3H1482.5z"/>
	<path class="st2" d="M2035.4,1763.8c2.3,174,210.8,263.5,337.2,141.8c39.2-37.8,59.7-85.1,61.4-142.1c0-0.9,0.5-1.4,1.4-1.4h82.6
		c0.4,0,0.6,0.2,0.6,0.6c-0.6,100.5-52.8,192-138.3,243.2c-141.1,84.5-322.1,31.7-398-113.4c-20.5-39.3-31.1-82.2-31.8-128.7
		c0-1.1,0.5-1.7,1.7-1.7h81.5C2034.9,1762.2,2035.4,1762.7,2035.4,1763.8z"/>
</g>
</svg>
