<?xml version="1.0" encoding="utf-8"?>
<!-- Generator: Adobe Illustrator 27.7.0, SVG Export Plug-In . SVG Version: 6.00 Build 0)  -->
<svg version="1.1" id="Layer_1" xmlns="http://www.w3.org/2000/svg" xmlns:xlink="http://www.w3.org/1999/xlink" x="0px" y="0px"
	 viewBox="0 0 3500 3500" style="enable-background:new 0 0 3500 3500;" xml:space="preserve">
<style type="text/css">
	.st0{fill:url(#SVGID_1_);}
	.st1{fill:url(#SVGID_00000089552579509414450470000002804497648803824794_);}
	.st2{fill:#FFFFFF;stroke:#000000;stroke-width:11.3;}
</style>
<path d="M3500,1595.4c0,0-336.1-868.9-1770.5-868.9S430.3,1570.8,430.3,1570.8H0c0,0,500-1102.7,1618.9-1102.7
	S3500,1595.4,3500,1595.4z"/>
<path d="M0,1861c0,0,336.1,868.9,1770.5,868.9s1299.2-844.3,1299.2-844.3H3500c0,0-500,1102.7-1618.9,1102.7S0,1861,0,1861z"/>
<linearGradient id="SVGID_1_" gradientUnits="userSpaceOnUse" x1="0" y1="-1075.3" x2="3500" y2="-1075.3" gradientTransform="matrix(1 0 0 -1 0 0)">
	<stop  offset="0" style="stop-color:#1BA408"/>
	<stop  offset="1" style="stop-color:#FFFFFF"/>
</linearGradient>
<path class="st0" d="M3500,1639c0,0-336.1-868.9-1770.5-868.9S430.3,1614.4,430.3,1614.4H0c0,0,500-1102.8,1618.9-1102.8
	S3500,1638.9,3500,1639L3500,1639z"/>
<linearGradient id="SVGID_00000052785141123801883590000009357881049118696593_" gradientUnits="userSpaceOnUse" x1="5643.5" y1="-1747.0498" x2="9143.5" y2="-1747.0498" gradientTransform="matrix(-1 0 0 1 9143.5 4215.2998)">
	<stop  offset="0" style="stop-color:#FF2203"/>
	<stop  offset="1" style="stop-color:#FFFFFF"/>
</linearGradient>
<path style="fill:url(#SVGID_00000052785141123801883590000009357881049118696593_);" d="M0,1904.6c0,0,336.1,868.9,1770.5,868.9
	s1299.2-844.3,1299.2-844.3H3500c0,0-500,1102.7-1618.9,1102.7S0,1904.6,0,1904.6z"/>
<g>
	<path class="st2" d="M786.1,1876.8v-609.5h197.5c74.8,0,123.6,3.1,146.4,9.1c34.9,9.2,64.2,29,87.7,59.7
		c23.6,30.6,35.3,70.2,35.3,118.7s-6.8,68.9-20.4,94.4s-30.8,45.5-51.8,60.1c-20.9,14.5-42.2,24.2-63.8,28.9
		c-29.4,5.8-71.9,8.7-127.6,8.7h-80.2v229.9L786.1,1876.8L786.1,1876.8z M909.2,1370.4v173h67.4c48.5,0,80.9-3.2,97.3-9.6
		s29.2-16.4,38.5-29.9c9.3-13.6,13.9-29.4,13.9-47.4s-6.5-40.5-19.5-54.9s-29.5-23.4-49.5-27c-14.7-2.8-44.2-4.2-88.6-4.2H909.2
		L909.2,1370.4z"/>
	<path class="st2" d="M1810.5,1876.8h-133.9l-53.2-138.4h-243.6l-50.3,138.4h-130.6l237.4-609.5h130.1L1810.5,1876.8z
		 M1583.9,1635.6l-84-226.2l-82.3,226.2H1583.9z"/>
	<path class="st2" d="M1859.5,1876.8v-609.5h259c65.1,0,112.5,5.5,142,16.4c29.5,11,53.1,30.4,70.9,58.4c17.7,28,26.6,60,26.6,96
		s-13.4,83.5-40.3,113.3c-26.9,29.8-67.1,48.6-120.6,56.3c26.6,15.5,48.6,32.6,65.9,51.1c17.3,18.6,40.7,51.6,70.1,99l74.4,118.9
		h-147.2l-89-132.6c-31.6-47.4-53.2-77.3-64.9-89.6c-11.6-12.3-24-20.8-37-25.4s-33.7-6.9-62-6.9h-24.9v254.5h-123.1L1859.5,1876.8z
		 M1982.6,1525h91.1c59,0,95.9-2.5,110.6-7.5c14.7-5,26.2-13.6,34.5-25.8c8.3-12.2,12.5-27.4,12.5-45.7s-5.5-37.1-16.4-49.7
		c-11-12.6-26.4-20.6-46.4-23.9c-10-1.4-39.9-2.1-89.8-2.1h-96V1525H1982.6z"/>
	<path class="st2" d="M2412.8,1678.5l119.7-11.6c7.2,40.2,21.8,69.7,43.9,88.6c22,18.8,51.8,28.3,89.2,28.3s69.5-8.4,89.6-25.2
		c20.1-16.8,30.1-36.4,30.1-58.8s-4.2-26.7-12.7-36.8c-8.5-10.1-23.2-18.9-44.3-26.4c-14.4-5-47.3-13.9-98.5-26.6
		c-66-16.4-112.3-36.4-138.9-60.3c-37.4-33.5-56.1-74.4-56.1-122.7s8.8-60.1,26.4-87.1c17.6-27,43-47.6,76.1-61.7
		s73.1-21.2,119.9-21.2c76.5,0,134.1,16.8,172.8,50.3s59,78.3,60.9,134.3l-123.1,5.4c-5.3-31.3-16.6-53.8-33.9-67.6
		c-17.3-13.7-43.3-20.6-78-20.6s-63.8,7.3-84,22c-13,9.4-19.5,22-19.5,37.8s6.1,26.8,18.3,37c15.5,13,53.2,26.6,113.1,40.7
		c59.9,14.1,104.1,28.8,132.8,43.9s51.1,35.8,67.4,62c16.2,26.2,24.3,58.6,24.3,97.1s-9.7,67.6-29.1,98.1
		c-19.4,30.5-46.8,53.1-82.3,68c-35.5,14.8-79.7,22.2-132.6,22.2c-77.1,0-136.2-17.8-177.5-53.4S2420.8,1746.7,2412.8,1678.5
		L2412.8,1678.5z"/>
	<path class="st2" d="M1401.5,2552.3v-506.4h-180.9v-103.1H1705v103.1h-180.4v506.4H1401.5z"/>
	<path class="st2" d="M1969.8,2552.3l-217.9-609.5h133.5l154.2,451.1l149.3-451.1h130.6l-218.3,609.5L1969.8,2552.3L1969.8,2552.3z"
		/>
</g>
</svg>
