<?xml version="1.0" encoding="utf-8"?>
<!-- Generator: Adobe Illustrator 27.7.0, SVG Export Plug-In . SVG Version: 6.00 Build 0)  -->
<svg version="1.1" id="Layer_1" xmlns="http://www.w3.org/2000/svg" xmlns:xlink="http://www.w3.org/1999/xlink" x="0px" y="0px"
	 viewBox="0 0 3500 3500" style="enable-background:new 0 0 3500 3500;" xml:space="preserve">
<style type="text/css">
	.st0{fill:none;stroke:#3EFF3C;stroke-width:2;}
	.st1{fill:none;stroke:#96FF91;stroke-width:2;}
	.st2{fill:none;stroke:#C8FFC1;stroke-width:2;}
	.st3{fill:none;stroke:#EDFFE6;stroke-width:2;}
	.st4{fill:none;stroke:#FFDADB;stroke-width:2;}
	.st5{fill:none;stroke:#FFA1A2;stroke-width:2;}
	.st6{fill:none;stroke:#FF6666;stroke-width:2;}
	.st7{fill:none;stroke:#FF2424;stroke-width:2;}
	.st8{fill:#FAAF40;}
	.st9{fill:#00FF00;}
	.st10{fill:#7CFF78;}
	.st11{fill:#B0FFAA;}
	.st12{fill:#E0FFD8;}
	.st13{fill:#FAFFF3;}
	.st14{fill:#FF0000;}
	.st15{fill:#FFF5F6;}
	.st16{fill:#FFBFC0;}
	.st17{fill:#FF8383;}
	.st18{fill:#FF4848;}
</style>
<g>
	<g>
		<path vector-effect="non-scaling-stroke" class="st0" d="M3486,938.1c-82.8-8.4-167.7-9.6-254.9-3.6"/>
		<path vector-effect="non-scaling-stroke" class="st1" d="M3485.8,1109.4l-252.6-1.7"/>
		<path vector-effect="non-scaling-stroke" class="st2" d="M3485,1321.3l-250.8-8.4"/>
		<path vector-effect="non-scaling-stroke" class="st3" d="M3484.6,1425.1l-250.4-7.8"/>
		<path vector-effect="non-scaling-stroke" class="st0" d="M264.4,983.4L9.3,985.7"/>
		<path vector-effect="non-scaling-stroke" class="st1" d="M264,1062.4l-254.8,0.4"/>
		<path vector-effect="non-scaling-stroke" class="st2" d="M263.2,1322.7l-254.9,0.1"/>
		<path vector-effect="non-scaling-stroke" class="st3" d="M263,1393.7c-36.2,7-73,9.9-110.4,8.7c-36.1-1.4-60.1-1.8-72.1-1.5
			c-24.2,0.6-48.4,1.2-72.4,1.6"/>
		<path vector-effect="non-scaling-stroke" class="st4" d="M3498.9,2095.7l-270.1,0.6"/>
		<path vector-effect="non-scaling-stroke" class="st4" d="M266.3,2127.8l-264.7-5"/>
		<path vector-effect="non-scaling-stroke" class="st5" d="M3498.2,2315.9l-270.5,5.5"/>
		<path vector-effect="non-scaling-stroke" class="st5" d="M266.1,2278.5l-265-0.8"/>
		<path vector-effect="non-scaling-stroke" class="st6" d="M265.5,2477.4l-265-0.5"/>
		<path vector-effect="non-scaling-stroke" class="st6" d="M3497.5,2540.8l-270.6,4.3"/>
		<path vector-effect="non-scaling-stroke" class="st7" d="M304.5,2734.3l-279.9-3.7"/>
		<path vector-effect="non-scaling-stroke" class="st7" d="M3485.3,2741.4l-286.6-5.7"/>
	</g>
	<path class="st8" d="M2295.1,530.4c219.5-64.3,427-162.2,614.2-294.8c7.1-5.1,10.4-3.3,9.9,5.3c-7.4,157-65.3,287.9-173.8,392.7
		c-206.1,199.2-510.9,295.6-801.1,354.5c-258,52.6-512.7,80.2-764.2,82.8c-3.1,0.1-5.7-2.4-5.7-5.6c0-0.1,0-0.1,0-0.2l1-384.8
		c0-6.6,3.3-9.9,10-9.8C1583.2,677.5,1953.1,630.8,2295.1,530.4z"/>
	<path class="st9" d="M6.6,524.1l0.7-216.5c4.4-11.1,17.4-16.6,38.9-16.5c835.5,2.5,1671.2,5.1,2507.1,7.8c4,0,7.2,3.2,7.1,7.2
		c0,1.2-0.3,2.3-0.8,3.3c-2,3.7-4.8,6.4-8.6,7.9c-94.5,40.6-178.1,73.8-250.9,99.6c-262.2,93-533.3,138.7-813.2,137.4
		c-479.2-2.4-958.5-4.7-1437.7-6.8C26.4,547.5,12.1,539.7,6.6,524.1z"/>
	<path class="st9" d="M3486,938.1c-82.8-8.4-167.7-9.6-254.9-3.6c-2.4-75.8-13.5-137.8-33.3-186C3152,636.5,3046.7,595,2937.5,569.1
		c-6.5-1.6-8.5-5.5-6-11.8l87.7-217.6c2.7-6.7,7.6-9.4,14.8-7.9c144.5,30.9,259.8,103,346.1,216.2c60.6,79.6,95.7,155.9,105.3,229
		C3488.2,798.6,3488.4,852.3,3486,938.1z"/>
	<path class="st9" d="M264.4,983.4L9.3,985.7l1.3-174.2c0-6.2,3.1-9.3,9.4-9.3l235.2,0.7c6.1,0,9.2,3.1,9.1,9.2L264.4,983.4z"/>
	<path class="st10" d="M3486,938.1l-0.2,171.3l-252.6-1.7l-2.1-173.2C3318.3,928.5,3403.2,929.7,3486,938.1z"/>
	<path class="st10" d="M264.4,983.4l-0.4,79l-254.8,0.4l0.1-77.1L264.4,983.4z"/>
	<path class="st11" d="M264,1062.4l-0.8,260.3l-254.9,0.1l1-260L264,1062.4z"/>
	<path class="st8" d="M2374.6,2215.4c181.6-107.5,235.3-262.6,161.2-465.3c-33.2-90.7-99.5-177.4-199.1-260.2
		c-206.8-171.8-458.7-287.3-716.4-385.8c-4.3-1.6-7.9-4.6-10.2-8.4c-0.9-1.3-1.4-2.9-1.5-4.7c-0.3-2.6,1.6-4.9,4.3-5.1
		c0.4,0,0.8,0,1.2,0c392.1,55.9,784.8,177.5,1101.8,403c150.4,107.1,309,302.7,287.7,500c-21.9,204.5-152.3,306.7-340.7,352.7
		c-165.2,40.5-347.3,44.7-546.2,12.4c-8.2-1.4-8.5-3.7-0.9-7C2215.3,2302.4,2301.6,2258.5,2374.6,2215.4z"/>
	<path class="st11" d="M3233.2,1107.7l252.6,1.7l-0.8,211.8l-250.8-8.4L3233.2,1107.7z"/>
	<path class="st8" d="M1786.8,2286c-111.7,92.8-258.1,138.1-403.2,148.4c-113.9,8-228.4,11.6-343.5,10.7c-20-0.2-21.6-5.7-4.9-16.6
		c72-46.8,141.5-96.2,208.6-148.1c195.2-151.4,272.9-399.2,140.1-619.3c-85.8-142.2-223-254.5-367.5-336.3
		c-114.4-64.7-241.7-133.5-382-206.4c-8.4-4.4-8.1-8.1,1-11.2c3.4-1.1,6.9-1.4,10.4-0.9c372.1,63.8,731.8,182,1015.2,418
		c82.2,68.5,147.6,147.9,196.3,238.1C1947.1,1929,1941.4,2157.6,1786.8,2286z"/>
	<path class="st12" d="M3234.1,1312.9l250.8,8.4l-0.3,103.8l-250.4-7.8L3234.1,1312.9z"/>
	<path class="st12" d="M263.2,1322.7l-0.2,71c-36.2,7-73,9.9-110.4,8.7c-36.1-1.4-60.1-1.8-72.1-1.5c-24.2,0.6-48.4,1.2-72.4,1.6
		l0.2-79.7L263.2,1322.7z"/>
	<path class="st13" d="M263,1393.7l-1.2,225.5c-0.1,6.1-3.2,9.2-9.4,9.1l-234.9-0.7c-6.3,0-9.5-3.2-9.5-9.5L8,1402.6
		c24-0.4,48.2-1,72.4-1.6c12-0.4,36.1,0.1,72.1,1.5C190,1403.7,226.8,1400.8,263,1393.7z"/>
	<path class="st13" d="M3484.6,1425.1l-1,207.2c0,4.9-2.4,7.3-7.2,7.3l-233.3-0.7c-6.2,0-9.3-3.1-9.3-9.4l0.4-212.2L3484.6,1425.1z"
		/>
	<path class="st14" d="M2184.2,2007.3c0.8-104.1-12.7-223.1,4.9-328.4c0.9-5.6-2-11.1-7.3-13.5l-19.4-9.2
		c-14.3-6.7-13.5-10.3,2.4-10.9c30.6-0.9,60.7-0.8,90.3,0.3c27.7,1,28.2,5.4,1.7,13.2l-21.8,6.3c-6.8,2.1-7.9,5.8-3.3,11.2
		c14,16.8,20.5,36.6,19.4,59.4c-4.3,92.8-5.6,182.2-3.9,268.3c0,3,2.5,5.4,5.5,5.4c0.8,0,1.5-0.2,2.2-0.5
		c104.6-46,74.3-207.9,55.8-293.3c-2.2-10.4,0.5-12,8.3-4.8c111.6,102.2,56.9,257.9-36.5,348.5c-2.9,2.8-3,7.4-0.2,10.3
		c0.9,0.9,2,1.6,3.3,2l48,13.2c13.5,3.7,13.3,6.6-0.5,8.7c-48,7-108.3,23.9-154.7,12.9c-26.1-6.3-52.9-9.5-80.5-9.6
		c-5.2,0-7.7-2.6-7.6-7.6l0.2-4.5c0-0.6,0.3-1,0.8-1.1c19-3.2,36.8-7.4,53.5-12.9c7.3-2.5,8.2-6.3,2.7-11.6
		c-99.9-97.8-144.2-246.5-35-352c10.5-10,13.6-8.1,9.3,5.8c-34.7,111.8-44.8,219.8,51.6,299.5
		C2180.5,2018.3,2184.2,2016.6,2184.2,2007.3z"/>
	<path class="st14" d="M2084.6,1697.2c-89.6,107.1-98.1,196.3-34.7,323c5.5,10.9,3.2,12.9-6.9,6c-125.6-87-107.8-280,36.5-336.2
		C2090.5,1685.7,2092.2,1688.1,2084.6,1697.2z"/>
	<path class="st14" d="M2386.7,2010.4c55.5-106,43.9-215.6-32.5-303.3c-16.1-18.5-13.1-22.4,9.1-11.8
		c123.2,59.8,146.3,238.4,32.7,323.1C2381.4,2029.2,2378.3,2026.6,2386.7,2010.4z"/>
	<path class="st15" d="M3499.7,1823l-0.9,272.6l-270.1,0.6l1.8-325.6c0-5.2,2.6-7.8,7.8-7.9c103.7-1.3,174.2-0.8,211.4,1.7
		C3474.9,1766.1,3491.5,1785.6,3499.7,1823z"/>
	<path class="st15" d="M2.7,1786.2l256.3-1.7c5,0,9,4.1,9,9l0,0l-1.7,334.3l-264.7-5L2.7,1786.2z"/>
	<path class="st16" d="M3498.9,2095.7l-0.7,220.2l-270.5,5.5l1-225.2L3498.9,2095.7z"/>
	<path class="st16" d="M266.3,2127.8l-0.2,150.6l-265-0.8l0.5-154.8L266.3,2127.8z"/>
	<path class="st17" d="M1.1,2277.6l265,0.8l-0.6,198.9l-265-0.5L1.1,2277.6z"/>
	<path class="st17" d="M3498.2,2315.9l-0.7,224.9l-270.6,4.3l0.9-223.7L3498.2,2315.9z"/>
	<path class="st8" d="M1073.4,2995.8c-123.9,56.5-219.4,141.8-278.1,265.4c-4.1,8.4-6.6,8-7.5-1.3
		c-43.3-410.5,359.2-650.8,699.1-738.9c272.2-70.6,561.6-100.4,868.2-89.3c7.5,0.2,11.2,4.1,11.2,11.5l-1,362.3
		c0,6.4-3.2,9.5-9.7,9.1c-132.1-5.9-303.6-4.2-514.5,5.2C1559.1,2832.4,1303.2,2891,1073.4,2995.8z"/>
	<path class="st18" d="M265.5,2477.4c0.1,30.8,0.6,64.2,1.4,100.4c1.2,53,13.7,105.1,37.6,156.5l-279.9-3.7L0.3,2555.4l0.2-78.5
		L265.5,2477.4z"/>
	<path class="st18" d="M3497.5,2540.8l-0.3,95.3l-11.8,105.3l-286.6-5.7c21.8-57.4,31.2-121,28.1-190.6L3497.5,2540.8z"/>
	<path class="st14" d="M3198.8,2735.7l286.6,5.7c-68.5,326.3-368.5,439.3-671.4,438.7c-615.5-1.4-1225.2-3.2-1829.2-5.4
		c-3.7,0.1-6.7-2.9-6.7-6.7c0-1.8,0.7-3.5,1.9-4.8c168.7-173.9,391.4-243.1,635.7-245c372.9-2.9,795.1-3.1,1266.6-0.6
		C3030.5,2918.4,3136,2857.8,3198.8,2735.7z"/>
	<path class="st14" d="M24.6,2730.6l279.9,3.7c66.9,116.6,171.2,175.3,312.8,176.3c47.1,0.4,94.8,1.7,142.8,4c5,0.2,6.6,2.7,4.8,7.3
		l-92,244c-2.2,5.7-6.3,9-12.3,9.9c-192.2,28-386.3-21.3-513.5-174.7C84.6,2925.7,43.7,2835.6,24.6,2730.6z"/>
</g>
</svg>
