<?xml version="1.0" encoding="utf-8"?>
<!-- Generator: Adobe Illustrator 27.7.0, SVG Export Plug-In . SVG Version: 6.00 Build 0)  -->
<svg version="1.1" id="Layer_1" xmlns="http://www.w3.org/2000/svg" xmlns:xlink="http://www.w3.org/1999/xlink" x="0px" y="0px"
	 viewBox="0 0 3500 3500" style="enable-background:new 0 0 3500 3500;" xml:space="preserve">
<style type="text/css">
	.st0{fill-rule:evenodd;clip-rule:evenodd;fill:#0099FF;}
</style>
<g id="Layer_x0020_1">
	<path class="st0" d="M1756.3,2080.6c-227.7,0-412.4,183.7-412.4,410.1c0,45.9,7.6,90,21.5,131.1c57.4,163.3,208,277.4,381.1,278.9
		c476.7,4,823-223.4,1146.3-546.8l607.2-607.1l-925-925L2273.8,1123L1750,599.3L1226.2,1123L925,821.8l-925,925
		c258.4,258.4,505.9,514.6,769.4,765.8c43-58,100.1-120.6,152.6-170.2c218.7-202.4,510-326.3,834.3-326.3
		c317.7,0,624.4,125.3,843.3,333.3c-100.7,124-331,243.4-452.7,273.3c14.2-41.4,21.8-85.8,21.8-132
		C2168.7,2264.2,1984,2080.6,1756.3,2080.6L1756.3,2080.6z M2747,2191.1c-268.6-251.9-629.4-392.1-997-391.8
		c-364.4,0.4-726.9,144.3-989.8,397.1l-160.4-158.5L1750,887.7l1150.3,1150.3L2747,2191.1z M954.8,1110.2l-641.4,641.4l142.1,142.1
		l641.4-641.4L954.8,1110.2L954.8,1110.2z M2545.2,1110.2l641.4,641.4l-142.1,142.1l-641.4-641.4L2545.2,1110.2L2545.2,1110.2z"/>
</g>
</svg>
