<?xml version="1.0" encoding="utf-8"?>
<!-- Generator: Adobe Illustrator 27.7.0, SVG Export Plug-In . SVG Version: 6.00 Build 0)  -->
<svg version="1.1" id="Layer_1" xmlns="http://www.w3.org/2000/svg" xmlns:xlink="http://www.w3.org/1999/xlink" x="0px" y="0px"
	 viewBox="0 0 3500 3500" style="enable-background:new 0 0 3500 3500;" xml:space="preserve">
<style type="text/css">
	.st0{fill:#FF7300;}
	.st1{fill:#24C70E;}
	.st2{fill:#7401B8;}
</style>
<path class="st0" d="M3247.1,1904.9c1-9.4,3.6-41.4,7.5-95.9c0.3-4-0.7-9.7-0.3-14.2c1.4-17.4,2-34.6,1.7-51.5c0-0.5,0.4-1,0.9-1
	c0,0,0,0,0,0H3454c1.2,0,1.7,0.6,1.8,1.7c0.4,24.2-0.1,48.3-1.3,72.4c-2,38.7-4.9,77-8.8,115c-2.2,21.7-5,43.3-8.3,65
	c-49.2,316.2-176.4,597.1-381.5,842.7c-31.1,37.3-67.4,76.4-108.8,117.4c-135.3,134-289,242.2-461.1,324.9
	c-195.3,93.8-400.8,148.4-616.5,163.6c-26.1,1.8-61.7,2.1-89.6,3.8c-16.9,1.1-53.4,0.3-109.8-2.2c-33.7-1.5-55.5-2.7-65.4-3.6
	c-189.9-16.5-370-62.4-540.2-137.7c-208.2-92.1-390.9-220.4-548.3-385.1c-82.7-86.5-155-179.8-217-279.9
	c-33-53.4-64.4-111.1-94.1-173.1c-9.4-19.6-18.4-39.7-27.1-60.1c-72.4-170.7-115.8-348.8-130.2-534.4c-1.4-17.5-2.4-39.3-3.1-65.5
	c-0.3-12.4-0.9-34.8-1.6-67.2c-0.5-20.8,0.8-58.5,3.7-113c1.1-20.5,3-42.2,5.5-65.3c36.2-323.7,153.5-613,351.9-867.9
	c70-89.9,148.8-172.3,236.5-247.2c209.1-178.5,447.1-300,714-364.5c18.9-4.6,40.3-9.2,64.1-14c52.6-10.5,102.3-17.9,149.1-22.4
	c10.6-1,27-2.6,49.2-4.7c42.3-4.1,88.1-4.2,129.3-5.7c2-0.1,3.7,1.4,3.9,3.4c0.5,4.9,0.8,9.2,0.8,12.9c0.2,49.6,0.2,109.3-0.1,179.1
	c0,2.3-1.1,3.8-3.3,4.5c-3,0.9-6.7,1.4-10.9,1.4c-47,0.8-91.5,2.2-135.7,6.6c-204.2,20.6-404.2,81.8-583.2,182.3
	c-173.1,97.2-321.6,223-445.3,377.3c-76.8,95.7-141.7,201.4-194.6,317c-105,229.4-148.1,481.2-130.6,733.2
	c1.5,21.8,3.6,43.5,6.1,65.3c23,193,80.6,374,172.7,543.1c55.4,101.6,121.3,195.2,197.8,280.8c162.5,181.8,357.4,317.2,584.9,406.1
	c20.3,7.9,40.9,15.3,61.7,22.2c111.2,36.6,223.9,60.2,338.1,70.8c33,3.1,70.8,4.8,113.2,5.2c31.6,0.3,68.3-0.1,110.1-1.2
	c22.6-0.6,44.4-2,65.4-4.4c57-6.3,110.8-14.5,161.2-24.9c98.2-20.1,193.7-50.2,286.4-90.4c147.9-64.1,281.4-148.9,400.3-254.4
	c170.3-151.1,300.2-330.7,389.8-538.8C3192.6,2198.9,3230,2056.2,3247.1,1904.9z"/>
<path class="st1" d="M2489.5,2066c-41.7,14.2-85.6,20.9-131.7,20.4c-79.5-1-156.8-31.3-212.7-89.1c-24.3-25.2-45.2-51.9-62.6-80.1
	c-29.1-47.1-46.8-99.6-53-157.4c-1.7-15.6-2.9-31.4-3.8-47.6c-1.1-19.3-1.9-31.7-2.6-37c-1.9-16.2-1.5-32.1-4-49.3
	c-4.5-30.5-14.5-64.4-30-101.6c-13-31.1-24.8-57-35.4-77.8c-44-85.7-102.4-156.2-175.4-211.5c-41.3-31.3-88.2-58.4-140.8-81.4
	c-57-24.8-115.5-39.5-175.5-44.2c-32.9-2.5-70.3-3.1-112.2-1.8c-20.6,0.7-42.3,2.6-65.3,5.8c-91,12.8-177.3,39.7-258.9,80.7
	c-48.5,24.4-93.3,53.7-134.3,87.8c-11.6,9.6-20.3,16.7-26.2,21.3c-0.8,0.6-1.9,0.4-2.5-0.3c-0.2-0.3-0.3-0.6-0.4-0.9
	c-0.2-1.6-0.2-5.3,0.6-7.3c7.8-18.3,18.4-37.9,31.7-58.7c26.8-42.1,57.3-82.4,91.3-121c47.4-53.7,96.8-101.6,148.1-143.7
	c72.1-59,148.6-107,229.6-144c65.5-30,133.6-51.8,204.4-65.4c29.5-5.7,56.6-9.2,81.4-10.7c31.1-1.7,61.3-2.5,90.5-2.4
	c66.8,0.4,130.8,6.9,192,19.6c90.9,18.8,175,47.4,252.3,85.8c120.4,59.8,223.3,137,308.8,231.6c8.8,9.8,17.3,20.1,25.4,30.8
	c0.7,1,1.7,1.3,2.9,1c15.5-4.3,31.2-7.3,47.1-9c84.1-9.3,160.8-11.3,237.9,10.8c7.4,2.1,14.2,4.4,20.3,7c5,2.1,4.9,3.9-0.3,5.5
	c-38,11.5-74.4,25.6-104.5,49.3c-9.8,7.6-17.6,14.9-23.5,21.7c-24.4,28.1-37.3,60.3-38.8,96.5c-0.7,16.1,1.8,37.8,7.2,65.2
	c11.1,55.4,25.9,103,42.7,164c6.3,22.8,12.4,53.9,18.5,93.3c3.1,20.2,5,42,5.7,65.3c1.6,55.5,1.6,93.3-0.2,113.6
	c-11.4,133.7-47.2,261.4-107.5,383.3c-24.9,50.3-54.1,98.1-87.7,143.4c-24.1,32.5-51.8,63.5-83.2,93
	c-92.4,86.9-197.3,161.2-311.9,215c-91.1,42.8-185.7,69.5-283.6,80.2c-18.1,2-40.9,2.6-61,4.4c-6.7,0.6-14.9,0.9-24.5,1
	c-5.3,0-22.4,0.1-51.4,0.4c-19.6,0.1-36.7-0.4-51.3-1.6c-45.1-3.7-78.7-7.8-100.7-12.3c-85.6-17.4-168.1-44.8-247.6-82
	c-31.2-14.6-61.5-30.2-91-46.7c-13.5-7.5-26-15.5-37.7-23.8c-1.5-1.1-2-2.5-1.4-4.3c15.3-47,29.6-91.4,42.9-133.2
	c0.8-2.5,3.3-8.9,7.5-19.4c0.4-1,1.6-1.5,2.7-1.1c0.1,0,0.2,0.1,0.3,0.2c22,13.4,40.7,24.4,56.1,33c41.8,23.4,87.5,44.5,137.1,63.1
	c85,32,170,51.1,255.1,57.2c36.1,2.6,77,2.4,122.7-0.7c20.6-1.4,42.3-4.1,65-8.1c130.6-22.9,248.8-73.3,354.6-151.2
	c94.1-69.2,172.3-155.5,225.4-259c10.8-21,20-42.8,27.7-65.2c0.1-0.2,0-0.5-0.3-0.5C2489.7,2065.9,2489.6,2065.9,2489.5,2066z
	 M2124.4,1393.8c2.4-2.4,3.8-4,4.3-4.8c35.7-57.3,77.8-104.4,126.1-141.1c28.8-21.9,59.5-42.2,92.2-61c0.3-0.2,0.4-0.6,0.3-0.9
	c0-0.1-0.1-0.1-0.1-0.2c-4.9-4.5-9.6-9.6-14.1-15.4c-6.9-9-18.5-20.6-34.9-34.8c-89.8-78.3-191.1-136.5-303.9-174.8
	c-65.2-22.1-131.2-35.2-198-39.3c-14.7-0.9-30.9-1.3-48.7-1.1c-23.8,0.2-40,0.5-48.7,1c-22.3,1.2-44.2,3.6-65.7,7.2
	c-27.4,4.6-54.5,10.3-81.3,16.9c-0.6,0.2-1,0.8-0.9,1.5c0,0,0,0.1,0,0.1c0.1,0.3,0.2,0.5,0.4,0.8c0.3,0.5,0.8,0.8,1.4,1
	c9.7,2.8,33.3,10.1,70.6,21.8c56.9,17.8,110.1,39.7,159.7,65.8c59.8,31.4,114,70.8,162.5,118c48.1,46.7,90.8,99.9,128.2,159.5
	c18.3,29.2,34,56.2,47,81.1c0.5,0.8,1.5,1.2,2.4,0.7c0.1,0,0.1-0.1,0.2-0.1c0.2-0.1,0.4-0.4,0.6-1
	C2124,1394.3,2124.2,1394.1,2124.4,1393.8z M2259.4,1503.2c-32.2,47.6-52,99.7-59.5,156.3c-7.9,59.8-2.4,117.2,27.3,168
	c30.8,52.9,83.3,86.8,144.4,89.3c40.7,1.7,87.5-9.5,117.9-35.9c37.2-32.3,55.6-69.1,65-118.2c3.5-18.4,5-40.2,4.4-65.3
	c-1.3-53.2-9.5-105.5-24.6-157.1c-20-68.3-46.8-136.4-80.4-204.3c-0.1-0.2-0.6-1.5-1.5-4.1c-0.9-2.4-2.4-3.8-4.6-4
	c-1.6-0.2-3.7,0.5-6.3,2.2c-28,17.5-56.8,39.1-86.4,64.8C2316.9,1428.3,2286.5,1463,2259.4,1503.2z"/>
<path class="st2" d="M625.5,998.9c30.5-44.3,52.3-74.2,65.5-89.5c34.6-40.2,63.7-73.6,97.5-106.8c1.4-1.3,2.7-1.3,4.1,0l135.9,135.9
	c1.5,1.5,1.5,3,0,4.6c-23.1,23-45.2,47.6-66.2,73.7c-18.1,22.4-35.4,44.7-51.9,67c-13.4,18.1-25.8,36.1-37.1,54
	c-76.9,121.4-129.1,252.7-156.5,393.9c-4.7,24.1-9,51.6-13,82.5c-2.9,22.3-4.8,44-5.7,65.3c-2.7,63.4-2.1,122.6,1.7,177.6
	c0.9,12.2,2.6,26.4,5.1,42.5c3.3,21,8,59.7,14.6,87.5c2.5,10.7,4.7,20.6,6.6,29.9c2,9.6,4.3,19.6,7,29.8
	c47.2,176.2,131.5,332.7,253,469.4c33.7,37.9,67.7,71.6,102.1,101.1c143.7,123.2,304.7,206.1,482.9,248.6
	c157.7,37.7,319.5,41.4,485.4,11.1c23.1-4.2,44.5-8.8,64.1-13.8c171.3-43.5,324.5-122,459.5-235.5c21.8-18.4,47.4-42.9,70.2-63.6
	c1.2-1.1,2.9-1,4,0.1l137.8,137.8c1,1,1,2,0,3c-16.3,15.2-31.8,29.5-46.7,43c-17.9,16.3-33.7,30.1-47.2,41.3
	c-187,154.2-401.2,251.2-642.6,290.9c-24.9,4.1-65.7,8.7-122.2,13.7c-19.6,1.7-54.8,2.5-105.7,2.3c-27.8-0.2-49.7-0.7-65.5-1.6
	c-213-12.5-411.7-71.8-596.1-178.1c-72.4-41.7-139.5-89.3-201.3-142.8c-133.1-115.2-238.5-247.8-316.1-398.1
	c-77.7-150.3-125.5-306.9-143.5-469.7c-3.5-31.3-6-63.6-7.6-97.2c-1.2-25.4-1.8-44.4-1.7-57.2c0.4-42.4,3.2-91.3,8.5-146.6
	c1.9-19.9,5.9-47.7,12-83.4c18.1-105.3,48-206.3,89.9-303.1c17.5-40.6,35.5-78.1,54-112.5C579.2,1070.2,601.1,1034.5,625.5,998.9z"
	/>
</svg>
