<?xml version="1.0" encoding="utf-8"?>
<!-- Generator: Adobe Illustrator 27.7.0, SVG Export Plug-In . SVG Version: 6.00 Build 0)  -->
<svg version="1.1" id="Layer_1" xmlns="http://www.w3.org/2000/svg" xmlns:xlink="http://www.w3.org/1999/xlink" x="0px" y="0px"
	 viewBox="0 0 3500 3500" style="enable-background:new 0 0 3500 3500;" xml:space="preserve">
<style type="text/css">
	.st0{fill:#FFFFFF;}
	.st1{fill:#BA00DB;}
	.st2{fill:#E8E8E8;}
	.st3{fill:#9E9D9E;}
	.st4{fill:#D9D1DB;}
	.st5{fill:#A3A3A3;}
	.st6{fill:#E0E0E0;}
	.st7{fill:#A8ACB2;}
	.st8{fill:#EAEAEA;}
	.st9{fill:#BDC3C9;}
	.st10{fill:#C6C4C6;}
	.st11{fill:#E5E5E5;}
	.st12{fill:#A5A5A5;}
	.st13{fill:#BACECD;}
	.st14{fill:#D9D7DB;}
	.st15{fill:#DBD5E0;}
	.st16{fill:#9AA1A8;}
	.st17{fill:#A1A7AF;}
	.st18{fill:#AFAFAF;}
	.st19{fill:#959AA0;}
	.st20{fill:#D8D8D8;}
	.st21{fill:#ADACAD;}
	.st22{fill:#E8DFEA;}
	.st23{fill:#B2B2B2;}
	.st24{fill:#939393;}
	.st25{fill:#A7A7A8;}
	.st26{fill:#C1C1C1;}
	.st27{fill:#7F7F7F;}
	.st28{fill:#DDDDDD;}
	.st29{fill:url(#SVGID_1_);}
	.st30{fill:#F4F4F4;}
	.st31{fill:#E6E7E8;}
</style>
<g>
	<g id="Objects">
		<g>
			<g>
				<path class="st0" d="M71.6,1874.9c-22.2-12.6-39.7-29.8-52.5-51.9C6.4,1801,0,1776.8,0,1750s6.2-51.2,18.7-73.3
					c12.6-22,29.6-39.3,51.7-51.9c21.8-12.6,46.1-18.7,73.1-18.7c24.5,0,47.3,5.6,68.8,16.9c21.2,11.3,39.1,27.6,53.7,48.8
					l-43.8,31.3c-20-30.3-46.3-45.5-78.6-45.5c-25.3,0-46.1,8.6-62.2,25.9C65,1700.8,57,1723,57,1750s8.2,49.2,24.9,66.5
					c16.5,17.3,37.5,25.9,63,25.9c22,0,39.7-5.6,53.5-16.5c13.6-10.9,22-24.5,25.5-40.6h-84.6v-48h140.8c0.6,6,1,13.6,1,22.4
					c0.2,71.6-50.8,134.2-136.3,134C118.1,1893.8,93.7,1887.5,71.6,1874.9L71.6,1874.9z"/>
				<path class="st0" d="M330.5,1889.8v-279.5h198.8v48.2H386.1v64.4h124.3v48.2H386.1v70.8h146.3v48H330.5L330.5,1889.8z"/>
				<path class="st0" d="M583.9,1889.8v-279.5h58.9l90.2,186.1l90-186.1h58.9v279.5h-55.6v-171.4L750.8,1871h-36l-75.3-152.7v171.4
					H583.9L583.9,1889.8z"/>
			</g>
			<path class="st1" d="M1616.4,1889.5v-280.7h113.8c28.1,0,53.2,5.9,74.6,17.5c21.3,11.5,38.1,28.1,50.1,49.1
				c11.9,21.1,18,45.9,18,73.8s-6,53.1-17.8,74.2c-11.8,21-28.6,37.5-50,48.9c-21.5,11.5-46.7,17.3-74.8,17.3H1616.4L1616.4,1889.5z
				 M1680.2,1834h50c21.6,0,40.1-6.3,55.1-18.8c15.3-12.7,23-34.8,23-65.6s-7.8-53.3-23.2-66.2c-15.2-12.6-33.6-19.1-54.9-19.1h-50
				L1680.2,1834L1680.2,1834z"/>
			<path class="st1" d="M2096.8,1889.5c-7.7,0-14.4-1.4-19.9-4.2c-5.5-2.8-10.5-7.4-14.8-13.6l-51.6-74h-42.9v64.7
				c0,9-2.3,15.8-6.8,20.4s-11.4,6.8-20.4,6.8h-36.2v-280.7H2026c35.3,0,62.4,9,80.5,26.8c18.1,17.8,27.3,41.8,27.3,71.6
				c0,19.1-4.5,35.5-13.3,49c-8.8,13.4-21.9,23.8-38.9,30.8l-5.4,2.2l74.9,100.3H2096.8z M1967.7,1749.3h61.1
				c11.1,0,21-3.9,29.4-11.5c8.5-7.7,12.8-18,12.8-30.6s-4.2-23.7-12.5-31.4c-8.2-7.6-18.2-11.5-29.6-11.5h-61.1L1967.7,1749.3
				L1967.7,1749.3z"/>
			<path class="st1" d="M2442.1,1889.5c-7.8,0-14.5-1.6-19.8-4.9c-5.3-3.2-9.8-8.5-13.4-15.6l-9.2-18.3h-125.1l-8.8,18
				c-3.6,7.4-8,12.7-13.2,15.9c-5.2,3.2-11.9,4.9-20,4.9h-47.2l145.7-280.7h12.3l145.7,280.7H2442.1z M2298.1,1801.2h78.3
				l-39.2-83.2L2298.1,1801.2L2298.1,1801.2z"/>
			<path class="st1" d="M2774.5,1889.5c-9,0-15.9-2.3-20.4-6.8c-4.5-4.5-6.8-11.3-6.8-20.4l0.4-98.6l-79.8,94l-79.7-94v98.6
				c0,9-2.3,15.8-6.8,20.4s-11.4,6.8-20.4,6.8h-36.6v-280.7h12l131.5,154.8l131.5-154.8h12v280.7L2774.5,1889.5L2774.5,1889.5z"/>
			<path class="st1" d="M3099.8,1889.5c-7.8,0-14.5-1.6-19.8-4.9c-5.3-3.2-9.8-8.5-13.4-15.6l-9.2-18.3h-125.1l-8.8,18
				c-3.6,7.4-8,12.7-13.2,15.9c-5.2,3.2-11.9,4.9-20,4.9h-47.2l145.7-280.7h12.3l145.7,280.7H3099.8z M2955.8,1801.2h78.3
				l-39.2-83.2L2955.8,1801.2L2955.8,1801.2z"/>
			<polygon class="st1" points="3337.2,1889.5 3337.2,1784.4 3244.9,1784.4 3244.9,1713.9 3337.2,1713.9 3337.2,1608.8 
				3407.7,1608.8 3407.7,1713.9 3500,1713.9 3500,1784.4 3407.7,1784.4 3407.7,1889.5 			"/>
			<rect x="1477.6" y="1606.9" class="st1" width="13.1" height="281.3"/>
			<g>
				<g>
					<g>
						<polygon class="st2" points="1179,1679.4 1086.5,1679.4 1101.1,1647.9 						"/>
						<polygon class="st3" points="1101.1,1647.9 1071.4,1613.5 996,1653.9 1033,1679.4 						"/>
						<polygon class="st4" points="1086.5,1679.4 1101.1,1647.9 1033,1679.4 						"/>
						<polygon class="st5" points="1033,1679.4 978.8,1679.4 996,1653.9 						"/>
						<polygon class="st6" points="978.8,1679.4 935.7,1679.4 996,1653.9 						"/>
						<path class="st7" d="M935.7,1679.4c0,0,77.2-66.1,78.4-65.9c1.2,0.1-18.1,40.5-18.1,40.5L935.7,1679.4L935.7,1679.4z"/>
						<polygon class="st8" points="1014.1,1613.5 1071.4,1613.5 996,1653.9 						"/>
						<polygon class="st9" points="1071.4,1613.5 1101.1,1647.9 1179,1613.5 						"/>
						<polygon class="st10" points="1179,1679.4 1271.4,1679.4 1256.8,1647.9 						"/>
						<polygon class="st11" points="1179,1613.5 1101.1,1647.9 1179,1679.4 1256.8,1647.9 						"/>
						<polygon class="st0" points="1256.8,1647.9 1286.5,1613.5 1361.9,1653.9 1324.9,1679.4 						"/>
						<polygon class="st12" points="1271.4,1679.4 1256.8,1647.9 1324.9,1679.4 						"/>
						<polygon class="st13" points="1324.9,1679.4 1379.1,1679.4 1361.9,1653.9 						"/>
						<polygon class="st14" points="1379.1,1679.4 1422.2,1679.4 1361.9,1653.9 						"/>
						<path class="st15" d="M1422.2,1679.4c0,0-77.2-66.1-78.4-65.9c-1.2,0.1,18.1,40.5,18.1,40.5L1422.2,1679.4L1422.2,1679.4z"/>
						<polygon class="st0" points="1343.8,1613.5 1286.5,1613.5 1361.9,1653.9 						"/>
						<polygon class="st16" points="1286.5,1613.5 1256.8,1647.9 1179,1613.5 						"/>
					</g>
					<g>
						<polygon class="st17" points="1086.5,1679.4 1144.2,1821.5 1033,1679.4 						"/>
						<polygon class="st0" points="1033,1679.4 1110.6,1821.5 1179,1893.9 1144.2,1821.5 						"/>
						<polygon class="st8" points="1033,1679.4 978.8,1679.4 1110.6,1821.5 						"/>
						<polygon class="st18" points="1179,1893.9 1110.6,1821.5 935.7,1679.4 						"/>
						<polygon class="st19" points="978.8,1679.4 935.7,1679.4 1110.6,1821.5 						"/>
						<polygon class="st20" points="1179,1679.4 1144.2,1821.5 1179,1893.9 1213.7,1821.5 						"/>
						<polygon class="st11" points="1271.4,1679.4 1213.7,1821.5 1324.9,1679.4 						"/>
						<polygon class="st21" points="1324.9,1679.4 1247.3,1821.5 1179,1893.9 1213.7,1821.5 						"/>
						<polygon class="st22" points="1324.9,1679.4 1379.1,1679.4 1247.3,1821.5 						"/>
						<polygon class="st23" points="1179,1893.9 1247.3,1821.5 1422.2,1679.4 						"/>
						<polygon class="st24" points="1379.1,1679.4 1422.2,1679.4 1247.3,1821.5 						"/>
						<polygon class="st25" points="1271.4,1679.4 1213.7,1679.4 1213.7,1821.5 						"/>
						<polygon class="st2" points="1179,1679.4 1086.5,1679.4 1144.2,1821.5 						"/>
					</g>
					<g>
						<polygon class="st0" points="978.8,1679.4 1086.5,1679.4 1071.4,1613.5 						"/>
						<polygon class="st26" points="1086.5,1679.4 1179,1679.4 1271.4,1679.4 1179,1613.5 						"/>
						<polygon class="st27" points="1343.8,1613.5 1379.1,1679.4 1422.2,1679.4 						"/>
						<polygon class="st26" points="1271.4,1679.4 1379.1,1679.4 1286.5,1613.5 						"/>
					</g>
					<path class="st28" d="M1379.1,1671.9H944.5c-5.4,4.6-8.7,7.5-8.7,7.5h486.4c0,0-3.4-2.9-8.7-7.5H1379.1L1379.1,1671.9z"/>
					
						<linearGradient id="SVGID_1_" gradientUnits="userSpaceOnUse" x1="1222.933" y1="-1756.8958" x2="1263.8729" y2="-1785.4857" gradientTransform="matrix(1 0 0 -1 0 0)">
						<stop  offset="0" style="stop-color:#D6D6D6"/>
						<stop  offset="1" style="stop-color:#191919"/>
					</linearGradient>
					<polygon class="st29" points="1179,1893.9 1281.2,1679.4 1352,1679.4 					"/>
				</g>
				<polygon class="st30" points="1213.7,1679.4 1179,1679.4 1213.7,1821.5 				"/>
				<polygon class="st30" points="1179,1893.9 1179,1679.4 1144.2,1679.4 				"/>
				<polygon class="st31" points="1033,1671.9 1071.4,1613.5 1084.8,1671.9 				"/>
				<polygon class="st31" points="1343.8,1613.5 1286.5,1613.5 1374,1671.9 				"/>
			</g>
		</g>
	</g>
</g>
</svg>
