<?xml version="1.0" encoding="utf-8"?>
<!-- Generator: Adobe Illustrator 27.7.0, SVG Export Plug-In . SVG Version: 6.00 Build 0)  -->
<svg version="1.1" id="Layer_1" xmlns="http://www.w3.org/2000/svg" xmlns:xlink="http://www.w3.org/1999/xlink" x="0px" y="0px"
	 viewBox="0 0 3500 3500" style="enable-background:new 0 0 3500 3500;" xml:space="preserve">
<style type="text/css">
	.st0{fill:#FFCA00;}
</style>
<path class="st0" d="M3059.7,2295.2c56.3-60.9,98.3-127.6,130.7-200.6c31-69.9,56.1-141.8,72.4-216.5c15.4-70.4,24.4-141.8,21.5-214
	c-2.6-66.2-9.2-131.7-41.2-191.8c-24.4-45.8-59.9-79.6-107.9-99.5c-69.5-28.8-141.9-46.7-216.4-56.6c-47.3-6.3-94.5-14.3-142-18
	c-76.9-6-154-9.5-231.1-13.1c-38.8-1.8-77.7-2.5-116.5-2.3c-37.5,0.2-75,1.5-112.4,3.4c-44,2.2-88,3.9-131.7,8.6
	c-77.3,8.4-154.3,18.8-231.5,28.5c-7.2,0.9-14.4,2.2-23.9-0.1c10.7-7.3,20.8-15.7,32.1-21.8c45-24.4,94-37.5,143.3-50.1
	c75.6-19.3,153-28.1,230.1-37.7c47.3-5.9,95-7.7,142.7-10.3c55.7-3,111.4-6.6,167.1-6.7c65.3-0.2,130.6,2.8,195.8,5
	c38.2,1.3,76.5,2.5,114.5,6.1c56.3,5.3,112.5,11.5,168.5,19.7c43.5,6.4,87.1,14.3,129.6,25.3c51.7,13.4,103.7,27.3,147.5,60.7
	c43.5,33.2,67.1,78.6,81.3,129.9c20.1,73.1,21.1,147.4,13.9,222.1c-3.6,37.2-7.2,74.6-15.1,111c-9.5,43.5-21.4,86.8-36.2,128.8
	c-19.9,56.5-43,111.8-72.8,164.1c-36.3,63.7-79.6,121.3-140.4,164.2c-42.9,30.2-91.3,46.4-142.1,57c-9.8,2-19.8,3.3-29.7,4.9
	L3059.7,2295.2z"/>
<path d="M1313.7,2022.7H974.4v-144.6h164.2c-6.9-9.4-10.2-14.8-14.4-19.6c-74.5-83.8-203.2-84-279.2-1.4
	c-48.9,53.1-59.5,113.8-34.5,179.5c25.8,67.9,76.7,108.2,149.5,117.6c69.8,9.1,126.8-15.7,171.4-69.7c2.3-2.8,4.7-5.5,8.5-9.9
	c41.2,27.1,82,53.9,124.6,81.9c-9.2,11.8-16.3,21.9-24.5,31.1c-67.5,75-152.3,115-252.8,115.9c-168.4,1.4-313.1-118.3-334.9-282.3
	C626,1823.5,766.1,1686.9,912,1655.8c165.8-35.3,320.9,55.8,378.5,186.8c21.3,48.5,31.2,99.1,28.4,152.1c-0.2,4.4-0.6,8.8-1.3,13.1
	c-0.8,4.3-2.1,8.5-3.7,14.8L1313.7,2022.7z"/>
<path d="M148.8,2302.5H0v-653.2h147.5c0.8,12.4,1.6,24.4,2.5,38.3c8.4-3.8,14.9-6.7,21.4-9.7c177.7-84.2,386.6,17.2,429.2,208.8
	c4,17.8,6.6,36.3,6.7,54.5c0.6,115.3,0.3,230.6,0.3,346c0,4.3-0.7,8.7-1.3,15H456.4c0-8.4,0-16.2,0-24c0-109.4-1.4-218.9,0.5-328.3
	c1.2-69-50.7-151.9-151.4-154.4c-89.2-2.2-155.7,67.9-156.4,149.1c-0.9,110.2-0.2,220.4-0.2,330.5c0,8.6,0,17.3,0,27.5L148.8,2302.5
	z"/>
<path class="st0" d="M2302.5,1477c41.4,0,78.1,0.2,114.7,0c12.8,0,15.1,9.8,18.7,18.4c20.3,48,40.5,96,60.7,144.1
	c46.6,111,93.1,222,139.7,332.9c2.5,6,5.8,11.6,10.9,21.8c4.9-10.4,8.4-17.1,11.3-24.1c66-157,131.9-313.9,197.8-470.9
	c6.2-14.7,17.4-22.1,33.7-22.2c25.8,0,51.5,0,77.3,0c7.1,0,14.3,0.6,24.2,1c-114.8,273.2-228.7,544-344.4,819.5
	c-115.7-275.3-229.2-545.5-344.7-820.4L2302.5,1477z"/>
<path d="M1361.6,1472.2h149.7V1647h150.6v147.1h-147.2c-0.8,8.3-2,14.6-2,20.8c-0.1,52.9,0.8,105.8-0.3,158.7
	c-2,97.6,77.2,174.8,164,181.3c5.7,0.4,11.4,2,18.2,3.2v144.2c-31.9,1.6-62-3.4-91.5-11.8c-143.7-40.8-241.3-169.7-241.4-318.8
	c-0.2-157.9,0-315.9,0-473.8c0-7.9,0-15.8,0-25.8L1361.6,1472.2z"/>
<path class="st0" d="M2261.5,1479v127.6c-9.1,0.5-17,1.3-24.8,1.4c-53,0.1-106,0-159,0c-26.9,0-27,0.2-27,26.8
	c0,210.9,0,421.7,0,632.6c0,9.5,0,19,0,30.8c-37.7,4.4-73.8,2.5-112,1.2c-0.5-11-1.3-20.3-1.3-29.6c0-210.1,0-420.2,0-630.4
	c0-20.9-10.5-31.3-31.5-31.3c-52.3,0-104.5,0-156.8,0c-7.9,0-15.8,0-25.4,0v-127c15.6-5,498.3-7.1,538-2L2261.5,1479z"/>
</svg>
