<?xml version="1.0" encoding="utf-8"?>
<!-- Generator: Adobe Illustrator 27.7.0, SVG Export Plug-In . SVG Version: 6.00 Build 0)  -->
<svg version="1.1" id="Layer_1" xmlns="http://www.w3.org/2000/svg" xmlns:xlink="http://www.w3.org/1999/xlink" x="0px" y="0px"
	 viewBox="0 0 3500 3500" style="enable-background:new 0 0 3500 3500;" xml:space="preserve">
<style type="text/css">
	.st0{fill:#AAAAAA;}
</style>
<path class="st0" d="M1157.2,848.5h45c89.8,15.8,149.8,61.2,180,136c52.7,130.5-24.5,275.4-164.1,300.4
	c-203,36.4-334-195.5-211-354.5C1042.4,884.8,1092.5,857.5,1157.2,848.5z"/>
<path class="st0" d="M0,2017.1v-39.8c7.5-42.3,22.1-74.3,43.8-96c187.3-187.2,379.6-379.3,577-576.4c38.6-38.5,69.3-61.8,92.1-69.9
	c60.9-21.4,116.8-13.7,167.8,23.1c97,69.9,91,197.9,9.7,278.2c-201.6,199-395.9,392.8-582.9,581.2C198,2227.7,25.6,2169.6,0,2017.1z
	"/>
<path class="st0" d="M2447.2,2117.9c-210.2,210.3-521,210.8-730.1,1.4c-60-60.2-124.6-125-193.6-194.4c-25-25.2-49.9-43-74.7-53.3
	c-75.5-31.7-160.9-14.7-219,43.3c-128.5,128.4-252.4,252.2-371.4,371.3c-56.1,56.1-134.5,72.2-206.9,38
	c-109.8-52-132-198.2-47.3-282.9c154.2-153.9,310.6-310.1,469.1-468.6c169.6-169.5,427.3-167.3,596.6,0.5
	c93.2,92.5,183.7,182.7,271.5,270.8c78.8,78.9,203,76.4,283.1-3.1c93.8-93.1,193.1-192.4,297.7-297.8c25.2-25.4,49.4-42.7,72.8-51.9
	c180.9-71.6,325.9,154,187.6,291.7C2670.3,1894.9,2558.5,2006.6,2447.2,2117.9z"/>
<path class="st0" d="M3500,1656.2v40.3c-7.5,42.3-22.3,74.4-44.3,96.4c-181.7,181.4-364.7,364-549.1,547.8
	c-63,62.8-92.3,100.9-165.5,108.8c-93.2,10.2-172.6-55.2-190.7-144.6c-12.7-62.8,11.7-119,58-165.1
	c168.4-167.6,359.9-359.1,574.3-574.3c57.3-57.5,128.1-85.3,207.6-53.6C3451.1,1536.3,3487.7,1584.3,3500,1656.2z"/>
<path class="st0" d="M1365.3,2651.5h-47.7c-136.6-21.1-218.9-96.1-246.8-225.2c-7.5-34.6-5.6-74.5,5.7-119.7
	c24.4-97.4,103.6-173.2,200.3-196.7c233.7-56.8,423.3,191.9,305,401.5C1536.8,2591.4,1464.6,2638.2,1365.3,2651.5z"/>
</svg>
