<?xml version="1.0" encoding="utf-8"?>
<!-- Generator: Adobe Illustrator 27.7.0, SVG Export Plug-In . SVG Version: 6.00 Build 0)  -->
<svg version="1.1" id="Layer_1" xmlns="http://www.w3.org/2000/svg" xmlns:xlink="http://www.w3.org/1999/xlink" x="0px" y="0px"
	 viewBox="0 0 3500 3500" style="enable-background:new 0 0 3500 3500;" xml:space="preserve">
<style type="text/css">
	.st0{fill:#46478A;}
</style>
<g>
	<path class="st0" d="M3500,1347.4v1742.8H7.2c-7-25.9-10.3-1669.6-3.5-1741.1C28.2,1341.1,3455.3,1338.8,3500,1347.4L3500,1347.4z
		 M1519.9,1667.1c-8.2,37-7.2,609.5,1.5,639.9c40.3,0.5,81.5,3,125.8-1.6v-480.7c9.3,21.4,15,42.9,22.3,63.8
		c34.5,98.3,69.6,196.4,104.3,294.6c11.7,33.1,24,66,34.6,99.5c5.9,18.6,16.2,26.6,35.8,25.5c19.8-1.2,39.8-0.1,59.7-0.2
		c32.5-0.2,33.4,0.1,44.6-32c36.3-103.9,72-207.9,107.6-312.1c16.8-49.1,32.9-98.4,48.3-144.4c0,78.2-0.4,158.9,0.1,239.6
		c0.5,81.6-2.3,163.2,1.9,246.1h141.1v-637.9c-12.9-0.8-23.2-2-33.5-2.1c-45.7-0.2-91.3-0.2-137,0c-35.1,0.1-35.5,0.2-46.9,33.3
		c-35.9,104-71.6,208-107.2,312.1c-12.1,35.5-23.8,71.1-37.8,112.7c-5.1-14-7.9-21.5-10.5-29c-45.1-133-90-266.1-135.2-399
		c-10.1-29.8-10.6-29.9-42.4-30c-48-0.2-96-0.2-144,0C1541.7,1665.3,1530.4,1666.5,1519.9,1667.1L1519.9,1667.1z M2749.4,1928.1
		c-70.6-6.7-138.3,3.3-207.6-6.4c-0.3-48.3-2.6-93.2,1.5-141.9h223.5v-109.9c-39.2-7.8-339.8-6.3-365.4,1.3
		c-8.1,46.4-5.3,608.9,3.4,634.2h376.4v-111.9c-80.1-3.6-158,1.2-234.2-2.6c-9.1-41.2-7.8-117.4,3-147h199.5L2749.4,1928.1
		L2749.4,1928.1z M810.6,2305h146.3c0-16.5,0-30.2,0-43.8c0-146.2-0.1-292.5,0.1-438.7c0-13.4,1.9-26.7,3.1-42.2
		c33.3,0,62.5,0.9,91.6-0.3c28.6-1.2,57.9,5.7,88.4-6.1v-106H628.9c-2.2,38.1-4.8,73.5,1.5,110c60.3,6.9,118.8-2.9,180.1,6.4
		L810.6,2305L810.6,2305z M1365.8,2305.3c8.7-45.7,6.7-611.4-1.4-636.8c-44.4-6.9-114.6-4.8-137.6,4.1
		c-6.6,50.9-4.2,604.6,3.3,632.7L1365.8,2305.3L1365.8,2305.3z"/>
	<path class="st0" d="M1684.9,727.9c-1.2,72.5-16.9,140.6-58.4,200.1c-72.8,104.3-176.9,137-298.6,122.3
		c-142.8-17.3-242.4-133.3-251-278c-4.8-81.2,5.5-159,51.4-228.9c48.4-73.7,116-117,203.7-129.3c64-9,125.9-5,185.2,23.3
		c85.6,40.8,135.2,109.8,155.9,200.3C1679.9,667.1,1681.1,697.8,1684.9,727.9L1684.9,727.9z M1534.7,734.5
		c2.2-49.1-4.4-97.3-32.3-140.3c-59.2-91.4-195.2-88.4-247.7,7c-45.9,83.5-45.9,170.6-4.1,255.5c25.1,51,69,77.3,127.4,77.7
		c59.6,0.4,102.3-26.5,131.7-77.3C1531.8,819.3,1536.4,778,1534.7,734.5L1534.7,734.5z"/>
	<path class="st0" d="M2674.6,762.2c86.9,74,131.2,175.1,191.4,264.8c1.1,1.7,0.6,4.5,1.1,9.8c-6.9,1.5-14.2,4.4-21.5,4.6
		c-33.9,0.5-67.9-0.8-101.8,0.5c-20.4,0.8-32.3-7.6-42.2-24.5c-32-54.5-64.4-108.7-97.7-162.4c-24.2-38.9-52.8-62.1-105.8-47.8
		c-5.8,74.8,0.7,151.5-3.4,226.9c-29,9.5-101,10.2-135.3,1.4V425c10.3-1.3,19.2-3.3,28.1-3.4c67.9-0.2,135.8-1.8,203.6,0.7
		c34.7,1.3,69.9,7,103.4,16.2c126.9,34.7,132.9,184,75.2,253.3c-17.5,21-42,36.3-64,53.3C2696.8,751.9,2685.8,756.1,2674.6,762.2
		L2674.6,762.2z M2501.2,527c-8.5,43.7-6.8,143,2.2,168.6c26,0,52.9,2.7,79.1-0.6c46.7-5.8,77.5-47.3,74-94.7
		c-3.5-46.5-30.2-71-81.2-73.2C2551.1,526.2,2526.8,527,2501.2,527L2501.2,527z"/>
	<path class="st0" d="M2252.9,424.2c1.1,12.4,3,23.8,3,35.1c0.2,104.2,1.4,208.4-0.4,312.6c-1,58.4-5.1,116.6-35.2,170
		c-28.1,49.9-68.9,82.1-122.7,98.1c-61.9,18.4-124.9,19-187.5,4.2c-89.8-21.3-138.6-82.5-157.6-169.6c-5.2-23.8-8.2-48.6-8.3-73
		c-0.9-115.9-0.5-231.8-0.4-347.7c0-9.1,1.7-18.1,2.8-29.7h133.9c1.1,14.1,3.1,27.5,3.1,41c0.3,105.4-0.3,210.7,0.5,316.1
		c0.2,24.4,2.1,49.4,7.8,73c13.2,54.1,53,81.2,112.4,80.2c56.6-0.9,93.9-30,105.1-84.4c4.7-22.8,7.1-46.3,7.2-69.6
		c0.8-105.4,0.3-210.7,0.4-316.1c0-12.5,1.1-25.1,1.8-40.1L2252.9,424.2L2252.9,424.2z"/>
	<path class="st0" d="M1098.1,421.7c-5.7,13.7-7.9,20.1-10.9,26.2c-58.7,115.9-117.9,231.5-175.6,347.9c-7.9,15.9-11.5,35.4-12,53.4
		c-1.5,52.6-0.3,105.3-0.7,158c-0.1,10.1-2.2,20.2-3.7,32.2H763.5c-1.2-10.5-3.3-20.5-3.4-30.5c-0.4-41-2.6-82.1,0.5-122.9
		c3.5-45.5-11-84.5-30.8-123.8c-50.5-100.3-99.6-201.4-149-302.2c-5-10.3-8.5-21.3-14-35.3c11.5-1.3,20.2-3,28.9-3
		c33.9-0.3,67.9,0.6,101.8-0.5c18.1-0.6,27.4,6.8,34,23.2c32.4,80.2,65.8,160.1,98.9,240c0.8,2.1,2.7,3.7,6,8.2
		c3.8-8.2,7.2-14.8,10.1-21.7c32.5-76.4,64.6-153,97.9-229.1c3.6-8.2,13.9-18.8,21.5-19.1C1007.7,420.7,1049.6,421.7,1098.1,421.7
		L1098.1,421.7z"/>
</g>
</svg>
