<?xml version="1.0" encoding="utf-8"?>
<!-- Generator: Adobe Illustrator 27.7.0, SVG Export Plug-In . SVG Version: 6.00 Build 0)  -->
<svg version="1.1" id="Layer_1" xmlns="http://www.w3.org/2000/svg" xmlns:xlink="http://www.w3.org/1999/xlink" x="0px" y="0px"
	 viewBox="0 0 3500 3500" style="enable-background:new 0 0 3500 3500;" xml:space="preserve">
<style type="text/css">
	.st0{fill:#F8C000;}
</style>
<path class="st0" d="M1088,733.1c169.6-161.3,369.9-263.6,601-307c40.8-7.7,79.6-9.6,116.4-5.7c4.6,0.6,8.8,3,11.6,6.7
	c30.3,39.6,33.3,80.6,9,123.1c-10.4,18.4-26.8,28.2-49,29.6c-236.1,14.6-463.3,69.4-681.6,164.4C1072,754.3,1069.5,750.6,1088,733.1
	z"/>
<path class="st0" d="M2294,794.4c-4.7,6.2-3.5,15,2.6,19.7c3.2,2.5,7.3,3.4,11.3,2.6l217.4-42.7c2-0.4,3.3,0.4,3.8,2.5l1,4.6
	c0.7,3.4-1.4,6.8-4.8,7.5c-25.4,6.3-50.6,13.5-75.5,21.6c-45,14.7-93.9,46.4-141.6,60.1c-19.5,5.5-43.8,6.3-72.8,2.3
	c-5.5-0.8-8.6-3.9-9.1-9.4c-2.3-23.2,4.6-44.9,20.9-65c23.4-29,46.5-58.5,69.2-88.4c30.8-40.6,28.9-95.9,18.7-141.9
	c-9.3-42.7,5.8-83.3,27.6-118.4c1.5-2.2,4.4-2.8,6.6-1.3c1.1,0.7,1.8,1.9,2.1,3.2c13.1,104,18.1,205.9-44.5,297.5
	C2316.3,764.2,2305.4,779.4,2294,794.4z"/>
<path class="st0" d="M547.2,1159.3C901,850.6,1314.1,674.4,1786.2,630.7c5.2-0.5,10.1,0.7,14.5,3.6c61.7,40.3,49,169.1,11.2,219.8
	c-3.3,4.3-7.6,6.4-12.9,6.4c-387.6,0.4-764,62.3-1119.1,230.7c-33.5,15.9-76.8,41.4-129.9,76.5c-0.5,0.4-0.9,0.3-1.3-0.1l-2.2-3
	C545.1,1162.6,545.3,1160.9,547.2,1159.3z"/>
<path class="st0" d="M3260.5,680.2c-14.6,33.3-33.9,41-57.8,23.1c-2.4-1.7-2.9-3.9-1.3-6.5l24.8-40.8c4.3-7,13.4-9.3,20.5-5.1
	l5.7,3.3C3262.8,660.5,3265.5,669.1,3260.5,680.2z"/>
<path class="st0" d="M3234.1,775.9l-14.8,12.8c-4.5,3.9-9.8,5.3-15.8,4.2c-7.7-1.5-14.3-5-19.7-10.6c-3.3-3.4-3.6-7-0.9-10.7
	l26.3-36.7c3.8-5.2,8.7-6.9,14.8-5.1l18,5.5c4.8,1.5,10.1,0.2,13.8-3.3l15.4-14.9c4-4,8.5-4.6,13.5-2c15.8,8.2,19.6,19.4,11.6,33.5
	c-13.5,23.7-30.5,32.1-50.9,25.2C3241.1,772.4,3237.4,773.1,3234.1,775.9z"/>
<path class="st0" d="M3172.3,964.1c3.6,7.2,8.7,13.3,15.4,18.3c8.7,6.6,12.7,17.7,10.2,28.3c-2.9,12.1-11,23.5-24.2,34.1
	c-4.9,4-11.4,5.1-17.3,3l-30.9-10.4c-4-1.4-8.4-1.4-12.5,0c-12.6,4.3-24.1,9.9-34.5,17c-45.2,30.5-88,57.1-128.4,79.8
	c-144.9,81.2-290.9,111.6-438.1,91.3c-72.7-10-112.4-48.8-119.1-116.4c-5.8-57.9,16.5-127.3,28.4-184.6c0.6-3.1,3.7-5.2,6.8-4.6
	c0.7,0.1,1.4,0.4,2.1,0.8l3,2c1.3,0.8,1.7,1.9,1.3,3.3c-29.6,119-22.1,201.6,114.8,216.9c134.8,15.1,261-4.4,378.7-58.3
	c55.5-25.4,116.9-58,184.1-97.8c48.3-28.7,56.6-112.2,132-82.1c5.5,2.1,10.7,1.5,15.5-1.7l37.6-25.7c5.2-3.6,7.9-2.2,8.1,4.1
	c0.7,28.9-39.2,53.4-64.1,65.9c-4.7,2.3-9.6,2.7-14.5,1l-31.6-10.4c-9.9-3.2-20.6,2.2-23.8,12.1
	C3169.8,954.6,3170.1,959.7,3172.3,964.1z"/>
<path class="st0" d="M2023.3,2774.1c92.7-3.3,187.6-20.9,277.9-37.4c307.8-56.7,681.6-206.5,870.8-460c55.9-75,83.4-157,102.7-247.1
	c20.9-96.8,186.2-99.3,189.8,8.9c10.6,316.6-247,564.3-503.5,720.2c-396.9,241.2-870.1,341-1335.1,314.7
	c-442.3-25.1-869.8-145.1-1230.2-403.1c-297-212.7-471.3-533.7-342-893.7c9-24.9,20.1-48.5,33.4-71c19.4-32.9,36-66.9,59.3-97.7
	c56.5-74.5,111-133.6,163.5-177.5c341.3-285.1,791.7-440.5,1237.9-478.7c83.9-7.1,165.7-3,249-5.1c6.2-0.2,12,2.7,15.5,7.7
	c54.1,77.1,35.4,222,2.5,313.3c-7.2,19.6-20.8,29.4-40.9,29.2c-391.1-2.8-785.6,88.4-1104.4,311c-184,128.3-291.5,329.2-213.3,554.9
	c75,216.5,377.6,386,578.4,465.1c92.1,36.1,197.5,70.8,294.6,91.4c192.3,40.8,377.3,60.3,555,58.3
	C1930.5,2776.9,1976.9,2775.8,2023.3,2774.1z"/>
<path class="st0" d="M2293.4,965.3c4.6,152.2-47,344.6-190.4,414.1c-104.9,50.8-188.1-36.3-168.8-141.3
	c10.7-57.8,31-110.2,60.7-157.2c0.6-0.9,1.4-1.3,2.5-1.2l4.6,0.4c1.5,0.2,1.8,0.9,1.2,2.2c-30.3,56-59.3,162.8,15.7,199.4
	c89.8,43.8,197.8-28,227.7-113.3c15.5-44.4,3.8-88.8,12.5-133.8c4.9-25,12.8-48.9,23.5-71.7C2289.3,948.6,2292.9,949.3,2293.4,965.3
	z"/>
<path class="st0" d="M2077.5,1146l28.3-53.3c5.6-10.4,14.1-13.9,25.4-10.3l9.9,3.2c13.7,4.4,18.1,13.5,13.1,27.1
	c-6.2,16.8-16,32.5-29.3,46.9c-3.9,4.2-8.5,5.4-13.8,3.8l-30.2-9.3c-3-0.9-4.7-4.1-3.8-7.1C2077.1,1146.7,2077.3,1146.3,2077.5,1146
	z"/>
<path class="st0" d="M2346.8,1193.7c-14.1,93.7-54.9,218.2,77.8,248.3c307.2,69.4,570-77.8,833.5-216.1c8.7-4.5,18.6-8.2,29.7-11
	c4.1-1.1,8.3,1.5,9.4,5.7c0.2,0.9,0.3,1.7,0.2,2.6c-7.1,81.6-83.3,73-134.5,106.4c-217.5,142.1-451.4,245.8-709.9,223.2
	c-92.1-8.1-163-60.9-156.1-163.2c4.3-65.1,17.9-130.2,40.9-195.3c0.8-2.2,2.3-3,4.6-2.5l3.6,0.9
	C2346.6,1192.6,2346.9,1193,2346.8,1193.7z"/>
<path class="st0" d="M3360.8,1314.4c2.9-5,9.3-6.8,14.4-3.9l11.2,6.2c12.9,7.3,17.5,23.6,10.2,36.5c0,0,0,0.1-0.1,0.1l-15.5,27.1
	c-7.3,12.8-23.6,17.3-36.5,10c0,0,0,0-0.1,0l-11-6.4c-5.1-2.9-6.9-9.3-4.1-14.4L3360.8,1314.4z"/>
<path class="st0" d="M3131.1,1456.2c1-3.2,2.1-3.2,3.3-0.1c2.6,6.3,4,12.8,4.1,19.4c1.3,90.4,11,181.5-27.6,266.9
	c-18.5,40.7-24.6,38.9-18.4-5.4c7.5-54.8,12.1-109.6,13.6-164.4C3107.3,1531.8,3119.5,1494.8,3131.1,1456.2z"/>
<path class="st0" d="M3287.7,1664.1c-8-7.4-14.2-16.2-18.4-26.1c-2.1-5.1-2-10.2,0.4-15.1c34-69.5,112-125.4,193.6-118.1
	c13.5,1.3,18.6,8.5,15.1,21.6c-27,99.1-102.7,167.6-194.3,211.3c-29.7,14.2-58.8,39.3-77.1,66.7c-46.7,70.4-92.6,139-171.5,178.3
	c-4.9,2.5-8.7,1.4-11.3-3.5l-1.9-3.6c-0.5-0.9-0.3-1.5,0.6-2c41.9-25.4,75.7-55.9,101.4-91.4c50.5-69.5,94.5-150.5,163-205.2
	C3292.4,1672.9,3292.5,1668.6,3287.7,1664.1z M3418.6,1563c-39.2-3.3-96.2,9.1-117.7,47.7c-4.4,7.9-1.6,17.9,6.3,22.2
	c0.3,0.1,0.5,0.3,0.8,0.4c39.8,19.6,97.2-27,117.4-56c2.9-4.1,1.9-9.8-2.2-12.7C3421.8,1563.7,3420.2,1563.1,3418.6,1563z"/>
<circle class="st0" cx="1761.4" cy="2040" r="467.2"/>
</svg>
