<?xml version="1.0" encoding="utf-8"?>
<!-- Generator: Adobe Illustrator 28.0.0, SVG Export Plug-In . SVG Version: 6.00 Build 0)  -->
<svg version="1.0" id="Layer_1" xmlns="http://www.w3.org/2000/svg" xmlns:xlink="http://www.w3.org/1999/xlink" x="0px" y="0px"
	 viewBox="0 0 3500 3500" style="enable-background:new 0 0 3500 3500;" xml:space="preserve">
<style type="text/css">
	.st0{fill:#FFFFFF;}
</style>
<g>
	<path class="st0" d="M1266.14,811.74c-83.85,0-164.59,0-246.63,0c-8.68-50.32,5.14-95.05,20.23-139.21
		c31.04-90.82,87.24-165.78,152.16-234.61c85.01-90.14,183.53-163.94,286.31-232.24c77.18-51.29,154.74-102.03,232.74-152.07
		c23.42-15.03,48.58-27.48,73.5-40.02c34.91-17.57,70.51-18.38,105.86-0.79c20.46,10.18,41.85,19.05,60.81,31.56
		c114.44,75.5,229.8,149.73,341.88,228.61c97.84,68.86,187.04,148.15,258.78,245.36c39.5,53.53,71.76,110.67,91.85,174.27
		c12.15,38.45,32.26,71.51,63.17,97.79c23.82,20.26,51.13,32.48,81.97,37.34c175.91,27.72,320.11,109.17,426.87,253.29
		c74.73,100.87,118.39,214.35,138.05,338.09c5.06,31.83,5.82,62.8,2.54,94.42c-8.2,78.98-57.62,132-117.14,174.97
		c-79.2,57.17-161.83,109.63-243.38,163.51c-278.58,184.05-557.07,368.23-836.1,551.59c-244,160.34-488.64,319.72-733.11,479.33
		c-62.95,41.1-121.74,87.13-174.51,140.85c-13.92,14.17-29.74,26.46-46.18,40.92c-39.11-53.37-64.96-108.08-72.27-169.7
		c-6.66-56.2,12.84-106.32,51.17-146.32c29.62-30.91,62.57-59.91,98.12-83.66c297.68-198.94,595.84-397.15,894.77-594.21
		c263.9-173.97,529.05-346.06,793.44-519.28c35.05-22.96,68.4-48.06,94.38-81.95c32.48-42.36,38.59-85.58,13.72-134.48
		c-28.31-55.67-69.84-99.89-115.82-140.03c-67.22-58.68-141.25-107.41-222.21-145.74c-42.79-20.26-86.85-35.16-133.34-43.29
		c-103.8-18.16-168.36-81.8-194.16-180.58c-19.11-73.18-48.73-138.65-99.73-193.88c-21.43-23.2-44.61-45.22-69.3-64.89
		c-78.43-62.45-157.39-124.26-237.26-184.84c-40.46-30.69-83.68-57.23-133.19-72.2c-24.03-7.27-47.41-9.97-70.58,0.12
		c-30.11,13.11-62.5,23.52-88.87,42.21c-73.45,52.06-144.41,107.63-216.1,162.16c-26.26,19.98-51.99,40.67-77.62,61.45
		C1345.02,637.15,1289.75,712.57,1266.14,811.74z"/>
	<path class="st0" d="M1492.68,1343.15c-15.95-10.94-26.06-17.99-36.29-24.86c-46.3-31.12-92.02-62.75-147.24-77.71
		c-42.82-11.59-83.05-6.21-122.25,11.26c-50.3,22.42-93.19,56.22-135.9,90.4c-28.66,22.93-57.51,46.31-89.03,64.8
		c-48.18,28.25-83.07,22.86-124.58-15.41c-20.35-18.76-38.46-39.96-58.57-61.09c-28.73,19.81-51.95,39.73-67.87,65.8
		c-27.77,45.48-25.06,91.82,3.02,136.57c29.64,47.25,71.77,81.9,117.3,112.53c206.44,138.85,413.08,277.4,619.72,415.94
		c70.63,47.35,141.48,94.36,212.21,141.55c4.22,2.82,8.35,5.79,12.47,8.77c30.2,21.79,30.96,30.62,0.46,53.31
		c-35.59,26.48-71.8,52.27-109.03,76.35c-40.37,26.11-83.59,28-126.73,6.39c-24.92-12.48-49.86-25.36-73.16-40.57
		c-174.3-113.8-348.21-228.18-522.19-342.45c-77.44-50.86-154.73-101.93-232.16-152.81c-42.6-27.99-81.28-60.45-117.36-96.59
		c-69.27-69.37-86.23-152.79-68.13-245.52c12.48-63.95,39.34-123.01,67.45-181.36c27.03-56.12,51.51-113.23,61.55-175.17
		c21.75-134.14-16.14-246.81-126.42-329.32c-36.2-27.08-77.88-47.51-118.73-67.55c-59.97-29.43-116.47-63.62-158.46-116.1
		C69.24,495.94,49.27,380.27,98.28,254.44c1.23-3.17,4.76-5.44,9.45-10.58c7.21,23.18,13.09,44.43,20.38,65.18
		C167.24,420.45,244.2,488.4,361.3,507.61c34.83,5.71,70.53,6.52,105.89,8.51c58.28,3.28,116.36,8.24,172.61,24.6
		c137.94,40.12,228.48,131.42,280.9,263.1c4.21,10.59,7.57,21.52,11.31,32.29c20.68,59.73,42.48,75.92,107.04,74.76
		c47.17-0.85,93.36,1.81,139.3,14.35c125.74,34.3,214.04,111.6,268.67,228.9c20.43,43.86,37.03,88.95,42.26,137.44
		C1490.88,1306.35,1491.28,1321.27,1492.68,1343.15z"/>
	<path class="st0" d="M3359.19,1711.92c108.71,120.01,81.01,271.94-28.82,358.08c-49.83,39.08-104.08,72.58-156.88,107.79
		c-347.49,231.75-694.77,463.83-1042.86,694.68c-249.69,165.59-500.9,328.89-750.53,494.55c-50.62,33.59-97.25,73.21-145.66,110.11
		c-8.93,6.81-17.6,13.95-28.8,22.86c-28.62-32.62-46.28-69-57.51-107.65c-23.51-80.92-6.98-153.62,53.77-213.44
		c21.55-21.23,45.31-40.92,70.48-57.67c275.87-183.53,552.14-366.46,828.45-549.33c299.6-198.28,599.49-396.12,898.96-594.58
		c74.05-49.07,148.07-98.32,220.02-150.37c42.04-30.41,79.94-66.56,119.77-100.03C3345.25,1722.16,3351.35,1717.89,3359.19,1711.92z
		"/>
	<path class="st0" d="M1375.1,2469.88c-81.03,55.16-156.36,106.44-233.27,158.79c-13.41-8.83-26.09-16.88-38.47-25.38
		c-164.22-112.74-328.75-225.03-492.45-338.52c-100.08-69.38-199.1-140.29-298.14-211.16c-64.2-45.94-100.21-107.56-94.71-188.14
		c4.06-59.49,25.61-113.1,66.86-163.24c23.43,17.83,46.99,34.16,68.75,52.62c87.3,74.03,182.13,137.65,276.66,201.72
		c215.3,145.92,430.72,291.68,645.69,438.11C1308.27,2416.65,1338.33,2441.84,1375.1,2469.88z"/>
</g>
</svg>
