<?xml version="1.0" encoding="utf-8"?>
<!-- Generator: Adobe Illustrator 27.7.0, SVG Export Plug-In . SVG Version: 6.00 Build 0)  -->
<svg version="1.1" id="Layer_1" xmlns="http://www.w3.org/2000/svg" xmlns:xlink="http://www.w3.org/1999/xlink" x="0px" y="0px"
	 viewBox="0 0 3500 3500" style="enable-background:new 0 0 3500 3500;" xml:space="preserve">
<style type="text/css">
	.st0{fill:#00A2E8;}
</style>
<path class="st0" d="M1739.6,3494.4L-0.4,1755.2c-1.4-1.3-1.5-3.6-0.1-5c0,0,0.1-0.1,0.1-0.1L1746.5,3.1c4.1-4.1,10.7-4.1,14.9,0
	l1734.9,1735.3c8.2,8.2,6.5,12.3-5.1,12.3l-694.2-1.2c-6.3,0-10.1-3.1-11.5-9.2c-14.5-63.7-35.6-116.5-63.3-158.5
	c-283.4-427.8-815.2-684.2-1332.5-491.7c-251.3,93.6-459.7,239.4-625.2,437.6c-61.8,73.9-140.3,189.6-95.4,290.2
	c24.9,55.9,56.2,104,94,144.4c215.1,230.2,477.4,381,786.8,452.4c61.4,14.3,126.8,17.6,189.8,21.1c7.8,0.5,11.7,4.6,11.7,12.3
	l0.4,1041.3C1751.7,3501,1747.7,3502.6,1739.6,3494.4z"/>
<path class="st0" d="M1000.5,2046.6c6,11.5,3.7,13.5-6.8,6.1c-139.9-96.7-251.3-252.7-177.3-426.4
	c90.3-212.2,367.4-340.8,585.1-393.6c171.9-41.7,336.2-51.9,493.1-30.5c28.9,3.9,28.9,7.7,0,11.3c-273,35-518.5,122-732.3,287.1
	C985.4,1637.1,887.1,1833.2,1000.5,2046.6z"/>
<path class="st0" d="M2189.9,1287.5c-412.2,66.1-1046.4,302.9-943.8,848.2c2.2,11.7-1.4,14.1-10.9,7
	c-390.3-287.9-84.6-571.5,214.2-709.3c187.1-86.3,380.5-139.8,580.3-160.7c53.6-5.7,106.8-5.3,159.9,1.2
	C2221.2,1277.9,2221.3,1282.4,2189.9,1287.5z"/>
<path class="st0" d="M1956,1930.9c-0.1-3.5-2.9-6.2-6.4-6.1c-1.1,0-2.1,0.3-3,0.8c-43,24.1-82.1,55-117.3,92.8
	c-3.3,3.6-6.4,2.1-9.4-4.7c-1.8-4.3-1.9-9.1-0.4-13.5c25.3-72.4,62.5-139.5,111.6-201.1c41.4-52,97.1-88.9,147.4-131.3
	c1.8-1.5,4.5-1.3,6.1,0.6c0.6,0.8,1,1.7,1,2.7v557.4c0,12.3-4.7,24.2-13.1,33.2l-194.3,207c-14.9,15.9-17.7,13.9-8.4-5.9
	c34-73.3,84.4-147.9,86.4-232C1958.4,2131.8,1958.3,2031.8,1956,1930.9z"/>
<path class="st0" d="M2023,2636.2c-41.8,90.7,100.5,211.7,171.6,252.7c25.9,14.9,29.4,33.9,10.6,57.1l-52,64.1
	c-18.2,22.4-37.7,23.6-58.4,3.7c-71.9-69.2-263.5-203.8-240.4-316.2c8.3-40.8,26.7-80.1,55.1-118c73-96.7,165.9-197.8,278.9-303.3
	c31.3-29.3,46.7-63.8,46.3-103.6c-1.6-148.3-2-282.3-1.2-402.2c0-2.7,1-5,3.1-6.8l121.6-97.9c1.1-0.8,2.5-0.5,3.3,0.5
	c0.3,0.4,0.4,0.8,0.4,1.2c-1,155.4,0.3,311.6,3.9,468.5c1.2,58.6-2.5,122.7-45.7,165.9c-74.4,74.4-147.3,148.6-218.7,222.6
	C2067.1,2560,2041,2597.3,2023,2636.2z"/>
<path class="st0" d="M2910.5,2517.4c-19,11.7-20.7,25.5-4.9,41.2l149.3,149.5c8.7,8.7,9.3,17.9,1.6,27.6
	c-71.5,88.9-157.2,173-257,252.5c-6.9,5.5-13.9,5.5-20.9,0.2l-130-99.5c-21.4-16.3-51.9-12.4-68.4,8.8l-95.2,121.4
	c-8.1,10-22.6,11.6-32.6,3.6c-0.4-0.3-0.8-0.7-1.2-1.1c-84.2-78.8-274.2-272.8-244.1-392.2c30.5-121,150.9-236.7,243.5-323.6
	c40.8-38.3,61.8-85.5,62.9-141.7c2.7-123.6,2.9-247.1,0.6-370.4c-0.3-19.7,7.3-35.6,22.7-47.7l83.1-65.7
	c14.5-11.3,21.7-7.8,21.7,10.6l1.6,537.8c0,16-7.2,31.1-19.5,41.2c-121.2,98.9-319.3,222.4-269.3,407.3
	c21.2,78.6,65.1,140.8,131.7,186.6c6.4,4.3,13,4.6,19.7,0.8c22.7-12.6,39.5-28.9,50.4-48.9c5.1-9.5,3.7-21.1-3.5-28.9
	c-74.9-80.7-153.6-195.8-58.4-297.1c51.5-54.9,109.8-106.3,174.9-154.4c4.5-3.3,10.7-2.8,14.7,1.2l147.2,148.5
	c16.8,16.9,32,15.6,45.5-4.1l6.3-9c17.4-25.1,12.1-59.3-12.1-77.8c-73.5-55.9-118.6-107.4-135.4-154.6c-2.1-5.6-1-11.8,2.7-16.4
	c163-203.1,442.5-107.9,537.9,99.1c14.9,32.3,15,64,0.6,95.2c-36.7,79.3-87.8,150.7-153,214.2c-7.3,7-14.3,6.8-21.1-0.6
	l-113.4-122.5c-15.4-16.7-32.7-19.1-52-7.2L2910.5,2517.4z M3108.7,2428.7c24.8-24.4,45.1-50.4,61.2-78.2c21-36.6,10.6-58-31.1-64.3
	c-67-9.8-130.6-6.5-190.7,9.8c-15.1,4.1-24.1,19.6-20,34.6c0.4,1.4,0.9,2.8,1.5,4.1c17.9,40.5,45.2,74.3,82.1,101.2
	C3046.1,2461,3078.5,2458.6,3108.7,2428.7z M2731.6,2634c12.8-14.6,11.4-36.8-3.2-49.6c0,0,0,0,0,0l-121-106.3
	c-14.6-12.8-36.8-11.4-49.6,3.2c0,0,0,0,0,0l-1.8,2.1c-12.8,14.6-11.4,36.8,3.2,49.6l0,0l121,106.3c14.6,12.8,36.8,11.4,49.6-3.2
	l0,0L2731.6,2634z M2924.8,2800.9c13.1-15.1,11.4-37.9-3.7-51l-117.9-102.1c-15.1-13.1-37.9-11.4-51,3.7l-1.5,1.8
	c-13.1,15.1-11.4,37.9,3.7,51c0,0,0,0,0,0l117.9,102.1c15.1,13.1,37.9,11.4,51-3.7L2924.8,2800.9z"/>
<circle class="st0" cx="2305" cy="3167" r="170"/>
</svg>
