<?xml version="1.0" encoding="utf-8"?>
<!-- Generator: Adobe Illustrator 27.7.0, SVG Export Plug-In . SVG Version: 6.00 Build 0)  -->
<svg version="1.1" id="Layer_1" xmlns="http://www.w3.org/2000/svg" xmlns:xlink="http://www.w3.org/1999/xlink" x="0px" y="0px"
	 viewBox="0 0 3500 3500" style="enable-background:new 0 0 3500 3500;" xml:space="preserve">
<style type="text/css">
	.st0{fill:#FFFFFF;}
</style>
<g>
	<g>
		<path class="st0" d="M78.3,1394.2c-25-15.9-44.3-38.2-57.9-66.8C6.8,1298.9,0,1265.8,0,1228.3c0-39.3,7.3-73.5,22-102.4
			c14.6-29,34.7-51.1,60.1-66.5c25.4-15.4,53.8-23.1,85.3-23.1c21.8,0,41.7,4.3,59.8,12.9c18.1,8.6,33,19.7,44.8,33.2l-31.1,35.9
			h-0.5c-4.3-5-9.6-9.5-16.1-13.4c-15.7-11.4-34.3-17.2-55.8-17.2c-20.7,0-39.2,5.7-55.5,17.2c-16.3,11.4-29,27.6-38.1,48.5
			s-13.7,45.1-13.7,72.7c0,28.6,4.5,53.5,13.4,74.8c8.9,21.3,21.5,37.5,37.8,48.8c16.3,11.3,35.3,16.9,57.1,16.9
			c25,0,46.8-7.7,65.4-23.1c3.2-2.5,7.7-6.6,13.4-12.3h0.5l30,34.3c-15.4,17.5-32.4,30.7-50.9,39.4c-18.6,8.8-39.3,13.1-62.2,13.1
			C132.4,1418.1,103.3,1410.1,78.3,1394.2z"/>
		<path class="st0" d="M547.5,1220.2v-146.4v-30.6H607v30.6v119h156.6v-119v-30.6h59v30.6v146.4v160.3v31.1h-59v-31.1v-135.7H607
			v135.7v31.1h-59.5v-31.1V1220.2z"/>
		<path class="st0" d="M1084.3,1380.6l112.1-337.3h68.6l111,338.4l3.8,10.7l7,19.3H1324l-5.4-19.3l-3.2-10.7l-22-74h-127.6l-22,72.9
			l-3.8,11.8l-5.4,19.3h-60.6l6.4-19.3L1084.3,1380.6z M1230.1,1089.9h-2.2c-11.8,46.5-28.1,103.5-48.8,171.1h100.3
			C1260.9,1197.7,1244.4,1140.7,1230.1,1089.9z"/>
		<path class="st0" d="M1698.8,1043.3l121.2,215c9.3,16.4,22.2,42.6,38.6,78.3h2.1c-5-51.8-7.5-92.9-7.5-123.3v-170h56.3v368.4
			h-61.1l-120.7-215.6c-8.9-17.2-21.8-43.2-38.6-78.3h-2.7l2.1,25.2c1.4,16.1,2.8,32.7,4,49.9c1.2,17.2,1.9,32.7,1.9,46.7v172.1
			h-56.8v-368.4H1698.8z"/>
		<path class="st0" d="M2269.9,1043.3l121.2,215c9.3,16.4,22.2,42.6,38.6,78.3h2.1c-5-51.8-7.5-92.9-7.5-123.3v-170h56.3v368.4
			h-61.1l-120.6-215.6c-8.9-17.2-21.8-43.2-38.6-78.3h-2.7l2.1,25.2c1.4,16.1,2.8,32.7,4,49.9c1.2,17.2,1.9,32.7,1.9,46.7v172.1
			h-56.8v-368.4H2269.9z"/>
		<path class="st0" d="M2779.8,1221.3v-147.5v-30.6h218.8v49.3h-159.3v101.9h135.1v49.9h-135.1v117.4h165.2v49.9h-224.7v-31.1
			L2779.8,1221.3L2779.8,1221.3z"/>
		<path class="st0" d="M3284.4,1227.2v-153.4v-30.6h59.5v30.6v153.4v134.6h156v49.9h-215.6v-31.1V1227.2z"/>
	</g>
	<g>
		<path class="st0" d="M1386.7,1538.6h266.1l347.2,510.1v-510.1h268.6v922h-268.6l-345.3-506.3v506.3h-267.9V1538.6z"/>
		<path class="st0" d="M2396.4,1538.6h763.6v196.9h-478V1882h443.4v188.1h-443.4v181.8h491.8v208.8h-777.4V1538.6z"/>
	</g>
	<g>
		<path class="st0" d="M611.3,1616.1c-3.6,2.6-4.8,2.1-4.8,2c-0.1-0.1,0.1-0.2,0.2-0.3c0,0,2.5-2.2,2.7-2.3c0.2-0.2,1.7-0.9,2.6-1.3
			c0.3-0.1,0.5-0.2,0.6-0.1C613.1,1614.2,613.3,1614.7,611.3,1616.1z M606.8,1611.8c-0.1-0.1-0.2,0-0.3,0.1c-0.6,0.2-2,0.9-2.2,1
			c-0.3,0.2-0.5,0.5-0.4,0.5c0.1,0.1,0.7-0.1,1.3-0.4C605.4,1612.8,606.8,1612,606.8,1611.8z M617.4,1606.9c1-0.2,1-0.2,2.1-0.7
			c0.1,0,1-0.4,2.6-1.3c0,0,1.7-0.9,2-1.2c-0.1,0-0.1,0-0.4,0.1c-0.1,0-6.5,2.4-12.3,5.6l3.3-1.3
			C615.6,1607.7,616.4,1607.2,617.4,1606.9z M610.6,1610.9c0,0-0.1,0-0.1,0c0.1-0.1,0.2-0.2,2.6-1.2c0.8-0.3,1.9-0.8,2.5-1.2
			c0.1-0.1,0.2-0.1,0.3-0.2c-0.2,0-0.4,0.1-0.5,0.1c-7,2.3-12.5,6-13.4,6.9c0.6,0.1,8-3.6,8.5-3.9
			C610.5,1611.2,610.6,1611,610.6,1610.9z M617.7,1610.2c0.2-0.1,0.3-0.2,0.4-0.3c0.2-0.2,0.4-0.5,0.7-0.7c0.4-0.4,0.9-0.8,1.3-1.1
			c0.2-0.2,0.2-0.3,0.2-0.3c0,0-0.1,0-0.2,0c-1.4,0.5-3.9,2.3-4,2.6c0,0,0,0,0,0c0.2,0.1,0.2,0.1-0.4,1
			C615.9,1611.3,617.7,1610.2,617.7,1610.2z M600.2,1623.4c-0.2,0-0.3,0-0.4,0.1c-0.6,0.2-1.2,0.5-1.2,0.5c-1.7,0.8-3.6,2.3-3.7,2.5
			c0,0,0,0,0,0.1c0.3,0,3.4-1.3,4.8-2.3C600.1,1623.9,600.5,1623.5,600.2,1623.4z M603.4,1630.8c-0.2-0.1-0.3-0.2-1.3-0.1
			c-0.2,0-0.4,0.1-0.5,0.1c-1.5,0.3-3,0.6-4.6,0.9c-1.9,0.4-7.9,3.4-8.8,4.6c0,0.1,0,0.1,0,0.1c0.5,0.2,1-0.1,1.5,0.2
			c0.7,0.5,0.5,0.9,0.4,1.1c-0.3,0.4-4.3,3.5-5.4,4.1c-0.5,0.2-0.5,0.2-0.8,0.2c-0.3-1.2,1.1-1.6,1.2-2.6c-0.8,0.1-4.5,2.2-4.9,3.2
			c0,0.1-0.1,0.3-0.1,0.4c0.2,0.9,0.7,1.7,0.9,2.6c0.1,0.3,0.3,0.7,0.3,1.1c0,0.7-0.4,1.3-0.3,2c0,0.1,0.1,0.3,0.1,0.3
			c1.1,1.2,11.3-4.9,14.1-7.7c0.6-0.6,2.4-4.2,1.2-4.2c-1.3,0-2.4,0.7-3.6,1c2.4-1.6,5-2.8,7.4-4.4
			C600.3,1633.6,603.3,1631,603.4,1630.8z M574.2,1630.3c4.4-2,8.2-5.2,12.5-7.4c-4.4,2.8-4.4,2.8-4.6,3.1l14.8-8.7
			c0.3-0.2,0.7-0.4,1.2-1c-0.2,0-0.4,0-0.6,0.1c-3.2,1.4-24.2,13-28.6,16.8c2.2-0.3,3.6-2.2,5.5-3.1
			C574.3,1630.2,574.2,1630.3,574.2,1630.3z M574.2,1662.3c-0.1,0-0.1,0-0.2,0c-0.2,0.1-0.5,0.2-1,0.6c-1.9,1.5-3.4,3.6-5.5,4.9
			c-3.5,2.2-4.5,2.8-4.7,3.4c0,0,0.1,0.1,0.1,0.1c0.3,0,0.5,0,1.4-0.2c1.3-0.3,1.5-0.3,1.7-0.1c0.5,0.3,0.3,1.1,1,1.3
			c0.2,0.1,1.2,0,2.1-0.2c6-1.1,8.5-3.7,8.5-3.7c0.7-0.8-1-4-1-4C575.9,1663.1,574.4,1662.3,574.2,1662.3z M582.7,1636.4
			c-0.1,0-0.4,0-1,0.2c-3.2,0.9-5.5,2.9-5.7,3.2c0,0,0,0,0,0.1c0.3,0,0.6-0.2,1,0c0.1,0.2,0.1,0.3-0.2,0.9c-0.2,0.4-0.7,1.5,0,1.3
			c1.1-0.3,4.3-3.2,4.7-3.6C582.9,1637,583.3,1636.4,582.7,1636.4z M726.1,1576.7c-2.2,2.7-7.8,4.3-10.8,5.1
			c-0.1,0-15.4,4.6-16.1,5.5c-4.2,5.8,6.4,7.7,6.5,7.7c26.3-2,26.7-1.7,28.5,0c0.1,0.1,12.4,14,8.4,21.6c-1.6,3.1-1.6,3.2-1.5,3.6
			c0.3,1.6,2.2,1.7,2.8,3.1c0.8,2.1,0,4.5,1.1,6.6c3.5-0.8,6.3-4.5,10.4-2.6c7.1,3.2,3.8,9,3.8,9.1c-2.9,3.5-8.2,3.3-10.8,7.3
			c-1.4,2.2-2.8,8.2-1.8,11.7c6.9,22.6,44.2,58.6,57.7,43.1c2.6-3,7.1-26,7.1-26.3c0.6-3.4-1.1-7,0.8-10.3c1-1.7,1.1-1.7,7.3-3.7
			c19.4-6,19.4-6,19.9-9.8c0.5-3.9,0.8-6,4.3-7.8c8.5-4.4,18.2-5,26.7-9.5c3.5-1.8,7.2-3,10.4-5.3c0.1-0.1,1.7-1.2-0.3-3.8
			c-2.9-3.8-7.3-6-10.1-9.9c-1.8-2.5-1.7-5.7-2.9-8.4c-1.4-3.2-0.8-4,1-5.8c2.4-2.5,0.7-3.5-4.2-6.5c-16.1-9.7-16.2-10-17.6-12.2
			c0.1-0.2,0.2-0.5,0.3-0.7c0.2-0.1,0.6-0.2,0.8-0.3c-4.7-4.7-14.3-1-16.6-9.9c-0.5-0.2-1.1-0.6-1.6-0.8c0.1-0.4,0.2-1,0.3-1.4
			c0.2-0.1,0.5-0.1,0.7-0.2c-2.1-0.3-8.2-0.7-8.3-0.7c-4.1-0.2-9.2,0.7-10.2,0.8c-3.5,0.7-6.5-1.7-9.9-1.8c-4.8-0.2-15.3-0.2-19.4,0
			c-7.7,0.4-7.7,0.4-8.6,1.1c0,0,0,0,0,0c-8.4,0.5-8.4,0.5-12.4,1.2h0c-0.1,0-0.2-0.1-0.2,0.1c0,0,0,0,0.1,0c0.1,0,0.2,0,0.3,0
			c4.9,0.4,4.9,0.4,6.4,0.8c-0.4,0-0.4,0-5.9-0.1c-2.2,0-3.1,0-5.7,0.2c-19.6,2.2-33.8,8.7-33.9,8.8
			C723.3,1576.7,723.3,1576.7,726.1,1576.7z M651.8,1661.7c1-2.7,0.6-4-1.3-3.7c-0.1,0-5.7,1.5-6.7,4.1c-0.6,1.5,1.8,5.3,2.7,5.9
			C648.7,1669.5,651.7,1661.8,651.8,1661.7z M691.7,1580.4c-1.2,0.5-2.5,1-3.8,1.5c4-1,17.1-4.6,19.2-5.2c-8.7,3-15.6,5.3-23,6.9
			c-1.7,0.4-2.2,0.8-2.9,1.3c0,0.5-0.7,3.1-2,4.2c-3.9-1.2-14,4.8-14.4,5.1c0.9,0.4,1.9,0.2,2.8,0.8c0,0.1-0.1,0.3-0.1,0.4
			c1.3-0.2,1.8-0.2,6.1-1.9c-7.4,4.1-8.3,3.2-8.9,2.5c-5.6,0.1-6,2.3-6.1,3.4c-3.2,2.2-7.4,2.4-10.2,5.2c0.1,0.1,0.2,0.3,0.3,0.4
			c0.9,0.1,1.5,0.1,7.4-1.1c4.3-0.9,8.2-4,12.9-2.9c-0.3,0.9-0.3,0.9-1.3,1.6c3.2,0.7,13.3-4.4,12.4-6.9c-0.3-0.1-0.8-0.2-1.1-0.3
			c0.8-1.1,7.5-5.4,9-5.8c9-2.2,12.2-5.7,12.3-6.5c-0.1-0.1-0.3-0.1-0.5-0.2c8.4-2.2,12.2-3.3,14.8-5c-0.7-0.1-0.7-0.1-2.1,0.2
			c0.1,0,19-6.1,20-6.3c-4.9,0.7-5.2,0.8-7,0.9c4.7-1.3,9.5-2,14.2-3.2c-4.5,0-12.1,1-12.2,1c-0.2,0-18.4,3.2-22.3,4.8
			c0.2,0.2,0.5,0.5,0.7,0.6c-0.8,0.2-1.4,0.4-3.3,0.2c-1.3-0.2-17,3.7-18.6,5.7C684.7,1582.2,684.9,1582.3,691.7,1580.4z
			 M618.5,1612.7c-0.4,0.5-0.6,1.1-1,1.6c-0.6,0.7-0.6,0.7-2.6,2.3c0.2-0.5,0.5-1.1,0.7-1.6c0.1-0.2,0.2-0.5,0.2-0.8
			c-0.2-0.1-1.8,0.1-3.4,1.8c0.2,0,0.4,0,0.5,0c0,0.1,0,0.1,0,0.2c-1.9,1.6-4.4,1.9-6.5,3.1c0.3,0.2,0.7-0.2,1,0
			c-0.3,0.6-0.3,0.6-0.2,0.7c0.4,0.1,0.4,0.1,6.4-1.9c-1.9,1.1-7,4-7.4,5.2c0,0,0,0.1,0.1,0.1c0,0,6.9-2.6,7.7-3.1
			c0.6-0.3,0.6-0.3,4.4-3.8c0,0.1,0.1,0.2,0,0.6c0,0,0,0.1-0.1,0.1c1.8-1.7,1.8-1.7,6.4-5.7c1-0.8,1.1-0.9,1.2-1.2
			c-0.3-0.1-0.3-0.1-0.7,0c0,0-6.1,1.8-6.7,2.2C618.6,1612.6,618.5,1612.7,618.5,1612.7z M684.5,1662.1c2.8-0.2,9,7.7,9.1,7.8
			c1.5,2,3,4,4.4,3.7c3.9-0.8,9.7-15.9,9.7-16.1c0.1-0.5,0.3-1.1,0.2-1.6l-28.4-6.6c0.8-0.6,1.5-1.2,8.4-4.3c3-1.3,4.5-2,4.4-2.8
			c-0.2-2.1-10.2-11.7-15-12.5c-2.2-0.3-4.4,0.3-6.5-0.7c-2.2-1.1-1.9-4.8-5-5c-2.8-0.2-8.7,2.1-13.1,3.8c-4.4,1.7-4.5,1.7-5.2,1.7
			c-0.3-0.7-0.6-1.5-0.9-8.1c-1.8-0.7-7.4,0.2-9.1,0.6c-8.5,2.1-34,23.9-29.2,27.2c4.7,3.3,21.1-0.1,23.3-1.2
			c-0.3-1.4-0.5-2.3,6.6-3.1c6-0.7,6.9-2.2,7.5-3.2c1.5,0.8,5.4,4.2,5.4,4.3c2.1,2.3,3,5.3,4.9,7.7c2.4,3,8.1,2.7,8.1,8.2
			c0,0.1-1.2,12.4-18,17.6c-5,1.5-10.5,1.2-15.2,3.8c-2.1,1.1-2.2,4.8-1.6,5.3c0.9,0.8,3.9,1.2,12.7-1.8c6.7-2.3,6.7-2.3,18.7,3.1
			c-1,1.1-1,1.1-5.8,2.9c2.6,2.4,23.1,6.8,27.3,4.4c-0.2-0.7-0.2-0.7-1.2-1.2c-0.5-0.3-0.5-0.3-9.7-9c7.1,0.8,9.3,1.7,13.4,4.5
			c0.8,0.6,1.3,0.9,1.7,0.8c2.3-0.7,6.1-9.5,4.2-11.5c-4-4.2-11.4-3.7-13.7-10.3C675.4,1665.1,684.4,1662.1,684.5,1662.1z
			 M591.8,1620.8c0.2,0.2,1.8-0.6,3.1-1.4c0.3-0.2,0.7-0.5,0.8-0.6c0,0,0,0,0,0c-0.1,0-0.1,0-0.2,0.1
			C594.9,1619.1,591.9,1620.5,591.8,1620.8z M753,1636.2c0,0,1.1-0.5,1.4-1.3c0.2-0.5,0-0.9-0.2-1.2c-0.4-0.7-1.2-0.9-1.6-1.5
			c-0.3-0.4-0.3-0.7-0.3-0.9c0-0.1,0-0.1-0.1-0.2c0,0-0.5-0.4-2.1-0.2c-1.9,0.4-7.5,3.7-4.5,5.6c0.7,0.4,1.8,0.8,3,0.5L753,1636.2z
			 M663.8,1621.8C663.8,1621.8,663.8,1621.8,663.8,1621.8c-0.4-0.8-6.4-2.6-10.8-1.9c-3.9,0.7-2.7,3.4-1.8,4.1
			C654.1,1626.5,663.7,1621.9,663.8,1621.8z M633.4,1601.1c-1.2,0.5-3.3,1.3-3.7,1.7c0.2,0,0.4-0.1,0.6-0.1c1.9-0.6,3.8-0.5,3.8-0.5
			c-0.2,0.7-1.1,0.7-1.3,1.4c0.2,0.3,3.5-1,3.7-1.1c1.2-0.6,5-4,5-4.7c-0.5-0.2-0.9,0.3-1.4,0.3c0.4-0.9,1.5-0.8,2-1.5
			c-0.1,0-0.1,0-0.3,0.1c-3.4,1.1-7.9,3.3-8.5,3.7c0.8,0.2,1.4-0.3,2.2-0.3C635.6,1600.1,635.2,1600.4,633.4,1601.1z M616.9,1619.6
			c-0.8,0.6-1.1,0.8,0.2,1.6c1.1,0.7,3.8,0.1,6.2-2c1.3-1.2,4.1-4.1,2.8-4.2c-0.2,0-0.4,0-0.5,0.1
			C623.4,1615.7,617.3,1619.3,616.9,1619.6z M654.2,1598.7C654.1,1598.7,654.1,1598.7,654.2,1598.7c-0.2-0.1-0.3,0-0.4,0
			c-0.1,0-0.2,0.1-0.3,0.1c-1.8,0.5-3.5,1.2-5.2,1.8c-2,0.6-4.1,1-6.1,1.7c-1.4,0.5-2.3,0.8-2.6,1c0.5,0.1,6.4-0.9,9.6-1.8
			c1.6-0.5,2.3-0.8,4.5-2.3C653.8,1599,654,1598.9,654.2,1598.7z M639.6,1601.9C639.6,1601.9,639.6,1601.9,639.6,1601.9
			c0.7,0,6.7-2.6,8.5-3.4c0.8-0.4,0.9-0.5,0.9-0.8c0-0.4-0.6-0.2-0.6-0.6c0-0.2,0.1-0.4,0-0.5c0,0,0-0.1,0-0.1c0,0-0.1-0.1-0.2-0.2
			c-0.3-0.1-0.4-0.1-0.8,0.1c-0.2,0.1-0.5,0.2-0.9,0.5c-1.3,0.9-2.2,2.5-3.8,3.1C640.6,1600.7,639.9,1600.9,639.6,1601.9z
			 M653.6,1592.6c4.3-2.2,4.3-2.2,4.3-2.3c-0.2,0-0.3,0.1-0.4,0.1c0,0-4.3,1.4-5.5,2c-1.4,0.7-0.9,1.2-0.9,1.2
			C651.3,1593.7,652.3,1593.2,653.6,1592.6z M662.8,1590.6c1.8-0.6,2.4-0.7,3-0.5c0,0.1,0,0.2,0,0.2c-0.5,0.3-1.1,0.5-2.9,1.1
			c-4.9,1.6-6.2,2.2-6.5,2.4c-1.1,0.7-1.2,2.1-0.7,2.3c0.1,0.1,0.1,0.1,3.3-0.9c1.2-0.4,2.6-0.1,3.8-0.5c3-1.1,5.7-3.2,8.6-4.5
			c1.8-0.8,3.9-1.1,5.6-2c0.1-0.1,0.3-0.2,0.4-0.3c-0.1-0.1-0.1-0.1-1.4-0.4c0,0,0-0.1-0.1-0.1c0.3-0.2,0.6-0.3,0.9-0.5
			c2.5-1.2,2.5-1.3,2.6-1.6c-0.3-0.1-0.6,0-0.8-0.2c0.4-0.6,1.3-0.7,1.1-1.7c0.5-0.7,1.4-0.9,1.9-1.6c-0.2,0-0.4,0-0.5,0
			c-3,0.8-14.1,5-15.2,5.8c0.6,0.1,1.1-0.2,1.7-0.3c-0.8,0.7-3.1,1.2-4.1,1.5c-3.4,0.8-5.1,2.7-5.1,2.8
			C658.7,1591.8,662.3,1590.7,662.8,1590.6z M627.6,1619.7c0.3,0,31.2-3.2,39.3-11.6c2.2-2.2-3.2-2.6-3.3-2.6
			c-2.8-0.1-16.7,4.8-19.6,6c-2.6,1.1-4.6-1.4-4-2c0.2-0.3,0.7-0.4,1.6-0.7c5-1.4,2.5-3.1,2-3.1c-1.3-0.1-2.4,0.7-3.7,0.9
			c-1.5,0.2-2.9-0.4-4.3-0.2c-0.4,0.1-1.9,0.2-2.8,0.5c-0.8,0.3-3.2,2.9-3.2,3.5c0.6,0,0.7,0,1.9-0.4c1.4-0.5,3.3-1.2,3.7-0.9
			c0.8,0.5-1.7,3.7-1.8,3.9c-1.5,1.4-3.6,2-5,3.6C625.7,1619.8,626.8,1619.7,627.6,1619.7z M1244.3,2051.4c0-0.7,0-1.4,0.1-2.2
			c-1,14.9-1.7,20.4-2.2,24.8l-1.3,9.6l-0.2,1.5c-0.2,1.4-0.5,3.2-0.8,4.6c0.1-0.7,0.3-1.7,0.4-2.5c-0.6,3.3-0.6,3.3-12.3,29.2
			c-2-0.4-2-0.4-6.4,1.7c-1.3-41.5,10.3-83-0.6-124.4c-0.3,1.5-1.3,3.4-2.4,4.4c-1.1-7.9-1.1-7.9-2.2-9.6l4.5,54.9
			c1.5,17.4-1.8,34.7-1.5,52.1c0.1,6.7,1.6,13.3,0.8,20.1c-2,18.2-2,18.2-1.1,19.6c4.3-0.9,4.3-0.9,6.8-0.1
			c-15.1,52.8-47.2,66.6-59.3,96.9c-1.5,3.8-16.2,34.5-32,50c-6.6,6.5-15.6,9.5-22.3,15.9c-5.8,5.5-9.1,13.2-14.6,19l-24.2,19.8
			l-19.2,13.8c-4.8,3.3-19.3,13.5-31.7,9.6c2.7-6.4,4.2-7.9,6.8-10.7c3.9-4.1,4.6-4.8,28.7-48.8c6.2-11.3,7-24.8,13.7-35.9
			c7.2-11.9,17.7-21.6,23.2-34.8c11.9-28.6,9-41.6,6.9-51.1c-3.4-15.3,13.7-25.1,8-42.6c-3.8-1.2-8.3,0.3-11.7-2.8
			c-3.5-3.1-0.9-8.6-4.5-11.7c-0.5-0.4-1.2-1-1.9-1c-19.8-2.2-38.4,5.3-57.8,7.1c-3.9,0.4-24.4-19.7-27.2-25.5
			c-6.5-13.9-14.1-27.3-19.6-41.7c-3.7-9.6,7.9-13.6,7.8-21.9c-0.2-9.9-6.7-18.4-5.8-28.6c0,0,21.4-37.9,24.3-42.7
			c1-1.6,9-8,13.7-10.3c5.2-2.6,5.2-2.6,6.2-22.4c0.1-1.8-0.4-4.5,0.6-6c3.4-5.1,10.2-5,13.9-9.7c2.9-3.8,0.7-9.1,3.7-12.8
			c0.5-0.6,1.4-1.3,2-1.8c0,0,0.1,0,0.9,0.6c4.9,6,6.4,5.7,10.9,4.8c0.3,0,0.6,0,2.4,0.2c15.9,5.6,28.9-12.3,44.9-5.9
			c0.7-1.3,2-2.8,3-3.8c12.3,2.9,12.3,2.9,15.3,0.6c2.2,1.2,3,1.6,6.6,4.1c1.4,18.6,1.4,18.6-0.4,21.6c-0.8,1.3-1.8,3.6-1,4.8
			c2.4,4.1,36.2,35.5,39.3,37.9c0.6-0.3,1.5-0.6,2.1-0.9c2-5.4-0.3-11.4,2.6-16.6c15.4,0.3,14,22.1,28.7,23.2
			c0.8-0.9,2.6-1.6,3.8-1.6c1.4,4.4,2.1,5.4,6.6,5.8c3.4-8.5,3.1-13.3,1.4-44.8c-1.2-0.5-2.7-1.6-3.6-2.5c-0.1,1.4-0.5,3.2-1,4.5
			c-3.8-2.3-4.9-7-8.1-9.8c0,0.7,0.1,1.6,0.1,2.2c-0.5,0.5-1.1,1.1-1.6,1.6c-10-8.6-12-24.1-13.1-32.4c-0.6-0.2-1.4-0.4-2-0.6
			c-0.1-1.5,0.1-3.5,0.3-5c2.7-1.4,6-0.1,8.4-2.2c-0.9-0.9-1.8-2.4-2.1-3.7c1.3,0.3,3,0.8,4.3,1.2c0.9-0.9,1.5-2.7,1.6-4
			c10.7-2.9,10.4,12.1,17,16.6c0.6-0.3,1.4-0.8,1.9-1.1c0.5-16.6-12-27.4-17.5-41.4c0.4-0.6,0.9-1.3,1.3-1.9c-1.8-7-1.8-7-2.9-8.9
			c0.3-0.6,0.8-1.5,1.1-2.1c-1-2.7-1.6-3.8-5-3.1c-2.3,6.6,9.2,14.6,1.5,19.1c-1.8-2.6-2.8-5.7-4.8-8.1c0.7-4.4,0.7-4.4,0.1-7.3
			c-2.3-1.4-3.2-2.1-5.2-4.4c0.3-0.6,0.6-1.4,0.9-2c-1.1-0.5-2.9-0.6-4.1-0.2c-2,16.2,9.4,30.3,7.2,46.5c-0.7,0-1.6,0.1-2.3,0.1
			c-0.4,1.3-1.2,3-1.9,4.2c-1.4-5.2-7.9-9.2-11-9.9c-1.7,1.3-1.7,1.3,1.8,19.2c1.1,5.5,3.2,10.8,3.2,16.5c0,1.4-0.1,3.3-0.3,4.7
			l-10.2-24c-9.6-28.3-9.6-28.3-9.8-28.5l-32.4-38.9c-1.2,0.5-2.6,1.7-3.3,2.8c14.3,29.8,18.5,31.8,23.9,34.2
			c-0.2,0.7-0.4,1.6-0.5,2.2c11.4,14,11.4,14,12.1,17.6c-0.9-1.2-2-2.8-2.9-4c-0.7,0.2-1.5,0.4-2.2,0.6c-0.1,2.7-0.1,2.7,2.1,10.3
			c-1.7,2.8-2.4,6-4.2,8.7c-0.6-0.1-1.5-0.2-2.1-0.3c-0.7,3.9,1.7,7.7,0.5,11.7c-0.1,0-8.7-7.7-11.4-12.5c14.2-2,15.4-2.2,12.9-10.5
			c-3.3-11.1-37-50.7-37.3-50.9c-6.1-5.4-9.4-0.8-13.3,6.3c-4.3,0-7.9-6.3-12.5-2.4c-1.1,0.9-1.1,0.9-1.2,14
			c-9.9,4-10.1,4.1-14,20.3c3.6,5.8,1.9,14.4-4.7,15.3l-24.1,8.2c-0.1-0.2-0.1-0.2-1.8-7.3c-4.4-1-6.6-0.8-16.9,0
			c0.2-1.1,0.2-1.1,1.6-13.6c-5.1-1.5-6.7-41.9-6.7-42.3c-1-1.1-2.1-2.7-2.8-4c14.7,1.5,29,6.1,43.8,7.2c0.2-0.3,5.2-33-26.6-42
			c0.6-0.4,1.3-0.9,1.8-1.3c-1.3-1.2-3.1-2.8-4.4-4c0.3-0.6,0.7-1.5,0.9-2.1c5.3,0.1,5.3,0.1,8.6,2.3c1.4-0.4,3.3-1.1,4.7-1.7
			c0.2-0.7,0.5-1.6,0.7-2.3c-0.9-1.2-2-2.9-2.7-4.3c3,2.2,4.1,3,10.8,3.4c0.6-1.3,1-3.4,1-4.8c1.6-0.5,3.6-1.5,5-2.5
			c-2.5-6.3-2.5-6.3-2.6-6.7c3.3-1.3,3.3-1.3,9.2-1.1c0.3-0.6,0.8-1.4,1.1-2.1c-2.4-6.7-3-10.4-3.4-12.3c1.9-1.9,1.9-1.9,9-1.7
			c0.4-0.6,0.9-1.3,1.3-1.9c1.3-0.2,3.1-0.5,4.4-0.8c1.9-0.4,2-0.4,2.3-0.8c-0.1-0.2-0.2-0.6-2.7-3.6c-6.3-7.4-15.2-23.3-15.7-24.7
			c-1.2-3.4,5.7-3.4,6-3.4c2.4,0.3,5.7,9.6,5.6,11.8c-0.2,5.3,4.1,11.5,7.7,15.8c5,5.8,5.4,5.8,7.1,5.7c5.2-0.3,8.1,2,9.2,2.8
			l-6.4-1.2c3.7,0.8,7.2,1.8,9.9,3.4c0.6-0.3,1.3-0.8,1.8-1.2c0.1-1.3,0.1-1.3,13.4-0.4l0.1,0c-0.1-0.2-0.3-0.5-0.5-0.7
			c0.4-0.9,0.5-1.9,0.9-2.8c0.6-0.2,0.6-0.2,3.4,0.1c0.3-2.2-3.6-7.3-4.3-8.3c-0.6-0.8-6.3-11.4-6.3-11.5c0.2-0.2,0.4-0.6,0.5-0.8
			c5.1-0.4,5.4,6.6,10.1,6.8c-3.7-7.6-10.6-12.6-15.3-19.4c4.4,0.6,8.4,2.4,12.6,3.7c-0.5-0.8-1.1-1.6-1.6-2.5
			c0.2-0.1,0.5-0.3,0.7-0.4c1.2,0.4,2.2,1.2,3.5,1.3c-7.3-6.8-18.2-5.8-25.4-12.6c-8.3-7.9-8.3-7.9-17-27.8c0.3,0,0.6-0.1,0.9-0.1
			c-0.8-2.4-12.1-10-15.4-11.1c-0.1,0.2-0.3,0.5-0.5,0.7c0.2,0.4,0.3,0.8,0.5,1.2c0.3,0.6,0.3,0.6,9.3,10.2
			c3.5,3.7-0.4,8.6,1.9,12.5c6.2,10.2,6.2,10.2,10.7,13.2c6.6,4.4,6.8,5.3,6.7,7.6c-2.5,2.4-3.7,3.5,1.3,13
			c2.2,4.2,1.8,13.3,1.1,14.6c-3.5,0-5.4-3.3-7.4-6.7c-4.2-7.3-26.8-30.2-27.9-31c1,3.3,3,10.2-1.1,12.1
			c-12.6,6-26.3-26.8-26.4-27.1c-1-2.5-1.1-3.2,0.8-4.6c5.1-3.7,5.1-3.7,6.4-13.3c0.1-0.4,0.3-3.9-6.2-14.2
			c-0.1-0.1-8.8-15.9-9.2-18.7c-0.2-1.9-0.2-1.9,1.1-4.9c-0.7-1.7-2.6-2.6-3.3-4.3c3.8,1.4,5.7,5.4,9.4,6.8
			c-1.8-2.2-1.8-2.2-2.3-3.4c0.8,0.2,11.7,5.3,12.7,7.8c-0.5-0.2-1.2-0.4-1.8-0.6c5.9,4.1,7.4,4.7,8.2,5c0.2-0.2,0.4-0.4,0.6-0.5
			c2.5,1.5,3,2,4,2.8c-0.5-0.2-1.1-0.5-1.7-0.7c0.9,0.9,1.9,1.8,10.8,7.3c12.4,7.7,31.2,24.3,32.8,27.2c-6.7-3.2-11.6-9-17.8-12.9
			c12.4,10.1,22.8,22.3,35,32.6c0.2-0.1,0.5-0.3,0.7-0.5c-2.9-3-6.6-5.1-8.6-8.9c1.2,0.9,2.4,1.9,3.7,2.7c-7.3-7.7-7.6-8.1-8.3-9.2
			c0.7,0.6,1.3,1.2,2,1.8l0,0.1l17.6,18.2c16.4,18.1,16.9,18.8,43.4,55.8c6.2,9.5,13.6,22.6,19.4,32.3c-4.1-6-9.5-10.9-16.1-15.2
			c7.1,4.7,11.9,9.6,16.1,15.2l15.1,30.2c6.7,14.9,9,20.1,14,35.1c-0.1-0.1-0.1-0.1-0.2-0.2c0.2,2.3,0.2,2.3,14.3,50.2
			c-0.1-0.1-0.2-0.3-0.2-0.4c5.8,35.2,6,36.8,9,46.8c0.5,3.2,1,6.7,1.5,10.4c1.3,12.5,1.8,29.3,2.5,41.9
			C1245.7,2022.4,1244.8,2038.5,1244.3,2051.4z M1244.3,2048.9c0.3-14.4-0.5-39.3-2.4-42.3c-0.7,4.3-1.2,7.4,0,41.1
			c0.3-2.2,0.3-2.2,0.7-7.1c-0.6,15.6-0.6,15.6,0.2,17.5C1243.5,2055.7,1243.7,2054.8,1244.3,2048.9z M1233.3,1910.5
			c0.1,0.6,0.3,1.3,0.4,1.9l2.2,10.1c0-0.2-0.1-0.3-0.1-0.5c0.8,6,1.9,11.9,3.1,17.8c-3.4-22.1-4.6-26.6-9.6-45.1
			c-0.9-2.8-1.7-5.5-2.5-8c5.2,18.1,5.3,18.8,7.5,28.3C1233.9,1913.5,1233.6,1912,1233.3,1910.5z M1225.4,1882
			c0.2,0.6,0.4,1.2,0.7,1.7c-0.7-2.2-1.5-4.3-2-6.5c0.2,0.7,0.5,1.4,0.7,2.1l-5.2-15.9l0.1,0.2c-0.6-1.7-0.8-2.1-1-2.4
			c2.1,6.3,4.6,14.2,8.1,25.3C1226.3,1885.2,1225.9,1883.7,1225.4,1882z M1241.9,1959.1c-0.7-6.5-1.8-12.9-3.1-19.3
			c0.7,5,1.6,10.8,2.7,17.9C1241.7,1958.1,1241.8,1958.6,1241.9,1959.1z M990.8,1747.3c0,0.1-0.1,0.3-0.2,0.4
			c-1.7,3.3-2.8,9.6-2.9,9.7c-0.4,2.5-0.3,3.7,0.5,4.8c1.4,1.7,8,1,12.8-2.1c1.2-0.8,2.3-1.7,3.6-2.4c1.5-0.8,3.5-0.2,4.7-1.9
			c0.7-0.9,0.4-3.1-0.8-6.4c-0.6-1.7-1.3-2.8-2.1-3.9c-1.2-1.9-1.3-2.6-0.5-4.5c0.3-0.8,0.9-2.2,0.5-4c-0.5-1.7-1.8-2.9-2.8-3.6
			c-0.5-0.3-1.2-0.8-1.8-1c-1.5-0.7-3.2-1.1-4.7-1.8c-1.1-0.5-1.5-0.9-1.7-1.1c-0.1-0.1-0.2-0.2-0.3-0.2c-0.4,0.1-10.3,2.6-4.1,6.2
			c0.4,0.2,0.6,0.4,1.5,0.4c-0.2,0.2-0.6,0.4-0.9,0.6c-4.1,2.1-5.1,3.1-6,4.1c-0.7,0.7-1.4,1.9-1.1,3.7c0.2,0.7,0.6,1.6,2.2,2.4
			C988.1,1747.2,989.5,1746.9,990.8,1747.3z M578.9,1628.1C578.9,1628.1,578.9,1628.1,578.9,1628.1
			C578.9,1628.1,578.9,1628.1,578.9,1628.1c-0.9,0.5-8.8,5.2-9.2,5.7C570,1633.8,570.5,1633.8,578.9,1628.1z M1200,1938.4
			c0.1,0,0.1-0.1,0.2-0.1c0-0.1,0-0.1,0-0.2s-3.8-5-3.8-5c-0.7-0.8-1.4-1-1.6-1.1c-1.2-0.3-2.5-0.3-3.7-0.7
			c-2.1-0.8-2.1-0.8-2.3-0.8c-1,0.1-1.2,0.9-0.7,1.9C1189.3,1934.7,1197.7,1939.2,1200,1938.4z M1120.1,1877.8
			c0.8,0.9,2.4,0.4,2.7,2c0.3,1.4-0.2,2.8,0.1,4.2c0.3,1.1,1.1,1.3,1.4,1.4c0.9,0.2,5.5-1.3,5.6-5.1c0-0.4-0.1-1-0.1-1.4
			c-0.2-1.6-0.8-3.1-1-4.6c-0.2-1.7-0.1-3.4-0.4-5.1c-0.4-2.7-1.3-3-2.2-3.1c-1.5,0-5.1,1.4-6.3,3.8
			C1119.2,1871.5,1119,1876.6,1120.1,1877.8z M1097.2,1877.1c0,0,1.9-2.1,1.9-2.2c0.2-0.8-1.1-1.4-3.4-1.7c-2.5-0.2-6.4,0.3-4.9,2.1
			c0.9,1,4.1,2.4,5.4,2.3C1096.7,1877.6,1096.9,1877.4,1097.2,1877.1z M1120.1,1855.8c-0.4,0.3-0.8,0.7-0.6,1.5
			c0,0.3,0.3,0.9,0.7,1.3c0,0,3.6,4.3,3.8,4.4c0.8-0.4,0.1-6.9-0.6-10.2c0-0.1-1.1-5.2-1.8-5.6c0,0-0.1,0-0.1,0
			c0,0.1-0.2,0.2-0.2,0.5c0,0.1-0.1,0.2-0.1,0.3c-0.3,1.6,0.3,3.2,0.3,4.8C1121.4,1854.7,1120.6,1855.3,1120.1,1855.8z
			 M1214.7,1949.9c0,0,2.1,0.4,2.3,0.2c0.3-0.3,0.8-5.2,0.8-5.2c0-0.1,0-0.2,0-0.3c0-0.5-0.1-0.6-0.2-0.6c-0.6,0-1.1,0.4-1.8,0.4
			c-0.4,0-0.9-0.2-1.3-0.4c-0.6-0.3-0.9-0.9-1.5-1.2c-0.5-0.2-0.7,0.1-0.8,0.2c-0.6,0.8,0,4.5,1.5,6.2
			C1214.1,1949.7,1214.5,1949.9,1214.7,1949.9z M534.4,1662.1c0,0.1,0.1,0.1,0.2,0.2c0.2,0,0.4-0.1,0.5-0.2c2.5-1.8,4.7-4,7.2-5.8
			c4.5-3.2,9.4-5.9,13.9-9.3c1-0.8,1-0.8,2.4-3.3c0-0.1-0.1-0.2-0.1-0.3c-1.6,0.3-2.7,1.5-4.1,2.2c1.1-1,1.1-1,1.3-1.8
			c-0.1,0-0.1-0.1-0.2-0.1c-0.2,0.1-0.4,0.1-0.5,0.2c-5.6,2.4-5.6,2.4-30.2,23.1c-2.2,1.8-3.8,3.2-5.6,7c0.1,0,0.2,0.1,0.2,0.1
			C525.2,1671.2,529.3,1666,534.4,1662.1z M568.9,1638.1c0.6,0.1,2.6-1.1,4.5-2.2c7.6-4.4,11.5-6.1,11.5-6.1c2.5-1,5-1.7,7.4-2.9
			c1.9-1,8.9-6,9-6.1c1.4-1,1.5-1.1,1.6-1.4c-1-0.1-2.1,0.6-2.1,0.6c-2.2,1.2-4,3-6.2,4.2c2.7-2.7,5.8-4.9,8.4-7.7
			c-0.1,0-0.2,0-0.3,0c-0.1,0.1-8.9,4.7-9.2,5.9c-0.2,0.9-1.4,3.2-8.1,4.8c0-0.1-0.1-0.1-0.1-0.2c0.2-0.2,0.3-0.4,0.5-0.6
			c0.1-0.1,0.1-0.1,0.2-0.2c0.9-1,4-1.6,2.8-3.1c-0.2,0-18.2,8.9-18.3,11.5c0.1,0.1,0.1,0.1,8.7-4.8c-0.9,1.5-2.5,2-3.7,3
			c0.2,0,0.3,0,2.4-1.2c0.6-0.3,1.6-0.9,3.8-1.7c-2,1.4-8.4,4.8-12,6.5C568.2,1637.3,568.2,1638.1,568.9,1638.1z M518.8,1683.8
			c1.3,0.3,2.3-0.8,3.5-0.8c0.1,0.1,0.1,0.2,0.2,0.2c-0.6,1.6-2,2.5-2.8,3.9c1.5,0,13.6-5.5,20.5-11.2c2.2-1.8,3.1-2.6,4.3-3.1
			c0.1,0.1,0.2,0.1,0.3,0.2c-0.6,1.1-0.6,1.1-0.6,1.3c0.6,0.6,5.2,1.6,5.2,1.6c4.3-1.5,4.3-1.5,8.5-6.3c0.1-0.2,0.2-0.2,0.2-0.2
			c-0.5-0.1-0.5-0.1-4.5,2.1c0.4-1.4,4.7-4.7,7.5-4.6c1,0.1,1.2,0,1.6-0.3c0,0,2.2-2.1,1.8-3.9c-2.3-1.3-3.2-3.9-2-5.4
			c1.1-1.3,10.4-13.1,10.2-14c-0.4-0.2-0.9-0.3-1.4-0.5c-0.1-0.1-0.1-0.3-0.2-0.5c0,0-0.1,0.1-0.1,0.1c-4.3,3.7-7.3,8.9-12.3,11.9
			c-0.5-2.1,1.7-2.8,2.3-4.3c-0.1-0.1-0.3-0.2-0.4-0.3c-2,0.8-3.6,2.3-5.8,2.8c0.6-0.9,1.6-1.6,2.1-2.6c-0.1-0.1-0.2-0.2-0.2-0.2
			c-2.8,0.9-4.9,3.1-7.6,4.2c1.7-2.4,4.4-3.4,6.3-5.5c-1.7,0.2-23.8,14.8-23.3,17.6c0.3,0.1,0.6,0.3,0.9,0.5
			c-0.4,0.7-0.4,0.8-3.1,2.4c-4.4,2.7-4.6,3.3-4.6,3.9c0.2,0.1,0.6,0.2,0.8,0.1c2.5-0.5,4.5-2.2,6.9-2.7c1.7-0.4,3.5,0.4,5.2,0
			c-3.1,2.4-7.2,3.7-9,4.3C517.8,1678.1,516.7,1683.3,518.8,1683.8z M620.1,1705.3c0.4-1-0.6-1-1.4-0.8c0,0-3.4,0.7-4.2,1.7
			c-1.2,1.5-0.9,3.7-0.4,4.1C615.3,1711.4,619.6,1706.7,620.1,1705.3z M614.5,1697c0.1-0.1,0.6-0.3,0.8-0.7c0.4-0.8-0.2-2.1-0.6-2.5
			c-0.7-0.7-1.7-1.1-2.4-1.9c-1.2-1.3-1.8-3.1-3.2-4.2c-0.2-0.2-0.5-0.4-0.8-0.5c-1.4-0.9-3.1-0.7-4.5-1.6c-0.9-0.6-0.9-1.8-1.8-2.4
			c-0.1-0.1-0.3-0.1-0.4,0c-1.3,0.6-5.6,6.8-5.8,7.1c-0.6,0.8-1.3,1.9-1.8,2.7l-4.7,7.8c2.8,0.2,2.8,0.2,3,1.7
			c0.3,1.8,0.3,1.8,0.5,1.8c0.4-0.1,1.1-0.7,2.7-2c2.2-1.9,5.9-5.1,10.2-5.6C608.6,1696.5,611.5,1698.1,614.5,1697z M606.7,1702.4
			c-0.1,0-6.3,1.4-8.3,3c-1.2,1-1.4,3.6-0.7,4.1c1.3,1,9.1-3.8,10.5-6C608.7,1702.8,608.8,1702,606.7,1702.4z M590.8,2059.6
			c-2.4,1-1,4.8,0.4,5.3c1,0.4,7.1,1.5,7-1.1C598.1,2062.2,593.8,2058.9,590.8,2059.6z M1019.3,1745.6c-0.4,0.1-0.4,0.3-0.2,0.8
			l3,0.2C1020.5,1745.9,1019.8,1745.6,1019.3,1745.6z M731.4,1777.8c2.8-3.8,4.1-6.3,3.7-7.5c-0.2-0.1-0.4-0.1-0.5-0.1
			c-1.5,0.5-5.7,4.1-8.9,8.1c-3.9,4.9-6.5,10.6-10.3,15.5c-2,2.6-4.8,4.5-6.7,7.2c-0.7,1.1-0.1,1.3,0.2,1.5c0.5,0.3,0.5,0.3,12,1.2
			c6.5,0.5,11.4,1.1,16.5,2.6c0.6,0.2,1.4,0.4,2,0.5c1.9,0.1,3.8-1.8,5.6,0.2c0.9,1,1,2.8,1,3.9c0.1,1.3,0.7,1.4,1,1.3
			c1.8-0.2,4.1-3.8,4.3-6.9c0.4-4.9-3.3-12.6-7-16.6c-1.9-2.1-1.9-2.1-8.6-0.6c-2,0.5-2.5,0-3-1.7c-0.9-3.3-1.7-3.9-2.9-4.6
			c-0.7-0.3-0.7-0.6-0.3-1.2C729.9,1779.6,730.8,1778.6,731.4,1777.8z M999.2,1716.7c0.4,2.4-1.4,4.6-0.5,7.1
			c0.7,0.3,2.2,0.1,5.4-2.3c1.2-0.9,2.2-1.7,3-1.2c3.3,1.8-0.5,5.4,0.6,8.1c2.3,5.3,4.9,6,8.3,6.9c5.3,1.4,6,1.6,6.9,2.3
			c0.2,0.9-0.3,1.8,0.1,2.6c1.4,2.6,3.9,4.3,5.2,7.1c0.7,2.8-2.7,1.2-5.1,0c-1-0.5-1-0.5-4-0.7c1.2,3.5,5.1,5.2,5.9,9.1
			c0.4,2.1-1.5,3.1-4.2,4.5c-0.7,0.3-1.8,0.9-1.4,1.7c0.2,0.4,1.4,1.8,7.8,1.7c2.7-0.1,8.4-0.2,8.6,1.7c0.1,1.7-1.2,1.7-3.1,1.7
			c-1.9,0-2.5,0.5-3.2,1.2c-1.4,1.3-1.6,3.3-2.8,4.7c-1.5,1.7-3.5,2.8-5.1,4.5c0,0.2,0,0.4,0.1,0.5c0.9,0.2,0.9,0.2,13.1-1.4
			c6.2-0.8,12.5-0.3,18.7-1.2c0.1,0,0.2,0,0.2,0l10.7-3.7c0.1-0.1,0.1-0.3,0.1-0.4c-2.2-2.2-5-0.3-7.4-1.1c-1.2-3.3,1.8-6.3,0.6-9.6
			c-2.2-5.9-4.4-5.8-6.3-5.7c-4.1,0.2-6.9-5.7-6.9-5.8c0-0.1,0.1-0.2,0.1-0.3c0.3-0.1,0.3-0.1,3.5,0.7c1.5,0.5,3.5,1.2,3.3,0.5
			c0,0,0-0.1,0-0.1c-0.2-0.3-0.6-0.8-1.7-1.8c-5-4-11.3-5.9-15.9-10.6c-2.2-2.2-3.8-5.1-6.4-6.8c-4.6-3-8.9-3.7-11-3.7c0,0,0,0,0,0
			c2.7-2.5,6.3-14.7-1-15c-1.3-0.1-2.8,0.2-3.8,0.3c-4.6,0.6-5.4,0.7-5.5-0.5c-0.1-2.5,4-7.1,0.7-7.3c-0.1,0-9.1,0.2-10.4,3.4
			c-0.1,0.3,0,0.8,0.1,1.1C996.8,1711.5,998.7,1713.8,999.2,1716.7z M404.8,1836.9c1.2-2.8,1.8-5.7,2.9-8.5c0.6-1.7,1.4-3.3,2-5
			c0.1-0.2,0.1-0.4,0.2-0.6c0-0.1,0.5-1.6-0.2-1.4c-0.1,0-0.3,0.1-0.4,0.2c-2.4,2-5.2,14.9-4.7,15.7
			C404.6,1837.2,404.7,1837.1,404.8,1836.9z M940.3,1655.4c0-0.2,0-0.4,0-0.5c-0.5-0.9-2-2.7-3.7-3.4c-0.3-0.1-0.7-0.3-1-0.3
			c-2.6-0.7-5.4-0.1-7.9-1.1c-1.8-0.8-3.2-2.6-5.3-2.5c-2.5,0.6-4.9,1.7-7.4,2.3c-2.4,0.6-5,0.4-7.4,1.3c-1.5,0.5-0.4,2.5-1.6,3.2
			c-1.3,0.8-2.6-0.7-3.9,0.1c-0.2,0.1-0.5,0.3-0.6,0.4c-0.5,2.2,1.4,4.7-0.9,6.7c-0.7-0.3-6.2-4.9-7.1-6.7c-2-4-10.8-6.4-13.2-4.5
			c0.7,2,3.1,1.6,4.2,3.1c-0.7,2.9-4.1,2.5-5.4,4.5c0.8,0.6,3.5,0.2,5.1-0.1c2.7-0.5,11.2,2.5,6.5,6.5c2,2.6,4.8,0.4,7,1.1
			c2.4,0.7,2.4,1.6,2.4,3.8c0.6,0.5,1,0.7,5.8,0.2c3.1-0.3,4.2-0.4,5.2-0.3c2.3,0.2,4.4,1.2,6.7,1.3c0.3,0,0.7,0,1,0
			c0.8,0,1.9,0,8.3-1.6c5.7-1.4,14.5-7.9,14-9.8c-0.3-1.2-1.3-2.1-1.7-3.3C939.6,1655.3,939.6,1655.3,940.3,1655.4z M598.5,2049.1
			c2.5,3.4,18.2,4.6,18.5,2.7c0.1-1-20-24.8-20.2-24.9c-2.1-1.5-8.3-5.9-19.9-3.5c-6.5,2.2-11,6.7-11,6.8c0.8,0.8,5.8,0.1,9.9-2.3
			c5.8-3.4,9.7-1.5,10.1-0.4c-0.3,0.6-1.1,1.4-3,0.4c-0.1,0.1-0.2,0.1-0.2,0.2c0.2,2.9,4.9,4.1,8,4.9c5.7,1.5,6.1,2.7,7.2,6.4
			c0.6,1.8,1,3,2.2,4.5c0.8,1.1,1.4,1.8,1.5,2.5C601.6,2048.1,599.4,2048,598.5,2049.1z M623.5,2068.8c1.6,0.9,0.3,4,2.6,4.2
			c4,0.4,3.6-5.1,7-5.5c0.4-0.1,0.7,0,1.9,0.2c6.2,1.1,16.8,1.4,16.8,1.4c0.5-0.1,0.9-0.2,0.9-0.7c0.1-1.8-1.4-3.4-0.9-5.2
			c1.5-5.9-27.8-8.5-29.7-8.1c-0.5,0.1-0.5,0.2-0.7,0.4c0,0.4,0,0.4,0.4,0.9c4.3,4.1,2.9,8.8,2.7,9c-0.5,0.5-2.9,0.1-6.1-0.4
			c-5.9-1-6.5-0.8-6.8-0.7c0.1,0.1,0.1,0.3,0.2,0.3C615.5,2066.7,619.9,2066.7,623.5,2068.8z M682.5,1790.6c-2.5,1,3.2,3.8,4.4,4.4
			c7.6,3.6,10.2-0.3,10.2-0.3C698,1792.5,685.2,1790.1,682.5,1790.6z M1155.3,2272.2c-8.3,10.9-8.5,11-13.9,13
			c-4.4,1.6-5.8,3.7-12.5,13.6c-3.3,4.9-4.6,5.9-7.9,8.6c-10,8.1-23.6,25.8-24,27.2c3.6,0,3.6,0,17.5-13.5
			c11.3-11.1,21.2-23.4,32-34.9c0,0.3,0,0.3-1,1.9c0.4-0.3,0.4-0.3,1.5-1.6c2.5-3.3,10.3-14,11.6-17.9c-0.1,0-0.2-0.1-0.3-0.1
			C1157.3,2269.5,1157.3,2269.5,1155.3,2272.2z M877.5,2197.7c0,0.2,0,0.5,0,0.7c0,0.2-6.1,19.2-23.2,25.5c0.1,0.6,0.5,1.3,0.9,1.8
			c1.9,2.6,0.9,4.1-1.8,8.2c-2.3,3.5-0.2,7.1-0.4,10.7c-0.3,6.4,0.3,12.8-0.6,19.1c-0.4,2.9-0.6,2.9-3.6,2.5c-1.7-0.2-3.8-0.2-6.1,2
			c-5.1,4.8-5.2,13.5-12.5,16.6c-3.2,1.4-10.9,5.2-13.8,11.7c-0.1,0.5-8.8,51.2-29.2,51.8l2.6,3.8c2.3,3.5-0.7,11.1-9.7,8.3
			c-0.4,0.2-0.9,0.6-1.3,0.8c0.4,3.7,0.4,3.7-4.7,8.3c6.6,9.4,6.6,9.4,6.7,9.9c-5.5-0.2-5.5-0.2-6.7,0.2
			c7.6,21.4,7.6,21.4,11.6,25.8c-2.7,12.6-2.7,12.6,26.2,27.8c-0.3,0.1-30.4,5-61.5-39.8c-24.5-35.3-38.6-100-38.8-100.6
			c-2.6-13.6-8-24-15.2-29.3c-9.5-7-21.7-8.8-30.6-16.7c-0.3-0.3-37.1-37.5-46-51.1c-0.5-0.8-1.1-1.9-1.6-2.8
			c-2.8-5.2,3.8-32.8,3.9-33.1c6.8-15.4,6.8-15.4,6-19c-2.7-11.7-10.2-36.6-22.3-15.8c-27.3,1-37.7-30.6-62.6-34.2
			c-0.8-0.1-2-0.3-2.8-0.4c-5.6-0.6-5.6-0.6-21.5-9.9c-6.9-4-14.5,0.1-21.5-1.6c-6.9-1.7-14-2.8-20.8-4.6c-2-0.5-4.4-1.9-6.3-2.6
			c-1-0.4-2.5-0.9-3.4-1.6c-6.7-4.8-5.1-13.3-8.4-19.7c-4-7.9-12.2-11.9-17-19.1c-3.7-5.5-8-10.6-11.5-16.3
			c-1.6-2.7-2.5-6.9-3.4-10.7c-1.1-5.3-2-9.4-10.6-15.8c6.8,28.3,10.9,34.2,14.4,39.3c7.8,11.4,6.2,13.8,4.7,16.1
			c-0.1-0.2-17.2-22.7-19.5-27.7c1.4-0.1,3.2-0.1,4.6-0.2c-19.3-40.5-19.3-40.5-20.5-40.7c-8.9-15.9-4.2-101.1,9.1-118.1
			c1.1,0.6,2.6,1.3,3.6,2c0.2-3.4-0.9-6.5-2-9.7c0,0.1,0,0.1,0,0.2c0,0.5,0.1,1.1,0.1,1.6c0,0.4-0.1,1.2-0.4,2
			c-0.4,0.9-0.9,1.4-1.5,1.6c0,0-2.3,0.4-3.2-2.8c-1.1-3.9-0.1-8.7-0.1-8.7c0,0,0,0,0,0c0.4,0.1,0.9,1.8,1,2.3
			c0.3,1,0.3,1.1,0.5,1.2c0.2,0.2,0.4,0.2,0.9,0.3c1,0.1,1.6,0.2,2,0.4c-1-3-1.8-6.1-1.1-9.4c2.7-13.9,2.7-13.9,5.2-22
			c-0.4-0.6-0.8-1.4-1.2-2c0.5-1.6,1.2-3.8,1.7-5.4c1-5.6,1-5.6,8.9-25.9c-0.2,0.3-0.4,0.6-0.6,0.9c11.7-19.9,12.3-20.7,38.9-56.2
			c6.2-7.1,14.4-16.6,20.6-23.7c-0.4,0.6-1,1.3-1.3,2c10-10.2,18-16.3,18-16.4c-3.6,3.4-7.4,6.5-11,10c0,0,0,0,0,0
			c11.2-9.7,11.2-9.7,17.3-15.5c-3.6,4.5-3.6,4.5-4.7,7c2.2-2.2,2.2-2.2,3.6-3.2c-0.5,0.6-1.1,1.6-1.4,2.3c2-1.4,3.5-3.6,6-4.2
			c0.5,0.5,1.2,1.2,1.6,1.8c3.6,0.4,3.8,0.3,5-0.4c0.3,0.2,0.7,0.4,1,0.5c-0.9,3.8-4.6,4.7-6.9,7c5.5,0.8,9.7-3.4,14.8-4.2
			c0.3,2.7-2.1,5-1.1,7.8c5.6-11.1,8.4-16.7,17.8-19.2c0.8,1.1,0.7,2.6,1.4,3.7c11.6,0.6,14.8-1.5,15.3-1.9
			c9.4-7.6,9.4-7.6,12.3-6.8c-5,5.5-5,5.5-2.3,8.4c2.9-6.8,10.6-8.9,14.1-15.1c-0.3-0.1-0.7-0.2-1.1-0.2c0,0,0,0,0,0s0,0,0-0.9
			c1.7-1.7,2.3-2,5.9-3.8c-0.1-0.3-0.2-0.8-0.3-1.1c-1.8,0.1-3.5,0.5-5.2,0.5c-0.2-0.4-0.4-0.8-0.6-1.2c0.2-0.3,22.5-32.1,39-36
			c2.3-0.4,2.3-0.4,3.8-0.2c-20.7,12.4-20.7,12.4-25.1,19.4c0.3,0.3,0.8,0.6,1.2,0.9c0,1.6,0,1.6-7.8,14.3c4.5,0.2,4.5,0.2,4.7,0.3
			c-0.1,0.1-5.2,6.9-4.3,9.4c3.7-3.3,5.7-8.5,10.7-10.4c4.4,4.7-5,7.8-5.7,12.6c7.9,7.2,12.5-8.3,19-12.1c3.5-15.6,14-4.6,14.2-4.5
			c-0.6,1.2-0.7,2.5-1.5,3.6c-1.5,1.6-4.1,1.4-5.2,3.5c-1.2,2.3,1,4.8-0.3,7.1c-0.5,0.8-1.3,1.8-2,2.4c-3.3,2.9-3.3,2.9-15.8,7.6
			c-3.7-2.4-7.3,2-7.3,2c0.7,0,1.5,0.4,2.1,0.8c-5.4,8.6-14.7,3.9-21.8,6.6c6,3.5,7.6,3.2,15,1.9c-11,11.9-11,11.9-30.2,15.4
			c1.9,1.5,5.2,0.2,6.3,3.2c-9.9,7.5-33,25.1-31.4,34.8c7.3,0.6,7.3,0.6,7.9,3.8c1.5,9.1,1.5,9.1,2.7,10.1c3.4-1,6.2-3.9,10.1-3.3
			c0.8,0.1,1.8,0.4,2.5,0.7c4.3,1.5,6.6,6.2,11,7.4c4.4,1.2,9.3-2.4,13.4,1.6c0.8,0,1.8,0.1,2.5,0.2c0.1,0.4,0,1.1,0.1,1.5
			c-0.7,0.5-1.8,1.5-2.4,2c1.3,3.2,2.3,5.8,0,12.8c4.3,3.1,9.8,4.5,12.9,9.4c9.9-7,4.2-18.2,6.5-27.1c1.7-1.4,2-1.6,2.4-2.1
			c-0.9-3.2,3.4-4.7,5.3-5.1c8.7-2.1,8.4-17.4,8.4-17.6c-0.1-3.8-4.1-6.1-3.8-10.1c0.2-3.4,3.9-4.4,4.8-7.3
			c-4.8-6.2,2.3-11.6,1.2-17.5c6.1-2.6,12.9-1.2,19.1-2.9c1.2-0.1,1.5-0.2,3,0.4c6.9,2.3,7.5,3.5,7.8,4c0.9,1.5,1.3,2,1.9,2.2
			c2.8,1,5.7-0.3,8.5,0.6c-2.9,2.4-4.8,12.3-3.9,13.9c4.8,1.1,8.5,5.6,14,3.9c0.9-0.3,0.9-0.3,4-4.7c1.4-1.9,4-0.3,5.4-2
			c1.3-1.5-0.7-3,0.1-4.5c4.9-9.6,4.9-9.6,15,8.7c4,7.3,4,7.3,2.2,9.9c-1.2,1.8-1.7,2.6-1,3.5c1.6,2.2,4.6,1.6,6.2,3.7
			c1.2,1.6-0.2,3.4,0.4,5c1,0.3,1,0.3,2.8-0.2c32.5-8.7,1.6,12.1,1.2,12.7c0.2,0.6,0.6,1.3,0.8,1.9c7.5-5,11.7-5.4,13.1-5.6
			c0,0,0,0,2,0c2.3,0.5,4.6,1,6.8,1.5c0.4,0.6,0.9,1.4,1.3,2c-2,5.2-2,5.2-0.7,8.7c-4.3,8.1-32.8,22.6-39.2,18.1
			c-27.9,8.7-27.9,8.7-55,37.5c39.4-25.2,39.4-25.2,42.3-22.4c-1.2,5.7-5.2,6.8-10.7,8.3c1.6,2,1.8,2.3,5.5,3.7
			c1.5,4.9,2.2,6.9,6.1,8.8c-1.2-2.4,0.1-5.7,0.3-6c0,0,0.1-0.1,0.1-0.1c0.1,0.1,0.2,0.1,0.1,0.8c-0.1,1.7,0.2,2.9,2.2,4
			c0.8,0.4,3.1,1.3,7.2,0.7c0.6-0.1,0.7-0.1,0.9-0.1c0,0,0,0.1,0,0.1c0,0,0,0.1,0,0.1c0,0-1.7,2.5-4,3c2.3,0.7,5,1.5,8.4,2.4
			c2.6-4,2.8-9.5,7.1-12.4c5.6,14.5-25.9,33.3-36.2,33.1c0.2-3.2,0.2-3.2,15.3-14.2c0-0.7,0-1.6,0-2.3c-1.5,0-3.4-0.4-4.7-1
			c0.3-0.6,0.6-1.3,0.9-1.9c-26.1,15.5-26.1,15.5-27.7,15.4c-9,8.6-9,8.6-10.7,25.1c-1.3-0.1-19.7,10.1-19.8,10.2
			c-4.3,4.3-3.4,10.7-6.2,15.6c-0.5-2.6-2.5-4.4-3.6-6.6c-1.3,20.9-1.3,20.9-2.8,21.9c0,0,0-14.4-0.2-19.1l-3.1,31.8
			c0.6,0.2,1.4,0.5,2,0.8c-0.1,0.8-0.2,1.8-0.2,2.5c-0.6,0.2-1.4,0.4-2,0.6c-0.1,0.6-0.2,1.5-0.2,2.1c0.4,0.5,1,1.1,1.4,1.6
			c0,0,0,0,0.2,0c-9.5,11.1-26.4,15.1-29.3,32.5c-2.7,16.8,22.1,31.6,6.6,48.3c-13.1-7.8-4.8-27.4-18.4-34.8c-0.1-0.1-32,2.8-36,5.1
			c-0.1,0.7-0.3,1.6-0.5,2.2c1.7,1.4,4,2,5.5,3.7c-0.5,0.5-1.2,1.1-1.8,1.5c-0.2-0.1-20.2-4.7-25.4-0.6c-2.9,2.3-15.2,15.1-17.3,22
			c-1.6,5.3,4.5,7.5,4.6,12.1c0.2,7.2-6.1,13.2-3.9,20.9c1.8,6.2,7.2,17.9,23,27.2c6.7,3.9,10.5-4.5,16.4-4.1
			c3.6-39.4,20.7-25.3,22.7-23.6c-1.6,9.6-1.6,9.6-6.1,20.2c2.5,5.3,2.5,5.3-0.9,16.8c10.2,0.7,20.6-4.8,30.7,0.5
			c0.1,0,5.7,9.9,3.8,23.2c-3.1,22.1,30.3,7.1,43.3,16.6c3.9-35.6,38.5-30.2,82.4-23.5c1.4,0.2,3.3,0.8,4.7,1.5
			c9.1,4.5,14.7,13.4,23.2,18.6c10.7,6.6,23.9,4.5,34.7,10.8c8.2,4.8,14.1,13.3,22,18.6c4.6,5.1,5.3,14,12.8,16.8
			c12.9,3.3,26.1,5.6,38.8,9.6c8.5,2.7,14.4,10.6,23.3,12.6c2.8,0.6,5.5-1.5,8.3-0.1c3.9,2-0.2,6.3,0.4,9.5
			C875.5,2194.1,877.1,2195.6,877.5,2197.7z M422.7,1783.9c0-0.1,0.1-0.1,0.1-0.2c0,0,0,0,0,0L422.7,1783.9z M662.2,2071.1
			c-2.3,1.6,0.7,4.7,3.6,5.2c2,0.4,8.6-0.6,8.9-1.3c0.2-0.4-0.3-1.2-5.2-2.7C664.1,2070.6,663.3,2070.8,662.2,2071.1z"/>
		<path class="st0" d="M811.2,2463.7c-261.4,0-474.1-212.7-474.1-474.1s212.7-474.2,474.1-474.2s474.1,212.7,474.1,474.2
			S1072.7,2463.7,811.2,2463.7z M811.2,1533.7c-251.4,0-455.9,204.5-455.9,455.9s204.5,455.9,455.9,455.9s455.9-204.5,455.9-455.9
			S1062.6,1533.7,811.2,1533.7z"/>
	</g>
</g>
</svg>
