<?xml version="1.0" encoding="utf-8"?>
<!-- Generator: Adobe Illustrator 28.0.0, SVG Export Plug-In . SVG Version: 6.00 Build 0)  -->
<svg version="1.0" id="Layer_1" xmlns="http://www.w3.org/2000/svg" xmlns:xlink="http://www.w3.org/1999/xlink" x="0px" y="0px"
	 viewBox="0 0 3500 3500" style="enable-background:new 0 0 3500 3500;" xml:space="preserve">
<style type="text/css">
	.st0{fill:#FFFFFF;}
</style>
<g>
	<path class="st0" d="M169.14,1734.86c0-7.25-0.03-14.51,0.02-21.76c0.03-5.1-0.59-10.11,4.06-14.3c1.83-1.65,1.89-5.74,1.99-8.74
		c0.68-20.68,0.7-41.4,1.84-62.06c0.87-15.8,3.17-31.51,4.68-47.28c1.11-11.66,1.32-23.44,3.07-34.99
		c4.4-28.94,9.11-57.85,14.36-86.65c4.01-22,8.95-43.84,13.63-65.72c3.24-15.12,6.43-30.26,10.21-45.25
		c3.11-12.31,6.97-24.43,10.65-36.59c3.59-11.86,7.27-23.7,11.09-35.49c4.45-13.71,8.99-27.4,13.67-41.03
		c5.48-15.94,10.93-31.89,16.81-47.68c6.12-16.45,12.46-32.83,19.2-49.04c8.85-21.28,17.88-42.49,27.41-63.47
		c8.4-18.48,17.2-36.81,26.53-54.83c13.77-26.6,27.68-53.15,42.45-79.2c12.22-21.55,25.13-42.77,38.89-63.37
		c19.32-28.93,38.91-57.75,59.87-85.5c21.8-28.86,45.03-56.68,68.26-84.43c28.82-34.42,59.57-67.12,92.04-98.11
		c35.17-33.59,71.19-66.27,109.41-96.41c21.65-17.07,42.92-34.66,65.1-51.02c26.35-19.44,53.1-38.41,80.4-56.48
		c30.45-20.16,61.49-39.47,92.7-58.43c23.84-14.48,48.38-27.82,72.57-41.73c17.93-10.31,35.73-20.86,53.72-31.06
		c27.27-15.46,54.7-30.64,81.99-46.09c27.27-15.43,54.38-31.14,81.67-46.55c31.49-17.77,63.26-35.05,94.59-53.08
		c36.99-21.28,73.62-43.16,110.44-64.74c22.31-13.08,44.57-26.24,67.05-39.03c10.73-6.1,22.68-10.31,32.7-17.35
		c17.22-12.09,35.9-5.77,53.81-5.46c6.71,0.11,13.34,7.5,19.91,11.71c13.07,8.38,22.66,20.15,30.85,33.02
		c13.49,21.23,26.57,42.72,39.81,64.11c9.42,15.22,19.09,30.31,28.17,45.73c11.02,18.71,21.62,37.66,32.24,56.6
		c12.44,22.2,25.27,44.2,36.86,66.84c9.05,17.69,18.28,35.44,17.65,56.55c-0.56,18.58-7.6,34.01-19.21,47.83
		c-14.2,16.9-32.2,28.86-51.27,39.56c-21.02,11.79-41.74,24.14-62.62,36.19c-28.03,16.17-56.12,32.22-84.11,48.46
		c-28.03,16.26-55.94,32.75-83.96,49.05c-24.72,14.38-49.56,28.53-74.24,42.98c-19.02,11.14-37.78,22.72-56.8,33.86
		c-23.48,13.76-47.13,27.23-70.67,40.88c-33.71,19.55-67.46,39.04-101.07,58.76c-25.86,15.17-52.05,29.87-77.19,46.17
		c-28.89,18.74-57.4,38.21-84.95,58.87c-26.71,20.03-52.74,41.14-77.71,63.31c-28.09,24.95-55.79,50.54-81.61,77.79
		c-34.38,36.29-66.25,74.99-94.97,115.94c-20.52,29.25-38.66,60.19-57.5,90.6c-17.43,28.14-31.93,57.81-45.64,87.95
		c-11.69,25.7-22.84,51.53-31.63,78.39c-8.77,26.81-18.51,53.31-26.83,80.26c-4.44,14.39-6.67,29.45-10.1,44.17
		c-3.9,16.73-8.25,33.36-11.95,50.14c-1.47,6.69-1.61,13.66-2.55,20.47c-4.55,32.74-10.21,65.37-13.43,98.24
		c-2.52,25.7-2.51,51.69-2.79,77.56c-0.33,30.73-0.66,61.51,0.69,92.2c1.16,26.45,4.27,52.84,7.3,79.17
		c2.4,20.84,5.39,41.66,9.25,62.27c2.85,15.19,7.5,30.04,11.41,45.03c3.64,13.98,7.22,27.98,11.1,41.89
		c2.95,10.61,6.18,21.15,9.54,31.64c7.02,21.93,14.1,43.84,21.37,65.68c3.69,11.09,8.02,21.96,11.75,33.04
		c3.84,11.41,7.29,22.94,10.95,34.41c3.24,10.16,6.63,20.28,9.79,30.46c4.57,14.73,8.92,29.53,13.53,44.24
		c1.85,5.9,4.6,11.54,6.16,17.5c2.78,10.64,1.9,13.25-7.33,18.98c-14.35,8.91-28.99,17.38-43.59,25.89
		c-24.43,14.24-48.91,28.38-73.39,42.54c-28.65,16.57-57.36,33.06-85.98,49.69c-16.07,9.34-31.95,19.02-48.03,28.35
		c-14.88,8.64-29.99,16.87-44.84,25.56c-16.32,9.55-32.23,19.82-48.73,29.04c-14.54,8.12-14.07,8.52-22.54-5.83
		c-14.5-24.55-27.43-50.07-40.17-75.6c-12.75-25.56-24.82-51.47-36.5-77.54c-6.74-15.04-12.17-30.67-18.08-46.08
		c-6.16-16.08-12.41-32.13-18.19-48.34c-4.5-12.62-8.37-25.46-12.5-38.21c-3.4-10.47-7-20.88-10.09-31.44
		c-4.44-15.15-8.59-30.38-12.72-45.62c-3.42-12.61-6.97-25.21-9.85-37.95c-4.62-20.43-8.87-40.96-13.02-61.49
		c-3.96-19.56-8.3-39.08-11.22-58.8c-4.39-29.63-7.75-59.42-11.43-89.16c-1.69-13.67-3.71-27.33-4.53-41.06
		c-1.57-26.5-2.41-53.05-3.52-79.58c-0.23-5.42,0.77-10.93-4.41-15.24c-1.62-1.35-1.64-5.09-1.7-7.74
		C169.02,1752.82,169.14,1743.84,169.14,1734.86z"/>
	<path class="st0" d="M3330.88,1709.46c0,48.35,0.1,96.7-0.16,145.04c-0.02,4.47-2.44,8.91-3.6,13.4c-0.84,3.28-1.85,6.6-2.05,9.94
		c-0.93,15.49-0.74,31.1-2.55,46.47c-3.42,29.04-7.83,57.97-12.02,86.92c-3.2,22.15-6.26,44.33-10.19,66.35
		c-3.5,19.66-8.07,39.12-12.23,58.66c-3.15,14.78-6.06,29.63-9.7,44.29c-3.97,16.02-8.61,31.88-13.04,47.79
		c-3.23,11.58-6.43,23.18-9.97,34.66c-3.84,12.46-7.86,24.88-12.18,37.18c-5.57,15.9-11.31,31.75-17.35,47.48
		c-5.92,15.41-11.95,30.81-18.59,45.92c-5.66,12.88-12.06,25.45-18.5,37.97c-9.13,17.76-18.06,35.66-28.04,52.94
		c-19.48,33.71-39.01,67.41-59.72,100.37c-14.47,23.02-30.33,45.24-46.62,67.03c-24.35,32.57-49,64.96-74.71,96.46
		c-18.72,22.95-38.97,44.71-59.23,66.35c-22.16,23.68-44.82,46.91-67.82,69.78c-16.62,16.51-33.56,32.8-51.4,47.96
		c-32.56,27.65-65.28,55.2-99.09,81.28c-34.93,26.94-70.89,52.62-107.1,77.84c-22.88,15.93-46.74,30.52-70.7,44.81
		c-39.34,23.47-79.08,46.28-118.73,69.24c-40.21,23.29-80.79,45.95-120.7,69.75c-39.95,23.82-79.41,48.47-118.8,73.21
		c-29.47,18.51-58.4,37.86-87.71,56.64c-29.28,18.76-58.7,37.29-88.09,55.87c-13.97,8.83-27.99,17.6-42.05,26.29
		c-6.05,3.74-11.92,9.21-18.49,10.36c-11.05,1.94-22.68,5.04-33.65-2.58c-6.66-4.63-15.17-6.66-21.68-11.45
		c-6.83-5.02-13.4-11.18-18.1-18.18c-13.44-20-26-40.6-38.68-61.11c-14.67-23.73-29.31-47.48-43.57-71.46
		c-14.07-23.67-27.53-47.7-41.47-71.45c-11.14-18.99-22.87-37.64-33.85-56.72c-11.06-19.22-19.78-38.89-19.67-62.19
		c0.1-20.21,7.87-35.92,20.71-50.17c14.58-16.18,33.58-26.34,51.87-37.3c21.29-12.76,42.96-24.89,64.59-37.07
		c28.21-15.88,56.63-31.39,84.81-47.34c30.32-17.16,60.44-34.66,90.67-51.95c27.54-15.75,55.17-31.33,82.66-47.17
		c24.16-13.92,48.25-27.97,72.23-42.19c28.17-16.7,56.34-33.4,84.23-50.56c26.71-16.43,53.14-33.33,79.55-50.24
		c30.16-19.31,60.5-38.38,90.16-58.43c42.57-28.77,84.03-58.99,123.1-92.55c28.87-24.8,56.32-51.06,81.94-78.97
		c25.61-27.89,49.63-57.4,72.42-87.65c19.65-26.09,37.24-53.83,54.51-81.6c13.78-22.18,26.47-45.12,38.24-68.44
		c11.62-23.02,21.87-46.76,31.98-70.5c9.8-23.02,19-46.31,27.77-69.74c4.2-11.22,6.66-23.08,10.14-34.58
		c3.78-12.5,8.17-24.83,11.69-37.4c3.89-13.9,7.11-27.98,10.6-41.99c2.5-10.02,5.37-19.98,7.35-30.1
		c3.77-19.24,7.3-38.53,10.45-57.88c6.25-38.41,13.21-76.71,13.29-115.88c0.08-35.18,2.16-70.37,1.5-105.52
		c-0.58-30.95-0.39-62.08-7.12-92.67c-1.91-8.69-1.51-17.87-2.83-26.73c-1.88-12.59-4.12-25.13-6.65-37.6
		c-4.31-21.23-8.83-42.43-13.54-63.57c-3.44-15.45-7.13-30.86-11.07-46.19c-2.31-8.97-5.1-17.83-8.07-26.61
		c-6.17-18.24-12.37-36.48-18.99-54.56c-8.29-22.63-16.71-45.21-25.65-67.59c-5.98-14.99-13.03-29.56-19.45-44.38
		c-5.74-13.25-11.4-26.53-16.8-39.91c-1.26-3.13-1.33-6.74-1.91-10.13c-1.69-9.85,1.09-16,10.89-21.43
		c37.08-20.55,73.41-42.47,110.01-63.88c30.31-17.73,60.54-35.58,90.94-53.15c28.92-16.71,58.08-33.01,87-49.72
		c22.36-12.92,44.48-26.23,66.77-39.27c10.57-6.19,14.36-5,20.96,5.27c7.83,12.18,16.4,23.9,23.88,36.28
		c9.77,16.18,19.38,32.51,27.95,49.34c10.14,19.92,19.62,40.21,28.38,60.78c7,16.42,12.5,33.47,18.63,50.26
		c4,10.97,8.22,21.88,11.82,32.98c3.81,11.76,7.04,23.72,10.47,35.6c4.08,14.17,8.37,28.29,12.06,42.56
		c3.79,14.66,7,29.46,10.38,44.22c2.15,9.38,4.54,18.72,6.11,28.2c3.82,23.1,7.27,46.27,10.78,69.43
		c3.98,26.22,8.37,52.4,11.62,78.71c1.9,15.37,1.72,30.99,2.97,46.45c0.37,4.55,2.57,8.94,3.69,13.46
		c0.88,3.59,1.96,7.27,1.97,10.91C3330.92,1612.76,3330.87,1661.11,3330.88,1709.46z"/>
	<path class="st0" d="M967,1765.69c-0.79-10.26-2.95-21.32-2.24-32.19c2.23-34.01,4.15-68.15,8.89-101.86
		c3.48-24.77,11.07-48.97,17.06-73.36c3.2-13.03,6.58-26.05,10.5-38.88c3.51-11.49,7.8-22.75,11.9-34.05
		c2.8-7.72,6.08-15.28,8.77-23.04c10.86-31.33,24.9-61.29,40.78-90.28c12.87-23.51,26.56-46.71,41.67-68.82
		c17.86-26.12,37.37-51.13,56.72-76.2c7.13-9.24,15.53-17.55,23.85-25.79c21.33-21.13,42.08-42.97,64.67-62.68
		c24.65-21.5,50.57-41.67,76.92-61.08c35.55-26.19,73.63-48.52,112.2-70.02c33.13-18.47,65.89-37.58,98.83-56.4
		c25.16-14.37,50.35-28.7,75.5-43.09c37.71-21.58,75.42-43.17,113.1-64.81c36.78-21.12,73.55-42.25,110.26-63.49
		c33.72-19.51,67.33-39.22,101.05-58.73c36.7-21.24,73.51-42.31,110.22-63.53c36.42-21.05,72.76-42.25,109.19-63.29
		c39.11-22.59,78.33-45,117.42-67.64c32.52-18.84,64.85-38.02,97.38-56.86c33.11-19.17,66.32-38.17,99.56-57.13
		c16.47-9.39,32.9-18.86,49.69-27.64c13.5-7.06,27.97-11.63,43.3-12.79c8.5-0.65,16.46,0.91,23.54,6.07
		c29.52,21.52,59.27,42.75,88.6,64.52c46.25,34.33,92.32,68.88,138.29,103.58c41.01,30.95,81.75,62.26,122.66,93.34
		c6.58,5,13.76,9.24,20.04,14.58c8.46,7.19,8.41,9.47-0.77,15.31c-15.4,9.79-31.13,19.09-46.88,28.31
		c-27.07,15.84-54.31,31.38-81.39,47.2c-35.4,20.68-70.74,41.47-106.06,62.29c-41.85,24.66-83.65,49.39-125.46,74.11
		c-28.74,16.99-57.4,34.12-86.2,51c-23.8,13.95-47.84,27.5-71.65,41.43c-19.61,11.47-38.96,23.39-58.59,34.82
		c-16.04,9.34-32.42,18.1-48.5,27.38c-19.11,11.02-38.02,22.4-57.11,33.46c-51.28,29.71-102.64,59.28-153.91,89.01
		c-27.1,15.72-54.01,31.78-81.14,47.46c-26.22,15.16-52.61,30.02-78.92,45.04c-35.95,20.53-71.87,41.11-107.83,61.61
		c-19.78,11.28-39.67,22.37-59.44,33.66c-25.44,14.53-50.74,29.29-76.22,43.75c-24.25,13.77-48.59,27.4-73,40.88
		c-32.65,18.03-64.77,37.04-92.81,61.75c-28.78,25.37-54.91,53.24-73.97,87.17c-11.7,20.83-21.65,42.45-28.51,65.09
		c-6.56,21.66-11.2,44.05-11.91,66.99c-0.35,11.34-2.49,22.71-2.02,33.99c0.84,19.95,1.02,40.28,5.19,59.66
		c6.51,30.27,16.58,59.59,32.73,86.59c16.46,27.52,36.86,51.68,60.35,73.18c21.67,19.83,45.33,37.12,71.33,51.04
		c11.85,6.34,23.26,13.57,35.4,19.28c14.29,6.72,29.16,12.19,43.75,18.26c5.73,2.38,11.6,4.56,17.03,7.5
		c6.38,3.46,6.55,7.64,0.25,11.54c-12.02,7.44-24.36,14.35-36.59,21.44c-35.79,20.76-71.63,41.44-107.37,62.29
		c-47.91,27.94-95.79,55.96-143.61,84.06c-24.6,14.46-48.94,29.38-73.62,43.71c-19.63,11.41-39.62,22.17-59.36,33.39
		c-5.38,3.06-10.63,6.43-15.57,10.16c-6.11,4.61-11.83,4.97-17.87,0.12c-17.18-13.78-35.17-26.65-51.46-41.41
		c-34.93-31.64-65.48-67.33-90.86-107.06c-15.74-24.63-30.11-50.19-44.17-75.83c-9.73-17.73-18.87-35.92-26.52-54.62
		c-9.74-23.82-17.8-48.34-26.4-72.62c-3.22-9.08-6.11-18.27-8.84-27.51c-3.99-13.52-8.11-27.03-11.43-40.72
		c-3.56-14.68-7.01-29.46-9.18-44.39c-4.22-28.97-7.56-58.07-11.13-87.14C966.64,1773.37,967,1769.87,967,1765.69z"/>
	<path class="st0" d="M2557.07,1740.52c-1.59,28.06-2.5,60.83-5.62,93.39c-1.93,20.09-7.06,39.88-11.04,59.76
		c-2.77,13.83-5.62,27.67-9.15,41.32c-4.23,16.33-8.62,32.66-14.04,48.62c-8.06,23.74-16.19,47.53-25.96,70.59
		c-9.38,22.13-20.23,43.72-31.62,64.91c-17.3,32.19-36.57,63.3-58.79,92.33c-15.9,20.77-33.31,40.39-50.15,60.44
		c-5.32,6.33-10.76,12.6-16.52,18.52c-36.88,37.91-76.24,73.02-120.4,102.26c-24.95,16.52-50.93,31.5-76.59,46.92
		c-18.27,10.98-36.77,21.58-55.21,32.26c-24.13,13.96-48.29,27.85-72.46,41.75c-28.7,16.5-57.41,32.98-86.13,49.43
		c-30.5,17.47-61.11,34.75-91.52,52.37c-27.99,16.21-55.69,32.92-83.69,49.12c-20.26,11.72-40.88,22.82-61.18,34.48
		c-19.39,11.14-38.5,22.76-57.85,33.97c-28.9,16.74-57.96,33.2-86.85,49.96c-33.33,19.33-66.47,38.97-99.82,58.26
		c-23.24,13.44-46.76,26.39-70.02,39.78c-38.22,22.01-76.28,44.29-114.49,66.3c-38.24,22.03-76.6,43.85-114.89,65.79
		c-37.7,21.6-75.38,43.26-113.1,64.83c-22.15,12.67-46.18,20.41-71.38,22.51c-8.77,0.73-19.12-3.6-26.96-8.5
		c-18.4-11.48-35.87-24.48-53.43-37.27c-33.45-24.37-66.84-48.81-99.96-73.61c-28.98-21.7-57.46-44.07-86.33-65.92
		c-22.8-17.26-45.98-34.02-68.76-51.32c-17.85-13.55-35.38-27.52-52.96-41.41c-7.58-5.98-7.32-9.47,1.25-14.56
		c16.9-10.03,33.98-19.75,50.91-29.73c30.87-18.2,61.67-36.51,92.51-54.76c32.91-19.47,65.82-38.95,98.75-58.37
		c46.27-27.29,92.49-54.66,138.88-81.74c33.03-19.29,66.39-38.02,99.44-57.3c27.96-16.31,55.58-33.19,83.52-49.52
		c27.34-15.98,54.92-31.55,82.36-47.35c23.88-13.75,47.73-27.54,71.56-41.38c24.75-14.37,49.44-28.84,74.19-43.21
		c38.45-22.33,76.87-44.72,115.42-66.89c37.36-21.49,74.92-42.64,112.29-64.11c19.69-11.31,39.08-23.16,58.78-34.48
		c37.06-21.31,74.27-42.34,111.35-63.61c29.61-16.98,59.07-34.23,88.69-51.21c20.31-11.64,41.03-22.57,61.08-34.63
		c23.63-14.23,46.17-29.99,67.13-48.13c17.07-14.78,32.07-31.26,46.21-48.7c14.63-18.04,25.83-38.16,36.25-58.8
		c10.16-20.13,15.99-41.81,21.92-63.32c3.74-13.54,5.17-27.81,6.67-41.86c1.46-13.68,2.67-27.53,2.21-41.25
		c-0.47-14.01-3.11-27.95-4.79-41.93c-0.62-5.13-0.97-10.31-1.87-15.39c-8.81-49.28-29.68-92.55-62.8-130.36
		c-30.26-34.56-66.65-60.73-106.83-81.95c-26.8-14.15-54.2-27.18-83.21-36.39c-1.97-0.62-4.29-1.06-5.68-2.39
		c-2.57-2.47-5.7-5.31-6.34-8.45c-0.31-1.55,4.15-4.56,6.88-6.17c14.81-8.73,29.8-17.16,44.64-25.83
		c19.31-11.29,38.54-22.74,57.81-34.09c24.94-14.7,49.86-29.43,74.86-44.03c13.67-7.98,27.56-15.57,41.21-23.57
		c29.72-17.42,59.32-35.05,89.04-52.48c22.3-13.08,44.74-25.92,67.04-39c21.07-12.36,42.07-24.85,63.06-37.35
		c10.75-6.41,15.06-6.11,24.67,2.76c19.51,18,40.03,35.07,58.11,54.41c34.41,36.81,66.31,75.83,92.2,119.26
		c14.79,24.8,29.38,49.81,42.27,75.61c10.25,20.52,18.23,42.22,26.41,63.7c6.83,17.95,13,36.21,18.52,54.61
		c4.45,14.82,7.52,30.06,11.14,45.13c1.45,6.03,2.79,12.09,4,18.17c1.41,7.08,2.72,14.19,3.88,21.32c1,6.12,1.69,12.3,2.58,18.44
		c1.77,12.27,4.42,24.48,5.2,36.82C2555.17,1684.11,2555.82,1709.97,2557.07,1740.52z"/>
</g>
</svg>
