<?xml version="1.0" encoding="utf-8"?>
<!-- Generator: Adobe Illustrator 27.7.0, SVG Export Plug-In . SVG Version: 6.00 Build 0)  -->
<svg version="1.1" id="Layer_1" xmlns="http://www.w3.org/2000/svg" xmlns:xlink="http://www.w3.org/1999/xlink" x="0px" y="0px"
	 viewBox="0 0 3500 3500" style="enable-background:new 0 0 3500 3500;" xml:space="preserve">
<style type="text/css">
	.st0{fill:#EB2221;}
	.st1{fill:#C11E1E;}
	.st2{fill:#060303;}
	.st3{fill:#A40E0E;}
	.st4{fill:#61191A;}
	.st5{fill:#FEB9AE;}
	.st6{fill:#221D1D;}
	.st7{fill:#797B7B;}
	.st8{fill:#DA746E;}
	.st9{fill:#2B2424;}
	.st10{fill:#FDFDFD;}
	.st11{fill:#FBFCFC;}
	.st12{fill:#FFFFFF;}
	.st13{fill:#ABABAB;}
</style>
<path class="st0" d="M978.5,470.2c1.7-0.4,3.3-0.7,5-1.1c2.5,0.9,4.4,0,5.8-2.1c20.9-5.6,41.7-11.5,62.8-16.7
	c49.5-12.2,99.5-21.9,149.9-29.3c88.3-12.9,177.1-16,266.1-12.4c35.6,1.5,71.1,5,106.5,9.5c199.9,25.1,384.8,93.2,558.3,194.1
	c93.9,54.6,181.9,117.6,265.5,186.8c86.3,71.6,167,149.2,243.3,231.3c16.6,17.9,33.4,35.5,52.6,50.8c26.7,21.4,55.9,37.9,89.4,46.3
	c15,3.8,30.2,5,45.5,6.1c2.2,0.2,4.5,0.5,6.7,0.7c-0.6,0.7-1,1.6-1.7,2.1c-22.6,16.4-45,33-67.7,49c-31.6,22.3-63.3,44.5-95.3,66.1
	c-32.8,22.1-66.2,43.5-99.3,65.3c-5.2,3.4-10.2,7.2-15.3,10.8c-3.4-2.2-7-4.2-10.2-6.5c-25.3-18.1-50.3-36.7-75.8-54.4
	c-61.2-42.4-123.9-82.6-188.9-119c-35.8-20.1-71.9-39.7-108.1-59c-19.1-10.1-39-18.9-58.4-28.5c-42.1-20.9-85.2-39.3-128.8-56.7
	c-43.1-17.3-86.7-33.2-131.1-47.2c-48.6-15.3-97.6-29.1-147.5-39.7c-21.6-4.6-43.3-8.7-65-12.4c-19.1-3.3-38.2-6-57.4-8.5
	c-15.6-2-31.3-3.4-47-5c-2.7-0.3-5.5,0-8.1-0.5c-22.3-3.9-45-2.2-67.4-4.2c-29.7-2.6-59.5,2.2-89.2,2.5c-2.5,0-5.1,1.5-7.6,2.3
	c-2.7-0.2-5.6-1.2-7.9-0.5c-11.9,3.5-24,0.8-35.9,1.2c-1.8,0-3.6,0-5.4,0.3c-21.8,2.6-43.6,5.1-65.3,7.9c-6.1,0.8-12.1,2.7-18.1,4.2
	c-1.8,0.1-3.6,0-5.4,0.4c-20.3,4.1-40.8,7.8-61,12.6c-83.4,19.7-163.2,49.2-240,87.1c-117,57.8-222.6,132.2-319.6,219.1
	c-50.8,45.6-98.6,94.1-143.6,145.5c-57.5,65.7-110.2,135-156.9,208.8c-24.6,38.9-47.5,78.9-66.5,120.9
	c-5.9,13.1-10.7,26.8-16.2,40.1c-2.4,5.8-2.3,11.2,0.1,17c5.3,12.5,9.8,25.3,15.4,37.5c17,37,37.5,72.1,59.5,106.2
	c72.4,112.1,158.4,212.8,254.9,304.7c4.2,4,8.3,8.2,12.4,12.3c-3.1,3.9-7.9,4.1-12,5.5c-44.4,14.6-89,29-133.4,43.6
	c-41.9,13.8-83.7,27.9-125.6,41.8c-34.2,11.3-68.4,22.3-102.6,33.5c-2.5,0.8-4.8,2-7.3,3c0.4,4.2,0.7,7.7,1.1,11.2
	c-4.3-1.7-5.6-5.7-7.3-9.3c-10.6-22-21.1-43.9-31.4-66c-3.8-8.2-7-16.6-10.3-25c-6.8-17.2-13.3-34.4-20.1-51.6
	c-12.1-30.6-21.6-62.1-30.7-93.7c-8-27.6-14.4-55.7-20.5-83.8c-5-22.9-8.9-45.8-12.5-68.9c-1.2-8-2.5-16-3.7-23.9
	c-1.4-8.9-3.1-17.7-4-26.6c-1.3-13.4-2.1-26.9-3.1-40.3c-0.1-1.3,0-2.8-0.4-4c-3.2-8.8-1.6-17.9-2.2-26.9c-0.7-9-2.3-17.9-2.4-26.8
	c-0.3-40.2-0.1-80.4,0-120.6c0-3.6,0.3-7.2,0.6-10.8c0.6-6.3,1.5-12.5,1.9-18.7c0.4-7.7-0.6-15.5,0.8-23c1.5-7.6,1.9-15.2,2.1-22.8
	c2.1-6.4,3.1-13,2.8-19.8c0-2.2,0-4.5,0.4-6.7c1.6-10.1,3.8-20.1,4.7-30.3c1.6-16.9,4.9-33.5,8.1-50.1c1.2-6.1,1.9-12.3,2.9-18.4
	c3.4-15.3,6.9-30.6,10.2-45.9c0.9-3.9,0.8-8.1,1.9-12c3.9-13.8,8.3-27.5,12.1-41.4c9.7-34.7,21.3-68.7,33.6-102.6
	c3.7-10.1,8.9-19.7,10.4-30.5c1-2,2.2-3.9,3.1-6c24-58.6,52.1-115.1,83.9-169.8c55.7-95.7,122.7-182.8,200.1-261.9
	c56.7-57.9,118.2-110.2,184.3-157c57.6-40.8,117.9-76.9,181.1-108.3c59.9-29.7,121.6-55.1,185.2-75.8c3.6-1.2,8.3-1,10.7-5
	L978.5,470.2z"/>
<path class="st1" d="M186.8,2354.4c-0.3-3.5-0.7-7-1.1-11.2c2.5-1,4.8-2.2,7.3-3c34.2-11.2,68.4-22.3,102.6-33.5
	c41.9-13.8,83.7-28,125.6-41.8c44.4-14.6,89-29,133.4-43.6c4.2-1.4,9-1.6,12-5.5c1.1,0.8,2.3,1.4,3.3,2.3
	c42.2,39.5,86.7,76.3,132.9,111c85.9,64.4,177.3,119.3,275.3,163.2c67.7,30.3,137.4,54.6,209.3,72.4c18.8,4.6,37.9,7.9,56.9,11.9
	c14.8,5.1,30.3,6.8,45.7,8.4c2.5,0.8,5,2,7.5,2.3c9.7,1.2,19.6,1.8,29.3,3.2c18.1,2.7,36.2,4.8,54.5,4.8c1.3-0.3,2.6-0.9,3.8-0.8
	c37.5,2.7,75,2.4,112.4,0.6c26.1-1.2,52.2-3.8,78.2-6.8c154.9-18.1,302.2-63.6,445.5-123.6c57-23.9,112.8-50.3,167-80.1
	c4.3-2.4,8.9-4.2,13.4-6.2c1.5-0.9,3-1.7,4.5-2.6l0.6-0.4c2.1,0,4.1-0.3,5-2.7l0,0c2.3,0,4.6-0.2,5.4-3l-0.2,0.2
	c2.5,0.1,4.8,0,5.5-3.2c0,0-0.3,0.3-0.2,0.3c2.7,0.4,5,0,5.5-3.3l-0.3,0.3c6.4,0.3,11.6-1.4,14.1-8l-0.3,0.3
	c2.7,0.3,5.1,0.1,5.5-3.4l-0.3,0.3c7.8,0.5,13.5-3.5,18.7-8.7c0.5-0.5,0.2-1.7,0.3-2.6v0.2c6.1,1.9,10.4-2.3,14.9-4.8
	c13.3-7.5,26.3-15.6,39.5-23.4c41.9-24.8,83.1-50.5,123.3-78c29.7-20.3,59.1-41.2,88.4-62.1c15.7-11.3,31.1-23.1,46.3-35
	c15.9-12.5,31.6-25.3,47.3-38.2c18.8-15.4,37.7-30.7,56.2-46.5c6.8-5.8,12.5-12.9,18.7-19.4c5.7-4.4,11.4-8.8,17.9-13.7
	c4.1,1.8,7.2,5.7,10.7,9c57.9,53.7,115.7,107.4,173.6,161.1c113.1,105,226.1,209.9,339.2,314.9c3.2,3,6.1,6.3,10.6,10.8
	c-4.4-1.1-7.1-1.7-11.7-2.9c5.5,5.9,9.6,10.3,13.7,14.7c-2.1-0.4-4.4-0.4-6.3-1.4c-5.2-2.7-10.1-5.9-15.3-8.6
	c-39.2-20.5-78.2-41.3-117.6-61.4c-26.1-13.3-52.8-25.6-79.1-38.6c-35.6-17.7-72.5-32.1-110.4-44.3c-23.3-7.5-47.1-12.3-71.3-14.4
	c-25.2-2.1-50.4-0.9-74.9,6.8c-10.8,1.6-20.8,5.8-30.6,10.3c-21.5,9.8-41.3,22.5-58.9,38.1c-13.8,12.2-27.4,25-39.9,38.5
	c-80,86.2-164.2,167.7-254.9,242.6c-108.2,89.3-223.7,167.8-349.1,231.2c-99.3,50.2-202.6,89.8-310.7,116.5
	c-51.2,12.6-102.8,23.7-154.9,31.7c-9.8,1.5-19.6,2.8-29.4,4.2c-6.3-3.7-13.5-2.8-19.8-1.4c-9,2-17.9,2-26.8,2.2
	c-3.1,0-6.2,0.6-9.4,1c-4.4,0.5-8.9,1.3-13.3,1.6c-18.9,0.9-37.7-0.4-56.6,2.2c-16.4,2.3-33.5,2-50,0c-13.5-1.7-26.9-1.6-40.4-2
	c-7.7-0.2-15.6,1.1-23-0.6c-9.9-2.2-19.7-1.9-29.5-2.3c-3.6-0.1-7.1-0.9-10.7-1.4c-3.6-0.4-7.1-0.9-10.7-1.2
	c-11.6-1.1-23.3-1.9-34.8-3.3c-10.2-1.2-20.3-3.9-30.5-4.6c-19.3-1.3-38-6.5-57.1-9.2c-17.3-2.5-34.4-6.5-51.4-10.6
	c-36.2-8.8-72.4-18.2-107.9-29.6c-27.4-8.8-54.5-18.6-81.5-28.8c-40.5-15.4-79.7-33.5-118.7-52.1c-19.5-9.3-38.1-20.3-57-30.9
	c-19.2-10.8-38.8-21.2-57.2-33.2c-49.4-32.1-98.1-65.3-142.8-103.9c-15.3-13.2-31.5-25.3-46.5-38.9c-17.3-15.8-33.2-33-51-48.3
	c-7.4-6.4-13.1-14.8-19.8-22c-14.4-15.5-29.2-30.7-43.3-46.4c-9.3-10.3-18-21.3-26.8-32.1c-8.2-10.1-16.7-20-24.3-30.6
	c-16.8-23.3-33.5-46.8-49.7-70.6s-31.8-48-45.7-73.3c-6-11-13-21.6-18.8-32.8c-3.7-7.1-9.2-13.6-8.7-22.4L186.8,2354.4z"/>
<path class="st2" d="M1244.3,2576.6c-19-3.9-38.1-7.2-56.9-11.9c-72-17.8-141.7-42.1-209.3-72.4c-98-43.9-189.4-98.9-275.3-163.2
	c-46.2-34.7-90.7-71.5-132.9-111c-1-0.9-2.2-1.6-3.3-2.3c-4.1-4.1-8.2-8.3-12.4-12.3c-96.5-91.9-182.5-192.7-254.9-304.7
	c-22.1-34.2-42.5-69.2-59.5-106.2c-5.6-12.3-10.2-25.1-15.4-37.5c-2.4-5.8-2.6-11.2-0.1-17c5.6-13.3,10.3-27,16.2-40.1
	c19-42,41.9-82,66.5-120.9c46.7-73.8,99.3-143.1,156.9-208.8c45-51.3,92.8-99.9,143.6-145.5c97-86.9,202.6-161.4,319.6-219.1
	c76.8-37.9,156.6-67.4,240-87.1c20.2-4.8,40.6-8.4,61-12.6c1.8-0.4,3.6-0.3,5.4-0.4c2.7,0.9,5.3,1.8,8,2.7
	c-44.5,9.8-88.3,22-131.3,37.3c-87.5,31.2-169.7,73.3-247.4,123.9c-83.2,54.1-159.6,116.7-230.5,186.1
	c-105.4,103.2-197.1,217.3-273.2,343.7c-22.1,36.7-42.6,74.4-59,114.1c-3.8,9.2-6.7,18.7-10.6,27.8c-2.1,5-1.8,9.5,0.3,14.3
	c6.9,16.2,13,32.7,20.7,48.5c23.8,48.8,52.6,94.7,83.9,139c124.7,176.6,274.6,327.9,453.7,449.7c86.9,59.1,179.2,107.9,278,144.2
	c40.2,14.8,81.1,27.4,122.9,37c2.2,0.5,4.3,1.5,6.4,2.2c-2.8,4.1-7.1,1.9-10.7,2.6L1244.3,2576.6z"/>
<path class="st1" d="M2556.5,1327.4c5.1-3.6,10.1-7.3,15.3-10.8c33.1-21.8,66.5-43.1,99.3-65.3c32.1-21.6,63.7-43.8,95.3-66.1
	c22.8-16.1,45.2-32.6,67.7-49c0.7-0.5,1.1-1.4,1.7-2.1c1.5-0.3,3-0.5,4.6-0.8c5.9,1.8,11.6,1.7,17.1-1.4
	c34.3-3.8,66.7-14.2,98.8-26.2c55.3-20.7,108.4-46.2,160.9-72.8c38.5-19.5,76.7-39.7,115.1-59.6c3.2-1.7,6.5-3.1,9.7-4.7
	c1.1,1.1,2.2,2.2,3.3,3.3c-26.4,24.6-52.7,49.3-79.2,73.8c-101.1,93.9-202.3,187.8-303.5,281.8c-45.3,42-90.6,84.1-135.9,126.1
	c-2.6,2.4-5.6,4.4-8.5,6.5c-8.4-2.7-14-9.7-20.1-15.3c-19.3-17.4-39-34.5-59.3-50.7c-22.1-17.6-44.2-35.2-66.2-52.9
	c-5.6-4.5-10.8-9.3-16.2-14L2556.5,1327.4z"/>
<path class="st3" d="M186.8,2354.4c-0.4,8.7,5.1,15.3,8.7,22.4c5.8,11.2,12.7,21.8,18.8,32.8c13.9,25.3,29.4,49.5,45.7,73.3
	c16.2,23.8,32.9,47.3,49.7,70.6c7.6,10.6,16.1,20.5,24.3,30.6c8.8,10.8,17.5,21.7,26.8,32.1c14.2,15.7,29,30.9,43.3,46.4
	c6.7,7.3,12.4,15.7,19.8,22c17.8,15.3,33.7,32.6,51,48.3c14.9,13.6,31.2,25.7,46.5,38.9c44.7,38.7,93.4,71.8,142.8,103.9
	c18.5,12,38,22.4,57.2,33.2c18.9,10.6,37.5,21.7,57,30.9c39,18.5,78.2,36.7,118.7,52.1c27,10.2,54,20,81.5,28.8
	c35.5,11.4,71.6,20.8,107.9,29.6c17,4.1,34.1,8.1,51.4,10.6c19.1,2.8,37.7,7.9,57.1,9.2c10.2,0.7,20.3,3.4,30.5,4.6
	c11.6,1.4,23.2,2.2,34.8,3.3c3.6,0.3,7.1,0.8,10.7,1.2s7.1,1.2,10.7,1.4c9.9,0.4,19.7,0,29.5,2.3c7.3,1.6,15.3,0.3,23,0.6
	c13.5,0.4,26.8,0.4,40.4,2c16.5,2,33.6,2.3,50,0c19-2.6,37.8-1.3,56.6-2.2c4.5-0.2,8.9-1,13.3-1.6c3.1-0.4,6.2-0.9,9.4-1
	c9-0.3,17.9-0.2,26.8-2.2c6.2-1.4,13.4-2.2,19.8,1.4c-69.4,10.2-139.3,13.9-209.4,12.5c-30.7-0.6-61.4-1.9-92-4.1
	c-34.7-2.6-69.1-6.9-103.5-12.3c-49.1-7.7-97.6-17.8-145.5-30.8c-185.9-50.4-354.2-135.4-504-256.6
	c-164.3-132.9-290.8-295.5-378.4-487.9c-43.4-95.3-74.7-194.4-94.1-297.3c-11.7-62.2-19.1-124.9-22-188.1
	c-1.5-33.4-2.2-66.8-1.1-100.2c1.2-37.5,3.7-74.8,7.9-112.1c0.4-3.6,1.4-7.1,2.1-10.6c5.5,0.7,9.6,3.9,14,7c6,4.2,10.8,10.5,18.5,12
	c-0.1,7.7-0.6,15.2-2.1,22.8c-1.5,7.4-0.4,15.3-0.8,23c-0.3,6.3-1.3,12.5-1.9,18.7c-0.3,3.6-0.6,7.2-0.6,10.8
	c0,40.2-0.2,80.4,0,120.6c0,8.9,1.7,17.9,2.4,26.8c0.7,9-0.9,18.1,2.2,26.9c0.4,1.2,0.3,2.7,0.4,4c1,13.5,1.7,26.9,3.1,40.3
	c0.9,8.9,2.7,17.7,4,26.6c1.2,8,2.5,16,3.7,23.9c3.6,23.1,7.6,46,12.5,68.9c6.1,28.1,12.6,56.2,20.5,83.8
	c9.1,31.6,18.6,63.1,30.7,93.7c6.8,17.2,13.4,34.4,20.1,51.6c3.3,8.4,6.5,16.8,10.3,25c10.3,22.1,20.9,44,31.4,66
	c1.7,3.6,3.1,7.7,7.3,9.3L186.8,2354.4z"/>
<path class="st4" d="M2556.5,1327.4c5.4,4.7,10.7,9.5,16.2,14c22,17.7,44.1,35.3,66.2,52.9c20.3,16.2,40,33.3,59.3,50.7
	c6.1,5.5,11.7,12.5,20.1,15.3c-10,4.3-23.9,7.4-38.4,8.4c-2-1.7-4.3-3.8-6.7-5.9c-123.9-111.5-258.7-208.1-402.2-292.8
	c-111.3-65.7-226.7-122.8-347.4-169.3c-81.7-31.5-165.1-57.6-250.6-76.5c-37.9-8.4-76.1-15.2-114.5-20.3
	c-56-7.5-112.3-11.3-168.8-10.5c-1.3,0-2.7-0.2-4-0.4c-4.7,0.2-9.5,0.7-14.3,0.4c-1.8,0-3.6-1.9-5.4-2.9c2.5-0.8,5.1-2.2,7.6-2.3
	c29.8-0.3,59.5-5,89.2-2.5c22.5,1.9,45.1,0.3,67.4,4.2c2.6,0.5,5.4,0.2,8.1,0.5c15.7,1.6,31.4,3,47,5c19.2,2.5,38.4,5.2,57.4,8.5
	c21.7,3.7,43.4,7.8,65,12.4c49.8,10.6,98.9,24.3,147.5,39.7c44.3,14,88,29.9,131.1,47.2c43.5,17.5,86.7,35.9,128.8,56.7
	c19.4,9.6,39.3,18.4,58.4,28.5c36.3,19.2,72.3,38.9,108.1,59c65,36.4,127.7,76.6,188.9,119c25.6,17.7,50.5,36.3,75.8,54.4
	C2549.6,1323.2,2553.1,1325.2,2556.5,1327.4L2556.5,1327.4z"/>
<path class="st5" d="M978.5,470.2c-2.5,4-7.1,3.8-10.7,5c-63.6,20.7-125.3,46.1-185.2,75.8c-63.2,31.3-123.6,67.5-181.1,108.3
	c-66.1,46.9-127.7,99.1-184.3,157c-77.4,79.1-144.3,166.3-200.1,261.9c-31.9,54.7-59.9,111.2-83.9,169.8c-0.8,2.1-2,4-3.1,6
	c-4.3-2.2-9-3.8-12.6-6.8c-4.5-3.7-9.4-4.5-14.8-4.4c2.1-12.2,8.6-22.7,13.4-33.8c7.5-17.4,15.6-34.6,24.4-51.3
	c19.1-36.3,38.7-72.4,60.6-107.1c23.9-37.8,49.2-74.5,76.4-109.9c14.6-18.9,30.6-36.7,45.7-55.2c27-32.8,57-62.8,87.5-92.3
	c14.6-14.1,30-27.3,45.3-40.6c13.2-11.6,26.5-23.2,40.1-34.2c17.5-14.1,35.1-28.3,53.5-41.3c23.8-17,48.1-33.6,72.8-49.3
	c23.2-14.7,47.1-28.5,71.1-41.8c24.5-13.5,49.3-26.5,74.6-38.5c32.1-15.3,64.7-29.8,98.3-41.9c21.2-7.6,42.3-15.5,63.6-22.8
	c14.5-5,29.2-9.3,43.9-13.7C975.2,468.7,977,469.9,978.5,470.2L978.5,470.2z"/>
<path class="st6" d="M1617.2,1606.6c0.7,0.5,1.2,1.2,1.5,1.9c0,1.3-0.2,2.8,0.3,4c6.1,13,7.4,26.8,7.3,40.9
	c-0.2,74.5,0,149.1,0,223.6s-0.3,47,0.2,70.5c0.2,8.1-3,12.4-10,15.6c-21,9.5-41.8,19.2-62.6,29.3c-6.3,3-12.6,4.7-19.5,4.1
	c-10.3-1.2-11.1-2-11.3-10.9c0-3.2,0-6.3,0-9.5c0-101.6,0-203.2,0-304.8c0-5.7,1.2-11.8-3.1-16.7c1-3.5-2-4.8-4-6.2
	c-7.6-5.1-16.2-7.8-25.1-9.6c-15.2-3.1-30.5-3.3-45.8-2.4c-12.6,0.7-25.1,2.8-36.9,7.7c-9.7,4-15.6,10.4-14.4,21.7
	c0.3,3.1,0,6.3,0,9.5c0,88.5,0,176.9,0,265.4c0,4.1,0,8.1,0,12.2c0,3.5-1.7,6-4.7,7.7c-2.4,1.3-4.8,2.5-7.2,3.7
	c-20.4,9.7-40.8,19.3-61.1,29.1c-5.5,2.6-11,3.7-17,3.5c-0.9,0-1.8-0.1-2.7-0.2c-8.2-1.2-9.8-2.6-10.2-9.6c-0.1-1.8,0-3.6,0-5.4
	c0-111.1,0-222.1,0-333.2c0-27.6,10.9-49.8,32.3-67c18.2-14.6,39-24.3,61.4-30.5c55.5-15.6,110.5-14.4,164.8,5.9
	c26.3,9.8,49,24.8,66.3,47.3c0.6,0.8,1.2,1.7,1.8,2.5L1617.2,1606.6z M1384.9,1953.8c2.3-5.5,1.3-10.5,1.3-15.4c0-89,0-178,0-266.9
	c0-4.1,0-8.1,0-12.2c0.2-7.9,3.7-14.1,10.5-17.8c6.3-3.4,12.9-6.5,19.8-8.3c25.3-6.7,50.9-6.5,76.6-1.7c8.9,1.7,17.4,4.5,25.3,9.3
	c7.5,4.6,12,10.8,11.5,19.9c-0.2,3.6,0,7.2,0,10.8c0,101.2,0,202.3,0,303.5c0,4.3-1,8.9,1.1,13.1c6.8,1.5,12.7,0.7,18.7-2.2
	c21.1-10.3,42.3-20.1,63.5-30.2c1.6-0.8,3-1.9,5-3.1v-10.7c0-22.6,0-45.2,0-67.7c0-74.5,0-149,0-223.6c0-6.7-0.3-13.6-1.5-20.2
	c-3.3-17.7-13.4-31.3-26.9-42.6c-9.8-8.1-20.8-14.3-32.3-19.7c-32.1-15.1-66.2-20.5-101.3-20.4c-23.5,0-46.8,2.8-69.5,9.8
	c-19.9,6.1-39,14.2-55.8,26.8c-21.6,16.2-33,37-32.9,64.8c0.4,109.7,0.2,219.5,0.2,329.3c0,3.4,0.5,6.8,0.8,10
	c7.9,1.7,14.3,0,20.5-3.1c18.2-8.9,36.6-17.5,54.9-26.2c3.6-1.7,7.2-3.5,10.4-5.1L1384.9,1953.8z"/>
<path class="st6" d="M891.3,1959c-1.6-1.2-3.1-2.5-4.7-3.7c-0.9-0.8-1.8-1.5-2.7-2.3c-4-3.7-8.1-7.2-12-11
	c-16.1-15.4-24.7-34.1-25.4-56.4c-0.1-3.6,0-7.2,0-10.8c0-73.6,0.6-147.1-0.3-220.7c-0.4-36.2,14.9-62.2,44.5-81.1
	c23.5-15,49.3-24.3,76.7-28.7c38.3-6.2,76.4-5.3,114.1,4.6c17.1,4.5,33.2,11.2,48.7,19.8c16,8.9,29.2,21,40.6,35.2
	c0.6,0.9,1.3,1.7,1.9,2.6c1,1.3,1.9,2.6,2.9,3.8c0.8,3.5,1.6,6.9,2.3,10.4c1.2,5.3,3.4,10.5,3.5,15.8c0.5,19.4,0.3,38.8,0.4,58.2
	c0,4.6-2.2,7.6-6.3,9.5c-2.9,1.3-5.6,2.8-8.5,4.2c-18.4,8.7-36.8,17.2-55,26.1c-6.2,3-12.5,4.9-19.2,5.7c-0.4-0.1-0.9-0.4-1.3-0.4
	c-10.5-0.4-13.1-0.7-12.9-14.8c0.3-19.6,0.1-39.2,0-58.9c0-3.9,0.9-8.1-2.5-11.3c-0.4-4.2-3.5-6.4-6.7-7.8c-7-3-14.1-6.2-21.5-7.9
	c-16.4-3.8-33.2-4.1-49.8-2.7c-9.8,0.8-19.8,2.5-29.1,5.7c-18.7,6.4-19.9,11.9-19.9,27.5c0.2,63.2,0,126.4,0.1,189.6
	c0,3.6-0.3,7.3,0.4,10.8c1.2,6.6,4.2,11.9,11.7,13c2.1,1.5,4.1,3.8,6.4,4.5c6.9,2,13.9,4.2,21,4.9c20.7,2,41.4,2.7,61.8-2.2
	c6.9-1.6,13.6-4.6,20-7.7c5.7-2.7,8.3-7.7,8.1-14.3c-0.3-10.8,0-21.6-0.1-32.4c0-5.1,1.8-8.4,6.5-10.6c23.6-11,47.1-22.3,70.7-33.4
	c6.5-3.1,13.2-1.9,19.9-1.5c3,0.2,4.7,2.6,5.5,5.3c0.7,2.6,0.7,5.3,1.1,8c-0.1,5-0.3,9.9-0.4,14.9c0,22.6,0.2,45.1-0.1,67.7
	c-0.3,18.7-6.7,35.3-19.2,49.3c-8.5,9.5-18.1,17.6-29.2,23.9c-32.3,18.5-67.1,28.5-104.4,29.2c-9.9,0.2-19.9,0.2-29.8,0
	c-31.6-0.5-61.6-7.7-90.1-21.4c-3.5-1.7-7.5-2.5-11.3-3.8l-0.3-0.2c-0.6-3.5-3-4.6-6.2-4.4L891.3,1959z M1173.6,1697
	c0-20.7,0-40.6,0-60.4c0-3.1-1-6.2-1.7-9.3c-4.1-16.5-14-29.1-26.8-39.7c-11.2-9.3-23.9-16.1-37.2-21.9c-30.3-13.3-62.3-18-95.1-18
	c-24,0-47.8,2.7-70.8,9.9c-21.3,6.6-41.4,15.6-58.8,29.8c-18.9,15.4-29.4,34.8-29.4,59.7c0.2,78.6,0,157.2,0.1,235.7
	c0,5.4,0.5,10.8,1.5,16.1c3.6,18.7,14.4,32.8,29,44.4s31.3,19.7,48.8,25.9c20.1,7.1,41,10.5,62.2,12c31,2.2,61.3-0.6,91.1-9.4
	c20.9-6.2,40.5-15.3,57.7-29c19.8-15.9,30.7-36,30-62.1c-0.6-23.9-0.1-47.9-0.1-71.8c0-3.6-0.3-7.1-0.5-10.7
	c-6.9-2.8-12.6-0.8-18.4,2c-12.6,6-25.3,11.9-37.9,17.9c-10.1,4.8-20.2,9.7-30.6,14.7c-0.2,3.9-0.6,7.5-0.6,11c0,8.6,0,17.2,0,25.7
	s-3.6,15-10.9,18.9c-5.9,3.1-12.1,6.2-18.6,7.8c-26.2,6.9-52.7,7-79.2,1.5c-7.8-1.6-15.5-4.8-22.7-8.3c-8.3-4-12.8-11.1-12.2-20.8
	c0.2-2.7,0-5.4,0-8.1c0-63.7,0-127.4,0-191c0-3.2,0.1-6.3,0-9.5c-0.3-8.6,3.8-14.9,11-18.8c5.9-3.2,12.2-6.2,18.6-7.8
	c27.6-7,55.4-7.1,83.1-0.1c6.9,1.7,13.6,4.9,19.9,8.2c7.3,3.8,11.1,10.3,11,18.8c0,2.7,0,5.4,0,8.1c0,17.6,0,35.2,0,52.8
	c0,3.5,0.5,7,0.7,10.3c7.2,2.6,13,0.6,18.9-2.2c22.4-10.7,44.8-21.3,68.1-32.3L1173.6,1697z"/>
<path class="st6" d="M1783.4,1961.6c-8.2-7.1-16.8-13.7-24.5-21.2c-16-15.5-23.9-34.7-23.9-57c0-34.7,0-69.5,0-104.2
	c0-42.9,0.4-85.7-0.1-128.6c-0.4-30.5,12.1-54,36.2-71.8c20.2-15,42.8-24.7,67.2-30.6c47.5-11.4,94.8-10.4,141.6,3.7
	c13,3.9,25.3,9.5,37.2,16c19.8,10.8,35.6,25.9,48.3,44.4c0.3,2.6,0.2,5.4,1,7.9c3.3,10.9,4.7,22,4.5,33.3s-0.5,22.6,0.1,33.8
	c0.5,8.7-3.1,14.3-9.7,19.4c-41.2,31.4-82.2,63.1-123.3,94.7c-30.7,23.6-61.5,47.2-92.2,70.8c-1.9,1.5-3.3,3.7-5.7,6.4
	c5.8,3.4,9.9,7.9,16.5,6.8c1.9,3.7,5.7,4.3,9,4.9c8,1.4,16,2.8,24,3.2c16.2,0.7,32.5,1.2,48.3-2.9c6.9-1.8,13.7-4.4,20.2-7.3
	c6.3-2.8,9.3-8.1,9.2-15.2c-0.2-10.8,0-21.6,0-32.4c0-5.1,2-8.3,6.7-10.5c23.6-11,47.1-22.3,70.7-33.4c6.4-3,13.3-1.9,19.9-1.2
	c1.7,0.2,3.7,2.5,4.5,4.4c1.2,2.8,1.5,6.1,2.1,9.1c-0.2,2.7-0.4,5.4-0.5,8.1c0,23,0,46.1,0,69.1c-0.1,27.5-11.1,49.7-32.7,66.9
	c-19.4,15.5-41.5,25.3-65.1,32.2c-25.4,7.5-51.4,8.9-77.7,8.6c-36.3-0.3-70.7-7.6-103-24.5
	C1789.5,1963.1,1786.4,1962.6,1783.4,1961.6L1783.4,1961.6z M1830.7,1874.7c3.5-2.9,6.5-5.5,9.7-8c70.5-54.2,141-108.5,211.5-162.7
	c3.9-3,8.5-5.3,10.9-10.1c0-15.7,0-31.5,0-47.3c0.1-21.1-7.6-38.9-23-53c-7.6-7-16.1-13.3-25-18.4c-26.1-15.2-54.7-23.1-84.7-25.9
	c-19-1.8-37.9-1.8-56.8,0.1c-30.9,3.1-60.2,11.5-86.8,27.8c-8.4,5.1-16.3,11.5-23.3,18.4c-13.5,13.1-20.6,29.4-20.6,48.5
	c0,3.6,0,7.2,0,10.8c0,73.2,0,146.3,0,219.5c0,4.5,0,9,0.1,13.5c0.3,16,6.3,29.8,16.4,42c7.6,9.1,16.8,16.4,26.9,22.5
	c20.7,12.5,43,20.7,66.8,25c25.9,4.7,52,5.6,78.2,3c30.5-3.1,59.3-11.3,85.9-26.8c9-5.2,17.4-11.4,24.7-18.9
	c13.9-14.2,21.3-31.1,21.3-51.1c0-26.2,0-52.4,0-78.6c0-2.5-0.6-5-0.8-7.2c-7.5-2.3-13.2-0.2-19.1,2.7
	c-19.5,9.4-39.1,18.5-58.7,27.8c-3.2,1.5-6.3,3.3-9.4,5c-0.2,2.7-0.5,4.9-0.5,7.2c0,9.5-0.3,19,0,28.5c0.3,9.2-3.8,15.8-11.5,19.9
	c-5.9,3.1-12.2,5.9-18.7,7.6c-25.3,6.7-51,6.5-76.6,1.8c-8.8-1.6-17.5-4.5-25.3-9.2c-5.1-3.1-9.8-6.6-11.5-14.3L1830.7,1874.7z"/>
<path class="st6" d="M2421.1,1548.9c5.4,2.4,4,7.5,4.9,11.7c0.2,5-0.7,9.7-2.9,14.3c-9.4,19.5-18.8,39-27.7,58.6
	c-3.4,7.5-8.1,11-16.7,10.7c-12.6-0.6-25.2-0.2-37.9,0c-3,0-5.9,0.9-9.5,1.5c0,6.2,0,11.5,0,16.9c0,92.4,0,184.8,0,277.2
	c0,3.6,0,7.2,0,10.8c0,4.5-2.1,7.7-5.9,9.9c-2.3,1.3-4.8,2.5-7.2,3.6c-20.3,9.7-40.7,19.2-61,29.1c-5,2.4-10.1,3.7-15.6,3.7
	c-2.2-0.2-4.5-0.1-6.7-0.6c-4.3-0.9-6.3-3.1-6.6-7.3c-0.3-4-0.2-8.1-0.2-12.1c0-101.3,0-202.6,0-303.9c0-5-0.1-9.9-0.2-14.9
	c0-4.4,1-8.9-1.9-14.1c-26.3,0.1-52.7-0.3-79.2,0.3c-1.8-0.2-3.6-0.2-5.4-0.6c-6.2-1.4-7.8-3.1-8.1-8.9c-0.3-7.2,0.2-14.1,3.7-21
	c9.5-18.9,18.4-38.2,27.1-57.4c2.8-6.2,6.8-8.9,13.6-8.7c11.7,0.3,23.5,0,35.2,0c4.5,0,8.9,0,14,0c0.4-3.9,1-6.9,1-9.9
	c0-33.8,0-67.7,0-101.5c0-3.2,0-6.3,0-9.5c0-4,1.5-6.9,5.2-8.7c1.6-0.8,3.2-1.6,4.8-2.4c21.2-10,42.4-19.9,63.5-30.2
	c5.9-2.9,11.8-4.1,18.3-3.8c8.3,0.5,9.5,1.5,11.2,10.3c0.2,0.9,0.2,1.8,0.3,2.7c0,9,0,18,0,27.1c0,37,0,74.1,0,111.1
	c0,4.4-1.2,9,2.2,13.4c5.9,0.9,12.2,2.5,18.4,2.6c23,0.2,46.1,0,69.1-0.1L2421.1,1548.9z M2234.8,1636.1c0.1,6.3,0.3,11.2,0.3,16.1
	c0,107,0,214.1,0,321.1c0,4.8,0.3,9.7,0.5,14.9c7.2,1.1,13,0.8,19.1-2.2c21.5-10.5,43.2-20.5,64.8-30.7c1.2-0.6,2.1-1.6,4-3v-14.2
	c0-72.7,0-145.4,0-218.2c0-24.8,0-49.7,0-74.5c0-2.9,0.8-5.9,1.4-9.3h59.9c1.3-1.6,2.3-2.6,2.9-3.8c9.4-20,18.7-40.1,28.2-60
	c2.7-5.6,3.1-10.9,0.9-17.4c-4.6,0-9.1,0-13.6,0c-23.5,0-47,0-70.5,0c-3,0-5.9-0.7-9.3-1.2v-14.3c0-46.5,0-93,0-139.6
	c0-3.4-0.6-6.8-0.8-10c-7.4-1.2-13.3,0-19.3,2.9c-19.8,9.7-39.9,19-59.8,28.6c-2.8,1.3-5.4,3-8.4,4.7v13.9c0,34.8,0,69.6,0,104.3
	c0,3.4-0.6,6.8-1,10.8h-60.8c-10.4,21.9-20.6,43.5-30.7,65c-2.4,5-2.2,10.2-0.8,16h93.2L2234.8,1636.1z"/>
<path class="st7" d="M2241.6,1997c5.5,0,10.6-1.3,15.6-3.7c20.3-9.8,40.7-19.4,61-29.1c2.4-1.2,4.9-2.3,7.2-3.6
	c3.8-2.2,5.9-5.4,5.9-9.9c0-3.6,0-7.2,0-10.8c0-92.4,0-184.8,0-277.2s0-10.8,0-16.9c3.6-0.6,6.5-1.4,9.5-1.5
	c12.6-0.2,25.3-0.5,37.9,0c8.5,0.4,13.3-3.2,16.7-10.7c9-19.7,18.3-39.2,27.7-58.6c2.2-4.6,3.1-9.3,2.9-14.3
	c2.2,0.4,4.4,0.8,6.6,1.2c3.5,0.7,5.6,3.1,6.1,6.4c0.7,5.8,1.3,11.7-1.3,17.3c-10.1,21.6-20.4,43.2-30.5,64.8
	c-2.4,5.2-6.4,7-11.9,6.9c-11.7-0.2-23.4,0-35.2,0c-4.4,0-8.9,0.3-14.1,0.4c-0.5,3-1.2,5.5-1.2,8.1c-0.1,14.9,0,29.8,0,44.6
	c0,81.6,0,163.2,0,244.8c0,15.7,1.2,15.7-15,23.1c-19.6,9.1-39.2,18.3-58.6,27.9c-6.4,3.2-12.8,4-19.6,3.6s-8.1-1.7-9.4-8.9
	C2241.7,1999.6,2241.7,1998.2,2241.6,1997L2241.6,1997z"/>
<path class="st8" d="M102.6,1242.7c5.4,0,10.3,0.7,14.8,4.4c3.6,3,8.4,4.6,12.6,6.8c-1.5,10.8-6.7,20.4-10.4,30.5
	c-12.3,33.8-23.9,67.9-33.6,102.6c-3.9,13.8-8.2,27.5-12.1,41.4c-1.1,3.9-1,8-1.9,12c-3.3,15.3-6.8,30.6-10.2,45.9
	c-6.8,1-11.8-2.6-16.4-6.8c-4.4-4-9.2-6.8-15.4-5.9c1.7-9.2,3.1-18.5,5.3-27.6c14.9-61.7,34-122,57.6-181c3-7.5,6.5-14.8,9.7-22.2
	V1242.7z"/>
<path class="st7" d="M1303.6,1996.8c5.9,0.1,11.5-0.9,17-3.5c20.3-9.8,40.7-19.4,61.1-29.1c2.4-1.2,4.9-2.3,7.2-3.7
	c2.9-1.7,4.6-4.2,4.7-7.7c0-4.1,0-8.1,0-12.2c0-88.5,0-176.9,0-265.4c0-3.2,0.3-6.3,0-9.5c-1.2-11.3,4.7-17.7,14.4-21.7
	c11.8-4.9,24.3-7,36.9-7.7c15.3-0.9,30.7-0.7,45.8,2.4c8.9,1.8,17.5,4.5,25.1,9.6c2,1.4,5,2.7,4,6.2c-2.2-0.2-4.5,0-6.6-0.6
	c-25.8-6.8-51.8-6.5-77.7-1.4c-6.9,1.4-13.6,4.6-20.1,7.6c-5.7,2.7-8.7,7.6-8.5,14.2c0,3.6,0,7.2,0,10.8c0,89.7,0,179.4,0,269.1
	c0,5.4-0.2,10.7-0.3,16.3c-3.6,2.1-6.6,4.1-9.8,5.6c-21.2,10.1-42.4,19.9-63.5,30.1c-5.9,2.9-11.9,3.8-18.3,3.5
	c-7.7-0.4-8.9-1.3-10.7-9.2c-0.3-1.3-0.5-2.7-0.7-4V1996.8z"/>
<path class="st7" d="M724.5,1546c2.7,0.4,5.4,0.6,8,1.4c2.7,0.8,4.6,2.8,4.9,5.8c0.2,3.1,0.3,6.3,0.3,9.5c0,131.9,0,263.8,0,395.6
	c0,4-0.3,8.1-0.5,12.5c-3.3,1.9-6.2,3.9-9.4,5.5c-21.2,10.1-42.3,20.3-63.6,30.2c-3.6,1.7-7.6,3.2-11.5,3.3
	c-15.9,0.5-15.1,0.4-18.5-13.2c6.9,0.2,13.2-1.9,19.4-4.9c18.7-9,37.5-17.9,56.3-26.7c16.3-7.7,14.3-5.9,14.3-23.3
	c0-126.9,0-253.9,0-380.8c0-5,0.2-9.9,0.4-14.9L724.5,1546z"/>
<path class="st2" d="M724.5,1546c-0.1,5-0.4,9.9-0.4,14.9c0,126.9,0,253.9,0,380.8c0,17.4,2,15.6-14.3,23.3
	c-18.8,8.9-37.6,17.7-56.3,26.7c-6.2,3-12.5,5.1-19.4,4.9c-1.8-0.1-3.6-0.1-5.4-0.4c-3.5-0.5-5.8-2.7-6.3-6.1
	c-0.5-3.1-0.4-6.3-0.4-9.4c0-131.8,0-263.6,0-395.3c0-0.5,0-0.9,0-1.4c-1.4-9,2.6-13.9,10.9-17.6c21-9.3,41.7-19.3,62.3-29.4
	c6.4-3.1,12.7-4.2,19.6-3.8c7,0.4,8.3,1.6,9.4,8.7c0.2,1.3,0.2,2.7,0.3,4L724.5,1546z M628.8,1576.9V1804c0,57.8,0,115.5,0,173.3
	c0,3.8-1.4,8,1.8,11.6c7,1.2,13.3,0,19.6-3.2c19.8-9.7,39.8-19,59.7-28.5c2.7-1.3,5.2-3.1,7.8-4.7V1937c0-102.4,0-204.9,0-307.3
	c0-26.6,0-53.2,0-79.9c0-2.9-0.7-5.9-1-8.6c-7.3-1.5-13.2-0.5-19.2,2.4c-21.1,10.3-42.3,20.1-63.5,30.2c-1.6,0.8-3,1.8-5.2,3.2
	L628.8,1576.9z"/>
<path class="st7" d="M1856.6,1885.4c-6.6,1.1-10.7-3.4-16.5-6.8c2.3-2.7,3.7-4.9,5.7-6.4c30.7-23.7,61.5-47.2,92.2-70.8
	c41.1-31.6,82.1-63.3,123.3-94.7c6.6-5.1,10.2-10.7,9.7-19.4c-0.6-11.2-0.3-22.5-0.1-33.8s-1.2-22.4-4.5-33.3
	c-0.8-2.5-0.7-5.3-1-7.9c1.4,0.9,3.3,1.5,4.2,2.7c10.1,13.5,13.9,29.1,14.1,45.7c0.2,13.5-0.3,27.1,0.2,40.6
	c0.3,8.1-2.5,13.6-8.9,18.3c-14.9,11-29.4,22.4-44.1,33.6c-54.7,42-109.3,84.1-164.1,126.1C1863.7,1881.7,1860,1883.4,1856.6,1885.4
	L1856.6,1885.4z"/>
<path class="st7" d="M1534.4,1996.6c6.9,0.5,13.2-1.1,19.5-4.1c20.7-10,41.6-19.8,62.6-29.3c7.1-3.2,10.2-7.5,10-15.6
	c-0.5-23.5-0.2-47-0.2-70.5c0-74.5,0-149.1,0-223.6c0-14.2-1.2-27.9-7.3-40.9c-0.5-1.1-0.2-2.6-0.3-4c2,1.7,4.4,3,5.9,5.1
	c9.3,12.7,13.8,27.2,14.6,42.9c0.2,4,0,8.1,0,12.2c0,95.1,0,190.1,0,285.2c0,18.3,1.2,16.9-16.1,25.1c-19.2,9-38.4,17.9-57.3,27.3
	c-6.8,3.4-13.7,3.9-21,3.6c-4.7-0.2-7.4-2.5-8.1-7.3c-0.3-2.1-1.6-4-2.4-5.9L1534.4,1996.6z"/>
<path class="st7" d="M1783.4,1961.6c2.9,0.9,6.1,1.5,8.8,2.9c32.3,16.9,66.7,24.2,103,24.5c26.3,0.2,52.3-1.2,77.7-8.6
	c23.6-6.9,45.7-16.7,65.1-32.2c21.5-17.2,32.5-39.4,32.7-66.9c0.1-23,0-46.1,0-69.1c0-2.7,0.3-5.4,0.5-8.1c1.4,0,2.7-0.4,4-0.1
	c5.7,1,7.5,2.5,8.1,7.3c0.3,2.7,0.3,5.4,0.3,8.1c0,24.4-0.3,48.8,0,73.1c0.5,29.8-11.5,53.2-35.1,71c-20.1,15.2-42.7,25.3-67.1,31.1
	c-50.7,12.1-101.1,11.2-150.7-5.9c-14.6-5-28.3-11.9-41-20.6C1787.2,1966.4,1785.4,1963.8,1783.4,1961.6L1783.4,1961.6z"/>
<path class="st7" d="M897.8,1963.6c3.8,1.2,7.8,2.1,11.3,3.8c28.5,13.7,58.5,20.9,90.1,21.4c9.9,0.2,19.9,0.2,29.8,0
	c37.3-0.7,72-10.7,104.4-29.2c11.1-6.4,20.7-14.4,29.2-23.9c12.5-14,18.9-30.6,19.2-49.3c0.3-22.6,0-45.1,0.1-67.7
	c0-5,0.2-9.9,0.4-14.9c1.4,0,2.7,0,4.1,0.1c6.6,1.2,8.5,2.6,8.5,8.3c0.1,31.1,0.7,62.3-0.4,93.4c-0.7,19.1-10.1,35.3-23.8,48.8
	c-15.7,15.5-34.8,25.6-55.2,33.4c-23.3,8.9-47.6,13.6-72.6,14.4c-29,0.9-57.7-0.4-85.8-8.5c-19.2-5.6-37.4-13.3-54.1-24.3
	c-2.1-1.4-5-2.3-5.1-5.6L897.8,1963.6z"/>
<path class="st7" d="M961.4,1883.1c-7.6-1-10.5-6.4-11.7-13c-0.6-3.5-0.4-7.2-0.4-10.8c0-63.2,0.1-126.4-0.1-189.6
	c0-15.7,1.2-21.1,19.9-27.5c9.3-3.2,19.3-4.9,29.1-5.7c16.7-1.4,33.5-1.2,49.8,2.7c7.4,1.7,14.5,4.9,21.5,7.9
	c3.3,1.4,6.3,3.6,6.7,7.8c-2.2-0.2-4.5-0.1-6.7-0.7c-25.3-6.8-50.8-6.8-76.3-1.9c-7.4,1.4-14.5,4.6-21.5,7.7
	c-6.2,2.8-9.5,8-9.2,15.2c0.1,3.6,0,7.2,0,10.8c0,60.8,0,121.6,0,182.4C962.5,1873.3,961.8,1878.2,961.4,1883.1z"/>
<path class="st4" d="M2699.9,2034.8c-6.2,6.5-11.9,13.6-18.7,19.4c-18.5,15.8-37.4,31.1-56.2,46.5c-15.7,12.8-31.3,25.7-47.3,38.2
	c-15.2,11.9-30.6,23.7-46.3,35c-29.3,21-58.7,41.8-88.4,62.1c-40.2,27.4-81.5,53.2-123.3,78c-13.2,7.8-26.2,15.9-39.5,23.4
	c-4.5,2.5-8.8,6.7-14.9,4.8c3.8-2.5,7.4-5.1,11.3-7.4c131.1-78,255.1-165.9,370.2-266.1c8.2-7.1,16.7-14,24.2-21.7
	c6.7-6.9,14.4-10.6,23.6-11.8c1.8-0.2,3.6-0.3,5.4-0.4L2699.9,2034.8z"/>
<path class="st1" d="M30.1,1473.6c6.3-0.9,11.1,1.9,15.4,5.9c4.7,4.2,9.6,7.8,16.4,6.8c-0.9,6.1-1.7,12.3-2.9,18.4
	c-3.2,16.6-6.5,33.2-8.1,50.1c-1,10.2-3.2,20.2-4.7,30.3c-0.3,2.2-0.5,4.5-0.4,6.7c0.3,6.8-0.6,13.4-2.8,19.8
	c-7.8-1.5-12.5-7.8-18.5-12c-4.4-3.1-8.5-6.3-14-7c1.1-10.7,1.5-21.4,3.3-31.9c5.1-29.1,10.7-58,16.1-87.1L30.1,1473.6z"/>
<path class="st6" d="M648.5,1505.3c-5.2-4.3-10.5-8.4-15.5-13c-25.1-23.4-25.2-65.8,3-89.4c21.1-17.7,52-18.2,73.2-0.5
	c6.1,5.1,11.1,11.7,16.7,17.5c0.5,0.8,1.1,1.5,1.6,2.3c0.5,0.7,1.1,1.4,1.6,2.1c0.1,2.2-0.2,4.6,0.5,6.6c2.4,6.5,2.4,13.2,2.3,19.9
	c-0.5,37.4-35.2,64.7-71.8,56.7c-3.9-0.9-7.9-1.4-11.8-2.2H648.5z M671.1,1500.9c29.4,2.1,53.2-23.4,53.6-50.9
	c0.4-31.6-26.3-52.3-48.8-53.3c-28.6-1.2-53.3,21.2-54.2,50.5c-1,32.4,25.5,54.2,49.4,53.6V1500.9z"/>
<path class="st7" d="M1092.8,1740.3c6.7-0.8,13-2.7,19.2-5.7c18.2-9,36.7-17.4,55-26.1c2.9-1.4,5.6-2.9,8.5-4.2
	c4.1-1.9,6.3-4.9,6.3-9.5c0-19.4,0-38.8-0.4-58.2c-0.1-5.3-2.3-10.5-3.5-15.8c-0.8-3.5-1.6-6.9-2.3-10.4c1.1,0.6,2.6,0.9,3.3,1.8
	c9.7,12.4,15.3,26.5,15.8,42.2c0.6,17.5,0,35,0.3,52.6c0,5.8-2.6,9.1-7.6,11.4c-10.2,4.7-20.3,9.7-30.4,14.5
	c-11,5.2-22.1,10-32.8,15.6c-7.1,3.7-14.3,5-22.1,4.5c-7.5-0.5-8.7-1.7-9.7-9.9c0-0.9,0.2-1.8,0.3-2.7L1092.8,1740.3z"/>
<path class="st7" d="M2421.1,1548.9c-23,0-46.1,0.4-69.1,0.1c-6.2,0-12.4-1.7-18.4-2.6c-3.4-4.4-2.2-9-2.2-13.4c0-37,0-74.1,0-111.1
	c0-9,0-18.1,0-27.1c2.2,0.4,4.5,0.6,6.6,1.2c3.9,1.1,6.1,3.9,6.3,7.9c0.2,3.6,0.2,7.2,0.2,10.8c0,38.3,0,76.7,0,115s0,9.9,0,15.5
	c3.6,0.5,6.6,1.3,9.6,1.3c18.5,0.1,37,0,55.5,0.1c3.9,0,8.2-1.2,11.6,2.1L2421.1,1548.9z"/>
<path class="st7" d="M648.5,1505.3c3.9,0.7,7.9,1.3,11.8,2.2c36.5,8.1,71.2-19.3,71.8-56.7c0-6.7,0-13.4-2.3-19.9
	c-0.7-2-0.4-4.4-0.5-6.6c1.2,0.6,2.7,0.8,3.4,1.7c17,19.9,18.4,54.9-4,77.9c-20.6,21.1-53.2,24.1-76.5,6.5
	C650.6,1509.2,649.7,1507,648.5,1505.3L648.5,1505.3z"/>
<path class="st7" d="M2146.9,1644.4c26.5-0.5,52.9-0.1,79.2-0.3c2.9,5.2,1.9,9.7,1.9,14.1c-6.3-0.3-12.5-0.8-18.8-0.9
	c-14.8-0.1-29.6,0-44.4,0c-3.1,0-6.3,0.1-9.4-0.2c-5-0.4-6.8-2.2-8-7.4c-0.4-1.7-0.3-3.6-0.4-5.4L2146.9,1644.4z"/>
<path class="st9" d="M1366.1,890.5c1.8,1,3.6,2.8,5.4,2.9c4.7,0.3,9.5-0.2,14.3-0.4c-5.8,0.3-11.9,1.7-17.4,0.5
	c-6-1.3-11.5-2.7-17.8-1.6c-6.1,1.1-12.5,0.7-18.7,1.3s-12.5,1.3-18.7,2.2c-23.9,3.6-47.8,7.3-71.7,10.9c-2.7-0.9-5.3-1.8-8-2.7
	c6.1-1.4,12-3.4,18.2-4.2c21.7-2.9,43.5-5.3,65.3-7.9c1.8-0.2,3.6-0.2,5.4-0.3c12-0.4,24,2.3,35.9-1.2c2.4-0.7,5.3,0.3,7.9,0.5
	H1366.1z"/>
<path class="st4" d="M1381.4,2595.4c-18.3,0-36.4-2.1-54.5-4.8c-9.7-1.5-19.5-2-29.3-3.2c-2.6-0.3-5-1.5-7.5-2.3
	c2.7-0.9,5.4-1.7,8.2-2.6c12.4,1.9,24.7,3.8,37.1,5.5c13.7,1.9,27.5,3.6,41.2,5.6C1378.3,2593.8,1379.8,2594.8,1381.4,2595.4
	L1381.4,2595.4z"/>
<path class="st9" d="M1298.2,2582.5c-2.7,0.9-5.4,1.7-8.2,2.6c-15.5-1.6-30.9-3.3-45.7-8.4c3.6-0.7,8,1.5,10.8-2.6
	c14.4,2.8,28.7,5.6,43.1,8.5L1298.2,2582.5z"/>
<path class="st4" d="M2265.4,2342.1c0,0.9,0.2,2.1-0.3,2.6c-5.2,5.1-10.9,9.1-18.7,8.7C2252.7,2349.6,2259.1,2345.9,2265.4,2342.1z"
	/>
<path class="st4" d="M2241.5,2356.1c-2.4,6.6-7.7,8.3-14.1,8C2232.1,2361.4,2236.8,2358.7,2241.5,2356.1z"/>
<path class="st7" d="M891.3,1959c3.2-0.2,5.6,0.8,6.2,4.4C894,1964,892.3,1962,891.3,1959z"/>
<path class="st5" d="M989.3,467c-1.4,2.2-3.3,3-5.8,2.1C985.4,465,985.9,464.9,989.3,467z"/>
<path class="st4" d="M2246.7,2353c-0.3,3.5-2.8,3.7-5.5,3.4C2243,2355.3,2244.8,2354.1,2246.7,2353z"/>
<path class="st4" d="M2227.7,2363.8c-0.4,3.4-2.8,3.7-5.5,3.3C2224,2366,2225.8,2364.9,2227.7,2363.8z"/>
<path class="st4" d="M2222.5,2366.8c-0.6,3.1-2.9,3.3-5.5,3.2C2218.8,2368.9,2220.6,2367.9,2222.5,2366.8z"/>
<path class="st4" d="M2217.2,2369.8c-0.8,2.8-3,3-5.4,3C2213.6,2371.8,2215.4,2370.8,2217.2,2369.8z"/>
<path class="st4" d="M2211.8,2372.8c-0.8,2.4-2.9,2.6-5,2.7C2208.5,2374.6,2210.1,2373.7,2211.8,2372.8z"/>
<path class="st4" d="M2206.2,2375.9c-1.5,0.9-3,1.7-4.5,2.6C2203.2,2377.6,2204.7,2376.8,2206.2,2375.9z"/>
<path class="st7" d="M883.9,1953c0.9,0.8,1.8,1.5,2.7,2.3C885.7,1954.5,884.8,1953.8,883.9,1953z"/>
<path class="st7" d="M727.6,1422.3c-0.5-0.8-1.1-1.5-1.6-2.3C726.5,1420.8,727.1,1421.5,727.6,1422.3z"/>
<path class="st7" d="M1172.7,1606.5c-0.6-0.9-1.3-1.7-1.9-2.6C1171.4,1604.8,1172.1,1605.6,1172.7,1606.5z"/>
<path class="st7" d="M1617.2,1606.6c-0.6-0.8-1.2-1.7-1.8-2.5C1616,1604.9,1616.6,1605.8,1617.2,1606.6z"/>
<path class="st10" d="M1384.9,1953.8c-3.2,1.6-6.8,3.4-10.4,5.1c-18.3,8.7-36.7,17.4-54.9,26.2c-6.3,3.1-12.6,4.8-20.5,3.1
	c-0.3-3.1-0.8-6.5-0.8-10c0-109.8,0.2-219.5-0.2-329.3c-0.1-27.7,11.3-48.6,32.9-64.8c16.8-12.6,35.9-20.6,55.8-26.8
	c22.6-7,45.9-9.7,69.5-9.8c35.1-0.1,69.2,5.3,101.3,20.4c11.5,5.4,22.5,11.5,32.3,19.7c13.6,11.3,23.6,24.9,26.9,42.6
	c1.2,6.6,1.5,13.4,1.5,20.2c0.1,74.5,0,149,0,223.6c0,22.6,0,45.2,0,67.7v10.7c-2,1.3-3.4,2.4-5,3.1c-21.2,10.1-42.4,19.9-63.5,30.2
	c-6,2.9-11.9,3.7-18.7,2.2c-2.1-4.3-1.1-8.8-1.1-13.1c0-101.2,0-202.3,0-303.5c0-3.6-0.2-7.2,0-10.8c0.5-9.2-4-15.4-11.5-19.9
	c-7.8-4.8-16.4-7.6-25.3-9.3c-25.6-4.8-51.2-5-76.6,1.7c-6.9,1.8-13.5,5-19.8,8.3c-6.8,3.6-10.3,9.9-10.5,17.8c0,4.1,0,8.1,0,12.2
	c0,89,0,178,0,266.9c0,4.9,1,9.9-1.3,15.4L1384.9,1953.8z"/>
<path class="st11" d="M1173.6,1697c-23.3,11-45.7,21.6-68.1,32.3c-5.8,2.8-11.7,4.8-18.9,2.2c-0.2-3.3-0.7-6.8-0.7-10.3
	c0-17.6,0-35.2,0-52.8c0-2.7,0-5.4,0-8.1c0.1-8.5-3.7-15-11-18.8c-6.3-3.3-13-6.4-19.9-8.2c-27.6-7-55.5-6.8-83.1,0.1
	c-6.5,1.6-12.7,4.6-18.6,7.8c-7.2,3.9-11.3,10.2-11,18.8c0.1,3.2,0,6.3,0,9.5c0,63.7,0,127.4,0,191c0,2.7,0.2,5.4,0,8.1
	c-0.6,9.7,3.9,16.8,12.2,20.8c7.2,3.5,14.9,6.7,22.7,8.3c26.4,5.6,53,5.4,79.2-1.5c6.4-1.7,12.7-4.7,18.6-7.8
	c7.4-3.9,11-10.4,10.9-18.9c0-8.6,0-17.2,0-25.7c0-3.6,0.4-7.1,0.6-11c10.4-5,20.5-9.9,30.6-14.7c12.6-6,25.3-11.9,37.9-17.9
	c5.8-2.8,11.6-4.8,18.4-2c0.2,3.6,0.5,7.2,0.5,10.7c0,23.9-0.5,47.9,0.1,71.8c0.7,26.1-10.2,46.2-30,62.1
	c-17.1,13.7-36.8,22.8-57.7,29c-29.7,8.8-60.1,11.6-91.1,9.4c-21.3-1.5-42.1-4.9-62.2-12c-17.5-6.2-34.1-14.2-48.8-25.9
	c-14.6-11.6-25.4-25.7-29-44.4c-1-5.3-1.5-10.7-1.5-16.1c0-78.6,0-157.2-0.1-235.7c0-24.9,10.5-44.3,29.4-59.7
	c17.4-14.2,37.5-23.2,58.8-29.8c23.1-7.2,46.8-9.9,70.8-9.9c32.8,0,64.8,4.7,95.1,18c13.3,5.8,26,12.6,37.2,21.9
	c12.8,10.6,22.7,23.2,26.8,39.7c0.8,3.1,1.7,6.2,1.7,9.3c0.2,19.8,0,39.7,0,60.4L1173.6,1697z"/>
<path class="st10" d="M1830.7,1874.7c1.8,7.7,6.4,11.2,11.5,14.3c7.8,4.7,16.5,7.6,25.3,9.2c25.6,4.7,51.2,4.9,76.6-1.8
	c6.5-1.7,12.8-4.5,18.7-7.6c7.7-4.1,11.9-10.6,11.5-19.9c-0.3-9.5,0-19,0-28.5c0-2.2,0.3-4.5,0.5-7.2c3.1-1.7,6.2-3.4,9.4-5
	c19.5-9.3,39.2-18.4,58.7-27.8c5.8-2.8,11.6-5,19.1-2.7c0.3,2.2,0.8,4.7,0.8,7.2c0,26.2,0,52.4,0,78.6c0,20-7.4,36.9-21.3,51.1
	c-7.3,7.5-15.7,13.6-24.7,18.9c-26.6,15.5-55.4,23.7-85.9,26.8c-26.3,2.7-52.3,1.7-78.2-3c-23.8-4.3-46.1-12.5-66.8-25
	c-10.1-6.1-19.3-13.4-26.9-22.5c-10.1-12.2-16.1-26-16.4-42c0-4.5-0.1-9-0.1-13.5c0-73.2,0-146.3,0-219.5c0-3.6,0-7.2,0-10.8
	c0-19.1,7.1-35.4,20.6-48.5c7-6.9,14.9-13.2,23.3-18.4c26.6-16.3,55.9-24.8,86.8-27.8c18.9-1.9,37.9-1.9,56.8-0.1
	c30,2.8,58.6,10.8,84.7,25.9c8.9,5.2,17.4,11.5,25,18.4c15.4,14.1,23.1,32,23,53c0,15.8,0,31.6,0,47.3c-2.4,4.8-7,7.1-10.9,10.1
	c-70.5,54.3-141,108.5-211.5,162.7c-3.2,2.4-6.2,5.1-9.7,8L1830.7,1874.7z M1973.6,1668.9c2.7-13.4-3.3-22.6-14.7-28.7
	c-5.5-2.9-11.4-5.4-17.5-7c-25.3-6.8-50.9-6.6-76.4-1c-6.1,1.3-12.1,3.6-17.9,5.9c-11.7,4.8-17,13.3-16.9,26.4
	c0.5,38.3,0.2,76.7,0.2,115.1c0,1.6-0.6,3.7,1.7,4.5c9.2-5.2,119.5-95,141.4-115.2L1973.6,1668.9z"/>
<path class="st11" d="M2234.8,1636.1h-93.2c-1.4-5.8-1.5-11,0.8-16c10.1-21.6,20.4-43.1,30.7-65h60.8c0.4-4,1-7.4,1-10.8
	c0-34.8,0-69.6,0-104.3v-13.9c3-1.7,5.7-3.3,8.4-4.7c19.9-9.5,40-18.8,59.8-28.6c6-2.9,11.8-4.1,19.3-2.9c0.3,3.2,0.8,6.6,0.8,10
	c0,46.5,0,93,0,139.6v14.3c3.4,0.5,6.4,1.2,9.3,1.2c23.5,0,47,0,70.5,0c4.5,0,8.9,0,13.6,0c2.2,6.5,1.7,11.8-0.9,17.4
	c-9.5,19.9-18.8,40-28.2,60c-0.6,1.2-1.6,2.1-2.9,3.8h-59.9c-0.5,3.5-1.4,6.4-1.4,9.3c-0.1,24.8,0,49.7,0,74.5
	c0,72.7,0,145.4,0,218.2v14.2c-1.9,1.4-2.8,2.4-4,3c-21.6,10.2-43.3,20.3-64.8,30.7c-6.1,3-11.9,3.3-19.1,2.2
	c-0.2-5.2-0.5-10-0.5-14.9c0-107,0-214.1,0-321.1c0-4.9-0.2-9.8-0.3-16.1L2234.8,1636.1z"/>
<path class="st11" d="M628.8,1576.9c2.2-1.4,3.6-2.4,5.2-3.2c21.2-10.1,42.4-19.9,63.5-30.2c6-2.9,11.9-3.9,19.2-2.4
	c0.3,2.7,1,5.7,1,8.6c0,26.6,0,53.2,0,79.9c0,102.4,0,204.9,0,307.3v15.5c-2.5,1.5-5,3.3-7.8,4.7c-19.9,9.5-39.9,18.8-59.7,28.5
	c-6.4,3.1-12.7,4.4-19.6,3.2c-3.2-3.5-1.7-7.7-1.8-11.6c-0.1-57.8,0-115.5,0-173.3L628.8,1576.9L628.8,1576.9z"/>
<path class="st11" d="M671.1,1500.9c-23.9,0.6-50.4-21.2-49.4-53.6c0.9-29.3,25.6-51.7,54.2-50.5c22.5,0.9,49.2,21.7,48.8,53.3
	c-0.4,27.5-24.2,52.9-53.6,50.9V1500.9z"/>
<path class="st6" d="M1973.6,1668.9c-21.9,20.1-132.3,110-141.4,115.2c-2.3-0.8-1.7-2.9-1.7-4.5c0-38.4,0.3-76.7-0.2-115.1
	c-0.2-13.1,5.1-21.6,16.9-26.4c5.8-2.4,11.8-4.6,17.9-5.9c25.5-5.6,51-5.8,76.4,1c6,1.6,12,4.1,17.5,7c11.4,6.1,17.5,15.3,14.7,28.7
	L1973.6,1668.9z M1854.3,1758.3c34.8-28.5,69.5-57,104.2-85.6c3.4-2.8,7.7-4.8,9-10.7c-1.4-2-3.1-4.5-4.8-7
	c-0.6-4.1-3.9-5.9-6.9-7.8c-7-4.2-14.7-6.7-22.7-8.4c-14.7-3.1-29.6-3.4-44.5-2.4c-12.1,0.8-24.2,2.9-35.6,7.4
	c-9.8,3.9-15.1,9.8-14.9,21.3c0.6,32.1,0.2,64.2,0.2,96.2c0,2.1-0.8,4.6,2.3,6.3C1845.7,1765.6,1849.9,1761.7,1854.3,1758.3
	L1854.3,1758.3z"/>
<path class="st11" d="M1962.7,1655c1.7,2.5,3.4,5,4.8,7c-1.3,5.9-5.6,7.9-9,10.7c-34.7,28.6-69.5,57.1-104.2,85.6
	c-2.5-1-2.9-3.2-2.9-5.5c0-26.1,0-52.3-0.1-78.4c0-6.7,2.9-11.1,8.4-14.3c6.7-3.9,13.9-6.5,21.5-7.9c25.6-4.6,51-5.1,76.2,2.3
	c1.7,0.5,3.5,0.3,5.3,0.4L1962.7,1655z"/>
<path class="st7" d="M1962.7,1655c-1.8-0.1-3.7,0-5.3-0.4c-25.2-7.4-50.7-6.9-76.2-2.3c-7.6,1.4-14.8,3.9-21.5,7.9
	c-5.5,3.2-8.5,7.6-8.4,14.3c0.2,26.1,0,52.3,0.1,78.4c0,2.3,0.4,4.5,2.9,5.5c-4.4,3.5-8.7,7.4-13.8,9.4c-3.1-1.8-2.3-4.3-2.3-6.3
	c0-32.1,0.3-64.2-0.2-96.2c-0.2-11.5,5.1-17.4,14.9-21.3c11.5-4.6,23.5-6.6,35.6-7.4c14.9-1,29.8-0.7,44.5,2.4
	c8,1.7,15.7,4.2,22.7,8.4c3.1,1.8,6.3,3.7,6.9,7.8L1962.7,1655z"/>
<g>
	<path class="st12" d="M3095.4,1615.9v29.8c0,212.8,0.5,425.5-0.6,638.3c-0.1,28.2,6.8,50.6,25.1,71.7c11.2,12.9,21.5,20.1,39.6,20
		c104.7-0.9,209.4-0.4,314.1-0.5c7.7,0,15.3-0.9,26.3-1.5v-35.1c0-350.8,0-701.6,0-1052.4c0-7,0.3-14.1-0.2-21.1
		c-0.3-4.2-0.6-10.5-3.3-12.2c-23.2-14.8-42-37.8-73.3-37.7c-128.5,0.3-256.9,0.1-385.4,0.3c-7.5,0-15.1,1.6-21.6,2.3
		c-1.3,4.1-2.3,5.7-2.3,7.4c-0.2,107.3-0.4,214.5-0.3,321.8c0,5.8,1.3,12.7,4.5,17.3c17.3,24.9,32.5,53.7,70.9,47
		C3089.5,1611.2,3090.3,1612.3,3095.4,1615.9L3095.4,1615.9z"/>
	<path d="M3095.4,1615.9c-5.1-3.8-5.9-4.8-6.5-4.7c-38.4,6.6-53.6-22.2-70.9-47c-3.2-4.6-4.5-11.4-4.5-17.3
		c-0.1-107.3,0.1-214.5,0.3-321.8c0-1.7,1-3.3,2.3-7.4c6.5-0.7,14.1-2.3,21.6-2.3c128.5-0.2,256.9,0,385.4-0.3
		c31.3,0,50.1,22.9,73.3,37.7c2.7,1.7,3,8,3.3,12.2c0.5,7,0.2,14.1,0.2,21.1c0,350.8,0,701.6,0,1052.4v35.1
		c-10.9,0.7-18.6,1.5-26.3,1.5c-104.7,0-209.4-0.4-314.1,0.5c-18.1,0.2-28.4-7-39.6-20c-18.2-21.1-25.2-43.5-25.1-71.7
		c1.1-212.8,0.6-425.5,0.6-638.3V1615.9L3095.4,1615.9z M3434.8,2318.2V1225.4h-413.1v328.5h82.2c0,39.4,0,75.2,0,111v435
		c0,36.9,0,73.8,0,110.7c0.1,35.6-0.5,71.2,0.4,107.5h330.5L3434.8,2318.2z M3487.6,2356.2c0.4-9.8,0.7-13.2,0.7-16.7
		c0-352.5,0-705.1,0-1057.6c0-26.5-7.2-34.3-39.9-42.9v29.2c0,340.2,0,680.5,0,1020.7c0,6.2-0.9,12.5,0.4,18.4
		c1.4,6.5,3.2,13.9,7.4,18.8C3464.6,2335.9,3474.8,2344.1,3487.6,2356.2L3487.6,2356.2z M3118.8,2331.1c11,24.4,25,33.3,48.8,33
		c92.9-1.3,185.9-0.5,278.8-0.6c7.3,0,14.5-1.1,24.1-1.9c-16.1-22.9-33.8-31.4-59.6-31c-87.7,1.5-175.4,0.6-263.1,0.6h-29.1
		L3118.8,2331.1z M3090.6,1565.7h-56.4c17.6,30.5,28.9,38.7,56.4,28.3V1565.7z"/>
	<path class="st12" d="M3434.8,2318.2h-330.5c-1-36.4-0.3-72-0.4-107.5c-0.1-36.9,0-73.8,0-110.7v-435c0-35.8,0-71.6,0-111h-82.2
		v-328.5h413.1v1092.8L3434.8,2318.2z"/>
	<path class="st13" d="M3487.6,2356.2c-12.9-12.1-23-20.4-31.5-30.2c-4.2-4.8-6-12.2-7.4-18.8c-1.2-5.9-0.4-12.3-0.4-18.4
		c0-340.2,0-680.5,0-1020.7v-29.2c32.7,8.6,39.9,16.4,39.9,42.9c0,352.5,0,705.1,0,1057.6
		C3488.2,2342.9,3487.9,2346.4,3487.6,2356.2L3487.6,2356.2z"/>
	<path class="st13" d="M3118.8,2331.1h29.1c87.7,0,175.4,0.9,263.1-0.6c25.7-0.4,43.5,8.1,59.6,31c-9.5,0.8-16.8,1.9-24.1,1.9
		c-93,0.1-185.9-0.7-278.8,0.6c-23.8,0.3-37.8-8.6-48.8-33L3118.8,2331.1z"/>
	<path class="st13" d="M3090.6,1565.7v28.3c-27.6,10.4-38.9,2.2-56.4-28.3H3090.6z"/>
</g>
</svg>
