<?xml version="1.0" encoding="UTF-8"?>
<svg id="Layer_01" data-name="Layer 01" xmlns="http://www.w3.org/2000/svg" version="1.1" viewBox="0 0 3500 3500">
  <defs>
    <style>
      .cls-1 {
        fill: #12a3aa;
      }

      .cls-1, .cls-2, .cls-3 {
        stroke-width: 0px;
      }

      .cls-2 {
        fill: #db5aaa;
      }

      .cls-3 {
        fill: #fefefe;
      }
    </style>
  </defs>
  <path class="cls-1" d="M295.61,1373.44v481.34c63.83,0,125.04-25.35,170.18-70.49,45.14-45.14,70.49-106.35,70.49-170.18s-25.35-125.04-70.49-170.18c-45.14-45.14-106.35-70.49-170.18-70.49Z"/>
  <path class="cls-1" d="M240.67,1643.9v481.34c-63.83,0-125.04-25.35-170.18-70.49C25.36,2009.62,0,1948.41,0,1884.57s25.35-125.04,70.49-170.18c45.14-45.14,106.35-70.49,170.18-70.49Z"/>
  <path class="cls-2" d="M214.98,1574.8c20.39-24.75,30.07-56.46,26.98-88.38-3.09-31.92-18.66-61.19-43.42-81.58-24.75-20.39-56.46-30.07-88.38-26.98-31.92,3.09-61.19,18.66-81.58,43.42-20.39,24.75-30.07,56.46-26.98,88.38,3.09,31.92,18.66,61.19,43.42,81.58,24.75,20.39,56.46,30.07,88.38,26.98,31.92-3.09,61.19-18.66,81.58-43.42Z"/>
  <g>
    <path class="cls-3" d="M677.57,2051.97v45.39c0,9.65,7.82,17.48,17.48,17.48h35.91c25.16,0,45.55-20.39,45.55-45.55v-47.25c0-9.65-7.82-17.48-17.48-17.48h-34.05c-26.18,0-47.41,21.23-47.41,47.41Z"/>
    <path class="cls-3" d="M776.74,1768.94v45.39c0,39.75-32.22,71.97-71.97,71.97h-20.37c-3.77,0-6.82-3.05-6.82-6.82v-198.38c0-3.68,2.92-6.63,6.6-6.83.87-.05,1.74-.08,2.6-.08,67.54-.02,135.09-.33,202.63.17,31.42.23,62.49,3.95,92.41,14.64,53.51,19.12,83.11,57,90.09,113.15,3.36,27.08,2.7,53.94-4.16,80.37-11.75,45.25-41.17,74.27-84.42,90.19h0c-4.25,1.56-5.81,6.77-3.15,10.43,29.39,40.47,58.46,80.51,87.57,120.6,3.15,4.34.31,10.48-5.05,10.82-24.53,1.57-78.89,1.89-97.18.27-1.97-.17-3.72-1.21-4.87-2.82-28.25-39.72-56.97-80.08-85.83-120.65-1.28-1.8-3.36-2.87-5.57-2.87h-92.75v.18h-92.12c-3.77,0-6.82-3.05-6.82-6.82v-3.19c0-42.25,34.25-76.5,76.5-76.5h75.66v-.57c23.93-.31,47.87-.64,71.79-1.18,13.21-.3,25.86-3.74,37.7-9.58,14.98-7.38,26.39-20.85,30.36-37.07,2.8-11.44,3.24-23,1.78-34.92-2.89-23.67-15.03-39.9-36.7-48.83-.26-.11-.48-.19-.75-.26-2.68-.77-19.45-5.48-30.51-5.48-10.25,0-94.71-1.67-119.72-2.16-3.82-.08-6.95,3-6.95,6.82Z"/>
  </g>
  <g>
    <path class="cls-3" d="M2159.88,1958.75v-267.78c0-8.95-7.25-16.2-16.2-16.2h-29.99c-28.76,0-52.08,23.32-52.08,52.08v267.78c0,8.95,7.25,16.2,16.2,16.2h29.99c28.76,0,52.08-23.32,52.08-52.08Z"/>
    <path class="cls-3" d="M2180.96,2026.7h-55.71c-35.14,0-63.63,28.49-63.63,63.63v5.87c0,10.26,8.31,18.57,18.57,18.57h249.05c35.14,0,63.63-28.49,63.63-63.63v-5.87c0-10.26-8.31-18.57-18.57-18.57h-193.34Z"/>
  </g>
  <g>
    <path class="cls-3" d="M2762.13,1835.66v260.39c0,10.37,8.4,18.77,18.77,18.77h21.47c32.64,0,59.1-26.46,59.1-59.1v-259.15c0-10.37-8.4-18.77-18.77-18.77h-22.71c-31.96,0-57.86,25.91-57.86,57.86Z"/>
    <path class="cls-3" d="M2994.24,1674.85h-337.66c-24.07,0-43.59,19.52-43.59,43.59v27.6c0,8.77,7.11,15.87,15.87,15.87h232.61v-.09c25.48,0,49.92.02,74.36,0,7.06,0,14.13,0,21.19,0,29.97.03,54.13-24.58,53.59-54.55-.11-6.28-.29-12.21-.51-17.26-.38-8.5-7.36-15.16-15.86-15.16Z"/>
  </g>
  <g>
    <path class="cls-3" d="M3313.52,1966.91c-.01-4.65-.97-9.25-3.29-13.28l-44.53-77.13c-.07.11-.14.23-.2.34-4.07-7.41-8.2-14.76-12.35-22.09l-14.43-25,.06-.04c-30.01-51.56-61.55-101.66-92.69-151.61-1.38-2.21-3.8-3.56-6.41-3.56h-102.07c-5.99,0-9.54,6.69-6.19,11.65h0c58.96,87.1,117.89,174.22,176.99,261.22,3.73,5.49,5.27,10.98,5.25,17.54-.18,45.87-.12,91.74-.06,137.61,0,1.7.1,3.39.23,5.11.31,3.95,3.58,7.02,7.55,7.02h43.66c26.74,0,48.63-21.88,48.63-48.63v-38.31c0-45.24.12-15.55-.13-60.79,0-.02,0-.05,0-.07Z"/>
    <path class="cls-3" d="M3385.15,1677.55c-35.94,59.85-71.88,119.71-108.37,180.49-1.07,1.79-1.1,4.02-.05,5.83l33.33,57.73c5.94,10.28,20.6,10.81,27.26.98,53.96-79.61,107.81-159.29,161.67-238.98l.05-.08c2.51-3.73-.16-8.75-4.66-8.75h-104.32c-2.01,0-3.87,1.05-4.9,2.78Z"/>
  </g>
  <path class="cls-3" d="M1468.78,1674.79h-299.31c-8.97,0-16.24,7.27-16.24,16.24v131.3c0,8.97,7.27,16.24,16.24,16.24h28.17c30.68,0,55.54-24.87,55.54-55.54v-7.42c0-8.97,7.27-16.24,16.24-16.24h152.02c35.12,0,63.58-28.47,63.58-63.58v-4.76c0-8.97-7.27-16.24-16.24-16.24Z"/>
  <path class="cls-3" d="M1473.81,2030.13h-209.48c-6.19,0-11.21-5.02-11.21-11.21v-58.31c0-6.19-5.02-11.21-11.21-11.21h-38.9c-27.49,0-49.77,22.28-49.77,49.77v104.13c0,6.04,4.76,10.99,10.79,11.2,49.21,1.74,248.46,1.5,310.13-.13,6.06-.16,10.87-5.13,10.87-11.19,0-15.97,0-45.68,0-61.85,0-6.19-5.02-11.2-11.21-11.2Z"/>
  <path class="cls-3" d="M1455,1874.83v-6.8c0-7.33-5.95-13.28-13.28-13.28h-188.54v-.31h-34.13c-36.35,0-65.81,29.47-65.81,65.81h0c0,7.33,5.95,13.28,13.28,13.28h127.82v.18h101.79c32.52,0,58.88-26.36,58.88-58.88Z"/>
  <path class="cls-2" d="M1926.07,2126.56c-7.78,0-15.13-4.21-19.19-11-26.26-43.95-74.31-71.25-125.4-71.25s-99.14,27.3-125.4,71.25c-4.05,6.78-11.4,11-19.19,11h-47.43c-7.59,0-14.58-3.8-18.7-10.18-4.14-6.41-4.75-14.39-1.61-21.35,37.52-83.46,120.86-137.39,212.33-137.39s174.81,53.93,212.33,137.39c3.13,6.97,2.53,14.95-1.62,21.35-4.12,6.37-11.11,10.18-18.7,10.18h-47.43Z"/>
  <circle class="cls-2" cx="2503.62" cy="1729.86" r="55.01"/>
  <path class="cls-3" d="M1965.15,1983.83c-44.58-101.07-89.17-202.13-133.65-303.24-3-6.81-7.09-7.11-17.07-5.81h0s-61.32.16-61.32.16c-12.18-2.23-15.73-.12-18.98,7.25-43.6,99.08-87.29,198.12-130.99,297.15-3.44,7.79,5.95,14.85,12.51,9.41,27.19-22.53,59.04-39.62,93.9-49.63,8.09-2.32,14.63-8.3,17.66-16.14,18.48-47.79,36.89-95.39,55.43-143.35,18.27,47.91,36.49,95.71,54.8,143.72,3,7.87,9.53,13.86,17.61,16.24,36.46,10.73,69.6,29.22,97.48,53.58,6.47,5.65,16.08-1.48,12.61-9.34Z"/>
  <path class="cls-3" d="M2503.62,1813.15c-16.63,0-32.09-4.93-45.1-13.33-2.99,2.83-4.88,6.81-4.88,11.25v288.2c0,8.57,6.95,15.52,15.52,15.52h26.17c31.05,0,56.22-25.17,56.22-56.22v-247.5c0-4.05-1.59-7.7-4.12-10.46-12.74,7.9-27.71,12.55-43.8,12.55Z"/>
</svg>