<?xml version="1.0" encoding="utf-8"?>
<!-- Generator: Adobe Illustrator 27.7.0, SVG Export Plug-In . SVG Version: 6.00 Build 0)  -->
<svg version="1.1" id="Layer_1" xmlns="http://www.w3.org/2000/svg" xmlns:xlink="http://www.w3.org/1999/xlink" x="0px" y="0px"
	 viewBox="0 0 3500 3500" style="enable-background:new 0 0 3500 3500;" xml:space="preserve">
<style type="text/css">
	.st0{fill:none;stroke:#7FC689;stroke-width:2;}
	.st1{fill:none;stroke:#C5E483;stroke-width:2;}
	.st2{fill:none;stroke:#EB7E80;stroke-width:2;}
	.st3{fill:#008F13;}
	.st4{fill:#FEFCFF;}
	.st5{fill:#8CCC06;}
	.st6{fill:#D70000;}
</style>
<g>
	<path vector-effect="non-scaling-stroke" class="st0" d="M1399.2,34.1c4.4,7.6,4.9,15.5,1.3,23.8c-54,126.9-79.2,255.7-75.6,386.2"
		/>
	<path vector-effect="non-scaling-stroke" class="st0" d="M2562.1,3141.3c50-27,96.5-56.8,139.4-89.5
		c278.2-211.2,462.7-485.8,553.5-823.8c14.4-54,23.6-108.4,27.4-163.2"/>
	<path vector-effect="non-scaling-stroke" class="st0" d="M1491.1,163.5l-79.3-131.7"/>
	<path vector-effect="non-scaling-stroke" class="st1" d="M1467.5,166.1c-15.7-7.3-26.2-14.3-31.5-21c-14.4-18.6-24.9-16.6-31.5,6
		c-30.3,102.7-47.8,198.1-52.7,286.2"/>
	<path vector-effect="non-scaling-stroke" class="st2" d="M3272.8,2053.8c-12.1-4.3-19.6,0.6-22.3,14.8
		c-71,374.7-250.8,682.2-539.6,922.6c-32,26.6-67.5,47.8-106.5,63.6"/>
	<path vector-effect="non-scaling-stroke" class="st2" d="M2171,1145.6l15.2,16.3"/>
</g>
<path class="st3" d="M1399.2,34.1c4.4,7.6,4.9,15.5,1.3,23.8c-54,126.9-79.2,255.7-75.6,386.2c-52.3,22.8-106.7,47.6-163.2,74.3
	c-58.1,27.3-109.2,55.5-153.2,84.8c-365.6,242.9-587.4,584-665.5,1023.2c-16.5,93.4-9,187.2-11.1,283.6
	c-1.6,73.1,4.6,144.7,18.4,214.8c128.3,652.7,646.2,1144.5,1309.8,1213.6c51.6,5.4,146.7,3.4,285.3-6.2c2.9-0.1,5.3-1.2,7.3-3.2
	c2.1-2.1,2.3-4.5,0.4-7.1c-1-1.3-0.7-3.2,0.6-4.2c0.3-0.2,0.7-0.4,1.1-0.5c12.9-3.9,25.1-2.1,36.8,5.1c5.4,3.4,11.4,5.5,17.6,6.2
	c22,2.9,44.6,2,67.7-2.6c175.5-34,337.2-95.6,485.2-184.9c50-27,96.5-56.8,139.4-89.5c278.2-211.2,462.7-485.8,553.5-823.8
	c14.4-54,23.6-108.4,27.4-163.2c7.3-25.1,12.2-66.8,14.8-125.1c14.9-349.4-70.9-658.7-257.3-927.7
	c-174.8-252.3-404.5-434.4-689.3-546.2c-147.2-57.8-285.6-88.5-415.1-92.1c-63.4-1.7-131.4-1.4-203.9,0.9
	c-79.3,2.4-198.3-152.1-240.5-211l-79.3-131.7c432.5-83.6,880.6-0.7,1254.6,232c340.8,212.1,598.3,535.2,728.9,914.8
	c89.7,260.6,116.5,538.8,78.2,811.8c-52.4,373.8-224.6,720.6-490.7,988.5c-259.1,260.9-594,433.4-956.8,492.9
	c-351.3,57.6-711.8,6.6-1033.3-146.3c-313.2-148.8-575-387.6-752.1-685.9C52.5,2323-30.7,1955.1,2.8,1588.5
	c35-384.3,196.3-746.1,458.6-1029C711,290.2,1039.1,106.4,1399.2,34.1z"/>
<path class="st4" d="M1399.2,34.1c4.1-0.9,8.4-1.6,12.6-2.4l79.3,131.7c-10.1-1.7-18-0.9-23.6,2.6c-15.7-7.3-26.2-14.3-31.5-21
	c-14.4-18.6-24.9-16.6-31.5,6c-30.3,102.7-47.8,198.1-52.7,286.2c-8.4-1.4-17.4,0.9-27,6.9c-3.6-130.5,21.6-259.3,75.6-386.2
	C1404.1,49.6,1403.6,41.7,1399.2,34.1z"/>
<path class="st5" d="M1467.5,166.1c-1.7,2-2.5,5.2-2.4,9.6c0,3,0.9,6.1,2.8,9.2c75.8,132.8,196,240.3,343.4,284.9
	c54.8,16.6,102.5,37.6,143.1,63c177.6,111,194.9,313.4,138.4,494.6c-2,6.1-8.5,9.4-14.6,7.5c-2-0.6-3.8-1.8-5.1-3.4
	c-58.8-69.5-119.5-130.9-182.1-184.2c-98.7-84-227.1-113.3-348.1-149.5c-99.6-29.8-160.2-96.4-178.2-195.8
	c-4.1-22.6-8.4-44.1-12.9-64.7c4.9-88.1,22.4-183.5,52.7-286.2c6.6-22.6,17.1-24.6,31.5-6C1441.3,151.8,1451.8,158.8,1467.5,166.1z"
	/>
<path class="st6" d="M2171,1145.6l15.2,16.3c-33.3,52.8-72.9,98.1-118.9,135.8c-46.3,38.1-90.2,35.8-143.1,19.3
	c-154.4-48-261.1-133-380.2-231.3c-121.2-99.8-306.5-156.6-438.9-54.8c-90.8,69.7-159.5,147.2-206.1,232.6
	c-85,156.1-134.1,330.6-147.4,523.5c-4.4,65.7-5.8,157.7-4.1,276.1c3.2,197.9,39.4,359.9,117.6,533.1
	c163.5,362.3,438.6,589,825.3,680.1c41.6,9.9,95.2,16.6,161.1,20.1c2.6,0.1,3.8,1.6,3.6,4.3l-0.4,5.8c-0.4,5.9-3.6,8.6-9.4,8.1
	c-94-4.6-180.1-16.1-258.5-34.5c-331.8-78.2-686.9-319.2-852.9-627.8c-66.5-123.8-114.7-251.8-144.4-384.1
	c-98.3-438.7-50.6-967.3,330.3-1263.8c154.2-120.4,338-201.6,528.6-132.8c105,37.8,205.6,96.4,301.8,175.6
	c47,38.8,93.7,71.5,140.3,98.1C1988,1200.8,2091.3,1249,2171,1145.6z"/>
<path class="st4" d="M2186.2,1161.9l-15.2-16.3c-1.4-6.9-1.4-11.1,0-12.6c7.6-7.8,20.1-8,27.9-0.4c0.6,0.6,1.2,1.2,1.7,1.9
	c28.8,36.4,61,66.8,96.6,91.2c0.6,0.3,1.1,0.2,1.5-0.2c1.4-1,2.9-2.1,4.3-3.4c1-0.7,1-0.4,0,0.9c-0.6,0.7-1.1,0.7-1.7,0
	c-1.1-1.3-2.5-1.7-4.1-1.3C2255.4,1233,2221.5,1182.9,2186.2,1161.9z"/>
<path class="st6" d="M3272.8,2053.8c-12.1-4.3-19.6,0.6-22.3,14.8c-71,374.7-250.8,682.2-539.6,922.6c-32,26.6-67.5,47.8-106.5,63.6
	c71.8-78.4,156.2-151.9,212.9-233.9c139.2-202.2,232-423.1,278.5-662.7c49-251.8,19.1-482.9-89.5-693.4
	c-60.4-117-145.3-196.8-254.7-239.5c-63.1-24.6-135.7-35.3-217.6-32.1c-78.1,3-152.3,13.2-222.6,30.6c-1.4,0.3-1.5,0.1-0.2-0.4
	c137.7-71.3,282.4-99.7,434.2-85.3c188.7,18,350.4,175.4,427.3,342.7c53.4,116.1,82.1,230,86.1,341.6c2.4,67.5,3,135.1,1.7,202.6
	c0,5.6,1.3,10.6,3.9,15C3267.3,2045.1,3270.1,2049.6,3272.8,2053.8z"/>
<path class="st4" d="M3272.8,2053.8l9.6,10.9c-3.9,54.8-13,109.2-27.4,163.2c-90.8,338-275.3,612.6-553.5,823.8
	c-43,32.7-89.5,62.5-139.4,89.5c5.6-38.1,19.7-67,42.4-86.5c39-15.9,74.5-37.1,106.5-63.6c288.7-240.3,468.6-547.8,539.6-922.6
	C3253.2,2054.4,3260.7,2049.5,3272.8,2053.8z"/>
</svg>
