<?xml version="1.0" encoding="utf-8"?>
<!-- Generator: Adobe Illustrator 27.7.0, SVG Export Plug-In . SVG Version: 6.00 Build 0)  -->
<svg version="1.1" id="Layer_1" xmlns="http://www.w3.org/2000/svg" xmlns:xlink="http://www.w3.org/1999/xlink" x="0px" y="0px"
	 viewBox="0 0 3500 3500" style="enable-background:new 0 0 3500 3500;" xml:space="preserve">
<style type="text/css">
	.st0{fill:#FFFFFF;}
	.st1{fill:#C652C6;}
	.st2{fill:#E8E8E8;}
	.st3{fill:#9E9D9E;}
	.st4{fill:#D9D1DB;}
	.st5{fill:#A3A3A3;}
	.st6{fill:#E0E0E0;}
	.st7{fill:#A8ACB2;}
	.st8{fill:#EAEAEA;}
	.st9{fill:#BDC3C9;}
	.st10{fill:#C6C4C6;}
	.st11{fill:#E5E5E5;}
	.st12{fill:#A5A5A5;}
	.st13{fill:#BACECD;}
	.st14{fill:#D9D7DB;}
	.st15{fill:#DBD5E0;}
	.st16{fill:#9AA1A8;}
	.st17{fill:#A1A7AF;}
	.st18{fill:#AFAFAF;}
	.st19{fill:#959AA0;}
	.st20{fill:#D8D8D8;}
	.st21{fill:#ADACAD;}
	.st22{fill:#E8DFEA;}
	.st23{fill:#B2B2B2;}
	.st24{fill:#939393;}
	.st25{fill:#A7A7A8;}
	.st26{fill:#C1C1C1;}
	.st27{fill:#7F7F7F;}
	.st28{fill:#DDDDDD;}
	.st29{fill:url(#SVGID_1_);}
	.st30{fill:#F4F4F4;}
	.st31{fill:#E6E7E8;}
</style>
<g>
	<g id="Objects">
		<g>
			<g>
				<path class="st0" d="M74,1879c-23-13-41-30.8-54.2-53.6C6.6,1802.7,0,1777.6,0,1750s6.4-52.9,19.4-75.7s30.6-40.6,53.4-53.6
					c22.5-13,47.6-19.3,75.5-19.3c25.3,0,48.9,5.7,71,17.4c21.9,11.7,40.4,28.5,55.5,50.4l-45.3,32.3c-20.6-31.2-47.8-47-81.2-47
					c-26.2,0-47.6,8.9-64.2,26.8c-16.8,17.9-25.1,40.8-25.1,68.7s8.5,50.8,25.7,68.7c17,17.9,38.7,26.8,65.1,26.8
					c22.8,0,41-5.7,55.3-17c14-11.3,22.8-25.3,26.4-41.9h-87.4V1737h145.4c0.6,6.2,1.1,14,1.1,23.2c0.2,74-52.5,138.6-140.7,138.4
					C122,1898.6,96.7,1892,74,1879L74,1879z"/>
				<path class="st0" d="M341.4,1894.3v-288.7h205.4v49.8h-148v66.5h128.4v49.8H398.8v73.1h151.1v49.5H341.4L341.4,1894.3z"/>
				<path class="st0" d="M603.1,1894.3v-288.7h60.8l93.1,192.2l92.9-192.2h60.8v288.7h-57.4v-177.1L775.5,1875h-37.2l-77.8-157.7
					v177.1L603.1,1894.3L603.1,1894.3z"/>
			</g>
			<rect x="1526.2" y="1602.9" class="st1" width="13.6" height="290.5"/>
			<path class="st1" d="M2379.3,1894.3c-10.9,0-20.3-0.2-26.8-0.6c0-93.8,0-187.8,0-282.8c0.6,0,1.2,0,1.8,0c2.6,0,5.1,0,7.6,0
				c4.2,0,7.7-0.1,10.8-0.2l0,0c0.6,0,0.9,0.2,2.8,2.2l18.5,19.5c14.9,15.7,29.7,31.3,44.6,46.9c12.3,12.9,24.5,25.8,37,38.9
				l22.3,23.4l5.1-5c0.8-0.8,1.5-1.5,2.2-2.2c1.6-1.5,3-2.9,4.4-4.4c8.2-8.6,16.4-17.2,24.5-25.8c26.9-28.3,54.7-57.6,81.9-86.6
				c4.9-5.2,8.3-7.1,12.9-7.1c0.7,0,1.4,0.1,2.2,0.1c2.3,0.3,4.7,0.4,7.6,0.4c1.5,0,3,0,4.6-0.1v282.3h-63.6l1.7-154.3l-11.9,11.1
				c-1.1,1-2.1,1.9-3,2.8c-1.8,1.7-3.4,3.1-4.9,4.7c-9.7,9.8-19.4,19.7-29.1,29.5c-10.4,10.6-20.8,21.1-31.2,31.7
				c-1.6,1.7-2.6,2.5-3.2,2.9c-0.6-0.4-1.5-1.2-3.1-2.9c-9.9-10.1-19.8-20.3-29.8-30.4c-10.3-10.6-20.7-21.1-31-31.7
				c-1.4-1.4-2.7-2.6-4.4-4c-0.8-0.7-1.6-1.5-2.6-2.3l-11.7-10.7v153.6C2408.7,1893.8,2395.9,1894.3,2379.3,1894.3L2379.3,1894.3z"
				/>
			<path class="st1" d="M2142.1,1898.6c-33.5-0.3-62-8.8-87.2-26c-29.4-20-48.3-48.8-56.3-85.5c-7.4-34.1-4.2-67.1,9.6-98.3
				c15.8-35.7,43.1-60.3,81.1-73.2c17.6-6,35.6-9,53.6-9c14.3,0,28.8,1.9,43,5.8c56.4,15.1,90.8,51.5,102.1,108.2
				c8.2,40.8,2.2,78.1-17.8,111c-18.7,30.8-45.7,50.7-82.3,60.8c-5.6,1.6-10.7,2.9-15.7,3.5c-7,0.9-14.3,1.4-21.3,2
				C2147.9,1898.1,2145,1898.4,2142.1,1898.6L2142.1,1898.6z M2143.1,1666.8c-0.8,0-1.6,0-2.5,0c-27.5,0.6-49.1,11.2-64.1,31.6
				c-10.7,14.6-16,32.4-16.1,54.3c0.1,20.9,5.8,39.9,16,53.6c15.8,21.2,38,32,66,32l0,0c2.4,0,5-0.1,7.5-0.2
				c27.4-1.8,48.3-13.7,62.2-35.2c9.6-14.8,14-32.2,13.6-53.1c-0.4-19.1-5-34.8-14-48.3C2196.2,1678.5,2173.1,1666.8,2143.1,1666.8
				L2143.1,1666.8z"/>
			<path class="st1" d="M3027.5,1894.1c-11.5,0-23,0-34.4-0.1c-10,0-20-0.1-30-0.1v-283.2c0,0,54.4,0,64.6,0c14,0,28,0,42.1,0.1
				c27,0.1,50,4.6,70.3,13.7c32.9,14.7,55.8,39,68.1,72.2c11.9,31.9,13.2,65.2,4.1,98.9c-11.8,43.3-39.1,73.1-81.4,88.6
				c-16.9,6.2-35.2,9.5-54.3,9.7C3062.2,1894.1,3046.6,1894.1,3027.5,1894.1L3027.5,1894.1z M3040,1838.6c3.6,0,7.2,0.1,10.8,0.1
				c3.6,0.1,7.2,0.1,10.8,0.1l0,0c8.8,0,19.2-0.3,29.8-2.3c27.3-5.2,46.3-21.5,54.9-47.1c8.3-24.6,8.3-49.4,0.1-73.8
				c-8.4-24.6-26.5-40.6-52.3-46.2c-10.9-2.4-21.7-2.7-29.9-2.7c-4,0-8.1,0.1-12.1,0.2c-4,0.1-8,0.2-12.1,0.2c-2.1,0-4.1,0-6.2-0.1
				l-7.2-0.2v172l7.1-0.2C3035.9,1838.6,3038,1838.6,3040,1838.6L3040,1838.6z"/>
			<path class="st1" d="M1813.7,1898.2c-18.2,0-34.3-2.6-49.2-7.8c-39.7-14-67.2-40.7-81.7-79.3c-14.7-39-14.7-78.1-0.2-116.2
				c18.8-49.2,55.4-78.2,108.9-86.1c8.5-1.3,17-1.9,25.2-1.9c18.1,0,35.8,3.1,52.5,9.2c33,12,57.4,34.9,72.3,68
				c2.5,5.6,4.4,11.4,6.4,17.6c0.4,1.2,0.8,2.5,1.2,3.7c-4.3,0-8.5,0-12.8,0h-18.9c-9.8,0-19.5,0-29.3,0.1l0,0c-2.8,0-3.1-0.3-4.2-2
				c-14.5-24.2-37-36.5-66.8-36.5c-1.2,0-2.3,0-3.5,0.1c-42.2,1.4-71.7,30.7-75.2,74.7c-1.8,22,1.4,40.5,9.7,56.6
				c13.1,25.3,38.7,40.4,68.4,40.4c3,0,5.9-0.2,8.9-0.5c29.3-3.2,50.3-17.6,62.5-43c0.1-0.1,0.3-0.3,0.5-0.5
				c14.2-0.2,28.2-0.2,40.1-0.2h22.8c-9.3,38.2-28.6,65.7-58.9,84.1c-17.4,10.5-37.1,16.8-58.4,18.8
				C1826.8,1897.9,1820.1,1898.2,1813.7,1898.2L1813.7,1898.2z"/>
			<path class="st1" d="M2721.2,1893.4v-282.2h169.6c1,12,1.3,40.4,0.3,54.8h-107.1v58.3h98.4v53.5h-98.2v60.5h110.7v55.1
				L2721.2,1893.4L2721.2,1893.4z"/>
			<path class="st1" d="M3336.4,1894v-28.7c0-24.2-0.1-49.1,0.1-73.7c0-6.9-1.6-12.9-5.2-18.9c-30.1-50.6-61.2-103.3-95.3-161.1
				c-0.1-0.2-0.3-0.5-0.4-0.8h0.1c6.4,0,12.6,0,18.9,0c6.2,0,12.5,0,18.7,0c12.3,0,22.3-0.1,31.3-0.2h0.3c3.5,0,4.6,0.6,6.3,3.7
				c14.1,24.8,32.4,57.7,48.4,92.3c0.4,1,0.9,1.9,1.6,3.2l1.3,2.4l6.1,11.7l6.3-11.7c0.6-1.2,1.2-2.2,1.8-3.2c1.2-2.1,2.3-4,3.2-6.2
				c13.2-30.3,29.7-59.7,45.7-88.1l1.5-2.6c0.6-1,0.9-1.4,1-1.6c0,0,0.2,0,0.4,0c17.6,0.1,35.1,0.2,52.7,0.2c6.3,0,12.6,0,18.9,0
				c-0.1,0.2-0.2,0.4-0.4,0.6c-19.5,33.4-39.1,66.8-58.6,100.1l-13.6,23.1c-2.1,3.7-4.3,7.3-6.5,11c-5.8,9.7-11.7,19.8-17.2,29.8
				c-2.8,5.1-3.4,11.2-3.5,15.3c-0.1,25.2-0.1,50.9-0.1,75.7v27.3c-10.5,0-20.9,0-31.2,0S3347.3,1894.1,3336.4,1894L3336.4,1894z"/>
			<g>
				<g>
					<g>
						<polygon class="st2" points="1217.7,1677 1122.2,1677 1137.3,1644.6 						"/>
						<polygon class="st3" points="1137.3,1644.6 1106.6,1609 1028.8,1650.8 1066.9,1677 						"/>
						<polygon class="st4" points="1122.2,1677 1137.3,1644.6 1066.9,1677 						"/>
						<polygon class="st5" points="1066.9,1677 1011,1677 1028.8,1650.8 						"/>
						<polygon class="st6" points="1011,1677 966.5,1677 1028.8,1650.8 						"/>
						<path class="st7" d="M966.5,1677c0,0,79.8-68.2,81-68.1c1.2,0.2-18.7,41.8-18.7,41.8L966.5,1677L966.5,1677z"/>
						<polygon class="st8" points="1047.4,1609 1106.6,1609 1028.8,1650.8 						"/>
						<polygon class="st9" points="1106.6,1609 1137.3,1644.6 1217.7,1609 						"/>
						<polygon class="st10" points="1217.7,1677 1313.2,1677 1298.1,1644.6 						"/>
						<polygon class="st11" points="1217.7,1609 1137.3,1644.6 1217.7,1677 1298.1,1644.6 						"/>
						<polygon class="st0" points="1298.1,1644.6 1328.8,1609 1406.6,1650.8 1368.5,1677 						"/>
						<polygon class="st12" points="1313.2,1677 1298.1,1644.6 1368.5,1677 						"/>
						<polygon class="st13" points="1368.5,1677 1424.4,1677 1406.6,1650.8 						"/>
						<polygon class="st14" points="1424.4,1677 1468.9,1677 1406.6,1650.8 						"/>
						<path class="st15" d="M1468.9,1677c0,0-79.8-68.2-81-68.1c-1.2,0.2,18.7,41.8,18.7,41.8L1468.9,1677L1468.9,1677z"/>
						<polygon class="st0" points="1387.9,1609 1328.8,1609 1406.6,1650.8 						"/>
						<polygon class="st16" points="1328.8,1609 1298.1,1644.6 1217.7,1609 						"/>
					</g>
					<g>
						<polygon class="st17" points="1122.2,1677 1181.8,1823.9 1066.9,1677 						"/>
						<polygon class="st0" points="1066.9,1677 1147.1,1823.9 1217.7,1898.6 1181.8,1823.9 						"/>
						<polygon class="st8" points="1066.9,1677 1011,1677 1147.1,1823.9 						"/>
						<polygon class="st18" points="1217.7,1898.6 1147.1,1823.9 966.5,1677 						"/>
						<polygon class="st19" points="1011,1677 966.5,1677 1147.1,1823.9 						"/>
						<polygon class="st20" points="1217.7,1677 1181.8,1823.9 1217.7,1898.6 1253.6,1823.9 						"/>
						<polygon class="st11" points="1313.2,1677 1253.6,1823.9 1368.5,1677 						"/>
						<polygon class="st21" points="1368.5,1677 1288.3,1823.9 1217.7,1898.6 1253.6,1823.9 						"/>
						<polygon class="st22" points="1368.5,1677 1424.4,1677 1288.3,1823.9 						"/>
						<polygon class="st23" points="1217.7,1898.6 1288.3,1823.9 1468.9,1677 						"/>
						<polygon class="st24" points="1424.4,1677 1468.9,1677 1288.3,1823.9 						"/>
						<polygon class="st25" points="1313.2,1677 1253.6,1677 1253.6,1823.9 						"/>
						<polygon class="st2" points="1217.7,1677 1122.2,1677 1181.8,1823.9 						"/>
					</g>
					<g>
						<polygon class="st0" points="1011,1677 1122.2,1677 1106.6,1609 						"/>
						<polygon class="st26" points="1122.2,1677 1217.7,1677 1313.2,1677 1217.7,1609 						"/>
						<polygon class="st27" points="1387.9,1609 1424.4,1677 1468.9,1677 						"/>
						<polygon class="st26" points="1313.2,1677 1424.4,1677 1328.8,1609 						"/>
					</g>
					<path class="st28" d="M1424.4,1669.3H975.5c-5.5,4.7-9,7.7-9,7.7h502.4c0,0-3.5-3-9-7.7H1424.4L1424.4,1669.3z"/>
					
						<linearGradient id="SVGID_1_" gradientUnits="userSpaceOnUse" x1="1263.0996" y1="-1757.1306" x2="1305.3896" y2="-1786.6506" gradientTransform="matrix(1 0 0 -1 0 0)">
						<stop  offset="0" style="stop-color:#D6D6D6"/>
						<stop  offset="1" style="stop-color:#191919"/>
					</linearGradient>
					<polygon class="st29" points="1217.7,1898.6 1323.2,1677 1396.4,1677 					"/>
				</g>
				<polygon class="st30" points="1253.6,1677 1217.7,1677 1253.6,1823.9 				"/>
				<polygon class="st30" points="1217.7,1898.6 1217.7,1677 1181.8,1677 				"/>
				<polygon class="st31" points="1066.9,1669.3 1106.6,1609 1120.4,1669.3 				"/>
				<polygon class="st31" points="1387.9,1609 1328.8,1609 1419.2,1669.3 				"/>
			</g>
		</g>
	</g>
</g>
</svg>
