<?xml version="1.0" encoding="utf-8"?>
<!-- Generator: Adobe Illustrator 27.7.0, SVG Export Plug-In . SVG Version: 6.00 Build 0)  -->
<svg version="1.1" id="Layer_1" xmlns="http://www.w3.org/2000/svg" xmlns:xlink="http://www.w3.org/1999/xlink" x="0px" y="0px"
	 viewBox="0 0 3500 3500" style="enable-background:new 0 0 3500 3500;" xml:space="preserve">
<style type="text/css">
	.st0{fill:#FFFFFF;}
	.st1{fill:#D21D07;}
	.st2{fill:#E8E8E8;}
	.st3{fill:#9E9D9E;}
	.st4{fill:#D9D1DB;}
	.st5{fill:#A3A3A3;}
	.st6{fill:#E0E0E0;}
	.st7{fill:#A8ACB2;}
	.st8{fill:#EAEAEA;}
	.st9{fill:#BDC3C9;}
	.st10{fill:#C6C4C6;}
	.st11{fill:#E5E5E5;}
	.st12{fill:#A5A5A5;}
	.st13{fill:#BACECD;}
	.st14{fill:#D9D7DB;}
	.st15{fill:#DBD5E0;}
	.st16{fill:#9AA1A8;}
	.st17{fill:#A1A7AF;}
	.st18{fill:#AFAFAF;}
	.st19{fill:#959AA0;}
	.st20{fill:#D8D8D8;}
	.st21{fill:#ADACAD;}
	.st22{fill:#E8DFEA;}
	.st23{fill:#B2B2B2;}
	.st24{fill:#939393;}
	.st25{fill:#A7A7A8;}
	.st26{fill:#C1C1C1;}
	.st27{fill:#7F7F7F;}
	.st28{fill:#DDDDDD;}
	.st29{fill:url(#SVGID_1_);}
	.st30{fill:#F4F4F4;}
	.st31{fill:#E6E7E8;}
</style>
<g>
	<g id="Objects">
		<g>
			<g>
				<path class="st0" d="M118.3,1956.4c-36.7-20.7-65.6-49.3-86.7-85.7S0,1794.2,0,1750s10.2-84.7,30.9-121s49-64.9,85.3-85.7
					c36-20.7,76.2-30.9,120.7-30.9c40.5,0,78.2,9.2,113.6,27.9c35,18.7,64.6,45.6,88.7,80.6l-72.4,51.7c-33-50-76.5-75.1-129.9-75.1
					c-41.8,0-76.2,14.3-102.7,42.8c-26.9,28.6-40.1,65.3-40.1,109.8s13.6,81.3,41.1,109.8c27.2,28.6,61.9,42.8,104,42.8
					c36.4,0,65.6-9.2,88.4-27.2c22.4-18,36.4-40.5,42.2-67H230.2v-79.2h232.6c1,9.9,1.7,22.4,1.7,37.1
					c0.3,118.3-84,221.7-225.1,221.3C195.2,1987.7,154.7,1977.1,118.3,1956.4L118.3,1956.4z"/>
				<path class="st0" d="M546,1980.9v-461.7h328.5v79.6H637.8v106.4h205.4v79.6H637.8v117h241.8v79.2L546,1980.9L546,1980.9z"/>
				<path class="st0" d="M964.5,1980.9v-461.7h97.2l148.9,307.4l148.6-307.4h97.2v461.7h-91.8v-283.2l-124.4,252.3h-59.5
					l-124.4-252.3v283.2H964.5L964.5,1980.9z"/>
			</g>
			<rect x="2440.9" y="1514.7" class="st1" width="21.7" height="464.7"/>
			<g>
				<path class="st1" d="M2663.2,1604.4v-86.2h343.5v86.2h-123.3v378h-96.1v-378H2663.2z"/>
				<path class="st1" d="M3283.1,1794.9l49.1-126.8l62.3-149.9H3500v14.6l-197.6,453.6h-41.1l-199.6-453.6v-14.6h105.4l62.3,149.2
					l51.7,127.5L3283.1,1794.9L3283.1,1794.9z"/>
			</g>
			<g>
				<g>
					<g>
						<polygon class="st2" points="1947.5,1633.3 1794.8,1633.3 1819,1581.4 						"/>
						<polygon class="st3" points="1819,1581.4 1769.9,1524.4 1645.4,1591.3 1706.4,1633.3 						"/>
						<polygon class="st4" points="1794.8,1633.3 1819,1581.4 1706.4,1633.3 						"/>
						<polygon class="st5" points="1706.4,1633.3 1616.9,1633.3 1645.4,1591.3 						"/>
						<polygon class="st6" points="1616.9,1633.3 1545.8,1633.3 1645.4,1591.3 						"/>
						<path class="st7" d="M1545.8,1633.3c0,0,127.6-109.1,129.5-108.9c1.9,0.2-29.9,66.9-29.9,66.9L1545.8,1633.3L1545.8,1633.3z"
							/>
						<polygon class="st8" points="1675.3,1524.4 1769.9,1524.4 1645.4,1591.3 						"/>
						<polygon class="st9" points="1769.9,1524.4 1819,1581.4 1947.5,1524.4 						"/>
						<polygon class="st10" points="1947.5,1633.3 2100.3,1633.3 2076.1,1581.4 						"/>
						<polygon class="st11" points="1947.5,1524.4 1819,1581.4 1947.5,1633.3 2076.1,1581.4 						"/>
						<polygon class="st0" points="2076.1,1581.4 2125.2,1524.4 2249.7,1591.3 2188.7,1633.3 						"/>
						<polygon class="st12" points="2100.3,1633.3 2076.1,1581.4 2188.7,1633.3 						"/>
						<polygon class="st13" points="2188.7,1633.3 2278.2,1633.3 2249.7,1591.3 						"/>
						<polygon class="st14" points="2278.2,1633.3 2349.3,1633.3 2249.7,1591.3 						"/>
						<path class="st15" d="M2349.3,1633.3c0,0-127.6-109.1-129.5-108.9c-1.9,0.2,29.9,66.9,29.9,66.9L2349.3,1633.3L2349.3,1633.3z
							"/>
						<polygon class="st0" points="2219.8,1524.4 2125.2,1524.4 2249.7,1591.3 						"/>
						<polygon class="st16" points="2125.2,1524.4 2076.1,1581.4 1947.5,1524.4 						"/>
					</g>
					<g>
						<polygon class="st17" points="1794.8,1633.3 1890.2,1868.1 1706.4,1633.3 						"/>
						<polygon class="st0" points="1706.4,1633.3 1834.7,1868.1 1947.5,1987.7 1890.2,1868.1 						"/>
						<polygon class="st8" points="1706.4,1633.3 1616.9,1633.3 1834.7,1868.1 						"/>
						<polygon class="st18" points="1947.5,1987.7 1834.7,1868.1 1545.8,1633.3 						"/>
						<polygon class="st19" points="1616.9,1633.3 1545.8,1633.3 1834.7,1868.1 						"/>
						<polygon class="st20" points="1947.5,1633.3 1890.2,1868.1 1947.5,1987.7 2004.9,1868.1 						"/>
						<polygon class="st11" points="2100.3,1633.3 2004.9,1868.1 2188.7,1633.3 						"/>
						<polygon class="st21" points="2188.7,1633.3 2060.4,1868.1 1947.5,1987.7 2004.9,1868.1 						"/>
						<polygon class="st22" points="2188.7,1633.3 2278.2,1633.3 2060.4,1868.1 						"/>
						<polygon class="st23" points="1947.5,1987.7 2060.4,1868.1 2349.3,1633.3 						"/>
						<polygon class="st24" points="2278.2,1633.3 2349.3,1633.3 2060.4,1868.1 						"/>
						<polygon class="st25" points="2100.3,1633.3 2004.9,1633.3 2004.9,1868.1 						"/>
						<polygon class="st2" points="1947.5,1633.3 1794.8,1633.3 1890.2,1868.1 						"/>
					</g>
					<g>
						<polygon class="st0" points="1616.9,1633.3 1794.8,1633.3 1769.9,1524.4 						"/>
						<polygon class="st26" points="1794.8,1633.3 1947.5,1633.3 2100.3,1633.3 1947.5,1524.4 						"/>
						<polygon class="st27" points="2219.8,1524.4 2278.2,1633.3 2349.3,1633.3 						"/>
						<polygon class="st26" points="2100.3,1633.3 2278.2,1633.3 2125.2,1524.4 						"/>
					</g>
					<path class="st28" d="M2278.2,1621h-718c-8.8,7.6-14.4,12.3-14.4,12.3h803.6c0,0-5.6-4.8-14.4-12.3H2278.2L2278.2,1621z"/>
					
						<linearGradient id="SVGID_1_" gradientUnits="userSpaceOnUse" x1="2020.1787" y1="-1761.4119" x2="2087.8088" y2="-1808.6218" gradientTransform="matrix(1 0 0 -1 0 0)">
						<stop  offset="0" style="stop-color:#D6D6D6"/>
						<stop  offset="1" style="stop-color:#191919"/>
					</linearGradient>
					<polygon class="st29" points="1947.5,1987.7 2116.4,1633.3 2233.4,1633.3 					"/>
				</g>
				<polygon class="st30" points="2004.9,1633.3 1947.5,1633.3 2004.9,1868.1 				"/>
				<polygon class="st30" points="1947.5,1987.7 1947.5,1633.3 1890.2,1633.3 				"/>
				<polygon class="st31" points="1706.4,1621 1769.9,1524.4 1792,1621 				"/>
				<polygon class="st31" points="2219.8,1524.4 2125.2,1524.4 2269.8,1621 				"/>
			</g>
		</g>
	</g>
</g>
</svg>
