<?xml version="1.0" encoding="utf-8"?>
<!-- Generator: Adobe Illustrator 27.7.0, SVG Export Plug-In . SVG Version: 6.00 Build 0)  -->
<svg version="1.1" id="Layer_1" xmlns="http://www.w3.org/2000/svg" xmlns:xlink="http://www.w3.org/1999/xlink" x="0px" y="0px"
	 viewBox="0 0 3500 3500" style="enable-background:new 0 0 3500 3500;" xml:space="preserve">
<style type="text/css">
	.st0{fill:url(#SVGID_1_);}
	.st1{fill:#BFBFBF;}
	.st2{fill:none;stroke:#FFFFFF;stroke-width:24.9234;stroke-miterlimit:10;}
	.st3{fill:#D80707;}
</style>
<g>
	
		<linearGradient id="SVGID_1_" gradientUnits="userSpaceOnUse" x1="1810.52" y1="-943.92" x2="1810.52" y2="-2688.8799" gradientTransform="matrix(1 0 0 -1 0 0)">
		<stop  offset="0" style="stop-color:#518DCC"/>
		<stop  offset="1" style="stop-color:#002B53"/>
	</linearGradient>
	<ellipse class="st0" cx="1810.5" cy="1816.4" rx="1618.9" ry="872.5"/>
	<path class="st1" d="M1750,876.7C783.5,876.7,0,1301.2,0,1824.8s783.5,948.1,1750,948.1s1750-424.5,1750-948.1
		S2716.5,876.7,1750,876.7z M1810.5,2688.9c-894.1,0-1618.9-390.6-1618.9-872.5s724.8-872.5,1618.9-872.5s1618.9,390.6,1618.9,872.5
		C3429.4,2298.3,2704.6,2688.9,1810.5,2688.9z"/>
	<circle class="st1" cx="2061" cy="923.8" r="196.7"/>
	<path class="st1" d="M910.5,2008.1c-1.9,4.9-4,9.9-6.1,15.1l-239.6,5v-118.4h141.5c24,67.8,67.8,98.3,67.8,98.3L910.5,2008.1
		L910.5,2008.1z"/>
	<line class="st2" x1="808.6" y1="1909.8" x2="806.4" y2="1909.8"/>
	<path class="st3" d="M998.4,1610.1c6.3-0.4,12.9-0.5,19.5-0.5c146.3,0,229.4,0,229.4,0v398.5h-116v-279.9h-96"/>
	<path class="st1" d="M1285.2,1609.6h75.7l133.7,242.1l85.7-105.9c0,0,30.3-50.4-47.9-52.9c-78.2-2.5-78.2-2.5-78.2-2.5v-80.7H1586
		c0,0,176.9,81.8,57.3,206.8c-113.5,118.5-184.1,191.6-184.1,191.6h-128.6l98.3-98.3L1285.2,1609.6z"/>
	<path class="st1" d="M1684.8,1627.3l157.7,264.8H2019c0,0,73.1-20.2,70.6-132.4s-100.9-132.4-100.9-132.4h-124.4v80.7l121.9,2.5
		c0,0,75.7,15.1,30.3,63s-83.2,78.2-83.2,78.2l-138.7-224.4L1684.8,1627.3L1684.8,1627.3z"/>
	<path class="st1" d="M2447.6,1892.1v-264.8H2203c0,0-92,0-85.7,147.5c5.5,128.5,123.6,117.3,123.6,117.3h78.2v-83.2h-75.6
		c0,0-50.4,2.5-50.4-50.4s27.7-55.5,55.5-55.5s116,0,116,0v189.1H2447.6z"/>
	<path class="st1" d="M2480.4,1627.3v264.8h83.2v-196.7h108.4c0,0,52-6,51.2,51.2s0,160.6,0,160.6h79.9v-196.7
		c0,0-20.2-100.9-126.1-100.9c-105.9,0-196.7,0-196.7,0L2480.4,1627.3L2480.4,1627.3z"/>
	<path class="st1" d="M3065.4,1544.1v83.2h-151.3c0,0-78.2,25.8-78.2,132.7s75.6,132.7,75.6,132.7h232v-348.5H3065.4z M3062.9,1708
		v108.4h-103.4c0,0-50.4,0-50.4-58s40.4-63,40.4-63h113.5L3062.9,1708L3062.9,1708z"/>
	<g>
		<path class="st3" d="M1661.5,2144.4V1989H1606v-31.6h148.6v31.6h-55.3v155.4H1661.5z"/>
		<path class="st3" d="M1779,2144.4v-187h138.7v31.6h-100.9v41.5h93.9v31.5h-93.9v50.9h104.5v31.5H1779z"/>
		<path class="st3" d="M1954.3,2144.4v-185.5h37.8v154h93.9v31.5H1954.3z"/>
		<path class="st3" d="M2112.8,2144.4v-187h138.7v31.6h-100.9v41.5h93.9v31.5h-93.9v50.9h104.5v31.5H2112.8z"/>
		<path class="st3" d="M2334.8,2144.4l-66.9-187h40.9l47.3,138.4l45.8-138.4h40.1l-67,187L2334.8,2144.4L2334.8,2144.4z"/>
		<path class="st3" d="M2460.2,2144.4v-187h37.8v187H2460.2z"/>
		<path class="st3" d="M2524.4,2083.6l36.7-3.6c2.2,12.3,6.7,21.4,13.5,27.2c6.8,5.8,15.9,8.7,27.4,8.7c12.2,0,21.3-2.6,27.5-7.7
			s9.2-11.2,9.2-18.1c0-4.4-1.3-8.2-3.9-11.3c-2.6-3.1-7.1-5.8-13.6-8.1c-4.4-1.5-14.5-4.2-30.2-8.2c-20.2-5-34.4-11.2-42.6-18.5
			c-11.5-10.3-17.2-22.8-17.2-37.6c0-9.5,2.7-18.4,8.1-26.7c5.4-8.3,13.2-14.6,23.4-18.9c10.2-4.3,22.4-6.5,36.8-6.5
			c23.5,0,41.1,5.2,53,15.4c11.9,10.3,18.1,24,18.7,41.2l-37.8,1.7c-1.6-9.6-5.1-16.5-10.4-20.7c-5.3-4.2-13.3-6.3-23.9-6.3
			c-11,0-19.6,2.3-25.8,6.8c-4,2.9-6,6.8-6,11.6c0,4.4,1.9,8.2,5.6,11.4c4.8,4,16.3,8.2,34.7,12.5c18.4,4.3,32,8.8,40.8,13.5
			c8.8,4.6,15.7,11,20.7,19c5,8,7.5,18,7.5,29.8c0,10.7-3,20.8-8.9,30.1c-6,9.4-14.4,16.3-25.3,20.9c-10.9,4.5-24.5,6.8-40.7,6.8
			c-23.6,0-41.8-5.5-54.5-16.4C2534.4,2120.4,2526.9,2104.5,2524.4,2083.6z"/>
		<path class="st3" d="M2707.1,2144.4v-187h37.8v187H2707.1z"/>
		<path class="st3" d="M2773.2,2052.1c0-19.1,2.8-35,8.6-48c4.2-9.5,10.1-18.1,17.4-25.6c7.4-7.6,15.4-13.2,24.2-16.8
			c11.6-4.9,25.1-7.4,40.3-7.4c27.6,0,49.6,8.6,66.1,25.6c16.5,17.1,24.8,40.9,24.8,71.3c0,30.2-8.2,53.8-24.6,70.9
			c-16.4,17.1-38.4,25.6-65.8,25.6c-27.8,0-49.9-8.5-66.3-25.4C2781.4,2105.2,2773.2,2081.8,2773.2,2052.1z M2812.1,2050.8
			c0,21.2,4.9,37.2,14.7,48.2c9.8,10.9,22.2,16.4,37.2,16.4s27.4-5.4,37.1-16.3c9.6-10.8,14.5-27.1,14.5-48.8
			c0-21.4-4.7-37.4-14.1-48c-9.4-10.5-21.9-15.8-37.4-15.8c-15.6,0-28.1,5.3-37.6,16C2816.8,2013.2,2812.1,2029.3,2812.1,2050.8z"/>
		<path class="st3" d="M2984.4,2144.4v-187h36.7l76.5,124.9v-124.9h35.1v187h-37.9l-75.4-122v122H2984.4z"/>
	</g>
	<circle class="st3" cx="2061" cy="923.8" r="127.8"/>
	<g>
		<path class="st3" d="M956.8,1888.7c-0.6,0.5-1.3,0.8-2,0.8c-16,0-49.6-21.8-50-80.7c-0.3-46.8,25-62.2,35.4-66.5
			c-15.9-59.7-50.5-88.5-69-100c-55.8,33.6-85.5,92.4-85.5,173.3c0,36.7,6.3,67.7,15.5,93.3c24,67.8,67.8,98.3,67.8,98.3h196.7
			v-118.6L956.8,1888.7L956.8,1888.7z"/>
	</g>
	<path class="st1" d="M1049.8,1787c0,100.9-11.7,102.6-11.7,102.6h-83.3c0,0-3.3-1.4-8.2-4.1c29.8-161.6-40.6-223.9-70.2-242.3
		c-7.5-4.6-12.4-6.6-12.4-6.6H611.9v538H511v-645.6h406c0,0,46.3,17.3,81.5,81.2C1020.3,1649.6,1049.8,1705.2,1049.8,1787z"/>
</g>
</svg>
