<?xml version="1.0" encoding="utf-8"?>
<!-- Generator: Adobe Illustrator 27.7.0, SVG Export Plug-In . SVG Version: 6.00 Build 0)  -->
<svg version="1.1" id="Layer_1" xmlns="http://www.w3.org/2000/svg" xmlns:xlink="http://www.w3.org/1999/xlink" x="0px" y="0px"
	 viewBox="0 0 3500 3500" style="enable-background:new 0 0 3500 3500;" xml:space="preserve">
<style type="text/css">
	.st0{fill:#212121;}
	.st1{fill:#F6A000;}
</style>
<g>
	<path class="st0" d="M1477.4,2054.9c32.5,2.8,61.8,6.8,91.1,7.4c36.3,0.6,46.7-10.9,47-46.8c0.3-41.3,2.5-82.8-0.3-124
		c-2.4-35.1,10-61.7,35.5-83c29.6-24.7,60.3-48.1,90.8-71.7c3.9-3,9.7-3.7,15.5-5.7c0,35.9,0.7,69.9-0.3,103.8
		c-0.5,16,4.7,21,20.8,20.7c51-1.1,102.1-1.3,153.2-0.6c15.6,0.2,20.7-3.2,20.6-20c-0.8-149.5,0-299.1-0.9-448.6
		c-0.2-23.6,6.3-42.1,24.8-55c36.2-25.4,73.3-49.5,110.1-74.1c1.4-0.9,3.4-0.8,6.2-1.4c0,133.2,0,265.7,0,402.8
		c10-4.9,18.6-7.3,24.9-12.4c17.8-14.4,37-20.3,60.3-20.2c156.8,1.1,313.6,0.8,470.4,1.9c17.8,0.1,36.3,3.4,52.9,9.5
		c8.2,3,17.1,15.1,18.4,24.2c16.9,114.2,6.4,229.2,8.1,343.8c0,2.3-0.9,4.7-2,10.2c-11,0-22.3,0-33.6,0
		c-293.6-0.1-587.2-0.3-880.8-0.3c-45.5,0-45.2,0.2-52.7,45.6c-8,47.7-25.5,90.7-69.5,116.2c-15.2,8.8-34.1,11.9-51.7,15.8
		c-16.5,3.7-33.5,7.4-50.2,6.8c-12.2-0.5-25.6-5.9-36.1-12.7c-39.6-25.6-63.8-62.3-72.5-108.7
		C1476.1,2070,1477.4,2061.5,1477.4,2054.9z M2340.1,1855.2c0-0.1,0-0.3,0-0.4c77.7,0,155.4,0.2,233.1-0.1
		c25-0.1,39.3-17.3,33.2-41.7c-2.9-11.7-9.5-24.1-18.1-32.5c-21.1-20.9-47.7-29.7-77.6-29.7c-134.8,0.1-269.5-0.1-404.3-0.7
		c-14-0.1-17.9,5.5-17.5,18.4c0.7,23.1,0.8,46.1,0.1,69.2c-0.4,13.3,4.3,17.9,17.9,17.8C2184.7,1854.9,2262.4,1855.2,2340.1,1855.2z
		 M3256.9,1855.2c-88.1,0.3-176.2,0-264.3,1.1c-18.4,0.2-24.3-5.4-24.1-23.7c0.9-136.7,1.1-273.4,1.4-410.1
		c0.1-53.8,0-107.5,0-162.2c-3.3,1.2-7.7,1.7-10.8,4.1c-24.6,18.5-49.2,37.2-73.4,56.2c-30.2,23.7-41.8,53.8-41.4,93.3
		c1.8,184.1,0.8,368.2,0.9,552.3c0,9.7,0.1,19.6,2.1,28.9c4.6,21.2,10.1,24.2,31.5,21.3c6.6-0.9,13.3-1.1,20-1.1
		c183.5-0.5,367-1.2,550.5-1.1c15.2,0,21.5-4.3,24.2-19.3c8.4-46.3,18.2-92.5,26.6-134.4c-29.5-24.9-64.1-45.1-85.9-74.7
		c-32.1-43.4-58.4-92.1-80.9-141.4c-20.7-45.2-87.1-92.1-143.7-53.4c-22.7,15.5-38.5,35.9-45.4,61.6c-9.4,34.7-6.1,68.9,11.6,102.7
		c9.2-6,16.1-12.9,24.4-15.3c10.2-2.9,24.3-6.7,31.9-2.1c42.5,25.4,55.1,69.3,68.8,116.2C3270,1854.6,3263.4,1855.2,3256.9,1855.2z
		 M1082.8,2015c0-65.6,0.6-129.3-0.2-193c-0.7-56.4,21.6-102,61.8-139.9c27.1-25.6,60.7-36.6,96.5-42.1c27.5-4.3,55.1-9.3,82.8-11.3
		c22.2-1.6,33.4-15.1,45.7-30.5c10-12.5,22.6-23.8,36-32.4c12.8-8.2,22-0.8,21.9,14.4c-0.9,126.9-1.6,253.7-2.6,380.6
		c-0.2,17.3,3.8,40.3-5.4,50.3c-8,8.7-32,3.2-48.9,3.3c-94.7,0.6-189.4,1-284.1,1.3C1084.7,2015.8,1083,2015,1082.8,2015z
		 M1198.3,1854.5c32.1,0,62.2,0.4,92.3-0.5c3.7-0.1,10-7.1,10.2-11.2c1.6-27.7,2.2-55.5,2-83.2c0-4-5.8-10.9-9.7-11.5
		c-29.5-4.3-55.5,2.6-73.4,28.4C1204.2,1799,1197.9,1824.5,1198.3,1854.5z M3210.1,1313c-55.4,0-100.4,44.9-100.4,100.4
		c0,55.4,44.9,100.4,100.4,100.4s100.4-44.9,100.4-100.4C3310.5,1357.9,3265.6,1313,3210.1,1313z M1942.9,2395.5v-252.6h51v112.2
		l103-112.2h68.6l-95.1,98.4l100.3,154.2h-66l-69.4-118.6l-41.4,42.2v76.3H1942.9L1942.9,2395.5z M2245,2142.9v92.9
		c15.6-18.3,34.3-27.4,56-27.4c11.1,0,21.2,2.1,30.2,6.2c9,4.1,15.7,9.4,20.2,15.9c4.5,6.4,7.6,13.6,9.3,21.4
		c1.7,7.8,2.5,19.9,2.5,36.4v107.4h-48.4v-96.7c0-19.2-0.9-31.4-2.8-36.5c-1.8-5.2-5.1-9.3-9.7-12.3s-10.5-4.6-17.5-4.6
		c-8,0-15.2,1.9-21.5,5.9c-6.3,3.9-10.9,9.8-13.9,17.7c-2.9,7.9-4.4,19.5-4.4,34.9v91.7h-48.4v-252.6L2245,2142.9L2245,2142.9
		L2245,2142.9z M2448.5,2268.3l-43.9-7.9c4.9-17.7,13.4-30.8,25.5-39.3c12.1-8.5,30-12.8,53.8-12.8c21.6,0,37.7,2.6,48.2,7.7
		c10.6,5.1,18,11.6,22.3,19.5c4.3,7.9,6.5,22.3,6.5,43.3l-0.5,56.5c0,16.1,0.8,27.9,2.3,35.6c1.6,7.6,4.4,15.8,8.7,24.6h-47.9
		c-1.3-3.2-2.8-8-4.6-14.3c-0.8-2.9-1.4-4.8-1.7-5.7c-8.3,8-17.1,14.1-26.5,18.1c-9.4,4-19.5,6-30.2,6c-18.8,0-33.7-5.1-44.6-15.3
		s-16.3-23.1-16.3-38.8c0-10.3,2.5-19.6,7.4-27.7c4.9-8.1,11.9-14.3,20.8-18.6c8.9-4.3,21.7-8.1,38.5-11.3
		c22.6-4.2,38.3-8.2,47-11.9v-4.8c0-9.3-2.3-15.9-6.9-19.9c-4.6-4-13.3-5.9-26-5.9c-8.6,0-15.3,1.7-20.2,5.1
		C2455.4,2253.9,2451.5,2259.9,2448.5,2268.3z M2513.3,2307.6c-6.2,2.1-16,4.5-29.5,7.4c-13.4,2.9-22.2,5.7-26.4,8.4
		c-6.3,4.5-9.5,10.2-9.5,17.1c0,6.8,2.5,12.6,7.6,17.6c5.1,4.9,11.5,7.4,19.3,7.4c8.7,0,17.1-2.9,25-8.6c5.9-4.4,9.7-9.7,11.6-16
		c1.3-4.1,1.9-12,1.9-23.6L2513.3,2307.6L2513.3,2307.6z M2692.5,2212.5v38.6h-33.1v73.8c0,14.9,0.3,23.6,0.9,26.1
		c0.6,2.5,2.1,4.5,4.3,6.1c2.2,1.6,5,2.4,8.2,2.4c4.5,0,11-1.6,19.5-4.6l4.1,37.6c-11.3,4.8-24,7.2-38.3,7.2
		c-8.7,0-16.6-1.5-23.6-4.4s-12.1-6.7-15.4-11.4c-3.3-4.6-5.5-10.9-6.8-18.9c-1-5.6-1.6-17-1.6-34.1v-79.8h-22.2v-38.6h22.2v-36.4
		l48.6-28.3v64.6H2692.5L2692.5,2212.5z M2832.1,2337.3l48.2,8.1c-6.2,17.7-16,31.2-29.4,40.4c-13.4,9.2-30.1,13.9-50.2,13.9
		c-31.8,0-55.4-10.4-70.7-31.2c-12.1-16.6-18.1-37.7-18.1-63.1c0-30.3,7.9-54.1,23.8-71.2s35.9-25.8,60.1-25.8
		c27.2,0,48.7,9,64.4,27c15.7,18,23.3,45.5,22.6,82.6h-121.3c0.3,14.4,4.2,25.5,11.7,33.5c7.5,8,16.8,12,27.9,12
		c7.6,0,14-2.1,19.1-6.2C2825.6,2353.1,2829.5,2346.5,2832.1,2337.3z M2834.9,2288.3c-0.3-14-4-24.7-10.9-32
		c-6.9-7.3-15.3-10.9-25.2-10.9c-10.6,0-19.3,3.9-26.2,11.6s-10.3,18.2-10.2,31.4L2834.9,2288.3L2834.9,2288.3z M2968.8,2395.5
		h-48.4v-183h45v26c7.7-12.3,14.6-20.4,20.8-24.3c6.1-3.9,13.1-5.9,20.9-5.9c11,0,21.6,3.1,31.9,9.1l-15,42.2
		c-8.2-5.3-15.7-7.9-22.8-7.9c-6.8,0-12.5,1.9-17.2,5.6s-8.4,10.5-11.1,20.2c-2.7,9.8-4.1,30.2-4.1,61.3L2968.8,2395.5
		L2968.8,2395.5z M3165.7,2337.3l48.2,8.1c-6.2,17.7-16,31.2-29.4,40.4c-13.4,9.2-30.1,13.9-50.2,13.9c-31.8,0-55.4-10.4-70.7-31.2
		c-12.1-16.6-18.1-37.7-18.1-63.1c0-30.3,7.9-54.1,23.8-71.2s35.9-25.8,60.1-25.8c27.2,0,48.7,9,64.4,27
		c15.7,18,23.3,45.5,22.6,82.6h-121.3c0.3,14.4,4.2,25.5,11.7,33.5c7.5,8,16.8,12,27.9,12c7.6,0,14-2.1,19.1-6.2
		C3159.2,2353.1,3163.1,2346.5,3165.7,2337.3z M3168.5,2288.3c-0.3-14-4-24.7-10.9-32c-6.9-7.3-15.3-10.9-25.2-10.9
		c-10.6,0-19.3,3.9-26.2,11.6s-10.3,18.2-10.2,31.4L3168.5,2288.3L3168.5,2288.3z M3304.3,2142.9v92.9c15.6-18.3,34.3-27.4,56-27.4
		c11.1,0,21.2,2.1,30.2,6.2c9,4.1,15.7,9.4,20.2,15.9c4.5,6.4,7.6,13.6,9.3,21.4c1.7,7.8,2.5,19.9,2.5,36.4v107.4h-48.4v-96.7
		c0-19.2-0.9-31.4-2.8-36.5c-1.8-5.2-5.1-9.3-9.7-12.3s-10.5-4.6-17.5-4.6c-8,0-15.2,1.9-21.5,5.9c-6.3,3.9-10.9,9.8-13.9,17.7
		c-2.9,7.9-4.4,19.5-4.4,34.9v91.7h-48.4v-252.6L3304.3,2142.9L3304.3,2142.9L3304.3,2142.9z"/>
	<path class="st1" d="M422,1964.5c20.8-0.9,38.5-1.7,56.1-2.4c5.7-0.2,11.5,0.7,17,0c10.1-1.2,25.2,0.1,29-5.7
		c5.7-8.7,3.9-22.6,4.6-34.3c0.2-3.8-2.3-7.7-2.8-11.7c-1.5-12.6-7.6-17.9-21-17.4c-23.5,0.9-47.1,0.6-70.7,0.1
		c-18.3-0.4-22.8-6.9-20.2-27.2c1.6-12.4,11.1-18.9,24.2-17.7c22.4,1.9,44.9,3.8,67.4,4.4c17.1,0.5,23-5.4,24.9-22.4
		c0.8-7.2,0.4-14.6,0.1-21.9c-1-22.2-5.8-26.9-27.7-27.1c-17.1-0.2-34.2,0.4-51.2-0.2c-7-0.2-14.2-2.1-21-4.2
		c-15.1-4.7-22.8-19.9-15.4-32.8c2.4-4.2,10.4-7.2,16-7.4c21.9-0.9,43.9-0.5,65.8-0.6c5.7,0,11.5,0.6,17-0.3
		c9.7-1.6,15.4-7.2,16.8-17.7c5.9-45.6,1.5-50.8-44-51c-18.6-0.1-37.4-0.3-55.9-2.2c-14.9-1.5-18.5-6-17.1-20.6
		c1.3-13.5,4.4-27,8.3-40c4.4-14.6,8.6-29.8,16.5-42.5c9.5-15.3,21.8-29.5,34.8-42.1c14.8-14.2,30.6-28.2,48.2-38.4
		c14.6-8.5,32.1-13.4,49-16.5c21.2-3.9,43.3-7,64.7-5.9c35.2,1.7,69.7,8.5,99.5,29.7c6.5,4.6,14.4,7.1,20.8,11.8
		c38.7,28.3,63.6,66.3,77.3,111.8c3.5,11.6,6.3,23.3,8.7,35.2c3.2,15.7-1.1,21.1-17.1,21.2c-21.9,0.2-44,0.8-65.8-0.7
		c-14.3-1-21.9,5.7-25.2,17.4c-3,10.7-4.1,22.2-4,33.4c0,9.3,10.9,17.1,23,17.4c21.9,0.5,43.9,0.6,65.8,0c27-0.7,26.1,7.1,25.1,29.5
		c-0.5,10.4-6.1,16-17.4,15.8c-22.8-0.3-45.6,1.1-68.3-0.4c-15.2-1-23.7,5.4-26.9,18.5c-2.7,10.7-4,22.3-3.1,33.2
		c0.8,9.2,7.1,15.8,18.3,15.5c18.7-0.4,37.4-0.3,56.1,0c7.2,0.1,14.6,0.4,21.5,2.2c17.3,4.6,23.9,17.5,18.2,34.2
		c-3.7,11-12.5,14-27.8,11.3c-21.5-3.9-43.2-5.5-64.5,1.9c-21.2,7.3-32.7,41.5-18.5,58.2c4,4.6,12.4,7.6,18.8,7.6
		c21.8,0.2,43.7-1.8,65.6-2.1c17.4-0.2,20.3,4,15.1,20.3c-10.2,32.1-32.9,54.5-58.7,74.4c-3.7,2.9-8.6,4.6-11.7,7.9
		c-80.5,85.1-252.1,43.6-313.6-45.5C436.4,2003.5,427.3,1987.4,422,1964.5z"/>
	<path class="st1" d="M888.7,1442.9v-260.2h110.6c27.8,0,48,2.3,60.6,7c12.6,4.7,22.7,13,30.3,24.9c7.6,11.9,11.4,25.6,11.4,41
		c0,19.5-5.7,35.7-17.2,48.4s-28.6,20.7-51.5,24.1c11.4,6.6,20.7,13.9,28.1,21.8c7.4,7.9,17.4,22,29.9,42.2l31.8,50.8h-62.8
		l-38-56.6c-13.5-20.2-22.7-33-27.7-38.2c-5-5.3-10.2-8.9-15.8-10.8c-5.6-1.9-14.4-2.9-26.5-2.9h-10.7v108.6H888.7z M941.3,1292.8
		h38.9c25.2,0,40.9-1.1,47.2-3.2c6.3-2.1,11.2-5.8,14.7-11c3.6-5.2,5.3-11.7,5.3-19.5c0-8.8-2.3-15.8-7-21.2
		c-4.7-5.4-11.3-8.8-19.8-10.2c-4.3-0.6-17-0.9-38.3-0.9h-41L941.3,1292.8L941.3,1292.8z"/>
	<path class="st1" d="M1188,1312l-45.3-8.2c5.1-18.2,13.8-31.7,26.3-40.5c12.4-8.8,30.9-13.1,55.4-13.1c22.2,0,38.8,2.6,49.7,7.9
		c10.9,5.3,18.6,11.9,23,20.1c4.4,8.1,6.7,23,6.7,44.6l-0.5,58.2c0,16.6,0.8,28.8,2.4,36.7s4.6,16.3,9,25.3h-49.3
		c-1.3-3.3-2.9-8.2-4.8-14.7c-0.8-3-1.4-4.9-1.8-5.9c-8.5,8.3-17.6,14.5-27.3,18.6s-20.1,6.2-31.1,6.2c-19.4,0-34.7-5.3-45.9-15.8
		c-11.2-10.5-16.8-23.8-16.8-39.9c0-10.7,2.5-20.2,7.6-28.5s12.2-14.7,21.4-19.2c9.2-4.4,22.4-8.3,39.7-11.6
		c23.3-4.4,39.5-8.5,48.5-12.2v-5c0-9.6-2.4-16.4-7.1-20.5s-13.7-6.1-26.8-6.1c-8.9,0-15.8,1.8-20.8,5.2
		C1195.1,1297.1,1191.1,1303.2,1188,1312z M1254.7,1352.4c-6.4,2.1-16.5,4.7-30.3,7.6c-13.8,3-22.9,5.9-27.2,8.7
		c-6.5,4.6-9.8,10.5-9.8,17.6c0,7,2.6,13,7.8,18.1c5.2,5.1,11.8,7.6,19.9,7.6c9,0,17.6-3,25.7-8.9c6-4.5,10-10,11.9-16.5
		c1.3-4.3,1.9-12.4,1.9-24.3V1352.4z"/>
	<path class="st1" d="M1525.7,1442.9h-46.3v-27.7c-7.7,10.8-16.8,18.8-27.2,24.1c-10.5,5.3-21,7.9-31.7,7.9
		c-21.7,0-40.2-8.7-55.6-26.2c-15.4-17.4-23.2-41.8-23.2-73c0-31.9,7.5-56.2,22.5-72.9c15-16.6,34-24.9,57-24.9
		c21.1,0,39.3,8.8,54.7,26.3v-93.7h49.9V1442.9z M1392.6,1344.6c0,20.1,2.8,34.7,8.3,43.7c8.1,13,19.3,19.5,33.7,19.5
		c11.5,0,21.2-4.9,29.3-14.6s12.1-24.3,12.1-43.8c0-21.7-3.9-37.2-11.7-46.8c-7.8-9.5-17.8-14.3-30-14.3c-11.8,0-21.7,4.7-29.7,14.1
		C1396.6,1311.9,1392.6,1325.9,1392.6,1344.6z"/>
	<path class="st1" d="M1574.9,1228.9v-46.2h49.9v46.2H1574.9z M1574.9,1442.9v-188.5h49.9v188.5H1574.9z"/>
	<path class="st1" d="M1664.4,1346c0-16.6,4.1-32.6,12.2-48.1c8.2-15.5,19.7-27.3,34.7-35.5c15-8.2,31.7-12.2,50.1-12.2
		c28.5,0,51.9,9.3,70.1,27.8s27.3,41.9,27.3,70.2c0,28.5-9.2,52.2-27.6,70.9c-18.4,18.8-41.6,28.1-69.5,28.1
		c-17.3,0-33.8-3.9-49.4-11.7c-15.7-7.8-27.6-19.3-35.8-34.3C1668.4,1386.1,1664.4,1367.7,1664.4,1346z M1715.5,1348.7
		c0,18.7,4.4,33,13.3,42.9c8.9,9.9,19.8,14.9,32.8,14.9c13,0,23.9-5,32.8-14.9c8.8-9.9,13.2-24.4,13.2-43.3
		c0-18.5-4.4-32.7-13.2-42.6c-8.8-9.9-19.7-14.9-32.8-14.9s-24,5-32.8,14.9C1719.9,1315.7,1715.5,1330,1715.5,1348.7z"/>
	<path class="st0" d="M607.4,2137.6c-10.3-2.9-20-3.3-30.4-5.3c-7.3-1.4-14.8-5.8-22-7.5c-6.9-1.6-13.3-4.6-19.7-7.7
		c-40.5-19.1-71.8-31.2-101.5-63.4c-14.6-15.8-27.3-33.8-37.9-52.6c-21.3-38-28.6-80.2-29.4-123.2c-1-55.2-0.3-110.4-0.3-165.7
		c0-6.5,0.8-13.2-0.7-19.4c-1-3.9-5.4-9.6-8.5-9.7c-13.6-0.5-27.9-1.4-40.9,1.9c-18.5,4.7-26.8,20.7-28.6,38.5
		c-1.9,18.7,7.7,33.8,23.8,41.8c16.5,8.2,20.6,19.7,19.8,36.9c-2.7,57.5,2.6,114.4,14.5,170.8c16.1,76.5,58.5,133.4,126.2,172.3
		c35.6,20.5,118.3,38.1,118.1,68.3c-0.1,11.7-0.1,78.4-0.1,88.4l74,34.6c0.1-9.4,0.2-110.6,0.2-122.1c0.2-27.4,45.5-41.6,67.7-50.4
		c27.1-10.7,53.3-24.2,77-41.3c45.5-32.9,80-78.5,97.4-132.1c10.4-32,15.2-65.9,16-99.8c0.7-26.8,1.2-53.6-0.1-80.4
		c-0.9-19.6,4.6-33.2,21.9-44.5c24.3-15.7,29.7-42.6,17.2-68.1c-6.7-13.6-16.5-21.9-32.7-19.9c-11.8,1.5-23.6,3.1-37.5,4.8
		c0,15.9,0.2,29.6,0,43.3c-1.2,59.9-2.3,119.8-4.1,179.7c-0.4,12.8-2.8,25.6-5.8,38.1c-2.8,11.7-10,22.8-10.9,34.4
		c-1,13.5-9.6,22-15.4,32.2C810.6,2087.8,701,2163.6,607.4,2137.6z"/>
	<rect x="412.6" y="1846.2" class="st1" width="431.7" height="54.5"/>
	<rect x="412.6" y="1727.7" class="st1" width="431.7" height="56.8"/>
	<path class="st1" d="M1366.2,2174.2c-25.8,37.5-55.1,72.7-87.7,105.3c-68.8,68.8-148.8,122.8-238,160.5
		c-92.3,39.1-190.4,58.9-291.5,58.9s-199.2-19.8-291.5-58.9c-89.2-37.7-169.2-91.7-238-160.5c-68.8-68.8-122.8-148.9-160.5-238
		C19.8,1949.2,0,1851.1,0,1750s19.8-199.2,58.9-291.5c37.7-89.2,91.7-169.2,160.5-238c68.8-68.8,148.9-122.8,238-160.5
		c92.3-39.1,190.4-58.9,291.5-58.9c17.6,0,35.1,0.6,52.5,1.8v68.6c-17.3-1.3-34.8-2-52.5-2c-375.2,0-680.5,305.3-680.5,680.5
		s305.3,680.5,680.5,680.5c230.8,0,435.1-115.4,558.2-291.6L1366.2,2174.2z"/>
	<path class="st0" d="M1254.4,2107.4c-20.2,28.5-42.8,55.3-67.8,80.3c-56.8,56.8-123,101.5-196.8,132.6
		c-76.3,32.3-157.4,48.6-241,48.6s-164.6-16.4-241-48.6c-73.7-31.2-139.9-75.8-196.8-132.6c-56.8-56.8-101.5-123-132.6-196.8
		c-32.3-76.3-48.6-157.4-48.6-241c0-83.6,16.4-164.6,48.6-241c31.2-73.7,75.8-139.9,132.6-196.8c56.8-56.8,123-101.5,196.8-132.7
		c68-28.8,139.8-44.9,213.7-48.1l2,67.1c-292.6,13.2-526.7,255.5-526.7,551.4c0,304.3,247.6,551.9,551.9,551.9
		c184,0,347.2-90.5,447.5-229.3L1254.4,2107.4z"/>
</g>
</svg>
