<?xml version="1.0" encoding="utf-8"?>
<!-- Generator: Adobe Illustrator 27.7.0, SVG Export Plug-In . SVG Version: 6.00 Build 0)  -->
<svg version="1.1" id="Layer_1" xmlns="http://www.w3.org/2000/svg" xmlns:xlink="http://www.w3.org/1999/xlink" x="0px" y="0px"
	 viewBox="0 0 3500 3500" style="enable-background:new 0 0 3500 3500;" xml:space="preserve">
<style type="text/css">
	.st0{fill:#FFFFFF;}
	.st1{fill:#90FFF3;}
	.st2{fill:#E8E8E8;}
	.st3{fill:#9E9D9E;}
	.st4{fill:#D9D1DB;}
	.st5{fill:#A3A3A3;}
	.st6{fill:#E0E0E0;}
	.st7{fill:#A8ACB2;}
	.st8{fill:#EAEAEA;}
	.st9{fill:#BDC3C9;}
	.st10{fill:#C6C4C6;}
	.st11{fill:#E5E5E5;}
	.st12{fill:#A5A5A5;}
	.st13{fill:#BACECD;}
	.st14{fill:#D9D7DB;}
	.st15{fill:#DBD5E0;}
	.st16{fill:#9AA1A8;}
	.st17{fill:#A1A7AF;}
	.st18{fill:#AFAFAF;}
	.st19{fill:#959AA0;}
	.st20{fill:#D8D8D8;}
	.st21{fill:#ADACAD;}
	.st22{fill:#E8DFEA;}
	.st23{fill:#B2B2B2;}
	.st24{fill:#939393;}
	.st25{fill:#A7A7A8;}
	.st26{fill:#C1C1C1;}
	.st27{fill:#7F7F7F;}
	.st28{fill:#DDDDDD;}
	.st29{fill:url(#SVGID_1_);}
	.st30{fill:#F4F4F4;}
	.st31{fill:#E6E7E8;}
</style>
<g>
	<g id="Objects">
		<g>
			<g>
				<path class="st0" d="M92,1850.7c-28.5-16.1-51-38.3-67.4-66.6S0,1724.6,0,1690.2s7.9-65.8,24.1-94.1s38.1-50.5,66.4-66.6
					c28-16.1,59.2-24.1,93.9-24.1c31.5,0,60.8,7.1,88.3,21.7c27.2,14.5,50.2,35.4,69,62.7l-56.3,40.2c-25.6-38.9-59.5-58.4-101-58.4
					c-32.5,0-59.2,11.1-79.8,33.3c-20.9,22.2-31.2,50.8-31.2,85.4s10.6,63.2,32,85.4c21.2,22.2,48.1,33.3,80.9,33.3
					c28.3,0,51-7.1,68.7-21.2c17.5-14,28.3-31.5,32.8-52.1H179v-61.6h180.8c0.8,7.7,1.3,17.4,1.3,28.8c0.3,92-65.3,172.4-175,172.1
					C151.7,1875,120.3,1866.8,92,1850.7L92,1850.7z"/>
				<path class="st0" d="M424.6,1869.7v-359H680v61.9H496v82.8h159.7v61.9H496v90.9h188v61.6L424.6,1869.7L424.6,1869.7z"/>
				<path class="st0" d="M750,1869.7v-359h75.6l115.8,239l115.5-239h75.6v359h-71.4v-220.2l-96.8,196.2h-46.3l-96.8-196.2v220.2H750
					L750,1869.7z"/>
			</g>
			<rect x="1898" y="1507.2" class="st1" width="16.9" height="361.3"/>
			<path class="st1" d="M2071.6,1870.4v-361c51.6-0.5,102.6,0,154.2,0c84.1,0,128.4,63.4,128.4,131.5s-45.9,127.4-128.4,127.4H2149
				v102.1L2071.6,1870.4L2071.6,1870.4z M2225.8,1702.3c33,0,54.7-28.9,54.7-63.4s-20.6-61.9-54.7-61.9c-26.3-0.5-52.1,0-78.4,0
				v125.3H2225.8z"/>
			<path class="st1" d="M2566.1,1809.5v61.4h-179.4v-61.4h51.1v-239.8h-46.9v-59.8H2562v59.8h-46.9v239.8H2566.1L2566.1,1809.5z"/>
			<path class="st1" d="M3198.3,1577.5H3055v73.2h134.1v67.6H3055v82.5h147.5v70.1h-225.3v-361h221.2L3198.3,1577.5L3198.3,1577.5z"
				/>
			<path class="st1" d="M3349.4,1801.8H3500v69.1h-227.9v-361h77.4L3349.4,1801.8L3349.4,1801.8z"/>
			<polygon class="st1" points="2935.6,1868.5 2809,1680.1 2926.8,1507.2 2836.5,1507.2 2798.7,1566.1 2762.2,1624.4 2760.1,1624.4 
				2728.6,1569.2 2691.5,1507.2 2603.5,1507.2 2712.2,1681.6 2517.8,1994.6 2603.4,1994.6 2721.4,1803.3 2759,1739.3 2761.6,1739.3 
				2802.3,1801.3 2847.3,1868.5 			"/>
			<g>
				<g>
					<g>
						<polygon class="st2" points="1514.4,1599.5 1395.6,1599.5 1414.4,1559.1 						"/>
						<polygon class="st3" points="1414.4,1559.1 1376.2,1514.8 1279.4,1566.8 1326.9,1599.5 						"/>
						<polygon class="st4" points="1395.6,1599.5 1414.4,1559.1 1326.9,1599.5 						"/>
						<polygon class="st5" points="1326.9,1599.5 1257.3,1599.5 1279.4,1566.8 						"/>
						<polygon class="st6" points="1257.3,1599.5 1202,1599.5 1279.4,1566.8 						"/>
						<path class="st7" d="M1202,1599.5c0,0,99.2-84.8,100.7-84.7c1.5,0.2-23.2,52-23.2,52L1202,1599.5z"/>
						<polygon class="st8" points="1302.7,1514.8 1376.2,1514.8 1279.4,1566.8 						"/>
						<polygon class="st9" points="1376.2,1514.8 1414.4,1559.1 1514.4,1514.8 						"/>
						<polygon class="st10" points="1514.4,1599.5 1633.2,1599.5 1614.3,1559.1 						"/>
						<polygon class="st11" points="1514.4,1514.8 1414.4,1559.1 1514.4,1599.5 1614.3,1559.1 						"/>
						<polygon class="st0" points="1614.3,1559.1 1652.5,1514.8 1749.3,1566.8 1701.9,1599.5 						"/>
						<polygon class="st12" points="1633.2,1599.5 1614.3,1559.1 1701.9,1599.5 						"/>
						<polygon class="st13" points="1701.9,1599.5 1771.5,1599.5 1749.3,1566.8 						"/>
						<polygon class="st14" points="1771.5,1599.5 1826.8,1599.5 1749.3,1566.8 						"/>
						<path class="st15" d="M1826.8,1599.5c0,0-99.2-84.8-100.7-84.7c-1.5,0.2,23.2,52,23.2,52L1826.8,1599.5z"/>
						<polygon class="st0" points="1726.1,1514.8 1652.5,1514.8 1749.3,1566.8 						"/>
						<polygon class="st16" points="1652.5,1514.8 1614.3,1559.1 1514.4,1514.8 						"/>
					</g>
					<g>
						<polygon class="st17" points="1395.6,1599.5 1469.8,1782.1 1326.9,1599.5 						"/>
						<polygon class="st0" points="1326.9,1599.5 1426.6,1782.1 1514.4,1875 1469.8,1782.1 						"/>
						<polygon class="st8" points="1326.9,1599.5 1257.3,1599.5 1426.6,1782.1 						"/>
						<polygon class="st18" points="1514.4,1875 1426.6,1782.1 1202,1599.5 						"/>
						<polygon class="st19" points="1257.3,1599.5 1202,1599.5 1426.6,1782.1 						"/>
						<polygon class="st20" points="1514.4,1599.5 1469.8,1782.1 1514.4,1875 1559,1782.1 						"/>
						<polygon class="st11" points="1633.2,1599.5 1559,1782.1 1701.9,1599.5 						"/>
						<polygon class="st21" points="1701.9,1599.5 1602.2,1782.1 1514.4,1875 1559,1782.1 						"/>
						<polygon class="st22" points="1701.9,1599.5 1771.5,1599.5 1602.2,1782.1 						"/>
						<polygon class="st23" points="1514.4,1875 1602.2,1782.1 1826.8,1599.5 						"/>
						<polygon class="st24" points="1771.5,1599.5 1826.8,1599.5 1602.2,1782.1 						"/>
						<polygon class="st25" points="1633.2,1599.5 1559,1599.5 1559,1782.1 						"/>
						<polygon class="st2" points="1514.4,1599.5 1395.6,1599.5 1469.8,1782.1 						"/>
					</g>
					<g>
						<polygon class="st0" points="1257.3,1599.5 1395.6,1599.5 1376.2,1514.8 						"/>
						<polygon class="st26" points="1395.6,1599.5 1514.4,1599.5 1633.2,1599.5 1514.4,1514.8 						"/>
						<polygon class="st27" points="1726.1,1514.8 1771.5,1599.5 1826.8,1599.5 						"/>
						<polygon class="st26" points="1633.2,1599.5 1771.5,1599.5 1652.5,1514.8 						"/>
					</g>
					<path class="st28" d="M1771.5,1589.9h-558.3c-6.9,5.9-11.2,9.6-11.2,9.6h624.8c0,0-4.3-3.7-11.2-9.6H1771.5L1771.5,1589.9z"/>
					
						<linearGradient id="SVGID_1_" gradientUnits="userSpaceOnUse" x1="1570.8586" y1="-1699.0719" x2="1623.4486" y2="-1735.782" gradientTransform="matrix(1 0 0 -1 0 0)">
						<stop  offset="0" style="stop-color:#D6D6D6"/>
						<stop  offset="1" style="stop-color:#191919"/>
					</linearGradient>
					<polygon class="st29" points="1514.4,1875 1645.7,1599.5 1736.7,1599.5 					"/>
				</g>
				<polygon class="st30" points="1559,1599.5 1514.4,1599.5 1559,1782.1 				"/>
				<polygon class="st30" points="1514.4,1875 1514.4,1599.5 1469.8,1599.5 				"/>
				<polygon class="st31" points="1326.9,1589.9 1376.2,1514.8 1393.4,1589.9 				"/>
				<polygon class="st31" points="1726.1,1514.8 1652.5,1514.8 1765,1589.9 				"/>
			</g>
		</g>
	</g>
</g>
</svg>
