<?xml version="1.0" encoding="utf-8"?>
<!-- Generator: Adobe Illustrator 27.7.0, SVG Export Plug-In . SVG Version: 6.00 Build 0)  -->
<svg version="1.1" id="Layer_1" xmlns="http://www.w3.org/2000/svg" xmlns:xlink="http://www.w3.org/1999/xlink" x="0px" y="0px"
	 viewBox="0 0 3500 3500" style="enable-background:new 0 0 3500 3500;" xml:space="preserve">
<style type="text/css">
	.st0{fill:#FF7711;}
</style>
<path class="st0" d="M2888.7,1012.9h23.4c270,145,458,247.5,564,307.6c10.7,6.1,18.7,18,23.9,35.7v21
	c-139.9,389.2-395.1,765-766.6,962.9c-243.5,129.8-520,156.1-787.2,84.3c-283-76.2-497.4-252.6-643-529.5c-1.2-2.3-0.4-5.1,1.9-6.3
	c0.5-0.3,1.1-0.5,1.7-0.5c3.1-0.3,5.7,0.6,7.8,2.8c36,35.2,69,65,99.2,89.3c216.4,174.9,453.5,199.8,711.2,74.7
	c88.2-42.8,172.5-102.8,253-180c234.8-225.1,375.6-523.1,469.8-830.5C2852.1,1030.5,2865.8,1019.9,2888.7,1012.9z"/>
<path class="st0" d="M611.2,2487.1h-22.7c-280.7-151.2-468.4-253.3-563.2-306.4C13.7,2174.2,5.2,2162,0,2144v-21.6
	c116.7-325.9,317.5-645.5,596.3-854.4c182.1-136.5,394.7-223.8,618.8-230.7c425.5-13.2,788.7,187.8,981.4,568.7
	c1,1.9,0.2,4.2-1.7,5.2c-0.5,0.3-1,0.4-1.6,0.4c-3.4,0.2-6.3-0.9-8.8-3.4c-34.6-34.1-67.8-63.9-99.6-89.5
	c-448.1-361.3-941.5-15.5-1192.7,391.5c-106.5,172.5-178.1,352-240.7,546.5C647.2,2469.8,633.8,2480,611.2,2487.1z"/>
</svg>
