<?xml version="1.0" encoding="utf-8"?>
<!-- Generator: Adobe Illustrator 27.7.0, SVG Export Plug-In . SVG Version: 6.00 Build 0)  -->
<svg version="1.1" id="Layer_1" xmlns="http://www.w3.org/2000/svg" xmlns:xlink="http://www.w3.org/1999/xlink" x="0px" y="0px"
	 viewBox="0 0 3500 3500" style="enable-background:new 0 0 3500 3500;" xml:space="preserve">
<style type="text/css">
	.st0{fill:#FFFFFF;}
	.st1{fill:#F24045;}
	.st2{fill:#109206;}
</style>
<g>
	<path class="st0" d="M2964.5,3116.2c16.6-22.4,33.3-44.8,49.8-67.2c81.8-111.2,163.8-222.3,245.1-333.9
		c12.9-17.7,24.3-36.9,33.3-56.7c10.5-23.3,2.3-36.4-22.8-42.4c-2.6-0.6-5.2-1-7.8-1.3c-11.3-1.4-24.1-0.7-24.6-17.3
		c-0.5-15.9,12.3-31.4,27.6-33.5c4.3-0.6,8.8-0.4,13.2-0.4c61.6,0,123.2-0.1,184.8-0.1c4.4,0,8.8,0,13.2,0.4
		c11.2,1.2,20.9,4.9,23.3,17.5c2.4,12.7-5.9,29.1-18.7,31.1c-65.1,10.6-104.1,57.1-139.9,104.8c-146.3,194.7-291,390.7-436.3,586.2
		c-14.7,19.8-29.1,39.6-44,59.3c-3.7,4.8-7.9,9.7-12.9,13c-18.6,12.3-38.9,2.1-38.5-20c0.4-22.8,2.8-45.7,5.1-68.4
		c13.3-128.6,27.1-257.2,40.2-385.9c7.6-74.4,14.4-148.9,21.1-223.3c3.8-41.2-13.8-61.4-54.8-63.9c-6.1-0.4-12.3-0.3-18.5-0.4
		c-10.8-0.2-21.9-0.1-25.1-13.8c-2.7-11.8,7.4-30.6,19.3-34.3c6.5-2.1,13.9-2.2,20.8-2.2c85.4-0.2,170.8-0.1,256.1-0.1
		c5.3,0,10.6,0,15.8,0.7c11.4,1.7,20.2,6.6,20.6,19.9c0.4,13.5-3.8,24.8-18,28.6c-6.6,1.8-14,1.3-21,1.7
		c-45,2.4-82.2,32.5-87.5,76.4c-6.6,54.1-13.8,102.9-19.3,157.2c-9.1,89.3-17.5,178.1-26.2,267.4c-0.2,2.4,5.2,16.8,5.5,19.3
		C2945.1,3135.4,2962.8,3115.4,2964.5,3116.2z"/>
	<path class="st0" d="M2369.8,2644.5c-38.8-4.5-73.4-2-107.5,6.7c-50.5,12.9-85.2,44-103.6,93c-3.7,9.9-6.8,20.1-11.4,29.5
		c-6.4,12.9-20.6,18.4-33.4,13.8c-14.5-5.3-13.6-17.1-10.6-28.6c14.9-57.9,30.1-115.8,45.2-173.7c3.6-13.7,12.8-20.5,26.6-21.6
		c6.1-0.5,12.3-0.5,18.5-0.5c174.3,0,348.7,0.1,523,0.2c48.7,0,52.4,5.6,37.5,52.5c-15.2,47.8-29.9,95.8-45,143.6
		c-2.1,6.6-4.2,13.6-8,19.3c-6.6,9.8-22.9,13.2-33.4,7.9c-11-5.5-9.8-15.3-8.6-25.2c2.4-20.9,6.3-41.8,6.5-62.7
		c0.3-31.6-13.9-48.6-44.7-51.6c-34.1-3.4-68.5-3.2-102.8-4.8c-15.6-0.8-21.2,8.5-25,21.7c-16.1,56.7-32.6,113.3-48.9,170
		c-37.4,129.4-74.8,258.7-112,388.1c-5.1,17.7-10.1,35.7-12.7,53.8c-3,20.8,4.8,32.1,25.2,36.6c16.2,3.5,33.1,3.8,49.7,5.2
		c20.2,1.6,27.8,6.9,28.3,20.5c0.6,16.4-9.1,26.8-28.4,27.1c-53.7,0.7-107.4,0.4-161.1,0.4c-46.7,0-93.3,0.2-140-0.1
		c-21.8-0.1-28.1-4.6-29.1-18.5c-1.3-17.6,8.9-29.3,29.1-29.4c76.2-0.3,85.9-27.2,107.1-90.2c18.8-55.8,34-112.9,50.5-169.5
		c37.3-127.6,74.4-255.1,111.6-382.7C2364.8,2667.1,2366.5,2658.5,2369.8,2644.5z"/>
	<path class="st1" d="M373,3226.6c-3.4,0-6.8-0.1-10.2-0.2c-42.2-1.5-74.1-4.1-103.5-8.5c-64.6-9.5-121-26.3-172.3-51.3
		c-22.2-10.8-44.6-24.1-57.3-47.9c-12.8-24-12.4-46.8,1-67.8c9.7-15.1,24.7-22.1,47.4-22.1c2.8,0,5.7,0.1,8.5,0.3
		c18,1.2,36.3,3.1,54,4.9c13.2,1.3,26.8,2.7,40.3,3.8c22.1,1.8,42.1,3.4,62.6,3.5l12.1,0.1c23.5,0.1,47,0.2,70.5,0.2
		c37.8,0,68.7-0.3,97.4-1.1c29-0.7,57.9-4.7,87.4-9.1c17.9-2.6,35.8-6,53.2-9.3c15.2-2.9,31-5.8,46.4-8.2
		c68.3-10.7,134.4-33,192.7-52.7c100.2-33.9,200.1-81.2,305.5-144.9c79.2-47.8,157.7-104.7,240.2-173.7
		c73.2-61.3,143.7-129.9,209.7-203.8c13-14.6,26.2-29.1,39.3-43.6c23.4-25.9,47.6-52.6,70.8-79.5c14.7-17,28.7-34.9,42.3-52.3
		c7.4-9.6,14.9-19.1,22.5-28.5c16.4-20.3,32.8-40.6,49.2-60.9c22.9-28.3,45.9-56.7,68.7-85.1c5.1-6.4,9.7-13.2,14-19.8
		c2.1-3.1,4.1-6.2,6.3-9.3c0.6-0.9,1.2-1.9,1.9-2.9c0.7-1,1.6-2.6,2.1-3l5.8-4.6c18.7-14.7,38.1-29.9,57.5-44.2
		c26.1-19.3,54.8-38.6,88.5-49c13.2-4.1,23.7-12.6,32.3-26c22.1-34.5,48.6-55.6,80.9-64.3c16.6-4.5,27.7-15.5,37.4-25.3
		c1.7-1.7,3.3-3.3,5-5c40-38.7,82-79.8,128.4-125.7c26.9-26.6,53.6-53.3,80.4-80c31.7-31.6,64.4-64.3,96.8-96.3
		c20.4-20.2,41.7-40.2,62.4-59.5c6.1-5.7,12.2-11.4,18.3-17.2c4-3.8,7.6-6.5,10.8-8.1c2.7-1.4,5.3-2.2,7.5-2.2
		c1.9,0,3.4,0.6,4.6,1.7c1.9,1.9,2.8,5.5,2.7,9.9c0,0.3-0.1,0.7-0.2,1c-0.1,0.7-0.2,1.3-0.3,2l-4.5,34.1
		c-4.3,32.9-8.7,65.9-12.8,98.9c-0.8,6.5-1,12.9-1.2,19.2c-0.1,3.4-0.2,6.9-0.4,10.3l-1.6,26.3c-1.7,27.1-3.4,55.2-5.4,82.7
		c-0.7,9.8-1.4,19.5-2,29.3c-2,30.1-4.1,61.2-7.6,91.5c-12.4,105.3-34.9,187.2-70.8,257.8c-31.5,61.8-68.3,110.6-112.7,149.1
		c-82.1,71.3-169.1,110.6-266.2,120.2c-12.1,1.2-23.4,1.8-34.4,1.8c-26.3,0-50.4-3.4-73.5-10.4c-3.9-1.2-8.2-1.8-12.9-1.8
		c-5.1,0-10.7,0.7-16.8,2.1c-21.7,4.9-43.5,7.4-64.7,7.4c-22.7,0-45.4-2.9-67.5-8.5c-27-6.9-51.1-14-71.7-31.3l-8.3-7l-12.7,16
		c-4.1,5.2-8.1,10.2-12.1,15.2c-7.3,9-14.5,18.1-21.7,27.1c-17.4,21.7-35.3,44.2-53.4,65.9c-22.2,26.7-45.5,53.6-71.2,82.4
		l-21.5,24.1c-41.1,46.1-83.6,93.7-126.5,139.5c-29.2,31.2-60.8,60.6-88.2,85.8l-10.8,9.9c-31.7,29.1-64.5,59.3-98.7,86.1
		c-49.8,39-99.5,74.4-159.3,116.7c-52.8,37.3-110.3,66.1-169.4,94.8c-77.5,37.5-161,67.7-248.1,89.5l-14.5,3.6
		c-27.8,7.1-56.6,14.4-85.1,18.7c-37.2,5.6-75.4,9.1-112.5,12.5l-21.3,1.9C412.8,3224.8,392.6,3226.6,373,3226.6z M2467,1624.5
		c-36.3,21.9-233.6,194.4-254.4,225.4l-6.1,9.1l14.6,9.1c3.9,2.4,7.8,4.9,11.8,7.2c23.6,13.9,37.3,28.8,44.5,48.2
		c11,29.7,13.2,62,6.6,96.2c-9.3,48.4-22.1,89.2-38.9,125c-33,69.9-79.8,125.9-143.1,171.1c-3.1,2.2-5.5,4.9-7.6,7.2
		c-0.8,0.8-1.5,1.7-2.4,2.5l-25.3,25.2l34.9-7.4c21.7-4.6,39.5-10,56.2-17.1c50.5-21.6,97.6-53.6,144-98c34-32.5,63.6-68.5,88-106.9
		c22-34.6,44.2-72.1,52.2-116c5.8-31.8,9.9-64.2,13.9-95.6c1-7.8,2-15.6,3-23.3c1.9-14.7,3.4-29.5,4.9-43.9
		c1.2-11.4,2.3-22.7,3.7-34.1c4-33.5,8.1-67,12.2-100.5c2.3-19,4.7-38,7-57c0.1-0.8,0.3-1.7,0.5-2.5c1-4.8,3.6-17.7-10-24.3
		l-5.2-2.5L2467,1624.5z M2008.9,2090.9c-14.5,0-27.2,4.1-37.8,12.1c-4.1,3.1-8.2,6.2-12.4,9.2c-17.1,12.6-34.7,25.7-49.3,41.8
		c-33.2,36.6-65.5,75.1-96.8,112.2c-10.3,12.2-20.6,24.5-30.9,36.7c-3,3.6-4.8,7.5-6.2,10.8c-0.5,1.1-0.9,2.1-1.4,3l-3.2,6.3
		l4.6,5.4c0.4,0.5,0.7,0.9,1,1.3c1.2,1.6,3.2,4.4,6.9,5.7c3.5,1.3,7.2,2.3,11.4,3.1c14.5,3,29.9,4.5,45.7,4.5c0,0,0,0,0,0
		c16.5,0,33.7-1.6,52.5-4.8c68.6-11.7,119.8-33.1,161.1-67.2c30.1-24.8,53.1-47,72.6-69.8c33-38.7,54.3-73.7,67.2-110
		c6.6-18.6,14.3-46.9,5.9-77.2c-5.5-19.7-19.7-32.7-41.2-37.6c-4.6-1.1-8.6-1.6-12.1-1.6c-10.4,0-23.6,4.6-27.5,26.4
		c-4.8,26.7-18.2,49.8-32,70.8c-9.3,14.1-22.1,21.1-40.2,22.1c-1.2,0.1-2.4,0.1-3.6,0.1c-5.4,0-11.3-0.6-18.6-1.9
		C2019.2,2091.4,2013.9,2090.9,2008.9,2090.9z"/>
	<path class="st1" d="M2702.1,2382.8c-14.2,0-26.9-1.1-38.9-3.4c-11.5-2.2-23.6-6.3-36-12.3c-1.2-0.7-3.4-3.6-4-5.4
		c0.4-1.2,2.1-4.2,8.5-9.5c1.2-0.4,4.2-0.5,6-0.6l2.1-0.1c3.9-0.2,7.8-0.4,11.7-0.4c3.4,0,6.6,0.1,9.7,0.3
		c5.4,0.4,10.8,0.6,16.2,0.6c46.9,0,94.2-14,148.9-44.1c44.6-24.6,85-55.6,120.1-92.1c57.6-59.9,96.2-119.7,118.1-182.6
		c9.8-28.1,14.9-57.3,18.6-82.2c3.4-22.6,5.4-45.7,7.4-68c1-11,1.9-22.1,3.1-33.1l2-19.8c2.7-27.1,5.6-55.1,8.9-82.5
		c2.6-21.1,5.7-42.4,8.7-63.1c1.7-11.6,3.4-23.1,4.9-34.7c0.5-3.6,0.6-7.1,0.8-10.4c0.1-1.4,0.1-2.8,0.2-4.1l0.4-6.1l-16.6-10.9
		l-6,4.8c-4.5,3.6-9,7.1-13.5,10.6c-9.8,7.7-20,15.7-29.7,24c-43.8,37.9-84,73.1-122.7,107.5c-21.6,19.1-42.4,38.5-67.1,61.6
		c-12.9,12.2-25.8,24.4-38.6,36.7c-15.3,14.6-31.1,29.7-46.7,44.2c-34.8,32.3-69.5,63.8-95.9,87.6c-3.8,3.4-9.5,8.2-15.3,10.2
		c-0.8,0.3-2.5,0.6-4.3,0.6c-0.8,0-1.4-0.1-1.9-0.1c-1.1-2-1.9-5.7-1.4-7.2c1.6-5.2,6.6-10.8,11.3-15.6
		c41.2-42,82.5-83.8,123.8-125.7c20.6-20.8,41.1-41.7,61.6-62.5c2.4-2.4,3.2-5.2,3.8-7.2c0.2-0.6,0.4-1.3,0.7-2.2l3.6-10.1
		c0,0-19.5-6.7-24.2-8.4c-11.1-3.8-22.5-7.8-33.9-11.5c-5.4-1.8-10.9-3.2-16.1-4.6c-4.6-1.2-9.2-2.4-13.8-3.9
		c-7.7-2.4-12.7-5.7-13.9-9.1c-1.2-3.2,0.2-8.4,4-14.6c15.2-25.1,31.3-50.4,46.8-74.9c7.4-11.7,14.9-23.4,22.2-35.2
		c2.5-3.9,5.6-5.7,10.2-5.7c0.4,0,0.8,0,1.2,0c30.5,2.1,55.7,16.8,76.8,45c7,9.3,1.6,21.3-0.9,26c-4.6,8.2-9.9,16-15.5,24.3
		l-4.1,6.1c-2.4,3.5-5,7-8.1,11.1c-1.6,2.1-3.2,4.3-5,6.7l-13.8,18.6l23.1-1.7c13.2-1,19.5-8.8,23.7-13.9c0.9-1.1,1.8-2.2,2.8-3.2
		c10.1-9.8,20-19.8,29.9-29.7l3.8-3.8c7.8-7.8,15.6-15.8,23.3-23.7c15.5-15.8,31.6-32.2,47.7-47.8c40.9-39.7,82.6-79.8,123-118.6
		c16.5-15.8,32.9-31.6,49.4-47.5c0.3-0.3,0.6-0.6,0.9-0.8l0.4-0.3c5-4.1,9.8-7.9,13.8-7.9c1.2,0,2.6,0.4,4.1,1.1
		c5.7,2.8,4.8,11.9,3.1,19.1c-11.1,46.3-13.9,93.8-16.6,139.8l-0.9,15.6c-2.1,33.5-4.4,68.1-6.9,102.8c-1.2,17-2.6,33.9-4,50.9
		c-1.7,21.1-3.4,42.8-4.9,64.3c-4,57.9-18.1,114.4-33.3,171.9c-11.8,44.4-31.4,89-61.9,140.4c-12.9,21.8-25.9,39.8-39.8,55
		c-34,37.2-75.6,79.3-126.9,109.4c-63.5,37.2-126.1,58.1-191.6,64.1C2724.1,2382.2,2712.6,2382.8,2702.1,2382.8z"/>
	<path class="st1" d="M2930.2,1449.7c-0.5,0-1.2-0.3-2.1-0.8c-1.5-0.9-5.6-3.2-3.3-11.2c0.6-2.2,1.3-4.4,1.9-6.6
		c3.1-10.8,6-21,11-29.6c32.2-55.5,76.2-100.3,130.6-133.1c28.8-17.3,65.9-28.8,104.6-32.2c6.2,1.4,12.5,2.7,18.7,4
		c14.8,3,28.9,5.9,42.4,10.5c20,6.8,39.9,10.2,59.1,10.2c34.3,0,66.8-10.5,99.4-32c27.1-17.9,50.8-41.4,76.9-76.1
		c0.9-1.2,1.8-2.4,2.7-3.7c3.4-4.7,6.6-9.1,10.3-12.4c2.9-2.6,6.1-4.3,8.3-4.3c0.8,0,1.5,0.2,2.2,0.8c1.6,1.4,3.6,6.7,3.2,8.8
		l-2.1,7.6c-4.9,17.9-10,36.4-18.9,51.6c-37.7,64.4-92.2,114.3-162,148.3c-41.8,20.3-77.5,29.8-112.4,29.8c-1.2,0-2.4,0-3.7,0
		c-13.3-0.3-26.5-2.4-40.5-4.8c-5.1-0.8-10.2-1.7-15.3-2.4c-4-0.6-8.5-1.8-13.8-3.8c-16.1-6-32.2-9-47.8-9
		c-34.5,0-67.7,14.3-101.6,43.7c-11.2,9.7-21.4,20.6-31.2,31.1c-2.8,3-5.6,6.1-8.5,9.1C2936.5,1445.1,2932.1,1449.7,2930.2,1449.7z"
		/>
	<path class="st1" d="M2509.9,2326h-9c-2.9,0-14.2,0.1-17.1,0.1c-3.8,0-7.6,0-11.5-0.2l-2.8-0.1c-2.6-0.1-7-0.1-8.2-0.9
		c-6.5-3.9-9.8-7.6-10.7-9.9c0-0.8,1.4-2.9,5.1-4.9c12.5-6.6,25.2-13,37.8-19.4l15.2-7.7c86.8-44.3,149.4-91,197-147
		c41.1-48.4,67-105.2,88-154.5c1.6-3.8,3.2-7.7,4.8-11.6c4.6-11,9.3-22.4,14.8-33c1.1-2,3.3-4.3,4.9-5.4c1.5,1.1,3.3,3.2,3.7,4.4
		c3.6,11.4,4.8,20.3,3.8,27.2c-14,93.2-46.7,177.7-97.2,251.1c-38.8,56.4-80.8,88.1-132.2,99.6c-21.6,4.8-44.2,7.9-66,10.9
		c-6.7,0.9-13.4,1.8-20.1,2.8L2509.9,2326z"/>
	<path class="st0" d="M2169,1696.1c-8.5,0-15.5-0.1-21.9-0.4c-8-0.3-8.7-3.2-9-4.8c-0.4-1.9-1.2-5.4,5.2-8.8
		c15.7-8.4,31.8-16.6,47.4-24.6l14.6-7.5c3.3-1.7,6.7-3.4,10.1-5c6.5-3.2,13.2-6.5,19.7-10.3c85.9-49.7,147.6-106.3,188.8-172.9
		c15.9-25.8,28.6-53.8,40.8-80.9c5.4-12,11-24.5,16.8-36.4c1.8-3.8,3.6-7.6,5.4-11.3c4.4-9.4,8.5-18.2,13.4-26.8
		c0.4-0.6,1.4-1.5,2.3-2.1c1.1,0.7,2.2,1.7,2.8,2.5c1.8,13,3.2,26.7,1.2,38.8c-4.1,25-10.8,49.8-16.7,70.9
		c-17.3,61.2-43.1,117.2-76.7,166.5c-35.9,52.8-73.8,84.3-119.2,99.3c-27.8,9.2-56.6,13.9-85.6,13.9c-2.7,0-5.4,0-8.1-0.1
		c-0.3,0-0.5,0-0.8,0c-5.2,0-10.2,0-15.1,0.1C2179.3,1696,2174.2,1696.1,2169,1696.1z"/>
	<path class="st0" d="M2124.5,1213.3c-7.7,0-15.9-4-25.9-12.6c-9.1-7.8-18.7-15-28-22c-4.9-3.7-9.8-7.4-14.7-11.1
		c-18.1-14.1-19.5-22.1-7.6-41c21.8-34.4,41.6-64.7,60.7-92.8c9.9-14.6,16.9-16.4,21.9-16.4c5.6,0,12.6,2.7,21.4,8.1
		c27.9,17.3,44.4,37.2,52,62.3c1.2,3.8,2,8,2.9,12.9c0.4,1.9,0.8,3.8,1.2,5.9c-0.7,2.6-1.4,5.4-2.1,8.2c-2,8-4,16.2-7.3,23.5
		c-10.6,23.9-27.4,45.3-49.8,63.7C2139.7,1209.7,2131.9,1213.3,2124.5,1213.3z"/>
	<path class="st2" d="M1791.1,183.1c-2.1,6.7-3.3,12.1-5.5,17c-14.8,33-37.4,60.7-61.7,86.9c-14.5,15.6-29.4,16.8-48.7,8.7
		c-11.3-4.7-23.2-8.2-34.8-12c-6.5-2.1-13.4-3.2-19.8-5.6c-17.3-6.6-21-14.7-14.1-31.9c2.8-7,6.5-13.7,10.5-20
		c18.8-29.5,37.9-58.8,57-88.1c11.9-18.3,20.5-22.4,41.4-17c26.6,7,48.8,21.8,66.7,42.5C1786.6,169.1,1788.3,176.9,1791.1,183.1z"/>
	<path class="st2" d="M1218,488.8c-10-3.2-17.1-5.6-24.3-7.8c-14.4-4.4-28.6-9.4-43.2-12.9c-24.1-5.7-32.7-21.5-20-42.5
		c21.7-35.8,44.7-70.8,67.5-105.9c8.5-13,19.8-15.8,35.6-12.3c27.7,6.2,47.8,23.1,67.4,41.4c10.3,9.6,13,22,6.5,33.8
		c-11.9,21.5-25,42.4-38.8,62.7c-7.3,10.7-16.4,20.5-26.2,29C1235.1,480.8,1225.4,484.6,1218,488.8z"/>
	<path class="st0" d="M2525.2,1140.3c-3.8,0-8.2-1.2-12.9-3.4c-13.5-6.4-28.1-9.7-42.2-12.8l-3.2-0.7c-10.1-2.2-16.8-5.9-18.7-10.4
		c-2.3-5.3,1.1-13.2,4.4-18.8c16.8-28.8,35.1-57.6,52.7-85.4l12.2-19.2c3.2-5.1,7.2-7.2,13.7-7.2c3.3,0,7.1,0.6,11.9,1.7
		c24.6,6.1,44.1,23,61.6,40.3c1,1,2.2,4.9,3.2,7.9c0.4,1.3,0.9,2.8,1.4,4.3c-1.1,2.8-2.1,5.7-3.1,8.4c-3,8.4-5.9,16.4-10.4,22.5
		c-15,20.5-32.2,40.1-48.9,59.1l-2.9,3.4C2535.6,1139.3,2529.2,1140.3,2525.2,1140.3z"/>
	<path class="st0" d="M2377.6,436.6c2.1-14.9,13.4-26.2,30.4-38.5c39.2-28.5,79.5-57.1,118.4-84.7c15.9-11.3,31.9-22.6,47.8-34
		c0.7-0.5,1.4-1,2-1.6c0.4-0.3,0.7-0.6,1.1-0.9c7.7-5.3,12-6.1,13.9-6.1c4.1,0,6.2,6.9,7.2,12.5
		C2572.4,301.3,2457.4,380.2,2377.6,436.6z"/>
	<g>
		<g>
			<path class="st2" d="M860.3,2031.9c-33.4-10.7-67-21.1-99.6-33.9c-66.4-26-128.3-59.7-182.8-106.7
				c-39.3-33.9-71.3-73.3-91.6-120.7c-37.6-87.9-40.5-178.9-17.9-271.2l0,0c3.2-16.1,9.9-36.1,17.5-55.5c1.1-5.4,3.9-11.9,8.3-22.1
				c7.4-17,15.3-33.7,23.6-50.2c0.1-0.2,0.2-0.3,0.2-0.3l0,0c24.7-48.5,53.6-94.5,86.3-138.2c43.4-57.9,93.5-110,145.4-160.4
				c70.9-68.9,148.1-129.7,230.5-184c0.2-0.2,0.4-0.3,0.6-0.5c7-4.8,15-10,23.9-15.4c20.7-13,42.5-24.6,67.7-39.1
				c-0.2,0.5-0.4,0.9-0.6,1.3c10.1-5.3,20.2-10.7,30.4-15.9c1.6-1.2,3.2-2.4,5-3.4c13.7-7.9,27.7-15.5,42.1-22.1
				c26.7-12.2,53.3-24.4,79.9-36.6c1.7-0.8,2.7-1.2,2.7-1.2l0,0c40.1-18.3,80.2-36.5,120.6-53.9c24.9-10.7,45.2-25.4,61.5-44.4
				c1.4-2.5,3.3-4.8,5.8-7.2c6.7-8.7,12.6-18.2,17.8-28.6c1.2-2.5,2.7-4.9,4.2-7.3c12.3-40.1,0.2-87.4,0.1-87.7
				c-10.9-1.3-21.8-1.8-32.6-0.6c0,0-259.1,108.1-326.7,151c-67.4,40.4-131.3,85.8-192.4,135.2c-39.6,32-79.8,63.5-116.8,98.4
				c-62,58.6-122,119.2-175.5,186.1c-63.1,78.9-119.4,161.6-159.9,253.8c-2.1,5.2-19.2,46.7-32.5,88.9c-0.4,2.1-1,4.3-1.6,6.5
				c-10.4,34.3-17.3,69.1-21,104.9c-4.5,44.4-2.5,88.2,4.8,131.6c16.8,99.3,64.9,181.9,138.7,249.8
				c56.5,51.9,122.3,88.7,192.9,117.6c3.3,1.4,6.6,3.3,11.7,6.1l142.1-23C868.4,2033.5,864,2033.1,860.3,2031.9z"/>
		</g>
	</g>
	<path class="st2" d="M1764.3,386.2c-5.8-13.9-18.5-14.3-26.4-1.2c-5.3,8.8-8.9,18.6-13.2,27.9c0,0-19.2,61.7-50.6,110.5
		c-18.3,32.6-39.4,63.7-67.8,87.8c-35.6,30.2-72.7,58.9-111.5,84.8c-29,19.3-61.8,33-92.8,49.5c-9.6,5.1-19.9,10.1-27.6,17.5
		c-10.5,10-7.8,22.5,5.5,28.2c7.3,3.1,16.1,4.7,24,4.3c30.8-1.8,61.6-3.9,92.2-7.4c65.5-7.5,118.7-38,158.6-90.1
		c64.4-83.9,99.5-180,114.6-283.9C1770.6,405.1,1767.9,394.8,1764.3,386.2z"/>
	<path class="st0" d="M2734.9,249.2c-0.7-0.8-2.2-1-3-1c-1.5,0-3.2,0.4-5.1,1.1c-2.6,1-5.5,3.2-8.6,5.5c-1.5,1.1-3,2.3-4.5,3.3
		c-1.3,0.9-2.6,1.9-4,2.9c0.2,3.7-0.8,8.3-4.4,13.8c-7.4,11.4-171.7,124.1-249.8,173.9c-3.8,4.2-8.7,7.9-15,11.3
		c-28.8,15.6-59.6,32.5-89.6,50.2c-27.2,16.1-54.8,32.7-81.5,48.7c-41.8,25.2-85,51.2-128.1,75.8
		c-93.3,53.5-192.5,110.9-288.1,172.8c-14.4,9.3-29.3,18-43.8,26.3c-8.6,5-17.2,9.9-25.7,15.1c-4.2,2.5-8.4,4.9-12.7,7.4
		c-19.6,11.2-38.1,21.8-49,40.8c-2.4,4.3-6,7.2-8.9,9.5l-0.8,0.7c-8.6,7.1-17.2,14.2-25.9,21.2c-9.5,7.7-18.9,15.5-28.4,23.2
		c-28.2,23.3-57.4,49.4-79.3,81.9l-0.4,0.7c-12.8,19.1-24.9,37.1-23.9,58.9c0.3,5.8,2,10.6,3.5,12.4c1.5-0.7,4-2.8,5.6-4.1
		c0.9-0.7,1.8-1.5,2.7-2.1c2.7-2.1,5.6-2.9,7.3-3.3l0.5-0.1l8.3-3.1l4.5,7.6c3.9,6.6,7.5,13.2,11.1,19.7
		c7.8,14.3,15.2,27.8,24.5,39.7c24.4,31.2,28.8,62.5,13.2,95.5c-10.5,22.4-21.8,44.9-32.7,66.7c-4,8-8,16-12,24l-0.4,0.9
		c-1.5,3.2-3.8,8-8.9,10.6c-10.9,5.4-15.4,16-20.6,28.2c-1.7,4-3.5,8.1-5.5,12.1c-7,13.8-13.8,33.5-6.2,48.6
		c7.7,15.2,27.7,21.6,43.2,24.3c14,2.4,28.3,2.8,43.4,3.1c5.6,0.1,11.3,0.3,16.9,0.5c10.1,0.4,20.2,2,25.5,10.2
		c5.3,8.2,2.5,18.4-1,27.3c-1.2,3.1-2.7,5.9-4.1,8.7l-0.8,1.6c-15.9,31.1-37.1,57.6-55.8,79.4c-42.9,50.3-93.2,100.8-153.8,154.6
		c-14.7,13.1-30.5,19.7-46.7,19.7c-8.8,0-18-2-27.2-5.8c-14.6-6.2-32-13.3-49.4-19.9c-2.7-1-4.5-1.2-5.6-1.2c-1.3,0-3.7,0-3.8,7.2
		c-0.1,4.1,1.1,8.8,2.9,12c4.5,7.8,9.8,15.1,15.4,22.8c1.7,2.3,3.3,4.6,5,6.9c2.2,3.1,4.6,6.1,7.1,9.3c1.2,1.6,2.5,3.2,3.8,4.9
		l6,7.8l-7.4,6.5c-1.5,1.3-2.8,2.5-3.9,3.6c-2.6,2.5-5.1,4.9-8.3,6.8c-18.3,11.1-36.7,22.1-55,33.2l-20.9,12.6
		c-60.5,36.4-125.6,63.2-181.3,84.7c-9.5,4.8-203.3,101.1-435.7,101.1c-7.3,0-14.6-0.1-21.7-0.3c-13.3,0.8-24.9,1.3-35.6,1.4
		c-3.4,0-6.8,0.1-10.2,0.1c-21.5,0-43.2-0.9-64.3-1.7c-20.8-0.8-42.4-1.7-63.5-1.7c-2.1,0-9.5,0-9.5,0c-33.1,0-65.7-4.6-97.2-9
		l-12.1-1.7c-70.8-9.8-133.3-23.7-190.9-42.6c-9.1-3-18.6-5.8-27.8-8.5c-31.7-9.4-64.6-19.1-93.7-39.4c-3-2.1-5.9-3.1-8.6-3.1
		c-6.5,0-11.1,6.1-13.3,9.8c-8,13.4-15.1,34.2-3.5,56.9c0,0,69.2,96.2,139.7,138.7c12.6,6.4,25.9,12.4,39.8,17.8
		c86.8,29.7,244.1,42,422.4,39.1c6-0.6,12.1-1.1,18.1-1.7c22.8-2.2,46.3-4.5,69.7-6c7.8-0.5,15.6-1.9,23.8-3.4
		c9.1-1.6,18.5-3.2,28.2-3.7c85.6-15.2,169.4-39.6,232.2-60.3c18.6-6.2,37.3-12.6,55.9-19.3c16.2-5.9,29.1-10.8,37.8-14.2
		c31.4-12.3,62.3-25.9,91.8-42.2c15.9-8.7,32.1-17.4,47.8-25.7c26.1-13.8,53-28.1,78.7-43.2c36.7-21.6,72-45.6,104.7-68.3
		c19.7-13.7,39-28.8,57.8-43.5c6.3-5,12.7-9.9,19.1-14.9c14.6-11.3,31.3-17.5,54.4-20.2c31.5-3.7,65.1-8.6,96.4-19.5
		c58.4-20.2,103.9-60.7,140.7-97.7c17.7-17.8,34.1-37.9,50-57.4c8-9.8,16.2-19.9,24.7-29.8l1.9-2.2c6.8-7.9,13.7-16.1,22.3-22.9
		c7.1-5.6,10.3-10.3,12.2-17.3c3.1-12,9.9-28.6,32.4-35.2l11-3.2l3.8,18.5c1,5,2,9.7,3,14.3c1.1,4.7,2,9.4,2.9,14.2
		c2.1,10.8,4.1,21,7.6,30.4c8.1,21.6,19,35.2,34.4,42.7c13,6.3,25.3,9.6,36.7,9.6c24.7,0,46.8-15,67.4-45.9
		c15.5-23.2,26.6-51.2,34.9-88.1c1.3-5.7,2.9-11.4,4.4-16.8c4.1-14.4,8-28.1,6.2-42.1c-1.4-10.7-3.9-12.2-7.7-13.2
		c-1.2-0.3-2.3-0.5-3.3-0.5c-1.4,0-5.6,0-10.4,7.9c-2,3.4-3.9,6.9-5.8,10.3c-2.7,5-5.5,10.1-8.7,15.1c-7.8,11.9-18.8,18.7-30.2,18.7
		c-12.5,0-23.4-7.8-30.1-21.4c-7.6-15.6-12.6-31.6-14.5-46.3c-2.1-16.2-7.5-31.7-17.6-50.4c-4.6-8.5-11.8-13.7-22-15.9
		c-5.3-1.1-10.3-1.7-15-1.7c-12.1,0-21.9,3.7-29.9,11.2c-16.9,15.9-32.7,32.8-46.9,50.2c-14.8,18.1-27.4,38.6-39.6,58.5
		c-16.5,26.9-33.5,54.7-57,78.4c-25.4,25.7-56.7,55.4-96,80.4l-29,18.4l13.6-31.5c2.4-5.7,4.6-11.1,6.8-16.4
		c4.6-11.3,8.9-22,14.5-32.2c21.7-38.9,36.8-80.7,50-120c1.6-4.8,3.5-9.3,5.4-13.7c5.1-12.1,9.2-21.7,6.1-33.7
		c-2.1-8.3-1.6-16.4-1.2-24.3c0.3-5.5,0.7-10.8,0-15.4c-4-27.3-15.9-37.7-43.9-38.3c-3.9-0.1-7.7-0.1-11.6-0.1l-18.6,0.1
		c-3.7,0-7.4,0-11.1-0.1c-4.8-0.1-9.5-0.6-14.9-1.1c-2.6-0.3-5.5-0.6-8.6-0.8l-13.6-1.2l4.5-12.8c1.2-3.4,2.2-6.6,3.2-9.7
		c2.1-6.6,4-12.7,7.1-18.6c13.6-26,25.1-46.8,36.1-65.6c26.5-45,39.7-84.1,41.3-122.9c0.8-18.8-3.1-38.3-7.9-60.1
		c-4.7-21.3-17.1-39.4-30.2-58.7l-4.6-6.8c-12.3-18.3-3.9-30.3,5.3-37.2c5.1-3.8,10.1-7.9,15.1-11.9c7.8-6.3,15.9-12.7,24.4-18.6
		c8-5.5,15.9-11,23.9-16.5c30.1-20.9,61.2-42.5,93.1-62c37.8-23.2,77-45.3,114.9-66.6c11.9-6.7,23.8-13.4,35.6-20.1
		c51.7-29.4,103.5-58.5,156.5-88.1c15.4-8.7,30.9-17.2,46.5-25.8c27.4-15.1,55.8-30.7,83.2-46.7c57.1-33.2,108-63.7,155.5-93.3
		c33.7-21,62.4-40.5,87.7-59.9c40.5-31,81.9-64.5,123-99.5c35.2-30,61.4-60.8,80-94.3c5.4-9.8,9.3-20,11.2-29.5
		C2736.1,252,2735.6,250,2734.9,249.2z"/>
</g>
</svg>
