<?xml version="1.0" encoding="utf-8"?>
<!-- Generator: Adobe Illustrator 27.7.0, SVG Export Plug-In . SVG Version: 6.00 Build 0)  -->
<svg version="1.1" id="Layer_1" xmlns="http://www.w3.org/2000/svg" xmlns:xlink="http://www.w3.org/1999/xlink" x="0px" y="0px"
	 viewBox="0 0 3500 3500" style="enable-background:new 0 0 3500 3500;" xml:space="preserve">
<style type="text/css">
	.st0{fill:#4AAD82;}
	.st1{fill:#0088BE;}
</style>
<path class="st0" d="M755.6,725.1c-165.2,213.1-269.8,450.9-313.7,713.6c-33.2,198.7-28.1,395.9,15.4,591.6
	c35.1,157.9,93.6,306.5,175.5,446.1c44.4,75.7,95.1,148.6,151.9,218.6c32.6,40.2,69,82.3,109.2,126.3c5,5.5,8,9.2,9.1,11.1
	c5,9.6,3,11.6-6.1,6c-22.4-13.9-44.3-28.6-65.6-44.2c-143.1-104.6-261.2-234.1-354-388.4c-44.1-73.3-80.4-142.2-109.1-206.7
	c-35.6-80.3-63.8-163.3-84.7-249.2c-23-94.4-37.7-188-44-280.8c-12.9-187.2,6.6-366.7,58.5-538.3c50-165.4,125-320.5,224.8-465.4
	C614,533.1,722.9,419.3,849.5,324.2C986.2,221.4,1136.8,142.7,1301.3,88c203-67.5,414.8-96.2,635.4-86
	c121.5,5.6,241.8,26.9,360.9,64c120.5,37.4,229.5,92.3,327.1,164.5c17.5,13,35.2,27.7,52.9,44.1c1.4,1.4,1.5,3.6,0.1,5.1
	c-0.7,0.8-1.7,1.2-2.8,1.1c-1-0.1-2.1-0.3-3.5-0.8c-30.5-10.4-77.1-27-139.7-49.9c-38.7-14.1-68.3-24.4-88.8-30.9
	c-283.3-89.8-569.8-96.7-859.5-20.7c-170.5,44.7-329.1,116.9-475.9,216.6C972.5,486.7,855.2,596.7,755.6,725.1z"/>
<path class="st0" d="M2983.7,1164.9c-101-241.1-272.8-440.1-491.7-587.5c-70-47.1-138.4-84.9-205.1-113.5
	c-132.6-56.7-270.9-83.2-414.9-79.5c-14.3,0.4-45.6,2-94,4.9c-92.5,5.5-181.1,13-265.9,22.3c-4.3,0.5-6.9,0.1-7.7-1
	c-1.9-2.6-1.3-6.4,1.5-8.3c0.2-0.1,0.3-0.2,0.5-0.3c64.5-39.4,135.2-66.7,211.9-81.7c27.2-5.3,58.1-10,92.8-14.1
	c197.5-23.2,393-5.2,586.6,54c82.7,25.3,161.4,56,235.7,98c121.4,68.6,227.2,154.5,317.6,257.6c103.4,118.1,182.5,249.5,237.3,394.4
	c110.2,291.2,94.3,620.8-17.4,910.8c-54.8,142.2-131.6,270.5-230.3,384.8c-85.7,99.1-186.3,176.8-301.8,233
	c-25.1,12.2-48.3,22-69.7,29.3c-5.7,1.9-7.8,0.1-6.4-5.6c0.4-1.6,2.5-4.1,6.2-7.4c49-44.1,105.2-98.4,168.7-162.9
	c80.9-82.3,144.5-176,196.4-279.7c62.7-125.2,104.7-253,125.9-383.3c31.6-194.1,17.1-386.2-43.3-576
	C3007.9,1225.8,2996.9,1196.4,2983.7,1164.9z"/>
<path class="st1" d="M1778.3,2317.2c-1.1,0.8-1,1.3,0.3,1.7c115,30.6,240.4,36.4,355.4,4.7c91.5-25.2,174.1-65.3,247.7-120.3
	c173.4-129.7,277.5-336,283.5-554.1c7.4-264.3-106.8-519.5-301.1-699C2262.2,856,2141.8,789,2008.2,755.1
	c-122.2-31.1-246.3-35-372.3-11.9c-193.4,35.5-376.8,132.3-510,271.6c-83.4,87.3-145.6,189.3-186.6,306
	c-25.8,73.4-42.6,146-50.4,217.7c-25.2,232.1,18.8,448.8,131.9,650.1c59.2,105.3,137.6,197.7,235.2,277.3
	c194.4,158.6,448.7,236.3,701.4,238.6c31.5,0.3,62.8-1,93.9-3.9c123.3-11.4,244.7-48.4,364.2-110.9c68.9-36.1,128.9-71.8,180-107.3
	c4.5-3.1,7.8-4.2,10.1-3.4c3.1,1.1,5.9,2.7,8.5,4.8c1.5,1.2,1.6,2.5,0.2,3.8c-111.7,111.2-245.1,203-392.9,253.4
	c-248.7,85-497.2,86.2-745.3,3.8c-30.8-10.2-60.3-21.5-88.4-33.7c-239.6-104.4-418.8-272.9-537.6-505.4
	c-70.8-138.6-111.6-294.2-126.2-453c-20.4-221.5,16.3-446,117.5-640.4c66.1-127,160-238.7,275-326.4
	c96.4-73.5,206.6-130.2,330.6-170.2c375.8-121.3,810.2-54.1,1081.6,251.7c46.5,52.4,88.7,108.2,126.7,167.6
	c82,128,137.9,267.8,167.8,419.4c14.3,72.6,20.4,144.1,18.4,214.5c-1.7,59.8-11.1,121.3-28.4,184.7
	c-57.7,211.6-189,407.6-370.3,532.8c-213.9,147.8-484.7,192.7-735.4,124c-111.3-30.5-213.1-80.2-305.3-149.1
	c-121.6-90.8-215.7-217-269.2-355.2c-49.3-127.5-69.8-260.5-61.5-399.1c7-116.7,36.5-224.4,88.6-323c51.8-98,124.1-179,217.1-242.9
	c102.2-70.2,231.7-115.4,361-127.1c100.4-9,198.6,5.7,294.7,44.1c10.5,4.2,18.6,8.2,24.2,11.9c1.9,1.3,2.4,3.8,1.2,5.7
	c-0.5,0.8-1.4,1.4-2.3,1.7c-53,14.6-100.2,39.1-141.8,73.5c-76.8,63.5-114.8,153.2-110.4,252.1c2.8,61.8,19.5,119,50.1,171.8
	c10.5,18.1,29,43.3,55.6,75.7c24.9,30.5,53.6,66.4,86.1,107.7c50.2,63.9,81,133.8,92.4,209.8c9.7,64.3,10.2,138.3-7.4,198.7
	c-26.7,91.2-85.1,157.5-175.1,199c-35.5,16.3-76.4,32.5-122.6,48.6C1782,2314.8,1780.5,2315.6,1778.3,2317.2z"/>
<path class="st0" d="M63.2,1847.1c6,10.9,10.1,21,12.5,30.5c20.3,79.7,37.8,146,52.5,198.9c23.4,84.1,53.1,163.2,89.2,237.3
	c9.8,20.3,24.5,48.2,44,83.6c189,343.5,464.2,595,825.6,754.8c165.4,73.1,337.4,116.7,516,130.8c157.9,12.5,318.7,1.3,482.1-33.5
	c181.7-38.7,349.7-101.9,504.2-189.4c164.5-93.2,311.3-209.4,440.4-348.6c98.5-106.3,179.2-226.7,242-361.4
	c11.9-25.5,24.5-54.2,37.7-86.2c58.8-141.5,100.6-291.9,125.3-451.2c2.2-14.3,4.4-14.3,6.4,0c3.1,21.3,4.3,42.5,3.6,63.6
	c-3.8,108.7-17.7,216.7-41.6,323.9c-6.5,28.9-14.6,59.2-24.4,90.8c-107.5,347.2-305.9,631.5-595.2,852.9
	c-137.6,105.3-286.1,188.4-445.5,249.3c-28.7,11-58.4,21.2-88.9,30.6c-310.4,95.7-622.3,101.8-935.7,18.3
	c-31.8-8.5-61.8-17.5-90-27.1C903.4,3306,635.8,3121.3,421,2861c-17.2-20.8-36.3-45.6-57.3-74.6c-98.6-135.6-175-281.7-229.2-438.1
	c-53.4-154.4-84.1-317.7-79.8-478c0.2-7.8,1.7-15.5,4.5-22.9c0.5-1.2,1.8-1.7,2.9-1.3C62.6,1846.3,63,1846.6,63.2,1847.1z"/>
</svg>
