<?xml version="1.0" encoding="UTF-8"?>
<svg id="Layer_01" data-name="Layer 01" xmlns="http://www.w3.org/2000/svg" version="1.1" viewBox="0 0 3500 3500">
  <defs>
    <style>
      .cls-1 {
        fill: #12a3aa;
      }

      .cls-1, .cls-2, .cls-3 {
        stroke-width: 0px;
      }

      .cls-2 {
        fill: #e5d84e;
      }

      .cls-3 {
        fill: #fff;
      }
    </style>
  </defs>
  <g>
    <path class="cls-3" d="M1155.15,1708.83c-40.59-57.7-99.36-83.41-167.15-85.88-81.46-2.97-163.11-.93-244.68-.96-12.62,0-15.31,2.95-15.32,16.58-.02,84.13,0,163.55,0,247.68,0,6.37,5.17,11.56,11.54,11.56h39.82c38.86,0,70.37-31.51,70.37-70.37v-91.83c0-6.35,5.14-11.49,11.5-11.53,38.57-.23,76.41-1.44,114.08.49,44.13,2.26,77.46,29.35,87.91,67.79,16.08,59.13-13.08,124.21-91.97,128.93-27.62,1.65-55.37,1.3-83.11,1.02h-94.23c-36.4,0-65.91,29.51-65.91,65.91v18.27c0,6.37,5.17,11.54,11.54,11.54h153.83v.11c23.54-.07,47.09-.14,70.62.14,28.01.33,55.49-2.66,82.39-10.49,84.88-24.7,141.85-91.67,141.82-183.51-.01-41.9-8.79-80.94-33.06-115.44h.01Z"/>
    <path class="cls-3" d="M776.68,2042.52c-26.88,0-48.66,21.79-48.67,48.66v48.55c0,13.37,3.48,16.81,16.61,16.85,12.81.04,25.62.06,38.43.07,36.44,0,65.98-24.86,65.98-61.3v-41.31c0-6.37-5.17-11.54-11.54-11.54h-60.81v.02Z"/>
  </g>
  <path class="cls-1" d="M316.22,1342.22v514.9c68.28,0,133.76-27.12,182.04-75.4s75.41-113.77,75.41-182.05-27.12-133.76-75.4-182.04-113.77-75.41-182.05-75.41h0Z"/>
  <path class="cls-1" d="M257.45,1631.54v514.9c-68.28,0-133.76-27.12-182.04-75.4C27.13,2022.76,0,1957.27,0,1888.99s27.12-133.76,75.4-182.04c48.28-48.28,113.77-75.41,182.05-75.41h0Z"/>
  <path class="cls-2" d="M229.96,1557.62c21.81-26.48,32.17-60.4,28.86-94.55-3.3-34.15-19.96-65.46-46.45-87.27-26.48-21.81-60.4-32.17-94.55-28.86-34.15,3.3-65.46,19.96-87.27,46.45-21.81,26.48-32.17,60.4-28.86,94.55,3.3,34.15,19.96,65.46,46.45,87.27,26.48,21.81,60.4,32.17,94.55,28.86,34.15-3.3,65.46-19.96,87.27-46.45h0Z"/>
  <path class="cls-3" d="M2585.64,2149.9c-40.47,0-80.98,1.22-121.38-.47-23.03-.97-40.04-15.84-55.96-32.12-48.16-49.94-25.81-131.95,37.18-157.06,44.77-19.35,90.78-10.21,136.3-12.77,14.52-1.42,37.9,6.25,31.09-18.31-9.35-46.45-68.79-61.63-106.05-50.77-12.42,3.62-24.72,7.91-37.37,10.37-32.12,6.23-60.91-10.93-66.85-42.55-1.21-6.43,10.85-19.47,19.44-22.92,79.41-32.26,191.59-46.22,257.49,20.7,20.29,22.23,34.82,47.93,34.53,79.8-.36,40.4-.54,80.83.41,121.22.34,14.54-4.66,19.48-18.68,18.23-10.05-.89-20.28-.88-30.35-.1-20.94,1.62-41.79-12.4-45.4-35.74-2.8-18.11-11.52-25.15-31.09-22.18-24.76,3.76-50.19,2.92-75.08,6.09-49.95,3.36-41.9,72.69,4.37,74.57,42.63,1.2,85.3,1.3,127.95,1,23.3-.43,61.65,15.59,67.37,39.17,3.2,22.72,1.24,24.83-21.65,25.02-35.43.29-70.87.08-106.3.08v-1.25h.03Z"/>
  <path class="cls-3" d="M3370.85,2156.45c-40.47,0-80.98,1.22-121.38-.47-23.03-.97-40.04-15.84-55.96-32.12-48.16-49.94-25.81-131.95,37.18-157.06,44.77-19.35,90.78-10.21,136.3-12.77,14.52-1.42,37.9,6.25,31.09-18.31-9.35-46.45-68.79-61.63-106.05-50.77-12.42,3.62-24.72,7.91-37.37,10.37-32.12,6.23-60.91-10.93-66.85-42.55-1.21-6.43,10.85-19.47,19.44-22.92,79.41-32.26,191.59-46.22,257.49,20.7,20.29,22.23,34.82,47.93,34.53,79.8-.36,40.4-.54,80.83.41,121.22.34,14.54-4.66,19.48-18.68,18.23-10.05-.89-20.28-.88-30.35-.1-20.94,1.62-41.79-12.4-45.4-35.74-2.8-18.11-11.52-25.15-31.09-22.18-24.76,3.76-50.19,2.92-75.08,6.09-49.95,3.36-41.9,72.69,4.37,74.57,42.63,1.2,85.3,1.3,127.95,1,23.3-.43,61.65,15.59,67.37,39.17,3.2,22.72,1.24,24.83-21.65,25.02-35.43.29-70.87.08-106.3.08v-1.25h.03Z"/>
  <path class="cls-3" d="M2334.46,1968.04c0,43.95.08,87.91-.03,131.86-.06,22.19-22.06,45.97-44.41,47.64-12.92.96-25.99.19-38.86,1.45-14.3,1.4-16.79-5.5-16.74-17.87.37-86.46.16-172.93.23-259.39.03-34.9,20.48-63.04,61.28-59.88,38.38,2.97,38.53,1.06,38.52,39.48v116.73-.02Z"/>
  <path class="cls-2" d="M2284.65,1776.12c-34.19-.26-52.29-17.95-50.97-52.07,1.48-38.41,17.27-52.11,52.22-55.19,30.05-2.65,53.57,23.89,53.5,54.92-.07,32.49-21.1,52.6-54.75,52.34h0Z"/>
  <path class="cls-3" d="M1583.98,1947.06c-2.19-25.52-4.11-51.21-17.7-72.72-23.28-36.85-58.5-67.91-101.45-78.85-51.14-13.03-117.36-10.31-162.32,19.5-44.06,29.21-78.58,81.58-83.43,134.75-2.08,22.82,3.21,45.75,11.03,67.28,13.54,37.28,35.78,72.7,68.93,94.48,66.47,43.68,158.03,46.34,227.54,8.4,28.4-15.5,33.01-53.02-4.43-60.46-32.13-5.76-65.42,9.12-98.06,6.28-25.76-.07-52.87-1-71.87-21.56-32.12-30.61-50.81-83.99-31.41-126.68,14.67-32.29,50.09-59.35,85.84-61.47,26.4-1.57,51.21,12.8,67.4,32.94,11.97,14.89,29.15,45.94-2.07,48.87-34.42,3.23-75.82-6.73-104.91,18.2-9.01,7.73-9.64,19.33.26,26.39,11.16,7.97,31.47,4.24,44.63,4.42,44.17.63,88.35.17,132.51.17,29.01.15,42.64-9.38,39.51-39.95h0Z"/>
  <path class="cls-3" d="M1632.68,1986.91c-.16-32.61-.01-65.9-.07-98.84-.89-29.49-9.49-79.08,23.81-89.85,24.58-7.95,66.74-11.19,69.17,17.14,1.04,12.11,7.3,19.96,19.28,11.76,12.39-8.48,20.4-19.07,34.85-25.27,13.89-5.96,28.83-9.23,43.65-11.9,13.54-2.44,26.23,1.41,25.45,17.57,2.42,36.22-17.48,74.02-54.91,81.64-17.87,3.64-38.08,8.83-47.84,25.46-12.39,21.13-15.69,43.08-16,67.87-.53,34,.33,68.65-.4,102.59-.61,10.36-.76,21.57-5.94,30.69-8.01,11.41-20.52,20.98-33.29,26.44-14.53,3.53-32.86,4.27-47.94.54-8.69-3.46-9.57-13.6-9.66-22.04-.18-44.63.12-89.54-.16-133.81h0Z"/>
  <path class="cls-3" d="M3124.66,2032.16c-.33,31.79.75,64.39-.48,96.48-.75,11.55-9.39,16.06-21.98,15.65-26.87,2.72-53.72-8.02-68.96-30.3-5.43-10.49-5.1-23.01-5.72-34.63-.47-39.49.51-79.56-.54-119.15-.1-34.04-14.86-72.48-52.57-78.3-60.05-7.44-121.82-.4-182.3-3.23-3.99-.47-8.81-.96-11.88-3.81-3.86-3.05-4.62-9.6-4.89-14.63-.3-14.12-.19-28.34-.09-42.46-.35-10.74,4.02-20.84,16.65-21.38,15.52-.86,31.06-.26,46.63-.41,11.74-.33,25.5,1.4,26.5,15.76.93,14.12,6.62,25.38,20.41,13.5,41.85-40.28,112.24-44.39,163.53-21.64,14.52,6.44,29.31,19.74,41.17,30.18,18.52,16.3,26.93,35.94,28.33,60.31,8.99,45.02,5.67,92.32,6.18,138.06h.01Z"/>
  <path class="cls-3" d="M2780.71,2021.02c.83-36.05-1.69-72.97,1.13-109.17,1.83-9.04,10.75-11.26,18.84-11.27,25.76-.14,51.05-.47,76.81.16,32.84,1.45,2.75,37.79,2.63,54.81-6.21,51.14,4.01,105.27-4.93,156.2-5.17,10.69-22.37,21.23-33.06,27.38-10.45,5.41-22.29,5.1-34.13,5.14-11.96-.05-23.93.56-26.36-11.09-2.59-36.39-.13-74.02-.93-110.5v-1.66h0Z"/>
  <path class="cls-3" d="M2054.18,1863.63c9.04.07,18.61,1.84,26.98,5.19,35.3,14.15,76.29-5.91,85.05-43.16.83-3.52-4.25-11.22-8.14-12.59-27.41-9.66-53.71-20.74-84.13-23.11-72.57-6.42-158.08.22-196.35,73.44,61.38,0,118.99-.22,176.6.23h-.01Z"/>
  <path class="cls-3" d="M2171.8,1995.05c-17.39-38.36-53.85-47-88.61-56.51-29.42-8.05-60.05-12.04-90.33-16.49-35.79-4.69-6.47-37.05-34.82-35.58-28.92,3.91-88.07-14.82-84.35,32.09,12.49,96.02,124.4,74.17,191.46,98.92,12.87,4.75,26.05,22.69,12.66,34.89-2.62,2.39-16.92,11.9-20.36,12.74-34.73,8.44-71.74,12.89-107.36,4.79-.03.02-.09.07-.09.07,0,0-35.22-10.64-46.79,8.64-11.24,18.73-21.83,60.47,19.79,69.73,24.3,1.67,49.45.43,71.93,1.65,47.9,2.6,111.37-6.51,149.03-39.03,31.74-27.4,45.49-77,27.85-115.91h-.01Z"/>
</svg>