<?xml version="1.0" encoding="utf-8"?>
<!-- Generator: Adobe Illustrator 27.7.0, SVG Export Plug-In . SVG Version: 6.00 Build 0)  -->
<svg version="1.1" id="Layer_1" xmlns="http://www.w3.org/2000/svg" xmlns:xlink="http://www.w3.org/1999/xlink" x="0px" y="0px"
	 viewBox="0 0 3500 3500" style="enable-background:new 0 0 3500 3500;" xml:space="preserve">
<style type="text/css">
	.st0{fill:#AA261D;}
	.st1{fill:#B82C20;}
	.st2{fill:#C13023;}
	.st3{fill:#FCF9F9;}
	.st4{fill:#FAF4F4;}
	.st5{fill:#FBF5F5;}
	.st6{fill:#FBF6F6;}
	.st7{fill:#FCF7F7;}
	.st8{fill:#FBF7F7;}
	.st9{fill:#FCF8F7;}
	.st10{fill:#FCF9F8;}
	.st11{fill:#FCF8F8;}
	.st12{fill:#F9F0F0;}
	.st13{fill:#AD2F26;}
	.st14{fill:#AD2E26;}
	.st15{fill:#AD2D24;}
	.st16{fill:#B1372F;}
	.st17{fill:#B13930;}
</style>
<path class="st0" d="M3497.9,1687.1c0.7,6.5,1.9,13,1.9,19.6c0,396.2,0.6,792.5-0.6,1188.7c-0.2,59.6-2.4,120.4-14.5,178.4
	c-36.6,175.7-140.3,300.1-303.9,373.7c-64,28.8-131.4,42.4-202,42.3c-187.2-0.3-374.4,0.5-561.5,0.5c-615.7,0-1231.4-0.2-1847.1-0.1
	c-71.6,0-142.7-2.9-210.8-27.2c-192.7-68.8-308.5-205.1-347.5-405c-9.4-48.1-11.1-98.2-11.2-147.4c-0.8-444.8-0.6-889.5-0.7-1334.2
	c0-330.7-0.1-661.3,0-992c0-75.3,5.6-150.3,31.5-221.6C100.4,173.8,235.7,60,431.2,19.3c46.8-9.8,96.4-9,144.7-9
	c693.6-0.5,1387.2-0.4,2080.8-0.3c15.2,0,30.4,0.1,45.6,0.2c-2,8.1-2.7,16.8-6.2,24.3c-22,47-44.6,93.7-67.2,140.4
	c-36.2,74.6-72.5,149.1-108.8,223.6c-32.9,65.8-65.5,131.8-98.9,197.3c-8.9,17.5-19.5,34.4-31,50.4c-5,6.9-14.2,10.7-21.5,15.9
	c-5-4.3-10.3-8.3-15.1-12.9c-123.1-116.1-266.8-186.1-437.3-196.6c-32.8-2-65.5-2.6-97.5,6.6c4.7,1.4,9.4,1.3,14.1,1.4
	c124.7,2.9,239.1,38.4,343.2,107.3c139.6,92.3,239.8,218,307.3,369.5c85.7,192,111.7,393.3,83.9,601.5
	c-20.7,154.7-69.3,300.1-156.9,429.6c-137.7,203.6-320.7,334.6-575.6,343.3c-3.6,0.1-7.2,2.3-10.8,3.5
	c142.4,14.3,274.7-14.8,395.9-89.4c162.9-100.2,272.8-244.6,345.7-419.3c30.1-72.1,49.2-147.3,65-223.5c25.7,8,51.3,16,77,24
	c0,2.8,0.7,5.8,0,8.5c-26.2,93.5-68.3,178.5-132.5,252c-6.6,7.6-13.6,15-20.4,22.4c1,1.8,2,3.5,3,5.3c10.7-4.5,22.3-7.6,32.1-13.7
	c38.9-24.3,72.6-54.8,102.2-89.8c79.8-94.6,118.5-205.7,131.3-327.2c10.4,0.7,21.1-0.1,31,2.5c96.6,25.1,188.4,63.6,279.8,102.8
	c90.7,39,183.1,72.8,278.1,99.2C3440.3,1676.9,3469.3,1681.2,3497.9,1687.1L3497.9,1687.1z M2422.9,1800.5
	c17.8-6.5,19.7-20.8,23.7-33.5c72.6-231.2,68.5-462.1-7.2-691.3c-60.2-182.4-162.8-337-320.6-449.4
	c-198.9-141.5-414.2-167.8-639.7-72.3c-155.8,66-271.7,180.8-355.4,325.6c-169.6,293.2-188.9,602.6-88.7,922.5
	c2.2,7.1,6,13.7,9,20.5c5.1-5.3,7.2-10.2,5.9-14c-15.2-45.7-19.1-93.4-24.4-140.7c-17.4-156.9-3.7-310.8,47.4-460.6
	c55.9-163.8,145.9-304.2,284.3-411c218.3-168.5,495.9-177.8,724.8-24.2c87.2,58.5,157.7,133.5,214.4,221.8
	c112.8,175.7,161.2,369,157.5,576.4c-1.2,69.3-8.2,138.1-25.7,205.4C2426.1,1783.8,2424.6,1792.1,2422.9,1800.5L2422.9,1800.5z
	 M1648,458.7c-61.9-10-123.2-6.6-184,5.3c-149.6,29.4-274.1,104.2-376.9,215.1c-156.9,169.4-236.8,373.1-259.7,600.5
	c-11.9,117.9-3.9,235.1,21.7,350.9c39.6,179.1,118.4,338.2,245.5,471.4c116,121.5,256.3,197.6,424.9,216
	c33.3,3.6,67.4,0.5,102.5,0.5c-26.5-5-51-10.3-75.7-14.1c-85.6-13.3-165-43.3-238.3-89.3c-150.5-94.5-256.1-227.3-326.4-388.9
	c-87.4-201.2-111.9-410.4-75.3-626.7c26.6-157.7,83.1-303.5,178.4-432.7c94.8-128.5,214.1-225.2,367.7-275.5
	c63.5-20.8,129.1-30,195.7-32.6L1648,458.7z M895.8,1905.4c0.9-1.4,1.8-2.7,2.7-4.1c-31.5-47.9-64.8-94.7-94.1-143.9
	c-29.2-49.2-46.4-103.8-59.6-159.4c-13.4-56.5-20.5-113.8-21.6-171.9s4.3-115.6,15.7-172.6c11.2-56.1,26.4-111.3,53.9-161.5
	c27.2-49.7,58.8-97,91.8-150.9c-11.8,6.6-19.2,10.1-25.7,14.5c-67.2,45.8-119.6,105.1-157,177.2c-56.2,108.3-77.2,224.2-64.5,344.8
	c17.5,165.9,84.1,306.2,224.8,404.4c11.2,7.8,22.3,15.5,33.5,23.3L895.8,1905.4z M660.1,2853c52.8-26,60.3-68.9,52.6-117.3
	c-5.6-35.5-27.6-57.8-61.7-67c-14.5-3.9-29.9-5.4-45-5.7c-37-0.8-74.1-0.3-111.1-0.1c-7.2,0-14.4,1.1-21.2,1.7
	c-5.9,42.7-3.9,353.4,2,372.9h73.5v-156.7c14.6,0,25.8-0.6,36.9,0.1c33.1,2,44.1,12.5,46.4,45.1c1.8,24.6,2,49.4,3.9,74
	c1,12.7,4.2,25.3,6.4,37.7h76.9c-2.6-35.2-5.8-68.9-7.3-102.7c-1.6-36.2-8.9-68.1-52.3-81.8L660.1,2853z M2825.1,2830.8
	c2.2-0.2,4.4-0.3,6.6-0.5c24.4,69.3,48.9,138.6,73.7,208.9c14.2,0,26.4,0,38.7,0s25.6,0,38.5,0v-326.4h-63.2v202.8
	c-1.8,0.2-3.6,0.5-5.4,0.7c-24.2-67.4-48.3-134.9-72.9-203.4h-77.8V3037h62v-206.2L2825.1,2830.8z M1051,3038.8
	c37.7,0,72.7-2,107.4,0.4c60.2,4.3,108.3-42,112.1-107.2c2.2-37.8,2-75.9,0-113.7c-3.1-58.6-42-111.6-113.8-108.8
	c-18.9,0.7-37.9,0.1-56.9,0c-15.8,0-31.6,0-48.9,0v329.2L1051,3038.8z M1677,2876.3c-0.1,0-0.2,0-0.3,0c0-25.6,1.2-51.3-0.3-76.8
	c-2.4-43.5-32.9-81.2-73.9-90.5c-16.4-3.7-33.9-3.6-50.9-3c-55.9,2.1-96.4,41.7-98.2,97.7c-1.5,47.4-1.4,94.8,0,142.2
	c1.3,46,29.7,82.3,73.1,94.2c14.3,3.9,29.9,4.1,44.9,4c63.5-0.6,104.3-41.4,105.5-105.2c0.4-20.9,0-41.7,0-62.6L1677,2876.3z
	 M841,2712.9c-29.4,109.2-58,215.7-87.1,323.8h71.3c5.4-22.8,10.3-43.7,15.3-64.5h86.9c5.2,22.3,10.3,43.9,15.3,65.1h70.8
	c-29.2-109.5-57.7-216.4-86.6-324.4h-85.8L841,2712.9z M2468,3037.4h68.1c6.6-22,13.1-43.5,19.6-64.8h83.8
	c6.5,22.5,12.4,43.3,18.6,64.7h69.3c-29.4-109.3-58-216-87.1-324h-86.2C2525.4,2821.3,2497,2928.2,2468,3037.4L2468,3037.4z
	 M2053.5,2970.9c23.5,0,45.2,0.5,66.9-0.2c14.2-0.5,20.3,5.9,23,19.3c3.2,15.7,8.3,30.9,12.7,46.7h68.6
	c-29.2-109.6-57.6-216.5-86.1-323.7h-85.8c-29.1,108.3-57.8,215-87.1,324h69.2C2041.1,3015.2,2046.7,2995.2,2053.5,2970.9
	L2053.5,2970.9z M2355.8,2934.8c-1.8-0.1-3.7-0.2-5.5-0.4c-15.4-74.3-30.8-148.6-45.9-221.5h-70.6c25.2,109.4,49.9,216.4,74.7,324.1
	h88.2c25.4-108.4,50.5-215.6,76-324.4h-71c-15.4,74.5-30.7,148.3-46,222.1L2355.8,2934.8z M1717.2,2920
	c-15.6,76.5,25.1,126.5,99.3,125.4c4.7,0,9.5-0.7,14.2-0.6c61.7,0.4,100-40.5,99.4-102.9c-0.9-85.4-0.1-170.8-0.3-256.2
	c0-7.2-1.6-14.3-2.5-21.3h-75.5c0,11.8,0,22,0,32.1c-0.2,73.1-0.3,146.1-0.7,219.2c0,15.1-0.7,30.4-2.8,45.4
	c-2.7,19.1-12.6,27.4-29.8,27.9c-17.4,0.5-26-6.6-30.2-27.1c-2.8-13.6-3.9-27.5-5.8-41.9L1717.2,2920L1717.2,2920z M1352.8,1784.9
	c33.4,50.5,77.7,87.7,131.1,114.4c60.2,30.1,124.1,46.5,191,52.7c102.3,9.5,200.8-4.2,294.6-47.1c46.3-21.2,87.5-49.6,121.5-87.9
	c8.4-9.4,16.7-19,20.6-39.4c-26.5,20.4-46.6,38.3-69.1,52.7c-23,14.8-47.5,27.9-72.7,38.5c-24.3,10.2-50.1,17.5-75.8,23.9
	c-26.6,6.6-53.7,12-80.9,15.4c-27.2,3.4-54.9,5.2-82.3,5.1c-27.5,0-55.1-1.9-82.3-5.4c-27.2-3.5-54.3-9-80.9-15.7
	c-25.7-6.5-51.4-13.8-75.7-24.3c-25.1-10.8-48.4-25.9-72.6-39C1395.9,1816.1,1380.8,1791.1,1352.8,1784.9L1352.8,1784.9z
	 M1331.7,2713.1v324.3h64.3v-324.3H1331.7z M1637.6,2309.3c1.4,0.7,2.8,1.4,4.2,2.1c-0.5,0.7-1,1.9-1.5,1.9c-1.5,0-3.1-0.4-4.6-0.6
	C1636.3,2311.6,1637,2310.5,1637.6,2309.3L1637.6,2309.3z"/>
<path class="st1" d="M2368.6,662.1c7.3-5.2,16.5-9,21.5-15.9c11.5-16,22.1-32.9,31-50.4c33.4-65.6,66-131.5,98.9-197.3
	c5.9,2.8,12.1,5,17.5,8.5c25.4,16.4,49.9,34.4,76,49.4c87.8,50.4,174.5,103,264.6,148.9c161.2,82.1,320.8,167.8,489.6,233.8
	c43,16.8,87.7,29.5,131.6,44c-0.5,268-1.1,536.1-1.6,804.1c-28.6-5.9-57.6-10.2-85.7-18c-95-26.4-187.4-60.3-278.1-99.2
	c-91.3-39.2-183.2-77.7-279.8-102.8c-9.9-2.6-20.7-1.7-31-2.5c6-71.6-1-142.1-18.4-211.7c-30.9-123.5-94.8-224.8-200.2-298.3
	c-8.1-5.6-16.7-10.3-25.1-15.5c1.1,9.5,5.4,15.3,9.5,21c15.5,21.6,32.4,42.4,46.1,65c92.9,152.8,116.4,318.9,91.9,493.5
	c-4.2,29.8-12.9,59-19.5,88.4c-25.7-8-51.3-16-77-24c0.4-5.7,0.4-11.4,1.2-17c13.7-90.3,18.6-181,10.3-272.2
	c-18.9-208.7-84.5-399.5-216.6-564.8c-18.3-22.9-38-44.8-57-67.1L2368.6,662.1z"/>
<path class="st2" d="M3499.5,883c-43.9-14.6-88.6-27.2-131.6-44c-168.8-66-328.5-151.7-489.6-233.8
	c-90.1-45.9-176.8-98.5-264.6-148.9c-26.2-15-50.6-33-76-49.4c-5.4-3.5-11.7-5.7-17.5-8.5c36.3-74.5,72.6-149,108.8-223.6
	c22.6-46.7,45.1-93.4,67.2-140.4c3.5-7.4,4.2-16.1,6.2-24.3c93.9,0.2,187.9-1.6,281.8,0.9c186.6,5,330.4,89.2,432.9,243.6
	c49.3,74.3,74.7,158.4,77.7,247C3499,628.6,3498.2,755.8,3499.5,883L3499.5,883z"/>
<path class="st3" d="M2422.9,1800.5c1.8-8.2,3.2-16.5,5.3-24.7c17.6-67.4,24.5-136.1,25.7-205.4c3.7-207.4-44.7-400.7-157.5-576.4
	c-56.7-88.2-127.2-163.2-214.4-221.8c-228.9-153.7-506.5-144.3-724.8,24.2c-138.4,106.8-228.4,247.2-284.3,411
	c-51.1,149.8-64.8,303.7-47.4,460.6c5.2,47.3,9.2,95,24.4,140.7c1.3,3.8-0.8,8.7-5.9,14c-3-6.8-6.8-13.4-9-20.5
	c-100.2-320-80.9-629.3,88.7-922.5c83.7-144.8,199.6-259.6,355.4-325.6c225.5-95.5,440.8-69.2,639.7,72.3
	c157.8,112.3,260.4,267,320.6,449.4c75.7,229.2,79.8,460.1,7.2,691.3C2442.6,1779.9,2440.7,1794.1,2422.9,1800.5L2422.9,1800.5z"/>
<path class="st4" d="M2368.6,662.1c19,22.3,38.7,44.2,57,67.1c132,165.3,197.6,356.1,216.6,564.8c8.3,91.2,3.4,181.8-10.3,272.2
	c-0.8,5.6-0.8,11.3-1.2,17c-15.9,76.2-34.9,151.4-65,223.5c-72.9,174.8-182.8,319.1-345.7,419.3c-121.3,74.6-253.5,103.7-395.9,89.4
	c3.6-1.2,7.1-3.3,10.8-3.5c254.9-8.7,437.8-139.7,575.6-343.3c87.7-129.6,136.2-274.9,156.9-429.6c27.8-208.2,1.8-409.4-83.9-601.5
	C2415.9,786,2315.8,660.3,2176.2,568c-104.1-68.8-218.6-104.4-343.2-107.3c-4.7-0.1-9.4,0-14.1-1.4c32-9.2,64.7-8.7,97.5-6.6
	c170.6,10.5,314.3,80.5,437.3,196.6c4.8,4.5,10,8.6,15.1,12.9L2368.6,662.1z"/>
<path class="st5" d="M1648,458.7c-66.5,2.6-132.1,11.8-195.7,32.6c-153.6,50.3-272.9,147-367.7,275.5
	c-95.3,129.2-151.7,275-178.4,432.7c-36.5,216.2-12.1,425.5,75.3,626.7c70.2,161.6,175.8,294.3,326.4,388.9
	c73.3,46,152.6,76,238.3,89.3c24.7,3.8,49.2,9.1,75.7,14.1c-35.1,0-69.1,3.1-102.5-0.5c-168.6-18.4-308.9-94.5-424.9-216
	c-127.1-133.2-205.9-292.3-245.5-471.4c-25.6-115.8-33.6-232.9-21.7-350.9C850.2,1052.2,930,848.6,1087,679.2
	c102.8-110.9,227.2-185.7,376.9-215.1C1524.7,452.2,1586,448.8,1648,458.7L1648,458.7z"/>
<path class="st6" d="M895.8,1905.4c-11.2-7.8-22.3-15.5-33.5-23.3c-140.7-98.2-207.3-238.5-224.8-404.4
	c-12.7-120.6,8.3-236.5,64.5-344.8c37.4-72.1,89.8-131.3,157-177.2c6.6-4.5,13.9-7.9,25.7-14.5c-33,53.8-64.6,101.1-91.8,150.9
	c-27.4,50.2-42.6,105.4-53.9,161.5c-11.4,57-16.8,114.4-15.7,172.6c1.1,58.1,8.2,115.4,21.6,171.9c13.2,55.6,30.3,110.2,59.6,159.4
	c29.3,49.2,62.5,96.1,94.1,143.9C897.7,1902.8,896.8,1904.1,895.8,1905.4L895.8,1905.4z"/>
<path class="st7" d="M2707.6,1607.2c6.6-29.5,15.3-58.6,19.5-88.4c24.4-174.6,1-340.7-91.9-493.5c-13.8-22.6-30.7-43.4-46.1-65
	c-4.1-5.8-8.3-11.5-9.5-21c8.4,5.1,17.1,9.8,25.1,15.5c105.4,73.5,169.3,174.8,200.2,298.3c17.4,69.6,24.5,140,18.4,211.7
	c-12.8,121.5-51.5,232.6-131.3,327.2c-29.5,35-63.3,65.5-102.2,89.8c-9.7,6.1-21.3,9.2-32.1,13.7c-1-1.8-2-3.5-3-5.3
	c6.8-7.5,13.7-14.8,20.4-22.4c64.1-73.5,106.3-158.6,132.5-252C2708.3,1613.2,2707.6,1610.2,2707.6,1607.2L2707.6,1607.2z"/>
<path class="st3" d="M660.1,2853c43.3,13.7,50.7,45.7,52.3,81.8c1.5,33.8,4.7,67.5,7.3,102.7h-76.9c-2.2-12.4-5.4-24.9-6.4-37.7
	c-1.9-24.6-2.1-49.4-3.9-74c-2.3-32.6-13.3-43.1-46.4-45.1c-11.1-0.7-22.3-0.1-36.9-0.1v156.7h-73.5c-5.9-19.5-7.9-330.2-2-372.9
	c6.8-0.6,14-1.6,21.2-1.7c37.1-0.2,74.1-0.6,111.1,0.1c15.1,0.3,30.5,1.8,45,5.7c34.2,9.2,56.1,31.4,61.7,67
	c7.7,48.4,0.2,91.3-52.6,117.3L660.1,2853z M549.9,2720.4v107.3c30.7,0,60.4,7.2,80.2-21.8c11.6-17,11.5-48.4-0.5-65
	c-20.2-27.8-49.2-22.9-79.7-20.6V2720.4z"/>
<path class="st6" d="M2825.1,2830.8V3037h-62v-324.1h77.8c24.5,68.5,48.7,135.9,72.9,203.4c1.8-0.2,3.6-0.5,5.4-0.7v-202.8h63.2
	v326.4c-13,0-25.8,0-38.5,0s-24.5,0-38.7,0c-24.8-70.3-49.2-139.6-73.7-208.9c-2.2,0.2-4.4,0.3-6.6,0.5L2825.1,2830.8z"/>
<path class="st6" d="M1051,3038.8v-329.2c17.2,0,33,0,48.9,0c19,0,38,0.6,56.9,0c71.7-2.7,110.6,50.2,113.8,108.8
	c2,37.8,2.2,75.9,0,113.7c-3.8,65.1-51.9,111.4-112.1,107.2c-34.7-2.5-69.7-0.4-107.4-0.4L1051,3038.8z M1120.4,2761v226.9
	c56.5,8.8,81.9-11.8,83-65.7c0.6-30.4,0.5-60.8,0-91.2C1202.7,2774.2,1180.1,2754.5,1120.4,2761L1120.4,2761z"/>
<path class="st8" d="M1677,2876.3c0,20.9,0.3,41.7,0,62.6c-1.3,63.8-42,104.6-105.5,105.2c-15,0.1-30.7,0-44.9-4
	c-43.4-11.9-71.8-48.2-73.1-94.2c-1.3-47.4-1.5-94.8,0-142.2c1.8-55.9,42.3-95.5,98.2-97.7c16.9-0.6,34.5-0.8,50.9,3
	c41.1,9.4,71.5,47,73.9,90.5c1.4,25.5,0.3,51.2,0.3,76.8c0.1,0,0.2,0,0.3,0L1677,2876.3z M1613,2873.5c-1.3-21-2.3-44.6-4.6-68.2
	c-1-10.2-3.6-20.6-7.7-30c-6.6-15.2-19.3-22.9-36.2-22.8c-15.7,0.1-27.4,7.4-34.3,21.2c-3.7,7.5-7.5,16-7.6,24.1
	c-0.7,51-0.8,102,0,153c0.1,8.9,4.2,18.6,8.9,26.5c15.5,26.1,53.2,25.8,67.7-0.8c5.3-9.6,8-21.3,9.1-32.4c2.4-22.6,3-45.3,4.6-70.8
	L1613,2873.5z"/>
<path class="st8" d="M841,2712.9h85.8c28.8,108,57.3,214.9,86.6,324.4h-70.8c-5-21.2-10-42.9-15.3-65.1h-86.9
	c-4.9,20.8-9.9,41.7-15.3,64.5h-71.3c29.1-108.1,57.7-214.6,87.1-323.8L841,2712.9z M917.6,2914.6c-12.3-48.1-18.7-92.7-33.1-135.2
	l-6.2,0.8c-8.6,44.2-17.2,88.3-26.1,134.4H917.6L917.6,2914.6z"/>
<path class="st9" d="M2468,3037.4c29-109.1,57.4-216,86.1-324.1h86.2c29,108,57.7,214.7,87.1,324h-69.3
	c-6.2-21.5-12.1-42.3-18.6-64.7h-83.8c-6.4,21.4-12.9,42.8-19.6,64.8H2468L2468,3037.4z M2627.7,2914.3
	c-2.9-45.5-21-122.8-33.4-139.1c-10.1,46.9-19.8,91.8-30,139.1H2627.7z"/>
<path class="st10" d="M2053.5,2970.9c-6.9,24.4-12.5,44.3-18.7,66.2h-69.2c29.3-109,58-215.8,87.1-324h85.8
	c28.5,107.2,57,214.1,86.1,323.7H2156c-4.4-15.8-9.5-31.1-12.7-46.7c-2.7-13.3-8.8-19.7-23-19.3
	C2098.6,2971.5,2076.9,2971,2053.5,2970.9L2053.5,2970.9z M2061.9,2914.7h67.4c-10.8-47.7-20.9-92.3-31-136.9c-2.2,0-4.3,0-6.5,0
	C2082,2822.6,2072.2,2867.4,2061.9,2914.7L2061.9,2914.7z"/>
<path class="st11" d="M2355.8,2934.8c15.3-73.8,30.6-147.6,46-222.1h71c-25.5,108.7-50.6,216-76,324.4h-88.2
	c-24.8-107.7-49.5-214.7-74.7-324.1h70.6c15.1,72.8,30.5,147.2,45.9,221.5c1.8,0.1,3.7,0.2,5.5,0.4L2355.8,2934.8z"/>
<path class="st10" d="M1717.2,2920h65.2c1.9,14.4,3.1,28.3,5.8,41.9c4.2,20.5,12.8,27.6,30.2,27.1c17.3-0.5,27.1-8.8,29.8-27.9
	c2.1-15,2.7-30.2,2.8-45.4c0.5-73.1,0.5-146.1,0.7-219.2c0-10.2,0-20.3,0-32.1h75.5c0.9,7,2.5,14.2,2.5,21.3
	c0.2,85.4-0.6,170.8,0.3,256.2c0.7,62.3-37.6,103.3-99.4,102.9c-4.7,0-9.5,0.6-14.2,0.6C1742.3,3046.5,1701.5,2996.5,1717.2,2920
	L1717.2,2920z"/>
<path class="st12" d="M1352.8,1784.9c27.9,6.2,43,31.3,66.4,43.9c24.2,13.1,47.5,28.1,72.6,39c24.2,10.4,50,17.8,75.7,24.3
	c26.6,6.7,53.7,12.2,80.9,15.7c27.2,3.5,54.9,5.4,82.3,5.4c27.5,0,55.1-1.7,82.3-5.1c27.2-3.4,54.3-8.8,80.9-15.4
	c25.7-6.4,51.5-13.7,75.8-23.9c25.2-10.6,49.7-23.7,72.7-38.5c22.4-14.4,42.6-32.3,69.1-52.7c-3.9,20.4-12.2,30-20.6,39.4
	c-34,38.3-75.2,66.7-121.5,87.9c-93.8,42.9-192.2,56.6-294.6,47.1c-66.9-6.2-130.7-22.6-191-52.7
	C1430.4,1872.7,1386.1,1835.4,1352.8,1784.9L1352.8,1784.9z"/>
<path class="st8" d="M1331.7,2713.1h64.3v324.3h-64.3V2713.1z"/>
<path class="st5" d="M1637.6,2309.3c-0.6,1.1-1.3,2.2-1.9,3.3c1.5,0.2,3.1,0.7,4.6,0.6c0.5,0,1-1.2,1.5-1.9
	C1640.4,2310.6,1639,2309.9,1637.6,2309.3L1637.6,2309.3z"/>
<path class="st13" d="M549.9,2720.4c30.4-2.3,59.4-7.3,79.7,20.6c12.1,16.6,12.2,48,0.5,65c-19.8,29-49.5,21.8-80.2,21.8v-107.3
	V2720.4z"/>
<path class="st14" d="M1120.4,2761c59.7-6.5,82.3,13.2,83.1,70c0.4,30.4,0.5,60.8,0,91.2c-1.1,53.9-26.5,74.5-83,65.7L1120.4,2761
	L1120.4,2761z"/>
<path class="st15" d="M1613,2873.5c-1.5,25.4-2.1,48.2-4.6,70.8c-1.2,11-3.9,22.7-9.1,32.4c-14.5,26.6-52.2,26.8-67.7,0.8
	c-4.7-7.9-8.8-17.6-8.9-26.5c-0.8-51-0.7-102,0-153c0.1-8.1,3.9-16.6,7.6-24.1c6.9-13.8,18.6-21.1,34.3-21.2
	c16.9-0.1,29.5,7.6,36.2,22.8c4.1,9.4,6.7,19.8,7.7,30c2.3,23.5,3.2,47.2,4.6,68.2L1613,2873.5z"/>
<path class="st16" d="M917.6,2914.6h-65.4c9-46.1,17.6-90.2,26.1-134.4l6.2-0.8C898.9,2821.8,905.3,2866.5,917.6,2914.6
	L917.6,2914.6z"/>
<path class="st16" d="M2627.7,2914.3h-63.4c10.2-47.3,19.9-92.2,30-139.1C2606.7,2791.4,2624.8,2868.8,2627.7,2914.3z"/>
<path class="st17" d="M2061.9,2914.7c10.3-47.2,20.1-92,29.9-136.8c2.2,0,4.3,0,6.5,0c10.1,44.6,20.2,89.2,31,136.9L2061.9,2914.7
	L2061.9,2914.7z"/>
</svg>
