<?xml version="1.0" encoding="UTF-8"?>
<svg id="Layer_01" data-name="Layer 01" xmlns="http://www.w3.org/2000/svg" version="1.1" viewBox="0 0 3500 3500">
  <defs>
    <style>
      .cls-1 {
        fill: #12a3aa;
      }

      .cls-1, .cls-2, .cls-3, .cls-4 {
        stroke-width: 0px;
      }

      .cls-2 {
        fill: #ff7f00;
      }

      .cls-3 {
        fill: #fff;
      }

      .cls-4 {
        fill: #fefefe;
      }
    </style>
  </defs>
  <path class="cls-1" d="M306.1,1357.49v498.41c66.09,0,129.48-26.25,176.21-72.99,46.74-46.74,72.99-110.12,72.99-176.22s-26.25-129.48-72.99-176.21c-46.74-46.74-110.12-72.99-176.22-72.99Z"/>
  <path class="cls-1" d="M249.21,1637.55v498.41c-66.09,0-129.48-26.25-176.21-72.99C26.26,2016.24,0,1952.85,0,1886.75s26.25-129.48,72.99-176.21c46.74-46.74,110.12-72.99,176.22-72.99Z"/>
  <path class="cls-2" d="M222.6,1565.99c21.11-25.63,31.14-58.46,27.94-91.52-3.2-33.06-19.32-63.36-44.96-84.47-25.63-21.11-58.46-31.14-91.52-27.94-33.06,3.2-63.36,19.32-84.47,44.96-21.11,25.63-31.14,58.46-27.94,91.52,3.2,33.06,19.32,63.36,44.96,84.47,25.63,21.11,58.46,31.14,91.52,27.94,33.06-3.2,63.36-19.32,84.47-44.96Z"/>
  <path class="cls-3" d="M2726.54,2136.98c-19.82,0-39.36-.3-59.09-.31-35.42-.02-40.76-5.41-40.78-41.17-.03-95.92,0-197.17,0-293.13,38,1.03,87.92-10.48,92.14,43.39,0,0,0,208.02,0,208.02,35.71-2.2,102.74-1.66,139.01-5.33,40.39-5.58,68.62-29.15,81.63-68.16,24.55-71.42,7.43-173.88-74.57-196.71-36.98-10.71-84.46-4.56-121.48-5.71v-.34h-74.23c-23,.49-43.22-19.96-42.44-42.95.15-34.37,4.19-41.05,39.56-41.38,46.96-.51,117.69-.41,162.84.21,110.56,1.81,195.47,65.69,212.7,175.74,20.9,115.91-32.66,237.83-156.77,260.33-48.48,10.26-107.01,6.45-158.51,7.51Z"/>
  <path class="cls-3" d="M1555.98,1802.54c-40.07-61.46-98.81-92.83-170.1-102.49-34.75-4.71-69.29-1.88-103.09,7.67-38.4,10.85-72.11,28.88-99.69,55.69-5.94,5.77-1.87,15.84,6.41,15.84h164.08v.02c.26,0,.52-.01.78-.01,80.48.43,138.46,58.02,137.94,140.25-.56,88.25-68.5,138.09-139.5,137.75-70.72-.34-138.1-50.83-137.94-139.31.19-44.98,17.82-82.19,46.73-106.7,6.52-5.53,2.56-16.19-5.99-16.19h-94.46c-3.05,0-5.94,1.5-7.63,4.04-32.45,48.76-41.47,102.82-31.35,160.85,8.56,49.06,32.02,89.77,69.88,121.82,46.63,39.47,101.53,56.13,161.94,56.45,22.03.15,43.58-2.76,64.99-7.89,92.02-22.04,169.26-98.45,169.78-209.46.2-42.69-9.44-82.51-32.79-118.33Z"/>
  <g>
    <path class="cls-4" d="M3310.38,1992.22c-.01-4.73-.98-9.4-3.35-13.5l-45.28-78.43c-.07.12-.14.23-.21.35-4.14-7.53-8.34-15.01-12.56-22.46l-14.68-25.42.06-.04c-30.52-52.43-62.58-103.37-94.25-154.16-1.4-2.25-3.87-3.62-6.52-3.62h-103.78c-6.09,0-9.7,6.81-6.29,11.85h0c59.95,88.57,119.87,177.15,179.96,265.62,3.79,5.58,5.36,11.16,5.33,17.84-.18,46.64-.12,93.28-.06,139.92,0,1.72.1,3.45.24,5.2.32,4.02,3.64,7.14,7.68,7.14h44.39c27.19,0,49.44-22.25,49.44-49.44v-38.96c0-46,.12-15.81-.14-61.81,0-.02,0-.05,0-.07Z"/>
    <path class="cls-4" d="M3383.22,1697.99c-36.55,60.86-79.44,115.38-116.54,177.18-1.09,1.82-1.12,4.09-.06,5.93l40.24,65.05c6.04,10.46,20.94,11,27.72,1,54.87-80.95,109.63-161.97,164.39-243l.05-.08c2.56-3.79-.16-8.9-4.73-8.9h-106.07c-2.04,0-3.94,1.07-4.99,2.82Z"/>
  </g>
  <path class="cls-3" d="M834.33,1800.69c-1.47,4.98-8.72,8.52-12.42,12.34-19.78,17.46-31.05,42.82-37.5,68.49-4.1,20.53-1.51,41.26-.4,61.62.4,16.3,8.81,30.63,16.34,44.69,14.82,28.03,40.02,43.6,68.85,55.09,27.19,11.62,56.03,8.77,84.08,5.88,30.43-2.94,56.74-34.26,89.12-25.95,16.84,3.68,30.01,15.33,42.61,26.34,3.6,3.23,7.55,7.49,6.13,12.62-14.7,25.67-43.12,42.05-69.55,53.86-73.64,31.57-167.18,29.04-236.39-13.21-25.14-15.35-47.26-35.59-64.84-59.22-8.74-11.74-17.66-24.85-23.05-38.54-6.12-15.51-9.14-32.35-13.32-48.45-4.35-16.77-3.24-34.61-3.34-51.74-.14-23.68,4.29-50.45,13.48-72.4,7.74-18.46,21.56-33.4,42.51-34.48,29.39-1.52,59.2-.75,88.64-.68,3.01.29,8.2-.19,9.07,3.25l-.02.48Z"/>
  <path class="cls-3" d="M731.94,1772.74c-1.52-3.05,4.16-8.54,6.79-11.44,19.5-20.51,40.41-39.87,67.33-49.88,32.02-11.91,61.88-18.69,96.23-19.83,34.53-1.15,69.98.56,102.86,12.09,32.04,11.24,57.97,28.75,81.86,52.86,4.42,4.27,8.95,10.62,4.07,15.92-19.63,19.01-47.86,41.62-77.27,30.31-29.48-13.75-59.11-29.27-92.55-27.35-56.55.62-113.2.23-169.61.15-6.29-.62-14.45,1.29-19.42-2.38l-.28-.44Z"/>
  <path class="cls-3" d="M1646.43,1772.85c27.87,41.77,54.36,86.49,80.67,129.83,5.3,8.48,8.09,17.87,8.69,27.93,1.73,49.91.65,99.78.62,149.77,2.89,48.85-42.78,63.78-83.7,58.87-13.11-.94-9.92-16.87-10.37-26.35-.14-108.58-.3-217.32-.37-325.94.04-4.24-.32-13.91,3.99-14.23l.48.12Z"/>
  <path class="cls-3" d="M2145.81,1703.97c-.43-6.93-2.54-10.9-9.2-11.76-9.08-1.14-18.69-.63-27.87-.79-26.19-.92-51.43,2.25-64.71,27.26-9.47,17.84-21.9,34.57-32.02,52.13-9.91,17.18-19.08,34.59-29.06,51.74-24.21,41.6-50.97,81.34-74.25,123.51-4.34,7.25-12.86,22.96-21.29,11.34,0,0-76.96-126.3-76.96-126.3-14.76-26.59-30.77-52.44-46.98-78.16-8.23-13.06-16.49-26.1-24.71-39.17-6.2-9.86-14.78-17.79-26.94-19.05-20.05-2.09-40.43-3.49-60.63-2.6-7.89.31-9.12,8.18-8.93,14.54,2.29,31.53,27.44,54.51,43.28,79.94,31.91,56.67,65.16,112.74,101.23,166.9,21.37,35.98,39.88,74.03,64.74,107.94,8.97,8.36,13.09,23.9,25.66,27.79,10.58,2.09,25.24,2.69,35.92-1.6,3.77-2.1,6.44-5.9,8.65-9.64,11.88-21.07,26.68-40.37,39.73-60.78,23.13-43.3,48.53-85.33,73.77-127.44,1.61-2.71,3.87-6.51,6.39-7.64l.55-.21c5.6-1.01,6.19,8.86,6.23,13.39.56,54.74.62,109.97.89,164.8-3.81,58.79,24.47,82.05,82.02,78.15,9.85.54,14.38-3.49,14.5-13.62.28-140.06.72-280.75.02-420.67Z"/>
  <path class="cls-3" d="M2399,1693.54c49.14.11,98.25-.03,147.6.06,8.16.19,19.24-.79,19.16,10.81.37,2.44.28,7.36.29,9.17-.85,10.32,1.46,20.94-2.33,30.77-7.07,16.86-26.34,31.55-45.53,30.01-51.24-.67-102.74-.16-154.02-.07-10.18.98-27.72-3.81-30.45,9.88-2.7,28.96-2.64,48.76-33.69,61.98-18.75,7.93-39.38,5.49-59.28,5.11-9.4.15-13.25-5.98-12.7-14.99-.08-39.16-.15-78.73-.13-118.16.16-12.42-1.38-24.98,15.31-24.39,51.67-.58,103.33-.15,154.91-.18h.87Z"/>
  <path class="cls-3" d="M2399,2135.25c49.14-.11,98.25.03,147.6-.06,8.16-.19,19.24.79,19.16-10.81.37-2.44.28-7.36.29-9.17-.85-10.32,1.46-20.94-2.33-30.77-7.07-16.86-26.34-31.55-45.53-30.01-51.24.67-102.74.16-154.02.07-10.18-.98-27.72,3.81-30.45-9.88-2.7-28.96-2.64-48.76-33.69-61.98-18.75-7.93-39.38-5.49-59.28-5.11-9.4-.15-13.25,5.98-12.7,14.99-.08,39.16-.15,78.73-.13,118.16.16,12.42-1.38,24.98,15.31,24.39,51.67.58,103.33.15,154.91.18h.87Z"/>
  <circle class="cls-2" cx="2520.37" cy="1912.86" r="59.14"/>
  <circle class="cls-2" cx="2824.1" cy="1912.86" r="59.14"/>
  <path class="cls-3" d="M2444.29,1912.86c0-14.26,3.99-27.55,10.82-38.96-57.18-.28-114.35.14-171.51.11-7.83-.11-15.75.85-22.49,5.16-21.83,13.35-33.68,32.82-32.92,58.82.17,3.63.37,8.08,2.87,10.68,6.27,4.63,15.97,2.67,23.49,3.19,31.92-.16,64.22.47,96.03-.29l.85-.05c27.07-.96,54.48,0,81.66-.41,7.06-.14,14.35.19,21.44-.24-6.48-11.19-10.24-24.15-10.24-38.01Z"/>
</svg>