<?xml version="1.0" encoding="utf-8"?>
<!-- Generator: Adobe Illustrator 27.7.0, SVG Export Plug-In . SVG Version: 6.00 Build 0)  -->
<svg version="1.1" id="Layer_1" xmlns="http://www.w3.org/2000/svg" xmlns:xlink="http://www.w3.org/1999/xlink" x="0px" y="0px"
	 viewBox="0 0 3500 3500" style="enable-background:new 0 0 3500 3500;" xml:space="preserve">
<style type="text/css">
	.st0{fill:none;stroke:#734DE9;stroke-width:2;}
	.st1{fill:none;stroke:#250393;stroke-width:2;}
	.st2{fill:none;stroke:#6437EB;stroke-width:2;}
	.st3{fill:#AD98EF;}
	.st4{fill:#3901E3;}
	.st5{fill:#110542;}
	.st6{fill:#8F6DF2;}
</style>
<g>
	<path vector-effect="non-scaling-stroke" class="st0" d="M1964.7,77.4c17,8.8,25.5,17.1,25.2,25c-0.1,7.4-3.8,10.4-11.1,9
		c-47.8-9.6-94.4-16.4-139.9-20.4c-168.3-15-329.1,50.8-474.9,146.3c-104.8,68.8-217.8,155.8-338.9,261
		C939.1,573.1,851.9,653,763.5,738c-7.7,7.5-16.5,15.8-26.4,25c-187.8,175.4-375.7,357.4-563.7,545.9c-12.7,12.7-25.6,26-38.7,39.9
		c-24,25.3-48.3,45.5-73.1,60.6c-7.9,4.8-28.5,9.2-61.7,13"/>
	<path vector-effect="non-scaling-stroke" class="st1" d="M2214.8,345.2c10-16,5.5-28.8-13.5-38.3c-248.1-124.9-475.2-66-700,73.2
		c-221.1,136.8-408.9,303.3-626.9,500.4c-178.1,161-347.4,332.4-520.7,504.6c-11,11-13.4,27.6-5.7,40.1c2.1,3.2,8,4,17.8,2.4"/>
	<path vector-effect="non-scaling-stroke" class="st2" d="M1707.4,2870.7c0.9,1.4-1,2.6-5.9,3.6c-4.7,1.2-6.5,4.1-5.4,9
		c2,8.1,11.6,10.4,28.8,7.1c7.7-1.4,14.2-6.5,17.4-13.6c48.8-107.9,111.8-207.8,189-299.5c57.4-68.2,114.1-128.9,170.3-182.2
		c141.7-134.4,269.2-259.1,382.6-374.2c47.7-48.4,97.7-104.7,149.9-169.1c82.5-101.6,142.9-210.9,181.4-327.9
		c4.1-12.4,6.7-24.9,7.8-37.3c3.9-45.1-5.4-54.6-28-28.3"/>
	<path vector-effect="non-scaling-stroke" class="st1" d="M2790.2,1427.6c7.3-24.2-1.8-37.2-27.1-39
		c-120.8-8.6-240.3,14.6-358.5,69.8c-85.9,40.1-160.7,101-224.2,182.8c-3.5,4.4-7.9,6.2-13.5,5.5c-2.2-0.2-4.1,0.5-5.7,2.1
		c-15.3,16-23.5,26.2-24.5,30.6c-7.5,31.1-13.1,62.4-16.8,93.8"/>
	<path vector-effect="non-scaling-stroke" class="st1" d="M1888.6,1066.1c11.1-6.6,5.4-13.9-16.9-21.9c-6.1-2.2-11.6-1.2-16.6,2.9
		c-15.9,13.1-31.1,28-45.6,44.6c-104.2,119-166.2,264.6-185.9,436.9c-5.1,43.4-2.8,92.5,6.9,147.2c2.2,12.4,0.7,24.2-4.3,35.2
		c-6.8,14.5-16.4,20.3-28.8,17.3"/>
	<path vector-effect="non-scaling-stroke" class="st1" d="M1472.7,1600.4c4.1-14.6,1.4-24.2-8.3-28.8c-4.4-2.1-6-5.5-5-10.4
		c1.3-5.9-0.5-10.9-5.2-15c-114-101.3-247.8-156.2-401.5-164.5c-17.5-0.9-42,1.3-73.6,6.6c-5.8,1-9.7,4.3-11.9,9.7
		c-5.5,13.7-6.2,23-2.1,28"/>
	<path vector-effect="non-scaling-stroke" class="st2" d="M770.1,1240.7c99.8,28.2,168.2,42.5,205.1,42.8
		c108.7,0.7,214,9.8,315.8,27.5c62.8,10.9,118.7,35,167.9,72c20.9,15.9,22.5,34,39.9,51c13.8,13.4,27.8,15.8,42,7.4
		c15.4-9.2,18.1-32.3,18.8-48.5c0.6-13.4,2.6-26.8,6-40.3c18.9-75.8,32.9-123.8,42.2-144.1c62.6-138.1,163.4-265.9,302.1-383.3"/>
	<path vector-effect="non-scaling-stroke" class="st2" d="M2250,1410c-8.1-0.2-10.8,3.7-8.1,11.7c3.5,10.6,15,16.3,25.6,12.7
		c1.9-0.6,3.7-1.6,5.3-2.7c84-59.3,147.7-105,255.5-121.8c126.1-19.9,251-18.7,378.3-33c16.8-2,31.7-8.1,44.7-18.3
		c14.9-11.6,23.3-25.7,25.2-42.2"/>
	<path vector-effect="non-scaling-stroke" class="st1" d="M3001.8,1308.2c-3.5,1.7-6.6,1.3-9.5-1.4c-7.1-6.4-12.3-5.2-15.5,3.8
		c-0.9,2.4-2.7,3.7-5.4,4c-3.4,0.3-6.2,2.9-6.7,6.4c-9.7,70.3-24.4,136.9-44.1,200c-37.1,119-99.9,235.1-188.5,348.4
		c-95.6,122.1-172.6,212-231.1,269.7c-200.4,198-409.8,396.3-558.8,628.5c-91.3,142-153.1,303.3-185.2,483.9"/>
	<path vector-effect="non-scaling-stroke" class="st2" d="M1931.8,1950.9c-41.3,116.2-120.4,162.8-237.2,139.8"/>
	<path vector-effect="non-scaling-stroke" class="st1" d="M2009.7,2045.4c-37.4,28.1-76.4,54.3-117,78.6c-4.3,2.6-8.9,4.8-13.8,6.4
		c-5.8,1.8-9.8,5.6-12.3,11.4c-1.8,4.5-5.3,8-9.8,9.7l-123.2,46.5"/>
	<path vector-effect="non-scaling-stroke" class="st0" d="M2906.3,3203.8c-0.3,11.5,3.7,17.6,12.1,18.3c22.8,1.8,44.9-9.3,66.3-33.5
		c3.4-3.8,4.7-9,3.5-13.8c-1.6-6.3-4.6-10.7-9-13.1c-11.7-6.6-22.5-5.2-32.1,4.1l-36.1,34.5"/>
</g>
<path class="st3" d="M1964.7,77.4c17,8.8,25.5,17.1,25.2,25c-0.1,7.4-3.8,10.4-11.1,9c-47.8-9.6-94.4-16.4-139.9-20.4
	c-168.3-15-329.1,50.8-474.9,146.3c-104.8,68.8-217.8,155.8-338.9,261C939.1,573.1,851.9,653,763.5,738c-7.7,7.5-16.5,15.8-26.4,25
	c-187.8,175.4-375.7,357.4-563.7,545.9c-12.7,12.7-25.6,26-38.7,39.9c-24,25.3-48.3,45.5-73.1,60.6c-7.9,4.8-28.5,9.2-61.7,13
	c36.3-31.9,65.8-59,88.6-81.2c278.1-270.8,538.8-519.6,782-746.6c80.7-75.3,167.3-150.5,259.6-225.6
	C1363,179.9,1650.4-17.9,1964.7,77.4z"/>
<path class="st4" d="M1964.7,77.4c225.3,67.9,420.5,225.3,595.5,384c297.8,269.7,572.1,559.2,856.8,849.4
	c23.4,23.7,46.1,48.2,68.1,73.4c12.9,14.7,11.7,16-3.6,3.6c-32-25.6-62-50.8-90-75.8c-244.7-217.9-489.7-435.6-735-653.2
	c-126.5-112.1-282.6-236.8-441.5-313.7c10-16,5.5-28.8-13.5-38.3c-248.1-124.9-475.2-66-700,73.2
	c-221.1,136.8-408.9,303.3-626.9,500.4c-178.1,161-347.4,332.4-520.7,504.6c-11,11-13.4,27.6-5.7,40.1c2.1,3.2,8,4,17.8,2.4
	l1341.6,1443.1c0.9,1.4-1,2.6-5.9,3.6c-4.7,1.2-6.5,4.1-5.4,9c2,8.1,11.6,10.4,28.8,7.1c7.7-1.4,14.2-6.5,17.4-13.6
	c48.8-107.9,111.8-207.8,189-299.5c57.4-68.2,114.1-128.9,170.3-182.2c141.7-134.4,269.2-259.1,382.6-374.2
	c47.7-48.4,97.7-104.7,149.9-169.1c82.5-101.6,142.9-210.9,181.4-327.9c4.1-12.4,6.7-24.9,7.8-37.3c3.9-45.1-5.4-54.6-28-28.3
	c2.5-18.5,0.7-28.7-5.4-30.6c7.3-24.2-1.8-37.2-27.1-39c-120.8-8.6-240.3,14.6-358.5,69.8c-85.9,40.1-160.7,101-224.2,182.8
	c-3.5,4.4-7.9,6.2-13.5,5.5c-2.2-0.2-4.1,0.5-5.7,2.1c-15.3,16-23.5,26.2-24.5,30.6c-7.5,31.1-13.1,62.4-16.8,93.8
	c-11.2,19.8-24.2,37.1-39,52c-7.7,7.6-10.4,6.1-7.9-4.5c66.7-279.2,49.8-543.5-184.3-754.6c11.1-6.6,5.4-13.9-16.9-21.9
	c-6.1-2.2-11.6-1.2-16.6,2.9c-15.9,13.1-31.1,28-45.6,44.6c-104.2,119-166.2,264.6-185.9,436.9c-5.1,43.4-2.8,92.5,6.9,147.2
	c2.2,12.4,0.7,24.2-4.3,35.2c-6.8,14.5-16.4,20.3-28.8,17.3l-124.7-127.8c4.1-14.6,1.4-24.2-8.3-28.8c-4.4-2.1-6-5.5-5-10.4
	c1.3-5.9-0.5-10.9-5.2-15c-114-101.3-247.8-156.2-401.5-164.5c-17.5-0.9-42,1.3-73.6,6.6c-5.8,1-9.7,4.3-11.9,9.7
	c-5.5,13.7-6.2,23-2.1,28c60,252.3,199.5,429.2,418.4,530.7c59.9,27.9,119.4,52.9,178.6,75c9.8,3.7,16,13.2,15.4,23.5
	c-4.3,81.5,27.5,143.6,81.7,201.8c7.7,8.3,6.3,10.4-4.1,6.2c-245-96-513.4-227.7-677.2-425.1c-137.5-165.8-206.8-364.9-207.8-597.2
	c99.8,28.2,168.2,42.5,205.1,42.8c108.7,0.7,214,9.8,315.8,27.5c62.8,10.9,118.7,35,167.9,72c20.9,15.9,22.5,34,39.9,51
	c13.8,13.4,27.8,15.8,42,7.4c15.4-9.2,18.1-32.3,18.8-48.5c0.6-13.4,2.6-26.8,6-40.3c18.9-75.8,32.9-123.8,42.2-144.1
	c62.6-138.1,163.4-265.9,302.1-383.3c133.6,98.1,231.2,222.9,292.8,374.3c21.2,52.3,37,122.4,47.3,210.4c-8.1-0.2-10.8,3.7-8.1,11.7
	c3.5,10.6,15,16.3,25.6,12.7c1.9-0.6,3.7-1.6,5.3-2.7c84-59.3,147.7-105,255.5-121.8c126.1-19.9,251-18.7,378.3-33
	c16.8-2,31.7-8.1,44.7-18.3c14.9-11.6,23.3-25.7,25.2-42.2c4-7.7,9.8-12.4,17.4-14c6.1-1.3,9.1,1.2,9,7.4l-1.2,98.3
	c-3.5,1.7-6.6,1.3-9.5-1.4c-7.1-6.4-12.3-5.2-15.5,3.8c-0.9,2.4-2.7,3.7-5.4,4c-3.4,0.3-6.2,2.9-6.7,6.4
	c-9.7,70.3-24.4,136.9-44.1,200c-37.1,119-99.9,235.1-188.5,348.4c-95.6,122.1-172.6,212-231.1,269.7
	c-200.4,198-409.8,396.3-558.8,628.5c-91.3,142-153.1,303.3-185.2,483.9L0,1422.4c33.2-3.8,53.7-8.1,61.7-13
	c24.8-15.1,49.1-35.3,73.1-60.6c13.1-13.9,26-27.2,38.7-39.9c187.9-188.5,375.8-370.5,563.7-545.9c9.9-9.2,18.7-17.6,26.4-25
	c88.3-85,175.5-164.9,261.5-239.6c121.2-105.3,234.1-192.3,338.9-261c145.8-95.5,306.6-161.3,474.9-146.3
	c45.5,4,92.1,10.8,139.9,20.4c7.3,1.4,10.9-1.6,11.1-9C1990.1,94.5,1981.7,86.2,1964.7,77.4z"/>
<path class="st5" d="M2214.8,345.2c-171.5-84.9-343-92.4-514.4-22.6c-119.3,48.7-239.6,120.1-360.9,214
	c-173.6,134.6-340.1,277.5-499.6,428.8c-159.7,151.4-317.7,305.5-474,462.3c-9.8,1.6-15.7,0.8-17.8-2.4c-7.7-12.5-5.3-29.1,5.7-40.1
	c173.3-172.2,342.6-343.6,520.7-504.6c218-197.1,405.8-363.6,626.9-500.4c224.7-139.2,451.9-198.1,700-73.2
	C2220.3,316.4,2224.8,329.2,2214.8,345.2z"/>
<path class="st6" d="M1909.9,825.2c-138.8,117.5-239.5,245.2-302.1,383.3c-9.2,20.3-23.3,68.3-42.2,144.1c-3.5,13.5-5.5,26.9-6,40.3
	c-0.7,16.2-3.5,39.4-18.8,48.5c-14.2,8.4-28.2,5.9-42-7.4c-17.4-16.9-19-35.1-39.9-51c-49.2-37.1-105.1-61.1-167.9-72
	c-101.8-17.6-207.1-26.8-315.8-27.5c-36.9-0.3-105.2-14.6-205.1-42.8c-4.7-14.7-5.5-26.9-2.2-36.4c2.1-6,6-7.8,11.9-5.5
	c129.9,51.5,265.2,47.9,404.2,56.3c117,7.3,245.6,47.7,319.9,149.1c16.8,22.9,25.4,20.2,25.7-8.3c2.1-159.4,101.4-333.2,208.7-448.3
	c42.8-46,88.8-91.8,137.9-137.7c4.6-4.4,9.3-4.5,14.2-0.5L1909.9,825.2z"/>
<path class="st5" d="M1888.6,1066.1c-170.1,158.2-244.2,356.9-222.3,596c5.2,56.4,12.9,110,23.1,160.8c4.5,22.5-0.2,24.6-14.2,6.6
	l-77.9-101.2c12.4,3,22.1-2.8,28.8-17.3c5.1-11.1,6.5-22.8,4.3-35.2c-9.7-54.7-12-103.8-6.9-147.2
	c19.7-172.3,81.7-317.9,185.9-436.9c14.5-16.6,29.7-31.4,45.6-44.6c5-4.1,10.5-5.1,16.6-2.9
	C1894.1,1052.2,1899.7,1059.5,1888.6,1066.1z"/>
<path class="st6" d="M2976.6,1216.5c-2,16.5-10.4,30.5-25.2,42.2c-13,10.2-27.9,16.4-44.7,18.3c-127.3,14.3-252.2,13.1-378.3,33
	c-107.8,16.8-171.5,62.5-255.5,121.8c-9.1,6.5-21.7,4.4-28.2-4.7c-1.2-1.6-2.1-3.4-2.7-5.3c-2.6-8.1,0.1-12,8.1-11.7
	c32.6-24.6,61.2-47,85.7-67.2c109.3-89.8,338.4-95.5,474.9-91.9C2852.1,1251.9,2907.4,1240.5,2976.6,1216.5z"/>
<path class="st5" d="M3001.8,1308.2c-44.1,457.8-383.7,764.6-705.3,1089.2c-254.3,256.7-456.1,525.2-497.5,879.6
	c-0.8,6.4-4,8.1-9.7,5c-15.9-8.8-26.7-18.9-32.3-30.6c32.1-180.6,93.9-341.9,185.2-483.9c149.1-232.2,358.5-430.5,558.8-628.5
	c58.5-57.7,135.5-147.6,231.1-269.7c88.6-113.3,151.4-229.5,188.5-348.4c19.7-63.1,34.4-129.8,44.1-200c0.5-3.5,3.3-6.1,6.7-6.4
	c2.6-0.2,4.4-1.6,5.4-4c3.2-9,8.4-10.2,15.5-3.8C2995.2,1309.5,2998.4,1310,3001.8,1308.2z"/>
<path class="st5" d="M1472.7,1600.4c-146.1-138.4-315.3-196.6-507.5-174.5c-4.1-5-3.5-14.3,2.1-28c2.2-5.4,6.2-8.6,11.9-9.7
	c31.6-5.3,56.1-7.5,73.6-6.6c153.6,8.3,287.5,63.1,401.5,164.5c4.7,4.1,6.4,9.2,5.2,15c-1,4.8,0.6,8.3,5,10.4
	C1474.1,1576.1,1476.8,1585.7,1472.7,1600.4z"/>
<path class="st5" d="M2790.2,1427.6c-73.4-2.6-145.7,2.1-217.1,14.2c-201.9,34.2-341.9,169.1-453.1,331.3
	c3.7-31.4,9.3-62.7,16.8-93.8c1-4.4,9.2-14.6,24.5-30.6c1.6-1.6,3.5-2.3,5.7-2.1c5.5,0.7,10-1.2,13.5-5.5
	c63.6-81.8,138.3-142.7,224.2-182.8c118.2-55.2,237.6-78.4,358.5-69.8C2788.4,1390.4,2797.5,1403.4,2790.2,1427.6z"/>
<path class="st6" d="M1707.4,2870.7c65.9-149,150.3-276.8,253.2-383.3c112.7-116.9,267.4-267.3,464-451.2
	c47.8-44.7,112.1-118.7,193-222c83-106.2,142.3-224.9,177.9-356c22.6-26.3,31.9-16.8,28,28.3c-1,12.4-3.6,24.9-7.8,37.3
	c-38.5,117-98.9,226.3-181.4,327.9c-52.3,64.4-102.3,120.8-149.9,169.1c-113.4,115-241,239.8-382.6,374.2
	c-56.2,53.3-113,114.1-170.3,182.2c-77.2,91.8-140.2,191.6-189,299.5c-3.3,7.1-9.8,12.2-17.4,13.6c-17.3,3.3-26.9,1-28.8-7.1
	c-1.2-4.8,0.6-7.8,5.4-9C1706.4,2873.3,1708.4,2872.1,1707.4,2870.7z"/>
<path class="st6" d="M1931.8,1950.9c-41.3,116.2-120.4,162.8-237.2,139.8c0.6-51.8,26.2-100.1,68.6-129.7
	C1813,1925.9,1878.3,1922.1,1931.8,1950.9z"/>
<path class="st4" d="M1931.8,1950.9c37.4,20,65.4,54,77.9,94.5c-37.4,28.1-76.4,54.3-117,78.6c-4.3,2.6-8.9,4.8-13.8,6.4
	c-5.8,1.8-9.8,5.6-12.3,11.4c-1.8,4.5-5.3,8-9.8,9.7l-123.2,46.5c-25.7-29.8-39.6-68-39-107.3
	C1811.4,2113.7,1890.5,2067.1,1931.8,1950.9z"/>
<path class="st5" d="M2009.7,2045.4c26.1,85.1-21.7,175.3-106.8,201.4c-6.8,2.1-13.7,3.7-20.7,4.9c-55.5,9.2-111.8-11.1-148.6-53.7
	l123.2-46.5c4.5-1.7,8.1-5.2,9.8-9.7c2.4-5.8,6.5-9.6,12.3-11.4c5-1.6,9.6-3.7,13.8-6.4C1933.3,2099.7,1972.3,2073.5,2009.7,2045.4z
	"/>
<ellipse transform="matrix(0.2385 -0.9711 0.9711 0.2385 -458.7676 4971.5654)" class="st4" cx="2940.9" cy="2778.3" rx="44.4" ry="31.8"/>
<path class="st4" d="M2906.3,3203.8c-0.3,11.5,3.7,17.6,12.1,18.3c22.8,1.8,44.9-9.3,66.3-33.5c3.4-3.8,4.7-9,3.5-13.8
	c-1.6-6.3-4.6-10.7-9-13.1c-11.7-6.6-22.5-5.2-32.1,4.1l-36.1,34.5c19.1-67.4,58.8-88.8,119.2-64.3c5.8,2.4,8.7,9,6.3,14.7
	c-0.3,0.6-0.6,1.3-1,1.9c-34.5,53.7-84.5,147.7-154.3,143.2c-46.3-3-68.4-29.5-66.3-79.5c2.9-67,7.6-170,43-231.7
	c7.3-12.6,10.2-11.6,9,2.8c-3.9,45.8-10,93.3-18.3,142.3c-5.4,32.1,0.9,59.3,19,81.4c4,5,9.3,6.9,15.7,5.9
	C2891.7,3215.8,2899.4,3211.4,2906.3,3203.8z"/>
<ellipse transform="matrix(0.2267 -0.974 0.974 0.2267 -1221.4064 4754.9775)" class="st4" cx="2383.6" cy="3146.6" rx="127.3" ry="16.9"/>
<path class="st4" d="M2701.3,3197.2l-20.9-11.6c-5.6-3-7.4-7.5-5.4-13.6c8.4-25.1,19.4-47.6,33-67.5c8.6-12.6,25.8-15.9,38.4-7.3
	c6.6,4.5,10.9,11.5,11.9,19.4c10.7,84.6-26.8,166.9-123.2,177.1c-13.7,1.5-14.9-1.6-3.5-9.3l71.3-48.9c10.2-7,12.9-21,5.9-31.2
	C2706.9,3201.3,2704.3,3198.9,2701.3,3197.2z"/>
<path class="st4" d="M2495,3241.5c38.9-32.3,44.9-74.5,63.7-118.3c15.3-35.9,20.7-34.5,16.1,4.3c-9.5,80.8-32.5,160.8-129.6,168.1
	c-9.6,0.7-10.8-2.1-3.6-8.5C2459.6,3271.3,2477.4,3256.1,2495,3241.5z"/>
<path class="st4" d="M2144.1,3462.9H2068c-31.4-14.6-49.2-34.8-53.2-60.5c-14.2-91,19.3-146.1,56.1-221.6c1.7-3.4,5.8-4.9,9.2-3.3
	l4.5,2.1c0.7,0.3,0.9,0.9,0.7,1.7c-9.3,28.1-20.3,55.3-32.8,81.7c-78.1,162.2,205.9,166.4,221.6-1c5-53.7,7.6-101.7,35.1-150.1
	c5.8-10.2,8.8-9.5,9.2,2.2C2322.4,3250.3,2281.6,3402.5,2144.1,3462.9z"/>
<path class="st3" d="M2906.3,3203.8c2.4-4.7,4-5.9,4.7-3.5l36.1-34.5c9.7-9.3,20.4-10.7,32.1-4.1c4.4,2.4,7.4,6.8,9,13.1
	c1.2,4.9-0.1,10-3.5,13.8c-21.4,24.2-43.5,35.4-66.3,33.5C2910,3221.4,2906,3215.3,2906.3,3203.8z"/>
<path class="st4" d="M2211,3230.6l-11.2,24.9c-5.5,12.1-19.7,17.4-31.8,11.9c-0.2-0.1-0.4-0.2-0.7-0.3l-17.8-8.8
	c-11.6-5.8-16.5-19.8-11.1-31.6l16.4-34.9c5.7-12,20-17.1,32-11.4c3.9,1.9,7.2,4.7,9.7,8.3l12.6,18.8
	C2213.7,3214.3,2214.4,3223.1,2211,3230.6z"/>
</svg>
