<?xml version="1.0" encoding="utf-8"?>
<!-- Generator: Adobe Illustrator 27.7.0, SVG Export Plug-In . SVG Version: 6.00 Build 0)  -->
<svg version="1.1" id="Layer_1" xmlns="http://www.w3.org/2000/svg" xmlns:xlink="http://www.w3.org/1999/xlink" x="0px" y="0px"
	 viewBox="0 0 3500 3500" style="enable-background:new 0 0 3500 3500;" xml:space="preserve">
<style type="text/css">
	.st0{fill:#E5E5E5;}
	.st1{fill:#31A22A;stroke:#000000;stroke-width:22.7;stroke-miterlimit:10;}
	.st2{fill:#F51C1E;stroke:#000000;stroke-width:22.7;stroke-miterlimit:10;}
	.st3{fill:#E5E5E5;stroke:#000000;stroke-width:22.7;stroke-miterlimit:10;}
</style>
<path d="M1418.6,968.7c0-95.1,0-190.3,0-285.4c0-59,3.1-62.1,61.2-62.1c55.7,0,111.4-0.3,167.1,0c42.1,0.3,50.1,8.4,50.1,49.5
	c0.1,79,0.3,158-0.1,237.1c-1.4,253.2-3.2,506.4-4.8,759.6c-0.2,37.3-4.5,41.8-42.2,42c-66.9,0.3-133.7,0.1-200.6,0
	c-38.9,0-43.1-3.5-54.4-42.1c-26-88.4-52.2-176.7-78.4-265c-2-6.7-4.9-13.1-12.4-20.1c-0.8,7.9-2.3,15.9-2.3,23.8
	c-0.2,70.9,0,141.8-0.4,212.7c-0.2,21.2-2.6,42.4-3.5,63.6c-0.7,17-8.5,26.8-26,26.8c-75,0-149.9,0.1-224.9-0.2
	c-15.7,0-24.2-8.8-24.6-24.8c-0.2-7.1-0.2-14.2-0.2-21.3c0.5-321.1,0.9-642.3,1.6-963.4c0-15.1,0.6-30.4,2.7-45.4
	c3.3-23.5,10.4-31.9,32.6-32.2c70.9-1.1,141.8-0.7,212.7-0.3c18.5,0.1,28.6,10.7,34.4,28.5c28.1,86.6,57.1,173,86,259.3
	c6.7,20,14.1,39.8,21.1,59.7c1.8-0.2,3.6-0.4,5.3-0.6L1418.6,968.7z M1054.4,1163.4h-1.2c0,161.1,0,322.3,0,483.4
	c0,36.3,0.2,36.4,37.5,36.5c47.6,0,95.3,0,142.9,0c37.2,0,37.3-0.1,37.4-36.2c0.2-128.7,0.3-257.4,0.5-386.1c0-8.1-1-16.4,0.5-24.3
	c1.2-6.2,5.5-11.8,8.4-17.7c4.8,4.5,12.1,8.2,13.9,13.7c6.5,19.1,10.6,39,16.6,58.3c19.5,62.8,39.9,125.4,59.1,188.3
	c18.3,60,36.4,120.1,52.8,180.7c5.1,18.8,14.8,23.9,32.3,23.5c29.4-0.7,58.8-0.2,88.2-0.2c31.4,0,62.8-0.5,94.2,0
	c16.8,0.3,24.6-6.4,23.3-23.3c-0.4-6,0-12.2,0-18.2c0.3-263.5,0.4-527,1.1-790.5c0.2-58.7,2.1-117.4,3.9-176.1
	c0.8-26.6-0.4-28.8-28.5-29c-51.7-0.2-103.4-0.2-155,0c-33.5,0-33.7,0.3-33.7,33.9c-0.2,128.7-0.2,257.4-0.3,386.1
	c0,8.1,1.4,16.6-0.6,24.2c-1.8,6.7-7.6,12.3-11.6,18.3c-4.4-4.9-10.7-9-12.9-14.8c-11.1-29.3-21.7-58.8-31.5-88.6
	c-36.2-110.7-72.6-221.3-107.6-332.4c-6.3-20.1-15.9-27.6-36.6-27.1c-50.6,1.1-101.3,0.3-152,0.4c-40.7,0-40.8,0-40.8,39.8
	c0,159.1,0,318.2,0,477.4L1054.4,1163.4z"/>
<path d="M512.9,1292.3c0-126.6,0-253.2,0-379.8c0-37.3-0.4-37.5-36.9-37.7c-27.3-0.2-54.7,0.4-82-0.2c-35.8-0.8-45.2-10.3-45.4-45.4
	c-0.3-53.7-0.3-107.4,0.3-161c0.4-37.7,9.3-46.8,47.1-46.8c187.3-0.3,374.7-0.2,562,0c8,0,16.1,1.2,24.1,2.5
	c15.1,2.5,23.2,11.5,23.2,27c0,64.8,0,129.6-0.4,194.4c-0.1,21.4-15.9,27.3-32.9,28.2c-27.3,1.5-54.6,0.9-82,1.2
	c-5.1,0-10.1,0-15.2,0c-38.8,0.2-38.9,0.2-39,38.3c-0.3,247.1-0.6,494.2-0.9,741.3c0,7.1,0.2,14.2,0,21.3
	c-0.9,28.1-5.9,33.6-34.5,33.7c-84,0.4-168.1,0.4-252.1,0c-32.3-0.1-36.6-4.7-36.7-37.3c-0.2-126.6,0-253.2,0-379.8h1.2
	L512.9,1292.3z M543.5,1264.1h-0.9c0,129.7-0.1,259.3,0,389c0,28.6,1.3,30,28.4,30.2c67.9,0.3,135.7,0.3,203.6,0
	c27.9-0.1,29.1-1.5,29.4-29.2c1.6-128.5,3.4-257,4.3-385.5c0.8-129.6,0.5-259.3,0.8-388.9c0-32.8,2.1-34.8,34-35.1
	c34.4-0.3,68.9,0.2,103.3-0.2c25.2-0.3,26.7-1.5,26.9-25.2c0.5-49.6-0.3-99.3,0.6-148.9c0.4-19.1-7.8-24.2-25.5-24.1
	c-181.3,0.4-362.6,0.1-543.9,0.3c-24.5,0-25.8,1.6-26,26c-0.4,46.6-0.4,93.2-0.2,139.8c0.1,31.7,0.6,32.1,32.4,32.3
	c31.4,0.2,62.8,0,94.2,0c37.6,0.2,38.3,1,38.5,39.8c0,3,0,6.1,0,9.1c0,123.6,0,247.1,0,370.7L543.5,1264.1z"/>
<path d="M2,1166.5c0-164.1,0-328.2,0-492.4c0-45.2,7.5-52.8,53.2-53c73.9-0.3,147.9-0.1,221.8,0c8.1,0,16.3,0.3,24.2,1.7
	c17.1,3.1,27.3,13.1,27.3,31.1c-0.1,59.8-0.4,119.5-0.9,179.3c-0.2,16.2-2.3,32.3-2.4,48.5c-0.6,253.3-1,506.5-1.5,759.8
	c0,9.1,0,18.2-0.2,27.4c-0.9,34.7-6.3,40.4-41.3,40.5c-79,0.2-158,0.2-237,0c-42.5,0-45.1-2.7-45.1-44.5c0-166.1,0-332.3,0-498.4
	c0.7,0,1.3,0,2,0H2z M32.5,1167.1c-0.5,0-1.1,0-1.6,0c0,165.1,0.2,330.3-0.4,495.4c0,14.3,3.4,20.8,18,20.8
	c75-0.2,149.9-0.2,224.9,0c14.4,0,19.9-7.2,19.6-20.8c-0.2-9.1,0-18.2,0.1-27.4c1.6-217.7,3.3-435.5,4.6-653.2
	c0.6-101.3,0.5-202.6,0.5-303.9c0-31.4-0.2-31.6-32.4-31.7c-64.8-0.1-129.7,0-194.5,0c-25.8,0-38.7,12.6-38.8,37.7
	C32.5,845.1,32.5,1006.2,32.5,1167.1L32.5,1167.1z"/>
<path class="st0" d="M1054.4,1163.4h-1.2c0,161.1,0,322.3,0,483.4c0,36.3,0.2,36.4,37.5,36.5c47.6,0,95.3,0,142.9,0
	c37.2,0,37.3-0.1,37.4-36.2c0.2-128.7,0.3-257.4,0.5-386.1c0-8.1-1-16.4,0.5-24.3c1.2-6.2,5.5-11.8,8.4-17.7
	c4.8,4.5,12.1,8.2,13.9,13.7c6.5,19.1,10.6,39,16.6,58.3c19.5,62.8,39.9,125.4,59.1,188.3c18.3,60,36.4,120.1,52.8,180.7
	c5.1,18.8,14.8,23.9,32.3,23.5c29.4-0.7,58.8-0.2,88.2-0.2c31.4,0,62.8-0.5,94.2,0c16.8,0.3,24.6-6.4,23.3-23.3
	c-0.4-6,0-12.2,0-18.2c0.3-263.5,0.4-527,1.1-790.5c0.2-58.7,2.1-117.4,3.9-176.1c0.8-26.6-0.4-28.8-28.5-29
	c-51.7-0.2-103.4-0.2-155,0c-33.5,0-33.7,0.3-33.7,33.9c-0.2,128.7-0.2,257.4-0.3,386.1c0,8.1,1.4,16.6-0.6,24.2
	c-1.8,6.7-7.6,12.3-11.6,18.3c-4.4-4.9-10.7-9-12.9-14.8c-11.1-29.3-21.7-58.8-31.5-88.6c-36.2-110.7-72.6-221.3-107.6-332.4
	c-6.3-20.1-15.9-27.6-36.6-27.1c-50.6,1.1-101.3,0.3-152,0.4c-40.7,0-40.8,0-40.8,39.8c0,159.1,0,318.2,0,477.4L1054.4,1163.4z"/>
<path class="st0" d="M543.5,1264.1h-0.9c0,129.7-0.1,259.3,0,389c0,28.6,1.3,30,28.4,30.2c67.9,0.3,135.7,0.3,203.6,0
	c27.9-0.1,29.1-1.5,29.4-29.2c1.6-128.5,3.4-257,4.3-385.5c0.8-129.6,0.5-259.3,0.8-388.9c0-32.8,2.1-34.8,34-35.1
	c34.4-0.3,68.9,0.2,103.3-0.2c25.2-0.3,26.7-1.5,26.9-25.2c0.5-49.6-0.3-99.3,0.6-148.9c0.4-19.1-7.8-24.2-25.5-24.1
	c-181.3,0.4-362.6,0.1-543.9,0.3c-24.5,0-25.8,1.6-26,26c-0.4,46.6-0.4,93.2-0.2,139.8c0.1,31.7,0.6,32.1,32.4,32.3
	c31.4,0.2,62.8,0,94.2,0c37.6,0.2,38.3,1,38.5,39.8c0,3,0,6.1,0,9.1c0,123.6,0,247.1,0,370.7L543.5,1264.1z"/>
<path class="st0" d="M32.5,1167.1c-0.5,0-1.1,0-1.6,0c0,165.1,0.2,330.3-0.4,495.4c0,14.3,3.4,20.8,18,20.8
	c75-0.2,149.9-0.2,224.9,0c14.4,0,19.9-7.2,19.6-20.8c-0.2-9.1,0-18.2,0.1-27.4c1.6-217.7,3.3-435.5,4.6-653.2
	c0.6-101.3,0.5-202.6,0.5-303.9c0-31.4-0.2-31.6-32.4-31.7c-64.8-0.1-129.7,0-194.5,0c-25.8,0-38.7,12.6-38.8,37.7
	C32.5,845.1,32.5,1006.2,32.5,1167.1L32.5,1167.1z"/>
<path class="st1" d="M1969.3,621.7h1353.2c98,0,177.5,79.5,177.5,177.5v731c0,98-79.5,177.5-177.5,177.5H1969.3
	c-98,0-177.5-79.5-177.5-177.5v-731C1791.8,701.2,1871.3,621.7,1969.3,621.7z"/>
<path class="st2" d="M1969.3,1793h1353.2c98,0,177.5,79.5,177.5,177.5v731c0,98-79.5,177.5-177.5,177.5H1969.3
	c-98,0-177.5-79.5-177.5-177.5v-731C1791.8,1872.5,1871.3,1793,1969.3,1793z"/>
<path class="st3" d="M177.5,1793h1353.2c98,0,177.5,79.5,177.5,177.5v731c0,98-79.5,177.5-177.5,177.5H177.5
	C79.5,2879,0,2799.5,0,2701.5v-731C0,1872.5,79.5,1793,177.5,1793z"/>
</svg>
