<?xml version="1.0" encoding="UTF-8"?>
<svg id="Layer_01" data-name="Layer 01" xmlns="http://www.w3.org/2000/svg" version="1.1" viewBox="0 0 3500 3500">
  <defs>
    <style>
      .cls-1 {
        fill: #12a3aa;
      }

      .cls-1, .cls-2, .cls-3 {
        stroke-width: 0px;
      }

      .cls-2 {
        fill: #934d11;
      }

      .cls-3 {
        fill: #fff;
      }
    </style>
  </defs>
  <path class="cls-1" d="M476,1144.71v775.07c102.78,0,201.35-40.83,274.03-113.5,72.68-72.68,113.51-171.25,113.51-274.04s-40.83-201.35-113.5-274.02c-72.68-72.68-171.25-113.51-274.04-113.51Z"/>
  <path class="cls-1" d="M387.54,1580.22v775.07c-102.78,0-201.35-40.83-274.03-113.5C40.83,2169.11,0,2070.54,0,1967.75s40.83-201.35,113.5-274.02c72.68-72.68,171.25-113.51,274.04-113.51Z"/>
  <path class="cls-2" d="M346.16,1468.94c32.83-39.86,48.42-90.92,43.45-142.32-4.97-51.4-30.05-98.53-69.92-131.37-39.86-32.83-90.92-48.42-142.32-43.45-51.4,4.97-98.53,30.05-131.37,69.92-32.83,39.86-48.42,90.92-43.45,142.32,4.97,51.4,30.05,98.53,69.92,131.37,39.86,32.83,90.92,48.42,142.32,43.45,51.4-4.97,98.53-30.05,131.37-69.92Z"/>
  <path class="cls-3" d="M1095.58,1858.42c85.8,18.02,113.85,47.82,118.63,117.41,1.15,16.77,1.33,33.61,2.15,50.4,5.43,111.93,65.49,204.56,216.56,209.47,31.46,1.02,74.66.88,105.98-1.95,62.72-5.67,100.82-51.69,101.87-127.63-61.38-2.24-123.31-4.5-191.84-7,3.46-17.32,2.73-32.26,9.18-42.83,34.74-56.89,79.27-92.82,153.39-88.98,100.71,5.21,201.9,1.38,302.88,1.29,16.82-.01,33.83.79,50.42-1.38,36.91-4.82,46.69-15.28,49.04-52.61,1.59-25.14,3.41-50.74.53-75.6-6.09-52.48,18.68-83.83,64.25-102.81,14.93-6.22,30.49-10.91,54.73-19.47.68,54.37,1.63,101.86,1.8,149.34q.37,102.35,100.87,102.6c31.55.04,63.29,1.34,94.59-1.59,37.33-3.5,46.99-14.85,49.5-51.97,1.55-23.04-.03-46.27,1.2-69.35,3.72-69.59,37.02-106.33,117.65-124.29,1.29,21.1,3.34,41.04,3.58,61.01.52,44.14.69,88.31-.08,132.45-.54,30.82,14.35,49.56,43.96,50.21,92.49,2.03,185.07,3.42,277.53,1.44,35.67-.76,44.79-15.05,47.26-53.85,1.74-27.25-.29-54.81,2.59-81.89,7.04-66.13,51.96-105.06,130.18-108.73.72,30.69,1.76,61.37,2.09,92.06.33,31.53-.38,63.07,0,94.6.62,51.97,19.46,67.31,69.85,58.34,23.64-4.21,38.41-15.57,38.22-41.48-.14-18.92.37-37.84.43-56.75.31-92.83,24-122.28,123.57-148.84,2.75,13.63,7.44,26.94,7.79,40.36,1.39,52.53.28,105.15,2.34,157.65,1.4,35.54,15.61,46.95,51.86,47.87,38.64.98,57.76-12.52,60.6-47.45,2.89-35.56.27-71.59,3.56-107.09,6.25-67.32,53.39-108.48,128.92-113.4,1.86,9.59,5.37,19.52,5.46,29.49.65,67.27,2.45,134.61.31,201.81-3.32,104.22-73.47,172.29-177.27,174.4-39.82.81-79.58,2.26-116.25-20.5-10.31-6.4-29.39-6.2-41.27-1.32-69.87,28.7-138.29,29.23-208.16-.45-13.19-5.61-31.56-1.68-46.96,1.07-30.41,5.44-60.22,17.69-90.63,18.98-73.51,3.13-147.22,1.54-220.86,1.91-46.32.23-88.36,7.74-131.59-15.33-5.68-3.03-16.77-10.48-24.68-9.55-8.56,1-24.59,11.19-32.63,12.68-28.39,5.27-49.28,8.42-77.74,10.11-50.31,2.99-100.94,1.21-151.42.52-16.67-.23-50.31,1.93-62.32-6.46-19.81-13.83-44.58-17.88-44.58-17.88,0,0-30.26,10.91-50.76,21.01-14.14,6.97-41.96,2.86-58.6,3.37-31.53.96-63.15-.67-94.65.73-24.77,1.1-54.8-2.37-72.38,10.26-13.95,10.02-12.9,41.28-17.95,63.23-22.71,98.68-114.64,176.03-215.79,178.73-60.94,1.63-122-1.28-182.97-.17-65.58,1.19-138.89-27.91-183.14-73.29-40.11-45.32-69.82-101.92-85.01-156.27-24.25-86.77-17.94-173.78-15.82-266.64Z"/>
  <circle class="cls-2" cx="2273.18" cy="1644.92" r="91.75"/>
  <circle class="cls-2" cx="1680.18" cy="1631.63" r="91.75"/>
  <circle class="cls-2" cx="1680.18" cy="1828.42" r="91.75"/>
</svg>