<?xml version="1.0" encoding="utf-8"?>
<!-- Generator: Adobe Illustrator 27.7.0, SVG Export Plug-In . SVG Version: 6.00 Build 0)  -->
<svg version="1.1" id="Layer_1" xmlns="http://www.w3.org/2000/svg" xmlns:xlink="http://www.w3.org/1999/xlink" x="0px" y="0px"
	 viewBox="0 0 3500 3500" style="enable-background:new 0 0 3500 3500;" xml:space="preserve">
<style type="text/css">
	.st0{fill:#0089CF;stroke:#000000;stroke-width:7.4531;stroke-miterlimit:10;}
	.st1{fill:#A0BF35;stroke:#000000;stroke-width:7.4531;stroke-miterlimit:10;}
	.st2{fill:#E43344;stroke:#000000;stroke-width:7.4531;stroke-miterlimit:10;}
	.st3{fill:url(#SVGID_1_);stroke:#000000;stroke-width:7.4531;stroke-miterlimit:10;}
	.st4{fill:#ABABAB;}
	.st5{fill:#EBB80F;stroke:#000000;stroke-width:7.4531;stroke-miterlimit:10;}
	
		.st6{fill:url(#SVGID_00000120546064658184261910000014714276597835319429_);stroke:#000000;stroke-width:7.4531;stroke-miterlimit:10;}
	
		.st7{fill:url(#SVGID_00000096757165365324851370000017097414815883903140_);stroke:#000000;stroke-width:7.4531;stroke-miterlimit:10;}
</style>
<g>
	<path class="st0" d="M1030.9,1268.8c-0.2,21.5-13.2,43.2-21.5,64.2c-6.1,15.5-14.2,30.1-21.5,45.2
		c-37.2,52.2-74.4,104.3-111.6,156.5c-64.5,89.4-128.9,178.8-193.3,268.2c-12.5,17.4-24.8,34.8-37.2,52.2l-0.6-0.2
		c-7.7,12.7-21.2,30.5-43.3,42s-42.8,11.8-51,11.8c-169.8-1.6-339.6-0.7-509.3-0.8c-37.9,0-39.9-2.7-35.1-40.4
		c8.6-68.9,42.8-125.7,82.1-180.7c196.6-275.3,391.8-551.8,589.3-826.5c58.7-81.6,105.8-174,195.6-229.2c0.5-0.3-0.1-2.4-0.2-3.6
		c23.2-6,46.5-11.8,69.8-17.8c14.1,0.8,28.3,3.1,42.3,1.9c43.5-3.6,46.3-1.6,46.4,42.6C1031.8,859.2,1032.4,1064,1030.9,1268.8z"/>
	<path class="st1" d="M1636.4,1887.7c0.7,18-3.9,27.2-24.5,27.1c-167.2-0.6-334.5-0.8-501.7,0.1c-23.9,0.2-25.3-11.9-25.2-30.1
		c0.6-65.8,0.3-131.6,0.3-197.4V659.6c0-40.4,0.2-40.5,40-40.5c91.7,0,183.5-3.5,274.9,1.4c86.6,4.7,116.7,7.8,151.5,29.9
		c28.1,17.9,44,38.8,48.4,44.7c38.1,52,35.3,113.8,35.3,135c0.4,330.2,0.6,660.4,0.8,990.6
		C1636.2,1843.1,1635.5,1865.4,1636.4,1887.7z"/>
	<path class="st2" d="M1814.9,2490.4c-48.9,6.2-98.7,6.4-148,6.1c-25.1-0.1-31.7,8.2-31.1,32.1c1.3,48.4,5,97.6-2.1,145
		c-17,113.4-88.8,177.8-197.1,206.7c-132.5,35.4-274.6-25.6-326.4-146.5c-15.3-35.5-23.8-76.6-24.2-115.2
		c-2.4-207.3-0.5-414.6-1.9-621.9c-0.2-31.4,12-37.2,39.4-36.9c109,1.1,218.1,0.4,327,0.4c107.8,0,215.6-0.9,323.3,0.2
		c90,1,167.2,30,220.5,107.9C2090.6,2208.6,2041.5,2461.6,1814.9,2490.4z"/>
	
		<linearGradient id="SVGID_1_" gradientUnits="userSpaceOnUse" x1="2275.1448" y1="-455.0219" x2="2275.1448" y2="-2362.2771" gradientTransform="matrix(1 0 0 -1 0 268)">
		<stop  offset="0" style="stop-color:#EA6521"/>
		<stop  offset="1" style="stop-color:#F7BA0C"/>
	</linearGradient>
	<path class="st3" d="M2773.4,2629.9c-162.7-0.9-325.7,3.5-488-4.8c-89.1-4.6-176.5-32-249.2-90.6c-12.3-8.7-24.5-17.4-36.8-26.1
		c-18.5-13.9-37.6-27-54.7-42.4c-3.1-2.8-0.3-18.3,4.5-22.4c38.9-34.3,58-80.5,78.3-126.1c15.1-77.3,10.7-152.1-26.7-223.2
		c-39.7-75.6-103.2-119-185.4-134.6c-27.5-5.1-38.9-13.6-38.5-44.3c1.6-156.4,0.8-312.9,0.8-469.3c-0.1-231.8,0.2-463.6-0.8-695.5
		c-0.1-25.1,10.9-28.5,31.4-27.4c115.4,6.4,229.7,16.6,328.7,85.9c101.6,92,130.1,212.9,132.4,342.8c1.7,95.5-0.6,191-1.1,286.6
		c0.2,148.5,0.5,296.9,0.8,445.3c0.1,37.9-0.1,75.7-0.1,113.5c1.2,13.8,3.1,33.7,6.1,57.5c0.9,7.2,15.1,116.6,37.3,188.9
		c12.8,41.7,54.7,153.4,151.4,241c73.1,66.3,165.8,110,277.4,132.1C2752.2,2619,2762.6,2625.5,2773.4,2629.9z"/>
	<polygon class="st4" points="1584.9,1943.2 1587.1,1940.7 1589.1,1943.4 1586.9,1943.5 	"/>
	<path class="st5" d="M1028.9,2451.7c0,45-0.1,45-47,45c-227.9,0.1-455.9,0.1-683.8,0C110,2496.6,3.2,2390.9,0.9,2201.9
		c-0.8-69.5,1-139.1-0.8-208.5c-0.6-26,6.6-33.8,32.9-33.5c120.4,0.8,240.8,0.8,361.2,0.6h125.7c158.5,0,317.1,0.5,475.7-0.6
		c26.2-0.2,34.7,3.7,34.4,33.8C1027.7,2146.2,1028.9,2299,1028.9,2451.7z"/>
	
		<linearGradient id="SVGID_00000070096724429692029070000001780147617701420931_" gradientUnits="userSpaceOnUse" x1="3184.9001" y1="-1868.1001" x2="3184.9001" y2="-455.2809" gradientTransform="matrix(1 0 0 -1 0 268)">
		<stop  offset="0" style="stop-color:#A51B72"/>
		<stop  offset="1" style="stop-color:#E82E5D"/>
	</linearGradient>
	
		<path style="fill:url(#SVGID_00000070096724429692029070000001780147617701420931_);stroke:#000000;stroke-width:7.4531;stroke-miterlimit:10;" d="
		M3500,1557.8c-4.1,32.1-8.2,64-12.4,96c-40.5,240.9-196.4,405.8-434.7,456.1c-60.2,12.7-122.1,17.7-183.1,26.2
		c26.2-19,54-36.1,78.1-57.5c38.9-34.7,55.5-80.9,56-132.3c0.8-95.1,0.6-190.3,0.8-285.4c0-168.1-0.4-336.2,0.4-504.3
		c0.1-18.3,2.8-46.2,7.5-80.9c3.6-26.7,8.6-62.8,18.4-93.6c20.2-63.8,61.9-103.3,81.9-126.2c73.4-84.1,174-113.9,281.1-125.9
		c25.8-2.9,51.7-4.1,77.6-6.5c17.5-1.6,23.9,5.5,23.9,23.3c0.8,220.8,2.2,441.7,3.5,662.5c0,2.5-0.7,4.9-1,7.4
		c0.1,5.7,0.1,11.5,0.2,17.2v0.4C3498.9,1475.4,3499.5,1516.6,3500,1557.8z"/>
	
		<linearGradient id="SVGID_00000100364940389523213760000007426983989438904968_" gradientUnits="userSpaceOnUse" x1="2268.7" y1="-1826.0641" x2="3499.9998" y2="-1826.0641" gradientTransform="matrix(1 0 0 -1 0 268)">
		<stop  offset="0" style="stop-color:#057B85"/>
		<stop  offset="1" style="stop-color:#56D8F0"/>
	</linearGradient>
	
		<path style="fill:url(#SVGID_00000100364940389523213760000007426983989438904968_);stroke:#000000;stroke-width:7.4531;stroke-miterlimit:10;" d="
		M3499.7,1655.7c0,6.6,0.1,13.3,0.1,20.1c-0.6,27.4-1.2,54.9-1.8,82.4v15.7c-0.1,89.1-0.1,178.3-0.1,267.4
		c-0.4,10.4-0.7,20.6-1,30.9c-0.8,19.8-1,33.2-1.1,35.7c-0.9,26.9-9.2,70.3-17.4,100.6c-30,110.5-90.9,193-90.9,193
		c-18.3,24.7-68.6,88.5-155.1,141.8c-23.9,14.7-73.9,43.8-144.1,63c-37.4,10.2-76,16.4-116,18.4c-25.9,1.9-51.6,4.8-77.5,5.4
		c-40.5,0.8-80.9-0.1-121.4-0.2c-8.8-1.9-21.3-4.8-36.2-8.8c-56.2-15.1-173.7-46.7-273.7-136.5c-92.2-82.7-133-182-151.4-241
		c-15.4-57.2-28.6-120.4-37.3-188.9c-2.5-19.6-4.5-38.8-6.1-57.5c6.6,9.2,12.8,18.9,20.1,27.7c12.8,15.6,26.2,30.5,39.4,45.7l-1,0.5
		c2.5,2.5,4.9,5,7.4,7.4c2.5,2.5,5,5.1,7.5,7.5l0.5-1c32.1,45.4,81.7,51.9,130.4,52.8c119.7,2.4,239.5,1.1,359.3,1.3
		c12.4-1,25-2.1,37.5-3.1c61-8.6,122.9-13.6,183.1-26.2c238.3-50.3,394.1-215.2,434.7-456.1c4.2-32,8.3-63.9,12.4-96
		C3499.9,1590.4,3499.8,1623,3499.7,1655.7z"/>
</g>
</svg>
