<?xml version="1.0" encoding="utf-8"?>
<!-- Generator: Adobe Illustrator 27.7.0, SVG Export Plug-In . SVG Version: 6.00 Build 0)  -->
<svg version="1.1" id="Layer_1" xmlns="http://www.w3.org/2000/svg" xmlns:xlink="http://www.w3.org/1999/xlink" x="0px" y="0px"
	 viewBox="0 0 3500 3500" style="enable-background:new 0 0 3500 3500;" xml:space="preserve">
<style type="text/css">
	.st0{fill:#970E00;}
	.st1{fill:#FFFDFA;}
	.st2{fill:#FFFFFF;}
</style>
<rect y="1460" class="st0" width="1632.4" height="579.9"/>
<g>
	<path class="st1" d="M2850.4,1669.1v28.7c1.9-1.8,3.3-2.8,4.5-4.1c17.4-17.5,38.2-28.2,62.7-31c15.7-1.8,31.3-1.2,46.3,4.7
		c17.5,6.9,30.3,19.1,39.9,35c1,1.7,2,3.4,3.2,5.5c1.8-2.2,3.4-4.2,5-6.2c14-18.1,31.7-31.1,54.2-36.4c31-7.2,60.3-4.1,86.2,16.1
		c15.5,12.1,23.9,28.5,26.4,47.6c1.8,13.3,3.1,26.8,3.2,40.3c0.4,51.2,0.2,102.4,0.2,153.6c0,1.4-0.1,2.7-0.2,4.4h-65.3v-7.3
		c0-40.9,0.2-81.8-0.1-122.6c0-11.7-1.2-23.3-2.2-35c-0.6-7.3-2.7-14.4-6.2-21c-6.9-12.9-17.7-19.3-32.2-20
		c-15.4-0.7-29.1,3-40,14.5c-8,8.4-13.4,18.4-15.3,29.8c-2,12.1-3.6,24.4-3.8,36.6c-0.5,39.1-0.2,78.2-0.2,117.3c0,2.4,0,4.7,0,7
		c-4.4,1.3-54.3,1.8-65.5,0.6c0-2,0-4.1,0-6.2c0-37.9,0.2-75.8-0.1-113.7c-0.1-12.9-1.1-25.7-2.3-38.5c-0.9-10.1-3.7-19.9-8.8-28.8
		c-6.7-11.9-17.2-17.6-30.6-18.4c-15.9-0.9-29.9,3.3-40.6,15.7c-9.1,10.5-14.3,22.9-15.9,36.6c-1.5,12.8-2.4,25.7-2.6,38.5
		c-0.3,36.1-0.1,72.2-0.1,108.4c0,2.1,0,4.3,0,6.7h-65v-258.4h65L2850.4,1669.1z"/>
	<path class="st1" d="M1965.8,1823.3c14.7,15.3,29.5,30.7,44.5,46.3c-0.7,0.9-1.2,1.7-1.9,2.4c-19.8,18.8-40.7,36-65.5,47.8
		c-20.1,9.5-41.4,14.4-63.5,16.4c-18.1,1.6-36.1,1.4-54-1.4c-64.2-9.9-110.6-43.9-137.8-103.1c-8.2-17.8-12.2-36.7-14.1-56.2
		c-1.7-17.1-1.7-34.1,0.5-51.1c5.7-45.9,26.1-83.9,62.9-112.7c22.9-17.9,48.4-30.8,76.8-37.7c23.2-5.6,46.6-6.3,70.3-3.8
		c23.7,2.5,46.2,9.1,67.3,20c23.4,12.1,43.1,28.8,60.7,49.1c-15.6,14.9-31,29.6-46.4,44.3c-6.5-6-12.5-11.8-18.8-17.1
		c-18.3-15.4-39-26.4-62.7-31.1c-61.1-12.1-115.1,17.9-137,71.6c-4.9,12-7.4,24.6-7.9,37.6c-0.6,16.9,0.4,33.7,5.4,50
		c9.7,31.2,29.9,53.7,59.3,66.8c46.1,20.5,90.7,17,132-13.1C1946.1,1840.9,1955.3,1832,1965.8,1823.3L1965.8,1823.3z"/>
	<path class="st1" d="M3435.3,1696.4v-27.2h64.7v258.1h-64.7V1901c-3.6,3-6.1,5.1-8.6,7.2c-15.6,12.8-33.1,22.2-53.1,25.1
		c-37.7,5.5-71.2-4-98.9-30.9c-23.5-22.7-37.6-50.4-41.4-82.9c-4.3-37.3,1.2-72.8,22.6-104.6c15-22.4,34.4-39.7,60.6-47.4
		c40-11.8,77.2-6.1,110,21.2c2.6,2.1,5,4.4,8.8,7.6L3435.3,1696.4z M3367.4,1874.5c27.9,0,49-12,61.9-36.7
		c10.7-20.3,12.4-42.2,6-64.1c-8.7-29.9-28.4-47.8-60.1-51.2c-29-3.1-54.2,8.7-67.7,33.4c-15.1,27.5-15.2,56,0,83.5
		C3320.3,1862.5,3340.6,1874.5,3367.4,1874.5L3367.4,1874.5z"/>
	<path class="st1" d="M2660.9,1852.7c17.9,8.4,35.8,16.7,54.2,25.4c-1.2,1.8-2,3.3-3,4.6c-20.4,26.7-47.1,43.1-80.2,49.1
		c-30.6,5.6-61,4.9-90-7.2c-40.8-17-67.8-46.9-77.4-90.6c-7.9-35.8-5-70.7,12.7-103.3c18.8-34.5,47.3-57.1,86-65.6
		c19.7-4.3,39.7-4.1,59.7-0.8c30.3,5,55.6,18.9,76,41.8c18.2,20.5,28.4,44.5,32.3,71.5c1.9,13,1.1,26,1.2,39.7h-208.5
		c0.7,9.3,3.7,17.3,7.9,24.7c9.7,17.2,24.5,28,43.6,32.2c30.6,6.8,58.6,1.3,82.9-19.6C2659,1854,2659.9,1853.4,2660.9,1852.7
		L2660.9,1852.7z M2666.9,1765.6c-6.5-26.8-35.4-49-70.7-48c-34.2,0.9-58.8,18.3-68.8,48h139.4H2666.9z"/>
	<path class="st1" d="M2409.8,1927.5h-64.3c0-2.6,0-4.9,0-7.2c0-44.1,0-88.1-0.2-132.2c0-13.3-1.2-26.5-5.5-39.3
		c-4.8-14-13.6-24-28.5-26.4c-20.6-3.4-39.5,1.4-52.4,21c-9.4,14.3-13.2,30.5-13.4,47.4c-0.5,31.1-0.7,62.3-0.9,93.5
		c0,12.3,0,24.6,0,36.9s0,3.9,0,6.2h-64.2v-258.3h64.3v25.5c3.5-2.6,5.9-4.5,8.4-6.4c13.5-10,27.8-18.3,44.1-22.8
		c37.3-10.3,77.2,2.4,98.8,34.4c7.1,10.5,10.7,22.5,12.4,35c0.9,6.5,1.4,13,1.4,19.5c0.1,56,0,111.9,0,167.9
		C2409.8,1923.8,2409.8,1925.3,2409.8,1927.5L2409.8,1927.5z"/>
	<path class="st1" d="M2056.4,1669.1h64.7v258.3h-64.7V1669.1L2056.4,1669.1z"/>
	<path class="st1" d="M2130.2,1605c1,21.4-17.2,41.8-41.2,41.8c-23.2,0-41.7-19-41.6-42.9c0-22.8,18.4-40.8,41.4-41.1
		c23.3-0.2,42.5,19.9,41.5,42.2H2130.2z"/>
</g>
<g>
	<path class="st1" d="M431.9,1629.8c-15.6,16.4-30.5,32-45.6,47.8c-3.3-3.1-6.3-6-9.3-8.8c-20.7-19.2-44.7-32.2-72.7-36.5
		c-51.5-7.9-100.5,10.8-129,58.8c-10.7,18-14.3,37.9-14.5,58.7c-0.4,61.8,42.7,101.1,81.7,113.9c30.9,10.2,62,10.7,92.2-2.9
		c22-9.9,36.6-27.2,46.8-48.6c0.2-0.3,0-0.8,0-2.1c-6.5-0.4-13.1-0.1-19.7-0.2c-6.5,0-13.1,0-19.6,0h-39.9c-6.7,0-13.4,0-20.5,0
		v-62.1h175.6c0.1,1.3,0.4,2.8,0.5,4.3c1.2,21.8-0.6,43.2-8.2,63.8c-14.9,40.4-38.4,74.1-76.3,96.3c-21.7,12.7-45.5,18.9-70.5,21.1
		c-19.3,1.7-38.4,0.9-57.5-2.4c-49-8.5-88.6-32.2-117.3-73.1c-16.6-23.7-27.5-50-32.1-78.6c-15.3-95.5,40.8-173.8,116.2-201.9
		c19.1-7.1,39-10.6,59.3-11.1c14.5-0.3,28.9,0,43.3,2.1c36.6,5.5,69.1,19.9,97.4,43.7c7.1,6,13.7,12.6,19.6,17.9L431.9,1629.8z"/>
	<path class="st1" d="M1538.9,1924.5h-64.1v-26.9c-2.7,2.3-4.3,3.6-5.9,4.9c-15.1,13-31.9,22.9-51.7,26.8
		c-36.6,7.1-69.9-0.5-98.2-25.2c-27.1-23.6-42.7-53.5-46.8-89.5c-3.7-32.8,0.8-64.1,17-93.1c13.5-24.2,31.8-43.9,58.2-53.9
		c44-16.6,84.8-10.8,121,20.5c1.8,1.5,3.5,3.1,6.1,5.4v-127.2h64.4V1924.5L1538.9,1924.5z M1477.2,1794.9c0-2.4,0-4.8,0-7.1
		c-1.1-32.1-23.7-65.1-63.3-68.5c-32.1-2.7-58.3,12.2-71.2,40.7c-6.4,14.3-7.8,29.3-6.3,44.8c2.3,23,12.5,41.5,31.1,55.1
		c13.1,9.5,28.1,12.3,44,11.4c20.1-1.1,36.7-9.1,49.3-24.9C1472.9,1831.4,1477.5,1813.9,1477.2,1794.9z"/>
	<path class="st1" d="M924.4,1924.3h-64.7v-26.2c-2.2,1.7-3.5,2.6-4.8,3.7c-15.5,13.5-32.8,23.7-53.2,27.6
		c-35,6.6-67.2-0.3-94.9-23.1c-25.9-21.3-42.2-48.7-47.9-81.9c-6.2-36-2.5-70.8,15.5-103.1c13.4-24,31.6-43.6,57.7-53.6
		c43.2-16.5,83.6-11.4,119.7,18.8c2.3,1.9,4.5,3.9,7.6,6.6V1666h64.9v258.2L924.4,1924.3z M792,1871.4c31.3,0.6,54-17.4,64.4-42.2
		c7.5-17.9,8.3-36.5,4.2-55.4c-5.4-24.7-25.4-51-60.7-54.3c-31.3-2.9-57,10.9-70.3,37.4c-9.2,18.4-10.4,37.9-6.3,57.9
		c5.1,25.6,28.4,57.9,68.8,56.6H792z"/>
	<path class="st1" d="M1219.9,1924.5h-64.2c0-2.4,0-4.7,0-7c0-43.7,0-87.3-0.1-131c0-13.7-1.2-27.3-5.5-40.5
		c-5.7-17.1-18-27.8-38.9-27.7c-21.3,0-36.3,9.6-45.8,28.2c-6.4,12.5-9.5,26-9.6,40.1c-0.4,43.4-0.7,86.9-1,130.3c0,2.3,0,4.7,0,7.3
		h-64.2v-258.3h64v25.5c2.8-2.1,4.7-3.4,6.5-4.8c14-10.7,28.8-19.9,46-24.2c36-9.2,67.5-1.3,93.2,26.3c9.7,10.4,15,23.3,17.3,37.2
		c1.6,9.9,2.4,20.1,2.5,30.2c0.2,53.8,0.1,107.5,0.1,161.3v7L1219.9,1924.5z"/>
	<path class="st1" d="M615.6,1721.4c-3.8-1.5-6.9-2.8-10.1-3.8c-10.2-3.2-19.1-1.3-26.6,6.6c-8.6,9.2-12.5,20.5-14.8,32.5
		c-2.9,15.5-3.2,31.1-3.2,46.8c0,38.9,0.3,77.7,0.4,116.6c0,1.3-0.1,2.7-0.2,4.3h-64.2V1666h54.9v30c0.4,0.1,0.8,0.2,1.2,0.4
		c1.2-1.9,2.3-3.9,3.5-5.8c9.4-16.2,22.5-27.6,41.5-30.7c13-2.1,25.6-0.8,37.6,6.2C629,1684.5,622.4,1702.7,615.6,1721.4
		L615.6,1721.4z"/>
</g>
<rect x="1698.9" y="1460" class="st2" width="1801.1" height="42.2"/>
<rect x="1698.9" y="1997.8" class="st2" width="1801.1" height="42.2"/>
</svg>
