<?xml version="1.0" encoding="utf-8"?>
<!-- Generator: Adobe Illustrator 27.7.0, SVG Export Plug-In . SVG Version: 6.00 Build 0)  -->
<svg version="1.1" id="Layer_1" xmlns="http://www.w3.org/2000/svg" xmlns:xlink="http://www.w3.org/1999/xlink" x="0px" y="0px"
	 viewBox="0 0 3500 3500" style="enable-background:new 0 0 3500 3500;" xml:space="preserve">
<style type="text/css">
	.st0{fill:url(#SVGID_1_);}
</style>
<linearGradient id="SVGID_1_" gradientUnits="userSpaceOnUse" x1="-7.264689e-02" y1="-1249.905" x2="3500.1001" y2="-1249.905" gradientTransform="matrix(1 0 0 1 0 3000)">
	<stop  offset="0" style="stop-color:#FDBF1B"/>
	<stop  offset="1" style="stop-color:#A36D0A"/>
</linearGradient>
<path class="st0" d="M1091.4,2081.2c38.7,3.3,73.6,8.1,108.5,8.8c43.2,0.8,55.7-13,55.9-55.8c0.3-49.2,3-98.6-0.4-147.6
	c-2.8-41.8,11.9-73.5,42.3-98.8c35.3-29.4,71.8-57.3,108.2-85.4c4.7-3.6,11.5-4.3,18.5-6.8c0,42.8,0.8,83.2-0.4,123.6
	c-0.6,19.1,5.6,25,24.8,24.6c60.8-1.4,121.6-1.6,182.4-0.7c18.5,0.3,24.6-3.8,24.5-23.8c-0.9-178.1,0-356.1-1.1-534.2
	c-0.2-28.1,7.4-50.1,29.5-65.5c43.1-30.2,87.3-59,131.1-88.2c1.6-1.1,4-1,7.4-1.7v479.6c11.9-5.8,22.1-8.7,29.7-14.8
	c21.2-17.2,44.1-24.2,71.8-24c186.7,1.4,373.5,1,560.2,2.2c21.2,0.1,43.2,4,63.1,11.3c9.8,3.6,20.4,18,21.9,28.8
	c20.2,136,7.6,272.9,9.7,409.4c0,2.8-1.1,5.6-2.4,12.2h-40c-349.6-0.1-699.2-0.3-1048.8-0.4c-54.2,0-53.8,0.3-62.8,54.3
	c-9.5,56.8-30.3,108.1-82.7,138.3c-18.1,10.5-40.6,14.1-61.5,18.8c-19.6,4.4-39.9,8.9-59.7,8.1c-14.6-0.6-30.4-7.1-43-15.2
	c-47.2-30.4-76-74.2-86.3-129.5C1090,2099.2,1091.5,2089,1091.4,2081.2L1091.4,2081.2z M2118.8,1843.4v-0.5
	c92.5,0,185.1,0.3,277.6-0.2c29.7-0.1,46.8-20.6,39.6-49.7c-3.4-13.9-11.3-28.7-21.5-38.7c-25.1-24.9-56.8-35.4-92.5-35.4
	c-160.5,0-320.9-0.2-481.4-0.8c-16.7,0-21.3,6.5-20.8,21.9c0.8,27.4,0.9,54.9,0,82.4c-0.5,15.9,5.1,21.4,21.3,21.3
	C1933.6,1843.1,2026.2,1843.4,2118.8,1843.4L2118.8,1843.4z M3210.4,1843.3c-104.9,0.3-209.8,0-314.7,1.3
	c-22,0.3-28.9-6.5-28.8-28.2c1.1-162.8,1.3-325.6,1.7-488.4c0.1-64,0-128,0-193.2c-3.9,1.4-9.1,2.1-12.8,4.8
	c-29.3,22.1-58.6,44.3-87.4,67c-35.9,28.2-49.8,64-49.3,111.1c2.1,219.2,0.9,438.5,1.1,657.7c0,11.5,0.1,23.3,2.5,34.4
	c5.4,25.2,12,28.9,37.5,25.3c7.9-1.1,15.9-1.3,23.8-1.3c218.5-0.6,437-1.4,655.6-1.3c18.1,0,25.6-5.1,28.8-23
	c10.1-55.2,21.7-110.1,31.7-160c-35.1-29.7-76.3-53.7-102.3-88.9c-38.2-51.7-69.5-109.7-96.3-168.3
	c-24.6-53.8-103.7-109.7-171.2-63.6c-27,18.4-45.8,42.7-54.1,73.3c-11.1,41.3-7.2,82,13.8,122.3c10.9-7.1,19.2-15.4,29.1-18.2
	c12.2-3.5,28.9-8,38-2.5c50.6,30.2,65.7,82.6,82,138.4c-12.9,0.6-20.8,1.3-28.6,1.3L3210.4,1843.3z M621.6,2033.7
	c0-78.1,0.7-154-0.2-229.8c-0.8-67.1,25.7-121.5,73.6-166.7c32.2-30.4,72.3-43.6,114.9-50.2c32.8-5.1,65.6-11.1,98.6-13.4
	c26.4-1.9,39.7-17.9,54.5-36.3c11.9-14.9,26.8-28.3,42.9-38.6c15.3-9.8,26.2-0.9,26.1,17.2c-1.1,151.1-1.8,302.2-3.1,453.2
	c-0.2,20.7,4.6,48-6.4,59.9c-9.6,10.4-38.1,3.8-58.2,3.9c-112.8,0.7-225.6,1.1-338.3,1.6c-2,0-4.1-0.9-4.3-1L621.6,2033.7z
	 M759.1,1842.6c38.2,0,74.1,0.5,109.9-0.6c4.4-0.1,11.9-8.4,12.2-13.3c1.8-33,2.6-66.1,2.4-99.1c0-4.8-7-13-11.6-13.7
	c-35.1-5.1-66.1,3.1-87.4,33.8C766,1776.5,758.6,1806.8,759.1,1842.6L759.1,1842.6z M235.9,1830.3c-6.1,1.1-12.5,1.3-18.2,3.4
	c-57.9,22.4-115.9,44.5-173.3,67.9c-50,20.4-58.9,66.6-21.3,105.2c24.7,25.4,49.6,50.6,74.3,76c97.1,100.2,193.9,200.5,291.2,300.5
	c26,26.8,53.2,52.4,74.1,72.9c31.2-8.3,55.7-13.1,78.9-21.3c24.3-8.7,47.7-20.4,71.2-31.4c22.9-10.7,45.4-22.4,68.2-33.2
	c23.5-11.1,47.4-21.4,70.9-32.5c22.4-10.5,44.6-21.5,66.8-32.2c-1.3-2.8-2.6-5.6-4-8.5c-65.1,21.2-131,40.2-195,64.3
	c-41.9,15.8-75,6.9-104.7-22.4c-75.6-74.6-150.7-149.6-226-224.6c-49.5-49.3-99.4-98.2-148.1-148.2c-26.3-27-23.4-57.4,6.6-79.8
	c12.6-9.4,27.1-16.5,41-24.1c16.5-9.1,33.3-17.7,50-26.5c-0.9-2-1.8-3.9-2.6-5.9L235.9,1830.3z M717.3,1399.3
	c-71,13.5-142.1,26.2-213.1,39.4c-51.1,9.5-102.3,18.5-153,29.8c-31,6.9-54.7,26.7-58.9,59c-3.1,23.7-2.3,50,4.7,72.6
	c40.5,129.6,83.3,258.4,125.8,387.4c7.2,21.9,16.3,43.3,24.5,64.9c1.7-0.5,3.5-1,5.2-1.6c-1-7.7-1.5-15.6-3.1-23.2
	c-4.7-21.9-10.6-43.5-14.6-65.4c-11.1-59.7-21.8-119.4-32-179.2c-9.7-56.9-19-113.9-27.4-171.1c-6.1-41.8,9.6-73.5,48.4-92.3
	c11.6-5.7,23.4-11.7,35.8-15c64.9-17.3,130-33.7,195-50.5c70.6-18.2,141-37.2,211.8-54.2c88.4-21.3,177.3-40.8,265.9-61.4
	c6.9-1.6,13.2-5.7,19.7-8.7c-4.8-3.4-8.3-3.6-11.7-3c-100.2,17.6-200.4,35.4-300.8,52.4c-8,1.4-21.4-0.4-24.3-5.3
	c-3.4-5.9-0.7-18.4,3.6-25.4c50.5-82.4,101.5-164.6,153.4-246.2c9.3-14.6,22-28.3,36.1-38.1c12.7-8.9,28.5-29.8,19.6-40.9
	c-7.1-8.9-22.9-15.2-34.7-14.9c-17.2,0.4-24.5,13.6-24.3,32c0.2,12.2-1.8,26.3-8,36.4c-53.7,87.2-108.5,173.8-163.2,260.4
	c-13.2,21-36.3,24.8-55.7,9.6c-77.7-61-155.3-122.1-232.6-183.6c-15.4-12.2-38.5-20.6-30-48.3c0.4-1.4-1.7-5.2-3-5.3
	c-12.9-1.4-27.6-6.6-38.3-2.2c-12,4.9-25.1,16.5-17.6,34.6c6.2,15,15.8,23.1,33.9,18.8c6.7-1.6,16.6,1,22,5.4
	C541,1218,605,1270.6,669.3,1322.9c24.5,19.9,49.2,39.5,78.9,63.3c-14.6,6.4-22.5,11.7-31.1,13.4L717.3,1399.3z M3154.8,1197.7
	c-66,0-119.6,53.5-119.6,119.6s53.5,119.6,119.6,119.6s119.6-53.5,119.6-119.6S3220.9,1197.7,3154.8,1197.7z M1645.8,2486.8V2186
	h60.7v133.6l122.7-133.6h81.7l-113.3,117.2l119.4,183.7h-78.6l-82.7-141.2l-49.2,50.3v90.9L1645.8,2486.8L1645.8,2486.8z
	 M2005.5,2186v110.6c18.6-21.8,40.8-32.6,66.7-32.6s25.2,2.5,35.9,7.4s18.7,11.2,24.1,18.9c5.4,7.7,9.1,16.1,11.1,25.4
	s3,23.7,3,43.3v127.8h-57.7v-115.1c0-22.9-1.1-37.4-3.3-43.5c-2.2-6.2-6.1-11-11.6-14.7s-12.5-5.4-20.8-5.4s-18.1,2.3-25.7,7
	c-7.5,4.6-13,11.7-16.5,21s-5.2,23.2-5.2,41.6v109.2h-57.7v-300.8L2005.5,2186L2005.5,2186z M2247.9,2335.4l-52.3-9.4
	c5.9-21.1,16-36.7,30.4-46.8s35.7-15.2,64-15.2s44.9,3.1,57.5,9.1c12.6,6.1,21.4,13.8,26.6,23.2c5.1,9.4,7.7,26.6,7.7,51.6
	l-0.6,67.3c0,19.1,0.9,33.3,2.8,42.4s5.3,18.9,10.4,29.2h-57.1c-1.5-3.8-3.4-9.5-5.5-17c-1-3.4-1.6-5.7-2.1-6.8
	c-9.9,9.6-20.4,16.8-31.6,21.6c-11.2,4.8-23.2,7.2-35.9,7.2c-22.4,0-40.1-6.1-53.1-18.3s-19.4-27.6-19.4-46.2s2.9-23.3,8.8-32.9
	c5.9-9.6,14.1-17,24.7-22.2c10.6-5.1,25.9-9.6,45.9-13.4c26.9-5.1,45.6-9.8,56-14.2v-5.7c0-11.1-2.7-19-8.2-23.7s-15.8-7.1-31-7.1
	s-18.3,2-24,6.1C2256.2,2318.2,2251.5,2325.3,2247.9,2335.4L2247.9,2335.4z M2325,2382.1c-7.4,2.5-19.1,5.4-35.1,8.8
	c-16,3.4-26.5,6.8-31.4,10.1c-7.5,5.3-11.3,12.1-11.3,20.3s3,15.1,9,20.9c6,5.9,13.7,8.8,23,8.8s20.3-3.4,29.8-10.3
	c7-5.2,11.6-11.6,13.8-19.1c1.5-4.9,2.3-14.3,2.3-28.1V2382l0,0L2325,2382.1z M2538.4,2268.9v46H2499v87.8c0,17.8,0.4,28.1,1.1,31.1
	c0.8,2.9,2.5,5.4,5.1,7.3c2.7,1.9,5.9,2.9,9.8,2.9s13.1-1.8,23.2-5.5l4.9,44.7c-13.4,5.8-28.6,8.6-45.6,8.6s-19.8-1.7-28.1-5.2
	c-8.4-3.5-14.5-8-18.4-13.5s-6.6-13-8.1-22.5c-1.2-6.7-1.9-20.2-1.9-40.6v-95h-26.5v-46h26.5v-43.3l57.9-33.7v76.9h39.4H2538.4z
	 M2704.6,2417.4l57.5,9.6c-7.4,21.1-19.1,37.1-35,48.1s-35.9,16.5-59.8,16.5c-37.9,0-65.9-12.4-84.1-37.1
	c-14.4-19.8-21.6-44.9-21.6-75.1s9.4-64.4,28.3-84.9c18.9-20.4,42.8-30.7,71.6-30.7s58,10.7,76.8,32.1
	c18.7,21.4,27.7,54.2,26.9,98.4h-144.5c0.4,17.1,5.1,30.4,13.9,39.9s20,14.3,33.2,14.3s16.6-2.5,22.8-7.4
	S2701.4,2428.2,2704.6,2417.4L2704.6,2417.4z M2707.9,2359.1c-0.4-16.7-4.7-29.4-12.9-38.1c-8.2-8.7-18.2-13-30-13
	s-23,4.6-31.2,13.8s-12.2,21.6-12.1,37.4L2707.9,2359.1L2707.9,2359.1z M2867.4,2486.8h-57.7v-217.9h53.6v31
	c9.2-14.6,17.4-24.3,24.7-28.9s15.6-7,24.9-7s25.8,3.6,38,10.9l-17.9,50.3c-9.7-6.3-18.7-9.4-27.1-9.4s-14.9,2.2-20.5,6.7
	s-10,12.5-13.2,24.1s-4.8,36-4.8,73.1v67.3l0,0V2486.8z M3101.9,2417.4l57.5,9.6c-7.4,21.1-19.1,37.1-35,48.1s-35.9,16.5-59.8,16.5
	c-37.9,0-65.9-12.4-84.1-37.1c-14.4-19.8-21.6-44.9-21.6-75.1s9.4-64.4,28.3-84.9c18.9-20.4,42.8-30.7,71.6-30.7s58,10.7,76.8,32.1
	c18.7,21.4,27.7,54.2,26.9,98.4H3018c0.4,17.1,5.1,30.4,13.9,39.9s20,14.3,33.2,14.3s16.6-2.5,22.8-7.4S3098.7,2428.2,3101.9,2417.4
	L3101.9,2417.4z M3105.2,2359.1c-0.4-16.7-4.7-29.4-12.9-38.1c-8.2-8.7-18.2-13-30-13s-23,4.6-31.2,13.8s-12.2,21.6-12.1,37.4
	L3105.2,2359.1L3105.2,2359.1z M3266.9,2186v110.6c18.6-21.8,40.8-32.6,66.7-32.6s25.2,2.5,35.9,7.4s18.7,11.2,24.1,18.9
	c5.4,7.7,9.1,16.1,11.1,25.4s3,23.7,3,43.3v127.8H3350v-115.1c0-22.9-1.1-37.4-3.3-43.5c-2.2-6.2-6.1-11-11.6-14.7
	s-12.5-5.4-20.8-5.4s-18.1,2.3-25.6,7c-7.5,4.6-13,11.7-16.5,21s-5.2,23.2-5.2,41.6v109.2h-57.7v-300.8L3266.9,2186L3266.9,2186z"/>
</svg>
