<?xml version="1.0" encoding="utf-8"?>
<!-- Generator: Adobe Illustrator 27.7.0, SVG Export Plug-In . SVG Version: 6.00 Build 0)  -->
<svg version="1.1" id="Layer_1" xmlns="http://www.w3.org/2000/svg" xmlns:xlink="http://www.w3.org/1999/xlink" x="0px" y="0px"
	 viewBox="0 0 3500 3500" style="enable-background:new 0 0 3500 3500;" xml:space="preserve">
<style type="text/css">
	.st0{fill:url(#SVGID_1_);stroke:#002535;stroke-width:0.3;stroke-miterlimit:10;}
	
		.st1{fill:url(#SVGID_00000118370272314818921960000005699288418253127319_);stroke:#002535;stroke-width:0.3;stroke-miterlimit:10;}
	
		.st2{fill:url(#SVGID_00000085965744379807878110000014232852652064101008_);stroke:#002535;stroke-width:0.3;stroke-miterlimit:10;}
	
		.st3{fill:url(#SVGID_00000116914818971968925070000012573096529385098112_);stroke:#002535;stroke-width:0.3;stroke-miterlimit:10;}
	
		.st4{fill:url(#SVGID_00000101796088929779032760000000249971528652724609_);stroke:#002535;stroke-width:0.3;stroke-miterlimit:10;}
	
		.st5{fill:url(#SVGID_00000113335179987880256310000017831493762270163073_);stroke:#002535;stroke-width:0.3;stroke-miterlimit:10;}
	
		.st6{fill:url(#SVGID_00000057124613511026895320000001614422705201871008_);stroke:#002535;stroke-width:0.3;stroke-miterlimit:10;}
	
		.st7{fill:url(#SVGID_00000182526426117370720810000007851996853532447676_);stroke:#002535;stroke-width:0.3;stroke-miterlimit:10;}
	
		.st8{fill:url(#SVGID_00000088817008882699086880000011760565763257381797_);stroke:#002535;stroke-width:0.3;stroke-miterlimit:10;}
	
		.st9{fill:url(#SVGID_00000158741466666073019480000009752406397864057269_);stroke:#002535;stroke-width:0.3;stroke-miterlimit:10;}
	
		.st10{fill:url(#SVGID_00000158731956241718373260000003681454840168599994_);stroke:#002535;stroke-width:0.3;stroke-miterlimit:10;}
	
		.st11{fill:url(#SVGID_00000115474064996196870100000000251562543920316319_);stroke:#002535;stroke-width:0.3;stroke-miterlimit:10;}
	
		.st12{fill:url(#SVGID_00000158737026210854137020000003451691731770500273_);stroke:#002535;stroke-width:0.3;stroke-miterlimit:10;}
</style>
<radialGradient id="SVGID_1_" cx="1007.2914" cy="-1802.8811" r="742.4711" gradientTransform="matrix(1 0 0 -1 0 0)" gradientUnits="userSpaceOnUse">
	<stop  offset="0" style="stop-color:#DFD6B9"/>
	<stop  offset="0.3" style="stop-color:#E5CC9F"/>
	<stop  offset="0.5" style="stop-color:#DABD92"/>
	<stop  offset="1" style="stop-color:#C19A73"/>
</radialGradient>
<path class="st0" d="M1986.2,1429.3c0.6,9.7,3,19.7,1.4,29c-12.2,73.1-29.4,145.2-64.3,210.9c-19.9,37.4-44.2,73.1-71.1,105.9
	c-59.9,73.2-133,131.6-217.8,173.8c-38.9,19.4-80,35-121.1,49.4c-58.8,20.7-118.3,39.6-177.9,57.7c-35.8,10.9-72.1,20.4-108.7,27.9
	c-148.9,30.4-297.5,64.7-449.6,79.4C607,2179.7,420,2190.2,253.5,2148c-58.6-14.9-114.5-38.2-158.3-83c-53.6-54.7-77.3-119.3-66-196
	c6.1-41.2,8.9-83,17.3-123.6c13.8-67.1,27.2-134.5,54.9-197.9c5.4-12.3,6.8-26.5,13.1-38.2c3.6-6.8,12.8-13.3,20.2-14.1
	c4.1-0.5,12.4,10.3,13.8,17.1c3.7,18.3,3.6,37.3,7.1,55.7c14.9,77,31,130.2,100.9,173.7c168.8,104.8,389.3,91.1,580,86.3
	c88.3-2.2,176.7-5.5,264.4-20.4c70.7-12,142.5-17.1,213.4-28.3c50.2-7.9,100.3-18.6,149.3-32.2c57.9-16.1,115.9-33.4,171.3-56.3
	c44.8-18.5,86.9-44.3,128.2-70.2c71.8-45,134.6-100.9,187.7-167.3c3.9-4.8,8.7-9,13.3-13.2c4.5-4.1,9.3-8,13.9-12
	c2.7,0.4,5.4,0.9,8,1.3L1986.2,1429.3z"/>
<radialGradient id="SVGID_00000169519181923473018520000018341915237013918364_" cx="2818.3367" cy="-1422.6812" r="653.4714" gradientTransform="matrix(1 0 0 -1 0 0)" gradientUnits="userSpaceOnUse">
	<stop  offset="0" style="stop-color:#DFD6B9"/>
	<stop  offset="0.3" style="stop-color:#E5CC9F"/>
	<stop  offset="0.5" style="stop-color:#DABD92"/>
	<stop  offset="1" style="stop-color:#C19A73"/>
</radialGradient>
<path style="fill:url(#SVGID_00000169519181923473018520000018341915237013918364_);stroke:#002535;stroke-width:0.3;stroke-miterlimit:10;" d="
	M3438.4,877.1c-1.5,11.4-0.2,24.1-5,33.9c-37.7,77-80.5,151.3-150.9,203.1c-39,28.7-82.6,51.5-125.5,74.5
	c-73.2,39.2-148.8,74.1-220.7,115.3c-79.7,45.7-150.6,103.7-208.7,175.7c-5.9,7.3-8.4,17.4-14.5,30.6c16,2.3,26.8,4.1,37.7,5.3
	c49.9,5.6,96.6-12.1,144.6-20.2c44-7.5,87.7-16.6,131.6-24.9c3.1-0.6,6.1-1.4,9.2-1.6c17.4-1.3,37.8-7.7,47.8,11.9
	s6.9,40.5-7.3,58.6c-28.3,35.9-57.9,70.9-84.5,108.1c-42.2,59.2-82.4,119.7-123.2,179.8c-50.9,75-104.4,147.8-172,208.8
	c-65.5,59.1-160.7,70.2-245.3,71.6c-81.7,1.3-154.5-17.4-198.9-92c-49.2-82.6-60.6-172.7-52.4-267.2c6.2-71.5,8.1-143.4,13.2-215
	c4.2-58.1,10-116,15.8-173.9c9.3-94.2,18-188.5,29.5-282.4c4.5-36.9,13.7-73.8,25.1-109.3c17.1-53.4,37.2-105.7,57.4-158.1
	c9.5-24.6,21.9-48.1,33-72l8.5,0.7c2.1,10.1,6.4,20.2,6,30.2c-1.5,35.3-4.1,70.7-7.3,105.9c-7.3,78.7-15.6,157.3-23,236
	c-8.1,85.9-18,171.7-22.7,257.8c-3.4,61.1,0,122.7,1.2,184c0.4,21.8,1.5,43.9,5.7,65.2c5.8,29.4,12.4,59.1,23.2,86.9
	c13.4,34.4,41.2,59.3,74.5,72c65.3,25,132.1,28.5,202,13c91.1-20.1,155.8-74.9,213-142.8c5.5-6.6,5.9-17.5,10.4-31.6
	c-20.2,1.1-34.3,2.1-48.4,2.7c-82.1,4-164.2,7.5-246.2,12.3c-33.2,1.9-38.5-15.8-26.3-40.8c68.8-141.9,156.9-269.4,284-365.6
	c55.4-41.9,113.4-80.6,172.2-117.7c59.6-37.6,121-72.6,182.7-106.7c48.1-26.5,98-49.7,146.9-74.8c33-17,65.6-34.8,98.4-52.2
	c3.2,1.6,6.3,3.3,9.5,4.9L3438.4,877.1z"/>
<radialGradient id="SVGID_00000073708277296907382380000016577430784246723487_" cx="1039.4851" cy="-1170.5424" r="279.3147" gradientTransform="matrix(1 0 0 -1 0 0)" gradientUnits="userSpaceOnUse">
	<stop  offset="0" style="stop-color:#DFD6B9"/>
	<stop  offset="0.3" style="stop-color:#E5CC9F"/>
	<stop  offset="0.5" style="stop-color:#DABD92"/>
	<stop  offset="1" style="stop-color:#C19A73"/>
</radialGradient>
<path style="fill:url(#SVGID_00000073708277296907382380000016577430784246723487_);stroke:#002535;stroke-width:0.3;stroke-miterlimit:10;" d="
	M1038.2,1248.7c-8.9,13.5-18.5,25.5-25.3,38.8c-20.8,40.9-52.7,71.5-88,99.5c-17.1,13.6-33.5,14.2-51,0.7
	c-47.7-36.9-95.6-73.4-143.3-110.3c-12.8-9.9-15.9-23.8-13.8-39.2c13.4-98.9,58.5-183.1,120.1-259.6c10-12.4,25.3-15.2,39-4.6
	c46.8,36.2,93,73.3,138.5,111.3c9.1,7.6,12.8,21.3,20.9,30.6c4.9,5.6,14,11.7,20.4,10.9c5.6-0.7,12.5-9.8,14.7-16.5
	c18.9-57.6,54.6-104.8,92.1-150.7c15.8-19.4,32-20.9,51.9-6.1c50.4,37.3,97.4,78.1,131.4,131.7c5.4,8.6,9.8,18.5,12,28.4
	c20,90.4-21.8,191.7-98.8,242.7c-17.9,11.8-35.1,10.3-53.2,2.1c-55.4-24.9-106.6-56.1-150.8-98.2c-3.6-3.5-8.3-5.8-16.6-11.4
	L1038.2,1248.7z"/>
<radialGradient id="SVGID_00000077291043908235762870000000141830334544997007_" cx="588.6674" cy="-2920.6155" r="227.877" gradientTransform="matrix(1 0 0 -1 0 0)" gradientUnits="userSpaceOnUse">
	<stop  offset="0" style="stop-color:#DFD6B9"/>
	<stop  offset="0.3" style="stop-color:#E5CC9F"/>
	<stop  offset="0.5" style="stop-color:#DABD92"/>
	<stop  offset="1" style="stop-color:#C19A73"/>
</radialGradient>
<path style="fill:url(#SVGID_00000077291043908235762870000000141830334544997007_);stroke:#002535;stroke-width:0.3;stroke-miterlimit:10;" d="
	M750.4,2908.1c7.5,13.3,12,25.3,19.9,34.4c43.8,50.8,8.7,148.5-47.9,173.1c-6.5,2.8-15.5,5.7-18,11c-7.6,16.1-21.2,14.9-34.5,15.1
	c-37.5,0.6-74.9,0.8-112.4,0.9c-54.1,0.1-108.3,0-162.4,0c-12.3,0-24.6,0-39.4,0c0-11.2-1.5-19.3,0.2-26.6
	c21.2-91.1,42.8-182.2,64.5-273.2c9.2-38.3,18-76.8,28.9-114.6c7.7-26.7,12.5-29.2,40.3-29.3c72.9-0.3,145.7-0.6,218.6,0.2
	c52.9,0.6,94.2,29.3,108.7,73.3c15.6,47.4-3.8,98.2-47,123.6C764.6,2899.1,759.5,2902.4,750.4,2908.1L750.4,2908.1z M585.3,3028.8
	c12.9-0.8,27.6-0.4,41.8-3c19.3-3.4,30.1-17.5,29.3-34.5c-0.8-16.7-9.9-26.3-31.1-28.2c-19.6-1.8-39.4-0.8-59.1-1.2
	c-41.6-0.8-36.3,4.3-43.3,40.3c-2.8,14.3,4.2,22.4,17.4,24.1c14.3,1.9,29,1.7,45.1,2.4L585.3,3028.8z M558.2,2844.8
	c35.9,13.5,71.7,10,107,3.2c5.2-1,11.2-14.3,11.1-21.8c0-5.2-9.6-14.5-15.4-14.8c-25.9-1.7-52-2-77.9-0.4
	C565.6,2812.1,559.8,2825.6,558.2,2844.8L558.2,2844.8z"/>
<radialGradient id="SVGID_00000181060787392243917750000007880264753735114113_" cx="1069.7" cy="-2920.3613" r="239.7895" gradientTransform="matrix(1 0 0 -1 0 0)" gradientUnits="userSpaceOnUse">
	<stop  offset="0" style="stop-color:#DFD6B9"/>
	<stop  offset="0.3" style="stop-color:#E5CC9F"/>
	<stop  offset="0.5" style="stop-color:#DABD92"/>
	<stop  offset="1" style="stop-color:#C19A73"/>
</radialGradient>
<path style="fill:url(#SVGID_00000181060787392243917750000007880264753735114113_);stroke:#002535;stroke-width:0.3;stroke-miterlimit:10;" d="
	M942.5,3140.4H813.3c1.5-15.6,1.5-28.8,4.2-41.4c12.5-58.9,25.7-117.8,38.9-176.6c10-44.6,20.7-89,30.7-133.6
	c4.6-20.3,8.7-40.7,12.3-61.1c3.2-18,13-28.2,31.4-28.4c32.3-0.3,64.5,0,96.8,0c13.1,0,20.2,6.6,25.3,18.8
	c20.9,49.7,42.9,98.9,64,148.4c6.3,14.8,13.4,28.1,31.5,33.8c2-3.1,5.4-6,6.2-9.5c10-48.8,20.3-97.6,29.1-146.7
	c6.5-36.1,14.7-44.7,50.6-45.3c18.7-0.3,37.5-0.8,56.2,0.3c10.9,0.6,21.5,4.1,35.6,7c-8.2,40.5-15.4,77.9-23.3,115.2
	c-10.6,49.8-21.6,99.5-32.6,149.2c-11.3,50.7-22.9,101.4-34.2,152.1c-2.4,10.9-6.2,19.8-19.7,19.7c-37.3-0.2-74.5,0-110.1,0
	c-33.7-79.4-64.4-155.9-103-228.6c-3.2,0.3-6.5,0.7-9.7,1C976.8,2988.8,960.1,3062.8,942.5,3140.4L942.5,3140.4z"/>
<radialGradient id="SVGID_00000072246275162017146970000001669153386874442141_" cx="1726" cy="-2920.3613" r="239.7895" gradientTransform="matrix(1 0 0 -1 0 0)" gradientUnits="userSpaceOnUse">
	<stop  offset="0" style="stop-color:#DFD6B9"/>
	<stop  offset="0.3" style="stop-color:#E5CC9F"/>
	<stop  offset="0.5" style="stop-color:#DABD92"/>
	<stop  offset="1" style="stop-color:#C19A73"/>
</radialGradient>
<path style="fill:url(#SVGID_00000072246275162017146970000001669153386874442141_);stroke:#002535;stroke-width:0.3;stroke-miterlimit:10;" d="
	M1598.8,3140.4h-129.2c1.5-15.6,1.5-28.8,4.2-41.4c12.5-58.9,25.7-117.8,38.9-176.6c10-44.6,20.7-89,30.7-133.6
	c4.6-20.3,8.7-40.7,12.3-61.1c3.2-18,13-28.2,31.4-28.4c32.3-0.3,64.5,0,96.8,0c13.1,0,20.2,6.6,25.3,18.8
	c20.9,49.7,42.9,98.9,64,148.4c6.3,14.8,13.4,28.1,31.5,33.8c2-3.1,5.4-6,6.2-9.5c10-48.8,20.3-97.6,29.1-146.7
	c6.5-36.2,14.7-44.7,50.6-45.3c18.7-0.3,37.5-0.8,56.2,0.3c10.9,0.6,21.5,4.1,35.6,7c-8.2,40.5-15.4,77.9-23.3,115.2
	c-10.6,49.8-21.6,99.5-32.6,149.2c-11.3,50.7-22.8,101.4-34.2,152.1c-2.4,10.9-6.2,19.8-19.7,19.7c-37.3-0.2-74.5,0-109.9,0
	c-34.5-79.1-63.5-156.4-104-228.2c-3,0.2-6,0.4-8.9,0.7C1633.1,2988.9,1616.4,3062.9,1598.8,3140.4L1598.8,3140.4z"/>
<radialGradient id="SVGID_00000084510500096518174530000000531566529727877027_" cx="2863.0615" cy="-2919.5488" r="231.9651" gradientTransform="matrix(1 0 0 -1 0 0)" gradientUnits="userSpaceOnUse">
	<stop  offset="0" style="stop-color:#DFD6B9"/>
	<stop  offset="0.3" style="stop-color:#E5CC9F"/>
	<stop  offset="0.5" style="stop-color:#DABD92"/>
	<stop  offset="1" style="stop-color:#C19A73"/>
</radialGradient>
<path style="fill:url(#SVGID_00000084510500096518174530000000531566529727877027_);stroke:#002535;stroke-width:0.3;stroke-miterlimit:10;" d="
	M2768.3,3140.1h-147.9c5-13,7.3-22.9,12.2-31.2c42.7-73.6,85.4-147,128.8-220.2c33.9-57.1,68.9-113.4,102.7-170.5
	c7.1-12,15.5-19,29.5-19c41.6,0,83.3,0,124.9-0.4c19.2-0.2,24.5,11.3,27,27.4c9.8,63.6,20.1,127.2,30.1,190.8s20,127.2,29.4,190.9
	c1.5,9.8,0.2,20.1,0.2,32.4h-131.6c-2.8-14.2-6.8-28.1-8-42.2c-1.4-16.6-9.5-25.1-25.5-25.2c-41.6-0.4-83.3-0.3-124.9,0
	c-15.1,0.1-25.2,8-30.3,22.5C2779.8,3110,2774.1,3124.5,2768.3,3140.1L2768.3,3140.1z M2864,2950.5c1.9,3.1,3.8,6.2,5.7,9.3
	c22.3,0.4,44.7,1.3,67,0.9c13.5-0.2,17-10.2,16-21.7c-2.3-26.7-4.6-53.5-8.3-80c-0.8-5.5-7.3-13.9-11.8-14.4
	c-5.3-0.5-13.2,4.9-16.7,9.9c-8.7,12.6-15.9,26.4-23.1,40c-9.9,18.5-19.3,37.3-28.9,56H2864z"/>
<radialGradient id="SVGID_00000100351646143832930840000006661307751509075584_" cx="2183.8" cy="-2919.3933" r="215.8102" gradientTransform="matrix(1 0 0 -1 0 0)" gradientUnits="userSpaceOnUse">
	<stop  offset="0" style="stop-color:#DFD6B9"/>
	<stop  offset="0.3" style="stop-color:#E5CC9F"/>
	<stop  offset="0.5" style="stop-color:#DABD92"/>
	<stop  offset="1" style="stop-color:#C19A73"/>
</radialGradient>
<path style="fill:url(#SVGID_00000100351646143832930840000006661307751509075584_);stroke:#002535;stroke-width:0.3;stroke-miterlimit:10;" d="
	M2394.6,2706.5c-4.5,25.8-7.4,48.4-12.6,70.5c-5.8,24.7-15.6,32.1-42.3,32.6c-41.6,0.7-83.2,0.1-124.9,0.4c-9.3,0-18.7,0.6-27.9,2.1
	c-12.5,2-16.7,11.3-16.8,22.8c-0.1,13.7,9,17.8,20.6,17.9c36.4,0.3,72.8-0.2,109.2,0.5c18.2,0.3,37.5-4.2,55.1,9.5
	c-5.4,27.7-10.4,55-16.3,82.2c-3.5,16-17.4,16.4-29.8,16.6c-39.5,0.5-79.1,0.3-118.6,0.4c-48.2,0-53.2,4.7-59,59.8
	c14.5,2.1,29.3,5.7,44.2,6.1c37.4,0.9,74.9,0,112.4,0.4c31.7,0.3,37.1,5.6,31.3,37.2c-4.4,24.4-12.7,48.1-19.9,74.6H1973
	c0.8-10.3,0.5-19.3,2.3-27.9c14.1-66,28.3-132,43.3-197.8c10.3-45.6,22.1-90.8,32.7-136.3c3.3-14.1,4.9-28.7,7.1-43.1
	c4.4-29.3,10.2-35.7,40.3-35.9c87.4-0.6,174.8-0.5,262.2,0C2371.5,2699.1,2382.1,2703.6,2394.6,2706.5L2394.6,2706.5z"/>
<radialGradient id="SVGID_00000054979710408053419720000005621878433797960357_" cx="3049.1445" cy="-589.9808" r="204.1103" gradientTransform="matrix(1 0 0 -1 0 0)" gradientUnits="userSpaceOnUse">
	<stop  offset="0" style="stop-color:#DFD6B9"/>
	<stop  offset="0.3" style="stop-color:#E5CC9F"/>
	<stop  offset="0.5" style="stop-color:#DABD92"/>
	<stop  offset="1" style="stop-color:#C19A73"/>
</radialGradient>
<path style="fill:url(#SVGID_00000054979710408053419720000005621878433797960357_);stroke:#002535;stroke-width:0.3;stroke-miterlimit:10;" d="
	M3219.8,555.2c-0.2,46-14.6,83.2-32.2,118.5c-26.2,52.7-62.4,97.9-110.5,133.1c-28.8,21.1-45.2,21.8-71.4-1.4
	c-35-31-69.7-62.3-105.1-92.9c-20.9-18-28.3-35.6-16.8-64.7c27.7-70.5,50.6-143,91.8-207.3c17.8-27.9,38.8-53.9,60.2-79.2
	c3.8-4.6,21.6-5.4,24.1-1.8c21.6,31.2,57.2,44,84.9,67c35.2,29.2,63.4,63,72.6,109.3c1.6,8.1,2.1,16.5,2.5,19.4H3219.8z"/>
<radialGradient id="SVGID_00000011709864898596557220000013863357228966917021_" cx="3151.3193" cy="-2102.6624" r="198.1563" gradientTransform="matrix(1 0 0 -1 0 0)" gradientUnits="userSpaceOnUse">
	<stop  offset="0" style="stop-color:#DFD6B9"/>
	<stop  offset="0.3" style="stop-color:#E5CC9F"/>
	<stop  offset="0.5" style="stop-color:#DABD92"/>
	<stop  offset="1" style="stop-color:#C19A73"/>
</radialGradient>
<path style="fill:url(#SVGID_00000011709864898596557220000013863357228966917021_);stroke:#002535;stroke-width:0.3;stroke-miterlimit:10;" d="
	M3164.8,2325.8c-50.2-41.2-97.1-78.9-142.9-117.6c-47.4-40-48.1-40.9-25.7-99.4c25.2-65.6,50.2-131.6,89.4-190.8
	c1.7-2.6,3-5.5,4.8-8c24.9-35.8,39-39.8,73.9-13.9c37.4,27.7,74.3,56.7,107.6,89.1c18.7,18.2,33.2,42.9,42.8,67.4
	c7,18,7.8,41.6,2.9,60.5c-13.8,53-43.2,98.6-79.5,139.2c-22,24.6-46.5,47-73.2,73.6L3164.8,2325.8z"/>
<radialGradient id="SVGID_00000031188397435843988610000017212478151945348512_" cx="196.0527" cy="-2919.4932" r="208.7969" gradientTransform="matrix(1 0 0 -1 0 0)" gradientUnits="userSpaceOnUse">
	<stop  offset="0" style="stop-color:#DFD6B9"/>
	<stop  offset="0.3" style="stop-color:#E5CC9F"/>
	<stop  offset="0.5" style="stop-color:#DABD92"/>
	<stop  offset="1" style="stop-color:#C19A73"/>
</radialGradient>
<path style="fill:url(#SVGID_00000031188397435843988610000017212478151945348512_);stroke:#002535;stroke-width:0.3;stroke-miterlimit:10;" d="
	M181.3,3140.3H51.7c0-9.3-1.3-16.6,0.2-23.2c15.9-71,32.4-141.9,48.4-212.9c4.1-18.3,8.1-36.7,10.3-55.2c3.3-27.8-4.2-35.7-32-36.6
	c-24.6-0.9-49.2-1.6-78.6-2.5c3.6-17.7,5.5-30.6,8.8-43.1c3.4-13,9.1-25.4,11.9-38.4c5.7-26.2,7.5-29,34.9-29.3
	c54.1-0.5,108.3-0.3,162.5-0.3c47.9,0,95.8-0.4,143.7,0.3c31.7,0.4,34.2,4.2,26.9,35.5c-4.5,19.2-9.7,38.3-14.2,57.5
	c-3,13.1-10.7,19.6-24.1,19.7c-20.8,0.1-41.7-0.2-62.5,0.7c-29.1,1.2-37.7,10.4-43.7,38.4c-12.8,59.9-26.8,119.6-40,179.4
	c-8,36.3-15.2,72.8-22.9,109.9L181.3,3140.3z"/>
<radialGradient id="SVGID_00000067198333238571417980000015480212069612169107_" cx="3317.3503" cy="-2919.5999" r="202.6698" gradientTransform="matrix(1 0 0 -1 0 0)" gradientUnits="userSpaceOnUse">
	<stop  offset="0" style="stop-color:#DFD6B9"/>
	<stop  offset="0.3" style="stop-color:#E5CC9F"/>
	<stop  offset="0.5" style="stop-color:#DABD92"/>
	<stop  offset="1" style="stop-color:#C19A73"/>
</radialGradient>
<path style="fill:url(#SVGID_00000067198333238571417980000015480212069612169107_);stroke:#002535;stroke-width:0.3;stroke-miterlimit:10;" d="
	M3309.1,3140.4h-128.7c-0.8-6.5-2.8-11.6-1.8-16.1c17.4-76.9,35.6-153.6,52.7-230.5c4.3-19.1,6.5-38.9,7.8-58.5
	c1-14.9-7.7-22.9-23.1-22.8c-18.7,0-37.5,0.5-56.1-0.7c-24.5-1.5-28.8-8.2-23-32.1c4.9-20.2,10.5-40.2,14.6-60.6
	c2.7-13.6,10-19.8,23.4-19.9c7.3,0,14.6-0.4,21.8-0.4c89.4,0,178.8,0,268.3,0c11.1,0,22.2,1.2,35.1,1.9v106.9
	c-8,1.5-15.8,3.8-23.7,4.1c-16.6,0.7-33.3,0.2-49.9,0.5c-42.7,0.8-48.8,7.7-55.9,49.9c-6.4,37.8-15.7,75.1-24.1,112.6
	c-12.2,54.6-24.6,109.1-37.4,165.5L3309.1,3140.4z"/>
<radialGradient id="SVGID_00000148623998969733599280000006371593014989723284_" cx="2529.3499" cy="-2920.1807" r="202.705" gradientTransform="matrix(1 0 0 -1 0 0)" gradientUnits="userSpaceOnUse">
	<stop  offset="0" style="stop-color:#DFD6B9"/>
	<stop  offset="0.3" style="stop-color:#E5CC9F"/>
	<stop  offset="0.5" style="stop-color:#DABD92"/>
	<stop  offset="1" style="stop-color:#C19A73"/>
</radialGradient>
<path style="fill:url(#SVGID_00000148623998969733599280000006371593014989723284_);stroke:#002535;stroke-width:0.3;stroke-miterlimit:10;" d="
	M2467.4,3141.4c-13.5,0-27,0.2-40.6,0c-13.4-0.3-26.2,0.7-34.6-14.8c-3.6-6.7-15.6-8.9-23.8-13.1c-23.6-12.2-27.2-25.3-12.5-46.6
	c9.4-13.7,19.4-27,28.6-40.8c15.2-22.7,24-26.1,48.9-14c15.6,7.6,30.5,14.2,47.3,5.3c17-9,30.9-21.2,35.7-41
	c7.9-32.3,15.8-64.6,23.2-97c10.9-47.6,20.7-95.5,32.4-142.9c8.6-35.1,12.8-37.4,49.6-37.5c22.9,0,45.8-0.6,68.7,0.7
	c20.3,1.2,24.1,6.2,19.5,25.8c-9.2,39.4-20.1,78.4-29.4,117.8c-11.3,48.6-20.3,97.7-32.8,145.9c-14.4,55.5-41.9,100.2-93.5,133
	C2524.7,3140.9,2497.4,3141.2,2467.4,3141.4L2467.4,3141.4z"/>
</svg>
