<?xml version="1.0" encoding="utf-8"?>
<!-- Generator: Adobe Illustrator 27.7.0, SVG Export Plug-In . SVG Version: 6.00 Build 0)  -->
<svg version="1.1" id="Layer_1" xmlns="http://www.w3.org/2000/svg" xmlns:xlink="http://www.w3.org/1999/xlink" x="0px" y="0px"
	 viewBox="0 0 3500 3500" style="enable-background:new 0 0 3500 3500;" xml:space="preserve">
<style type="text/css">
	.st0{fill:#FFAA00;}
</style>
<path class="st0" d="M1710,382h79.9c94.1,10.3,174.4,38.5,241,84.4c317.1,218.6,298,693.8-50.3,873.8
	c-337.7,174.5-729.2-71.2-737.3-445.9C1237.5,623.8,1445.8,412.6,1710,382z"/>
<path class="st0" d="M20.8,1070.6c890,2.5,1610.2,691.7,1663.4,1574.7c4,67.3,4.6,224.9,1.7,472.7h-596.8
	c-0.1-126.8-1-253.6-2.6-380.6c-3.5-263.9-85.2-491.9-245.2-684c-204.9-245.9-497.6-380.6-820.5-385.8V1070.6z"/>
<path class="st0" d="M3479.2,1070.5v598.2c-131,0.2-253.2,21.6-366.6,64.1c-263,98.6-458.9,275.1-587.6,529.7
	c-75.5,149.4-113.4,295-113.7,436.7c-0.4,139.7-0.6,279.3-0.5,418.9h-597.3c-1.2-225.4-1-372.7,0.8-441.9
	c13.4-510.8,277.9-987.6,687.7-1288.7C2785.6,1178.9,3111.3,1073.2,3479.2,1070.5z"/>
<path class="st0" d="M3479.2,1795.8v489.4c-196.6-0.2-372.6,128.3-430.4,312.3c-15,47.6-22.3,128.9-22.1,243.8
	c0.1,92.2,0,184.4-0.3,276.7h-488.9c-0.3-142.1-0.1-284.3,0.8-426.5c0.6-95.6,25.2-200.3,73.8-314.2
	c104.4-244.7,278.2-416.8,521.2-516.3C3240.6,1817.1,3355.9,1795.4,3479.2,1795.8z"/>
</svg>
