<?xml version="1.0" encoding="utf-8"?>
<!-- Generator: Adobe Illustrator 27.7.0, SVG Export Plug-In . SVG Version: 6.00 Build 0)  -->
<svg version="1.1" id="Layer_1" xmlns="http://www.w3.org/2000/svg" xmlns:xlink="http://www.w3.org/1999/xlink" x="0px" y="0px"
	 viewBox="0 0 3500 3500" style="enable-background:new 0 0 3500 3500;" xml:space="preserve">
<style type="text/css">
	.st0{fill:#CC3355;}
</style>
<path class="st0" d="M2286.3,2408.6c-23.9,30.8-49.2,59.7-76,86.7c-151.5,152.4-303.3,304.5-455.6,456.2c-3.2,3.3-6.5,3.3-9.8,0
	c-157.6-157.2-309.6-309.5-456.1-457c-27.1-27.3-52.5-56.3-76.1-86.9c-4.2-5.4-8.5-5.6-13.1-0.6c-44.5,48.5-89,92.2-133.4,131.1
	c-248.8,218.2-621.6,198.2-855.5-28.8c-65-63.1-134.7-132.8-209.3-209c-1.7-1.7-1.7-4.5,0-6.4L1743.8,548.9c4-3.9,8-3.9,12,0
	l1742.4,1744.9c2.4,2.4,2.4,4.8,0,7.2c-62.9,62.9-128.6,128.6-197,197.1c-224.1,224.2-569.4,259.9-827,72.1
	c-63.8-46.7-118.3-105.9-174.2-162.4C2295.1,2402.8,2290.5,2403.1,2286.3,2408.6z M1757,1427.1l430.1,430.4c2.1,2.2,5.5,2.2,7.7,0.2
	c0.9-0.9,1.5-2,1.6-3.3c29.1-246.9-42-460-213.2-639.4c-79.1-82.9-156-159.8-230.8-230.5c-1.7-1.6-4.4-1.6-6.1,0
	c-78.8,75.9-155.8,153-231.1,231.4c-169.5,176.6-240.2,389.4-212.1,638.4c0.3,2.9,3,5,5.9,4.7c1.2-0.1,2.3-0.7,3.2-1.5l430.1-430.4
	C1747.3,1422.3,1752.1,1422.3,1757,1427.1z M3054.6,2307.2c7.6-5.7,8-11.9,1.2-18.7l-534.9-535.7c-6.1-6.2-9.2-5-9.3,3.7
	c-1.1,122.3-21.7,239.7-61.7,352.2c-2.4,6.7-1,12.5,4.2,17.3c45.6,43.3,90.2,88,133.9,134.1
	C2720.1,2399.4,2894.5,2427.3,3054.6,2307.2z M439.7,2300.4c93.3,90.9,240.4,102.5,351.9,51.1c41.3-19.1,84.2-52.4,128.8-99.8
	c41.6-44.3,83.1-86,124.4-124.9c4.8-4.5,6.5-11.4,4.4-17.6c-40.6-114-61-233.1-61.4-357.2c0-1.9-1.5-3.4-3.4-3.4
	c-0.9,0-1.8,0.4-2.5,1.1l-542.2,543C437.5,2294.7,437.5,2298.1,439.7,2300.4C439.6,2300.3,439.6,2300.4,439.7,2300.4z
	 M2068.4,2182.3c1.4-2,1.1-4.7-0.6-6.4l-314.2-314.9c-2.5-2.5-5-2.5-7.5,0l-310.8,311.1c-4,4-4.5,8.4-1.2,13.1
	c27,39.2,59.5,77.9,97.6,116c69.8,69.8,140.1,140.3,211,211.6c4.2,4.3,8.4,4.3,12.8,0.2c107-103.9,195.8-194,266.3-270.3
	C2038.3,2224.7,2053.9,2204.6,2068.4,2182.3z"/>
</svg>
