<?xml version="1.0" encoding="utf-8"?>
<!-- Generator: Adobe Illustrator 27.7.0, SVG Export Plug-In . SVG Version: 6.00 Build 0)  -->
<svg version="1.1" id="Layer_1" xmlns="http://www.w3.org/2000/svg" xmlns:xlink="http://www.w3.org/1999/xlink" x="0px" y="0px"
	 viewBox="0 0 3500 3500" style="enable-background:new 0 0 3500 3500;" xml:space="preserve">
<style type="text/css">
	.st0{fill:#FFFFFF;}
	.st1{fill:url(#SVGID_1_);}
	.st2{fill:url(#SVGID_00000106863782239748814970000006555591753221469609_);}
</style>
<path class="st0" d="M1671,79C748.1,79,0,827.1,0,1750s748.1,1671,1671,1671s1671-748.1,1671-1671S2593.9,79,1671,79z
	 M3250.5,1510.8c0.5,35.9-25.3,61.8-62.4,62.7c-33.2,0.8-59.9-25.7-60.6-60.2c-0.6-33.9,29.6-67.8,60.1-67.3
	C3220.1,1446.6,3249.9,1477.3,3250.5,1510.8L3250.5,1510.8z M3131.2,1215c33.3,0,64.8,31.1,64.2,63.5c-0.6,32.2-33.2,63.8-65.2,63.2
	c-32.7-0.6-62.7-32.9-61.5-66.1C3069.9,1242.9,3098.7,1214.9,3131.2,1215L3131.2,1215z M3012.1,1752.7c-0.9,33.8-27.6,59.1-62,59
	c-36-0.2-62.3-27.3-61.3-63.4c0.9-33.9,27.5-59.2,61.9-59C2986.6,1689.5,3013.1,1716.9,3012.1,1752.7L3012.1,1752.7z M2865.7,2000.1
	c0-37.3,26-64.5,61.5-64.5c34.2,0,60.8,26.4,61.2,60.6c0.4,33.5-29.5,66.6-60.8,67.6C2891.9,2064.9,2865.7,2037.9,2865.7,2000.1
	L2865.7,2000.1z M2917.7,2238.1c-1,32.7-32.7,63.5-65.1,63.3c-32.9-0.3-63.9-32.5-62.5-65.1c1.6-36.3,29-62.9,64.2-62.4
	c32.5,0.5,64.4,32.8,63.4,64.3L2917.7,2238.1z M2988.4,1504.9c-0.4,33.5-31.2,61.3-66.4,60.1c-33-1.2-57.5-29.1-56.4-64.3
	c1.2-38.7,26.6-64.5,62.2-63.4c31.3,1,61.1,34.2,60.7,67.6L2988.4,1504.9z M2851.8,1199.7c32.1-0.8,64.3,29.7,65.8,62.5
	c1.4,31.5-30,64.2-62.6,65c-35.4,0.9-62.9-25.3-65-61.6c-1.8-32.5,28.7-65,61.7-65.9H2851.8z M1917.1,175.2
	c32.1,0.9,63.8,34.2,62.7,65.9c-1.1,32.2-34.3,63.4-66.2,62.3c-32.3-1.1-64.4-34.8-62.5-65.4
	C1853.2,204.7,1885.2,174.3,1917.1,175.2z M1672.7,158.9c35.4-0.5,61.9,26.4,62.4,63.4c0.5,37.5-20.7,58.7-59.3,59.4
	c-36.5,0.7-63.4-25.4-63.3-61.5C1612.5,186,1638.7,159.3,1672.7,158.9L1672.7,158.9z M1436,175.9c31.1,0.9,61.7,34.9,60.4,67.2
	c-1.4,34.2-31.3,61.4-66.3,60.4c-33-1-57.7-28.8-56.8-64C1374.2,202.9,1401.8,175,1436,175.9L1436,175.9z M1201.2,235.4
	c37.7,0.4,63.4,26,62.7,62.6c-0.7,36.3-27.4,61.1-65,60.3c-35.9-0.8-62-28.5-61.1-64.8C1138.6,260.3,1166.2,235,1201.2,235.4z
	 M1186.7,512.4c36.6,0.4,63.5,26.9,63,62.2c-0.4,35.3-27.9,61.1-64.6,60.7c-31.1-0.3-62.9-30.8-62.6-60
	C1122.9,542.6,1154,512.1,1186.7,512.4L1186.7,512.4z M977.9,322.9c32.6-0.4,63.2,30.2,64.1,64.2c1,35.6-25.6,62.7-62.4,63.4
	c-32.4,0.6-65.9-31.1-65.7-62.1C914.1,357.2,947.2,323.4,977.9,322.9L977.9,322.9z M963.7,629.5c35-0.7,63.1,26.9,63.5,62.4
	c0.5,36.5-24.8,62.3-62.1,63.4c-33,1-59.9-25.6-60.8-60.3C903.3,657.1,927.7,630.1,963.7,629.5L963.7,629.5z M772.3,451.2
	c34.3-0.6,61.6,24.8,62.8,58.4c1.3,35.4-28.5,68-62.8,68.8c-29.2,0.6-59.3-30.5-60.5-62.7C710.4,479.4,736.2,451.8,772.3,451.2
	L772.3,451.2z M775.9,789c34,1.2,59.3,28.2,58.6,62.7c-0.7,36.2-28.3,62.1-64.7,60.5c-31.1-1.3-63-31.8-63.5-60.8
	C705.7,819.6,741.1,787.8,775.9,789L775.9,789z M750.5,1485.3c0.2,37.1-25.8,64.5-61.3,64.7c-35.6,0.2-62.1-27.2-61.8-64.1
	c0.2-34.3,26-58.6,62.1-58.7C728.3,1427.2,750.3,1448.1,750.5,1485.3z M593,605.6c32,0.4,64.1,33.3,63.6,65.1
	c-0.5,32-33.5,63.9-65.3,63.3c-32-0.7-63-32.7-63.5-65.4C527.3,637.9,561.2,605.2,593,605.6L593,605.6z M437.4,789.7
	c34,1.4,58.7,27.8,59,63.1c0.2,32.7-30.8,64-63.6,64.2c-34.3,0.2-59.9-28.3-59.5-66.3C373.7,814.7,401.5,788.2,437.4,789.7z
	 M486.8,1503.3c0.5,30.5-33,62.2-65.7,62.2s-62.2-31.1-61.8-65.2c0.4-30.6,31.1-62.4,60.8-62.9
	C453.2,1436.8,486.3,1469.5,486.8,1503.3L486.8,1503.3z M216.2,1215.1c32.7-0.4,64.5,31.3,63.7,63.7c-0.8,32-33.5,63.5-65.3,62.9
	c-32.6-0.7-62.5-32.9-61.4-66c1.1-30.9,31.5-60.2,62.9-60.6H216.2z M162.8,1450.5c37.4,1.5,62.5,28.5,60.2,64.6
	c-2,31.7-32.2,59.2-64.2,58.3c-36.7-1-63-28.2-61.6-63.8C98.6,1473.7,126,1449,162.8,1450.5z M81,1752.2c0.4-36.6,27-63.4,62.4-62.8
	s61.2,28.1,60.6,64.7c-0.6,33.9-29.8,59.3-66.7,57.9C104.9,1810.7,80.6,1785,81,1752.2L81,1752.2z M97.2,1987.9
	c0.7-35.4,28.6-61.1,65.3-60.3c32.5,0.8,63.1,33.2,61.8,65.6c-1.2,31.8-35.3,63.5-66.4,61.8C124.9,2053.2,96.5,2021.8,97.2,1987.9z
	 M213.5,2286c-34.5-1.4-56.6-26.8-56-64.4c0.6-35.9,25.9-62.6,58.9-62.2c32.2,0.4,64.3,33.3,63.6,65.2
	c-0.7,32.8-33.2,62.8-66.6,61.5L213.5,2286z M244.6,1056.8c0.3-32.6,32.1-65,63.6-64.7c32.1,0.2,64,32.1,64.5,64.4
	c0.5,32.7-30.1,62.8-64,63.2C274.4,1120.1,244.3,1090.6,244.6,1056.8L244.6,1056.8z M335.5,1749.7c0.6-34.2,27.1-60.3,61.3-60.3
	c33.4,0,66.7,30.6,66.8,61.4c0,34.7-28.5,61.7-64.8,61.2C361.7,1811.5,335,1785.2,335.5,1749.7L335.5,1749.7z M423.5,2064.6
	c-31.8,0.1-64.1-32-64.2-63.9c-0.1-33.6,34.4-66.6,67.4-64.4c30.8,2,61.1,34,60.2,63.5C485.9,2033.4,455.5,2064.5,423.5,2064.6z
	 M494,1326.9c-35.8-1.3-60.7-28.9-59.2-65.6c1.4-35.5,27.4-62.1,60.1-61.6c34.3,0.6,64.6,34,62.7,69.2
	C555.8,1302.8,528.1,1328.1,494,1326.9L494,1326.9z M551.6,1042c2.2-37.5,28.6-61.9,65.4-60.4c35.4,1.4,58.9,29.6,56.5,68
	s-27.1,58.4-67.7,55C573.6,1101.9,549.7,1074.3,551.6,1042L551.6,1042z M590.8,1752.2c-1.1-34.3,27.1-62.7,62.6-63.1
	c37.2-0.4,64.6,24.7,65.5,59.8c0.9,35.5-25.1,61.8-62.2,63C620.6,1813.1,591.9,1787.1,590.8,1752.2L590.8,1752.2z M694.6,2073.8
	c-36.7,2-64.3-20-67-53.5c-3.1-38.1,22.7-67,61.1-68.6c32.1-1.4,59.4,23,61.8,55.3c3,40.5-17.3,64.7-55.9,66.9L694.6,2073.8z
	 M789.5,1304.2c-34.6-1.1-62.1-30.8-61.2-66c0.9-33.2,28.7-58,64.1-57.1c37.1,1,64.1,25.2,64.3,57.7c0.2,33.3-33.8,66.4-67.3,65.3
	L789.5,1304.2z M891.7,1029.6c1-32.5,30.7-62.3,61.3-61.7c34.2,0.8,65.8,31.5,64.7,63c-1.2,35-33.8,65.6-68.3,64
	C919,1093.4,890.7,1061.4,891.7,1029.6L891.7,1029.6z M976.3,3178.2c-31-1.4-63.2-36-62.3-67.1c0.8-30.8,34.9-61,68.2-60.2
	c35.5,0.8,61.3,28.9,60.3,65.7c-0.9,32.5-33.8,63.1-66.1,61.6H976.3z M1185.3,2865.7c36.7-0.4,64.2,25.6,64.5,61
	c0.3,35.6-26.7,61.9-63.5,62c-32,0-65.7-32.6-64.7-62.8C1122.6,2896.9,1155.1,2866.1,1185.3,2865.7z M1198.3,3265.8
	c-34.8-0.9-61.6-28-60.3-61.2c1.4-37.6,27.3-62.6,64.2-61.8c37.2,0.8,62.3,26.5,62.4,63.8
	C1264.7,3241.2,1236.1,3266.7,1198.3,3265.8L1198.3,3265.8z M1422.4,442.5c37.6-0.5,64.8,24,66,59.4c1.2,34.2-27.5,62.5-63.7,63.1
	c-30.7,0.5-63.3-29.6-64.5-59.8C1358.7,469.2,1384.8,442.9,1422.4,442.5L1422.4,442.5z M1424.8,2936.1c35.5,0.6,63.7,28.3,63.9,62.9
	c0.2,32.7-29.9,62.9-63.6,63.8c-33.9,0.9-64.3-28.8-64.1-62.8c0.2-33.3,31.4-64.5,63.8-64L1424.8,2936.1z M1435.2,3325.3
	c-33.3,0.1-65.4-29.8-66.3-62.1c-0.9-29.9,32.8-63.8,64.3-64.9c34.3-1.1,63.1,27.4,63.4,62.9
	C1496.9,3298.8,1471.7,3325.1,1435.2,3325.3z M1672.3,414.1c34.4-0.9,62.8,27.8,62.8,63.6c0,37.6-25.6,63.7-62.2,63.4
	s-61.4-26.7-60.8-64.7C1612.7,442,1638.8,414.9,1672.3,414.1L1672.3,414.1z M1735.1,3021.6c0.9,38-24.1,65.1-60.3,65.4
	c-33.9,0.3-62-26.8-62.3-60c-0.4-39.3,25.6-67.2,63-67.6C1708.7,2959.1,1734.3,2985.7,1735.1,3021.6L1735.1,3021.6z M1673.5,3342.2
	c-34.2,0-60.9-26.6-61.1-60.8c-0.3-36,26.8-62.5,63.2-62.1c39.8,0.5,60.9,22.8,59.7,63.3C1734.3,3316.9,1708,3342.2,1673.5,3342.2
	L1673.5,3342.2z M1914.5,3326c-32-0.7-63.1-32.6-63.6-65.4c-0.5-30.7,33.4-63.4,65.3-63c32,0.4,64.2,33.3,63.7,65.1
	C1979.4,3294.6,1946.3,3326.6,1914.5,3326L1914.5,3326z M1924,3058.7c-36.3,0.3-63.4-23.3-64.7-56.2c-1.3-31.8,30-65.2,62.1-66.3
	c31.8-1.2,66.4,30.8,66.6,61.5c0.2,35.2-26.6,60.8-64,61.1V3058.7z M2148.9,235.3c36.7,1,63.3,27.8,62.5,62.9
	c-0.8,35.2-28.2,60.3-65.3,60.1c-35.6-0.3-63.8-28.5-62.7-62.9c1.1-35.1,29.4-61,65.6-60.1L2148.9,235.3z M2147.4,3265.8
	c-37.9,0.4-62.2-23.3-63-61.3c-0.7-35.3,26.7-62,63.3-61.6c36.9,0.4,63.9,26.5,63.8,61.7c0,35.4-26.8,61-64,61.3L2147.4,3265.8z
	 M2160.9,2988.8c-37.5-0.4-64.2-26.7-63.5-62.5c0.6-35.6,28.3-61.1,65.7-60.5c37.2,0.6,64.3,27.2,63.7,62.7
	S2198.6,2989.3,2160.9,2988.8L2160.9,2988.8z M2368.5,322.9c34.2,0,66.6,32.7,65.8,66.5c-0.7,32.7-31.5,61.3-65.8,61.1
	c-35-0.2-62.1-27.3-63-63.3C2304.6,354.6,2335.7,322.8,2368.5,322.9L2368.5,322.9z M2368.4,3178.2c-33.2-0.8-62.4-31.4-62.2-65.2
	c0.2-31.4,32.7-62.7,64.9-62.4c36.6,0.2,63.6,26.7,63.3,62.1c-0.3,35.4-31.4,66.4-66,65.6V3178.2z M2385.4,2871.6
	c-30.1,1.6-63.7-28.5-65.2-58.4c-1.7-33.6,27.9-65.9,60.9-66.3c35.1-0.5,67.1,27.8,68,59.9C2450,2838.9,2419.6,2869.8,2385.4,2871.6
	z M2558.7,2197.1c34,0.5,59.6,26.3,60.8,61.3c1.1,32.1-30.2,66.4-61,66.9c-31.1,0.5-65.5-32-66.6-62.9
	C2490.7,2228.4,2523.3,2196.5,2558.7,2197.1L2558.7,2197.1z M2579.9,3050.1c-36.9,2-65.8-22.9-67.5-58.2
	c-1.7-35.5,28.7-68.7,63.1-69.1c30.7-0.3,64.2,32.6,65.2,64.2C2641.7,3016.2,2610.6,3048.4,2579.9,3050.1z M2579.8,2712
	c-37.4,1.2-65.7-23.5-67.3-58.7c-1.6-35.4,24.9-62.9,61.8-64.3c39.2-1.5,66.4,24,67.1,62.9C2642,2685.1,2615.7,2710.8,2579.8,2712z
	 M2596.7,2017c-1.1-36.7,25-65.2,60.4-65.8c34.3-0.6,61.5,24.8,62.8,58.9c1.6,40.6-19.3,63.1-59.3,63.9c-36.4,0.8-62.9-22.9-64-57
	H2596.7z M2673.9,2458.3c0-34.6,25.3-61.2,59.2-61.9c35.7-0.8,62.3,23.3,63.4,57.3c1.2,36.9-23.9,65-59.2,66.1
	C2701.3,2520.9,2673.9,2494.4,2673.9,2458.3L2673.9,2458.3z M2759.3,2895.9c-35.5,0.7-62-25.9-62.6-63.1
	c-0.7-36.1,23.2-64.2,55.8-65.6c36.7-1.6,66.9,26.8,67.3,63.3c0.4,37.1-25.2,64.8-60.4,65.5L2759.3,2895.9z M2912.2,2711.7
	c-35.1-1.3-62.9-31.1-61.1-65.4c1.8-33.7,33.8-63.8,66.1-62c32.9,1.8,63,34.2,61.9,66.6c-1.1,31.6-34.6,62-67,60.8L2912.2,2711.7z
	 M3039.8,2509.1c-30.8-0.3-63.9-33.8-64.3-65.2c-0.4-30.9,33.1-62.9,65.5-62.4c36.9,0.5,63.6,27.4,62.7,63.1
	C3102.9,2478.7,3072.5,2509.4,3039.8,2509.1L3039.8,2509.1z M3129.5,2286c-32.6-0.9-60.8-29.9-60.8-62.5c0-33.5,31-64.7,63.8-64.1
	c33.3,0.6,63.5,31.5,63,64.8C3195,2257,3163,2287,3129.5,2286z M3186.5,2050.7c-34-1-59.3-27.7-59-62.2
	c0.3-34.7,26.8-61.5,60.2-60.9c37.2,0.7,63.3,26.6,62.8,62.5C3250,2027,3223.9,2051.8,3186.5,2050.7z M3210.4,1811.9
	c-38.8,1.3-67.4-25.3-66.9-62.2c0.4-35.3,27.6-60.9,64.7-60.7c37.2,0.2,57.8,21.6,58.2,60.4c0.4,39.4-19.2,61.4-55.9,62.6
	L3210.4,1811.9z"/>
<linearGradient id="SVGID_1_" gradientUnits="userSpaceOnUse" x1="978.6468" y1="-1343.5793" x2="3500.0115" y2="-1343.5793" gradientTransform="matrix(1 0 0 -1 0 0)">
	<stop  offset="0" style="stop-color:#0B0B0B"/>
	<stop  offset="1" style="stop-color:#750F27"/>
</linearGradient>
<path class="st1" d="M1475.2,904.3c-10.1,51.7-20.4,102.7-30,154c-18.9,101.5-37.3,203.2-56.1,304.7c-8.8,47.6-30,89.1-64,123.6
	c-27.2,27.6-60.1,42.3-99.3,36.3c-48.7-7.4-97.1-16.6-147.4-25.4c3.3-8.4,3.7-12.7,6.1-15.2c79.4-81.7,110.7-185,130-293.1
	c16-90.1,28.2-180.9,45.5-270.8c7.1-36.7,18.5-74.1,35.9-107c86.1-162.2,288.3-181.6,404.9-39.8c48.6,59.2,71.7,126.4,57.2,204.4
	c-33.2,178.7-65.2,357.5-97.8,536.3c-3.3,18-8.7,35.9-9.5,54c-0.6,13.5,0.7,30.2,8.2,40.2c7.3,9.6,24,17.5,35.8,16.5
	c8.6-0.7,20.4-15.9,23-26.5c12-48.1,22.4-96.8,31.5-145.6c37.3-200.6,73.6-401.3,110.9-601.8c6.2-33.1,15.1-65.8,23.9-103.9
	c66.5,13,129.8,25.3,194.3,37.9c-39.6,299.4-107.2,588.4-150,884.5c30.8,7.2,57.2,13.9,83.8,19.5c37.1,7.9,74.3,15.2,111.5,22.6
	c131.4,25.9,235.8-22.5,312.6-125.7c113-151.8,95.5-361.3-63.9-491.7c-38.3-31.4-84-47.3-131.9-57.3c-37-7.7-74-15.3-113.3-23.4
	c-7.8-74.3,13.6-140.9,32.4-207.7c225.9,17.8,433.7,128.3,522.2,378c62.6,176.6,32.7,343.5-62.5,499.8
	c-72,118.3-173.7,202-310.7,235.7c-33.8,8.3-70,13.4-104.5,11.4c-72.9-4.4-145.9-12.1-218.2-22.8c-64.1-9.5-123.3-35-176.2-72.9
	c-16.3-11.6-30.1-14.9-50.3-8.8c-83.7,25.2-160.9,12.6-226.2-48.4c-17-15.9-33.6-19.2-53.3-10.5c-45.5,20.2-91.6,17.8-138.3,5.8
	c-12.6-3.3-25.6-5.7-38.5-7.3c-56.8-7.2-96.6,20.8-109.6,76.3c-13.1,55.8,11.9,104.7,64,122.7c25.6,8.9,52.1,15.2,82.6,24
	c-10.8,61.7-21.1,120.6-31.3,179.6c-3.4,19.7-18.1,19.9-32.9,19c-49-3.1-96-14.7-137.9-40.8c-211.1-131.3-210.6-426.2-8.8-549.4
	c84.9-51.8,174-60.6,266.2-19.4c39,17.4,53.6,10.3,64.4-31.7c2.6-10.1,5.3-20.5,5.6-30.8c3.4-138.1,35.7-271.9,60.1-406.9
	c8.1-45,17.9-89.7,25.7-134.8C1561,914,1540.6,894.3,1475.2,904.3L1475.2,904.3z M3428.1,638.2c-57.1,14-113.3,33.8-171.2,41.4
	c-163.3,21.4-326.4,12.3-488-19c-154-29.8-307.5-62-461.3-92.3c-33-6.5-66.6-9.7-103.2-14.8c-17.7,65.4-33.8,126.4-32.7,192.2
	c18.5,5.4,33.3,10.6,48.4,13.8c108.7,22.8,217.4,45.7,326.3,67.6c139.6,28,278,62.7,421.1,70.8c146.3,8.3,289.7-2.3,429.6-49.3
	c43.5-14.6,66.3-42.2,74.6-86.5c7.2-38.3,18.6-75.8,27.5-113.8c1.7-7.1,0.2-14.9,0.2-26.8c-26.4,6.2-48.9,11.3-71.3,16.8
	L3428.1,638.2z M2855.6,631.4c4.5-33.4,8.2-61,12.1-90c-204.1-57.1-405-42-606.2-22.3C2459.1,552.3,2654,599.1,2855.6,631.4z
	 M1471.1,1852.2c-47.8-0.2-92.4,48.9-92.9,102.2c-0.6,55,40.8,101.1,91.8,102.2c52.8,1.1,99.7-45,100.4-98.7
	C1571.1,1903.6,1523,1852.4,1471.1,1852.2z M2003.5,515.5c-50.6,0.4-95.2,50.8-93.9,106.2c1.1,48.9,48.4,98.7,93.9,98.9
	c49.3,0.2,99.7-52.2,98.8-102.9C2101.4,563.4,2054.6,515.1,2003.5,515.5z"/>
<linearGradient id="SVGID_00000060709963281815645260000015217886306024157609_" gradientUnits="userSpaceOnUse" x1="39.9" y1="-2460.3113" x2="2410.9902" y2="-2460.3113" gradientTransform="matrix(1 0 0 -1 0 0)">
	<stop  offset="0" style="stop-color:#EEE07D"/>
	<stop  offset="1" style="stop-color:#2E3127"/>
</linearGradient>
<path style="fill:url(#SVGID_00000060709963281815645260000015217886306024157609_);" d="M2397.1,2193.4c0,0-81.3,11.1-153.3,3.7
	c-72.1-7.4-197.7-35.1-254.9-36.9c-57.3-1.8-84.1,25.8-105.3,49.9c-17.4,19.7-63.6,132.5-32.8,118.7c17.6-7.9,62.4-62.6,156.6-44.8
	c59.9,11.3,90.5,22.2,90.5,38.8s-99.8,53.6-157,70.2c-57.3,16.6-188.4,5.5-188.4,5.5s3.7-27.7,12.9-92.4c9.2-64.7-1.4-88.6-79-149.6
	s-174.1,1.8-257.3,64.7c-83.1,62.8-157,149.6-157,149.6s-81.3,7.4-88.7-72.1c-7.4-79.4-46.2-24-46.2-24
	c-9.2,109-90.5,105.3-138.6,97.9c-42.5-155.2-105.3-179.2-164.4-179.2S723.4,2356,723.4,2433.6S886,2544.4,886,2544.4
	c-73.9,114.5-219.8,147.8-299.3,140.4c-79.4-7.4-86.8-25.9-42.5-68.4c53.6-38.8,96.1-107.2,121.9-170c12.9-210.6-85-240.2-85-240.2
	s-42.5,79.4-14.8,120.1c27.7,40.6,29.6,116.4,29.6,116.4s-46.2,55.4-153.3,133c-107.2,77.6-402.7,112.7-402.7,112.7
	s66.5,49.9,190.3,48c123.8-1.8,184.7-46.2,184.7-46.2s55.4,44.3,107.2,72.1c51.7,27.7,113.6,47.6,225.4-12.9
	c120.8-65.4,203.2-188.4,219.8-214.3c16.6-25.9,83.1-29.6,121.9-40.6c38.8-11.1,49.9-31.4,49.9-31.4s27.7,0,38.8,35.1
	c11.1,35.1-31.4,88.7-55.4,127.5s0,96.1,0,96.1l140.4-208.8c0,0,509.9,1.8,635.5,0s140.4-35.1,236.9-97.9
	c96.5-62.8,165.8-86.8,236-97.9C2441.5,2271,2397.2,2193.4,2397.1,2193.4L2397.1,2193.4z M808.3,2368.9c-5.5-31.4,0-49.9,29.6-53.6
	c0,0,64.7,4.5,66.5,87.2c-49.9,8.8-90.5-2.3-96.1-33.7V2368.9z M1508.4,2398.5c-85,9.2-168.1,0-168.1,0l35.1-40.6
	c0,0,110.8-103.5,160.7-103.5s121.9,35.1,134.9,77.6C1624.8,2372.6,1593.4,2389.3,1508.4,2398.5z"/>
</svg>
