<?xml version="1.0" encoding="utf-8"?>
<!-- Generator: Adobe Illustrator 27.7.0, SVG Export Plug-In . SVG Version: 6.00 Build 0)  -->
<svg version="1.1" id="Layer_1" xmlns="http://www.w3.org/2000/svg" xmlns:xlink="http://www.w3.org/1999/xlink" x="0px" y="0px"
	 viewBox="0 0 3500 3500" style="enable-background:new 0 0 3500 3500;" xml:space="preserve">
<style type="text/css">
	.st0{fill:url(#SVGID_1_);stroke:#3897E5;stroke-width:7;stroke-miterlimit:10;}
	.st1{fill:url(#SVGID_00000088853898872212069470000013417499245166091931_);stroke:#3897E5;stroke-width:7;stroke-miterlimit:10;}
	.st2{fill:url(#SVGID_00000078731017290118645760000011550496002110929075_);}
	.st3{fill:url(#SVGID_00000129180117896468864750000005017414413228078480_);stroke:#3897E5;stroke-width:7;stroke-miterlimit:10;}
	.st4{fill:#ABABAB;stroke:#3897E5;stroke-width:7;stroke-miterlimit:10;}
	.st5{fill:url(#SVGID_00000169533144481842080100000008858402219017043609_);stroke:#3897E5;stroke-width:7;stroke-miterlimit:10;}
	.st6{fill:url(#SVGID_00000057117228714541064930000001271493682549314986_);stroke:#3897E5;stroke-width:7;stroke-miterlimit:10;}
	.st7{fill:url(#SVGID_00000141449186787073016160000012782078848489083555_);stroke:#3897E5;stroke-width:7;stroke-miterlimit:10;}
	.st8{fill:url(#SVGID_00000156559362239898986290000002185562232257790652_);}
	.st9{opacity:0.86;fill:#2885C8;enable-background:new    ;}
	.st10{fill:#FFFFFF;}
</style>
<linearGradient id="SVGID_1_" gradientUnits="userSpaceOnUse" x1="675.1406" y1="2266.6328" x2="203.6205" y2="1719.1628" gradientTransform="matrix(1 0 0 1 0 -500)">
	<stop  offset="0.27" style="stop-color:#12B0FA"/>
	<stop  offset="0.9" style="stop-color:#007CB8"/>
</linearGradient>
<path class="st0" d="M725.1,1411.5c-0.2,15.1-9.3,30.3-15.1,45.2c-4.3,10.9-10,21.2-15.1,31.8c-26.2,36.7-52.3,73.4-78.5,110.1
	c-45.3,62.9-90.6,125.8-136,188.7c-8.8,12.2-17.5,24.5-26.2,36.8l-0.4-0.2c-5.4,8.9-14.9,21.4-30.5,29.6
	c-15.5,8.1-30.1,8.3-35.9,8.3c-119.4-1.2-238.8-0.5-358.2-0.6c-26.7,0-28-1.9-24.7-28.4c6-48.4,30.1-88.4,57.8-127.1
	c138.3-193.7,275.6-388.1,414.5-581.3c41.3-57.4,74.4-122.3,137.5-161.2c0.3-0.2,0-1.7-0.1-2.5c16.3-4.2,32.7-8.3,49.1-12.5
	c9.9,0.5,19.9,2.2,29.7,1.4c30.6-2.5,32.5-1.1,32.6,29.9C725.8,1123.4,726.2,1267.5,725.1,1411.5L725.1,1411.5z"/>
<linearGradient id="SVGID_00000092455425779235981470000005910527398036142509_" gradientUnits="userSpaceOnUse" x1="958.2656" y1="1540.3501" x2="956.1356" y2="2305.8501" gradientTransform="matrix(1 0 0 1 0 -500)">
	<stop  offset="0.27" style="stop-color:#12B0FA"/>
	<stop  offset="0.9" style="stop-color:#007CB8"/>
</linearGradient>
<path style="fill:url(#SVGID_00000092455425779235981470000005910527398036142509_);stroke:#3897E5;stroke-width:7;stroke-miterlimit:10;" d="
	M1151,1846.8c0.5,12.6-2.8,19.1-17.2,19.1c-117.6-0.4-235.3-0.5-352.9,0.1c-16.8,0.1-17.8-8.4-17.7-21.2
	c0.4-46.3,0.2-92.6,0.2-138.8V983c0-28.4,0.1-28.5,28.2-28.5c64.5,0,129.1-2.5,193.3,1c60.9,3.3,82.1,5.5,106.6,21
	c19.8,12.6,30.9,27.3,34,31.5c26.8,36.6,24.8,80.1,24.8,95c0.3,232.2,0.4,464.5,0.6,696.7C1150.8,1815.4,1150.3,1831.2,1151,1846.8
	L1151,1846.8z"/>
<linearGradient id="SVGID_00000036229331609852304870000001785426215761652395_" gradientUnits="userSpaceOnUse" x1="909.4771" y1="2446.1538" x2="1291.1871" y2="3000.4639" gradientTransform="matrix(1 0 0 1 0 -500)">
	<stop  offset="6.000000e-02" style="stop-color:#D40307"/>
	<stop  offset="0.75" style="stop-color:#A00601"/>
</linearGradient>
<path style="fill:url(#SVGID_00000036229331609852304870000001785426215761652395_);" d="M1276.5,2270.7
	c-34.4,4.4-69.4,4.5-104.1,4.3c-17.7-0.1-22.3,5.8-21.9,22.6c0.9,34,3.5,68.7-1.5,102c-11.9,79.7-62.5,125-138.6,145.4
	c-93.2,24.9-193.1-18-229.5-103.1c-10.8-24.9-16.7-53.9-17-81c-1.7-145.8-0.4-291.6-1.4-437.4c-0.1-22.1,8.4-26.2,27.7-25.9
	c76.7,0.8,153.4,0.3,230,0.3s151.7-0.6,227.4,0.2c63.3,0.7,117.6,21.1,155.1,75.9C1470.4,2072.5,1435.9,2250.5,1276.5,2270.7
	L1276.5,2270.7z"/>
<linearGradient id="SVGID_00000178886554206041428840000011331796533553928105_" gradientUnits="userSpaceOnUse" x1="1600.0995" y1="1527.6681" x2="1600.0995" y2="2869.189" gradientTransform="matrix(1 0 0 1 0 -500)">
	<stop  offset="0.27" style="stop-color:#12B0FA"/>
	<stop  offset="0.9" style="stop-color:#007CB8"/>
</linearGradient>
<path style="fill:url(#SVGID_00000178886554206041428840000011331796533553928105_);stroke:#3897E5;stroke-width:7;stroke-miterlimit:10;" d="
	M1950.7,2368.9c-114.4-0.6-229.1,2.5-343.2-3.4c-62.6-3.2-124.1-22.5-175.3-63.7c-8.7-6.1-17.2-12.3-25.9-18.4
	c-13-9.8-26.5-19-38.5-29.8c-2.2-1.9-0.2-12.8,3.1-15.8c27.4-24.1,40.8-56.6,55-88.7c10.6-54.4,7.6-107-18.8-157
	c-27.9-53.2-72.6-83.7-130.4-94.7c-19.3-3.6-27.4-9.6-27.1-31.1c1.2-110,0.5-220.1,0.5-330.1c-0.1-163,0.1-326.1-0.6-489.1
	c-0.1-17.7,7.7-20.1,22.1-19.3c81.2,4.5,161.6,11.7,231.2,60.4c71.4,64.7,91.5,149.7,93.1,241.1c1.2,67.2-0.4,134.3-0.8,201.6
	c0.2,104.4,0.4,208.8,0.5,313.2c0.1,26.6-0.1,53.2-0.1,79.8c0.8,9.7,2.2,23.7,4.3,40.5c0.6,5,10.6,82,26.2,132.9
	c9,29.4,38.5,107.9,106.5,169.5c51.4,46.6,116.6,77.4,195.1,92.9C1935.7,2361.2,1943.1,2365.8,1950.7,2368.9L1950.7,2368.9z"/>
<polygon class="st4" points="1114.7,1885.9 1116.3,1884.1 1117.7,1886 1116.2,1886.1 "/>
<linearGradient id="SVGID_00000062881857176804589170000015206140598417523337_" gradientUnits="userSpaceOnUse" x1="-2.145247e-02" y1="2586.4348" x2="724.5049" y2="2586.4348" gradientTransform="matrix(1 0 0 1 0 -500)">
	<stop  offset="0.27" style="stop-color:#12B0FA"/>
	<stop  offset="0.9" style="stop-color:#007CB8"/>
</linearGradient>
<path style="fill:url(#SVGID_00000062881857176804589170000015206140598417523337_);stroke:#3897E5;stroke-width:7;stroke-miterlimit:10;" d="
	M723.7,2243.5c0,21.1-11,31.7-33.1,31.7c-160.3,0.1-320.7,0.1-481,0c-132.3-0.1-207.4-74.4-209.1-207.3c-0.5-49,0.8-97.9-0.5-146.7
	c-0.4-18.3,4.7-23.8,23.2-23.6c84.7,0.6,169.4,0.5,254.1,0.4h88.4c111.5,0,223,0.4,334.6-0.4c18.4-0.1,24.4,2.6,24.2,23.8
	C722.8,2028.7,723.6,2136.1,723.7,2243.5L723.7,2243.5z"/>
<linearGradient id="SVGID_00000015321221919693077680000004900853589488487341_" gradientUnits="userSpaceOnUse" x1="2240.1001" y1="2521.5" x2="2240.1001" y2="1527.8295" gradientTransform="matrix(1 0 0 1 0 -500)">
	<stop  offset="0.27" style="stop-color:#12B0FA"/>
	<stop  offset="0.9" style="stop-color:#007CB8"/>
</linearGradient>
<path style="fill:url(#SVGID_00000015321221919693077680000004900853589488487341_);stroke:#3897E5;stroke-width:7;stroke-miterlimit:10;" d="
	M2461.7,1614.8c-2.9,22.5-5.8,45-8.7,67.5c-28.5,169.4-138.1,285.4-305.7,320.8c-42.4,8.9-85.9,12.4-128.8,18.4
	c18.4-13.4,38-25.4,54.9-40.4c27.4-24.4,39.1-56.9,39.4-93.1c0.6-66.9,0.4-133.8,0.5-200.7c0-118.2-0.3-236.5,0.3-354.7
	c0.1-12.9,1.9-32.5,5.3-56.9c2.6-18.8,6.1-44.1,12.9-65.8c14.2-44.9,43.6-72.7,57.6-88.8c51.6-59.1,122.4-80.1,197.7-88.5
	c18.1-2.1,36.4-2.9,54.6-4.6c12.3-1.2,16.8,3.9,16.8,16.4c0.6,155.3,1.6,310.7,2.5,466c0,1.7-0.5,3.5-0.7,5.2
	c0.1,4,0.1,8.1,0.1,12.1v0.3C2460.9,1556.8,2461.4,1585.8,2461.7,1614.8L2461.7,1614.8z"/>
<linearGradient id="SVGID_00000021111447097520890400000003008257691076666778_" gradientUnits="userSpaceOnUse" x1="1595.5997" y1="2492.2715" x2="2461.6414" y2="2492.2715" gradientTransform="matrix(1 0 0 1 0 -500)">
	<stop  offset="0.27" style="stop-color:#12B0FA"/>
	<stop  offset="0.9" style="stop-color:#007CB8"/>
</linearGradient>
<path style="fill:url(#SVGID_00000021111447097520890400000003008257691076666778_);stroke:#3897E5;stroke-width:7;stroke-miterlimit:10;" d="
	M2461.5,1683.7c0,4.7,0.1,9.4,0.1,14.1c-0.4,19.3-0.8,38.6-1.3,58v11.1c-0.1,62.7-0.1,125.4-0.1,188.1c-0.3,7.3-0.5,14.5-0.7,21.8
	c-0.5,13.9-0.7,23.3-0.8,25.1c-0.6,18.9-6.4,49.4-12.2,70.8c-21.1,77.7-64,135.8-64,135.8c-12.8,17.4-48.3,62.2-109.1,99.8
	c-16.8,10.3-52,30.8-101.3,44.3c-26.3,7.2-53.5,11.5-81.6,12.9c-18.2,1.3-36.3,3.4-54.5,3.8c-28.5,0.6-56.9-0.1-85.4-0.1
	c-6.2-1.4-15-3.4-25.5-6.2c-39.5-10.6-122.1-32.8-192.5-96c-64.8-58.2-93.6-128-106.5-169.5c-10.8-40.3-20.1-84.7-26.2-132.9
	c-1.7-13.8-3.1-27.3-4.3-40.5c4.7,6.5,9,13.3,14.1,19.4c9,11,18.5,21.4,27.7,32.1l-0.7,0.4c1.8,1.8,3.5,3.5,5.2,5.2
	c1.7,1.8,3.5,3.6,5.3,5.3l0.4-0.7c22.6,31.9,57.5,36.5,91.7,37.2c84.2,1.7,168.5,0.8,252.7,0.9c8.8-0.7,17.6-1.5,26.4-2.2
	c42.9-6,86.4-9.5,128.8-18.4c167.6-35.4,277.2-151.3,305.7-320.8c2.9-22.5,5.8-45,8.7-67.5
	C2461.7,1637.8,2461.6,1660.7,2461.5,1683.7L2461.5,1683.7z"/>
<linearGradient id="SVGID_00000168811388205272799010000002676325726720955550_" gradientUnits="userSpaceOnUse" x1="16001.5068" y1="-554.376" x2="15380.3545" y2="-126.6402" gradientTransform="matrix(-1 0 0 -1 18684.4102 1601.6101)">
	<stop  offset="0" style="stop-color:#54C0EA"/>
	<stop  offset="0.9" style="stop-color:#0893D5"/>
</linearGradient>
<path style="fill:url(#SVGID_00000168811388205272799010000002676325726720955550_);" d="M2651.5,2088.1v-173.2
	c0-39.5,32.1-71.6,71.6-71.6h194.5v-194.5c0-39.6,32.1-71.6,71.6-71.6h173.2c39.6,0,71.6,32.1,71.6,71.6v510.9h-510.9
	C2683.5,2159.7,2651.5,2127.6,2651.5,2088.1L2651.5,2088.1z"/>
<path class="st9" d="M3500,1914.6v173.2c0,39.5-32.1,71.6-71.6,71.6h-194.5v194.5c0,39.6-32.1,71.6-71.6,71.6h-173.2
	c-39.6,0-71.6-32.1-71.6-71.6V1843h510.9C3467.9,1843,3500,1875.1,3500,1914.6L3500,1914.6z"/>
<g>
	<path class="st10" d="M2695,1931.4h60.1c8.8,0,16.7,1.2,23.6,3.7c6.9,2.4,12.8,5.9,17.6,10.4s8.5,9.8,11.1,16.1
		c2.6,6.2,3.9,13.1,3.9,20.7v0.4c0,8.5-1.5,16-4.6,22.5s-7.3,11.8-12.7,16.2c-5.4,4.3-11.7,7.6-18.9,9.8s-14.9,3.3-23.2,3.3h-24.6
		v44.1H2695V1931.4L2695,1931.4z M2753,2005.5c8.1,0,14.4-2.1,18.9-6.4s6.7-9.6,6.7-15.9v-0.4c0-7.3-2.4-12.8-7-16.6
		c-4.7-3.8-11.1-5.7-19.2-5.7h-25v44.9L2753,2005.5L2753,2005.5z"/>
	<path class="st10" d="M2835.3,1931.4h32.3v117.8h73.3v29.2h-105.6V1931.4L2835.3,1931.4z"/>
	<path class="st10" d="M3026.6,2080.7c-19.7,0-35.3-5.5-46.6-16.4s-17-27.2-17-48.9v-84h32.3v83.2c0,12,2.8,21.1,8.4,27.2
		c5.6,6.1,13.4,9.1,23.3,9.1s17.7-2.9,23.3-8.8s8.4-14.7,8.4-26.5v-84.2h32.3v83c0,11.2-1.5,20.9-4.5,29.2
		c-3,8.3-7.3,15.2-12.9,20.7c-5.6,5.5-12.4,9.7-20.4,12.4S3036.4,2080.7,3026.6,2080.7L3026.6,2080.7z"/>
	<path class="st10" d="M3176.6,2080.5c-11.2,0-22.2-1.9-33-5.8s-20.6-9.8-29.4-17.8l19.1-22.9c6.7,5.5,13.6,9.8,20.7,13
		c7.1,3.2,14.8,4.8,23.2,4.8c6.7,0,11.9-1.2,15.6-3.7c3.7-2.4,5.6-5.8,5.6-10.2v-0.4c0-2.1-0.4-3.9-1.2-5.6
		c-0.8-1.6-2.2-3.1-4.4-4.5s-5.2-2.8-9.1-4.2c-3.9-1.4-8.9-2.9-15.1-4.4c-7.4-1.8-14.2-3.8-20.2-6.1s-11.2-5-15.4-8.3
		s-7.5-7.4-9.8-12.3s-3.5-11-3.5-18.3v-0.4c0-6.7,1.2-12.8,3.8-18.2s6-10.1,10.5-14s9.9-6.9,16.2-9s13.2-3.2,20.8-3.2
		c10.8,0,20.7,1.6,29.7,4.8s17.3,7.8,24.9,13.9l-16.8,24.4c-6.6-4.5-13-8-19.3-10.6s-12.6-3.9-18.9-3.9s-11,1.2-14.2,3.7
		c-3.1,2.4-4.7,5.5-4.7,9.1v0.4c0,2.4,0.5,4.4,1.4,6.2c0.9,1.8,2.6,3.3,4.9,4.7s5.6,2.7,9.8,4c4.1,1.3,9.4,2.7,15.7,4.4
		c7.4,2,14.1,4.2,19.9,6.6c5.8,2.4,10.7,5.4,14.7,8.8s7,7.5,9.1,12.1s3.1,10.2,3.1,16.6v0.4c0,7.3-1.3,13.8-4,19.4
		c-2.6,5.7-6.3,10.4-11.1,14.3s-10.4,6.8-16.9,8.8C3191.9,2079.5,3184.6,2080.5,3176.6,2080.5L3176.6,2080.5z"/>
</g>
</svg>
