<?xml version="1.0" encoding="UTF-8"?>
<svg id="Layer_01" data-name="Layer 01" xmlns="http://www.w3.org/2000/svg" version="1.1" viewBox="0 0 3500 3500">
  <defs>
    <style>
      .cls-1 {
        fill: #12a3aa;
      }

      .cls-1, .cls-2, .cls-3 {
        stroke-width: 0px;
      }

      .cls-2 {
        fill: #b40000;
      }

      .cls-3 {
        fill: #fff;
      }
    </style>
  </defs>
  <path class="cls-1" d="M344.6,1241.76v561.12c74.41,0,145.77-29.56,198.38-82.17,52.62-52.62,82.18-123.98,82.18-198.39s-29.56-145.77-82.17-198.38c-52.62-52.62-123.98-82.18-198.39-82.18Z"/>
  <path class="cls-1" d="M280.56,1557.05v561.12c-74.41,0-145.77-29.56-198.38-82.17C29.56,1983.38,0,1912.01,0,1837.6s29.56-145.77,82.17-198.38c52.62-52.62,123.98-82.18,198.39-82.18Z"/>
  <path class="cls-2" d="M250.6,1476.49c23.77-28.86,35.05-65.82,31.45-103.03-3.6-37.21-21.76-71.33-50.62-95.1-28.86-23.77-65.82-35.05-103.03-31.45-37.21,3.6-71.33,21.76-95.1,50.62-23.77,28.86-35.05,65.82-31.45,103.03,3.6,37.21,21.76,71.33,50.62,95.1,28.86,23.77,65.82,35.05,103.03,31.45,37.21-3.6,71.33-21.76,95.1-50.62Z"/>
  <circle class="cls-2" cx="2569.02" cy="1655.94" r="61.11"/>
  <circle class="cls-2" cx="1407.79" cy="1655.94" r="61.11"/>
  <circle class="cls-2" cx="1549.67" cy="1655.94" r="61.11"/>
  <g>
    <path class="cls-3" d="M3499.52,1917.54c-2.38-27.81-4.48-55.8-19.29-79.25-25.37-40.15-63.75-74-110.55-85.93-55.73-14.2-127.89-11.23-176.89,21.25-48.02,31.83-85.63,88.9-90.92,146.84-2.27,24.87,3.5,49.85,12.02,73.32,14.76,40.63,39,79.22,75.12,102.96,72.44,47.6,172.21,50.5,247.96,9.16,30.95-16.89,35.97-57.77-4.83-65.88-35.01-6.27-71.3,9.94-106.86,6.85-28.07-.08-57.61-1.09-78.32-23.5-35-33.36-55.37-91.52-34.23-138.05,15.99-35.19,54.58-64.67,93.54-66.98,28.77-1.71,55.81,13.95,73.45,35.89,13.04,16.23,31.77,50.06-2.26,53.26-37.51,3.52-82.62-7.33-114.32,19.84-9.82,8.42-10.5,21.06.29,28.76,12.17,8.68,34.29,4.62,48.64,4.82,48.13.68,96.28.18,144.4.18,31.61.16,46.47-10.22,43.05-43.53Z"/>
    <path class="cls-3" d="M2401,2058.92c-20.72-24.61-38.07-51.81-59.47-75.95-13.65-17.35-27.18-34.87-39.96-53-12.99-16.83-11.71-37.4,5.82-50.39,25.17-17.66,44.98-40.14,66.12-61.75,12.79-11.71,23.89-25.55,36.94-37.17,4.92-4.68,11.21-10.3,13.22-16.52,3.03-14.41-18.58-14.84-28.74-15.15-31.25,1.02-67.74-6.66-93.35,15.48-50.88,43.98-100.41,89.48-149.56,135.37-24.9,23.24-49.7,46.59-74.54,69.91-17.74,16.65-45.49,38.33-41.53,66.21,2.89,20.36-9.07,81.49,11.78,88.98,17.46,5.26,52.07,4.17,69.94-9.32,20.59-13.54,21.13-44.2,25.66-67.12,7.31-24.86,31.25-49.19,54.08-62.21,10.83-4.11,20.08,3.9,26.72,11.94,18.5,23.34,33.9,47.44,55.88,67.11,39.75,50.76,39.49,64.27,112.64,63.17,15.09-1.37,43.18,3.19,53.38-6.77l.3-.72c.83-2.45-.58-5.63-3.14-9.44-12.29-17.58-25.29-37.18-42.2-52.67Z"/>
    <path class="cls-3" d="M1654.24,1753.52c-12.95-5.68-31.86-5.84-46.28-2.82-27.5,7.86-44.13,40.69-45.69,68.44-1.24,33.46-1.01,66.61-2.76,99.86-3.42,32.34,3.14,75.13-16.79,101.26-15.56,17.91-42.17,17.74-64.24,18.05-48.24,0-96.53-.4-144.35-.55-6.84.09-15.95.19-20.53,4.49l-.7.75c-4.25,5.36-.91,13.76,1.92,19.59,19.5,40.3,65.54,55.03,106.86,64.06,50.2,10.96,103.29,7.72,152.15-7.9,40.3-12.88,78.53-38.64,87.39-82.79,5.22-39.79,2.55-80.36,4.06-120.47.35-41.98,1.18-82.73.86-124.88-.71-13.21-.04-30.68-11.91-37.1Z"/>
    <path class="cls-3" d="M1893.32,1756.98c-13.38,6.2-24.95,22.65-39.97,23.84-14.22,0-15.28-22.57-26.98-28.79-5.58-3.31-12.15-3.59-18.69-3.45l-1.82.07c-57.87,1.04-65.53,34.94-64.12,84.1.41,90.71-1.04,181.53.58,271.98.63,35.48,52.48,23.81,71.31,12.62,16.3-9.69,25.66-26.97,23.97-45.94.15-42.21-.88-84.92,1.94-126.62,4.02-61.6,36.02-88.45,92.12-105.95,27.73-12.49,51.75-49.13,36.52-78.62-14.78-19.19-54.35-12.88-74.84-3.24Z"/>
    <path class="cls-3" d="M1077.11,1758.12c-20.25-4.69-48.87-2.54-65.76,6.89-12.93,8.8-21.84,25.43-27.66,40.77-4.22,12.21-5,25.97-4.88,38.98,1.6,83.79.69,167.06.09,250.85.07,9.12.25,20.38,5.1,27.59,9.07,12.9,28.52,11.25,42.92,10.96,33.37-.99,59.22-24.68,62.82-60.24,2.11-48.91.08-98.35.77-147.09l-.03-1.62c-.55-28.8-.21-58.23-.28-87.3-2.73-20.01,8.38-70.54-13.09-79.78Z"/>
    <path class="cls-3" d="M2614.95,1925.26v-1.63c-.21-28.72-.2-58.17-.22-87.1-.12-19.58.34-38.98-.03-58.78-.3-10.11-2.22-21.97-12.47-26.42-44.83-12.2-93.52,7.8-92.68,59.3-.99,95.13,1.15,190.31-.61,285.29-.3,12.12.71,26.55,13.91,30.31,34.3,7.71,86.1-9.25,91.16-47.42,2.53-50.92.21-102.73.92-153.56Z"/>
    <path class="cls-3" d="M1223.51,1637.9c-25.36-.04-50.42.2-75.65.13-31.22.03-62.76-.17-93.73,0h-1.64c-48.87.26-98.49.04-147.55.15-22.54.76-46.88-3.17-63.39,9.84-16,13.22-27.22,35.51-27.28,56.12-.05,19.15,19.65,22.32,35.26,21.78,112.73-.96,225.28,1.32,337.79-.66,24.89-1.22,49.5-13.96,62.17-35.99,8.65-14.53,10.93-37.2-.96-45.72-6.89-5.16-16.5-5.42-25.03-5.66Z"/>
    <path class="cls-3" d="M2040.15,1776.36v1.63c.46,47.9-.48,101.18-.23,150.19.09,9.83,2.85,29.32,16.7,22.13,17.77-9.22,30.58-25.76,43.88-40.2,12.87-13.97,30.39-26.06,37.08-44.53,4.27-11.77,4.56-24.95,5.19-37.51.63-52.37.32-105.5-.46-158.12,2.15-48.92-27.41-80.23-77.4-74.43-21.99.12-25.92,19.69-24.93,37.88.48,47.77.06,95.57.14,142.97Z"/>
    <path class="cls-3" d="M3088.54,1750.09c-8.56-5.72-20.46-3.66-30.42-4.04-39.5-1.19-57.65,7.47-68.6,35.27h0l-31.65,72.23c-.52,1.05-1.08,2.09-1.57,3.15-1.33,2.82-2.46,5.71-3.58,8.61l-45.92,104.78,53.58,117.66,8.27-19.15c2.46-3.37,4.53-7.37,5.74-10.39,6.82-15.76,13.16-31.77,19.41-47.83l75.68-175.23c2.26-4.88,4.49-9.78,7.02-14.5,4.93-9.26,12.65-24.56,16.17-39.19l.06-.14h-.02c2.9-12.17,2.89-23.87-4.15-31.23Z"/>
    <path class="cls-3" d="M1400.52,2003.09l.71-.97c6.53-16.68-2.35-37.32-1.04-55.12-1.07-44.74-.19-90.46-1.04-135.65,1.74-46.26-30.82-66.42-74.4-62.8-9.67.19-19.53.63-25.72,4.95-7.62,4.71-9.08,16.14-9.14,25.22-.17,52.92-.44,105.84.46,158.68-2.7,35.8,19.08,64.1,54.8,69.83,16.11,1.93,43.48,6.41,55.39-4.13Z"/>
    <path class="cls-3" d="M2938.76,2101.46h0c-1.03-2.64-2.13-5.24-3.3-7.79l-22.64-53.28c-5.45-14.43-11-28.75-18.06-42.51l-90.09-212.04c-.26-.63-.52-1.26-.79-1.86l-.29-.68h-.04c-17.32-38.15-48.62-33.75-89.73-33.36-11.61-.37-28.08,1.65-25.53,16.92,1.15,9.75,3.85,18.93,7.28,27.85h-.09s.87,1.98.87,1.98c1.79,4.46,3.72,8.87,5.83,13.21l134.7,305.21c.14.99.32,1.97.4,2.97,1.83,26.29-16.95,52.06-39.9,63.56-26.39,12.88-64.95-3.12-91.6,9.85-14,6.84-24.84,23.4-24.36,38.92l.16,1.39c4.72,22.74,35.79,26.93,55.79,26.41,29.65-.73,58.82-.07,88.14-.31,13.91-.17,27.57-3.65,38.63-12.17,19.48-14.91,38.82-31.79,50.64-53.81,10.46-18.86,26.25-36.59,29.16-58.66,1.45-10.79-1.18-21.57-5.18-31.79h0Z"/>
  </g>
</svg>