<?xml version="1.0" encoding="utf-8"?>
<!-- Generator: Adobe Illustrator 27.7.0, SVG Export Plug-In . SVG Version: 6.00 Build 0)  -->
<svg version="1.1" id="Layer_1" xmlns="http://www.w3.org/2000/svg" xmlns:xlink="http://www.w3.org/1999/xlink" x="0px" y="0px"
	 viewBox="0 0 3500 3500" style="enable-background:new 0 0 3500 3500;" xml:space="preserve">
<style type="text/css">
	.st0{fill:#FFFFFF;}
	.st1{fill:#51A51B;}
	.st2{fill:#E8E8E8;}
	.st3{fill:#9E9D9E;}
	.st4{fill:#D9D1DB;}
	.st5{fill:#A3A3A3;}
	.st6{fill:#E0E0E0;}
	.st7{fill:#A8ACB2;}
	.st8{fill:#EAEAEA;}
	.st9{fill:#BDC3C9;}
	.st10{fill:#C6C4C6;}
	.st11{fill:#E5E5E5;}
	.st12{fill:#A5A5A5;}
	.st13{fill:#BACECD;}
	.st14{fill:#D9D7DB;}
	.st15{fill:#DBD5E0;}
	.st16{fill:#9AA1A8;}
	.st17{fill:#A1A7AF;}
	.st18{fill:#AFAFAF;}
	.st19{fill:#959AA0;}
	.st20{fill:#D8D8D8;}
	.st21{fill:#ADACAD;}
	.st22{fill:#E8DFEA;}
	.st23{fill:#B2B2B2;}
	.st24{fill:#939393;}
	.st25{fill:#A7A7A8;}
	.st26{fill:#C1C1C1;}
	.st27{fill:#7F7F7F;}
	.st28{fill:#DDDDDD;}
	.st29{fill:url(#SVGID_1_);}
	.st30{fill:#F4F4F4;}
	.st31{fill:#E6E7E8;}
</style>
<g>
	<g id="Objects">
		<g>
			<g>
				<path class="st0" d="M104.6,1932.5c-32.5-18.3-58-43.6-76.7-75.8S0,1789.1,0,1750s9-74.9,27.4-107.1
					c18.3-32.2,43.3-57.4,75.5-75.8c31.9-18.3,67.3-27.4,106.7-27.4c35.8,0,69.2,8.1,100.4,24.7c31,16.5,57.1,40.3,78.5,71.3
					l-64.1,45.7c-29.2-44.2-67.6-66.4-114.9-66.4c-37,0-67.4,12.6-90.8,37.9c-23.8,25.3-35.5,57.7-35.5,97.1s12,71.9,36.4,97.1
					c24.1,25.3,54.7,37.9,92,37.9c32.2,0,58-8.1,78.2-24.1c19.9-15.9,32.2-35.8,37.3-59.2H203.6v-70.1h205.7
					c0.9,8.7,1.5,19.8,1.5,32.8c0.3,104.6-74.3,196.1-199.1,195.8C172.6,1960.2,136.8,1950.8,104.6,1932.5L104.6,1932.5z"/>
				<path class="st0" d="M482.9,1954.2v-408.3h290.5v70.4H564.1v94.1h181.6v70.4H564.1v103.4h213.8v70.1L482.9,1954.2L482.9,1954.2z
					"/>
				<path class="st0" d="M853,1954.2v-408.3h86l131.7,271.8l131.4-271.8h86v408.3h-81.2v-250.5l-110.1,223.1h-52.6l-110-223.1v250.5
					H853L853,1954.2z"/>
			</g>
			<rect x="2158.6" y="1541.9" class="st1" width="19.2" height="410.9"/>
			<g>
				<path class="st1" d="M2439.1,1876.9h171.2v78.6h-259.2V1545h88V1876.9L2439.1,1876.9z"/>
				<path class="st1" d="M2850.2,1885.7v69.8h-204.1v-69.8h58.1V1613h-53.4v-68h194.7v68h-53.4v272.7H2850.2L2850.2,1885.7z"/>
				<path class="st1" d="M3158.7,1809.5h-147.2v146h-87.4V1545h251.6v76.8h-164.2v110.8h147.2L3158.7,1809.5L3158.7,1809.5z"/>
				<path class="st1" d="M3495.3,1621.8h-163v83.3h152.5v76.8h-152.5v93.8H3500v79.8h-256.3V1545h251.6L3495.3,1621.8L3495.3,1621.8
					z"/>
			</g>
			<g>
				<g>
					<g>
						<polygon class="st2" points="1722.3,1646.8 1587.2,1646.8 1608.6,1600.9 						"/>
						<polygon class="st3" points="1608.6,1600.9 1565.2,1550.5 1455.1,1609.7 1509,1646.8 						"/>
						<polygon class="st4" points="1587.2,1646.8 1608.6,1600.9 1509,1646.8 						"/>
						<polygon class="st5" points="1509,1646.8 1429.9,1646.8 1455.1,1609.7 						"/>
						<polygon class="st6" points="1429.9,1646.8 1367,1646.8 1455.1,1609.7 						"/>
						<path class="st7" d="M1367,1646.8c0,0,112.8-96.5,114.5-96.3s-26.4,59.2-26.4,59.2L1367,1646.8z"/>
						<polygon class="st8" points="1481.5,1550.5 1565.2,1550.5 1455.1,1609.7 						"/>
						<polygon class="st9" points="1565.2,1550.5 1608.6,1600.9 1722.3,1550.5 						"/>
						<polygon class="st10" points="1722.3,1646.8 1857.4,1646.8 1836,1600.9 						"/>
						<polygon class="st11" points="1722.3,1550.5 1608.6,1600.9 1722.3,1646.8 1836,1600.9 						"/>
						<polygon class="st0" points="1836,1600.9 1879.4,1550.5 1989.5,1609.7 1935.6,1646.8 						"/>
						<polygon class="st12" points="1857.4,1646.8 1836,1600.9 1935.6,1646.8 						"/>
						<polygon class="st13" points="1935.6,1646.8 2014.7,1646.8 1989.5,1609.7 						"/>
						<polygon class="st14" points="2014.7,1646.8 2077.6,1646.8 1989.5,1609.7 						"/>
						<path class="st15" d="M2077.6,1646.8c0,0-112.8-96.5-114.5-96.3s26.4,59.2,26.4,59.2L2077.6,1646.8z"/>
						<polygon class="st0" points="1963.1,1550.5 1879.4,1550.5 1989.5,1609.7 						"/>
						<polygon class="st16" points="1879.4,1550.5 1836,1600.9 1722.3,1550.5 						"/>
					</g>
					<g>
						<polygon class="st17" points="1587.2,1646.8 1671.6,1854.5 1509,1646.8 						"/>
						<polygon class="st0" points="1509,1646.8 1622.5,1854.5 1722.3,1960.2 1671.6,1854.5 						"/>
						<polygon class="st8" points="1509,1646.8 1429.9,1646.8 1622.5,1854.5 						"/>
						<polygon class="st18" points="1722.3,1960.2 1622.5,1854.5 1367,1646.8 						"/>
						<polygon class="st19" points="1429.9,1646.8 1367,1646.8 1622.5,1854.5 						"/>
						<polygon class="st20" points="1722.3,1646.8 1671.6,1854.5 1722.3,1960.2 1773.1,1854.5 						"/>
						<polygon class="st11" points="1857.4,1646.8 1773.1,1854.5 1935.6,1646.8 						"/>
						<polygon class="st21" points="1935.6,1646.8 1822.1,1854.5 1722.3,1960.2 1773.1,1854.5 						"/>
						<polygon class="st22" points="1935.6,1646.8 2014.7,1646.8 1822.1,1854.5 						"/>
						<polygon class="st23" points="1722.3,1960.2 1822.1,1854.5 2077.6,1646.8 						"/>
						<polygon class="st24" points="2014.7,1646.8 2077.6,1646.8 1822.1,1854.5 						"/>
						<polygon class="st25" points="1857.4,1646.8 1773.1,1646.8 1773.1,1854.5 						"/>
						<polygon class="st2" points="1722.3,1646.8 1587.2,1646.8 1671.6,1854.5 						"/>
					</g>
					<g>
						<polygon class="st0" points="1429.9,1646.8 1587.2,1646.8 1565.2,1550.5 						"/>
						<polygon class="st26" points="1587.2,1646.8 1722.3,1646.8 1857.4,1646.8 1722.3,1550.5 						"/>
						<polygon class="st27" points="1963.1,1550.5 2014.7,1646.8 2077.6,1646.8 						"/>
						<polygon class="st26" points="1857.4,1646.8 2014.7,1646.8 1879.4,1550.5 						"/>
					</g>
					<path class="st28" d="M2014.7,1635.9h-634.9c-7.8,6.7-12.8,10.9-12.8,10.9h710.6c0,0-4.9-4.2-12.8-10.9H2014.7L2014.7,1635.9z"
						/>
					
						<linearGradient id="SVGID_1_" gradientUnits="userSpaceOnUse" x1="1786.5404" y1="-1760.0894" x2="1846.3503" y2="-1801.8394" gradientTransform="matrix(1 0 0 -1 0 0)">
						<stop  offset="0" style="stop-color:#D6D6D6"/>
						<stop  offset="1" style="stop-color:#191919"/>
					</linearGradient>
					<polygon class="st29" points="1722.3,1960.2 1871.6,1646.8 1975.1,1646.8 					"/>
				</g>
				<polygon class="st30" points="1773.1,1646.8 1722.3,1646.8 1773.1,1854.5 				"/>
				<polygon class="st30" points="1722.3,1960.2 1722.3,1646.8 1671.6,1646.8 				"/>
				<polygon class="st31" points="1509,1635.9 1565.2,1550.5 1584.7,1635.9 				"/>
				<polygon class="st31" points="1963.1,1550.5 1879.4,1550.5 2007.3,1635.9 				"/>
			</g>
		</g>
	</g>
</g>
</svg>
