<?xml version="1.0" encoding="utf-8"?>
<!-- Generator: Adobe Illustrator 27.7.0, SVG Export Plug-In . SVG Version: 6.00 Build 0)  -->
<svg version="1.1" id="Layer_1" xmlns="http://www.w3.org/2000/svg" xmlns:xlink="http://www.w3.org/1999/xlink" x="0px" y="0px"
	 viewBox="0 0 3500 3500" style="enable-background:new 0 0 3500 3500;" xml:space="preserve">
<style type="text/css">
	.st0{fill:url(#SVGID_1_);}
	.st1{fill:url(#SVGID_00000034798402449439346650000004240805660626996102_);}
	.st2{fill:url(#SVGID_00000043451456577497047230000006010040476453614469_);}
</style>
<linearGradient id="SVGID_1_" gradientUnits="userSpaceOnUse" x1="5.555117e-02" y1="-1742.1046" x2="3499.9001" y2="-1742.1046" gradientTransform="matrix(1 0 0 -1 0 0)">
	<stop  offset="0" style="stop-color:#ABABAB"/>
	<stop  offset="1" style="stop-color:#8C8C8C"/>
</linearGradient>
<path class="st0" d="M120.7,1688.6c0,7.4,0,11.9,0,16.3c0,92.1,0,184.2,0.1,276.3c0,3.8,0,7.5-0.1,11.3c0,4.4-2.3,6.8-6.8,7.4
	c-4.6,0.5-9.1,1.8-13.6,2.1c-17.1,1.1-34.3,1.9-51.4,2.9c-12.5,0.7-25,2.1-37.6,2.4c-10,0.3-10.8-0.9-11.2-10.5c-0.1-2.5,0-5,0-7.5
	c0-165.4,0-330.8,0-496.2c0-19.4,1.6-20.3,20.9-17.8c22,2.9,44.1,4.6,66.1,6.8c10.8,1,21.7,1.4,32.5,3c3.1,0.4,6.9,3.1,8.5,5.9
	c7.7,13.9,14.7,28.2,22.1,42.3c33.6,63.7,67.1,127.4,100.9,191c10.8,20.3,22.4,40.2,33.7,60.2c0.8,1.3,1.8,2.5,4.8,3.5
	c0-4.4,0-8.7,0-13.1c0-85,0-170,0-255c0-3.8,0.2-7.5,0-11.3c-0.2-6.5,3-9.2,9.3-8.8c12.9,0.9,25.9,1.8,38.8,2.8
	c20,1.5,40,3.3,60,4.7c10.8,0.8,12.2,1.9,12.6,12.5c0,2.5,0,5,0,7.5c0,144.9,0,289.7,0,434.6c0,20.1,0,19.6-20,20.4
	c-30.9,1.4-61.8,3.2-92.7,5.7c-7,0.6-9.7-1.9-12.6-7.1c-19.1-33.5-38.8-66.5-57.5-100.2c-34.3-61.8-68.1-124-102.1-186
	c-0.7-1.3-1.8-2.5-4.6-6.3L120.7,1688.6z M3414.3,1959.1c1.4,11.6,3,23.2,4.1,34.8c0.7,7.3,3.3,11.1,11.5,11.5
	c18.4,1,36.7,3.3,55,4.3c14.7,0.8,15,0,15-14.2c0-88,0-175.9,0-263.9c0-14.8-1-16-15.6-15.7c-15.5,0.3-30.9,1.9-46.4,2
	c-36.1,0.4-72.2,0.2-108.3,0.4c-5.4,0-10.9,0.3-16.3,1.2c-12.3,2-12.4,2.2-12.4,14c0,23,0,46.1,0,69.1c0,13,0.5,13.4,13.4,13.5
	c19.7,0.1,39.4,0,59.2,0.2c9.6,0.1,12,2.4,10,11.1c-6.9,29.7-21.6,53.3-52,64.4c-22,8-44.4,8-66.7,2.9c-10.1-2.3-20.4-5.5-29.5-10.4
	c-28.8-15.7-46.4-40.6-54.8-71.8c-12.1-45.4-11.9-91.4,0.4-136.5c13.1-47.7,42-80.7,93.9-87.6c28.8-3.8,54.9,1.4,75.7,24.1
	c10.1,11,15.1,23.9,19.6,37.4c3.3,9.8,4.8,10.6,14.5,9.5c7.1-0.8,14.2-1.3,21.3-1.6c25.5-1,51.1-1.7,76.6-2.7
	c9-0.4,10.3-2.1,9.1-10.7c-4.8-34.1-16.3-65.7-36.3-94c-24.7-34.9-57.4-58-99.1-68.4c-33.2-8.2-66.5-6.9-99.7-0.4
	c-91.9,17.9-154.1,71.9-190.3,156.8c-20,46.9-23,96.4-17.4,146.6c5.1,45.9,20.6,87.8,47.6,125.4c22.4,31.2,50.6,56,85.1,72.8
	c36.8,17.9,76.1,25.4,117.1,23.7c33.6-1.4,64.4-11,90.2-33.4c8.1-7,15.7-14.6,24.4-22.7c0.5,3.2,0.9,5.5,1.2,7.8L3414.3,1959.1z
	 M3011.7,1961.5c0-143.6,0-287.3,0-430.9c0-3.3-0.1-6.7,0-10c0-5.9-3-8.5-8.6-8.1c-7.5,0.6-15,1.6-22.5,2.1
	c-26.3,1.8-52.6,3.4-78.9,5.2c-9.1,0.6-10.8,2.1-10.8,11.6c0,7.9,1.8,15.8,1.9,23.7c0.2,74.5,0.2,149.1,0.2,223.6
	c0,2.5-0.9,5-1.7,9.3c-2.7-3.8-4.2-5.8-5.5-7.9c-25.5-41.3-50.8-82.8-76.7-123.9c-24.8-39.3-50.2-78.2-75.1-117.5
	c-4.4-6.9-9.7-9.7-17.7-8.9c-11.2,1.1-22.5,1.9-33.8,2.4c-23,1.1-46,1.8-69,2.8c-8.8,0.4-9.6,1.4-10,10.6c-0.1,2.5,0,5,0,7.5
	c0,129.4,0,258.8,0,388.2c0,2.1,0,4.2,0,6.3c0.3,11,0.3,11.5,11,12.2c31.8,1.9,63.5,3.5,95.3,4.7c14.6,0.6,14.7,0,14.7-14.6
	c0-61.6,0-123.1-0.2-184.7c0-5-0.7-10-1.2-15c-1.6-15.6-0.7-31.1,0.4-46.8c4.7,5,8.1,10.2,11.4,15.4c31,49.3,62.2,98.4,92.9,147.8
	c19.7,31.6,38.8,63.7,58,95.6c3.6,6,7.6,10.8,15.6,10.5c4.1-0.2,8.3,1.5,12.4,1.7c31.8,1.3,63.5,2.5,98,3.8v-16.8L3011.7,1961.5z
	 M1970.2,1695.8c-42.8,0-85.6,0-128.4,0c-16.2,0-16.2,0-16.2-15.7c0-36.9,0-73.7,0-110.6c0-11.4-0.8-12.1-12.2-12.2
	c-33.1-0.1-66.3,0-99.4,0c-11.1,0-11.9,0.9-11.9,12.5c0,120.6,0,241.2,0.1,361.9c0,12.1,0.6,12.6,12.9,12.7c31.9,0.1,63.8,0,95.7,0
	c14.6,0,14.7-0.1,14.7-14.7c0-44,0-88,0-131.9c0-13.7,0.2-13.9,14.2-13.9c43.6,0,87.3,0,130.9,0c15,0,15.7,0.7,15.7,15.5
	c0,42.3,0,84.6,0,126.9c0,3.4,0.1,6.7,0,10.1c0,5.8,2.9,8.1,8.5,8.3c14.2,0.6,28.4,1.9,42.6,2.2c19.3,0.4,38.6,0.2,57.9,0.2
	c14.1,0,14.4-0.3,14.4-13.8c0-122.3,0-244.6,0-366.9c0-13.5-0.3-14-14.4-13.8c-31.8,0.6-63.7,1.6-95.5,2.3
	c-13.4,0.3-13.7,0.4-13.7,14.5c0,36.4,0,72.9,0,109.3v17c-7.1,0-11.7,0-16.2,0L1970.2,1695.8z M892.8,1950.3
	c-7.2-17-14.5-33.8-21.6-50.8c-28.6-68.8-57.4-137.5-85.6-206.4c-20.8-50.7-41.2-101.6-61.1-152.7c-3.9-9.9-9.5-13.7-19.8-13.1
	c-7.9,0.5-15.9,0-23.9-0.5c-24.6-1.4-49.3-2.8-73.9-4.6c-9.1-0.7-13.7,3.1-16.9,11.2c-17.5,44.8-35.8,89.3-53.1,134.3
	c-35.5,92.6-70.4,185.4-105.5,278.2c-3.9,10.4-7.3,20.9-11.6,33.1c6.7,0.4,11.2,1,15.6,0.8c32.6-1.6,65.2-3.4,97.8-5
	c10.9-0.5,11.8-1.1,15.9-12.4c7.4-20.5,14.8-40.9,22.2-61.4c3.9-10.7,4.9-11.3,16.4-11.7c18.8-0.7,37.6-2,56.4-2.3
	c31-0.4,61.9-0.1,93.8-0.1c0.6,1.3,2,3.4,2.9,5.6c8.1,20.7,16.1,41.3,24.1,62c3.8,9.8,4.9,10.4,14.6,9.1c5.8-0.8,11.6-1.2,17.5-1.4
	c30.1-1,60.3-1.8,90.4-2.8c2.3,0,4.6-0.9,7.8-1.6C894.2,1954.7,893.6,1952.4,892.8,1950.3L892.8,1950.3z M604.5,1803.2
	c15.9-49.9,34.5-97.4,50.9-144.8c2-0.4,2.4-0.5,2.8-0.5c0.4,0,0.9,0.3,1,0.6c15.7,44.9,31.3,89.8,46.9,134.8
	c0.9,2.7,1.4,5.5,2.5,9.9H604.5L604.5,1803.2z M2591.8,1948.9c-13.8-33.2-27.6-66.5-41.5-99.7c-18.3-43.6-36.5-87.3-55.1-130.7
	c-23.1-53.8-46.7-107.4-70-161.2c-5.3-12.3-5.2-12.7-18.4-12.4c-34.8,0.7-69.5,1.8-104.3,2.6c-6.3,0.1-9.7,2.6-12.2,8.5
	c-7.4,17.8-15.5,35.3-23.2,52.9c-23.3,52.9-46.3,105.8-69.8,158.5c-23.3,52.4-47.1,104.5-70.6,156.8c-3,6.7-5.5,13.7-8.5,21.1
	c2.7,0.8,4.2,1.7,5.7,1.7c36.8,0.9,73.7,1.7,110.5,2.7c6.9,0.2,10.7-2.8,13.3-9.1c7-17,15.3-33.6,21.4-50.9
	c3.8-10.9,10-13.3,20.6-13c45.6,1.3,91.3,2,137,2.5c7.9,0,12,2.9,14.7,10.4c6.6,18.1,14.4,35.7,20.8,53.8
	c3.5,9.9,9.7,14.1,19.8,13.7c1.7,0,3.4,0,5,0c23.8,0.8,47.7,1.8,71.5,2.4c11.6,0.3,23.3,0,37,0c-1.9-5.3-2.8-8-3.9-10.7
	L2591.8,1948.9z M2303.8,1800.5c16.8-45,34.2-88,51.4-132c6.8,8,48.4,116.6,50.7,132H2303.8L2303.8,1800.5z M1692,1937.3
	c-9-19.8-18-39.6-27.1-59.4c-19.7-43-39.7-85.8-59.3-128.9c-27.4-60.2-54.9-120.3-81.5-180.8c-4.8-10.8-10.8-13.6-21.8-13.5
	c-33.9,0.3-67.9-0.6-101.8-0.6c-3.2,0-7,2-9.3,4.4c-2.5,2.6-3.7,6.5-5.2,9.9c-12.6,28.3-25.1,56.6-37.8,84.8
	c-17.4,38.5-35.2,76.8-52.4,115.4c-21.5,48.1-42.6,96.4-63.9,144.6c-5,11.3-9.9,22.7-15.4,35.5c6,0.3,10.1,0.8,14.2,0.7
	c33.9-0.7,67.8-1.7,101.7-2.3c7.3-0.1,11.5-2.8,14.3-9.6c7.4-18.2,15.6-36.1,22.9-54.4c2.6-6.4,6.1-9.1,13-9.1
	c48.6,0.1,97.3,0,145.9-0.1c5.8,0,9.2,2,11.5,7.5c6.9,16.6,14.3,33,21.3,49.6c5.5,13.1,5.5,13.4,19.1,13.4c33.5,0,67.1,0,100.6,0
	c3.7,0,7.4-0.4,12.7-0.8c-0.8-3.3-0.9-4.9-1.6-6.4L1692,1937.3z M1402.2,1798.3c17.4-42.8,34.8-85.4,52.1-128c0.9,0,1.7,0,2.6,0.1
	c16.8,42.5,33.5,85.1,50.7,128.7C1493.8,1802.3,1413.2,1801.9,1402.2,1798.3L1402.2,1798.3z M837.4,1545.1
	c34.6,97.9,69.1,195.8,103.8,293.7c12,33.9,24.2,67.8,36.5,101.6c5.2,14.4,5.4,14.6,20.6,14.3c39-0.7,77.9-1.8,116.9-2.5
	c7.2-0.1,11.5-2.2,14.1-9.5c8.2-22.8,17.1-45.4,25.8-68.1c38.4-100,76.8-200.1,115.2-300.1c2.8-7.2,5.1-14.6,7.7-22.2
	c-3.4-1-4.9-1.8-6.5-1.9c-37.7-1-75.4-1.8-113.1-2.9c-7.4-0.2-10.2,3.4-12.3,9.7c-13.7,40.9-27.9,81.6-41.5,122.6
	c-14.4,43.3-28.5,86.6-42.8,130c-1.1,3.3-2.8,6.4-5.1,11.7c-2.3-6.3-3.9-10.1-5.2-14c-15.7-46.9-31.4-93.7-47-140.6
	c-12.5-37.8-24.8-75.6-37.1-113.4c-2.3-7-4.4-13.3-13.9-13.4c-22.2-0.4-44.4-1.5-66.5-2.5c-9.2-0.4-18.3-1.5-27.5-1.9
	c-7.8-0.3-15.7,0-24.4,0c1,4.1,1.3,7,2.3,9.7L837.4,1545.1z"/>
<linearGradient id="SVGID_00000160909147366967535560000005484950379490411668_" gradientUnits="userSpaceOnUse" x1="2.5556" y1="-2086.5112" x2="3497.6997" y2="-2086.5112" gradientTransform="matrix(1 0 0 -1 0 0)">
	<stop  offset="0" style="stop-color:#DBDBDB"/>
	<stop  offset="1" style="stop-color:#6B6B6B"/>
</linearGradient>
<path style="fill:url(#SVGID_00000160909147366967535560000005484950379490411668_);" d="M3.7,2176.1c-0.4-2.9-1.1-6.1-1.1-9.3
	c0-21.4-0.1-42.7,0-64.1c0-11,0.8-12.3,11.8-13.8c18.2-2.4,36.6-4,54.9-5.9c20.8-2.2,41.6-4.4,62.4-6.5s41.6-4.1,62.4-6.1
	c23.3-2.3,46.6-4.5,69.9-6.8c10.4-1,20.8-2.2,31.2-3c23.8-1.9,47.6-3.4,71.3-5.4c24.6-2.1,49.1-4.9,73.6-7c15-1.3,30.1-1.8,45.1-3
	c16.2-1.3,32.5-2.9,48.7-4.3c12.1-1,24.2-2.2,36.3-2.9c17.1-1.1,34.3-1.6,51.4-2.8c30.9-2.2,61.7-4.7,92.5-7
	c14.2-1.1,28.4-2,42.6-2.7c20.1-1,40.1-1.6,60.2-2.8c22.1-1.3,44.2-3,66.3-4.6c1.3,0,2.5-0.2,3.8-0.2c25.9-0.9,51.9-1.6,77.8-2.7
	c38.5-1.6,76.9-3.4,115.4-5.1c20.5-0.9,41-1.7,61.5-2.4c26.4-0.9,52.7-1.7,79.1-2.6c25.1-0.8,50.2-1.8,75.3-2.4
	c36.4-1,72.9-1.8,109.3-2.5c43.6-0.9,87.2-1.1,130.7-2.6c143.8-5,287.7-1.6,431.6-2.2c47.8-0.2,95.5,1.4,143.3,2.4
	c31.4,0.6,62.8,1.6,94.2,2.5c27.6,0.8,55.3,1.7,82.9,2.6c23.4,0.8,46.9,1.5,70.3,2.5c40.6,1.6,81.1,3.3,121.7,5.1
	c33.9,1.5,67.7,3,101.6,5c35.5,2.1,70.9,4.8,106.4,7.1c14.6,1,29.2,1.8,43.9,2.6c19.2,1,38.5,1.5,57.7,2.8c30.9,2.1,61.7,4.7,92.6,7
	c12.9,1,25.9,2,38.8,2.8c28.4,1.8,56.8,3.2,85.2,5.4c24.2,1.9,48.3,4.7,72.4,6.8c14.2,1.3,28.4,1.8,42.6,3
	c24.6,2.1,49.1,4.5,73.7,6.7c20.8,1.9,41.7,3.8,62.5,5.8c23.7,2.2,47.4,4.6,71.2,6.9c19.6,1.9,39.1,3.7,58.7,5.8
	c20.8,2.2,41.6,4.6,62.3,6.8c12.5,1.3,25,2.4,37.5,3.3c6.4,0.4,10.5,2.7,10.5,9.6c0,26-0.1,51.9-0.2,77.9c0,1.1-0.9,2.2-1,2.4
	c-28.9-4.1-57.4-8.2-85.9-12c-37.3-5-74.6-9.9-112-14.4c-31.6-3.9-63.2-7.2-94.8-10.8c-26.2-3-52.3-6.3-78.5-9.2
	c-19.5-2.2-39.1-3.8-58.7-5.8c-20.8-2.2-41.5-4.7-62.4-6.7c-21.2-2.1-42.5-3.8-63.7-5.8c-23.3-2.2-46.6-4.6-69.9-6.8
	c-10.8-1.1-21.6-2.2-32.5-3c-37.1-2.7-74.3-5.2-111.4-7.9c-35-2.5-70.1-5.1-105.1-7.5c-38.4-2.6-76.8-5.2-115.2-7.5
	c-30.9-1.9-61.8-3.5-92.7-5c-35.1-1.8-70.2-3.5-105.3-5c-43.5-1.8-87-3.5-130.5-5c-29.7-1-59.5-1.8-89.2-2.5
	c-38.1-0.9-76.3-1.1-114.4-2.6c-128.7-5-257.5-1.1-386.3-2.3c-23.9-0.2-47.8-0.3-71.8,0c-39,0.6-77.9,1.5-116.9,2.5
	c-26.4,0.7-52.7,1.5-79.1,2.5c-42.7,1.6-85.3,3.2-128,5.1c-34.3,1.5-68.5,3.2-102.8,5c-30.5,1.6-61,3.2-91.5,5.1
	c-39.7,2.4-79.3,4.9-118.9,7.6c-33.8,2.3-67.6,4.9-101.3,7.5c-31.7,2.4-63.4,4.7-95,7.6c-31.6,2.8-63.2,6.4-94.8,9.4
	c-22.1,2.1-44.2,3.5-66.3,5.6c-20.8,2-41.6,4.4-62.3,6.6c-18.7,2-37.4,3.8-56.1,5.8c-20.8,2.2-41.6,4.5-62.3,6.8
	c-23.7,2.7-47.4,5.4-71,8.2c-27.8,3.3-55.6,6.6-83.4,9.9c-29.5,3.5-59,6.8-88.4,10.7c-30.3,4-60.4,8.8-90.6,13.1
	c-0.8,0.1-1.6-0.3-3.4-0.6L3.7,2176.1z"/>
<linearGradient id="SVGID_00000024713874731976537830000002659473170188053418_" gradientUnits="userSpaceOnUse" x1="2.4979" y1="-1413.6294" x2="3497.5154" y2="-1413.6294" gradientTransform="matrix(1 0 0 -1 0 0)">
	<stop  offset="0" style="stop-color:#DBDBDB"/>
	<stop  offset="1" style="stop-color:#6B6B6B"/>
</linearGradient>
<path style="fill:url(#SVGID_00000024713874731976537830000002659473170188053418_);" d="M3496,1322.2c0.5,3.8,1.4,7,1.4,10.2
	c0.1,21.8,0.2,43.6,0,65.3c0,10.3-2,12.6-12.1,13.7c-27.5,2.9-55,5.2-82.4,8.1c-19.5,2-39,4.6-58.6,6.6c-20.4,2.1-40.8,3.9-61.2,5.8
	c-24.1,2.3-48.3,4.6-72.4,6.8c-22.1,2-44.2,3.8-66.3,5.8c-25.8,2.3-51.6,4.6-77.5,6.9c-11.7,1-23.3,2.2-35,3
	c-27.6,1.9-55.1,3.5-82.7,5.3c-35.9,2.4-71.8,5.1-107.7,7.6c-25,1.7-50.1,3.2-75.1,4.9c-33.8,2.3-67.6,5.1-101.4,7.2
	c-21.7,1.4-43.5,1.7-65.3,2.9c-24.6,1.3-49.3,3-73.9,4.6c-0.8,0-1.7,0.1-2.5,0.2c-23.4,0.9-46.9,1.9-70.3,2.6
	c-30.1,1-60.3,1.7-90.4,2.7c-22.2,0.7-44.3,1.7-66.5,2.4c-28.9,0.9-57.8,1.8-86.7,2.6c-31.4,0.9-62.8,1.8-94.2,2.4
	c-49.5,1-98.9,0.7-148.4,2.8c-110.3,4.6-220.6,1.2-330.9,1.9c-61.6,0.4-123.2-1.3-184.9-2.3c-38.1-0.6-76.2-1.6-114.4-2.5
	c-28.9-0.7-57.8-1.6-86.7-2.5c-24.3-0.8-48.5-1.7-72.8-2.5c-22.2-0.8-44.3-1.6-66.5-2.5c-39.3-1.6-78.6-3.3-117.9-5.1
	c-32.6-1.5-65.2-3.2-97.8-5c-29.7-1.6-59.3-3.3-89-5c-27.6-1.6-55.1-3.1-82.7-5.1c-30-2.1-60-5-90-7.1c-17.9-1.3-36-1.5-53.9-2.9
	c-26.7-2-53.3-4.7-79.9-7c-13.3-1.1-26.7-1.9-40-3c-17.5-1.4-35-3-52.5-4.5c-11.7-1-23.3-2-35-3c-32.9-2.6-65.9-4.9-98.8-7.9
	c-30-2.8-59.8-6.5-89.8-9.5c-29.1-2.9-58.3-5-87.4-8c-28.3-2.9-56.5-6.6-84.7-9.7c-5.4-0.6-8.8-2.3-8.7-8.2c0-25.5,0-50.9,0-78.6
	c1165,161.3,2328.8,158.6,3493.4-0.4L3496,1322.2z"/>
</svg>
