<?xml version="1.0" encoding="utf-8"?>
<!-- Generator: Adobe Illustrator 27.7.0, SVG Export Plug-In . SVG Version: 6.00 Build 0)  -->
<svg version="1.1" id="Layer_1" xmlns="http://www.w3.org/2000/svg" xmlns:xlink="http://www.w3.org/1999/xlink" x="0px" y="0px"
	 viewBox="0 0 3500 3500" style="enable-background:new 0 0 3500 3500;" xml:space="preserve">
<style type="text/css">
	.st0{fill:#2E971D;}
	.st1{fill:#6ED06A;}
	.st2{fill:#04690B;}
	.st3{fill:#FFFFFF;}
</style>
<polygon class="st0" points="3297.8,3098.4 2299.4,3500 1163.3,407.4 2133,0 "/>
<polygon class="st1" points="2299.4,3500 1936.1,3463.7 1529.2,2401.5 1193.5,1524.8 600,3330.5 202.2,3290.8 1163.3,407.4 "/>
<polygon class="st0" points="1936.1,3463.7 1558.3,3426.1 1206.4,2547.5 1529.2,2401.5 "/>
<polygon class="st1" points="1558.3,3426.1 962.1,3366.6 1015.7,3187.1 1206.4,2547.5 "/>
<polygon class="st2" points="1529.2,2401.5 1206.4,2547.5 1015.7,3187.1 600,3330.5 1193.5,1524.8 "/>
<g>
	<path class="st3" d="M1762.1,1242.6l-93.5-246.2l-128.8,9.8l-84.1-221.4l801.8-2.7l89.8,236.5l-601.6,530.1l-86.2-227.1
		L1762.1,1242.6L1762.1,1242.6z M1896.8,1140l222.8-173.2l-281.3,19.2L1896.8,1140L1896.8,1140z"/>
	<path class="st3" d="M2474.1,1352.1l203.6,536.1l-150.8,57.3L2406,1627.2l-122.5,46.5l103.2,271.9l-141.7,53.8l-103.2-271.9
		l-286.7,108.9l-82.7-217.8L2474.1,1352.1L2474.1,1352.1z"/>
	<path class="st3" d="M2722.5,2006.4l76.9,202.5l-287.9,411.6l388.2-147.4l77.6,204.4l-701.7,266.5l-77.6-204.4l285.5-409.1
		l-385.3,146.3l-77.4-203.9L2722.5,2006.4L2722.5,2006.4z"/>
</g>
</svg>
