<?xml version="1.0" encoding="utf-8"?>
<!-- Generator: Adobe Illustrator 27.7.0, SVG Export Plug-In . SVG Version: 6.00 Build 0)  -->
<svg version="1.1" id="Layer_1" xmlns="http://www.w3.org/2000/svg" xmlns:xlink="http://www.w3.org/1999/xlink" x="0px" y="0px"
	 viewBox="0 0 3500 3500" style="enable-background:new 0 0 3500 3500;" xml:space="preserve">
<style type="text/css">
	.st0{fill:#0080C2;}
</style>
<path class="st0" d="M2045.1,739.7h159.6c517.7,28.6,1008,277.4,1292.3,714.1c5.2,8,3.7,9.6-4.6,4.7
	c-268.2-157.7-567.4-298.9-858.3-376.1c-181.4-48.1-373.4-68.7-560.8-46.4c-366.8,43.5-688.4,264.4-954.3,514.5
	c-2.8,2.7-7.3,2.5-10-0.3c-0.1-0.1-0.2-0.2-0.3-0.3l-217.9-259.5c-2.7-3.1-2.6-6.2,0.2-9.3C1205.5,952.9,1590.2,772.4,2045.1,739.7z
	"/>
<path class="st0" d="M2148.6,1943.9c-1.7-2.4-5.1-3-7.5-1.3c-0.1,0.1-0.2,0.2-0.3,0.3c-149.2,124.4-304.9,224.6-467,300.6
	c-7.6,3.5-14.6,2.6-21.1-2.7c-180.3-150.4-339.6-330.9-434.7-543.7c-1.7-3.8-1.2-7.3,1.5-10.5c163-191.9,389.3-333.9,622.5-436.2
	c3.8-1.6,7.1-0.9,9.9,1.9c267,260.7,485.6,553.5,691.4,869.6c19.9,30.6,43,59.8,66.2,87.5c2.9,3.5,2.8,6.8-0.4,10
	c-284.6,296.7-656.2,489.6-1064.5,531.7C956,2811.7,325.2,2553.2,3.4,2044.9c-4.2-6.4-2.9-7.8,3.8-4
	c304.4,175.5,616,324.8,949.6,397.4c359.2,78.1,692.1,24,998.5-162.3c100.5-61.1,194.5-127.8,281.9-200.2c1.9-1.6,2.3-4.4,0.8-6.4
	L2148.6,1943.9z"/>
</svg>
