<?xml version="1.0" encoding="UTF-8"?>
<svg id="Layer_01" data-name="Layer 01" xmlns="http://www.w3.org/2000/svg" version="1.1" viewBox="0 0 3500 3500">
  <defs>
    <style>
      .cls-1 {
        fill: #12a3aa;
      }

      .cls-1, .cls-2, .cls-3, .cls-4 {
        stroke-width: 0px;
      }

      .cls-2 {
        fill: #71dbd5;
      }

      .cls-3 {
        fill: #fff;
      }

      .cls-4 {
        fill: #71dbd4;
      }
    </style>
  </defs>
  <path class="cls-1" d="M388.9,1250.41v633.24c83.97,0,164.5-33.36,223.88-92.73,59.38-59.38,92.74-139.91,92.74-223.89s-33.36-164.5-92.73-223.88c-59.38-59.38-139.91-92.74-223.89-92.74Z"/>
  <path class="cls-1" d="M316.62,1606.22v633.24c-83.97,0-164.5-33.36-223.88-92.73C33.36,2087.35,0,2006.82,0,1922.84s33.36-164.5,92.73-223.88c59.38-59.38,139.91-92.74,223.89-92.74Z"/>
  <path class="cls-4" d="M282.81,1515.31c26.82-32.57,39.56-74.28,35.5-116.28-4.06-42-24.55-80.5-57.12-107.33-32.57-26.82-74.28-39.56-116.28-35.5-42,4.06-80.5,24.55-107.33,57.12-26.82,32.57-39.56,74.28-35.5,116.28,4.06,42,24.55,80.5,57.12,107.33,32.57,26.82,74.28,39.56,116.28,35.5,42-4.06,80.5-24.55,107.33-57.12Z"/>
  <circle class="cls-2" cx="1471.25" cy="1869.84" r="73.81"/>
  <circle class="cls-2" cx="2460.94" cy="1675.47" r="73.81"/>
  <circle class="cls-2" cx="3426.19" cy="2175.78" r="73.81"/>
  <path class="cls-3" d="M2943.64,1858.2c15.89,23.93,28.72,55.1,35.72,83.03,6.65,51.61,2.08,104.95,3.56,156.96.07,10.92-.47,23.93-11.29,28.76-4.36,2.05-9.69,2.68-14.71,2.91-26.53.26-58.2,3.51-73.01-22.73-13.06-18.91-16.53-49.46-41.78-51.11-43.37,1.55-96.82-6.79-133.24,16.72-21.88,19.05-14.91,56.4,10.69,69.2,22.56,16.63,49.31,14.6,77.86,14.69,41.1.85,82.51-1.47,123.49,1,23.52,0,67.27,41.35,56.64,65.37-5.1,8.16-19.9,8.84-29.83,8.96-80.94.19-160.47-.18-239.65.09-34.75.12-72.69-13.29-99.48-35.44-24.74-20.46-30.04-64.6-28.7-94.74,1.33-29.94,12.91-63.66,36.37-83.63,22.88-19.48,51.21-27.19,80.73-27.61,44.41-4.39,87.77-2.88,133.55-3.28,12.22.18,28.66-2.23,30.53-15.34,4.74-47.17-52.85-73.7-93.06-76.52-43.24-5.58-90.24,32.8-133.01,9.91-16.41-9.2-33.56-25.89-36.64-44.57-.07-26.09,47.95-34.2,66.97-44.93,90.35-34.13,205.06-28.4,276.86,40.7l1.39,1.6Z"/>
  <path class="cls-3" d="M1574.61,1891.22c-4.41-4.86-3.36-12.76-3.33-19.49.37-11.39-1.84-22.81-6.17-33.37-8.99-20.63-22.72-39.81,4.83-41.43,64.76-4.63,137.18,2.13,186.13,49.13,30.57,20.24,45.65,58.44,55.41,92.58,8.22,57.07,4.4,116.33,3.71,174.26-1.54,12.43-11.92,17.12-23.18,17.25-27.76.62-58.91,1.93-79.77-15.66-15.41-10.9-22.32-29.19-29.72-45.49-5.84-10.7-18.44-11.72-29.6-11.63-29.89.43-60.9-1.09-88.67,4.9-27.62,2.08-39.38,19.85-37.25,47.85.85,20.82,16.4,36.85,36.47,40.9,45.92,7.32,93.81,2.43,141.17,4.82,38.88-1.05,83.32,3.64,104.21,40.84,17.21,28.03-1.23,41.04-29.88,38.06-68.12-3.54-135.56-2.43-203.31-1.79-35,.79-74.15,8.02-103.97-14.95-23.4-8.02-33.31-13.98-45.38-28.91-27.49-33.37-37.92-81.18-19.95-121.22,17.44-31.46,44.74-61.44,78.64-73.44,14.66-2.82,31.46-2.5,46.78-4.96,44.45-7.84,91.54.61,136.7-4.32,20.67-5.35,13.2-30.89,7.76-45.52-10.6-27.73-44.92-37.9-72.48-41.58-9.37-1.53-20.69-.28-28.06-5.77l-1.11-1.05Z"/>
  <path class="cls-3" d="M2320.2,2094.09c-.4,39.1.92,79.19-.59,118.66-.93,14.2-11.54,19.75-27.03,19.25-33.04,3.35-66.07-9.87-84.81-37.27-6.68-12.9-6.28-28.3-7.04-42.59-.58-48.57.63-97.85-.66-146.53-.12-41.86-18.28-89.14-64.66-96.29-73.86-9.15-149.81-.5-224.2-3.97-4.91-.58-10.84-1.18-14.61-4.68-4.75-3.75-5.68-11.8-6.02-17.99-.37-17.37-.23-34.85-.11-52.22-.44-13.21,4.95-25.63,20.48-26.29,19.08-1.06,38.2-.31,57.35-.5,14.44-.4,31.36,1.72,32.59,19.38,1.14,17.37,8.15,31.21,25.1,16.6,51.47-49.53,138.03-54.6,201.11-26.62,17.86,7.92,36.04,24.28,50.63,37.11,22.78,20.04,33.12,44.2,34.85,74.18,11.06,55.37,6.97,113.53,7.6,169.78Z"/>
  <path class="cls-3" d="M904.09,1975.33c.68-80.35-1.83-161.99,1.38-242.48.7-17.22,6.67-34.99,21.81-44.64,20.07-14.51,47.24-12.62,72.03-12.67,15.56-.87,29.29,6.55,28.78,24.05,2.62,89.53-3.38,182.02.56,270.76-.25,68.93.78,138.98-2.74,207.68-8.19,46.72-68.26,60.61-108.62,51.66-10.02-3.33-12.87-13.6-13.04-23.27-.33-34.29-.02-70.52-.13-105.74-.02-41.79.05-83.97-.04-125.35Z"/>
  <path class="cls-3" d="M1102.55,2038.34c-.2-40.1-.01-81.04-.09-121.55-1.09-36.27-11.68-97.25,29.28-110.5,30.23-9.78,82.07-13.77,85.07,21.08,1.28,14.89,8.98,24.55,23.71,14.47,15.23-10.43,25.09-23.46,42.86-31.08,17.08-7.33,35.46-11.35,53.68-14.63,16.65-3,32.26,1.73,31.31,21.61,2.98,44.54-21.49,91.03-67.53,100.4-21.98,4.47-46.83,10.86-58.83,31.31-15.24,25.98-19.3,52.98-19.68,83.47-.66,41.82.41,84.43-.49,126.17-.75,12.74-.94,26.53-7.31,37.75-9.86,14.04-25.24,25.81-40.94,32.51-17.87,4.34-40.41,5.26-58.96.67-10.69-4.25-11.77-16.73-11.88-27.11-.22-54.88.15-110.12-.2-164.56Z"/>
  <path class="cls-3" d="M3493.33,2079.6c-3.62,1.44-8.43-.81-12.26-2.65-27.38-13.33-67.02-8.95-95.93-1.61-9.19.99-11.34-8.37-11.84-15.82-4.41-39.58,10.92-91.19-15.59-124.46-28.25-25.22-67.89-31.17-104.14-29.38-56.05-.16-110.95.14-167.76-.15-7.16-.29-15.57-.61-20.7-5.26-9.55-10.3-5.62-26.83-6.58-39.99,1.33-16.49-4.62-43.91,7.93-54.55,15.49-8.43,35.91-2.91,53.14-4.45,16.21,1.29,43.88-5.5,50.17,14.22,3.15,9.2.69,27.46,13.69,28.5,16.79-2.1,32.53-21.31,47.61-29.77,22.52-15.15,53.4-18.94,80.76-19.46,28.15-2,54.44,1.39,79.43,14.35,84.59,29.55,113.68,126.3,108.07,208.38-1.98,19.76,4.87,45.48-4.95,61.5l-1.05.59Z"/>
  <path class="cls-3" d="M2395.54,2039.06c.12-44.72,0-90.15.05-135.13-2.05-32.44,3.31-69.01,33.37-87.49,21.81-14.24,48.42-13.03,72.87-12.78,13.77-.58,24.5,7.1,24.08,22.01-.07,115.46,2.23,231.16-.84,346.56-5.39,51.93-83.21,73.08-123.85,53.86-4.93-5.22-5.21-13.17-5.58-20.18-.39-55.7-.15-111.56-.09-166.85Z"/>
  <path class="cls-3" d="M3198.78,1937.65c1.83,17.85-15.82,36.51-17.43,55.29-6.13,53.76-2.2,109.45-4.12,163.14-.25,15.22.43,30.49-7.16,44.18-13.06,25.9-44.9,32.26-71.51,31.53-16.48-.21-37.34,2.93-40.52-16.37-2.6-83.99-.15-169.19-.94-253.32-.63-16.37,3.07-29.66,21.95-29.71,32.13-.65,64.3-.12,96.32-.19,7.33.44,17.56-1.3,22.72,4.29l.7,1.16Z"/>
  <path class="cls-3" d="M1889.14,2080.39c1.02-44.34-2.08-89.74,1.39-134.26,2.25-11.12,13.22-13.85,23.17-13.86,31.68-.17,62.78-.57,94.46.2,40.38,1.78,3.38,46.48,3.23,67.4-7.63,62.89,4.94,129.46-6.06,192.09-6.36,13.15-27.51,26.11-40.66,33.68-12.85,6.65-27.42,6.27-41.98,6.32-14.71-.07-29.43.68-32.41-13.63-3.19-44.75-.16-91.03-1.14-135.9v-2.04Z"/>
</svg>