<?xml version="1.0" encoding="utf-8"?>
<!-- Generator: Adobe Illustrator 27.7.0, SVG Export Plug-In . SVG Version: 6.00 Build 0)  -->
<svg version="1.1" id="Layer_1" xmlns="http://www.w3.org/2000/svg" xmlns:xlink="http://www.w3.org/1999/xlink" x="0px" y="0px"
	 viewBox="0 0 3500 3500" style="enable-background:new 0 0 3500 3500;" xml:space="preserve">
<style type="text/css">
	.st0{fill:none;stroke:#FF8080;stroke-width:2;}
	.st1{fill:#FF0000;}
	.st2{fill:#FFFFFF;}
</style>
<path vector-effect="non-scaling-stroke" class="st0" d="M2088.8,2682.4c-0.8-6.1-5.7-7.5-14.8-4.2"/>
<path class="st1" d="M998.4,1984.2c-9,0-16.8,1.1-23.5,3.2c-39.2,12.6-80.2,17.9-122.8,15.8c-14.4-0.7-28.9-1.9-43.5-3.7
	c-53-6.1-92.8-30.2-127.5-68.2c-12.7-13.9-22.4-29.7-29-47.2c-12-31.6-22.2-62.3-22.3-96.6c-0.3-58.4,8.8-104.8,24.5-157.9
	c11.8-39.9,31.8-77.9,51-114.7c56-107.5,134.6-197,235.9-268.6c30.2-21.3,68.3-38.9,101.1-47.6c16.5-4.4,41.1-5.6,73.6-3.4
	c11.5,0.7,21.3,3.3,29.6,7.6c27.8,14.6,49,32.8,63.7,54.7c19.8,29.6,40.5,65.6,46.9,100.8c3.4,18.4,7.4,37,12.2,56
	c3,12.2,4.4,24.2,4.2,35.9c-0.6,28.2-0.8,57.2-0.6,86.8c0.2,18.8-1.6,36.9-5.3,54.2c-7.4,34-13.1,67.2-23.9,101.2
	c-8.6,27.2-18.5,53.4-29.6,78.5c-22,49.5-46.3,97.3-76.7,142c-2.2,3.3-3.8,6.8-4.8,10.5c-1.6,5.6-7.4,7.9-10.5,12.7
	c-5.8,8.9-11,17.8-17.5,26.1c-30.7,39.2-63.2,76.1-89.8,119.4c-0.6,1-1.7,1.5-2.7,1.4l-1.5-0.1c-1.1-0.1-2.2,0.3-2.9,1.1
	c-11.1,12.2-21.7,24.5-32,36.7c-3.7,4.4-8.4,5.4-12.3,10.3c-12.8,15.8-25.7,31.9-38.6,48.2c-3.3,4.2-7.9,4.4-11.2,8.2
	c-18.2,21.4-32.7,37.2-43.5,47.5c-18.2,17.4-36.5,35.5-54.7,54.4c-3.9,4.1-10,9.5-18.2,16.4c-14,11.7-24.1,26.8-37.5,38.6
	c-9.7,8.5-17.4,18.5-27.4,26.6c-14,11.2-27.7,22.8-41.1,34.8c-3.9,3.5-9,3-12.2,6.2c-11.5,11.7-23.8,23.1-36.9,34.3
	c-7.3,6.3-11.2,14.8-19.2,20.2c-20.8,13.9-40.4,26.9-61.2,42.5c-16.8,12.7-33.5,23.3-50.2,31.9c-15.7,8.1-31.8,16.3-48.3,24.6
	c-4.6,2.3-9.1,4.4-13.6,6.2c-6.8,2.8-11.6,7.2-18.5,9.8c-36.9,13.5-70.8,24-101.5,31.6c-21.6,5.3-47.8,9-78.4,11.1
	c-66.9,4.5-127.4-8.7-181.4-39.6c-36.5-20.9-51.2-86.1-61.2-123.2c-4.1-15.4-6.3-33.5-6.4-54.3c-0.2-46.3-0.2-94.4,0-144.3
	c1.2-358.8,1-751.3-0.8-1177.5c-0.1-20,1.4-37.5,4.5-52.4c3.7-17.8,7.8-35.6,12.4-53.4C32.8,919,73.4,867.9,129.9,837.6
	c9.5-5.1,19.1-10.1,29-14.9c13.8-6.9,34-8.5,50.3-8.5c663.6,0.2,1201.9,0.2,1614.8,0.2c10.4,0,21.7,1.4,34.1,4.1
	c4.1,0.9,7,4.5,7,8.8c-0.5,133.5-0.8,266.5-0.7,399.2c0,11.9-2.1,25.5-6.5,40.8c-10.7,37.7-24.2,76.7-40.7,116.8
	c-9.9,24.1-24.1,49.9-42.7,77.5c-29.6,43.8-61.5,82.5-95.8,116c-58.9,57.7-126.6,111-194.3,160.3c-3.2,2.3-4,2.1-7.9,2.6
	c-1.6,0.2-2.8,0.9-3.7,2.2c-4,5.8-6.8,11.8-8.4,18.1c-6.6,26.3-13.6,55.1-21.1,86.5c-14.3,59.9-34.1,117-59.4,171.1
	c-3,6.4-3.7,13.9-2.1,22.3c0.7,3.4,3.5,5.9,7,6.2c7.4,0.5,14.7-3.4,19.5-8.8c21.3-24.3,49.6-41.7,72-65c16.4-17,33.3-34.3,50.8-51.9
	c57.5-57.9,110.9-119.5,160.1-184.7c64.1-84.9,113.8-179.7,149-284.3c4.3-12.8,11-32,23.1-39.2c1.4-0.8,3.2-0.4,4.1,1
	c0.3,0.5,0.4,1,0.4,1.6c-0.6,25.1-2.3,49.8-2.4,74.6c-1.5,375.4-1.8,754.1-0.9,1136c0,12.8-1.4,25.9-4.2,39.4
	c-1.1,5.3-5.6,9.4-11,10c-14.4,1.6-27.7,2.5-39.9,2.6c-243.4,2-503.1,2.3-779.1,0.7c-38.3-0.2-76.3-2.3-115.4-1
	c-7.2,0.2-13.5-1.9-19-6.4c-2.2-1.8-2.5-4.9-0.7-7.1c0,0,0,0,0.1-0.1c30.6-36.2,59.6-69.9,86.9-101.1c11.3-12.9,35.1-44.4,71.4-94.3
	c45.5-62.7,95.9-134.5,151.1-215.3c13.7-20.1,26.1-41,37.1-62.7c32.5-64,55.7-114.1,69.7-150.2c16.1-41.6,32.6-82.9,46-125.4
	c20.8-66.1,35.1-116.7,42.7-151.9c6.5-30.1,13-60.4,19.4-91c7.2-34.6,12.2-64.7,14.9-90.5c4-37.8,7.8-76,11.2-114.5
	c2.6-29-4.4-60.8-6.8-89.5c-1.8-21.9-4.9-42.2-9.2-61c-8.6-37-18.9-75.6-37.5-108.8c-56.3-100.5-138.3-165.8-245.8-195.9
	c-15.1-4.2-33-6.6-53.6-7.1c-40.1-1-75.4-0.5-105.9,1.4c-13.6,0.9-28.9,4.1-45.8,9.6c-44.1,14.4-75.7,25.8-94.8,34.1
	c-12.7,5.5-27.2,13.7-43.5,24.5c-25.4,16.8-49.7,29.6-71.7,51.9c-1.3,1.3-2.9,2.3-4.6,2.9c-7,2.3-11.6,6.6-13.8,12.7
	c-0.8,2.2-2.5,4-4.7,5c-7.8,3.4-12.8,8.1-15,14.3c-1.2,3.2-3.4,6.2-6.7,9.2c-8.4,7.6-16.7,15-24.8,22.4
	c-8.7,7.9-16.5,15.7-23.4,23.4c-44.7,49.7-82.6,100.8-114.8,159c-20.1,36.4-41,68.7-56.3,108.8c-8.6,22.5-22.1,42.6-29.9,65.3
	c-16.9,49.6-37.6,103.2-50.6,153.2c-17.6,67.2-31.6,132.5-42,196c-5.6,34.3-7.5,73.1-5.7,116.3c0.7,17.1,3.1,34.1,7.2,50.8
	c5.8,23.8,9.3,48.9,18.1,71.5c27.7,70.6,75,124.8,142.1,162.8c7.6,4.3,21.4,10,41.3,17c37.1,13.2,75.2,17.5,113.3,12
	c11.4-1.6,22.3-6.6,31.5-13.7c14.4-11.3,31.5-19.6,43.7-33c15.7-17.4,31.5-32.4,47.3-45.1c3.3-2.6,6.4-5.3,9.5-7.8
	c6.2-5.3,12.7-10.7,19.6-16.2c15.3-12.3,28.6-26,42.1-39.8c7.6-7.8,14.4-15.8,20.3-24.1c10.3-14.5,21.3-27.5,33-39.2
	c11.6-11.6,22.3-23.8,31.9-36.4c17.8-23.3,37.4-46.5,58.8-69.8c4.9-5.3,6.2-11,4-17C1001.7,1985.3,1000.1,1984.2,998.4,1984.2z"/>
<path class="st2" d="M2088.8,2682.4c-0.8-6.1-5.7-7.5-14.8-4.2c-6.5-1.2-11-4.8-13.2-10.9c-0.5-1.4-1.7-2.5-3.2-3
	c-10.4-3.2-26.2-7.1-27-20.2c-0.7-11.2-1-22.2-3-33.4c-5.8-32.3-8.5-58.1-8.2-77.4c0.5-26.3,0.7-51.5,0.8-75.7
	c2.2-536.2,2.4-1050.5,0.5-1542.8c-0.1-15.9,1-30.5,3.1-43.8c2.3-14.9,3.3-29.5,2.9-43.8c-0.2-5.3,2.4-8.5,7.6-9.6
	c10.7-2.2,21.5-3.3,32.4-3.3c408.4-0.1,812.3-0.1,1211.8,0c44.2,0,75.7,24.3,110.8,47.1c3.3,2.1,4,4.3,5.9,7.4
	c0.8,1.3,1.9,2.3,3.2,3c14,6.9,26.1,17.1,36.4,30.8c28,37.3,46.9,71.6,56.6,102.8c5.2,17,7.9,36.8,7.9,59.6
	c-0.4,396.9-0.1,820.5,0.8,1270.7c0.1,46-0.6,76.1-2.1,90.2c-7.6,73.3-40.5,134.4-98.6,183.3c-29.8,25.1-63.6,42.3-101.3,51.7
	c-14.9,3.7-29.9,6.8-45.1,9.2c-9.9,1.6-18.9,3.9-27.2,6.9c-11.1,4.1-22.5,5.6-34.4,4.7c-6.1-0.5-12.3-0.7-18.7-0.8
	c-329.5-0.6-648.4-0.5-956.9,0.4c-11.2,0-22.6,0-34.3,0c-23.2-0.2-46.6-0.3-70.3-0.5c-1.7,0-3,0.7-4,2.1l-0.8,1.1
	c-0.7,1-1.7,1.4-2.9,1.1L2088.8,2682.4z M2351.2,1388.2l11-0.6c1.8-0.1,3,0.7,3.7,2.3c0.2,0.4,0.4,0.8,0.7,1.1
	c1.1,1.3,2.5,2.1,4.2,2.3c4.6,0.6,9.4,1,14.3,1.1c58.4,1,116.8,1.6,175.2,1.9c58.7,0.2,119.9-2.2,180.4-3.7
	c34.4-0.9,68.9,0.5,103.2,0.5c1.4,0,2.7,0.7,3.4,1.9l0.7,1.2c0.9,1.5,2.1,2.4,3.8,2.9c33.7,9.5,65.6,10.6,99.1,15.5
	c6.5,0.9,9.5,6,10,12.2c2.7,36.3-6.1,78.6-14.2,112.2c-7.1,29.8-26,32.4-52.6,34.4c-25.3,1.8-49.2,2.8-71.8,2.9
	c-79.6,0.5-156.9,0.3-231.9-0.5c-42.5-0.4-85.4,3.4-127,1.8c-23.5-1-45.1,4.8-68.5,5.6c-4.3,0.1-7.8,3.3-8.5,7.5
	c-9.5,57.6-19.8,114.7-31.1,171.3c-2.9,14.6-3.3,30-2.1,44.8c0.4,5.1,4.8,8.8,9.8,8.4c0.3,0,0.6-0.1,0.9-0.1
	c7.8-1.4,15.5-2.6,23.3-2.2c48.7,2.3,98,5.2,146,5.3c83.7,0.2,167.2,0.4,250.6,0.5c2,0,3.5-0.8,4.6-2.4c0.9-1.4,2.3-2,3.9-1.8
	c7,1,14.1,0.6,21.2-1.2c1.7-0.5,3.1,0,4.2,1.4c1.2,1.6,2.8,2.2,4.7,1.9c12.5-1.7,24.4-1.1,35.8,1.9c10.5,2.8,21,2.6,31.6,5.5
	c19.9,5.4,41.7,5.4,61.7,5.1c14.6-0.2,20.6,22.5,18,33.6c-2,8.3-2,16.6-0.2,24.9c0.4,1.8,0.1,3.4-0.8,5c-2,3.5-3.4,7.3-4.1,11.3
	c-6.9,39.2-8.5,80.6-19.6,117.8c-5.5,18.5-11.7,36.7-18.7,54.7c-0.5,1.3-1.8,2.2-3.2,2.3c-47,2.1-92.7,5-138.9,4.7
	c-138.7-0.8-270.3-0.9-394.7-0.3c-29.8,0.1-59.3,0.5-88.6,1.2c-22.4,0.5-43.5,4.5-65.4,6.9c-6.8,0.7-12.2,5.9-13.2,12.7
	c-3.7,25.9-7.1,51.1-13,77.3c-4.6,20-8.7,41.5-12.2,64.5c-4.9,31.7-13,62.8-19.1,94.6c-1.4,7.4-0.2,13.9,3.5,19.5
	c0.9,1.3,2.2,2.2,3.8,2.5c9.2,1.5,17.9,2.3,26,2.3c266.5,0.8,533,1,799.5,0.8c39.7,0,77.5-2.7,113.5-8.1c17.1-2.6,33.1-7.9,48.1-16
	c44.6-24.2,76.3-61.8,95-112.7c15.4-41.8,19.3-88.2,28.8-131.3c13.1-59.5,23.6-121,36.5-179c9.5-42.7,11.1-77-7.6-116.2
	c-10.4-21.7-25.4-40.7-45.1-57c-6.2-5.1-12.2-10-18.1-14.7c-4.4-3.6-10-4.7-14.3-8c-3.1-2.3-6.5-4.5-10.3-6.5
	c-14.7-7.9-29.1-15.5-43-22.8c-11.4-6-10.8-10.5,1.7-13.5c8.4-2,18.2-2.7,29.4-2.1c2.2,0.1,4.1-0.6,5.7-2.1
	c7.4-7.5,14.7-14.4,21.9-20.8c38.1-33.8,56.5-78.9,65-127.8c7.3-42.3,15.9-85.2,25.8-128.6c2.1-9.1,1.2-18.4,3.4-27.4
	c2.9-12.2,3.2-24.2,3.5-36.6c0.1-1.8,0.9-3.1,2.4-4c0.9-0.5,1.6-1.2,2.1-2.1c0.6-1,0.9-2.1,0.9-3.2c0-19.5-2.4-36.2-7.3-50.1
	c-1.9-5.6-3.6-11.4-4.9-17.3c-1.4-6.1-3.3-12-5.8-17.5c-17.4-40.1-42.4-79.7-80.9-98.5c-35.2-17.2-67.4-29.2-107.7-29.6
	c-31.1-0.3-62.1-3.7-93.1-3.5c-186.3,1.1-375,1.3-566,0.6c-30.9-0.1-61,2.5-91.4,6.7c-9.4,1.3-15.9,6.6-19.4,15.8
	c-10,26.5-18,51.9-23.1,80.3c-8.3,46-17.8,92.7-28.5,140.1c-2.9,13-3.8,26.1-2.6,39.3c0.4,4.5,4.3,8,8.9,7.9
	c6.9-0.2,11.7-3.1,14.3-8.7C2348.9,1388.9,2349.9,1388.3,2351.2,1388.2z"/>
<ellipse transform="matrix(0.9724 -0.2334 0.2334 0.9724 -535.4973 830.2314)" class="st2" cx="3239.5" cy="2677.3" rx="12.5" ry="1.9"/>
<path class="st1" d="M2088.8,2682.4c-8.6,1.6-13.6,0.2-14.8-4.2C2083.1,2674.9,2088,2676.3,2088.8,2682.4z"/>
</svg>
