<?xml version="1.0" encoding="utf-8"?>
<!-- Generator: Adobe Illustrator 27.7.0, SVG Export Plug-In . SVG Version: 6.00 Build 0)  -->
<svg version="1.1" id="uuid-7e2c47d8-50b5-420b-82ff-e22e18be8a91"
	 xmlns="http://www.w3.org/2000/svg" xmlns:xlink="http://www.w3.org/1999/xlink" x="0px" y="0px" viewBox="0 0 3500 3500"
	 style="enable-background:new 0 0 3500 3500;" xml:space="preserve">
<style type="text/css">
	.st0{fill:#1A3948;}
	.st1{fill:#FF5400;}
</style>
<g id="uuid-add56de5-8346-489e-a23b-9d6e9d5106dc">
	<g id="uuid-c2facd59-cee5-40d4-a3e2-11197e91819a">
		<path class="st0" d="M80.1,2104.1l-53.1,19.8L6.2,1708.6l73.9-30.2V2104.1z M361.9,1998.4c0,40-12.2,71.1-36.6,93.5
			c-24.4,19.5-55.5,29.3-93.5,29.3c-54,0-91.9-14.7-113.7-44.2l32.9-64.8c10.7,8.4,21.3,14.7,32,18.9c10.7,4.2,21.3,6.2,32.2,6.2
			c14.2,0,26.2-0.2,36-0.7c9.8-0.4,17.1-1.1,21.8-2.2c12.2-2.7,21.5-6.9,28-12.9c6.4-6,9.5-13.3,9.5-22.4c0-11.8-9.5-27.1-28.6-46
			c-10.7-11.5-22.4-22-35.3-31.8s-27.5-18.9-44-27.3l34-81.3c83.5,53.7,125.5,115.5,125.5,185.4L361.9,1998.4z M635.9,2113.6h-14
			c-8.4,0-16.2-1.1-23.5-3.1c-7.3-2-13.3-4.9-18-8.7c-2,20.7-8,40.4-18,59.1c-10,18.7-24,37.1-42.2,54.8
			c-15.8,15.5-33.1,29.1-51.7,40.9c-18.7,11.8-39.3,21.8-61.3,30.4l-60-41.3c17.5-7.5,35.3-16.9,53.1-27.5
			c17.8-10.7,35.5-22.6,53.1-35.5c23.8-17.5,41.5-34,53.7-49.1c12-15.1,18-28.4,18-40.2c0-14.2-12.7-38.2-38-71.9l56.6-62.2
			c8.4,13.8,15.8,25.3,22.4,34.6c6.7,9.3,12.4,16.2,17.3,20.7c2.7,2.2,5.1,4.4,7.8,6.2s5.6,3.3,9.1,4.7c3.3,1.3,7.5,2.2,12.2,2.9
			c4.7,0.7,10.7,0.9,17.8,0.9h5.6v84.6L635.9,2113.6z M821.4,1985.7c0,85-50,127.7-149.9,127.7h-50.6v-84.6h89
			c18.7,0,32.6-3.1,42.2-9.1c9.5-6,14.7-15.3,15.5-28c-4.7,5.1-11.1,8.9-19.3,11.1c-8.2,2.2-18.9,3.6-31.5,3.6
			c-45.3,0-67.7-22-67.7-66c0-6.7,0.9-14.2,2.9-22.6s4.7-16.9,8.2-25.5c3.6-8.7,7.8-17.1,12.7-25.1c4.9-8.2,10.2-15.3,16.2-21.8
			c6-6.4,12.2-11.5,19.1-15.3c6.9-3.8,13.8-5.8,20.7-5.8c14,0,27.1,5.6,39.1,16.4c12,10.9,22.4,26.4,31.3,46.9
			c7.1,16.2,12.7,32.9,16.7,49.7c4,16.9,6,33.1,6,48.6L821.4,1985.7z M761.6,1728.1l-47.1,63.7l-64-44.2l47.3-64.8
			C697.9,1682.8,761.6,1728.1,761.6,1728.1z M722.1,1943.1c15.8,0,25.5-5.3,29.5-15.8c-1.3-4-3.1-8-5.3-12s-4.7-7.5-7.5-10.7
			c-2.7-3.1-5.8-5.8-8.9-7.5c-3.1-2-6.2-2.9-9.5-2.9c-2.4,0-4.9,0.7-7.5,2.2c-2.7,1.6-4.9,3.6-7.1,5.8c-2.2,2.4-4,4.9-5.6,7.8
			c-1.6,2.9-2.2,5.3-2.2,8c0,16.7,8,24.9,24.2,24.9V1943.1z M1244.6,2113.6h-49.3c-4.2,19.1-11.8,37.3-22.4,54.6
			c-10.7,17.3-24.6,34.2-41.7,50.6h0.2c-29.5,31.1-64.4,54.4-103.9,69.7l-52.6-50c16.9-7.1,33.8-15.3,50.4-24.9
			c16.7-9.5,32.9-19.8,48.2-31.1c16.2-12.4,29.8-24.4,40.6-36.2c11.1-11.8,18.4-22.2,22.4-31.8c-21.1,0-38.9-1.8-53.3-4.4
			s-26.2-7.3-35.1-13.8s-15.5-14.7-19.3-24.9c-3.8-10.2-5.8-22.9-5.8-38c0-11.3,1.6-22.9,4.9-34.9c3.3-12,7.8-23.8,13.8-35.5
			c7.8-15.3,16.7-27.1,26.2-35.1c9.8-8,20.7-12,32.9-12c12.2,0,23.1,2.7,33.8,8.2c10.7,5.6,20.2,13.3,28.6,23.1
			c8.4,9.8,15.8,21.8,21.3,35.5c5.8,13.8,9.5,29.1,11.8,45.7h48.2v84.6L1244.6,2113.6z M1106.9,2034.1c4.9,0,10-0.2,15.3-0.9
			c5.3-0.7,10.9-1.6,16.7-3.1c-0.7-5.3-2.2-10.7-4.4-15.8c-2.2-5.1-5.1-9.8-8.4-14c-3.3-4.2-7.1-7.3-11.3-10
			c-4.2-2.7-8.9-3.8-13.5-3.8c-2.9,0-6,0.9-9.1,2.7s-6,4.2-8.7,6.9c-2.7,2.7-4.9,5.8-6.7,9.1c-1.8,3.3-2.7,6.2-2.7,8.9
			c0,13.1,11.1,19.8,33.1,19.8L1106.9,2034.1z M1354.3,2200l-35.1,52l-46.2-31.5c-3.8,5.8-7.8,11.8-12.2,18.4
			c-4.4,6.4-8.7,12.7-12.9,18.7l-55.3-38.6l36.6-50l45.1,29.5c3.8-5.8,8-11.8,12.2-17.8c4.2-6.2,8.4-12,12.2-17.5l55.3,37.1
			L1354.3,2200z M1367.6,1997c0,18-2.7,34.2-8.2,48.4c-5.6,14.2-13.5,26.6-24,36.6c-10.7,10-23.5,17.8-39.1,23.3
			c-15.5,5.6-33.1,8.2-53.1,8.2h-14V2029h5.6c15.5,0,28.4-0.4,38.4-1.1c10-0.7,18-1.8,24-3.3c5.8-1.3,9.8-3.1,12-5.3
			c2.2-2.2,3.3-4.7,3.3-7.5c0-4.2-1.3-8.9-4-14c-2.7-5.1-6.4-10.7-11.3-17.1l-23.1-30.6l45.3-68.8c32,32.4,47.7,71.1,47.7,115.9
			L1367.6,1997z M1649.4,1998.4c0,40-12.2,71.1-36.6,93.5c-24.4,19.5-55.5,29.3-93.5,29.3c-54,0-91.9-14.7-113.7-44.2l32.9-64.8
			c10.7,8.4,21.3,14.7,32,18.9c10.7,4.2,21.3,6.2,32.2,6.2c14.2,0,26.2-0.2,36-0.7c9.8-0.4,17.1-1.1,21.8-2.2
			c12.2-2.7,21.5-6.9,28-12.9c6.4-6,9.5-13.3,9.5-22.4c0-11.8-9.5-27.1-28.6-46c-10.7-11.5-22.4-22-35.3-31.8
			c-12.9-9.8-27.5-18.9-44-27.3l34-81.3c83.5,53.7,125.5,115.5,125.5,185.4L1649.4,1998.4z M1788.9,2104.1l-53.1,19.8l-20.9-415.2
			l73.9-30.2V2104.1z M2030.5,2073.4c0,46.4-22.4,91.3-67.3,134.3c-17.8,17.1-36.9,32-57.1,45.1c-20.2,13.1-41.5,24.4-64.2,34.2
			l-56.4-46c38.6-19.3,74.4-41.5,107.5-66.6c49.1-35.8,73.7-66.6,73.7-92.4c0-6.2-1.3-12.4-4-18.7c-2.7-6.2-6.2-12.7-10.2-19.1
			c-4.2-6.4-8.7-12.9-13.8-19.1c-5.1-6.2-9.8-12.4-14.2-18.4l54.8-66.8c18,24.9,30,44.9,36.2,59.7h-0.2
			c10.2,19.8,15.3,44.4,15.3,73.7H2030.5z"/>
	</g>
	<g id="uuid-265507a8-6364-48db-88cb-5a8ae3ae73f4">
		<path class="st1" d="M3493.8,1309.6c-191.4,22.2-244.9,220.1-389,391c-192.5,228.3-477.6,111-477.6,111
			c192.5-24,247.6-223.2,395-393.5C3217.6,1192.5,3493.8,1309.6,3493.8,1309.6L3493.8,1309.6z M2800.3,1644.4
			c0,0,239.4-189.6,136.1-469c-77.7-210.7-227.8-360-148.3-535.8c0,0-236.9,192.3-138.3,469
			C2725.3,1320.2,2879.8,1468.5,2800.3,1644.4L2800.3,1644.4z M2786.6,1604.2c0,0,23.1-307.3-242-423.9
			c-206.7-91-424.1-82.6-498.5-260.5c0,0-29.5,305.3,251.8,423.7c208.3,87.5,414.4,83,488.7,260.9V1604.2z M2471.5,2120.1h537.8
			l125.5-252.5h-663.3L2471.5,2120.1L2471.5,2120.1z M2557.2,2860.4h45.3l308.4-706.4h-354v706.4H2557.2z"/>
	</g>
</g>
</svg>
