<?xml version="1.0" encoding="utf-8"?>
<!-- Generator: Adobe Illustrator 27.7.0, SVG Export Plug-In . SVG Version: 6.00 Build 0)  -->
<svg version="1.1" id="Layer_1" xmlns="http://www.w3.org/2000/svg" xmlns:xlink="http://www.w3.org/1999/xlink" x="0px" y="0px"
	 viewBox="0 0 3500 3500" style="enable-background:new 0 0 3500 3500;" xml:space="preserve">
<style type="text/css">
	.st0{fill:#FFFFFF;}
	.st1{fill:#CEA665;}
	.st2{fill:#E8E8E8;}
	.st3{fill:#9E9D9E;}
	.st4{fill:#D9D1DB;}
	.st5{fill:#A3A3A3;}
	.st6{fill:#E0E0E0;}
	.st7{fill:#A8ACB2;}
	.st8{fill:#EAEAEA;}
	.st9{fill:#BDC3C9;}
	.st10{fill:#C6C4C6;}
	.st11{fill:#E5E5E5;}
	.st12{fill:#A5A5A5;}
	.st13{fill:#BACECD;}
	.st14{fill:#D9D7DB;}
	.st15{fill:#DBD5E0;}
	.st16{fill:#9AA1A8;}
	.st17{fill:#A1A7AF;}
	.st18{fill:#AFAFAF;}
	.st19{fill:#959AA0;}
	.st20{fill:#D8D8D8;}
	.st21{fill:#ADACAD;}
	.st22{fill:#E8DFEA;}
	.st23{fill:#B2B2B2;}
	.st24{fill:#939393;}
	.st25{fill:#A7A7A8;}
	.st26{fill:#C1C1C1;}
	.st27{fill:#7F7F7F;}
	.st28{fill:#DDDDDD;}
	.st29{fill:url(#SVGID_1_);}
	.st30{fill:#F4F4F4;}
	.st31{fill:#E6E7E8;}
</style>
<g>
	<g id="Objects">
		<g>
			<g>
				<path class="st0" d="M92.2,1881.9c-28.6-16.2-51.1-38.4-67.6-66.8C8.2,1786.8,0,1755.5,0,1721s7.9-66,24.1-94.3
					s38.2-50.6,66.5-66.8c28.1-16.2,59.3-24.1,94.1-24.1c31.5,0,60.9,7.2,88.5,21.7c27.3,14.6,50.3,35.5,69.1,62.8l-56.4,40.3
					c-25.7-38.9-59.6-58.6-101.2-58.6c-32.6,0-59.3,11.1-80,33.4c-20.9,22.2-31.3,50.9-31.3,85.6s10.6,63.3,32.1,85.6
					c21.2,22.2,48.2,33.4,81.1,33.4c28.4,0,51.1-7.2,68.9-21.2c17.5-14,28.4-31.5,32.9-52.2H179.4v-61.7h181.2
					c0.8,7.7,1.3,17.5,1.3,28.9c0.3,92.2-65.4,172.7-175.4,172.5C152.1,1906.2,120.6,1898,92.2,1881.9z"/>
				<path class="st0" d="M425.5,1900.9v-359.8h255.9v62H497v82.9h160v62H497v91.1h188.4v61.7L425.5,1900.9L425.5,1900.9z"/>
				<path class="st0" d="M751.6,1900.9v-359.8h75.8l116,239.5l115.8-239.5h75.8v359.8h-71.5v-220.7l-97,196.6h-46.4l-97-196.6v220.7
					H751.6L751.6,1900.9z"/>
			</g>
			<rect x="1901.9" y="1537.7" class="st1" width="16.9" height="362.1"/>
			<g>
				<path class="st1" d="M2287.2,1773.4h-129.7v128.7h-77v-361.7h221.7v67.7h-144.7v97.7h129.7V1773.4z"/>
				<path class="st1" d="M2525.9,1908.3c-96.6,0-183.9-65.1-183.9-187.1s89.4-186.5,185.5-186.5s183.9,65.1,183.9,186.5
					C2711.4,1831.3,2635.5,1908.3,2525.9,1908.3z M2527,1837.5c56.3,0,107.5-37.2,107.5-116.3s-50.6-115.2-107-115.2
					s-107.5,38.8-107.5,115.2S2469.1,1837.5,2527,1837.5z"/>
				<path class="st1" d="M2938.8,1908.3c-96.6,0-183.9-65.1-183.9-187.1s89.4-186.5,185.5-186.5s183.9,65.1,183.9,186.5
					C3124.3,1831.3,3048.4,1908.3,2938.8,1908.3z M2939.8,1837.5c56.3,0,107.5-37.2,107.5-116.3s-50.6-115.2-107-115.2
					s-107.5,38.8-107.5,115.2S2882,1837.5,2939.8,1837.5z"/>
				<path class="st1" d="M3322.7,1540.9c115.2,0,177.2,87.3,177.2,179.3c1.6,92.5-60.4,181.9-177.2,181.9h-134.3v-361.2
					L3322.7,1540.9L3322.7,1540.9z M3321.7,1832.3c66.7,0,101.3-53.7,101.3-111.6s-35.7-110.1-101.3-110.1h-56.3v221.7H3321.7z"/>
			</g>
			<g>
				<g>
					<g>
						<polygon class="st2" points="1517.5,1689.2 1398.5,1689.2 1417.3,1648.7 						"/>
						<polygon class="st3" points="1417.3,1648.7 1379.1,1604.3 1282.1,1656.5 1329.6,1689.2 						"/>
						<polygon class="st4" points="1398.5,1689.2 1417.3,1648.7 1329.6,1689.2 						"/>
						<polygon class="st5" points="1329.6,1689.2 1259.9,1689.2 1282.1,1656.5 						"/>
						<polygon class="st6" points="1259.9,1689.2 1204.4,1689.2 1282.1,1656.5 						"/>
						<path class="st7" d="M1204.4,1689.2c0,0,99.4-85,100.9-84.8s-23.3,52.1-23.3,52.1L1204.4,1689.2z"/>
						<polygon class="st8" points="1305.3,1604.3 1379.1,1604.3 1282.1,1656.5 						"/>
						<polygon class="st9" points="1379.1,1604.3 1417.3,1648.7 1517.5,1604.3 						"/>
						<polygon class="st10" points="1517.5,1689.2 1636.5,1689.2 1617.7,1648.7 						"/>
						<polygon class="st11" points="1517.5,1604.3 1417.3,1648.7 1517.5,1689.2 1617.7,1648.7 						"/>
						<polygon class="st0" points="1617.7,1648.7 1655.9,1604.3 1752.9,1656.5 1705.4,1689.2 						"/>
						<polygon class="st12" points="1636.5,1689.2 1617.7,1648.7 1705.4,1689.2 						"/>
						<polygon class="st13" points="1705.4,1689.2 1775.1,1689.2 1752.9,1656.5 						"/>
						<polygon class="st14" points="1775.1,1689.2 1830.6,1689.2 1752.9,1656.5 						"/>
						<path class="st15" d="M1830.6,1689.2c0,0-99.4-85-100.9-84.8s23.3,52.1,23.3,52.1L1830.6,1689.2z"/>
						<polygon class="st0" points="1729.7,1604.3 1655.9,1604.3 1752.9,1656.5 						"/>
						<polygon class="st16" points="1655.9,1604.3 1617.7,1648.7 1517.5,1604.3 						"/>
					</g>
					<g>
						<polygon class="st17" points="1398.5,1689.2 1472.8,1872.1 1329.6,1689.2 						"/>
						<polygon class="st0" points="1329.6,1689.2 1429.5,1872.1 1517.5,1965.3 1472.8,1872.1 						"/>
						<polygon class="st8" points="1329.6,1689.2 1259.9,1689.2 1429.5,1872.1 						"/>
						<polygon class="st18" points="1517.5,1965.3 1429.5,1872.1 1204.4,1689.2 						"/>
						<polygon class="st19" points="1259.9,1689.2 1204.4,1689.2 1429.5,1872.1 						"/>
						<polygon class="st20" points="1517.5,1689.2 1472.8,1872.1 1517.5,1965.3 1562.2,1872.1 						"/>
						<polygon class="st11" points="1636.5,1689.2 1562.2,1872.1 1705.4,1689.2 						"/>
						<polygon class="st21" points="1705.4,1689.2 1605.5,1872.1 1517.5,1965.3 1562.2,1872.1 						"/>
						<polygon class="st22" points="1705.4,1689.2 1775.1,1689.2 1605.5,1872.1 						"/>
						<polygon class="st23" points="1517.5,1965.3 1605.5,1872.1 1830.6,1689.2 						"/>
						<polygon class="st24" points="1775.1,1689.2 1830.6,1689.2 1605.5,1872.1 						"/>
						<polygon class="st25" points="1636.5,1689.2 1562.2,1689.2 1562.2,1872.1 						"/>
						<polygon class="st2" points="1517.5,1689.2 1398.5,1689.2 1472.8,1872.1 						"/>
					</g>
					<g>
						<polygon class="st0" points="1259.9,1689.2 1398.5,1689.2 1379.1,1604.3 						"/>
						<polygon class="st26" points="1398.5,1689.2 1517.5,1689.2 1636.5,1689.2 1517.5,1604.3 						"/>
						<polygon class="st27" points="1729.7,1604.3 1775.1,1689.2 1830.6,1689.2 						"/>
						<polygon class="st26" points="1636.5,1689.2 1775.1,1689.2 1655.9,1604.3 						"/>
					</g>
					<path class="st28" d="M1775.1,1679.6h-559.4c-6.9,5.9-11.3,9.6-11.3,9.6h626.1c0,0-4.4-3.7-11.3-9.6H1775.1L1775.1,1679.6z"/>
					
						<linearGradient id="SVGID_1_" gradientUnits="userSpaceOnUse" x1="1574.1002" y1="-1788.9796" x2="1626.8003" y2="-1825.7697" gradientTransform="matrix(1 0 0 -1 0 0)">
						<stop  offset="0" style="stop-color:#D6D6D6"/>
						<stop  offset="1" style="stop-color:#191919"/>
					</linearGradient>
					<polygon class="st29" points="1517.5,1965.3 1649.1,1689.2 1740.3,1689.2 					"/>
				</g>
				<polygon class="st30" points="1562.2,1689.2 1517.5,1689.2 1562.2,1872.1 				"/>
				<polygon class="st30" points="1517.5,1965.3 1517.5,1689.2 1472.8,1689.2 				"/>
				<polygon class="st31" points="1329.6,1679.6 1379.1,1604.3 1396.3,1679.6 				"/>
				<polygon class="st31" points="1729.7,1604.3 1655.9,1604.3 1768.6,1679.6 				"/>
			</g>
		</g>
	</g>
</g>
</svg>
