<?xml version="1.0" encoding="utf-8"?>
<!-- Generator: Adobe Illustrator 27.7.0, SVG Export Plug-In . SVG Version: 6.00 Build 0)  -->
<svg version="1.1" id="Layer_1" xmlns="http://www.w3.org/2000/svg" xmlns:xlink="http://www.w3.org/1999/xlink" x="0px" y="0px"
	 viewBox="0 0 3500 3500" style="enable-background:new 0 0 3500 3500;" xml:space="preserve">
<style type="text/css">
	.st0{fill:#FFFFFF;}
	.st1{fill:#BA00DB;}
	.st2{fill:#E8E8E8;}
	.st3{fill:#9E9D9E;}
	.st4{fill:#D9D1DB;}
	.st5{fill:#A3A3A3;}
	.st6{fill:#E0E0E0;}
	.st7{fill:#A8ACB2;}
	.st8{fill:#EAEAEA;}
	.st9{fill:#BDC3C9;}
	.st10{fill:#C6C4C6;}
	.st11{fill:#E5E5E5;}
	.st12{fill:#A5A5A5;}
	.st13{fill:#BACECD;}
	.st14{fill:#D9D7DB;}
	.st15{fill:#DBD5E0;}
	.st16{fill:#9AA1A8;}
	.st17{fill:#A1A7AF;}
	.st18{fill:#AFAFAF;}
	.st19{fill:#959AA0;}
	.st20{fill:#D8D8D8;}
	.st21{fill:#ADACAD;}
	.st22{fill:#E8DFEA;}
	.st23{fill:#B2B2B2;}
	.st24{fill:#939393;}
	.st25{fill:#A7A7A8;}
	.st26{fill:#C1C1C1;}
	.st27{fill:#7F7F7F;}
	.st28{fill:#DDDDDD;}
	.st29{fill:url(#SVGID_1_);}
	.st30{fill:#F4F4F4;}
	.st31{fill:#E6E7E8;}
</style>
<g>
	<g id="Objects">
		<g>
			<g>
				<path class="st0" d="M79.7,1889c-24.7-14-44.2-33.2-58.4-57.7C7.1,1806.8,0,1779.8,0,1750s6.9-57,20.8-81.5
					c14-24.5,33-43.7,57.5-57.7c24.3-14,51.3-20.8,81.3-20.8c27.2,0,52.6,6.2,76.5,18.8c23.6,12.6,43.5,30.7,59.8,54.2l-48.8,34.8
					c-22.2-33.7-51.5-50.6-87.4-50.6c-28.2,0-51.3,9.6-69.1,28.8c-18.1,19.2-27,43.9-27,73.9s9.2,54.7,27.7,73.9
					c18.3,19.2,41.7,28.8,70,28.8c24.5,0,44.2-6.2,59.5-18.3c15.1-12.1,24.5-27.2,28.4-45.1H155V1736h156.6
					c0.7,6.6,1.1,15.1,1.1,24.9c0.2,79.7-56.5,149.2-151.6,149C131.4,1910,104.1,1902.9,79.7,1889L79.7,1889L79.7,1889z"/>
				<path class="st0" d="M367.6,1905.4v-310.9h221.1v53.6H429.4v71.7h138.3v53.6H429.4v78.8h162.8v53.3L367.6,1905.4L367.6,1905.4
					L367.6,1905.4z"/>
				<path class="st0" d="M649.4,1905.4v-310.9h65.5l100.3,206.9l100-206.9h65.5v310.9h-61.8v-190.7l-83.8,169.8H795l-83.8-169.8
					v190.7H649.4L649.4,1905.4z"/>
			</g>
			<path class="st1" d="M1797.7,1905.2V1593h126.6c31.3,0,59.2,6.5,83,19.4c23.7,12.8,42.4,31.2,55.7,54.6c13.3,23.5,20,51.1,20,82
				s-6.7,59-19.8,82.5c-13.1,23.4-31.8,41.7-55.6,54.4c-23.9,12.8-51.9,19.2-83.2,19.2H1797.7L1797.7,1905.2z M1868.6,1843.4h55.6
				c24,0,44.6-7.1,61.3-21c17-14.1,25.6-38.7,25.6-72.9s-8.7-59.3-25.8-73.6c-16.8-14.1-37.4-21.2-61.1-21.2h-55.6L1868.6,1843.4
				L1868.6,1843.4L1868.6,1843.4z"/>
			<path class="st1" d="M2332,1905.2c-8.6,0-16-1.6-22.1-4.7c-6.1-3.1-11.6-8.2-16.4-15.1L2236,1803h-47.7v71.9
				c0,10-2.5,17.6-7.6,22.6s-12.6,7.6-22.6,7.6h-40.3V1593h135.4c39.2,0,69.4,10,89.6,29.8c20.2,19.8,30.4,46.5,30.4,79.6
				c0,21.2-5,39.5-14.8,54.5c-9.8,14.9-24.4,26.4-43.3,34.2l-6,2.5l83.3,111.6L2332,1905.2L2332,1905.2z M2188.4,1749.2h67.9
				c12.4,0,23.4-4.3,32.6-12.8c9.4-8.6,14.2-20,14.2-34.1s-4.7-26.3-13.9-34.9c-9.1-8.5-20.2-12.8-32.9-12.8h-67.9L2188.4,1749.2
				L2188.4,1749.2z"/>
			<path class="st1" d="M2716,1905.2c-8.7,0-16.1-1.8-22-5.4c-5.9-3.6-10.9-9.4-14.9-17.3L2669,1862h-139.1l-9.7,20
				c-4,8.2-8.9,14.2-14.6,17.7c-5.8,3.6-13.2,5.4-22.2,5.4h-52.5l162-312.1h13.7l162,312.1H2716L2716,1905.2z M2555.9,1806.9h87.1
				l-43.6-92.5L2555.9,1806.9L2555.9,1806.9L2555.9,1806.9z"/>
			<path class="st1" d="M3085.7,1905.2c-10,0-17.6-2.5-22.6-7.6c-5-5-7.6-12.6-7.6-22.6l0.5-109.7l-88.7,104.6l-88.6-104.5V1875
				c0,10-2.5,17.6-7.6,22.6s-12.6,7.6-22.6,7.6h-40.8V1593h13.4l146.2,172.2l146.2-172.2h13.4v312.1H3085.7L3085.7,1905.2z"/>
			<path class="st1" d="M3447.5,1905.2c-8.7,0-16.1-1.8-22-5.4c-5.9-3.6-10.9-9.4-14.9-17.3l-10.2-20.4h-139.1l-9.7,20
				c-4,8.2-8.9,14.2-14.6,17.7c-5.8,3.6-13.2,5.4-22.2,5.4h-52.5l162-312.1h13.7l162,312.1H3447.5L3447.5,1905.2z M3287.3,1806.9
				h87.1l-43.6-92.5L3287.3,1806.9L3287.3,1806.9L3287.3,1806.9z"/>
			<rect x="1643.4" y="1590.9" class="st1" width="14.6" height="312.8"/>
			<g>
				<g>
					<g>
						<polygon class="st2" points="1311.2,1671.4 1208.4,1671.4 1224.7,1636.5 						"/>
						<polygon class="st3" points="1224.7,1636.5 1191.6,1598.2 1107.8,1643.2 1148.8,1671.4 						"/>
						<polygon class="st4" points="1208.4,1671.4 1224.7,1636.5 1148.8,1671.4 						"/>
						<polygon class="st5" points="1148.8,1671.4 1088.6,1671.4 1107.8,1643.2 						"/>
						<polygon class="st6" points="1088.6,1671.4 1040.7,1671.4 1107.8,1643.2 						"/>
						<path class="st7" d="M1040.7,1671.4c0,0,85.9-73.5,87.2-73.3c1.3,0.2-20.1,45-20.1,45L1040.7,1671.4L1040.7,1671.4z"/>
						<polygon class="st8" points="1127.9,1598.2 1191.6,1598.2 1107.8,1643.2 						"/>
						<polygon class="st9" points="1191.6,1598.2 1224.7,1636.5 1311.2,1598.2 						"/>
						<polygon class="st10" points="1311.2,1671.4 1414,1671.4 1397.7,1636.5 						"/>
						<polygon class="st11" points="1311.2,1598.2 1224.7,1636.5 1311.2,1671.4 1397.7,1636.5 						"/>
						<polygon class="st0" points="1397.7,1636.5 1430.8,1598.2 1514.6,1643.2 1473.6,1671.4 						"/>
						<polygon class="st12" points="1414,1671.4 1397.7,1636.5 1473.6,1671.4 						"/>
						<polygon class="st13" points="1473.6,1671.4 1533.8,1671.4 1514.6,1643.2 						"/>
						<polygon class="st14" points="1533.8,1671.4 1581.7,1671.4 1514.6,1643.2 						"/>
						<path class="st15" d="M1581.7,1671.4c0,0-85.9-73.5-87.2-73.3c-1.3,0.2,20.1,45,20.1,45L1581.7,1671.4L1581.7,1671.4z"/>
						<polygon class="st0" points="1494.5,1598.2 1430.8,1598.2 1514.6,1643.2 						"/>
						<polygon class="st16" points="1430.8,1598.2 1397.7,1636.5 1311.2,1598.2 						"/>
					</g>
					<g>
						<polygon class="st17" points="1208.4,1671.4 1272.6,1829.5 1148.8,1671.4 						"/>
						<polygon class="st0" points="1148.8,1671.4 1235.2,1829.5 1311.2,1910 1272.6,1829.5 						"/>
						<polygon class="st8" points="1148.8,1671.4 1088.6,1671.4 1235.2,1829.5 						"/>
						<polygon class="st18" points="1311.2,1910 1235.2,1829.5 1040.7,1671.4 						"/>
						<polygon class="st19" points="1088.6,1671.4 1040.7,1671.4 1235.2,1829.5 						"/>
						<polygon class="st20" points="1311.2,1671.4 1272.6,1829.5 1311.2,1910 1349.8,1829.5 						"/>
						<polygon class="st11" points="1414,1671.4 1349.8,1829.5 1473.6,1671.4 						"/>
						<polygon class="st21" points="1473.6,1671.4 1387.2,1829.5 1311.2,1910 1349.8,1829.5 						"/>
						<polygon class="st22" points="1473.6,1671.4 1533.8,1671.4 1387.2,1829.5 						"/>
						<polygon class="st23" points="1311.2,1910 1387.2,1829.5 1581.7,1671.4 						"/>
						<polygon class="st24" points="1533.8,1671.4 1581.7,1671.4 1387.2,1829.5 						"/>
						<polygon class="st25" points="1414,1671.4 1349.8,1671.4 1349.8,1829.5 						"/>
						<polygon class="st2" points="1311.2,1671.4 1208.4,1671.4 1272.6,1829.5 						"/>
					</g>
					<g>
						<polygon class="st0" points="1088.6,1671.4 1208.4,1671.4 1191.6,1598.2 						"/>
						<polygon class="st26" points="1208.4,1671.4 1311.2,1671.4 1414,1671.4 1311.2,1598.2 						"/>
						<polygon class="st27" points="1494.5,1598.2 1533.8,1671.4 1581.7,1671.4 						"/>
						<polygon class="st26" points="1414,1671.4 1533.8,1671.4 1430.8,1598.2 						"/>
					</g>
					<path class="st28" d="M1533.8,1663.1h-483.4c-6,5.1-9.7,8.3-9.7,8.3h541c0,0-3.8-3.2-9.7-8.3H1533.8L1533.8,1663.1z"/>
					
						<linearGradient id="SVGID_1_" gradientUnits="userSpaceOnUse" x1="1360.1094" y1="-1242.3291" x2="1405.6394" y2="-1210.5292" gradientTransform="matrix(1 0 0 1 0 3000)">
						<stop  offset="0" style="stop-color:#D6D6D6"/>
						<stop  offset="1" style="stop-color:#191919"/>
					</linearGradient>
					<polygon class="st29" points="1311.2,1910 1424.9,1671.4 1503.7,1671.4 					"/>
				</g>
				<polygon class="st30" points="1349.8,1671.4 1311.2,1671.4 1349.8,1829.5 				"/>
				<polygon class="st30" points="1311.2,1910 1311.2,1671.4 1272.6,1671.4 				"/>
				<polygon class="st31" points="1148.8,1663.1 1191.6,1598.2 1206.5,1663.1 				"/>
				<polygon class="st31" points="1494.5,1598.2 1430.8,1598.2 1528.2,1663.1 				"/>
			</g>
		</g>
	</g>
</g>
</svg>
