<?xml version="1.0" encoding="utf-8"?>
<!-- Generator: Adobe Illustrator 27.7.0, SVG Export Plug-In . SVG Version: 6.00 Build 0)  -->
<svg version="1.1" id="Layer_1" xmlns="http://www.w3.org/2000/svg" xmlns:xlink="http://www.w3.org/1999/xlink" x="0px" y="0px"
	 viewBox="0 0 3500 3500" style="enable-background:new 0 0 3500 3500;" xml:space="preserve">
<style type="text/css">
	.st0{fill:#FFFFFF;}
	.st1{fill:#52BA00;}
	.st2{fill:#E8E8E8;}
	.st3{fill:#9E9D9E;}
	.st4{fill:#D9D1DB;}
	.st5{fill:#A3A3A3;}
	.st6{fill:#E0E0E0;}
	.st7{fill:#A8ACB2;}
	.st8{fill:#EAEAEA;}
	.st9{fill:#BDC3C9;}
	.st10{fill:#C6C4C6;}
	.st11{fill:#E5E5E5;}
	.st12{fill:#A5A5A5;}
	.st13{fill:#BACECD;}
	.st14{fill:#D9D7DB;}
	.st15{fill:#DBD5E0;}
	.st16{fill:#9AA1A8;}
	.st17{fill:#A1A7AF;}
	.st18{fill:#AFAFAF;}
	.st19{fill:#959AA0;}
	.st20{fill:#D8D8D8;}
	.st21{fill:#ADACAD;}
	.st22{fill:#E8DFEA;}
	.st23{fill:#B2B2B2;}
	.st24{fill:#939393;}
	.st25{fill:#A7A7A8;}
	.st26{fill:#C1C1C1;}
	.st27{fill:#7F7F7F;}
	.st28{fill:#DDDDDD;}
	.st29{fill:url(#SVGID_1_);}
	.st30{fill:#F4F4F4;}
	.st31{fill:#E6E7E8;}
</style>
<g>
	<g id="Objects">
		<g>
			<g>
				<path class="st0" d="M80,1889.2c-24.8-14-44.3-33.3-58.6-57.9C7.1,1806.8,0,1779.6,0,1749.8s6.9-57.2,20.9-81.8
					c14-24.6,33.1-43.9,57.7-57.9c24.3-14,51.5-20.9,81.6-20.9c27.3,0,52.8,6.2,76.7,18.8c23.7,12.6,43.7,30.8,60,54.4l-48.9,34.9
					c-22.3-33.8-51.7-50.8-87.8-50.8c-28.3,0-51.5,9.7-69.4,28.9c-18.2,19.3-27.1,44.1-27.1,74.2s9.2,54.9,27.8,74.2
					c18.4,19.3,41.8,28.9,70.3,28.9c24.6,0,44.3-6.2,59.7-18.4c15.2-12.2,24.6-27.3,28.5-45.3h-94.4v-53.5h157.2
					c0.7,6.7,1.1,15.2,1.1,25c0.2,80-56.8,149.8-152.1,149.6C131.9,1910.4,104.5,1903.2,80,1889.2L80,1889.2z"/>
				<path class="st0" d="M369,1905.8v-312h221.9v53.8H431v71.9h138.8v53.8H431v79h163.4v53.5L369,1905.8L369,1905.8z"/>
				<path class="st0" d="M651.8,1905.8v-312h65.7l100.6,207.7l100.4-207.7h65.7v312h-62v-191.4l-84.1,170.5h-40.2l-84.1-170.5v191.4
					H651.8L651.8,1905.8z"/>
			</g>
			<rect x="1649.4" y="1590.8" class="st1" width="14.7" height="314"/>
			<g>
				<path class="st1" d="M1868.8,1727.6v179.2H1802v-315h21.1l176.1,179.2v-177.9h67.2v314.6h-20.2L1868.8,1727.6L1868.8,1727.6z"/>
				<path class="st1" d="M2194.2,1854.8l-24.2,52h-69.9v-9l144.3-307.4h30.9l143.4,307.4v9h-69.5l-24.6-52H2194.2L2194.2,1854.8z
					 M2216.1,1798.3h86.9l-43.5-103.5L2216.1,1798.3L2216.1,1798.3z"/>
				<path class="st1" d="M2401.2,1651.4v-58.2h232.1v58.2H2550v255.4h-65v-255.4H2401.2L2401.2,1651.4z"/>
				<path class="st1" d="M2675,1802.4v-209.3h67.2V1801c0,33.6,27.3,50.6,58.2,50.6s57.8-17,57.8-50.6v-207.9h66.3v209.3
					c0,70.3-57.8,108.4-124.1,108.4S2675,1872.7,2675,1802.4L2675,1802.4z"/>
				<path class="st1" d="M3254.4,1896.9v9.4h-71.7l-64.5-103.5h-56v103.5H2995v-313.7c44.8,0,89.2-0.4,134,0
					c71.7,0,110.7,52,110.7,107.6c0,39.9-20.2,74.8-56,92.3L3254.4,1896.9L3254.4,1896.9z M3128.5,1747.7c28.2,0,46.6-22,46.1-48.8
					c0-26.4-17.5-47.5-46.1-47.5h-67.2v96.3H3128.5z"/>
				<path class="st1" d="M3496.4,1651.8h-124.6v63.6h116.5v58.7h-116.5v71.7H3500v60.9h-195.8v-313.7h192.2L3496.4,1651.8
					L3496.4,1651.8z"/>
			</g>
			<g>
				<g>
					<g>
						<polygon class="st2" points="1316,1670.9 1212.8,1670.9 1229.2,1635.8 						"/>
						<polygon class="st3" points="1229.2,1635.8 1196,1597.4 1111.9,1642.6 1153.1,1670.9 						"/>
						<polygon class="st4" points="1212.8,1670.9 1229.2,1635.8 1153.1,1670.9 						"/>
						<polygon class="st5" points="1153.1,1670.9 1092.6,1670.9 1111.9,1642.6 						"/>
						<polygon class="st6" points="1092.6,1670.9 1044.5,1670.9 1111.9,1642.6 						"/>
						<path class="st7" d="M1044.5,1670.9c0,0,86.2-73.7,87.5-73.6s-20.2,45.2-20.2,45.2L1044.5,1670.9L1044.5,1670.9z"/>
						<polygon class="st8" points="1132.1,1597.4 1196,1597.4 1111.9,1642.6 						"/>
						<polygon class="st9" points="1196,1597.4 1229.2,1635.8 1316,1597.4 						"/>
						<polygon class="st10" points="1316,1670.9 1419.3,1670.9 1402.9,1635.8 						"/>
						<polygon class="st11" points="1316,1597.4 1229.2,1635.8 1316,1670.9 1402.9,1635.8 						"/>
						<polygon class="st0" points="1402.9,1635.8 1436.1,1597.4 1520.2,1642.6 1479,1670.9 						"/>
						<polygon class="st12" points="1419.3,1670.9 1402.9,1635.8 1479,1670.9 						"/>
						<polygon class="st13" points="1479,1670.9 1539.5,1670.9 1520.2,1642.6 						"/>
						<polygon class="st14" points="1539.5,1670.9 1587.6,1670.9 1520.2,1642.6 						"/>
						<path class="st15" d="M1587.6,1670.9c0,0-86.2-73.7-87.5-73.6s20.2,45.2,20.2,45.2L1587.6,1670.9L1587.6,1670.9z"/>
						<polygon class="st0" points="1500,1597.4 1436.1,1597.4 1520.2,1642.6 						"/>
						<polygon class="st16" points="1436.1,1597.4 1402.9,1635.8 1316,1597.4 						"/>
					</g>
					<g>
						<polygon class="st17" points="1212.8,1670.9 1277.3,1829.6 1153.1,1670.9 						"/>
						<polygon class="st0" points="1153.1,1670.9 1239.8,1829.6 1316,1910.4 1277.3,1829.6 						"/>
						<polygon class="st8" points="1153.1,1670.9 1092.6,1670.9 1239.8,1829.6 						"/>
						<polygon class="st18" points="1316,1910.4 1239.8,1829.6 1044.5,1670.9 						"/>
						<polygon class="st19" points="1092.6,1670.9 1044.5,1670.9 1239.8,1829.6 						"/>
						<polygon class="st20" points="1316,1670.9 1277.3,1829.6 1316,1910.4 1354.8,1829.6 						"/>
						<polygon class="st11" points="1419.3,1670.9 1354.8,1829.6 1479,1670.9 						"/>
						<polygon class="st21" points="1479,1670.9 1392.3,1829.6 1316,1910.4 1354.8,1829.6 						"/>
						<polygon class="st22" points="1479,1670.9 1539.5,1670.9 1392.3,1829.6 						"/>
						<polygon class="st23" points="1316,1910.4 1392.3,1829.6 1587.6,1670.9 						"/>
						<polygon class="st24" points="1539.5,1670.9 1587.6,1670.9 1392.3,1829.6 						"/>
						<polygon class="st25" points="1419.3,1670.9 1354.8,1670.9 1354.8,1829.6 						"/>
						<polygon class="st2" points="1316,1670.9 1212.8,1670.9 1277.3,1829.6 						"/>
					</g>
					<g>
						<polygon class="st0" points="1092.6,1670.9 1212.8,1670.9 1196,1597.4 						"/>
						<polygon class="st26" points="1212.8,1670.9 1316,1670.9 1419.3,1670.9 1316,1597.4 						"/>
						<polygon class="st27" points="1500,1597.4 1539.5,1670.9 1587.6,1670.9 						"/>
						<polygon class="st26" points="1419.3,1670.9 1539.5,1670.9 1436.1,1597.4 						"/>
					</g>
					<path class="st28" d="M1539.5,1662.6h-485.2c-6,5.1-9.8,8.3-9.8,8.3h543c0,0-3.8-3.2-9.8-8.3H1539.5L1539.5,1662.6z"/>
					
						<linearGradient id="SVGID_1_" gradientUnits="userSpaceOnUse" x1="1365.1318" y1="-1757.4774" x2="1410.8318" y2="-1789.3875" gradientTransform="matrix(1 0 0 -1 0 0)">
						<stop  offset="0" style="stop-color:#D6D6D6"/>
						<stop  offset="1" style="stop-color:#191919"/>
					</linearGradient>
					<polygon class="st29" points="1316,1910.4 1430.1,1670.9 1509.2,1670.9 					"/>
				</g>
				<polygon class="st30" points="1354.8,1670.9 1316,1670.9 1354.8,1829.6 				"/>
				<polygon class="st30" points="1316,1910.4 1316,1670.9 1277.3,1670.9 				"/>
				<polygon class="st31" points="1153.1,1662.6 1196,1597.4 1210.9,1662.6 				"/>
				<polygon class="st31" points="1500,1597.4 1436.1,1597.4 1533.8,1662.6 				"/>
			</g>
		</g>
	</g>
</g>
</svg>
