<?xml version="1.0" encoding="utf-8"?>
<!-- Generator: Adobe Illustrator 27.7.0, SVG Export Plug-In . SVG Version: 6.00 Build 0)  -->
<svg version="1.1" id="Layer_1" xmlns="http://www.w3.org/2000/svg" xmlns:xlink="http://www.w3.org/1999/xlink" x="0px" y="0px"
	 viewBox="0 0 3500 3500" style="enable-background:new 0 0 3500 3500;" xml:space="preserve">
<style type="text/css">
	.st0{fill:none;stroke:#FC8B9D;stroke-width:2;}
	.st1{fill:#F8163A;}
	.st2{fill:#FFFFFF;}
</style>
<g>
	<path vector-effect="non-scaling-stroke" class="st0" d="M2623.5,1669.2c32-1.4,64.7-1.3,98,0.1c2.5,0.1,4.6-1.8,4.8-4.3
		c2.1-28.6,2.2-58.7,0.2-90.3c-0.1-2.1-1.9-3.8-4-3.8l-94-0.3c-3.6,0-5.7-1.8-6.1-5.5c-3.4-28.2-0.9-56.5-2.8-85
		c-0.2-2.5-2.1-4.4-4.6-4.6c-35.7-2.8-69.5-3.1-101.4-0.9c-4.3,0.3-7.8,3.8-8.1,8.1c-2.4,37.4,0.2,74.7-0.1,113.2
		c-0.5,59.2-1,116.9-1.6,172.9c-0.5,44.3,2.5,75.5,9.1,93.5c33.9,93.5,139.3,121.1,228.2,104.8c3.7-0.7,5.6-2.9,5.6-6.7l0.1-90.1
		c0-1.8-1.4-3.3-3.2-3.3c-0.2,0-0.4,0-0.7,0.1c-58.3,11.3-120.3,6.3-122.8-70.1c-1.3-40.7-1.4-82.1-0.2-124.4
		C2619.9,1670.6,2621.1,1669.3,2623.5,1669.2"/>
	<path vector-effect="non-scaling-stroke" class="st0" d="M1675,1629.8c48.2-12.5,125.2-2.3,126.3,63.7c1.2,67.3,1.2,145.9,0,235.8
		c-0.1,8.5,0.9,17.1,3.1,25.8c0.5,1.9,1.7,2.9,3.7,3c34.5,1.9,68.6,1.8,102.2-0.2c2.7-0.2,4.8-2.3,5-4.9c1.5-24.4,1.9-47.2,1.3-68.5
		c-1.8-60.1-1.5-121.7-0.7-181.8c0.3-23.8-1.2-42.6-4.7-56.5c-13.1-52.5-57.5-88.7-108.7-105.2c-91.8-29.6-252.3-13.8-286.6,99.2
		c-5.6,18.4-8,44.1-7.2,77.2c1.8,76.5,1.6,153.4-0.7,230.6c-0.2,5.9,4.5,10.9,10.4,11.1c0.1,0,0.2,0,0.3,0l99.6,0.4
		c2.4,0,3.7-1.2,3.9-3.7c0.9-14.2,1.3-28,1.3-41.3c0-71.8,0.1-144,0.5-216.6C1624.2,1661.2,1641.2,1638.5,1675,1629.8"/>
	<path vector-effect="non-scaling-stroke" class="st0" d="M640.6,1581.5c-56.4-57.2-142.9-61.9-218-39.9
		c-70.2,20.7-112.5,73.8-112.2,147.8c0.4,95.3,0.5,185.1,0.4,269.3c0,2.1,1.1,3.2,3.2,3.2l103.9-0.1c3.7,0,6.6-3,6.6-6.7
		c0.1-84.4,0.1-169.4,0.2-255.1c0.1-49.2,24.9-70.3,72.8-72.8c49.7-2.6,88.8,15.8,89.5,70.8c0.9,68.6,0.9,147.2-0.1,235.7
		c-0.1,8,0.4,15.9,1.5,23.7c0.4,2.7,2.7,4.6,5.3,4.6l102.7-0.3c2.2,0,3.4-1.1,3.6-3.3c1.7-18.1,2.4-36.1,2.2-53.9
		c-1-69.8-0.8-140.6,0.7-212.6c0.7-32.8,15.7-52.9,45-60.6c25.1-6.5,49.9-5.9,74.5,1.9c31.1,9.8,41.9,40,42.3,72
		c0.7,65.6,0.6,135.9-0.2,210.8c-0.1,13.8,0.5,27.8,2,41.9c0.2,2.1,2,3.8,4.2,3.8l98.3,0.1c5.5,0,9.9-4.4,9.9-9.9c0,0,0-0.1,0-0.1
		c-0.8-94.5-0.7-182.4,0.4-263.8c1-81.5-56.1-135.3-131.9-151.8c-70.2-15.3-146.5-6.2-199.3,45.5
		C645.9,1583.6,642.6,1583.5,640.6,1581.5"/>
	<path vector-effect="non-scaling-stroke" class="st0" d="M1319.2,1700.5c-0.1,2.6-1.5,3.5-4,2.9c-80.8-21-231.4-32.2-263.1,73.6
		c-8.7,29-10.2,61.2-4.6,96.6c6.8,43,33.2,69.5,79.1,79.5c27.2,5.9,55.7,8.8,85.5,8.8c65.9-0.1,132.9-0.3,201-0.4
		c5.1,0,10.5-0.7,16.2-2c1.9-0.4,3-1.6,3.4-3.5c1.7-7.9,2.5-14.9,2.5-21.1c-0.8-78.1-1.1-156.3-0.9-234.5
		c0.2-84.1-31.1-146.9-120.1-163c-69.5-12.5-144.5-9-225,10.6c-2.3,0.6-3.9,2.6-3.9,4.9v80.8c0,2.3,1.1,3.2,3.4,2.8
		c54.7-9.6,112-11.9,171.6-7.1C1302,1632.7,1321.6,1656.4,1319.2,1700.5"/>
	<path vector-effect="non-scaling-stroke" class="st0" d="M2792.9,1809.5c19.9,96.3,101.5,161.1,199.2,168.4
		c122.7,9.2,224.3-58.1,246.5-182.8c16.3-91.5-21.3-185.8-102.9-233.5c-90-52.6-216.1-40.3-288.9,35.9
		C2792.7,1654.1,2777.2,1733.8,2792.9,1809.5"/>
	<path vector-effect="non-scaling-stroke" class="st0" d="M2026.8,1622.1c-72,95.3-54.1,251.2,45.4,320.3
		c80.4,55.8,196.5,58.3,278.5-0.9c53.7-38.9,83.4-99.5,86.9-165.9c1.7-32-1.5-61-9.7-87.3c-35.9-115.6-154.2-172.4-270.4-147.2
		C2102.1,1553.1,2058.5,1580.1,2026.8,1622.1"/>
	<path vector-effect="non-scaling-stroke" class="st0" d="M1319.6,1860.9l0.5-64.3c0.1-5.5-4.4-10-9.9-10.1c0,0,0,0,0,0l-103.5-0.9
		c-27-0.2-49.1,15.8-49.2,35.9c0,0,0,0,0,0l-0.1,11.6c-0.2,20.1,21.6,36.6,48.6,36.8c0,0,0,0,0,0l103.5,0.9
		C1315,1870.9,1319.5,1866.5,1319.6,1860.9C1319.6,1860.9,1319.6,1860.9,1319.6,1860.9"/>
	<path vector-effect="non-scaling-stroke" class="st0" d="M3014.8,1881.1c64.6-0.3,116.6-57.3,116.2-127.2c0,0,0,0,0,0
		c-0.4-69.9-53-126.3-117.6-126c-64.6,0.3-116.6,57.3-116.2,127.2c0,0,0,0,0,0C2897.6,1825,2950.2,1881.5,3014.8,1881.1"/>
	<path vector-effect="non-scaling-stroke" class="st0" d="M2211.3,1886.5c64.6-0.3,116.7-57.3,116.3-127.2v0
		c-0.4-69.9-53-126.3-117.6-125.9s-116.7,57.3-116.3,127.2l0,0C2094,1830.4,2146.7,1886.8,2211.3,1886.5"/>
</g>
<path class="st1" d="M3499.4,1776.9c-7.1,181.3-152.3,332.9-329.1,360.8c-18.8,3-45.1,4.5-79,4.5c-890-0.5-1780.7-0.5-2672.1,0.2
	c-43.7,0-78.3-2.5-103.7-7.5c-156.7-31-277.6-153.8-308.7-309.1c-5.2-25.7-7.3-57.1-6.3-94.3c3.9-158.9,103.6-292.7,249.5-351.5
	c51.3-20.7,103.3-27.6,160.3-27.6c882.2,0.7,1782,0.8,2699.3,0.2c141.9-0.1,270.9,78.8,341.3,200.9c23.7,41.1,38.6,82.4,44.5,123.8
	C3499.6,1706.3,3500.9,1739.6,3499.4,1776.9z M2623.5,1669.2c32-1.4,64.7-1.3,98,0.1c2.5,0.1,4.6-1.8,4.8-4.3
	c2.1-28.6,2.2-58.7,0.2-90.3c-0.1-2.1-1.9-3.8-4-3.8l-94-0.3c-3.6,0-5.7-1.8-6.1-5.5c-3.4-28.2-0.9-56.5-2.8-85
	c-0.2-2.5-2.1-4.4-4.6-4.6c-35.7-2.8-69.5-3.1-101.4-0.9c-4.3,0.3-7.8,3.8-8.1,8.1c-2.4,37.4,0.2,74.7-0.1,113.2
	c-0.5,59.2-1,116.9-1.6,172.9c-0.5,44.3,2.5,75.5,9.1,93.5c33.9,93.5,139.3,121.1,228.2,104.8c3.7-0.7,5.6-2.9,5.6-6.7l0.1-90.1
	c0-1.8-1.4-3.3-3.2-3.3c-0.2,0-0.4,0-0.7,0.1c-58.3,11.3-120.3,6.3-122.8-70.1c-1.3-40.7-1.4-82.1-0.2-124.4
	C2619.9,1670.6,2621.1,1669.3,2623.5,1669.2z M1675,1629.8c48.2-12.5,125.2-2.3,126.3,63.7c1.2,67.3,1.2,145.9,0,235.8
	c-0.1,8.5,0.9,17.1,3.1,25.8c0.5,1.9,1.7,2.9,3.7,3c34.5,1.9,68.6,1.8,102.2-0.2c2.7-0.2,4.8-2.3,5-4.9c1.5-24.4,1.9-47.2,1.3-68.5
	c-1.8-60.1-1.5-121.7-0.7-181.8c0.3-23.8-1.2-42.6-4.7-56.5c-13.1-52.5-57.5-88.7-108.7-105.2c-91.8-29.6-252.3-13.8-286.6,99.2
	c-5.6,18.4-8,44.1-7.2,77.2c1.8,76.5,1.6,153.4-0.7,230.6c-0.2,5.9,4.5,10.9,10.4,11.1c0.1,0,0.2,0,0.3,0l99.6,0.4
	c2.4,0,3.7-1.2,3.9-3.7c0.9-14.2,1.3-28,1.3-41.3c0-71.8,0.1-144,0.5-216.6C1624.2,1661.2,1641.2,1638.5,1675,1629.8z M640.6,1581.5
	c-56.4-57.2-142.9-61.9-218-39.9c-70.2,20.7-112.5,73.8-112.2,147.8c0.4,95.3,0.5,185.1,0.4,269.3c0,2.1,1.1,3.2,3.2,3.2l103.9-0.1
	c3.7,0,6.6-3,6.6-6.7c0.1-84.4,0.1-169.4,0.2-255.1c0.1-49.2,24.9-70.3,72.8-72.8c49.7-2.6,88.8,15.8,89.5,70.8
	c0.9,68.6,0.9,147.2-0.1,235.7c-0.1,8,0.4,15.9,1.5,23.7c0.4,2.7,2.7,4.6,5.3,4.6l102.7-0.3c2.2,0,3.4-1.1,3.6-3.3
	c1.7-18.1,2.4-36.1,2.2-53.9c-1-69.8-0.8-140.6,0.7-212.6c0.7-32.8,15.7-52.9,45-60.6c25.1-6.5,49.9-5.9,74.5,1.9
	c31.1,9.8,41.9,40,42.3,72c0.7,65.6,0.6,135.9-0.2,210.8c-0.1,13.8,0.5,27.8,2,41.9c0.2,2.1,2,3.8,4.2,3.8l98.3,0.1
	c5.5,0,9.9-4.4,9.9-9.9c0,0,0-0.1,0-0.1c-0.8-94.5-0.7-182.4,0.4-263.8c1-81.5-56.1-135.3-131.9-151.8
	c-70.2-15.3-146.5-6.2-199.3,45.5C645.9,1583.6,642.6,1583.5,640.6,1581.5z M1319.2,1700.5c-0.1,2.6-1.5,3.5-4,2.9
	c-80.8-21-231.4-32.2-263.1,73.6c-8.7,29-10.2,61.2-4.6,96.6c6.8,43,33.2,69.5,79.1,79.5c27.2,5.9,55.7,8.8,85.5,8.8
	c65.9-0.1,132.9-0.3,201-0.4c5.1,0,10.5-0.7,16.2-2c1.9-0.4,3-1.6,3.4-3.5c1.7-7.9,2.5-14.9,2.5-21.1c-0.8-78.1-1.1-156.3-0.9-234.5
	c0.2-84.1-31.1-146.9-120.1-163c-69.5-12.5-144.5-9-225,10.6c-2.3,0.6-3.9,2.6-3.9,4.9v80.8c0,2.3,1.1,3.2,3.4,2.8
	c54.7-9.6,112-11.9,171.6-7.1C1302,1632.7,1321.6,1656.4,1319.2,1700.5z M2792.9,1809.5c19.9,96.3,101.5,161.1,199.2,168.4
	c122.7,9.2,224.3-58.1,246.5-182.8c16.3-91.5-21.3-185.8-102.9-233.5c-90-52.6-216.1-40.3-288.9,35.9
	C2792.7,1654.1,2777.2,1733.8,2792.9,1809.5z M2026.8,1622.1c-72,95.3-54.1,251.2,45.4,320.3c80.4,55.8,196.5,58.3,278.5-0.9
	c53.7-38.9,83.4-99.5,86.9-165.9c1.7-32-1.5-61-9.7-87.3c-35.9-115.6-154.2-172.4-270.4-147.2
	C2102.1,1553.1,2058.5,1580.1,2026.8,1622.1z"/>
<path class="st2" d="M2619.8,1672.9c-1.2,42.2-1.1,83.7,0.2,124.4c2.5,76.3,64.5,81.3,122.8,70.1c1.7-0.4,3.4,0.8,3.8,2.6
	c0,0.2,0.1,0.4,0.1,0.7l-0.1,90.1c0,3.8-1.9,6-5.6,6.7c-89,16.3-194.3-11.3-228.2-104.8c-6.5-18-9.5-49.2-9.1-93.5
	c0.6-56,1.1-113.6,1.6-172.9c0.3-38.5-2.3-75.8,0.1-113.2c0.3-4.4,3.8-7.8,8.1-8.1c32-2.2,65.8-1.9,101.4,0.9
	c2.5,0.2,4.4,2.2,4.6,4.6c1.9,28.5-0.5,56.8,2.8,85c0.4,3.6,2.5,5.5,6.1,5.5l94,0.3c2.1,0,3.9,1.6,4,3.8c2,31.6,1.9,61.7-0.2,90.3
	c-0.2,2.5-2.3,4.4-4.8,4.3c-33.4-1.5-66-1.5-98-0.1C2621.1,1669.3,2619.9,1670.6,2619.8,1672.9z"/>
<path class="st2" d="M1801.3,1693.4c-1.1-66-78.1-76.2-126.3-63.7c-33.8,8.8-50.8,31.4-51,68c-0.4,72.6-0.6,144.8-0.5,216.6
	c0,13.4-0.4,27.2-1.3,41.3c-0.1,2.5-1.4,3.7-3.9,3.7l-99.6-0.4c-5.9,0-10.7-4.9-10.7-10.8c0-0.1,0-0.2,0-0.3
	c2.3-77.2,2.5-154.1,0.7-230.6c-0.8-33,1.6-58.7,7.2-77.2c34.2-113,194.8-128.8,286.6-99.2c51.3,16.6,95.6,52.7,108.7,105.2
	c3.5,13.9,5,32.7,4.7,56.5c-0.9,60.1-1.1,121.6,0.7,181.8c0.6,21.3,0.2,44.1-1.3,68.5c-0.2,2.6-2.3,4.7-5,4.9
	c-33.6,2-67.7,2.1-102.2,0.2c-2-0.1-3.2-1.1-3.7-3c-2.1-8.7-3.2-17.3-3.1-25.8C1802.5,1839.3,1802.5,1760.7,1801.3,1693.4z"/>
<path class="st2" d="M640.6,1581.5c2,2,5.3,2.1,7.3,0.1c52.9-51.6,129.1-60.7,199.3-45.5c75.8,16.5,132.9,70.3,131.9,151.8
	c-1.1,81.4-1.2,169.3-0.4,263.8c0.1,5.5-4.3,10-9.8,10c0,0-0.1,0-0.1,0l-98.3-0.1c-2.2,0-4-1.6-4.2-3.8c-1.5-14.1-2.1-28-2-41.9
	c0.8-74.9,0.9-145.2,0.2-210.8c-0.4-32-11.2-62.2-42.3-72c-24.6-7.8-49.4-8.4-74.5-1.9c-29.3,7.6-44.3,27.8-45,60.6
	c-1.5,72-1.7,142.9-0.7,212.6c0.3,17.8-0.5,35.7-2.2,53.9c-0.2,2.2-1.4,3.3-3.6,3.3l-102.7,0.3c-2.7,0-4.9-1.9-5.3-4.6
	c-1.1-7.8-1.6-15.7-1.5-23.7c0.9-88.5,1-167.1,0.1-235.7c-0.7-55.1-39.8-73.4-89.5-70.8c-47.9,2.5-72.7,23.7-72.8,72.8
	c0,85.7-0.1,170.7-0.2,255.1c0,3.7-2.9,6.6-6.6,6.7l-103.9,0.1c-2.1,0-3.2-1.1-3.2-3.2c0.1-84.2,0-174-0.4-269.3
	c-0.3-74,42-127,112.2-147.8C497.7,1519.6,584.2,1524.3,640.6,1581.5z"/>
<path class="st2" d="M1319.2,1700.5c2.5-44.1-17.1-67.8-58.8-71.2c-59.7-4.8-116.9-2.5-171.6,7.1c-2.3,0.4-3.4-0.5-3.4-2.8v-80.8
	c0-2.3,1.6-4.3,3.9-4.9c80.4-19.6,155.4-23.2,225-10.6c89,16,120.3,78.8,120.1,163c-0.2,78.2,0.1,156.3,0.9,234.5
	c0,6.2-0.8,13.2-2.5,21.1c-0.4,1.9-1.5,3.1-3.4,3.5c-5.7,1.3-11.1,2-16.2,2c-68.1,0.2-135.1,0.3-201,0.4c-29.8,0-58.3-2.9-85.5-8.8
	c-45.9-10-72.3-36.5-79.1-79.5c-5.6-35.4-4.1-67.6,4.6-96.6c31.7-105.8,182.3-94.6,263.1-73.6
	C1317.7,1704,1319,1703.1,1319.2,1700.5z M1319.6,1860.9l0.5-64.3c0.1-5.5-4.4-10-9.9-10.1c0,0,0,0,0,0l-103.5-0.9
	c-27-0.2-49.1,15.8-49.2,35.9c0,0,0,0,0,0l-0.1,11.6c-0.2,20.1,21.6,36.6,48.6,36.8c0,0,0,0,0,0l103.5,0.9
	C1315,1870.9,1319.5,1866.5,1319.6,1860.9C1319.6,1860.9,1319.6,1860.9,1319.6,1860.9z"/>
<path class="st2" d="M2792.9,1809.5c-15.6-75.7-0.2-155.4,53.9-212c72.8-76.2,198.9-88.4,288.9-35.9
	c81.6,47.7,119.2,142,102.9,233.5c-22.2,124.8-123.8,192-246.5,182.8C2894.4,1970.6,2812.8,1905.8,2792.9,1809.5z M3014.8,1881.1
	c64.6-0.3,116.6-57.3,116.2-127.2c0,0,0,0,0,0c-0.4-69.9-53-126.3-117.6-126c-64.6,0.3-116.6,57.3-116.2,127.2c0,0,0,0,0,0
	C2897.6,1825,2950.2,1881.5,3014.8,1881.1z"/>
<path class="st2" d="M2072.2,1942.4c-99.6-69.1-117.4-225-45.4-320.3c31.7-42,75.3-69,130.6-81c116.2-25.1,234.6,31.6,270.4,147.2
	c8.1,26.2,11.4,55.3,9.7,87.3c-3.5,66.4-33.2,127-86.9,165.9C2268.7,2000.7,2152.6,1998.2,2072.2,1942.4z M2211.3,1886.5
	c64.6-0.3,116.7-57.3,116.3-127.2v0c-0.4-69.9-53-126.3-117.6-125.9s-116.7,57.3-116.3,127.2l0,0
	C2094,1830.4,2146.7,1886.8,2211.3,1886.5z"/>
<ellipse transform="matrix(1 -5.236017e-03 5.236017e-03 1 -9.1453 15.8062)" class="st1" cx="3014.1" cy="1754.5" rx="116.9" ry="126.6"/>
<ellipse transform="matrix(1 -5.236017e-03 5.236017e-03 1 -9.1846 11.599)" class="st1" cx="2210.6" cy="1759.9" rx="117" ry="126.6"/>
<path class="st1" d="M1319.6,1860.9c-0.1,5.5-4.6,9.9-10.1,9.9c0,0,0,0,0,0l-103.5-0.9c-27-0.2-48.8-16.7-48.6-36.8c0,0,0,0,0,0
	l0.1-11.6c0.2-20.1,22.2-36.2,49.2-35.9c0,0,0,0,0,0l103.5,0.9c5.5,0.1,9.9,4.6,9.9,10.1c0,0,0,0,0,0L1319.6,1860.9z"/>
</svg>
