<?xml version="1.0" encoding="utf-8"?>
<!-- Generator: Adobe Illustrator 27.7.0, SVG Export Plug-In . SVG Version: 6.00 Build 0)  -->
<svg version="1.1" id="Layer_1" xmlns="http://www.w3.org/2000/svg" xmlns:xlink="http://www.w3.org/1999/xlink" x="0px" y="0px"
	 viewBox="0 0 3500 3500" style="enable-background:new 0 0 3500 3500;" xml:space="preserve">
<style type="text/css">
	.st0{fill:none;stroke:#3B60CE;stroke-width:2;}
	.st1{fill:none;stroke:#5638CC;stroke-width:2;}
	.st2{fill:none;stroke:#2481D1;stroke-width:2;}
	.st3{fill:none;stroke:#119CD2;stroke-width:2;}
	.st4{fill:#484CCC;}
	.st5{fill:#2D74D0;}
	.st6{fill:#6424CB;}
	.st7{fill:#1A8DD1;}
	.st8{fill:#07AAD2;}
</style>
<g>
	<path vector-effect="non-scaling-stroke" class="st0" d="M2378.3,387.8c-4,4.3-3.2,8.9,2.3,13.8c2.2,1.9,1.8,3.1-1,3.5
		c-3,0.5-5,2.2-5.9,5.2c-0.3,1.2-1.1,1.7-2.3,1.7h-2.9c-1.8,0-3.4,0.6-4.7,1.9l-13.5,13.7c-1.3,1.3-2.9,1.9-4.8,1.7
		c-0.9-0.1-1.9-0.1-2.8,0.2c-1.5,0.4-2.7,1.5-3.2,3c-0.8,2.3-2.4,3.7-4.8,4.2c-1.8,0.3-3,1.9-3,3.6c0,1.6-0.8,3.4-2.3,5.6"/>
	<path vector-effect="non-scaling-stroke" class="st1" d="M1177,443.5c1.1-2.9-1-3.2-6.5-1.1c-3.1,1.3-5.3,0.3-6.6-2.8
		c-1.2-2.7-3.2-3.8-6.2-3.2c-2.6,0.5-5.2-0.7-6.4-3.1c-3-5.6-7.4-8.5-13.1-8.8c-1.8-0.1-3.2-0.9-4-2.6c-3.8-7.3-9.7-10-17.8-8.2
		c-2.7,0.6-3.7,2.2-2.9,4.9c0.5,1.7,0,3.4-1.3,5.1c-1.7,2.2-2.4,1.9-2.1-0.9l1.4-13.5"/>
	<path vector-effect="non-scaling-stroke" class="st2" d="M2485.5,1057.3c-1.1-2.7-1.7-5.5-1.9-8.5c-0.1-2-1.2-3-3.1-3.1
		c-3.2-0.2-4.8,1.3-5,4.5c-0.1,2.5-1.4,3.5-3.8,3c-1.7-0.3-2.4-2.3-2.4-5.8c0.1-1.8-0.2-3.6-0.8-5.2c-0.7-1.8-2.1-3.2-4.2-4.3
		c-3.5-1.8-6.8-3.9-9.9-6.4c-1.5-1.2-3.2-2.1-5.1-2.5c-6.9-1.7-13.1-4.9-18.7-9.6c-0.9-0.8-1.7-0.7-2.4,0.2c-1,1.2-1.5,1-1.5-0.5
		c0-1.3-0.3-2.6-1-3.7c-0.7-1.1-1.5-1.4-2.7-0.9l-1.6,0.7"/>
	<path vector-effect="non-scaling-stroke" class="st3" d="M2105.1,1563.1c-0.3-1.4-0.7-2.7-1.2-4c-1.1-3.2-2.2-3.2-3.2,0.1
		c-0.3,1.1-1,1.9-2,2.4c-1.9,1-2.8,0.4-2.5-1.7l1-9.2c0.1-0.9-0.3-1.6-1-2.1c-5.2-3.2-8.9-7.5-11-13.1c-0.5-1.5-1.4-2.7-2.7-3.6
		l-16.6-12.9c-0.8-0.7-2-0.8-2.9-0.2c-1,0.6-2,0.5-2.9-0.3c-0.4-0.3-0.6-0.7-0.7-1.2c-0.5-2-1.5-2.2-2.9-0.7
		c-7.2,7.6-14.5,12.1-21.7,13.3"/>
	<path vector-effect="non-scaling-stroke" class="st0" d="M2196.9,448.2l-1.4,3.4c-0.5,1.2-1.4,1.6-2.7,1l-4.7-2
		c-1.8-0.8-3.9-0.2-5,1.3c-2.8,3.9-6.6,6.5-11.2,7.6c-1.8,0.5-3.5,1.4-4.8,2.7l-17.5,16.8c-1.3,1.2-2.7,2.1-4.4,2.7
		c-4.9,1.5-7.4,5.1-7.6,10.6"/>
	<path vector-effect="non-scaling-stroke" class="st1" d="M1286.9,619.5c-1.3-2.2-6.1-2.3-14.6-0.3c-2.1,0.5-3.8-0.2-5-2
		c-1.3-2-3.2-3-5.6-3.1c-1.6-0.1-3.1-0.5-4.5-1.3c-12.6-7.1-26.9-10.9-42.9-11.4"/>
	<path vector-effect="non-scaling-stroke" class="st2" d="M2323.6,938.3l-21-15.7c-1.4-1-2.9-1.6-4.6-1.7c-2.5-0.1-4.6-1-6.5-2.8
		c-7.6-7-20-9.7-29.7-8.6c-3.9,0.4-4.6-0.9-2.1-3.9c0.3-0.4,0.4-0.8,0.2-1.3c-1.4-3.8-2.3-3.6-2.8,0.4c-0.3,3.4-1.6,6-3.8,7.8"/>
	<path vector-effect="non-scaling-stroke" class="st3" d="M2030.4,1370.3l-0.6-3.7c-0.4-2.3-1.5-2.8-3.5-1.6c-1.8,1.1-3.5,0.9-5-0.5
		c-10.3-9.9-20-19.5-29.1-28.9c-1.5-1.5-3.6-2.2-5.7-1.8c-4.1,0.7-8.1,0.2-12.2-1.4c-0.8-0.3-0.9-0.8-0.5-1.4
		c0.4-0.6,0.6-1.2,0.7-1.8c0.1-1-0.3-1.6-1.3-1.6c-1.1-0.1-2-0.6-2.8-1.4"/>
	<path vector-effect="non-scaling-stroke" class="st0" d="M2133.8,919.3c-3.3,2.5-4.2,0.6-2.8-5.9c0.7-3-0.1-3.5-2.2-1.3l-1.6,1.6
		c-1.7,1.7-3.4,1.8-5.2,0.2c-0.8-0.7-1.5-1.3-2.3-2c-0.8-0.6-1.6-1.1-2.5-1.4c-13.8-5.3-27.9-10.1-42.3-14.4c-2-0.6-3.2-1.9-3.7-4
		l-3.4-13.6"/>
	<path vector-effect="non-scaling-stroke" class="st1" d="M1510.8,614.8c-5.3-13-15.4-25.7-30.5-38.2c-1.7-1.4-3.7-2-5.8-1.7
		c-2.6,0.3-4.5-0.7-5.5-3.1c-0.8-1.8-2.3-2.6-4.3-2.5c-3.6,0.3-7.1-0.3-10.6-1.7"/>
	<path vector-effect="non-scaling-stroke" class="st2" d="M1780.1,1351.9l-2.1-11.6c-0.3-1.9-1.4-3.5-2.9-4.6
		c-10.3-7.3-19.1-16-26.5-26.1c-1.2-1.5-2.7-2.3-4.6-2.4l-22.4-0.9"/>
	<path vector-effect="non-scaling-stroke" class="st3" d="M1491.1,1641l-1.4-1.7c-0.8-1-0.9-2.1-0.4-3.2c0.4-1,1.1-1.6,2.1-2
		c0.5-0.2,0.8-0.7,0.7-1.2c-0.8-8.3-4.6-13.8-11.5-16.6c-4-1.6-7.6-4-11-7.1c-6.6-6.2-12.8-12.3-18.6-18.2c-0.5-0.5-1-0.7-1.7-0.6
		c-0.3,0-0.6,0.2-0.7,0.5c-1.7,2.5-2.3,2.3-1.7-0.7c0.1-0.6,0-1.2-0.3-1.6c-0.9-1.2-1.8-1.1-2.5,0.2c-4,6.7-9,10.1-15,10.3"/>
</g>
<path class="st4" d="M2378.3,387.8c-4,4.3-3.2,8.9,2.3,13.8c2.2,1.9,1.8,3.1-1,3.5c-3,0.5-5,2.2-5.9,5.2c-0.3,1.2-1.1,1.7-2.3,1.7
	h-2.9c-1.8,0-3.4,0.6-4.7,1.9l-13.5,13.7c-1.3,1.3-2.9,1.9-4.8,1.7c-0.9-0.1-1.9-0.1-2.8,0.2c-1.5,0.4-2.7,1.5-3.2,3
	c-0.8,2.3-2.4,3.7-4.8,4.2c-1.8,0.3-3,1.9-3,3.6c0,1.6-0.8,3.4-2.3,5.6c-96.9-141.3-225.5-235.2-385.8-281.8
	c-138.3-40.1-294.2-34.7-430.8,16.1c-138.3,51.5-250.2,139.3-335.7,263.2c1.1-2.9-1-3.2-6.5-1.1c-3.1,1.3-5.3,0.3-6.6-2.8
	c-1.2-2.7-3.2-3.8-6.2-3.2c-2.6,0.5-5.2-0.7-6.4-3.1c-3-5.6-7.4-8.5-13.1-8.8c-1.8-0.1-3.2-0.9-4-2.6c-3.8-7.3-9.7-10-17.8-8.2
	c-2.7,0.6-3.7,2.2-2.9,4.9c0.5,1.7,0,3.4-1.3,5.1c-1.7,2.2-2.4,1.9-2.1-0.9l1.4-13.5c84.4-126.6,195.7-220.4,333.9-281.3
	C1779.5-19.2,2168.7,93.7,2378.3,387.8z"/>
<path class="st4" d="M2196.9,448.2l-1.4,3.4c-0.5,1.2-1.4,1.6-2.7,1l-4.7-2c-1.8-0.8-3.9-0.2-5,1.3c-2.8,3.9-6.6,6.5-11.2,7.6
	c-1.8,0.5-3.5,1.4-4.8,2.7l-17.5,16.8c-1.3,1.2-2.7,2.1-4.4,2.7c-4.9,1.5-7.4,5.1-7.6,10.6c-163.7-186.4-434.8-232.6-648.2-103
	c-90.3,54.8-157.8,131.5-202.5,230.1c-1.3-2.2-6.1-2.3-14.6-0.3c-2.1,0.5-3.8-0.2-5-2c-1.3-2-3.2-3-5.6-3.1
	c-1.6-0.1-3.1-0.5-4.5-1.3c-12.6-7.1-26.9-10.9-42.9-11.4c59.7-137,154.4-237.3,284.3-300.8C1738.7,183.3,2024,247,2196.9,448.2z"/>
<path class="st5" d="M2378.3,387.8c138.3,195.3,176.2,440.5,107.1,669.5c-1.1-2.7-1.7-5.5-1.9-8.5c-0.1-2-1.2-3-3.1-3.1
	c-3.2-0.2-4.8,1.3-5,4.5c-0.1,2.5-1.4,3.5-3.8,3c-1.7-0.3-2.4-2.3-2.4-5.8c0.1-1.8-0.2-3.6-0.8-5.2c-0.7-1.8-2.1-3.2-4.2-4.3
	c-3.5-1.8-6.8-3.9-9.9-6.4c-1.5-1.2-3.2-2.1-5.1-2.5c-6.9-1.7-13.1-4.9-18.7-9.6c-0.9-0.8-1.7-0.7-2.4,0.2c-1,1.2-1.5,1-1.5-0.5
	c0-1.3-0.3-2.6-1-3.7c-0.7-1.1-1.5-1.4-2.7-0.9l-1.6,0.7c51.5-204.2,20.8-393.9-92.1-569.1c1.5-2.2,2.3-4,2.3-5.6
	c0-1.8,1.2-3.3,3-3.6c2.4-0.4,4-1.8,4.8-4.2c0.5-1.5,1.7-2.6,3.2-3c1-0.2,1.9-0.3,2.8-0.2c1.9,0.2,3.5-0.4,4.8-1.7l13.5-13.7
	c1.3-1.3,2.9-1.9,4.7-1.9h2.9c1.2,0,2-0.6,2.3-1.7c0.9-3,2.9-4.7,5.9-5.2c2.8-0.5,3.2-1.6,1-3.5
	C2375.2,396.7,2374.4,392.1,2378.3,387.8z"/>
<path class="st6" d="M1111.5,409.3l-1.4,13.5c-0.3,2.8,0.4,3.1,2.1,0.9c1.3-1.7,1.8-3.4,1.3-5.1c-0.7-2.7,0.2-4.3,2.9-4.9
	c8.1-1.8,14,1,17.8,8.2c0.9,1.7,2.2,2.5,4,2.6c5.7,0.3,10.1,3.2,13.1,8.8c1.2,2.3,3.8,3.5,6.4,3.1c2.9-0.6,5,0.5,6.2,3.2
	c1.3,3.1,3.5,4,6.6,2.8c5.4-2.2,7.6-1.8,6.5,1.1c-62.6,93.8-100.1,192.1-112.4,295c-31.4,262.9,73.7,525.9,295.9,675.2
	c18.5,12.4,29.5,30,18.7,51.1c-7.8,15.6-20.9,22.4-39.1,20.5c-6.1-0.7-15.4-5.5-28-14.4c-158.4-112.8-260.1-264.2-305-454.2
	C957.3,806.4,993.3,589.7,1111.5,409.3z"/>
<path class="st4" d="M2133.8,919.3c-3.3,2.5-4.2,0.6-2.8-5.9c0.7-3-0.1-3.5-2.2-1.3l-1.6,1.6c-1.7,1.7-3.4,1.8-5.2,0.2
	c-0.8-0.7-1.5-1.3-2.3-2c-0.8-0.6-1.6-1.1-2.5-1.4c-13.8-5.3-27.9-10.1-42.3-14.4c-2-0.6-3.2-1.9-3.7-4l-3.4-13.6
	c15.1-105-11.3-195-79.3-269.9c-73.2-80.7-182.6-117.2-289.6-99.3c-74.4,12.5-137.1,47.6-188.1,105.4c-5.3-13-15.4-25.7-30.5-38.2
	c-1.7-1.4-3.7-2-5.8-1.7c-2.6,0.3-4.5-0.7-5.5-3.1c-0.8-1.8-2.3-2.6-4.3-2.5c-3.6,0.3-7.1-0.3-10.6-1.7
	c75.2-85.3,167.8-130.8,277.7-136.5C1993.9,417.5,2198.1,662.2,2133.8,919.3z"/>
<path class="st5" d="M2196.9,448.2c116.1,142,158.4,305.3,126.7,490.1l-21-15.7c-1.4-1-2.9-1.6-4.6-1.7c-2.5-0.1-4.6-1-6.5-2.8
	c-7.6-7-20-9.7-29.7-8.6c-3.9,0.4-4.6-0.9-2.1-3.9c0.3-0.4,0.4-0.8,0.2-1.3c-1.4-3.8-2.3-3.6-2.8,0.4c-0.3,3.4-1.6,6-3.8,7.8
	c24-158.7-14.6-298.8-115.8-420.3c0.2-5.5,2.7-9,7.6-10.6c1.7-0.5,3.2-1.4,4.4-2.7l17.5-16.8c1.4-1.3,3-2.2,4.8-2.7
	c4.7-1.2,8.4-3.7,11.2-7.6c1.1-1.5,3.2-2.1,5-1.3l4.7,2c1.2,0.5,2.1,0.2,2.7-1L2196.9,448.2z"/>
<path class="st6" d="M1454.1,567.7c3.5,1.4,7,1.9,10.6,1.7c2-0.2,3.4,0.7,4.3,2.5c1.1,2.3,2.9,3.3,5.5,3.1c2.2-0.2,4.1,0.3,5.8,1.7
	c15.1,12.5,25.2,25.2,30.5,38.2c-153.6,182.2-69.9,449.7,155.2,517.3c24,7.2,34.1,32.5,21.7,54.2c-11.8,20.7-33.4,20.6-54,13.5
	c-160.8-55.1-266.5-191.7-274.6-361.8C1354.4,738.5,1386,648.4,1454.1,567.7z"/>
<path class="st6" d="M1214.3,601.5c16,0.5,30.2,4.2,42.9,11.4c1.4,0.8,2.9,1.2,4.5,1.3c2.4,0.1,4.2,1.1,5.6,3.1c1.2,1.8,2.9,2.5,5,2
	c8.5-2,13.3-1.8,14.6,0.3c-27.9,64.3-42.1,130.9-42.7,199.8c-1.6,195.5,96.9,353.9,257,463c30.7,20.9,20.4,66.6-16.7,68.9
	c-9.2,0.6-20.2-3.7-33-12.8c-129.8-92.3-224.6-212.6-262.5-366.4C1157.8,845.1,1166.2,721.6,1214.3,601.5z"/>
<path class="st5" d="M2067.7,878.5l3.4,13.6c0.5,2,1.7,3.4,3.7,4c14.4,4.3,28.5,9.1,42.3,14.4c0.9,0.3,1.8,0.8,2.5,1.4
	c0.8,0.7,1.5,1.3,2.3,2c1.8,1.5,3.5,1.5,5.2-0.2l1.6-1.6c2.2-2.2,2.9-1.8,2.2,1.3c-1.4,6.5-0.5,8.4,2.8,5.9
	c-21.7,85.2-71.6,150.1-132.4,211.2c-73.3,73.7-147.1,147.5-221.3,221.4l-2.1-11.6c-0.3-1.9-1.4-3.5-2.9-4.6
	c-10.3-7.3-19.1-16-26.5-26.1c-1.2-1.5-2.7-2.3-4.6-2.4l-22.4-0.9c83.9-83.8,167.7-167.7,251.4-251.5c9.9-9.9,23.2-26.4,40-49.6
	C2040.7,967.2,2058.9,924.9,2067.7,878.5z"/>
<path class="st7" d="M2323.6,938.3c-18.8,101.1-59.8,186.9-123,257.4c-26.4,29.3-83.1,87.5-170.1,174.6l-0.6-3.7
	c-0.4-2.3-1.5-2.8-3.5-1.6c-1.8,1.1-3.5,0.9-5-0.5c-10.3-9.9-20-19.5-29.1-28.9c-1.5-1.5-3.6-2.2-5.7-1.8c-4.1,0.7-8.1,0.2-12.2-1.4
	c-0.8-0.3-0.9-0.8-0.5-1.4c0.4-0.6,0.6-1.2,0.7-1.8c0.1-1-0.3-1.6-1.3-1.6c-1.1-0.1-2-0.6-2.8-1.4
	c86.7-86.7,143.2-144.4,169.7-173.1c60.2-65.3,97.9-145.4,113.1-240.1c2.2-1.8,3.5-4.5,3.8-7.8c0.5-4,1.4-4.2,2.8-0.4
	c0.2,0.5,0.1,0.9-0.2,1.3c-2.5,3-1.7,4.3,2.1,3.9c9.7-1,22.2,1.6,29.7,8.6c1.8,1.7,4,2.7,6.5,2.8c1.7,0.1,3.2,0.7,4.6,1.7
	L2323.6,938.3z"/>
<path class="st7" d="M2485.5,1057.3c-29.3,93.6-74.2,178.1-134.7,253.7c-16.2,20.3-42.3,48.4-78.2,84.6
	c-55.7,55.9-111.6,111.8-167.5,167.5c-0.3-1.4-0.7-2.7-1.2-4c-1.1-3.2-2.2-3.2-3.2,0.1c-0.3,1.1-1,1.9-2,2.4c-1.9,1-2.8,0.4-2.5-1.7
	l1-9.2c0.1-0.9-0.3-1.6-1-2.1c-5.2-3.2-8.9-7.5-11-13.1c-0.5-1.5-1.4-2.7-2.7-3.6l-16.6-12.9c-0.8-0.7-2-0.8-2.9-0.2
	c-1,0.6-2,0.5-2.9-0.3c-0.4-0.3-0.6-0.7-0.7-1.2c-0.5-2-1.5-2.2-2.9-0.7c-7.2,7.6-14.5,12.1-21.7,13.3
	c72.3-72.5,144.5-144.7,216.5-216.7c79.9-79.8,136.6-179.1,170.2-297.9l1.6-0.7c1.1-0.5,2-0.2,2.7,0.9c0.7,1.2,1,2.4,1,3.7
	c0,1.5,0.5,1.7,1.5,0.5c0.7-0.9,1.5-0.9,2.4-0.2c5.5,4.8,11.8,8,18.7,9.6c1.9,0.5,3.6,1.3,5.1,2.5c3.1,2.5,6.4,4.6,9.9,6.4
	c2.2,1.1,3.6,2.5,4.2,4.3c0.6,1.7,0.9,3.4,0.8,5.2c-0.1,3.5,0.7,5.5,2.4,5.8c2.4,0.5,3.7-0.5,3.8-3c0.1-3.2,1.8-4.7,5-4.5
	c2,0.1,3,1.2,3.1,3.1C2483.8,1051.8,2484.4,1054.6,2485.5,1057.3z"/>
<path class="st7" d="M1721.7,1306.3l22.4,0.9c1.9,0.1,3.4,0.9,4.6,2.4c7.4,10.1,16.2,18.8,26.5,26.1c1.5,1.1,2.5,2.8,2.9,4.6
	l2.1,11.6l-289,289.1l-1.4-1.7c-0.8-1-0.9-2.1-0.4-3.2c0.4-1,1.1-1.6,2.1-2c0.5-0.2,0.8-0.7,0.7-1.2c-0.8-8.3-4.6-13.8-11.5-16.6
	c-4-1.6-7.6-4-11-7.1c-6.6-6.2-12.8-12.3-18.6-18.2c-0.5-0.5-1-0.7-1.7-0.6c-0.3,0-0.6,0.2-0.7,0.5c-1.7,2.5-2.3,2.3-1.7-0.7
	c0.1-0.6,0-1.2-0.3-1.6c-0.9-1.2-1.8-1.1-2.5,0.2c-4,6.7-9,10.1-15,10.3L1721.7,1306.3z"/>
<path class="st8" d="M1970.5,1325.9c0.8,0.9,1.7,1.4,2.8,1.4c1,0,1.4,0.6,1.3,1.6c-0.1,0.7-0.3,1.3-0.7,1.8
	c-0.5,0.7-0.3,1.1,0.5,1.4c4.1,1.7,8.1,2.2,12.2,1.4c2.1-0.4,4.2,0.3,5.7,1.8c9,9.3,18.7,19,29.1,28.9c1.5,1.5,3.2,1.6,5,0.5
	c1.9-1.3,3.1-0.7,3.5,1.6l0.6,3.7c-153.9,155.7-308.3,310.9-463.2,465.6c-13,13-22.1,20.4-27.5,22.2c-28.5,9.6-57.5-18.4-46-46.8
	c2.5-6.3,8.4-14,17.5-23.1C1664.6,1634.4,1817.7,1480.3,1970.5,1325.9z"/>
<path class="st8" d="M2105.1,1563.1c-182.9,183.1-365.9,366.1-549,549c-11.1,11.1-20.1,17.4-26.8,18.9
	c-26.6,5.9-51.8-19.1-43.5-45.7c2-6.4,7.5-14.1,16.5-23.2c177.5-177.9,355-355.4,532.5-532.5c7.2-1.2,14.5-5.7,21.7-13.3
	c1.4-1.5,2.4-1.2,2.9,0.7c0.1,0.5,0.4,0.9,0.7,1.2c1,0.8,1.9,0.9,2.9,0.3c0.9-0.5,2.1-0.4,2.9,0.2l16.6,12.9
	c1.2,0.9,2.1,2.1,2.7,3.6c2.1,5.6,5.7,10,11,13.1c0.8,0.5,1.1,1.2,1,2.1l-1,9.2c-0.2,2.2,0.6,2.7,2.5,1.7c1-0.5,1.7-1.3,2-2.4
	c1-3.2,2.1-3.2,3.2-0.1C2104.3,1560.3,2104.7,1561.7,2105.1,1563.1z"/>
<path class="st8" d="M1491.1,1641c-89.8,89.9-179.7,179.8-269.6,269.7c-11.9,11.9-20.8,18.7-26.8,20.4c-27.8,8.1-54-16.8-45.6-45.1
	c1.9-6.5,7.6-14.4,16.9-23.8c87.7-87.9,175.4-175.6,263.1-263.3c6-0.2,11-3.6,15-10.3c0.8-1.3,1.6-1.3,2.5-0.2
	c0.3,0.5,0.5,1,0.3,1.6c-0.5,3,0,3.2,1.7,0.7c0.2-0.3,0.4-0.4,0.7-0.5c0.7-0.1,1.2,0.1,1.7,0.6c5.8,5.9,12,12,18.6,18.2
	c3.3,3.1,7,5.5,11,7.1c6.9,2.8,10.8,8.3,11.5,16.6c0,0.5-0.3,1-0.7,1.2c-1,0.4-1.7,1.1-2.1,2c-0.5,1.1-0.4,2.2,0.4,3.2L1491.1,1641z
	"/>
<path class="st8" d="M2202.9,1966.5l-38.8-39c-0.8-0.8-0.8-2.1,0-2.9c0,0,0,0,0,0l117.7-117.8c0.8-0.8,2.1-0.8,2.9,0c0,0,0,0,0,0
	l80.7,80.6c0.8,0.8,0.8,2.1,0,2.9c0,0,0,0,0,0l-37.7,37.5c-0.8,0.8-2.1,0.8-2.9,0c0,0,0,0,0,0l-38.9-39c-0.8-0.8-2.1-0.8-2.9,0
	c0,0,0,0,0,0l-77.3,77.7C2205,1967.3,2203.7,1967.3,2202.9,1966.5C2202.9,1966.5,2202.9,1966.5,2202.9,1966.5z"/>
<path class="st8" d="M2102.1,2228.3c11.6-12.4,24.2-25.1,38-38.1c11.6-10.9,26.1-25.1,10.8-41.2c-17.6-18.5-35.2-36.2-52.8-53
	c-0.7-0.6-0.7-1.6-0.1-2.3c0,0,0,0,0,0l38.7-39c0.6-0.6,1.5-0.6,2.1-0.1c0,0,0,0,0.1,0.1c13.5,14.2,27.7,28.4,42.4,42.5
	c18.4,17.6,34.9,16.9,53.2-1.4c84.9-85.5,169.3-170,253.1-253.5c0.7-0.7,1.3-0.7,2,0l38.3,38.7c0.6,0.5,0.6,1.1,0,1.7
	c-87.4,87.8-173.5,173.8-258.2,258c-12.4,12.4-29.4,19.5-50.8,21.4c-2.1,0.2-3.1,1.3-3.1,3.5c0,19.5-8.6,37.9-25.8,55
	c-19.8,19.8-39,39.1-57.8,58c-2.1,2.1-4.1,2.1-6.2-0.1l-16.1-17.2c-2.1-2.2-3.1-1.8-3.2,1.2c-0.5,28.5-8.3,49.9-28.6,70.1
	c-84.9,85.1-166.1,166.2-243.4,243.2c-33.9,33.8-71.8,39.8-113.7,18c-9.3-4.9-20.9-14.8-34.7-29.7c-26.9-29.2-39.5-63.1-24.7-101
	c5.7-14.5,17.7-30.4,35.9-47.8c24-22.8,46.6-45.3,67.7-67.7c1.2-1.3,3.3-1.3,4.6-0.1c0,0,0,0,0,0l104.3,104.3c1,1.1,2.8,1.1,3.8,0
	c0,0,0,0,0,0l166.4-166.4c10.4-10.3,10.4-27.1,0-37.5l-29.7-29.9c-10.3-10.3-27-10.4-37.3-0.1c0,0,0,0-0.1,0.1l-140.4,140.3
	c-1.5,1.5-3,1.6-4.6,0.2c-31.6-27.1-46.5-59.7-45-97.8c1.2-29.6,11.5-54.3,30.8-74.2c15.5-16,31-31.5,46.5-46.8
	c0.7-0.7,1.8-0.7,2.4,0c0,0,0,0,0,0l36.6,36.5c0.7,0.7,0.7,1.4,0,2.1c-14.5,13.7-28.6,27.9-42.5,42.5c-11.5,12.1-17.3,27-17.6,44.8
	c0,2.7,0.9,3.1,2.8,1.3c21.7-20.6,42.2-41.2,61.5-61.8c22.1-23.5,40.2-37.9,54.5-43.2c33.6-12.3,64.6-6.8,92.9,16.7
	c19.1,15.8,32.9,32.1,41.5,48.9C2098.2,2230.3,2100,2230.6,2102.1,2228.3z M1834.7,2493.1l-65.7-65.7c-1.2-1.2-3.1-1.2-4.2,0
	c0,0,0,0,0,0l-47.1,47.2c-11,11-11,28.8,0,39.8c0,0,0,0,0,0l30.1,30.1c11,11,28.9,11,39.8,0c0,0,0,0,0,0l47.2-47.1
	C1835.9,2496.2,1835.9,2494.3,1834.7,2493.1C1834.8,2493.1,1834.7,2493.1,1834.7,2493.1z"/>
<path class="st8" d="M1058.9,2236.3l328.5-323.9c14.3-14.1,37.3-13.9,51.4,0.4l0.6,0.7c14.1,14.3,13.9,37.3-0.4,51.4l-328.5,323.9
	c-14.3,14.1-37.3,13.9-51.4-0.4l-0.6-0.7C1044.5,2273.4,1044.6,2250.4,1058.9,2236.3z"/>
<circle class="st8" cx="1037" cy="2043.3" r="37.6"/>
<path class="st8" d="M2239,2217.3l39.1,38.8c0.8,0.8,0.8,2.1,0,2.9l-37.4,37.6c-0.8,0.8-2.1,0.8-2.9,0l-39.1-38.8
	c-0.8-0.8-0.8-2.1,0-2.9l37.4-37.6C2237,2216.5,2238.2,2216.5,2239,2217.3z"/>
<path class="st8" d="M2444.3,2443.1c-1.4-14.9,3.2-29.8,17.9-35.9c1.8-0.7,3.3-0.2,4.3,1.4c4.4,7.6,3.2,13.3-3.5,17.1
	c-2.7,1.5-4.4,3.8-5.2,6.7c-3.8,14.4-0.1,27.9,11.2,40.5c16,17.9,32.5,34.6,49.4,50.3c0.7,0.7,0.8,1.9,0.1,2.7l-9.1,9.2
	c-0.9,1-1.9,1-2.8,0l-80.8-80.8c-3.1-3.2-3.1-8.2,0.1-11.3c0.5-0.5,1-0.8,1.5-1.2c5.4-3.2,9.5-2.3,12.3,2.7
	C2443.5,2451.4,2445,2450.9,2444.3,2443.1z"/>
<circle class="st8" cx="2359.8" cy="2458.1" r="13.1"/>
<path class="st8" d="M2382.6,2488.2l7.6-7.6c1.1-1.1,2.8-1.1,3.8,0l83.3,83.3c1.1,1.1,1.1,2.8,0,3.8l-7.6,7.6
	c-1.1,1.1-2.8,1.1-3.8,0l-83.3-83.3C2381.5,2491,2381.5,2489.3,2382.6,2488.2z"/>
<path class="st8" d="M2320.1,2671.7l-32.7-86.9c-0.3-0.7-0.1-1.5,0.5-2l9.2-9.2c0.8-0.7,2-0.7,2.7,0c0.2,0.2,0.3,0.4,0.4,0.7
	l45.7,123.3c0.3,1-0.2,2.1-1.2,2.4c-0.4,0.1-0.8,0.1-1.2,0l-123.3-45.4c-1-0.4-1.5-1.5-1.1-2.4c0.1-0.2,0.2-0.5,0.4-0.7l9.1-9.3
	c0.5-0.5,1.3-0.7,2-0.5l87.1,32.5c1,0.4,2.1-0.1,2.5-1C2320.3,2672.7,2320.3,2672.1,2320.1,2671.7z"/>
<path class="st8" d="M1676.6,2733.4c-18.5,18.7-40.9,46.6-64.2,56.8c-36.2,15.9-69.6,10.5-100.4-16.1
	c-19.8-17.1-40.3-38.7-46.4-65.1c-7.9-34.4,3.3-66.5,28.8-90.1c10.2-9.5,19.2-20.8,30.9-28.2c44.2-28.1,89.6-15.4,124,20.9
	c17.2,18.1,34.6,35.6,52.4,52.3c17.5,16.6,29.7,31.6,36.4,45.2c20.1,40.4,8.1,83.8-24.6,114.8c-12.1,11.5-23.5,22.9-34.2,34.4
	c-1,1-1.9,1-2.9,0.1l-38.2-38.5c-0.7-0.7-0.7-1.7,0-2.4l42.4-42.3c7.4-7.4,10.5-16.3,9.4-26.6c-0.7-6.3-1.1-9.8-1.2-10.6
	C1687.8,2727.8,1683.7,2726.2,1676.6,2733.4z M1557,2636.1c-9.1,8.6-19.8,19.2-32.2,31.8c-24.8,25.2,13.4,52.2,29.4,68.4
	c11.8,11.9,28.5,12.5,40.6,0.5c16.1-16.1,32.1-31.9,48-47.6c0.9-0.9,0.9-2.4,0-3.4c0,0,0,0,0,0c-14.9-14.9-30.5-30.6-46.8-47.3
	C1585.2,2627.5,1568.6,2625.1,1557,2636.1z"/>
<circle class="st8" cx="2418.3" cy="2611.1" r="14"/>
<path class="st8" d="M2176.5,2712.8l-9.6,11.2c-1.1,1.3-3,1.5-4.3,0.4l-6.4-5.2c-1.3-1.1-1.6-3-0.5-4.4c0.1-0.1,0.2-0.2,0.3-0.3
	l11.6-11.1c1.2-1.2,1.2-3.2,0-4.4c0,0,0,0,0,0l-28.1-27.7c-1.2-1.2-1.2-3-0.1-4.3l6.6-7.6c1.1-1.3,3.1-1.4,4.4-0.3
	c0.1,0,0.1,0.1,0.2,0.2l28.1,28.4c1.2,1.2,3.2,1.2,4.4,0c0,0,0,0,0,0l13.1-13.7c1.2-1.2,3.2-1.3,4.4-0.1c0,0,0,0,0,0l5.6,5.8
	c1.2,1.2,1.2,3.2,0,4.4c0,0,0,0,0,0l-13.5,12.8c-1.2,1.2-1.3,3.2-0.1,4.4c0,0,0,0,0,0l73.2,73.1c1.2,1.2,1.2,3.2,0,4.4
	c0,0-0.1,0.1-0.1,0.1l-7.4,6.8c-1.2,1.1-3.1,1.1-4.3-0.1l-73-73.2c-1.2-1.2-3.2-1.2-4.4,0.1
	C2176.6,2712.7,2176.6,2712.8,2176.5,2712.8z"/>
<path class="st8" d="M1511,2944.5c20.7-14.1,18.9-42.5,2.8-58.6c-26.7-26.7-54.8-54.7-84.3-84.2c-1-1-1-2.1,0-3.1l36.8-36.8
	c1.2-1.2,2.5-1.2,3.7,0c29.6,29.2,58.3,57.9,86.1,86.2c38.7,39.2,35.1,99.5-4.3,137.6c-2.5,2.5-5,2.4-7.4-0.1l-34-34.3
	C1507.8,2948.8,1508.1,2946.5,1511,2944.5z"/>
<path class="st8" d="M2075.9,2819.6c-2.6-33,23.2-65.7,57.3-55.8c10.8,3.2,22.2,11,34.4,23.6c13.6,14,27.5,27.9,41.7,41.7
	c1.8,1.8,1.8,4.8,0,6.6c0,0-0.1,0.1-0.1,0.1l-5.6,5.2c-1.8,1.7-3.7,1.7-5.4-0.1c-13.8-14-28.6-28.8-44.3-44.4
	c-9.7-9.6-21.7-20.8-36.5-18.3c-11.4,2-19.7,8.2-24.8,18.9c-8.9,18.6-6,36,8.7,52.1c13.7,14.9,28,29.6,43,44
	c2.5,2.4,2.6,4.9,0.1,7.3l-3.9,3.7c-2.5,2.5-5.1,2.5-7.7,0l-113.8-113.6c-2-2-2.1-4.1-0.1-6.2l5-5.2c2-2.1,4-2.1,6.1-0.1l42,42.1
	C2074.9,2824.1,2076.2,2823.6,2075.9,2819.6z"/>
<path class="st8" d="M1278.4,2810.1l35.5-35.5c1.3-1.3,3.5-1.3,4.8,0l37.1,37.1c1.3,1.3,1.3,3.5,0,4.8l-35.5,35.5
	c-1.3,1.3-3.5,1.3-4.8,0l-37.1-37.1C1277.1,2813.6,1277.1,2811.4,1278.4,2810.1z"/>
<path class="st8" d="M1470.9,2926.5c42.9,42.8,39.1,102.7-4,143.9c-0.5,0.5-1.4,0.5-1.9,0l-38.9-38.8c-0.7-0.7-0.6-1.9,0.1-2.5
	c0,0,0.1,0,0.1-0.1c26.8-21.7,21.1-46.2-0.3-67.1c-30.4-29.7-56.6-55.9-78.6-78.6c-0.8-0.9-0.8-1.7,0-2.6l37-36.9
	c1-1.1,2.8-1.1,3.8,0c0,0,0,0,0,0C1415.4,2871,1443,2898.6,1470.9,2926.5z"/>
<path class="st8" d="M1070.8,3015.5l-38.9-39.3c-0.7-0.7-0.7-1.9,0-2.7l117.9-118c0.7-0.7,1.9-0.7,2.7,0l80.8,80.9
	c0.7,0.8,0.7,1.9-0.1,2.7l-38,37.6c-0.7,0.7-1.9,0.7-2.7,0l-38.6-39.1c-0.7-0.7-1.9-0.7-2.7,0l-77.8,77.9
	C1072.7,3016.2,1071.5,3016.2,1070.8,3015.5z"/>
<path class="st8" d="M2026.9,2875c-40.9,3.1-34.5,48-3.3,38c17.9-5.8,43.8-14.9,58.9,1c28.3,29.8,0.6,66.3-35.2,65.8
	c-2,0-3.2-1-3.3-3.1l-0.7-8.3c-0.2-1.8,1.1-3.3,2.9-3.5c0.1,0,0.3,0,0.4,0c39.8,1.6,42.1-51.8,6.8-43.9
	c-14.8,3.3-31.1,11.1-46.1,7.1c-22.5-5.9-32.2-32.7-16.9-51.5c8.5-10.4,20.4-15.6,35.7-15.5c2.4,0,3.6,1.2,3.7,3.6l0.3,6.6
	C2030.1,2873.6,2029,2874.8,2026.9,2875z"/>
<path class="st8" d="M1285.6,3074.6c24-20.2,42.4-45.1,16.2-72c-11.5-11.8-23.8-24-36.7-36.6c-1-0.9-1-1.9-0.1-2.9l38.2-38.1
	c0.7-0.7,1.4-0.7,2.1,0.1c17.2,18.6,40,36.2,52.7,57.8c15.6,26.4,17.5,55.1,5.7,86.3c-4.2,11-18.2,28.2-42.2,51.7
	c-25.8,25.2-50.6,49.9-74.6,74.3c-1.4,1.5-1.7,3.1-0.9,5c18.6,40.9,9.9,82.2-21.6,113.1c-35.7,35.2-71,70.4-105.8,105.7
	c-1.8,1.8-4.8,1.8-6.6,0c0,0,0,0,0,0l-128.1-128c-1.3-1.3-1.3-2.5,0-3.8l36.5-36.5c1.2-1.2,3.1-1.2,4.2,0c0,0,0,0,0,0l87.7,88
	c1.3,1.3,3.5,1.4,4.8,0c0,0,0,0,0,0c20.4-20.9,42.5-43,66.3-66.1c18.5-17.9,21.1-40.8,2-59.7c-31.1-30.8-59-58.7-83.9-83.7
	c-0.8-0.8-0.8-1.6,0-2.5l38.2-38.3c0.6-0.6,1.1-0.6,1.7,0l62.7,62.8c1.5,1.5,3.1,1.6,4.7,0.2c11.4-10,18.1-17.1,20.1-21.6
	c7.6-17,5.6-31.9-6.3-44.7c-6.3-6.8-19.2-19.5-38.6-38.2c-0.9-0.8-0.9-1.7-0.1-2.5l37.9-38.1c0.7-0.7,1.8-0.7,2.5,0
	c20.2,20.1,46.1,41,57.8,67.4C1282.9,3075.6,1284.1,3075.8,1285.6,3074.6z"/>
<path class="st8" d="M1913.7,3051.3c30.1,22.8,66.5,12.1,77.6-24c2.9-9.5,1-19.5-0.2-29.2c-0.3-2.4,0.8-3.8,3.2-4l8.1-1
	c2-0.2,3.2,0.6,3.7,2.5c4.7,18.3,3,34.4-4.9,48.4c-11.5,20.3-33.6,36.2-57.8,34.9c-52.7-2.9-86.9-65.9-47.9-107.8
	c25.5-27.4,62.9-27.8,90.7-3.5c2.1,1.8,2.1,3.7,0.2,5.6l-72.9,72.8C1911.5,3047.9,1911.6,3049.7,1913.7,3051.3z M1903.9,3036.2
	l61.5-61.9c0.2-0.2,0.2-0.6,0-0.9l-0.3-0.4c-13.7-13.6-38.6-10.9-55.5,6.2c0,0,0,0,0,0l-1.2,1.2c-16.9,17-19.5,41.9-5.8,55.5
	l0.4,0.3C1903.3,3036.4,1903.7,3036.4,1903.9,3036.2z"/>
<path class="st8" d="M1912.3,3114l8.4,7c0.8,0.6,0.9,1.8,0.2,2.5c0,0-0.1,0.1-0.1,0.1l-63.9,64.1c-0.7,0.7-1.8,0.7-2.5,0
	c-0.2-0.2-0.4-0.5-0.5-0.9l-26.3-120.1c-0.2-1-1.2-1.6-2.1-1.3c-0.3,0.1-0.6,0.2-0.9,0.5l-40.8,41.2c-0.7,0.7-1.8,0.7-2.5,0.1
	l-7.7-7.4c-0.7-0.7-0.7-1.8-0.1-2.5c0,0,0,0,0,0l60.6-60.6c0.7-0.7,1.8-0.7,2.5,0c0.2,0.2,0.4,0.5,0.5,0.9l26.2,120
	c0.2,1,1.2,1.6,2.1,1.3c0.3-0.1,0.6-0.2,0.9-0.5l43.6-44.3C1910.5,3113.4,1911.6,3113.4,1912.3,3114z"/>
<path class="st8" d="M1738.6,3150.3c-2.1-14.6,2.9-30.7,17.2-37c2-0.9,4.2,0,5.1,2c0.1,0.1,0.1,0.3,0.2,0.4l2.2,6.7
	c0.7,2.2,0.1,3.9-1.7,5.2c-23.3,16.7-5.9,43.8,9.2,59.2c14.1,14.5,27.8,28.3,41,41.5c1.4,1.4,1.4,3.6,0.1,4.9c0,0,0,0-0.1,0.1
	l-5.5,5.3c-2.5,2.4-5,2.4-7.4-0.1l-81.1-81.2c-1.1-1.1-1.1-2.3-0.2-3.5l6.9-8.8c0.8-1,2.2-1.2,3.1-0.4c0.1,0,0.1,0.1,0.2,0.1
	l7.7,7.2C1738.1,3154.5,1739.1,3153.9,1738.6,3150.3z"/>
<path class="st8" d="M1745.3,3273.9c3.8,73.4-96.7,90.6-122.3,24.3c-16-41.6,12.6-86.6,58.1-85.2c6.9,0.2,7.5-1.7,1.9-5.7
	c-2.8-2-5.3-4.4-7.4-7c-1.6-2-1.5-3.9,0.5-5.6l6.2-5.5c1.7-1.5,3.3-1.5,4.8,0.1l81.7,81.5c1.7,1.7,1.7,3.3,0.2,5.1l-5.2,5.8
	c-2.3,2.6-4.6,2.6-7,0l-8-9.1C1746.3,3269.8,1745.1,3270.2,1745.3,3273.9z M1732.6,3275c0-27.1-22-49.1-49.1-49.1c0,0,0,0,0,0
	c-27.1,0-49.1,22-49.1,49.1c0,27.1,22,49.1,49.1,49.1C1710.6,3324.1,1732.6,3302.1,1732.6,3275z"/>
<path class="st8" d="M1591.2,3400.5l-32.6-86.9c-0.3-0.7-0.1-1.5,0.5-2l9.1-9.2c0.7-0.7,1.9-0.7,2.7,0c0.2,0.2,0.3,0.4,0.4,0.6
	l45.8,123.4c0.3,1-0.2,2.1-1.2,2.4c-0.4,0.1-0.8,0.1-1.2,0l-123.3-45.6c-1-0.3-1.5-1.4-1.2-2.4c0.1-0.3,0.2-0.5,0.4-0.7l8.9-9.2
	c0.5-0.5,1.3-0.7,2-0.4l87.2,32.5c1,0.4,2.1-0.1,2.5-1C1591.4,3401.5,1591.4,3401,1591.2,3400.5z"/>
</svg>
