<?xml version="1.0" encoding="utf-8"?>
<!-- Generator: Adobe Illustrator 27.7.0, SVG Export Plug-In . SVG Version: 6.00 Build 0)  -->
<svg version="1.1" id="Layer_1" xmlns="http://www.w3.org/2000/svg" xmlns:xlink="http://www.w3.org/1999/xlink" x="0px" y="0px"
	 viewBox="0 0 3500 3500" style="enable-background:new 0 0 3500 3500;" xml:space="preserve">
<style type="text/css">
	.st0{fill:#FFFFFF;}
	.st1{fill:#A81AC1;}
	.st2{fill:#E8E8E8;}
	.st3{fill:#9E9D9E;}
	.st4{fill:#D9D1DB;}
	.st5{fill:#A3A3A3;}
	.st6{fill:#E0E0E0;}
	.st7{fill:#A8ACB2;}
	.st8{fill:#EAEAEA;}
	.st9{fill:#BDC3C9;}
	.st10{fill:#C6C4C6;}
	.st11{fill:#E5E5E5;}
	.st12{fill:#A5A5A5;}
	.st13{fill:#BACECD;}
	.st14{fill:#D9D7DB;}
	.st15{fill:#DBD5E0;}
	.st16{fill:#9AA1A8;}
	.st17{fill:#A1A7AF;}
	.st18{fill:#AFAFAF;}
	.st19{fill:#959AA0;}
	.st20{fill:#D8D8D8;}
	.st21{fill:#ADACAD;}
	.st22{fill:#E8DFEA;}
	.st23{fill:#B2B2B2;}
	.st24{fill:#939393;}
	.st25{fill:#A7A7A8;}
	.st26{fill:#C1C1C1;}
	.st27{fill:#7F7F7F;}
	.st28{fill:#DDDDDD;}
	.st29{fill:url(#SVGID_1_);}
	.st30{fill:#F4F4F4;}
	.st31{fill:#E6E7E8;}
</style>
<g>
	<g id="Objects">
		<g>
			<g>
				<path class="st0" d="M82.6,1893.1c-25.6-14.5-45.8-34.4-60.5-59.8C7.4,1807.8,0,1779.8,0,1749s7.1-59.1,21.6-84.5
					c14.5-25.4,34.2-45.3,59.6-59.8c25.2-14.5,53.2-21.6,84.3-21.6c28.2,0,54.6,6.4,79.3,19.5c24.5,13.1,45.1,31.8,62,56.3
					l-50.6,36.1c-23-34.9-53.4-52.5-90.7-52.5c-29.2,0-53.2,10-71.7,29.9c-18.8,19.9-28,45.6-28,76.7s9.5,56.8,28.7,76.7
					c19,19.9,43.2,29.9,72.7,29.9c25.4,0,45.8-6.4,61.7-19c15.7-12.6,25.4-28.3,29.4-46.8h-97.6v-55.3h162.4
					c0.7,6.9,1.2,15.7,1.2,25.9c0.2,82.6-58.6,154.8-157.2,154.6C136.3,1914.9,108,1907.6,82.6,1893.1L82.6,1893.1z"/>
				<path class="st0" d="M381.3,1910.2v-322.4h229.4v55.6H445.4v74.3h143.4v55.6H445.4v81.7h168.8v55.3L381.3,1910.2L381.3,1910.2z"
					/>
				<path class="st0" d="M673.6,1910.2v-322.4h67.9l104,214.6l103.8-214.6h67.9v322.4H953v-197.8l-86.9,176.2h-41.5l-86.9-176.2
					v197.8H673.6L673.6,1910.2z"/>
			</g>
			<rect x="1704.5" y="1599.6" class="st1" width="15.2" height="311.8"/>
			<path class="st1" d="M2641.3,1911.1c-4.8,0-6.8-1.3-9.4-6.2c-7.5-14.1-15.2-28.3-22.8-42.1c-7.3-13.3-14.8-27.2-22.1-40.8
				c-2.8-5.3-7.4-11.5-17.4-11.5c-0.4,0-0.9,0-1.3,0c-4.1,0.2-8.5,0.3-13.9,0.3c-3.4,0-6.9,0-10.4-0.1c-3.8,0-7.6-0.1-11.6-0.1h-5.3
				v99.5h-74.2v-314.8c0.7-0.1,1.4-0.2,2.1-0.2c13.5,0,27-0.1,40.5-0.2c14-0.1,27.9-0.2,41.9-0.2c22.5,0,40.9,0.2,57.9,0.8
				c37.3,1.2,67.1,15.8,88.3,43.4c16.7,21.7,24.2,53.2,19.8,82.3c-3,19.4-12.6,46.7-41.3,66.8c-1.7,1.2-3.3,2.4-5.1,3.8
				c-0.9,0.7-1.9,1.4-2.9,2.2l-3.9,2.9l69.4,113.8c-0.8,0-1.6,0.1-2.3,0.1h-5.5c-6.1,0-12.1,0-18.2,0c-6.1,0-12.1,0-18.2,0
				c-13.4,0-23.8,0.1-33.5,0.3L2641.3,1911.1L2641.3,1911.1z M2536.5,1749.4c4.8,0,9.5,0.1,14.2,0.2c4.7,0.1,9.4,0.2,14.1,0.2
				c11,0,19.4-0.6,27.4-2c22.8-4,37-21,37-44.4c0.1-23.9-15-42.1-36.5-44.1c-7-0.7-14.4-1-23.5-1c-6.1,0-12.2,0.1-18.2,0.3
				c-6,0.1-12.2,0.3-18.3,0.3h-5.3v90.6l5.4-0.1C2534,1749.4,2535.3,1749.4,2536.5,1749.4L2536.5,1749.4z"/>
			<path class="st1" d="M3372.2,1917c-16.3,0-33.5-2.2-51.1-6.7c-21.4-5.4-38.4-14.7-51.9-28.3c-16.4-16.6-25-37.6-26.1-63.9h72.4
				c7.7,23.6,21.8,33.3,47.8,33.4h0.3c12.8,0,24-1,34.1-2.9c6.4-1.2,13.4-5.3,18.9-10.9c6.1-6.3,8.9-14.6,7.6-22.9
				c-1.3-8.4-6.6-15.5-14.4-19.7c-6-3.2-13.1-5.5-20.6-6.8c-7.8-1.4-15.8-2.5-23.5-3.6c-10.1-1.4-20.4-2.9-30.5-4.9
				c-22.2-4.6-40.4-11.9-55.6-22.6c-21.2-14.9-34.2-42.6-33.8-72.2c0.3-29.8,14-55.9,37.5-71.6c23.6-15.8,51.5-23.5,85.1-23.5h2.4
				c29.1,0.3,53.4,6.8,74.3,19.7c27.3,16.9,42.2,41.1,45.6,74.1c0.1,0.5,0.1,1.1,0.1,1.8h-71.9c-1.9-9.7-6.3-16.9-13.5-22.1
				c-8.7-6.3-18.7-9.5-29.7-9.5c-0.7,0-1.4,0-2.1,0c-11.2,0.4-20.2,1.4-28.5,3c-4.7,0.9-9.8,3.7-15,8.1
				c-7.8,6.6-11.5,16.3-10.1,25.8c1.4,9.1,7.1,16.4,15.8,20.2c10.3,4.5,22.7,7.7,36.8,9.5c21.9,2.8,41.5,5.6,60.5,11.7
				c15.5,5,29.5,12.9,41.8,23.5c16.2,14.1,25.9,39.1,25.2,65.3c-0.6,27.1-11.8,50.5-31.5,66c-17.8,14-39.1,22.7-67.3,27.5
				C3391.7,1916.2,3382,1917,3372.2,1917L3372.2,1917z"/>
			<path class="st1" d="M1993,1917c-21.2,0-42.5-3.7-63.3-11c-38.8-13.6-63.6-47.1-65.1-87.9h73.3c3,17,13.9,27.6,32.5,31.5
				c8,1.7,16,2.5,23.6,2.5c9.2,0,18.1-1.2,26.7-3.7c5.7-1.6,11.3-4.6,15.7-8.4c7.5-6.4,11.1-15.7,9.8-25.1
				c-1.3-9-6.8-16.3-15.3-20.2c-10.2-4.7-21.7-6.9-31.5-8.5c-5-0.8-10.1-1.5-15.1-2.2c-17.2-2.4-33.5-4.7-49.4-10.5
				c-12.3-4.5-26.5-10.5-38.4-20.8c-17-14.7-26.2-34.1-28.3-59.4c-3.3-40.3,17-73.8,54.4-89.5c23.5-9.8,46.6-14.8,68.7-14.8
				c26.1,0,51.4,6.9,75.4,20.6c28,16,43,40.7,45.6,75.3h-71.6c-5.7-19.2-18.5-29.2-38.9-30.8c-5-0.4-9.2-0.6-13.5-0.6
				c-10.6,0-19,1.6-26.6,5.1c-12.1,5.6-18.5,13.9-19.4,25.4c-1.1,13.4,4.7,23.3,15.8,27.2c12.1,4.2,25,7,36.2,9.3
				c7.7,1.6,15.5,2.9,23,4.2c11.9,2,24.2,4.1,35.9,7.2c21.4,5.6,38.4,16.2,50.6,31.5c14.7,18.5,21.1,41.9,17.9,65.9
				c-3.2,24.6-16.6,47.1-36.5,61.8c-15.7,11.5-35.1,18.9-61,23.2C2013.8,1916.1,2003.3,1917,1993,1917L1993,1917z"/>
			<path class="st1" d="M2992.5,1910v-314.1h191.7v64.6h-117.3v59.9h108.6c0.2,15.1,0.2,29.7,0.2,45c0,6.1,0,12.3,0,18.6h-109v61.6
				h122.2v64.3H2992.5L2992.5,1910z"/>
			<polygon class="st1" points="2185.4,1910.1 2185.4,1595.8 2376.7,1595.8 2376.7,1660.2 2260,1660.2 2260,1720.8 2367.8,1720.8 
				2367.8,1783.8 2260,1783.8 2260,1845.5 2380.8,1845.5 2380.8,1910.1 			"/>
			<polygon class="st1" points="2767.5,1910.1 2767.5,1853.5 2806.9,1853.5 2806.9,1653.5 2771.4,1653.5 2771.4,1595.8 
				2920.1,1595.8 2920.1,1653.1 2883.1,1653.1 2883.1,1852.9 2923.6,1852.9 2923.6,1910.1 			"/>
			<g>
				<g>
					<g>
						<polygon class="st2" points="1360,1667.5 1253.3,1667.5 1270.2,1631.2 						"/>
						<polygon class="st3" points="1270.2,1631.2 1235.9,1591.5 1149,1638.2 1191.6,1667.5 						"/>
						<polygon class="st4" points="1253.3,1667.5 1270.2,1631.2 1191.6,1667.5 						"/>
						<polygon class="st5" points="1191.6,1667.5 1129.1,1667.5 1149,1638.2 						"/>
						<polygon class="st6" points="1129.1,1667.5 1079.4,1667.5 1149,1638.2 						"/>
						<path class="st7" d="M1079.4,1667.5c0,0,89.1-76.2,90.4-76c1.3,0.2-20.9,46.7-20.9,46.7L1079.4,1667.5L1079.4,1667.5z"/>
						<polygon class="st8" points="1169.9,1591.5 1235.9,1591.5 1149,1638.2 						"/>
						<polygon class="st9" points="1235.9,1591.5 1270.2,1631.2 1360,1591.5 						"/>
						<polygon class="st10" points="1360,1667.5 1466.7,1667.5 1449.8,1631.2 						"/>
						<polygon class="st11" points="1360,1591.5 1270.2,1631.2 1360,1667.5 1449.8,1631.2 						"/>
						<polygon class="st0" points="1449.8,1631.2 1484.1,1591.5 1571,1638.2 1528.4,1667.5 						"/>
						<polygon class="st12" points="1466.7,1667.5 1449.8,1631.2 1528.4,1667.5 						"/>
						<polygon class="st13" points="1528.4,1667.5 1590.9,1667.5 1571,1638.2 						"/>
						<polygon class="st14" points="1590.9,1667.5 1640.6,1667.5 1571,1638.2 						"/>
						<path class="st15" d="M1640.6,1667.5c0,0-89.1-76.2-90.4-76c-1.3,0.2,20.9,46.7,20.9,46.7L1640.6,1667.5L1640.6,1667.5z"/>
						<polygon class="st0" points="1550.1,1591.5 1484.1,1591.5 1571,1638.2 						"/>
						<polygon class="st16" points="1484.1,1591.5 1449.8,1631.2 1360,1591.5 						"/>
					</g>
					<g>
						<polygon class="st17" points="1253.3,1667.5 1319.9,1831.5 1191.6,1667.5 						"/>
						<polygon class="st0" points="1191.6,1667.5 1281.2,1831.5 1360,1914.9 1319.9,1831.5 						"/>
						<polygon class="st8" points="1191.6,1667.5 1129.1,1667.5 1281.2,1831.5 						"/>
						<polygon class="st18" points="1360,1914.9 1281.2,1831.5 1079.4,1667.5 						"/>
						<polygon class="st19" points="1129.1,1667.5 1079.4,1667.5 1281.2,1831.5 						"/>
						<polygon class="st20" points="1360,1667.5 1319.9,1831.5 1360,1914.9 1400.1,1831.5 						"/>
						<polygon class="st11" points="1466.7,1667.5 1400.1,1831.5 1528.4,1667.5 						"/>
						<polygon class="st21" points="1528.4,1667.5 1438.8,1831.5 1360,1914.9 1400.1,1831.5 						"/>
						<polygon class="st22" points="1528.4,1667.5 1590.9,1667.5 1438.8,1831.5 						"/>
						<polygon class="st23" points="1360,1914.9 1438.8,1831.5 1640.6,1667.5 						"/>
						<polygon class="st24" points="1590.9,1667.5 1640.6,1667.5 1438.8,1831.5 						"/>
						<polygon class="st25" points="1466.7,1667.5 1400.1,1667.5 1400.1,1831.5 						"/>
						<polygon class="st2" points="1360,1667.5 1253.3,1667.5 1319.9,1831.5 						"/>
					</g>
					<g>
						<polygon class="st0" points="1129.1,1667.5 1253.3,1667.5 1235.9,1591.5 						"/>
						<polygon class="st26" points="1253.3,1667.5 1360,1667.5 1466.7,1667.5 1360,1591.5 						"/>
						<polygon class="st27" points="1550.1,1591.5 1590.9,1667.5 1640.6,1667.5 						"/>
						<polygon class="st26" points="1466.7,1667.5 1590.9,1667.5 1484.1,1591.5 						"/>
					</g>
					<path class="st28" d="M1590.9,1658.9h-501.4c-6.2,5.3-10.1,8.6-10.1,8.6h561.1c0,0-3.9-3.3-10.1-8.6H1590.9L1590.9,1658.9z"/>
					
						<linearGradient id="SVGID_1_" gradientUnits="userSpaceOnUse" x1="1410.7228" y1="-1756.926" x2="1457.9528" y2="-1789.906" gradientTransform="matrix(1 0 0 -1 0 0)">
						<stop  offset="0" style="stop-color:#D6D6D6"/>
						<stop  offset="1" style="stop-color:#191919"/>
					</linearGradient>
					<polygon class="st29" points="1360,1914.9 1477.9,1667.5 1559.6,1667.5 					"/>
				</g>
				<polygon class="st30" points="1400.1,1667.5 1360,1667.5 1400.1,1831.5 				"/>
				<polygon class="st30" points="1360,1914.9 1360,1667.5 1319.9,1667.5 				"/>
				<polygon class="st31" points="1191.6,1658.9 1235.9,1591.5 1251.4,1658.9 				"/>
				<polygon class="st31" points="1550.1,1591.5 1484.1,1591.5 1585,1658.9 				"/>
			</g>
		</g>
	</g>
</g>
</svg>
