<?xml version="1.0" encoding="utf-8"?>
<!-- Generator: Adobe Illustrator 27.7.0, SVG Export Plug-In . SVG Version: 6.00 Build 0)  -->
<svg version="1.1" id="Layer_1" xmlns="http://www.w3.org/2000/svg" xmlns:xlink="http://www.w3.org/1999/xlink" x="0px" y="0px"
	 viewBox="0 0 3500 3500" style="enable-background:new 0 0 3500 3500;" xml:space="preserve">
<style type="text/css">
	.st0{fill:#0066FF;}
</style>
<path class="st0" d="M2991.1,1238.7l506.9,506.9c2.5,2.5,2.5,6.5,0,9c0,0,0,0,0,0l-506.9,506.6c-1.2,1.2-1.9,2.8-1.9,4.5v717.1
	c0,3.5-2.9,6.4-6.4,6.4l-717.1-0.2c-1.7,0-3.3,0.7-4.5,1.9L1754.3,3498c-2.5,2.5-6.5,2.5-9,0c0,0,0,0,0,0L1238.5,2991
	c-1.2-1.2-2.8-1.9-4.5-1.9H517c-3.5,0-6.4-2.9-6.4-6.4l0,0v-717.1c0-1.7-0.7-3.3-1.9-4.5L2,1754.3c-2.5-2.5-2.5-6.5,0-9c0,0,0,0,0,0
	l506.9-506.8c1.2-1.2,1.9-2.8,1.9-4.5V517.1c0-3.5,2.9-6.4,6.4-6.4h716.9c1.7,0,3.3-0.7,4.5-1.9L1745.6,1.9c2.5-2.5,6.5-2.5,9,0
	c0,0,0,0,0,0L2261.4,509c1.2,1.2,2.8,1.9,4.5,1.9H2983c3.5,0,6.4,2.9,6.4,6.4c0,0,0,0,0,0l-0.2,716.9
	C2989.2,1235.8,2989.9,1237.5,2991.1,1238.7z M2740.1,2162.8c0-1.9,0.7-3.6,2-5l402.9-402.9c2.8-2.8,2.9-7.3,0.1-10.1
	c0-0.1-0.1-0.1-0.1-0.1l-402.9-402.9c-1.3-1.3-2-3.1-2-5V766.9c0-4-3.2-7.2-7.2-7.2l0,0h-569.9c-1.9,0-3.6-0.7-5-2l-402.9-402.9
	c-2.8-2.8-7.3-2.9-10.1-0.1c-0.1,0-0.1,0.1-0.1,0.1l-402.9,402.9c-1.3,1.3-3.1,2-5,2H767.2c-4,0-7.2,3.2-7.2,7.2v569.9
	c0,1.9-0.7,3.6-2,5l-402.9,402.7c-2.8,2.8-2.9,7.3-0.1,10.1c0,0.1,0.1,0.1,0.1,0.1L758,2157.7c1.3,1.3,2,3.1,2,5v569.9
	c0,4,3.2,7.2,7.2,7.2c0,0,0,0,0,0h569.7c1.9,0,3.6,0.7,5,2l403,403c2.8,2.8,7.3,2.9,10.1,0.1c0.1,0,0.1-0.1,0.1-0.1l402.9-402.9
	c1.3-1.3,3.1-2,5-2h569.9c4,0,7.2-3.2,7.2-7.2v0V2162.8z"/>
<path class="st0" d="M866.4,865.9h269.8c3.1,0,5.6,2.5,5.6,5.6v269.8c0,3.1-2.5,5.6-5.6,5.6H866.4c-3.1,0-5.6-2.5-5.6-5.6V871.5
	C860.8,868.4,863.4,865.9,866.4,865.9z"/>
<path class="st0" d="M1359.8,865.9h271.1c2.8,0,5,2.2,5,5v271.1c0,2.8-2.2,5-5,5h-271.1c-2.8,0-5-2.2-5-5V870.9
	C1354.8,868.1,1357.1,865.9,1359.8,865.9z"/>
<path class="st0" d="M1863.6,865.9h269.2c3.3,0,5.9,2.7,5.9,5.9V1141c0,3.3-2.7,5.9-5.9,5.9h-269.2c-3.3,0-5.9-2.7-5.9-5.9V871.8
	C1857.7,868.5,1860.4,865.9,1863.6,865.9z"/>
<path class="st0" d="M2356.9,865.9h271.4c2.7,0,4.8,2.2,4.8,4.8v271.4c0,2.7-2.2,4.8-4.8,4.8h-271.4c-2.7,0-4.8-2.2-4.8-4.8V870.7
	C2352,868,2354.2,865.9,2356.9,865.9z"/>
<path class="st0" d="M2212.9,1751.5l46.4-0.5c4.7,0,9-2.8,10.9-7.2l13.7-30.4c2.6-5.9,7.1-8.9,13.6-8.9h67c6.2-0.1,10.9,2.6,14,8.1
	l17.1,30.8c2.9,5.2,7.3,7.8,13.2,7.8l85.2-0.2c6.5,0,11.3-2.9,14.3-8.7l15.6-29.3c3.1-5.8,8-8.7,14.6-8.7h68.4
	c5.2,0,9.8,1.7,13.7,5.1c61.8,53,100.2,123.7,99.7,208.3c-1.5,222.6-1.7,439.9-0.6,652c0.2,32.2-12.6,55.3-38.3,69.3
	c-4.9,2.7-9.9,3.1-15.1,1.2c-32.3-11.6-48.7-34.4-49.1-68.2c-1.1-101.9-0.9-208.2,0.8-318.9c1.4-96.4-23.1-176.8-109.2-223.4
	c-101.1-54.5-247.7-17.8-291.5,95.7c-10.5,27.1-15.6,59-15.3,95.7c1.1,124.3,1.2,243.3,0.2,356.9c-0.1,8.2-3.5,15.9-9.3,21.5
	c-49.4,46.8-104.3,52.8-164.7,17.9c-19.8-11.5-29.8-26.6-29.8-45.2c-0.4-172.2-0.5-350.3-0.3-534.2c0.2-138.7-91-247.2-228.4-263.9
	c-154.2-18.9-282.8,103.1-283.2,256.7c-0.6,171.6-0.6,349.9,0.2,535c0.2,38.9-31.9,54.4-62.5,66.4c-39.7,15.6-139,2.3-140.2-60.6
	c-5.8-274.3-6-564.9-0.5-871.9c1.2-65.1,32.2-220.4,119.3-219.3c26.4,0.4,52.9,0.6,79.6,0.6c7.1,0,14,2.7,19.2,7.5l36,32.9
	c4.6,4.2,10,6.2,16.2,6.2h118.6c6.2,0,11.5-2.2,15.9-6.7l30.4-31.3c12.5-12.8,32.9-13.2,45.7-0.8c0.5,0.4,0.9,0.9,1.3,1.4l28.2,30.7
	c4.2,4.5,9.2,6.7,15.3,6.7h126.5c6.4,0,12-2.2,16.7-6.7l34.1-33.3c4.3-4.1,10-6.4,16-6.5c46-0.2,101.1-12.6,135.8,27.4
	c51.7,59.5,64.8,154.9,63.2,231.7C2201.6,1747.7,2205.3,1751.5,2212.9,1751.5z"/>
<path class="st0" d="M868.5,2360.5l266.7-0.9c4.2,0,7.6,3.4,7.7,7.6l0.9,266.1c0,4.2-3.4,7.6-7.6,7.7l-266.7,0.9
	c-4.2,0-7.6-3.4-7.7-7.6l-0.9-266.1C860.8,2363.9,864.2,2360.5,868.5,2360.5z"/>
</svg>
