<?xml version="1.0" encoding="utf-8"?>
<!-- Generator: Adobe Illustrator 27.7.0, SVG Export Plug-In . SVG Version: 6.00 Build 0)  -->
<svg version="1.1" id="Layer_1" xmlns="http://www.w3.org/2000/svg" xmlns:xlink="http://www.w3.org/1999/xlink" x="0px" y="0px"
	 viewBox="0 0 3500 3500" style="enable-background:new 0 0 3500 3500;" xml:space="preserve">
<style type="text/css">
	.st0{fill:#4DDBBE;}
</style>
<path class="st0" d="M3003.2,1131.4c31,6.1,61.7,16.7,92,31.8c53.1,26.3,102.1,55.1,147,86.1c118.5,81.9,199.4,214.7,229.7,356
	c36.5,170-6.7,347.3-123.2,476.1c-55.4,61.2-117.1,116.7-185.3,166.4c-59.8,43.6-108.1,78.7-145,105.3c-1.4,1-2.1,2.3-2.1,4
	c-2.2,121.4-4.1,244.3-5.7,368.7c-0.3,23.8-1.7,43.1-4.2,57.7c-24.4,143.8-157.1,234.7-299.7,221c-13.6-1.3-26.5-2-38.7-2
	c-99.7-0.3-200.6-0.5-302.6-0.7c-1.2,0-1.9,0.5-2.3,1.6c-20.7,65.3-55.2,125.6-93.1,185.1c-12.5,19.6-24.6,36.8-36.2,51.6
	c-101.1,128.6-259.9,207.8-423.6,218.4c-149.8,9.7-289.8-41.3-400.7-142.7c-10.2-9.3-31.1-30.3-62.8-62.9
	c-27-27.8-57.2-64.3-90.7-109.6c-36.9-49.8-73.4-100-109.4-150.4c-0.6-0.9-1.6-1.4-2.6-1.4c-124.6-2.3-248.7-4.3-372.2-5.9
	c-23.7-0.3-43-1.8-57.8-4.6c-143.6-26.5-232.1-157.8-218.2-301.2c1.2-12.6,1.8-24.5,1.9-35.7c0.3-90.5,0.5-181.9,0.6-274.4
	c0-0.6-0.4-1.1-1-1.2c-33.9-4.9-67.1-18.8-97.8-34.1c-49-24.5-95.4-51.7-139.4-81.8c-125.8-86.2-210.4-229.3-236.2-379.5
	c-28.5-165.6,15.8-330,127.8-454.6c12.5-13.9,26.8-28.9,43-45.1c42.1-41.9,87.1-80.5,135.1-115.8c50.8-37.4,101.7-74.4,152.7-111
	c0.8-0.6,1.2-1.4,1.3-2.4c2-123.6,3.9-246.4,5.6-368.2c0.4-26.5,1.9-47.1,4.6-61.9c26.3-143,158-232.2,300.4-218.2
	c13.5,1.3,26.1,2,37.9,2c201.6,0.3,302.6,0.5,302.8,0.5c0.9,0.2,1.4-0.1,1.6-0.9c6.2-22.1,15.7-46.1,28.6-72
	c23.5-47.1,50-92.5,79.5-136.4c99-147.1,273.4-237.3,449.7-247.6c148-8.6,287.5,43.3,395.7,143.4c42.5,39.3,86.9,85.8,125.3,135.4
	c33.6,43.4,69.5,92,107.6,145.8c9.5,13.4,19.8,27.3,30.9,41.7c0.7,0.9,1.7,1.4,2.9,1.4c128.3,1.7,259.4,3.8,393.3,6.3
	c34.6,0.6,69.5,9.5,104.8,26.6c103.7,50.2,159.5,160.8,149.2,274.9c-1.2,13.6-1.9,26.8-1.9,39.7c-0.3,93.4-0.5,184.4-0.7,272.9
	C3001.7,1130.5,3002.2,1131.2,3003.2,1131.4z M1443.9,345.9c-62.8,4.7-121.8,36.9-172.7,75.9c-29.9,22.9-58.3,48-85.3,75.5
	c-0.3,0.3-0.3,0.8,0,1.2c0.2,0.2,0.4,0.2,0.6,0.3l477.8,1.4c1.2,0,1.4-0.5,0.6-1.4c-33.2-38.3-67-77.5-101.3-117.6
	c-4.3-5-9.1-9-14.5-11.9C1515,350.9,1480,343.2,1443.9,345.9z M932.7,2144c0.7,0.6,1,1.4,1,2.3l2.5,500.6c0,0.7,0.6,1.3,1.3,1.4
	c17.4,0.9,32.6,1.4,45.5,1.3c134-0.8,268.2-5.1,403-1.8c34.3,0.8,69.4,3.2,105.4,7.2c15,1.7,29.6,4.6,43.7,8.7
	c8.3,2.5,14.8,6.4,19.5,11.9c86.2,100.2,173.4,201.5,261.8,304c0.3,0.4,0.9,0.5,1.3,0.1c0,0,0.1-0.1,0.1-0.1l351.5-412.4
	c0.5-0.5,1.1-0.9,1.9-0.9l500.6-2.5c1,0,1.5-0.5,1.6-1.5c0.9-18.3,1.3-34.9,1.2-49.9c-0.7-82.6-1.7-169.7-2.9-261.3
	c-0.7-50.2,0-104,2.1-161.4c1.2-32.2,3.8-63,7.9-92.5c2.3-16.2,6.2-40.6,18.9-51.5c91.2-78.5,183.5-158,277-238.6
	c0.4-0.3,0.5-0.9,0.1-1.3c0,0-0.1-0.1-0.1-0.1L2567.2,1356c-0.7-0.6-1-1.4-1.1-2.3l-2.5-500.3c0-0.8-0.6-1.5-1.5-1.6
	c-18.1-1.1-35.3-1.6-51.4-1.4c-73.8,0.8-144.5,1.6-212.2,2.5c-87.7,1.1-171.8,1.8-258.9-4.7c-20.9-1.5-41-4.2-60.3-8
	c-7.9-1.6-15.1-3.8-21.7-6.7c-4.8-2.1-9.5-5.8-14-11c-84.9-98.6-171.6-199.3-260.1-302.1c-0.3-0.4-0.9-0.4-1.3-0.1
	c0,0-0.1,0.1-0.1,0.1l-351.8,412.9c-0.3,0.3-0.7,0.5-1.1,0.5L828,936.3c-0.7,0-1.3,0.6-1.4,1.3c-1.2,19.1-1.6,36.7-1.5,52.6
	c1,87.5,2.1,174.4,3.1,260.5c0.6,46.2,0,96-1.8,149.5c-1.1,31.6-3.2,61.8-6.5,90.4c-2,17.8-6.2,51.5-20.4,63.7
	c-91.9,79.1-184.2,158.7-277.1,238.6c-0.4,0.4-0.5,1-0.1,1.4c0,0,0.1,0.1,0.1,0.1L932.7,2144z M3156,1549.1
	c77.9-144.2-53.4-293.2-153.2-387.7c-0.8-0.8-1.3-0.6-1.3,0.6l-1.4,523.8c0,1.3,0.5,1.5,1.5,0.7c47.6-41.1,95.3-82.1,143.1-123.1
	C3149.2,1559.4,3153,1554.6,3156,1549.1z M344.2,1950.5c-78.9,145.2,55.1,296.2,153.2,388.3c0.2,0.2,0.6,0.2,0.8,0
	c0.1-0.1,0.2-0.3,0.2-0.4l1.4-523.9c0-1.4-0.5-1.6-1.5-0.7c-46.4,40.2-93.8,80.9-142.1,122.3C351,1940.5,347,1945.3,344.2,1950.5z
	 M1950.7,3130.8c97.1,53.1,198.1,9.1,278.6-52.7c29.9-22.9,58.2-48.1,85.1-75.6c0.2-0.2,0.2-0.6,0-0.8c-0.1-0.1-0.3-0.2-0.4-0.2
	l-478.3-1.3c-1.2,0-1.4,0.4-0.6,1.3c34.2,39.5,67.7,78.4,100.4,116.7C1940,3123.5,1945.1,3127.7,1950.7,3130.8z"/>
</svg>
