<?xml version="1.0" encoding="utf-8"?>
<!-- Generator: Adobe Illustrator 27.7.0, SVG Export Plug-In . SVG Version: 6.00 Build 0)  -->
<svg version="1.1" id="Layer_1" xmlns="http://www.w3.org/2000/svg" xmlns:xlink="http://www.w3.org/1999/xlink" x="0px" y="0px"
	 viewBox="0 0 3500 3500" style="enable-background:new 0 0 3500 3500;" xml:space="preserve">
<style type="text/css">
	.st0{fill:#FFFFFF;}
	.st1{fill:#60C43B;}
</style>
<path class="st0" d="M3017.1,1118.1c0.6-28.7-7.4-94.2,7.9-114.2c9.5-9,19,1.1,22.9,12.8c23.2,148.5,4,302.1-69.4,435
	c-11.9,26.2-6.8,51.1,3,77.7c54.7,135.2,72,277,25.9,418.4c-11.8,47.4-18,96.9-36.5,142.2c-3.2,13.5-32.6,58.2-36.6,24.4
	c3.9-49.7,18-98.7,29.6-147.2c18.3-65.1,21.4-131.8,11.9-197.8c-4.7-29.9-35.8-201.2-63.5-207.8c-15.2-1.3-28.3,18-39.2,28
	c-74.4,81.5-167.4,137.2-269.7,175.7c-22.3,10.2-54.9,15.2-71.4,33.5c-7.7,9.6-7.2,27.1-7.3,40.3c2.8,103.3,9.7,207.6-20.5,308.4
	c-13.2,42.5-1.1,55.3,42.9,43.1c122.4-34.2,230-96.4,317.1-189.7c7.8-7.3,70.5-78.9,65.7-46.4c-6.1,28.6-21.8,53.8-41.7,74.9
	c-102,116.8-237.7,183.5-385.9,223.2c-27.3,10.2-47.2,26.6-64.1,50.7c-100.2,169.4-247.6,298.7-437.7,359.1
	c-8.4,3.8-66.6,12.6-47.8-4.8c23.2-21.6,57.2-26.6,83.1-43.1c13.1-8.2,23.1-23.9,0.2-27c-23.5-2.7-47.6-3.3-71.1-6.2
	c-107.5-8.9-212.2-31.4-306.9-84.3c-12.9-5-25.6-7.6-39.1-7.1c-21.3,0.6-44.7,9.5-65.3,16.5c-166.6,57.2-350.3,53.5-520.2,4.2
	c-16.8-4.3-147.1-50.4-121.8-68.2c33.6-5.3,92.1,27.1,129.6,32.4c153.5,26.3,311.2,32,460.1-22.9c114.5-34-67.9-48.9-164.7-313
	c-23.6-68.8-43.7-62.3-107.3-52.2c-62.1,11.2-125.5,29.9-189.5,12.7c-21.5-5.8-43.4-9.1-65.5-5.3c-19.9,3-44.9,4.3-40.4,29.5
	c32.4,122.9,122.1,224.7,221.5,300.6c6.2,7.1,21.6,16.1,12.4,23.7c-3.8,2.2-11.6,1.2-20.1-1.9c-119.7-66.5-207.7-174.9-261.3-299.1
	c-11.8-28-23.6-60.9-47-80.7c-16.1-14.7-37.9-24-58.6-32.5c-167.1-66.9-301.3-191.8-381.3-352.4c-5.6-12.2-8.9-50.5,11.2-37.4
	c102.7,143.2,225.2,269.7,397.4,326.5c14.8,4.7,28.1,4.7,26.4-15.2c-14.4-124.6,14.3-246.7,68.6-359.2
	c15.6-31.8-18.8-49.1-40.4-65.7c-80.4-56.2-161.8-114.3-217.1-198.1c-7.9-10.7-21.3-25.9-30-28.1c-17.4-4.2-29,22.2-37.6,36.4
	c-8.1,15-15.3,29.8-21.9,45.5c-16.4,38.4-27.5,78.8-32.3,120.3c-9,61.9,5.6,127-8.3,187.9c-6.8,18.4-20.5,8.8-25.3-6.8
	c-4.3-11.4-5.7-23.7-6.3-36c-7.5-124.4,1.3-249.7,63.4-360.9c11.2-22.1,20-45.5,18.7-70.1c-0.4-13-3.6-27-8.5-41
	c-65.1-144.5-73.7-302.3-39.8-457.4c9.7-41.8,18-126,60.3-144.8c13.9,2,5.5,25.3,3.3,35c-14.3,49.3-20.1,99.8-24.3,151
	c-1.4,17.5-2.8,35.2-3.6,52.7c-4.5,108.6,13.6,214.2,57.3,312.6c13.5,24.7,36.1,16.6,51.6-1.3c84-90.8,192.4-145.6,304.9-192.8
	c19.1-10.1,27.4-25.5,25.4-47.1c-22.7-108.1-23.8-217.4-10.3-326.8c3.3-32.4-0.7-63.3-42.4-49.5c-100.8,32.1-197,81-266.8,162.8
	c-20.8,20.3-40.6,42.5-62.6,61.2c-5.9,5-19,12.3-22.7,4.6c15.2-96.3,203.7-219.1,291-255c46.4-19.1,103.2-21.8,141.1-57.6
	c20.5-19,34.4-46,47.1-71.4c69-151.1,196.8-259.2,343.5-331c19.4-9.7,39.6-17.6,60.7-22.3c12.6-4.2,44.1-4.7,27.2,12.8
	c-15.9,13.4-37.8,20.5-55.4,32.1c-138.2,84.1-255.3,197.1-324.8,345.1c-3.7,9.6-7.8,22.1-3.2,28.5c14.5,15.8,47.1,7.9,67.4,10
	c102.1,0,204,21.7,294.6,69.7c29.8,16.1,61.1,18.8,84.9-8.9c13.3-13.8,24.9-32,35.6-48.4c49.4-82.1,131.1-133.5,203.4-192.3
	c30.9-23.5-19.4-41.8-37.4-51.9c-71.4-32-146.2-54.7-225.2-56.8c-41.7-0.7-83.4,1.1-125.1,0c-43,0-43.1-19.9-1.7-28.9
	c154.8-30.5,311.7,8.9,450.6,78.3c23.3,9.5,46.1,8.4,70,0.9c170-62.4,346.5-73.3,521.8-22.2c25.7,8.9,77.1,20,89,44.5
	c2.1,10.3-11.2,10-19.2,8.3c-58.6-18.5-118.9-27-179.6-27.1c-62.2,0.5-125-1.7-187.2,1.9c-53.7,5.9-105.1,22.1-156.5,37.7
	c-47.1,15.6-16.8,45.7,6.7,67.6c83,78.4,139.9,174,178.6,280.8c9.2,18.7,25,27.2,45.6,26c109-17.1,218.2-26,327.7-6
	c23.6,1.9,70.3,18.5,71.4-17.9c-15.2-88.9-65.9-170.4-125.7-237.1c-19.4-25.3-86.1-75.1-88.7-100.4c3.1-11,17.8-4.6,26.8,0
	c109.1,68.6,182.5,173,223.9,293.1c15.1,49.4,39.3,96.4,85.8,122.5c137.6,61.1,252.1,158.5,334.9,285.2c10.6,15.5,21.8,41.1,17,58.2
	c-9.6,17-29.4-15.4-36.4-23c-71.5-90.9-157.6-167.2-259.3-223.7c-29-15.5-90.5-60.8-98.1-1.3c-5.3,35-4.2,70.6-8.4,105.7
	c-8.2,76.5-39.3,147.7-66.1,219.4c-13.5,30.1-3,48.2,24,63.5c102.7,61.6,187.4,143.7,255.6,242.1c9,11.9,25.2,18.3,35.9,3.9
	c49.1-85.7,76-183.5,66.1-275.9v-0.4L3017.1,1118.1z M1522.4,1343.8c-4.8,92.9,32.9,175.5,113.9,217.5
	c169.7,86.3,393.7-5.2,379.6-229.8c-9.3-113.5-109.1-215-221.8-224.7c-144.7-6.7-272.3,84.5-271.8,236.6L1522.4,1343.8
	L1522.4,1343.8z M2883.2,1488.7c0.1-6.3-1.9-12.7-4.9-18.9c-61.2-110.2-154-192.6-259.8-259c-14-8.5-30.6-19.9-47.1-19.9
	c-13.6,0-24.3,10.3-33.6,19.7c-60.4,66.4-131.8,119.7-212.5,159.3c-7.7,3.9-15.7,7.8-22.9,12.4c-16.1,10.1-18.1,19.3-6.5,34.2
	c70.7,76.2,137.4,155.2,173.5,253.9c4.8,12.5,9.3,26,17,37.1c16,24.1,42.7,20.6,67.1,12.8c125-40.5,238.9-107.3,322.5-210.5
	c4.4-6.6,7.3-13.6,7.4-20.6v-0.3L2883.2,1488.7z M1044.3,699.1c0,7.9,0.9,15.8,2.1,23.6c8.3,49.8,14.9,98.9,21.8,148.5
	c6.1,34.8,27.3,37.9,58.7,37.7c74.7-1.8,150.9-3.4,221.9,24.5c9.5,3.3,19,6.5,28.6,9.6c12,3.7,23.7,8.2,36,10.4
	c17.9,2.8,30.7-6.2,31-24.4c-9-101.9,8.6-200.8,45.4-295.1c2.9-8,5.7-16.4,7.1-24.3c1.8-9.1,1.5-18.9-2.5-26
	c-9.1-16-29.8-25.5-46-34c-108.1-53.9-225.9-72.5-345.6-61c-8.1,1.4-15.6,3.8-21.2,8.4c-4.5,3.7-7.7,8.7-10,14.6
	c-4,10.6-5.2,22.6-6.8,33.8c-5.7,43.2-12.3,86.3-18.6,129.9c-1.1,7.8-1.9,15.7-1.9,23.6V699.1L1044.3,699.1z M1905.5,2115.9
	c-0.7-15.5-12.7-28.9-23-40.1c-61.3-59.6-117.4-123-155.5-200.1c-3.5-7-7-14.5-11.2-20.9c-8.1-13.2-20.1-15.5-32.8-7.2
	c-79.7,68.8-160.7,135.2-257.4,179.7c-17.2,8.5-41.5,17.6-44.1,38.8c-1.4,11.8,3.6,25,8.3,36c5.5,12.5,11.1,24.6,16.1,37
	c9.4,22.4,18.2,45.1,28.7,67c28.9,60.9,75.4,110.5,122.5,158.5c14.6,14.9,32.2,29.8,54,29.7c8.8,0.2,18.3-2.1,27.5-6
	c8.1-3.4,15.9-7.9,23.1-12.5c87.2-56.5,160.9-127.6,221.4-211.6c9.8-14.4,22.9-30,22.5-48L1905.5,2115.9L1905.5,2115.9z
	 M1895.4,288.7c-7.2,0-14.2,2-21,5.1C1765.6,352.3,1676.3,441,1612.7,547c-8.7,16.7-8.4,31,4.7,45.1c22.3,23.7,49.1,44.1,69.5,69.4
	c41.2,51.7,74.3,109.3,110.9,164.4c11,15.8,23.2,27,41.5,12.8c4.2-3.1,8.3-6.9,12.3-10.8c63-64.6,137.3-114.2,217.5-154.1
	c12.7-6.4,26.5-13,37.4-22.3c26.8-21.6,16.9-54.4,7.1-82.4c-38.3-107.4-102.9-202-192.6-272.3c-7.6-5-16.5-8.4-25.2-8.2h-0.3
	L1895.4,288.7z M2421.8,663.8c-8,0-16,0.9-24,2c-49.7,7.7-98.2,13.5-147.2,20.8c-21.8,4.2-35.5,14.7-36.6,38.2
	c-0.4,5.5-0.4,11.3-0.2,17.1c5.1,78-11.7,153.3-34.8,227.1c-3.3,13.8-19.7,50.3-8.2,60c4.1,3.6,11.3,5.1,19.5,5.7
	c101.7,0.4,202.7,8.9,299.5,42.1c10.5,3.5,21.7,7.6,32.6,9.4c35.4,7.3,52.3-24.2,66.6-50.9c50.8-97.8,72.4-205.5,61-315
	c-1.6-8.2-4.5-15.6-9.8-20.8c-7.7-7.7-19.8-10.5-30.7-12.2c-54.6-7.1-109-14.3-163.7-21.8c-7.9-1-15.9-1.8-23.8-1.7L2421.8,663.8
	L2421.8,663.8z M1019.2,991c-5-1.4-10.6-1-16.5,0.3c-119.3,29.7-221.6,92.1-305.3,181.8c-11.9,12.9-26.3,28.2-28.3,45.9
	c-1.9,20.9,12.4,41,23.6,57.9c58,84,139.7,142.2,223.9,196.7c9.6,6,22.5,13.8,32.3,16.1c9.1,2.2,16.6,0.2,25.7-6.5
	c7.7-5.7,16.3-14.3,23.4-21.6c60.6-64.4,128.7-119.5,207.9-158.7c13.4-7.5,43.2-16.1,30.6-35.9c-3.3-5.3-7.7-9.7-12.4-14.2
	c-71-66.5-134.4-139.3-177.9-227.2c-6.5-12.3-12.8-30.2-26.8-34.4h-0.3L1019.2,991z M1081.2,2020.6c8.8,2.7,18.5,4.8,28.3,3.3
	c52.3-7.3,104.7-13.9,156.7-22.7c27.9-5.7,35.7-21.6,29.2-48.6c-20.8-100.7,15.1-193.4,48.2-285.6c2.8-8.9,5.2-22-1.5-28.1
	c-6.5-5.9-19.5-5-28.8-4.8c-104.9,6.2-208.2-6.9-307.4-41.4c-21.3-5.3-30.9,7.9-40.5,24.6c-56,96.5-76.3,204.5-77.7,314.9
	c0,26.9,0.2,61.6,27.5,74.8c17.9,8.7,39.3,9.7,58.9,10.8c28.4,1.2,57.1,0.1,85.6-0.3c7.3-0.2,14.9,1.3,21.3,3.2h0.3L1081.2,2020.6z
	 M2450.6,1958.3c-3.2-40.3,11-139.9-35-154.4c-15.8-5.6-37-4.8-54.2-4.5c-85.8,2.8-169.3-11.2-250-39.1c-5.4-1.7-11-3.3-16.1-4.3
	c-28.5-6.7-26.2,20.8-26.3,40.7c1.8,79.3-13.4,156.7-38.7,231.7c-4.3,13.7-9.8,31.7-11.7,45.1c-3.9,26.1,5.7,37.7,27.6,50.6
	c21.1,12.1,46.3,22.8,69,32.9c70.8,36.9,151.3,38.3,228,53.4c14.5,2.9,31.4,7.3,45.2,0.6c20.1-10.4,25.6-36.7,31.8-57
	c19.2-66,35.8-129.4,30.5-195.3v-0.4L2450.6,1958.3z M2027.6,2550.7c14.1-0.7,28.6-3.8,43.1-5.8c44.3-6,84.9-12.3,118.6-40.3
	c74.4-57.2,138-130.6,179.6-216.4c5.4-15.3-3.4-29.7-19.3-33.4c-6.1-1.6-12.2-1.6-18.7-1.5c-110.1,4.6-213.5-22.7-308-77.2
	c-21.3-11.8-41.2-20.4-59.8,1.1c-4.9,5.3-9.4,11.5-13.6,17.7c-59.5,91.4-136.5,167.6-227.3,227.7c-9.6,7.1-26.3,15.8-25.4,28.8
	c0.5,4.1,3.7,8,8.2,11.5c89.4,53.6,190.8,75.7,295.2,86.8C2009.3,2550.6,2018.4,2551.1,2027.6,2550.7l0.3-0.1L2027.6,2550.7z
	 M2317,1749.9c9.9-1.8,17.9-4.9,28.8-4.7c14.6-0.6,52,2,59.5-9.5c3.9-7.5,1.6-15.3,0-23.9c-26.5-105.6-90.4-193.4-168.8-265.9
	c-8-7.4-16.4-14.4-26.4-18.3c-13.2-5-28.2-6.1-42.4-5.4c-13.4,0.7-25.9,5.4-39.3,7.5c-14.2,2.4-29.4,2-42.9,7.3
	c-19,6.8-31.6,23.8-39.9,41.6c-10.6,23.1-21.8,47.6-18.4,73c2.3,17.9,11.9,34,16.8,51.1c5.3,17.9,3.4,37.9,10.8,55.4
	c10.7,26.2,38.7,38.1,64.3,45.4c60.1,17.1,120.9,31.7,181.6,46.4c5.9,1.1,11.1,0.9,16.1,0.1h0.3L2317,1749.9z M1360,1898.1
	c1,21.5-7,71.6,27.6,67.1c4.9-0.8,9.8-2.9,14.5-5c40-17.9,78.8-37.8,115.5-60.7c56.2-35.3,108.8-77.6,151-129.5
	c11.4-14.3,17.3-32.3,15.6-50.6c-5.2-69.7-74.8-132.2-142.2-120.3c-7,1-14,2.4-21.1,4c-14.6,3.3-29.1,7.4-43.5,11.6
	c-25.4,6.9-51.3,17.3-65,40.9c-6,9.7-9.8,20.7-13.2,31.5c-20.5,65.3-42.3,135.7-39.2,210.6L1360,1898.1L1360,1898.1z M1575.6,638.7
	c-5.9,1.2-11.3,6.9-14.7,13c-3.3,5.7-6.2,11.7-8.7,17.8c-34.6,88.4-48.9,182.1-47.1,277.2c0.5,14.5,1.9,30.3,7.7,43.2
	c7.6,18.7,27.1,27.5,42.9,38c9.9,6.7,18.3,15.1,27.9,22.3c30.5,23.6,68.2,31.3,98.7,6.4c21.8-17,36-45.2,50.7-68.8
	c23.8-36.4,44.7-58.8,28.5-105.2c-37.3-83.7-86.8-162.6-152.6-226.6c-9-7.9-20.7-19.6-33.1-17.2h-0.3L1575.6,638.7z M1287,1587.1
	c79,5.9,131.5-23.5,163.8-94.9c29.7-62.7-3.3-93.8-55.2-122.9c-71.1-41.5-105.5-58.6-188-1.2c-51.1,32.5-95.2,72.9-139.9,113.5
	c-11,10.3-30.4,24.8-26,41.2c4.1,10.6,17.3,14.5,27.6,17.5c38.6,9.6,77.4,17.9,116.2,26.3c33.7,6.7,67,15.6,101,20.5H1287
	L1287,1587.1z M2149,823.1c-1.8-9.6-5.2-18.9-4.9-29c-0.7-17.2,2.9-44.4-8.9-58.1c-12.1-11.3-32-0.5-45.2,5
	c-87.7,41.2-167.5,93.9-233.2,166.2c-25.9,28.1-24.2,38.1-13.9,73.1c6.4,24,0.7,52.4,17.5,72.4c27,30.8,68.6,30.3,107.9,27.7
	c39.6-4.1,96.1-13.4,118.8-43.7c10-13,16.5-30.1,21-46.1c14.1-49.9,27.4-100.2,40.4-150.4C2149.9,833.8,2149.9,828.5,2149,823.1
	l0-0.2L2149,823.1z M2253.9,1106.6c-37.2,1-74.4-2-108,1.1c-22.2,2.6-39.6,14.5-56,30.8c-20.5,21.3-43.5,54.3-37.5,83.2
	c10,40.8,151.6,131,200,118.5c83.7-30.9,155-87.3,222.8-143.4c28.2-23.5,39.6-40.1-3.2-54.8c-70.6-23.6-144.3-40.1-217.6-35.5h-0.4
	L2253.9,1106.6z M2017,1774.7c1.5-29.6-2.5-63.7-29.2-81.1c-12-8.1-25.6-14.1-36.4-23.9c-11.6-10.3-22.8-22.8-37.2-29.3
	c-23.2-10.8-50.2-3.7-72.8,6.3c-37.7,16-55.3,53.5-74.1,86.6c-10.6,17.4-23.3,36.5-13.7,57.3c4.8,11.5,12.4,22.4,17.7,34
	c30.5,76.9,76.3,145.9,136.7,202.8c7.7,6.9,19.3,16.2,28.9,16c17.3-0.9,22.8-34,27.1-47.7c17.7-66.7,33.5-134,49.7-201.1
	c1.5-6.5,2.7-13,3.3-19.6V1774.7L2017,1774.7z M1232.8,979.3c-25.4,0.4-54.9,0.8-78,0.3c-9.4,0-19.6-0.6-28.5,2.6
	c-16,5.4-8.6,23.2-3.6,35c36.3,81,96,146.2,160.7,205c15.7,15.1,34.2,25.3,56.3,26.9c9.2,0.9,18.4,0.6,27.5-0.2
	c27.4-2.8,55-8.6,81.9-16c50.5-14,46.3-50.1,35.3-92.5c-3.4-14-6.6-27.8-10.1-41.7c-5.7-22.2-11.1-45.1-25.6-61.4
	c-13.2-15.3-33.4-23.6-52.5-30c-55.9-18.8-109.4-30.4-163.1-28L1232.8,979.3L1232.8,979.3z"/>
<g>
	<path class="st1" d="M608.4,3243.3c0,16.3-1.6,31.1-4.7,44.5c-3.1,13.3-9,24.7-17.6,34.2s-20.7,16.8-36.2,22
		c-15.6,5.1-35.7,7.7-60.6,7.7h-68.1c-22.8,0-43.2-4.8-61.2-14.3s-32.6-23-43.8-40.4c-14.8-23.1-22.1-51.1-22.1-84.2
		s0.8-23.3,2.5-34.9c1.7-11.6,4.3-23.7,7.9-36.1c3.6-12.4,8.1-25.4,13.6-38.9s12-28.1,19.6-43.8l-66.1-31.5
		c-8.7,18.1-16.3,35.2-22.7,51.3s-11.6,31.7-15.6,46.8s-7,29.8-9.1,44.1c-2,14.3-3,28.7-3,43.3c0,22.8,2.8,44.6,8.6,65.4
		c5.7,20.8,13.8,39.8,24.3,57c8.9,14.1,19.5,26.7,31.5,37.8c12.1,11.1,25.2,20.5,39.4,28.2c14.2,7.7,29.4,13.6,45.6,17.6
		s33.1,6,50.5,6h68.1c63.8,0,111.8-15.2,144.1-45.6c32.3-30.4,48.5-75.8,48.5-136.2v-231.5h-73.5L608.4,3243.3L608.4,3243.3z"/>
	<polygon class="st1" points="531.2,2986.9 474.1,2929.9 418.4,2986.2 474.8,3043.3 	"/>
	<rect x="776.5" y="2760.7" class="st1" width="73.5" height="483.9"/>
	<path class="st1" d="M1658.7,3026.3c-18.8-7-35.3-13.3-49.5-18.6c-14.2-5.4-26.7-10.1-37.6-14.3c-10.9-4.1-21.2-8.1-31-11.7
		c-9.9-3.7-19.9-7.3-30-10.7c-10.2-3.5-21.5-7.2-34.1-11.2c-14.1-4.5-27.1-6.7-38.9-6.7s-10.5,0.4-15.4,1.3
		c-15.9,3.1-29.8,9.3-41.6,18.6c-11.9,9.3-21.8,20.8-29.9,34.4c-8.1,13.7-14.4,28-19.1,43l67.8,20.5c3.6-9.6,7.6-17.6,12.1-23.8
		c4.5-6.3,9.7-10.9,15.8-13.8c6-2.9,13-4.3,20.8-4.2s16.8,1.6,26.8,4.5l167.5,58.7c-10.5,6-22.4,12.1-35.6,18.3s-27.4,12.1-42.4,18
		c-15.1,5.8-30.8,11.3-47.2,16.4c-16.3,5.2-32.8,9.7-49.5,13.6c-16.7,3.9-33.4,7-50.2,9.2c-16.8,2.2-33,3.4-48.7,3.4h-143v-55.4
		c0-30.9-4-57.4-11.9-79.5s-19.6-40.5-35.1-55c-11.4-10.3-24.3-18-38.8-23.2c-14.4-5.1-29.9-7.7-46.5-7.7s-36.7,3.5-53.2,10.6
		c-16.4,7-31,17-43.8,29.7c-4.7,5.2-9.5,11.2-14.4,18.1c-4.9,6.9-9.4,15.2-13.4,24.7s-7.3,20.3-9.9,32.4
		c-2.6,12.1-3.9,25.7-3.9,40.9c0,26,4.3,47.8,12.9,65.4c8.6,17.7,19.7,31.9,33.2,42.6c13.5,10.7,28.6,18.4,45.3,23
		c16.7,4.6,33.2,6.9,49.5,6.9h56.7c-0.2,9.6-1.1,18.2-2.5,25.7c-1.5,7.5-3.5,14.3-6,20.5c-2.6,6.2-5.8,11.6-9.7,16.4
		c-3.9,4.8-8.5,9.3-13.6,13.6c-12.7,10.5-30.2,18.2-52.3,23.2c-22.1,4.9-50.6,7.4-85.2,7.4v73.5c22.2,0,42.2-1,60.2-2.9
		s34.5-4.8,49.5-8.6s28.5-8.7,40.6-14.6c12.1-5.9,23.2-12.8,33.2-20.6c19.5-15.7,34.1-34.1,43.8-55.4c9.7-21.2,14.8-47.3,15.3-78.2
		h143c28.9,0,57.8-3.1,86.7-9.4c29-6.3,56.8-14.2,83.4-23.7s51.6-19.8,74.8-31c23.3-11.2,43.6-21.7,61.1-31.5s31.4-18.2,41.9-25
		s16.4-10.7,17.8-11.6l-9.1-61.7c-25.7-9.2-48-17.3-66.8-24.3L1658.7,3026.3z M1152.7,3171.1H1096c-2,0-4.6-0.2-7.9-0.5
		c-3.2-0.3-6.9-0.9-10.9-1.8c-4-0.9-8.2-2.1-12.6-3.5s-8.5-3.4-12.3-5.9c-7.8-5.1-13.8-11.9-17.8-20.1c-4-8.3-6-19.1-6-32.5
		c0-26.8,5.7-47.4,17.1-61.6c11.4-14.2,27.4-21.3,48-21.3s5.6,0.1,9.6,0.3c3.9,0.2,8.1,1.1,12.4,2.7c4.4,1.6,8.7,4.2,13.1,7.9
		s8.3,8.9,11.9,15.6c3.6,6.7,6.5,15.4,8.7,26s3.4,23.8,3.4,39.4L1152.7,3171.1L1152.7,3171.1z"/>
	<polygon class="st1" points="1450.7,3359.7 1507,3416.8 1563.4,3360.4 1506.4,3303.4 	"/>
	<path class="st1" d="M2379.4,2991.4c-11.3-14.2-25.3-25.5-41.9-33.9c-16.7-8.4-35.9-12.6-57.5-12.6h-2.7c-14.1,0-26.7,1.8-37.9,5.4
		c-12.1,4-22.6,9.7-31.7,17.1c-9.1,7.4-16.9,16.1-23.7,26.2c-6.7,10.1-12.5,20.9-17.4,32.6c-4.9,11.6-9.1,23.9-12.4,36.7
		c-3.4,12.9-6.3,25.8-8.7,38.8l-58.4-28.9l-73.5,44.6l0.3,343.6h70.8l-0.7-309.7c19.7,9.4,39.9,19.6,60.7,30.7
		c20.8,11.1,41,21.4,60.7,30.9s38.1,17.5,55.4,24c17.2,6.5,32.1,9.7,44.6,9.7s11.8-0.5,19.3-1.5s15.2-3.2,23.2-6.7
		c7.9-3.5,15.9-8.5,23.8-15.1c7.9-6.6,15-15.4,21.1-26.3c6.2-10.9,11.2-24.4,15.1-40.4c3.9-16,5.9-35.2,5.9-57.5s-2.9-39.8-8.7-58.4
		c-5.8-18.6-14.4-34.9-25.7-49.2L2379.4,2991.4z M2342.6,3143.1c-3.6,10.2-7.8,17.5-12.6,22s-9.6,7-14.3,7.5
		c-4.7,0.6-8.2,0.8-10.4,0.8c-5.4,0-11.6-1-18.8-2.9s-14.9-4.5-23.2-7.9s-16.9-7.3-26-11.7c-9.1-4.5-18.2-9.2-27.3-14.1
		c4.2-26.4,8.8-47.4,13.8-63.1c4.9-15.7,10.3-27.6,16.3-35.9c5.9-8.3,12.3-13.6,19.1-15.9c6.8-2.3,14.1-3.5,22-3.5s18,1.7,25,5
		c7,3.4,13,7.6,18,12.8c4.9,5.2,8.9,10.9,12.1,17.3c3.1,6.4,5.5,12.5,7.2,18.5c1.7,5.9,2.9,11.4,3.5,16.3c0.7,4.9,1,8.5,1,10.7
		C2348,3118.2,2346.2,3133,2342.6,3143.1L2342.6,3143.1z"/>
	<polygon class="st1" points="2818.1,3370.5 2871.2,3424.2 2924.8,3370.5 2870.5,3316.1 	"/>
	<polygon class="st1" points="2690.3,3369.8 2743.3,3423.5 2797,3369.8 2742.6,3315.4 	"/>
	<polygon class="st1" points="3225.2,3302 3170.8,3355.7 3225.2,3410.1 3278.9,3356.4 	"/>
	
		<rect x="3118.9" y="3414.7" transform="matrix(0.7071 -0.7071 0.7071 0.7071 -1515.9382 3240.8086)" class="st1" width="70.2" height="71.2"/>
	<polygon class="st1" points="3084.6,3301.3 3030.9,3355 3084.6,3409.4 3138.3,3355.7 	"/>
	<path class="st1" d="M3197.3,3236.9c14.8-5.1,28-13,39.8-23.5c11.7-10.5,21.3-23.9,28.7-40.3c7.4-16.3,11.1-35.6,11.1-57.7
		s-0.6-16-1.7-26c-1.1-10-2.5-20.2-4.2-30.9c-1.7-10.6-3.5-21.2-5.4-31.7s-3.8-20.1-5.7-28.9c-1.9-8.7-3.5-16.1-4.9-22
		c-1.3-5.9-2.2-9.6-2.7-10.9l-69.5,21.1c0.9,3.4,2.1,8.2,3.7,14.4c1.6,6.3,3.2,13.3,4.9,21.2c1.7,7.8,3.4,16.2,5.2,25.2
		c1.8,8.9,3.4,17.7,4.7,26.2s2.5,16.4,3.4,23.8c0.9,7.4,1.3,13.5,1.3,18.5c0,13.2-2.1,23.5-6.2,30.9c-4.1,7.4-9,12.9-14.6,16.6
		c-5.6,3.7-11.2,6-16.9,6.9s-10,1.3-12.9,1.3h-191.3c-1.6,0-4-0.1-7.4-0.3s-7.1-0.8-11.2-1.8c-4.1-1-8.3-2.5-12.6-4.5
		s-8.2-4.8-11.7-8.2c-3.6-3.5-6.5-7.8-8.9-13.1c-2.3-5.3-3.5-11.7-3.5-19.3v-111.4h-73.2v113.8c0,4.9-0.7,10-2,15.3
		s-4.2,10.1-8.7,14.4c-4.5,4.4-11.1,8-20,10.9c-8.8,2.9-20.6,4.4-35.4,4.4h-109.1c-18.8,0-33.5-1-44.1-3s-18.6-6.2-23.8-12.4
		c-5.3-6.3-8.5-15.2-9.7-26.7s-1.8-26.7-1.8-45.5v-322.8h-73.5v322.8c0,18.3,0.6,35,1.7,50c1.1,15,3.5,28.5,7,40.4
		c3.6,12,8.8,22.4,15.6,31.2s15.9,16.2,27.2,22s25.2,10.2,41.8,13.1c13.6,2.4,29.5,3.8,47.6,4.2v0.2h121.1c21.9,0,41.6-2.8,58.9-8.4
		c17.3-5.6,32-13.7,44.1-24.2c10.1,10.7,22.9,18.9,38.6,24.3c15.7,5.5,33.3,8.2,53,8.2H3153c14.8,0,29.5-2.6,44.3-7.7L3197.3,3236.9
		z"/>
</g>
</svg>
