<?xml version="1.0" encoding="utf-8"?>
<!-- Generator: Adobe Illustrator 27.7.0, SVG Export Plug-In . SVG Version: 6.00 Build 0)  -->
<svg version="1.1" id="Layer_1" xmlns="http://www.w3.org/2000/svg" xmlns:xlink="http://www.w3.org/1999/xlink" x="0px" y="0px"
	 viewBox="0 0 3500 3500" style="enable-background:new 0 0 3500 3500;" xml:space="preserve">
<style type="text/css">
	.st0{fill:#FFFFFF;}
	.st1{fill:#D2721D;}
	.st2{fill:#E8E8E8;}
	.st3{fill:#9E9D9E;}
	.st4{fill:#D9D1DB;}
	.st5{fill:#A3A3A3;}
	.st6{fill:#E0E0E0;}
	.st7{fill:#A8ACB2;}
	.st8{fill:#EAEAEA;}
	.st9{fill:#BDC3C9;}
	.st10{fill:#C6C4C6;}
	.st11{fill:#E5E5E5;}
	.st12{fill:#A5A5A5;}
	.st13{fill:#BACECD;}
	.st14{fill:#D9D7DB;}
	.st15{fill:#DBD5E0;}
	.st16{fill:#9AA1A8;}
	.st17{fill:#A1A7AF;}
	.st18{fill:#AFAFAF;}
	.st19{fill:#959AA0;}
	.st20{fill:#D8D8D8;}
	.st21{fill:#ADACAD;}
	.st22{fill:#E8DFEA;}
	.st23{fill:#B2B2B2;}
	.st24{fill:#939393;}
	.st25{fill:#A7A7A8;}
	.st26{fill:#C1C1C1;}
	.st27{fill:#7F7F7F;}
	.st28{fill:#DDDDDD;}
	.st29{fill:url(#SVGID_1_);}
	.st30{fill:#F4F4F4;}
	.st31{fill:#E6E7E8;}
</style>
<g>
	<g id="Objects">
		<g>
			<g>
				<path class="st0" d="M94.4,1914.7c-29.3-16.6-52.4-39.3-69.2-68.4c-16.8-29-25.2-61-25.2-96.3s8.1-67.6,24.7-96.6
					c16.6-29,39.1-51.8,68.1-68.4c28.8-16.6,60.8-24.7,96.3-24.7c32.3,0,62.4,7.3,90.6,22.2c27.9,14.9,51.5,36.3,70.8,64.3
					l-57.8,41.2c-26.3-39.9-61-59.9-103.6-59.9c-33.4,0-60.8,11.4-81.9,34.2c-21.4,22.8-32,52.1-32,87.6s10.8,64.8,32.8,87.6
					c21.7,22.8,49.4,34.2,83,34.2c29,0,52.4-7.3,70.5-21.7c17.9-14.4,29-32.3,33.6-53.4H183.6v-63.2h185.6
					c0.8,7.9,1.4,17.9,1.4,29.6c0.3,94.4-67,176.9-179.6,176.6C155.7,1939.6,123.4,1931.2,94.4,1914.7L94.4,1914.7z"/>
				<path class="st0" d="M435.7,1934.2v-368.4h262.1v63.5H508.9v84.9h163.9v63.5H508.9v93.3h192.9v63.2L435.7,1934.2L435.7,1934.2z"
					/>
				<path class="st0" d="M769.6,1934.2v-368.4h77.6L966,1811l118.5-245.2h77.6v368.4h-73.2v-226l-99.3,201.3h-47.5l-99.3-201.3v226
					H769.6z"/>
			</g>
			<rect x="1947.5" y="1562.3" class="st1" width="17.3" height="370.7"/>
			<path class="st1" d="M3044,1787.9c0.7-21.2,1.8-42.2,8.8-62.4c14.8-42.1,43.6-69.5,86.6-81.5c30.3-8.5,60.6-7.8,90.1,3.2
				c49.1,18.3,75.3,55.4,82.3,106.3c3.9,28,3.4,56.1-2.7,83.9c-11.1,50.1-49.6,87.2-99.9,96.8c-29.2,5.6-57.7,3.8-85.1-7.6
				c-43.8-18.3-68.3-52.4-76.5-98.5C3045.3,1815,3045.2,1801.3,3044,1787.9L3044,1787.9z M3250.3,1788.1c0-4.1,0.2-8.1-0.1-12.2
				c-0.2-4-0.9-8.1-1.3-12.1c-4.4-40.6-35.5-64.8-70.8-63.9c-34.5,0.9-62.1,23-67.3,57.3c-2.4,16.2-2.6,32.9-1.8,49.3
				c1.7,35.5,24,62.5,58.1,68.1c29.5,4.8,62.2-8.3,75.4-38.9C3249.1,1820.4,3250.5,1804.4,3250.3,1788.1L3250.3,1788.1z"/>
			<path class="st1" d="M2998.1,1928.9h-53.3c-5.3,0-9.6-4.3-9.6-9.6v-272.2h14.7c26.6,0,48.1,21.6,48.1,48.2L2998.1,1928.9
				L2998.1,1928.9z"/>
			<path class="st1" d="M3000.8,1610v20.9h-67.5v-66.5h21.9C2980.4,1564.4,3000.8,1584.8,3000.8,1610L3000.8,1610z"/>
			<path class="st1" d="M3500,1646.8c-16.1,0-32.2,0-48.2,1.7c-39.8,4.2-69.7,24.5-87.9,60.9c-12.5,25-15.8,52-15.9,79.5
				c-0.2,43.8-0.1,87.7,0,131.5c0,2.6,0.2,5.3,0.4,8.3h63.1c0-3.8,0-7,0-10.2c0-43-0.3-86.1,0.2-129.1c0.2-12.6,1.6-25.5,4.6-37.6
				c7.1-28.3,27.6-43.5,56.7-43.7c0.1,0,0.2,0,0.3,0c14.8-0.1,26.8-12.1,26.8-26.9L3500,1646.8L3500,1646.8z"/>
			<path class="st1" d="M2645.2,1928.2c28.6,0,51.9-23.2,51.8-51.8c0-25.2,0-69.9,0.2-95.1c0.1-10.7,1.1-21.7,3.4-32.1
				c4.1-18.9,13.9-34.5,32.1-43.4c32.6-16,71.2,0.3,83.5,34.5c4.7,13,6,26.6,6,40.4c0,25.4,0,70.3,0,95.7
				c0,28.6,23.2,51.8,51.8,51.8h12c0-44.9,0.1-109.3-0.2-154.1c-0.1-12.7-1.4-25.3-4.1-37.7c-8.4-37.3-27.8-67-62.9-84.5
				c-23.5-11.7-48.5-15.4-74.9-12.2c-45.4,5.5-77.9,28.5-97.1,70c-8.9,19.4-13,40.1-13.2,61.4c-0.3,45.9-0.1,111.3-0.1,157.2
				L2645.2,1928.2L2645.2,1928.2z"/>
			<path class="st1" d="M2570.3,1643.1c-24.3,0-44,19.7-44,44c0,28.3,0,82.7-0.1,111.1c0,14.8-2.8,29.1-9.4,42.4
				c-13.5,27-38.8,36.4-67.4,30.5c-21.3-4.3-34.3-18.4-41.8-38.1c-5-13.1-6.5-26.7-6.5-40.6c0-26.4,0-78.8,0-105.2
				c0-24.3-19.7-44-44-44h-19.4c0,42.3,0.1,110.5,0,152.8c0,16.3,2.1,32.4,6.6,48c10.5,36.2,31.6,63.7,66.4,79.2
				c21.8,9.7,45.9,12.6,69.6,9.8c38-4.4,67.9-22,88.3-54.2c13.5-21.2,20.6-44.9,21-69.8c0.8-46.6,0.7-119.2,0.7-165.9H2570.3
				L2570.3,1643.1z"/>
			<path class="st1" d="M2273.4,1562.3c-24.3,0-44,19.7-44,44c0,28.3,0,163.6-0.1,191.9c0,14.8-2.8,29.1-9.4,42.4
				c-13.5,27-38.8,36.4-67.4,30.5c-21.3-4.3-34.3-18.4-41.8-38.1c0-0.1-0.1-0.1-0.1-0.2c-4.9-12.9-16.9-21.5-30.7-21.5h-38.2
				c-0.1,0-0.2,0.1-0.2,0.2c0.9,11,2.9,21.9,6,32.5c10.2,35,30.3,61.9,63.1,77.7c23.8,11.4,50.6,14.6,76.7,10.9
				c36.2-5.1,64.8-22.6,84.5-53.7c13.5-21.2,20.6-44.9,21-69.8c0.8-46.5,0.7-199.7,0.7-246.6c0-0.1-0.1-0.2-0.2-0.2L2273.4,1562.3
				L2273.4,1562.3z"/>
			<g>
				<g>
					<g>
						<polygon class="st2" points="1553.9,1656.9 1432,1656.9 1451.3,1615.4 						"/>
						<polygon class="st3" points="1451.3,1615.4 1412.2,1570 1312.8,1623.4 1361.5,1656.9 						"/>
						<polygon class="st4" points="1432,1656.9 1451.3,1615.4 1361.5,1656.9 						"/>
						<polygon class="st5" points="1361.5,1656.9 1290.1,1656.9 1312.8,1623.4 						"/>
						<polygon class="st6" points="1290.1,1656.9 1233.3,1656.9 1312.8,1623.4 						"/>
						<path class="st7" d="M1233.3,1656.9c0,0,101.8-87.1,103.3-86.9c1.5,0.2-23.8,53.4-23.8,53.4L1233.3,1656.9L1233.3,1656.9z"/>
						<polygon class="st8" points="1336.7,1570 1412.2,1570 1312.8,1623.4 						"/>
						<polygon class="st9" points="1412.2,1570 1451.3,1615.4 1553.9,1570 						"/>
						<polygon class="st10" points="1553.9,1656.9 1675.8,1656.9 1656.4,1615.4 						"/>
						<polygon class="st11" points="1553.9,1570 1451.3,1615.4 1553.9,1656.9 1656.4,1615.4 						"/>
						<polygon class="st0" points="1656.4,1615.4 1695.6,1570 1795,1623.4 1746.3,1656.9 						"/>
						<polygon class="st12" points="1675.8,1656.9 1656.4,1615.4 1746.3,1656.9 						"/>
						<polygon class="st13" points="1746.3,1656.9 1817.7,1656.9 1795,1623.4 						"/>
						<polygon class="st14" points="1817.7,1656.9 1874.5,1656.9 1795,1623.4 						"/>
						<path class="st15" d="M1874.5,1656.9c0,0-101.8-87.1-103.3-86.9c-1.5,0.2,23.8,53.4,23.8,53.4L1874.5,1656.9L1874.5,1656.9z"
							/>
						<polygon class="st0" points="1771.1,1570 1695.6,1570 1795,1623.4 						"/>
						<polygon class="st16" points="1695.6,1570 1656.4,1615.4 1553.9,1570 						"/>
					</g>
					<g>
						<polygon class="st17" points="1432,1656.9 1508.1,1844.2 1361.5,1656.9 						"/>
						<polygon class="st0" points="1361.5,1656.9 1463.8,1844.2 1553.9,1939.6 1508.1,1844.2 						"/>
						<polygon class="st8" points="1361.5,1656.9 1290.1,1656.9 1463.8,1844.2 						"/>
						<polygon class="st18" points="1553.9,1939.6 1463.8,1844.2 1233.3,1656.9 						"/>
						<polygon class="st19" points="1290.1,1656.9 1233.3,1656.9 1463.8,1844.2 						"/>
						<polygon class="st20" points="1553.9,1656.9 1508.1,1844.2 1553.9,1939.6 1599.7,1844.2 						"/>
						<polygon class="st11" points="1675.8,1656.9 1599.7,1844.2 1746.3,1656.9 						"/>
						<polygon class="st21" points="1746.3,1656.9 1644,1844.2 1553.9,1939.6 1599.7,1844.2 						"/>
						<polygon class="st22" points="1746.3,1656.9 1817.7,1656.9 1644,1844.2 						"/>
						<polygon class="st23" points="1553.9,1939.6 1644,1844.2 1874.5,1656.9 						"/>
						<polygon class="st24" points="1817.7,1656.9 1874.5,1656.9 1644,1844.2 						"/>
						<polygon class="st25" points="1675.8,1656.9 1599.7,1656.9 1599.7,1844.2 						"/>
						<polygon class="st2" points="1553.9,1656.9 1432,1656.9 1508.1,1844.2 						"/>
					</g>
					<g>
						<polygon class="st0" points="1290.1,1656.9 1432,1656.9 1412.2,1570 						"/>
						<polygon class="st26" points="1432,1656.9 1553.9,1656.9 1675.8,1656.9 1553.9,1570 						"/>
						<polygon class="st27" points="1771.1,1570 1817.7,1656.9 1874.5,1656.9 						"/>
						<polygon class="st26" points="1675.8,1656.9 1817.7,1656.9 1695.6,1570 						"/>
					</g>
					<path class="st28" d="M1817.7,1647.1h-572.8c-7.1,6-11.5,9.8-11.5,9.8h641.2c0,0-4.5-3.8-11.5-9.8H1817.7L1817.7,1647.1z"/>
					
						<linearGradient id="SVGID_1_" gradientUnits="userSpaceOnUse" x1="1611.8478" y1="-1759.103" x2="1665.8079" y2="-1796.7731" gradientTransform="matrix(1 0 0 -1 0 0)">
						<stop  offset="0" style="stop-color:#D6D6D6"/>
						<stop  offset="1" style="stop-color:#191919"/>
					</linearGradient>
					<polygon class="st29" points="1553.9,1939.6 1688.6,1656.9 1782,1656.9 					"/>
				</g>
				<polygon class="st30" points="1599.7,1656.9 1553.9,1656.9 1599.7,1844.2 				"/>
				<polygon class="st30" points="1553.9,1939.6 1553.9,1656.9 1508.1,1656.9 				"/>
				<polygon class="st31" points="1361.5,1647.1 1412.2,1570 1429.8,1647.1 				"/>
				<polygon class="st31" points="1771.1,1570 1695.6,1570 1811,1647.1 				"/>
			</g>
		</g>
	</g>
</g>
</svg>
