<?xml version="1.0" encoding="utf-8"?>
<!-- Generator: Adobe Illustrator 28.0.0, SVG Export Plug-In . SVG Version: 6.00 Build 0)  -->
<svg version="1.0" id="Layer_1" xmlns="http://www.w3.org/2000/svg" xmlns:xlink="http://www.w3.org/1999/xlink" x="0px" y="0px"
	 viewBox="0 0 3500 3500" style="enable-background:new 0 0 3500 3500;" xml:space="preserve">
<style type="text/css">
	.st0{fill:#E46E2C;}
</style>
<g>
	<g>
		<path class="st0" d="M0,3500C0,2333.33,0,1166.67,0,0c1166.67,0,2333.33,0,3500,0c0,1166.67,0,2333.33,0,3500
			C2333.33,3500,1166.67,3500,0,3500z M2916.98,2673.6c129.56-622.39,132.04-1232.04-1.93-1843.76
			c-263.39-60.09-523.43-98.04-787.13-116.24c-261.47-18.05-522.06-17.24-783.6-0.05c-264.95,17.41-686.01,81.38-780.8,130.43
			c-24.6,159.37-70.82,318.8-65.74,492.77c113.36,16.9,221.42,33.22,333.84,29.72c11.86-84.39,22.86-162.73,33.39-237.71
			c442.44-112.54,1373.34-106.64,1755.27,5.14c60.3,411.14,57.93,824.68,0.38,1234.83c-283.42,115.72-1492.51,112.53-1754.37-1.98
			c-33.1-146.74-40.6-293.65,8.25-443.67c145.32-24.58,288.06-47.11,432.53-56.22c143.62-9.05,287.38-15.79,435.69-23.79
			c0-60.24,0.35-114.48-0.1-168.72c-0.44-53.62-1.68-107.23-2.53-159.06c-230.84-38.15-1012.4,54.17-1169.22,125.56
			c-98.07,342.8-96.39,684.4,2.31,1034.24C1351.48,2848.27,2132.26,2847.78,2916.98,2673.6z"/>
	</g>
</g>
</svg>
