<?xml version="1.0" encoding="utf-8"?>
<!-- Generator: Adobe Illustrator 27.7.0, SVG Export Plug-In . SVG Version: 6.00 Build 0)  -->
<svg version="1.1" id="Layer_1" xmlns="http://www.w3.org/2000/svg" xmlns:xlink="http://www.w3.org/1999/xlink" x="0px" y="0px"
	 viewBox="0 0 3500 3500" style="enable-background:new 0 0 3500 3500;" xml:space="preserve">
<style type="text/css">
	.st0{fill:#FFFFFF;}
	.st1{fill:url(#SVGID_1_);}
	.st2{fill:url(#SVGID_00000091695963719558920940000007387466270341662859_);}
	.st3{fill:url(#SVGID_00000101803549622388661980000013607759966413486211_);}
	.st4{fill:#E8E8E8;}
	.st5{fill:#9E9D9E;}
	.st6{fill:#D9D1DB;}
	.st7{fill:#A3A3A3;}
	.st8{fill:#E0E0E0;}
	.st9{fill:#A8ACB2;}
	.st10{fill:#EAEAEA;}
	.st11{fill:#BDC3C9;}
	.st12{fill:#C6C4C6;}
	.st13{fill:#E5E5E5;}
	.st14{fill:#A5A5A5;}
	.st15{fill:#BACECD;}
	.st16{fill:#D9D7DB;}
	.st17{fill:#DBD5E0;}
	.st18{fill:#9AA1A8;}
	.st19{fill:#A1A7AF;}
	.st20{fill:#AFAFAF;}
	.st21{fill:#959AA0;}
	.st22{fill:#D8D8D8;}
	.st23{fill:#ADACAD;}
	.st24{fill:#E8DFEA;}
	.st25{fill:#B2B2B2;}
	.st26{fill:#939393;}
	.st27{fill:#A7A7A8;}
	.st28{fill:#C1C1C1;}
	.st29{fill:#7F7F7F;}
	.st30{fill:#DDDDDD;}
	.st31{fill:url(#SVGID_00000163778392637072113110000010984519599848893081_);}
	.st32{fill:#F4F4F4;}
	.st33{fill:#E6E7E8;}
</style>
<g>
	<g id="Objects">
		<g>
			<g>
				<path class="st0" d="M88.3,1865.8c-27.4-15.5-49-36.8-64.7-63.9C7.9,1774.7,0,1744.7,0,1711.7s7.6-63.2,23.1-90.3
					s36.5-48.5,63.7-63.9c26.9-15.5,56.8-23.1,90.1-23.1c30.2,0,58.4,6.8,84.8,20.8c26.1,14,48.2,34,66.2,60.1l-54,38.6
					c-24.6-37.3-57.1-56.1-96.9-56.1c-31.2,0-56.8,10.7-76.6,32c-20.1,21.3-29.9,48.7-29.9,82s10.2,60.7,30.7,82
					c20.3,21.3,46.2,32,77.7,32c27.1,0,49-6.8,66-20.3c16.8-13.4,27.1-30.2,31.5-50H171.8v-59.1h173.6c0.8,7.4,1.3,16.8,1.3,27.7
					c0.2,88.3-62.7,165.5-168,165.2C145.7,1889.1,115.5,1881.2,88.3,1865.8L88.3,1865.8z"/>
				<path class="st0" d="M407.5,1884v-344.6h245.1v59.4H476v79.4h153.3v59.4H476v87.3h180.4v59.1L407.5,1884L407.5,1884z"/>
				<path class="st0" d="M719.9,1884v-344.6h72.6l111.2,229.4l110.9-229.4h72.6V1884h-68.5v-211.4l-92.9,188.3h-44.4l-92.9-188.3
					V1884H719.9L719.9,1884z"/>
			</g>
			
				<linearGradient id="SVGID_1_" gradientUnits="userSpaceOnUse" x1="1821.79" y1="-1709.495" x2="1837.98" y2="-1709.495" gradientTransform="matrix(1 0 0 -1 0 0)">
				<stop  offset="0" style="stop-color:#75B553"/>
				<stop  offset="0.28" style="stop-color:#75B553"/>
			</linearGradient>
			<rect x="1821.8" y="1536.1" class="st1" width="16.2" height="346.8"/>
			
				<linearGradient id="SVGID_00000046311778876836220420000006783416243588311736_" gradientUnits="userSpaceOnUse" x1="3342.7351" y1="-1888" x2="3342.7351" y2="-1541.97" gradientTransform="matrix(1 0 0 -1 0 0)">
				<stop  offset="0" style="stop-color:#75EF53"/>
				<stop  offset="1" style="stop-color:#55864E"/>
			</linearGradient>
			<polygon style="fill:url(#SVGID_00000046311778876836220420000006783416243588311736_);" points="3299.2,1888 3299.2,1758.5 
				3185.5,1758.5 3185.5,1671.5 3299.2,1671.5 3299.2,1542 3386.2,1542 3386.2,1671.5 3500,1671.5 3500,1758.5 3386.2,1758.5 
				3386.2,1888 			"/>
			
				<linearGradient id="SVGID_00000010273073668337223060000008183433907146758794_" gradientUnits="userSpaceOnUse" x1="2568.5991" y1="766.3202" x2="2568.5991" y2="1197.64" gradientTransform="matrix(1 0 0 -1 0 2732)">
				<stop  offset="0" style="stop-color:#75EF53"/>
				<stop  offset="1" style="stop-color:#55864E"/>
			</linearGradient>
			<path style="fill:url(#SVGID_00000010273073668337223060000008183433907146758794_);" d="M2791.9,1883.4v-248.1h-70.9v248.1
				L2791.9,1883.4L2791.9,1883.4z M2283.3,1880.9c23.6-5.6,40.6-15.4,53.6-30.9c17-20.2,25.3-46.3,26.2-82.2
				c1.2-46.3,1.2-92.1,1-135.2l0.1-2.7v-85.7h-75.8v85.7h0.4v2.7c0.1,42.3,0.1,80.5,0,119.7c0,9.3-0.8,19.5-2.4,30.2
				c-2.1,14.2-10.1,23.6-23.3,27.2c-10.3,2.9-21.3,4.3-32.6,4.3c-9.9,0-20-1.1-30.9-3.2c-10-2-16.7-9-19-19.7
				c-0.9-4.3-1.1-8.7-1.1-12.5c0-18.4,0-36.8,0-55.2v-49.8c0-1.9-0.1-3.9-0.2-5.8h-76.8v0.8c0,6.2-0.1,12.1,0.1,17.9
				c0.3,10.7,0.2,21.5,0.1,32c-0.2,27.9-0.4,56.7,5.8,84.6c3.9,17.5,8.8,30,15.9,40.5c16.3,24,41.3,37.5,74.4,40
				c11.8,0.9,25.6,1.9,39.1,1.9C2255,1885.7,2269.9,1884.1,2283.3,1880.9L2283.3,1880.9L2283.3,1880.9L2283.3,1880.9z
				 M2066.8,1884.5v-148.7l0.6-65.8c0-1.5,0-2.9,0.1-4.3c1.9-25.5,17.3-41.3,42.1-43.2c3.7-0.3,7.3-0.5,11.2-0.7h54.5v-76.9h-6
				l-1.2,0h-2c-4.1,0-8.3,0-12.4,0h-34.6c0,0-6.9-0.1-7.9-0.1c-16.2,0-29.4,1.9-41.3,6.1c-21.6,7.6-37.3,16.7-49.3,28.8
				c-18.6,18.8-28.1,42.8-28.1,71.4c-0.1,24.8,0,49.6,0,74.4l0,2.7v156.4L2066.8,1884.5L2066.8,1884.5L2066.8,1884.5L2066.8,1884.5z
				 M2857.2,1965.7c0.1-0.2,0.2-0.3,0.3-0.5c13.3-20.8,27.2-41.7,40.7-61.8l2.6-4c20.7-31,42.6-63.7,68.8-102.8
				c3.6-5.3,7.3-10.6,11.3-16.2c1.9-2.7,3.8-5.4,5.9-8.3l2.3-3.3c0,0,6.7,10.6,8.9,14c4.7,7.3,9.1,14.2,13.4,21.1l7.3,11.6
				c12.3,19.7,29.1,46.6,39.4,63.3h75.8c-7.7-12.6-17.7-28.2-27.4-43.3c-9.1-14.2-17.7-27.7-24.1-38.1
				c-11.8-19.2-24.2-38.6-36.2-57.2c-5.4-8.4-10.8-16.8-16.2-25.2l-0.9-1.5l1-1.5c6.1-9.1,12.3-18.1,18.4-27
				c14.1-20.7,27.4-40.2,40.6-60.4c7.6-11.6,15.5-23.4,23.2-34.7c10.8-16,21.9-32.4,32.8-49.6h-81.8l-74.1,114.6l-2.2-1.3
				c-0.5-0.3-0.9-0.5-1.3-0.7c-0.8-0.4-1.6-0.8-2.2-1.7l-9.8-14.7c-12.6-18.8-25.6-38.3-38.2-57.5c-7.5-11.4-17.2-24.2-31.8-31.9
				c-10.5-5.6-21.8-7.9-38-7.9c-1.7,0-3.3,0-5.1,0.1h-19.7v68.2h17.4l0.2,0c6.3,1.1,11.8,4.4,16.8,10c2.9,3.2,5.6,6.7,8.3,10.3
				c14.1,19.6,32.6,45.3,51,71.3c2.6,3.7,5.1,7.6,7.5,11.3c1.1,1.7,2.1,3.3,3.2,5l1,1.5l-166.1,248.7L2857.2,1965.7L2857.2,1965.7
				L2857.2,1965.7L2857.2,1965.7z M2666.5,1846.6c-16.3,22.7-39.3,33.9-66.9,36.7c-13.1,1.3-26.2,2.2-39.2,2.8h-166.6V1540H2564
				c16.8,0.9,33.7,1.9,49.9,8.2c24,9.3,40.6,25.4,50.7,49c14.5,34,2.4,76.7-27.1,97.1c-3.1,2.2-5.9,5-9.5,8.1
				c4.8,2.6,8.9,4.7,12.9,6.9c29,15.7,44.6,39.2,45.6,72.9C2687.2,1806.3,2680.2,1827.5,2666.5,1846.6L2666.5,1846.6L2666.5,1846.6
				L2666.5,1846.6z M2596.1,1745c-6.5-4.3-13.5-6.7-20.5-8.1h-109.8v90.3l1.8,0.6h107.6c17.3-2.3,33-9.4,39.1-34.2
				C2618.7,1775.7,2610.9,1754.8,2596.1,1745L2596.1,1745L2596.1,1745z M2576.2,1601.6c-10.1-2.5-20.7-3.5-29.8-4h-73.6
				c-0.1,0-0.2,0-0.3,0c-1.2,0.1-2.6,0.2-3.9,0.3l-2.5,0.2v81.1h15.9c5.9,0,11.8,0,17.7,0c5.9,0,11.8,0,17.7,0
				c13.4,0,23.6-0.1,33.3-0.3c7.1-0.2,14.8-1.4,24.1-3.9c15.2-4.1,24.4-14.9,26.7-31.5C2604.4,1623.3,2593.9,1606.1,2576.2,1601.6
				L2576.2,1601.6L2576.2,1601.6L2576.2,1601.6z M2751.8,1564.2l39.1-15.5l-38.2-14.4l-40,14.4L2751.8,1564.2L2751.8,1564.2
				L2751.8,1564.2L2751.8,1564.2z M2748.1,1626.8v-57.9l-40.9-15.5v53L2748.1,1626.8L2748.1,1626.8L2748.1,1626.8z M2754.6,1626.8
				l40.9-20.3v-53l-40.9,15.5V1626.8L2754.6,1626.8L2754.6,1626.8z"/>
			<g>
				<g>
					<g>
						<polygon class="st4" points="1453.6,1624.6 1339.6,1624.6 1357.6,1585.9 						"/>
						<polygon class="st5" points="1357.6,1585.9 1321,1543.4 1228,1593.3 1273.6,1624.6 						"/>
						<polygon class="st6" points="1339.6,1624.6 1357.6,1585.9 1273.6,1624.6 						"/>
						<polygon class="st7" points="1273.6,1624.6 1206.8,1624.6 1228,1593.3 						"/>
						<polygon class="st8" points="1206.8,1624.6 1153.7,1624.6 1228,1593.3 						"/>
						<path class="st9" d="M1153.7,1624.6c0,0,95.2-81.4,96.7-81.3c1.4,0.2-22.3,49.9-22.3,49.9L1153.7,1624.6L1153.7,1624.6z"/>
						<polygon class="st10" points="1250.3,1543.4 1321,1543.4 1228,1593.3 						"/>
						<polygon class="st11" points="1321,1543.4 1357.6,1585.9 1453.6,1543.4 						"/>
						<polygon class="st12" points="1453.6,1624.6 1567.6,1624.6 1549.5,1585.9 						"/>
						<polygon class="st13" points="1453.6,1543.4 1357.6,1585.9 1453.6,1624.6 1549.5,1585.9 						"/>
						<polygon class="st0" points="1549.5,1585.9 1586.2,1543.4 1679.1,1593.3 1633.6,1624.6 						"/>
						<polygon class="st14" points="1567.6,1624.6 1549.5,1585.9 1633.6,1624.6 						"/>
						<polygon class="st15" points="1633.6,1624.6 1700.3,1624.6 1679.1,1593.3 						"/>
						<polygon class="st16" points="1700.3,1624.6 1753.4,1624.6 1679.1,1593.3 						"/>
						<path class="st17" d="M1753.4,1624.6c0,0-95.2-81.4-96.7-81.3c-1.4,0.2,22.3,49.9,22.3,49.9L1753.4,1624.6L1753.4,1624.6z"/>
						<polygon class="st0" points="1656.8,1543.4 1586.2,1543.4 1679.1,1593.3 						"/>
						<polygon class="st18" points="1586.2,1543.4 1549.5,1585.9 1453.6,1543.4 						"/>
					</g>
					<g>
						<polygon class="st19" points="1339.6,1624.6 1410.7,1799.9 1273.6,1624.6 						"/>
						<polygon class="st0" points="1273.6,1624.6 1369.3,1799.9 1453.6,1889.1 1410.7,1799.9 						"/>
						<polygon class="st10" points="1273.6,1624.6 1206.8,1624.6 1369.3,1799.9 						"/>
						<polygon class="st20" points="1453.6,1889.1 1369.3,1799.9 1153.7,1624.6 						"/>
						<polygon class="st21" points="1206.8,1624.6 1153.7,1624.6 1369.3,1799.9 						"/>
						<polygon class="st22" points="1453.6,1624.6 1410.7,1799.9 1453.6,1889.1 1496.4,1799.9 						"/>
						<polygon class="st13" points="1567.6,1624.6 1496.4,1799.9 1633.6,1624.6 						"/>
						<polygon class="st23" points="1633.6,1624.6 1537.8,1799.9 1453.6,1889.1 1496.4,1799.9 						"/>
						<polygon class="st24" points="1633.6,1624.6 1700.3,1624.6 1537.8,1799.9 						"/>
						<polygon class="st25" points="1453.6,1889.1 1537.8,1799.9 1753.4,1624.6 						"/>
						<polygon class="st26" points="1700.3,1624.6 1753.4,1624.6 1537.8,1799.9 						"/>
						<polygon class="st27" points="1567.6,1624.6 1496.4,1624.6 1496.4,1799.9 						"/>
						<polygon class="st4" points="1453.6,1624.6 1339.6,1624.6 1410.7,1799.9 						"/>
					</g>
					<g>
						<polygon class="st0" points="1206.8,1624.6 1339.6,1624.6 1321,1543.4 						"/>
						<polygon class="st28" points="1339.6,1624.6 1453.6,1624.6 1567.6,1624.6 1453.6,1543.4 						"/>
						<polygon class="st29" points="1656.8,1543.4 1700.3,1624.6 1753.4,1624.6 						"/>
						<polygon class="st28" points="1567.6,1624.6 1700.3,1624.6 1586.2,1543.4 						"/>
					</g>
					<path class="st30" d="M1700.3,1615.4h-535.9c-6.6,5.6-10.8,9.2-10.8,9.2h599.8c0,0-4.2-3.6-10.8-9.2H1700.3z"/>
					
						<linearGradient id="SVGID_00000072279081131193239210000017029112174812228501_" gradientUnits="userSpaceOnUse" x1="1507.7797" y1="-1720.2405" x2="1558.2596" y2="-1755.4805" gradientTransform="matrix(1 0 0 -1 0 0)">
						<stop  offset="0" style="stop-color:#D6D6D6"/>
						<stop  offset="1" style="stop-color:#191919"/>
					</linearGradient>
					<polygon style="fill:url(#SVGID_00000072279081131193239210000017029112174812228501_);" points="1453.6,1889.1 1579.6,1624.6 
						1666.9,1624.6 					"/>
				</g>
				<polygon class="st32" points="1496.4,1624.6 1453.6,1624.6 1496.4,1799.9 				"/>
				<polygon class="st32" points="1453.6,1889.1 1453.6,1624.6 1410.7,1624.6 				"/>
				<polygon class="st33" points="1273.6,1615.4 1321,1543.4 1337.5,1615.4 				"/>
				<polygon class="st33" points="1656.8,1543.4 1586.2,1543.4 1694.1,1615.4 				"/>
			</g>
		</g>
	</g>
</g>
</svg>
