<?xml version="1.0" encoding="utf-8"?>
<!-- Generator: Adobe Illustrator 27.7.0, SVG Export Plug-In . SVG Version: 6.00 Build 0)  -->
<svg version="1.1" id="Layer_1" xmlns="http://www.w3.org/2000/svg" xmlns:xlink="http://www.w3.org/1999/xlink" x="0px" y="0px"
	 viewBox="0 0 3500 3500" style="enable-background:new 0 0 3500 3500;" xml:space="preserve">
<style type="text/css">
	.st0{fill:#FFFFFF;}
	.st1{fill:#244D6B;}
</style>
<g>
	<g>
		<path class="st0" d="M3046.6,810.4c-199.1-270-457.8-460.2-775.2-569.2c-167-57.4-339.2-84.7-517.2-83.5c0,170.6,0,339,0,507.7
			c-3.1,0.5-5,1-6.9,1c-114.6-1.6-229.3,4.7-343.6-8.9c-100.2-11.9-198.3-32.2-293.3-66c-40.1-14.2-79.2-31-120-47.2
			c-24.2,38.3-48.9,77.3-74.1,117.1c5,3.1,9.1,5.8,13.4,8.3c162.9,92.7,339.7,139.4,525.3,152.1c93.2,6.4,186.9,4.3,280.4,6
			c5.9,0.1,11.8,0,19.3,0c0,95.6,0,189.8,0,285c7.5-1,15.3-1.6,23.5-1.6c1.4,0,2.7,0,4.1,0c22.2,0.4,45.8,0.7,72.1,0.7
			c36.7,0,74.3-0.4,110.6-0.8c28.1-0.3,57.1-0.7,85.7-0.8h1.4c10.8,0,21.1,0.6,32.1,1.2c5.4,0.3,11.3,0.6,17.8,0.9l96.5,4.4
			l-37.8,88.8c-1.9,4.5-3.6,8.8-5.2,13c-4,10.1-8.1,20.5-14.4,31.5c-69.4,121.6-138.9,243.1-208.3,364.6
			c-130.4,228.1-264.7,463.2-397.4,696c75.9,0,150.5,0,225.5,0c0,111.8,0,221.9,0,333.4c4.4,0.5,6.9,1.1,9.3,1
			c109.1-1.6,218.3-0.5,327.2-5.8c114.9-5.6,227.1-29.7,335.8-67.8c42.5-14.9,84.1-32.6,127.1-49.5c24.4,38.5,49.2,77.8,74.2,117.4
			c-2.9,2.2-4.3,3.7-6,4.6c-21.6,11.7-42.9,24.1-65.1,34.9c-176.8,85.5-364.7,122.8-560,126.2c-74.4,1.3-148.9,0.2-223.4,0.2
			c-5.9,0-11.8,0-18.4,0c0,179.6,0,357.4,0,537.1c210.1-0.6,412-39.3,605.3-119.8c304.4-126.7,548-328,728.2-603.9
			C3457.2,2064.7,3437.4,1340.3,3046.6,810.4z"/>
	</g>
	<g>
		<path class="st1" d="M1790,10.6C1027.8-1.6,380.8,473.9,131.3,1139.8c53.6,0,107.2,0,160.8,0.1c96.8,0.1,193.6,0.1,290.4,0.1
			c158.1,0,287.6-0.2,407.4-0.6h0.7c60.4,0,101.4,26.4,125.4,80.6c66.5,150.3,135.5,302.6,202.2,449.9c8.6,19.1,17.2,38.1,25.9,57.1
			c13.6-23.9,27.3-47.9,40.9-71.8c86.8-152.5,176.6-310.2,263.7-465.7c25.4-45.3,60.2-70.5,106-76.8c0-95.2,0-189.4,0-285
			c-7.6,0-13.5,0.1-19.3,0c-93.5-1.7-187.3,0.4-280.4-6c-185.6-12.7-362.4-59.4-525.3-152.1c-4.3-2.4-8.4-5.2-13.4-8.3
			c25.2-39.9,49.9-78.8,74.1-117.1c40.8,16.1,80,33,120,47.2c95.1,33.8,193.2,54.1,293.3,66c114.4,13.6,229.1,7.3,343.6,8.9
			c1.9,0,3.8-0.5,6.9-1c0-168.8,0-337.1,0-507.7c178.1-1.2,350.2,26.1,517.2,83.5c317.4,109,576.1,299.2,775.2,569.2
			c390.7,529.9,410.6,1254.3,48.6,1808.5c-180.2,275.9-423.9,477.2-728.2,603.9c-193.3,80.5-395.2,119.2-605.3,119.8
			c0-179.7,0-357.5,0-537.1c6.7,0,12.6,0,18.4,0c74.5,0,148.9,1.1,223.4-0.2c195.3-3.5,383.1-40.7,560-126.2
			c22.1-10.7,43.4-23.1,65.1-34.9c1.7-0.9,3.1-2.4,6-4.6c-25-39.6-49.9-78.8-74.2-117.4c-43.1,16.9-84.6,34.6-127.1,49.5
			c-108.7,38.1-220.9,62.2-335.8,67.8c-108.9,5.3-218.2,4.1-327.2,5.8c-2.4,0-4.9-0.5-9.3-1c0-111.5,0-221.6,0-333.4
			c-75,0-149.5,0-225.5,0c-15.5,27.3-31.1,54.5-46.6,81.7c-25.7,45.1-62.3,68-108.8,68c0,0,0,0,0,0c-4.2,0-8.5-0.2-12.8-0.6
			c-8.9-0.8-20.4-1.7-31.5-1.7c-8,0-14.9,0.4-21,1.4c-9,1.4-17.8,2.1-26.2,2.1c-33.9,0-63.3-10.9-87.2-32.5
			c-5.5-5-10.6-10.4-15.5-16.5c-156.3,96.9-385.8,119.1-575.4,43.5H203.1v-882.6H30.2c-5,49.6-7.9,99.8-8.6,150.6
			C8.2,2698.4,788.1,3473.9,1730.7,3489.4c981,16.1,1772.5-777.8,1769.3-1739.3C3502.8,804.7,2741.3,25.7,1790,10.6z"/>
		<path class="st1" d="M641.5,2337.4c168.3,0,336.4,0,505,0c-2.7-6.3-5.3-12.6-8-18.9c-166,0-331.3,0-497.1,0L641.5,2337.4z"/>
		<path class="st1" d="M1086,2196.5c-34.9-80.7-70.1-161.2-104.7-240.1c-16.2-37-32.4-74-48.5-111c-15.8-36.1-32-72.9-47.7-108.4
			c-25.5-57.6-51.7-117.2-77.1-176.3c-22.3,0.4-46.8,0.6-76.1,0.6c-16.7,0-33.3-0.1-50-0.1c-16.3-0.1-32.6-0.1-48.9-0.1l6.9,628.9
			C779.5,2143.2,944.2,2143.6,1086,2196.5z"/>
	</g>
	<path class="st0" d="M2051.1,1177.3c-90,0.4-180.1,2.8-270.1,1c-36.5-0.7-56.3,12.9-73.7,44.1
		c-112.4,200.7-226.6,400.3-340.3,600.3c-7.7,13.5-15.9,26.6-29.2,48.7c-10.5-21.1-17.1-33.3-22.8-45.8
		c-87.1-192.6-174.8-384.9-260.3-578.2c-13.8-31.3-31.4-40.8-64.6-40.7c-323,1-646.1,0.3-969.1,0.3c-7.1,0-14.1,0.3-21,0.8v298.9
		c86.6,0,175.4,0,270.1,0c0,297.4,0,589.4,0,882.6c104.6,0,202.2,0,304.9,0c-3.3-299.2-6.5-594-9.7-890.3
		c18.3-2.2,29.4-4.7,40.5-4.7c70-0.3,140.1,0.9,210.1-0.6c27.2-0.6,40.9,10.6,51.2,34.7c41.6,97.2,84.9,193.6,127.2,290.4
		c75.4,172.7,151.6,345.2,225,518.7c17.2,40.7,38.6,63.1,85.2,56c22.3-3.4,45.8-2.2,68.5-0.2c28.2,2.5,43.8-9.8,57.4-33.8
		c217-381.1,434.9-761.7,652.4-1142.5c5.9-10.3,9.5-21.9,16.1-37.4C2079,1178.5,2065,1177.3,2051.1,1177.3z"/>
	<g>
		<path class="st1" d="M3142.6,1100.4c-222.3-193-602.9-174.4-795.8,0H3142.6z"/>
		<path class="st1" d="M2354.1,1177.3c200.4,170.9,566.9,179.2,780.7,0H2354.1z"/>
	</g>
</g>
</svg>
