<?xml version="1.0" encoding="utf-8"?>
<!-- Generator: Adobe Illustrator 27.7.0, SVG Export Plug-In . SVG Version: 6.00 Build 0)  -->
<svg version="1.1" id="Layer_1" xmlns="http://www.w3.org/2000/svg" xmlns:xlink="http://www.w3.org/1999/xlink" x="0px" y="0px"
	 viewBox="0 0 3500 3500" style="enable-background:new 0 0 3500 3500;" xml:space="preserve">
<style type="text/css">
	.st0{fill:none;stroke:#1981A4;stroke-width:2;}
	.st1{fill:none;stroke:#1D74A1;stroke-width:2;}
	.st2{fill:none;stroke:#1C75A2;stroke-width:2;}
	.st3{fill:none;stroke:#20669F;stroke-width:2;}
	.st4{fill:none;stroke:#26509B;stroke-width:2;}
	.st5{fill:none;stroke:#B59B5B;stroke-width:2;}
	.st6{fill:none;stroke:#C4A868;stroke-width:2;}
	.st7{fill:none;stroke:#B59A5B;stroke-width:2;}
	.st8{fill:none;stroke:#BA9F5F;stroke-width:2;}
	.st9{fill:none;stroke:#A2884A;stroke-width:2;}
	.st10{fill:#1886A5;}
	.st11{fill:#1A7CA3;}
	.st12{fill:#F6D992;}
	.st13{fill:#1E6EA0;}
	.st14{fill:#1F6B9F;}
	.st15{fill:#E1C480;}
	.st16{fill:#C4A967;}
	.st17{fill:#CBAF6E;}
	.st18{fill:#C6AB69;}
	.st19{fill:#225D9D;}
	.st20{fill:#BCA161;}
	.st21{fill:#AD9354;}
	.st22{fill:#A68C4E;}
	.st23{fill:#967C40;}
	.st24{fill:#294398;}
</style>
<g>
	<path vector-effect="non-scaling-stroke" class="st0" d="M2479.5,571.5c-175.9-9.1-288.8-13.9-338.8-14.4
		c-360.9-3.3-714.6-3.5-1081.7-22.1"/>
	<path vector-effect="non-scaling-stroke" class="st1" d="M2907.5,1000.2l-298.5,17.2"/>
	<path vector-effect="non-scaling-stroke" class="st2" d="M889.8,1020.8c-94.9-13.9-192.6-21.6-293.1-23.1"/>
	<path vector-effect="non-scaling-stroke" class="st3" d="M798.1,1476.1c-221.2,8-442.1,2.4-662.8-16.8"/>
	<path vector-effect="non-scaling-stroke" class="st4" d="M886,2403.6l-2.9-20.1c-0.7-4.6-3.4-6.8-8.1-6.6l-383.3,17.7"/>
	<path vector-effect="non-scaling-stroke" class="st5" d="M1161.5,1805.5c-109.5-5.3-222-1.2-337.6,12.5"/>
	<path vector-effect="non-scaling-stroke" class="st6" d="M1866,1622.6l-428.4-26.9"/>
	<path vector-effect="non-scaling-stroke" class="st7" d="M1723.7,1765.4l-449.3-6.1"/>
	<path vector-effect="non-scaling-stroke" class="st8" d="M2695.2,1718.4l-245.7,2.5"/>
	<path vector-effect="non-scaling-stroke" class="st8" d="M2177.8,1699.1c-81.3,11.1-167.1,15.2-257.3,12.2"/>
	<path vector-effect="non-scaling-stroke" class="st9" d="M2459.8,2046.1l-292.7,9"/>
</g>
<path class="st10" d="M2479.5,571.5c-175.9-9.1-288.8-13.9-338.8-14.4c-360.9-3.3-714.6-3.5-1081.7-22.1
	c131.4-132.2,262.8-263.6,394.2-394.4c43.3-43.2,76.5-71.8,99.5-85.8c111.4-67.5,252-72.9,368.2-15.7
	c34.8,17.2,84.7,58.1,149.6,122.7C2207,298.2,2343.4,434.7,2479.5,571.5z"/>
<path class="st11" d="M1059,535.1c367.1,18.6,720.8,18.7,1081.7,22.1c50,0.4,162.9,5.2,338.8,14.4l428,428.7l-298.5,17.2
	c-20.3-55-53.8-93.5-100.5-115.5c-30.8-14.5-78-21.4-141.6-20.6c-56.9,0.7-140.6,1.1-251,1.2c-3.9,0-7.7-1.6-10.6-4.4
	c-58.6-58-113-112.4-163.2-163.2c-58.6-59.2-100.7-93.2-126.3-101.9c-40.1-13.5-83.6-13-130.7,1.5c-25.3,7.8-58.1,32-98.5,72.5
	c-82.2,82.4-145.2,145.7-188.9,190.1c-3.1,3.1-6.9,4.7-11.3,4.7c-80.8,0.4-181.7,0.2-302.5-0.4c-92.5-0.4-157.2,46.1-194,139.5
	c-94.9-13.9-192.6-21.6-293.1-23.1L1059,535.1z"/>
<path class="st12" d="M1752.2,796.2c38.6,0,69.5,9.5,92.7,28.5c14.5,12,57.7,53.7,129.5,125.1c3.2,3.1,3.2,6.2,0.1,9.4
	c-54,56.8-127.4,131.1-220.3,222.9c-0.4,0.4-0.8,0.6-1.2,0.8c-0.4,0.1-0.8,0.1-1.2,0.1c-0.4,0-0.9,0-1.3-0.1
	c-0.4-0.2-0.8-0.4-1.1-0.8c-92.7-91.9-166-166.3-219.9-223.3c-3.1-3.2-3.1-6.3,0.1-9.4c72-71.4,115.2-113,129.8-124.9
	C1682.5,805.6,1713.4,796.2,1752.2,796.2z"/>
<path class="st13" d="M889.8,1020.8l-3.7,361c0,4.5-1.6,8.3-4.8,11.4l-83.1,82.8c-221.2,8-442.1,2.4-662.8-16.8l461.4-461.7
	C697.1,999.2,794.8,1006.9,889.8,1020.8z"/>
<path class="st14" d="M2907.5,1000.2c157.5,157.3,315.3,314.8,473.4,472.6c69.1,69.1,108.3,153.4,117.5,252.9c0.4,4.3-2.8,8.1-7,8.5
	c-0.2,0-0.5,0-0.7,0h-520.2c-6.6,0-12.8-2.6-17.4-7.2l-331.9-331.9c-3-3-4.5-6.6-4.5-10.9c0.4-81.5,0.5-185.9,0.4-313.4
	c0-9-2.7-26.8-8.1-53.5L2907.5,1000.2z"/>
<path class="st15" d="M1481.2,1006.8l220.6,220.6c2.2,2.2,2.2,5.7,0,7.9l-220.6,220.6c-2.2,2.2-5.7,2.2-7.9,0l-220.6-220.6
	c-2.2-2.2-2.2-5.7,0-7.9l220.6-220.6C1475.4,1004.6,1479,1004.6,1481.2,1006.8z"/>
<path class="st15" d="M1801,1231l223.4-222.6c1.4-1.3,3.5-1.3,4.9,0l222.6,223.4c1.3,1.4,1.3,3.5,0,4.9l-223.4,222.6
	c-1.4,1.3-3.5,1.3-4.9,0L1801,1235.9C1799.7,1234.5,1799.7,1232.3,1801,1231z"/>
<path class="st16" d="M1161.5,1805.5c-109.5-5.3-222-1.2-337.6,12.5c-34-71.4-23.7-135.2,31.1-191.3
	c36.4-37.3,150.7-151.7,342.8-343.1c3-2.9,6-2.9,9,0.1l219.4,219.3c3,3,2.9,5.9-0.4,8.8C1323.5,1600.3,1235.4,1698.2,1161.5,1805.5z
	"/>
<path class="st17" d="M1866,1622.6l-428.4-26.9l306.5-306.6c3.1-3.1,6.3-3.2,9.7-0.3c63.7,55.4,104.4,95.3,122.1,119.7
	C1929.6,1483.1,1926.4,1554.5,1866,1622.6z"/>
<path class="st18" d="M2695.2,1718.4l-245.7,2.5c-36.4-57.3-81.7-109.3-135.8-156.1c-3.5-3-6.8-2.8-10,0.5l-125.9,133.8
	c-81.3,11.1-167.1,15.2-257.3,12.2c6.9-32.2,18.3-56.3,34.2-72.3c110.3-111.8,226.2-228.1,347.8-349c3.1-3.1,6.2-3.1,9.4,0
	c51.8,51.1,163.8,163.6,336,337.3C2673.2,1652.8,2689,1683.2,2695.2,1718.4z"/>
<path class="st19" d="M135.3,1459.4c220.7,19.1,441.7,24.7,662.8,16.8c-31.8,32.4-63.6,64.3-95.3,95.7
	c-43.2,42.9-70.5,78.1-82,105.7c-20.1,48.2-19.6,97.4,1.5,147.5c11.3,26.9,40.2,62.9,86.8,108.2c40.5,39.4,98.1,96.8,172.7,172.5
	c3.1,3.1,4.7,6.9,4.7,11.3l-0.4,286.5l-2.9-20.1c-0.7-4.6-3.4-6.8-8.1-6.6l-383.3,17.7c-98.4-98.2-196.7-196.6-294.9-295.1
	c-66-66.1-103.6-105.2-112.9-117.3c-34.4-44.8-58.3-94.5-71.7-149.1c-16.4-67.1-13.4-133.7,9-199.7
	C43.9,1566.7,81.9,1508.7,135.3,1459.4z"/>
<path class="st20" d="M1437.6,1595.8l428.4,26.9l-142.3,142.8l-449.3-6.1L1437.6,1595.8z"/>
<path class="st21" d="M2177.8,1699.1c-16.4,44.1-10.8,80.5,16.8,109.4c36.7,38.5,74,76.3,111.8,113.6c1.1,1.1,2.8,1.1,3.9,0
	c0,0,0,0,0,0c37.9-37.1,75.4-75,112.5-113.6c17.9-18.6,26.8-47.8,26.7-87.6l245.7-2.5c6.8,52.9-5.8,95.7-37.8,128.4
	c-64.4,65.9-130.2,132.3-197.6,199.3l-292.7,9c-48-45.2-95.2-91.1-141.6-137.8c-47.1-47.2-73.8-75.7-80.2-85.6
	c-22.6-35-30.9-75.2-24.9-120.5C2010.8,1714.3,2096.5,1710.2,2177.8,1699.1z"/>
<path class="st21" d="M1274.4,1759.3l449.3,6.1l-329.2,329.2c-3.2,3.2-6.3,3.2-9.4,0c-32.4-33.2-64.6-65.9-96.5-97.9
	C1212.2,1920.3,1207.5,1841.1,1274.4,1759.3z"/>
<path class="st22" d="M1161.5,1805.5c-14.6,91.3,5.8,166.8,61.2,226.4c32.5,35,70.9,72.3,115,111.8c3.2,2.8,3.3,5.8,0.3,8.9
	l-88.4,88.3c-2.7,2.8-5.5,2.8-8.4,0c-91.3-91.9-212.7-211.4-364.2-358.5c-19.7-19-37.4-40.5-53.1-64.5
	C939.5,1804.3,1052.1,1800.1,1161.5,1805.5z"/>
<path class="st23" d="M2167.2,2055.2l292.7-9c-60.8,60.7-122.9,122.3-186.3,184.7c-19.1,18.9-48.9,46.5-89.2,83
	c-27,24.4-51.5,38.3-73.5,41.6c-76.6,11.8-113.7-9.7-171.5-66.9c-27.5-27.2-54.3-54.3-80.3-81.1c-5-5.1-13.3-5.2-18.4-0.2
	c-0.1,0.1-0.1,0.1-0.2,0.2c-59.3,59.8-118.2,118.7-176.6,176.7c-31.8,31.6-56.6,51.5-74.5,59.8c-29.3,13.7-62.2,17-98.7,10.1
	c-30.2-5.9-63.6-26.9-100-63.2c-39.3-39-68.2-68.8-86.8-89.5c-4.3-4.9-4.2-9.6,0.4-14.2c106.7-106.4,227.6-227.6,362.7-363.7
	c20.6-20.7,42.7-42.5,69-53.9c38.4-16.5,77.3-18.8,116.6-6.9c24.6,7.4,54.3,28.5,89.2,63.6c96.2,96.7,154.5,155.5,174.9,176.4
	c3.1,3.2,6.6,3.7,10.5,1.6C2151.8,2091.2,2165.1,2074.8,2167.2,2055.2z"/>
<path class="st24" d="M886,2403.6c-3.9,98,39.2,165.4,129.2,202.1c26.3,10.8,66.8,14.5,121.5,11.2c22.7-1.3,105.8-1.3,249.2,0
	c4.6,0,8.6,1.6,11.8,4.9l349.2,349.2c2.3,2.2,3.6,5.2,3.6,8.4v508.1c0,9.5-4.7,13.7-14.1,12.6c-108-11.6-196.3-52-265-121.1
	c-326.3-328.3-652.9-656.5-979.8-984.4l383.3-17.7c4.7-0.2,7.4,2,8.1,6.6L886,2403.6z"/>
</svg>
