<?xml version="1.0" encoding="utf-8"?>
<!-- Generator: Adobe Illustrator 27.7.0, SVG Export Plug-In . SVG Version: 6.00 Build 0)  -->
<svg version="1.1" id="Layer_1" xmlns="http://www.w3.org/2000/svg" xmlns:xlink="http://www.w3.org/1999/xlink" x="0px" y="0px"
	 viewBox="0 0 3500 3500" style="enable-background:new 0 0 3500 3500;" xml:space="preserve">
<style type="text/css">
	.st0{fill:#C3C3C3;}
	.st1{fill:#00A2E8;}
</style>
<path class="st0" d="M1542.7,578.3h139.1c23.2,3,49.7,5.2,69.5,7.8c585.1,74.5,1151.3,411.5,1421.7,950.4c0.2,0.3,0,0.7-0.3,0.8
	c0,0,0,0-0.1,0c-57.1,22.4-114.9,40.9-173.3,55.4c-32,8-67.6,13.1-106.8,15.5c-49.4,2.9-97.1-3.9-146.1-18.4
	c-153.4-45.2-316.2-71.8-475.4-45.1c-1.2,0.2-2.2-0.2-2.9-1.2c-37.6-55.6-75.9-111.1-114.9-166.6c-35.6-50.8-72.8-97.1-111.7-139.1
	c-61.1-66.1-133.3-120.6-218.2-154.6c-17.6-7.1-35.4-14.1-53.2-21.2c-34.1-13.5-71.2-23.9-111.4-31.2
	c-344.6-62.6-723.4,150.1-823.2,493.6c-6.2,21.5-13.2,42.1-18.4,63.8c-64.7,275.3,53.3,565.5,272.5,737.1
	c75.3,59,158.3,99.9,249.1,122.7c15,3.8,34.9,8,59.6,12.7c274.9,52.2,569.7-72.4,727.7-303.3c9.1-13.4,16.4-23.7,21.8-30.9
	c34.2-45.9,63.7-96.1,93.8-143.2c38.5-60,85.6-114.7,150.6-144.7c5-2.3,10.2-3.9,15.4-4.6c49.4-7.4,102.8-5.4,154.5,2.2
	c116,17,231,55.7,348.2,60.5c55,2.2,103.5-5.5,155.9-20.9c78.8-23.1,157.3-45.9,235.3-68.6c65.1-18.9,131.4-35.7,197-49.7
	c1.1-0.2,1.4,0.2,1,1.2c-38.9,96.3-87.9,188.9-147,277.9c-264.7,398.6-695.1,663-1149.4,791.7c-151.1,42.8-304.8,71-461.1,84.7
	c-21,1.8-42.3,2.7-63.9,2.5c-37-0.3-72.4-0.3-106.2,0c-16.8,0.2-34.5-1-52.9-3.5c-345.6-46.1-676.1-179.5-967.3-369.3
	c-241.4-157.3-461.2-372.4-535.9-659.4c-22.6-87-19.9-175.3,8.3-264.9c29.9-95.1,83.1-183,145.4-261.8
	c53-67,109.4-128.7,169.3-185.2C546,976.7,781.8,816,1041.9,707.2C1202.6,640,1369.5,597.1,1542.7,578.3z"/>
<path class="st1" d="M1321.9,1246.7c112.5-50.9,238.7-53.8,357-16.9c204.7,64,371,240,385.7,460.3c0.9,13.7,1.7,27.6,2.5,41.8
	c14.7,271.8-211.7,527.3-482,550.7c-31,2.7-63,4.5-94.3,2.3c-221.8-15.2-423-176.8-481.9-391.5c-17-61.9-25.1-128.8-19.3-191.6
	c16.1-173.1,115.3-334.5,265.9-421.6C1275.3,1269,1297.4,1257.8,1321.9,1246.7z"/>
</svg>
