<?xml version="1.0" encoding="utf-8"?>
<!-- Generator: Adobe Illustrator 27.7.0, SVG Export Plug-In . SVG Version: 6.00 Build 0)  -->
<svg version="1.1" id="Layer_1" xmlns="http://www.w3.org/2000/svg" xmlns:xlink="http://www.w3.org/1999/xlink" x="0px" y="0px"
	 viewBox="0 0 3500 3500" style="enable-background:new 0 0 3500 3500;" xml:space="preserve">
<style type="text/css">
	.st0{fill:#FFFFFF;}
	.st1{fill:#0AAAE2;}
	.st2{fill:url(#SVGID_1_);}
	.st3{fill:url(#SVGID_00000130607414140545925310000013807735991093912508_);}
	.st4{fill:url(#SVGID_00000013166530056768886770000016929799906455309499_);}
	.st5{fill:url(#SVGID_00000084531707826232269750000005312764591492757403_);}
	.st6{fill:#E8E8E8;}
	.st7{fill:#9E9D9E;}
	.st8{fill:#D9D1DB;}
	.st9{fill:#A3A3A3;}
	.st10{fill:#E0E0E0;}
	.st11{fill:#A8ACB2;}
	.st12{fill:#EAEAEA;}
	.st13{fill:#BDC3C9;}
	.st14{fill:#C6C4C6;}
	.st15{fill:#E5E5E5;}
	.st16{fill:#A5A5A5;}
	.st17{fill:#BACECD;}
	.st18{fill:#D9D7DB;}
	.st19{fill:#DBD5E0;}
	.st20{fill:#9AA1A8;}
	.st21{fill:#A1A7AF;}
	.st22{fill:#AFAFAF;}
	.st23{fill:#959AA0;}
	.st24{fill:#D8D8D8;}
	.st25{fill:#ADACAD;}
	.st26{fill:#E8DFEA;}
	.st27{fill:#B2B2B2;}
	.st28{fill:#939393;}
	.st29{fill:#A7A7A8;}
	.st30{fill:#C1C1C1;}
	.st31{fill:#7F7F7F;}
	.st32{fill:#DDDDDD;}
	.st33{fill:url(#SVGID_00000075151864124762968580000005145359821989467549_);}
	.st34{fill:#F4F4F4;}
	.st35{fill:#E6E7E8;}
</style>
<g>
	<g id="Objects">
		<g>
			<g>
				<path class="st0" d="M83,1894.8c-25.8-14.6-46-34.6-60.8-60.1C7.4,1809.2,0,1781,0,1750s7.2-59.4,21.7-84.9
					c14.6-25.5,34.4-45.6,59.9-60.1c25.3-14.6,53.4-21.7,84.7-21.7c28.4,0,54.9,6.4,79.7,19.6c24.6,13.1,45.3,32,62.3,56.5
					l-50.8,36.3c-23.1-35.1-53.7-52.7-91.1-52.7c-29.4,0-53.4,10-72.1,30.1c-18.8,20-28.2,45.8-28.2,77.1s9.5,57,28.9,77.1
					c19.1,20,43.4,30.1,73,30.1c25.5,0,46-6.4,62-19.1c15.8-12.7,25.5-28.4,29.6-47h-98.1v-55.6h163.2c0.7,6.9,1.2,15.8,1.2,26
					c0.2,83-58.9,155.6-157.9,155.3C136.9,1916.8,108.5,1909.4,83,1894.8L83,1894.8z"/>
				<path class="st0" d="M383.1,1912v-324h230.5v55.8h-166v74.7h144.1v55.8H447.6v82.1h169.6v55.6L383.1,1912L383.1,1912z"/>
				<path class="st0" d="M676.8,1912v-324H745l104.5,215.7L953.8,1588h68.2v324h-64.4v-198.7l-87.3,177h-41.8l-87.3-177V1912H676.8
					L676.8,1912z"/>
			</g>
			<rect x="1712.7" y="1584.9" class="st1" width="15.2" height="326"/>
			
				<linearGradient id="SVGID_1_" gradientUnits="userSpaceOnUse" x1="3352.1499" y1="-1911.41" x2="3352.1499" y2="-1586.1" gradientTransform="matrix(1 0 0 -1 0 0)">
				<stop  offset="0.15" style="stop-color:#5672B6"/>
				<stop  offset="0.5" style="stop-color:#86D4EF"/>
				<stop  offset="0.92" style="stop-color:#5877B7"/>
			</linearGradient>
			<polygon class="st2" points="3311.3,1911.4 3311.3,1789.6 3204.3,1789.6 3204.3,1707.9 3311.3,1707.9 3311.3,1586.1 3393,1586.1 
				3393,1707.9 3500,1707.9 3500,1789.6 3393,1789.6 3393,1911.4 			"/>
			
				<linearGradient id="SVGID_00000013177560778207350140000005394536510552958109_" gradientUnits="userSpaceOnUse" x1="2471.6099" y1="-1912.605" x2="2471.6099" y2="-1584.8799" gradientTransform="matrix(1 0 0 -1 0 0)">
				<stop  offset="0.15" style="stop-color:#5672B6"/>
				<stop  offset="0.5" style="stop-color:#86D4EF"/>
				<stop  offset="0.92" style="stop-color:#5877B7"/>
			</linearGradient>
			<path style="fill:url(#SVGID_00000013177560778207350140000005394536510552958109_);" d="M2582.3,1584.9
				c0,0-96.1,281.3-106.4,297.5c-2.4,3.8-5.7,7.5-9.7,11c-12.9,11.2-32.6,19.7-49.1,19.3c-20.4-0.5-46.1-7.8-56.2-22.7h9.4
				c18.3,0,34.5-11.7,40.4-29l1.4-4.1l92.4-272L2582.3,1584.9L2582.3,1584.9z"/>
			
				<linearGradient id="SVGID_00000159454557319344828550000006631886260174755472_" gradientUnits="userSpaceOnUse" x1="2501.3716" y1="-1911.6448" x2="2501.3716" y2="-1584.8889" gradientTransform="matrix(1 0 0 -1 0 0)">
				<stop  offset="0" style="stop-color:#AFDBE8"/>
				<stop  offset="0.49" style="stop-color:#FFFFFA"/>
				<stop  offset="1" style="stop-color:#AFDBE8"/>
			</linearGradient>
			<path style="fill:url(#SVGID_00000159454557319344828550000006631886260174755472_);" d="M1868.7,1747.4c0-48.2,0-96.4,0-144.6
				c0-3.7-0.7-7.7,0.4-11.2c0.7-2.4,3.5-5.3,5.9-6c3.9-1.1,8.3-0.6,12.6-0.6c51.9,0,103.9,0.3,155.8-0.1
				c21.3-0.2,40.8,5.3,57.9,17.5c17.7,12.6,26.8,30.7,28.3,52.3c0.6,8.8,0.5,17.8-0.1,26.7c-1.6,22.8-14.1,40.3-29.7,55.4
				c-12.8,12.3-27.1,23-43.8,29.8c-6.9,2.8-7.1,6.1-3.1,11.4c11.6,15.2,23.1,30.4,34.5,45.8c19.4,26.2,38.8,52.4,58,78.7
				c5,6.8,3.9,8.9-4.3,9c-20.6,0.2-41.2-0.1-61.8-0.1c-5.6,0-9.3-1.9-12.7-6.8c-19.1-28.1-38.6-55.9-58.1-83.8
				c-9.8-14.1-19.6-28.3-29.7-42.2c-4.9-6.7-7.2-13.7-6.6-22.1c0.8-11.3,0.7-11.1,11.4-13.9c18.4-4.8,36.8-9.7,52.9-21
				c21.2-14.9,31.5-42,23-66.3c-3-8.5-8.1-16.1-17.7-18.2c-10-2.2-20.1-4.7-30.2-5c-20.6-0.8-41.2-0.3-61.8-0.2
				c-13.9,0-14.1,0.1-14.1,13.8c-0.1,51.9-0.2,103.9-0.2,155.8c0,31.8,0.2,63.6,0.2,95.5c0,14.6-0.1,14.7-15,14.7
				c-12.2,0.1-24.3,0.1-36.5,0c-15.6-0.1-15.6-0.2-15.6-15.3c0.1-45.4,0.2-90.8,0.3-136.2c0-4.2,0-8.4,0-12.6L1868.7,1747.4
				L1868.7,1747.4z M2856,1748.5c0,11.7,0.1,23.4,0,35.1c-0.4,37.4-0.9,74.8-1.2,112.3c-0.1,15.3,0.1,15.4,15.7,15.6
				c11.2,0.2,22.5,0.1,33.7,0c19.4,0,19.4,0,19.3-18.9c-0.2-83.7-0.3-167.4-0.8-251.2c0-7.4,2.4-9.9,9.6-9.9
				c24.3,0.3,48.7-0.1,73,0.4c6.9,0.2,13.7,2.5,20.5,4.2c14.5,3.7,21.8,13.9,23.7,28c3.3,24.2-6.5,42.6-25.7,56.8
				c-15.8,11.7-34.1,17.1-52.9,21.3c-10,2.3-10.1,2.8-10.9,13c-0.8,10.4,2.5,19.1,8.5,27.4c13.6,18.9,26.9,37.9,40.1,57
				c14.4,20.7,28.8,41.3,42.9,62.2c4.6,6.8,10.3,10,18.7,9.7c15.9-0.5,31.8-0.1,47.7-0.2c3.3,0,6.6,0.1,9.8-0.1
				c7.5-0.5,8-1.7,4.2-8.6c-0.7-1.2-1.5-2.4-2.3-3.5c-16.8-22.8-33.5-45.6-50.3-68.4c-13.2-18-26.5-35.9-39.8-53.9
				c-2.8-3.8-4-6.6,1.7-9.8c12.1-6.8,24.2-14,35.2-22.3c21-15.9,36.9-35.7,39.4-63.2c1-11,0.6-22.3-0.6-33.3
				c-2.4-21.1-13.4-37.4-31.1-48.8c-16.5-10.7-35-14.8-54.6-14.7c-51.9,0.2-103.9,0.1-155.8,0.1c-2.8,0-5.6,0-8.4,0.2
				c-10.1,0.7-10.3,0.8-10.7,10.4c-0.1,2.8,0,5.6,0,8.4c0,48.2,0,96.4,0,144.5C2855.1,1748.5,2855.5,1748.5,2856,1748.5L2856,1748.5
				z M2601.1,1893.5c0,17.9-0.1,17.9,18.1,17.9c66.4,0,132.9,0.1,199.3,0c23,0,21.9,2.7,21.7-22.1c-0.2-27.2,3.1-24.9-24.8-25
				c-45.4-0.1-90.8,0-136.1-0.1c-12.9,0-13.1-0.2-13.2-13.4c-0.2-21.1-0.2-42.1-0.2-63.2c0-13.9,0.1-14,14-14.1
				c42.1-0.1,84.2,0,126.3-0.1c4.2,0,8.4-0.1,12.6-0.3c4.9-0.3,7.8-2.8,7.8-8c0-12.2,0.1-24.3,0-36.5c0-4.4-2.4-7-6.9-7.2
				c-3.7-0.2-7.5-0.2-11.2-0.2c-38.8,0-77.7,0.2-116.5-0.1c-30.4-0.2-25.8,4-26.1-25.8c-0.2-18.2,0.3-36.5,0-54.7
				c-0.1-7.2,2.7-10.4,9.9-9.6c2.3,0.2,4.7,0,7,0c44.9,0,89.8,0,134.8,0c4.2,0,8.4-0.1,12.6-0.1c4.7,0.1,6.8-2.3,6.8-6.8
				c0.1-10.8,0.1-21.5,0.1-32.3c0-4.5-2.2-7-6.8-7.1c-2.8-0.1-5.6-0.1-8.4-0.1c-67.4,0-134.8,0-202.1,0c-3.7,0-7.5,0.2-11.2,0.2
				c-5.2,0.1-7.6,2.8-7.5,7.9c0.1,3.3-0.1,6.6-0.1,9.8c0,48.7,0,97.3,0,146C2601.2,1797.2,2601.2,1845.3,2601.1,1893.5
				L2601.1,1893.5z M2173.8,1748.9c0,16.4,0,32.8,0,49.1c-0.1,33.7-0.3,67.4-0.3,101.1c0,11.7,0.3,12,11.6,12.3
				c14,0.3,28.1,0.3,42.1,0c10.1-0.2,10.7-1.1,11.1-11.7c0.1-1.9,0-3.7,0-5.6c0-97.8,0-195.6-0.1-293.5c0-2.8-0.1-5.6-0.1-8.4
				c-0.1-4.4-2.1-7.2-6.7-7.2c-17.3,0-34.6,0-51.9,0.5c-2.1,0.1-5,3.6-5.8,6.1c-1,3.4-0.4,7.4-0.4,11.2c0,48.7,0,97.3,0,146
				L2173.8,1748.9L2173.8,1748.9z M2353.6,1652.9h-36.1c-16.5,0-29.5,10.8-34.1,24.8c1.1,3.1,2.3,6.7,3.7,10.6
				c19.6,55.7,65.4,185.8,72.2,198.9c0.5,0.9,1,1.8,1.6,2.7h9.4c18.3,0,34.5-11.7,40.4-29l1.4-4.1L2353.6,1652.9L2353.6,1652.9z"/>
			
				<linearGradient id="SVGID_00000115512099213177589730000007369367468807552684_" gradientUnits="userSpaceOnUse" x1="2272.2004" y1="-1638.1227" x2="2479.5105" y2="-1596.4127" gradientTransform="matrix(1 0 0 -1 0 0)">
				<stop  offset="0" style="stop-color:#5672B6"/>
				<stop  offset="0.16" style="stop-color:#80C6FB"/>
				<stop  offset="0.32" style="stop-color:#6FA5DE"/>
				<stop  offset="0.48" style="stop-color:#628BC8"/>
				<stop  offset="0.62" style="stop-color:#5A7CBB"/>
				<stop  offset="0.74" style="stop-color:#5877B7"/>
			</linearGradient>
			<path style="fill:url(#SVGID_00000115512099213177589730000007369367468807552684_);" d="M2474,1584.9l-24.1,68h-132.4
				c-16.5,0-29.5,10.8-34.1,24.8c-3.2-9.2-5.1-14.6-5.1-14.6l-14-44.8c0,0-7.6-33.4,25.4-33.4L2474,1584.9L2474,1584.9z"/>
			<g>
				<g>
					<g>
						<polygon class="st6" points="1366.5,1668.1 1259.4,1668.1 1276.3,1631.7 						"/>
						<polygon class="st7" points="1276.3,1631.7 1241.9,1591.7 1154.5,1638.7 1197.3,1668.1 						"/>
						<polygon class="st8" points="1259.4,1668.1 1276.3,1631.7 1197.3,1668.1 						"/>
						<polygon class="st9" points="1197.3,1668.1 1134.6,1668.1 1154.5,1638.7 						"/>
						<polygon class="st10" points="1134.6,1668.1 1084.6,1668.1 1154.5,1638.7 						"/>
						<path class="st11" d="M1084.6,1668.1c0,0,89.5-76.6,90.9-76.4c1.3,0.2-21,46.9-21,46.9L1084.6,1668.1z"/>
						<polygon class="st12" points="1175.5,1591.7 1241.9,1591.7 1154.5,1638.7 						"/>
						<polygon class="st13" points="1241.9,1591.7 1276.3,1631.7 1366.5,1591.7 						"/>
						<polygon class="st14" points="1366.5,1668.1 1473.7,1668.1 1456.7,1631.7 						"/>
						<polygon class="st15" points="1366.5,1591.7 1276.3,1631.7 1366.5,1668.1 1456.7,1631.7 						"/>
						<polygon class="st0" points="1456.7,1631.7 1491.2,1591.7 1578.6,1638.7 1535.8,1668.1 						"/>
						<polygon class="st16" points="1473.7,1668.1 1456.7,1631.7 1535.8,1668.1 						"/>
						<polygon class="st17" points="1535.8,1668.1 1598.5,1668.1 1578.6,1638.7 						"/>
						<polygon class="st18" points="1598.5,1668.1 1648.5,1668.1 1578.6,1638.7 						"/>
						<path class="st19" d="M1648.5,1668.1c0,0-89.5-76.6-90.9-76.4c-1.3,0.2,21,46.9,21,46.9L1648.5,1668.1z"/>
						<polygon class="st0" points="1557.6,1591.7 1491.2,1591.7 1578.6,1638.7 						"/>
						<polygon class="st20" points="1491.2,1591.7 1456.7,1631.7 1366.5,1591.7 						"/>
					</g>
					<g>
						<polygon class="st21" points="1259.4,1668.1 1326.3,1832.9 1197.3,1668.1 						"/>
						<polygon class="st0" points="1197.3,1668.1 1287.3,1832.9 1366.5,1916.8 1326.3,1832.9 						"/>
						<polygon class="st12" points="1197.3,1668.1 1134.6,1668.1 1287.3,1832.9 						"/>
						<polygon class="st22" points="1366.5,1916.8 1287.3,1832.9 1084.6,1668.1 						"/>
						<polygon class="st23" points="1134.6,1668.1 1084.6,1668.1 1287.3,1832.9 						"/>
						<polygon class="st24" points="1366.5,1668.1 1326.3,1832.9 1366.5,1916.8 1406.8,1832.9 						"/>
						<polygon class="st15" points="1473.7,1668.1 1406.8,1832.9 1535.8,1668.1 						"/>
						<polygon class="st25" points="1535.8,1668.1 1445.8,1832.9 1366.5,1916.8 1406.8,1832.9 						"/>
						<polygon class="st26" points="1535.8,1668.1 1598.5,1668.1 1445.8,1832.9 						"/>
						<polygon class="st27" points="1366.5,1916.8 1445.8,1832.9 1648.5,1668.1 						"/>
						<polygon class="st28" points="1598.5,1668.1 1648.5,1668.1 1445.8,1832.9 						"/>
						<polygon class="st29" points="1473.7,1668.1 1406.8,1668.1 1406.8,1832.9 						"/>
						<polygon class="st6" points="1366.5,1668.1 1259.4,1668.1 1326.3,1832.9 						"/>
					</g>
					<g>
						<polygon class="st0" points="1134.6,1668.1 1259.4,1668.1 1241.9,1591.7 						"/>
						<polygon class="st30" points="1259.4,1668.1 1366.5,1668.1 1473.7,1668.1 1366.5,1591.7 						"/>
						<polygon class="st31" points="1557.6,1591.7 1598.5,1668.1 1648.5,1668.1 						"/>
						<polygon class="st30" points="1473.7,1668.1 1598.5,1668.1 1491.2,1591.7 						"/>
					</g>
					<path class="st32" d="M1598.5,1659.5h-503.8c-6.2,5.3-10.1,8.7-10.1,8.7h563.8c0,0-3.9-3.3-10.1-8.7H1598.5L1598.5,1659.5z"/>
					
						<linearGradient id="SVGID_00000067235720725438162840000015092312271368210843_" gradientUnits="userSpaceOnUse" x1="1417.5055" y1="-1758.0065" x2="1464.9655" y2="-1791.1365" gradientTransform="matrix(1 0 0 -1 0 0)">
						<stop  offset="0" style="stop-color:#D6D6D6"/>
						<stop  offset="1" style="stop-color:#191919"/>
					</linearGradient>
					<polygon style="fill:url(#SVGID_00000067235720725438162840000015092312271368210843_);" points="1366.5,1916.8 1485,1668.1 
						1567.1,1668.1 					"/>
				</g>
				<polygon class="st34" points="1406.8,1668.1 1366.5,1668.1 1406.8,1832.9 				"/>
				<polygon class="st34" points="1366.5,1916.8 1366.5,1668.1 1326.3,1668.1 				"/>
				<polygon class="st35" points="1197.3,1659.5 1241.9,1591.7 1257.4,1659.5 				"/>
				<polygon class="st35" points="1557.6,1591.7 1491.2,1591.7 1592.7,1659.5 				"/>
			</g>
		</g>
	</g>
</g>
</svg>
