<?xml version="1.0" encoding="utf-8"?>
<!-- Generator: Adobe Illustrator 27.7.0, SVG Export Plug-In . SVG Version: 6.00 Build 0)  -->
<svg version="1.1" id="Layer_1" xmlns="http://www.w3.org/2000/svg" xmlns:xlink="http://www.w3.org/1999/xlink" x="0px" y="0px"
	 viewBox="0 0 3500 3500" style="enable-background:new 0 0 3500 3500;" xml:space="preserve">
<style type="text/css">
	.st0{fill:#FFFFFF;}
	.st1{fill:url(#SVGID_1_);}
	.st2{fill:url(#SVGID_00000138535962758245516560000013048878247426930314_);}
	.st3{fill:#E8E8E8;}
	.st4{fill:#9E9D9E;}
	.st5{fill:#D9D1DB;}
	.st6{fill:#A3A3A3;}
	.st7{fill:#E0E0E0;}
	.st8{fill:#A8ACB2;}
	.st9{fill:#EAEAEA;}
	.st10{fill:#BDC3C9;}
	.st11{fill:#C6C4C6;}
	.st12{fill:#E5E5E5;}
	.st13{fill:#A5A5A5;}
	.st14{fill:#BACECD;}
	.st15{fill:#D9D7DB;}
	.st16{fill:#DBD5E0;}
	.st17{fill:#9AA1A8;}
	.st18{fill:#A1A7AF;}
	.st19{fill:#AFAFAF;}
	.st20{fill:#959AA0;}
	.st21{fill:#D8D8D8;}
	.st22{fill:#ADACAD;}
	.st23{fill:#E8DFEA;}
	.st24{fill:#B2B2B2;}
	.st25{fill:#939393;}
	.st26{fill:#A7A7A8;}
	.st27{fill:#C1C1C1;}
	.st28{fill:#7F7F7F;}
	.st29{fill:#DDDDDD;}
	.st30{fill:url(#SVGID_00000147929633206788939720000001256277734259965830_);}
	.st31{fill:#F4F4F4;}
	.st32{fill:#E6E7E8;}
</style>
<g>
	<g id="Objects">
		<g>
			<g>
				<path class="st0" d="M98.3,1878.8c-30.5-17.2-54.5-40.9-72-71.2C8.8,1777.4,0,1744.1,0,1707.4s8.5-70.3,25.7-100.5
					c17.2-30.2,40.7-53.9,70.9-71.2c29.9-17.2,63.3-25.7,100.3-25.7c33.6,0,65,7.6,94.3,23.2c29.1,15.5,53.7,37.8,73.7,66.9
					l-60.2,42.9c-27.4-41.5-63.5-62.4-107.9-62.4c-34.7,0-63.3,11.9-85.3,35.6c-22.3,23.7-33.3,54.2-33.3,91.2s11.3,67.5,34.2,91.2
					c22.6,23.7,51.4,35.6,86.4,35.6c30.2,0,54.5-7.6,73.4-22.6c18.6-15,30.2-33.6,35-55.6H191.2v-65.8h193.2
					c0.9,8.2,1.4,18.6,1.4,30.8c0.3,98.3-69.8,184.1-187,183.9C162.1,1904.8,128.5,1896.1,98.3,1878.8L98.3,1878.8z"/>
				<path class="st0" d="M453.5,1899.2v-383.5h272.8v66.1H529.8v88.4h170.6v66.1H529.8v97.2h200.8v65.8L453.5,1899.2L453.5,1899.2z"
					/>
				<path class="st0" d="M801.2,1899.2v-383.5H882l123.7,255.3l123.4-255.3h80.8v383.5h-76.2v-235.3l-103.4,209.6h-49.4
					l-103.4-209.6v235.3L801.2,1899.2L801.2,1899.2z"/>
			</g>
			
				<linearGradient id="SVGID_1_" gradientUnits="userSpaceOnUse" x1="2027.51" y1="-1704.9249" x2="2045.53" y2="-1704.9249" gradientTransform="matrix(1 0 0 -1 0 0)">
				<stop  offset="0" style="stop-color:#75B553"/>
				<stop  offset="0.28" style="stop-color:#75B553"/>
			</linearGradient>
			<rect x="2027.5" y="1511.9" class="st1" width="18" height="385.9"/>
			
				<linearGradient id="SVGID_00000071537401510507221950000001963869972905586068_" gradientUnits="userSpaceOnUse" x1="2858.6418" y1="741.9996" x2="2858.6418" y2="1221.98" gradientTransform="matrix(1 0 0 -1 0 2732)">
				<stop  offset="0" style="stop-color:#75EF53"/>
				<stop  offset="1" style="stop-color:#55864E"/>
			</linearGradient>
			<path style="fill:url(#SVGID_00000071537401510507221950000001963869972905586068_);" d="M3107.1,1898.4v-276.1h-78.9v276.1
				H3107.1z M2541.2,1895.7c26.3-6.3,45.2-17.2,59.6-34.4c18.9-22.5,28.1-51.6,29.2-91.4c1.3-51.5,1.3-102.6,1.1-150.4l0.1-3V1521
				h-84.4v95.4h0.4v3c0.1,47.1,0.1,89.6,0,133.2c0,10.4-0.9,21.7-2.6,33.6c-2.3,15.8-11.2,26.3-25.9,30.3
				c-11.5,3.2-23.7,4.8-36.3,4.8c-11,0-22.2-1.2-34.4-3.6c-11.1-2.2-18.6-10-21.2-21.9c-1-4.8-1.2-9.7-1.2-13.9c0-20.5,0-41,0-61.4
				v-55.4c0-2.2-0.1-4.3-0.2-6.5h-85.5v0.9c0,6.9-0.1,13.4,0.1,20c0.3,11.9,0.2,23.9,0.1,35.6c-0.2,31-0.4,63.1,6.4,94.2
				c4.3,19.5,9.8,33.4,17.7,45.1c18.2,26.7,46,41.7,82.8,44.5c13.2,1,28.5,2.1,43.6,2.1C2509.6,1901.1,2526.2,1899.3,2541.2,1895.7
				L2541.2,1895.7L2541.2,1895.7L2541.2,1895.7z M2300.2,1899.7v-165.5l0.7-73.3c0-1.6,0-3.2,0.1-4.8c2.2-28.4,19.2-46,46.8-48.1
				c4.1-0.3,8.2-0.5,12.4-0.7h60.6v-85.6h-6.7l-1.3,0h-2.2c-4.6,0-9.2,0-13.8,0h-38.6c0,0-7.7-0.1-8.8-0.1c-18,0-32.7,2.2-46,6.8
				c-24.1,8.4-41.5,18.6-54.9,32.1c-20.7,20.9-31.2,47.6-31.3,79.4c-0.1,27.6,0,55.2,0,82.8l0,3v174L2300.2,1899.7L2300.2,1899.7
				L2300.2,1899.7L2300.2,1899.7z M3179.9,1990c0.1-0.2,0.2-0.4,0.4-0.5c14.8-23.1,30.3-46.4,45.3-68.8l2.9-4.4
				c23-34.6,47.4-70.9,76.6-114.3c4-5.9,8.1-11.8,12.5-18c2.1-2.9,4.3-6,6.5-9.2l2.6-3.6c0,0,7.5,11.7,9.9,15.6
				c5.2,8.1,10.1,15.8,14.9,23.4l8.1,12.9c13.7,22,32.4,51.9,43.8,70.5h84.4c-8.5-14-19.7-31.3-30.5-48.2
				c-10.1-15.8-19.7-30.8-26.9-42.4c-13.1-21.4-26.9-42.9-40.3-63.7c-6-9.3-12-18.7-18-28.1l-1.1-1.7l1.1-1.6
				c6.8-10.1,13.7-20.1,20.5-30.1c15.7-23,30.5-44.7,45.1-67.2c8.4-12.9,17.3-26,25.8-38.6c12-17.8,24.4-36.1,36.5-55.2h-91
				l-82.5,127.5l-2.4-1.4c-0.6-0.3-1-0.6-1.4-0.7c-0.9-0.4-1.8-0.9-2.5-1.9l-10.9-16.3c-14-20.9-28.5-42.6-42.5-64
				c-8.4-12.7-19.1-26.9-35.3-35.5c-11.6-6.2-24.3-8.8-42.3-8.8c-1.9,0-3.7,0-5.7,0.1h-21.9v75.9h19.4l0.2,0
				c7,1.2,13.1,4.9,18.7,11.2c3.2,3.6,6.3,7.4,9.2,11.5c15.6,21.8,36.2,50.5,56.8,79.4c2.9,4.2,5.7,8.4,8.3,12.6
				c1.2,1.9,2.4,3.7,3.6,5.6l1.1,1.6L3093.8,1990L3179.9,1990L3179.9,1990L3179.9,1990L3179.9,1990z M2967.6,1857.5
				c-18.1,25.3-43.7,37.7-74.4,40.8c-14.6,1.4-29.1,2.4-43.7,3.1h-185.4v-385.2h189.5c18.7,1,37.5,2.1,55.5,9.1
				c26.7,10.3,45.2,28.3,56.4,54.6c16.1,37.8,2.7,85.4-30.1,108.1c-3.5,2.4-6.5,5.6-10.5,9c5.4,2.8,9.9,5.2,14.4,7.6
				c32.3,17.4,49.7,43.7,50.7,81.2C2990.7,1812.6,2982.9,1836.2,2967.6,1857.5L2967.6,1857.5L2967.6,1857.5L2967.6,1857.5z
				 M2889.3,1744.4c-7.2-4.8-15.1-7.4-22.8-8.9h-122.2V1836l2,0.6H2866c19.2-2.6,36.7-10.5,43.5-38.1
				C2914.4,1778.6,2905.7,1755.4,2889.3,1744.4L2889.3,1744.4L2889.3,1744.4z M2867.1,1584.8c-11.2-2.8-23-3.9-33.1-4.4h-81.9
				c-0.1,0-0.2,0-0.3,0c-1.4,0.1-2.8,0.2-4.4,0.3l-2.8,0.2v90.2h17.6c6.6,0,13.1,0,19.7,0c6.6,0,13.1,0,19.7,0
				c14.9,0,26.3-0.1,37.1-0.3c7.9-0.2,16.4-1.5,26.8-4.3c16.9-4.5,27.2-16.6,29.8-35C2898.5,1609,2886.8,1589.8,2867.1,1584.8
				L2867.1,1584.8L2867.1,1584.8L2867.1,1584.8z M3062.6,1543.2l43.6-17.2l-42.5-16l-44.5,16L3062.6,1543.2L3062.6,1543.2
				L3062.6,1543.2L3062.6,1543.2z M3058.5,1612.8v-64.4l-45.5-17.2v59L3058.5,1612.8L3058.5,1612.8L3058.5,1612.8z M3065.6,1612.8
				l45.5-22.6v-59l-45.5,17.2V1612.8L3065.6,1612.8z"/>
			<g>
				<g>
					<g>
						<polygon class="st3" points="1617.7,1610.5 1490.8,1610.5 1510.9,1567.3 						"/>
						<polygon class="st4" points="1510.9,1567.3 1470.2,1520.1 1366.7,1575.6 1417.4,1610.5 						"/>
						<polygon class="st5" points="1490.8,1610.5 1510.9,1567.3 1417.4,1610.5 						"/>
						<polygon class="st6" points="1417.4,1610.5 1343.1,1610.5 1366.7,1575.6 						"/>
						<polygon class="st7" points="1343.1,1610.5 1284,1610.5 1366.7,1575.6 						"/>
						<path class="st8" d="M1284,1610.5c0,0,106-90.6,107.6-90.4c1.6,0.2-24.8,55.6-24.8,55.6L1284,1610.5z"/>
						<polygon class="st9" points="1391.5,1520.1 1470.2,1520.1 1366.7,1575.6 						"/>
						<polygon class="st10" points="1470.2,1520.1 1510.9,1567.3 1617.7,1520.1 						"/>
						<polygon class="st11" points="1617.7,1610.5 1744.6,1610.5 1724.5,1567.3 						"/>
						<polygon class="st12" points="1617.7,1520.1 1510.9,1567.3 1617.7,1610.5 1724.5,1567.3 						"/>
						<polygon class="st0" points="1724.5,1567.3 1765.3,1520.1 1868.7,1575.6 1818,1610.5 						"/>
						<polygon class="st13" points="1744.6,1610.5 1724.5,1567.3 1818,1610.5 						"/>
						<polygon class="st14" points="1818,1610.5 1892.3,1610.5 1868.7,1575.6 						"/>
						<polygon class="st15" points="1892.3,1610.5 1951.4,1610.5 1868.7,1575.6 						"/>
						<path class="st16" d="M1951.4,1610.5c0,0-106-90.6-107.6-90.4c-1.6,0.2,24.8,55.6,24.8,55.6L1951.4,1610.5z"/>
						<polygon class="st0" points="1843.9,1520.1 1765.3,1520.1 1868.7,1575.6 						"/>
						<polygon class="st17" points="1765.3,1520.1 1724.5,1567.3 1617.7,1520.1 						"/>
					</g>
					<g>
						<polygon class="st18" points="1490.8,1610.5 1570,1805.5 1417.4,1610.5 						"/>
						<polygon class="st0" points="1417.4,1610.5 1523.9,1805.5 1617.7,1904.8 1570,1805.5 						"/>
						<polygon class="st9" points="1417.4,1610.5 1343.1,1610.5 1523.9,1805.5 						"/>
						<polygon class="st19" points="1617.7,1904.8 1523.9,1805.5 1284,1610.5 						"/>
						<polygon class="st20" points="1343.1,1610.5 1284,1610.5 1523.9,1805.5 						"/>
						<polygon class="st21" points="1617.7,1610.5 1570,1805.5 1617.7,1904.8 1665.4,1805.5 						"/>
						<polygon class="st12" points="1744.6,1610.5 1665.4,1805.5 1818,1610.5 						"/>
						<polygon class="st22" points="1818,1610.5 1711.5,1805.5 1617.7,1904.8 1665.4,1805.5 						"/>
						<polygon class="st23" points="1818,1610.5 1892.3,1610.5 1711.5,1805.5 						"/>
						<polygon class="st24" points="1617.7,1904.8 1711.5,1805.5 1951.4,1610.5 						"/>
						<polygon class="st25" points="1892.3,1610.5 1951.4,1610.5 1711.5,1805.5 						"/>
						<polygon class="st26" points="1744.6,1610.5 1665.4,1610.5 1665.4,1805.5 						"/>
						<polygon class="st3" points="1617.7,1610.5 1490.8,1610.5 1570,1805.5 						"/>
					</g>
					<g>
						<polygon class="st0" points="1343.1,1610.5 1490.8,1610.5 1470.2,1520.1 						"/>
						<polygon class="st27" points="1490.8,1610.5 1617.7,1610.5 1744.6,1610.5 1617.7,1520.1 						"/>
						<polygon class="st28" points="1843.9,1520.1 1892.3,1610.5 1951.4,1610.5 						"/>
						<polygon class="st27" points="1744.6,1610.5 1892.3,1610.5 1765.3,1520.1 						"/>
					</g>
					<path class="st29" d="M1892.3,1600.2H1296c-7.4,6.3-12,10.2-12,10.2h667.5c0,0-4.6-4-12-10.2H1892.3z"/>
					
						<linearGradient id="SVGID_00000135689707503724943400000016862470768743306907_" gradientUnits="userSpaceOnUse" x1="1678.0399" y1="-1716.8801" x2="1734.2198" y2="-1756.1001" gradientTransform="matrix(1 0 0 -1 0 0)">
						<stop  offset="0" style="stop-color:#D6D6D6"/>
						<stop  offset="1" style="stop-color:#191919"/>
					</linearGradient>
					<polygon style="fill:url(#SVGID_00000135689707503724943400000016862470768743306907_);" points="1617.7,1904.8 1757.9,1610.5 
						1855.2,1610.5 					"/>
				</g>
				<polygon class="st31" points="1665.4,1610.5 1617.7,1610.5 1665.4,1805.5 				"/>
				<polygon class="st31" points="1617.7,1904.8 1617.7,1610.5 1570,1610.5 				"/>
				<polygon class="st32" points="1417.4,1600.2 1470.2,1520.1 1488.5,1600.2 				"/>
				<polygon class="st32" points="1843.9,1520.1 1765.3,1520.1 1885.4,1600.2 				"/>
			</g>
		</g>
	</g>
</g>
</svg>
