<?xml version="1.0" encoding="utf-8"?>
<!-- Generator: Adobe Illustrator 27.7.0, SVG Export Plug-In . SVG Version: 6.00 Build 0)  -->
<svg version="1.1" id="Layer_1" xmlns="http://www.w3.org/2000/svg" xmlns:xlink="http://www.w3.org/1999/xlink" x="0px" y="0px"
	 viewBox="0 0 3500 3500" style="enable-background:new 0 0 3500 3500;" xml:space="preserve">
<style type="text/css">
	.st0{fill:#330B30;}
	.st1{fill:#FFFFFF;}
	.st2{fill:#F1D945;}
</style>
<g>
	<rect y="799.9" class="st0" width="3500" height="1900.2"/>
	<g>
		<path class="st1" d="M1276.6,1462.7c4.4,25.2-0.7,47.2-8.8,68.6c-10.4,27.3-22.4,54-32.1,81.6c-16.7,47.1-1.1,67.7,49.3,65.3
			c50.1-2.4,97.8-14,140.6-41.1c40.1-25.4,79.5-52,119.7-77.4c36.5-23.1,74.2-43.3,118.8-45.7c3.6-0.2,7.1,0,11.8,0
			c6.9,21.9-1.9,41.9-4.6,62.1c-2.3,17.2-7.2,34.1-8.2,51.2c-2.2,36.6,13.1,58.2,47.2,71.5c33.6,13.1,68.7,14.3,102.6,6.4
			c38.9-9,76.7-23.2,114.4-36.7c11.3-4,20.8-13.1,33.3-21.3c-64.7-68.2-144.1-89.3-232.5-92.4c2.4-12,3.3-19.9,5.6-27.4
			c5.6-18.3,14.1-36.1,17.5-54.7c5.4-29.8,23.7-44.7,50.2-55c89.1-34.6,179.6-62.9,276.4-60.3c22.1,0.6,45,7.4,65.7,15.7
			c23,9.2,33.4,29.7,34.3,54.8c1.4,39.3-7.8,76.2-26.3,110.5c-16.9,31.2-35.2,61.7-53.5,93.7c9.9,19.8,27.7,27.8,47.7,32.5
			c41.1,9.6,82,3.5,122.5-3.8c102.1-18.3,199.6-52.1,296.7-87.6c15.1-5.5,30.2-11.2,45.3-16.8c-0.1-2.2-0.1-4.4-0.1-6.6
			c-70.5-15-140.5-33.8-211.7-44c-74.1-10.6-131.2,23.1-171.1,85.5c-12,18.7-22.9,38-34.3,57c-2.3-0.8-4.7-1.7-7-2.6
			c1.9-9.1,2.4-18.8,5.9-27.2c21.4-50.5,44-100.5,77.2-144.6c30.1-40.1,65-74.5,116.3-86.3c39.3-9,78.7-6.4,116.5,5.7
			c59.1,19.1,117.6,39.9,175.7,61.8c92.9,35.1,188.3,58.1,287.4,66.2c15.4,1.3,30.7,4.3,46.1,6.7c1.7,0.3,3.1,1.7,7.8,4.3
			c-2.1,8.3-4.2,17.6-6.7,26.9c-0.7,2.6-2,5.1-3.4,7.5c-12.9,22-22.5,47.4-39.9,64.9c-18.6,18.6-47.1,7.1-71,7.3
			c-162.2,1-316.4,40.1-468.3,93c-59.3,20.7-119.6,40.1-180.8,53.6c-85.2,18.8-163.5,0.7-228.9-60.5c-2.7-2.5-5.7-4.6-8.7-6.6
			c-1.5-1-3.4-1.3-7.3-2.7c-10.1,6.8-21,14.9-32.6,21.8c-47.7,28.6-94.7,58.5-143.7,84.8c-30.8,16.5-65.3,23.3-100.9,21.4
			c-28.6-1.5-53-11.9-74-31.5c-24.1-22.5-33.4-49.3-26.9-81.7c3.8-18.8,7.7-37.5,10.6-56.5c1.3-8.6,0.2-17.5,0.2-31.5
			c-15.4,4.1-28.5,5.1-38.8,10.8c-31.8,17.8-62.9,37-93.8,56.4c-37.1,23.4-73,48.6-110.6,71.1c-33.2,19.8-69.7,32.1-108.6,35.8
			c-63.8,6.1-100.6-25.3-105.8-89.5c-2.7-33.3,1.9-65.5,12.2-97.1c3-9.1,4.7-18.6,7-27.9c-18-9.3-32.1-3.3-44.4,3.6
			c-43.9,24.3-87.9,48.7-130.6,75.1c-51.3,31.6-100.5,66.7-152.2,97.8c-97.3,58.6-201.1,100.7-315.1,112.3
			c-85.2,8.7-170,7.7-250.7-27.3c-94.6-41-143.5-116.3-155.2-215.6c-4.8-40.9,4.2-81.8,37.4-116.3c2.2,6.6,5.3,11.1,5,15.4
			c-5.6,90.8,46.5,142.3,122.3,175.3c58.4,25.4,121.4,32.2,184.4,33.3c96.4,1.6,186.5-24.4,274.2-63.9
			c107.7-48.5,209-108.5,311.8-165.9c33.4-18.6,68-35.4,103.2-50.2C1214.9,1464.4,1244,1459.5,1276.6,1462.7z M2050.3,1568.3
			c8.2-5.1,18.2-9.8,26.3-16.7c28.7-24.6,25-52.2-9.2-68.3c-25.2-11.8-52.1-15.4-79.8-13.9c-14.9,0.8-29.7,2.7-44.4,12.9
			C1979.2,1511.2,2013,1538.3,2050.3,1568.3z"/>
		<path class="st1" d="M3088.7,1732.5c-18.9-28.9-7.6-51,7.1-73.4c13.5-20.5,25.1-42.2,36.7-62c24.6,29.1,47.2,59.6,73.8,86.1
			c26.8,26.8,62.4,40.4,101.5,51.5c-8.9,40.6-26.9,75.9-49.5,108.8c-3.3,4.8-17,6.2-24.2,4c-81.8-25.6-161.5-11.3-239.6,14.1
			c-61.4,19.9-113.9,57-164.2,96.9c-39.3,31.2-78,63.2-117.9,93.7c-42.8,32.6-89.8,55.8-144.8,59.6c-85.1,5.9-142.5-41.1-152-126.1
			c-5.5-49.5,0.8-98.4,13-146.6c1.6-6.2,6.9-11.4,10.5-17.2c2.6,0.8,5.1,1.7,7.7,2.5c0,8.6,0.1,17.2,0,25.8
			c-0.6,93.8,78,151.2,167.6,124c67.6-20.5,125.6-57.8,182.6-97.6c21.7-15.1,43.6-30.1,65.3-45.3c56.6-39.7,117.7-69.6,185.3-85.8
			C3059.8,1742.8,3071.6,1738,3088.7,1732.5z"/>
		<path class="st1" d="M3240.9,1658.5c-26.5-25.6-59.2-48.2-58.5-91.2c1.3-71.1,4.7-142.2,8.6-213.3c3.2-58.3,8.7-116.4,12.3-174.7
			c0.6-9.7-1.8-20-4.6-29.5c-7-23.7-22.5-35.4-45.8-35.9c-23.9-0.6-44.1,11.5-49.8,34.8c-4.3,17.3-4.6,36.1-3.6,54
			c6.3,107.5,14.4,214.8,20.2,322.3c2.9,52.6-29.4,89.2-60.5,125.5c-2.1-0.4-4.2-0.8-6.3-1.2c-2.3-26.8-4.9-53.5-6.8-80.3
			c-6.7-92.8-13.1-185.6-20-278.4c-1.3-17.6-1.9-34.3,9.1-49.8c4.6-6.5,7.2-14.9,8.7-22.8c8.6-43.6,31.1-79.6,61.5-110.8
			c27.1-27.9,55.8-29,84.6-3.1c34.1,30.7,56.7,68.6,67.5,113.4c3,12.4,7.8,24.3,10.6,36.8c2.8,12.3,6.5,25.1,5.6,37.4
			c-7.5,107.4-15.9,214.8-24.1,322.2c-1.1,14.2-2,28.4-3,42.6C3244.9,1656.9,3242.9,1657.7,3240.9,1658.5z"/>
		<path class="st1" d="M1181,1387.3c-41.1-13.9-77.4-28-114.7-38.5c-186.2-52.8-374.9-71.6-566.7-36.5
			c-90,16.5-174.2,47.9-246.8,105.7c-45.8,36.5-81.5,80.9-105.7,134.3c-2.8,6.1-6.7,11.7-12.4,16.6c2-49.8,14-96.5,38.2-139.8
			c39-69.7,97.9-116.9,170.3-148.7c71.3-31.3,146.3-46.4,223.5-50.1c198.5-9.5,387.4,28.1,565.4,117.5c13.8,6.9,27,15.4,39.9,24
			C1175.4,1374.2,1176.7,1379.7,1181,1387.3z"/>
		<path class="st1" d="M1356.6,2143.8c-33.1-34.3-63.2-65.6-92.4-95.9c31.4-32.7,61.5-64,93.1-96.9c27.6,26.6,54.2,52.2,81.5,78.7
			c27.5-26.6,53.5-51.8,79.8-77.3c31.5,33,61.4,64.4,93.1,97.6c-25.1,25.8-52.9,54.5-80.7,83.3c-9.6,10-17.1,5.7-25.4-2.4
			c-22.1-21.6-44.7-42.8-69.5-66.4C1411.8,2088.7,1385.7,2114.7,1356.6,2143.8z"/>
		<path class="st1" d="M696.8,1174.7c-22.9-26.2-43.9-50.2-66.2-75.7c-26.6,25.8-49.9,48.4-72.8,70.6
			c-28.4-29.2-55.6-57.1-81.5-83.7c25.9-25.4,54.2-53.1,84.9-83.2c18.8,21,40.7,45.3,66.3,73.9c26.1-28.9,48-53.1,69.3-76.7
			c30.3,31.1,58,59.4,84.2,86.2C756,1112.6,729.1,1140.8,696.8,1174.7z"/>
		<path class="st1" d="M1576.9,1259.7c-53.8,31.7-93.9,33-118.7,4.8c-26.7-30.3-28.3-85.2-1.3-121c0.4,6.5,0.5,10.3,0.8,14.1
			c1.9,25.4,13.4,37.8,38.8,40.8c33.5,3.9,63-5.9,89.3-30.1c49.2,37.1,88.2,19.3,122.5-25.5c-1.2,48.8-10.8,91.6-53,119.4
			C1625,1282.2,1608.6,1281.4,1576.9,1259.7z"/>
		<path class="st1" d="M2038.6,2048.9c31-32.9,59.8-63.4,89.7-95.2c36.4,26.9,64.3,60.2,96.8,90.6c-34.4,31.5-66.5,60.8-96.6,88.4
			C2101.1,2107.2,2069.2,2077.4,2038.6,2048.9z"/>
	</g>
	<g>
		<g>
			<path class="st2" d="M257.9,2591.1v-287.9h71.3l42.9,196.6l42.6-196.6h71.6v287.9h-44.4v-226.8l-47.1,226.8h-45.9l-46.7-226.8
				v226.8H257.9z"/>
			<path class="st2" d="M794.5,2591.1h-51.7l-20.7-65.2h-94.5l-19.5,65.2h-50.7l91.9-287.9h50.5L794.5,2591.1z M706.8,2477.2
				l-32.6-106.8l-32,106.8H706.8z"/>
			<path class="st2" d="M867.9,2591.1v-287.9h100.3c25.7,0,44,2.6,55,7.8c11,5.2,20,14.1,27.1,26.9c7.1,12.8,10.6,28.1,10.6,45.9
				c0,22.5-5.4,40.6-16.2,54.4c-10.8,13.8-26.2,22.4-46,25.9c10.2,7.3,18.7,15.4,25.3,24.1c6.7,8.7,15.8,24.3,27.3,46.8l28.7,56.2
				h-56.9l-34.5-62.6c-12.4-22.6-20.8-36.8-25.3-42.5c-4.5-5.7-9.2-9.6-14.1-11.8c-5-2.2-13-3.2-24-3.2h-9.8v120.2L867.9,2591.1
				L867.9,2591.1z M915.5,2424.9h35.3c21.6,0,35.3-0.9,41.2-2.9c5.9-1.9,10.7-5.7,14.3-11.5c3.7-5.8,5.5-13.4,5.5-23
				c0-9.2-1.8-16.5-5.5-22.1c-3.7-5.6-8.6-9.4-14.9-11.5c-4.5-1.4-17.3-2.2-38.7-2.2h-37.3V2424.9z"/>
			<path class="st2" d="M1239.4,2303.2h47.5v182.2c0,29.5-2.9,51.4-8.8,65.8c-5.9,14.4-14.7,25.5-26.4,33.2
				c-11.7,7.7-26.2,11.6-43.3,11.6c-22.7,0-40.4-7.8-53.2-23.4s-19.3-39.1-19.4-70.5l45-6.3c0.5,16.9,2.7,28.9,6.5,35.9
				c5.1,9.7,12.8,14.5,23.1,14.5c10,0,17.3-3.5,22.1-10.5c4.7-7,7.1-22.6,7.1-46.6V2303.2z"/>
			<path class="st2" d="M1598.8,2591.1h-51.7l-20.7-65.2h-94.5l-19.5,65.2h-50.7l91.9-287.9h50.5L1598.8,2591.1z M1511.1,2477.2
				l-32.6-106.8l-32,106.8H1511.1z"/>
			<path class="st2" d="M1672.2,2591.1v-287.9h175.2v48.7h-127.7v63.8h118.6v48.5h-118.6v78.2h132v48.7H1672.2z"/>
			<path class="st2" d="M2002.3,2591.1v-121.2l-86.4-166.7h55.8l55.5,113.9l54.7-113.9h54.8l-86.8,167.1v120.8L2002.3,2591.1
				L2002.3,2591.1z"/>
			<path class="st2" d="M2391.3,2591.1h-51.7l-20.7-65.2h-94.5l-19.5,65.2h-50.7l91.9-287.9h50.5L2391.3,2591.1z M2303.6,2477.2
				l-32.6-106.8l-32,106.8H2303.6z"/>
			<path class="st2" d="M2493.5,2591.1v-239.2h-70.1v-48.7H2611v48.7h-69.9v239.2H2493.5z"/>
			<path class="st2" d="M2883.3,2591.1v-239.2h-70.1v-48.7h187.6v48.7h-69.9v239.2H2883.3z"/>
			<path class="st2" d="M3140.3,2591.1l-84.5-287.9h51.7l59.8,213.1l57.8-213.1h50.7l-84.7,287.9H3140.3z"/>
		</g>
	</g>
</g>
</svg>
