<?xml version="1.0" encoding="UTF-8"?>
<svg id="Layer_1" data-name="Layer 1" xmlns="http://www.w3.org/2000/svg" version="1.1" viewBox="0 0 3500 3500">
  <defs>
    <style>
      .cls-1 {
        fill: #12a3aa;
      }

      .cls-1, .cls-2, .cls-3, .cls-4 {
        stroke-width: 0px;
      }

      .cls-2 {
        fill: #ffc093;
      }

      .cls-3 {
        fill: #fff;
      }

      .cls-4 {
        fill: #ffbe93;
      }
    </style>
  </defs>
  <path class="cls-3" d="M1447.8,1801c-28.5-6.6-68.7-3.6-92.5,9.7-18.2,12.4-30.7,35.8-38.9,57.3-5.9,17.2-7,36.5-6.9,54.8,2.2,117.9,1,235,.1,352.9.1,12.8.3,28.7,7.2,38.8,12.8,18.1,40.1,15.8,60.4,15.4,46.9-1.4,83.3-34.7,88.4-84.7,3-68.8.1-138.4,1.1-206.9v-2.3c-.8-40.5-.3-81.9-.4-122.8-3.8-28.1,11.8-99.2-18.4-112.2Z"/>
  <path class="cls-3" d="M1653.8,1631.9c-35.7,0-70.9.3-106.4.2-43.9,0-88.3-.2-131.8,0h-2.3c-68.7.4-138.5,0-207.6.2-31.7,1.1-66-4.5-89.2,13.8-22.5,18.6-38.3,50-38.4,78.9,0,26.9,27.6,31.4,49.6,30.6,158.6-1.4,316.9,1.9,475.2-.9,35-1.7,69.6-19.6,87.5-50.6,12.2-20.4,15.4-52.3-1.3-64.3-9.7-7.3-23.2-7.6-35.2-8Z"/>
  <circle class="cls-2" cx="3408.2" cy="2266.4" r="91.8"/>
  <path class="cls-3" d="M3491.7,2146.7c-4.5,1.8-10.5-1-15.2-3.3-34.1-16.6-83.4-11.1-119.3-2-11.4,1.2-14.1-10.4-14.7-19.7-5.5-49.2,13.6-113.4-19.4-154.8-35.1-31.4-84.5-38.8-129.6-36.6-69.7-.2-138,.2-208.7-.2-8.9-.4-19.4-.8-25.8-6.5-11.9-12.8-7-33.4-8.2-49.7,1.7-20.5-5.7-54.6,9.9-67.9,19.3-10.5,44.7-3.6,66.1-5.5,20.2,1.6,54.6-6.8,62.4,17.7,3.9,11.4.9,34.2,17,35.5,20.9-2.6,40.5-26.5,59.2-37,28-18.9,66.4-23.6,100.5-24.2,35-2.5,67.7,1.7,98.8,17.9,105.2,36.8,141.4,157.1,134.4,259.2-2.5,24.6,6.1,56.6-6.2,76.5l-1.3.7Z"/>
  <path class="cls-3" d="M3125.3,1970.1c-8.9,21.8-17.1,20.7-21.7,68.8-7.6,66.9-2.7,136.2-5.1,202.9-.3,18.9.5,37.9-8.9,55-16.3,32.2-55.9,40.1-89,39.2-20.5-.3-46.4,3.6-50.4-20.4-3.2-104.5-.2-210.5-1.2-315.1-.8-20.4,3.8-36.9,27.3-37,40-.8,80-.1,119.8-.2,9.1.5,21.9-1.6,28.3,5.3l.9,1.4Z"/>
  <path class="cls-1" d="M467.3,1141.8v760.9c100.9,0,197.7-40.1,269-111.4,71.4-71.4,111.4-168.1,111.4-269s-40.1-197.7-111.4-269c-71.4-71.4-168.1-111.4-269-111.4Z"/>
  <path class="cls-1" d="M380.5,1569.4v760.9c-100.9,0-197.7-40.1-269-111.4C40.1,2147.5,0,2050.7,0,1949.8s40.1-197.7,111.4-269c71.4-71.4,168.1-111.4,269-111.4Z"/>
  <path class="cls-4" d="M339.8,1460.1c32.2-39.1,47.5-89.3,42.7-139.7-4.9-50.5-29.5-96.7-68.6-129-39.1-32.2-89.3-47.5-139.7-42.7-50.5,4.9-96.7,29.5-129,68.6-32.2,39.1-47.5,89.3-42.7,139.7,4.9,50.5,29.5,96.7,68.6,129,39.1,32.2,89.3,47.5,139.7,42.7,50.5-4.9,96.7-29.5,129-68.6Z"/>
  <path class="cls-3" d="M1846.9,2104.1s-6.9-97.7,97.7-95c104.6,2.8,114.3,0,114.3,0,0,0,2.8-108.7-115.6-103.2s-156.9,96.4-155.6,163.8c1.4,67.5,78.5,144.6,173.5,141.8,95-2.8,89.5-42.7,141.8-24.8,52.3,17.9,75.7,66.1,75.7,66.1,0,0-78.5,77.1-201,77.1s-323.5-35.8-320.8-278.1c2.8-242.3,225.8-280.9,304.3-275.3,78.5,5.5,258.8,70.2,245.1,327.7-107.4,4.1-359.3,0-359.3,0Z"/>
  <path class="cls-3" d="M2492.3,2104.1s-6.9-97.7,97.7-95c104.6,2.8,114.3,0,114.3,0,0,0,2.8-108.7-115.6-103.2-118.4,5.5-156.9,96.4-155.6,163.8,1.4,67.5,78.5,144.6,173.5,141.8,95-2.8,89.5-42.7,141.8-24.8,52.3,17.9,75.7,66.1,75.7,66.1,0,0-78.5,77.1-201,77.1s-323.5-35.8-320.8-278.1c2.8-242.3,225.8-280.9,304.3-275.3,78.5,5.5,258.8,70.2,245.1,327.7-107.4,4.1-359.3,0-359.3,0Z"/>
</svg>