<?xml version="1.0" encoding="utf-8"?>
<!-- Generator: Adobe Illustrator 27.7.0, SVG Export Plug-In . SVG Version: 6.00 Build 0)  -->
<svg version="1.1" id="Layer_1" xmlns="http://www.w3.org/2000/svg" xmlns:xlink="http://www.w3.org/1999/xlink" x="0px" y="0px"
	 viewBox="0 0 3500 3500" style="enable-background:new 0 0 3500 3500;" xml:space="preserve">
<style type="text/css">
	.st0{fill:#4E0810;}
	.st1{fill:#C3C3C3;}
	.st2{fill:#FFFFFF;}
</style>
<circle class="st0" cx="1750" cy="1743.3" r="1743.3"/>
<path class="st1" d="M1566.2,431.1c33.1-43.6,95.4-50.6,144.3-35.2c61.9,22.2,108.2,71.6,151,119.5l931.8,1067
	c48.3,55.4,87.9,118.7,111.2,188.6c12.2,37.9,9.8,78.1,7.5,117.2c-13-6-11.5-22.2-15.6-33.8c-8.3-40.8-32.8-75.9-58.3-107.5
	c-32.5-39.6-78.1-64.1-121.7-89.4l-886.7-515.5c-34.2-21-71.5-37-103.7-61.6c-6.2-55.4,10.5-113.5-4.1-166.8
	c-41.3-22.5-84.2-46.3-130.8-55.8c-5.7,47-4.7,94.7-6,141.3c-23.9-12.8-47.5-26.3-67.8-44.3c-5.3-112.7,5.3-225.4,6.3-338.1
	c4.2-64.8,7.3-135.3,47.9-189.4 M1600,603.9c0.5,49.2-4.5,98.4-4.5,147.3c49.7,18.2,96.2,45.6,147.3,59.7c0.4-49.4,8.5-98.4,4.8-148
	c-46.6-24.4-94.7-52.1-147.3-58.8L1600,603.9z"/>
<path class="st2" d="M1235.6,958.6c84.2-16.3,168.3,15.9,240.5,56.4l1134.7,655.3c62.4,36.4,129.2,68.8,180.3,121
	c48.4,46.7,84.2,111.2,81.2,180.3c0.5,71.9-41.3,136.8-93.2,183.4c-41.3,38.7-91.7,65.4-140.5,93.2l-1164.7,672.5
	c-57.9,34.1-123.2,55.8-190.9,58.8c-58.8-1.5-118.7-23.5-159.3-67.6c-57.1-60.3-76.6-145.8-76.6-226.9l0.2-1345.1
	c0-314.1,90.2-359.2,193.1-381.7 M1157.7,1242.8l-0.1,199.9c68.7,0.2,137.5,8.5,205.9,0.4l0.4-200.6c-68.4-5.8-138.3-6-206.6-0.1
	 M1157.4,1551.9v205.9l205.9,0.2c1.4-68.5,0.9-136.8-0.2-205.9c-68.5,0.2-136.8,0.2-205.9-0.1 M1157,1866.9l-0.2,199.9
	c68.5,4,137.5,4.3,205.9-0.3l-0.2-199.1c-68.6-1.7-137.5-1.5-205.9-0.2 M1157.2,2176l-0.2,205.1h205.1l-0.2-204.4l-205.1-0.4
	 M1155.9,2490.5c-2.3,68.6-3,137.5,0.1,205.9l205.9,0.1l0.4-205.1c-68.6-3-137.5-3-205.9-1.1L1155.9,2490.5z"/>
</svg>
