<?xml version="1.0" encoding="UTF-8"?>
<svg xmlns="http://www.w3.org/2000/svg" version="1.1" xmlns:cc="http://creativecommons.org/ns#" xmlns:dc="http://purl.org/dc/elements/1.1/" xmlns:inkscape="http://www.inkscape.org/namespaces/inkscape" xmlns:rdf="http://www.w3.org/1999/02/22-rdf-syntax-ns#" xmlns:sodipodi="http://sodipodi.sourceforge.net/DTD/sodipodi-0.dtd" xmlns:svg="http://www.w3.org/2000/svg" viewBox="0 0 1255.9 1255.9">
  <defs>
    <style>
      .cls-1, .cls-2 {
        fill: #fff;
      }

      .cls-2, .cls-3 {
        fill-rule: evenodd;
      }

      .cls-4 {
        fill: #00003b;
      }

      .cls-3 {
        fill: #d80e1c;
      }
    </style>
  </defs>
  <!-- Generator: Adobe Illustrator 28.7.1, SVG Export Plug-In . SVG Version: 1.2.0 Build 142)  -->
  <g>
    <g id="svg6477">
      <sodipodi:namedview id="base" bordercolor="#666666" borderopacity="1.0" fit-margin-bottom="0" fit-margin-left="0" fit-margin-right="0" fit-margin-top="0" inkscape:current-layer="layer1" inkscape:cx="734.67321" inkscape:cy="147.92059" inkscape:document-units="px" inkscape:pageopacity="0.0" inkscape:pageshadow="2" inkscape:window-height="705" inkscape:window-maximized="1" inkscape:window-width="1366" inkscape:window-x="-8" inkscape:window-y="-8" inkscape:zoom="0.35" pagecolor="#ffffff" showgrid="false" units="px"/>
      <g id="layer1" inkscape:groupmode="layer" inkscape:label="Layer 1">
        <rect id="rect36195" class="cls-4" x="0" y="-.3" width="1255.9" height="1256"/>
        <g>
          <g id="g36185" inkscape:export-filename="C:\Users\m.karimi\Desktop\Logo\Final Logos\g36185.png" inkscape:export-xdpi="90" inkscape:export-ydpi="90">
            <path id="path36187" class="cls-3" d="M938.5,669.3h207.9c31,0,56.4,25.4,56.4,56.4v204.8h-207.9c-31,0-56.4-25.4-56.4-56.4v-204.8Z" inkscape:connector-curvature="0"/>
            <path id="path36189" class="cls-2" d="M1083.3,710.6c-4.9,10.6-12.3,15.8-14.5,32-2.9,21.8-1.3,49.4-8.6,65.3-3,6.5.9,7.5,3.3.9,4.1-11.3,10.3-18.5,12.9-34.1,2.4-14.7,3.1-36.9,5.7-50.9.7-3.8,1.8-8.2,2.9-11.2,1-2.9-.6-4.2-1.6-2h0ZM1113.1,695.5c-4.5,7.5-9.2,14.3-13.9,19.8-.5,1-.3,1.7.5,2.2,4.5,3.9,8.8,6.5,13.4,8.3,2.6,1,5.5.4,7.8-1.9,2.9-2.9,4.9-5.4,6.9-8.4,2.8-4.3,2.4-8.2-.6-10.3-5.2-3.6-10.2-6.5-14.1-9.7h0ZM1129.7,869.1c-4.5,7.5-9.2,14.3-13.9,19.8-.5,1-.3,1.7.5,2.2,4.5,3.9,8.8,6.5,13.4,8.3,2.6,1,5.5.4,7.8-1.9,2.9-2.9,4.9-5.4,6.9-8.4,2.8-4.3,2.4-8.2-.6-10.3-5.2-3.6-10.2-6.5-14.1-9.7ZM1164.2,750.8c-4.4,7.5-9.2,14.3-13.9,19.8-.5,1-.3,1.7.5,2.2,4.5,3.9,8.8,6.5,13.4,8.3,2.6,1.1,5.5.4,7.8-1.9,2.9-2.9,4.9-5.4,6.9-8.4,2.8-4.3,2.4-8.2-.6-10.3-5.2-3.6-10.2-6.5-14.1-9.7h0ZM1145.6,801.9c5.6.4,4.2-11.4,22.5-1.4,2.9,1.6,4.9,2,7.6,3l-16.5,17.1c-12.1-.5-13-1.5-24.5,2.1-13.4,4.2-21.8,16.2-29.9,25.4-4.3,4.8-7.7,10.4-11.5,15.7-12.2,17.2-15.3,24.4-31.6,37.5l-15.8,11.9c-3.5,2.7-6.6,4.4-5.6,6.8,5.7-2.1,19.7-6.8,24.6-10.3,14.5-10.2,12-10.6,22.3-22.8,1.5-1.8,2.1-3.3,3.5-5.2,7.9-10.1,11.8-18.3,24.9-28.4,6.5-5,18.1-9.7,26.3-9,6.1.6,9.1,1.8,13.2-3.3,8.5-10.6,24-28.8,33.2-38,2.9-2.9,6.7-8.8,1.8-11.1-4.5.9-7.2,1.6-13.8-1.6-8.4-2.1-15.3-8.5-25.3,1.6-2,2-7.5,6.5-5.6,9.8h0ZM1050.6,819.5c-4.8,12-9.7,20.5-18.8,29.6-12.8,12.9-30.4,22.8-43.9,32.3-1.8,1.3-2.4,4.2.8,2.9,6.9-2.6,11.8-5.7,19.6-8.3,2.2-.7,5.7-1.4,8.5-1.7,2.7-.3,5.3-1.8,7.3-2.9,11.2-6.4,24.2-21.6,29.4-51.7.5-2.7-1.5-3.5-2.8-.3h0ZM1063,853.4c-4.7,10.4-10.6,14.9-15.3,18.7-14,11.2-26.9,18.5-39.4,26.6-2.1,1.4-1.3,2.4.5,1.5,9.1-4.7,15-5.9,19.1-6.7,3.8-.7,6.9-.5,10.9-.6,5.1,0,10.3-3.1,14.8-8.4,4.8-5.6,7.4-11.6,12.6-23.8,1.8-4.2,7-8.5,12.2-10.6,2.4-1,5.6-2.5,9.7-4.4,4.5-2.8,8.7-7.8,12.9-16.3,2.1-4.2,4.1-9,5-13.7,2.5-12.1-2-26.1-15.7-30.3,13.6-9.2,28.1-17.2,42.2-25.5l24.2-12.9h0s4.5-2.7,4.5-2.7c6.5-3.9,12.8-7.8,18-12.4,7.2-6.3,9.2-14.9,12.7-22.7.3-.6,0-2-1-1.1-9.2,7.4-20.9,15.3-33.6,22.5,2.1-1.4,4.3-2.9,6.2-4.5,6-5.2,8.1-11.1,11.4-17.5.2-.5.1-1.6-.8-.9-13.4,10.2-35.9,22.1-55.8,33.1l-3.5,13.6c-7,4.4-13.9,9.1-20.1,14.6-8.7,7.8-14,19.8-17.9,30.7,8.6.3,22,7.8,22.5,16.8,0,1.5-.2,2.2-.7,3.4-1.2,2.6-2.9,4.5-6.1,6.5-4.1,2.3-8.9,4.3-13.1,6.7-8.5,4.8-12.5,11.8-16.2,20.2h0ZM1075.6,693.2c4.6-1.5,6,1.1,4.4,5.6-2.5,7-5.2,13.4-8.4,19.6-1.6,3.2-2.3,2.4-3.2.7-1-2-4.4-2-8.2-.7-10.9,3.6-23.8,14.6-29.2,24.5-2.5,4.6-3.1,8.4,2.1,10.6,3.6,1.5,7.5,1.8,10.3,4,4.3,3.4,5.2,8.8,5.2,14.1-.1,20.4-10.1,40.1-19.1,52.1-17.4,23.2-36.1,29-54.2,25.8-17.9-3.1-32-21.9-21.9-60.7,5.5-21.5,15.3-39.6,25.5-57.5,1.3-2.2,2.3-1.5,1.3,1.5-5.6,16.7-17.8,34.1-20.7,58-1.8,14.2,4.6,28.2,23.5,31.3,17,2.8,40.3-6.4,53-26.7,2.6-4.2,2-9-1.3-11.4-4.2-3.1-9.3-2.3-13.7-6.1-5.9-5-5.6-11.7-.2-25.9,4.9-12.8,12.5-24,20-33.3,10.3-12.7,22.1-21.6,34.8-25.7" inkscape:connector-curvature="0"/>
            <path id="path36191" class="cls-2" d="M237.9,851.1c-13.4,19.3-27.4,36.5-41.1,50.2-1.5,2.6-1.2,4.6.9,6.1,11.3,11.3,22.2,19,34.4,24.9,6.8,3.3,14.7,2,21.4-3.7,8.3-7.1,14.1-13.6,20-21.2,8.4-11.1,7.9-21.6.4-27.6-13.3-10.7-25.9-19.4-36-28.6h0ZM90,786.6c4.8-14.6,9.8-30.1,26.4-58.8,15.7-27.1,37.7-49.6,60.6-52.5,15.3-2,39.7,4.9,69.7,22.1,7.8,4.5,24.4,5.7,33.4,1.5,25.3-12.7,31-14.4,51.8-19.8,8.6-2.2,12.9-1.2,13.4,8,1,22-14.3,54.1-24.3,61.8-3.7,2.9-7.9,1.8-12.3,1.2-16.4-2.4-33,5.7-47.5,19.8-10.9,10.6-24.1,30.2-37.5,43.3-10.2,55.1-51.1,106.6-104.8,116.4-27.5,5-65.3,1.5-65.7-32-.1-10.6,1.7-12.7,4.1-22,2.2-8.3,0-13.1,12.9-6.9,10.7,5.1,26.1,7.3,40.9,7.4,26.3.2,59.3-12.4,72.4-30.5,4.1-5.7,3.1-11.7-5.1-8.5-7.1,2.8-15.7,2.9-28.1,2.3-17.6-.9-28.6-9.9-25.4-26.9,8.7-21.6,19.7-40.5,28.4-62.1,10.4-16.7,29.3-19.7,44.6-13.5,11,4.5,18.4,13.7,22.8,24.5,7.8-8.4,15.1-16.6,23-27,1.6-2,1.5-4.9-1.5-6.1-17.7-7.3-32.8-16.4-50.3-22.4-22.5-7.7-39.6-1.6-53.7,16.9-19.9,26-26.1,39.5-40.4,69.4-3.3,6.9-10.5,2.8-7.6-5.5" inkscape:connector-curvature="0"/>
            <path id="path36193" class="cls-2" d="M816.2,667.2c-11,20.7-31.7,33.4-33.9,58.8-2.3,25.9-1.9,71.3-4,100.3-9.7,30.1-50.7,52.7-87.4,65-5.7,1.9-11,6.1-11,13.1,0,4.6,6.6,12.6,21.6,20.1,21.7,10.8,43.9,0,61.4-14.9,31-26.6,45-71,51.7-114.2,6.4-41.8,4-74.8,8.6-117.4,2.6-24.1-4-16.5-7-10.9h0ZM851.9,722.5l-22.9,51.6c-1.3,2.9-3.7,10.5,3.1,11.4,18.9,9.2,40,25.3,38.4,44.2-4.5,15.3-28.9,37.8-49.4,44.7-10.6,3.5-12.7,6.5-14.9,14.4-2.2,7.8-5.9,20.6-8.3,28.6-2,9.5,4.3,17.3,20.4,10,42.9-19.3,73.3-66.9,83.5-113.6,8.4-38.5,4.2-82.3-33.7-99.3-13.2-5.9-13.2.7-16.2,8h0ZM508.7,728c-7.3,9.2-19.5,20.1-31.2,32.2-10,10.3-17.5,9.5-27.8,1.2-8.1-6.5-21.5-16.8-30.9-23.4-14.2,16.1-29.9,30.6-45.5,46.8-2.9,3-1.8,4.3,1.6,7.1,7.1,5.7,17.8,14.6,28.3,23,7.4,7.3,17.1,4.8,26.7-2.4,9.5-7.1,13.3-11,23.3-21.1,5-5,9.8-12.3,16-9,9.4,5,15.4,10.4,24.7,18,11.1,9.1,16.2,10.5,23.9,4,9.8-8.2,21.5-19.5,27.9-28.2,10.1-13.6,4.5-21.7-5-30-8.9-7.8-14-12.5-25.6-18.4-2.7-1.4-4.7-1.9-6.3.1h0ZM459.7,663.7c-13.4,19.3-27.4,36.5-41.1,50.2-1.5,2.6-1.2,4.6.9,6.1,11.3,11.3,22.2,19,34.4,24.9,6.8,3.3,14.7,2,21.4-3.7,8.3-7.1,14.1-13.6,20-21.2,8.4-11.1,7.9-21.6.4-27.6-13.3-10.7-25.9-19.4-36-28.6h0ZM646.1,662.5c-13.4,19.3-27.4,36.5-41.1,50.2-1.5,2.6-1.2,4.6.9,6.1,11.3,11.3,22.2,19,34.4,24.9,6.8,3.3,14.7,2,21.3-3.7,8.3-7.1,14.1-13.6,20-21.3,8.4-11.1,7.9-21.6.4-27.6-13.3-10.7-25.9-19.4-36-28.6h0ZM714.1,780c-19.5,18.8-51.1,34.9-82.8,47.3-77.9,30.6-172.4,46.6-254.8,31.5-57-10.5-93.8-37.2-83.7-93.9,3-16.8-6.8-9.2-9.4-.2-4.1,14.1-7.5,30-9.1,45.7-10.7,102.1,78.2,121.4,157.7,119,106.2-3.2,209.1-41.9,278.1-101.9,20.5-17.8,38.7-46.8,47.3-73.8,9-28.5,8.1-42.6,11-68.7,1-9.4.8-10.2,1.7-15.3,1.5-8.5-2.6-10.2-7.2-4.2-13.8,18-14.9,17.1-27.3,32.1-11.3,13.6-6.9,27.8-8,47.5-.8,14.7-3.7,25.6-13.5,35.1" inkscape:connector-curvature="0"/>
          </g>
          <g id="g4683" inkscape:export-xdpi="90" inkscape:export-ydpi="90">
            <path id="path4669" class="cls-1" d="M432.9,540.5c-.5-.7-1.4-2.6-2.1-4.3s-1.9-4.3-2.7-6c-.8-1.7-1.4-3.4-1.4-3.7s-.3-1-.6-1.6c-2-3.4-5.8-17.9-7.8-29-1.2-6.6-1.3-10-1.5-34.1-.2-17.9,0-29.5.5-35,.7-7.7,2.2-17.2,3.5-22.2.3-1.2.8-3.1,1.1-4.1,2.1-7.6,5.5-15.8,9.9-23.6,10.3-18.3,30.2-35.5,50.3-43.4,1.7-.7,3.9-1.6,4.8-2,7.7-3.5,22.7-7.2,35.9-8.8,10.6-1.3,206.2-1.3,216.5,0,10.4,1.3,22.8,4.1,27.5,6.1.6.3,2.1.8,3.2,1.2,6.5,2.3,15.5,7.2,22.6,12.2,6.9,4.9,20.3,18.3,20.3,20.4s-23.1.9-163,1l-163,.2-2.7,1.3c-4.2,1.9-7.3,5.1-8.8,8.9l-1.3,3.3v81.7c0,53.8-.2,81.9-.6,82.2-.3.2-9.4.4-20.1.4h-19.5s-.9-1.3-.9-1.3h0Z" inkscape:connector-curvature="0"/>
            <path id="path4671" class="cls-1" d="M525.1,595.9c-8.4-.4-14.1-1-18.5-2-10.5-2.3-17.5-4.3-18.5-5.2-.3-.3-.9-.5-1.4-.5s-4.1-1.6-8.1-3.5c-10.2-4.9-18.5-10.7-26.4-18.5-8.3-8.3-10-10.3-9.2-11.2.5-.5,45.3-.6,161-.5,171,.2,164.6.3,170-2.5,2.9-1.5,6.9-5.8,7.8-8.3.6-1.8.8-18.3.9-84.3,0-45.1.4-82.2.6-82.5.3-.3,9.2-.4,19.8-.3l19.3.2,1,2.1c2.7,5.4,6.4,14,7.8,18.5,3.1,9.6,4,13.3,6,23.8l1.6,8.5v31.2c0,27-.1,32.1-1,37.9-1.3,8.4-2.5,14.5-3.6,17.8-.4,1.4-1.1,3.7-1.6,5.2s-1,2.9-1.3,3.2-.5.9-.5,1.3-.8,2.5-1.8,4.6c-1,2.1-1.8,4-1.8,4.1,0,.5-4.4,7.8-7.5,12.6-8.5,12.8-23.1,25.7-36.4,32.2-1.9.9-3.5,1.8-3.7,2-.8.9-11.6,5.2-18.2,7.4-5.6,1.8-14.7,4-23.5,5.6-6.8,1.3-7.2,1.3-105.3,1.4-54.2,0-102.7,0-107.9-.3h0,0Z" inkscape:connector-curvature="0"/>
            <path id="path4673" class="cls-1" d="M569.9,540.3c-.2-.5-.4-27.9-.4-60.9s-.2-60.3-.7-61.3c-1.1-2.2-3.1-4-5.2-4.9-1.7-.7-8-.8-39.1-.8-20.4,0-37.4,0-37.8,0-.9,0-1.1-34.4-.2-35,.3-.2,23.5-.4,51.5-.3,50.6,0,50.9,0,55.7,1.3,14.1,3.8,25.6,16.2,28.6,30.8.5,2.7.7,19,.5,67.6l-.2,64.1-26.2.2c-23.6.1-26.3,0-26.6-.8h0Z" inkscape:connector-curvature="0"/>
            <path id="path4675" class="cls-1" d="M486.8,540.5c-.9-.9-1-118.4-.1-119,.9-.6,51.3-.4,51.9.2.3.3.4,27.2.3,59.8v59.4c-.1,0-25.8.2-25.8.2-19.4.1-25.8,0-26.3-.6Z" inkscape:connector-curvature="0"/>
            <path id="path4677" class="cls-1" d="M631.8,540.5c-.1-.4,0-30.4.1-66.6l.3-65.9,1.6-4c2.5-6.3,4.5-9.7,8.5-14,4.8-5.2,10.6-9,17.2-11.2l5.3-1.8h51.6c28.4,0,51.8.2,52.1.5.3.3.4,8.2.3,17.5l-.2,17-38.5.3c-27.7.2-38.8.5-39.7,1-2.3,1.3-4.5,4.2-5,6.5-.3,1.3-.5,27.9-.5,61.2,0,32.4-.1,59.2-.3,59.5-.6.9-52.4.8-52.7-.2Z" inkscape:connector-curvature="0"/>
            <path id="path4679" class="cls-1" d="M716.3,540.7c-.5-.9-.4-118.4.1-118.9.3-.3,12.1-.4,26.3-.3l25.8.2.2,58.5c0,32.2,0,59.1-.2,59.8l-.3,1.3h-25.8c-15.2,0-26-.2-26.2-.5h0Z" inkscape:connector-curvature="0"/>
          </g>
        </g>
      </g>
    </g>
  </g>
</svg>