<?xml version="1.0" encoding="UTF-8"?>
<svg id="Layer_01" data-name="Layer 01" xmlns="http://www.w3.org/2000/svg" version="1.1" viewBox="0 0 3500 3500">
  <defs>
    <style>
      .cls-1 {
        fill: #12a3aa;
      }

      .cls-1, .cls-2, .cls-3 {
        stroke-width: 0px;
      }

      .cls-2 {
        fill: #df1895;
      }

      .cls-3 {
        fill: #fff;
      }
    </style>
  </defs>
  <path class="cls-1" d="M410.78,1227.65v668.87c88.7,0,173.76-35.23,236.48-97.95,62.72-62.72,97.96-147.79,97.96-236.49s-35.23-173.76-97.95-236.48c-62.72-62.72-147.79-97.96-236.49-97.96Z"/>
  <path class="cls-1" d="M334.44,1603.48v668.87c-88.7,0-173.76-35.23-236.48-97.95C35.24,2111.68,0,2026.62,0,1937.92s35.23-173.76,97.95-236.48c62.72-62.72,147.79-97.96,236.49-97.96Z"/>
  <path class="cls-2" d="M298.73,1507.45c28.33-34.4,41.78-78.46,37.49-122.82-4.29-44.36-25.93-85.03-60.33-113.36-34.4-28.33-78.46-41.78-122.82-37.49-44.36,4.29-85.03,25.93-113.36,60.33-28.33,34.4-41.78,78.46-37.49,122.82,4.29,44.36,25.93,85.03,60.33,113.36,34.4,28.33,78.46,41.78,122.82,37.49,44.36-4.29,85.03-25.93,113.36-60.33Z"/>
  <path class="cls-3" d="M1960.79,2174.34c-28.84,3.15-52.74,5.77-81.17,8.88-24.63-133.8-34.17-265.25-47.33-399.53,50.51-10.64,96.82-20.4,147.89-31.16v106.61c19.39-15.64,31.6-26.25,44.56-35.84,107.38-79.46,191.68-11.64,212.92,68.53,17.2,64.92,29.61,131.13,43.65,196.87,4.02,18.8,6.29,37.97,10.02,61.01-53.33,19.73-109.14,20.46-169.68,33.76-1.84-62.91.5-118.91,3.26-175.12,1.72-35.05,1.77-70.98-4.09-105.38-5.93-34.82-29.85-44.76-63.62-33.74-42.88,13.99-82,65.89-84.69,111.92-3.62,61.77-7.48,123.53-11.71,193.17ZM2197.14,2115.49c16.94.3,29.28-8.08,30.47-26.89,1.1-17.5-7.1-30.65-25.69-33.8-16.82-2.85-34.04,12.66-35.31,30.68-1.18,16.69,10.71,28.97,30.54,30.01Z"/>
  <path class="cls-3" d="M1398.31,2072.16c13.74-10.57,22.56-17.35,32.57-25.05-12.39-17.45-38.16-.53-43.35-25.9-6.09-29.76,25.05-29.61,37.75-49.86-17.42-2.55-30.48-4.46-42.24-6.18-18.01-19.17-8.92-37.54,32.87-61.7-19.54-5.88-34.76-10.46-49.09-14.77-7.37-19-.55-28.19,16.98-31.62,44.99-8.79,89.94-17.82,139.2-27.61,1.91,16.43,4.8,29.89,4.81,43.36.03,58.5-1.04,117.01-1.13,175.51-.03,17.67-.21,35.74,3.16,52.95,9.44,48.24,47.09,63.25,86.22,32.6,41.28-32.33,73.45-71.5,77.25-127.88,2.49-37.04,7.53-73.93,12.35-110.77,2.24-17.11,6.64-33.94,10.56-53.35h82.17c6.72,132.36,17.51,263.72,14.94,397.9-49.61,11.5-93.02-2.75-139.4-12v-76.75c-13.96,11.89-23.68,19.92-33.12,28.25-88.47,78.03-184.73,54.92-227.6-55.12-6.33-16.25-9.73-33.64-14.9-51.99Z"/>
  <path class="cls-2" d="M2897.34,1788.06c34.82,15.84,13.54,35.82,12.72,52.68,23.1,31.26,45.98,62.22,70.15,94.94,14.73-3.53,29.65-7.11,44.2-10.59q11.19,30.33-37.69,56.91c6.79,38.76-30.43,87.71,27.87,112.84-3.42,40.03-29.05,23.63-40.99,22.72-36.54,33.25-68.91,62.7-101.28,92.16-14.35,13.87,22.37,52.04-30.05,51.93-4.57-11.08-9.64-23.4-14.17-34.37-46.05-8.25-90.73-16.26-138.32-24.78-8.52,10.22-18.51,22.21-30.57,36.69-8.29-4.39-16.77-8.89-27.94-14.81,9.59-17.94,17.78-33.23,27.22-50.89-16-21.4-32.68-43.71-50.57-67.65-15.84,1.89-30.87,3.69-46.93,5.61-1.48-7.18-4.78-15.38-3.17-16.5,49-33.98,29.58-83.63,31.67-125.02-8.9-19.68-50.58-13.01-28.6-50.88,13.32,1.53,28.12,3.23,43.05,4.95,21.78-26.35,43.08-52.11,66.22-80.09-6.48-12.68-13.55-26.51-23.53-46.04,11.32-3.12,21.39-7.91,31.38-7.75,4.52.07,8.89,9.96,13.34,15.39,4.44,5.41,8.89,10.81,14.99,18.23,47.56-13.98,95.52-24.56,144.87-6.43,24.02,8.83,31.67-16.81,46.15-29.23ZM2672.13,2014.53c1.07,17.64.35,35.61,3.56,52.85,8.38,45.02,48.9,83.51,89.09,86.8,39.75,3.25,76.86-24.71,92.99-72.65,15.68-46.6,15.74-93.96-2.14-140-5.57-14.34-14.98-28.24-25.75-39.31-38.51-39.6-80.53-38.48-120.8.17-32.47,31.16-38.71,70.03-36.94,112.13Z"/>
  <path class="cls-3" d="M973.8,2206.14c37.06,2.59,71.49,4.99,105.92,7.39-47.14-18.84-98.45-24.41-130.11-74.02,7.83-8.8,15.56-17.48,24.36-27.37,15.93,8.56,29.25,16.99,43.55,23.17,64.49,27.88,117.31,8.27,140.39-59.04,13.51-39.39,16.01-82.9,20.65-124.87,3.04-27.5-2.51-56.96,33.15-68.6,2.51-.82,1.26-13.17,2.1-24.92-7.59.38-13.78,1.87-19.47.76-23.53-4.57-29.76-23.51-11.24-40.05,10.69-9.55,25.13-14.12,18.25-34.48-3.06-1.43-7.42-5.14-11.86-5.23-13.95-.31-24.07-4.29-26.8-19.66-2.54-14.3,2.44-22.16,16.08-28.92,7.94-3.93,11.67-16.36,21.72-31.73h-46.09c-3.53-15.84-6.5-29.15-10.66-47.84,54.78-12.42,107.28-24.32,157.94-35.81,4.94,7.29,8.41,10.06,8.64,13.09,11.09,145.01,18.56,290.01-19.79,432.62-16.92,62.92-48.09,118.1-99.42,159.87-51.29,41.74-110.21,44.55-171.19,29.51-21.97-5.42-41.71-16.53-46.11-43.86Z"/>
  <path class="cls-3" d="M3363.9,1786.37c37.5,39.01,65.36,88.65,127.32,68.64,27.53,37.38-17.86,34.56-24.31,52.16-10.33,30.72-4.53,58.35,17.38,79.8-14.17,27.83-28.06,14.3-45.24,8.78-12.5-4.01-29.13,4.85-44.26,8.04-19.19-12.39-19.82-29.1-16.11-50.54,5.4-31.22-5.61-41.78-37.12-41.09-10.38.23-23.1.39-30.65,6.06-44.19,33.18-86.48,68.24-85.11,131.42,1.07,49.54,1.44,99.09,2,148.63.2,17.21.03,34.43.03,59.29-52.47-6.31-98.64-11.86-151.64-18.23,4.88-41.64,8.1-79.66,14.01-117.26,12.87-81.94,27.21-163.65,40.76-245.49,9.2-55.57,15.12-60.02,84.16-56.91,1.53,31.93,3.1,64.53,4.92,102.47,23.63-20.62,47.68-33.58,32.55-67.75-2.78-6.29,2.94-20.12,9.08-25.71,9.29-8.46,19.29-3.76,25.75,7.48,2.52,4.39,6.9,7.72,10.05,11.13,37.66-.65,60.07-17.45,66.42-60.93ZM3182.99,2156c-5.95-5.22-15.36-18.36-27.99-23.28-13.65-5.32-31.78,17.15-30.52,34.99,1.33,18.96,12.81,28.27,31.1,28.51,17.02.22,29.01-13.77,27.41-40.23Z"/>
  <path class="cls-3" d="M2323.26,2245.31c23.06-144.85,44.72-280.85,66.1-415.12q41.87-14.08,89.24-1.51c10.85,142.24,21.85,286.32,33.3,436.42-63.41,4.45-122.36-12.21-188.64-19.79ZM2451.4,2163.18c.75-20-11.54-34.22-30.87-35.7-20.41-1.57-38.47,15.1-38.1,35.16.31,16.61,17.53,33.24,34.9,33.7,18.11.48,33.36-14.36,34.07-33.15Z"/>
  <path class="cls-2" d="M1239.89,1370.83c61.73.57,105.06,45.59,104.8,108.87-.25,60.51-47.63,109.8-105.97,110.25-55.94.43-107.23-53.49-106.41-110.88.8-56.08,55.58-116.95,107.58-108.25ZM1226.56,1427.09c-13.22-4.94-24.65-13.55-30.74-10.71-22.62,10.55,10.6,21.57,1.28,34.25-9.16,3.21-18.84,6.61-30.32,10.64,1.34,8,1.27,15.14,3.78,21.2,6.99,16.89,55.92-2.49,5.83,38.51,3.6,1.17,36.83-16.1,43.83-8.77,8.06,8.45-10.2,41.48-8.77,40.07,5.82-5.73,21.28-8.75,21.29-20.04.04-35.59,36.16-6.66,46.33,8.77,3.35,3.51-3.86-11.17,6.34-14.12-5.99-13.97-9.78-22.8-14.77-34.44h44.11c-13.09-13.91-20.98-22.28-29.14-30.95,18.15-14.71,22.3-28.71.31-42.39-7.74,3.39-15.5,6.79-23.34,10.22-4.64-9.16-8.93-17.61-15.06-29.72-9.17,12.01-15.24,19.97-20.98,27.49Z"/>
  <path class="cls-2" d="M2334.88,1645.8c26.2-2.26,49.53,2.17,62.88-7.36,11.64-8.31,12.04-32.37,18.16-51.87,12.68,18.74,20.21,41.17,35.24,48.79,14.08,7.14,36.11-1.41,58.52-3.41q-34.29,45.17,7.69,104.11c-19.71,0-39.1-5.67-50.12,1.51-12.24,7.98-16.86,27.67-27.7,47.6-11.86-13.96-20.7-32.91-34.93-38.77-14.65-6.03-34.56.71-55.07,2.05q33.94-55.23-14.68-102.66Z"/>
  <path class="cls-3" d="M1589.11,2078.45c-26.51-2.27-38.6-12.83-29.84-37.98,21.3-61.09,42.06-122.47,83.18-183.21,5.38,13.29,8.67,21.06,11.57,28.98.5,1.38-.53,3.42-1.09,5.07-20.84,61.15-41.7,122.3-63.82,187.13Z"/>
</svg>