<?xml version="1.0" encoding="utf-8"?>
<!-- Generator: Adobe Illustrator 27.7.0, SVG Export Plug-In . SVG Version: 6.00 Build 0)  -->
<svg version="1.1" id="Layer_1" xmlns="http://www.w3.org/2000/svg" xmlns:xlink="http://www.w3.org/1999/xlink" x="0px" y="0px"
	 viewBox="0 0 3500 3500" style="enable-background:new 0 0 3500 3500;" xml:space="preserve">
<style type="text/css">
	.st0{fill:#03A9F4;}
</style>
<path class="st0" d="M770.2,2199.3c-5.6-6.3-11.1-12.1-16.6-17.5c-43.7-43.5-85.1-85.1-124.4-124.8c-26.1-26.4-51.2-53.3-77.7-79.5
	c-43.5-42.9-85.9-85.6-127.1-128.2c-35.3-36.5-72-71.5-106.9-108.2c-19.4-20.4-38.4-40.2-58.6-59.3
	c-33.7-31.8-67.9-66.6-102.8-104.3c-28.3-30.7-52-59.7-71-87c-47.4-68.1-76.4-149-79.8-232C2,1179.1,19.1,1105,56.6,1036.1
	c21.1-38.7,48.9-75.9,83.5-111.4c8.6-8.8,16.9-17.4,25-25.8c41.8-43.4,84.4-86,126.6-129.9c11.5-12,22.9-23.6,34.2-34.9
	c64.6-64.5,128.5-128.4,191.8-191.8c23.4-23.5,48.3-46.7,72.6-70.7c57.5-56.9,98.2-96.5,122-118.8c20.6-19.2,42.5-36.7,65.9-52.5
	c54.3-36.7,113.9-59.3,178.9-68c6.3-0.8,12.6-1.5,18.9-1.9c8.3-0.5,16.3-1.8,24.8-1.8c74.4,0.1,144.4,18,210.2,53.6
	c34.2,18.5,65.4,40.1,93.7,64.7c19.8,17.3,40.6,36.2,62.2,56.6c36.5,34.5,72.9,69.2,109.1,104.2c0.8,0.7,1.7,1,2.7,0.7
	c2.4-0.7,4.5-2,6.3-3.8c25.9-27.5,52.2-55.1,78.9-82.9c7.8-8.1,15.2-16.1,22.3-23.9c13.7-15.2,28.2-29.8,42.4-44.1
	c37.3-37.8,77.3-70.4,119.8-97.9c55.3-35.8,121.3-62.7,185.2-68.1c6-0.5,11.8-1.1,17.3-1.8c5.9-0.7,11.9-1.1,17.9-1
	c34.7,0.3,67.4,4.4,98.3,12.5c75.4,19.7,145,59.9,203.9,109.3c16.3,13.7,32.8,27.5,47.8,42.5c181.6,181.6,361.7,361.7,540.2,540.2
	c27.1,27.1,55,52.8,82,79.8c126.1,126.1,250.8,250.8,374.1,374.1c40.1,40.1,78.9,83.8,109.3,130.5c39.7,61.1,63.8,127.4,72.5,198.7
	c0.8,6.2,1.2,12.4,1.3,18.6c0.1,8.4,2,16.5,1.9,24.7c-0.2,13.1-1.3,26.3-2.3,39.5c-1.9,24.7-7,51.6-15.3,80.8
	c-17.6,61.3-50.6,118.8-92.6,166.2c-15.3,17.3-30,32.9-43.9,46.9c-38.2,38.2-76.2,76.2-114,114.1c-21.8,21.9-43.9,46-66.7,68.8
	c-194.6,194.4-389.3,389-584.2,584c-7.2,7.2-15.4,13.6-22.4,20.5c-37.4,37.1-76.8,76.4-118.2,117.9c-20.5,20.6-43.3,41.2-63.7,61.8
	c-28.8,29.2-56.5,56.6-83.2,82.2c-71.4,68.4-160.3,115.8-258.5,127.4c-12.5,1.5-24.3,0.9-36.5,2.5c-5.9,0.7-11.8,0.6-17.6-0.3
	c-10.3-1.6-21.1-0.6-32.1-1.8c-57.9-6.5-112.9-24.1-165-52.9c-43-23.8-80.4-52.9-116.4-86.3c-55.3-51.5-116.7-107.7-184.1-168.7
	c-0.6-0.6-1.2-0.6-1.8,0c-4.6,4.1-8.7,8.1-12.2,12c-55,61-110.3,123.6-165.8,187.6c-20.3,23.4-43.3,45-69,64.8
	c-67.1,51.6-142,82.3-224.8,92c-13.5,1.6-27.9,2.3-43.3,2.1c-19.2-0.3-37.5,0.5-56.9-1.6c-101.8-10.9-198.5-54.9-270.3-126.2
	c-10.7-10.7-22-22.8-33.8-36.6c-40-46.4-82.1-91-117-140.8c-35.4-50.5-58.6-112.4-68.9-172.5c-2.7-16-4.6-32.6-5.4-49.6
	c-0.8-15.3-0.3-31.9,1.4-49.9c6.3-65.2,28.4-126.8,66.2-184.8c15.8-24.3,33.9-47.8,54.3-70.5c56.1-62.5,112.1-119.5,176.2-184.2
	c19-19.2,37.6-40.1,57.8-59.1C770.7,2200.6,770.7,2200,770.2,2199.3z M1058.5,1084.8c26.1,6.7,49.2,18.8,69.2,36.4
	c38.4,33.9,76.3,72.9,114.9,109.6c51.6,48.9,101.3,100.2,153.4,152.4c26.4,26.4,49.5,51.5,78,80.9c33.4,34.5,70.4,74.3,110.9,119.4
	c14.5,16.2,27.4,36.5,38.5,60.9c6.2,13.5,11,29,13.2,43.5c0.9,6.2,1.8,12.8,2.6,19.7c0.9,7.6,1,15,0.4,22.1
	c-2,24.8-6.6,46.2-13.8,64.1c-10.3,25.4-22.5,47.4-36.9,66.2c-21.9,28.7-47.2,57.7-75.8,86.9c-67.6,69.1-125.2,129-173,179.7
	c-11.5,12.2-22.7,23.9-33.7,35.4c-27.9,29-58.4,61-91.4,95.8c-63.4,67-126.9,133.9-190.5,200.5c-22,23-44.8,47.3-68.4,72.9
	c-24.9,27-50.8,53.1-75.4,81c-26.2,29.6-45.2,68.5-44.9,108.1c0.4,55.5,45,113.1,98.1,129.2c8.8,2.7,18.4,4.7,28.8,6
	c9.4,1.2,19.1,1.1,29.2-0.3c36.4-5.1,68.8-19.7,97.2-43.9c10-8.5,17.6-15.4,22.8-20.6c159.5-159.7,319.1-319.3,478.7-478.9
	c28-28,58.1-56.5,85.7-84c130.4-130.2,261.2-260.9,392.4-392c28.6-28.6,61.2-67.4,65.6-109.3c1.5-14.7,0.5-28.9-3.2-42.4
	c-7.1-26.1-23.6-53.3-40.4-74.5c-18.9-23.9-39.2-46.7-60.7-68.2c-228.8-228.7-457.5-457.4-686.3-686.1c-11-11-22.7-22.5-34.9-34.2
	c-30.8-29.6-66.5-64.9-106.9-105.9c-28.4-28.8-60.2-53.3-99.3-63.8c-13.8-3.7-26.6-5.2-38.4-4.4c-49.8,3.2-88.6,31.3-122.8,66.4
	c-9.9,10.2-22,20.2-31.2,29.3c-34.6,34.6-69.1,69.1-103.7,103.7c-11.2,11.2-22.9,22.5-35.2,33.9c-24.5,22.8-47.3,48.8-70.2,71.5
	c-34,33.7-65.9,65.9-96,96.7c-4.1,4.2-8.2,8.5-12.3,12.7c-26.6,27.5-52.5,54.4-77.6,80.8c-24.2,25.3-48.5,49.4-71.1,76.4
	c-17.2,20.6-29.9,41-38,61.2c-10.3,25.6-10.6,51-1,76.3c10.1,26.5,28.3,51.3,47.7,72c29.2,31.2,58.3,62.1,89.3,91.1
	c41.1,38.3,79.1,79.8,120.5,118.2c21.2,19.6,41.3,40.4,62.4,60.8c53.3,51.5,106.9,103.3,160.7,155.4c9.7,9.4,21,19.3,29.7,28.2
	c16.8,17.2,33.1,32.7,48.7,46.5c5.9,5.2,12.1,9,18.8,11.5c1.6,0.6,3.4,0.2,4.6-1c39.7-37.9,78.6-75.8,116.7-113.6
	c25-24.8,51-49.5,76-74.6c0.7-0.7,0.7-1.8,0-2.4c-12.9-13.5-25.4-27.6-38.2-40.8c-90.6-93-178.4-185.2-263.5-276.5
	c-28.1-30.2-59.1-66.2-65.6-108.6c-4-26.2-1.5-50.6,7.4-73.3c14.1-35.9,38.9-68.1,66.3-96.4c32.1-33,68.2-58.6,111.7-68.4
	c4-0.9,8.1-1.5,12.2-1.7c7.5-0.5,15.2-2.5,22.8-1.3C1041.8,1082.5,1050.2,1082.7,1058.5,1084.8z M3044.1,1727.5
	c10.8-63.8-38-121.9-79.9-163.1c-31.7-31.1-62.6-62.3-92.6-93.5c-11.1-11.6-22.5-23.2-34.2-34.8c-173-173-346.5-346.5-520.5-520.4
	c-11.6-11.6-23-23.1-34.2-34.8c-38-39.3-75.6-77.3-112.9-114.1c-25.7-25.5-48.7-47.1-69-64.7c-28.3-24.7-55.8-44.2-93.4-52.5
	c-13.4-3-25.7-3.6-36.8-1.9c-29.4,4.5-54.8,14-76.1,28.5c-41.1,28-84,58.1-128.7,90.1c-1.9,1.4-2.8,3.7-2.3,5.9
	c2.6,12.5,5.3,24.8,8.3,36.8c1,4.2,3.2,8,6.4,11.2c7.6,7.8,15.5,15.6,23.7,23.3c44.3,41.8,87.3,83.2,130,123.7
	c38.6,36.6,77.3,73.5,116.2,110.5c11.4,10.9,22.6,21.7,33.5,32.6c8.4,8.4,18.3,16.9,27.4,25.7c49.5,47.8,98.9,95.6,148.3,143.3
	c12.5,12.1,24.2,23.5,34.9,34.2c39.7,39.5,79.8,79.6,120.5,120.2c31.5,31.5,62.3,64.7,91.4,97.3c10.7,11.9,21.1,24.3,31.3,37.1
	c33.7,42.3,61.8,99.7,59.8,154.4c-0.4,10.5,0.2,20.9-1.4,31.2c-11.1,71.4-54.3,126.6-104,176.4c-27.5,27.5-55.2,55.2-83.2,83.1
	c-25.3,25.3-52.8,51-78.1,76.4c-12.1,12.2-23.7,23.6-34.9,34.3c-35.2,33.9-69.3,68.7-104.7,102.3c-18.4,17.4-36.5,35.1-54.3,53.2
	c-27,27.3-55,53-82.5,80.7c-28.5,28.8-57.6,55.7-86.1,84.3c-31.3,31.4-63.4,61.3-94.7,92.7c-9.5,9.6-21.3,20.9-35.2,34
	c-17.2,16.2-35.4,34.2-54.6,54c-1.1,1.1-1.2,2.8-0.4,4.1c23.5,38.1,47.8,74.2,77.6,103.6c20.5,20.2,43.8,36.6,71.3,45.1
	c61.5,19,126.1-23.1,170-62.1c24.7-22,49.6-46,74.6-72.1c11.2-11.6,22.6-23.3,34.2-34.9c252-252.1,505.6-505.7,760.8-760.7
	C3002.4,1815.1,3036.1,1774.5,3044.1,1727.5z"/>
</svg>
