<?xml version="1.0" encoding="utf-8"?>
<!-- Generator: Adobe Illustrator 27.7.0, SVG Export Plug-In . SVG Version: 6.00 Build 0)  -->
<svg version="1.1" id="Layer_1" xmlns="http://www.w3.org/2000/svg" xmlns:xlink="http://www.w3.org/1999/xlink" x="0px" y="0px"
	 viewBox="0 0 3500 3500" style="enable-background:new 0 0 3500 3500;" xml:space="preserve">
<style type="text/css">
	.st0{fill:#FFFFFF;}
</style>
<path class="st0" d="M1125.2,2059.4c-15.6,23.1-28.3,49-47.3,68.9c-133.1,138.9-295.2,204.5-489.3,199.9
	c-140.9-3.4-263.4-50.1-372-134.9c-106.4-83-184-191.2-206.1-323.5c-34-203.3,13.2-387.5,172.6-531.9
	c81.5-73.8,174.5-122.1,283.2-147.9c72.1-17.1,143.6-22.5,214.4-15.1c108.2,11.4,210,47.1,298.6,114c102.6,77.4,94.9,277-42.4,331
	c-52,20.5-102.6,37.3-169.2,27.1c16.2-11.3,25.1-18.2,34.6-24.2c82.1-51.5,110.9-128.7,95.7-219.7c-12-72.1-70.7-145.8-172.1-169.7
	c-174-41-321.2,57.1-385.4,207.7c-45.2,106-52.2,219.4-22.8,328.9c40.6,151,137.2,262.3,285.9,317c151.6,55.7,305,48.6,454.9-14
	c19-7.9,38.2-15.2,57.3-22.7C1118.9,2053.3,1122.1,2056.4,1125.2,2059.4L1125.2,2059.4z"/>
<path class="st0" d="M422.4,1558.7c12.2,13,20.7,20.3,27.1,29.1c101.1,140.1,240.6,181.8,405.2,155.1
	c117.4-19.1,222.2-63.9,299.4-159.3c5.7-7,14.8-11.3,24.9-18.8c8.7,12,20.4,21.4,23,32.8c21.3,95.3,22.8,185.8-46.1,268.2
	c-103.7,124-277.2,167.6-428.3,130.3c-91.6-22.7-171.6-60.6-231-134.7C427,1774.3,401.4,1676,422.4,1558.7L422.4,1558.7z"/>
<path class="st0" d="M2939.7,2102.8c0-54.9-0.9-109.9,0.3-164.8c0.9-40.8,5.9-46.9,46.6-47.1c144.3-0.9,288.7-1.3,433,0.7
	c62.1,0.9,77.1,16.5,78.6,79.3c2.4,96.5,1.9,193.2,0.8,289.8c-0.5,41.3-14,51.3-57.4,51.3c-42.5,0-54.4-9.8-55.5-52.9
	c-1.5-62.5-0.3-125-0.5-187.5c-0.1-17,0.6-34.3-1.9-51c-5.6-38.1-23.9-51.7-62.8-49.5c-31.9,1.8-45.2,13.7-46.5,51.9
	c-2.2,62.4-0.9,125-1.1,187.5c0,13.3,0.1,26.5-0.3,39.8c-1.6,55.7-14.3,67.1-68.3,61.4c-33.8-3.6-42-10.2-43.1-47
	c-1.9-64.3-1.2-128.8-1.5-193.2c-0.1-15.1,0.7-30.3-0.1-45.4c-2.6-48.4-37.8-69.9-82.2-50.8c-21.4,9.2-23.5,27.8-23.6,47.3
	c-0.3,60.6-0.3,121.2-0.5,181.8c0,17.1,0.4,34.1-0.2,51.1c-1.7,48.3-9.5,55.7-57.2,55.9c-48.1,0.2-55.7-6.5-56.6-55.3
	c-0.9-51.1-0.2-102.3-0.2-153.4C2939.6,2102.8,2939.6,2102.8,2939.7,2102.8L2939.7,2102.8z"/>
<path class="st0" d="M2301.5,1395.3c0,51.2,1.1,102.4-0.4,153.5c-1.2,42.7-10.3,49.2-57.5,49.3c-47.1,0.1-52.7-4.9-55-50.7
	c-0.6-11.3-0.3-22.7-0.4-34.1c-0.5-32.3-23.1-35.1-47.4-34.7c-24.3,0.4-52.1-3.8-56.5,31.8c-1.2,9.4-1,18.9-1.5,28.4
	s2.2,20.8-2.1,27.9c-6.9,11.4-16.8,24.3-28.4,28.7c-13.3,5.1-30,1.5-45.2,1.7c-26.7,0.4-36.8-13.9-36.7-39.1
	c0.3-104.3-0.9-208.5,0.6-312.8c0.6-41.4,24.9-67.7,67.5-69.7c66.4-3.2,133.1-2.8,199.5,0c33.3,1.4,66.7,24.6,64.2,71.9
	C2299.5,1296.6,2301.6,1346,2301.5,1395.3C2301.5,1395.3,2301.5,1395.3,2301.5,1395.3L2301.5,1395.3z M2188.1,1326.4
	c-0.5-63.5-6.4-69.8-61.2-64.8c-35.5,3.2-41,8.8-43.6,45.4c-0.8,11.3-0.7,22.7,0,34c2.2,39.9,8.2,45.8,46.7,48
	C2182,1391.9,2188.6,1384.8,2188.1,1326.4z"/>
<path class="st0" d="M3479.4,1174c-21.5,69.3-34.5,80.7-88.4,84.3c-24.6,1.7-49.4,2.2-74,3.6c-23.5,1.4-40.3,10.3-40.8,37.2
	c-0.4,25.7,11.9,40.5,42,43.5c26.4,2.7,53.2,0.3,79.7,2.2c34,2.5,43.5,14.4,42.4,46.6c-0.8,22.6-10.6,35.6-34.2,36.4
	c-30.4,1-60.8,1-91.1,3c-21,1.4-36.1,11.8-38.1,34.7c-2.2,24.7,8.7,41.1,33.6,44.2c22.5,2.8,45.4,2.3,68.2,3.6
	c48.7,2.6,81.3,26,98.6,77.9c-17.5,2.6-31.6,6.4-45.8,6.6c-64.6,0.6-129.2,0.8-193.8,0.1c-57.6-0.7-75.5-17.8-76.2-74.4
	c-1-81.5-1.3-163-0.1-244.4c1.1-77.2,30-104.5,108.4-105C3337.6,1173.6,3405.6,1174,3479.4,1174L3479.4,1174z"/>
<path class="st0" d="M2576.4,1402.5c0-47.3-1.2-94.6,0.3-141.8c1.7-54.2,25.8-82.7,78.4-85.3c64.3-3.3,129-2.1,193.5-0.2
	c32.6,0.9,42.9,23.5,24.4,49.6c-16.1,22.8-38.7,35.5-67.7,35.7c-26.6,0.2-53.1,0.8-79.6,2c-22.6,1-34.1,13.1-35,36.1
	c-1,24.4,7.9,41.5,33.8,43.3c30.2,2.2,60.6,2.4,91,2.6c28.2,0.1,41.8,13.2,41.7,41.5c0,29.9-7.9,39.4-40.5,41.8
	c-22.7,1.7-45.5,0.1-68.3,0.9c-51.6,1.9-57.2,7.7-59,60.8c-0.8,22.7,0.7,45.5-1.2,68.1c-2.9,35.2-12.9,41.2-59.8,40.4
	c-41.9-0.7-50.6-6.1-51.8-42.4c-1.8-51-0.4-102.1-0.4-153.2L2576.4,1402.5L2576.4,1402.5z"/>
<path class="st0" d="M1387.2,2106.5c0-51.2-1-102.4,0.3-153.6c1.1-42.7,10.1-55.8,53.1-58.4c72-4.3,144.3-4.2,216.5-2.7
	c32.1,0.7,39.1,19.3,18.9,45.5c-8.4,10.9-22.5,20.5-35.8,23.8c-23.7,5.9-48.7,7.5-73.3,9.1c-54.9,3.5-69.6,12.7-69.4,46.3
	c0.1,35.5,14.1,44.9,68.3,45.8c19,0.3,38,0.2,57,1.2c21.8,1.1,35.4,11.3,36.9,34.8c1.7,26.8-9.6,45.5-35.9,49.1
	c-26.2,3.5-53.2,1.7-79.7,3.6c-35.9,2.7-42,8.9-44.7,44.9c-1.8,24.6-0.2,49.5-3.6,73.8c-4.8,34.8-24.3,46.2-66.8,43
	c-33.9-2.6-41.2-9-42.2-46.9c-1.4-53.1-0.3-106.2-0.3-159.3C1386.7,2106.5,1386.9,2106.5,1387.2,2106.5L1387.2,2106.5z"/>
<path class="st0" d="M1694.1,1590c-21,3.3-35.4,7.3-49.8,7.5c-62.7,0.8-125.5,1.3-188.2,0.2c-54.8-1-68.3-14-68.8-67.2
	c-0.9-94.8-0.9-189.6,0.1-284.4c0.5-44.4,20.2-68.4,64.1-70.4c70.2-3.3,140.7-2.4,210.9-0.6c28.3,0.7,35,18.8,18.4,42.7
	c-15.7,22.6-35.9,38.9-65.5,39.8c-26.6,0.9-53.2,2.8-79.8,3.8c-25.3,0.9-39.3,13.8-39.7,38.7c-0.8,56.8-0.9,113.7-0.4,170.6
	c0.2,27.6,16,41.2,43.2,42.1c20.9,0.7,41.9,0.1,62.7,1.9C1644.4,1518.3,1675.9,1537.9,1694.1,1590L1694.1,1590z"/>
<path class="st0" d="M2471.1,2060.4c0,39.7-1.1,79.4,0.3,119.1c1.5,40.6,10.1,48.5,51.5,51.5c24.6,1.8,49.6-0.1,73.7,3.9
	c15.7,2.6,33,9.7,44.4,20.3c9.7,9,18.9,27.9,15.7,38.7c-2.7,9.3-23.1,18.5-35.9,18.9c-58.7,1.8-117.7,3.5-176.1-0.5
	c-65.8-4.6-86.3-29.2-86.6-93.7c-0.5-90.7-0.7-181.4,0-272.2c0.4-49.9,50.8-76.6,93.9-48.7c10.2,6.6,17,24.8,17.7,38.1
	c2.2,41.5,0.8,83.1,0.8,124.7C2470.6,2060.4,2470.8,2060.4,2471.1,2060.4L2471.1,2060.4z"/>
<path class="st0" d="M2082.7,2103c0,53.1,0.2,106.2-0.2,159.3c-0.2,19.1-0.6,42.6-24.3,45.4c-25.3,3-51.9-0.6-77.2-5.4
	c-5.4-1-10.5-19.4-10.6-29.8c-0.8-113.8-1.3-227.6,0-341.3c0.4-34.8,10.4-40.4,53.1-40.9c45.5-0.5,57.4,6.2,58.7,42.1
	C2084.2,1989.2,2082.8,2046.1,2082.7,2103L2082.7,2103z"/>
</svg>
