<?xml version="1.0" encoding="UTF-8"?>
<svg id="Layer_1" xmlns="http://www.w3.org/2000/svg" version="1.1" viewBox="0 0 3500 3500">
  <!-- Generator: Adobe Illustrator 29.1.0, SVG Export Plug-In . SVG Version: 2.1.0 Build 142)  -->
  <defs>
    <style>
      .st0 {
        fill: #fff;
      }

      .st1 {
        fill: #ee2128;
      }
    </style>
  </defs>
  <rect class="st0" y="1504.1" width="1751.6" height="491.8"/>
  <path d="M1020.7,1560.8c2.9-.4,5.2-1.1,7.5-1.1,44.4.9,88.8.9,133.1,3.5,30.6,1.8,60.3,9.5,87.4,25.1,33.4,19.3,51.2,48.3,56.8,86.3,2.8,19.2,2.5,38.1-1.1,56.8-5.6,28.9-21.2,51.8-44.7,69.4-3.3,2.5-6.7,5-11,8.2,26.5,42,52.4,83,79.2,125.4-4.6.9-7.6,1.8-10.6,1.8-26.8.2-53.5-.2-80.2.3-7.7,0-12.2-2.8-16.2-9.1-16.9-27.2-34.1-54.1-51.3-81-2.8-4.4-5.8-8.6-9.1-13.5-16.4.9-32.4,1.9-50,2.9v97.1c-10.8,4.3-70.2,5.4-89.2,2.3-3.7-10.3-4.4-357.7-.6-374.3h0ZM1112.3,1753.9c22.6,1.2,44.5,1,65.7-5,15.9-4.5,28.9-13.8,33.2-30.6,2.3-9,2.3-19,1.5-28.4-1.4-15.9-10.1-27.6-24.6-34.4-24.3-11.4-49.9-9.5-75.1-8.6-3,12.1-3.5,90.6-.6,107.1h0Z"/>
  <path d="M1713.4,1935.4h-96.6c-6.5-14.2-13.2-28.8-20.3-44.2h-141.6c-6.3,14.2-12.9,28.9-19.7,44.2h-90.8c17.8-43.6,36.8-84.9,54.9-126.6,18.4-42.5,36.8-84.8,55.4-127.2,18.4-41.9,36.8-83.7,55.9-126.9h27.1c6.5,0,8.8,4.5,11,9.6,13.3,30.1,26.7,60.2,40.1,90.2,30.6,68.4,61.2,136.7,91.9,205.1,9.1,20.4,18.5,40.9,27.6,61.4,1.9,4.3,3.1,8.8,5,14.5h0ZM1488.8,1810.6c13.5,3.4,60.8,3.2,72.9-.3-11.9-27.4-23.8-54.7-35.6-82-1,0-2.1,0-3.1,0-11.5,27.4-22.7,54.9-34.2,82.4h0Z"/>
  <path class="st1" d="M679.2,1935.1h-96.3c-4.5-10.1-9.5-19.8-13.3-30-4.3-11.3-10.9-15.8-23.6-15.6-38.2.8-76.4.3-114.5-.2-7.9,0-12.4,2.6-15.3,9.8-4.9,11.9-10.3,23.5-15.7,35.7h-89.8c28-65,55.5-127.6,83-190.3,27.5-62.8,55.1-125.7,82.7-188.7h33.1c56.1,125.1,112.2,250.7,169.8,379.2h0ZM529.1,1813.5c-12.9-30.8-24.1-59.1-37.9-86.2-1.1,0-2.2.2-3.2.3-11.5,28-23.1,55.9-35.5,85.9h76.6Z"/>
  <path class="st1" d="M93.9,1902.8c11.5-12.8,24.5-20.9,41-27.4-3.2-5.3-5.5-9.7-8.2-13.8-22.6-33.7-45.6-67.1-67.7-101.1-8.2-12.7-14.2-26.7-22.1-41.6,19.9-4.5,36.7,2,55.4,4.4,4.4-25,2.3-50.6,10.8-76.5,28.9,10.3,49.5,30.9,70.4,52.7,11.9-13.2,11.8-31.9,26.2-43.9,3.2,5,6.5,9.5,9.1,14.3,14,25.6,25.5,52.3,34.4,80.2,2.1,6.2,4.7,12.2,8.6,18.3,10.3-63.8,16-128.2,38.4-191.3,22.2,16.2,39,35.1,56,56.2,4-4.4,6.8-7.2,9.5-10.3,15-17.3,29.8-34.7,45-51.7,3.3-3.7,7.9-6.2,12-9.3.9.6,1.6,1.1,2.5,1.7-9.7,24.1-19.2,48.2-29.1,72.2-31.5,76.3-63.3,152.5-94.5,228.9-9.2,22.6-21.2,42.6-42.2,56.2-24.2,15.6-50.4,21.3-77.9,13.2-22.8-6.7-44.8-16.2-67.1-24.8-3.5-1.5-6.4-4.1-10.5-6.7h0Z"/>
  <path d="M808.8,1935.7h-88.7c-3.8-11.1-4.4-359.7-.9-373.5,9.8-3.1,230.3-3.9,249.8-.8,2.1,27.5.3,55.4,1,85.1h-157.7c-3.5,11.8-4.3,58.8-1.5,79.8,4.7.3,9.7.9,14.8.9,33.4,0,66.8,0,100.3,0,5.1,0,10.2.7,16.1,1v81.3c-43.9,1.1-87.2,0-131.9.7-1.7,42.2.3,83.1-1.2,125.4h0Z"/>
  <g>
    <path class="st0" d="M2150.1,1845.1c0,26.6-6.9,49.6-20.7,69.1-13.8,19.5-33.6,34.5-59.6,45-26,10.4-56.8,15.7-92.6,15.7s-42.4-1.6-63.3-4.7c-20.9-3.1-39.8-7.5-56.8-13.2v-86.4c17,5.7,36.4,10.2,58.3,13.6,21.9,3.4,42.3,5.1,61.2,5.1s40.9-3.2,51.3-9.5c10.3-6.3,15.5-15.6,15.5-27.7s-1.6-11.9-4.7-16.3c-3.1-4.4-8.3-8.3-15.7-11.9-7.3-3.5-17.9-7-31.8-10.5l-34.3-8.8c-36.9-8.8-64.7-23.1-83.3-42.9-18.7-19.8-28-45.5-28-76.9s6.7-50.4,20.1-69.7c13.4-19.3,33.5-34.1,60.5-44.2,27-10.2,60.2-15.2,99.9-15.2s37.3,1.1,54.5,3.2c17.2,2.2,32.8,5.1,46.9,8.8v86.7c-12.9-3.9-27.7-7-44.5-9.2-16.8-2.2-33.6-3.4-50.4-3.4-28.9,0-49.5,3.3-61.8,10-12.3,6.6-18.5,15.8-18.5,27.5s1.3,10.9,4,15.1c2.6,4.2,7.1,7.9,13.3,11.1,6.2,3.2,15.3,6.3,27.2,9.2l34,8.8c41,10.2,71.1,25,90.4,44.4,19.2,19.4,28.9,45.2,28.9,77.2Z"/>
    <path class="st0" d="M2362.2,1975.1c-41.2,0-74.8-5.4-100.6-16.3-25.9-10.8-45-27.8-57.3-51-12.3-23.1-18.5-53.2-18.5-90.1s5.7-60.3,17.1-83.8c11.4-23.4,28.3-41.4,50.7-53.8,22.4-12.4,49.3-18.6,80.7-18.6,45.1,0,79.4,13.8,103,41.5,23.5,27.6,35.3,67,35.3,118.2v26.7h-226.8v-59.2h145l-16.1,5.3c0-16.6-1.5-29.8-4.4-39.6-2.9-9.8-7.4-16.7-13.5-20.9-6.1-4.2-14-6.3-23.7-6.3s-17.8,2.1-24.2,6.3c-6.3,4.2-10.9,11.1-13.8,20.8-2.8,9.7-4.2,22.8-4.2,39.4v43.1c0,15.2,2.4,27.1,7.2,35.7,4.8,8.6,13.3,14.8,25.5,18.6,12.2,3.8,30.1,5.7,53.8,5.7s23.9-.8,37.1-2.5c13.2-1.7,26.6-3.8,40.3-6.3v77.9c-30.1,6.1-60.9,9.1-92.6,9.1Z"/>
    <path class="st0" d="M2521.9,1666.6h86.1c.2.6.4,1.4.6,2.3.2,1,.4,2.1.6,3.2.2,1,.4,2,.6,2.9.2,1,.4,1.8.6,2.3l5.6,27.8h5c7.4-14.6,17.8-25.5,31.2-32.7,13.4-7.1,29-10.7,46.7-10.7s16.5.9,25.5,2.6v94.9c-4.5-1-9.6-1.7-15.2-2.1-5.7-.4-11.3-.6-17-.6-12.7,0-25,2-37.1,6-12,4-21.3,9.6-28,16.8v189.8h-105.2v-302.9Z"/>
    <path class="st0" d="M2815.7,1631.5c-21.7,0-37.9-4.6-48.6-13.8-10.7-9.2-16.1-22.4-16.1-39.5s5.3-30.6,16-39.7c10.6-9.1,26.9-13.6,48.8-13.6s38.1,4.5,48.8,13.6c10.6,9.1,16,22.3,16,39.7s-5.3,30.4-16,39.5c-10.6,9.2-26.9,13.8-48.8,13.8ZM2763,1666.6h105.5v302.9h-105.5v-302.9Z"/>
    <path class="st0" d="M3097.3,1975.1c-41.2,0-74.8-5.4-100.6-16.3-25.9-10.8-45-27.8-57.3-51-12.3-23.1-18.5-53.2-18.5-90.1s5.7-60.3,17.1-83.8c11.4-23.4,28.3-41.4,50.7-53.8,22.4-12.4,49.3-18.6,80.7-18.6,45.1,0,79.4,13.8,103,41.5,23.5,27.6,35.3,67,35.3,118.2v26.7h-226.8v-59.2h145l-16.1,5.3c0-16.6-1.5-29.8-4.4-39.6-2.9-9.8-7.4-16.7-13.5-20.9-6.1-4.2-14-6.3-23.7-6.3s-17.8,2.1-24.2,6.3c-6.3,4.2-10.9,11.1-13.8,20.8-2.8,9.7-4.2,22.8-4.2,39.4v43.1c0,15.2,2.4,27.1,7.2,35.7,4.8,8.6,13.3,14.8,25.5,18.6,12.2,3.8,30.1,5.7,53.8,5.7s23.9-.8,37.1-2.5c13.2-1.7,26.6-3.8,40.3-6.3v77.9c-30.1,6.1-60.9,9.1-92.6,9.1Z"/>
    <path class="st0" d="M3353.6,1975.1c-18.6,0-36.6-1.1-54.1-3.4-17.5-2.2-33.7-5.5-48.8-9.8v-76.5c15.2,4.5,31.5,8,48.9,10.4,17.4,2.4,34.8,3.7,52.1,3.7s29.1-1.8,36.5-5.4c7.3-3.6,11-8.9,11-16s-1.5-8.9-4.5-11.4c-3-2.5-8.3-4.5-16-5.9l-53.3-9.4c-28.5-4.9-49.6-14.6-63.3-29.3-13.7-14.6-20.5-34.6-20.5-59.8s5.6-38.6,16.8-53.6c11.2-15,28.2-26.7,50.8-34.9,22.7-8.2,50.9-12.3,84.7-12.3s29.7.9,44.5,2.8c14.8,1.9,28.5,4.3,41,7.5v76.2c-11.9-3.3-25-5.9-39.3-7.8-14.3-1.9-28.7-2.8-43.4-2.8-21.5,0-36.4,2.2-44.8,6.4-8.4,4.3-12.6,9.7-12.6,16.1s1.5,7.8,4.4,10.4c2.9,2.6,8.2,4.6,15.8,6l53,9.1c28.1,4.9,49.1,14.3,62.8,28.1,13.8,13.9,20.7,34.2,20.7,60.9s-5.6,38.6-16.8,53.6c-11.2,15-27.5,26.6-48.9,34.7-21.4,8.1-47,12.2-76.9,12.2Z"/>
  </g>
</svg>