<?xml version="1.0" encoding="utf-8"?>
<!-- Generator: Adobe Illustrator 27.7.0, SVG Export Plug-In . SVG Version: 6.00 Build 0)  -->
<svg version="1.1" id="Layer_1" xmlns="http://www.w3.org/2000/svg" xmlns:xlink="http://www.w3.org/1999/xlink" x="0px" y="0px"
	 viewBox="0 0 3500 3500" style="enable-background:new 0 0 3500 3500;" xml:space="preserve">
<style type="text/css">
	.st0{fill:#FFFFFF;}
	.st1{fill:#0AAAE2;}
	.st2{fill:url(#SVGID_1_);}
	.st3{fill:url(#SVGID_00000145052901317190464450000001766534489737878694_);}
	.st4{fill:url(#SVGID_00000049210931053505599300000011674153694429124533_);}
	.st5{fill:#E8E8E8;}
	.st6{fill:#9E9D9E;}
	.st7{fill:#D9D1DB;}
	.st8{fill:#A3A3A3;}
	.st9{fill:#E0E0E0;}
	.st10{fill:#A8ACB2;}
	.st11{fill:#EAEAEA;}
	.st12{fill:#BDC3C9;}
	.st13{fill:#C6C4C6;}
	.st14{fill:#E5E5E5;}
	.st15{fill:#A5A5A5;}
	.st16{fill:#BACECD;}
	.st17{fill:#D9D7DB;}
	.st18{fill:#DBD5E0;}
	.st19{fill:#9AA1A8;}
	.st20{fill:#A1A7AF;}
	.st21{fill:#AFAFAF;}
	.st22{fill:#959AA0;}
	.st23{fill:#D8D8D8;}
	.st24{fill:#ADACAD;}
	.st25{fill:#E8DFEA;}
	.st26{fill:#B2B2B2;}
	.st27{fill:#939393;}
	.st28{fill:#A7A7A8;}
	.st29{fill:#C1C1C1;}
	.st30{fill:#7F7F7F;}
	.st31{fill:#DDDDDD;}
	.st32{fill:url(#SVGID_00000005984871320188041970000018013672366347216522_);}
	.st33{fill:#F4F4F4;}
	.st34{fill:#E6E7E8;}
</style>
<g>
	<g id="Objects">
		<g>
			<g>
				<path class="st0" d="M92.7,1911.7c-28.8-16.2-51.4-38.6-67.9-67.1C8.3,1816.1,0,1784.6,0,1750s8-66.3,24.2-94.8
					c16.2-28.5,38.4-50.9,66.9-67.1c28.2-16.2,59.7-24.2,94.6-24.2c31.7,0,61.3,7.2,89,21.8c27.4,14.7,50.6,35.7,69.5,63.1
					l-56.8,40.5c-25.8-39.2-59.9-58.9-101.8-58.9c-32.8,0-59.7,11.2-80.5,33.6c-21,22.4-31.4,51.2-31.4,86.1s10.7,63.7,32.2,86.1
					c21.3,22.4,48.5,33.6,81.5,33.6c28.5,0,51.4-7.2,69.3-21.3c17.6-14.1,28.5-31.7,33-52.5H180.4v-62.1h182.2
					c0.8,7.7,1.3,17.6,1.3,29c0.3,92.7-65.8,173.7-176.4,173.4C152.9,1936.2,121.2,1928,92.7,1911.7L92.7,1911.7z"/>
				<path class="st0" d="M427.8,1930.9v-361.8h257.4v62.3H499.8v83.4h160.9v62.3H499.8v91.7h189.4v62.1L427.8,1930.9L427.8,1930.9z"
					/>
				<path class="st0" d="M755.8,1930.9v-361.8H832l116.7,240.8l116.4-240.8h76.2v361.8h-71.9V1709l-97.5,197.7h-46.6L827.7,1709
					v221.9H755.8L755.8,1930.9z"/>
			</g>
			<rect x="1912.6" y="1565.6" class="st1" width="17" height="364.1"/>
			
				<linearGradient id="SVGID_1_" gradientUnits="userSpaceOnUse" x1="2760.0103" y1="-1931.5862" x2="2760.0103" y2="-1565.6201" gradientTransform="matrix(1 0 0 -1 0 0)">
				<stop  offset="0.15" style="stop-color:#5672B6"/>
				<stop  offset="0.5" style="stop-color:#86D4EF"/>
				<stop  offset="0.92" style="stop-color:#5877B7"/>
			</linearGradient>
			<path class="st2" d="M2883.6,1565.6c0,0-107.3,314.1-118.8,332.2c-2.7,4.2-6.4,8.4-10.8,12.2c-14.4,12.6-36.4,22-54.9,21.5
				c-22.8-0.6-51.4-8.7-62.7-25.3h10.5c20.4,0,38.5-13,45.1-32.3l1.6-4.6l103.2-303.7L2883.6,1565.6L2883.6,1565.6z"/>
			
				<linearGradient id="SVGID_00000149364791070592784250000012437476008453200770_" gradientUnits="userSpaceOnUse" x1="2793.2581" y1="-1930.5653" x2="2793.2581" y2="-1565.6268" gradientTransform="matrix(1 0 0 -1 0 0)">
				<stop  offset="0" style="stop-color:#AFDBE8"/>
				<stop  offset="0.49" style="stop-color:#FFFFFA"/>
				<stop  offset="1" style="stop-color:#AFDBE8"/>
			</linearGradient>
			<path style="fill:url(#SVGID_00000149364791070592784250000012437476008453200770_);" d="M2086.7,1747.1c0-53.8,0-107.6,0-161.5
				c0-4.2-0.8-8.6,0.4-12.4c0.8-2.7,3.9-5.9,6.6-6.7c4.4-1.2,9.3-0.7,14-0.7c58,0,116,0.3,174-0.1c23.8-0.2,45.6,5.9,64.7,19.5
				c19.8,14.1,29.9,34.3,31.6,58.4c0.7,9.9,0.6,19.9-0.1,29.8c-1.8,25.5-15.7,45-33.2,61.8c-14.3,13.8-30.3,25.7-48.9,33.2
				c-7.7,3.1-7.9,6.8-3.4,12.7c12.9,17,25.8,34,38.5,51.1c21.7,29.2,43.4,58.5,64.8,87.9c5.5,7.6,4.4,10-4.8,10.1
				c-23,0.3-46-0.1-69-0.1c-6.2,0-10.4-2.1-14.1-7.6c-21.3-31.4-43.1-62.4-64.8-93.5c-11-15.8-21.9-31.6-33.2-47.2
				c-5.5-7.5-8-15.3-7.4-24.7c0.9-12.6,0.8-12.4,12.7-15.6c20.6-5.4,41.1-10.8,59.1-23.4c23.6-16.6,35.2-46.9,25.7-74.1
				c-3.3-9.5-9.1-17.9-19.8-20.3c-11.1-2.5-22.4-5.2-33.7-5.6c-23-0.9-46-0.3-69-0.2c-15.6,0.1-15.7,0.1-15.7,15.4
				c-0.1,58-0.2,116-0.2,174c0,35.5,0.2,71.1,0.3,106.6c0,16.3-0.1,16.4-16.8,16.5c-13.6,0.1-27.2,0.1-40.8-0.1
				c-17.4-0.2-17.5-0.2-17.4-17.1c0.1-50.7,0.2-101.4,0.3-152.1c0-4.7,0-9.4,0-14.1L2086.7,1747.1L2086.7,1747.1z M3189.2,1748.3
				c0,13.1,0.1,26.1,0,39.2c-0.4,41.8-1,83.6-1.4,125.4c-0.1,17.1,0.1,17.2,17.5,17.4c12.5,0.2,25.1,0.1,37.6,0.1
				c21.7,0,21.6,0,21.6-21.2c-0.2-93.5-0.4-187-0.9-280.5c0-8.3,2.7-11.1,10.8-11c27.2,0.3,54.4-0.2,81.5,0.5
				c7.7,0.2,15.3,2.8,22.9,4.7c16.2,4.1,24.3,15.5,26.4,31.3c3.6,27-7.3,47.6-28.7,63.4c-17.6,13.1-38.1,19-59,23.8
				c-11.1,2.5-11.2,3.1-12.1,14.5c-0.9,11.6,2.8,21.3,9.5,30.6c15.1,21.1,30,42.4,44.8,63.7c16.1,23.1,32.1,46.2,47.9,69.5
				c5.2,7.6,11.5,11.2,20.9,10.9c17.8-0.5,35.5-0.2,53.3-0.2c3.7,0,7.3,0.2,11-0.1c8.3-0.6,8.9-1.9,4.7-9.6
				c-0.8-1.4-1.7-2.7-2.6-3.9c-18.7-25.5-37.4-50.9-56.2-76.3c-14.8-20.1-29.6-40.1-44.4-60.2c-3.1-4.2-4.5-7.3,1.9-10.9
				c13.5-7.6,27-15.6,39.4-25c23.5-17.8,41.2-39.9,43.9-70.6c1.1-12.3,0.7-24.9-0.7-37.2c-2.7-23.5-14.9-41.8-34.7-54.5
				c-18.5-11.9-39-16.5-61-16.4c-58,0.2-116,0.1-174,0.1c-3.1,0-6.3,0-9.4,0.2c-11.3,0.7-11.5,0.9-12,11.6c-0.1,3.1,0,6.3,0,9.4
				c0,53.8,0,107.6,0,161.4C3188.3,1748.4,3188.8,1748.4,3189.2,1748.3L3189.2,1748.3z M2904.6,1910.3c0,19.9-0.2,20,20.2,20.1
				c74.2,0,148.4,0.1,222.6,0c25.7,0,24.4,3,24.2-24.7c-0.3-30.3,3.4-27.8-27.7-27.9c-50.7-0.1-101.4,0-152-0.1
				c-14.5,0-14.6-0.2-14.7-15c-0.2-23.5-0.2-47-0.2-70.5c0-15.5,0.1-15.7,15.6-15.7c47-0.1,94.1,0,141.1-0.1c4.7,0,9.4-0.1,14.1-0.3
				c5.5-0.3,8.7-3.1,8.7-8.9c0-13.6,0.1-27.2,0-40.8c0-4.9-2.6-7.8-7.7-8c-4.2-0.2-8.4-0.2-12.5-0.2c-43.4,0-86.7,0.2-130.1-0.1
				c-34-0.2-28.8,4.5-29.1-28.8c-0.2-20.4,0.3-40.8,0-61.1c-0.1-8.1,3-11.6,11.1-10.7c2.6,0.3,5.2,0,7.8,0c50.2,0,100.3,0,150.5,0
				c4.7,0,9.4-0.2,14.1-0.1c5.2,0.1,7.6-2.6,7.6-7.6c0.1-12,0.1-24,0.1-36.1c0-5-2.4-7.8-7.6-7.9c-3.1-0.1-6.3-0.1-9.4-0.1
				c-75.2,0-150.5,0-225.7,0c-4.2,0-8.4,0.2-12.5,0.3c-5.8,0.1-8.5,3.1-8.4,8.8c0.1,3.7-0.1,7.3-0.1,11c0,54.3,0,108.7,0,163
				C2904.7,1802.7,2904.7,1856.5,2904.6,1910.3L2904.6,1910.3z M2427.4,1748.8c0,18.3,0,36.6,0,54.9c-0.1,37.6-0.3,75.3-0.3,112.9
				c0,13,0.3,13.4,13,13.7c15.7,0.3,31.4,0.3,47,0c11.2-0.2,11.9-1.2,12.4-13c0.1-2.1,0-4.2,0-6.3c0-109.2,0-218.5-0.1-327.7
				c0-3.1-0.1-6.3-0.1-9.4c-0.1-4.9-2.3-8-7.5-8c-19.3,0-38.7,0-58,0.6c-2.3,0.1-5.6,4-6.4,6.8c-1.1,3.9-0.4,8.3-0.4,12.5
				c0,54.3,0,108.7,0,163.1L2427.4,1748.8L2427.4,1748.8z M2628.2,1641.6h-40.3c-18.4,0-32.9,12.1-38,27.7c1.2,3.5,2.6,7.5,4.1,11.8
				c21.9,62.2,73.1,207.4,80.6,222.1c0.6,1,1.1,2.1,1.8,3h10.5c20.4,0,38.5-13,45.1-32.3l1.6-4.6L2628.2,1641.6L2628.2,1641.6z"/>
			
				<linearGradient id="SVGID_00000047062581615475149980000014033042592777971342_" gradientUnits="userSpaceOnUse" x1="2537.3308" y1="-1625.0642" x2="2768.8308" y2="-1578.4941" gradientTransform="matrix(1 0 0 -1 0 0)">
				<stop  offset="0" style="stop-color:#5672B6"/>
				<stop  offset="0.16" style="stop-color:#80C6FB"/>
				<stop  offset="0.32" style="stop-color:#6FA5DE"/>
				<stop  offset="0.48" style="stop-color:#628BC8"/>
				<stop  offset="0.62" style="stop-color:#5A7CBB"/>
				<stop  offset="0.74" style="stop-color:#5877B7"/>
			</linearGradient>
			<path style="fill:url(#SVGID_00000047062581615475149980000014033042592777971342_);" d="M2762.7,1565.6l-26.9,75.9h-147.9
				c-18.4,0-32.9,12.1-38,27.7c-3.6-10.2-5.7-16.3-5.7-16.3l-15.7-50c0,0-8.5-37.4,28.3-37.4L2762.7,1565.6L2762.7,1565.6z"/>
			<g>
				<g>
					<g>
						<polygon class="st5" points="1526,1658.6 1406.3,1658.6 1425.3,1617.9 						"/>
						<polygon class="st6" points="1425.3,1617.9 1386.8,1573.3 1289.2,1625.7 1337,1658.6 						"/>
						<polygon class="st7" points="1406.3,1658.6 1425.3,1617.9 1337,1658.6 						"/>
						<polygon class="st8" points="1337,1658.6 1266.9,1658.6 1289.2,1625.7 						"/>
						<polygon class="st9" points="1266.9,1658.6 1211.2,1658.6 1289.2,1625.7 						"/>
						<path class="st10" d="M1211.2,1658.6c0,0,100-85.5,101.5-85.3c1.5,0.2-23.4,52.4-23.4,52.4L1211.2,1658.6L1211.2,1658.6z"/>
						<polygon class="st11" points="1312.7,1573.3 1386.8,1573.3 1289.2,1625.7 						"/>
						<polygon class="st12" points="1386.8,1573.3 1425.3,1617.9 1526,1573.3 						"/>
						<polygon class="st13" points="1526,1658.6 1645.7,1658.6 1626.7,1617.9 						"/>
						<polygon class="st14" points="1526,1573.3 1425.3,1617.9 1526,1658.6 1626.7,1617.9 						"/>
						<polygon class="st0" points="1626.7,1617.9 1665.2,1573.3 1762.8,1625.7 1714.9,1658.6 						"/>
						<polygon class="st15" points="1645.7,1658.6 1626.7,1617.9 1714.9,1658.6 						"/>
						<polygon class="st16" points="1714.9,1658.6 1785.1,1658.6 1762.8,1625.7 						"/>
						<polygon class="st17" points="1785.1,1658.6 1840.8,1658.6 1762.8,1625.7 						"/>
						<path class="st18" d="M1840.8,1658.6c0,0-100-85.5-101.5-85.3c-1.5,0.2,23.4,52.4,23.4,52.4L1840.8,1658.6L1840.8,1658.6z"/>
						<polygon class="st0" points="1739.3,1573.3 1665.2,1573.3 1762.8,1625.7 						"/>
						<polygon class="st19" points="1665.2,1573.3 1626.7,1617.9 1526,1573.3 						"/>
					</g>
					<g>
						<polygon class="st20" points="1406.3,1658.6 1481,1842.6 1337,1658.6 						"/>
						<polygon class="st0" points="1337,1658.6 1437.5,1842.6 1526,1936.2 1481,1842.6 						"/>
						<polygon class="st11" points="1337,1658.6 1266.9,1658.6 1437.5,1842.6 						"/>
						<polygon class="st21" points="1526,1936.2 1437.5,1842.6 1211.2,1658.6 						"/>
						<polygon class="st22" points="1266.9,1658.6 1211.2,1658.6 1437.5,1842.6 						"/>
						<polygon class="st23" points="1526,1658.6 1481,1842.6 1526,1936.2 1571,1842.6 						"/>
						<polygon class="st14" points="1645.7,1658.6 1571,1842.6 1714.9,1658.6 						"/>
						<polygon class="st24" points="1714.9,1658.6 1614.4,1842.6 1526,1936.2 1571,1842.6 						"/>
						<polygon class="st25" points="1714.9,1658.6 1785.1,1658.6 1614.4,1842.6 						"/>
						<polygon class="st26" points="1526,1936.2 1614.4,1842.6 1840.8,1658.6 						"/>
						<polygon class="st27" points="1785.1,1658.6 1840.8,1658.6 1614.4,1842.6 						"/>
						<polygon class="st28" points="1645.7,1658.6 1571,1658.6 1571,1842.6 						"/>
						<polygon class="st5" points="1526,1658.6 1406.3,1658.6 1481,1842.6 						"/>
					</g>
					<g>
						<polygon class="st0" points="1266.9,1658.6 1406.3,1658.6 1386.8,1573.3 						"/>
						<polygon class="st29" points="1406.3,1658.6 1526,1658.6 1645.7,1658.6 1526,1573.3 						"/>
						<polygon class="st30" points="1739.3,1573.3 1785.1,1658.6 1840.8,1658.6 						"/>
						<polygon class="st29" points="1645.7,1658.6 1785.1,1658.6 1665.2,1573.3 						"/>
					</g>
					<path class="st31" d="M1785.1,1648.9h-562.6c-6.9,5.9-11.3,9.7-11.3,9.7h629.6c0,0-4.4-3.8-11.3-9.7H1785.1L1785.1,1648.9z"/>
					
						<linearGradient id="SVGID_00000016778565901308566040000017771820288865857412_" gradientUnits="userSpaceOnUse" x1="1582.9087" y1="-1758.9418" x2="1635.9087" y2="-1795.9319" gradientTransform="matrix(1 0 0 -1 0 0)">
						<stop  offset="0" style="stop-color:#D6D6D6"/>
						<stop  offset="1" style="stop-color:#191919"/>
					</linearGradient>
					<polygon style="fill:url(#SVGID_00000016778565901308566040000017771820288865857412_);" points="1526,1936.2 1658.3,1658.6 
						1750,1658.6 					"/>
				</g>
				<polygon class="st33" points="1571,1658.6 1526,1658.6 1571,1842.6 				"/>
				<polygon class="st33" points="1526,1936.2 1526,1658.6 1481,1658.6 				"/>
				<polygon class="st34" points="1337,1648.9 1386.8,1573.3 1404.1,1648.9 				"/>
				<polygon class="st34" points="1739.3,1573.3 1665.2,1573.3 1778.5,1648.9 				"/>
			</g>
		</g>
	</g>
</g>
</svg>
