<?xml version="1.0" encoding="utf-8"?>
<!-- Generator: Adobe Illustrator 27.7.0, SVG Export Plug-In . SVG Version: 6.00 Build 0)  -->
<svg version="1.1" id="Layer_1" xmlns="http://www.w3.org/2000/svg" xmlns:xlink="http://www.w3.org/1999/xlink" x="0px" y="0px"
	 viewBox="0 0 3500 3500" style="enable-background:new 0 0 3500 3500;" xml:space="preserve">
<style type="text/css">
	.st0{fill:#009CEB;}
</style>
<path class="st0" d="M1754.7,2210.8c0.7,0,3.3-1.5,7.8-4.6c100.6-67.9,197.3-132.7,290-194.6c28.8-19.2,61.5-54.2,34.2-91.5
	c-37.6-51.6-81.6-105.5-132.1-161.8c-9.9-11-14.8-23.8-14.7-38.4c0.4-138.8,0-286.1-1.2-441.8c-0.4-47.7,6.1-85.9,19.4-114.7
	c40.2-87,155.5-130.7,241.7-88.4c27.4,13.4,58.9,33.5,94.4,60.2c292.9,220.1,583.9,438.7,872.9,655.6c9.8,7.4,19.7,15,29.6,22.9
	c84.8,68.2,67.6,185.5-14,246.3c-632.1,470.6-1235.9,922.2-1811.5,1354.8c-63.3,47.5-105.8,74.2-127.6,80
	c-56.5,15.1-112.1,1.4-166.9-41.2c-45.4-35.4-53.7-94-53.8-149.6c-0.4-182.4-0.3-362.3,0.6-539.6c0-12.8-0.5-25.7-1.6-38.6
	c-0.3-4-3.7-7-7.7-6.8c-2.1,0.1-4,1.1-5.2,2.8c-7.4,9.1-17.4,11.2-26.7,18.5c-134.8,104.8-280.9,216.5-438.3,335.1
	c-28.7,21.6-62.6,38.5-98.9,39.8c-123.1,4.6-197.5-77.1-197.6-194.6c-0.2-827.8-0.2-1659.7,0-2495.5c0-22.1,8.5-39.8,25.4-53.1
	C401,271.2,519.6,177.1,628.6,89.7c38.8-31.1,73.4-55.2,103.8-72.3c91.8-51.5,209.8,18.3,226.2,116c1.6,9.6,2.3,49,2,118.4
	c-1.3,279.3-1.1,554.5,0.4,825.4c0,8.9,3.5,16.1,10.6,21.5c259.9,199.6,521.3,397.8,784.1,594.6c45.7,34.2,92.7,70.3,140.8,108.1
	c39.7,31.3,64.1,55.8,73.3,73.5c35.4,68.2-6.6,110.1-51.1,155.8c-56,57.4-111.8,114.7-167.5,171.9
	C1745.7,2208.5,1746.9,2211.1,1754.7,2210.8z M1140,1936.5c10.1-7.2,19.2-14.8,27.3-22.9c7.1-7.1,7.1-18.6,0-25.7
	c-0.7-0.7-1.4-1.3-2.1-1.8c-83-60.6-164.8-120.7-245.3-180.4c-19.3-14.3-59.5-17.9-59.7,17c-1,115.4-0.8,236,0.6,361.8
	c0.1,10.4,7,19.5,17,22.3c15.1,4.3,29.3,1.4,42.4-8.6C989.6,2045.6,1062.9,1991.7,1140,1936.5z"/>
<path class="st0" d="M1459.6,1435.3c-132-98.6-265.6-200.6-399.1-302.4c-17.7-13.5-23.7-30.1-23.7-53.7
	c-0.1-170.9,0.7-351.3,2.3-541.1c0.2-17.7,4.1-31.3,11.6-40.8c55.2-69.3,138.2-151.6,232.5-98.4c32.1,18,65.1,40.6,98.8,67.8
	c108,86.7,225.9,179.7,353.7,279.1c18,14,27,33.2,27,57.4c-0.1,193.6-0.4,369.3-0.9,527.2c-0.2,67.6-86.5,125.4-142.1,145.4
	c-30.6,11.1-59.7,11.4-87.2,1C1509.2,1468.1,1484.9,1454.3,1459.6,1435.3z M1171.9,550.1c0-6.5-5.2-11.8-11.7-11.9c0,0,0,0,0,0
	l-54.3-0.3c-6.5,0-11.8,5.2-11.9,11.7c0,0,0,0,0,0l-0.3,60.8c0,6.5,5.2,11.8,11.7,11.9c0,0,0,0,0,0l54.3,0.3
	c6.5,0,11.8-5.2,11.9-11.7c0,0,0,0,0,0L1171.9,550.1z M1171.6,694.1c0-6.7-5.4-12.1-12.1-12.2l-53.5-0.1c-6.7,0-12.1,5.4-12.2,12.1
	l0,0l-0.1,61.9c0,6.7,5.4,12.1,12.1,12.2l53.5,0.1c6.7,0,12.1-5.4,12.2-12.1l0,0L1171.6,694.1z M1171.2,837c0-5.5-4.6-10-10.1-10
	c0,0,0,0,0,0l-57.5,0.4c-5.5,0-10,4.6-10,10.1c0,0,0,0,0,0l0.5,64.8c0,5.5,4.6,10,10.1,10c0,0,0,0,0,0l57.5-0.4
	c5.5,0,10-4.6,10-10.1c0,0,0,0,0,0L1171.2,837z M1673.4,838.8c0-6.5-5.2-11.7-11.7-11.7h0l-55.2-0.1c-6.5,0-11.7,5.2-11.7,11.7
	c0,0,0,0,0,0l-0.1,55.2c0,6.5,5.2,11.7,11.7,11.7l55.2,0.1c6.5,0,11.7-5.2,11.7-11.7L1673.4,838.8z M1171.7,983.1
	c0-6.2-5-11.1-11.1-11.1h-55.7c-6.2,0-11.1,5-11.1,11.1v62.4c0,6.2,5,11.1,11.1,11.1h55.7c6.2,0,11.1-5,11.1-11.1V983.1z
	 M1673.5,983.7c0-6.7-5.4-12.1-12.1-12.2c0,0,0,0,0,0l-54.3-0.1c-6.7,0-12.1,5.4-12.2,12.1l0,0l-0.1,54.6c0,6.7,5.4,12.1,12.1,12.2
	c0,0,0,0,0,0l54.3,0.1c6.7,0,12.1-5.4,12.2-12.1L1673.5,983.7z M1673.8,1130.3c0.1-7.6-6-13.7-13.6-13.8l-51.7-0.4
	c-7.6-0.1-13.7,6-13.8,13.6l-0.4,51.9c-0.1,7.6,6,13.7,13.6,13.8l51.7,0.4c7.6,0.1,13.7-6,13.8-13.6L1673.8,1130.3z M1673.6,1274.5
	c-0.1-7.9-6.6-14.3-14.5-14.2c0,0,0,0,0,0l-50.3,0.4c-7.9,0.1-14.3,6.6-14.2,14.5l0,0l0.4,50.1c0.1,7.9,6.6,14.3,14.5,14.2
	c0,0,0,0,0,0l50.3-0.4c7.9-0.1,14.3-6.6,14.2-14.5L1673.6,1274.5z"/>
</svg>
