<?xml version="1.0" encoding="utf-8"?>
<!-- Generator: Adobe Illustrator 27.7.0, SVG Export Plug-In . SVG Version: 6.00 Build 0)  -->
<svg version="1.1" id="Layer_1" xmlns="http://www.w3.org/2000/svg" xmlns:xlink="http://www.w3.org/1999/xlink" x="0px" y="0px"
	 viewBox="0 0 3500 3500" style="enable-background:new 0 0 3500 3500;" xml:space="preserve">
<style type="text/css">
	.st0{fill:none;stroke:#5BCBD1;stroke-width:2;}
	.st1{fill:none;stroke:#3CC2C8;stroke-width:2;}
	.st2{fill:none;stroke:#0EA0B6;stroke-width:2;}
	.st3{fill:none;stroke:#10A4B8;stroke-width:2;}
	.st4{fill:none;stroke:#17B2BD;stroke-width:2;}
	.st5{fill:none;stroke:#60D4D5;stroke-width:2;}
	.st6{fill:none;stroke:#15ADBC;stroke-width:2;}
	.st7{fill:none;stroke:#40CBCC;stroke-width:2;}
	.st8{fill:none;stroke:#85E4E0;stroke-width:2;}
	.st9{fill:none;stroke:#38B9C5;stroke-width:2;}
	.st10{fill:none;stroke:#13A8BA;stroke-width:2;}
	.st11{fill:none;stroke:#DBB344;stroke-width:2;}
	.st12{fill:none;stroke:#EACF75;stroke-width:2;}
	.st13{fill:none;stroke:#E2C164;stroke-width:2;}
	.st14{fill:none;stroke:#C9993B;stroke-width:2;}
	.st15{fill:#12A9B9;}
	.st16{fill:#65DBD7;}
	.st17{fill:#1BBAC1;}
	.st18{fill:#A4EDE8;}
	.st19{fill:#E3C155;}
	.st20{fill:#0A96B3;}
	.st21{fill:#F1DC95;}
	.st22{fill:#D2A532;}
	.st23{fill:#0E9FB6;}
	.st24{fill:#C08C44;}
</style>
<g>
	<path vector-effect="non-scaling-stroke" class="st0" d="M2582,647.2c-17.6,0.2-28.9-0.1-33.8-0.8c-27.5-3.8-32.6,5.1-15.2,26.7
		c37.5,46.9,70.9,100.5,100.3,160.9"/>
	<path vector-effect="non-scaling-stroke" class="st1" d="M2633.2,833.9l48.1,147.6"/>
	<path vector-effect="non-scaling-stroke" class="st2" d="M2681.3,981.5l-95.2,1c-2.1,0-3.9,0.8-5.2,2.5c-0.7,0.9-1.5,1.7-2.3,2.6
		c-2.6,2.9-5.3,2.9-8,0.1c-4.9-5-10-5.3-15.4-1c-15.6,12.6-32,15.3-49.2,8c-3.7-1.6-7.6-2.3-11.6-2c-39.3,2.5-76.2,2-110.7-1.7
		c-31.6-3.3-57.7-5.4-78.4-6.1c-2.3-0.1-4.2-1-5.7-2.6c-1.1-1.3-2.6-1.9-4.4-1.7c-2.4,0.3-4.6,1.3-6.6,2.9
		c-15.6,12.4-30.4,11.4-44.4-3c-2.6-2.6-6-4.4-9.6-5.1c-17.4-3.3-25.4-21.3-42.5-27.3c-13.7-4.8-26-13-36.8-24.5
		c-0.2-0.2-0.3-0.2-0.5,0l-2,2.3c-1.3,1.4-1.3,2.8,0,4.2c25.4,24.9,53,44.4,82.9,58.4c3.6,1.7,6.6,4,9.1,7c3.7,4.4,8.6,7.1,14.7,8.1
		c4.2,0.7,7.7,2.7,10.5,5.8l61.1,68.8"/>
	<path vector-effect="non-scaling-stroke" class="st3" d="M915.6,1629l-30.1-159.4"/>
	<path vector-effect="non-scaling-stroke" class="st4" d="M885.5,1469.6c-12.2-43-19.2-75.4-20.8-97.1
		c-4.2-56.4-4.4-127.5-0.5-213.3c1.9-40.5,10.7-80.5,17.3-122"/>
	<path vector-effect="non-scaling-stroke" class="st1" d="M881.4,1037.3c17.5-75,48.7-149.9,93.6-224.8
		c55-91.6,120.7-170.8,197.4-237.4c44.4-38.5,81.2-68.3,110.3-89.5c23.3-16.9,78.5-54.4,165.3-112.4c12.1-8.1,24.1-20.8,33.2-32.3
		c2.7-3.4,6-6,10-7.7l142.7-61.7c0.5-0.1,0.7-0.6,0.3-1c-0.4-0.4-1.1-0.6-1.6-0.5l0,0c-15.1,3.7-26.6,3.8-34.4,0.1"/>
	<path vector-effect="non-scaling-stroke" class="st5" d="M1092.8,548.4c-43.2,27.2-87.3,54.5-132.5,81.7
		c-0.5,0.3-12.6,8.7-36.4,25.1c-12.3,8.5-27.2,17-44.8,25.4c-39.6,19.1-77.4,46.1-113.4,81"/>
	<path vector-effect="non-scaling-stroke" class="st6" d="M885.5,1469.6l-13.5,21.9c-2.2,3.6-5.4,5.6-9.6,6
		c-9.8,1-19.5,1.2-29.1,0.8c-23-1-42.6,13-62.7,21.8c-8.8,3.8-18.9,6-30.3,6.6c-9.5,0.6-18.6,1.1-27.3,1.5
		c-11.9,0.7-25.5,0.3-40.7-1.2c-18.7-1.9-37.3-2.7-56-2.3c-37.4,0.8-74.3-3.2-111.5-1.4c-17.6,0.9-36.1,0.6-55.4-0.7
		c-51.9-3.7-104.9-4.2-158.8-1.8c-8.7,0.4-17-2.5-25-8.8c-4.3-3.3-9.2-5.2-14.7-5.6c-44.1-2.5-83.4-7.3-117.9-14.3
		c-5.2-1-10.9-1.2-17.2-0.5c-3.3,0.3-6.6-0.2-9.6-1.4l-26.7-10.8c-4-1.7-7.8-3.9-11.3-6.6c-7.5-5.7-17.2-8.2-29.1-7.5"/>
	<path vector-effect="non-scaling-stroke" class="st7" d="M881.4,1037.3c-16.9,12-32.6,23.6-47,34.9c-5.9,4.7-10.6,10-14.1,16
		c-10.4,18-16.7,33.8-31.8,49.3c-10,10.2-18.3,22.1-25,35.9c-12.9,26.2-56.8,74.7-84.6,84c-23.3,7.8-48.2,9.3-74.8,4.5
		c-26.1-4.7-52.7-9.6-79.8-14.9c-2.1-0.4-4,0-5.8,1.1c-1.5,1-3.1,1.1-4.6,0.5c-28.7-11.4-56.7-18.5-84-21.2c-0.3,0-0.6-0.3-0.6-0.7
		c0-0.1,0-0.1,0-0.2l0.8-3c0.4-1.5,1.9-2.4,3.4-2c0,0,0,0,0.1,0c4.2,1.1,8.7,1.1,13.5-0.1c4.1-1.1,4.1-1.9-0.1-2.5
		c-26.3-3.8-52.2-9.2-77.8-16.1c-1.8-0.5-9.5-1.4-23-2.9c-7.7-0.9-14.8-4.1-21.3-9.8c-6.6-5.7-8.7-15.1-5.2-23.2
		c5.2-11.8,11.8-22.3,19.9-31.4c20.2-22.9,41.2-45.1,62.8-66.7c14-14,24.9-30.3,32.8-48.8c3-7.2,8.6-12,16.8-14.2
		c3.7-1,6.5-3.1,8.6-6.3c11.6-18.1,25.5-30.9,41.8-38.5c11.4-5.3,21.7-12.7,30.7-22.2c21-22.2,42.8-42,65.4-59.7
		c8.8-6.9,18.6-13.7,29.3-20.4c10.1-6.3,19-13,26.7-20.2c16-14.9,34.8-23.8,51.9-37.6c18.4-14.8,38.3-27.8,59.6-39.2"/>
	<path vector-effect="non-scaling-stroke" class="st8" d="M765.8,761.6l-147.5,134c-1.7,1.6-2.6,3.8-2.5,6.1c0.1,2.8-1,4.9-3.3,6.3
		c-35.7,22.7-65,50.5-88.1,83.3c-2.5,3.4-5.6,6-9.4,7.6c-27.1,12.1-45.7,33.4-55.9,64.1c-2.5,7.5,1.4,15.8,8.9,18.6
		c20.9,7.9,40.8,14.3,59.7,19.3c1.4,0.4,1.8,1.3,1.4,2.7c-0.2,1-0.9,1.9-1.9,2.6c-0.5,0.4-0.4,0.7,0.1,0.8
		c41.7,11.4,83.7,18.5,126.1,21.3c18.3,1.3,36.5-4,54.7-15.8c26.3-17.2,47.8-36.8,64.4-58.8c12.2-16.2,25.3-32.6,39.1-49.1
		c13.7-16.4,25.3-33.8,35-52.4c15.1-29.2,29.9-58.6,44.5-88.1c56.1-113.7,129.2-215,219.5-304c3.3-3.3,3-6.2-0.7-8.7
		c-3.5-2.3-9.2-3.3-17.2-3"/>
	<path vector-effect="non-scaling-stroke" class="st7" d="M1092.8,548.4c36.7-32.2,79.1-55.6,127.2-70.2
		c22.2-6.7,42.1-17.5,59.7-32.3c17.6-14.9,35.6-26.5,54-34.8c45.6-20.6,83.6-39.9,114.1-58.1c12.5-7.5,16.8-15.8,13.1-25"/>
	<path vector-effect="non-scaling-stroke" class="st5" d="M2618.2,670.4c43.8,43.4,90.8,81.8,140.9,115.4
		c11.8,8,24.5,22.3,40.6,31.6c36.5,21,72.9,47,109.1,77.9c12.3,10.6,24.7,20.1,37.3,28.5c12.9,8.7,24.9,19.7,36,33.2
		c2.4,2.9,5.4,4.6,9.2,5c4,0.5,7,2.5,9.1,6c2.3,3.7,5.4,6.6,9.2,8.7l27.5,15c3.3,1.8,5.8,4.3,7.7,7.5c7,11.7,16.9,19.5,29.7,23.5
		c3.1,1,5.4,2.9,6.9,5.8c6,11.7,13.3,21.8,21.7,30.4c10.1,10.4,12.9,23.2,25,31c18.7,11.9,35.3,30.5,51.7,46
		c10.5,9.9,22,18.6,34.4,26.1c17.5,10.6,33,23.8,46.6,39.8c17.2,20.2,34.7,41.6,52.3,64.2c47.6,61.1,49,120.1,3.9,176.8"/>
	<path vector-effect="non-scaling-stroke" class="st8" d="M3316.9,1442.6l-39.4,27.4c-3.4,2.4-6.4,1.9-8.9-1.4
		c-5.2-6.6-11.4-11.9-18.8-16c-50.7-27.5-102.8-54.6-156.5-81.5c-54.4-27.2-110.9-57.3-169.6-90.5c-11.8-6.6-23.4-13.6-34.9-21.1
		c-11.3-7.2-21.9-15.6-31.8-25c-15.6-14.9-31.8-29-48.6-42.3c-3.3-2.5-5.2-5.9-6-10c-1.9-11-6.7-20.2-14.3-27.6
		c-2.9-2.9-4.9-6.4-5.8-10.5c-6.5-28.7-16.4-56.8-29.5-84.2c-8.5-17.5-4.8-33.1-12.6-51c-5.7-13.1-10-27.1-12.9-41.9
		c-4.4-22.9-14.2-42.2-29.3-58.1c-4-4.3-6-10.1-5.4-16c1-10.5-2-19.3-9.1-26.4c-9.1-9.1-19.6-17.8-31.6-26c-2.3-1.6-3.1-1-2.5,1.7
		c0.1,0.5-0.1,0.8-0.5,1c-2,0.8-3.6,0.2-4.8-1.7c-3.1-4.8-6.7-7.3-11-7.5"/>
	<path vector-effect="non-scaling-stroke" class="st9" d="M2139.8,2020.9c-10.7,4.6-16.9,5.8-18.6,3.6"/>
	<path vector-effect="non-scaling-stroke" class="st9" d="M2566.7,1522.5c5.5,0.4,9.5-1.5,12.1-5.6
		c72.4-110.8,106.5-236.2,117.1-372.1c4.2-54.1-5.4-108.2-14.7-163.3"/>
	<path vector-effect="non-scaling-stroke" class="st10" d="M2631.8,2275.8l-28.5,9.3c-3.7,1.2-6.6,0.3-8.9-2.7
		c-10.4-13-25.4-20-44.9-20.8c-2.1-0.1-3.7,0.6-5,2c-2,2.3-4.2,2.6-6.8,1c-4.8-3.3-7.5-7.4-8.3-12.5c-0.6-3.7-2.7-6.4-6.1-8.1
		c-42.3-20.1-86-42.6-131-67.4c-15.6-8.7-31-11.9-47.3-18.7c-2.8-1.2-4.2-3.3-4.3-6.3c-0.1-1.4,0.1-2.8,0.6-4c1.8-5.6-0.2-8.3-6-8.2
		c-18.5,0.3-37-2.9-55.4-9.8c-6.7-2.5-12.3-6.5-16.9-12.1c-2.7-3.3-6-5.9-9.8-7.7l-122.4-57.5c-3.3-1.5-6.6-1.7-9.9-0.6
		c-8.9,3-15.8,8.4-20.6,16.2c-5.2,8.3-6.4,7.8-3.6-1.7c2.9-9.4,8.5-16,16.9-19.7c10.8-4.6,19.4-16.1,26.2-25.4"/>
	<path vector-effect="non-scaling-stroke" class="st7" d="M2139.8,2020.9c84.4-85.3,169.8-170.1,256.1-254.3
		c49.1-47.9,95.8-98.4,137.9-151.3c7.1-8.8,13.6-18.2,19.5-28.1c6.3-10.6,13.5-19.7,21.7-27.4c18.3-17.3,35.1-39,50.4-65
		c14.5-24.5,44.9-37.4,71.3-21.3c13.6,8.2,26.2,16.2,37.9,24.1c0.9,0.6,1.7,0.6,2.6,0c0.6-0.5,1.3-0.8,2-1c2.5-0.5,4.7,0,6.8,1.4
		c25.5,16.8,53.2,32,83.1,45.6c47.2,21.4,93.3,43.2,138.4,65.6c2.1,1.1,4,2.6,5.5,4.4c2.9,3.7,6.7,6.3,11.3,7.7
		c24.3,7.3,50,14.4,77.2,21.2c19.2,4.8,34.8-1.8,49.1-13.9c46.2-39.5,92.9-76.2,140.1-110.2c15.6-11.2,37.6-36.5,66.1-75.9"/>
	<path vector-effect="non-scaling-stroke" class="st11" d="M2146.1,1108.3c49.6,44.1,97,87.6,142.3,130.5
		c6.3,5.9,9.8,11.4,10.6,16.4c0.8,4.8,1.3,7.5,1.5,8.1c2.6,7.5,4.6,15.2,6.1,23.1c1.3,7.6,0.6,14.7-2.3,21.3
		c-12.5,28.8-22.2,64.6-40.9,89.6c-7.6,10.2-12.7,21-15.2,32.4c-3.7,16.4-10.4,31.5-20,45.3c-44.3,63.4-88.2,113.4-131.6,150.2
		c-26.9,22.8-78.2,50.5-153.9,83c-1,0.4-1.5,1.2-1.5,2.3c-0.1,1,0.4,1.6,1.3,1.7c0.2,0,0.5,0.2,0.5,0.5c0,0.2-0.1,0.4-0.4,0.4
		c-56.4,14.5-114.1,19.5-173.3,15.1c-21.5-1.6-42.6-2.4-63.1-2.4c-20.9,0.1-40.9-1.4-59.9-4.4c-11-1.7-21.8-2.1-32.4-1.2
		c-11.8,1.1-22.9-0.7-33.1-5.4c-13.1-6.1-27.9-9.3-44.3-9.6c-23-0.5-45.5,0.3-67.3,2.4c-15.2,1.4-31-6.9-46-5.5
		c-26.2,2.5-52.9,3.4-80,2.7c-0.7,0-1.2,0.4-1.3,1.1c-0.2,1.2,0.4,2,1.7,2.5c0.5,0.3,0.6,0.8,0.4,1.3c-0.2,0.3-0.4,0.5-0.7,0.5
		l-128,8.1c-5.2,0.3-9.4-1.6-12.6-5.8c-33.6-44.3-53.5-88.8-59.8-133.4c-6.8-48.1-8.8-103.7,7.7-150.3"/>
	<path vector-effect="non-scaling-stroke" class="st12" d="M1150.5,1428.7l0.1,12.4c0,5.2,2.3,6.6,6.8,3.9c6.8-4,13.8-4.2,21-0.4
		c1.9,1,2.9,0.5,3.1-1.7c0-0.4-0.1-0.8-0.4-1.1c-2.1-2.6-1.6-3.5,1.7-2.5c20,5.6,44.2,14.4,63.4,11.7c28.9-4,52.9-4.1,71.9-0.4
		c26.6,5.1,43.2,1.4,66.5,1.8c35.5,0.5,71,1.5,106.6,3c33.9,1.5,66.5,0.8,97.8-2.3c32.6-3.2,64.4-4.7,95.6-4.5
		c32.8,0.2,64.5-5.5,95.1-17.2c58.8-22.6,109.1-50.4,150.7-83.5c1.5-1.2,3.5-1.6,5.4-1.2c2.5,0.6,4.8,0.1,6.7-1.3
		c38-28.5,53.3-66.9,45.7-115.3c-2.2-14.3-7-28.7-14.3-43.1c-8.3-16.4-17.4-30.5-27.3-42.5c-9-11-17.5-22.7-25.5-34.9
		c-8.5-12.9-17.3-24.3-26.3-34.2c-35.3-37.9-72.2-73-110.7-105.3c-16.7-14.1-46.9-34.7-69.2-26.1c-8.5,3.3-17.3,5.5-26.4,6.6
		c-23.4,2.9-44.8,11-64.1,24.3c-9.3,6.3-20,7.7-30.1,11.4c-0.6,0.2-1.2,0.5-1.8,0.8c-23.1,13.2-42,27.1-56.7,41.7
		c-2.5,2.5-5.6,4.4-8.9,5.6c-6.9,2.3-12.9,5.7-18,10.2c-6.2,5.5-13,10.2-20.4,14.1c-49.7,26.4-84.1,48.1-103.3,65.2
		c-43,38.3-86,76.7-128.8,115.4"/>
	<path vector-effect="non-scaling-stroke" class="st11" d="M1256.4,1239.4c2.2-8.9,2.9-16.6,2.1-23.2c-0.4-3.9,0.1-7.7,1.5-11.3
		c2.9-7.6,3.4-15.4,1.3-23.5c-1-3.7-0.2-7,2.5-9.9l26.6-28.3"/>
	<path vector-effect="non-scaling-stroke" class="st13" d="M1150.5,1428.7c23.3-68.9,58.6-132,105.9-189.3"/>
	<path vector-effect="non-scaling-stroke" class="st14" d="M1619.1,2373.6l-43.8,33c-4,3-8.3,3.4-12.7,1.2c-5.7-3-12-4.2-18.9-3.7
		c-4,0.3-7.8-0.6-11.3-2.7c-7.5-4.4-15.3-7.3-23.5-8.7c-7.9-1.3-15.8-2.9-23.7-4.9c-17.6-4.4-34.1-9.8-49.3-16.3
		c-69.2-29.5-149.4-68-240.4-115.5c-13.8-7.2-27.2-15-40-23.2c-0.8-0.6-1.6-0.7-2.5-0.4c-1.8,0.5-2.6,1.6-2.3,3.3
		c0,0.3-0.2,0.5-0.4,0.5c-0.2,0-0.3,0-0.4-0.2c-8.2-10-17.7-16.6-28.7-19.9c-3.9-1.2-7.2-3.3-10-6.2c-7.3-7.6-15.6-14.2-24.9-19.8
		c-3.5-2.1-6.2-4.8-8-8.3c-13.1-24.2-25.1-26.4-35.9-6.6"/>
</g>
<path class="st15" d="M2582,647.2c-17.6,0.2-28.9-0.1-33.8-0.8c-27.5-3.8-32.6,5.1-15.2,26.7c37.5,46.9,70.9,100.5,100.3,160.9
	l48.1,147.6l-95.2,1c-2.1,0-3.9,0.8-5.2,2.5c-0.7,0.9-1.5,1.7-2.3,2.6c-2.6,2.9-5.3,2.9-8,0.1c-4.9-5-10-5.3-15.4-1
	c-15.6,12.6-32,15.3-49.2,8c-3.7-1.6-7.6-2.3-11.6-2c-39.3,2.5-76.2,2-110.7-1.7c-31.6-3.3-57.7-5.4-78.4-6.1
	c-2.3-0.1-4.2-1-5.7-2.6c-1.1-1.3-2.6-1.9-4.4-1.7c-2.4,0.3-4.6,1.3-6.6,2.9c-15.6,12.4-30.4,11.4-44.4-3c-2.6-2.6-6-4.4-9.6-5.1
	c-17.4-3.3-25.4-21.3-42.5-27.3c-13.7-4.8-26-13-36.8-24.5c-0.2-0.2-0.3-0.2-0.5,0l-2,2.3c-1.3,1.4-1.3,2.8,0,4.2
	c25.4,24.9,53,44.4,82.9,58.4c3.6,1.7,6.6,4,9.1,7c3.7,4.4,8.6,7.1,14.7,8.1c4.2,0.7,7.7,2.7,10.5,5.8l61.1,68.8
	c-54.9-39.2-106.6-82.5-162.9-115.8c-59.4-35-117.7-72.1-179.3-103.5c-71.8-36.6-145.4-70.5-220.7-101.7c-11.8-4.8-23.9-5-36.2-0.5
	c-238.2,88.4-473.1,221.4-656,398.4c-20.8,20.2-38.2,40.1-52.3,59.9c-20.4,28.7-45.7,54.6-61.6,85.8c-12.3,24.3-22.5,51.1-30.6,80.3
	c-6,21.7-9.1,50.1-9.3,85.4c-0.4,53-2.6,107.2-6.7,162.5l-30.1-159.4c-12.2-43-19.2-75.4-20.8-97.1c-4.2-56.4-4.4-127.5-0.5-213.3
	c1.9-40.5,10.7-80.5,17.3-122c17.5-75,48.7-149.9,93.6-224.8c55-91.6,120.7-170.8,197.4-237.4c44.4-38.5,81.2-68.3,110.3-89.5
	c23.3-16.9,78.5-54.4,165.3-112.4c12.1-8.1,24.1-20.8,33.2-32.3c2.7-3.4,6-6,10-7.7l142.7-61.7c0.5-0.1,0.7-0.6,0.3-1
	c-0.4-0.4-1.1-0.6-1.6-0.5l0,0c-15.1,3.7-26.6,3.8-34.4,0.1c35.7-14.3,71.4-27.8,107.1-40.6c40.7-14.7,65.9-3.5,111,14.2
	c165.6,64.6,324.9,141.7,478,231.2C2365.5,516.5,2489.1,584.4,2582,647.2z"/>
<path class="st16" d="M881.4,1037.3c-16.9,12-32.6,23.6-47,34.9c-5.9,4.7-10.6,10-14.1,16c-10.4,18-16.7,33.8-31.8,49.3
	c-10,10.2-18.3,22.1-25,35.9c-12.9,26.2-56.8,74.7-84.6,84c-23.3,7.8-48.2,9.3-74.8,4.5c-26.1-4.7-52.7-9.6-79.8-14.9
	c-2.1-0.4-4,0-5.8,1.1c-1.5,1-3.1,1.1-4.6,0.5c-28.7-11.4-56.7-18.5-84-21.2c-0.3,0-0.6-0.3-0.6-0.7c0-0.1,0-0.1,0-0.2l0.8-3
	c0.4-1.5,1.9-2.4,3.4-2c0,0,0,0,0.1,0c4.2,1.1,8.7,1.1,13.5-0.1c4.1-1.1,4.1-1.9-0.1-2.5c-26.3-3.8-52.2-9.2-77.8-16.1
	c-1.8-0.5-9.5-1.4-23-2.9c-7.7-0.9-14.8-4.1-21.3-9.8c-6.6-5.7-8.7-15.1-5.2-23.2c5.2-11.8,11.8-22.3,19.9-31.4
	c20.2-22.9,41.2-45.1,62.8-66.7c14-14,24.9-30.3,32.8-48.8c3-7.2,8.6-12,16.8-14.2c3.7-1,6.5-3.1,8.6-6.3
	c11.6-18.1,25.5-30.9,41.8-38.5c11.4-5.3,21.7-12.7,30.7-22.2c21-22.2,42.8-42,65.4-59.7c8.8-6.9,18.6-13.7,29.3-20.4
	c10.1-6.3,19-13,26.7-20.2c16-14.9,34.8-23.8,51.9-37.6c18.4-14.8,38.3-27.8,59.6-39.2l-147.5,134c-1.7,1.6-2.6,3.8-2.5,6.1
	c0.1,2.8-1,4.9-3.3,6.3c-35.7,22.7-65,50.5-88.1,83.3c-2.5,3.4-5.6,6-9.4,7.6c-27.1,12.1-45.7,33.4-55.9,64.1
	c-2.5,7.5,1.4,15.8,8.9,18.6c20.9,7.9,40.8,14.3,59.7,19.3c1.4,0.4,1.8,1.3,1.4,2.7c-0.2,1-0.9,1.9-1.9,2.6
	c-0.5,0.4-0.4,0.7,0.1,0.8c41.7,11.4,83.7,18.5,126.1,21.3c18.3,1.3,36.5-4,54.7-15.8c26.3-17.2,47.8-36.8,64.4-58.8
	c12.2-16.2,25.3-32.6,39.1-49.1c13.7-16.4,25.3-33.8,35-52.4c15.1-29.2,29.9-58.6,44.5-88.1c56.1-113.7,129.2-215,219.5-304
	c3.3-3.3,3-6.2-0.7-8.7c-3.5-2.3-9.2-3.3-17.2-3c36.7-32.2,79.1-55.6,127.2-70.2c22.2-6.7,42.1-17.5,59.7-32.3
	c17.6-14.9,35.6-26.5,54-34.8c45.6-20.6,83.6-39.9,114.1-58.1c12.5-7.5,16.8-15.8,13.1-25l137.3-57.9c7.9,3.7,19.3,3.6,34.4-0.1
	c0.5-0.1,1.3,0.1,1.6,0.5c0.4,0.4,0.2,0.8-0.3,1c0,0,0,0,0,0l-142.7,61.7c-4,1.7-7.3,4.3-10,7.7c-9.2,11.4-21.1,24.2-33.2,32.3
	c-86.9,58-142,95.5-165.3,112.4c-29.1,21.1-65.9,50.9-110.3,89.5C1095.8,641.7,1030,720.9,975,812.5
	C930.1,887.4,898.9,962.3,881.4,1037.3z"/>
<path class="st17" d="M1460.9,328.1c3.7,9.2-0.6,17.5-13.1,25c-30.5,18.2-68.5,37.6-114.1,58.1c-18.3,8.3-36.3,19.9-54,34.8
	c-17.5,14.8-37.4,25.5-59.7,32.3c-48.1,14.5-90.5,37.9-127.2,70.2c-43.2,27.2-87.3,54.5-132.5,81.7c-0.5,0.3-12.6,8.7-36.4,25.1
	c-12.3,8.5-27.2,17-44.8,25.4c-39.6,19.1-77.4,46.1-113.4,81c-21.3,11.4-41.1,24.4-59.6,39.2c-17.2,13.8-36,22.8-51.9,37.6
	c-7.7,7.2-16.6,14-26.7,20.2c-10.7,6.7-20.5,13.5-29.3,20.4c-22.6,17.6-44.3,37.5-65.4,59.7c-9.1,9.4-19.3,16.8-30.7,22.2
	c-16.3,7.5-30.2,20.4-41.8,38.5c-2.1,3.2-4.9,5.3-8.6,6.3c-8.2,2.2-13.8,6.9-16.8,14.2c-7.9,18.6-18.8,34.9-32.8,48.8
	c-21.6,21.6-42.5,43.8-62.8,66.7c-8.1,9.1-14.7,19.6-19.9,31.4c-3.5,8.1-1.4,17.5,5.2,23.2c6.5,5.6,13.6,8.9,21.3,9.8
	c13.5,1.4,21.2,2.4,23,2.9c25.6,6.9,51.5,12.3,77.8,16.1c4.2,0.6,4.2,1.4,0.1,2.5c-4.8,1.2-9.3,1.2-13.5,0.1c-1.5-0.4-3,0.4-3.4,2
	c0,0,0,0,0,0.1l-0.8,3c-0.1,0.4,0.1,0.8,0.5,0.8c0,0,0.1,0,0.1,0c27.3,2.7,55.3,9.8,84,21.2c1.6,0.6,3.1,0.5,4.6-0.5
	c1.8-1.1,3.8-1.5,5.8-1.1c27.1,5.2,53.7,10.2,79.8,14.9c26.6,4.8,51.5,3.3,74.8-4.5c27.8-9.3,71.7-57.8,84.6-84
	c6.7-13.7,15-25.7,25-35.9c15.1-15.5,21.4-31.3,31.8-49.3c3.5-6,8.2-11.3,14.1-16c14.5-11.3,30.1-22.9,47-34.9
	c-6.6,41.5-15.4,81.5-17.3,122c-3.9,85.8-3.7,157,0.5,213.3c1.7,21.7,8.6,54,20.8,97.1l-13.5,21.9c-2.2,3.6-5.4,5.6-9.6,6
	c-9.8,1-19.5,1.2-29.1,0.8c-23-1-42.6,13-62.7,21.8c-8.8,3.8-18.9,6-30.3,6.6c-9.5,0.6-18.6,1.1-27.3,1.5
	c-11.9,0.7-25.5,0.3-40.7-1.2c-18.7-1.9-37.3-2.7-56-2.3c-37.4,0.8-74.3-3.2-111.5-1.4c-17.6,0.9-36.1,0.6-55.4-0.7
	c-51.9-3.7-104.9-4.2-158.8-1.8c-8.7,0.4-17-2.5-25-8.8c-4.3-3.3-9.2-5.2-14.7-5.6c-44.1-2.5-83.4-7.3-117.9-14.3
	c-5.2-1-10.9-1.2-17.2-0.5c-3.3,0.3-6.6-0.2-9.6-1.4l-26.7-10.8c-4-1.7-7.8-3.9-11.3-6.6c-7.5-5.7-17.2-8.2-29.1-7.5
	c-26.6-42.4-30.7-87.9-12.1-136.4c6.1-16,18.9-32.3,38.4-48.7c251.7-212.3,501.3-404.2,748.7-575.6
	c67.7-46.9,139.6-93.6,215.8-140.1c102.4-62.4,188.8-113.4,259.2-152.8C1321.9,393.5,1379.1,365.6,1460.9,328.1z"/>
<path class="st18" d="M1092.8,548.4c7.9-0.3,13.7,0.7,17.2,3c3.7,2.5,4,5.4,0.7,8.7c-90.3,88.9-163.5,190.3-219.5,304
	c-14.6,29.5-29.5,58.9-44.5,88.1c-9.7,18.6-21.4,36.1-35,52.4c-13.8,16.5-26.8,32.9-39.1,49.1c-16.7,22.1-38.2,41.7-64.4,58.8
	c-18.2,11.8-36.4,17.1-54.7,15.8c-42.4-2.8-84.5-9.9-126.1-21.3c-0.6-0.2-0.6-0.4-0.1-0.8c1-0.7,1.7-1.6,1.9-2.6
	c0.4-1.4-0.1-2.3-1.4-2.7c-18.9-5-38.8-11.4-59.7-19.3c-7.5-2.8-11.5-11-8.9-18.6c10.2-30.7,28.8-52,55.9-64.1
	c3.8-1.7,6.9-4.2,9.4-7.6c23.1-32.8,52.5-60.5,88.1-83.3c2.3-1.4,3.4-3.5,3.3-6.3c-0.1-2.3,0.8-4.5,2.5-6.1l147.5-134
	c36-34.9,73.8-61.9,113.4-81c17.5-8.4,32.5-16.9,44.8-25.4c23.8-16.4,36-24.8,36.4-25.1C1005.5,602.9,1049.6,575.7,1092.8,548.4z"/>
<path class="st18" d="M2582,647.2l36.2,23.2c43.8,43.4,90.8,81.8,140.9,115.4c11.8,8,24.5,22.3,40.6,31.6
	c36.5,21,72.9,47,109.1,77.9c12.3,10.6,24.7,20.1,37.3,28.5c12.9,8.7,24.9,19.7,36,33.2c2.4,2.9,5.4,4.6,9.2,5c4,0.5,7,2.5,9.1,6
	c2.3,3.7,5.4,6.6,9.2,8.7l27.5,15c3.3,1.8,5.8,4.3,7.7,7.5c7,11.7,16.9,19.5,29.7,23.5c3.1,1,5.4,2.9,6.9,5.8
	c6,11.7,13.3,21.8,21.7,30.4c10.1,10.4,12.9,23.2,25,31c18.7,11.9,35.3,30.5,51.7,46c10.5,9.9,22,18.6,34.4,26.1
	c17.5,10.6,33,23.8,46.6,39.8c17.2,20.2,34.7,41.6,52.3,64.2c47.6,61.1,49,120.1,3.9,176.8l-39.4,27.4c-3.4,2.4-6.4,1.9-8.9-1.4
	c-5.2-6.6-11.4-11.9-18.8-16c-50.7-27.5-102.8-54.6-156.5-81.5c-54.4-27.2-110.9-57.3-169.6-90.5c-11.8-6.6-23.4-13.6-34.9-21.1
	c-11.3-7.2-21.9-15.6-31.8-25c-15.6-14.9-31.8-29-48.6-42.3c-3.3-2.5-5.2-5.9-6-10c-1.9-11-6.7-20.2-14.3-27.6
	c-2.9-2.9-4.9-6.4-5.8-10.5c-6.5-28.7-16.4-56.8-29.5-84.2c-8.5-17.5-4.8-33.1-12.6-51c-5.7-13.1-10-27.1-12.9-41.9
	c-4.4-22.9-14.2-42.2-29.3-58.1c-4-4.3-6-10.1-5.4-16c1-10.5-2-19.3-9.1-26.4c-9.1-9.1-19.6-17.8-31.6-26c-2.3-1.6-3.1-1-2.5,1.7
	c0.1,0.5-0.1,0.8-0.5,1c-2,0.8-3.6,0.2-4.8-1.7c-3.1-4.8-6.7-7.3-11-7.5c-29.4-60.4-62.8-114.1-100.3-160.9
	c-17.3-21.6-12.2-30.5,15.2-26.7C2553.1,647,2564.3,647.3,2582,647.2z"/>
<path class="st17" d="M2618.2,670.4c159.7,104.7,308,209.6,445,314.7c101.6,78,220,172,355.1,282.2c38.8,31.7,70.2,70.8,66.2,123
	c-2.2,29.6-12.1,53.2-29.5,70.8c-121.5,122.6-278.2,275.5-470,458.7c-76.2,72.8-193.9,191.5-353.2,356l-28.5,9.3
	c-3.7,1.2-6.6,0.3-8.9-2.7c-10.4-13-25.4-20-44.9-20.8c-2.1-0.1-3.7,0.6-5,2c-2,2.3-4.2,2.6-6.8,1c-4.8-3.3-7.5-7.4-8.3-12.5
	c-0.6-3.7-2.7-6.4-6.1-8.1c-42.3-20.1-86-42.6-131-67.4c-15.6-8.7-31-11.9-47.3-18.7c-2.8-1.2-4.2-3.3-4.3-6.3
	c-0.1-1.4,0.1-2.8,0.6-4c1.8-5.6-0.2-8.3-6-8.2c-18.5,0.3-37-2.9-55.4-9.8c-6.7-2.5-12.3-6.5-16.9-12.1c-2.7-3.3-6-5.9-9.8-7.7
	l-122.4-57.5c-3.3-1.5-6.6-1.7-9.9-0.6c-8.9,3-15.8,8.4-20.6,16.2c-5.2,8.3-6.4,7.8-3.6-1.7c2.9-9.4,8.5-16,16.9-19.7
	c10.8-4.6,19.4-16.1,26.2-25.4c84.4-85.3,169.8-170.1,256.1-254.3c49.1-47.9,95.8-98.4,137.9-151.3c7.1-8.8,13.6-18.2,19.5-28.1
	c6.3-10.6,13.5-19.7,21.7-27.4c18.3-17.3,35.1-39,50.4-65c14.5-24.5,44.9-37.4,71.3-21.3c13.6,8.2,26.2,16.2,37.9,24.1
	c0.9,0.6,1.7,0.6,2.6,0c0.6-0.5,1.3-0.8,2-1c2.5-0.5,4.7,0,6.8,1.4c25.5,16.8,53.2,32,83.1,45.6c47.2,21.4,93.3,43.2,138.4,65.6
	c2.1,1.1,4,2.6,5.5,4.4c2.9,3.7,6.7,6.3,11.3,7.7c24.3,7.3,50,14.4,77.2,21.2c19.2,4.8,34.8-1.8,49.1-13.9
	c46.2-39.5,92.9-76.2,140.1-110.2c15.6-11.2,37.6-36.5,66.1-75.9c45-56.7,43.7-115.6-3.9-176.8c-17.6-22.6-35.1-44-52.3-64.2
	c-13.6-16-29.1-29.2-46.6-39.8c-12.5-7.5-23.9-16.2-34.4-26.1c-16.4-15.5-33-34.1-51.7-46c-12.1-7.7-14.9-20.6-25-31
	c-8.4-8.6-15.6-18.7-21.7-30.4c-1.5-2.9-3.8-4.9-6.9-5.8c-12.8-4-22.7-11.8-29.7-23.5c-1.9-3.2-4.5-5.7-7.7-7.5l-27.5-15
	c-3.8-2.1-6.9-5-9.2-8.7c-2.1-3.5-5.1-5.5-9.1-6c-3.7-0.4-6.8-2.1-9.2-5c-11.1-13.5-23.1-24.6-36-33.2c-12.5-8.4-25-17.9-37.3-28.5
	c-36.2-30.9-72.6-56.9-109.1-77.9c-16.1-9.3-28.8-23.6-40.6-31.6C2709,752.2,2662,713.8,2618.2,670.4z"/>
<path class="st16" d="M2633.2,833.9c4.2,0.2,7.9,2.7,11,7.5c1.2,1.9,2.8,2.5,4.8,1.7c0.4-0.2,0.6-0.5,0.5-1
	c-0.6-2.7,0.2-3.3,2.5-1.7c12,8.2,22.5,16.8,31.6,26c7.1,7.1,10.1,16,9.1,26.4c-0.6,5.8,1.3,11.6,5.4,16
	c15.1,15.9,24.9,35.3,29.3,58.1c2.9,14.8,7.1,28.8,12.9,41.9c7.9,17.9,4.2,33.5,12.6,51c13.2,27.4,23,55.5,29.5,84.2
	c1,4,2.9,7.5,5.8,10.5c7.6,7.4,12.4,16.6,14.3,27.6c0.7,4.1,2.7,7.5,6,10c16.8,13.3,33,27.4,48.6,42.3c9.9,9.4,20.5,17.8,31.8,25
	c11.5,7.5,23.1,14.5,34.9,21.1c58.7,33.2,115.2,63.4,169.6,90.5c53.7,26.8,105.9,54,156.5,81.5c7.4,4,13.7,9.4,18.8,16
	c2.5,3.3,5.5,3.8,8.9,1.4l39.4-27.4c-28.5,39.4-50.5,64.7-66.1,75.9c-47.2,34-93.9,70.7-140.1,110.2c-14.3,12.1-29.9,18.7-49.1,13.9
	c-27.2-6.8-52.9-13.9-77.2-21.2c-4.6-1.4-8.4-4-11.3-7.7c-1.5-1.8-3.3-3.3-5.5-4.4c-45.1-22.4-91.2-44.3-138.4-65.6
	c-29.9-13.7-57.7-28.9-83.1-45.6c-2.1-1.4-4.3-1.9-6.8-1.4c-0.7,0.2-1.4,0.5-2,1c-0.9,0.6-1.7,0.6-2.6,0
	c-11.7-7.9-24.3-15.9-37.9-24.1c-26.4-16.1-56.8-3.2-71.3,21.3c-15.3,26-32.1,47.7-50.4,65c-8.2,7.7-15.4,16.8-21.7,27.4
	c-6,9.9-12.5,19.3-19.5,28.1c-42.2,52.9-88.9,103.4-137.9,151.3c-86.3,84.3-171.7,169-256.1,254.3c-10.7,4.6-16.9,5.8-18.6,3.6
	c105.2-106.6,210.3-213.1,315.2-319.6c48.9-49.6,89.7-101.2,122.3-155c5.7-9.4,8.4-18.6,8-27.4c5.5,0.4,9.5-1.5,12.1-5.6
	c72.4-110.8,106.5-236.2,117.1-372.1c4.2-54.1-5.4-108.2-14.7-163.3L2633.2,833.9z"/>
<path class="st19" d="M2146.1,1108.3c49.6,44.1,97,87.6,142.3,130.5c6.3,5.9,9.8,11.4,10.6,16.4c0.8,4.8,1.3,7.5,1.5,8.1
	c2.6,7.5,4.6,15.2,6.1,23.1c1.3,7.6,0.6,14.7-2.3,21.3c-12.5,28.8-22.2,64.6-40.9,89.6c-7.6,10.2-12.7,21-15.2,32.4
	c-3.7,16.4-10.4,31.5-20,45.3c-44.3,63.4-88.2,113.4-131.6,150.2c-26.9,22.8-78.2,50.5-153.9,83c-1,0.4-1.5,1.2-1.5,2.3
	c-0.1,1,0.4,1.6,1.3,1.7c0.2,0,0.5,0.2,0.5,0.5c0,0.2-0.1,0.4-0.4,0.4c-56.4,14.5-114.1,19.5-173.3,15.1
	c-21.5-1.6-42.6-2.4-63.1-2.4c-20.9,0.1-40.9-1.4-59.9-4.4c-11-1.7-21.8-2.1-32.4-1.2c-11.8,1.1-22.9-0.7-33.1-5.4
	c-13.1-6.1-27.9-9.3-44.3-9.6c-23-0.5-45.5,0.3-67.3,2.4c-15.2,1.4-31-6.9-46-5.5c-26.2,2.5-52.9,3.4-80,2.7c-0.7,0-1.2,0.4-1.3,1.1
	c-0.2,1.2,0.4,2,1.7,2.5c0.5,0.3,0.6,0.8,0.4,1.3c-0.2,0.3-0.4,0.5-0.7,0.5l-128,8.1c-5.2,0.3-9.4-1.6-12.6-5.8
	c-33.6-44.3-53.5-88.8-59.8-133.4c-6.8-48.1-8.8-103.7,7.7-150.3l0.1,12.4c0,5.2,2.3,6.6,6.8,3.9c6.8-4,13.8-4.2,21-0.4
	c1.9,1,2.9,0.5,3.1-1.7c0-0.4-0.1-0.8-0.4-1.1c-2.1-2.6-1.6-3.5,1.7-2.5c20,5.6,44.2,14.4,63.4,11.7c28.9-4,52.9-4.1,71.9-0.4
	c26.6,5.1,43.2,1.4,66.5,1.8c35.5,0.5,71,1.5,106.6,3c33.9,1.5,66.5,0.8,97.8-2.3c32.6-3.2,64.4-4.7,95.6-4.5
	c32.8,0.2,64.5-5.5,95.1-17.2c58.8-22.6,109.1-50.4,150.7-83.5c1.5-1.2,3.5-1.6,5.4-1.2c2.5,0.6,4.8,0.1,6.7-1.3
	c38-28.5,53.3-66.9,45.7-115.3c-2.2-14.3-7-28.7-14.3-43.1c-8.3-16.4-17.4-30.5-27.3-42.5c-9-11-17.5-22.7-25.5-34.9
	c-8.5-12.9-17.3-24.3-26.3-34.2c-35.3-37.9-72.2-73-110.7-105.3c-16.7-14.1-46.9-34.7-69.2-26.1c-8.5,3.3-17.3,5.5-26.4,6.6
	c-23.4,2.9-44.8,11-64.1,24.3c-9.3,6.3-20,7.7-30.1,11.4c-0.6,0.2-1.2,0.5-1.8,0.8c-23.1,13.2-42,27.1-56.7,41.7
	c-2.5,2.5-5.6,4.4-8.9,5.6c-6.9,2.3-12.9,5.7-18,10.2c-6.2,5.5-13,10.2-20.4,14.1c-49.7,26.4-84.1,48.1-103.3,65.2
	c-43,38.3-86,76.7-128.8,115.4c2.2-8.9,2.9-16.6,2.1-23.2c-0.4-3.9,0.1-7.7,1.5-11.3c2.9-7.6,3.4-15.4,1.3-23.5
	c-1-3.7-0.2-7,2.5-9.9l26.6-28.3c93.4-71.2,193.4-132.3,299.9-183.2c44.7-21.4,91-38.8,138.8-52.4c16.4-4.6,32.7-3.8,48.7,2.5
	C1910.9,961.7,2033.6,1027.7,2146.1,1108.3z"/>
<path class="st20" d="M2681.3,981.5c9.3,55.1,18.8,109.2,14.7,163.3c-10.6,135.9-44.7,261.3-117.1,372.1c-2.6,4.1-6.7,6-12.1,5.6
	c-0.6-61.1-2.4-100.3-5.6-117.3c-6.3-33.2-26.4-89.2-49.9-123.4c-51.9-75.5-112-143.4-180.1-203.6l-61.1-68.8
	c-2.8-3.2-6.3-5.1-10.5-5.8c-6-1-10.9-3.7-14.7-8.1c-2.5-3-5.5-5.4-9.1-7c-29.9-14-57.5-33.4-82.9-58.4c-1.3-1.3-1.3-2.7,0-4.2
	l2-2.3c0.2-0.2,0.3-0.2,0.5,0c10.8,11.5,23.1,19.7,36.8,24.5c17.2,6,25.1,23.9,42.5,27.3c3.6,0.7,7,2.5,9.6,5.1
	c14.1,14.4,28.9,15.4,44.4,3c2-1.6,4.2-2.5,6.6-2.9c1.8-0.2,3.3,0.3,4.4,1.7c1.5,1.7,3.4,2.5,5.7,2.6c20.6,0.7,46.8,2.7,78.4,6.1
	c34.5,3.7,71.3,4.2,110.7,1.7c4-0.2,7.8,0.4,11.6,2c17.2,7.3,33.6,4.6,49.2-8c5.3-4.4,10.4-4,15.4,1c2.7,2.8,5.4,2.7,8-0.1
	c0.8-0.9,1.5-1.7,2.3-2.6c1.4-1.7,3.1-2.5,5.2-2.5L2681.3,981.5z"/>
<path class="st21" d="M1150.5,1428.7c23.3-68.9,58.6-132,105.9-189.3c42.8-38.7,85.7-77.1,128.8-115.4
	c19.1-17.1,53.6-38.8,103.3-65.2c7.4-3.9,14.2-8.6,20.4-14.1c5.1-4.5,11.1-7.9,18-10.2c3.4-1.2,6.4-3.1,8.9-5.6
	c14.7-14.6,33.6-28.5,56.7-41.7c0.6-0.3,1.2-0.6,1.8-0.8c10.1-3.7,20.8-5.1,30.1-11.4c19.3-13.3,40.7-21.4,64.1-24.3
	c9.1-1,17.9-3.2,26.4-6.6c22.3-8.6,52.5,12,69.2,26.1c38.4,32.3,75.3,67.4,110.7,105.3c9.1,9.8,17.8,21.2,26.3,34.2
	c8,12.2,16.5,23.9,25.5,34.9c9.8,12,18.9,26.2,27.3,42.5c7.3,14.5,12.1,28.8,14.3,43.1c7.5,48.4-7.7,86.8-45.7,115.3
	c-1.9,1.4-4.1,1.9-6.7,1.3c-1.9-0.4-3.9,0-5.4,1.2c-41.6,33.1-91.8,60.9-150.7,83.5c-30.6,11.7-62.3,17.4-95.1,17.2
	c-31.2-0.2-63.1,1.3-95.6,4.5c-31.3,3-63.9,3.8-97.8,2.3c-35.6-1.5-71.1-2.5-106.6-3c-23.2-0.4-39.9,3.3-66.5-1.8
	c-19.1-3.7-43-3.6-71.9,0.4c-19.2,2.7-43.4-6.1-63.4-11.7c-3.3-1-3.8-0.1-1.7,2.5c0.2,0.3,0.4,0.7,0.4,1.1c-0.2,2.1-1.2,2.7-3.1,1.7
	c-7.1-3.8-14.1-3.7-21,0.4c-4.5,2.6-6.8,1.3-6.8-3.9L1150.5,1428.7z"/>
<path class="st22" d="M2146.1,1108.3c142.7,84.5,258.4,205.6,288.5,369.1c3.3,17.7-0.7,33.8-11.8,48.2
	c-26.6,34.5-49.8,69.4-81,100.8c-209.1,209.7-422.6,423.6-640.7,641.7c-21.1,21.1-48.5,56.3-82.1,105.5l-43.8,33
	c-4,3-8.3,3.4-12.7,1.2c-5.7-3-12-4.2-18.9-3.7c-4,0.3-7.8-0.6-11.3-2.7c-7.5-4.4-15.3-7.3-23.5-8.7c-7.9-1.3-15.8-2.9-23.7-4.9
	c-17.6-4.4-34.1-9.8-49.3-16.3c-69.2-29.5-149.4-68-240.4-115.5c-13.8-7.2-27.2-15-40-23.2c-0.8-0.6-1.6-0.7-2.5-0.4
	c-1.8,0.5-2.6,1.6-2.3,3.3c0,0.3-0.2,0.5-0.4,0.5c-0.2,0-0.3,0-0.4-0.2c-8.2-10-17.7-16.6-28.7-19.9c-3.9-1.2-7.2-3.3-10-6.2
	c-7.3-7.6-15.6-14.2-24.9-19.8c-3.5-2.1-6.2-4.8-8-8.3c-13.1-24.2-25.1-26.4-35.9-6.6c-2-172.5-0.5-396.4,4.4-671.7
	c1.1-63.4,17.9-119.1,50.5-166.9c52.1-76.5,116.5-141.1,193.2-193.6l-26.6,28.3c-2.7,2.9-3.5,6.2-2.5,9.9c2.1,8,1.6,15.8-1.3,23.5
	c-1.4,3.7-1.9,7.4-1.5,11.3c0.8,6.6,0.1,14.3-2.1,23.2c-47.2,57.3-82.5,120.3-105.9,189.3c-16.6,46.6-14.5,102.2-7.7,150.3
	c6.3,44.6,26.2,89.1,59.8,133.4c3.2,4.2,7.4,6.2,12.6,5.8l128-8.1c0.5-0.1,0.9-0.5,0.9-1c0-0.3-0.2-0.6-0.5-0.7
	c-1.3-0.5-1.8-1.3-1.7-2.5c0.2-0.7,0.6-1.1,1.3-1.1c27.2,0.6,53.8-0.3,80-2.7c15-1.4,30.7,6.9,46,5.5c21.8-2.1,44.3-2.9,67.3-2.4
	c16.4,0.3,31.2,3.5,44.3,9.6c10.2,4.7,21.3,6.5,33.1,5.4c10.6-1,21.4-0.6,32.4,1.2c19.1,3,39,4.5,59.9,4.4c20.6,0,41.6,0.8,63.1,2.4
	c59.2,4.4,116.9-0.7,173.3-15.1c0.2,0,0.4-0.1,0.4-0.4c0-0.2-0.3-0.4-0.5-0.5c-1-0.1-1.4-0.6-1.3-1.7c0.1-1.1,0.6-1.9,1.5-2.3
	c75.7-32.6,127-60.2,153.9-83c43.4-36.8,87.3-86.8,131.6-150.2c9.6-13.7,16.3-28.8,20-45.3c2.5-11.4,7.6-22.2,15.2-32.4
	c18.7-25,28.3-60.7,40.9-89.6c2.9-6.6,3.6-13.7,2.3-21.3c-1.4-7.9-3.5-15.6-6.1-23.1c-0.2-0.6-0.8-3.3-1.5-8.1
	c-0.8-5.1-4.3-10.6-10.6-16.4C2243.1,1195.8,2195.7,1152.3,2146.1,1108.3z"/>
<path class="st23" d="M39.3,1465.4c11.9-0.7,21.6,1.8,29.1,7.5c3.5,2.7,7.3,4.9,11.3,6.6l26.7,10.8c3.1,1.3,6.3,1.7,9.6,1.4
	c6.3-0.7,12-0.6,17.2,0.5c34.5,7,73.8,11.8,117.9,14.3c5.5,0.4,10.4,2.3,14.7,5.6c8,6.3,16.4,9.2,25,8.8
	c53.9-2.5,106.8-1.9,158.8,1.8c19.3,1.3,37.8,1.6,55.4,0.7c37.2-1.8,74.1,2.3,111.5,1.4c18.7-0.4,37.3,0.4,56,2.3
	c15.2,1.5,28.8,1.9,40.7,1.2c8.7-0.5,17.7-1,27.3-1.5c11.4-0.6,21.4-2.7,30.3-6.6c20-8.8,39.7-22.8,62.7-21.8
	c9.5,0.4,19.2,0.1,29.1-0.8c4.2-0.4,7.4-2.4,9.6-6l13.5-21.9l30.1,159.4c0.4,110.1,0.4,222.4,0.1,336.7c0,16.8-0.6,32.4-1.9,46.9
	c-2.7,32-2.4,76.2,1,132.6c3.3,55.1-0.5,112.9-11.2,173.4c-0.6,2.9-3.3,4.8-6.2,4.3c-1-0.2-2-0.7-2.7-1.5L39.3,1465.4z"/>
<path class="st20" d="M2139.8,2020.9c-6.8,9.3-15.4,20.7-26.2,25.4c-8.4,3.7-14.1,10.2-16.9,19.7c-2.9,9.4-1.7,10,3.6,1.7
	c4.8-7.8,11.7-13.2,20.6-16.2c3.3-1.1,6.6-0.9,9.9,0.6l122.4,57.5c3.8,1.8,7.1,4.4,9.8,7.7c4.6,5.6,10.2,9.7,16.9,12.1
	c18.4,6.8,36.9,10.1,55.4,9.8c5.8-0.1,7.8,2.7,6,8.2c-0.5,1.3-0.7,2.6-0.6,4c0.1,3,1.5,5.1,4.3,6.3c16.3,6.8,31.7,10,47.3,18.7
	c45,24.9,88.7,47.3,131,67.4c3.4,1.7,5.4,4.4,6.1,8.1c0.8,5.1,3.6,9.3,8.3,12.5c2.5,1.7,4.8,1.3,6.8-1c1.3-1.4,2.9-2.1,5-2
	c19.5,0.9,34.5,7.8,44.9,20.8c2.3,3,5.3,3.9,8.9,2.7l28.5-9.3c-56.4,61.5-113.9,121.9-172.6,180.9c-97.4,98.1-182.5,190.9-271.3,289
	c-41.8,46.2-86,91.7-123.9,138.5c-16.1,19.9-32.9,38.7-50.4,56.3c-23.9,24.2-41.7,53.5-63.7,79.7
	c-67.7,80.6-131.3,165.2-190.6,253.9c-3.1,4.6-9.4,5.9-14,2.8c-0.4-0.2-0.7-0.5-1-0.8c-33.9-29.3-51.2-74-69.9-114.2
	c-8.7-18.6-16.1-38.3-22.3-59.2c-24.3-81.6-37.5-153.3-39.5-215.4c-7-207.5,57.8-389.7,194.4-546.6
	c40.1-46.1,144.9-151.6,314.3-316.4C2122.9,2026.7,2129.1,2025.5,2139.8,2020.9z"/>
<path class="st24" d="M1619.1,2373.6c-53,93.6-92,168.7-109.5,252.9c-5.5,26.4-9.3,51.6-11.6,75.5c-4.3,44.4-18.6,86.4-13.6,131.3
	c4.3,38.6,7.9,77,10.7,115.3c1.1,15.4-4,17.9-15.5,7.5c-20-18.3-38.9-38-56.6-59.2c-94.5-113.4-195-222.5-293.7-334.8
	c-26.3-29.8-55.7-57.2-79.3-88.4c-5.5-7.2-8.4-15.9-8.3-24.9l0.6-273.5c10.8-19.9,22.8-17.7,35.9,6.6c1.8,3.5,4.5,6.3,8,8.3
	c9.3,5.6,17.6,12.1,24.9,19.8c2.8,2.9,6.1,5,10,6.2c11,3.3,20.5,9.9,28.7,19.9c0.2,0.2,0.5,0.2,0.7,0c0.1-0.1,0.2-0.3,0.2-0.4
	c-0.3-1.7,0.4-2.9,2.3-3.3c0.9-0.3,1.7-0.2,2.5,0.4c12.9,8.3,26.2,16,40,23.2c91,47.6,171.1,86.1,240.4,115.5
	c15.2,6.5,31.7,12,49.3,16.3c7.9,2,15.8,3.6,23.7,4.9c8.2,1.4,16,4.2,23.5,8.7c3.5,2.1,7.3,3.1,11.3,2.7c6.9-0.6,13.2,0.7,18.9,3.7
	c4.4,2.2,8.7,1.8,12.7-1.2L1619.1,2373.6z"/>
</svg>
