<?xml version="1.0" encoding="utf-8"?>
<!-- Generator: Adobe Illustrator 27.7.0, SVG Export Plug-In . SVG Version: 6.00 Build 0)  -->
<svg version="1.1" id="Layer_1" xmlns="http://www.w3.org/2000/svg" xmlns:xlink="http://www.w3.org/1999/xlink" x="0px" y="0px"
	 viewBox="0 0 3500 3500" style="enable-background:new 0 0 3500 3500;" xml:space="preserve">
<style type="text/css">
	.st0{fill:#FFFFFF;}
	.st1{fill:#ABABAB;}
	.st2{fill:#EB2221;}
	.st3{fill:#C11E1E;}
	.st4{fill:#060303;}
	.st5{fill:#A40E0E;}
	.st6{fill:#61191A;}
	.st7{fill:#FEB9AE;}
	.st8{fill:#221D1D;}
	.st9{fill:#797B7B;}
	.st10{fill:#DA746E;}
	.st11{fill:#2B2424;}
	.st12{fill:#FDFDFD;}
	.st13{fill:#FBFCFC;}
</style>
<g>
	<path class="st0" d="M3184.5,1546.2c10.6,46.3-1.8,56.2-33,70c-12.1,5.3-25,8.9-37.8,12.4c-38.8,10.5-78.9,11.6-118.7,12.8
		c-34.9,1-68.3,6.8-100.6,19.9c-93,37.9-143.3,112.4-143.3,212.8c0,51.7-0.1,103.3,0,155c0,17.9-4.3,38.3,2.7,53.2
		c7.4,15.8,26.4,25.9,39.3,39.4c10.1,10.5,21.4,13.6,35.6,13.6c215.4-0.4,430.8-0.2,646.2-0.3c7.6,0,15.2-0.7,24.6-1.2v-25.2
		c0-58.7-0.8-117.4,0.4-176.1c0.4-20.5-6.3-34.1-20.8-48.7c-22.5-22.7-46.4-35.5-78.7-30.2c-6.9,1.1-14.1,0.3-21.1,0.1
		c-6.2-0.2-12.3-0.9-21.6-1.5c18.9-11.4,35-19.5,49.5-30c59.9-43.6,95.9-99.8,92.5-176.9c-1.2-25.8-0.5-51.6-0.1-77.5
		c1.1-79.7-31.2-143.7-90.6-195.4c-14.7-12.8-29.1-26.1-43.4-39.4c-46-42.8-99.8-66.7-163.1-66.9c-69.7-0.2-139.4,0.2-209.1,0
		c-112.8-0.3-209.3,90.2-233.6,184.9c-9.1,35.4-8,71.2-9,107.1c-0.5,16.9,2.6,30.2,17.5,40.2c8.4,5.6,15.7,13.1,22.4,20.6
		c10.2,11.4,22.1,15.1,37.4,14.9c70.5-0.7,141-0.3,211.5-0.4c6.8,0,13.7-0.7,23.2-1.2c0-9.6-0.5-18,0-26.4
		c2-31.1,19.2-52.8,48.2-58.5c24.6-4.8,49.5-2.3,73.7-1.3L3184.5,1546.2z"/>
	<path d="M3184.5,1546.2c-24.2-1.1-49.1-3.5-73.7,1.3c-29,5.7-46.2,27.4-48.2,58.5c-0.5,8.3,0,16.7,0,26.4
		c-9.5,0.5-16.3,1.2-23.2,1.2c-70.5,0-141-0.4-211.5,0.4c-15.3,0.2-27.2-3.6-37.4-14.9c-6.8-7.5-14.1-15.1-22.4-20.6
		c-15-9.9-18-23.2-17.5-40.2c1-35.9,0-71.7,9-107.1c24.3-94.7,120.8-185.2,233.6-184.9c69.7,0.2,139.4-0.2,209.1,0
		c63.4,0.2,117.1,24.1,163.1,66.9c14.3,13.3,28.6,26.6,43.4,39.4c59.4,51.7,91.7,115.7,90.6,195.4c-0.3,25.8-1,51.7,0.1,77.5
		c3.5,77.1-32.6,133.3-92.5,176.9c-14.4,10.5-30.6,18.6-49.5,30c9.3,0.7,15.4,1.3,21.6,1.5c7,0.2,14.3,1,21.1-0.1
		c32.3-5.3,56.2,7.5,78.7,30.2c14.4,14.5,21.2,28.2,20.8,48.7c-1.3,58.7-0.4,117.4-0.4,176.1v25.2c-9.4,0.5-17,1.2-24.6,1.2
		c-215.4,0-430.8,0-646.2,0.3c-14.3,0-25.6-3.1-35.6-13.6c-13-13.5-31.9-23.6-39.3-39.4c-7-14.9-2.7-35.2-2.7-53.2
		c-0.2-51.6,0-103.3,0-155c0-100.3,50.3-174.9,143.3-212.8c32.3-13.1,65.7-18.9,100.6-19.9c39.8-1.2,79.8-2.3,118.7-12.8
		c12.8-3.5,25.8-7,37.8-12.4c31.2-13.8,43.7-23.7,33-70L3184.5,1546.2z M3002.6,1576.2c0.4-9.6,0.7-18,1.2-26.5
		c2.1-32.7,26.4-57.1,59.2-58.2c24.2-0.8,48.6-0.9,72.8,0.1c31.3,1.3,55.6,25.8,57.7,57.2c0.6,8.6-0.4,17.3,0.4,25.8
		c1.7,18.1-7,30.7-21.8,38.3c-15.9,8.2-32.6,15.4-49.8,20.2c-39.4,11-79.9,14.9-120.8,14.3c-34.9-0.5-68.4,6.1-100.9,18.6
		c-92.3,35.4-143.9,110.5-143.9,209.5c0,58.7,0,117.4,0,176.1c0,8.4,0.8,16.7,1.4,26.1H3437v-218.2c-21.7,0-41.9,0-62.1,0
		c-21.1,0-42.3,0-63.4,0.1c-20.4,0-40.7,0-61.1,0h-61.1c-21.1,0-42.3,0.5-63.4-0.1c-19.9-0.6-40.1,3-59.5-2.3
		c-1.8-10.1,3.7-14.8,10-18c9.7-4.9,19.7-9.8,30-12.9c29.5-8.8,59.9-9.9,90.6-10.5c67.3-1.3,127.6-21.8,177.6-68.5
		c40.1-37.4,64.4-82.1,63.9-138.3c-0.3-36,0-72-0.5-108c-1.6-107.7-99.1-225.6-233.9-228.7c-70.5-1.6-141-0.9-211.5,0
		c-39.8,0.4-77.5,11.1-111.5,32.1c-81.7,50.5-123.4,124-124.5,220.2c-0.2,17,0.4,34,0.6,51.8h245.2L3002.6,1576.2z M3420.2,1398.7
		c1.5,3.3,2.9,6.7,4.4,10c15.6,33,24.5,67.3,23.6,104.1c-0.8,34.4-0.6,68.8,0,103.2c0.4,28.2-6.6,54.8-20.4,78.5
		c-43.9,75.2-110.3,117.4-196.7,127.7c-24,2.9-48.3,2.6-72.4,4.7c-26,2.3-51.9,5.9-74.3,22.5c7.8,0,15.5,0,23.3,0
		c63.4,0,126.9-1.6,190.2,0.6c35,1.2,64.4-10.2,92.6-27.7c11.9-7.4,23.6-15.6,33.9-25.1c40-37,65.7-80.9,65-137.4
		c-0.4-32.8-0.4-65.7,0-98.5c0.7-64.1-24.1-117.5-69.1-162.6L3420.2,1398.7z M3475.9,2125.5c0.7-1.8,1.5-3.6,2.2-5.3
		c-3.8-2.8-8.4-4.9-11.2-8.4c-14.4-17.7-32.1-23.2-55.3-23.1c-203,0.9-405.9,0.5-608.9,0.5h-27.5c18.7,25.5,37.6,37.3,68.4,37.1
		c202.2-1.6,404.4-0.8,606.5-0.8C3458.7,2125.5,3467.3,2125.5,3475.9,2125.5L3475.9,2125.5z M3448.2,1868.7
		c0,68.7,0,133.4,0.2,198.1c0,5.1,1.1,11.6,4.3,15c9.9,10.6,21.1,19.9,32.2,30.1c2.5-3.8,3.9-5,3.9-6.2
		c0.2-62.5,0.5-124.9,0.2-187.4c0-5.6-3-12.3-6.8-16.5C3472.4,1891,3461.3,1881.3,3448.2,1868.7L3448.2,1868.7z M3041.7,1623.6
		c-8.1-8.3-14-14.3-19.8-20.4c-12.1-12.6-26.5-16.7-44.1-16.2c-39.1,1.2-78.2,0.4-117.4,0.4c-28.8,0-57.6,0-90.4,0
		c10.4,9.1,18.6,14.9,25.1,22.3c9.6,11,20.8,14.3,35.2,14.1c64.2-0.7,128.3-0.3,192.5-0.3L3041.7,1623.6L3041.7,1623.6z
		 M3179.9,1534c-14.8-22.4-21.7-29.3-33.2-31.2c-29.4-4.7-58.7-5.8-88.5-1.5c-38.4,5.6-49.4,43.3-46.7,69.8c0.3,2.9,1.8,5.9,3.4,8.5
		c4.1,6.6,26.7,25.2,36.1,30.2c1-4.5,2.1-9.1,3.1-13.6c8.3-37.1,25.1-53.3,62.5-59c11.5-1.8,23.3-1.6,34.9-2.2
		C3159.8,1534.6,3168.1,1534.4,3179.9,1534L3179.9,1534z"/>
	<path class="st0" d="M3002.6,1576.2h-245.2c-0.2-17.9-0.8-34.8-0.6-51.8c1.1-96.2,42.8-169.7,124.5-220.2
		c34-21,71.7-31.6,111.5-32.1c70.5-0.8,141-1.6,211.5,0c134.8,3.2,232.3,121,233.9,228.7c0.5,36,0.2,72,0.5,108
		c0.5,56.2-23.8,100.9-63.9,138.3c-50,46.7-110.3,67.2-177.6,68.5c-30.7,0.6-61.1,1.7-90.6,10.5c-10.4,3.1-20.3,7.9-30,12.9
		c-6.3,3.2-11.8,8-10,18c19.4,5.2,39.6,1.7,59.5,2.3c21.1,0.7,42.3,0.1,63.4,0.1h61.1c20.4,0,40.7,0,61.1,0c21.1,0,42.3,0,63.4-0.1
		c20.2,0,40.4,0,62.1,0v218.2h-678.9c-0.5-9.4-1.3-17.8-1.4-26.1c-0.1-58.7,0-117.4,0-176.1c0-99,51.6-174.1,143.9-209.5
		c32.5-12.4,66-19.1,100.9-18.6c40.9,0.6,81.4-3.3,120.8-14.3c17.2-4.8,33.9-12.1,49.8-20.2c14.8-7.6,23.5-20.2,21.8-38.3
		c-0.8-8.5,0.2-17.2-0.4-25.8c-2.1-31.3-26.4-55.9-57.7-57.2c-24.2-1-48.6-0.9-72.8-0.1c-32.8,1.1-57.1,25.5-59.2,58.2
		c-0.5,8.4-0.8,16.9-1.2,26.5L3002.6,1576.2z"/>
	<path class="st1" d="M3420.2,1398.7c45,45.1,69.7,98.5,69.1,162.6c-0.3,32.8-0.4,65.7,0,98.5c0.7,56.5-25,100.4-65,137.4
		c-10.3,9.5-21.9,17.7-33.9,25.1c-28.2,17.5-57.7,28.9-92.6,27.7c-63.3-2.2-126.8-0.6-190.2-0.6c-7.8,0-15.5,0-23.3,0
		c22.4-16.6,48.3-20.2,74.3-22.5c24.1-2.1,48.4-1.8,72.4-4.7c86.3-10.3,152.8-52.6,196.7-127.7c13.8-23.7,20.8-50.3,20.4-78.5
		c-0.5-34.4-0.7-68.8,0-103.2c0.8-36.8-8.1-71.1-23.6-104.1c-1.6-3.3-3-6.7-4.4-10L3420.2,1398.7z"/>
	<path class="st1" d="M3475.9,2125.5c-8.6,0-17.2,0-25.8,0c-202.2,0-404.4-0.8-606.5,0.8c-30.8,0.2-49.7-11.6-68.4-37.1h27.5
		c203,0,405.9,0.4,608.9-0.5c23.2-0.1,40.9,5.4,55.3,23.1c2.9,3.5,7.4,5.6,11.2,8.4C3477.4,2122,3476.6,2123.8,3475.9,2125.5
		L3475.9,2125.5z"/>
	<path class="st1" d="M3448.2,1868.7c13.1,12.6,24.2,22.3,34,33.1c3.8,4.2,6.7,10.9,6.8,16.5c0.3,62.5,0,124.9-0.2,187.4
		c0,1.2-1.5,2.4-3.9,6.2c-11-10.1-22.2-19.5-32.2-30.1c-3.2-3.4-4.3-9.9-4.3-15C3448.1,2002.1,3448.2,1937.4,3448.2,1868.7
		L3448.2,1868.7z"/>
	<path class="st1" d="M3041.7,1623.6h-18.9c-64.2,0-128.3-0.4-192.5,0.3c-14.4,0.1-25.6-3.1-35.2-14.1c-6.5-7.4-14.8-13.3-25.1-22.3
		c32.8,0,61.6,0,90.4,0c39.1,0,78.3,0.8,117.4-0.4c17.7-0.5,32,3.6,44.1,16.2C3027.7,1609.4,3033.6,1615.3,3041.7,1623.6
		L3041.7,1623.6z"/>
	<path class="st1" d="M3179.9,1534c-11.7,0.4-20,0.6-28.3,1c-11.7,0.6-23.4,0.5-34.9,2.2c-37.4,5.8-54.2,22-62.5,59
		c-1,4.5-2.1,9-3.1,13.6c-9.4-5-32-23.6-36.1-30.2c-1.6-2.6-3.1-5.5-3.4-8.5c-2.6-26.5,8.3-64.2,46.7-69.8
		c29.8-4.3,59.1-3.2,88.5,1.5C3158.3,1504.6,3165.2,1511.6,3179.9,1534L3179.9,1534z"/>
</g>
<path class="st2" d="M939.7,520.9c1.6-0.4,3.2-0.7,4.8-1.1c2.4,0.9,4.2,0,5.6-2c20.1-5.4,40.1-11.1,60.3-16
	c47.5-11.7,95.5-21.1,144-28.2c84.8-12.4,170.1-15.4,255.6-11.9c34.2,1.4,68.3,4.8,102.3,9.1c192,24.2,369.5,89.5,536.2,186.4
	c90.2,52.4,174.7,112.9,254.9,179.4c82.9,68.8,160.4,143.3,233.7,222.2c16,17.2,32.1,34.1,50.5,48.8c25.7,20.5,53.7,36.4,85.8,44.5
	c14.4,3.6,29,4.8,43.7,5.9c2.1,0.2,4.3,0.5,6.4,0.7c-0.5,0.7-0.9,1.5-1.6,2c-21.7,15.7-43.2,31.7-65.1,47.1
	c-30.4,21.4-60.8,42.7-91.6,63.5c-31.5,21.3-63.6,41.8-95.4,62.7c-5,3.3-9.8,6.9-14.7,10.3c-3.3-2.1-6.7-4-9.8-6.3
	c-24.3-17.4-48.3-35.3-72.8-52.3c-58.8-40.7-119-79.3-181.4-114.3c-34.4-19.3-69-38.1-103.8-56.6c-18.4-9.7-37.4-18.1-56.1-27.4
	c-40.4-20-81.9-37.7-123.7-54.5c-41.4-16.6-83.3-31.9-125.9-45.3c-46.7-14.7-93.7-27.9-141.6-38.1c-20.7-4.4-41.5-8.3-62.4-11.9
	c-18.3-3.2-36.7-5.8-55.1-8.2c-15-2-30.1-3.3-45.1-4.8c-2.6-0.3-5.2,0-7.8-0.4c-21.4-3.7-43.2-2.1-64.7-4
	c-28.5-2.5-57.1,2.1-85.7,2.4c-2.4,0-4.9,1.4-7.3,2.2c-2.6-0.2-5.3-1.2-7.6-0.5c-11.4,3.4-23,0.8-34.5,1.2c-1.7,0-3.5,0-5.2,0.3
	c-20.9,2.5-41.8,4.9-62.7,7.6c-5.9,0.8-11.6,2.6-17.4,4c-1.7,0.1-3.5,0-5.2,0.4c-19.5,4-39.2,7.5-58.5,12.1
	c-80,19-156.7,47.3-230.5,83.6c-112.4,55.5-213.8,126.9-307,210.4c-48.8,43.8-94.7,90.4-137.9,139.7
	c-55.3,63.1-105.8,129.6-150.7,200.5c-23.7,37.4-45.6,75.8-63.9,116.1c-5.7,12.6-10.3,25.7-15.6,38.5c-2.3,5.6-2.2,10.8,0.1,16.3
	c5.1,12,9.4,24.3,14.8,36c16.3,35.5,36,69.2,57.2,102c69.6,107.6,152.1,204.4,244.8,292.7c4.1,3.9,8,7.9,11.9,11.8
	c-2.9,3.7-7.6,4-11.6,5.3c-42.7,14.1-85.4,27.9-128.1,41.9c-40.2,13.3-80.4,26.8-120.6,40.1c-32.8,10.8-65.7,21.5-98.6,32.2
	c-2.4,0.8-4.6,1.9-7,2.9c0.4,4,0.7,7.4,1,10.7c-4.1-1.6-5.4-5.5-7.1-8.9c-10.1-21.1-20.3-42.2-30.2-63.4c-3.7-7.8-6.8-15.9-9.9-24
	c-6.5-16.5-12.8-33.1-19.3-49.6c-11.6-29.4-20.7-59.7-29.5-90c-7.6-26.5-13.9-53.5-19.7-80.5c-4.8-22-8.6-44-12-66.2
	c-1.2-7.7-2.4-15.3-3.6-23c-1.3-8.5-3-17-3.9-25.6c-1.3-12.9-2-25.8-3-38.7c0-1.3,0-2.7-0.4-3.9c-3-8.4-1.5-17.2-2.1-25.8
	c-0.6-8.6-2.2-17.2-2.3-25.8c-0.3-38.6-0.1-77.2,0-115.8c0-3.5,0.2-6.9,0.6-10.4c0.5-6,1.5-12,1.8-18c0.4-7.4-0.6-14.9,0.8-22.1
	c1.4-7.3,1.8-14.6,2-21.9c2.1-6.2,3-12.5,2.7-19c0-2.1,0-4.3,0.4-6.4c1.5-9.7,3.6-19.3,4.5-29.1c1.5-16.2,4.7-32.1,7.8-48.1
	c1.1-5.9,1.8-11.8,2.7-17.7c3.3-14.7,6.6-29.4,9.8-44.1c0.8-3.8,0.7-7.8,1.8-11.5c3.7-13.3,7.9-26.4,11.7-39.7
	c9.3-33.3,20.4-66,32.2-98.5c3.5-9.7,8.6-18.9,10-29.3c1-1.9,2.1-3.8,2.9-5.8c23.1-56.2,50-110.5,80.6-163
	c53.5-91.9,117.8-175.6,192.2-251.6c54.4-55.6,113.5-105.8,177-150.8c55.3-39.2,113.3-73.9,174-104c57.5-28.5,116.7-53,177.9-72.8
	c3.5-1.1,7.9-0.9,10.3-4.8L939.7,520.9z"/>
<path class="st3" d="M179.4,2330.5c-0.3-3.4-0.7-6.8-1-10.7c2.4-1,4.6-2.1,7-2.9c32.8-10.8,65.7-21.4,98.6-32.2
	c40.2-13.3,80.4-26.8,120.6-40.1c42.7-14.1,85.4-27.9,128.1-41.9c4-1.3,8.6-1.5,11.6-5.3c1.1,0.7,2.2,1.4,3.1,2.2
	c40.5,37.9,83.2,73.3,127.6,106.6c82.5,61.8,170.3,114.6,264.4,156.8c65,29.1,131.9,52.5,201.1,69.6c18,4.5,36.4,7.6,54.6,11.4
	c14.2,4.9,29.1,6.5,43.9,8.1c2.4,0.8,4.8,1.9,7.2,2.2c9.4,1.2,18.8,1.7,28.1,3.1c17.4,2.6,34.8,4.6,52.4,4.6
	c1.2-0.3,2.5-0.9,3.7-0.8c36,2.6,72,2.3,107.9,0.6c25.1-1.2,50.2-3.6,75.1-6.5c148.8-17.3,290.3-61.1,427.9-118.7
	c54.8-22.9,108.4-48.3,160.4-77c4.1-2.3,8.6-4,12.8-6c1.4-0.8,2.9-1.6,4.3-2.5l0.5-0.4c2,0,4-0.3,4.8-2.6l0,0c2.2,0,4.4-0.2,5.1-2.9
	l-0.2,0.2c2.4,0.1,4.6,0,5.3-3.1l-0.2,0.3c2.6,0.4,4.8,0,5.3-3.2l-0.3,0.3c6.1,0.3,11.2-1.4,13.5-7.7l-0.3,0.3
	c2.6,0.3,4.9,0.1,5.3-3.3l-0.3,0.3c7.5,0.4,13-3.4,18-8.3c0.5-0.5,0.2-1.6,0.3-2.5v0.2c5.8,1.8,10-2.2,14.3-4.6
	c12.8-7.2,25.3-15,37.9-22.5c40.2-23.8,79.8-48.5,118.4-74.9c28.6-19.5,56.8-39.5,84.9-59.7c15.1-10.8,29.8-22.2,44.5-33.6
	c15.3-12,30.4-24.3,45.4-36.6c18.1-14.8,36.2-29.5,53.9-44.6c6.5-5.6,12-12.4,17.9-18.6c5.5-4.2,10.9-8.4,17.1-13.2
	c4,1.8,7,5.5,10.3,8.6c55.6,51.5,111.1,103.2,166.7,154.7c108.6,100.8,217.2,201.6,325.7,302.5c3.1,2.9,5.9,6,10.2,10.4
	c-4.3-1-6.8-1.7-11.2-2.8c5.3,5.7,9.2,9.9,13.1,14.1c-2-0.4-4.3-0.4-6-1.3c-5-2.6-9.7-5.6-14.7-8.2c-37.6-19.7-75.1-39.7-112.9-59
	c-25.1-12.8-50.7-24.5-75.9-37.1c-34.2-17-69.6-30.8-106-42.5c-22.3-7.2-45.2-11.8-68.5-13.8c-24.2-2-48.4-0.9-71.9,6.5
	c-10.4,1.6-20,5.6-29.4,9.9c-20.7,9.4-39.6,21.6-56.6,36.6c-13.3,11.8-26.3,24-38.4,37c-76.8,82.7-157.7,161.1-244.8,233
	c-104,85.8-214.8,161.2-335.3,222.1c-95.4,48.2-194.6,86.3-298.4,111.9c-49.2,12.1-98.7,22.7-148.8,30.5c-9.4,1.4-18.8,2.7-28.2,4
	c-6.1-3.5-13-2.7-19-1.4c-8.6,1.9-17.1,1.9-25.8,2.1c-3,0-6,0.6-9,1c-4.3,0.5-8.5,1.3-12.8,1.5c-18.1,0.9-36.2-0.4-54.4,2.1
	c-15.7,2.2-32.2,1.9-48,0c-13-1.6-25.8-1.6-38.8-2c-7.4-0.2-15,1-22-0.5c-9.5-2.1-18.9-1.8-28.4-2.2c-3.4-0.1-6.8-0.9-10.2-1.3
	c-3.4-0.4-6.8-0.9-10.3-1.2c-11.2-1-22.3-1.8-33.5-3.1c-9.8-1.2-19.5-3.8-29.3-4.5c-18.6-1.3-36.5-6.2-54.8-8.9
	c-16.6-2.4-33-6.2-49.3-10.2c-34.8-8.5-69.5-17.5-103.6-28.4c-26.3-8.5-52.4-17.9-78.2-27.7c-38.9-14.8-76.5-32.2-114-50
	c-18.7-8.9-36.6-19.5-54.7-29.7c-18.5-10.4-37.2-20.3-55-31.9c-47.4-30.9-94.2-62.7-137.1-99.8c-14.7-12.7-30.3-24.3-44.6-37.4
	c-16.6-15.1-31.9-31.7-49-46.4c-7.1-6.1-12.6-14.2-19-21.2c-13.8-14.9-28-29.5-41.6-44.6c-9-9.9-17.3-20.4-25.7-30.8
	c-7.9-9.7-16.1-19.2-23.4-29.4c-16.2-22.4-32.1-45-47.7-67.8c-15.6-22.9-30.6-46.1-43.9-70.4c-5.8-10.6-12.4-20.8-18-31.5
	C184.3,2345.1,179,2338.8,179.4,2330.5L179.4,2330.5z"/>
<path class="st4" d="M1195,2543.9c-18.2-3.8-36.6-6.9-54.6-11.4c-69.1-17.1-136.1-40.4-201.1-69.6c-94.1-42.2-181.9-95-264.4-156.8
	c-44.4-33.3-87.1-68.6-127.6-106.6c-0.9-0.9-2.1-1.5-3.1-2.2c-4-3.9-7.9-8-11.9-11.8c-92.7-88.3-175.3-185-244.8-292.7
	c-21.2-32.8-40.8-66.5-57.2-102c-5.4-11.8-9.8-24.1-14.8-36c-2.3-5.5-2.5-10.7-0.1-16.3c5.3-12.8,9.9-25.9,15.6-38.5
	c18.2-40.4,40.2-78.7,63.9-116.1c44.8-70.9,95.4-137.4,150.7-200.5c43.2-49.3,89.1-96,137.9-139.7c93.2-83.5,194.6-155,307-210.4
	c73.7-36.4,150.4-64.7,230.5-83.6c19.4-4.6,39-8.1,58.5-12.1c1.7-0.3,3.5-0.3,5.2-0.4c2.6,0.9,5.1,1.7,7.7,2.6
	c-42.8,9.4-84.8,21.1-126.1,35.8c-84.1,30-162.9,70.4-237.6,119c-79.9,52-153.3,112.1-221.4,178.7
	C506.1,1372.4,418,1482,344.9,1603.4c-21.3,35.3-40.9,71.5-56.7,109.6c-3.6,8.8-6.5,17.9-10.2,26.7c-2,4.8-1.7,9.1,0.3,13.7
	c6.6,15.5,12.5,31.4,19.8,46.6c22.9,46.9,50.5,90.9,80.5,133.4c119.8,169.6,263.8,314.9,435.7,431.8
	c83.4,56.7,172.1,103.6,267,138.5c38.6,14.2,77.9,26.3,118.1,35.6c2.1,0.5,4.1,1.4,6.1,2.1c-2.7,3.9-6.8,1.8-10.3,2.5H1195z"/>
<path class="st3" d="M2455.2,1344.1c4.9-3.5,9.7-7,14.7-10.3c31.8-20.9,63.8-41.4,95.4-62.7c30.8-20.8,61.2-42.1,91.6-63.5
	c21.9-15.4,43.4-31.3,65.1-47.1c0.7-0.5,1.1-1.3,1.6-2c1.5-0.3,2.9-0.5,4.4-0.8c5.7,1.7,11.2,1.6,16.4-1.4
	c32.9-3.7,64.1-13.7,94.9-25.2c53.1-19.8,104.1-44.3,154.6-69.9c37-18.8,73.7-38.1,110.5-57.2c3.1-1.6,6.2-3,9.3-4.5
	c1.1,1.1,2.1,2.1,3.2,3.2c-25.3,23.6-50.6,47.3-76,70.9c-97.1,90.2-194.3,180.4-291.5,270.6c-43.5,40.4-87,80.8-130.5,121.1
	c-2.5,2.3-5.4,4.2-8.1,6.3c-8.1-2.6-13.4-9.3-19.3-14.7c-18.6-16.7-37.4-33.1-57-48.7c-21.2-16.9-42.4-33.8-63.6-50.8
	C2465.6,1353.1,2460.5,1348.5,2455.2,1344.1L2455.2,1344.1z"/>
<path class="st5" d="M179.4,2330.5c-0.4,8.4,4.9,14.7,8.4,21.5c5.6,10.7,12.2,20.9,18,31.5c13.3,24.3,28.3,47.6,43.9,70.4
	c15.6,22.8,31.5,45.4,47.7,67.8c7.3,10.1,15.5,19.7,23.4,29.4c8.5,10.4,16.8,20.9,25.7,30.8c13.6,15.1,27.8,29.7,41.6,44.6
	c6.5,7,11.9,15,19,21.2c17.1,14.7,32.4,31.3,49,46.4c14.3,13,30,24.7,44.6,37.4c42.9,37.2,89.7,69,137.1,99.8
	c17.7,11.5,36.5,21.5,55,31.9c18.1,10.2,36,20.8,54.7,29.7c37.5,17.8,75.1,35.2,114,50c25.9,9.8,51.9,19.2,78.2,27.7
	c34.1,11,68.8,20,103.6,28.4c16.3,4,32.7,7.8,49.3,10.2c18.3,2.7,36.3,7.6,54.8,8.9c9.8,0.7,19.5,3.3,29.3,4.5
	c11.1,1.4,22.3,2.1,33.5,3.1c3.4,0.3,6.8,0.8,10.3,1.2c3.4,0.4,6.8,1.2,10.2,1.3c9.5,0.4,18.9,0,28.4,2.2c7,1.6,14.7,0.3,22,0.5
	c12.9,0.4,25.8,0.3,38.8,2c15.8,2,32.3,2.2,48,0c18.2-2.5,36.3-1.2,54.4-2.1c4.3-0.2,8.5-1,12.8-1.5c3-0.4,6-0.9,9-1
	c8.6-0.3,17.1-0.2,25.8-2.1c6-1.3,12.9-2.1,19,1.4c-66.7,9.8-133.7,13.3-201.1,12c-29.5-0.6-59-1.8-88.4-4
	c-33.3-2.5-66.4-6.7-99.4-11.8c-47.1-7.4-93.8-17.1-139.8-29.5c-178.5-48.4-340.2-130.1-484-246.4
	c-157.8-127.7-279.2-283.8-363.4-468.6c-41.7-91.5-71.7-186.7-90.3-285.5c-11.3-59.7-18.4-119.9-21.1-180.7
	c-1.4-32.1-2.1-64.2-1.1-96.2c1.2-36,3.6-71.9,7.6-107.7c0.4-3.4,1.4-6.8,2.1-10.2c5.3,0.6,9.2,3.7,13.4,6.7
	c5.8,4.1,10.3,10.1,17.8,11.6c-0.1,7.3-0.5,14.6-2,21.9c-1.4,7.1-0.4,14.7-0.8,22.1c-0.3,6-1.3,12-1.8,18c-0.3,3.4-0.6,6.9-0.6,10.4
	c0,38.6-0.2,77.2,0,115.8c0,8.6,1.6,17.2,2.3,25.8c0.6,8.6-0.9,17.4,2.1,25.8c0.4,1.2,0.3,2.6,0.4,3.9c1,12.9,1.7,25.9,3,38.7
	c0.9,8.6,2.6,17,3.9,25.6c1.2,7.7,2.4,15.3,3.6,23c3.4,22.2,7.3,44.2,12,66.2c5.9,27,12.1,54,19.7,80.5c8.7,30.3,17.8,60.6,29.5,90
	c6.5,16.5,12.8,33.1,19.3,49.6c3.2,8,6.3,16.1,9.9,24c9.9,21.2,20.1,42.3,30.2,63.4c1.7,3.5,2.9,7.4,7.1,8.9L179.4,2330.5z"/>
<path class="st6" d="M2455.2,1344.1c5.2,4.5,10.2,9.1,15.6,13.4c21.1,17,42.4,33.9,63.6,50.8c19.5,15.6,38.4,31.9,57,48.7
	c5.9,5.3,11.2,12,19.3,14.7c-9.6,4.1-23,7.1-36.9,8.1c-1.9-1.7-4.2-3.6-6.4-5.6c-119-107.1-248.5-199.9-386.3-281.2
	c-106.9-63.1-217.7-117.9-333.6-162.6c-78.5-30.2-158.6-55.3-240.7-73.5c-36.4-8.1-73-14.6-110-19.5
	c-53.8-7.2-107.8-10.8-162.1-10.1c-1.3,0-2.6-0.2-3.9-0.4c-4.6,0.2-9.1,0.6-13.7,0.4c-1.8,0-3.5-1.8-5.2-2.7
	c2.4-0.8,4.9-2.1,7.3-2.2c28.6-0.3,57.1-4.8,85.7-2.4c21.6,1.9,43.3,0.3,64.7,4c2.5,0.4,5.2,0.2,7.8,0.4c15,1.5,30.1,2.9,45.1,4.8
	c18.4,2.4,36.8,5,55.1,8.2c20.9,3.6,41.7,7.5,62.4,11.9c47.9,10.2,94.9,23.4,141.6,38.1c42.6,13.4,84.5,28.7,125.9,45.3
	c41.8,16.8,83.3,34.5,123.7,54.5c18.6,9.2,37.7,17.6,56.1,27.4c34.8,18.5,69.5,37.3,103.8,56.6c62.4,35,122.6,73.6,181.4,114.3
	c24.6,17,48.5,34.9,72.8,52.3C2448.5,1340.1,2451.8,1342,2455.2,1344.1L2455.2,1344.1z"/>
<path class="st7" d="M939.7,520.9c-2.4,3.8-6.8,3.6-10.3,4.8c-61.1,19.8-120.3,44.3-177.9,72.8c-60.7,30.1-118.7,64.8-174,104
	c-63.5,45-122.6,95.2-177,150.8c-74.3,76-138.6,159.7-192.2,251.6c-30.6,52.5-57.5,106.8-80.6,163c-0.8,2-1.9,3.8-2.9,5.8
	c-4.1-2.1-8.7-3.6-12.1-6.5c-4.4-3.6-9-4.3-14.2-4.2c2-11.7,8.3-21.8,12.9-32.5c7.2-16.7,15-33.2,23.4-49.3
	c18.3-34.9,37.2-69.5,58.2-102.9c22.9-36.3,47.3-71.5,73.4-105.5c14-18.2,29.3-35.3,43.9-53c25.9-31.5,54.8-60.3,84-88.7
	c14-13.5,28.8-26.2,43.5-39c12.7-11.1,25.4-22.2,38.6-32.8c16.9-13.6,33.8-27.1,51.3-39.7c22.9-16.4,46.1-32.3,69.9-47.4
	c22.3-14.1,45.2-27.4,68.3-40.1c23.5-13,47.4-25.4,71.6-37c30.9-14.7,62.1-28.6,94.4-40.2c20.4-7.3,40.7-14.9,61.1-21.9
	c13.9-4.8,28-8.9,42.1-13.1c1.3-0.4,3,0.7,4.5,1.2L939.7,520.9z"/>
<path class="st8" d="M1553.2,1612.3c0.7,0.5,1.1,1.1,1.5,1.9c0,1.3-0.2,2.7,0.3,3.8c5.9,12.5,7.1,25.7,7,39.3
	c-0.2,71.6,0,143.2,0,214.8s-0.3,45.1,0.2,67.7c0.1,7.7-2.8,11.9-9.6,15c-20.2,9.1-40.2,18.5-60.1,28.1c-6,2.9-12.1,4.5-18.7,4
	c-9.9-1.2-10.6-1.9-10.9-10.5c0-3,0-6.1,0-9.1c0-97.6,0-195.2,0-292.7c0-5.5,1.2-11.3-3-16.1c1-3.4-1.9-4.6-3.8-6
	c-7.3-4.9-15.5-7.5-24.1-9.3c-14.6-3-29.3-3.2-44-2.3c-12.1,0.7-24.1,2.7-35.4,7.4c-9.3,3.9-15,10-13.9,20.8c0.3,3,0,6.1,0,9.1
	c0,85,0,169.9,0,254.9c0,3.9,0,7.8,0,11.7c0,3.3-1.7,5.8-4.5,7.4c-2.3,1.3-4.6,2.4-7,3.5c-19.6,9.3-39.2,18.5-58.6,28
	c-5.2,2.5-10.6,3.5-16.3,3.4c-0.9,0-1.7,0-2.6-0.2c-7.9-1.1-9.4-2.5-9.8-9.2c-0.1-1.7,0-3.5,0-5.2c0-106.7,0-213.3,0-320
	c0-26.5,10.5-47.8,31.1-64.3c17.5-14,37.5-23.3,58.9-29.3c53.3-14.9,106.1-13.8,158.2,5.6c25.3,9.4,47.1,23.8,63.7,45.4
	c0.6,0.8,1.2,1.6,1.8,2.4L1553.2,1612.3z M1330,1945.8c2.2-5.3,1.3-10.1,1.3-14.8c0-85.5,0-170.9,0-256.4c0-3.9,0-7.8,0-11.7
	c0.2-7.6,3.5-13.6,10.1-17.1c6.1-3.2,12.4-6.3,19-8c24.3-6.4,48.9-6.3,73.5-1.6c8.5,1.6,16.8,4.3,24.3,8.9
	c7.2,4.4,11.5,10.3,11.1,19.2c-0.2,3.5,0,6.9,0,10.4c0,97.2,0,194.3,0,291.5c0,4.2-0.9,8.5,1.1,12.6c6.5,1.4,12.2,0.7,17.9-2.1
	c20.2-9.9,40.7-19.3,61-29c1.5-0.7,2.9-1.8,4.8-3v-10.3c0-21.7,0-43.4,0-65.1c0-71.6,0-143.1,0-214.7c0-6.5-0.3-13-1.4-19.4
	c-3.2-17-12.8-30.1-25.9-40.9c-9.4-7.8-20-13.7-31-18.9c-30.9-14.5-63.6-19.7-97.3-19.6c-22.6,0-45,2.7-66.7,9.4
	c-19.2,5.9-37.4,13.6-53.6,25.7c-20.7,15.5-31.7,35.6-31.6,62.2c0.4,105.4,0.2,210.8,0.2,316.2c0,3.3,0.5,6.6,0.8,9.6
	c7.6,1.6,13.7,0,19.7-3c17.5-8.5,35.2-16.8,52.7-25.2C1323.5,1949,1326.9,1947.3,1330,1945.8z"/>
<path class="st8" d="M856,1950.7c-1.5-1.2-3-2.4-4.5-3.6c-0.9-0.7-1.7-1.5-2.6-2.2c-3.8-3.5-7.7-6.9-11.5-10.5
	c-15.5-14.8-23.7-32.8-24.4-54.2c-0.1-3.5,0-6.9,0-10.4c0-70.6,0.6-141.3-0.3-211.9c-0.4-34.7,14.3-59.7,42.8-77.9
	c22.6-14.4,47.4-23.3,73.6-27.6c36.7-5.9,73.4-5.1,109.6,4.5c16.4,4.3,31.9,10.8,46.8,19c15.4,8.5,28.1,20.2,39,33.8
	c0.6,0.8,1.2,1.7,1.9,2.5c0.9,1.2,1.8,2.5,2.8,3.7c0.8,3.3,1.5,6.7,2.3,10c1.2,5.1,3.2,10.1,3.3,15.2c0.5,18.6,0.3,37.3,0.4,55.9
	c0,4.4-2.1,7.3-6.1,9.1c-2.8,1.3-5.4,2.7-8.2,4c-17.6,8.3-35.3,16.5-52.8,25.1c-5.9,2.9-12,4.7-18.4,5.5c-0.4-0.1-0.8-0.3-1.2-0.4
	c-10.1-0.4-12.6-0.7-12.4-14.2c0.3-18.8,0-37.7,0-56.5c0-3.8,0.9-7.8-2.4-10.9c-0.4-4-3.3-6.2-6.5-7.5c-6.7-2.9-13.5-6-20.6-7.6
	c-15.7-3.7-31.9-3.9-47.9-2.6c-9.4,0.8-19,2.4-27.9,5.5c-17.9,6.2-19.1,11.4-19.1,26.5c0.2,60.7,0,121.4,0,182.1
	c0,3.5-0.3,7,0.4,10.4c1.2,6.3,4,11.5,11.3,12.4c2.1,1.5,3.9,3.7,6.2,4.3c6.6,1.9,13.3,4.1,20.1,4.7c19.8,1.9,39.8,2.6,59.4-2.1
	c6.6-1.6,13-4.5,19.2-7.4c5.5-2.6,8-7.4,7.8-13.7c-0.3-10.4,0-20.8-0.1-31.1c0-4.9,1.7-8.1,6.2-10.2c22.7-10.6,45.3-21.4,67.9-32.1
	c6.2-3,12.7-1.8,19.1-1.4c2.9,0.2,4.5,2.5,5.2,5.1c0.7,2.5,0.7,5.1,1,7.7c-0.1,4.8-0.3,9.5-0.3,14.3c0,21.7,0.2,43.4-0.1,65
	c-0.3,18-6.4,33.9-18.5,47.4c-8.1,9.1-17.4,16.9-28,23c-31.1,17.8-64.4,27.4-100.2,28.1c-9.5,0.2-19.1,0.2-28.6,0
	c-30.3-0.5-59.2-7.4-86.5-20.6c-3.4-1.6-7.2-2.4-10.9-3.6l-0.3-0.2c-0.6-3.4-2.9-4.4-6-4.2L856,1950.7z M1127.1,1699.1
	c0-19.9,0-38.9,0-58c0-3-0.9-6-1.7-8.9c-3.9-15.8-13.5-27.9-25.7-38.1c-10.8-8.9-23-15.5-35.7-21c-29.1-12.8-59.8-17.3-91.3-17.2
	c-23,0-45.9,2.6-68,9.5c-20.4,6.3-39.7,15-56.5,28.6c-18.1,14.8-28.3,33.4-28.2,57.4c0.2,75.5,0,150.9,0.1,226.4
	c0,5.2,0.5,10.4,1.5,15.5c3.5,17.9,13.9,31.5,27.8,42.6c14.1,11.2,30,18.9,46.9,24.8c19.3,6.8,39.3,10.1,59.8,11.5
	c29.7,2.1,58.9-0.6,87.5-9.1c20.1-6,38.9-14.7,55.4-27.9c19.1-15.3,29.5-34.6,28.8-59.6c-0.6-23-0.1-46-0.1-69
	c0-3.4-0.3-6.8-0.4-10.3c-6.6-2.7-12.1-0.8-17.7,1.9c-12.1,5.8-24.3,11.5-36.4,17.2c-9.7,4.6-19.4,9.3-29.4,14.1
	c-0.2,3.8-0.6,7.2-0.6,10.6c0,8.2,0,16.5,0,24.7c0,8.1-3.4,14.4-10.5,18.1c-5.7,3-11.7,5.9-17.8,7.5c-25.2,6.6-50.6,6.8-76,1.4
	c-7.5-1.6-14.9-4.6-21.8-8c-8-3.9-12.3-10.7-11.7-20c0.2-2.6,0-5.2,0-7.8c0-61.2,0-122.3,0-183.5c0-3,0.1-6.1,0-9.1
	c-0.3-8.3,3.6-14.3,10.5-18.1c5.7-3.1,11.7-5.9,17.9-7.5c26.5-6.7,53.2-6.8,79.8-0.1c6.6,1.7,13,4.7,19.1,7.8
	c7,3.7,10.7,9.9,10.6,18.1c0,2.6,0,5.2,0,7.8c0,16.9,0,33.8,0,50.7c0,3.4,0.4,6.8,0.7,9.9c6.9,2.5,12.5,0.6,18.1-2.1
	c21.5-10.3,43-20.4,65.4-31L1127.1,1699.1z"/>
<path class="st8" d="M1712.8,1953.2c-7.9-6.8-16.1-13.2-23.5-20.4c-15.3-14.9-22.9-33.3-23-54.7c0-33.4,0-66.7,0-100.1
	c0-41.2,0.4-82.3-0.1-123.5c-0.4-29.3,11.7-51.8,34.7-68.9c19.4-14.4,41.1-23.8,64.5-29.4c45.6-11,91-10,136,3.5
	c12.5,3.7,24.3,9.1,35.7,15.4c19,10.4,34.2,24.8,46.4,42.7c0.3,2.5,0.2,5.2,0.9,7.6c3.2,10.4,4.5,21.1,4.3,32
	c-0.2,10.8-0.5,21.7,0.1,32.5c0.5,8.3-2.9,13.7-9.3,18.6c-39.6,30.2-78.9,60.6-118.4,90.9c-29.5,22.7-59.1,45.3-88.5,68
	c-1.9,1.4-3.2,3.6-5.5,6.2c5.6,3.3,9.5,7.5,15.9,6.5c1.8,3.5,5.4,4.2,8.7,4.7c7.6,1.3,15.4,2.7,23.1,3c15.5,0.7,31.2,1.2,46.4-2.8
	c6.6-1.7,13.1-4.2,19.4-7c6-2.7,8.9-7.8,8.8-14.6c-0.1-10.4,0-20.8,0-31.1c0-4.9,1.9-7.9,6.4-10.1c22.7-10.6,45.3-21.4,67.9-32.1
	c6.2-2.9,12.7-1.9,19.1-1.1c1.6,0.2,3.6,2.4,4.3,4.2c1.2,2.7,1.4,5.8,2.1,8.8c-0.2,2.6-0.4,5.2-0.4,7.8c0,22.1,0,44.3,0,66.4
	c-0.1,26.4-10.7,47.7-31.4,64.2c-18.6,14.9-39.9,24.3-62.5,31c-24.4,7.2-49.4,8.5-74.7,8.3c-34.8-0.3-67.9-7.3-98.9-23.5
	c-2.6-1.4-5.6-1.9-8.4-2.8L1712.8,1953.2z M1758.2,1869.7c3.3-2.8,6.2-5.3,9.3-7.6c67.7-52.1,135.5-104.2,203.2-156.3
	c3.7-2.9,8.1-5,10.5-9.7c0-15.1,0-30.3,0-45.4c0.1-20.2-7.3-37.4-22.1-50.9c-7.3-6.7-15.4-12.7-24-17.7
	c-25.1-14.6-52.5-22.2-81.3-24.9c-18.2-1.7-36.4-1.7-54.6,0.1c-29.7,2.9-57.9,11.1-83.4,26.7c-8.1,4.9-15.6,11-22.4,17.6
	c-12.9,12.6-19.8,28.3-19.8,46.6c0,3.5,0,6.9,0,10.4c0,70.3,0,140.6,0,210.8c0,4.3,0,8.7,0.1,13c0.3,15.4,6,28.7,15.7,40.4
	c7.3,8.8,16.1,15.8,25.8,21.6c19.9,12,41.3,19.9,64.1,24c24.9,4.5,49.9,5.4,75.1,2.9c29.3-3,56.9-10.9,82.5-25.7
	c8.7-5,16.7-10.9,23.7-18.1c13.3-13.6,20.4-29.9,20.4-49.1c0-25.2,0-50.3,0-75.5c0-2.4-0.5-4.8-0.8-6.9c-7.2-2.2-12.7-0.2-18.3,2.6
	c-18.7,9-37.6,17.8-56.3,26.7c-3.1,1.5-6,3.2-9.1,4.8c-0.2,2.6-0.5,4.7-0.5,6.9c0,9.1-0.3,18.2,0,27.3c0.3,8.9-3.6,15.2-11.1,19.1
	c-5.7,3-11.7,5.6-18,7.3c-24.3,6.4-48.9,6.2-73.5,1.7c-8.5-1.6-16.8-4.3-24.3-8.9c-4.9-3-9.4-6.3-11.1-13.7L1758.2,1869.7z"/>
<path class="st8" d="M2325.2,1556.9c5.1,2.3,3.9,7.2,4.7,11.3c0.2,4.8-0.7,9.3-2.8,13.7c-9,18.7-18,37.4-26.6,56.3
	c-3.3,7.2-7.8,10.6-16,10.2c-12.1-0.6-24.2-0.2-36.4,0c-2.8,0-5.7,0.9-9.1,1.4c0,5.9,0,11.1,0,16.2c0,88.7,0,177.5,0,266.2
	c0,3.5,0,6.9,0,10.4c0,4.3-2,7.4-5.7,9.5c-2.3,1.3-4.6,2.4-7,3.5c-19.5,9.3-39.1,18.5-58.6,27.9c-4.8,2.3-9.7,3.6-14.9,3.6
	c-2.2-0.2-4.4,0-6.5-0.6c-4.1-0.9-6.1-3-6.3-7c-0.3-3.9-0.2-7.8-0.2-11.7c0-97.3,0-194.6,0-291.9c0-4.8-0.1-9.5-0.2-14.3
	c0-4.2,0.9-8.5-1.8-13.5c-25.2,0.1-50.6-0.2-76,0.2c-1.7-0.2-3.5-0.2-5.2-0.6c-6-1.4-7.5-2.9-7.7-8.6c-0.3-6.9,0.2-13.5,3.5-20.1
	c9.1-18.2,17.6-36.6,26.1-55.2c2.7-5.9,6.5-8.5,13-8.3c11.3,0.3,22.5,0,33.8,0c4.3,0,8.6,0,13.5,0c0.4-3.7,1-6.6,1-9.5
	c0-32.5,0-65,0-97.5c0-3,0-6.1,0-9.1c0-3.8,1.5-6.7,5-8.3c1.6-0.7,3.1-1.6,4.6-2.3c20.3-9.6,40.7-19.1,60.9-29
	c5.7-2.8,11.3-4,17.5-3.6c8,0.4,9.1,1.4,10.7,9.9c0.2,0.8,0.2,1.7,0.3,2.6c0,8.7,0,17.3,0,26c0,35.6,0,71.1,0,106.7
	c0,4.2-1.2,8.7,2.1,12.9c5.7,0.8,11.7,2.4,17.7,2.4c22.1,0.2,44.2,0,66.4-0.1L2325.2,1556.9z M2146.3,1640.6
	c0.1,6.1,0.3,10.8,0.3,15.5c0,102.8,0,205.6,0,308.4c0,4.6,0.3,9.3,0.5,14.3c6.9,1.1,12.5,0.8,18.3-2.1
	c20.6-10.1,41.5-19.7,62.2-29.5c1.1-0.5,2.1-1.5,3.9-2.9v-13.6c0-69.8,0-139.7,0-209.5c0-23.9,0-47.7,0-71.6c0-2.8,0.8-5.7,1.3-9
	h57.5c1.2-1.6,2.2-2.5,2.8-3.6c9-19.2,17.9-38.5,27.1-57.6c2.5-5.3,3-10.5,0.9-16.7c-4.4,0-8.7,0-13,0c-22.6,0-45.1,0-67.7,0
	c-2.8,0-5.7-0.7-8.9-1.2v-13.7c0-44.7,0-89.4,0-134c0-3.3-0.5-6.5-0.8-9.6c-7.1-1.1-12.8,0-18.5,2.8c-19,9.4-38.3,18.3-57.4,27.4
	c-2.7,1.3-5.2,2.8-8.1,4.5v13.4c0,33.4,0,66.8,0,100.2c0,3.3-0.6,6.5-1,10.3h-58.4c-10,21.1-19.8,41.7-29.5,62.5
	c-2.3,4.8-2.1,9.8-0.8,15.4h89.5L2146.3,1640.6z"/>
<path class="st9" d="M2152.8,1987.2c5.3,0,10.1-1.3,14.9-3.6c19.5-9.4,39-18.6,58.6-27.9c2.3-1.1,4.7-2.2,7-3.5
	c3.7-2.1,5.7-5.2,5.7-9.5c0-3.5,0-6.9,0-10.4c0-88.7,0-177.5,0-266.2s0-10.3,0-16.2c3.4-0.6,6.3-1.4,9.1-1.4
	c12.1-0.2,24.3-0.5,36.4,0c8.2,0.4,12.7-3.1,16-10.2c8.6-18.9,17.6-37.6,26.6-56.3c2.1-4.4,3-8.9,2.8-13.7c2.1,0.4,4.3,0.7,6.4,1.2
	c3.3,0.7,5.4,3,5.8,6.2c0.7,5.6,1.2,11.3-1.3,16.6c-9.7,20.8-19.5,41.5-29.3,62.3c-2.3,5-6.1,6.7-11.5,6.6c-11.3-0.2-22.5,0-33.8,0
	c-4.3,0-8.5,0.3-13.5,0.4c-0.4,2.9-1.1,5.3-1.1,7.7c-0.1,14.3,0,28.6,0,42.9c0,78.4,0,156.7,0,235.1c0,15.1,1.1,15-14.4,22.2
	c-18.8,8.7-37.7,17.6-56.3,26.8c-6.1,3-12.3,3.8-18.8,3.5s-7.8-1.6-9-8.5c-0.2-1.3-0.2-2.6-0.3-3.9L2152.8,1987.2z"/>
<path class="st10" d="M98.6,1262.8c5.2,0,9.9,0.7,14.2,4.2c3.5,2.9,8.1,4.4,12.1,6.5c-1.4,10.4-6.5,19.6-10,29.3
	c-11.8,32.5-22.9,65.2-32.2,98.5c-3.7,13.3-7.9,26.4-11.7,39.7c-1,3.7-1,7.7-1.8,11.5c-3.2,14.7-6.5,29.4-9.8,44.1
	c-6.6,1-11.3-2.5-15.8-6.5c-4.2-3.8-8.8-6.6-14.8-5.7c1.7-8.8,3-17.8,5.1-26.5c14.3-59.2,32.7-117.2,55.3-173.8
	C92.1,1276.9,95.4,1269.9,98.6,1262.8L98.6,1262.8z"/>
<path class="st9" d="M1252,1987c5.7,0.1,11.1-0.9,16.3-3.4c19.5-9.5,39.1-18.7,58.6-28c2.3-1.1,4.7-2.2,7-3.5
	c2.8-1.6,4.5-4.1,4.5-7.4c0-3.9,0-7.8,0-11.7c0-85,0-169.9,0-254.9c0-3,0.3-6.1,0-9.1c-1.2-10.9,4.5-17,13.9-20.8
	c11.4-4.7,23.3-6.7,35.4-7.4c14.7-0.8,29.4-0.7,44,2.3c8.6,1.8,16.8,4.3,24.1,9.3c1.9,1.3,4.8,2.6,3.8,6c-2.1-0.2-4.3,0-6.4-0.5
	c-24.8-6.5-49.7-6.2-74.6-1.3c-6.7,1.3-13.1,4.4-19.3,7.3c-5.5,2.6-8.3,7.3-8.2,13.6c0,3.5,0,6.9,0,10.4c0,86.1,0,172.3,0,258.4
	c0,5.1-0.2,10.3-0.3,15.6c-3.5,2-6.3,4-9.4,5.4c-20.3,9.7-40.7,19.1-61,28.9c-5.7,2.7-11.4,3.7-17.6,3.4c-7.4-0.4-8.5-1.2-10.3-8.8
	c-0.3-1.3-0.5-2.6-0.7-3.8H1252z"/>
<path class="st9" d="M695.8,1554.1c2.6,0.4,5.2,0.6,7.7,1.3c2.6,0.8,4.5,2.7,4.7,5.6c0.2,3,0.3,6.1,0.3,9.1c0,126.7,0,253.3,0,380
	c0,3.9-0.3,7.7-0.5,12c-3.1,1.8-6,3.8-9,5.3c-20.3,9.7-40.7,19.5-61.1,29c-3.5,1.6-7.3,3-11.1,3.2c-15.3,0.5-14.5,0.4-17.8-12.7
	c6.7,0.2,12.7-1.8,18.6-4.7c18-8.7,36-17.2,54-25.7c15.7-7.4,13.7-5.7,13.8-22.4c0-121.9,0-243.8,0-365.7
	C695.4,1563.6,695.6,1558.9,695.8,1554.1L695.8,1554.1z"/>
<path class="st4" d="M695.8,1554.1c-0.1,4.8-0.3,9.5-0.4,14.3c0,121.9,0,243.8,0,365.7c0,16.7,1.9,15-13.8,22.4
	c-18,8.5-36.1,17-54,25.7c-5.9,2.9-12,4.9-18.6,4.7c-1.7-0.1-3.5-0.1-5.2-0.4c-3.4-0.5-5.5-2.6-6-5.9c-0.4-3-0.4-6-0.4-9.1
	c0-126.6,0-253.1,0-379.7c0-0.4,0-0.9,0-1.3c-1.4-8.6,2.5-13.4,10.4-16.9c20.2-8.9,40.1-18.5,59.9-28.2c6.1-3,12.2-4,18.8-3.7
	c6.7,0.4,7.9,1.5,9,8.4C695.7,1551.4,695.7,1552.7,695.8,1554.1L695.8,1554.1z M603.9,1583.7v218.1c0,55.5,0,110.9,0,166.4
	c0,3.7-1.4,7.7,1.7,11.1c6.7,1.2,12.8,0,18.9-3.1c19-9.3,38.3-18.2,57.4-27.4c2.6-1.3,5-3,7.5-4.5v-14.9c0-98.4,0-196.7,0-295.1
	c0-25.6,0-51.1,0-76.7c0-2.8-0.7-5.6-1-8.2c-7-1.5-12.7-0.5-18.4,2.3c-20.2,9.8-40.6,19.3-60.9,29c-1.5,0.7-2.9,1.8-5,3.1
	L603.9,1583.7z"/>
<path class="st9" d="M1783.1,1880c-6.4,1-10.3-3.3-15.9-6.5c2.3-2.6,3.6-4.7,5.5-6.2c29.5-22.7,59-45.3,88.5-68
	c39.5-30.3,78.8-60.7,118.4-90.9c6.4-4.9,9.8-10.3,9.3-18.6c-0.6-10.8-0.3-21.6-0.1-32.5c0.2-10.9-1.2-21.5-4.3-32
	c-0.7-2.4-0.7-5.1-0.9-7.6c1.4,0.8,3.1,1.4,4,2.6c9.7,13,13.4,28,13.6,43.9c0.1,13-0.3,26,0.2,39c0.3,7.7-2.4,13-8.5,17.6
	c-14.3,10.5-28.3,21.5-42.3,32.3c-52.5,40.4-105,80.8-157.6,121.1C1790,1876.5,1786.5,1878.1,1783.1,1880L1783.1,1880z"/>
<path class="st9" d="M1473.6,1986.8c6.6,0.5,12.6-1.1,18.7-4c19.9-9.6,39.9-19,60.1-28.1c6.8-3.1,9.8-7.2,9.6-15
	c-0.4-22.6-0.2-45.1-0.2-67.7c0-71.6,0-143.2,0-214.8c0-13.6-1.2-26.8-7-39.3c-0.5-1.1-0.2-2.5-0.3-3.8c1.9,1.6,4.2,2.9,5.7,4.9
	c8.9,12.2,13.3,26.1,14,41.2c0.2,3.9,0,7.8,0,11.7c0,91.3,0,182.6,0,273.9c0,17.6,1.2,16.3-15.5,24.1c-18.4,8.7-36.9,17.2-55,26.2
	c-6.6,3.3-13.2,3.7-20.1,3.4c-4.5-0.2-7.1-2.4-7.8-7.1c-0.3-2-1.5-3.8-2.3-5.7L1473.6,1986.8z"/>
<path class="st9" d="M1712.8,1953.2c2.8,0.9,5.8,1.4,8.4,2.8c31,16.2,64.1,23.2,98.9,23.5c25.3,0.2,50.3-1.1,74.7-8.3
	c22.7-6.7,43.9-16.1,62.5-31c20.7-16.5,31.2-37.8,31.4-64.2c0.1-22.1,0-44.3,0-66.4c0-2.6,0.3-5.2,0.4-7.8c1.3,0,2.6-0.3,3.9-0.1
	c5.5,0.9,7.2,2.4,7.8,7c0.3,2.6,0.2,5.2,0.2,7.8c0,23.4-0.3,46.8,0,70.2c0.4,28.6-11,51.1-33.7,68.2c-19.3,14.6-41,24.3-64.4,29.9
	c-48.7,11.6-97.1,10.8-144.7-5.7c-14-4.8-27.2-11.4-39.4-19.7c-2.4-1.6-4.1-4.1-6.2-6.2L1712.8,1953.2z"/>
<path class="st9" d="M862.2,1955.1c3.6,1.2,7.5,2,10.9,3.6c27.3,13.2,56.2,20.1,86.5,20.6c9.5,0.2,19.1,0.2,28.6,0
	c35.8-0.7,69.2-10.3,100.2-28.1c10.7-6.1,19.9-13.9,28-23c12-13.5,18.2-29.4,18.5-47.4c0.3-21.7,0-43.4,0.1-65
	c0-4.8,0.2-9.5,0.3-14.3c1.3,0,2.6,0,3.9,0.1c6.3,1.1,8.2,2.5,8.2,8c0,29.9,0.7,59.8-0.4,89.7c-0.7,18.4-9.7,33.9-22.8,46.9
	c-15.1,14.9-33.5,24.6-53,32c-22.4,8.5-45.7,13-69.8,13.8c-27.8,0.9-55.4-0.4-82.4-8.2c-18.4-5.3-35.9-12.7-51.9-23.3
	C865,1959.1,862.3,1958.3,862.2,1955.1L862.2,1955.1z"/>
<path class="st9" d="M923.3,1877.8c-7.3-1-10.1-6.1-11.3-12.4c-0.6-3.4-0.4-6.9-0.4-10.4c0-60.7,0.1-121.4,0-182.1
	c0-15,1.1-20.3,19.1-26.5c8.9-3.1,18.5-4.7,27.9-5.5c16-1.3,32.1-1.1,47.9,2.6c7.1,1.7,13.9,4.7,20.6,7.6c3.1,1.3,6.1,3.5,6.5,7.5
	c-2.1-0.2-4.3-0.1-6.4-0.7c-24.3-6.5-48.8-6.6-73.2-1.8c-7.1,1.4-14,4.4-20.6,7.4c-6,2.7-9.1,7.7-8.9,14.6c0.1,3.5,0,6.9,0,10.4
	c0,58.4,0,116.8,0,175.2c0,4.7-0.7,9.4-1,14.1L923.3,1877.8z"/>
<path class="st6" d="M2592.9,2023.5c-5.9,6.3-11.4,13.1-17.9,18.6c-17.7,15.2-35.9,29.9-53.9,44.6c-15.1,12.3-30.1,24.7-45.4,36.6
	c-14.6,11.5-29.4,22.8-44.5,33.6c-28.1,20.1-56.3,40.2-84.9,59.7c-38.6,26.3-78.2,51.1-118.4,74.9c-12.7,7.5-25.1,15.3-37.9,22.5
	c-4.3,2.4-8.5,6.4-14.3,4.6c3.6-2.4,7.1-4.9,10.8-7.1c125.9-74.9,245-159.3,355.5-255.6c7.9-6.8,16-13.4,23.2-20.9
	c6.4-6.6,13.8-10.2,22.6-11.4c1.7-0.2,3.4-0.3,5.2-0.4L2592.9,2023.5z"/>
<path class="st3" d="M28.9,1484.5c6-0.9,10.6,1.9,14.8,5.7c4.5,4.1,9.2,7.5,15.8,6.5c-0.9,5.9-1.6,11.8-2.7,17.7
	c-3.1,15.9-6.2,31.9-7.8,48.1c-0.9,9.8-3,19.4-4.5,29.1c-0.3,2.1-0.5,4.3-0.4,6.4c0.3,6.5-0.6,12.8-2.7,19
	c-7.5-1.4-12-7.5-17.8-11.6c-4.2-3-8.1-6.1-13.4-6.7c1-10.2,1.5-20.6,3.2-30.7C18.3,1540.1,23.7,1512.3,28.9,1484.5L28.9,1484.5z"/>
<path class="st8" d="M622.8,1515c-5-4.1-10.1-8.1-14.8-12.5c-24.1-22.4-24.2-63.2,2.9-85.9c20.3-17,50-17.5,70.3-0.4
	c5.9,4.9,10.7,11.2,16,16.8c0.5,0.7,1,1.5,1.5,2.2s1.1,1.4,1.6,2c0.1,2.1-0.2,4.4,0.5,6.3c2.3,6.2,2.3,12.6,2.3,19.1
	c-0.5,35.9-33.8,62.2-68.9,54.4C630.5,1516.2,626.7,1515.6,622.8,1515L622.8,1515z M644.6,1510.8c28.2,2,51.1-22.4,51.5-48.9
	c0.4-30.3-25.3-50.2-46.9-51.1c-27.5-1.1-51.2,20.3-52,48.5C596.2,1490.4,621.6,1511.3,644.6,1510.8z"/>
<path class="st9" d="M1049.5,1740.7c6.5-0.8,12.5-2.6,18.4-5.5c17.5-8.6,35.2-16.8,52.8-25.1c2.7-1.3,5.4-2.8,8.2-4
	c3.9-1.8,6.1-4.7,6.1-9.1c0-18.6,0-37.3-0.4-55.9c-0.1-5.1-2.2-10.1-3.3-15.2c-0.8-3.3-1.5-6.7-2.3-10c1.1,0.6,2.5,0.9,3.2,1.7
	c9.3,11.9,14.7,25.5,15.2,40.5c0.6,16.8,0,33.7,0.3,50.5c0,5.5-2.5,8.7-7.3,10.9c-9.8,4.5-19.5,9.3-29.2,13.9
	c-10.5,5-21.2,9.6-31.5,15c-6.8,3.6-13.7,4.8-21.2,4.3c-7.2-0.5-8.4-1.6-9.3-9.5C1049.2,1742.4,1049.4,1741.5,1049.5,1740.7
	L1049.5,1740.7z"/>
<path class="st9" d="M2325.2,1556.9c-22.1,0-44.2,0.3-66.4,0.1c-6,0-11.9-1.6-17.7-2.4c-3.3-4.2-2.1-8.7-2.1-12.9
	c0-35.6,0-71.1,0-106.7c0-8.7,0-17.3,0-26c2.1,0.4,4.3,0.6,6.4,1.2c3.7,1.1,5.8,3.7,6,7.6c0.2,3.5,0.2,6.9,0.2,10.4
	c0,36.8,0,73.6,0,110.5s0,9.5,0,14.9c3.5,0.5,6.3,1.3,9.2,1.3c17.8,0.1,35.5,0,53.3,0.1C2317.9,1555,2322,1553.8,2325.2,1556.9
	L2325.2,1556.9z"/>
<path class="st9" d="M622.8,1515c3.8,0.7,7.6,1.3,11.3,2.1c35.1,7.8,68.4-18.5,68.9-54.4c0-6.5,0-12.9-2.3-19.1
	c-0.7-1.9-0.4-4.2-0.5-6.3c1.1,0.5,2.6,0.8,3.3,1.7c16.3,19.1,17.7,52.8-3.8,74.8c-19.8,20.3-51.1,23.1-73.4,6.3
	C624.7,1518.9,623.9,1516.8,622.8,1515L622.8,1515z"/>
<path class="st9" d="M2061.8,1648.6c25.4-0.5,50.8-0.1,76-0.2c2.8,5,1.8,9.3,1.8,13.5c-6-0.3-12-0.8-18-0.8c-14.2-0.1-28.4,0-42.6,0
	c-3,0-6,0.1-9-0.1c-4.8-0.4-6.6-2.1-7.7-7.1c-0.4-1.7-0.3-3.4-0.4-5.1L2061.8,1648.6z"/>
<path class="st11" d="M1312,924.5c1.7,1,3.4,2.6,5.2,2.7c4.6,0.2,9.1-0.2,13.7-0.4c-5.6,0.3-11.4,1.6-16.7,0.5
	c-5.8-1.2-11.1-2.6-17.1-1.5c-5.9,1.1-12,0.7-18,1.2s-12,1.2-17.9,2.1c-23,3.4-45.9,7-68.9,10.5c-2.6-0.9-5.1-1.7-7.7-2.6
	c5.8-1.4,11.6-3.2,17.4-4c20.9-2.7,41.8-5.1,62.7-7.6c1.7-0.2,3.4-0.2,5.2-0.3c11.5-0.4,23,2.2,34.5-1.2
	C1306.7,923.2,1309.5,924.2,1312,924.5L1312,924.5z"/>
<path class="st6" d="M1326.6,2561.9c-17.6,0-35-2-52.4-4.6c-9.3-1.4-18.8-1.9-28.1-3.1c-2.5-0.3-4.8-1.5-7.2-2.2
	c2.6-0.8,5.2-1.7,7.8-2.5c11.9,1.8,23.7,3.7,35.6,5.3c13.2,1.9,26.4,3.5,39.6,5.3C1323.5,2560.3,1325,2561.3,1326.6,2561.9
	L1326.6,2561.9z"/>
<path class="st11" d="M1246.7,2549.5c-2.6,0.8-5.2,1.7-7.8,2.5c-14.8-1.5-29.7-3.2-43.9-8.1c3.5-0.7,7.6,1.4,10.3-2.5
	C1219.1,2544.1,1232.9,2546.8,1246.7,2549.5z"/>
<path class="st6" d="M2175.6,2318.6c0,0.8,0.2,2-0.3,2.5c-5,4.9-10.5,8.8-18,8.3c6.1-3.6,12.2-7.2,18.2-10.8H2175.6z"/>
<path class="st6" d="M2152.7,2332.1c-2.3,6.4-7.4,8-13.5,7.7C2143.7,2337.2,2148.2,2334.7,2152.7,2332.1z"/>
<path class="st9" d="M856,1950.7c3.1-0.2,5.4,0.8,6,4.2C858.6,1955.5,857,1953.6,856,1950.7z"/>
<path class="st7" d="M950.1,517.8c-1.3,2.1-3.2,2.9-5.6,2C946.3,515.9,946.8,515.7,950.1,517.8z"/>
<path class="st6" d="M2157.7,2329.1c-0.3,3.4-2.7,3.5-5.3,3.3C2154.2,2331.3,2155.9,2330.2,2157.7,2329.1z"/>
<path class="st6" d="M2139.4,2339.5c-0.4,3.3-2.7,3.5-5.3,3.2C2135.9,2341.6,2137.6,2340.6,2139.4,2339.5z"/>
<path class="st6" d="M2134.4,2342.4c-0.6,3-2.8,3.2-5.3,3.1C2130.9,2344.5,2132.6,2343.5,2134.4,2342.4z"/>
<path class="st6" d="M2129.3,2345.3c-0.7,2.7-2.9,2.9-5.1,2.9C2125.9,2347.2,2127.6,2346.3,2129.3,2345.3z"/>
<path class="st6" d="M2124.1,2348.2c-0.8,2.3-2.8,2.5-4.8,2.6C2120.9,2349.9,2122.5,2349.1,2124.1,2348.2z"/>
<path class="st6" d="M2118.8,2351.1c-1.5,0.8-2.9,1.6-4.3,2.5C2116,2352.8,2117.4,2352,2118.8,2351.1z"/>
<path class="st9" d="M848.9,1945c0.9,0.7,1.7,1.5,2.6,2.2C850.6,1946.5,849.8,1945.7,848.9,1945z"/>
<path class="st9" d="M698.7,1435.2c-0.5-0.7-1-1.5-1.5-2.2C697.7,1433.7,698.2,1434.5,698.7,1435.2z"/>
<path class="st9" d="M1126.3,1612.2c-0.6-0.8-1.2-1.7-1.9-2.5C1125,1610.5,1125.6,1611.4,1126.3,1612.2z"/>
<path class="st9" d="M1553.2,1612.3c-0.6-0.8-1.2-1.6-1.8-2.4C1552,1610.7,1552.6,1611.5,1553.2,1612.3z"/>
<path class="st12" d="M1330,1945.8c-3.1,1.5-6.5,3.2-10,4.9c-17.6,8.4-35.2,16.7-52.7,25.2c-6,2.9-12.1,4.6-19.7,3
	c-0.2-3-0.8-6.3-0.8-9.6c0-105.4,0.2-210.8-0.2-316.2c-0.1-26.6,10.8-46.7,31.6-62.2c16.2-12.1,34.4-19.8,53.6-25.7
	c21.7-6.7,44.1-9.3,66.7-9.4c33.7-0.1,66.5,5.1,97.3,19.6c11,5.2,21.6,11.1,31,18.9c13,10.8,22.7,24,25.9,40.9
	c1.2,6.3,1.4,12.9,1.4,19.4c0,71.6,0,143.1,0,214.7c0,21.7,0,43.4,0,65.1v10.3c-1.9,1.2-3.3,2.3-4.8,3c-20.3,9.7-40.8,19.2-61,29
	c-5.8,2.8-11.4,3.6-17.9,2.1c-2-4.1-1.1-8.4-1.1-12.6c0-97.2,0-194.3,0-291.5c0-3.5-0.2-6.9,0-10.4c0.5-8.8-3.8-14.8-11.1-19.2
	c-7.5-4.6-15.8-7.3-24.3-8.9c-24.6-4.6-49.2-4.8-73.5,1.6c-6.6,1.7-13,4.8-19,8c-6.5,3.5-9.9,9.5-10.1,17.1c0,3.9,0,7.8,0,11.7
	c0,85.5,0,170.9,0,256.4C1331.3,1935.7,1332.2,1940.5,1330,1945.8L1330,1945.8z"/>
<path class="st13" d="M1127.1,1699.1c-22.4,10.6-43.9,20.8-65.4,31c-5.6,2.7-11.2,4.6-18.1,2.1c-0.2-3.1-0.7-6.5-0.7-9.9
	c0-16.9,0-33.8,0-50.7c0-2.6,0-5.2,0-7.8c0-8.2-3.6-14.4-10.6-18.1c-6.1-3.2-12.5-6.2-19.1-7.8c-26.5-6.7-53.3-6.6-79.8,0.1
	c-6.2,1.6-12.2,4.4-17.9,7.5c-6.9,3.7-10.9,9.8-10.5,18.1c0.1,3,0,6.1,0,9.1c0,61.2,0,122.3,0,183.5c0,2.6,0.2,5.2,0,7.8
	c-0.6,9.4,3.7,16.1,11.7,20c7,3.4,14.3,6.4,21.8,8c25.4,5.3,50.9,5.2,76-1.4c6.2-1.6,12.2-4.5,17.8-7.5c7.1-3.7,10.5-10,10.5-18.1
	c0-8.2,0-16.5,0-24.7c0-3.4,0.4-6.8,0.6-10.6c10-4.8,19.7-9.5,29.4-14.1c12.1-5.8,24.3-11.4,36.4-17.2c5.6-2.7,11.1-4.6,17.7-1.9
	c0.2,3.5,0.4,6.9,0.4,10.3c0,23-0.5,46,0.1,69c0.6,25.1-9.8,44.3-28.8,59.6c-16.5,13.2-35.3,21.9-55.4,27.9
	c-28.5,8.5-57.7,11.1-87.5,9.1c-20.4-1.4-40.4-4.7-59.8-11.5c-16.8-5.9-32.8-13.7-46.9-24.8c-14-11.1-24.3-24.7-27.8-42.6
	c-1-5.1-1.4-10.3-1.5-15.5c0-75.5,0-150.9-0.1-226.4c0-24,10.1-42.6,28.2-57.4c16.7-13.6,36-22.2,56.5-28.6c22.1-6.9,45-9.5,68-9.5
	c31.5,0,62.2,4.5,91.3,17.2c12.7,5.6,24.9,12.1,35.7,21c12.3,10.2,21.8,22.3,25.7,38.1c0.7,2.9,1.7,5.9,1.7,8.9c0.2,19,0,38.1,0,58
	L1127.1,1699.1z"/>
<path class="st12" d="M1758.2,1869.7c1.7,7.4,6.1,10.7,11.1,13.7c7.5,4.5,15.8,7.3,24.3,8.9c24.6,4.5,49.2,4.8,73.5-1.7
	c6.2-1.6,12.3-4.3,18-7.3c7.4-3.9,11.4-10.2,11.1-19.1c-0.3-9.1,0-18.2,0-27.3c0-2.1,0.3-4.3,0.5-6.9c3-1.6,6-3.3,9.1-4.8
	c18.8-8.9,37.6-17.7,56.3-26.7c5.6-2.7,11.1-4.8,18.3-2.6c0.2,2.1,0.8,4.5,0.8,6.9c0,25.2,0,50.3,0,75.5c0,19.2-7.1,35.5-20.4,49.1
	c-7,7.2-15,13.1-23.7,18.1c-25.5,14.8-53.2,22.8-82.5,25.7c-25.2,2.6-50.2,1.6-75.1-2.9c-22.8-4.1-44.3-12-64.1-24
	c-9.7-5.8-18.5-12.9-25.8-21.6c-9.7-11.7-15.4-25-15.7-40.4c0-4.3-0.1-8.7-0.1-13c0-70.3,0-140.6,0-210.8c0-3.5,0-6.9,0-10.4
	c0-18.3,6.8-34,19.8-46.6c6.8-6.6,14.3-12.7,22.4-17.6c25.5-15.7,53.7-23.8,83.4-26.7c18.2-1.8,36.4-1.8,54.6-0.1
	c28.9,2.7,56.2,10.3,81.3,24.9c8.5,5,16.7,11,24,17.7c14.8,13.6,22.2,30.7,22.1,50.9c0,15.2,0,30.4,0,45.4
	c-2.3,4.6-6.8,6.8-10.5,9.7c-67.7,52.1-135.4,104.2-203.2,156.3c-3,2.3-5.9,4.9-9.3,7.6L1758.2,1869.7z M1895.4,1672.1
	c2.6-12.8-3.2-21.7-14.2-27.5c-5.3-2.8-11-5.2-16.8-6.8c-24.3-6.5-48.9-6.3-73.3-0.9c-5.9,1.3-11.6,3.4-17.2,5.7
	c-11.2,4.6-16.3,12.8-16.2,25.3c0.4,36.8,0.2,73.7,0.2,110.5c0,1.6-0.6,3.5,1.6,4.3C1768.3,1777.7,1874.3,1691.4,1895.4,1672.1
	L1895.4,1672.1z"/>
<path class="st13" d="M2146.3,1640.6h-89.5c-1.3-5.6-1.5-10.6,0.8-15.4c9.7-20.7,19.5-41.4,29.5-62.5h58.4c0.4-3.8,1-7.1,1-10.3
	c0-33.4,0-66.8,0-100.2v-13.4c2.9-1.6,5.4-3.2,8.1-4.5c19.1-9.2,38.4-18.1,57.4-27.4c5.7-2.8,11.4-3.9,18.5-2.8
	c0.3,3,0.8,6.3,0.8,9.6c0,44.7,0,89.4,0,134v13.7c3.3,0.4,6.1,1.1,8.9,1.2c22.6,0,45.1,0,67.7,0c4.3,0,8.6,0,13,0
	c2.1,6.2,1.7,11.4-0.9,16.7c-9.1,19.2-18,38.4-27.1,57.6c-0.5,1.1-1.5,2.1-2.8,3.6h-57.5c-0.5,3.3-1.3,6.1-1.3,9
	c-0.1,23.9,0,47.7,0,71.6c0,69.8,0,139.7,0,209.5v13.6c-1.8,1.4-2.7,2.3-3.9,2.9c-20.7,9.8-41.6,19.5-62.2,29.5
	c-5.8,2.8-11.4,3.2-18.3,2.1c-0.2-5-0.5-9.6-0.5-14.3c0-102.8,0-205.6,0-308.4c0-4.7-0.1-9.4-0.3-15.5L2146.3,1640.6z"/>
<path class="st13" d="M603.9,1583.7c2.1-1.3,3.5-2.3,5-3.1c20.3-9.7,40.7-19.1,60.9-29c5.7-2.8,11.4-3.8,18.4-2.3
	c0.3,2.6,1,5.4,1,8.2c0,25.6,0,51.1,0,76.7c0,98.4,0,196.7,0,295.1v14.9c-2.4,1.5-4.8,3.2-7.5,4.5c-19.1,9.2-38.3,18.1-57.4,27.4
	c-6.1,3-12.2,4.2-18.9,3.1c-3.1-3.4-1.7-7.4-1.7-11.1c0-55.5,0-110.9,0-166.4v-218.1L603.9,1583.7z"/>
<path class="st13" d="M644.6,1510.8c-23,0.6-48.4-20.3-47.4-51.5c0.9-28.2,24.6-49.7,52-48.5c21.6,0.9,47.3,20.8,46.9,51.1
	C695.8,1488.3,672.8,1512.7,644.6,1510.8z"/>
<path class="st8" d="M1895.4,1672.1c-21,19.3-127,105.7-135.8,110.6c-2.2-0.8-1.6-2.8-1.6-4.3c0-36.8,0.2-73.7-0.2-110.5
	c-0.2-12.6,4.9-20.8,16.2-25.3c5.6-2.3,11.3-4.4,17.2-5.7c24.5-5.4,49-5.6,73.3,0.9c5.8,1.5,11.5,3.9,16.8,6.8
	C1892.3,1650.5,1898.1,1659.3,1895.4,1672.1L1895.4,1672.1z M1780.8,1758c33.4-27.4,66.8-54.8,100.1-82.2c3.2-2.7,7.4-4.6,8.6-10.3
	c-1.3-1.9-3-4.3-4.6-6.7c-0.6-4-3.7-5.7-6.6-7.5c-6.8-4-14.1-6.5-21.8-8.1c-14.1-3-28.5-3.3-42.7-2.3c-11.7,0.8-23.2,2.7-34.2,7.2
	c-9.4,3.8-14.5,9.4-14.3,20.5c0.5,30.8,0.2,61.6,0.2,92.4c0,2-0.8,4.4,2.2,6.1C1772.6,1765.1,1776.7,1761.4,1780.8,1758L1780.8,1758
	z"/>
<path class="st13" d="M1885,1658.7c1.6,2.4,3.3,4.8,4.6,6.7c-1.3,5.7-5.4,7.6-8.6,10.3c-33.3,27.4-66.7,54.8-100.1,82.2
	c-2.4-1-2.8-3.1-2.8-5.3c0-25.1,0-50.2,0-75.3c0-6.4,2.8-10.6,8.1-13.7c6.4-3.8,13.3-6.2,20.6-7.5c24.5-4.4,49-4.9,73.2,2.2
	C1881.6,1658.8,1883.4,1658.6,1885,1658.7L1885,1658.7z"/>
<path class="st9" d="M1885,1658.7c-1.7-0.1-3.5,0-5.1-0.4c-24.2-7.1-48.7-6.6-73.2-2.2c-7.3,1.3-14.2,3.8-20.6,7.5
	c-5.3,3.1-8.1,7.3-8.1,13.7c0.2,25.1,0,50.2,0,75.3c0,2.2,0.4,4.3,2.8,5.3c-4.3,3.4-8.3,7.1-13.2,9.1c-3-1.7-2.2-4.1-2.2-6.1
	c0-30.8,0.3-61.6-0.2-92.4c-0.2-11,4.9-16.7,14.3-20.5c11-4.4,22.6-6.4,34.2-7.2c14.3-1,28.6-0.7,42.7,2.3
	c7.7,1.6,15.1,4.1,21.8,8.1c2.9,1.8,6.1,3.5,6.6,7.5L1885,1658.7z"/>
</svg>
