<?xml version="1.0" encoding="utf-8"?>
<!-- Generator: Adobe Illustrator 27.7.0, SVG Export Plug-In . SVG Version: 6.00 Build 0)  -->
<svg version="1.1" id="Layer_1" xmlns="http://www.w3.org/2000/svg" xmlns:xlink="http://www.w3.org/1999/xlink" x="0px" y="0px"
	 viewBox="0 0 3500 3500" style="enable-background:new 0 0 3500 3500;" xml:space="preserve">
<style type="text/css">
	.st0{fill:#F90908;}
	.st1{fill:#060606;}
	.st2{fill:#FBF7F6;}
</style>
<g>
	<path class="st0" d="M0.6,1411.7c636,0,1272,0,1908,0c0.3,5.5,0.8,11,0.8,16.5c0,213.8,0,427.7,0,641.5c0,5.5-0.4,11-0.6,16.5
		c-6.8,0.7-13.7,1.9-20.5,1.9c-620.3,0.1-1240.6,0.1-1860.9,0.1c-4.2,0-8.4,0.3-12.5-0.1c-4.6-0.4-9.1-1.4-14.9-2.3
		c0-7.2,0-13.4,0-19.5c0-212.7,0-425.4,0-638.1C0,1422.7,0.4,1417.2,0.6,1411.7z M1597.2,1908.8c-1.8,0.4-3.6,0.8-5.4,1.1
		c-2.1-3.2-4.7-6.2-6.3-9.6c-16.2-34.1-32.1-68.3-48.4-102.3c-24.7-51.4-49.6-102.6-74.4-153.9c-8.1-16.6-14.8-34.1-24.7-49.6
		c-7.6-11.8-18.6-22-29.6-31c-9.1-7.4-22.2-8.3-31.4-1.9c-12.2,8.6-23.7,19.4-32.2,31.7c-9.6,13.9-15.6,30.4-23.1,45.8
		c-26.8,55.3-53.3,110.8-80.4,165.9c-15.1,30.6-31.6,60.4-46.7,91c-5.3,10.7-8.5,22.4-13.9,36.9c31.9,0,60.1,0.5,88.3-0.5
		c4.9-0.2,11.5-5.5,14-10.1c14-26.7,27-53.9,40.3-81c19.3-39.2,38.5-78.4,57.9-117.5c2.3-4.6,5.5-8.6,10-15.7
		c21.1,42.9,40.8,83,62.2,126.5c-38.2,0-71.9,0-105,0c-13.6,33.8-32.5,63-45.1,97.4c174.2,0,344.6,0,514.8,0
		c21.7-30.1,35.4-63.2,54.3-98.2c-67.4,0-130.3,0-195,0c0-24.8,0-47.5,0-70.2c0-22.8,0-45.6,0-68.4s0.2-45.6-0.1-68.4
		c-0.2-22.4,1.1-45-1.2-66.6c-27.5,0-52.2,0-79,0C1597.2,1677.6,1597.2,1793.2,1597.2,1908.8z M1084.2,1560.4
		c-0.6,64.6,0.3,127.6-2.9,191.2c-30.2-32.8-58-66.3-85.5-100c-15.2-18.6-29.4-38-44.5-56.7c-6-7.5-12.9-14.4-19.8-21.2
		c-23.4-23.4-51.5-17.9-63.1,13.1c-3.3,8.8-4.9,18.8-4.9,28.2c-0.4,100.1-0.3,200.2-0.3,300.3c0,5.2,1.3,10.4,2.1,16.6
		c26.2,0,50.9,0,77.2,0c0.6-8.3,1.6-15.7,1.7-23.1c0.2-50.4,0.1-100.8,0.2-151.2c0-5.7,1.1-11.3,1.9-19.7c6,4.4,9.8,6.2,12.3,9.1
		c17.7,21,35.3,42,52.5,63.4c26.2,32.6,51.8,65.8,78.2,98.3c6,7.4,13.3,14,21.1,19.5c19.6,13.8,41.6,7,49.1-15.1
		c3.2-9.5,5.9-19.8,5.9-29.8c0.4-102.2,0.3-204.3,0.2-306.5c0-5.3-0.8-10.5-1.3-16.4C1137,1560.4,1111.2,1560.4,1084.2,1560.4z
		 M551.9,1928.8c5,1.9,8.1,4.1,11.2,4.1c92.8,0.2,185.7,0.2,279.8,0.2c-0.3-6,0.5-10.4-1-13.7c-11.2-24.2-23.2-48-34.5-72.1
		c-14.5-31-28.4-62.2-43.1-93.1c-18.2-38.4-35.7-77.2-55.8-114.6c-12.5-23.3-20.4-49-41.5-68.3c-20.8-19-43.1-13.8-56.9,0.7
		c-8.5,8.9-16.8,18.7-22.2,29.5c-30.6,60.7-60.5,121.7-90.3,182.7c-23.6,48.4-46.8,97.1-70.6,146.7c31.9,0,63.5,0,98.1,0
		c36.5-72.9,73.3-146.7,112.5-225c22.5,44.5,44,83.5,61.1,128.8c-37.4,0-71.2,0-103,0C580.6,1867,566.8,1896.7,551.9,1928.8z
		 M110.4,1932.9c15.2,0,27.7,0.5,40.2-0.1c12.8-0.6,26.2,3.2,39.9-3.7c1.9-36.4-1.2-73,1.5-110.7c4.3,2.1,5.8,2.4,6.7,3.2
		c33.6,33.3,67.4,66.3,100.5,100.2c6.3,6.4,11.8,10.5,21.1,10.4c29.9-0.4,59.7,0.1,89.5-0.2c4.2,0,8.3-2.3,16.4-4.6
		c-60.2-61.2-117.9-119.8-176.1-178.8c29.6-31.6,58.6-62.8,87.9-93.7c28.9-30.6,58.1-60.8,90.1-94.3c-10.4-0.9-15.7-1.8-21-1.8
		c-20.8-0.2-41.7,0.7-62.5-0.3c-22-1.1-41.3,0.3-56,21c-11.7,16.5-27.8,29.9-41.9,44.8c-13.6,14.5-26.9,29.3-40.8,43.5
		c-3.3,3.4-8.4,5.1-15.8,9.3c0-40.8,0-78.5,0-118.1c-28.1,0.1-54-0.8-79.8,0.4C110.4,1685.2,110.4,1807.9,110.4,1932.9z"/>
	<path class="st1" d="M3500,1411.7c-0.3,7.6-0.8,15.1-0.8,22.7c0,209.2,0,418.5,0,627.8c0,8.1,0,16.1,0,26c-9.5,0-16.3,0-23.1,0
		c-510,0-1020,0-1530.1-0.1c-12.4,0-24.8-1.2-37.2-1.9c0.2-5.5,0.6-11,0.6-16.5c0-213.8,0-427.7,0-641.5c0-5.5-0.5-11-0.8-16.5
		C2439.1,1411.7,2969.5,1411.7,3500,1411.7z M2639,1931.1c-6.1-10.9-10.5-17.8-14.1-25.2c-17.4-36.5-34.5-73.2-51.8-109.8
		c-31.8-66.9-63.1-134.1-96-200.5c-6.1-12.2-17.8-22.3-28.6-31.3c-11.1-9.1-25.5-9.6-36.7-0.7c-11.6,9.2-23.9,19.8-30.7,32.5
		c-21.8,40.5-41.5,82.1-61.6,123.4c-23.6,48.7-46.8,97.6-70.3,146.3c-7.1,14.7-14.9,29-22.4,43.6c-1.4-0.2-2.8-0.3-4.3-0.5
		c-0.4-28.5-0.2-57-0.2-85.5c-0.1-29,0-58,0-87c0-29.7,0-59.4,0-89.1c0-28.8,0-57.6,0-87.6c-28,0-53.9,0-81.7,0
		c0,91.5,0,181.7,0,274.4c-65.2,0-128.7,0-195.4,0c18.3,34.7,34.8,66.1,51.4,97.5c107,0,212.9,0,318.6,0
		c39.5-72.7,71.1-148.1,113.1-223.1c23.4,42.7,43.8,82.1,61.3,125.4c-31.3,0-59.1,0.2-86.8-0.1c-8.1-0.1-15.9,0.7-19.7,8.5
		c-14.1,28.7-27.6,57.6-42.4,88.7C2440.7,1931.1,2537.9,1931.1,2639,1931.1z M3110.7,1930.9c5.9,0.5,11.9,1.5,17.8,1.5
		c46.5,0.1,93,0.1,139.4,0c20.1,0,39.6-1.8,58.8-9.1c25.4-9.6,46.5-25.2,62.2-46c18.7-24.7,32.3-52.2,36.6-84.1
		c7.9-58.3,7.9-114.9-25.9-166.7c-25.6-39.3-61.4-63.4-108.1-66.8c-39.3-2.9-79-1-118.6-1.3c-9.9-0.1-16.4,3.2-21,13.1
		c-11,23.6-23.6,46.5-35.3,69.8c-2,3.9-2.6,8.6-4.6,15.7c9.1,0,15.8,0,22.6,0c46.5,0,93-0.3,139.4,0.1c28.5,0.2,51.3,12.2,64.5,37.8
		c15.6,30.1,18.7,61.3,4.7,93.6c-13.1,30.2-34.1,45.2-67.3,45.5c-22.2,0.2-44.4,0.1-66.6,0c-6.1,0-12.1-0.7-19.4-1.1
		c0-23.5,0.2-45.5-0.1-67.5c-0.3-22.4,1.2-44.9-1-66.9c-27.5,0-52.2,0-78.2,0C3110.7,1775.5,3110.7,1851.2,3110.7,1930.9z
		 M2646.7,1657.1c12.2,0,19,0,25.8,0c46.5,0,92.9-0.1,139.4,0c20.1,0,38.6,5.3,52.4,20.5c19.3,21.2,28.7,46.2,26.8,75.4
		c-2.6,40-28.9,85.6-82.4,81.3c-21.4-1.7-43-0.2-64.5-0.3c-5.3,0-10.6-0.9-17.5-1.6c0-45.3,0-89.2,0-134c-26.4,0-50.9,0-76.6,0
		c0,78.1,0,155,0,231.4c2.4,1.2,3.7,2.3,4.9,2.3c61-0.2,122.2,1.7,183-1.8c20.6-1.2,43.3-12.1,60.2-24.9c44.6-34,66.3-82,70.1-137.1
		c4.2-60.4-2.6-118.2-48.2-164.9c-17.8-18.2-38-31.9-62.4-38.2c-51.9-13.4-104.7-3.4-158.4-7.1
		C2682.3,1590.2,2665.7,1621.4,2646.7,1657.1z M3078.3,1559.7c-25.6,0-50.2,0-75.9,0c0,124.2,0,247.2,0,371.5c25.6,0,50.1,0,75.9,0
		C3078.3,1806.9,3078.3,1683.9,3078.3,1559.7z"/>
	<path class="st2" d="M1597.2,1908.8c0-115.6,0-231.3,0-348.5c26.8,0,51.5,0,79,0c2.3,21.6,0.9,44.2,1.2,66.6
		c0.2,22.8,0.1,45.6,0.1,68.4s0,45.6,0,68.4c0,22.7,0,45.4,0,70.2c64.7,0,127.5,0,195,0c-18.9,34.9-32.6,68.1-54.3,98.2
		c-170.2,0-340.7,0-514.8,0c12.6-34.4,31.6-63.6,45.1-97.4c33.1,0,66.9,0,105,0c-21.4-43.5-41.1-83.6-62.2-126.5
		c-4.6,7.1-7.8,11.1-10,15.7c-19.4,39.1-38.6,78.3-57.9,117.5c-13.3,27.1-26.3,54.3-40.3,81c-2.4,4.7-9.1,10-14,10.1
		c-28.2,1-56.5,0.5-88.3,0.5c5.4-14.5,8.6-26.2,13.9-36.9c15.2-30.5,31.6-60.4,46.7-91c27.2-55.1,53.6-110.6,80.4-165.9
		c7.5-15.4,13.5-31.8,23.1-45.8c8.4-12.2,20-23.1,32.2-31.7c9.2-6.4,22.3-5.6,31.4,1.9c11,9,21.9,19.2,29.6,31
		c9.9,15.4,16.7,32.9,24.7,49.6c24.8,51.3,49.8,102.6,74.4,153.9c16.3,34,32.2,68.2,48.4,102.3c1.6,3.4,4.2,6.4,6.3,9.6
		C1593.5,1909.6,1595.3,1909.2,1597.2,1908.8z"/>
	<path class="st2" d="M1084.2,1560.4c26.9,0,52.8,0,80.1,0c0.5,5.9,1.3,11.2,1.3,16.4c0.1,102.2,0.2,204.3-0.2,306.5
		c0,10-2.7,20.2-5.9,29.8c-7.5,22.1-29.5,28.8-49.1,15.1c-7.8-5.5-15.1-12.1-21.1-19.5c-26.4-32.5-52-65.6-78.2-98.3
		c-17.2-21.4-34.8-42.4-52.5-63.4c-2.5-2.9-6.3-4.8-12.3-9.1c-0.8,8.3-1.9,14-1.9,19.7c-0.2,50.4-0.1,100.8-0.2,151.2
		c0,7.4-1,14.8-1.7,23.1c-26.3,0-50.9,0-77.2,0c-0.8-6.2-2.1-11.4-2.1-16.6c-0.1-100.1-0.1-200.2,0.3-300.3c0-9.4,1.6-19.4,4.9-28.2
		c11.6-30.9,39.7-36.5,63.1-13.1c6.8,6.8,13.7,13.7,19.8,21.2c15.1,18.7,29.3,38.1,44.5,56.7c27.5,33.8,55.3,67.2,85.5,100
		C1084.6,1687.9,1083.6,1625,1084.2,1560.4z"/>
	<path class="st2" d="M551.9,1928.8c14.9-32.1,28.7-61.7,43.7-94.1c31.8,0,65.5,0,103,0c-17.1-45.3-38.6-84.3-61.1-128.8
		c-39.2,78.3-76,152.1-112.5,225c-34.5,0-66.2,0-98.1,0c23.9-49.7,47-98.3,70.6-146.7c29.8-61.1,59.7-122.1,90.3-182.7
		c5.5-10.8,13.8-20.7,22.2-29.5c13.8-14.5,36.1-19.7,56.9-0.7c21.1,19.2,29,45,41.5,68.3c20.1,37.4,37.6,76.2,55.8,114.6
		c14.7,30.9,28.5,62.2,43.1,93.1c11.3,24.1,23.2,47.9,34.5,72.1c1.5,3.3,0.6,7.7,1,13.7c-94.1,0-186.9,0-279.8-0.2
		C560,1932.8,556.9,1930.6,551.9,1928.8z"/>
	<path class="st2" d="M110.4,1932.9c0-125,0-247.7,0-373.5c25.8-1.3,51.7-0.4,79.8-0.4c0,39.7,0,77.3,0,118.1
		c7.3-4.2,12.5-5.9,15.8-9.3c13.9-14.2,27.1-29.1,40.8-43.5c14-14.9,30.1-28.3,41.9-44.8c14.7-20.7,33.9-22.1,56-21
		c20.8,1,41.6,0.2,62.5,0.3c5.3,0.1,10.7,0.9,21,1.8c-32,33.5-61.2,63.8-90.1,94.3c-29.2,30.9-58.2,62-87.9,93.7
		c58.1,59,115.8,117.6,176.1,178.8c-8,2.3-12.2,4.6-16.4,4.6c-29.9,0.3-59.7-0.2-89.6,0.2c-9.3,0.1-14.8-4-21.1-10.4
		c-33-33.8-66.9-66.9-100.5-100.2c-0.9-0.9-2.4-1.2-6.7-3.2c-2.7,37.7,0.3,74.4-1.5,110.7c-13.7,6.9-27,3.1-39.9,3.7
		C138.1,1933.4,125.7,1932.9,110.4,1932.9z"/>
	<path class="st2" d="M2639,1931.1c-101.1,0-198.3,0-298.3,0c14.8-31.1,28.3-60,42.4-88.7c3.8-7.8,11.5-8.6,19.7-8.5
		c27.7,0.3,55.4,0.1,86.8,0.1c-17.5-43.4-37.8-82.7-61.3-125.4c-42,74.9-73.6,150.4-113.1,223.1c-105.7,0-211.7,0-318.6,0
		c-16.6-31.4-33.1-62.8-51.4-97.5c66.7,0,130.1,0,195.4,0c0-92.7,0-182.9,0-274.4c27.8,0,53.7,0,81.7,0c0,30,0,58.8,0,87.6
		c0,29.7,0,59.4,0,89.1c0,29,0,58,0,87c0,28.5-0.1,57,0.2,85.5c1.4,0.2,2.8,0.3,4.3,0.5c7.5-14.5,15.3-28.9,22.4-43.6
		c23.6-48.7,46.7-97.7,70.3-146.3c20.1-41.4,39.8-83,61.6-123.4c6.9-12.7,19.1-23.3,30.7-32.5c11.2-8.9,25.7-8.4,36.7,0.7
		c10.9,9,22.6,19.1,28.6,31.3c32.9,66.4,64.2,133.6,96,200.5c17.4,36.6,34.4,73.2,51.8,109.8
		C2628.5,1913.3,2632.9,1920.2,2639,1931.1z"/>
	<path class="st2" d="M3110.7,1930.9c0-79.7,0-155.4,0-232.4c26.1,0,50.7,0,78.2,0c2.2,22,0.7,44.5,1,66.9c0.3,22,0.1,44,0.1,67.5
		c7.3,0.4,13.4,1.1,19.4,1.1c22.2,0.1,44.4,0.2,66.6,0c33.2-0.2,54.2-15.2,67.3-45.5c14-32.2,10.9-63.4-4.7-93.6
		c-13.2-25.6-36-37.6-64.5-37.8c-46.5-0.4-93-0.1-139.4-0.1c-6.7,0-13.5,0-22.6,0c2-7.2,2.6-11.8,4.6-15.7
		c11.7-23.3,24.3-46.2,35.3-69.8c4.6-9.9,11-13.2,21-13.1c39.5,0.3,79.2-1.6,118.6,1.3c46.7,3.4,82.5,27.5,108.1,66.8
		c33.8,51.8,33.8,108.4,25.9,166.7c-4.3,31.8-18,59.4-36.6,84.1c-15.7,20.8-36.8,36.4-62.2,46c-19.2,7.3-38.8,9.1-58.8,9.1
		c-46.5,0.1-93,0.1-139.4,0C3122.6,1932.4,3116.6,1931.4,3110.7,1930.9z"/>
	<path class="st2" d="M2646.7,1657.1c19-35.8,35.6-66.9,52.7-99.2c53.6,3.7,106.5-6.3,158.4,7.1c24.4,6.3,44.7,20,62.4,38.2
		c45.5,46.7,52.4,104.5,48.2,164.9c-3.9,55.1-25.5,103.2-70.1,137.1c-16.9,12.8-39.5,23.7-60.2,24.9c-60.8,3.5-122,1.7-183,1.8
		c-1.2,0-2.4-1.1-4.9-2.3c0-76.3,0-153.2,0-231.4c25.7,0,50.3,0,76.6,0c0,44.8,0,88.8,0,134c6.9,0.7,12.2,1.6,17.5,1.6
		c21.5,0.2,43.1-1.4,64.5,0.3c53.5,4.3,79.8-41.3,82.4-81.3c1.9-29.2-7.5-54.2-26.8-75.4c-13.8-15.2-32.3-20.5-52.4-20.5
		c-46.5-0.1-92.9,0-139.4,0C2665.8,1657.1,2659,1657.1,2646.7,1657.1z"/>
	<path class="st2" d="M3078.3,1559.7c0,124.2,0,247.2,0,371.5c-25.8,0-50.3,0-75.9,0c0-124.3,0-247.4,0-371.5
		C3028.1,1559.7,3052.7,1559.7,3078.3,1559.7z"/>
</g>
</svg>
