<?xml version="1.0" encoding="utf-8"?>
<!-- Generator: Adobe Illustrator 27.7.0, SVG Export Plug-In . SVG Version: 6.00 Build 0)  -->
<svg version="1.1" id="Layer_1" xmlns="http://www.w3.org/2000/svg" xmlns:xlink="http://www.w3.org/1999/xlink" x="0px" y="0px"
	 viewBox="0 0 3500 3500" style="enable-background:new 0 0 3500 3500;" xml:space="preserve">
<style type="text/css">
	.st0{fill:#005586;}
</style>
<path class="st0" d="M3490.7,3503.8H-2.8c0-1165.4,0-2328.7,0-3492c23.8-8,3431.5-11.5,3491.7-3.6
	C3496,32.7,3498.4,3455.5,3490.7,3503.8L3490.7,3503.8z M1548.9,1840.2c2.2,25.1,2.8,44.5,5.6,63.6c14.8,99.7,37.7,197.7,67.1,294
	c18.9,61.9,41.5,122.6,62.2,183.9c6.2,18.3,16.3,28.4,37.9,27.6c41.6-1.6,83.3-1.4,124.9,0c19.7,0.7,29.6-6.9,35.3-25
	c11.9-37.4,25.9-74.2,37.3-111.8c12.3-40.6,22.6-81.7,33.8-122.6c9.4,10,11.8,20.6,15,30.9c21.1,68.5,42.6,136.8,63.5,205.3
	c5.2,17.1,15.2,23.5,33,23c39.3-1,78.7-0.2,118-0.4c35.7-0.1,35.4-0.4,48.4-35.7c58.6-159,97.8-323,128-489.4
	c2.4-13,1.7-26.5,2.6-40.9h-135.4c-25.6,150.7-51.8,299.1-103.7,442.1c-55.8-143.1-83.4-292.5-109.2-442.1h-113.8
	c-2.9,13.6-5.8,24.8-7.5,36.2c-19.2,125.9-46.3,250-84.4,371.6c-3.8,12.1-10.1,23.3-15.2,35c-55.7-145.2-80.7-294.1-106.2-445.4
	L1548.9,1840.2L1548.9,1840.2z M1552.8,2177.6c14.6-36.2,9.3-67.2,4.9-98.1c-30.7-215.8-274.8-321.9-449.1-195.1
	c-121.6,88.4-156.5,260.6-80.1,394.5c104.2,182.5,357.9,195,478.4,23.4c8.8-12.5,14.8-27,25-45.9c-34.5,0-62.1,1.2-89.6-0.3
	c-28.8-1.6-52.4,5.4-77,22.3c-87.4,60.2-211.9,18.8-249.7-81c-1.8-4.8-0.8-10.6-1.3-19.7L1552.8,2177.6L1552.8,2177.6z
	 M965.6,2407.2c1.3-12.5,3.1-21.4,3.1-30.4c0.2-96,0.4-192-0.3-288c-0.2-20.7-1.8-41.8-6.6-61.9c-29.6-123.8-149.8-222.2-315.9-191
	c-125.8,23.6-207.1,129.2-211.4,257.5c-3.2,95.9-0.7,192-0.5,287.9c0,7.8,1.8,15.5,2.9,24.1h127c0-15.8,0-28.3,0-40.8
	c0-81-1.2-161.9,0.7-242.9c0.7-27.2,5.4-55.7,15.1-81c35.7-93.2,159.6-112.6,225-37.6c29.6,34,36,74.1,36.2,116.3
	c0.5,83.3,0,166.5,0.3,249.8c0,12.1,1.7,24.3,2.7,37.7L965.6,2407.2L965.6,2407.2z M1031.6,1434.2c1.9-13.8,4-22.6,4.3-31.5
	c1.4-43.1-5.2-84.9-19.7-125.8c-66.1-186.3-292.3-255.9-450.5-138.2c-119,88.6-156.8,251.5-90.2,389.1
	c80.4,166.1,291.4,218.3,438.7,107.7c39.9-30,71.4-67.5,92.4-117.4c-39.2-5.5-69.4-10.3-97.8,25.6c-59.6,75.2-155.8,99.4-243.9,66.5
	c-79.3-29.7-127.3-88-149.3-175.9L1031.6,1434.2L1031.6,1434.2z M2752.6,1399.2c1.2-101.9-33.4-180.4-103.6-243.9
	c-91.8-83.1-230.9-95.6-338.9-35.2c-102.4,57.3-177.1,194-147.2,332.2c34.9,161.6,186.4,278.4,368.7,232.8
	C2664.5,1651.9,2756,1524.3,2752.6,1399.2L2752.6,1399.2z M2729,1857c-81.9-20.4-161.7-27.4-242.1-9.9
	c-111.5,24.3-147.1,117.7-114.3,218.8c13.4,41.1,43,67.7,83.3,82.2c16.3,5.9,33.2,9.8,49.8,14.6c26.6,7.7,53.8,13.6,79.6,23.4
	c33.7,12.8,44.1,29.7,42,59.5c-2.1,28.9-16.7,45.2-51.2,51.6c-21.4,3.9-43.8,6.5-65.3,4.4c-40.1-3.9-79.8-11.7-119.7-17.9
	c-8.5-1.3-17.1-2.6-26.3-3.9v103.1c58.9,29.2,210.8,34.3,273,16.9c29.1-8.2,56.4-20.4,78.5-42.1c85-83.6,51.2-237.5-61.4-275.7
	c-38.2-13-77.7-22.2-116.4-33.8c-33.1-9.8-47.3-28.2-44.7-56.7c2.3-26,19.5-42,53.9-42.2c44.9-0.2,89.8,3.2,134.7,5.9
	c14.6,0.9,29.1,4.4,46.7,7.3L2729,1857L2729,1857z M1175.3,1093.5c-2.3,7-3.7,9.2-3.7,11.4c-0.2,119.1-3.7,238.4,0.8,357.4
	c4.4,114.8,63.1,190.6,163.4,220.5c28.2,8.4,59.2,10.1,88.9,9.7c94.8-1.2,177.7-60.5,208.2-150.6c10.2-30,14.8-63.2,15.3-95
	c1.9-106.4,0.8-212.8,0.7-319.3c0-11-1.7-22.1-2.6-34.1h-61.7c0,14.8,0,27.1,0,39.5c0,98.3,1.1,196.7-0.6,295
	c-0.5,29.6-4.6,60.6-14.4,88.3c-22.1,62.5-67.3,101.6-134.1,111.4c-63.2,9.3-116.3-10.8-157.2-60.6c-30.2-36.7-39.8-80.1-39.8-126.3
	c-0.2-103,0-205.9-0.2-308.9c0-12.3-1.2-24.6-1.9-38.4L1175.3,1093.5L1175.3,1093.5z M1874.7,1676.3c0-21,0-40.3,0-59.6
	c0.1-97.1-0.8-194.2,0.6-291.2c1.2-79.9,41.9-135,116.4-157.8c27.3-8.4,56.5-10.6,84.8-15.5c8.8-1.5,17.6-2.4,27.5-3.7v-66.7
	c-92-2-174.7,13.9-239.2,82c-47.1,49.7-62.2,112.7-63.1,178.8c-1.4,101.7-0.4,203.4-0.3,305.1c0,8.9,1.7,17.8,2.8,28.7
	L1874.7,1676.3L1874.7,1676.3z M2813,2288.7c-0.1,68.5,50.1,119.9,117,119.6c66.1-0.2,119.4-54.1,118.6-119.7
	c-0.8-65.7-51.3-116.3-116.8-116.9C2863.1,2171,2813.1,2220.2,2813,2288.7L2813,2288.7z"/>
<path class="st0" d="M1111.8,2073c13.8-67.2,88.4-128.2,164.5-125.4c77.4,2.9,142.6,50.5,160.2,122.7
	C1413.3,2078.4,1160.4,2080.8,1111.8,2073L1111.8,2073z"/>
<path class="st0" d="M518.1,1357.6c-7-90.9,93.9-195.6,196-205.3c125.7-12,236.1,76.9,250.2,201.4
	C942,1362.9,577.6,1366.4,518.1,1357.6z"/>
<path class="st0" d="M2466.2,1612.5c-87.4,0.2-143.8-35.7-184.5-97.2c-51.9-78.4-48.8-184.2,5.4-261.1
	c87-123.5,258.2-120.2,340.4,6.4c68.1,105,40.1,227.3-34.6,297.4C2554.5,1594.2,2508.7,1613.9,2466.2,1612.5L2466.2,1612.5z"/>
</svg>
