<?xml version="1.0" encoding="utf-8"?>
<!-- Generator: Adobe Illustrator 27.7.0, SVG Export Plug-In . SVG Version: 6.00 Build 0)  -->
<svg version="1.1" id="Layer_1" xmlns="http://www.w3.org/2000/svg" xmlns:xlink="http://www.w3.org/1999/xlink" x="0px" y="0px"
	 viewBox="0 0 3500 3500" style="enable-background:new 0 0 3500 3500;" xml:space="preserve">
<style type="text/css">
	.st0{fill:#FFFFFF;}
	.st1{fill:#0C0CC4;}
	.st2{fill:#E8E8E8;}
	.st3{fill:#9E9D9E;}
	.st4{fill:#D9D1DB;}
	.st5{fill:#A3A3A3;}
	.st6{fill:#E0E0E0;}
	.st7{fill:#A8ACB2;}
	.st8{fill:#EAEAEA;}
	.st9{fill:#BDC3C9;}
	.st10{fill:#C6C4C6;}
	.st11{fill:#E5E5E5;}
	.st12{fill:#A5A5A5;}
	.st13{fill:#BACECD;}
	.st14{fill:#D9D7DB;}
	.st15{fill:#DBD5E0;}
	.st16{fill:#9AA1A8;}
	.st17{fill:#A1A7AF;}
	.st18{fill:#AFAFAF;}
	.st19{fill:#959AA0;}
	.st20{fill:#D8D8D8;}
	.st21{fill:#ADACAD;}
	.st22{fill:#E8DFEA;}
	.st23{fill:#B2B2B2;}
	.st24{fill:#939393;}
	.st25{fill:#A7A7A8;}
	.st26{fill:#C1C1C1;}
	.st27{fill:#7F7F7F;}
	.st28{fill:#DDDDDD;}
	.st29{fill:url(#SVGID_1_);}
	.st30{fill:#F4F4F4;}
	.st31{fill:#E6E7E8;}
</style>
<g>
	<g id="Objects">
		<g>
			<g>
				<path class="st0" d="M109.2,1951c-33.9-19.2-60.6-45.5-80-79.1C9.7,1838.3,0,1801.2,0,1760.4s9.4-78.2,28.6-111.8
					c19.1-33.6,45.2-59.9,78.8-79.1c33.3-19.2,70.3-28.6,111.4-28.6c37.4,0,72.2,8.5,104.8,25.7c32.3,17.3,59.6,42.1,81.9,74.4
					l-66.9,47.7c-30.5-46.1-70.6-69.4-119.9-69.4c-38.6,0-70.3,13.2-94.8,39.6c-24.8,26.4-37,60.3-37,101.4s12.6,75,38,101.4
					c25.1,26.4,57.1,39.6,96.1,39.6c33.6,0,60.6-8.5,81.6-25.1c20.7-16.6,33.6-37.3,38.9-61.8h-129v-73.1h214.7
					c0.9,9.1,1.6,20.7,1.6,34.2c0.3,109.2-77.5,204.7-207.8,204.3C180.2,1979.8,142.8,1970.1,109.2,1951L109.2,1951z"/>
				<path class="st0" d="M504.1,1973.6v-426.3h303.2v73.4H588.9v98.2h189.6v73.4H588.9v108H812v73.1L504.1,1973.6L504.1,1973.6z"/>
				<path class="st0" d="M890.5,1973.6v-426.3h89.8l137.5,283.8l137.2-283.8h89.8v426.3H1260v-261.5L1145.1,1945h-54.9l-114.9-232.9
					v261.5H890.5L890.5,1973.6z"/>
			</g>
			<rect x="2253.5" y="1543.2" class="st1" width="20" height="429"/>
			<g>
				<path class="st1" d="M2811.5,1799.5h-154.3V1972h-92.7v-432.5h265.1v82.6h-172v94.4h153.9L2811.5,1799.5L2811.5,1799.5z"/>
				<path class="st1" d="M3386.6,1972.2h-93.3v-349.7h-114.1v-83.3H3500v82.7h-113.4L3386.6,1972.2L3386.6,1972.2z"/>
				<path class="st1" d="M3055.5,1897.6h60.7v74.5h-215.9v-74.3h60.8v-284.3h-54.9v-74h204.2v73.1h-54.9L3055.5,1897.6
					L3055.5,1897.6z"/>
			</g>
			<g>
				<g>
					<g>
						<polygon class="st2" points="1798,1620.7 1657,1620.7 1679.3,1572.7 						"/>
						<polygon class="st3" points="1679.3,1572.7 1634,1520.2 1519,1581.9 1575.3,1620.7 						"/>
						<polygon class="st4" points="1657,1620.7 1679.3,1572.7 1575.3,1620.7 						"/>
						<polygon class="st5" points="1575.3,1620.7 1492.8,1620.7 1519,1581.9 						"/>
						<polygon class="st6" points="1492.8,1620.7 1427.1,1620.7 1519,1581.9 						"/>
						<path class="st7" d="M1427.1,1620.7c0,0,117.8-100.7,119.6-100.5s-27.6,61.8-27.6,61.8L1427.1,1620.7L1427.1,1620.7z"/>
						<polygon class="st8" points="1546.6,1520.2 1634,1520.2 1519,1581.9 						"/>
						<polygon class="st9" points="1634,1520.2 1679.3,1572.7 1798,1520.2 						"/>
						<polygon class="st10" points="1798,1620.7 1939,1620.7 1916.7,1572.7 						"/>
						<polygon class="st11" points="1798,1520.2 1679.3,1572.7 1798,1620.7 1916.7,1572.7 						"/>
						<polygon class="st0" points="1916.7,1572.7 1962,1520.2 2077,1581.9 2020.6,1620.7 						"/>
						<polygon class="st12" points="1939,1620.7 1916.7,1572.7 2020.6,1620.7 						"/>
						<polygon class="st13" points="2020.6,1620.7 2103.2,1620.7 2077,1581.9 						"/>
						<polygon class="st14" points="2103.2,1620.7 2168.9,1620.7 2077,1581.9 						"/>
						<path class="st15" d="M2168.9,1620.7c0,0-117.8-100.7-119.6-100.5s27.6,61.8,27.6,61.8L2168.9,1620.7z"/>
						<polygon class="st0" points="2049.4,1520.2 1962,1520.2 2077,1581.9 						"/>
						<polygon class="st16" points="1962,1520.2 1916.7,1572.7 1798,1520.2 						"/>
					</g>
					<g>
						<polygon class="st17" points="1657,1620.7 1745,1837.4 1575.3,1620.7 						"/>
						<polygon class="st0" points="1575.3,1620.7 1693.8,1837.4 1798,1947.8 1745,1837.4 						"/>
						<polygon class="st8" points="1575.3,1620.7 1492.8,1620.7 1693.8,1837.4 						"/>
						<polygon class="st18" points="1798,1947.8 1693.8,1837.4 1427.1,1620.7 						"/>
						<polygon class="st19" points="1492.8,1620.7 1427.1,1620.7 1693.8,1837.4 						"/>
						<polygon class="st20" points="1798,1620.7 1745,1837.4 1798,1947.8 1851,1837.4 						"/>
						<polygon class="st11" points="1939,1620.7 1851,1837.4 2020.6,1620.7 						"/>
						<polygon class="st21" points="2020.6,1620.7 1902.2,1837.4 1798,1947.8 1851,1837.4 						"/>
						<polygon class="st22" points="2020.6,1620.7 2103.2,1620.7 1902.2,1837.4 						"/>
						<polygon class="st23" points="1798,1947.8 1902.2,1837.4 2168.9,1620.7 						"/>
						<polygon class="st24" points="2103.2,1620.7 2168.9,1620.7 1902.2,1837.4 						"/>
						<polygon class="st25" points="1939,1620.7 1851,1620.7 1851,1837.4 						"/>
						<polygon class="st2" points="1798,1620.7 1657,1620.7 1745,1837.4 						"/>
					</g>
					<g>
						<polygon class="st0" points="1492.8,1620.7 1657,1620.7 1634,1520.2 						"/>
						<polygon class="st26" points="1657,1620.7 1798,1620.7 1939,1620.7 1798,1520.2 						"/>
						<polygon class="st27" points="2049.4,1520.2 2103.2,1620.7 2168.9,1620.7 						"/>
						<polygon class="st26" points="1939,1620.7 2103.2,1620.7 1962,1520.2 						"/>
					</g>
					<path class="st28" d="M2103.2,1609.3h-662.8c-8.2,7-13.3,11.4-13.3,11.4h741.9c0,0-5.2-4.4-13.3-11.4H2103.2L2103.2,1609.3z"/>
					
						<linearGradient id="SVGID_1_" gradientUnits="userSpaceOnUse" x1="1865.0563" y1="-1738.9255" x2="1927.4962" y2="-1782.5055" gradientTransform="matrix(1 0 0 -1 0 0)">
						<stop  offset="0" style="stop-color:#D6D6D6"/>
						<stop  offset="1" style="stop-color:#191919"/>
					</linearGradient>
					<polygon class="st29" points="1798,1947.8 1953.9,1620.7 2061.9,1620.7 					"/>
				</g>
				<polygon class="st30" points="1851,1620.7 1798,1620.7 1851,1837.4 				"/>
				<polygon class="st30" points="1798,1947.8 1798,1620.7 1745,1620.7 				"/>
				<polygon class="st31" points="1575.3,1609.3 1634,1520.2 1654.4,1609.3 				"/>
				<polygon class="st31" points="2049.4,1520.2 1962,1520.2 2095.5,1609.3 				"/>
			</g>
		</g>
	</g>
</g>
</svg>
