<?xml version="1.0" encoding="UTF-8"?>
<svg id="Layer_01" data-name="Layer 01" xmlns="http://www.w3.org/2000/svg" version="1.1" viewBox="0 0 3500 3500">
  <defs>
    <style>
      .cls-1 {
        fill: #12a3aa;
      }

      .cls-1, .cls-2, .cls-3 {
        stroke-width: 0px;
      }

      .cls-2 {
        fill: #fff;
      }

      .cls-3 {
        fill: #f2dd5f;
      }
    </style>
  </defs>
  <path class="cls-1" d="M295.37,1322.1v480.95c63.78,0,124.94-25.33,170.04-70.43,45.1-45.1,70.44-106.26,70.44-170.04s-25.33-124.94-70.43-170.04c-45.1-45.1-106.26-70.44-170.04-70.44Z"/>
  <path class="cls-1" d="M240.47,1592.34v480.95c-63.78,0-124.94-25.33-170.04-70.43C25.34,1957.76,0,1896.59,0,1832.81s25.33-124.94,70.43-170.04c45.1-45.1,106.26-70.44,170.04-70.44Z"/>
  <path class="cls-3" d="M214.8,1523.29c20.37-24.73,30.04-56.42,26.96-88.31-3.08-31.9-18.65-61.14-43.38-81.51-24.73-20.37-56.42-30.04-88.31-26.96-31.9,3.08-61.14,18.65-81.51,43.38-20.37,24.73-30.04,56.42-26.96,88.31,3.08,31.9,18.65,61.14,43.38,81.51,24.73,20.37,56.42,30.04,88.31,26.96,31.9-3.08,61.14-18.65,81.51-43.38Z"/>
  <path class="cls-2" d="M977.16,1884.83c.01-65.91-.02-131.81,0-197.72.05-33.36,18.62-53.68,52.34-54.07,53.09-.61,42.95-7.72,43.18,40.83.57,121.21.2,242.43.17,363.65,0,20.29-.09,20.29-21,20.79-6.07.14-12.22-.29-18.2.5-31.49,4.18-53.21-8.46-71.48-34.35-19.57-27.72-43.7-52.21-65.36-78.51-48.38-60.84-98.14-120.54-147.9-180.26-19.71-24.12-40.9-47.54-56.89-74-8.26-13.66-7.12-33.23-8.91-50.26-.25-2.37,6.97-7.76,10.92-7.95,16.83-.82,33.73-.46,50.59-.07,22.57.52,33.16,18.61,45.12,33.06,60.16,74.07,118.76,149.37,182.54,220.42,1.63-.69,3.26-1.38,4.89-2.07Z"/>
  <path class="cls-2" d="M2893.37,1763.41c.34-4.48.89-8.95.97-13.43q.41-23.63,24.99-23.69c16.2-.02,32.41.43,48.59-.14,10.14-.36,14.34,2.59,14.27,13.57-.43,63.3-.43,126.6-.02,189.9.07,10.97-4.18,14.37-14.3,13.47-50.47.97-76.58-15.4-76.35-67.72-4.2-65.41-64.89-79.98-107.58-72.76-32.95,5.57-50.6,28.28-63.88,55.08-10.18,20.54,6.27,70.85,26.42,85.89,18.42,13.75,37.62,23.14,62.54,21.89,41.74-2.1,83.66-.65,125.5-.61,36.97.04,54.28,32.38,46.61,65.85-.63,2.75-6.95,6-10.64,6.01-72.88.08-145.81,1.17-218.62-1.19-53.99-1.39-95.49-49.81-117.96-94.83-20.54-48.77-14.14-106.91,16.21-150.79,26.41-36.26,61.85-58.5,106.34-63.26,25-2.67,50.94-3,75.69.71,14.65,2.2,28.35,13.52,41.36,22.36,5.75,3.91,8.76,11.84,13.02,17.94,2.28-1.41,4.57-2.83,6.85-4.24Z"/>
  <path class="cls-2" d="M1246.97,1823.23c-27.28,32.55-29.14,66.21-19.96,101.47,11.79,45.28,69.26,69.02,112.23,50.15,34.63-15.22,48.46-40.07,47.4-75.48-.49-16.57.08-33.98-4.81-49.45-10.21-32.31-35.4-47.73-68.68-48.42-47.9-1-95.82-.67-143.73-1.13-4.3-.04-8.59-1.72-12.89-2.64,1.66-4.1,2.22-9.41,5.17-12.11,14.24-13.05,27.5-28.35,44.09-37.41,73.27-40.48,170.28-32.96,232.77,23.43,15.6,12.46,24.97,33.84,34.39,52.58,29.54,62.6,12.57,144.6-40.15,190.26-83.23,73.6-238.55,56.03-288.8-46.22-17.66-35.44-26.04-75.55-10.53-116.07,16.48-42.63,74.41-26.06,113.49-28.95Z"/>
  <path class="cls-2" d="M3374.84,2052.52c-36.43,0-72.9,1.1-109.27-.32-64.61-4.68-93.46-89.08-63.32-140.92,5.26-9.97,13.56-21.23,23.28-25.41,22.41-9.63,46.11-18.76,70.08-21.68,29.93-3.65,60.64-.74,91.02-.89,19.21-.09,20.29-1.62,15.37-19.24-8.41-30.12-46.35-54.03-78.82-48.43-45.45,8.3-91.22,35.28-117.42-22.06-7.57-13.44,6.95-19.12,17.44-25.65,74.32-30.66,173.46-41.77,238.65,14.79,16.16,13.87,28.18,32.01,30.1,52.7,4.27,46.01,5.09,92.34,7.97,138.5.83,13.39-3.99,18.49-17.23,17.6-10.75-.72-21.59.03-32.39-.23-24.66-.59-42.33-16.72-45.07-41.81-.83-7.63-2.03-13.44-11.35-12.78-28.11,1.97-56.32,3.06-84.28,6.3-20.93,2.42-28.97,14.42-27.72,36.09,1.19,20.54,12.56,33.25,32.48,33.72,37.78.88,75.64-.44,113.34,1.54,16.83.88,33.9,6.04,49.86,11.96,16.74,6.21,15.88,24.91,21.39,38.71.3.75-9.56,7.99-14.77,8.1-36.43.74-72.89.39-109.34.39,0-.32,0-.64,0-.96Z"/>
  <path class="cls-2" d="M2298.65,2052.45c-37.8,0-75.64,1.14-113.38-.44-21.51-.9-37.4-14.8-52.27-30-44.99-46.65-24.11-123.25,34.73-146.71,41.82-18.07,84.79-9.54,127.31-11.93,13.56-1.32,35.4,5.84,29.04-17.1-8.73-43.39-64.25-57.56-99.05-47.42-11.6,3.38-23.09,7.39-34.91,9.68-30,5.82-56.89-10.21-62.44-39.74-1.13-6,10.14-18.19,18.16-21.41,74.17-30.13,178.95-43.17,240.51,19.33,18.95,20.76,32.52,44.77,32.25,74.54-.34,37.74-.51,75.5.39,113.22.32,13.58-4.35,18.2-17.45,17.03-9.38-.83-18.95-.82-28.35-.09-19.56,1.52-39.04-11.58-42.4-33.38-2.61-16.92-10.76-23.5-29.04-20.72-23.13,3.51-46.88,2.73-70.13,5.69-46.66,3.14-39.13,67.89,4.09,69.65,39.82,1.12,79.68,1.21,119.52.94,21.77-.4,57.59,14.56,62.92,36.59,2.99,21.22,1.16,23.19-20.22,23.37-33.09.27-66.19.07-99.29.07,0-.39,0-.78,0-1.17Z"/>
  <path class="cls-2" d="M2569.42,1810.42c0,60.61-.59,121.24.22,181.84.48,35.94-18.56,64.38-60.97,61.96-42.19-2.4-35.64,2.61-35.73-35.93-.28-119.88,1.01-239.78-.97-359.63-.43-26.15,30.67-54.82,52.16-57.56,44.09-5.62,45.24-4.47,45.28,39.59.05,56.57.01,113.15.01,169.72Z"/>
  <path class="cls-2" d="M1659.01,2057.71c-11.47,0-22.94-.09-34.41.03-9.87.1-11.4-3.76-7.14-12.3,8.41-16.82,16.35-33.84,10.36-53.69-.37-1.24,5.31-6.14,8.28-6.24,18.6-.64,37.24-.71,55.85-.37,16.06.29,22.52-10.84,26.49-23.01,4.23-12.95-5.51-20.27-15.55-24.73-62.64-23.11-167.17-2.7-178.84-92.39-3.47-43.82,51.78-26.32,78.79-29.98,26.48-1.38-.9,28.86,32.53,33.23,28.29,4.16,56.89,7.89,84.38,15.41,32.47,8.88,66.52,16.96,82.77,52.78,18.43,40.64-.32,97.16-39.92,117.56-41.81,21.54-54.8,24.59-103.58,23.7Z"/>
  <path class="cls-2" d="M3131.91,1884.77c0,41.05.08,82.11-.03,123.16-.05,20.73-20.61,42.94-41.48,44.5-12.07.9-24.27.17-36.3,1.35-13.36,1.31-15.68-5.14-15.63-16.7.35-80.76.15-161.53.21-242.29.03-32.59,19.13-58.88,57.24-55.93,35.85,2.77,35.99.99,35.98,36.87,0,36.34,0,72.69,0,109.03Z"/>
  <path class="cls-2" d="M687.55,1724.93c15.53,19.61,30.83,39.42,46.69,58.76,20.82,23.91,47.88,45.86,45.49,80.96-.4,45.79.55,91.6.21,137.39-.21,27.64-20.47,57.78-54.59,55.86-42.81-2.41-43.12-.33-42.97-43.91-.73-95.49,3.17-191.14-.25-286.54,1.81-.85,3.61-1.69,5.42-2.54Z"/>
  <path class="cls-2" d="M1889.19,1902.29c0-19.54.55-39.1-.19-58.61-.48-12.52,4.33-16.08,16.56-16.05,23.67.06,47.82-1.59,63.69,20.26,6.65,9.15,13.01,20.4,14.14,31.26,2.23,21.33.81,43.06.72,64.62-.1,25.23,15.45,42.97,40.12,40.9,28.62-2.4,45.49,12.25,58.13,34.16,10.09,17.49,3.17,26.99-16.41,32.32-73.28,23.02-173.34-1.27-176.71-92.25-.28-18.86-.05-37.73-.04-56.6Z"/>
  <path class="cls-2" d="M2796.95,2177.9c-50.1-9.51-103.62-8.91-147.44-38.21-3.4-1.91-5.98-10.78-4.52-14.87,8-22.44,25.7-35.14,47.73-41.91,4.7-1.45,11.4-1.02,15.64,1.33,35.4,19.58,73.92,17.14,112.07,16.22,22.71-.55,41.89-10.07,53.37-30.3,5.58-9.84,12.5-12.44,22.9-12.19,22.25.54,44.54.51,66.79.07,12.23-.24,16.72,4.86,11.98,15.9-29.89,81.73-96.84,104.31-177.81,99.48-.24,1.5-.48,3-.71,4.49Z"/>
  <path class="cls-2" d="M1960.34,1806.12c-30.37,0-60.75.25-91.12-.07-28.15-.3-50.02-35-43.93-62.29,7.38-13.52,28.4-8.69,41.55-9.22,22.21.04,23.27,0,22.03-21.52-1.14-19.7,4.47-34.36,20.45-46.9,20.94-16.43,44.59-10.75,67.48-11.05,2.27-.03,6.37,9.6,6.7,14.92.99,16.11,1.27,32.34.43,48.46-.63,12,2.45,17.36,15.58,16.46,34.43-.61,67.05,15.38,66.73,53.64.42,14.82-5.16,18.06-18.82,17.62-28.99-.94-58.04-.29-87.06-.29v.24Z"/>
  <path class="cls-2" d="M1527.69,1793.48c35.75-68.39,115.62-74.59,183.4-68.59,28.41,2.21,52.98,12.55,78.58,21.58,3.63,1.28,8.38,8.47,7.61,11.76-8.18,34.8-46.47,53.53-79.44,40.32-7.82-3.13-16.76-4.79-25.2-4.85-53.81-.43-107.62-.22-164.95-.22Z"/>
  <path class="cls-3" d="M1555.88,2056.19c-37.07,1.98-50.69-27.21-51.38-51.93-.75-26.95,24.62-51.52,50.39-51.73,28.38-.22,51.6,26.44,51.88,52.73.32,29.83-21.49,50.86-50.89,50.92Z"/>
  <path class="cls-3" d="M3085.38,1705.5c-31.93-.24-48.84-16.77-47.61-48.64,1.39-35.87,16.14-48.67,48.78-51.55,28.07-2.47,50.04,22.31,49.97,51.3-.06,30.34-19.71,49.13-51.14,48.89Z"/>
</svg>