<?xml version="1.0" encoding="utf-8"?>
<!-- Generator: Adobe Illustrator 27.7.0, SVG Export Plug-In . SVG Version: 6.00 Build 0)  -->
<svg version="1.1" id="Layer_1" xmlns="http://www.w3.org/2000/svg" xmlns:xlink="http://www.w3.org/1999/xlink" x="0px" y="0px"
	 viewBox="0 0 3500 3500" style="enable-background:new 0 0 3500 3500;" xml:space="preserve">
<style type="text/css">
	.st0{fill:none;stroke:#D99015;stroke-width:2;}
	.st1{fill:none;stroke:#DE9F1E;stroke-width:2;}
	.st2{fill:#D78A11;}
	.st3{fill:#DB9619;}
	.st4{fill:#E1A723;}
</style>
<g>
	<path vector-effect="non-scaling-stroke" class="st0" d="M1115.6,2683.7l39,2.5c5.4,0.4,9.5,2.9,12.4,7.5
		c9.5,15.3,21.7,23.4,36.6,24.1c4.4,0.2,7.4,2.3,9.2,6.4c3.6,8.2,9.7,11,18.4,8.4c4.9-1.4,10,1.1,12,5.8c3.7,9.2,10.4,12.5,19.9,10
		c4.3-1.2,8.8,0.9,10.6,5c4.5,10.3,12.3,13.7,23.5,10.3c3.3-1,5.5,0.1,6.5,3.4c0.4,1.6,1,3,1.9,4.4c2.7,5.1,6.9,7.7,12.6,7.8
		l55.8,1.6c5.6,0.2,8.4-2.5,8.4-8.2v-14c0-2.9,1.2-3.5,3.6-1.7c1.6,1.1,3.3,1.9,5.1,2.3c2,0.4,3.6-0.1,5-1.6
		c2.1-2.1,2.5-3.6,1.4-4.5c-4.3-2.9-3.9-5.2,1.1-6.8c9.5-3.2,16.5-1.8,21,4.2"/>
	<path vector-effect="non-scaling-stroke" class="st1" d="M1453,2346c9.4,11.1,23.4,15.7,41.8,13.8c5-0.5,8.9,1.2,11.8,5.1
		c7.6,10.4,18.3,13.5,32.2,9.5c5.4-1.7,11.3,0.6,14.5,5.4c7.1,11.1,17.8,14.4,32.4,10c5.4-1.7,11.3,0.6,14.2,5.6
		c0.9,1.7,2,3.3,3.3,4.8c3.2,3.8,7.3,5.8,12.1,5.8h100.6c3.9,0,6.8,1.8,8.7,5.3c2.1,3.7,1.6,7.4-1.6,10.9c-4.7,5.5-3.4,8.7,3.7,9.6
		l8.4,0.9"/>
	<path vector-effect="non-scaling-stroke" class="st1" d="M2210.4,1697.1c21.4-22.3,23.2-41.8,5.6-58.5c-3.5-3.3-5.3-7.4-5.3-12.3
		v-32.8c0-0.6,0-1.2,0-1.9c-1-7.9-4.1-12.4-9.3-13.7c-5.7-1.5-7.8-5-6.2-10.6c2.7-9.5-0.6-16.3-9.8-20.2c-5.3-2.2-7.2-6-5.8-11.5
		c2.5-8.9-0.5-15.2-9-19c-3.6-1.7-6-4.4-7-8.2c-0.4-1.8-0.4-3.5,0-5.3c1.2-5.5-0.2-10.2-4.2-14.2l-39-38.3c-2-1.9-3-4.1-3-6.8v-6.5
		c0-3.5-1.2-6.6-3.7-9.2l-49.3-49.8c-2-1.9-4.3-2.8-7-2.8h-7.5c-3,0-5.9-1.2-7.9-3.4l-23.5-24.1c-2.2-2.3-5.2-3.6-8.4-3.6h-7.6
		c-4.9,0-8.6-2.1-11-6.4c-11.2-19.3-26.4-27.5-45.7-24.6c-7.2,1.1-12.6-1.5-16.3-7.8c-4.4-7.5-10.9-10.2-19.8-8.2
		c-6.2,1.3-9.9-1.1-10.9-7.5c-0.3-1.9-1.2-3.3-2.8-4.4c-3.4-2.2-8.2-3.4-13.7-3.4h-47.9c-4.1,0-7.5-1.7-10.1-5
		c-1.7-2.1-2.6-4.5-2.8-7.2c-0.4-5.3,1.3-9.7,5.3-13.2c2.4-2.2,3.6-5,3.6-8.4c-0.1-7.5-2.4-8.2-6.8-2.2
		c-9.1,12.3-20.6,20.8-34.5,25.4"/>
	<path vector-effect="non-scaling-stroke" class="st0" d="M3046.4,1699.5c20.6-5.7,27.2-32.5,19.6-80.4c-0.5-2.9-2-5.4-4.4-7.5
		c-1.1-0.9-2.6-1.2-4.5-0.9c-3.1,0.4-5.9-1.6-6.3-4.6c0-0.3-0.1-0.6-0.1-0.8v-90.4c0-3.2-0.8-6.2-2.5-8.9c-1.6-2.6-3.7-4.4-6.4-5.4
		c-4-1.5-6.7-5.3-6.7-9.6v-37.6c0-3.8-1-7.4-3-10.6c-1.2-2.1-3-3.5-5.3-4.2c-4.9-1.7-7.3-5.1-7.3-10.3v-42.3c0-4.5-2.2-7.3-6.5-8.4
		c-3.3-0.8-6.1-2.7-8.4-5.8c-1.9-2.5-2.5-5.9-1.6-9c4.9-15.6,1.7-27-9.6-34.2c-5.3-3.4-7.1-8.1-5.3-14.2
		c4.1-14.5,0.7-25.4-10.4-32.7c-4.6-3-6.3-7.2-5.3-12.6c1.8-8.8-1.4-14.8-9.5-18c-5.4-2.2-8.2-8.2-6.4-13.8
		c4.9-14.9,1.4-26.1-10.4-33.6c-4.4-2.8-5.8-6.7-4.4-11.7c2.4-8.1-0.3-13.6-7.9-16.5c-6-2.3-8.4-6.6-7.2-12.9
		c1.9-9-1.2-15.4-9.3-19.1c-6.2-2.8-8.4-7.5-6.5-14.2c2.1-7.2-0.2-12.2-6.7-15.1c-4.6-2.1-7.3-5.6-8.1-10.6
		c-2.6-17.1-12.1-30.4-28.5-40c-2.8-1.6-4-3.9-3.7-7c0.1-1.7,0.3-3.4,0.5-5.1c0.5-5.5-1.2-10.2-5.3-14l-23.2-21.9
		c-2-1.9-3-4.1-3-6.8v-7.3c0-3.6-1.3-6.7-3.9-9.2l-40.4-39.8c-1.7-1.6-2.4-3.5-2.3-5.8c0-1.7,0.1-3.4,0.3-5.3
		c0.6-3.9-0.5-7.4-3.4-10.3l-221.4-221.5c-1.9-1.9-4.1-2.8-6.8-2.8h-8.1c-2.6,0-5.1-1.1-6.8-3l-38-38.7c-3.3-3.3-7.3-4.7-11.8-4
		c-7.5,0.9-12.4-0.6-14.8-4.7c-5.8-9.9-14.6-21.3-26.4-34.2"/>
	<path vector-effect="non-scaling-stroke" class="st1" d="M1449.6,1244.2c-31.2,13.2-59.1,34.3-83.5,63.3c-2.8,3.4-6.4,5.5-10.7,6.4
		c-19.7,3.6-31.3,15.5-34.8,35.6c-0.6,3.8-2.3,7.2-5.1,10l-54.8,54.4c-2.1,2.1-2.9,4.6-2.3,7.6c0.3,1.7,0.5,3.3,0.5,5
		c0,3.6-1.3,6.7-3.9,9.2l-23.3,22.7c-3.6,3.5-4.9,7.8-3.7,12.9c1.5,6.9-1.3,11.7-8.4,14.3c-7.7,2.8-11.6,11.3-8.8,19
		c0,0.1,0,0.1,0.1,0.2c4.6,12.1,2.3,21.5-6.7,28.2c-3.4,2.6-5.6,6.5-5.8,10.7l-3.6,60.4"/>
</g>
<path class="st2" d="M1115.6,2683.7l39,2.5c5.4,0.4,9.5,2.9,12.4,7.5c9.5,15.3,21.7,23.4,36.6,24.1c4.4,0.2,7.4,2.3,9.2,6.4
	c3.6,8.2,9.7,11,18.4,8.4c4.9-1.4,10,1.1,12,5.8c3.7,9.2,10.4,12.5,19.9,10c4.3-1.2,8.8,0.9,10.6,5c4.5,10.3,12.3,13.7,23.5,10.3
	c3.3-1,5.5,0.1,6.5,3.4c0.4,1.6,1,3,1.9,4.4c2.7,5.1,6.9,7.7,12.6,7.8l55.8,1.6c5.6,0.2,8.4-2.5,8.4-8.2v-14c0-2.9,1.2-3.5,3.6-1.7
	c1.6,1.1,3.3,1.9,5.1,2.3c2,0.4,3.6-0.1,5-1.6c2.1-2.1,2.5-3.6,1.4-4.5c-4.3-2.9-3.9-5.2,1.1-6.8c9.5-3.2,16.5-1.8,21,4.2
	c-98.7,97.4-197.3,195.4-295.9,294c-48.2,48.1-84.3,76.2-108.1,84.3c-96.3,32.7-152.6-10.4-219.8-77.3
	c-173.9-173.6-347.5-347.5-520.8-521.6c-164.7-165.4-256.4-360.4-275-585v-96.9c15.8-192.5,86.4-351.1,211.9-476
	c176-175.2,350.5-349.5,523.4-523.1c3.2-3.1,3.2-8.3,0.1-11.4c0,0,0,0-0.1-0.1L564,665.8c-5-5-5-10,0-15.1l293.2-293.1
	c4.7-4.6,9.3-4.6,13.8,0l292.3,292.6c5.5,5.5,5.5,11,0,16.5c-220.5,219.9-439.5,439.2-657.2,658
	c-262.3,263.5-220.3,601.4,30.5,851.7c175.3,175.1,354.4,354.2,537.3,537.4c3.3,3.4,8.7,3.4,12.1,0c0.1-0.1,0.1-0.1,0.2-0.2
	L1115.6,2683.7z"/>
<path class="st3" d="M1483.5,355.1l299.2,299.2c2.4,2.4,2.4,6.2,0,8.6l-299,299c-2.4,2.4-6.2,2.4-8.6,0L1176,662.7
	c-2.4-2.4-2.4-6.2,0-8.6l299-299C1477.3,352.8,1481.1,352.8,1483.5,355.1z"/>
<path class="st3" d="M1419.6,2750.2c-4.5-6-11.5-7.4-21-4.2c-5,1.7-5.3,3.9-1.1,6.8c1.1,0.9,0.7,2.4-1.4,4.5c-1.3,1.5-3,2-5,1.6
	c-1.9-0.4-3.6-1.2-5.1-2.3c-2.4-1.8-3.6-1.2-3.6,1.7v14c0,5.7-2.8,8.5-8.4,8.2l-55.8-1.6c-5.7-0.1-9.9-2.7-12.6-7.8
	c-0.8-1.3-1.5-2.8-1.9-4.4c-1-3.3-3.2-4.5-6.5-3.4c-11.2,3.4-19,0-23.5-10.3c-1.8-4.1-6.3-6.2-10.6-5c-9.5,2.6-16.2-0.7-19.9-10
	c-1.9-4.7-7.1-7.2-12-5.8c-8.6,2.6-14.7-0.2-18.4-8.4c-1.8-4-4.8-6.2-9.2-6.4c-14.8-0.7-27-8.8-36.6-24.1c-2.9-4.6-7.1-7.1-12.4-7.5
	l-39-2.5L1453,2346c9.4,11.1,23.4,15.7,41.8,13.8c5-0.5,8.9,1.2,11.8,5.1c7.6,10.4,18.3,13.5,32.2,9.5c5.4-1.7,11.3,0.6,14.5,5.4
	c7.1,11.1,17.8,14.4,32.4,10c5.4-1.7,11.3,0.6,14.2,5.6c0.9,1.7,2,3.3,3.3,4.8c3.2,3.8,7.3,5.8,12.1,5.8h100.6
	c3.9,0,6.8,1.8,8.7,5.3c2.1,3.7,1.6,7.4-1.6,10.9c-4.7,5.5-3.4,8.7,3.7,9.6l8.4,0.9c-3.1,1.7-5.2,3.7-6.4,6.1
	c-1.5,3.2-0.9,6.1,1.7,8.6l267.9,268c2.2,2.1,5.8,2.1,7.9-0.1c0,0,0,0,0,0c102.9-103.9,212.9-213.5,329.9-328.8
	c48.9-48.1,82.4-90.8,100.3-128.2c49.6-103,49.3-206.4-0.8-310.2c-16.1-33.2-50.9-76.4-104.4-129.7c-40.3-40.1-80.7-80.5-121-121.2
	c21.4-22.3,23.2-41.8,5.6-58.5c-3.5-3.3-5.3-7.4-5.3-12.3v-32.8c0-0.6,0-1.2,0-1.9c-1-7.9-4.1-12.4-9.3-13.7
	c-5.7-1.5-7.8-5-6.2-10.6c2.7-9.5-0.6-16.3-9.8-20.2c-5.3-2.2-7.2-6-5.8-11.5c2.5-8.9-0.5-15.2-9-19c-3.6-1.7-6-4.4-7-8.2
	c-0.4-1.8-0.4-3.5,0-5.3c1.2-5.5-0.2-10.2-4.2-14.2l-39-38.3c-2-1.9-3-4.1-3-6.8v-6.5c0-3.5-1.2-6.6-3.7-9.2l-49.3-49.8
	c-2-1.9-4.3-2.8-7-2.8h-7.5c-3,0-5.9-1.2-7.9-3.4l-23.5-24.1c-2.2-2.3-5.2-3.6-8.4-3.6h-7.6c-4.9,0-8.6-2.1-11-6.4
	c-11.2-19.3-26.4-27.5-45.7-24.6c-7.2,1.1-12.6-1.5-16.3-7.8c-4.4-7.5-10.9-10.2-19.8-8.2c-6.2,1.3-9.9-1.1-10.9-7.5
	c-0.3-1.9-1.2-3.3-2.8-4.4c-3.4-2.2-8.2-3.4-13.7-3.4h-47.9c-4.1,0-7.5-1.7-10.1-5c-1.7-2.1-2.6-4.5-2.8-7.2
	c-0.4-5.3,1.3-9.7,5.3-13.2c2.4-2.2,3.6-5,3.6-8.4c-0.1-7.5-2.4-8.2-6.8-2.2c-9.1,12.3-20.6,20.8-34.5,25.4l299.9-301
	c3.4-3.3,3.4-6.6,0-10l-295.1-295.4c-4.5-4.5-4.5-9,0-13.5l294.5-294.2c4.5-4.5,9-4.5,13.5,0L2397.1,653c2.9,2.9,2.9,7.6,0,10.6
	c0,0,0,0,0,0l-297.4,297.3c-3.2,3.2-3.2,6.5,0,9.8c162.5,164.9,330.9,332.8,505.1,503.8c97.1,95.3,159.9,169.7,188.5,223.2
	c127.1,238.9,84.5,515.2-107.3,707c-213.5,213.5-441.7,441.8-684.6,684.8c-52.3,52.4-142.5,65-204.2,27.5
	c-20.6-12.4-49.4-37.2-86.3-74.2C1615.9,2948.1,1518.8,2850.5,1419.6,2750.2z"/>
<path class="st2" d="M3500,1783.5v104.7c-28.2,300.8-182.5,555.8-392.6,770.5c-136,138.8-279,282-429,429.8
	c-60.9,59.8-124,73.5-189.5,40.9c-43.6-21.8-74.2-62.5-110.4-94.4c-5.3-4.8-5.4-9.6-0.5-14.6c154.8-153.9,305.8-305,452.8-453.3
	c130.9-132.1,214.7-275.7,251.5-430.9c34.4-145.2,22.5-290.7-35.9-436.6c20.6-5.7,27.2-32.5,19.6-80.4c-0.5-2.9-2-5.4-4.4-7.5
	c-1.1-0.9-2.6-1.2-4.5-0.9c-3.1,0.4-5.9-1.6-6.3-4.6c0-0.3-0.1-0.6-0.1-0.8v-90.4c0-3.2-0.8-6.2-2.5-8.9c-1.6-2.6-3.7-4.4-6.4-5.4
	c-4-1.5-6.7-5.3-6.7-9.6v-37.6c0-3.8-1-7.4-3-10.6c-1.2-2.1-3-3.5-5.3-4.2c-4.9-1.7-7.3-5.1-7.3-10.3v-42.3c0-4.5-2.2-7.3-6.5-8.4
	c-3.3-0.8-6.1-2.7-8.4-5.8c-1.9-2.5-2.5-5.9-1.6-9c4.9-15.6,1.7-27-9.6-34.2c-5.3-3.4-7.1-8.1-5.3-14.2c4.1-14.5,0.7-25.4-10.4-32.7
	c-4.6-3-6.3-7.2-5.3-12.6c1.8-8.8-1.4-14.8-9.5-18c-5.4-2.2-8.2-8.2-6.4-13.8c4.9-14.9,1.4-26.1-10.4-33.6
	c-4.4-2.8-5.8-6.7-4.4-11.7c2.4-8.1-0.3-13.6-7.9-16.5c-6-2.3-8.4-6.6-7.2-12.9c1.9-9-1.2-15.4-9.3-19.1c-6.2-2.8-8.4-7.5-6.5-14.2
	c2.1-7.2-0.2-12.2-6.7-15.1c-4.6-2.1-7.3-5.6-8.1-10.6c-2.6-17.1-12.1-30.4-28.5-40c-2.8-1.6-4-3.9-3.7-7c0.1-1.7,0.3-3.4,0.5-5.1
	c0.5-5.5-1.2-10.2-5.3-14l-23.2-21.9c-2-1.9-3-4.1-3-6.8v-7.3c0-3.6-1.3-6.7-3.9-9.2l-40.4-39.8c-1.7-1.6-2.4-3.5-2.3-5.8
	c0-1.7,0.1-3.4,0.3-5.3c0.6-3.9-0.5-7.4-3.4-10.3l-221.4-221.5c-1.9-1.9-4.1-2.8-6.8-2.8h-8.1c-2.6,0-5.1-1.1-6.8-3l-38-38.7
	c-3.3-3.3-7.3-4.7-11.8-4c-7.5,0.9-12.4-0.6-14.8-4.7c-5.8-9.9-14.6-21.3-26.4-34.2L2708.4,355c1.4-1.6,4-1.7,5.6-0.1
	c0.1,0,0.1,0.1,0.2,0.1l72,72.3c0.8,0.8,0.8,1.7-0.2,2.5c-54.3,44-78.3,91.1-72,141.2c9,70.1,42.5,134,100.5,191.8
	c127,126.2,249.8,249.3,368.2,369.3C3360.2,1312.1,3477.4,1529.3,3500,1783.5z"/>
<path class="st3" d="M2449.1,622.1c11.8,13,20.6,24.4,26.4,34.2c2.4,4,7.3,5.6,14.8,4.7c4.6-0.6,8.5,0.7,11.8,4l38,38.7
	c1.8,1.9,4.3,3,6.8,3h8.1c2.7,0,5,0.9,6.8,2.8L2783.2,931c2.9,2.9,4,6.3,3.4,10.3c-0.2,1.9-0.3,3.6-0.3,5.3
	c-0.1,2.3,0.7,4.2,2.3,5.8l40.4,39.8c2.6,2.5,3.9,5.5,3.9,9.2v7.3c0,2.7,1,5,3,6.8l23.2,21.9c4,3.8,5.8,8.5,5.3,14
	c-0.2,1.8-0.4,3.5-0.5,5.1c-0.3,3.1,0.9,5.4,3.7,7c16.4,9.5,25.9,22.9,28.5,40c0.8,5,3.5,8.5,8.1,10.6c6.5,2.9,8.8,7.9,6.7,15.1
	c-1.9,6.6,0.3,11.4,6.5,14.2c8.1,3.7,11.2,10.1,9.3,19.1c-1.2,6.3,1.1,10.6,7.2,12.9c7.7,2.9,10.3,8.4,7.9,16.5
	c-1.5,5,0,8.9,4.4,11.7c11.8,7.5,15.3,18.7,10.4,33.6c-1.8,5.6,1,11.7,6.4,13.8c8.1,3.2,11.3,9.2,9.5,18c-1,5.4,0.7,9.6,5.3,12.6
	c11.1,7.3,14.6,18.1,10.4,32.7c-1.8,6,0,10.7,5.3,14.2c11.3,7.3,14.5,18.7,9.6,34.2c-1,3.1-0.4,6.5,1.6,9c2.3,3,5.1,4.9,8.4,5.8
	c4.4,1.1,6.5,3.9,6.5,8.4v42.3c0,5.2,2.4,8.6,7.3,10.3c2.3,0.7,4,2.1,5.3,4.2c2,3.2,3,6.7,3,10.6v37.6c0,4.3,2.7,8.1,6.7,9.6
	c2.7,1,4.8,2.9,6.4,5.4c1.7,2.7,2.5,5.7,2.5,8.9v90.4c0,3,2.4,5.5,5.5,5.5c0.3,0,0.6,0,0.9-0.1c1.9-0.3,3.4,0,4.5,0.9
	c2.4,2.1,3.8,4.6,4.4,7.5c7.6,47.9,1,74.7-19.6,80.4c-44.5-103.2-97.2-185.4-158.2-246.7c-118.4-119.1-235.8-238.9-352-359.5
	c-77.2-80.1-122-169.2-134.6-267.6C2393.5,762.4,2409.3,694.6,2449.1,622.1z"/>
<path class="st3" d="M1449.6,1244.2c-31.2,13.2-59.1,34.3-83.5,63.3c-2.8,3.4-6.4,5.5-10.7,6.4c-19.7,3.6-31.3,15.5-34.8,35.6
	c-0.6,3.8-2.3,7.2-5.1,10l-54.8,54.4c-2.1,2.1-2.9,4.6-2.3,7.6c0.3,1.7,0.5,3.3,0.5,5c0,3.6-1.3,6.7-3.9,9.2l-23.3,22.7
	c-3.6,3.5-4.9,7.8-3.7,12.9c1.5,6.9-1.3,11.7-8.4,14.3c-7.7,2.8-11.6,11.3-8.8,19c0,0.1,0,0.1,0.1,0.2c4.6,12.1,2.3,21.5-6.7,28.2
	c-3.4,2.6-5.6,6.5-5.8,10.7l-3.6,60.4L1040,1450.3c-4.3-4.3-8.7-4.4-13.2-0.3c-64.2,59.3-155.7,135-64.9,227.7
	c96.2,98.3,193.7,195.9,292.4,292.9c89.8,88.4,56.6,211.6-24.7,291.5c-50,49.2-97.6,96.8-143,142.8c-4.3,4.4-8.5,4.4-12.8,0.2
	c-143.6-141.1-284-282.2-421.2-423.3c-106.4-109.4-138.9-259-78.6-387.5c20.4-43.5,66.9-100.7,139.5-171.7
	c147.2-144.1,297.4-294.1,450.6-449.7c4-4,8.1-4,12.1,0L1449.6,1244.2z"/>
<path class="st4" d="M2210.4,1697.1l-248.1-247.8c-3.9-3.9-7.9-4-12-0.2c-63.5,58.6-157.3,138.4-66.6,229.3
	c99.8,99.8,193.8,193.6,282.2,281.4c55.5,55.1,89,116.5,62.7,197.2c-11,33.6-40.7,73.1-89.1,118.5c-47.6,44.8-90.8,88.1-129.7,129.9
	c-4.4,4.8-8.9,4.9-13.5,0.3l-110.4-110.6c-4.1-4.3-8.3-4.3-12.6-0.2l-138,137.7l-8.4-0.9c-7.2-0.9-8.4-4.1-3.7-9.6
	c3.1-3.5,3.6-7.2,1.6-10.9c-1.9-3.5-4.8-5.3-8.7-5.3h-100.6c-4.9,0-8.9-1.9-12.1-5.8c-1.2-1.6-2.3-3.2-3.3-4.8
	c-2.8-5-8.7-7.3-14.2-5.6c-14.5,4.5-25.3,1.1-32.4-10c-3.1-4.9-9-7.1-14.5-5.4c-13.9,4-24.6,0.9-32.2-9.5c-2.9-3.9-6.8-5.7-11.8-5.1
	c-18.5,1.9-32.4-2.7-41.8-13.8c74.7-81.4,106.5-174.8,95.5-280.2c-7.8-75.3-39.9-142-96.3-200.2c-86.5-89.1-172.4-176.3-257.6-261.6
	l3.6-60.4c0.2-4.2,2.3-8.2,5.8-10.7c9-6.6,11.3-16,6.7-28.2c-2.9-7.6,0.9-16.2,8.5-19.1c0.1,0,0.1,0,0.2-0.1
	c7.1-2.6,9.9-7.4,8.4-14.3c-1.1-5.1,0.1-9.4,3.7-12.9l23.3-22.7c2.6-2.5,3.9-5.5,3.9-9.2c0-1.7-0.2-3.3-0.5-5
	c-0.5-3,0.3-5.5,2.3-7.6l54.8-54.4c2.8-2.8,4.5-6.1,5.1-10c3.5-20.1,15.1-32,34.8-35.6c4.4-0.8,7.9-3,10.7-6.4
	c24.5-29,52.3-50.1,83.5-63.3l178.3,176.4c3.7,3.7,7.4,3.7,11,0l150-148.9c13.9-4.6,25.4-13,34.5-25.4c4.5-6,6.7-5.3,6.8,2.2
	c0,3.4-1.2,6.2-3.6,8.4c-3.9,3.5-5.7,7.9-5.3,13.2c0.2,2.7,1.1,5.1,2.8,7.2c2.6,3.3,6,5,10.1,5h47.9c5.5,0,10.2,1.2,13.7,3.4
	c1.6,1,2.5,2.5,2.8,4.4c1,6.3,4.7,8.8,10.9,7.5c8.8-2,15.4,0.8,19.8,8.2c3.7,6.3,9.2,8.9,16.3,7.8c19.3-2.9,34.5,5.3,45.7,24.6
	c2.5,4.3,6.2,6.4,11,6.4h7.6c3.2,0,6.2,1.3,8.4,3.6l23.5,24.1c2.1,2.2,4.9,3.4,7.9,3.4h7.5c2.7,0,5,0.9,7,2.8l49.3,49.8
	c2.5,2.6,3.7,5.7,3.7,9.2v6.5c0,2.7,1,5,3,6.8l39,38.3c4,3.9,5.4,8.7,4.2,14.2c-0.4,1.8-0.4,3.5,0,5.3c1,3.8,3.4,6.6,7,8.2
	c8.5,3.7,11.5,10.1,9,19c-1.5,5.5,0.5,9.3,5.8,11.5c9.2,3.9,12.5,10.7,9.8,20.2c-1.6,5.6,0.5,9.1,6.2,10.6c5.2,1.2,8.3,5.8,9.3,13.7
	c0,0.6,0,1.2,0,1.9v32.8c0,4.9,1.8,9,5.3,12.3C2233.7,1655.3,2231.8,1674.8,2210.4,1697.1z"/>
</svg>
