<?xml version="1.0" encoding="utf-8"?>
<!-- Generator: Adobe Illustrator 27.7.0, SVG Export Plug-In . SVG Version: 6.00 Build 0)  -->
<svg version="1.1" id="Layer_1" xmlns="http://www.w3.org/2000/svg" xmlns:xlink="http://www.w3.org/1999/xlink" x="0px" y="0px"
	 viewBox="0 0 3500 3500" style="enable-background:new 0 0 3500 3500;" xml:space="preserve">
<style type="text/css">
	.st0{fill-rule:evenodd;clip-rule:evenodd;fill:#CC0102;}
</style>
<path id="path3041" class="st0" d="M2586.6,1881.5c0,61.7-76.8,58.1-76.8,58.1h-76.8V1828h76.8
	C2588.8,1827.4,2586.6,1881.5,2586.6,1881.5 M2432.9,1657.8h58.6c60.8,3.2,58.5,48.5,58.5,48.5c0,56.2-67.2,57.2-67.2,57.2h-49.8
	V1657.8L2432.9,1657.8z M2572.4,1785.4c0,0,52.6-22.4,52.1-81.8c0,0,8-97.4-121.1-109.3h-143.2v408.4h164.2
	c0,0,137.2,0.4,137.2-115.2C2661.5,1887.4,2664.7,1808.7,2572.4,1785.4 M2201.7,1514.2h603v568.2h-603V1514.2z M1891.2,1881.5
	c0,61.7-76.8,58.1-76.8,58.1h-76.8V1828h76.8C1893.5,1827.4,1891.2,1881.5,1891.2,1881.5 M1737.6,1657.8h58.6
	c60.8,3.2,58.5,48.5,58.5,48.5c0,56.2-67.2,57.2-67.2,57.2h-49.8L1737.6,1657.8L1737.6,1657.8z M1877,1785.4
	c0,0,52.6-22.4,52.1-81.8c0,0,8-97.4-121.1-109.3h-143.2v408.4H1829c0,0,137.2,0.4,137.2-115.2
	C1966.2,1887.4,1969.4,1808.7,1877,1785.4 M1506.4,1514.2h603v568.2h-603L1506.4,1514.2L1506.4,1514.2L1506.4,1514.2z M3377,1623.5
	v75.4c0,0-73.6-45.3-155-46.2c0,0-151.8-3-158.7,145.5c0,0-5.5,136.6,156.9,144.4c0,0,68.1,8.2,160.5-50.7v78.1
	c0,0-123.9,73.6-267.5,16.9c0,0-120.7-44.1-125.3-188.7c0,0-5-148.8,156-198.1c0,0,43-16.5,120.2-9.1
	C3264,1591.1,3310.2,1595.7,3377,1623.5 M2897,2082.4h603v-568.2h-603V2082.4z"/>
<g id="g3192">
	<polygon id="polygon24" class="st0" points="1313.6,1478.4 1270.3,1555.1 1211.8,1500.3 1258.4,1417.6 1258.4,1417.6 	"/>
	<path id="path26" class="st0" d="M862.6,1641.5c36.3,72.9,65.5,154.5,56.5,237.2c-9.1,83.1-76.4,148.7-151.1,179l-73-44
		c62.8-41,145.6-77.9,162.8-158.5c11.4-53.3-21.8-98.9-47.4-143.3c-2.9-5-8.9-13.9-11.5-18.9L862.6,1641.5L862.6,1641.5
		L862.6,1641.5L862.6,1641.5z"/>
	<path id="path28" class="st0" d="M461.5,1655.4c0.2,25.2,3,46.8,6.4,69.8c3,20.2,10.3,33.5,33.9,34.1c29.9,0.7,31.4-21.3,34.5-44.7
		c1.9-14.7,2.7-29.6,3.1-43.8l58.2-12.4c0.5,22.9-1.6,56.5,8.7,79.1c5.3,11.7,17.3,23.3,30.8,23.4c13.7,0.1,24.7-10.4,29-22.7
		c6.9-19.9,5.7-52.2,5-68.6l61.7-13.8c2.3,38.5,4.2,87.5-10.4,126.6c-12.3,33.1-37,60.1-74.7,60.1c-22.8,0-55.9-9.6-73.5-24.9
		c-9.8,6.6-30.6,24.6-66.7,24.6s-58.6-14.4-74.4-26.5c-49,36-111.3,20.2-165.8,33.2c-13.5,3.2-19.6,5.8-18,19.4
		c0.4,3.3,15.9,8.6,19.6,9.8c25.5,8.4,55.2,6.1,79.4,20c21.8,12.6,23.3,38.3,17.5,58.8c-9.9,35.1-37.2,62.3-70.1,78.4
		c-37.4,18.4-80.5,19.5-121.3,19.5c-31.6,0-68.9,0.8-98.6-12.4c-35.7-15.9-63-50.2-70.6-88.6c-13.4-67.1,0.3-137.5,29.2-199
		l50.8,16.5c-6,19.2-15.7,44.3-20.8,70.9c-6.5,33.4-5.4,76.8,20.9,102.3c22.6,21.9,58.1,29.9,88.9,31.2
		c35.6,1.6,77.4-1.7,106.5-23.8c4.8-3.6,20.1-15.2,19.7-21.2c-0.2-3.4-5.7-2.8-9.8-3c-4.5-0.2-9.3-0.3-13.9-0.9
		c-29.7-4.2-60.9-8.2-80.4-32.9c-19.2-45.7,2.6-106.4,50.1-125.8c44.6-18.2,98.3,2.9,140.6-17.6c2.3-1.1,8.9-3.9,10.3-6
		c5.8-8.2,5.6-56.7,7.4-72.8L461.5,1655.4L461.5,1655.4L461.5,1655.4z"/>
	<path id="path30" class="st0" d="M1070.1,1428.7c-0.6,132.6-3.3,265.2-0.3,397.6c0.5,20.8,0.4,47.3,6.6,67.4
		c8.1,25.9,30.9,29.7,118.1,29.7c30.8,0,80.2,2.8,106.4-19.7c12.5-10.7,20.2-26.5,19.4-42.9c-32.4,7.9-87.8,25.8-110.4-10.8
		c-44.8-72.5-22.6-184,29.7-245.9c34.4-34.3,91.5-10.3,113.2,27.5c34.5,60.6,36.1,132.1,35.3,199.8c-0.6,50-1.3,84.2-33,121.3
		c-19.4,22.8-45.8,39.8-74.5,47.7c-26,7.1-65.4,6.7-115.6,6.7s-72,0.7-94-6.8c-37.1-12.8-66.4-47.3-67.3-87.3
		c-2.5-105.9-3.4-212.1-3.2-318c0-24.4-2.5-49-3.2-73.5c-0.5-17.8-1.4-33.8-2.8-49.2L1070.1,1428.7L1070.1,1428.7L1070.1,1428.7
		L1070.1,1428.7z M1264.5,1687.1c-22.4,21.4-31.8,63.1-14,91.3c8.9,14.1,47.1,7.9,63.5-0.7c2.6-23.4-1-48-6.3-71.2
		C1303.2,1686.7,1278.6,1673.6,1264.5,1687.1L1264.5,1687.1L1264.5,1687.1z"/>
</g>
</svg>
