<?xml version="1.0" encoding="utf-8"?>
<!-- Generator: Adobe Illustrator 27.7.0, SVG Export Plug-In . SVG Version: 6.00 Build 0)  -->
<svg version="1.1" id="Layer_1" xmlns="http://www.w3.org/2000/svg" xmlns:xlink="http://www.w3.org/1999/xlink" x="0px" y="0px"
	 viewBox="0 0 3500 3500" style="enable-background:new 0 0 3500 3500;" xml:space="preserve">
<style type="text/css">
	.st0{fill:url(#SVGID_1_);}
	.st1{fill:#0A85F4;}
	.st2{fill:#FFFFFF;}
</style>
<linearGradient id="SVGID_1_" gradientUnits="userSpaceOnUse" x1="1749.5099" y1="-1845.7001" x2="1749.5099" y2="-893.5328" gradientTransform="matrix(1 0 0 -1 0 0)">
	<stop  offset="0.2" style="stop-color:#0A8FF4"/>
	<stop  offset="0.9" style="stop-color:#67CEF4"/>
</linearGradient>
<path class="st0" d="M751.1,1160.8h-23.5c-117.1,0-234.2,0-351.3,0c-5,0-10,0.2-15,0c-19.1-0.9-28.4-10.2-29.1-29.3
	c-1-29.9,4.7-58.8,15.9-86.2c38.4-93.4,125.3-151.3,226.2-151.4c135.9-0.1,271.8-0.1,407.7,0.2c8.4,0,17.7,1.3,25.1,4.9
	c10.4,5.1,13.4,15.4,13.2,27c-0.4,30.7-0.1,61.4-0.1,92.1c0,120.9,0.6,241.7-0.2,362.6c-0.6,91.2-41,161-118.5,208.7
	c-40,24.6-84.7,32.9-131.2,32.9c-149,0-298.1,0-447.1,0h-26.3c-0.6,8.9-1.6,16.2-1.6,23.3c-0.1,55.1,0,110.2-0.2,165.3
	c0,7.3-1,15.2-4,21.7c-5.6,11.8-17,13.1-28.9,13.1c-50.1-0.2-100.2,0-150.3,0s-50.1,0-75.1,0c-26.6-0.1-34.9-8.2-34.9-34.7
	c-0.1-90.8,0-181.6,0-272.4s-0.3-102.7,0-154.1c0.9-121.2,95-223.7,215.6-234.7c15.5-1.4,31.2-2.6,46.8-2.2
	c21,0.6,30.7,10.9,30.8,32c0.3,49.5,0.1,99,0.1,148.4c0,4.4-0.2,8.8,0,13.1c0.8,13.1,2.1,14.4,15.9,15.2c2.5,0.1,5,0,7.5,0
	c105.8,0,211.7,0.2,317.5,0c33.1,0,63.1-9,86.5-34.2c17.6-18.9,29.5-41,30.8-66.8c1.4-28.1,0.4-56.3,0.3-84.5
	C753.7,1168.5,752.6,1166.1,751.1,1160.8L751.1,1160.8z M1607.3,1162c-9.7-0.5-16.5-1.1-23.2-1.2c-40.1,0-80.2-1-120.2,0.3
	c-27.7,0.9-38.9-15.8-36.5-38c4.1-38.9,12.7-76.1,33.3-110.4c37.1-61.5,90.9-98.8,160.4-113.7c16.4-3.5,33.5-5,50.2-5
	c231.7-0.3,463.4-0.2,695.1-0.2c6.9,0,14-0.4,20.5,1.4c11.3,3.2,17.2,12.1,19,23.4c0.8,4.9,0.5,10,0.5,15c0,148.4,0,296.8,0,445.2
	c0,68.5-23.4,127.6-72.7,175.3c-39.9,38.6-87.4,62.1-143.7,65.6c-13.1,0.8-26.2,2.4-39.3,2.3c-28.7,0-36.8-8.4-36.8-36.9
	c0-130.3,0-260.5,0-390.8s0-7.5,0-11.3c-0.1-22.2-0.1-22.4-21.5-22.4c-56.4,0-112.7,0-169.1,0c-23,0-23.3,0.3-23.3,23
	c0,128.4,0,256.7,0,385.1s0,10,0,15c-0.1,31.5-6.7,38.1-38.9,38.3c-54.5,0.2-109,0-163.4,0s-35.1,0.3-52.6,0
	c-29.5-0.6-37.7-9-37.7-38.7c0-131.5,0-263,0-394.5c0-8,0-16.1,0-26.9L1607.3,1162z M2884.9,1622.3c-120.8,0-241.6,0-362.4,0
	c-40.1,0-47.1-7-47.1-46.8c0-61.3-0.7-122.7,0.2-184c0.8-55.9,16.4-107.3,51.9-151.5c42.8-53.5,98.2-84,166.5-90.3
	c14.9-1.4,30-2.6,44.9-1.9c20.6,0.9,29,10.2,29.2,31c0.3,50.1,0,100.1,0.1,150.2c0,5,0,10,0.2,15c0.2,8.5,4.8,12.4,13.1,12.4
	c5.6,0,11.3,0,16.9,0c217.8,0,435.6,0,653.4,0c5.6,0,11.3-0.2,16.9,0c20.2,0.9,28,8.9,28.5,29c2.1,92.6-58,181.2-147.2,218.5
	c-33.7,14.1-68.8,18.1-104.6,18.2c-120.2,0.3-240.3,0.1-360.5,0.1L2884.9,1622.3z M3103.1,1160.9h-257.2c-5,0-10,0.2-15-0.1
	c-18.4-1.2-29-11.5-28.6-30.2c0.6-30.8,5.6-61.3,18.6-89.4c44.7-96.3,121-145.7,226.8-147c105.1-1.3,210.2-0.3,315.4-0.3
	s8.8-0.2,13.1,0.1c18.3,1.3,28.8,11.5,29.5,29.8c0.6,15.6,0.2,31.3,0.2,46.9c0,51.3,0,102.6,0,153.9c0,26.6-9.5,36.1-36.2,36.1
	c-88.9,0.1-177.7,0-266.6,0V1160.9z M1396,1382.5c0,65.1,0,130.1,0,195.1c0,5,0.2,10-0.1,15c-1,17.9-9,26.2-27,26.7
	c-17.5,0.5-35,0.2-52.5,0.2c-59.4,0-118.8,0-178.3,0c-26.1,0-34.7-8.6-34.7-34.9c0-66.9-0.2-133.8,0-200.8
	c0.5-113.2,82.5-212.4,193.7-232.9c22.5-4.2,46-4,69-4.4c21.2-0.3,29.6,8.5,29.8,29.6c0.3,36.9,0,73.8,0,110.7
	C1395.9,1318.7,1395.9,1350.6,1396,1382.5L1396,1382.5z"/>
<path class="st1" d="M332.9,1940.7h2834.2c183.9,0,332.9,149,332.9,332.9v0c0,183.9-149,332.9-332.9,332.9H332.9
	C149,2606.5,0,2457.5,0,2273.6v0C0,2089.7,149,1940.7,332.9,1940.7z"/>
<g>
	<path class="st2" d="M415.6,2043.5H619c56.4,0,99.6,15,129.7,45.1c25.4,25.4,38.1,59.3,38.1,101.7v1.3c0,36-8.8,65.4-26.4,88
		c-17.6,22.7-40.6,39.3-69,49.9l108.7,158.9H685.7L590.4,2346h-76.9v142.4h-97.9L415.6,2043.5L415.6,2043.5z M612.6,2259.7
		c24.2,0,42.7-5.7,55.6-17.2c12.9-11.4,19.4-26.7,19.4-45.8v-1.3c0-21.2-6.8-37.1-20.3-47.7c-13.6-10.6-32.4-15.9-56.6-15.9h-97.2
		v127.8h99.2L612.6,2259.7z"/>
	<path class="st2" d="M1091.2,2496.1c-34.3,0-65.9-6-94.7-18.1s-53.7-28.4-74.7-48.9s-37.3-44.7-48.9-72.5
		c-11.7-27.7-17.5-57.5-17.5-89.3v-1.3c0-31.8,5.9-61.5,17.8-89.3c11.9-27.7,28.3-52.1,49.3-73.1s46-37.5,75-49.6
		c29-12.1,60.7-18.1,95-18.1s65.9,6,94.7,18.1c28.8,12.1,53.7,28.4,74.7,48.9c21,20.6,37.3,44.7,48.9,72.5s17.5,57.5,17.5,89.3v1.3
		c0,31.8-5.9,61.6-17.8,89.3c-11.9,27.8-28.3,52.1-49.3,73.1s-46,37.5-75,49.6S1125.5,2496.1,1091.2,2496.1L1091.2,2496.1z
		 M1092.5,2405.8c19.5,0,37.5-3.6,54-10.8s30.6-17.2,42.3-29.9c11.6-12.7,20.8-27.4,27.3-44.2c6.6-16.7,9.9-34.6,9.9-53.7v-1.3
		c0-19.1-3.3-37.1-9.9-54s-15.9-31.8-28-44.5s-26.4-22.8-42.9-30.2s-34.5-11.1-54-11.1s-38,3.6-54.3,10.8
		c-16.3,7.2-30.3,17.2-42,29.9s-20.8,27.4-27.3,44.2c-6.6,16.7-9.9,34.6-9.9,53.7v1.3c0,19.1,3.3,37.1,9.9,54
		c6.6,17,15.9,31.8,28,44.5s26.3,22.8,42.6,30.2S1072.6,2405.8,1092.5,2405.8L1092.5,2405.8z"/>
	<path class="st2" d="M1540.6,2313l-171-269.5H1484l106.1,178.6l108.1-178.6h111.2l-171,267.6v177.3h-97.9V2313L1540.6,2313z"/>
	<path class="st2" d="M2023,2040.4h90.3l190.7,448.1h-102.3l-40.7-99.8h-188.1l-40.7,99.8h-99.8L2023,2040.4L2023,2040.4z
		 M2126,2302.2l-59.1-144.3l-59.1,144.3H2126z"/>
	<path class="st2" d="M2372.6,2043.5h97.9v356.6h221.8v88.4h-319.7V2043.5L2372.6,2043.5z"/>
	<path class="st2" d="M2766.1,2043.5h335v87.1h-238.4v90.3h209.8v87.1h-209.8v93.4h241.5v87.1h-338.1v-444.9V2043.5z"/>
</g>
</svg>
