<?xml version="1.0" encoding="utf-8"?>
<!-- Generator: Adobe Illustrator 27.7.0, SVG Export Plug-In . SVG Version: 6.00 Build 0)  -->
<svg version="1.1" id="Layer_1" xmlns="http://www.w3.org/2000/svg" xmlns:xlink="http://www.w3.org/1999/xlink" x="0px" y="0px"
	 viewBox="0 0 3500 3500" style="enable-background:new 0 0 3500 3500;" xml:space="preserve">
<style type="text/css">
	.st0{fill:url(#SVGID_1_);}
	.st1{fill:url(#SVGID_00000114064923413325517250000008131074600303474611_);}
</style>
<linearGradient id="SVGID_1_" gradientUnits="userSpaceOnUse" x1="1750" y1="-3500" x2="1750" y2="0" gradientTransform="matrix(1 0 0 -1 0 0)">
	<stop  offset="0" style="stop-color:#3C0A85"/>
	<stop  offset="1" style="stop-color:#275EAE"/>
</linearGradient>
<rect class="st0" width="3500" height="3500"/>
<linearGradient id="SVGID_00000170979853047527720720000001297081957863382192_" gradientUnits="userSpaceOnUse" x1="881.9918" y1="-3168.9065" x2="2561.0188" y2="-260.7597" gradientTransform="matrix(1 0 0 -1 0 0)">
	<stop  offset="0" style="stop-color:#F3E065"/>
	<stop  offset="0.2" style="stop-color:#C08F3D"/>
	<stop  offset="0.4" style="stop-color:#FFD600"/>
	<stop  offset="0.5" style="stop-color:#9C6F3A"/>
	<stop  offset="0.6" style="stop-color:#FFD600"/>
	<stop  offset="0.7" style="stop-color:#E4AB4C"/>
	<stop  offset="0.8" style="stop-color:#A16F33"/>
	<stop  offset="1" style="stop-color:#F3DC62"/>
</linearGradient>
<path style="fill:url(#SVGID_00000170979853047527720720000001297081957863382192_);" d="M396.8,507c12-0.2,20.5-0.5,29-0.5
	c123.6,0,247.2-0.3,370.8-0.1c128,0.2,256.1,0.5,384.1,1.2c43.5,0.2,87,1,130.5,2.7c66.8,2.7,126.5,25.8,180.1,65.4
	c75.8,56,120.5,132.7,145.6,221.5c14.2,50.4,13.9,101.6,4.6,153.6c-8.4,46.9-20.5,92.2-40.5,135.3c-35.4,76.2-89.2,135.2-165,172.9
	c-31.8,15.8-65.4,26.4-100.6,31.5c-27.3,4-54.8,6.9-84.8,10.6c5,5.8,9.5,11.4,14.4,16.5c54.6,56.7,109.2,113.4,163.9,170
	c29.8,30.8,59.8,61.4,89.8,92c6.9,7,11.7,14.3,11.6,24.8c-0.3,46-0.2,92.1-0.4,138.1c0,2.4-1,4.8-2,9.2c-4.5-2.8-8.4-4.4-11.1-7.1
	c-87.6-91.5-175.2-183-262.6-274.7c-56.5-59.2-112.8-118.7-169.4-177.9c-30.5-31.9-61.5-63.3-92.1-94.9c-2.5-2.6-4.5-5.6-8.6-10.8
	c6.9-1,11.5-2.3,16-2.3c60.5,0.3,121.1,0.9,181.6,1.2c37.8,0.2,75.6-0.7,112.9-8.3c114.8-23.3,194.4-87.7,228-201.2
	c22.3-75.4,14.8-150.1-24-219.6c-26.1-46.7-65.7-79-114.6-100.3c-48.6-21.1-99.3-32.2-152.3-32.3c-129.9-0.1-259.7,0-389.6,0
	c-92.1,0-184.2,0-276.2-0.2c-15.1,0-30.2-0.9-45.4-1.3c-8.5-0.2-15.8-2.7-22-9.1c-31.9-32.3-64-64.4-95.9-96.6
	C401.3,515,400.6,513.2,396.8,507L396.8,507z M1646.1,516.2c32.4,32.7,64.8,65.2,97.3,97.8c6.2,6.2,13.5,8,22.3,7.9
	c98.4-0.6,196.7-0.7,295.1-1.1c30.1-0.1,28.3-0.8,28.2,27.4c-0.3,150.6-0.8,301.2-1,451.8c-0.1,134.9,0.2,269.9,0.2,404.8
	c0,152-0.2,303.9-0.9,455.9c0,11.6,4.9,19.2,12.1,26.4c30.7,30.8,61.5,61.5,92.4,92.1c2.3,2.2,5.7,3.3,11.7,6.6
	c0-11.7,0-20.4,0-29.1c0-114.8-0.2-229.5-0.3-344.3c-0.3-245.9-0.6-491.8-0.9-737.7c-0.2-146.9-0.2-293.8-0.4-440.7
	c0-7.9-0.9-15.8-1.5-24.5c-186.6,1.2-370.9-5.6-556.2,0.2C1645.1,512.9,1645,515.1,1646.1,516.2L1646.1,516.2z M2429.4,509.9
	c-5.9,4.6-12.5,8.6-17.7,13.9c-27.1,27.3-53.4,55.3-81.1,82c-10.9,10.6-15.2,21.7-15.2,36.6c-0.4,198-1.5,396-1.8,594
	c-0.4,305.2-0.3,610.5-0.4,915.7c0,5.7-0.9,11.6,0.5,17c1.6,6.3,3.9,13.5,8.3,18c26.3,27.1,53.3,53.6,80.2,80.2
	c7.3,7.3,15,14.2,22.6,21.3c1.3-0.6,2.6-1.2,3.8-1.8c0.2-6,0.6-12,0.6-18.1c-0.9-347.5-2.1-695-2.6-1042.4
	c-0.3-223.3,0.5-446.5,1-669.8c0-15.7,1.1-31.5,1.6-47.2l0.3,0.5L2429.4,509.9z M1618.4,2183.9c0.4-4.2,1.1-8.4,1.1-12.6
	c0-42.2-0.5-84.5,0.2-126.7c0.2-15-4.4-26.1-14.9-36.8c-41.8-42.8-82.7-86.6-124.2-129.7c-131-136.2-262.2-272.2-393-408.6
	c-44.9-46.8-88.6-94.8-133.4-141.7c-112.2-117.6-224.8-235-337-352.6c-7-7.4-14.2-11.2-24.6-11.1c-42.9,0.4-85.8,0.1-128.6,0.3
	c-3.9,0-7.8,1.4-14.7,2.7c389.8,407.7,777.4,813.1,1165.1,1218.6c1.4-0.6,2.7-1.1,4.1-1.7L1618.4,2183.9z M2429.1,509.3
	c33.6,34.1,67.1,68.2,100.7,102.3c6.4,6.5,13.5,10.2,23.3,10.2c105.9,0.3,211.8,1.1,317.7,1.6c19.5,0,39.1-1,58.6-0.9
	c53.6,0,107.2,0.5,160.7,0.5c3.7,0,7.5-2.1,13.1-3.8c-3.9-4.7-6.1-7.6-8.6-10.2c-29.3-29.4-59.2-58.4-87.9-88.5
	c-10.1-10.6-20.9-14.4-35-14.4c-159.5,0.6-319,0.8-478.5,1.4c-21.3,0-42.6,1.5-63.9,2.4L2429.1,509.3L2429.1,509.3z M353.8,2839.2
	v-143.3h49.5c11,0,18.9,0.5,23.8,1.5c6.6,1.6,13.1,4.5,19.5,8.6s13.6,11.3,21.7,21.6s18.3,25.1,30.8,44.5l42.7,67.2h53.7l-56.1-87.9
	c-11.2-17.2-23-31.5-35.4-42.9c-5.9-5.3-14.5-10.6-25.8-16.1c31-4.3,53.9-14.2,68.7-29.9s22.2-35,22.2-57.9s-4.5-34-13.4-48.7
	c-9-14.7-20.9-24.9-35.9-30.7s-36.8-8.7-65.6-8.7H311.1v322.8h42.7V2839.2z M353.8,2552.1H456c23.9,0,41.4,4.9,52.5,14.8
	c11.1,9.8,16.6,22.4,16.6,37.7s-2.9,20.1-8.6,29c-5.7,8.9-14.1,15.3-25.1,19.4c-11,4-26.3,6.1-45.8,6.1h-91.8v-106.8V2552.1z
	 M646.5,2813c20.2,21,46.6,31.5,79.4,31.5s39.2-4.8,56.5-14.3c17.2-9.5,30.4-22.9,39.4-40.2c9-17.2,13.5-40.9,13.5-71
	s-10.2-66.2-30.6-87.3c-20.4-21.1-46.7-31.6-78.8-31.6s-53.4,8.7-73.5,26c-24.1,20.8-36.1,52.9-36.1,96.2s10.1,69.7,30.3,90.7
	L646.5,2813z M676.6,2655.1c13.1-14.8,29.5-22.2,49.3-22.2s35.9,7.5,49,22.3c13.1,14.9,19.7,36.8,19.7,65.7s-6.5,53.5-19.6,68.5
	s-29.4,22.5-49.1,22.5s-36.3-7.4-49.3-22.3c-13.1-14.9-19.6-37.3-19.6-67.3S663.5,2670,676.6,2655.1L676.6,2655.1z M905.6,2934.1
	c12.6,0,23.5-3,32.6-9.1s17.2-15.7,24.2-28.7c5.3-9.7,12.7-27.4,22.2-53.1l89-237.8H1034l-50,136.3c-6.3,17.3-11.7,35.1-16.3,53.3
	c-5-18.9-10.6-37-17-54.2L902,2605.4h-42.7l88.7,234.3c-1.6,4.3-2.8,7.5-3.5,9.7c-5.6,15.7-9.6,25.5-12.1,29.5
	c-3.4,5.3-7.7,9.4-13,12.3c-5.3,2.9-12.3,4.4-21.1,4.4s-14-1.2-22.7-3.5l4.4,37.2C889.4,2932.5,897.9,2934.1,905.6,2934.1
	L905.6,2934.1z M1267.8,2839.2h41.4c-5-9-8.3-18.3-10-28.1s-2.5-33.1-2.5-69.9v-52.8c0-17.6-0.7-29.8-2-36.6
	c-2.3-10.9-6.5-19.8-12.3-27c-5.9-7.1-15-13-27.5-17.7s-28.7-7-48.7-7s-37.8,2.8-53.1,8.3c-15.3,5.5-26.9,13.4-35,23.6
	c-8.1,10.2-13.9,23.6-17.4,40.2l38.8,5.3c4.3-16.6,10.8-28.1,19.7-34.7c8.9-6.5,22.6-9.8,41.3-9.8s35,4.5,45.1,13.4
	c7.5,6.6,11.2,18,11.2,34.1s0,4.9-0.2,10.3c-15.1,5.3-38.7,9.8-70.7,13.6c-15.7,1.9-27.5,3.9-35.2,5.9c-10.6,2.9-20.1,7.3-28.5,13
	s-15.3,13.3-20.5,22.8s-7.8,19.9-7.8,31.4c0,19.5,6.9,35.6,20.7,48.1c13.8,12.5,33.5,18.8,59.2,18.8s30.1-2.6,43.7-7.7
	c13.6-5.1,27.7-13.9,42.4-26.4C1261.1,2821.3,1263.7,2830.9,1267.8,2839.2L1267.8,2839.2z M1256.6,2736.3c0,17.5-2.1,30.7-6.4,39.6
	c-5.6,11.6-14.3,20.7-26.2,27.4c-11.9,6.7-25.5,10-40.7,10s-27.1-3.5-35.1-10.6c-8-7-12-15.8-12-26.4s1.8-13.2,5.5-18.8
	s8.9-9.9,15.6-12.9c6.8-2.9,18.3-5.6,34.6-7.9c28.8-4.1,50.3-9.1,64.7-15V2736.3L1256.6,2736.3z M1396.8,2839.2v-322.8h-39.6v322.8
	H1396.8z M1705.3,2839.2v-284.7h106.8v-38.1h-255.9v38.1h106.3v284.7H1705.3L1705.3,2839.2z M1874,2562v-45.6h-39.6v45.6H1874z
	 M1874,2839.2v-233.8h-39.6v233.8H1874z M1973.9,2839.2v-121.3c0-21.3,2.1-37.6,6.4-48.9c4.3-11.3,11.1-19.9,20.6-25.8
	c9.5-5.9,19.8-8.8,30.9-8.8s25.2,4.4,31.7,13.2s9.7,22,9.7,39.6v151.9h39.6v-135.9c0-24.1,5.4-41.6,16.3-52.5
	c10.9-10.9,24.5-16.4,41-16.4s17,2.1,23.8,6.4c6.8,4.3,11.4,9.9,14,16.8c2.6,7,3.9,18.4,3.9,34.2V2839h39.4v-160.5
	c0-26.7-6.2-46.5-18.7-59.3s-30.3-19.3-53.5-19.3s-53.7,13.6-72.2,41c-4.6-12.9-12.4-23-23.5-30.2s-25.3-10.8-42.6-10.8
	s-29.4,3.5-41.6,10.5s-21.9,16.2-29.3,27.6v-32.8h-35.4V2839h39.6L1973.9,2839.2z M2445.6,2800.4c-10.3,7.6-22.7,11.4-37.2,11.4
	s-35.8-6.8-48.9-20.5c-13.1-13.7-20.3-33.3-21.8-59h174.4c0.1-4.7,0.2-8.2,0.2-10.6c0-38.6-9.9-68.6-29.7-89.8
	c-19.8-21.3-45.4-31.9-76.6-31.9s-58.6,10.9-78.8,32.6c-20.3,21.7-30.4,52.3-30.4,91.6s10,67.6,30.1,88.6
	c20,21.1,47.2,31.6,81.4,31.6s49.5-6.6,66.9-19.8c17.5-13.2,29.4-31.8,35.9-55.7l-41-5.1C2464.1,2780.5,2455.9,2792.7,2445.6,2800.4
	L2445.6,2800.4z M2360.5,2650.9c12.4-12.2,27.7-18.3,45.9-18.3s36.5,7.6,49.1,22.9c8.2,9.8,13.2,24.6,15,44.3h-130.6
	C2341.2,2679.4,2348.1,2663.1,2360.5,2650.9z M2807.8,2839.2v-284.7h106.8v-38.1h-255.9v38.1H2765v284.7H2807.8L2807.8,2839.2z
	 M3094.4,2839.2l126.4-322.8h-43.6l-87.2,234.5c-6.6,17.6-12.4,35.2-17.4,52.8c-4.6-16.4-10.2-34.1-17-52.8l-83.9-234.5h-46.2
	l125.1,322.8H3094.4L3094.4,2839.2z"/>
</svg>
