<?xml version="1.0" encoding="UTF-8"?>
<svg id="Layer_1" data-name="Layer 1" xmlns="http://www.w3.org/2000/svg" version="1.1" viewBox="0 0 3500 3500">
  <defs>
    <style>
      .cls-1 {
        fill: #12a3aa;
      }

      .cls-1, .cls-2, .cls-3 {
        stroke-width: 0px;
      }

      .cls-2 {
        fill: #435662;
      }

      .cls-3 {
        fill: #fff;
      }
    </style>
  </defs>
  <path class="cls-1" d="M409.5,1223.2v666.8c88.4,0,173.2-35.1,235.8-97.6,62.5-62.5,97.7-147.3,97.7-235.8s-35.1-173.2-97.6-235.8c-62.5-62.5-147.3-97.7-235.8-97.7Z"/>
  <path class="cls-1" d="M333.4,1597.8v666.8c-88.4,0-173.2-35.1-235.8-97.6C35.1,2104.5,0,2019.7,0,1931.3s35.1-173.2,97.6-235.8c62.5-62.5,147.3-97.7,235.8-97.7Z"/>
  <path class="cls-2" d="M297.8,1502.1c28.2-34.3,41.7-78.2,37.4-122.4-4.3-44.2-25.9-84.8-60.1-113-34.3-28.2-78.2-41.7-122.4-37.4-44.2,4.3-84.8,25.9-113,60.1-28.2,34.3-41.7,78.2-37.4,122.4,4.3,44.2,25.9,84.8,60.1,113,34.3,28.2,78.2,41.7,122.4,37.4,44.2-4.3,84.8-25.9,113-60.1Z"/>
  <g>
    <path class="cls-3" d="M1438.2,1685.1h-451.9v227.2h66.8c46.5,0,84.3-37.7,84.3-84.3v-45.6h224.7c42.1,0,76.2-34.1,76.2-76.2v-21.2Z"/>
    <path class="cls-3" d="M1081.8,1942.3h254.1v24.3c0,50-40.6,90.5-90.5,90.5h-259.1v-19.4c0-52.7,42.8-95.5,95.5-95.5Z"/>
    <path class="cls-3" d="M1073.7,2087.1h54.9v177.6h-142.3v-90.2c0-48.3,39.1-87.4,87.4-87.4Z"/>
    <circle class="cls-2" cx="1563.5" cy="1744.4" r="76"/>
    <path class="cls-3" d="M1563.5,1860.6c-22.5,0-43.5-6.5-61.3-17.6v418.9h26c53.4,0,96.7-43.3,96.7-96.7v-322.2c-17.8,11.1-38.8,17.6-61.3,17.6Z"/>
    <path class="cls-3" d="M2915,1676c-53.4,0-96.7,43.3-96.7,96.7v136.3h-327.7c-44,0-79.6,35.6-79.6,79.6v43.1h407.3v153.4c0,44,35.6,79.6,79.6,79.6h43.1v-588.6h-26Z"/>
    <g>
      <path class="cls-3" d="M2533.7,1889.5v-213.5h-26c-53.4,0-96.7,43.3-96.7,96.7v116.8h122.6Z"/>
      <path class="cls-3" d="M2411.1,2056.2v205.7h26c53.4,0,96.7-43.3,96.7-96.7v-109h-122.6Z"/>
    </g>
    <path class="cls-3" d="M2282.8,2206.9v-238h-26c-53.4,0-96.7,43.3-96.7,96.7v199.1l122.6-57.7Z"/>
    <path class="cls-3" d="M3247,2264.7c44.9,0,81.3-36.4,81.3-81.3v-363h-26c-53.4,0-96.7,43.3-96.7,96.7v347.6h41.3Z"/>
    <circle class="cls-2" cx="3072.4" cy="1763.7" r="71.2"/>
    <path class="cls-3" d="M3267.8,1669.8h-136.2c31.2,19.7,52,54.3,52,93.9s-1.4,19.5-3.9,28.7h240.8c44,0,79.6-35.6,79.6-79.6v-43.1h-232.2Z"/>
    <path class="cls-3" d="M2289.6,1773.7s-78.7-103.9-258.4-103.9-302.1,169.5-302.1,300.6,73.7,307.1,289.6,306.5c91.3-.2,117.4-25.4,111.1-117.8-77.4,1.2-258.4,12.8-265.9-178.1-5.5-138.9,106.1-194.8,184.8-193.5,31.5.5,68,15.3,104.2,29.5,40.3,15.8,86,7.5,116.8-22.9,12.5-12.4,20-20.3,20-20.3Z"/>
  </g>
</svg>