<?xml version="1.0" encoding="utf-8"?>
<!-- Generator: Adobe Illustrator 27.7.0, SVG Export Plug-In . SVG Version: 6.00 Build 0)  -->
<svg version="1.1" id="Layer_1" xmlns="http://www.w3.org/2000/svg" xmlns:xlink="http://www.w3.org/1999/xlink" x="0px" y="0px"
	 viewBox="0 0 3500 3500" style="enable-background:new 0 0 3500 3500;" xml:space="preserve">
<style type="text/css">
	.st0{fill:none;stroke:#A2CA75;stroke-width:2;}
	.st1{fill:#FECE04;}
	.st2{fill:#45C5E5;}
</style>
<g>
	<g>
		<path vector-effect="non-scaling-stroke" class="st0" d="M1690.2,420.7l-0.6,32.6"/>
		<path vector-effect="non-scaling-stroke" class="st0" d="M1625,452.8c2.6-11.3,2.7-23.1,0.2-35.4"/>
		<path vector-effect="non-scaling-stroke" class="st0" d="M1016,1561.2c-5.8,2.1-12.8-0.5-20.7-7.7c-2.8-2.5-6-3-9.6-1.5
			c-5.7,2.4-10.9,3-15.8,1.8"/>
		<path vector-effect="non-scaling-stroke" class="st0" d="M2307.7,2048.1c25.3,6.9,50.4,9.6,75.3,8.1"/>
		<path vector-effect="non-scaling-stroke" class="st0" d="M2360.1,2074.7l-72.8-11.6"/>
		<path vector-effect="non-scaling-stroke" class="st0" d="M1097.2,1667.8c-32.3-33.4-67.3-60.9-105-82.5"/>
		<path vector-effect="non-scaling-stroke" class="st0" d="M2503.1,1941.9c-23.7,11.5-46.2,24.2-67.5,38
			c-10.4,6.8-36.8,15.3-79.2,25.6"/>
		<path vector-effect="non-scaling-stroke" class="st0" d="M2387,1981.8c96.9-35.2,155.5-103.5,175.6-205"/>
		<path vector-effect="non-scaling-stroke" class="st0" d="M2591.4,1830.7l24.9-155.8"/>
	</g>
	<path class="st1" d="M1045.9,2206.2c-23.4-12.1-48.6-28.5-75.6-49.1c-392.5-301.6-578.1-798.4-439.3-1279
		c133.3-462,536-788,1009.3-861.6c263.9-41.1,516.8-5.4,758.6,106.8c399.9,185.8,676.9,567.1,712.2,1008.6
		c13.8,173.6-11.6,344.3-76.4,512.2c-0.6,1.7-1.6,2.2-3,1.5l-0.1-0.1c-1.5-0.7-2.1-1.7-1.7-3.1c4.2-13.8,9.9-31,17.1-51.5
		c8.5-24.1,14-41.3,16.3-51.8c66.2-286.8,32.9-556.9-99.9-810.2c-110.3-210.3-274.5-375.6-492.5-495.8
		C1942.2-3.4,1406.3,31.6,1008.7,322.3c-404.4,295.7-577,812.4-409.2,1297.1c70.6,204.1,191.8,376.8,363.7,518.1
		C990.7,2160,1018.3,2183,1045.9,2206.2z"/>
	<path class="st2" d="M1690.2,420.7l-0.6,32.6c2.4,216.6,3.4,432.8,3.1,648.8c-0.1,46.3-1.6,92.7-4.6,139.4
		c-11.1,170.7-92.1,295-242.9,372.9c-53.1,27.4-96.5,43.7-130.4,49c-26.4,4.1-49,8.7-67.6,13.9c-1.8,0.6-3.9,0.5-6.4-0.2
		c-4.2-1.2-4.1-2.2,0.1-3c96.6-17.8,179.5-59,248.8-123.4c114.9-106.8,137.4-249.5,136.8-401c-1.1-232-1.6-464.3-1.5-696.9
		c2.6-11.3,2.7-23.1,0.2-35.4c0.2-37.6-0.2-76.3-1.4-116.2c-0.5-14.4,5.3-33.2,15.2-46.8c18-24.9,31.4-43.1,40.3-54.7
		c5.8-7.5,8.7-6.5,8.8,3L1690.2,420.7z"/>
	<path class="st1" d="M2591.4,1830.7l24.9-155.8c195.4-404.3,92-890.8-257.3-1176.9c-183.9-150.6-400.7-226.7-650.4-228.2
		c-0.9,0-1.5-0.6-1.5-1.4c0,0,0,0,0,0c0-0.2,0-0.3,0-0.5c0-0.3,0.2-0.5,0.5-0.5c316.7-8.7,581.5,98.8,794.4,322.5
		c152.1,159.8,239.2,351.2,261.5,574.3C2787,1401.3,2729.7,1623.5,2591.4,1830.7z"/>
	<path class="st1" d="M1625.2,417.3c2.4,12.3,2.4,24.1-0.2,35.4c-133.8,4.3-255.7,39.6-365.7,105.9
		c-118.7,71.5-208.1,176.3-274.9,296.2c-21.2,38.1-36.9,75.6-47.3,112.7c-58.7,211.3-32.4,409.2,78.9,593.7
		c-5.8,2.1-12.8-0.5-20.7-7.7c-2.8-2.5-6-3-9.6-1.5c-5.7,2.4-10.9,3-15.8,1.8c-95.9-166.7-128.3-340-97-520
		c11.2-64.7,32.6-129.4,64.2-194.3c30.2-62,67.3-118.5,111.4-169.5C1194.3,501.3,1386.5,417.1,1625.2,417.3z"/>
	<path class="st1" d="M1689.6,453.2l0.6-32.6c251.8,34.3,443.4,157.9,574.9,370.7c6.9,11.1,19.5,37.1,37.9,78.2c0.2,0.5,0,1-0.5,1.3
		c0,0-0.1,0-0.1,0c-1.9,0.4-2.8-0.1-2.6-1.4C2172.6,623.4,1969.2,484.7,1689.6,453.2z"/>
	<path class="st2" d="M2087.7,1868.5l41.1,66.1c2.1,3.4,5.2,5.4,9.1,5.9c7.5,1,15.4,0.9,23.7-0.5
		c169.3-28.1,275.3-126.7,318.1-295.8c3.4-13.6-4.8-27.4-18.3-30.8c-1.1-0.3-2.1-0.5-3.2-0.6c-20.4-2.4-42.8,0.8-67.4,9.8
		c-1.8,0.6-2.7,0-2.7-2v-50.6c0-1.9,1.1-3.6,2.8-4.4c45.5-20.1,84.3-12.3,95.2,42.2c35.2,174.7-116.6,346.5-274.6,388.8
		c-8.5,2.3-9.1,5.8-1.7,10.7c33.9,21.7,66.5,35.3,97.9,40.9c25.3,6.9,50.4,9.6,75.3,8.1c97.7-0.4,178-38,241-112.9
		c42.6-50.8,65.7-108,69.2-171.7c1.1-19.7,2.3-37.3,3.6-52.7c0.7-8.8,2.2-8.9,4.4-0.4c21.3,82.6,10,160.1-34,232.7
		c-39.2,64.7-92.3,112-159.2,142c-9,4.1-19.9,1.7-32.8-7.1c-3.2-2.3-6.9-3.6-10.9-3.9l-104.1-7.6l-72.8-11.6
		c-47-16.1-88.4-40.9-124.2-74.3c-4.3-4.1-16.9-8.9-37.8-14.3c-26.4-6.8-52.8-13.5-79.3-20c-76.9-19.1-133.6-48.7-190.2-100.7
		c-3-2.8-6.7-4.8-10.8-5.7c-94.3-22-164.6-75.8-211.1-161.3c-2.4-4.3-5.4-4.8-9.1-1.7c-29.1,24.6-60.9,45.8-95.3,63.6
		c-14.8,7.7-23.2,11.7-25.1,12.1c-16.6,3.9-41-8.6-55.8-13.5c-9.3-3-19.1-4.9-29.4-5.6c-34.2-2.3-68-4.4-101.4-6.3
		c-77.4-4.5-151-27.1-220.6-67.7c-32.3-33.4-67.3-60.9-105-82.5C824,1535.7,721.5,1424,684.7,1250c-2.5-11.8-2.6-23.6-0.2-35.3
		c7.1,36.6,13.8,63.2,20.1,80.1c47.9,127.8,136.4,214.1,265.4,259c4.8,1.2,10.1,0.6,15.8-1.8c3.6-1.5,6.8-1,9.6,1.5
		c8,7.2,14.9,9.8,20.7,7.7c4.9,5.7,9.8,8.9,14.6,9.6c145.1,21.6,270.2-16.4,375.4-114c80.3-74.6,91.3-171.2,88.6-277
		c-4.8-185.8-6.2-309.2-4.1-370.4c1-30.5,15.1-56.4,42.3-77.7c3.3-2.7,5-1.9,5.1,2.4c3.1,209,4.8,333.7,5.1,374.1
		c0.8,82.7-3.7,151.1-13.5,205.2c-11.4,62.8-41.4,123.8-90.1,183.1c-51.9,63.2-127.9,112.3-228,147.3c-17.8,6.2-31.6,5.7-41.4-1.3
		c-11.8-8.4-17.9-12.6-18.4-12.8c-34.6-15.6-63.2-24.6-85.9-27.2c-21.9-2.5-24,2.7-6.2,15.6c70.5,51.6,143.4,81.6,218.8,90
		c134.3,15.1,248.6-20,343.1-105.3c63.3-57.1,107.6-134.8,132.8-233.2c1.3-5.2,4.7-39.2,10.2-101.8c4.5-52,12-87.8,22.6-107.4
		c2.3-4.3,1.7-8.1-1.8-11.5l-17.8-17.9c-3.2-3.2-4.9-6.9-5.3-11.4c-1.8-22.9,0.4-46.3,6.8-70.2c0.3-1.4,1.8-2.3,3.2-1.9
		c0.4,0.1,0.7,0.3,1,0.5l51,41.3c3.7,3.1,9.2,2.9,12.7-0.5c43.9-40.7,120.4-79.9,182-65.6c48.3,11.3,68.1,46.5,56,96.8
		c-4.1,16.7-16.1,40.5-36,71.4c-2.1,3.4-1.4,5.8,2.2,7.3c5.8,2.4,17.3,6.3,34.2,11.6c12.1,3.7,23.8,6.2,35.3,7.3
		c40.7,4.1,81.3,8.4,122,12.8c30.3,3.3,50.3-48.9,56.1-72.2c4.5-18.3,6.8-44,7-77.1c0-20.7,3.7-41.8,11-63.2
		c19.4-56.7,31.7-91.9,36.7-105.5c11.2-30.3,16.7-29.3,16.6,3c-0.4,61.9-2.8,120.5-7.3,175.7c-3.9,48.3-13.6,96.8-49.3,126.7
		c-12.5,10.4-10.6,15.6,5.7,15.6h114.3c22.7,0,30.7,10.9,23.9,32.6c-1.9,6.3-7.2,19.7-15.9,40c-9,21.1-24.8,29.5-47.3,25.2
		c-19.6-3.8-46.7-3.8-81.4,0.1c-4.2,0.5-6.4,2.8-6.6,7.1c-3.2,77.6-0.6,138.6,7.8,182.8c6.7,35,27.8,50.4,63.4,46.2
		c1.1-0.1,2.2,0.4,2.5,1.1c0.1,0.3,0.1,0.6-0.1,0.8h-0.1c-0.9,1.4-1.5,2.1-1.8,2.1c-52.1,11.8-86.1-7.2-102-57.1
		c-0.4-1.3-1.8-2-3.1-1.6c-0.4,0.1-0.8,0.4-1.1,0.8l-20.8,25.7c-1.4,1.7-2,3.7-1.8,5.8c3.9,37.3,4.5,61.8,1.8,73.5
		c-25.8,112.7-90.2,195.5-193.3,248.6c-19.9,10.2-42.9-5.2-60.6-7.2c-26.6-3-58.2-5.3-94.9-6.9c-6.8-0.3-7.7,1.9-2.7,6.5
		c15.1,14.1,34.1,25.4,57.1,34c49.7,18.5,105.8,34.1,168.3,46.9c2,0.5,4.1-0.8,4.5-2.8c0.2-0.8,0.1-1.7-0.3-2.5L2087.7,1868.5z
		 M1843.6,1108.5c44.2,29.4,95,55.7,152.3,78.9c3.7,1.5,6.7,0.6,8.9-2.8c27.6-43.6,46.2-111.3-23.4-126
		c-34.8-7.3-77.1,3.6-126.7,32.4c-5.4,3.1-9.2,8.3-11.6,15.8C1842.8,1107.3,1843,1108,1843.6,1108.5z M1801.9,1166
		c-1.9-1.6-4.6-1.3-6.2,0.5c-0.5,0.6-0.8,1.2-0.9,1.9c-8.1,36.7-1.3,70.9,20.5,102.7c25.8,37.7,67.6,59.3,125.3,65
		c3,0.3,5.7-1.8,6.3-4.7l12-72.5c0.6-3.9-0.9-6.5-4.6-7.8C1900.1,1232.4,1849.3,1204,1801.9,1166z M2131.5,1304.6
		c10.9-5.1,10.4-8.5-1.5-10.1c-42.2-5.8-84.2-15-126.1-27.8c-10.7-3.3-18.7,0-23.8,10.1c-4.9,9.5-9.3,23.4-13.1,41.7
		c-2.3,10.8,2.1,16.4,13.1,16.7C2034.9,1336.7,2085.4,1326.5,2131.5,1304.6z M1986.5,1455.1l-23.1-43.2c-1.9-3.5-4.7-5.8-8.4-7.1
		c-11.4-3.6-24-6.9-38-9.8c-50.4-10.7-81-41.4-131-83.5c-3.7-3.1-5.4-2.2-5,2.6c12,142-42.2,261.1-141.2,357.3
		c-3,2.9-3.4,6.2-1.3,9.7c42.9,71.7,105.2,120,186.8,145.1c8.1,2.4,9.9,0.1,5.3-7c-17.1-26.4-26-40.4-26.9-41.9
		c-23.8-39.6-38.6-84.8-44.4-135.4c-0.2-1.4,0.4-2.4,1.7-2.8h0.1c1.4-0.6,2.3,0.1,2.6,2c10.2,63.2,40.7,134.5,87.2,181.4
		c7,7,18.3,11.2,33.8,12.6c150.2,13.1,278.2-77.3,328.4-219.8c5.5-15.8,7.6-31.4,6.3-46.8c-0.6-7-6.7-12.2-13.7-11.6
		c-0.7,0.1-1.3,0.2-1.9,0.3c-13.9,3.4-33.5,8.3-46.8,0.8c-59.6-33.3,12.3-135.9,48.2-86.7c9.5,13.1,16.6,27,21.4,41.8
		c1.1,3.2,4.5,5,7.8,3.9c1.2-0.4,2.2-1.1,3-2.2c9.2-12.3,14.2-26.6,15-42.9c2.1-36.6,2.7-78.6,1.9-125.9c-0.1-4.1-2.1-5.6-6-4.6
		c-47.6,12.5-98.2,27.4-151.7,44.6c-35.6,11.6-75.6,11.5-115.6,16.8c-4,0.6-5.6,2.8-4.7,6.8L1986.5,1455.1z"/>
	<path class="st2" d="M2100.9,813.8c2,0,3.1-0.2,3.4-0.6c34.3-38,70.3-41.8,107.9-11.4c14.9,12.1,22.4,29.6,22.4,52.6
		c-0.1,22.9-7.6,40.3-22.5,52.3c-37.7,30.3-73.6,26.4-107.9-11.7c-0.3-0.4-1.5-0.6-3.4-0.6c-2.1,0-3.2,0.2-3.6,0.6
		c-34.3,38-70.3,41.8-107.9,11.4c-14.9-12.1-22.4-29.6-22.4-52.5c0.1-22.9,7.6-40.4,22.5-52.5c37.7-30.2,73.7-26.3,107.9,11.7
		C2097.7,813.6,2098.9,813.8,2100.9,813.8z"/>
	<path class="st2" d="M2616.3,1674.9l-24.9,155.8c-24.1,41.7-53.5,78.8-88.3,111.2c-23.7,11.5-46.2,24.2-67.5,38
		c-10.4,6.8-36.8,15.3-79.2,25.6c5.3-10.3,15.5-18.2,30.7-23.7c96.9-35.2,155.5-103.5,175.6-205c5.8-27.4,8.8-51,9-70.8
		c1.7-133.6,1.1-308.4-2-524.4c-0.8-61.1-3.7-96.2,36.6-134.1c1.3-1.1,3.2-1.1,4.3,0.1c0.5,0.5,0.8,1.2,0.8,2L2616.3,1674.9z"/>
	<circle class="st2" cx="1099.9" cy="1154.3" r="84.2"/>
	<path class="st2" d="M684.5,1214.7c-2.8-2.3-3.4-5.3-2-9.1C683.4,1208.7,684.1,1211.8,684.5,1214.7z"/>
	<path class="st2" d="M1998.1,1478.5c-5.6-5-9.5-12.8-11.6-23.4C1992,1461.9,1995.8,1469.7,1998.1,1478.5z"/>
	<path class="st2" d="M1998.1,1478.5c2.8,1,4.7,2.8,5.6,5.4C2002.9,1486.3,2001,1484.5,1998.1,1478.5z"/>
	<path class="st1" d="M2287.3,2063.1l72.8,11.6c-201.9,147.1-423.8,213.8-665.7,200c-258.8-14.8-496.8-140.9-672-331.5
		c-98.6-107.3-169-228.7-211.3-364.3c-0.4-1.3,0-2.3,1.2-3.2h0.1c1.4-1,2.6-0.4,3.4,2c92.8,245.1,249.9,425.1,471.2,540
		c215.2,111.7,441.5,141.2,678.9,88.5C2079.4,2181.1,2186.5,2133.3,2287.3,2063.1z"/>
	<path class="st1" d="M1097.2,1667.8c123.8,133.5,276.4,211.9,457.9,235.2c1.9,0.2,2.5,1,1.9,2.3c-0.7,1.3-1.4,2-2,2
		c-44,0.8-87.3-4.3-129.9-15.3c-183.1-47.4-327.4-149.6-433-306.7C1029.9,1606.9,1064.9,1634.4,1097.2,1667.8z"/>
	<path class="st2" d="M2293.9,1640.2c13.1,0,23.6,4.5,31.5,13.4c18.2,20.8,16.7,41.3-4.7,61.7c-0.9,0.9-1.5,1.5-1.7,1.8
		c-0.1,0.4-0.1,1.3-0.1,2.8c0,1.5,0,2.4,0.1,2.8c0.2,0.3,0.7,0.9,1.7,1.9c21.4,20.4,22.9,40.9,4.6,61.7
		c-7.9,8.8-18.4,13.3-31.6,13.3c-13.1,0-23.6-4.5-31.5-13.4c-18.2-20.8-16.7-41.3,4.7-61.7c0.9-0.9,1.5-1.5,1.7-1.8
		c0.1-0.4,0.1-1.3,0.1-2.8c0-1.5,0-2.4-0.1-2.8c-0.2-0.3-0.7-0.9-1.7-1.8c-21.3-20.4-22.9-41.1-4.6-61.8
		C2270.3,1644.6,2280.8,1640.2,2293.9,1640.2z"/>
	<path class="st1" d="M2562.6,1776.8c-20.1,101.4-78.7,169.8-175.6,205C2451.8,1919.1,2510.3,1850.7,2562.6,1776.8z"/>
	<path class="st2" d="M2087.7,1868.5c-2.8-2.9-3.7-5.1-2.8-6.6c0.4-0.7,1.3-1,2.1-0.6c0.4,0.2,0.6,0.6,0.8,1
		C2088.4,1864.4,2088.4,1866.5,2087.7,1868.5z"/>
	<path class="st1" d="M2503.1,1941.9c-35.6,41.6-75.6,79.7-120.1,114.3c-24.9,1.6-50-1.1-75.3-8.1l48.7-42.6
		c42.4-10.3,68.8-18.8,79.2-25.6C2456.9,1966.1,2479.4,1953.4,2503.1,1941.9z"/>
	<path class="st2" d="M2345.8,2002.8c1.1-3,2.7-4.6,4.7-4.9c1.6-0.2,3,0.9,3.2,2.5c0.1,0.5,0,1-0.2,1.4
		C2352.5,2004.3,2349.9,2004.6,2345.8,2002.8z"/>
	<path class="st2" d="M2345.8,2002.8c-6.6,4.9-14.1,6.7-22.7,5.3c-5.3-0.8-5.2-1.5,0.1-2.2L2345.8,2002.8z"/>
	<path class="st1" d="M1045.9,2206.2c3.4,0.8,5.4,2.3,6.2,4.5C1048.9,2211.2,1046.8,2209.7,1045.9,2206.2z"/>
	<path class="st2" d="M2420.4,2419.6l24.2-50.2c5.1-10.5,12.1-12.1,21.1-4.7l21.6,17.5c12.8,10.3,17.3,23.5,13.5,39.4
		c-4.8,20-14.4,38.1-28.7,54.2c-4.7,5.4-12.9,6.1-18.6,1.5l-34.7-28.2c-3.6-2.8-6.2-2.1-7.8,2.1c-7.6,19.3-17.2,34-28.9,44.1
		c-3.6,3.2-7.2,3.2-10.9,0.2l-40.5-32.9c-3.9-3.1-5.1-8.5-3-13l34.8-72.5c2.4-5,6-6.1,10.8-3.3c19.3,11.5,33.2,26.7,41.4,45.6
		C2416.6,2423.7,2418.4,2423.7,2420.4,2419.6z"/>
	<path class="st1" d="M494,2389.6h1795.5c2.5,0,4.5,2,4.5,4.5v61.6c0,2.5-2,4.5-4.5,4.5H494c-2.5,0-4.5-2-4.5-4.5v-61.6
		C489.5,2391.6,491.6,2389.6,494,2389.6z"/>
	<path class="st1" d="M2533,2389.3H3007c2,0,3.7,1.6,3.7,3.7v63.5c0,2-1.6,3.7-3.7,3.7H2533c-2,0-3.7-1.6-3.7-3.7V2393
		C2529.4,2391,2531,2389.3,2533,2389.3z"/>
	<path class="st2" d="M2354.9,2686.3c6.2-2.4,20-0.1,41.3,6.9c3.9,1.3,6.8,3.8,8.4,7.7c17.4,41.3-18.1,87.3-49.1,117.2
		c-10.7,10.4-28.6,18.6-53.6,24.4c-29.7,6.9-57.9,15.8-84.7,26.8c-21.4,8.7-46.9,23.1-76.6,43.1c-172,115.9-362.9,189.8-572.6,221.8
		c-131.3,20-254.9,21.4-370.8,4.3c-41.3-6.1-78.6-15.8-112-29.1c-9.5-3.7-16.5-1.1-21.1,7.9c-33.6,65.8-79.9,182-149.1,178.3
		c-7.8-0.4-13.7-7.1-13.3-14.9c0-0.4,0.1-0.8,0.1-1.2c3.8-26.5,28.2-44.3,50.4-69c45.5-50.7,78.6-111.4,121.3-191.1
		c7.7-14.4,19.5-23.9,35.3-28.3c10.2-2.8,24-1.7,41.4,3.3c74.3,21.2,139,32.9,194.1,35.1c255.3,9.8,514.4-38.5,741.1-159.4
		c3.5-1.8,6.1-4.5,7.9-7.9c31.4-60.5,66.7-114.1,105.9-160.8c30.1-35.9,61.6-40.3,94.6-13.1c2.9,2.4,5.3,2,7.1-1.4
		c37.1-71,97.7-126.4,181.8-166.1c11.5-5.4,15.2-2.2,11,9.8l-12.4,35.2c-5.5,15.9-18.2,28.2-34.2,33.3
		c-40.3,12.9-75.1,36-104.6,69.3C2322.1,2691.3,2326.2,2697.4,2354.9,2686.3z M2125.8,2841.8c-8.2,12-6.2,14.1,6,6.4
		c37.3-23.7,76.6-47,118.1-69.9c14.1-7.8,18.1-18.2,12.7-32.9c-3.5-9.5-12.4-16.1-22.6-16.6c-21.7-1.1-39.2,7.1-52.5,24.5
		C2177.7,2766.2,2157.1,2795.7,2125.8,2841.8z M2273.8,2767.4c-1.7,0.7-2.6,1.1-2.8,1.2c-2.8,1.1-4.9,3.2-6,6.2
		c-6.6,16.6-15.7,32.5-27.2,47.7c-7.2,9.6-5.1,12.4,6.2,8.5c37.7-12.7,70.1-25.9,97.2-39.7c12.2-6.2,22.1-17,29.5-32.2
		c3.5-7.2,0.5-16-6.8-19.4c-1.3-0.6-2.7-1.1-4.1-1.3c-29.6-4.6-57.3,4.7-83,27.7C2276.4,2766.4,2275.5,2766.8,2273.8,2767.4z"/>
	<path class="st2" d="M2468.3,2908.4c-28.7,3.4-50.4-1.3-65.1-14.1c-31.6-27.5,13.1-97.8,33.4-125.5c34.5-47,71.3-11.5,86.6,26.9
		c1.8,4.5,4.7,5.4,8.8,2.7c8.8-5.8,16.7-12.6,23.6-20.5c16.9-19.9-1.1-50.2,8.5-76c14.3-39,27-70.3,38-93.9
		c9.2-19.9,14.1-18.9,14.4,3c0.6,37.4-0.2,73.6-2.4,108.5c-2,30.7-13.9,61.9-35.8,93.4c-19.9,28.7-52,62.9-67.7,102.4
		c-17.9,45.2-46.2,91.9-90.6,111.3c-35.6,15.6-73.9,27.2-115,34.6c-20.1,3.6-21.8-0.4-5.2-12.2c47.7-33.9,152.9-77.2,173.4-134.6
		C2474.7,2909.8,2473.1,2907.8,2468.3,2908.4z"/>
	<path class="st2" d="M541.2,2897.4c-21.1,76,12.3,148.6,97.3,155.1c115.2,8.8,202.4-37.6,261.7-139c24.9-42.6,19.8-98.8,21.8-153.4
		c1.9-53.2,20.1-103,54.7-149.3c6.4-8.4,9-7.4,7.9,3.1c-9.5,91-17.1,155.4-22.7,193.3C940,2954,859.8,3116,716.9,3162.6
		c-71.9,23.4-166.3,16.6-207.8-54c-37.7-63.9-18.1-163.2,9.2-233.3c21.3-54.8,47.4-106.3,78.4-154.7c1.6-2.6,5-3.5,7.6-1.9
		c1.9,1.1,3,3.3,2.7,5.5l-1.7,16.1c0,0.5-0.1,0.9-0.2,1.2C576.1,2796.1,554.8,2848.1,541.2,2897.4z"/>
	<path class="st2" d="M2777.8,2878.4c0.7-7.7,1.2-32.8,1.4-75.1c0.2-25.9,4-50.3,11.6-73.2c13.2-39.9,25.7-77.2,37.5-111.8
		c0.6-1.7,2.5-2.6,4.2-2c0.8,0.3,1.4,0.8,1.8,1.5c1.8,3.4,2.6,7.3,2.5,11.8c-2.3,59.2-4,118.4-5.2,177.6
		c-1.3,62-14.3,121.1-39.1,177.4c-5.3,12.3-15,41.6-27.6,53.8c-11.6,11.4-15.6,9.2-12.1-6.7
		C2764.6,2980.4,2772.8,2929.3,2777.8,2878.4z"/>
	<path class="st2" d="M964.2,3115.4c16.8-80.4,27.7-145.7,27.8-227.6c0.1-34.6,3.9-63.6,11.4-86.9c11.6-35.8,22.1-66.2,31.4-91.1
		c10.5-28,15.3-27.1,14.3,2.8c-3.8,117.2-6,180.6-6.5,190.2c-4,73.8-25.2,144.4-63.5,211.9c-1.9,3.5-4.4,5.8-7.5,7
		c-2.9,1.1-6.1-0.3-7.2-3.2C964.1,3117.5,964,3116.4,964.2,3115.4z"/>
	<path class="st2" d="M742.8,2886.5l-51.9-41.9c-3.6-2.9-4.3-6.5-2.4-10.7l46.4-96.6c2.1-4.2,7.1-6,11.4-4c0.4,0.2,0.9,0.5,1.3,0.8
		c32.1,23.6,62.3,47.6,49,91.7c-5.9,19.7-17.4,39.4-34.6,59.1C756.2,2891.6,749.8,2892.1,742.8,2886.5z"/>
	<path class="st2" d="M2670.1,2958.3c6.9-9.7,5.1-23.4-5.2-41c-11.1-18.9-28-37.3-50.6-55.1c-4.2-3.2-5.1-7.2-2.8-12l48.3-100.7
		c2.1-4.5,5.2-5.3,9.4-2.4c13.1,9.2,25.7,25.6,35.5,36c57.2,60.3,25,152.9-11.8,216.5c-23.8,41.1-77.7,64.2-122.8,76.7
		c-23.4,6.6-26,1.2-7.8-16.1c6.5-6.2,34.5-30.6,84.2-73.2C2651.7,2982.6,2659.6,2972.9,2670.1,2958.3z"/>
	<path class="st2" d="M2920,2953.2c14-18.7,25.7-38.7,35.2-60c10.7-24.1,24.1-65.7,40.4-124.9c0.6-2.2,2.2-4.1,4.4-4.9l5.2-1.8
		c3.1-1.1,6.5,0.6,7.5,3.7c0.3,0.8,0.4,1.6,0.3,2.5c-7.2,70-23.3,138.8-48.3,206.3c-11,30-25.5,52.9-53.6,68.7
		c-30.2,16.8-64.8,29.2-104,37.1c-13.1,2.7-16.9-2.1-11.5-14.3c0.7-1.6,1.8-2.9,3.1-3.9C2841.2,3027.3,2887.1,2997.3,2920,2953.2z"
		/>
	<path class="st2" d="M2438.4,3123.8l28.1-58.4c2.5-5.3,6.2-6.2,10.9-2.8c17.2,12.2,41.9,31.4,41,55.3c-0.9,23.6-12,45.5-33.3,65.6
		c-2.8,2.8-7.3,3-10.3,0.5l-40.3-32.6c-2-1.7-5-1.3-6.7,0.8c-0.5,0.6-0.8,1.3-1,2.1c-3.4,16.3-11.7,30.7-24.9,43
		c-4.3,4-10.8,4.3-15.4,0.6l-34-27.6c-7.3-5.9-8.9-13.1-4.9-21.6l30.3-63.1c4.7-9.8,11.4-11.4,20-4.9c14.3,10.8,26.4,25.2,36.2,43.2
		c0.7,1.1,2.1,1.5,3.2,0.8C2437.9,3124.5,2438.2,3124.2,2438.4,3123.8z"/>
	<path class="st1" d="M1035.2,3225.6h1971.3c2.7,0,5,2.2,5,5v60.6c0,2.7-2.2,5-5,5H1035.2c-2.7,0-5-2.2-5-5v-60.6
		C1030.3,3227.8,1032.5,3225.6,1035.2,3225.6z"/>
	<path class="st1" d="M492.5,3228.1H853c2,0,3.6,1.6,3.6,3.6v63.5c0,2-1.6,3.6-3.6,3.6H492.5c-2,0-3.6-1.6-3.6-3.6v-63.5
		C489,3229.7,490.5,3228.1,492.5,3228.1z"/>
	<path class="st2" d="M2419.4,3386.7l-22.4,8.3c-2,0.8-4.3-0.2-5.1-2.2c-0.2-0.5-0.3-1-0.3-1.6l0.2-19.8c0-1.5,0.9-2.9,2.3-3.6
		l56.7-25.6c2-0.9,4.3,0.1,5.1,2.1c0.2,0.5,0.3,1,0.3,1.5l0.7,147.7c0,2.2-1.7,3.9-3.9,3.9l-25.2,0.4c-2.2,0.1-4-1.6-4-3.8
		c0-0.1,0-0.2,0-0.2l0.8-103.3c0.1-2.2-1.6-4-3.8-4.1C2420.4,3386.4,2419.9,3386.5,2419.4,3386.7z"/>
	<path class="st2" d="M1102.9,3438c-51.5,28.4-81.2-39.2-52.5-74.5c17.8-21.9,67.1-24.4,84.3,4c23.9,39.3,2.7,91.2-28.7,121.7
		c-6.3,6.1-13.9,9.1-22.6,9.1h-15.8c-7.3,0-8.2-2.4-2.6-7.1c24.9-21.2,39.2-37.5,42.9-49C1109.8,3436.5,1108.1,3435,1102.9,3438z
		 M1091.3,3420.5c11,0,19.9-11.1,19.9-24.7l0,0c0-13.6-8.9-24.6-19.9-24.6c0,0,0,0,0,0c-11,0-19.9,11.1-19.9,24.7v0
		C1071.4,3409.6,1080.3,3420.6,1091.3,3420.5z"/>
	<path class="st2" d="M2619.5,3421.8l16.5,9.6c3.2,1.8,5.3,4.4,6.4,7.8c18.2,57.2-45.8,67.6-86.2,56.4c-3.4-0.9-5.7-4-5.7-7.5v-17.6
		c0-1.8,1.5-3.3,3.4-3.3c0.5,0,1,0.1,1.4,0.3c14.4,7.3,28.8,8.9,43.3,5c12.7-3.4,16.3-12.2,10.8-26.5c-1.4-3.8-4-6.4-7.8-7.7
		c-10.7-3.9-20.6-5.2-29.8-3.9c-4.2,0.6-6.3-1.3-6.3-5.6v-14.2c0-3.2,2.6-5.8,5.9-5.8c0.3,0,0.5,0,0.8,0c11.4,1.4,20.1,0,26.2-4.4
		c8.9-6.6,11.9-14.1,8.9-22.5c-1.4-3.9-4.1-6.4-8.2-7.6c-14.5-4.1-28.1-2.4-40.6,5c-0.8,0.5-1.8,0.2-2.3-0.6
		c-0.1-0.2-0.2-0.5-0.2-0.8v-20.1c0-2.6,1.2-4.3,3.7-5.2c25.3-9,47.7-8.1,67.1,2.8c20.8,11.8,19.7,52-6.3,59.1
		C2614.2,3416.2,2613.9,3418.7,2619.5,3421.8z"/>
	<path class="st2" d="M2805.4,3422.3c18.4,10,26.5,22.4,24.3,37.1c-6.8,44.6-58,46.1-93.1,34.5c-1.7-0.6-2.6-1.7-2.6-3.6v-22.4
		c0-2,0.9-2.5,2.6-1.5c17.8,9.3,34.2,10.9,49.1,4.6c8.9-3.8,13.1-14.1,9.3-22.9c-1.7-4.1-5-7.4-9.1-9.2c-9.9-4.3-20.6-6.1-32.1-5.2
		c-2.7,0.2-5-1.8-5.2-4.5c0-0.1,0-0.2,0-0.4v-14c0-3.2,1.6-4.9,4.9-4.9c14.2-0.1,23.3-1.4,27.1-4c10.4-7,13.4-15.4,9-25.2
		c-1.7-3.9-4.5-6.3-8.6-7.2c-11.2-2.6-23-1.4-35.4,3.6c-2.2,0.9-4.8-0.2-5.7-2.4c-0.2-0.5-0.3-1.1-0.3-1.6v-12.7
		c0-4.8,2.4-7.8,7.1-8.9c37.4-9.1,88.6-5.1,77,44.3c-2,8.4-7.9,14.4-17.6,18.2C2799.9,3416.4,2799.7,3419.2,2805.4,3422.3z"/>
	<path class="st2" d="M2953.3,3463.1c-1.8,1.4-2.2,4-0.8,5.8c0.8,1,2,1.7,3.3,1.7h52.2c3.8,0,5.7,1.9,5.7,5.7v15.5
		c0,3.9-1.9,5.8-5.8,5.8h-85.9c-5.1,0-7.5-2.5-7.3-7.6c0.6-18.2,5.2-31.5,13.9-40c8.3-8.2,22-20.2,41.1-36
		c8.4-6.9,11.9-16,10.5-27.2c-0.9-7.7-5.3-12-13-12.9c-16.8-2.1-31,2.1-42.6,12.4c-0.7,0.5-1.6,0.4-2.2-0.3
		c-0.2-0.3-0.3-0.6-0.3-0.9v-24.2c0-1.8,1-3.5,2.6-4.3c20.8-10.3,41.2-12.6,61.3-7c25.6,7.2,32.8,32.6,25.8,55.2
		C3004.7,3427.8,2976.1,3445.4,2953.3,3463.1z"/>
	<path class="st2" d="M528.4,3412.6l39.3,0.1c2.7,0,5,2.2,5,5c0,0,0,0.1,0,0.1l-0.6,17.8c-0.1,2.7-2.3,4.9-5.1,4.9c0,0,0,0,0,0
		l-38-1.2c-2.7-0.1-5,2.1-5.1,4.9c0,0,0,0.1,0,0.1l0.1,48.4c0.1,2.7-2.1,5-4.9,5.1c-0.1,0-0.2,0-0.2,0l-23.8-0.4c-2.7,0-5-2.2-5-5
		l0.1-138.6c0-2.7,2.2-5,5-5l76.6,0.2c2.7,0,5,2.2,5,5c0,0,0,0.1,0,0.1l-0.5,17.5c-0.1,2.7-2.3,4.9-5,4.9l-42.5-0.5
		c-2.7-0.1-5,2.1-5.1,4.9c0,0,0,0.1,0,0.1l-0.4,26.4c-0.1,2.7,2.1,5,4.9,5.1C528.3,3412.6,528.3,3412.6,528.4,3412.6z"/>
	<path class="st2" d="M746.8,3454.7c0.9,0,1.5-0.6,1.9-1.9c8.1-26.4,19.1-59.2,33-98.2c1.3-3.5,3.8-5.2,7.5-5.2h37.3
		c3.9,0,5.8,1.9,5.8,5.8v136.5c0,3.5-2.8,6.3-6.2,6.3h-20.3c-4.5,0-6.7-2.3-6.5-6.9c1.3-31.8,1.5-62.1,0.7-90.7
		c-0.3-9.9-2.1-10.2-5.3-0.8l-32,90.8c-1.3,3.6-3.8,5.9-7.6,6.9c-2.2,0.5-5.1,0.7-8.6,0.7c-3.5-0.1-6.3-0.4-8.5-0.8
		c-3.8-0.9-6.3-3.3-7.6-7l-30.8-91.2c-3.2-9.4-4.9-9.1-5.3,0.8c-1.2,28.6-1.3,58.8-0.5,90.7c0.2,4.6-2,6.8-6.5,6.8l-20.3-0.2
		c-3.4,0-6.2-2.8-6.2-6.3c0,0,0-0.1,0-0.1l1.7-136.5c0.1-3.9,2.1-5.8,5.9-5.7l37.3,0.5c3.7,0,6.2,1.7,7.3,5.2
		c13.5,39.2,24.1,72.1,31.9,98.6C745.4,3454,746,3454.7,746.8,3454.7z"/>
	<path class="st2" d="M1258.9,3443.4h19.7c4,0,6-2,6-6v-17.3c0-6.7,3.4-10.1,10.1-10.1h12.1c4.5,0,8.2,3.7,8.2,8.3v18.6
		c0,4.1,2.1,6.2,6.2,6.2h4.1c4.8,0,7.8,2.3,8.9,7c0.8,3.6,0.4,7.9-1.3,12.8c-1.5,4.3-4.4,6-8.8,5.2c-1.5-0.2-3-0.3-4.4-0.1
		c-3.4,0.5-5.1,2.4-5.1,5.7v17.9c0,3.9-1.9,5.8-5.7,5.8h-17.8c-4.3,0-6.5-2.2-6.5-6.6v-16.6c0-4.7-2.4-7-7.1-7h-47
		c-6.9,0-12.6-5.6-12.6-12.5c0-2.2,0.6-4.3,1.7-6.2l54.5-94.3c2-3.5,5-5.2,9-5.2h16.7c2.7,0,5,2.2,5,4.9c0,0.9-0.2,1.8-0.7,2.6
		l-47.7,82.8C1254.8,3442,1255.6,3443.4,1258.9,3443.4z"/>
	<path class="st2" d="M1862.7,3348.8c6.4,0,11.4,0.3,15,0.8c3.6,0.5,6.1,2.4,7.3,5.9l48.2,135.5c0.9,2.7-0.5,5.7-3.2,6.6
		c-0.5,0.2-1.1,0.3-1.7,0.3h-22.7c-4.1,0-6.9-1.9-8.3-5.8l-7.8-22c-1.3-3.5-3.8-5.2-7.5-5.1c-6.7,0.1-13.3,0.1-19.9,0
		c-6.6,0-13.2-0.1-19.9-0.2c-3.7-0.1-6.2,1.6-7.6,5.1l-8.1,21.9c-1.4,3.9-4.2,5.8-8.3,5.8l-22.7-0.2c-2.8,0-5.1-2.4-5-5.2
		c0-0.6,0.1-1.1,0.3-1.6l49.4-135.1c1.3-3.5,3.7-5.4,7.3-5.8C1851.2,3348.9,1856.3,3348.7,1862.7,3348.8z M1861.9,3438.7
		c4.2-0.1,8.2-0.6,12.1-1.7c3.9-1.1,5.3-3.6,4-7.5c-10.7-33.1-16.5-49.6-17.3-49.6c-0.7,0-5.8,16.7-15.3,50.2
		c-1.2,3.9,0.2,6.4,4.3,7.3C1853.6,3438.3,1857.7,3438.7,1861.9,3438.7z"/>
	<path class="st2" d="M2099.9,3451.6c0.2,0,0.3,0,0.5-0.1c0.3,0,0.5-0.1,0.6-0.4c11.4-31.8,22.7-63.8,34-95.9
		c1.3-3.9,4.1-5.8,8.2-5.8h34.8c4.8,0,7.2,2.4,7.2,7.2v135.1c0,3.5-2.8,6.4-6.3,6.4h-19.9c-4.3,0-6.5-2.2-6.4-6.5l1.8-106.6
		c0-2.3-0.4-2.4-1.1-0.2l-37.1,105.4c-1.3,3.6-3.7,5.8-7.3,6.8c-2.4,0.6-5.5,0.9-9.4,0.9c-3.8-0.1-6.9-0.4-9.2-1.1
		c-3.6-1-6-3.3-7.2-6.9l-35.4-106c-0.7-2.1-1.1-2.1-1.1,0.2v106.6c0.1,4.3-2.1,6.5-6.4,6.4l-19.9-0.4c-3.5,0-6.3-2.9-6.3-6.4
		c0,0,0-0.1,0-0.1l2.2-135.1c0.1-4.8,2.5-7.2,7.3-7.1l34.8,0.6c4.1,0.1,6.8,2.1,8.1,5.9c10.7,32.4,21.6,64.5,32.4,96.5
		c0.1,0.2,0.3,0.4,0.6,0.4C2099.7,3451.5,2099.8,3451.6,2099.9,3451.6z"/>
	<path class="st2" d="M1539.7,3428.6h46.4c2.7,0,5,2.2,5,5v14.9c0,2.7-2.2,5-5,5h-46.4c-2.7,0-5-2.2-5-5v-14.9
		C1534.7,3430.8,1537,3428.6,1539.7,3428.6z"/>
</g>
</svg>
