<?xml version="1.0" encoding="utf-8"?>
<!-- Generator: Adobe Illustrator 27.7.0, SVG Export Plug-In . SVG Version: 6.00 Build 0)  -->
<svg version="1.1" id="Layer_1" xmlns="http://www.w3.org/2000/svg" xmlns:xlink="http://www.w3.org/1999/xlink" x="0px" y="0px"
	 viewBox="0 0 3500 3500" style="enable-background:new 0 0 3500 3500;" xml:space="preserve">
<style type="text/css">
	.st0{fill:#04080B;}
	.st1{fill:#FE1902;}
	.st2{fill:#FFFFFF;}
</style>
<rect y="1200.7" class="st0" width="3500" height="1098.6"/>
<g>
	<g>
		<path class="st1" d="M2796,1492.1h-23.9c-2.2-0.1-4.5-0.2-7-0.2c-115-0.3-230.1-0.2-345.1,0.1c-0.4,0-0.8,0.1-1.2,0.1h-30.9v132.1
			h103.6c6.8,0.7,13.8,2.1,21.6,3.2c0.2,4.9,0.5,9.3,0.7,13.5l-1.5,324.6c-0.7,8.1-1.5,16.2-1.8,24.3c-0.3,5.9,0.2,11.9,0.7,18.6
			h160.1c0-10,0-18.9,0-27.8c-0.1-109-0.2-218.1-0.2-327.1c0-6,0.1-12,0.7-18c0.5-4.9,2.1-8.6,4.7-11.4H2796v-95.1
			c0.1-1.9,0.2-3.8,0.3-5.8c0.2-5.4,0.1-9.8-0.3-13.5L2796,1492.1L2796,1492.1z"/>
		<path class="st1" d="M3148.2,1492.7L3148.2,1492.7L3148.2,1492.7l-94.3,371.9l0,0c-1.3,2.1-2.6,4.2-4.1,6.2
			c-5.1-22.7-9.1-38.8-12.4-55.2c-19.1-97-37.9-194-57.1-291c-6.2-31.6-7.6-32.6-38.9-32.8c-35-0.2-70-0.3-104.9,0.1
			c-8.5,0.1-16.9,2.1-25,3.2c0.4,28.4,111.5,434.8,138.3,513.3h202.2c1.6-2.8,3-6,4-10c1.4-5.8,4.2-11.2,6-16.9
			c45-148.2,90-296.3,134.7-444.6c3.9-12.9,6.1-26.4,9.8-42.7C3251.9,1490,3201.5,1491.8,3148.2,1492.7L3148.2,1492.7z"/>
	</g>
	<path class="st2" d="M771,2004.4H598.2c-3-29.4-0.9-59.1-1.3-88.5c-0.4-31-0.1-62-0.1-93c0-30,0-60,0-90c0-29.9,0-59.7,0-89.7
		c-5.9-2-9.6-4.3-13.2-4.3c-39,0.6-78,0.1-116.9,2.7c-57.7,4-96.9,42.8-100.4,96.5c-3.7,56.7,28.5,102.5,83.3,115.4
		c19.2,4.5,39.5,5.1,59.3,6.6c11.7,0.9,23.6,0.2,37.3,0.2V2005c-76.5,3.1-151.1,3.6-218.7-31.3c-63.8-32.9-107.7-86.7-125.1-157.2
		c-20.2-81.7-6.8-159.7,41.7-228.8c43.6-62.2,107.5-92.5,182.1-94.6c108.9-3,217.9-1.8,326.8-2.3c3.9,0,7.8,1.1,16.3,2.4
		c3.5,32.8,1.1,66.4,1.5,99.8c0.4,34,0,68,0,102c0,35,0,70,0,105c0,34,0.1,68,0.1,102C771,1935.6,771,1969.2,771,2004.4L771,2004.4z
		"/>
	<path class="st2" d="M1722.5,1493.4v511h-171.8v-361.7c-9.3-2-15.9-4.6-22.4-4.5c-37,0.7-74.1,0.5-110.9,3.6
		c-56.7,4.7-93.2,42.2-97,96.1c-4.1,58,26.9,102.8,82.3,115.8c19.2,4.5,39.5,5,59.4,6.5c11.7,0.9,23.5,0.2,37.4,0.2v142.1
		c-5.1,1.1-10.8,3.8-16.2,3.4c-46.8-3.2-94.3-2.9-140.1-11.5c-95.2-17.9-154.2-79.3-184.2-169.4c-23.4-70.3-13.5-139.2,18.5-203.8
		c40.2-81.4,109.7-124.5,199.4-127.6c110.9-3.8,222-1.9,333-2.4C1712.8,1491,1715.8,1492.1,1722.5,1493.4L1722.5,1493.4z"/>
	<path class="st2" d="M1767.2,1869.8c22.8,0,41.7,0.7,60.6-0.1c49.2-2.1,86.7-23.2,105.5-70.3c18.5-46.1,9-88.5-21.9-126.2
		c-22.5-27.4-54.2-36.4-87.9-38.7c-17.8-1.2-35.7-0.2-56-0.2v-137.7c98.2-18.4,179.8,14.2,251.2,83.9c68-66.8,146-99.5,242.3-85.3
		v136.9c-15.2,0.7-29.8,1.4-44.5,2.2c-63.6,3.3-103.8,36.1-117.7,96c-14.7,63.6,24.7,124.9,88.9,136c23.4,4,47.4,4.3,73.2,6.5v132.5
		c-95.1,15.7-173.6-14-241.6-83.8c-34.8,31.4-69.9,60.2-114.4,75.3c-45,15.3-90,13.2-137.8,9.2L1767.2,1869.8L1767.2,1869.8z"/>
	<path class="st2" d="M1223.9,1493.2c-49.6,39.4-84.3,83.6-104.7,141.2c-16,1.2-32.8,2-49.3,3.9c-55.6,6.3-73.7,25.4-74.2,81.3
		c-0.8,83-0.3,166-0.4,248.9c0,10.8,0,21.6,0,31.6c-24.2,7.4-143.1,8.7-175.8,2.4c-0.7-5.3-2-11.1-2-16.8c0-103-0.5-206,0.7-308.9
		c0.6-53.4,20.8-99.3,61.3-135.1c31.7-27.9,69.3-46.2,111-47.6C1066.2,1491.2,1142.1,1493.2,1223.9,1493.2L1223.9,1493.2z"/>
</g>
</svg>
