<?xml version="1.0" encoding="utf-8"?>
<!-- Generator: Adobe Illustrator 27.7.0, SVG Export Plug-In . SVG Version: 6.00 Build 0)  -->
<svg version="1.1" id="Layer_1" xmlns="http://www.w3.org/2000/svg" xmlns:xlink="http://www.w3.org/1999/xlink" x="0px" y="0px"
	 viewBox="0 0 3500 3500" style="enable-background:new 0 0 3500 3500;" xml:space="preserve">
<style type="text/css">
	.st0{fill:none;stroke:#80DAF0;stroke-width:2;}
	.st1{fill:#00B4E0;}
	.st2{fill:#FFFFFF;}
</style>
<g>
	<path vector-effect="non-scaling-stroke" class="st0" d="M2082.2,861.1c0-205.6-166.7-372.3-372.3-372.3
		c-205.6,0-372.3,166.7-372.3,372.3s166.7,372.3,372.3,372.3l0,0C1915.6,1233.4,2082.2,1066.7,2082.2,861.1"/>
	<path vector-effect="non-scaling-stroke" class="st0" d="M2716.7,1901.8c-68.5-105.2-146.1-201.8-238.2-284.8
		c-216.4-195-484.4-279.1-777.8-287.4c-2.6-0.1-3.8,1.2-3.8,3.7l-0.1,298.7c0,1.2,0.6,1.8,1.8,1.9c76.6,5.9,149.4,18.9,218.5,39
		c224,65.2,394.7,220.3,536.6,399.5c0.7,0.9,2.1,1.2,3.1,0.6c89.9-54.8,176-109.7,258.5-164.5
		C2718,1906.8,2718.5,1904.5,2716.7,1901.8"/>
	<path vector-effect="non-scaling-stroke" class="st0" d="M2372.2,2134.7c-186.8-280.2-487.7-444.5-828.7-383.3
		c-175,31.4-337.7,125.1-456.8,253.7C979.2,2121.4,911.7,2258.4,884,2416c-0.3,2,0.5,3.3,2.5,3.7c100.3,23.3,202,33,305.8,46.9
		c2,0.3,3.3-0.5,3.9-2.4c70.5-203.7,230.1-385.8,455.2-407.9c57.3-5.7,110-1.4,158.1,12.7c120.5,35.5,234.1,121.3,312.7,220.2
		c0.8,1.1,2.4,1.3,3.5,0.6l246.2-153.1C2372.5,2136.2,2372.7,2135.4,2372.2,2134.7C2372.3,2134.8,2372.3,2134.7,2372.2,2134.7"/>
	<path vector-effect="non-scaling-stroke" class="st0" d="M2055.2,2542.5c0-205.6-166.7-372.3-372.3-372.3s-372.3,166.7-372.3,372.3
		l0,0c0,205.6,166.7,372.3,372.3,372.3h0C1888.5,2914.9,2055.2,2748.2,2055.2,2542.5C2055.2,2542.5,2055.2,2542.5,2055.2,2542.5"/>
</g>
<path class="st1" d="M3500,1746.4c1.6,921.8-780.3,1670.4-1746.5,1672.1C787.3,3420.1,2.8,2674.2,1.2,1752.5c0,0,0,0,0,0
	C-0.4,830.7,781.5,82.1,1747.7,80.4C2713.9,78.7,3498.4,824.6,3500,1746.4C3500,1746.4,3500,1746.4,3500,1746.4z M2082.2,861.1
	c0-205.6-166.7-372.3-372.3-372.3c-205.6,0-372.3,166.7-372.3,372.3s166.7,372.3,372.3,372.3l0,0
	C1915.6,1233.4,2082.2,1066.7,2082.2,861.1z M2716.7,1901.8c-68.5-105.2-146.1-201.8-238.2-284.8
	c-216.4-195-484.4-279.1-777.8-287.4c-2.6-0.1-3.8,1.2-3.8,3.7l-0.1,298.7c0,1.2,0.6,1.8,1.8,1.9c76.6,5.9,149.4,18.9,218.5,39
	c224,65.2,394.7,220.3,536.6,399.5c0.7,0.9,2.1,1.2,3.1,0.6c89.9-54.8,176-109.7,258.5-164.5
	C2718,1906.8,2718.5,1904.5,2716.7,1901.8z M2372.2,2134.7c-186.8-280.2-487.7-444.5-828.7-383.3c-175,31.4-337.7,125.1-456.8,253.7
	C979.2,2121.4,911.7,2258.4,884,2416c-0.3,2,0.5,3.3,2.5,3.7c100.3,23.3,202,33,305.8,46.9c2,0.3,3.3-0.5,3.9-2.4
	c70.5-203.7,230.1-385.8,455.2-407.9c57.3-5.7,110-1.4,158.1,12.7c120.5,35.5,234.1,121.3,312.7,220.2c0.8,1.1,2.4,1.3,3.5,0.6
	l246.2-153.1C2372.5,2136.2,2372.7,2135.4,2372.2,2134.7C2372.3,2134.8,2372.3,2134.7,2372.2,2134.7z M2055.2,2542.5
	c0-205.6-166.7-372.3-372.3-372.3s-372.3,166.7-372.3,372.3l0,0c0,205.6,166.7,372.3,372.3,372.3h0
	C1888.5,2914.9,2055.2,2748.2,2055.2,2542.5C2055.2,2542.5,2055.2,2542.5,2055.2,2542.5z"/>
<circle class="st2" cx="1710" cy="861.1" r="372.3"/>
<path class="st2" d="M2478.6,1617.1c92,83,169.7,179.6,238.2,284.8c1.8,2.7,1.3,5-1.4,6.8c-82.5,54.8-168.6,109.7-258.5,164.5
	c-1.1,0.6-2.4,0.4-3.1-0.6c-141.9-179.2-312.7-334.3-536.6-399.5c-69-20.1-141.8-33.1-218.5-39c-1.2-0.1-1.8-0.7-1.8-1.9l0.1-298.7
	c0-2.6,1.3-3.8,3.8-3.7C1994.2,1338,2262.1,1422,2478.6,1617.1z"/>
<path class="st2" d="M1543.5,1751.5c341-61.3,642,103.1,828.7,383.3c0.4,0.6,0.3,1.4-0.3,1.8c0,0-0.1,0-0.1,0.1l-246.2,153.1
	c-1.2,0.7-2.7,0.5-3.5-0.6c-78.5-98.9-192.1-184.7-312.7-220.2c-48.1-14.2-100.8-18.4-158.1-12.7
	c-225.1,22.1-384.7,204.3-455.2,407.9c-0.6,1.9-1.9,2.7-3.9,2.4c-103.7-13.9-205.5-23.6-305.8-46.9c-2-0.5-2.8-1.7-2.5-3.7
	c27.7-157.6,95.2-294.5,202.7-410.8C1205.8,1876.5,1368.5,1782.9,1543.5,1751.5z"/>
<circle class="st2" cx="1682.8" cy="2542.5" r="372.3"/>
</svg>
