<?xml version="1.0" encoding="utf-8"?>
<!-- Generator: Adobe Illustrator 27.7.0, SVG Export Plug-In . SVG Version: 6.00 Build 0)  -->
<svg version="1.1" id="Layer_1" xmlns="http://www.w3.org/2000/svg" xmlns:xlink="http://www.w3.org/1999/xlink" x="0px" y="0px"
	 viewBox="0 0 3500 3500" style="enable-background:new 0 0 3500 3500;" xml:space="preserve">
<style type="text/css">
	.st0{fill:#1355A9;}
	.st1{fill:#080B15;}
	.st2{fill:#B7CFFD;}
	.st3{fill:#010101;}
	.st4{fill:#FFFFFF;}
</style>
<g>
	<ellipse class="st0" cx="1468.4" cy="1750" rx="1447.4" ry="1262.6"/>
	<path class="st1" d="M1468.4,3033.6c-197.9,0-389.9-33.8-570.7-100.5c-86.9-32.1-170.8-71.8-249.3-118
		c-77.8-45.8-150.9-98.5-217.4-156.4c-66.5-58-126.9-121.9-179.5-189.8c-53.2-68.6-98.8-142-135.7-218.2C39,2092.1,0,1923.6,0,1750
		s39-342.1,115.8-500.6c36.9-76.1,82.6-149.5,135.7-218.2c52.6-67.9,113-131.8,179.5-189.8S570.6,730.8,648.4,685
		c78.5-46.2,162.3-85.9,249.3-118c180.8-66.7,372.8-100.5,570.7-100.5s389.9,33.8,570.7,100.5c86.9,32.1,170.8,71.8,249.3,118
		c77.8,45.8,150.9,98.5,217.4,156.4c66.5,58,126.9,121.9,179.5,189.8c53.2,68.6,98.8,142,135.7,218.2
		c76.9,158.5,115.8,327,115.8,500.6s-39,342.1-115.8,500.6c-36.9,76.1-82.6,149.5-135.7,218.2c-52.6,67.9-113,131.8-179.5,189.8
		s-139.6,110.6-217.4,156.4c-78.5,46.2-162.3,85.9-249.3,118c-180.8,66.7-372.8,100.5-570.7,100.5L1468.4,3033.6z M1468.4,508.4
		C681.9,508.4,42,1065.4,42,1750s639.9,1241.6,1426.4,1241.6s1426.4-557,1426.4-1241.6S2254.9,508.4,1468.4,508.4z"/>
</g>
<g>
	<path class="st2" d="M3109.3,2474.7c12.3-9.8,27-17.7,36.4-29.7c34.8-44.5,66.9-91.1,101.6-135.5c36.9-47.1,75.1-93.2,114.1-138.7
		c7.7-9,20.9-17.6,32.1-18.2c27.1-1.4,54.4,2,83.1,3.5c-0.5,9.4,1.1,15.2-1.1,17.9c-46.6,57.1-93.6,113.9-140.6,170.6
		c-25.7,31-52.3,61.3-77.6,92.6c-36.2,44.9-71.2,90.7-107.5,135.6c-15.2,18.8-31.5,36.8-48.5,53.9c-16.2,16.3-82.8,20.2-98.3,4.1
		c-8.2-8.6-12.4-24.2-12.6-36.7c-0.8-86.8-0.2-173.5,0-260.3c0.1-42.8,0.3-85.6,0.7-128.4c0.3-44.9,9.9-54.2,55.7-54.4
		c55.9-0.3,60.7,5.2,57.6,62.4c-3.8,69.3-7.5,138.6-10.2,207.9c-0.7,16.6,2.7,33.4,4.3,50.1
		C3102.1,2472.5,3105.7,2473.6,3109.3,2474.7L3109.3,2474.7z"/>
	<path class="st3" d="M3050.8,2151c52.2,0,56.7,6.6,53.6,62.4c-3.8,69.3-7.5,138.6-10.2,207.9c-0.7,16.6,2.7,33.4,4.3,50.1
		c3.6,1.1,7.2,2.2,10.8,3.3c12.3-9.8,27-17.7,36.4-29.7c34.8-44.5,66.9-91.1,101.6-135.5c36.9-47.1,75.1-93.2,114.1-138.7
		c7.7-9,20.9-17.6,32.1-18.2c4.5-0.2,9-0.3,13.5-0.3c22.7,0,45.6,2.6,69.6,3.9c-0.5,9.4,1.1,15.2-1.1,17.9
		c-46.6,57.1-93.6,113.9-140.6,170.6c-25.7,31-52.3,61.3-77.6,92.6c-36.2,44.9-71.2,90.7-107.5,135.6
		c-15.2,18.8-31.5,36.8-48.5,53.9c-9.1,9.1-34.1,14.4-56.9,14.4s-34.5-3.2-41.3-10.3c-8.2-8.6-12.4-24.2-12.6-36.7
		c-0.8-86.8-0.2-173.5,0-260.3c0.1-42.8,0.3-85.6,0.7-128.4c0.3-44.9,9.9-54.2,55.7-54.4c1.4,0,2.7,0,4,0 M3050.8,2128.6v22.4
		V2128.6c-1.3,0-2.7,0-4.1,0c-26.1,0.1-46.3,3.1-60.5,16.8c-14.3,14-17.4,34-17.5,59.8c-0.3,42.9-0.5,86.1-0.7,128.5
		c0,18.5-0.1,37.1-0.2,55.6c-0.3,67.2-0.5,136.6,0.1,205c0.2,15.8,5.2,37.8,18.8,52s38.8,17.2,57.5,17.2s27.1-1.6,38.8-4.4
		c15.2-3.6,26.6-9.2,33.9-16.6c17.8-17.8,34.7-36.6,50.1-55.7c18.4-22.8,36.8-46.2,54.5-68.8c17.3-22,35.1-44.7,53-66.8
		c15-18.6,30.8-37.2,46.1-55.2c10.3-12.1,21-24.7,31.3-37.2c55.3-66.6,100-120.9,140.7-170.8c6.7-8.2,6.4-17.3,6.2-23.9
		c0-2.2-0.2-4.5,0-7.1l1.1-22.2l-22.2-1.2c-8.1-0.4-16.3-1-24.2-1.6c-15.2-1.1-30.9-2.3-46.5-2.3s-10,0.1-14.7,0.4
		c-19.8,1-38.2,14.7-47.9,26c-43.5,50.7-81,96.3-114.7,139.4c-17.7,22.6-34.9,46.1-51.6,68.7c-16.2,22.1-33,45-50.1,66.8
		c-2.6,3.4-6.3,6.6-10.6,9.8c-0.7-6.5-1.1-12.8-0.9-18.8c2.6-65.9,5.9-130.6,10.2-207.5c0.8-15.2,1.2-27.4,0-37.7
		c-0.9-8.8-3.3-21.6-13-31.9C3099.3,2129.7,3077.6,2128.5,3050.8,2128.6L3050.8,2128.6L3050.8,2128.6z"/>
</g>
<g>
	<path class="st2" d="M2702.1,2243.5c-17.9-7.2-30.4-12.2-47.9-19.3c8.4-21.4,13.5-43.1,25.2-60.4c6-8.9,23.4-13,36.1-13.9
		c20.4-1.5,37.7-6.3,43.3-27.3c10.8-41,40.5-62.7,76.1-79.4c23.6-11.1,47.2-22.2,74.5-35c6.8,50.2-32.4,85.4-28.1,133.6
		c18.6,5.7,37.6,11.5,55.9,17.1c-0.9,44.9-24,72.5-62.7,72c-31.7-0.4-48.6,14-59.8,41.8c-27,67.4-55.1,134.3-83.2,201.2
		c-4.4,10.5-7.6,21.7-11.2,32.6c-18.1,55.1-14.6,53.4,21.8,67c9.5,3.5,19.3,6.4,28.2,9.3c2.7,47.1-11.2,66.1-53.7,68.4
		c-26.3,1.5-53.5,0.5-79.1-4.8c-51.2-10.6-70.4-56.4-48.6-104.1c13.9-30.4,23.5-62.7,35.8-93.8c22.5-56.7,45.8-113.1,68.3-169.8
		c4.1-10.4,5.8-21.7,9.3-35.1L2702.1,2243.5z"/>
	<path class="st3" d="M2909.2,2008.2c6.8,50.2-32.4,85.4-28.1,133.6c18.6,5.7,37.6,11.5,55.9,17.1c-0.9,44.5-23.6,72-61.7,72
		s-0.7,0-1,0c-0.4,0-0.9,0-1.3,0c-30.9,0-47.5,14.4-58.5,41.8c-27,67.4-55.1,134.3-83.2,201.2c-4.4,10.5-7.6,21.7-11.2,32.6
		c-18.1,55.1-14.6,53.4,21.8,67c9.5,3.5,19.3,6.4,28.2,9.3c2.7,47.1-11.2,66.1-53.7,68.4c-7.2,0.4-14.5,0.6-21.7,0.6
		c-19.3,0-38.8-1.6-57.4-5.4c-51.2-10.6-70.4-56.4-48.6-104.1c13.9-30.4,23.5-62.7,35.8-93.8c22.5-56.7,45.8-113.1,68.3-169.8
		c4.1-10.4,5.8-21.7,9.3-35.1c-17.9-7.2-30.4-12.2-47.9-19.3c8.4-21.4,13.5-43.1,25.2-60.4c6-8.9,23.4-13,36.1-13.9
		c20.4-1.5,37.7-6.3,43.3-27.3c10.8-41,40.5-62.7,76.1-79.4c23.6-11.1,47.2-22.2,74.5-35 M2927.3,1975l-27.6,13
		c-8.7,4.1-17.1,8-25.1,11.8c-17.2,8.1-33.2,15.6-49.3,23.2c-33.7,15.8-74.2,40.8-88.2,93.9c-1.2,4.7-2.4,9.2-23.2,10.7
		c-11.7,0.8-40.3,4.9-53,23.8c-9.8,14.6-15.4,30.8-20.9,46.5c-2.1,6-4.2,12.3-6.6,18.2l-8.1,20.7l20.6,8.3l30.1,12.1
		c-1.2,5-2.4,9.4-3.9,13.3c-11.4,28.8-23.2,58.1-34.7,86.3c-11.1,27.3-22.5,55.6-33.6,83.5c-4.9,12.5-9.5,25.2-13.8,37.4
		c-6.9,19.4-13.4,37.6-21.5,55.3c-6.9,15-10.5,30.2-10.9,45.2c-0.4,15.4,2.8,29.7,9.4,42.7c12.3,24.4,35.7,41.2,65.9,47.5
		c18.9,3.9,39.7,5.9,61.9,5.9s15.2-0.2,23-0.7c26.7-1.5,45-8.8,57.6-23c7.4-8.3,12.5-18.9,15.1-31.5c2.2-10.5,2.9-22.8,2-37.7
		l-0.9-15.2l-14.5-4.7c-2.8-0.9-5.8-1.9-8.7-2.8c-6.2-2-12.6-4-18.7-6.2c-1.7-0.6-3.3-1.2-4.8-1.8c-4.6-1.7-9.6-3.5-12.8-5
		c1.3-7.9,6.7-24.5,9.3-32.2c0.9-2.7,1.8-5.5,2.6-8.1c2.6-8.1,5-15.7,8-22.8c27-64.3,55.8-132.8,83.3-201.6
		c8.3-20.7,17.8-27.7,37.7-27.7c0.3,0,0.7,0,1,0c0.4,0,0.9,0,1.3,0c25.4,0,46.8-9.4,61.8-27.2c14-16.5,21.6-39.5,22.2-66.7l0.4-16.9
		l-16.2-5l-39.8-12.2c1.7-12.7,6.7-25.3,12.3-39.2c9.2-23.1,19.6-49.2,15.3-81L2927.3,1975L2927.3,1975L2927.3,1975z"/>
</g>
<g>
	<g>
		<path class="st4" d="M2038.8,1431.5c-12.6,39.9-23.1,73-33.6,106.1c3,2.3,6,4.6,9,7c26.7-16.5,53.7-32.5,80.1-49.5
			c76.8-49.4,158.7-86.1,251.1-90.6c36.4-1.8,74.1,2,109.6,10c69.4,15.6,116.3,82,114.1,154c-1.4,47.2-3.9,94.4-31.8,136
			c-6.8,10.2-7.7,24.2-12.8,35.8c-39.7,90.7-80.1,181-119.6,271.8c-11.1,25.4-19.2,52.1-29.9,77.7c-30.4,72.2-61.2,144.2-92.6,216
			c-7.8,17.8-17.4,34.9-28.3,50.9c-4.5,6.6-14.6,13-22.2,13.1c-68.2,0.7-136.4,0-204.6-0.5c-2.9,0-5.8-3-13.4-7.3
			c17.6-42.1,35-84.4,53.2-126.3c5.4-12.5,14.4-23.5,19.9-35.9c35.1-79,69.8-158.2,104.6-237.3c23.6-53.7,47.4-107.3,71.1-160.9
			c12.9-29.2,26-58.4,38.8-87.7c2.3-5.3,3.9-10.9,5.4-16.5c23.9-88.6-27.3-144.8-117.8-128.2c-50.9,9.3-96.1,33.5-137.6,62.9
			c-77.8,55-135.1,126.8-172.9,215.1c-28.9,67.4-64.6,131.9-94.1,199.1c-35.7,81.2-67.9,163.9-102,245.8
			c-10.9,26.1-23,51.6-34.1,76.2h-237.7c13-31.6,23.6-58.8,35.3-85.6c12.4-28.3,26.4-55.9,38.9-84.3c33.3-75.9,66.1-152,99.1-228
			c21.5-49.5,43-99.1,64.7-148.6c45.2-103.2,90.5-206.4,136.1-309.4c4.6-10.4,14.6-19,16.8-29.6c9.7-47.1,39.1-58.5,83.3-54.5
			c37.8,3.5,76.3,0.6,114.4,0.8C2010.5,1429.1,2021.6,1430.4,2038.8,1431.5L2038.8,1431.5z"/>
		<path class="st3" d="M2363.3,1404.1c30.7,0,62,3.7,91.8,10.4c69.4,15.6,116.3,82,114.1,154c-1.4,47.2-3.9,94.4-31.8,136
			c-6.8,10.2-7.7,24.2-12.8,35.8c-39.7,90.7-80.1,181-119.6,271.8c-11.1,25.4-19.2,52.1-29.9,77.7c-30.4,72.2-61.2,144.2-92.6,216
			c-7.8,17.8-17.4,34.9-28.3,50.9c-4.5,6.6-14.6,13-22.2,13.1c-21.6,0.2-43.3,0.3-64.9,0.3c-46.5,0-93.1-0.4-139.6-0.8
			c-2.9,0-5.8-3-13.4-7.3c17.6-42.1,35-84.4,53.2-126.3c5.4-12.5,14.4-23.5,19.9-35.9c35.1-79,69.8-158.2,104.6-237.3
			c23.6-53.7,47.4-107.3,71.1-160.9c12.9-29.2,26-58.4,38.8-87.7c2.3-5.3,3.9-10.9,5.4-16.5c21.1-78.2-16.2-131.1-87.5-131.1
			c-9.5,0-19.6,0.9-30.3,2.9c-50.9,9.3-96.1,33.5-137.6,62.9c-77.8,55-135.1,126.8-172.9,215.1c-28.9,67.4-64.6,131.9-94.1,199.1
			c-35.7,81.2-67.9,163.9-102,245.8c-10.9,26.1-23,51.6-34.1,76.2h-237.7c13-31.6,23.6-58.8,35.3-85.6
			c12.4-28.3,26.4-55.9,38.9-84.3c33.3-75.9,66.1-152,99.1-228c21.5-49.5,43-99.1,64.7-148.6c45.2-103.2,90.5-206.4,136.1-309.4
			c4.6-10.4,14.6-19,16.8-29.6c8.5-41.4,32.2-55.2,67.8-55.2s10.1,0.3,15.4,0.8c14.4,1.3,28.9,1.7,43.4,1.7c22,0,44.2-0.9,66.2-0.9
			s3.2,0,4.8,0c11.2,0,22.3,1.3,39.4,2.3c-12.6,39.9-23.1,73-33.6,106.1c3,2.3,6,4.6,9,7c26.7-16.5,53.7-32.5,80.1-49.5
			c76.8-49.4,158.7-86.1,251.1-90.6C2351.3,1404.2,2357.3,1404.1,2363.3,1404.1 M2363.3,1381.7c-6.3,0-12.7,0.2-18.9,0.5
			c-85.3,4.1-168.6,34.1-262.1,94.1c-13.9,9-28.3,17.8-42.5,26.5l15.9-50.4l4.5-14.1l8.6-27.4l-28.6-1.7c-5.7-0.3-10.9-0.7-15.4-1.1
			c-9.2-0.7-17.1-1.2-25.2-1.3c-1.6,0-3.3,0-4.9,0c-11.3,0-22.6,0.2-33.6,0.5c-10.7,0.2-21.9,0.5-32.6,0.5
			c-16.1,0-29.3-0.5-41.4-1.6c-6.1-0.6-12-0.8-17.5-0.8c-23.9,0-42.8,5.4-57.6,16.6c-16.2,12.2-27,31.2-32.2,56.5
			c-0.4,1.6-3.4,5.9-5.4,8.7c-3.3,4.7-7.1,9.9-9.9,16.4c-44,99.4-87.7,199-136.1,309.5c-17.2,39.3-34.6,79.3-51.4,118
			c-4.4,10.2-8.9,20.4-13.3,30.6c-10.4,23.9-20.9,48.1-31.1,71.6c-22.2,51.3-45.2,104.3-68,156.3c-6.1,13.9-12.7,28-19.2,41.6
			c-6.6,13.9-13.4,28.2-19.7,42.7c-8.2,18.6-15.8,37.5-23.9,57.5c-3.7,9.2-7.6,18.7-11.6,28.6l-12.7,30.9H1663l5.9-13.2
			c3.4-7.6,6.8-15.1,10.5-23c8-17.4,16.2-35.4,23.8-53.7c12.1-29.1,24.2-58.8,35.9-87.5c21.2-52,43-105.8,66-157.9
			c13.9-31.6,29.5-63.3,44.6-94c16.8-34.2,34.2-69.5,49.6-105.3c36.3-84.6,91.9-153.8,165.3-205.6c46.3-32.7,87.2-51.5,128.7-59.1
			c9.2-1.7,18-2.5,26.3-2.5c26,0,46.1,8.3,58.1,23.9c13.9,18.2,16.7,46.2,7.8,79c-1.2,4.6-2.6,9.3-4.3,13.3
			c-8.9,20.4-18.1,41.2-27,61.3c-3.9,8.8-7.8,17.6-11.7,26.4c-6.1,13.7-12.2,27.5-18.2,41.2c-17.4,39.2-35.3,79.8-52.9,119.7
			c-11.1,25.1-22.3,50.6-33.1,75.3c-23.3,53.1-47.5,108-71.5,161.9c-2.1,4.8-5.2,9.8-8.4,15.1c-4,6.5-8.1,13.3-11.5,21.1
			c-13.2,30.5-26.2,61.5-38.7,91.6c-4.8,11.5-9.7,23.3-14.6,34.9l-7.7,18.4l17.4,9.8c2.2,1.2,3.9,2.4,5.6,3.4
			c4.3,2.8,10.2,6.6,18.6,6.7h13.8c41.3,0.4,84,0.8,126,0.8s44.7-0.1,65.2-0.3c16.4-0.2,32.8-11.6,40.5-22.9
			c12-17.5,22.2-35.9,30.4-54.6c28.6-65.3,58.9-136,92.7-216.3c5.3-12.6,10-25.5,14.5-37.9c5-13.8,9.8-26.8,15.3-39.6
			c22.6-51.9,45.9-104.7,68.4-155.6c16.8-38,34.2-77.4,51.1-116.1c2.8-6.3,4.5-12.6,6-18.2c1.5-5.7,3-11.1,4.9-14.1
			c14.3-21.4,23.9-45.6,29.2-74.3c4.5-24.2,5.6-48.6,6.4-73.5c1.2-40.1-11-79.9-34.5-112.1c-24-32.9-58.5-55.8-97.1-64.5
			c-32.4-7.3-65-11-96.7-11l0,0L2363.3,1381.7z"/>
	</g>
	<g>
		<path class="st4" d="M652,1606.5H533.1c12.5-32.4,21.2-57,31.5-80.7c9.1-20.9,21.1-40.6,30-61.6c14.8-34.8,14.2-35.1,53.3-35.4
			c20.8-0.1,41.6,0,62.4-0.4c16.6-0.3,27.9-8.1,34.6-23.9c17.5-41.2,34.9-82.5,54.4-122.8c5.6-11.5,16.5-22.6,27.7-28.7
			c86-46.7,172.7-92.3,259.4-137.9c6.7-3.6,14.5-5.2,28.1-9.8c-40.6,108.9-104.7,202.1-130.5,313.5c44.5,21.9,91.6,1.1,138.3,16.6
			c-7.7,15.5-15.3,28.8-21,42.8c-13,32.1-26.2,64.3-37.1,97.2c-7.4,22.4-21.1,31.1-43.7,30.6c-32.4-0.6-64.8,0.7-97.1-0.2
			c-22.8-0.6-35.8,9.2-44.5,30.3c-30.4,73.4-61.4,146.6-93.6,219.2c-29.7,67.2-61.7,133.4-91.5,200.6
			c-10.3,23.2-18.8,47.4-25.3,71.9c-11.6,43.3,6.3,70.7,50.6,75c29.4,2.9,59.3,0.6,96.8,0.6c-13,43.1-26.5,76.8-42.2,109.6
			c-5.4,11.3-14.5,21.5-17.4,33.4c-8.2,32.8-30.3,41.5-61,44.8c-63.6,6.8-126.7,10.3-189.4-5.9c-89.1-23-114.2-68.1-110-142.9
			c2.7-47.8,16.2-92.4,40.2-134.4c12.5-21.9,19.2-47,29.4-70.3c29.9-68.5,59.6-137.2,90.7-205.2c27.7-60.5,57.6-119.9,85.4-180.3
			c5.4-11.7,6.1-25.5,10.6-45.6L652,1606.5z"/>
		<path class="st3" d="M1114.6,1105.2c-40.6,108.9-104.7,202.1-130.5,313.5c18.6,9.2,37.7,10.9,57,10.9c19.3,0,22.5-0.6,33.9-0.6
			s31.6,1.1,47.4,6.4c-7.7,15.5-15.3,28.8-21,42.8c-13,32.1-26.2,64.3-37.1,97.2c-7.3,21.8-20.5,30.7-42.1,30.7s-1.1,0-1.6,0
			c-6.8-0.1-13.6-0.2-20.4-0.2c-17.2,0-34.5,0.3-51.7,0.3s-16.7,0-25-0.3c-0.6,0-1.3,0-1.9,0c-21.7,0-34.2,9.8-42.7,30.3
			c-30.4,73.4-61.4,146.6-93.6,219.2c-29.7,67.2-61.7,133.4-91.5,200.6c-10.3,23.2-18.8,47.4-25.3,71.9c-11.6,43.3,6.3,70.7,50.6,75
			c11.2,1.1,22.5,1.5,34.3,1.5c19.1,0,39.3-0.9,62.5-0.9c-13,43.1-26.5,76.8-42.2,109.6c-5.4,11.3-14.5,21.5-17.4,33.4
			c-8.2,32.8-30.3,41.5-61,44.8c-30.1,3.2-60,5.7-89.9,5.7s-66.5-3.1-99.5-11.6c-89.1-23-114.2-68.1-110-142.9
			c2.7-47.8,16.2-92.4,40.2-134.4c12.5-21.9,19.2-47,29.4-70.3c29.9-68.5,59.6-137.2,90.7-205.2c27.7-60.5,57.6-119.9,85.4-180.3
			c5.4-11.7,6.1-25.5,10.6-45.6H533.3c12.5-32.4,21.2-57,31.5-80.7c9.1-20.9,21.1-40.6,30-61.6c14.8-34.8,14.2-35.1,53.3-35.4
			c20.8-0.1,41.6,0,62.4-0.4c16.6-0.3,27.9-8.1,34.6-23.9c17.5-41.2,34.9-82.5,54.4-122.8c5.6-11.5,16.5-22.6,27.7-28.7
			c86-46.7,172.7-92.3,259.4-137.9c6.7-3.6,14.5-5.2,28.1-9.8 M1152.1,1068.6l-44.8,15.4c-4.5,1.6-8.4,2.8-11.9,3.8
			c-7.1,2.2-13.2,4.1-19.3,7.3l-23.8,12.5c-77.5,40.8-157.5,83-235.8,125.5c-15.5,8.4-29.7,23.2-37.2,38.7
			c-19,39.2-36.2,79.7-52.8,118.9l-2.1,4.9c-3.6,8.6-7.6,10.2-14.4,10.3c-13.5,0.3-27.3,0.3-40.7,0.3c-7,0-14.3,0-21.4,0
			c-22,0.1-35.2,0.2-47.4,8c-12.4,8-17.7,20.3-25.6,39.1l-0.8,1.9c-4.3,10-9.3,19.8-14.7,30.2c-5.2,10-10.6,20.4-15.3,31.3
			c-7.2,16.7-13.5,33.4-20.9,52.7c-3.4,9.1-7,18.5-11,28.8l-11.8,30.5h124.5c-1.1,5.6-2.2,10.3-3.8,13.8
			c-13.2,28.5-27,57.3-40.4,85.2c-14.9,31.1-30.4,63.2-45,95.2c-26.2,57.2-51.7,115.8-76.5,172.5c-4.8,11-9.6,22-14.4,33
			c-4,9.3-7.5,18.6-10.9,27.7c-5.4,14.6-10.5,28.3-17.4,40.4c-25.8,45.1-40.3,93.7-43.1,144.3c-2.5,45.2,5.2,78.7,24.2,105.1
			c10.5,14.6,24.1,26.6,41.5,36.8c16.8,9.8,36.8,17.6,61.1,23.8c32.1,8.3,66.5,12.3,105.1,12.3s67-3.1,92.3-5.8
			c14.4-1.5,33-4.6,48.7-14.8c15.8-10.2,26.4-25.9,31.7-46.9c1-3.9,4.1-9,7.5-14.4c2.7-4.4,5.8-9.3,8.4-14.7
			c17.7-37.1,31.1-71.8,43.5-112.8l8.7-28.8H816c-12.4,0-23.8,0.2-34.8,0.5c-9.7,0.2-18.9,0.4-27.7,0.4c-12.6,0-22.8-0.4-32.1-1.3
			c-10.2-1-23.5-4-29.6-12.8c-6.3-9.2-4.3-23.6-1.5-34.1c6.3-23.6,14.4-46.7,24.2-68.6c14.4-32.4,29.6-65.2,44.3-97
			c15.7-33.9,31.9-68.9,47.2-103.6c29.8-67.5,60.5-139.4,93.8-219.7c5.8-14.1,11.5-16.5,22-16.5c0.4,0,0.9,0,1.3,0
			c7.7,0.2,16,0.3,25.6,0.3s17.5,0,26-0.2c8.4,0,17.1-0.2,25.7-0.2s13.9,0,20,0.2c0.7,0,1.4,0,2,0c31.9,0,53.2-15.5,63.4-46
			c10-30,22.2-60.2,34-89.3l2.6-6.5c3.5-8.6,8-17.3,12.8-26.6c2.4-4.7,4.9-9.5,7.5-14.7l11.4-23.1l-24.4-8.1
			c-20-6.6-39.6-7.5-54.5-7.5s-11.9,0.1-17.6,0.3c-5.6,0.1-11,0.3-16.3,0.3c-9.9,0-20.2-0.4-30.3-2.7c15.7-57.1,41.3-109.6,68.2-165
			c19.7-40.4,40-82.2,56.5-126.5l16.6-44.4l0,0L1152.1,1068.6z"/>
	</g>
	<g>
		<path class="st4" d="M1541.7,1438.4c-7.9,15.8-15.9,30.6-22.8,45.8c-9.9,22.1-19.1,44.5-28.6,66.8
			c-31.5,74.1-62.8,148.3-94.5,222.2c-21.3,49.6-43.5,98.8-65,148.3c-44.9,103.2-89.5,206.6-134.7,309.7
			c-19.8,45.1-40.8,89.7-62.3,137H898.2c1.4-10.1,0.9-18.4,3.9-25.1c20.2-45,41.3-89.7,62-134.5c36.1-78.1,73-155.9,107.8-234.6
			c33.5-75.8,64.7-152.5,97.2-228.8c23.5-55.1,47-110.1,71.1-164.9c19-43.1,38.1-86.2,59-128.3c4.7-9.5,17.4-21.2,26.6-21.4
			c68.1-1.4,136.2-0.3,204.3,0.3C1532,1430.9,1533.9,1433.2,1541.7,1438.4L1541.7,1438.4z"/>
		<path class="st3" d="M1398.1,1430c44,0,88.1,0.6,132.1,1c1.9,0,3.8,2.3,11.6,7.4c-7.9,15.8-15.9,30.6-22.8,45.8
			c-9.9,22.1-19.1,44.5-28.6,66.8c-31.5,74.1-62.8,148.3-94.5,222.2c-21.3,49.6-43.5,98.8-65,148.3
			c-44.9,103.2-89.5,206.6-134.7,309.7c-19.8,45.1-40.8,89.7-62.3,137H898.3c1.4-10.1,0.9-18.4,3.9-25.1c20.2-45,41.3-89.7,62-134.5
			c36.1-78.1,73-155.9,107.8-234.6c33.5-75.8,64.7-152.5,97.2-228.8c23.5-55.1,47-110.1,71.1-164.9c19-43.1,38.1-86.2,59-128.3
			c4.7-9.5,17.4-21.2,26.6-21.4C1350,1430.1,1374.1,1429.9,1398.1,1430 M1398.1,1407.6c-26.7,0-50.5,0.2-72.7,0.7
			c-20.5,0.4-39.3,20-46.2,33.8c-20.5,41.2-39.1,82.9-59.5,129.2c-24.9,56.6-49.8,114.9-71.2,165.1c-11.5,27-23,54.5-34.2,81.1
			c-20.3,48.5-41.3,98.6-62.9,147.4c-24.6,55.6-50.7,111.7-75.9,165.9c-10.4,22.4-21.2,45.5-31.7,68.3
			c-6.3,13.6-12.7,27.4-18.9,40.8c-14.3,30.7-29,62.5-43.1,93.9c-3.6,8-4.2,15.9-4.8,22.9c-0.2,2.8-0.4,5.5-0.8,8.2l-3.6,25.5h275.8
			l6-13.1c6.8-14.9,13.6-29.7,20.2-44c14.7-32,28.6-62.2,42.3-93.3c28.2-64.3,56.6-129.8,84.1-193.2c16.6-38.2,33.7-77.7,50.6-116.6
			c9-20.7,18.3-41.7,27.3-62.1c12.5-28.2,25.3-57.4,37.7-86.3c22.1-51.5,44.4-104,65.9-154.8c9.4-22.1,19.1-45,28.7-67.5
			c2.8-6.5,5.5-13.1,8.2-19.4c6.5-15.5,13.2-31.5,20.2-46.9c4.5-10,9.5-19.8,14.9-30.2c2.5-4.8,5-9.7,7.5-14.8l9-17.9l-16.7-10.9
			c-2.6-1.7-4.4-3-5.9-4.1c-3.7-2.7-9.4-6.9-17.7-6.9c-13-0.1-26.2-0.2-39-0.4c-30.5-0.3-62.1-0.6-93.3-0.6l0,0L1398.1,1407.6z"/>
	</g>
	<g>
		<path class="st4" d="M1706.1,1067.4c-12.9,36.3-21,69.7-44.4,98.5c-13.9,17.2-21.6,40-29.5,61.3c-18.3,48.9-17.7,49.1-68.4,49.1
			c-48.4,0-96.8,0.3-145.2-0.2c-12.1-0.1-24.2-2.6-34-3.8c16.9-50.5,32.7-98,48.7-145.5c3.7-10.9,6.9-22.2,12.5-32.2
			c9.4-17.1,19.7-33.3,43.6-33c65.7,0.9,131.4,0.8,197.1,1.3C1690.9,1062.9,1695.3,1064.9,1706.1,1067.4L1706.1,1067.4z"/>
		<path class="st3" d="M1488.7,1061.5c0.2,0,0.5,0,0.7,0c65.7,0.9,131.4,0.8,197.1,1.3c4.4,0,1.4-1,12.2,1.5
			c-12.9,36.3-19.8,44.7-36.9,101.5c-13.9,17.2-21.6,40-29.5,61.3c-18.1,48.3-17.7,49.1-66.7,49.1s-1.2,0-1.8,0c-1.1,0-2.1,0-3.2,0
			c-24.6,0-49.2,0-73.8,0s-45.5,0-68.3-0.3c-12.1-0.1-24.2-2.6-34-3.8c16.9-50.5,32.7-98,48.7-145.5c3.7-10.9,6.9-22.2,12.5-32.2
			c9.4-16.9,19.5-33,42.9-33 M1488.7,1039.2L1488.7,1039.2c-37.8,0-53.9,29-62.5,44.6c-5.6,10.1-9,20.4-12.2,30.4
			c-0.6,1.8-1.2,3.7-1.8,5.5c-11.7,34.7-23.2,69-35.3,105.3c-4.4,13.2-8.9,26.6-13.4,40.2l-8.7,26.2l27.4,3.2
			c2.6,0.3,5.6,0.7,8.7,1.2c8.3,1.2,17.6,2.6,27.6,2.7c19.9,0.2,41,0.3,68.5,0.3s24.6,0,36.9,0s24.6,0,36.9,0h3.2h0.6h1.2
			c26,0,43.3,0,57.7-10.4c13.8-9.9,19.2-24.6,29.2-51.2l0.7-2c0.8-2.1,1.6-4.2,2.4-6.4c6.6-17.7,13.4-36,23.6-48.7
			c17.2-46.9,29.1-57.4,39.3-87.8c2.1-6.3,3.8-12.4,6.1-18.8l6.2-23.1l-19.5-4.6c-3.7-0.9-6.5-1.7-9.1-2.4
			c-5.3-1.5-9.9-2.7-15.6-2.8c-25.3-0.2-51-0.3-75.8-0.4c-39.7-0.2-80.8-0.3-121.2-0.9C1489.5,1039.3,1489.1,1039.3,1488.7,1039.2
			L1488.7,1039.2L1488.7,1039.2z"/>
	</g>
</g>
</svg>
