<?xml version="1.0" encoding="UTF-8"?>
<svg id="Layer_01" data-name="Layer 01" xmlns="http://www.w3.org/2000/svg" version="1.1" viewBox="0 0 3500 3500">
  <defs>
    <style>
      .cls-1 {
        fill: #12a3aa;
      }

      .cls-1, .cls-2, .cls-3 {
        stroke-width: 0px;
      }

      .cls-2 {
        fill: #af40e2;
      }

      .cls-3 {
        fill: #fff;
      }
    </style>
  </defs>
  <path class="cls-1" d="M382.68,1257.3v623.11c82.63,0,161.87-32.82,220.3-91.25,58.43-58.43,91.26-137.67,91.26-220.31s-32.82-161.87-91.25-220.3c-58.43-58.43-137.67-91.26-220.31-91.26Z"/>
  <path class="cls-1" d="M311.55,1607.42v623.11c-82.63,0-161.87-32.82-220.3-91.25C32.83,2080.85,0,2001.6,0,1918.97s32.82-161.87,91.25-220.3c58.43-58.43,137.67-91.26,220.31-91.26Z"/>
  <path class="cls-2" d="M278.29,1517.96c26.39-32.04,38.93-73.09,34.93-114.41-4-41.33-24.16-79.21-56.21-105.61-32.04-26.39-73.09-38.93-114.41-34.93-41.33,4-79.21,24.16-105.61,56.21-26.39,32.04-38.93,73.09-34.93,114.41,4,41.33,24.16,79.21,56.21,105.61,32.04,26.39,73.09,38.93,114.41,34.93,41.33-3.99,79.21-24.16,105.61-56.21Z"/>
  <path class="cls-3" d="M3048.38,1768.85c-1.9-3.81,5.2-10.67,8.48-14.3,24.38-25.65,50.52-49.84,84.17-62.36,40.04-14.89,77.36-23.36,120.31-24.8,43.17-1.44,87.49.7,128.59,15.11,40.06,14.05,72.47,35.95,102.34,66.08,5.53,5.34,11.19,13.27,5.09,19.9-24.55,23.77-59.84,52.03-96.61,37.9-36.86-17.19-73.9-36.6-115.7-34.19-70.69.78-141.52.29-212.05.18-7.86-.77-18.07,1.61-24.28-2.98l-.34-.55Z"/>
  <path class="cls-3" d="M1543.94,1681.87c-.54-8.67-3.18-13.63-11.51-14.7-11.35-1.43-23.37-.79-34.84-.99-32.75-1.15-64.3,2.82-80.9,34.08-11.84,22.3-27.37,43.22-40.03,65.18-12.39,21.48-23.85,43.24-36.33,64.68-30.27,52.01-63.73,101.68-92.83,154.41-5.43,9.07-16.07,28.71-26.62,14.17,0,0-96.22-157.89-96.22-157.89-18.45-33.24-38.47-65.56-58.73-97.72-10.29-16.33-20.62-32.63-30.89-48.96-7.76-12.33-18.47-22.24-33.68-23.82-25.06-2.61-50.54-4.36-75.8-3.25-9.87.39-11.4,10.23-11.17,18.18,2.86,39.42,34.3,68.15,54.11,99.94,39.89,70.85,81.47,140.94,126.56,208.66,26.72,44.99,49.86,92.56,80.94,134.94,11.22,10.45,16.37,29.88,32.08,34.74,13.22,2.61,31.55,3.36,44.91-2,4.72-2.63,8.05-7.38,10.81-12.05,14.85-26.34,33.36-50.47,49.67-75.99,28.92-54.14,60.67-106.68,92.23-159.32,2.02-3.39,4.84-8.14,7.99-9.55l.68-.27c7-1.26,7.74,11.08,7.78,16.74.7,68.43.77,137.48,1.11,206.03-4.76,73.49,30.59,102.57,102.54,97.71,12.32.67,17.97-4.37,18.12-17.03.35-175.1.9-350.99.03-525.91Z"/>
  <circle class="cls-2" cx="2074.59" cy="1738.09" r="67.86"/>
  <circle class="cls-2" cx="3414.64" cy="2140.56" r="67.86"/>
  <circle class="cls-2" cx="973.29" cy="2174.83" r="67.86"/>
  <path class="cls-3" d="M2745.83,1964.53c.15-59.87.32-120.49.1-180.61-1.03-41.5-1.68-91.92,38.36-114.51,20.93-9.71,46.29-6.06,68.79-5.9,19.52.9,28.95,12.68,29.22,31.35.46,142.16-.29,284.65.52,426.98-.4,69.25-16,113.15-94.99,106.05-28.33,1.23-43.06-9.93-41.9-39.38-.4-74.32-.14-148.23-.1-222.22v-1.76Z"/>
  <path class="cls-3" d="M2214.74,2166.83c30.49-73.64,50.43-83.91,117.58-63.6,25.88,7.83,51.74,19.53,78.08,21,30.65,1.71,62.75-2.53,92.34-10.88,13.95-3.94,28.97-21.72,33.73-36.41,7.17-22.1-9.61-38.95-28.64-48.17-18.03-8.74-37.93-13.95-57.38-19.38-39.08-10.9-80.77-15.83-116.95-32.73-33.55-15.67-67.25-38.91-90.33-67.38-42.3-52.17-10.48-115.28,57.05-120.84,17.55-1.44,35.44,1.3,52.43,2.08,7.45,23.23,8.37,49.7,22.07,62.73,16.62,15.81,43.54,21.82,66.89,29.33,45.05,14.48,91.37,25.18,135.97,40.87,54.68,19.24,93.03,55.02,99.26,116.46,6.45,63.62-14.8,114.54-68.04,152.4-44.76,31.83-96.63,38.34-147.99,41.42-75.05,4.5-148.33-8.6-216.48-42.36-11.45-5.67-20.28-16.64-29.59-24.55Z"/>
  <path class="cls-3" d="M2239.29,1763.97c28.85-51.63,64.43-77.36,108.67-90.53,84.47-25.15,168.88-21.35,251.67,7.74,21.76,7.65,51.65,11.69,48.19,46.26-2.85,28.47-34.71,57.92-64.24,61.12-6.62.72-13.89,1.1-20.09-.83-78.07-24.29-158.15-19.91-237.94-19.58-12.29.05-15.22.28-39.08,4.17-25.57,5.73-38.98,15.06-50.26,14-6.09-.57,1.53-17.94,3.09-22.36Z"/>
  <path class="cls-3" d="M1641.47,1681.88c20.35-2.11,31.28-4.27,42.2-4.2,62.55.36,89.08,24.91,91.43,88.64,1.97,53.48.25,107.08.64,160.63.43,57.51-5.76,115.92,32.15,178.72-40.53.12-70.88,3.15-100.42-.44-38.79-4.72-64.09-27.01-64.99-65.17-2.76-117.57-1.01-235.25-1.01-358.17Z"/>
  <path class="cls-3" d="M2071.49,1845.96c-23.5-.21-47.14-10.92-67.03-27.49.12,48.91.76,127.32-.24,175.92-1.87,90.92-36.68,126.08-126,127.66-51.4.91-102.84-.43-154.24.53-6.4.12-13.94-.32-22.15-.46-15.72-.28-24.72,17.5-15.78,30.45,20.87,30.24,49,52.09,78.75,63.22,61.58,23.02,124.07,30.54,190.32,17.34,90.16-17.96,149.29-66.48,174.06-155.27,21.1-75.65,10.62-181.7,11.11-257.06-20.09,15.69-44.15,25.38-68.79,25.16Z"/>
  <path class="cls-3" d="M973.29,2084.69c22.59,0,43.18,8.37,59.01,22.1.29-47.22.66-94.37-.97-141.57-.75-12.57-4.24-24.31-10.86-34.92-32.88-54.18-66-110.09-100.85-162.31l-.59-.15c-5.39.4-4.94,12.49-4.99,17.79.07,106.99.23,214.05.37,321.05,15.8-13.67,36.36-21.99,58.89-21.99Z"/>
  <path class="cls-3" d="M3329.01,2140.56c0-9.85,1.75-19.28,4.81-28.09-2.89.67-5.79,1.22-8.73,1.51-35.07,3.61-71.13,7.17-105.12-7.35-36.05-14.37-67.54-33.83-86.07-68.88-9.41-17.58-19.92-35.49-20.43-55.87-1.39-25.45-4.62-51.37.5-77.04,8.06-32.09,22.15-63.79,46.88-85.62,4.63-4.77,13.69-9.2,15.53-15.43l.03-.6c-1.09-4.31-7.58-3.7-11.34-4.07-36.8-.09-74.07-1.06-110.81.85-26.19,1.36-43.47,20.02-53.14,43.11-11.49,27.43-17.03,60.9-16.86,90.51.13,21.42-1.25,43.72,4.18,64.69,5.22,20.13,9,41.18,16.65,60.57,6.75,17.11,17.9,33.5,28.82,48.18,21.98,29.54,49.63,54.85,81.06,74.03,73.64,44.96,169.27,53.82,252.89,31.17-23.37-15.29-38.84-41.65-38.84-71.67Z"/>
</svg>