<?xml version="1.0" encoding="utf-8"?>
<!-- Generator: Adobe Illustrator 27.7.0, SVG Export Plug-In . SVG Version: 6.00 Build 0)  -->
<svg version="1.1" id="Layer_1" xmlns="http://www.w3.org/2000/svg" xmlns:xlink="http://www.w3.org/1999/xlink" x="0px" y="0px"
	 viewBox="0 0 3500 3500" style="enable-background:new 0 0 3500 3500;" xml:space="preserve">
<style type="text/css">
	.st0{fill-rule:evenodd;clip-rule:evenodd;fill:#AC3516;}
</style>
<g id="Layer_x0020_1">
	<circle class="st0" cx="1750" cy="1750" r="537.9"/>
	<path class="st0" d="M49.3,2376.1c118-100.3,182.9-134.7,195.5-370.3c5-92.6-30.5-175.3-72.3-255.6
		c-85.7-164.5-198.3-319.4-46.2-530c82.2-113.8,308.7-132.6,462.8-190.2c-292.6,220.1-336.5,414.8-152.1,721.7
		C592.3,2010.3,505.7,2442.4,49.3,2376.1L49.3,2376.1z"/>
	<path class="st0" d="M794.5,2657.2c-393.7-7.2-638.9,20.5-746.3-55.6c-76-53.8-46.7-137.9-16.2-199.4
		C175.3,2452.1,583.2,2328.8,794.5,2657.2L794.5,2657.2z"/>
	<path class="st0" d="M794.5,819.9c-393.7,7.1-638.9-20.5-746.3,55.6c-76,53.8-46.7,137.9-16.2,199.4
		C175.3,1024.9,583.2,1148.3,794.5,819.9L794.5,819.9z"/>
	<path class="st0" d="M1123.9,49.3c100.3,118,134.7,182.9,370.3,195.5c92.6,5,175.3-30.5,255.6-72.3
		c164.5-85.7,319.4-198.3,530-46.2c113.8,82.2,132.6,308.7,190.2,462.8c-220.1-292.6-414.8-336.5-721.7-152.1
		C1489.7,592.3,1057.6,505.7,1123.9,49.3L1123.9,49.3z"/>
	<path class="st0" d="M842.8,794.5c7.2-393.7-20.5-638.9,55.6-746.3c53.8-76,137.9-46.7,199.4-16.2
		C1047.9,175.3,1171.2,583.2,842.8,794.5L842.8,794.5z"/>
	<path class="st0" d="M2680.1,794.5c-7.1-393.7,20.5-638.9-55.6-746.3c-53.8-76-137.9-46.7-199.4-16.2
		C2475,175.3,2351.7,583.2,2680.1,794.5L2680.1,794.5z"/>
	<path class="st0" d="M3450.7,1123.9c-118,100.3-182.9,134.7-195.5,370.3c-5,92.6,30.5,175.3,72.3,255.6
		c85.7,164.5,198.3,319.4,46.2,530c-82.2,113.8-308.7,132.6-462.8,190.2c292.6-220.1,336.5-414.8,152.1-721.7
		C2907.7,1489.7,2994.3,1057.6,3450.7,1123.9L3450.7,1123.9z"/>
	<path class="st0" d="M2705.5,842.8c393.7,7.2,638.9-20.5,746.3,55.6c76,53.8,46.7,137.9,16.2,199.4
		C3324.7,1047.9,2916.8,1171.2,2705.5,842.8L2705.5,842.8z"/>
	<path class="st0" d="M2705.5,2680.1c393.7-7.1,638.9,20.5,746.3-55.6c76-53.8,46.7-137.9,16.2-199.4
		C3324.7,2475,2916.8,2351.7,2705.5,2680.1L2705.5,2680.1z"/>
	<path class="st0" d="M2376.1,3450.7c-100.3-118-134.7-182.9-370.3-195.5c-92.6-5-175.3,30.5-255.6,72.3
		c-164.5,85.7-319.4,198.3-530,46.2c-113.8-82.2-132.6-308.7-190.2-462.8c220.1,292.6,414.8,336.5,721.7,152.1
		C2010.3,2907.7,2442.4,2994.3,2376.1,3450.7L2376.1,3450.7z"/>
	<path class="st0" d="M2657.2,2705.5c-7.2,393.7,20.5,638.9-55.6,746.3c-53.8,76-137.9,46.7-199.4,16.2
		C2452.1,3324.7,2328.8,2916.8,2657.2,2705.5L2657.2,2705.5z"/>
	<path class="st0" d="M819.9,2705.5c7.1,393.7-20.5,638.9,55.6,746.3c53.8,76,137.9,46.7,199.4,16.2
		C1024.9,3324.7,1148.3,2916.8,819.9,2705.5L819.9,2705.5z"/>
</g>
</svg>
