<?xml version="1.0" encoding="utf-8"?>
<!-- Generator: Adobe Illustrator 27.7.0, SVG Export Plug-In . SVG Version: 6.00 Build 0)  -->
<svg version="1.1" id="Layer_1" xmlns="http://www.w3.org/2000/svg" xmlns:xlink="http://www.w3.org/1999/xlink" x="0px" y="0px"
	 viewBox="0 0 3500 3500" style="enable-background:new 0 0 3500 3500;" xml:space="preserve">
<style type="text/css">
	.st0{fill:#FFFFFF;}
	.st1{fill:#FF0000;}
</style>
<path class="st0" d="M3333.9,832.8c25.3,15.5,49.7,32.2,73.2,50c11.3,8.6,21.5,18.9,30.6,30.8c27.9,36.8,58.2,87.8,60.4,132.6
	c1.1,22.9,1.7,44,1.7,63.5c0.2,431,0.2,856.1,0,1275.2c0,31.1,0.4,65.4-11.1,94.7c-12.6,32.1-22,53-28.3,62.7
	c-26.1,40.4-59.4,73-99.7,97.9c-13.6,8.4-28.4,14.6-44.3,18.7c-42.3,10.9-85.9,22.9-130.3,22.8c-299-1.2-601.9-1.4-908.8-0.6
	c-55,0.1-109.1,0.5-162.5,1.2c-27.1,0.3-52.9-6.5-77.5-20.3c-10.2-5.7-8-20.7-8.4-30.6c-0.2-5.5-1-11.2-2.3-17.1
	c-4.8-21.9-7.3-40.4-7.3-55.5c0.2-542.6,0.6-1085.7,1.4-1629.3c0-21.1,0.9-46.8,2.7-77c0.5-8.9,0.4-17.3-0.5-25
	c-0.2-2.4,1.3-4.5,3.7-5.1c8.7-1.9,16.9-2.9,24.5-2.9c400.2-0.1,808.5,0,1224.9,0.3c7.5,0,15.5,0.3,24.1,0.9c1.4,0.1,2.8-0.2,4-0.9
	c7.5-4,14.2-2.4,20,4.9C3326.7,827.7,3329.9,830.4,3333.9,832.8z M2953.8,1571.8c-0.2,1.9-1.7,3.4-3.6,3.5
	c-59.7,4.3-119.4,6.7-180.5,6.2c-52.2-0.4-104.5-0.9-156.8-1.6c-48.8-0.6-97.6,4.3-146,9.9c-14.6,1.7-28.9,5.8-42.7,12.3
	c-83.2,39.1-133.6,103.8-151.1,194c-18.1,93.6-35.9,182.6-53.2,266.9c-20.5,99.5-34.4,192.5-59.6,287.2c-1.4,5.2,1.2,10.6,6.1,12.7
	c6.8,3,14.1,4.6,21.9,4.7c45,0.8,87.9,1.3,128.8,1.4c279,1.1,545.6,1.3,799.7,0.6c27.6,0,52.9-2.1,79.2-8c4.7-1.1,8.6-4.3,10.5-8.7
	c7.8-18.1,12.9-36.3,15.2-56c6.9-58.7,21.6-118.3,34.5-174.8c1.7-7.6,2.5-15.6,2.4-24c0-2.3-1.7-4.2-4-4.5
	c-10.5-1.4-20.9-3.3-31.3-5.7c-18.5-4.2-40.6,1.3-59.9,1.2c-130.6-1.4-262-1.7-394.3-1.1c-63.4,0.3-117.9-2.6-176.6-9.7
	c-2.6-0.3-4.4-2.6-4.1-5.2c0-0.2,0.1-0.4,0.1-0.5c5.6-24,7-48.8,12.3-73.2c7.5-35,14.5-70.4,20.9-106.2
	c3.4-18.8,13.7-63.5,38.3-64.8c25.9-1.3,51.8-3,77.7-5c19.8-1.5,45.1-2.1,75.8-1.6c117.2,1.7,235.5,1.9,354.8,0.8
	c14-0.1,27.6-2,41.1-5.5c6.1-1.6,12.1-2.3,18-2.2c10.2,0.2,25.8,1.9,31.3-8.9c11.2-22,19-43.6,23.2-64.5
	c24.5-120.6,48.7-237.5,72.7-350.5c1.8-8.6,3.8-17,6-25.1c18.1-68.1-11.8-140.2-58.5-190.2c-18-19.2-37.8-27.9-60-39.8
	c-17-9.1-34.3-13.2-53.2-15.5c-39.2-4.8-72.8-7.2-100.7-7.1c-209.8,0.1-417.6,0.4-623.4,0.8c-18.9,0-37.5,1.7-56,1.6
	c-8.8,0-16.3,6.3-17.9,15c-8.1,46.1-17,93.1-26.6,140.9c-8,39.6-13.5,76.5-16.7,110.6c-0.7,7.3,4.1,17.5,13.1,14.9
	c22.2-6.4,43.6,0.6,66,1.3c97.8,2.8,196.5,3.9,296.3,3.4c1.1,0,2.1-0.4,2.9-1.1l1.2-1c1.1-0.9,2.3-1.3,3.7-1.3
	c23.9-0.8,47.3-1.5,70.3-2c17.5-0.4,36.8,2.3,57.8,7.9c21.4,5.7,40.2,5.3,61.5,4.5c1.5-0.1,3,0.6,4,1.7l1.1,1.3
	c1.3,1.4,3,2.3,4.9,2.4c13.3,0.8,29.3,2.6,36.3,15.5c6.3,11.6,7.7,25,4.2,40.4C2962.8,1505,2957.2,1538.9,2953.8,1571.8z"/>
<path class="st1" d="M1384.4,2051.9c7.3,1.5,13.7-0.4,19.2-5.9c12.4-12.5,25.5-24.5,39.4-35.9c27.1-22.3,50.6-48,75.7-72.5
	c64.5-62.9,125.5-133.2,183.2-211c17-23,32.2-46,45.6-69c40.5-69.8,73.9-143.5,100.3-221.1c2.5-7.4,7.4-13.5,14.8-18.4
	c1.5-1,3.1-0.7,4.8,1.1c0.8,0.8,1.2,1.9,1.1,3c-2.3,33.1-3.5,61.8-3.5,86.1c-0.1,72.2-1.2,142-1.2,213.8c0,296,0.1,590.5,0.2,883.3
	c0,17.7-1.5,36.3-4.5,55.8c-1.1,6.8-6.6,12.1-13.5,12.8c-27.9,3-54.3,4.5-79.3,4.5c-239.8,0.1-485.8,0.2-738,0.4
	c-37.1,0-72.1-3.5-110.7-1.1c-7.7,0.5-15.2-1.6-22.6-6.1c-1.2-0.8-1.6-2.4-0.9-3.6c0.1-0.1,0.2-0.3,0.3-0.4
	c58.8-66.6,112.5-131.4,166-205.7c53.2-74,101.4-142.7,144.5-206.1c13.3-19.5,26.1-41.6,38.6-66.2c29.5-58.3,51.3-105.3,65.3-141.1
	c17.8-45.4,36.3-90.8,50.8-137.9c21.6-69.9,41.6-139.7,53.9-211.1c5.8-33.7,15.7-67,18.7-101.1c2.7-30.4,6-61.1,9.8-92
	c3-24.3,3.7-47.5,2-69.6c-4.4-56.9-13.4-110.4-27.1-160.6c-4.8-17.6-11.4-33.8-19.8-48.7c-11.7-20.7-22.1-42.5-36.1-61.8
	c-46.2-64-109.5-110.7-190.1-140.2c-22.8-8.3-44.1-13-63.8-14c-39.7-1.9-80.3-1.7-121.8,0.6c-12.6,0.7-24.2,2.9-34.7,6.5
	c-24.8,8.6-50.5,17.1-77.1,25.6c-6.9,2.2-12.9,5.4-18.1,9.6c-1.3,1-2.7,1.7-4.3,2.2l-5,1.3c-1.9,0.5-3.1,1.6-3.8,3.4
	c-2.4,6.4-6.8,10.8-13.1,13.4c-29.7,11.7-68,28.1-90.8,51.2c-11.3,11.4-24.4,20.2-35.9,31.1c-36.9,34.9-70.2,70.1-100,105.6
	c-34.3,40.8-59.7,82.2-87.5,129.8c-14.8,25.3-27.3,49.5-37.5,72.5c-14.8,33.4-32.4,65.7-45.3,101c-15.7,42.7-30.1,86.4-43.3,131.1
	c-9.2,31.1-16.3,59.6-21.5,85.5c-8,40.5-19.1,81-24.5,121.2c-11.6,86.9-7.4,170.4,25,249.6c24.2,59.1,63.1,105.7,116.8,139.7
	c19.2,12.2,37.8,20.3,55.7,24.4c18.6,4.3,37.9,8.2,57.6,11.7c6.2,1.1,11.6,0.6,16.2-1.3c17.9-7.6,36.4-4.7,54.7-13.3
	c16.3-7.7,34.1-9.9,44.7-26.1c1.2-1.8,2.8-2.2,4.7-1.3l1.4,0.7c1.8,0.9,4,0.5,5.4-0.9c4.7-5.1,7.1-11.5,12.6-15.7
	c15.7-12.6,31-25.5,45.8-38.9c3.3-2.9,7.6-4,10.4-6.5c31.4-27.5,58.7-56,81.9-85.6c3.1-3.9,7.9-8,14.5-12.3c5.1-3.2,9.4-7.5,13-12.8
	c4.3-6.4,7.9-11,10.9-13.7c10.5-9.9,20.2-20.1,29.1-30.9c17-20.5,33.8-39.4,50.4-56.7c4.4-4.6,7.4-10.4,9-17.5
	c0.7-3.2-1.3-6.4-4.5-7.1c-0.3-0.1-0.6-0.1-0.8-0.1c-4-0.4-8.1-0.1-12.2,0.9c-20.9,4.6-40.4,11.7-61.7,14.5
	c-33.4,4.3-66.6,5.2-99.5,2.5c-62.4-5.1-103.1-26.5-144-71.2c-55.4-60.5-58.9-172-41.6-244.8c9.6-40.3,19.9-78.3,38.3-116.2
	c12.9-26.5,25.1-50.3,36.6-71.2c47.1-86,112.4-162.3,195.8-228.9c22.2-17.7,42.1-31.3,59.7-40.6c14.6-7.7,31.6-15.5,51.1-23.3
	c30.1-12,61.7-12.3,92.8-10.4c36.3,2.3,72.4,31.7,92.6,59.6c30.4,42,46.6,79.8,54.6,128.2c3.5,21.4,8.3,41.9,9.2,64
	c1.7,42.7,1.9,77.8,0.7,105.4c-1,20.7-5.2,48.5-12.7,83.5c-5.9,27.3-13.5,53.6-22.9,78.9c-38.5,103.5-90.3,196.2-155.5,278.3
	c-12.6,15.8-22.5,33.2-35.3,48.5c-3.7,4.4-9.4,7-10.8,13c-0.4,1.7-1.2,3.2-2.4,4.4l-18.9,20.4c-1.3,1.3-2,3.1-2.3,4.9
	c-0.5,4-2.7,6.6-6.5,7.9c-1.7,0.5-3.1,1.5-4.3,2.7c-14.3,15-25.9,33.5-40.7,47.8c-7.2,7-14.3,13.9-21.5,20.8
	c-4.2,4.1-6.5,10.3-10.5,14.8c-20,22.8-40.5,43.6-61.5,62.5c-6.7,6.1-7.5,14.3-13.3,20.7c-8.5,9.3-14.8,19.4-23.9,28.3
	c-23.8,23.2-48.3,46.9-70.4,72c-12.5,14.2-26.6,26.8-42.3,37.8c-13.4,9.4-23.1,22.3-36.5,31c-12.5,8.1-20.6,19.7-32.4,28.2
	c-11,7.9-21.9,15.9-32.6,24.1c-10.3,7.8-22.1,8.6-32,16.1c-23.8,18-49.2,34.7-76.3,49.9c-10.8,6.1-23.7,8.2-33.8,15
	c-11.4,7.7-21,12.6-28.8,14.7c-14.6,3.9-29.5,8.5-44.8,13.9c-10.1,3.5-16.8,12.5-29.1,14.3c-24.4,3.5-50,7.6-76.9,12.3
	c-41.9,7.3-86.2,6.9-132.9-1c-32.7-5.5-64.8-20.7-93.5-35.7c-9.4-5-17.7-14.3-24.8-28.1c-20.5-39.9-32.7-82.3-36.3-127.1
	c-1.9-22.7-2.8-44.1-2.9-64.2c-1.1-294.1-1.3-631.1-0.7-1011c0.1-89.4,2.1-180.4,2.4-268.3c0.1-19.4,3-45.5,8.8-78.4
	c5.4-31,13.4-55.7,24-74.2c19.6-34.1,50.4-69.2,85.9-87.4c6-3.1,11.8-6.9,17.4-11.5c18.8-15.3,51.5-17.9,78.1-17.9
	c544.3,0.3,1083.1,0.4,1616.5,0.2c9.4,0,18.8,2.1,28,4.3c2.7,0.7,4.5,3.1,4.5,5.8c-2,116.7-2.4,244.3-1.1,382.9
	c0.2,17.6-1.4,33.5-4.7,47.5c-12.9,54.7-30.7,105-53.4,150.9c-9.9,19.9-24,43.2-42.4,69.8c-15.9,23-31.1,42.5-45.7,58.6
	c-38.4,42.4-73.1,76.5-103.9,102.3c-38.1,31.9-80.3,64.2-126.7,97c-7.6,5.4-16.3,11.9-19.7,20.7c-5.1,13.2-10.4,25.8-13.3,39.8
	c-10.6,50.5-24.4,101.2-41.3,152.2c-6.4,19.2-14.2,37.5-23.7,55c-7.1,13.2-10,27.3-8.5,42.4
	C1381.6,2050.2,1382.8,2051.6,1384.4,2051.9z"/>
</svg>
