<?xml version="1.0" encoding="utf-8"?>
<!-- Generator: Adobe Illustrator 27.7.0, SVG Export Plug-In . SVG Version: 6.00 Build 0)  -->
<svg version="1.1" id="Layer_1" xmlns="http://www.w3.org/2000/svg" xmlns:xlink="http://www.w3.org/1999/xlink" x="0px" y="0px"
	 viewBox="0 0 3500 3500" style="enable-background:new 0 0 3500 3500;" xml:space="preserve">
<style type="text/css">
	.st0{fill:#D0DA78;}
	.st1{fill:#04567E;}
	.st2{fill:#38BA99;}
	.st3{fill:#97C88A;}
	.st4{fill:#D1DA7A;}
	.st5{fill:#D1DB7B;}
	.st6{fill:#36BA97;}
	.st7{fill:#D1DB7C;}
	.st8{fill:#75BF8E;}
	.st9{fill:#24B48F;}
	.st10{fill:#6A8F5E;}
	.st11{fill:#FEEB60;}
	.st12{fill:#FBEA61;}
</style>
<path class="st0" d="M1979.3,1364.8v436.9H1533c0,16.1,0,28.9,0,41.8c0,115.7,0,231.4,0,347.1c-0.2,332.5-0.4,665-0.9,997.5
	c0,38.7-2.6,77.4-4,115.5c-32.1,20-64.3,10.4-95,10.7c-5.1,0-13.1-10.1-14.8-16.8c-2.6-10.3-1-21.8-0.9-32.7
	c0.2-471.3,0.4-942.7,0.6-1414c0-14.4,0-28.7,0-48.3h-42c-142.5,0-285.1,0.4-427.6-0.4c-19-0.1-39-3.4-56.7-10.1
	c-27-10.2-44.2-32.6-44.3-61.4c-0.8-224-0.5-448-0.5-674.1c8.6-2.4,16.4-4.5,22.5-6.2c-75.9-82.2-90.7-160.7,20.5-224.2
	c52-29.7,119.7-5.4,153.3,46c38.8,59.4,26.6,116.8-39.9,178.4c13.3,1.3,24.5,2.4,40.1,4c0,13.9,0,26.9,0,39.8c0,201,0,401.9,0,602.9
	c0,39.2,7.7,47.6,46.6,47.7c240,0.3,480,0,720,0c3.5,0,7.1-1,15.7-2.4c0.6-76.7,1.2-154,1.8-231.3c10.8-9.6,22-18.8,32.4-28.9
	c40-38.9,79.7-78.2,119.5-117.3L1979.3,1364.8z M934.1,1504.5c3.7-0.9,7.5-1.8,11.2-2.7c1.2-4.5,3.3-9.1,3.3-13.6
	c0.2-136.2,0.2-272.4,0.2-408.7c0-3.6,0.9-8.5-1-10.7c-3.8-4.4-9.3-7.3-21-16c0,19.5,0,31.2,0,43c0,71.8,0,143.5,0,215.3
	c0,54.7-0.3,109.5,0.3,164.2c0.1,9.7,4.4,19.4,6.8,29.1L934.1,1504.5z M926,863.6c25.1,15.9,46,24.3,59.7,39.3
	c12.8,14.1,17.9,35.2,28.2,56.9c7.5-9.4,13.3-13.5,14.2-18.5c7.2-37.5-43.9-96.3-82.2-93.4C938.5,848.4,931.9,858.8,926,863.6
	L926,863.6z"/>
<path class="st1" d="M1827,1262.3c-131.5,0.4-262.9,0-394.4,1.8c-32.5,0.5-52-10.4-65.4-40c-29.1-64.1-60.6-127-90.6-190.7
	c-6.2-13.1-11.1-27-14.4-41.1c-8.3-35.6,10.3-63.1,46-68.6c10.7-1.7,21.8-1.1,32.8-1.1c221.5,0,443.1,0,664.6,0
	c52.7,0,56.5,2.8,74,51.2c14.9,41.1,30.5,82,44.8,123.3c32.5,94-12.6,159.2-112.6,163.5c-10.9,0.5-21.9,0.6-32.8,0.8
	c-34.5-1.7-68.9-4.2-103.4-4.6C1859.4,1256.6,1843.1,1260.4,1827,1262.3L1827,1262.3z"/>
<path class="st2" d="M3494.7,3313.1c-28.6,0-57.3,1.7-85.5-1.3c-6.1-0.7-14.4-18-14.9-28c-3.1-60.7-3.9-121.6-6.2-182.3
	c-1.7-46.1-1.8-92.5-7.5-138.1c-5.8-46-23.4-60.1-68.5-66c-9.6-1.3-19.5-1.1-29.2-1.2c-13.3-0.2-26.6,0-46.3,0
	c-1.2,71-0.4,139.7-0.5,208.4c-0.1,68,0,136.1,0,206.7h-97.7v-888.8c6-1.2,11.6-3.4,17.3-3.4c58.5,0,117-1.1,175.4,0.8
	c98.9,3.1,163.3,67.2,167.9,165.9c1.5,32.8,1,65.7,0.8,98.6c-0.5,67.7-18.7,127.2-83.3,167.8c71.5,47.7,69.1,121.5,72.1,192.4
	c2.4,58.4,0.8,116.9,1.7,175.3c0.5,28.9,2.8,57.7,4.6,93.2L3494.7,3313.1z M3239,2502v310.7c26,0,49.1,1.8,71.8-0.4
	c47.2-4.5,75.8-26.1,81.6-73.5c6.5-52.4,5.8-106.2,3.1-159.1c-1.9-36.6-24-65.1-61.7-72C3303.5,2502.2,3271.9,2503.7,3239,2502
	L3239,2502z"/>
<path class="st3" d="M1019,480.3c-17.4-30.5-31.4-55.2-47.2-82.9c-38.9,41.5-48.4,95.3-71.9,141.3c-3.4-0.9-6.9-1.7-10.3-2.6
	c2.6-20.4,3.7-41.2,8.1-61.2c11.3-52,20.4-104.9,37-155.4c28.5-86.9,103-137.6,193.7-138.9c133.9-2,267.7-5.1,401.5-6.6
	c106.6-1.1,186.7,46.3,240.3,137.9c16.5,28.2,30.3,58.1,44.5,87.6c3.4,7.1,3.4,15.9,6.4,30.9c-17.4,0-31.3,0-45.2,0
	c-207.1,0-414.2,0.3-621.2-0.4C1105.9,429.8,1059.9,434.8,1019,480.3L1019,480.3z"/>
<path class="st4" d="M0,3311.1v-892.4c63.2,0,124.9-0.4,186.6,0.3c15.5,0.2,31.2,3.4,46.5,6.6c60.3,12.4,100,48,115.8,107.6
	c21.6,81.5,25.3,163.6-7.8,242.6c-12,28.8-35.9,52.6-55.3,79.9c10.4,12.5,25.5,27.8,37.2,45.5c22.4,33.8,23.2,73.8,24.6,112.2
	c2.5,66.9,0.6,134,1.6,200.9c0.4,25.4,3.8,50.7,6.1,76c1.5,16.9-5.8,25.4-22.8,25.1c-21.8-0.5-45.7,4.2-65-3.2
	c-24.1-9.2-12.7-37-13.5-55.9c-3.7-77.7-3.7-155.5-6.1-233.2c-0.7-24.1-4.1-48.2-7.5-72.1c-3.9-27-20-44.4-47-48.8
	c-29.4-4.8-59.1-7.3-94.2-11.5c0,19.3,0,32.3,0,45.2c0,113.3,0,226.6,0,339.8c0,39.2-0.4,39.4-37.9,39.6c-17,0.1-34.1-0.2-51.1-0.6
	C8,3314.7,5.8,3313.2,0,3311.1L0,3311.1z M96.1,2813c24.8,0,45.4-0.5,65.9,0c64.4,1.7,94.9-41.7,98.5-93.9
	c2.9-42.3,2.2-85,0.3-127.5c-2-46.3-28.1-76.7-72.9-86.7c-19.8-4.4-40.6-5.6-61-5.9c-30.7-0.4-32.9,2.1-33,33.3
	c-0.3,85-0.1,170.1,0,255.1c0,7,1.2,14,2.2,25.4L96.1,2813z"/>
<path class="st5" d="M936.8,2419.1c73.5,0,143.4-5.4,212.1,1.3c95.5,9.4,146.4,62.2,163.7,158.4c6.4,35.6,7.7,72.4,7.9,108.6
	c0.8,129.1,0.9,258.2-0.3,387.3c-0.5,50.1-11.3,98.3-33.8,143.9c-22.1,44.7-57.9,72.1-105.1,82.5c-35.2,7.8-71.6,11.9-107.7,13.8
	c-44.7,2.3-89.6,0.5-136.7,0.5V2419L936.8,2419.1z M1029.9,2865.1c0,46.2,0,92.4,0,138.7c0,64.5,0,128.9,0,193.4
	c0,13.3-1.9,29.9,16.7,31.1c102.7,6.2,161.6-14.5,172.6-125.6c1.6-15.7,0.7-31.6,0.7-47.4c0-130.1,0-260.3,0-390.4
	c0-14.6,0.4-29.2-0.7-43.8c-4.3-60.3-29.8-97.3-81.4-111.2c-21.7-5.8-45.7-4.2-68.7-4.4c-37.9-0.4-39,1-39.1,38.6
	c-0.2,107,0,214.1,0,321.1L1029.9,2865.1z"/>
<path class="st5" d="M1629.1,2869.3c0-88.8-0.3-177.7,0.1-266.5c0.2-35.6,9.2-68.9,24.4-101.5c41.4-88.5,142.3-107.5,209.8-92.6
	c103.8,22.8,147.6,94.2,150.4,188.7c5.3,179.9,5,360.2,0,540.2c-2.5,88.8-44.9,161.2-135.7,180.5c-91.5,19.4-173.7,5.4-218.7-71.5
	c-19.2-32.7-30.1-68.6-30-107.2c0-90,0-180.1,0-270.1h-0.2L1629.1,2869.3z M1914.1,2866.7c0-81.6,1.5-163.3-0.9-244.8
	c-0.8-27.1-7.9-55.4-18.5-80.4c-15.4-36.3-42.9-47.4-87.5-43.3c-33.4,3.1-61.4,25.5-68.6,60.4c-6.8,33.1-12.6,67-13,100.6
	c-1.4,138.9-1.6,277.7,0,416.6c0.4,34.8,6,70.3,14.9,103.9c9.3,35,44.5,56.2,81.2,56.3c37.6,0.2,65.4-16.8,78.3-53.6
	c7.9-22.5,12.8-47.1,13.2-70.9c1.6-81.6,0.6-163.2,0.7-244.8H1914.1z"/>
<path class="st6" d="M2918.8,3029.6h-142.2c-8,49.5-16.2,98.3-23.7,147.1c-5.7,37.2-10.9,74.6-15.9,111.9
	c-2.3,16.8-8.9,26.4-28.2,25.3c-24-1.3-48.2-0.3-75.6-0.3c3.6-30.1,5.7-56.3,9.9-82.2c28.5-173.8,57.6-347.6,86.4-521.4
	c14.9-89.9,29.6-179.8,43.9-269.8c2.3-14.7,9.3-21.4,24-21.4c38.9,0.2,77.8,0,121.9,0c51.5,297.1,102.7,593,155,894.6
	c-33.8,0-62.7,0.2-91.5,0c-16.5-0.1-18.2-12-20.2-24.9c-12.5-82.9-25.4-165.7-38.4-248.6c-0.3-2.2-2.2-4.2-5.5-10.4L2918.8,3029.6z
	 M2850.5,2527.5c-1.4,0.5-2.8,1-4.3,1.5c-19.5,134.3-39,268.7-58.9,405.7h123.8C2890.6,2797,2870.5,2662.3,2850.5,2527.5
	L2850.5,2527.5z"/>
<path class="st7" d="M563.8,2419.8h137.8c3.2,7.8,8.5,16.2,10.1,25.3c13.3,76.2,25.6,152.7,38.7,228.9
	c12.9,75.1,26.6,150,39.4,225.1c11.8,69.1,22.5,138.4,34.4,207.5c10.1,58.4,21.1,116.6,32.3,174.8c5.4,27.9,2.3,33-25,34.1
	c-13.4,0.5-26.8,0.2-40.2,0c-35.3-0.3-40-3.5-45.1-37.6c-10.8-71.7-21-143.6-31.1-215.4c-4-28.7-6.9-31.9-37-32.1
	c-37.5-0.3-75,0-114.5,0c-8.7,56.8-16.9,110.3-25.2,163.8c-4.4,28.6-8,57.5-13.8,85.8c-7,34-9.4,35-43,35.6
	c-45.1,0.7-64.1-20.1-56.9-62.5c16.7-99,33.2-197.9,50-296.9c23.9-140.7,48.1-281.3,71.8-422
	C552.7,2497.3,557.7,2460.2,563.8,2419.8L563.8,2419.8z M636,2525.4c-1.3,0.5-2.7,0.9-4,1.4c-19.1,135.3-38.1,270.7-57.3,407h122.9
	C676.7,2795.4,656.4,2660.4,636,2525.4L636,2525.4z"/>
<path class="st6" d="M2678.2,2418.9c-17.3,56.6-32.4,106.3-47.7,155.9c-38.1,124.2-76.6,248.4-114.1,372.8
	c-4.5,14.8-5.8,31-5.9,46.6c-0.5,92.5-0.3,185-0.3,277.5c0,11.9,0,23.9,0,39h-99.7c-0.8-9.9-2.5-20.3-2.5-30.7
	c-0.2-64.5-2.9-129.1,0.6-193.5c4.5-81.6-10.9-158.7-36.1-235.8c-43.7-133.8-83.9-268.8-125.4-403.4c-2.4-7.8-3.5-15.9-6.1-28.1
	c32.9,0,63.1,0,93.2,0c16.1,0,19.1,12.1,22.3,24.3c32.5,124.5,65,249,97.6,373.5c0.8,3.1,2.8,6,6.6,13.7c5-15.2,9.3-26.1,12.3-37.4
	c30.2-113.8,60.7-227.6,89.7-341.7c6.1-24,15.9-35.7,42.1-33.1c21.5,2.2,43.3,0.4,73.5,0.4H2678.2z"/>
<path class="st8" d="M1112.1,689.5c-4.3-4.9-11.9-10.9-16.2-18.7c-16.5-29.8-33.3-59.5-47.7-90.3c-21.7-46.5,6-90.3,57.9-90.4
	c241.1-0.6,482.2-0.4,723.3,0.3c10.5,0,26.7,4.9,30.6,12.5c20.3,39.7,37.6,80.9,59.2,129c-21.7,2.7-37.5,6.4-53.3,6.5
	c-207,1.5-414,2.3-621,3.8c-21.7,0.2-44.9,0.3-64.8,7.6C1157.1,658.2,1136.9,674.5,1112.1,689.5L1112.1,689.5z"/>
<path class="st9" d="M1570,707.6c115.7,0,231.4,1.3,347-0.9c31.3-0.6,46.3,10,56.2,38c9.7,27.4,24.5,53,35.5,80
	c8.1,20.2,3.7,25.9-18.2,27.6c-9.7,0.7-19.5,0.1-29.2,0.2c-209.4,2.1-418.8,4.4-628.2,6.2c-40.1,0.3-77.7,5.1-105.6,38.7
	c-11,13.2-22.2,7.8-29-5c-18.8-35.5-39-70.4-54.2-107.5c-15-36.6,12.5-74.6,53.2-77.2c24.3-1.5,48.7-0.3,73-0.3
	c99.8,0,199.7,0,299.5,0L1570,707.6z"/>
<path class="st10" d="M1827,1262.3c16.2-2,32.5-5.7,48.7-5.5c34.5,0.4,68.9,2.9,103.4,4.6c0,34.5,0.2,68.9,0.3,103.4
	c-39.8,39.1-79.5,78.3-119.5,117.3c-10.3,10.1-21.6,19.3-32.4,28.9c-0.2-82.9-0.4-165.7-0.5-248.6V1262.3z"/>
<path class="st11" d="M934.1,1504.5c-2.4-9.7-6.7-19.4-6.8-29.1c-0.7-54.7-0.3-109.5-0.3-164.2c0-71.8,0-143.5,0-215.3
	c0-11.7,0-23.5,0-43c11.7,8.6,17.2,11.6,21,16c1.9,2.2,1,7,1,10.7c0,136.2,0,272.4-0.2,408.7c0,4.5-2.2,9.1-3.3,13.6
	c-3.7,0.9-7.5,1.8-11.2,2.7L934.1,1504.5z"/>
<path class="st12" d="M926,863.6c5.8-4.9,12.5-15.2,19.8-15.7c38.4-2.9,89.4,55.9,82.2,93.4c-1,5-6.8,9.1-14.2,18.5
	c-10.3-21.8-15.4-42.8-28.2-56.9c-13.7-15-34.6-23.4-59.7-39.3H926z"/>
</svg>
