<?xml version="1.0" encoding="utf-8"?>
<!-- Generator: Adobe Illustrator 27.7.0, SVG Export Plug-In . SVG Version: 6.00 Build 0)  -->
<svg version="1.1" id="Layer_1" xmlns="http://www.w3.org/2000/svg" xmlns:xlink="http://www.w3.org/1999/xlink" x="0px" y="0px"
	 viewBox="0 0 3500 3500" style="enable-background:new 0 0 3500 3500;" xml:space="preserve">
<style type="text/css">
	.st0{fill:#4980C2;}
	.st1{fill-opacity:0;stroke:#000000;stroke-width:0.98;stroke-miterlimit:3.92;stroke-opacity:0;}
	.st2{fill:#F47B21;}
	.st3{fill:#F15A22;}
	.st4{fill:#98CA3C;}
	.st5{fill:#3A68B2;}
	.st6{fill:#213468;}
	.st7{fill:#EF3823;}
	.st8{fill:#24439B;}
	.st9{fill:#EF4223;}
</style>
<path id="a" class="st0" d="M2915,1666.1c0-71.8-53.9-130-120.4-130s-120.5,58.2-120.5,130c0,0-2.4,246.1-2.4,328.2
	c0,1.8,0.2,3.5,0.2,5.3c-0.1,1.5-0.2,2.9-0.2,4.3c0,23.5,6.8,45.3,18.5,63.9c21.2,36.2,58.5,56.2,101.2,56.5c0.2,0,0.4,0.1,0.6,0.1
	h0.1c46.1,0,86.1-22.8,106.4-64.2c8.9-16.8,13.9-35.9,13.9-56.2c0-0.9-0.1-1.7-0.1-2.5c0.1-2.4,0.3-4.7,0.3-7.1L2915,1666.1
	L2915,1666.1z"/>
<path id="a-2" class="st1" d="M2915,1666.1c0-71.8-53.9-130-120.4-130s-120.5,58.2-120.5,130c0,0-2.4,246.1-2.4,328.2
	c0,1.8,0.2,3.5,0.2,5.3c-0.1,1.5-0.2,2.9-0.2,4.3c0,23.5,6.8,45.3,18.5,63.9c21.2,36.2,58.5,56.2,101.2,56.5c0.2,0,0.4,0.1,0.6,0.1
	h0.1c46.1,0,86.1-22.8,106.4-64.2c8.9-16.8,13.9-35.9,13.9-56.2c0-0.9-0.1-1.7-0.1-2.5c0.1-2.4,0.3-4.7,0.3-7.1L2915,1666.1
	L2915,1666.1z"/>
<path id="b" class="st2" d="M3487.2,1982.3c-0.1-0.3-0.2-0.7-0.3-1c-0.3-0.8-0.6-1.7-0.9-2.5c-1.5-4-3.1-7.9-4.8-11.9
	c-30.9-66.1-128.7-118.6-182.2-143.3c-21.5-9.9-44.1-17.2-47.3-18.3c-7.8-2.8-12.2-6.1-14.5-8.5c-3.4-3.5-6.2-8.6-6.2-12.4
	c0-19.5,18.8-25.5,56.5-25.5h64.3c61.6,0,111.4-49.9,111.4-111.4s-49.9-111.4-111.4-111.4h-64.3c-154,0-279.4,111.3-279.4,248.2
	c0,36.5,9.1,72.1,25.1,104.3c10.5,19.5,58.1,90.7,210.9,133.5c7.5,0.9,13.8,2.5,18.9,5c9.2,4.5,14.1,12.1,14.1,24.3
	c0,19.4-18.8,31.5-56.5,31.5h-105.9c-61.5,0-111.4,49.9-111.4,111.4s49.9,111.4,111.4,111.4h105.9c154,0,279.4-111.4,279.4-248.2
	c0-23.8-3.7-46.6-10.5-68.3C3488.7,1987,3488,1984.7,3487.2,1982.3"/>
<path id="b-2" class="st1" d="M3487.2,1982.3c-0.1-0.3-0.2-0.7-0.3-1c-0.3-0.8-0.6-1.7-0.9-2.5c-1.5-4-3.1-7.9-4.8-11.9
	c-30.9-66.1-128.7-118.6-182.2-143.3c-21.5-9.9-44.1-17.2-47.3-18.3c-7.8-2.8-12.2-6.1-14.5-8.5c-3.4-3.5-6.2-8.6-6.2-12.4
	c0-19.5,18.8-25.5,56.5-25.5h64.3c61.6,0,111.4-49.9,111.4-111.4s-49.9-111.4-111.4-111.4h-64.3c-154,0-279.4,111.3-279.4,248.2
	c0,36.5,9.1,72.1,25.1,104.3c10.5,19.5,58.1,90.7,210.9,133.5c7.5,0.9,13.8,2.5,18.9,5c9.2,4.5,14.1,12.1,14.1,24.3
	c0,19.4-18.8,31.5-56.5,31.5h-105.9c-61.5,0-111.4,49.9-111.4,111.4s49.9,111.4,111.4,111.4h105.9c154,0,279.4-111.4,279.4-248.2
	c0-23.8-3.7-46.6-10.5-68.3C3488.7,1987,3488,1984.7,3487.2,1982.3"/>
<path id="c" class="st2" d="M1408,2151.8c0,71.8-58.2,130-130,130s-130-58.2-130-130v-547.4c0-71.8,58.2-130,130-130
	s130,58.2,130,130V2151.8z"/>
<path id="c-2" class="st1" d="M1408,2151.8c0,71.8-58.2,130-130,130s-130-58.2-130-130v-547.4c0-71.8,58.2-130,130-130
	s130,58.2,130,130V2151.8z"/>
<path id="d" class="st2" d="M1555.7,2005.6c-50.8,50.8-133.1,50.8-183.8,0c-50.8-50.8-50.8-133.1,0-183.8l237.1-237.1
	c50.8-50.8,133.1-50.8,183.8,0c50.8,50.8,50.8,133,0,183.8L1555.7,2005.6L1555.7,2005.6z"/>
<path id="d-2" class="st1" d="M1555.7,2005.6c-50.8,50.8-133.1,50.8-183.8,0c-50.8-50.8-50.8-133.1,0-183.8l237.1-237.1
	c50.8-50.8,133.1-50.8,183.8,0c50.8,50.8,50.8,133,0,183.8L1555.7,2005.6L1555.7,2005.6z"/>
<path id="e" class="st2" d="M1371.8,2017.1c-50.8-50.8-50.8-133.1,0-183.9c50.8-50.7,133.1-50.7,183.8,0
	c23.7,23.8,213.4,213.4,237.1,237.1c50.8,50.8,50.8,133.1,0,183.9c-50.8,50.7-133.1,50.7-183.8,0
	C1561.5,2206.7,1419.2,2064.5,1371.8,2017.1L1371.8,2017.1z"/>
<path id="e-2" class="st1" d="M1371.8,2017.1c-50.8-50.8-50.8-133.1,0-183.9c50.8-50.7,133.1-50.7,183.8,0
	c23.7,23.8,213.4,213.4,237.1,237.1c50.8,50.8,50.8,133.1,0,183.9c-50.8,50.7-133.1,50.7-183.8,0
	C1561.5,2206.7,1419.2,2064.5,1371.8,2017.1L1371.8,2017.1z"/>
<path id="f" class="st3" d="M1555.7,1832.4c-50.8-50.8-133.1-50.8-183.8,0c-23.9,23.9-36.5,54.9-37.8,86.2
	c1.3,31.3,13.9,62.3,37.8,86.2c50.8,50.7,133.1,50.7,183.8,0l86.2-86.2L1555.7,1832.4z"/>
<path id="f-2" class="st1" d="M1555.7,1832.4c-50.8-50.8-133.1-50.8-183.8,0c-23.9,23.9-36.5,54.9-37.8,86.2
	c1.3,31.3,13.9,62.3,37.8,86.2c50.8,50.7,133.1,50.7,183.8,0l86.2-86.2L1555.7,1832.4z"/>
<path id="g" class="st4" d="M2231.8,2165.5c0,71.8-58.2,130-130,130s-130-58.3-130-130v-335.3c0-71.8,58.2-130,130-130
	c71.8,0,130,58.2,130,130V2165.5L2231.8,2165.5z"/>
<path id="g-2" class="st1" d="M2231.8,2165.5c0,71.8-58.2,130-130,130s-130-58.3-130-130v-335.3c0-71.8,58.2-130,130-130
	c71.8,0,130,58.2,130,130V2165.5L2231.8,2165.5z"/>
<path id="h" class="st4" d="M2231.8,1324.3c0,71.8-58.2,130-130,130s-130-58.2-130-130s58.2-130,130-130
	C2173.5,1194.3,2231.8,1252.5,2231.8,1324.3"/>
<path id="h-2" class="st1" d="M2231.8,1324.3c0,71.8-58.2,130-130,130s-130-58.2-130-130s58.2-130,130-130
	C2173.5,1194.3,2231.8,1252.5,2231.8,1324.3"/>
<path id="i" class="st0" d="M2621.8,2052c-26.5,0-48.1-21.5-48.1-48.1s21.5-48,48.1-48s48.1,21.5,48.1,48S2648.3,2052,2621.8,2052
	 M2621.8,1713.2c-160.6,0-290.8,130.2-290.8,290.8s130.2,290.8,290.8,290.8s290.8-130.1,290.8-290.8S2782.4,1713.2,2621.8,1713.2"/>
<path id="i-2" class="st1" d="M2621.8,2052c-26.5,0-48.1-21.5-48.1-48.1s21.5-48,48.1-48s48.1,21.5,48.1,48S2648.3,2052,2621.8,2052
	 M2621.8,1713.2c-160.6,0-290.8,130.2-290.8,290.8s130.2,290.8,290.8,290.8s290.8-130.1,290.8-290.8S2782.4,1713.2,2621.8,1713.2"/>
<path id="j" class="st5" d="M2912.5,1998.7c-2.5-140.5-104.7-256.7-238.9-280.8c-0.6,76.8-1.9,218.1-1.9,276.5
	c0,82.1,53.9,130,120.4,130S2910.5,2078.6,2912.5,1998.7"/>
<path id="j-2" class="st1" d="M2912.5,1998.7c-2.5-140.5-104.7-256.7-238.9-280.8c-0.6,76.8-1.9,218.1-1.9,276.5
	c0,82.1,53.9,130,120.4,130S2910.5,2078.6,2912.5,1998.7"/>
<path id="k" class="st6" d="M242.7,1618.4V1534H0v372.3h242.7v-84.4H96.8v-63.3h125.5v-77H96.9l0.1-63.1H242.7L242.7,1618.4z"/>
<path id="k-2" class="st1" d="M242.7,1618.4V1534H0v372.3h242.7v-84.4H96.8v-63.3h125.5v-77H96.9l0.1-63.1H242.7L242.7,1618.4z"/>
<path id="l" class="st6" d="M657.5,1903.8c15.9,2.5,63.6,12.8,124.8,7.7c53.8-4.6,121.4-36.4,122.6-121.1
	c0.5-36.5-10.8-78.8-63.6-99.7c-8-2.8-71.6-25.5-79.5-28.4c-8.7-3.5-15.6-11.2-15.9-18.2c-0.5-13.8,10.8-26.8,35.8-29.9
	c22.4-2.8,57.6,0.7,101,10.8c-0.1-8.7-0.5-78-0.5-86.6c-15-4.1-51-13.4-99.5-14.9c-64.2-1.9-128.4,39.3-132.4,119.7
	c-1.9,39.8,16.2,84.5,63.3,101.4c7.3,2.7,65.9,23.9,73.3,26.5c18.2,7.8,18.8,15.6,19.3,21.8c0.8,11.2-10.1,19.8-24.5,25.5
	c-19,7.3-75.3,7.9-123.7-6.8C657.8,1830.1,657.6,1885.4,657.5,1903.8L657.5,1903.8L657.5,1903.8z"/>
<path id="l-2" class="st1" d="M657.5,1903.8c15.9,2.5,63.6,12.8,124.8,7.7c53.8-4.6,121.4-36.4,122.6-121.1
	c0.5-36.5-10.8-78.8-63.6-99.7c-8-2.8-71.6-25.5-79.5-28.4c-8.7-3.5-15.6-11.2-15.9-18.2c-0.5-13.8,10.8-26.8,35.8-29.9
	c22.4-2.8,57.6,0.7,101,10.8c-0.1-8.7-0.5-78-0.5-86.6c-15-4.1-51-13.4-99.5-14.9c-64.2-1.9-128.4,39.3-132.4,119.7
	c-1.9,39.8,16.2,84.5,63.3,101.4c7.3,2.7,65.9,23.9,73.3,26.5c18.2,7.8,18.8,15.6,19.3,21.8c0.8,11.2-10.1,19.8-24.5,25.5
	c-19,7.3-75.3,7.9-123.7-6.8C657.8,1830.1,657.6,1885.4,657.5,1903.8L657.5,1903.8L657.5,1903.8z"/>
<path id="m" class="st6" d="M412.5,1617.5c42.9-7.4,89.9,4.2,89.9,34.6s-46.9,41.9-89.9,34.5V1617.5z M412.5,1754.7
	c42.9-7.3,89.9,4.2,89.9,34.6s-46.9,42-89.9,34.5V1754.7z M315.5,1534v372.4h145c119.7,0,139.4-73.1,139.4-102.6
	c0-43.9-18.6-69.6-48.3-83.5c25.6-13.9,43.2-40.1,43.2-80.8c0-35.1-22.2-105.5-135.3-105.5L315.5,1534L315.5,1534z"/>
<path id="m-2" class="st1" d="M412.5,1617.5c42.9-7.4,89.9,4.2,89.9,34.6s-46.9,41.9-89.9,34.5V1617.5z M412.5,1754.7
	c42.9-7.3,89.9,4.2,89.9,34.6s-46.9,42-89.9,34.5V1754.7z M315.5,1534v372.4h145c119.7,0,139.4-73.1,139.4-102.6
	c0-43.9-18.6-69.6-48.3-83.5c25.6-13.9,43.2-40.1,43.2-80.8c0-35.1-22.2-105.5-135.3-105.5L315.5,1534L315.5,1534z"/>
<path id="n" class="st7" d="M1334,1918.6c0-68.6,55.6-124.3,124.3-124.3s124.3,55.6,124.3,124.3s-55.6,124.3-124.3,124.3
	S1334,1987.2,1334,1918.6"/>
<path id="n-2" class="st1" d="M1334,1918.6c0-68.6,55.6-124.3,124.3-124.3s124.3,55.6,124.3,124.3s-55.6,124.3-124.3,124.3
	S1334,1987.2,1334,1918.6"/>
<path id="o" class="st8" d="M2671.7,2004c0-66.5,53.9-120.4,120.4-120.4s120.4,53.9,120.4,120.4s-53.9,120.4-120.4,120.4
	S2671.7,2070.4,2671.7,2004"/>
<path id="o-2" class="st1" d="M2671.7,2004c0-66.5,53.9-120.4,120.4-120.4s120.4,53.9,120.4,120.4s-53.9,120.4-120.4,120.4
	S2671.7,2070.4,2671.7,2004"/>
<path id="p" class="st9" d="M3161.5,1921.4c0-56.6,45.9-102.4,102.4-102.4s102.5,45.9,102.5,102.4s-45.9,102.4-102.5,102.4
	S3161.5,1978,3161.5,1921.4"/>
<path id="p-2" class="st1" d="M3161.5,1921.4c0-56.6,45.9-102.4,102.4-102.4s102.5,45.9,102.5,102.4s-45.9,102.4-102.5,102.4
	S3161.5,1978,3161.5,1921.4"/>
</svg>
