<?xml version="1.0" encoding="UTF-8"?>
<svg id="Layer_01" data-name="Layer 01" xmlns="http://www.w3.org/2000/svg" version="1.1" viewBox="0 0 3500 3500">
  <defs>
    <style>
      .cls-1 {
        fill: #12a3aa;
      }

      .cls-1, .cls-2, .cls-3, .cls-4 {
        stroke-width: 0px;
      }

      .cls-2 {
        fill: #f57eb6;
      }

      .cls-3 {
        fill: #fff;
      }

      .cls-4 {
        fill: #fefefe;
      }
    </style>
  </defs>
  <path class="cls-3" d="M1873.16,1821.09c-47.26-72.5-116.55-109.5-200.64-120.89-40.99-5.55-81.74-2.22-121.6,9.05-45.3,12.8-85.05,34.07-117.59,65.69-7,6.81-2.21,18.69,7.56,18.69h193.54v.02c.31,0,.61-.02.92-.02,94.93.5,163.32,68.44,162.71,165.43-.66,104.09-80.8,162.88-164.54,162.48-83.42-.4-162.9-59.96-162.71-164.32.22-53.05,21.02-96.94,55.12-125.86,7.69-6.52,3.02-19.1-7.06-19.1h-111.42c-3.6,0-7.01,1.76-9,4.76-38.27,57.51-48.92,121.29-36.98,189.73,10.1,57.87,37.77,105.89,82.43,143.69,55,46.56,119.76,66.2,191.02,66.59,25.98.18,51.41-3.25,76.66-9.3,108.54-26,199.65-116.13,200.27-247.06.24-50.36-11.13-97.33-38.67-139.58Z"/>
  <path class="cls-1" d="M368.25,1272.63v599.61c79.51,0,155.77-31.58,211.99-87.81,56.23-56.22,87.81-132.48,87.81-212s-31.58-155.77-87.81-211.99c-56.22-56.23-132.48-87.81-212-87.81Z"/>
  <path class="cls-1" d="M299.81,1609.55v599.61c-79.51,0-155.77-31.58-211.99-87.81C31.59,2065.13,0,1988.87,0,1909.35s31.58-155.77,87.81-211.99c56.22-56.23,132.48-87.81,212-87.81Z"/>
  <path class="cls-2" d="M267.8,1523.46c25.4-30.84,37.46-70.34,33.61-110.1-3.85-39.77-23.25-76.23-54.09-101.63-30.84-25.4-70.34-37.46-110.1-33.61-39.77,3.85-76.23,23.25-101.63,54.09-25.4,30.84-37.46,70.34-33.61,110.1,3.85,39.77,23.25,76.23,54.09,101.63,30.84,25.4,70.34,37.46,110.1,33.61,39.77-3.84,76.23-23.25,101.63-54.09Z"/>
  <path class="cls-3" d="M1378.76,2202.93c-1.19-2.3-3.41-4.05-5.17-6.06-67.62-77.47-135.25-154.92-202.84-232.41-7.33-8.4-14.55-16.91-21.95-25.59-3.81-4.47-3.54-11.14.65-15.27.07-.07.14-.14.22-.21,70.12-68.3,140.27-136.58,210.39-204.88,3.27-3.18,6.68-6.32,9.38-9.95,4.27-5.74,2.28-9.86-4.91-10.86-1.87-.26-3.8-.12-5.71-.12-38.48,0-76.96.23-115.44-.15-10.27-.1-18.38,3.09-25.56,10.16-67.56,66.52-135.18,132.97-202.8,199.42l.14.14-145.98,143.18c-2.15,2.11-3.36,4.99-3.36,8,0,47.55-.01,95.11,0,142.66,0,12.56,3.58,15.94,16.49,15.97,11.06.03,22.11.04,33.17.04v.05h28.24c32.27,0,39.55-30.61,39.55-46.4v-16.57c.01-31.3-.07-28.21.16-59.51.03-4.23.75-9.79,3.42-12.45,21.05-20.91,42.5-41.41,64.25-62.31,4.61-4.43,11.99-4.11,16.18.72l.07.08c52,59.86,104.11,119.63,155.87,179.7,9.34,10.84,23.01,16.99,37.32,16.73,20.86-.38,41.74-.05,62.61-.05,16.38,0,32.77.25,49.14-.23,3.21-.09,7.53-2.27,9.1-4.85,1.11-1.82-1.19-6.13-2.66-8.97Z"/>
  <path class="cls-3" d="M3413.93,2222.3c-9.41,0-18.3-5.09-23.2-13.3-31.75-53.14-89.85-86.15-151.63-86.15s-119.88,33.01-151.63,86.15c-4.9,8.2-13.79,13.3-23.2,13.3h-60.89c-1.73,0-14.36-.27-15.95-.93-16.38-6.83-11.19-23.61-5.08-37.19,45.37-100.92,146.15-166.13,256.75-166.13s212.52,65.94,257.51,167.83c1.15,2.61,1.15,5.55,1.92,8.3,4.95,17.73-2.94,28.13-17.31,28.13h-67.28Z"/>
  <path class="cls-4" d="M3461.18,2063.64c-53.91-122.21-107.82-244.42-161.61-366.68-3.62-8.24-8.57-8.6-20.64-7.03h0s-74.15.2-74.15.2c-14.73-2.7-19.03-.15-22.95,8.77-52.72,119.81-105.55,239.57-158.39,359.32-4.16,9.42,7.19,17.95,15.12,11.38,32.88-27.24,71.4-47.91,113.55-60.02,9.78-2.81,17.69-10.03,21.36-19.52,22.35-57.79,44.6-115.34,67.03-173.33,22.09,57.93,44.13,115.73,66.26,173.78,3.63,9.52,11.52,16.76,21.29,19.64,44.09,12.98,84.16,35.34,117.88,64.79,7.82,6.83,19.44-1.79,15.25-11.29Z"/>
  <path class="cls-4" d="M2070.58,1808.95v53.38c0,46.74-37.89,84.63-84.63,84.63h-23.96c-4.43,0-8.02-3.59-8.02-8.02v-233.28c0-4.33,3.44-7.8,7.76-8.03,1.02-.05,2.04-.09,3.06-.09,79.43-.02,158.86-.38,238.28.2,36.95.27,73.48,4.65,108.67,17.22,62.92,22.48,97.73,67.02,105.93,133.05,3.96,31.84,3.18,63.43-4.89,94.51-13.81,53.21-48.41,87.34-99.27,106.06h0c-4.99,1.84-6.83,7.96-3.71,12.27,34.56,47.59,68.75,94.67,102.98,141.81,3.71,5.11.36,12.32-5.94,12.72-28.85,1.85-92.77,2.22-114.28.32-2.31-.2-4.38-1.42-5.72-3.31-33.23-46.71-66.99-94.17-100.93-141.88-1.51-2.12-3.95-3.38-6.55-3.38h-109.06v.21h-108.32c-4.43,0-8.02-3.59-8.02-8.02v-3.75c0-49.68,40.28-89.96,89.96-89.96h88.97v-.67c28.14-.36,56.29-.76,84.43-1.39,15.54-.35,30.41-4.4,44.33-11.26,17.62-8.68,31.03-24.52,35.7-43.6,3.3-13.45,3.81-27.04,2.1-41.07-3.4-27.84-17.68-46.92-43.15-57.42-.3-.12-.57-.22-.88-.31-3.15-.91-22.88-6.45-35.88-6.45-12.05,0-111.37-1.96-140.79-2.54-4.49-.09-8.18,3.53-8.18,8.02Z"/>
  <circle class="cls-2" cx="2011.49" cy="2159.45" r="67.92"/>
  <path class="cls-3" d="M2787.06,1692.2c-4.56-3.82-14.02-2.08-20.18-2.58-77.54-.05-154.99-.06-232.68-.03-10.5.64-26.25-2.28-27.14,12.14-1.74,30.02-.26,59.85-.73,89.83-2.18,32.16,6.59,72.72,38.46,87.28,24.04,9.9,52.47,10.74,78.54,7.54,10.88-1.7,9.77-14.31,10.13-22.77.42-20.65-.69-40.94.42-61.59.06-10.68,7.56-13.09,16.99-13.12,33.99-.69,67.33.11,101.39-.31,5.73-.34,8.52-.26,12.49-2.54,4.56-2.99,3.88-12.15,3.98-16.58-.19-12.04-1.46-24.67,1.28-36.42,2.33-12.45,9.32-23.65,16.25-34.2,1.42-2.48,2.01-4.63,1.18-6.11l-.36-.53Z"/>
  <path class="cls-3" d="M2654.69,1916.79c-38.27-.91-77.12-.15-115.53-.34-9.05.62-20.72-1.73-28.26,3.83-3.01,3.12-3.25,8.48-3.45,12.85-.91,31.27,13.34,54.7,39.6,70.76,8.12,5.19,17.64,6.34,27.06,6.21,83.48-.04,142.17.79,225.7-.17,17.25.45,12.5-19.8,13.95-31.53.61-22.12-10.7-38.34-28.5-50.66-15.91-12.91-36.76-10-56.11-10.4-32.69-.49-40.87.66-73.43-.5l-1.03-.06Z"/>
  <circle class="cls-2" cx="2852.71" cy="1752" r="64.91"/>
  <circle class="cls-2" cx="924.56" cy="1752" r="64.91"/>
  <path class="cls-3" d="M2640.08,2126.96c-2.76-1.79-4.82-4.52-5.67-8.77-3.25-34.84-3.17-58.66-40.53-74.57-22.56-9.54-47.38-6.6-71.31-6.15-11.31-.18-15.94,7.2-15.28,18.04-.1,47.12-.18,94.72-.16,142.15.19,14.94-1.66,30.05,18.41,29.34,28.94.32,57.88.35,86.81.33v.04h314.05v-100.41h-286.32Z"/>
  <path class="cls-3" d="M924.56,1844.33c-22.31,0-42.77-7.91-58.73-21.08,0,58.91,0,117.83,0,176.74,0,9.93,11.97,14.96,19.06,8l81.78-80.21c10.63-10.43,16.63-24.7,16.63-39.6,0-21.64,0-43.29,0-64.93-15.96,13.17-36.42,21.09-58.73,21.09Z"/>
</svg>