<?xml version="1.0" encoding="utf-8"?>
<!-- Generator: Adobe Illustrator 27.7.0, SVG Export Plug-In . SVG Version: 6.00 Build 0)  -->
<svg version="1.1" id="Layer_1" xmlns="http://www.w3.org/2000/svg" xmlns:xlink="http://www.w3.org/1999/xlink" x="0px" y="0px"
	 viewBox="0 0 3500 3500" style="enable-background:new 0 0 3500 3500;" xml:space="preserve">
<style type="text/css">
	.st0{fill:#FFFFFF;}
</style>
<path class="st0" d="M3022.6,1467.8c60.5,0,117.4-0.7,174.3,0.2c36,0.6,72.1,2.4,107.9,5.6c78.8,7.2,132.8,52,161.6,121.5
	c44.2,106.8,46.7,216.1-4.4,322.2c-37.1,77.1-103,113.1-187.8,114.5c-73.5,1.2-147,0.3-220.5,0.2c-9.7,0-19.4-0.8-31.3-1.3v-562.9
	L3022.6,1467.8z M3141.8,1932c39.3,0,75.3,0.3,111.3,0c61.6-0.7,95.1-26.3,110-86.1c12.2-48.8,13.1-98.6,6.4-148.2
	c-2.7-20.2-6.2-41-14-59.6c-16.4-39.3-47.4-61.2-90.6-64.4c-31.6-2.3-63.2-4.4-94.8-6c-9.3-0.5-18.7,1.2-28.4,1.9V1932L3141.8,1932z
	"/>
<path class="st0" d="M2456.2,1469.7h117.1v218h215.5v-217.2h118.7v559.3h-116.3v-239c-37.1-2.1-71.8-0.8-106.4-1
	c-35.1-0.2-70.1,0-109.2,0v239.9h-119.5L2456.2,1469.7L2456.2,1469.7z"/>
<path class="st0" d="M1151.6,1732.5c1.2-14.9,2.8-25.2,2.8-35.5c0.3-50.1-0.1-100.2,0.2-150.3c0.2-27.4,6.6-36.9,22.4-35.7
	c14.3,1.1,20.6,10.8,20.6,34.7c0.2,104.6,0.7,209.1-0.2,313.7c-0.8,100.1-95.6,168.4-171.5,167.7c-63.1-0.6-144.9-40.5-169.3-124.7
	c-5.6-19.4-2.8-27.4,11.3-31.5c16-4.7,25,3,29.7,17.3c15.9,48.1,47.6,77.9,97.4,92c66.4,18.8,163-33.1,157.9-132
	c-3.5-67.2-51-115.5-118.4-122.9c-40.6-4.4-101.9,16.6-127.4,74.6c-3.9,8.9-6.7,18.4-11.4,26.9c-6.6,11.9-16.6,16.6-30.3,10.6
	c-12.9-5.7-13.7-15.9-10.5-27.3c17.1-60,55.8-100.9,115.1-119.6c55.1-17.4,108.1-9.4,155.9,24.6c6.8,4.9,13.9,9.4,25.5,17.3
	L1151.6,1732.5z"/>
<path class="st0" d="M1845.5,1976c-12.8,8.8-22.2,15.5-31.9,21.9c-88.4,58-217.2,28.1-259.6-85.3c-1.9-5.1-2.3-10.7-4.2-15.7
	c-5-12.6-1.1-21.2,11.4-25.9c12.4-4.8,21.6,0.5,27.6,10.9c3.7,6.5,5,14.2,8,21.2c24.7,58.4,86.2,87.6,137.3,80
	c61.9-9.3,108.4-57.5,113.2-118.4c4.7-60.2-34.6-116.5-93.3-133.9c-68.2-20.2-131.5,20.3-153.8,69c-3.6,7.9-5,16.8-9.1,24.4
	c-6,11-14.8,19.8-29.1,14.6c-14.2-5.1-15-14.9-11.7-28.9c15.7-67.6,84.4-123.9,153.6-126.9c46.9-2,89,7.7,125.1,38.7
	c3.8,3.3,8.9,5.2,16.6,9.6c1.2-12.4,1.6-21.6,3-30.7c1.7-11.3,8.8-17,20.4-17c11.5,0,18.8,5.1,20.3,16.8c0.8,6.5,0.9,13,0.9,19.6
	c0,89.4,0,178.7,0,268.1c0,4.4,0,8.7-0.2,13.1c-0.3,13.2-3.7,24-19.9,24.3c-15.3,0.3-21.6-8-22.1-22.2c-0.3-7.3-1.2-14.5-2.3-27
	L1845.5,1976z"/>
<path class="st0" d="M260.4,1791.5c0-27.2-0.4-54.5,0.2-81.7c0.4-19.3,7-26.8,21.1-26.3c18,0.7,20.4,12.9,20.4,27.2
	c-0.1,45.7-0.5,91.5,0.1,137.2c0.5,39.7,13,75,43.8,101.7c40.7,35.4,87,44.9,137.1,23.3c50.5-21.8,79.6-59.9,80.4-116.2
	c0.6-42.5,0.1-85,0.2-127.4c0-7.6-0.4-15.3,0.5-22.8c1.7-12.9,7.2-22.9,22.4-23.2c14-0.3,18.4,9.5,21.9,20.3c0.3,1,0.6,2.1,0.5,3.2
	c-2,64.1,2.2,129.1-7.7,192c-9.7,61.6-77.7,134.7-186,127.1c-69.6-4.9-142.3-66.7-153.2-139.8c-4.6-30.9-0.8-63-0.8-94.6
	c-0.4,0-0.8,0-1.2,0L260.4,1791.5z"/>
<path class="st0" d="M45.4,1889c0,36.2,0,67.6,0,98.9c0,7.6,1.7,16.5-1.6,22.5c-3.5,6.4-11.8,13.5-18.5,14
	c-6.8,0.5-18.1-5.1-20.4-10.9c-4.3-10.7-4.6-23.3-4.6-35.2C0,1895.5,0.1,1812.8,0.2,1730c0-7.6,0.3-15.3,1.1-22.8
	c1.6-14.5,7-25.2,24.6-23.8c15.8,1.2,19.6,11.5,19.6,24.8c0,25,0,50.1,0.1,75.1c0,10.4,0,20.9,0,38c33-32.9,61.4-61.2,89.8-89.5
	c13.2-13.1,26.2-26.3,39.5-39.3c10.7-10.4,22.4-14,34.7-2.9c10,9,9.4,21.2-3.2,34.1c-34.4,35.1-69.6,69.4-104.4,104.2
	c-8.3,8.3-16.2,17.1-26.2,27.6c40,39.6,78.7,77.8,117.3,116.1c6.2,6.1,12.6,12.2,18,19c8,10,8.1,21.9-2.4,28.5
	c-6.8,4.3-18.3,4.3-26.7,2.1c-6.5-1.7-11.6-9.5-17-14.9c-33.3-33.2-66.5-66.4-99.8-99.6c-5.1-5.1-10.8-9.7-19.7-17.7L45.4,1889z"/>
<path class="st0" d="M2114.6,1683.2c42.8,0,85.6,0,128.4,0c6.6,0,13.2,0.2,19.7,0c14.5-0.4,23.9,7,24.8,20.6c1,14.3-9,21.5-23,21.9
	c-20.8,0.6-41.7,0.5-62.5,0.6c-7.7,0-15.4-0.2-23,0c-35.8,1.2-39.5,4.7-39.5,39.6c-0.1,70.9,0,141.7,0,212.6
	c0,8.7,0.5,17.5-0.6,26.1c-1.6,11.8-7.4,19.9-21.1,20.7c-15.4,0.9-22.2-7.8-24.6-20.7c-1.6-8.5-0.9-17.4-0.9-26.1
	c0-69.8,0-139.6,0-209.3c0-38.2-4.1-42.2-43.6-42.9c-23-0.4-46.1,0-69.1-0.2c-7.6,0-16.4,0.9-22.6-2.4c-6.7-3.6-15.6-12.2-15-17.7
	c0.8-7.7,8.2-16.7,15.3-21.3c5.5-3.6,14.9-1.6,22.5-1.6c45,0,90,0,135,0L2114.6,1683.2z"/>
<path class="st0" d="M1268.2,2029.8c-7.3-7.5-17.4-13.2-18.3-20c-0.9-7.6,5.8-16.7,10.7-24.3c1.9-2.9,7.9-3.2,11.9-4.7
	c59.3-21.7,87.1-64.2,88.7-126.8c1.8-73.9,47-135.4,114.4-159.8c6.1-2.2,12.5-3.5,18.8-5.3c10.7-3,20.3-1.3,24.4,9.9
	c4.1,11.2,1.8,21.9-9.2,28.5c-6.5,3.8-14,6-21,8.8c-52,21-79,59.5-80.6,115.2c-1.9,65.2-27.1,118.2-83.2,153.7
	c-16.2,10.2-35.4,15.8-56.4,24.8L1268.2,2029.8z"/>
<path class="st0" d="M653.2,1917.5c3.1-36.6,2-74.2,10.1-109.7c13.5-58.7,51.4-99.3,109.5-119.7c6.1-2.1,12.5-3.9,18.9-4.8
	c11-1.6,19.7,2.6,22.8,13.7c3.3,11.8-0.3,21.5-12.3,26.7c-5,2.2-10.1,4.1-15.2,6.1c-56.2,21.7-84.5,62.3-84.3,122.3
	c0.1,47.8,0.6,95.7-0.6,143.4c-0.2,9.6-4.8,22.7-12,27.6c-14.7,10.3-32.9-1.4-33.7-20.8c-1.1-28.2-0.3-56.5-0.3-84.8
	c-1,0-2-0.1-2.9-0.2V1917.5z"/>
</svg>
