<?xml version="1.0" encoding="utf-8"?>
<!-- Generator: Adobe Illustrator 27.7.0, SVG Export Plug-In . SVG Version: 6.00 Build 0)  -->
<svg version="1.1" id="Layer_1" xmlns="http://www.w3.org/2000/svg" xmlns:xlink="http://www.w3.org/1999/xlink" x="0px" y="0px"
	 viewBox="0 0 3500 3500" style="enable-background:new 0 0 3500 3500;" xml:space="preserve">
<style type="text/css">
	.st0{fill:url(#SVGID_1_);}
	.st1{fill:#F57B20;}
	.st2{fill:#FFFFFF;}
</style>
<linearGradient id="SVGID_1_" gradientUnits="userSpaceOnUse" x1="310.7001" y1="-1749.9027" x2="3500.0002" y2="-1749.9027" gradientTransform="matrix(1 0 0 -1 0 0)">
	<stop  offset="0" style="stop-color:#FFFFFF"/>
	<stop  offset="0.1" style="stop-color:#F1F1F1"/>
	<stop  offset="0.2" style="stop-color:#BFBEBE"/>
	<stop  offset="0.4" style="stop-color:#949292"/>
	<stop  offset="0.5" style="stop-color:#706D6E"/>
	<stop  offset="0.6" style="stop-color:#555152"/>
	<stop  offset="0.7" style="stop-color:#413D3E"/>
	<stop  offset="0.9" style="stop-color:#353132"/>
	<stop  offset="1" style="stop-color:#322E2F"/>
</linearGradient>
<path class="st0" d="M3465.8,1373.6c-704.3,0-1408.6-0.2-2112.9,0.6c-58.8,0-654.5,1-713.3,2.2l-191.2,474.1l-137.7,275.3
	c522,0.6,2102,0.6,2624-0.2c47.4,0,95.1-7.2,142-15c65.8-11.1,122.1-40.8,166.5-92.8c47.7-55.8,86.4-117.4,118.1-183
	c45.2-93.5,78.6-191.5,105-291.9c11.2-42.7,22.4-85.3,33.7-128v-41C3488.6,1373.9,3477.2,1373.7,3465.8,1373.6L3465.8,1373.6z
	 M1696.5,1979.3c-7.9,1-16.6,3-25.3,3.1c-82,0.2-164,0.3-246,0c-48-0.2-84.9-21.7-112.9-60c-26.2-35.7-43.5-75.7-46.8-119.3
	c-3.6-47.4-6.1-95.1,4.6-142.7c20.1-89.7,101.4-151.9,190.4-150.1c67.2,1.3,134.4,0.3,201.6,0.4c11.1,0,22.3,1,35.9,1.6v57.5
	c-12.4,0.8-23.4,2.1-34.5,2.1c-55.8,0.2-111.6,0-167.4,0.2c-85,0.2-140.2,57.3-137.3,135.8c1.2,33-1.5,66.2,0.7,99.1
	c3.4,50,24.6,90.1,73.9,109.1c16.7,6.4,35.3,10,53.2,10.8c35.2,1.7,70.6,0.5,105.9,0.6c14.1,0,25.7-4.2,25.9-20.4
	c0.6-41.8,0.2-83.5,0.2-129h-140.2c-1-21-1.9-38.4-2.7-54.9c26.1-8.9,178-10.8,219.2-3.8c7.1,24.2,8.6,220.4,1.5,259.8
	L1696.5,1979.3z M2140.3,1982.2c-15.6,0-20.6-12-26.4-23.1c-23.8-45.3-48.7-90.2-71.1-136.2c-11.4-23.4-26.2-34.5-53.1-32.8
	c-32.7,2-65.5,0.5-104.2,0.5v186.9c-27.6,7.7-51.8,6.1-75.7,2.3c-7.1-28.6-7.7-432.7-0.6-466.1c8.1-0.8,16.9-2.5,25.6-2.6
	c75.2-0.2,150.4-1.6,225.5,0.7c26.6,0.8,53.5,8.6,79.2,16.8c34.3,10.9,54.3,37.5,61.9,71.7c11.9,54,12,106.8-31.6,149.1
	c-9.4,9.1-22.5,14.8-34.5,20.9c-8.8,4.5-18.6,7.3-31.9,12.4c41.1,66.5,80.8,130.8,123.4,199.6c-32.4,0-59.5,0-86.6,0L2140.3,1982.2z
	 M2733.4,1848.1c-19.8,70.9-98.6,132.3-172.1,134.2c-18.2,0.5-36.4,0-54.6,0l0,0c-11.4,0.1-22.8-0.7-34.1,0.3
	c-103.1,9.2-201.6-96.5-196.8-196.3c2-41.9-1-84.7,6.8-125.4c14.9-78.3,84.9-143.3,173.2-148.8c42.7-2.7,86.8-1.9,128.9,5.2
	c93.7,15.9,141,83.7,155.7,155.6C2752.4,1731.9,2749.7,1790.3,2733.4,1848.1L2733.4,1848.1z M3226.4,1879.3
	c-7.2,59.8-45.8,100.3-104.8,101.8c-102.4,2.7-204.9,0.4-307.4,0c-2,0-4-1.9-8.5-4.1v-47.4c13.6-0.7,25.8-1.8,37.9-1.8
	c68.3-0.2,136.7,0,205,0c6.8,0,13.7,0.1,20.5,0c69-1.6,97.2-37.9,81.7-105c-5.7-24.7-33.9-45.3-65.1-45.6
	c-54.7-0.6-109.4-0.1-164-0.1c-9.1,0-18.4,1-27.3-0.5c-64.7-10.9-90.6-40.9-98-100c-2.4-19.1-2-38.8-0.2-58
	c4.3-46.1,28-79.2,72.5-93.9c21.3-7.1,44.3-12.4,66.6-12.8c84.3-1.5,168.6-0.7,252.9-0.6c6.6,0,13.1,1.6,22.9,3v55.3
	c-12.8,1-24.7,2.6-36.7,2.7c-69.5,0.3-139-0.5-208.4,0.5c-19.1,0.3-38.5,3.9-56.9,8.9c-23.1,6.3-35.9,23.4-38,47.4
	c-1,11.3-0.8,22.8-0.1,34.1c1.4,25.4,14.4,43.4,38.6,50.8c16.1,4.9,33.3,8,50,8.3c54.7,1,109.3,0,164,0.6
	c58.1,0.5,97.2,35.7,102.4,92.8c1.9,21.1,3.1,42.8,0.5,63.8L3226.4,1879.3z M1887.7,1724.7v-145.8c4.1-2.6,5.9-4.9,7.8-4.9
	c60.1-1.7,120.3-7.2,180,4.7c35.7,7.1,58.1,38.5,55.9,78.2c-2.1,38.4-29.1,71.1-64.3,72.1c-55.7,1.7-111.5,0.4-167.2,0
	c-3.1,0-6.2-2.2-12.2-4.4V1724.7z M2662,1743.7c-4.1,30-5.1,56.4-11.8,81.4c-14.2,53.3-45.1,89.7-104.2,97.8
	c-25.1,3.4-48.8,2.8-73.9,0.5c-53.7-4.8-101.4-58.5-108.1-119.4c-3.8-35.1-5.3-69.2-0.5-104.6c8.7-64.1,46.7-121.1,127.9-126.8
	c34.2-2.4,68.1,1,99.1,17.7c28.5,15.4,47,39.8,55.2,70.4C2653.3,1688.9,2657.1,1718.2,2662,1743.7L2662,1743.7z"/>
<path class="st1" d="M908.8,1376.2c-1.6,15.7-2,26.9-4,37.8c-22.2,117.8-57.1,232-100.9,343.3c-35.2,89.3-82.3,172.4-141.8,248.1
	c-47.2,60.1-109.3,96-184.7,106.5c-49.4,6.9-99.2,12.6-149,13.8c-96.8,2.2-193.7,0.7-290.6,0.8c-11.2,0-22.4,0-37,0
	c0-15.1-2-27.4,0.3-38.7c29-143.2,70.2-282.9,132.6-415.2c35.9-76.2,80.5-147.5,139.8-209.1c42.7-44.4,96.1-64.8,153.8-74.9
	c45.7-8,92.3-13.2,138.7-14.1c102.5-2.1,205.1-0.8,307.6-0.7c10,0,19.9,1.4,35.2,2.6V1376.2z M518.2,1599
	c-33.3,51-72.7,88.8-106.6,130.9c-33.5,41.5-68.5,82-102.5,123.1c-34.1,41.2-72.6,79.1-104.4,127.1h406.4c3.1-23.7,6-45.5,9.6-72.3
	h-85.6c-27.3,0-54.7,0.1-82,0c-26.5-0.2-53-0.7-86.1-1.1c111.5-134,218-262,325.3-391c-36.1-7.5-377.7-6.3-404.5,1.3
	c1.7,25.9-14.9,51.3-3.1,82H518.2L518.2,1599z"/>
<path class="st2" d="M1885.4,1790.5v186.9c-27.6,7.7-51.8,6.1-75.7,2.3c-7.1-28.6-7.7-432.7-0.6-466.1c8.1-0.8,16.9-2.5,25.6-2.6
	c75.2-0.2,150.4-1.6,225.5,0.7c26.6,0.8,53.5,8.6,79.2,16.8c34.3,10.9,54.3,37.5,61.9,71.7c11.9,54,12,106.8-31.6,149.1
	c-9.4,9.1-22.5,14.8-34.5,20.9c-8.8,4.5-18.6,7.3-31.9,12.4c41.1,66.5,80.8,130.8,123.4,199.6c-32.4,0-59.5,0-86.6,0
	c-15.6,0-20.6-12-26.4-23.1c-23.8-45.3-48.7-90.2-71.1-136.2c-11.4-23.4-26.2-34.5-53.1-32.8c-32.7,2-65.5,0.5-104.2,0.5
	L1885.4,1790.5z M1887.7,1724.7c6,2.3,9.1,4.4,12.2,4.4c55.7,0.3,111.5,1.7,167.2,0c35.2-1.1,62.1-33.7,64.3-72.1
	c2.2-39.8-20.1-71.1-55.9-78.2c-59.7-11.9-119.9-6.5-180-4.7c-1.9,0-3.7,2.3-7.8,4.9v145.8V1724.7z"/>
<path class="st2" d="M1618.7,1778.2h-140.2c-1-21-1.9-38.4-2.7-54.9c26.1-8.9,178-10.8,219.2-3.8c7.1,24.2,8.6,220.4,1.5,259.8
	c-7.9,1-16.6,3-25.3,3.1c-82,0.2-164,0.3-246,0c-48-0.2-84.9-21.7-112.9-59.9c-26.2-35.7-43.5-75.7-46.8-119.3
	c-3.6-47.4-6.1-95.1,4.6-142.7c20.1-89.7,101.4-151.9,190.4-150.1c67.2,1.3,134.4,0.3,201.6,0.4c11.1,0,22.3,1,35.9,1.6v57.5
	c-12.4,0.8-23.4,2.1-34.5,2.1c-55.8,0.2-111.6,0-167.4,0.2c-85,0.2-140.2,57.3-137.3,135.8c1.2,33-1.5,66.2,0.7,99.1
	c3.4,50,24.6,90.1,73.9,109.1c16.7,6.4,35.3,10,53.2,10.8c35.2,1.7,70.6,0.5,105.9,0.6c14.1,0,25.7-4.2,25.9-20.4
	c0.6-41.8,0.2-83.5,0.2-129L1618.7,1778.2z"/>
<path class="st2" d="M2506.6,1982.5c-11.4,0-22.8-0.9-34.1,0.1c-103.1,9.2-201.6-96.5-196.8-196.3c2-41.9-1-84.7,6.8-125.4
	c14.9-78.3,84.9-143.3,173.2-148.8c42.7-2.7,86.8-1.9,128.9,5.2c93.7,15.9,141,83.7,155.7,155.6c12,59,9.3,117.4-6.9,175.2
	c-19.8,70.9-98.6,132.3-172.1,134.2c-18.2,0.5-36.4,0-54.6,0l0,0L2506.6,1982.5z M2662,1743.7c-4.9-25.6-8.7-54.8-16.3-83.1
	c-8.2-30.6-26.7-55.1-55.2-70.4c-31-16.7-64.8-20.1-99.1-17.7c-81.2,5.7-119.1,62.7-127.9,126.8c-4.8,35.4-3.4,69.5,0.5,104.6
	c6.6,60.9,54.4,114.6,108.1,119.4c25.1,2.3,48.8,2.9,73.9-0.5c59.1-8,90-44.4,104.2-97.8C2656.8,1800.1,2657.8,1773.6,2662,1743.7
	L2662,1743.7z"/>
<path class="st2" d="M3210.9,1514.1v55.3c-12.8,1-24.7,2.6-36.7,2.7c-69.5,0.2-139-0.5-208.4,0.5c-19.1,0.3-38.5,3.9-56.9,8.9
	c-23.1,6.3-35.9,23.4-38,47.4c-1,11.3-0.8,22.8-0.1,34.1c1.4,25.4,14.4,43.4,38.6,50.8c16.1,4.9,33.3,8,50,8.3
	c54.7,1,109.3,0,164,0.6c58.1,0.5,97.2,35.7,102.4,92.8c1.9,21.1,3.1,42.8,0.5,63.8c-7.2,59.8-45.8,100.3-104.8,101.8
	c-102.4,2.7-204.9,0.4-307.4,0c-2,0-4-1.9-8.6-4.1v-47.4c13.6-0.7,25.8-1.8,37.9-1.8c68.3-0.2,136.7,0,205,0c6.8,0,13.7,0.1,20.5,0
	c69-1.6,97.2-37.9,81.7-105c-5.7-24.7-33.9-45.3-65.1-45.6c-54.7-0.6-109.4-0.1-164-0.1c-9.1,0-18.4,1-27.3-0.5
	c-64.7-10.9-90.6-40.9-98-100c-2.4-19.1-2-38.8-0.2-58c4.3-46.1,28-79.2,72.5-93.9c21.3-7.1,44.3-12.4,66.6-12.8
	c84.3-1.5,168.6-0.7,252.9-0.6c6.6,0,13.1,1.6,22.9,3L3210.9,1514.1z"/>
<path class="st2" d="M518.2,1599H284.6c-11.7-30.7,4.8-56.1,3.1-82c26.8-7.6,368.4-8.8,404.5-1.3c-107.3,129-213.8,257-325.3,391
	c33.1,0.4,59.6,0.9,86.1,1.1c27.3,0.2,54.7,0,82,0h85.6c-3.6,26.8-6.4,48.6-9.6,72.3H204.6c31.8-48,70.3-85.9,104.4-127.1
	c34-41.1,69-81.6,102.5-123.1c34-42.1,73.3-79.9,106.6-130.9H518.2z"/>
<path class="st2" d="M1219.6,1927.1c-50.2-123.3-100.4-246.5-150.7-369.8c-1.7-4.2-4.4-8.1-5.7-12.4c-8.9-29.8-28.3-42-59.3-37.2
	c-1.1,0.2-2.3,0.2-3.4,0.3c-1.1-0.1-2.3-0.2-3.4-0.3c-30.9-4.8-50.4,7.3-59.3,37.2c-1.3,4.3-4,8.2-5.7,12.4
	c-50.3,123.2-100.5,246.5-150.7,369.8c-8,19.6-15.6,39.4-25.4,64.4c19.3,0.8,33.6,1.8,47.9,1.8c35.1,0,36.8-1.1,49-34.6
	c7.4-20.3,14.4-40.8,21.6-61.2c5.2-14.7,15.2-20.9,31.3-20.5c30.4,0.8,60.8,0.3,91.2,0.4l0,0c1.1,0,2.3,0,3.4,0c1.1,0,2.3,0,3.4,0
	l0,0c30.4,0,60.8,0.4,91.2-0.4c16.1-0.4,26.1,5.8,31.3,20.5c7.2,20.4,14.2,40.8,21.6,61.2c12.3,33.5,13.9,34.7,49,34.6
	c14.3,0,28.5-1.1,47.9-1.8c-9.9-25-17.4-44.8-25.4-64.4L1219.6,1927.1z M1029.2,1808.8c-8.4,0.1-16.8,0-25.2-0.2l0,0
	c-1.1,0-2.3,0-3.4,0c-1.1,0-2.3,0-3.4,0l0,0c-8.4,0.2-16.8,0.4-25.2,0.3c-17.6-0.2-35.2-1-57.5-1.6c28.7-76.4,55.4-147.2,82-218.1
	c0.2,0,0.4,0,0.6,0v0.5c1.1,0,2.3-0.2,3.4-0.3c1.1,0,2.3,0.2,3.4,0.3v-0.5c0.2,0,0.4,0,0.6,0c26.7,70.9,53.3,141.7,82,218.1
	c-22.4,0.7-39.9,1.4-57.5,1.6L1029.2,1808.8z"/>
</svg>
