<?xml version="1.0" encoding="UTF-8"?>
<svg xmlns="http://www.w3.org/2000/svg" version="1.1" xmlns:xlink="http://www.w3.org/1999/xlink" viewBox="0 0 3500 3500">
  <defs>
    <style>
      .cls-1 {
        fill: url(#linear-gradient);
      }

      .cls-1, .cls-2, .cls-3, .cls-4, .cls-5, .cls-6, .cls-7, .cls-8, .cls-9 {
        stroke-width: 0px;
      }

      .cls-10 {
        isolation: isolate;
      }

      .cls-2 {
        fill: #56dffc;
      }

      .cls-3 {
        fill: none;
      }

      .cls-4 {
        fill: url(#linear-gradient-2);
      }

      .cls-5 {
        fill: url(#linear-gradient-3);
      }

      .cls-11 {
        clip-path: url(#clippath);
      }

      .cls-6 {
        fill: url(#linear-gradient-5);
        mix-blend-mode: lighten;
      }

      .cls-7 {
        fill: url(#radial-gradient);
      }

      .cls-8 {
        fill: #c2c4c3;
      }

      .cls-9 {
        fill: url(#linear-gradient-4);
      }
    </style>
    <linearGradient id="linear-gradient" x1="222.3" y1="2735.3" x2="1865.5" y2="3571.8" gradientUnits="userSpaceOnUse">
      <stop offset="0" stop-color="#e7ad29"/>
      <stop offset=".9" stop-color="#f36713"/>
      <stop offset="1" stop-color="#f6520c"/>
    </linearGradient>
    <linearGradient id="linear-gradient-2" x1="1897" y1="2262.9" x2="2223.2" y2="1650.7" gradientUnits="userSpaceOnUse">
      <stop offset="0" stop-color="#03f6fc"/>
      <stop offset="1" stop-color="#062596"/>
    </linearGradient>
    <linearGradient id="linear-gradient-3" x1="2454.7" y1="1629.5" x2="2309.6" y2="763.3" gradientUnits="userSpaceOnUse">
      <stop offset=".4" stop-color="#062596"/>
      <stop offset=".5" stop-color="#03e0f1"/>
      <stop offset=".6" stop-color="#062596"/>
    </linearGradient>
    <linearGradient id="linear-gradient-4" x1="1273" y1="719.5" x2="2113.9" y2="719.5" gradientUnits="userSpaceOnUse">
      <stop offset="0" stop-color="#03f6fc"/>
      <stop offset=".6" stop-color="#062596"/>
      <stop offset="1" stop-color="#062596"/>
    </linearGradient>
    <radialGradient id="radial-gradient" cx="2056.1" cy="972.6" fx="2056.1" fy="972.6" r="1848.6" gradientUnits="userSpaceOnUse">
      <stop offset="0" stop-color="#03e0f1"/>
      <stop offset=".9" stop-color="#0545a6"/>
    </radialGradient>
    <clipPath id="clippath">
      <path class="cls-3" d="M1588.1,1815.1c-206.1,272.4-440.6,182.4-532.9,137.4-92.4-45-357.7-239.2-585-431.1-227.4-191.9-104.2-419.2-16.6-511.6s291.3-281.9,459.5-405c168.2-123.2,336.3-109,563.7,71.1,235.5,186.5,582.7,518.7,582.7,518.7,0,0-265.3,348.2-471.3,620.6ZM2395.7,713.7c101.8-151.6,33.2-236.9-26.1-310.3-59.2-73.4-253.4-232.1-416.9-329.2-163.4-97.1-248.7-82.9-305.5-47.4-56.8,35.5-125.5,85.3-255.8,184.7-130.3,99.5,9.5,260.5,90,326.9,80.5,66.3,632.4,547.1,632.4,547.1,0,0,180-220.3,281.9-371.9ZM2706,1703.8c156.3,175.3,227.4,0,227.4,0,0,0,56.8-144.5,92.4-279.5,35.5-135-23.7-279.5-99.5-393.2-75.8-113.7-234.5-305.5-234.5-305.5-90-104.2-168.2-28.4-206.1,30.8-37.9,59.2-265.3,419.2-265.3,419.2,0,0,329.2,352.9,485.6,528.2ZM2166,1263.9s-461.9,593.8-535.3,726.5c-73.4,132.6-54.5,345.8,16.6,419.2,71.1,73.4,438.2,374.2,438.2,374.2,0,0,132.6,142.1,291.3-23.7,158.7-165.8,364.8-514,379-622.9,14.2-109,23.7-236.9-139.7-421.6-163.4-184.7-450-451.7-450-451.7Z"/>
    </clipPath>
    <linearGradient id="linear-gradient-5" x1="1553.5" y1="-681.5" x2="1948.1" y2="1865.3" gradientUnits="userSpaceOnUse">
      <stop offset=".4" stop-color="#fff" stop-opacity="0"/>
      <stop offset="1" stop-color="#fff" stop-opacity=".3"/>
    </linearGradient>
  </defs>
  <g class="cls-10">
    <g id="Layer_1" data-name="Layer 1">
      <g>
        <g>
          <path class="cls-8" d="M3023.4,2961c82.9-3.8,143.4,29.9,199.2,83.8,58.1-47.3,118.8-90.1,204.1-83.6v128.1c-75.2,15.3-131.2,55.2-132.2,136.9-1,84.4,55.4,126.2,133.7,141v127.3c-84.4,8.7-144.5-34.3-203.7-82.5-58.4,47.2-116.4,91.6-201,82.6v-124.9c12.3-4.3,27.5-9.3,42.3-15,57.9-22.1,92.2-71.9,90.2-130.6-2-60-42-108.5-103.5-125.7-8.6-2.4-17.3-4.3-29.1-7.3v-130.2Z"/>
          <path class="cls-8" d="M2280.8,3195.1h0c37,0,67.1,30.1,67.1,67.1v233.6h-134.2v-233.6c0-37,30.1-67.1,67.1-67.1Z"/>
          <path class="cls-8" d="M2344.6,2959.4c-41.8-3-84-.5-126-.6-130.3-.2-249.7,124.6-252.1,250.1-.6,30.9-.9,61.8-1,92.7h0v191h137.8c0-76.5,4.4-147.8-.9-218.3-10.7-140.5,73.4-188.6,184.9-182,95.6,5.6,130.8,26.1,164.3,114.4,1.1,2.9-1.6,3.2,4.7,8.6,36.2-3.2,82.5-5.2,124.9-8.9-5.5-131.2-110.2-237.8-236.6-247Z"/>
          <path class="cls-8" d="M2991.8,3203.6c-8.2-101.1-62.8-177-156.4-222.2-78-37.7-216.5-34.6-287.2,47.5,27.6,31.8,55.8,64.1,82.6,95,21.3-9.4,35.8-17.6,51.3-22.3,76.5-23.2,151.3,17.6,169.2,95.4,12.3,53.4,8.1,108,1.6,166.8-36.7,0-69.3-1-101.8.2-81.3,3.1-137.1-30.2-162.4-109.7-1.5-4.7,1.4-11.8-2.9-17.1-39.7,3.7-87,11-129.4,15,5.8,124.3,106.5,236.2,240.7,245,73.6,4.9,147.8,2.6,221.8,1.3h76.1v-116.1h0c1.1-59.8,1.7-119.5-3.1-178.7Z"/>
          <path class="cls-1" d="M480.7,3372v116c-99.3,24.2-190.1-22.5-274.6-143.8v145.7H74c-2.5-237.8-2.4-476.3-1.9-718.9h131.9v325.6c51.9-56.8,101.5-108,176.5-126.9,70.5-17.8,140.8-8.7,212.9-10.6v132.3c-25.5,1.2-45.2,2.2-64.9,2.9-29.2,1.1-58.7-.4-87.6,3.3-68.2,8.7-114.5,58.7-117.8,123.8-3.5,69.2,32.7,120.2,99.7,139,17.4,4.9,35.5,7.2,57.9,11.6ZM1355.5,2964.7c-178.1-30.6-313.3,97.7-316.4,244.5,0,1.1,0,2.2,0,3.4h-.6v282.8h131.6v-282.5c8.2-77.1,78.3-130.5,156.6-119.3,14.2,2,28.2,4.9,46.4,8.1,20.2-35.5,39.7-69.8,64.6-113.7-33.8-9.7-57.6-19-82.2-23.2ZM1915.4,2803.4v-36.2h-132.3c0,28.9-.2,50.3,0,71.7,1.3,116.9,4,233.9,3.1,350.8-.3,33.9-7.8,68.8-18,101.4-16.5,52.6-63.3,70.7-111.3,75-48.3,4.4-93.9-8.4-123.2-55-65.4-104.3,5.4-220.9,114.5-221.5,21.1-.1,42.2-2.6,65.2-4.2v-123.6c-35.1,0-65.9-2.2-96.3.4-118.4,10.2-218.8,107.1-234.9,224.8-15,109.4,35,214.8,129.8,270,92.9,54.2,206.9,48.8,293.1-18,73.5-57,106-133.1,107.4-223.4,2.1-135.2,2.3-270.4,3-405.6,0-2.1,0-4.3-.2-6.4ZM1005.8,2964.7h-134.9c0,27.9,0,51.2,0,74.6.3,65.8,2.5,131.6.5,197.3-1.9,62.1-39.1,101.1-94.9,121.5-54,19.8-100.5,2.3-139.4-37.4-27.1-27.6-36.4-62.2-36.9-100.1-.4-30.3-1.9-60.6-3-93.8h-129.7c0,43.5-.9,81.4.2,119.3,4.3,152.3,148.2,259.7,285.4,248.8,136.4-10.8,242.2-117.2,250-254.1,2.4-42.7,2.9-85.6,2.7-128.5h0v-147.7Z"/>
        </g>
        <g>
          <path class="cls-4" d="M1924.4,1403s-307.9,407.4-376.6,532.9c-68.7,125.5-123.2,331.6,18.9,466.6,142.1,135,559.5,412.3,559.5,412.3,0,0,63.4-1557.3,39.8-1550.9s-241.6,139.1-241.6,139.1Z"/>
          <path class="cls-2" d="M381.2,1418.9s159.9,265.9,520,490.9c360,225,490.3,98.3,625-24.1,134.7-122.4-210.5-608.3-210.5-608.3l-641.9,52.1-292.6,89.4Z"/>
          <path class="cls-5" d="M2546.5,691.4l-214.7,162.1-331.6,452.4s66.3,94.7,113.7,125.5c47.4,30.8,514.5,388.4,514.5,388.4l250.1-50.4-332-1078Z"/>
          <path class="cls-9" d="M1361,242s-90.4,192.3-88,227.8c2.4,35.5-11.5,28.4,44,137.4,55.5,109,659.5,589.8,659.5,589.8l137.4-111.3s-156.3-351-180-366.2c-23.7-15.2-572.8-477.5-572.8-477.5Z"/>
          <path class="cls-7" d="M1588.1,1815.1c-206.1,272.4-440.6,182.4-532.9,137.4-92.4-45-357.7-239.2-585-431.1-227.4-191.9-104.2-419.2-16.6-511.6s291.3-281.9,459.5-405c168.2-123.2,336.3-109,563.7,71.1,235.5,186.5,582.7,518.7,582.7,518.7,0,0-265.3,348.2-471.3,620.6ZM2395.7,713.7c101.8-151.6,33.2-236.9-26.1-310.3-59.2-73.4-253.4-232.1-416.9-329.2-163.4-97.1-248.7-82.9-305.5-47.4-56.8,35.5-125.5,85.3-255.8,184.7-130.3,99.5,9.5,260.5,90,326.9,80.5,66.3,632.4,547.1,632.4,547.1,0,0,180-220.3,281.9-371.9ZM2706,1703.8c156.3,175.3,227.4,0,227.4,0,0,0,56.8-144.5,92.4-279.5,35.5-135-23.7-279.5-99.5-393.2-75.8-113.7-234.5-305.5-234.5-305.5-90-104.2-168.2-28.4-206.1,30.8-37.9,59.2-265.3,419.2-265.3,419.2,0,0,329.2,352.9,485.6,528.2ZM2166,1263.9s-461.9,593.8-535.3,726.5c-73.4,132.6-54.5,345.8,16.6,419.2,71.1,73.4,438.2,374.2,438.2,374.2,0,0,132.6,142.1,291.3-23.7,158.7-165.8,364.8-514,379-622.9,14.2-109,23.7-236.9-139.7-421.6-163.4-184.7-450-451.7-450-451.7Z"/>
          <g class="cls-11">
            <path class="cls-6" d="M3073.2-164.7c0,598.8-379.8,1719.3-1065.9,1719.3S259.3,873.7,259.3,275,1108-501.2,1794.1-501.2s1279.1-262.2,1279.1,336.5Z"/>
          </g>
        </g>
      </g>
    </g>
  </g>
</svg>