<?xml version="1.0" encoding="utf-8"?>
<!-- Generator: Adobe Illustrator 27.7.0, SVG Export Plug-In . SVG Version: 6.00 Build 0)  -->
<svg version="1.1" id="Layer_1" xmlns="http://www.w3.org/2000/svg" xmlns:xlink="http://www.w3.org/1999/xlink" x="0px" y="0px"
	 viewBox="0 0 3500 3500" style="enable-background:new 0 0 3500 3500;" xml:space="preserve">
<style type="text/css">
	.st0{fill:#D31717;}
	.st1{fill:#205B93;}
</style>
<path class="st0" d="M3349.3,1218.3c21.3,41.1,45.3,81.5,64,124.3c63.3,145.1,93.8,296.9,85.4,455.5c-1.7,32.8-5.9,65.4-8.6,98.1
	c-1.3,15-8.6,21.4-24,21.1c-32.9-0.6-65.8,0.1-98.6-0.2c-27.8-0.3-28.6-1.1-28.6-30.4c-0.1-162.3,0-324.6-0.1-487
	c0-17.5,0.5-35-0.3-52.4c-0.4-9.5-3.2-18.9-6.1-34.4c-13.6,10.8-22.8,16.9-30.4,24.4c-79.3,79-158.2,158.5-237.7,237.2
	c-21.1,20.9-30.5,44.4-29.9,74.3c1.3,64.7,0.5,129.4,0.4,194.2c0,57.6-19.7,77.2-78.4,77.2c-226,0.1-452,0.6-678-0.6
	c-32.3-0.2-56.3,8.7-78.9,32c-75.2,77.3-152.3,152.8-228.5,229.1c-4.8,4.8-8.3,10.8-14.7,19.2c9.4,3,15.6,6.1,22,6.7
	c11.2,1,22.6,0.4,33.9,0.4c445.9,0,891.7,0,1337.6,0.1c11.8,0,23.6,1.1,42.9,2.1c-17.1,29.9-30.8,53.9-46.2,81
	c-5.9-15.2-7.1-30.7-14.9-35.6c-10-6.3-25.3-5.4-38.3-5.5c-69.9-0.4-139.7-0.2-209.6-0.2c-32.5,0-48.9,16.8-48.9,50.4
	c-0.1,90.4-1.1,180.8,0.6,271.2c0.5,27.6-9.8,43.4-32.6,56.6c-86.7,50.3-178,89.3-275.9,110.9c-85,18.7-170.5,35.6-258.4,33.5
	c-90.9-2.2-179.7-18.1-266.7-43c-94.1-26.9-183.2-65.6-266.4-117.9c-135.6-85.3-241.6-199.1-326-334.1c-3-4.8-3.6-11-6.5-20.5
	c13.1-1.4,23.8-3.5,34.5-3.6c50.3-0.4,100.7-1.3,151,0.1c37.9,1.1,67.6-14,93.2-39.8c91.8-92.6,183.1-185.7,275.1-278.1
	c110.1-110.6,221.2-220.3,330.9-331.3c51.5-52,98.4-108.1,122.2-178.9c9.7-29,17.8-59.5,20.3-89.8c10.9-127.6-8.8-248.6-90.9-351.9
	c-68.6-86.3-152.3-151.9-262.1-178.7c-24.5-6-48.6-13.3-76-20.8c19.2-19.2,42.2-21,63.3-24.7c46.4-8.3,93.3-14.2,140-21
	c24.1-3.5,48.5-10.7,72.2-8.9c58.9,4.5,118.4,9.2,176.1,21.3c71,14.9,142.2,32.7,210.1,57.8c108.6,40.2,204.9,102.7,293.3,183.3
	c-8,9.9-14.2,19-21.9,26.6c-147.3,147.6-294.5,295.3-442.2,442.5c-128,127.5-256.6,254.4-385,381.6c-4.4,4.3-9.7,8.1-12.8,13.3
	c-3.3,5.6-6.6,12.9-5.6,18.7c0.6,3.3,9.5,6.3,15.1,7.3c7,1.3,14.3,0.7,21.5,0.6c114-1,228-2.2,342-2.8c23.9-0.1,43-7.1,60.4-24.6
	c193.5-194.3,387.6-388,581.1-582.3C3322.9,1257.9,3333,1240.2,3349.3,1218.3L3349.3,1218.3z"/>
<path class="st1" d="M1679.3,2668.8c-10.1,0-20.2,0-30.2,0c-118.1,0-236.2,0.8-354.4-0.3c-70.5-0.7-138.9-11.4-199.4-52.5
	c-36.9-25.1-68.5-55.1-95.4-90.6c-137.8-181.4-276-362.6-413.9-544c-41.6-54.7-82.9-109.7-124.3-164.6c-32.9-43.6-33.3-78.8,0-123.6
	c38.5-51.9,77.7-103.4,116.8-154.9c116.1-152.8,231.8-306,348.6-458.2c41.1-53.6,77.5-111.2,128.8-156.6c41.9-37,90.5-60.9,144-72.7
	c36.7-8.1,75.2-11,112.9-11.4c129.3-1.3,258.7-0.5,394.3-0.5c-13.3,6.3-21.5,10.9-30.2,14.2c-72,27.8-129.4,74.8-175.6,135.6
	c-135.4,178.1-270.1,356.8-405.2,535.2c-39.7,52.3-79.4,104.6-119.7,156.5c-40,51.5-41,96.9-1.6,148.5
	c145.2,190,290.6,379.9,435.8,569.9c28,36.7,56.5,73.1,83.1,110.9c45.3,64.3,98.2,118.5,175.3,143.6c4.4,1.4,8,5.6,11.9,8.4
	C1680.4,2663.9,1679.8,2666.3,1679.3,2668.8L1679.3,2668.8z"/>
<path class="st0" d="M1537.6,2124.3c-148.3-347.6-65.1-788.3,192.3-1052.6c11.3,50.7,24.1,98.7,52.7,140.2
	c28.4,41.3,60.2,79,108.9,105c5.7-22.1,9.3-39.8,14.8-57c29.3-92.4,92.5-146,188.3-158.4c95.6-12.4,168,27.6,218.6,107.3
	c38.1,60,29.4,116.5-23.5,169.6c-124,124.2-248,248.4-372.5,372.2c-120.1,119.4-240.8,238.2-361.2,357.3
	C1550.8,2112.8,1545.3,2117.3,1537.6,2124.3L1537.6,2124.3z"/>
<path class="st1" d="M630.5,841.4c-25.8,12.6-50,23.3-73,36c-62.1,34.3-102.2,90.7-143.6,145.7
	c-121.6,161.6-243.7,322.8-365.6,484.1c-3.7,4.9-7.4,10.1-12,13.9c-14.5,12-30.7,6.8-35-11.6c-1.9-7.8-1.1-16.3-1.1-24.5
	c0-177.7,0-355.4,0.2-533.1c0.1-70.7,39.9-112,110.3-112.3c170.5-0.6,341-0.2,511.5-0.2C624,839.5,625.7,840.3,630.5,841.4
	L630.5,841.4z"/>
<path class="st1" d="M642.2,2669.3c-10.1,0-20.2,0-30.3,0c-162.2,0-324.4,0-486.7,0c-6.2,0-12.3,0.1-18.5-0.1
	c-69-3.1-106.1-40.5-106.2-109.4c-0.4-179.7-0.3-359.4-0.3-539c0-6.2-0.6-12.5,0.8-18.4c4.2-18.1,20.6-23.9,34.9-12.2
	c5.5,4.5,9.8,10.5,14.1,16.2c137.5,180.3,274.6,360.9,412.5,540.8c39,50.9,88.9,87.5,151.4,105.5c9.7,2.8,19,6.7,28.5,10.1
	C642.3,2664.9,642.3,2667.1,642.2,2669.3L642.2,2669.3z"/>
</svg>
