<?xml version="1.0" encoding="utf-8"?>
<!-- Generator: Adobe Illustrator 27.7.0, SVG Export Plug-In . SVG Version: 6.00 Build 0)  -->
<svg version="1.1" id="Layer_1" xmlns="http://www.w3.org/2000/svg" xmlns:xlink="http://www.w3.org/1999/xlink" x="0px" y="0px"
	 viewBox="0 0 3500 3500" style="enable-background:new 0 0 3500 3500;" xml:space="preserve">
<style type="text/css">
	.st0{fill:#DDE4D8;}
	.st1{fill:#FF3F41;}
	.st2{fill:#EAEA00;}
	.st3{fill:#57FF55;}
	.st4{fill:#2390E2;}
	.st5{fill:#FFFFFF;}
	.st6{fill:url(#SVGID_1_);}
	.st7{fill:#232323;}
	.st8{fill:url(#SVGID_00000081629459689245666070000009285235529124593827_);}
	.st9{fill:url(#SVGID_00000155118803871637681990000006648782563958892714_);}
	.st10{fill:url(#SVGID_00000088102771808254873620000002058772187108851586_);}
	.st11{fill:url(#SVGID_00000061456579705814631080000017167045131377853068_);}
	.st12{fill:url(#SVGID_00000173125423105041338380000010464904621359559329_);}
	.st13{fill:url(#SVGID_00000093140029886359988480000010300997651321324938_);}
	.st14{fill:url(#SVGID_00000078038909319572491480000015706276054431065266_);}
	.st15{fill:url(#SVGID_00000029047395401264041870000017828454965575333257_);}
	.st16{fill:url(#SVGID_00000023257825812138536440000008813076284952858275_);}
	.st17{fill:url(#SVGID_00000109001538895990930800000006553032878734012306_);}
	.st18{fill:url(#SVGID_00000072238147688587528610000012956207818735592126_);}
	.st19{fill:url(#SVGID_00000078031586817065698940000016296259163056342174_);}
	.st20{fill:url(#SVGID_00000088818535780533197370000014438806492636513967_);}
	.st21{fill:url(#SVGID_00000028304176444540070410000015449743066534186668_);}
</style>
<g>
	<path class="st0" d="M2074.6,866.4c8-54.6,16.4-71.5,58.6-68.9c42.2,2.6,315.2,59.4,319.5,68.9s21.5,74.9-48.2,80.1
		c-69.8,5.2-92.2-17.2-102.5,25s-50,304.9-50,304.9s-2.8,38.7-27.6,36.2c-33.6-3.4-56,10.3-51.7-51.7s26.4-226.8,28.4-256.7
		c2.6-38.8,0-46.5-33.6-62.9s-100.8-22.4-93-74.9L2074.6,866.4L2074.6,866.4z"/>
	<path class="st0" d="M2390.7,1080.9c-3.4-33.6-6-51.7,25.8-48.2c31.9,3.4,41.3-6.9,46.5,99.9s5.2,79.2,6,98.2
		c0.9,18.9,19.8,38.8,37.9-6c18.1-44.8,51.7-138.7,51.7-138.7s5.2-20.7,36.2-20.7s52.5,9.5,52.5,9.5L2452.7,1459
		c0,0-38.8,69.8-43.1-117.1C2405.8,1179.1,2390.7,1080.9,2390.7,1080.9L2390.7,1080.9L2390.7,1080.9z"/>
	<path class="st1" d="M1878.8,1421.7c9.6-365,54.5-584.5,102.8-724c48.2-139.5,96.5-222.2,72.3-308.3c-13.9-49.7-56.5-90.8-90-116.7
		c-21.4-16.5-52.6-6.8-60.7,18.9c-25.9,82.5-86.8,255.5-101.1,508.8c-16.9,298.6,2.2,437.3,35.3,589.1
		C1842.9,1414.5,1877.6,1465.3,1878.8,1421.7L1878.8,1421.7L1878.8,1421.7z"/>
	<path class="st2" d="M1506.1,1308.1c0,0-77.5-306.5-63.7-601.1c13.8-294.7,8.6-277.8,70.6-555.7c62-277.8,272.2-122.9,220.5,65.7
		s-160.2,474.8-168.8,730.8c-8.6,255.9-12.1,360.3-12.1,360.3S1533.7,1373.8,1506.1,1308.1z"/>
	<path class="st3" d="M1265,194.6c19.1-9.5,91.3-51.7,74.1,34.5c-17.2,86.1-86.1,327.3-96.5,540.9
		c-10.3,213.6-13.8,501.3-12.1,539.2c1.7,37.9-17.2,110.2-37.9,8.6c-20.7-101.6-77.3-330.2-75.8-542.6
		c1.1-152.7-10.3-241.2,24.1-375.5c34.5-134.4,75.8-180.9,124-205L1265,194.6L1265,194.6z"/>
	<path class="st4" d="M848.1,721.7C859.8,653.8,867,596,917,568.4s82.7-24.1,53.4,134.4s-41.3,627-22.4,828.5
		c18.9,201.5,106.8,644.2,236,809.6s332.8,308.3,604.6,248s342.8-335.9,382.4-499.5s67.2-304.9,137.8-372.1s208.4-99.9,201.5-8.6
		s-108.5,423.7-229.1,609.8c-120.6,186-273.9,501.3-782,397.9S842.9,1850,824,1515.8S830.9,821.6,848.1,721.7L848.1,721.7
		L848.1,721.7z"/>
	<path class="st5" d="M2109.9,866.4c8-54.6,16.4-71.5,58.6-68.9c42.2,2.6,315.2,59.4,319.5,68.9s21.5,74.9-48.2,80.1
		c-69.8,5.2-92.2-17.2-102.5,25s-50,304.9-50,304.9s-2.8,38.7-27.6,36.2c-33.6-3.4-56,10.3-51.7-51.7s26.4-226.8,28.4-256.7
		c2.6-38.8,0-46.5-33.6-62.9s-100.8-22.4-93-74.9L2109.9,866.4L2109.9,866.4z"/>
	<path class="st5" d="M2426,1080.9c-3.4-33.6-6-51.7,25.8-48.2c31.9,3.4,41.3-6.9,46.5,99.9s5.2,79.2,6,98.2
		c0.9,18.9,19.8,38.8,37.9-6c18.1-44.8,51.7-138.7,51.7-138.7s5.2-20.7,36.2-20.7s52.5,9.5,52.5,9.5L2488,1459
		c0,0-38.8,69.8-43.1-117.1C2441.1,1179.1,2426,1080.9,2426,1080.9L2426,1080.9L2426,1080.9z"/>
	<g>
		
			<linearGradient id="SVGID_1_" gradientUnits="userSpaceOnUse" x1="1249.1765" y1="-1294.6455" x2="1615.3019" y2="-1294.6455" gradientTransform="matrix(1 0 0 1 0 3000)">
			<stop  offset="0" style="stop-color:#FFFFFF"/>
			<stop  offset="0.2" style="stop-color:#F9F9FB"/>
			<stop  offset="0.4" style="stop-color:#E8E9F0"/>
			<stop  offset="0.7" style="stop-color:#CDCEDE"/>
			<stop  offset="1" style="stop-color:#A7AAC5"/>
			<stop  offset="1" style="stop-color:#A5A8C4"/>
		</linearGradient>
		<path class="st6" d="M1514.8,1954.5c29.9-34.5,85-147,97.6-232s-13.8-203.3-119.4-250.8s-221.6,15.4-240,172.7
			c-17.1,146.3,28.7,248,28.7,248s60.9-1.1,124,19.5c63.2,20.7,109.1,42.5,109.1,42.5l0,0L1514.8,1954.5z"/>
		<path class="st7" d="M1516.5,1963l-4.7-2.3c-0.5-0.2-46.3-21.9-108.3-42.2c-61.2-20-121.1-19.2-121.7-19.2h-4.6l-1.9-4.1
			c-1.9-4.2-46.4-105.2-29.3-251.7c9.5-81.1,44.9-142.8,99.8-174c45.5-25.8,98.7-27.3,149.9-4.3c104.8,47.1,137.5,163.6,123.4,258.1
			c-12.6,84.7-68,199.5-99.2,235.5l-3.4,4L1516.5,1963L1516.5,1963z M1286.3,1885.6c15.7,0.2,67.4,2.2,121.5,19.9
			c51.1,16.7,91.4,34.4,105,40.6c30.6-38.7,80.9-145,92.7-224.5c13.3-89.4-17.3-199.3-115.4-243.5c-47.1-21.2-95.9-19.9-137.4,3.7
			c-50.9,28.9-83.9,87-92.9,163.5C1245,1771.7,1278.3,1865.4,1286.3,1885.6L1286.3,1885.6L1286.3,1885.6z"/>
	</g>
	<g>
		
			<linearGradient id="SVGID_00000039827620850317603540000004053614921976885435_" gradientUnits="userSpaceOnUse" x1="1239.1" y1="-1103.554" x2="1281.6" y2="-1103.554" gradientTransform="matrix(1 0 0 1 0 3000)">
			<stop  offset="0" style="stop-color:#FFFFFF"/>
			<stop  offset="0.2" style="stop-color:#F9F9FB"/>
			<stop  offset="0.4" style="stop-color:#E8E9F0"/>
			<stop  offset="0.7" style="stop-color:#CDCEDE"/>
			<stop  offset="1" style="stop-color:#A7AAC5"/>
			<stop  offset="1" style="stop-color:#A5A8C4"/>
		</linearGradient>
		<path style="fill:url(#SVGID_00000039827620850317603540000004053614921976885435_);" d="M1239.1,1900.5c0,0,26.4-9.2,42.5-8"/>
		<path class="st7" d="M1241.4,1907.1l-4.5-13.1c1.1-0.4,27.9-9.6,45.3-8.4l-1,13.8c-12-0.9-32.7,5.2-39.7,7.7H1241.4L1241.4,1907.1
			z"/>
	</g>
	<g>
		
			<linearGradient id="SVGID_00000093861921282505053570000002315422008712748674_" gradientUnits="userSpaceOnUse" x1="1514.8" y1="-1035.75" x2="1538.9" y2="-1035.75" gradientTransform="matrix(1 0 0 1 0 3000)">
			<stop  offset="0" style="stop-color:#FFFFFF"/>
			<stop  offset="0.2" style="stop-color:#F9F9FB"/>
			<stop  offset="0.4" style="stop-color:#E8E9F0"/>
			<stop  offset="0.7" style="stop-color:#CDCEDE"/>
			<stop  offset="1" style="stop-color:#A7AAC5"/>
			<stop  offset="1" style="stop-color:#A5A8C4"/>
		</linearGradient>
		<path style="fill:url(#SVGID_00000093861921282505053570000002315422008712748674_);" d="M1538.9,1974c0,0-1.7-9.6-24.1-19.5"/>
		<path class="st7" d="M1532.2,1975.7c0,0-2.5-7-20.2-14.9l5.6-12.6c24.6,10.9,27.7,22.5,28.1,24.7l-13.6,2.4
			C1532.1,1975.3,1532.1,1975.5,1532.2,1975.7L1532.2,1975.7L1532.2,1975.7z"/>
	</g>
	<g>
		
			<linearGradient id="SVGID_00000055690328593138137590000007857949892054045586_" gradientUnits="userSpaceOnUse" x1="1757.8766" y1="-1236.4756" x2="2138.1279" y2="-1236.4756" gradientTransform="matrix(1 0 0 1 0 3000)">
			<stop  offset="0" style="stop-color:#FFFFFF"/>
			<stop  offset="0.2" style="stop-color:#F9F9FB"/>
			<stop  offset="0.4" style="stop-color:#E8E9F0"/>
			<stop  offset="0.7" style="stop-color:#CDCEDE"/>
			<stop  offset="1" style="stop-color:#A7AAC5"/>
			<stop  offset="1" style="stop-color:#A5A8C4"/>
		</linearGradient>
		<path style="fill:url(#SVGID_00000055690328593138137590000007857949892054045586_);" d="M2038.4,1991.2
			c55.1-67.8,82.8-101.9,97.6-229.7c18.4-158.5-86.1-237.7-175.7-229.7c-89.6,8-172.3,64.3-196.4,201s31.9,263,31.9,263
			s79.5-18.4,119.7-16.1S2038.4,1991.2,2038.4,1991.2L2038.4,1991.2L2038.4,1991.2z"/>
		<path class="st7" d="M1791.8,2003.9l-2.3-5.2c-2.3-5.2-56.6-129.8-32.4-267c29.4-166.6,139.5-201,202.6-206.7
			c46.6-4.2,95.1,14.5,129.8,50c43.3,44.4,62.3,111,53.4,187.3c-15.1,129.9-43.2,164.5-99.1,233.2l-2.4,2.9l-3.8-0.4
			c-0.8,0-83-9.2-122.5-11.5c-38.7-2.2-116.9,15.7-117.7,15.9l-5.6,1.3L1791.8,2003.9L1791.8,2003.9z M1972.7,1538.3
			c-3.9,0-7.9,0.2-11.8,0.5c-59.1,5.3-162.4,37.7-190.2,195.3c-20.8,117.6,19.3,228.7,29.3,253.7c19.2-4.2,81.1-17,115.9-15
			c35,2,102.8,9.3,119.5,11.1c52.7-64.8,79.3-99.1,93.7-223.2c8.4-72.1-9.3-134.7-49.6-176.1c-28.8-29.6-68-46.5-106.8-46.5V1538.3z
			"/>
	</g>
	<g>
		
			<linearGradient id="SVGID_00000011016215339026680030000016532102990554343589_" gradientUnits="userSpaceOnUse" x1="1928.1" y1="-1481.0928" x2="2070.6001" y2="-1481.0928" gradientTransform="matrix(1 0 0 1 0 3000)">
			<stop  offset="0" style="stop-color:#FFFFFF"/>
			<stop  offset="0.2" style="stop-color:#F9F9FB"/>
			<stop  offset="0.4" style="stop-color:#E8E9F0"/>
			<stop  offset="0.7" style="stop-color:#CDCEDE"/>
			<stop  offset="1" style="stop-color:#A7AAC5"/>
			<stop  offset="1" style="stop-color:#A5A8C4"/>
		</linearGradient>
		<path style="fill:url(#SVGID_00000011016215339026680030000016532102990554343589_);" d="M1928.1,1503.2c0,0,49.5-6.9,88.5,5.7
			c39,12.6,54,27.6,54,27.6"/>
		<path class="st7" d="M2065.7,1541.4c-0.1,0-14.6-14-51.2-25.9c-37.1-12-84.9-5.5-85.4-5.5l-1.9-13.7c2.1-0.3,51.5-7,91.6,6
			c40.2,13,56.1,28.6,56.7,29.3L2065.7,1541.4L2065.7,1541.4L2065.7,1541.4z"/>
	</g>
	<g>
		
			<linearGradient id="SVGID_00000177459502876999670880000000093868880519925903_" gradientUnits="userSpaceOnUse" x1="1381.4" y1="-1566.2927" x2="1523.9" y2="-1566.2927" gradientTransform="matrix(1 0 0 1 0 3000)">
			<stop  offset="0" style="stop-color:#FFFFFF"/>
			<stop  offset="0.2" style="stop-color:#F9F9FB"/>
			<stop  offset="0.4" style="stop-color:#E8E9F0"/>
			<stop  offset="0.7" style="stop-color:#CDCEDE"/>
			<stop  offset="1" style="stop-color:#A7AAC5"/>
			<stop  offset="1" style="stop-color:#A5A8C4"/>
		</linearGradient>
		<path style="fill:url(#SVGID_00000177459502876999670880000000093868880519925903_);" d="M1381.4,1418c0,0,49.5-6.9,88.5,5.7
			s54,27.6,54,27.6"/>
		<path class="st7" d="M1519,1456.2c-0.1,0-14.6-14-51.2-25.9c-37.1-12-84.9-5.5-85.4-5.5l-1.9-13.7c2.1-0.3,51.5-7,91.6,6
			c40.2,13,56.1,28.6,56.7,29.3L1519,1456.2L1519,1456.2L1519,1456.2z"/>
	</g>
	<g>
		
			<linearGradient id="SVGID_00000003814006511339066400000014107845003147259292_" gradientUnits="userSpaceOnUse" x1="1762.8" y1="-995.5" x2="1795.9" y2="-995.5" gradientTransform="matrix(1 0 0 1 0 3000)">
			<stop  offset="0" style="stop-color:#FFFFFF"/>
			<stop  offset="0.2" style="stop-color:#F9F9FB"/>
			<stop  offset="0.4" style="stop-color:#E8E9F0"/>
			<stop  offset="0.7" style="stop-color:#CDCEDE"/>
			<stop  offset="1" style="stop-color:#A7AAC5"/>
			<stop  offset="1" style="stop-color:#A5A8C4"/>
		</linearGradient>
		<path style="fill:url(#SVGID_00000003814006511339066400000014107845003147259292_);" d="M1762.8,2013.1c0,0,18.7-12.5,33.1-17.2"
			/>
		<path class="st7" d="M1766.6,2018.8l-7.7-11.5c0.8-0.5,19.7-13.1,34.7-18.1l4.3,13.1C1784.6,2006.7,1766.7,2018.6,1766.6,2018.8
			L1766.6,2018.8L1766.6,2018.8z"/>
	</g>
	<g>
		
			<linearGradient id="SVGID_00000038409694434730938170000005290525101060638875_" gradientUnits="userSpaceOnUse" x1="2038.3999" y1="-997.8" x2="2080.8999" y2="-997.8" gradientTransform="matrix(1 0 0 1 0 3000)">
			<stop  offset="0" style="stop-color:#FFFFFF"/>
			<stop  offset="0.2" style="stop-color:#F9F9FB"/>
			<stop  offset="0.4" style="stop-color:#E8E9F0"/>
			<stop  offset="0.7" style="stop-color:#CDCEDE"/>
			<stop  offset="1" style="stop-color:#A7AAC5"/>
			<stop  offset="1" style="stop-color:#A5A8C4"/>
		</linearGradient>
		<path style="fill:url(#SVGID_00000038409694434730938170000005290525101060638875_);" d="M2080.9,2013.1c0,0-18.1-18.1-42.5-21.8"
			/>
		<path class="st7" d="M2076,2018c-0.2-0.2-16.9-16.6-38.7-19.9l2.1-13.7c26.4,4,45.5,23,46.3,23.8l-9.8,9.8l4.9-4.9l-4.9,4.9
			L2076,2018L2076,2018z"/>
	</g>
	<g>
		
			<linearGradient id="SVGID_00000093856291923249309740000002963642058130719672_" gradientUnits="userSpaceOnUse" x1="1661.8076" y1="-634.3999" x2="1661.8076" y2="-960.5999" gradientTransform="matrix(1 0 0 1 0 3000)">
			<stop  offset="0" style="stop-color:#660000"/>
			<stop  offset="0" style="stop-color:#6B0000"/>
			<stop  offset="0.3" style="stop-color:#7C0000"/>
			<stop  offset="0.5" style="stop-color:#970000"/>
			<stop  offset="0.7" style="stop-color:#BA0000"/>
		</linearGradient>
		<path style="fill:url(#SVGID_00000093856291923249309740000002963642058130719672_);" d="M1795.9,2338
			c-9.5,9.4-20.9,18.8-33.7,27.6c-18.6-38.8-73.5-91.2-132.6-102.2c-58.6-10.9-112.9,16.8-154,46c-46.1-58.1-82.9-144.5-75.6-270
			c0,0,117.1,143.6,237.7,149.3c120.5,5.8,232-34.5,276.7-82.7C1959.2,2057.8,1843.9,2290.9,1795.9,2338L1795.9,2338L1795.9,2338z"
			/>
		<path d="M1759.4,2375.9l-3.5-7.3c-18.9-39.4-73.1-88.2-127.6-98.4c-45.7-8.5-94.3,6.1-148.8,44.9l-5.3,3.8l-4.1-5.1
			c-57.5-72.4-83.5-164.8-77.1-274.7l1-17.7l11.2,13.8c1.2,1.4,116.6,141.3,232.7,146.8c123.6,5.9,230.1-36,271.3-80.5
			c5.6-6,10.4-9.8,15.6-8.5c3,0.7,5.2,3,6.1,6.1c6.3,23.1-91.1,205.5-130.3,244l0,0c-10.1,10-21.8,19.5-34.7,28.3l-6.7,4.6h0.2
			L1759.4,2375.9z M1602.8,2254c9.5,0,18.8,0.9,28,2.6c55.5,10.3,110.6,57.8,133.7,98.8c9.7-7.1,18.6-14.6,26.4-22.3l0,0
			c36.4-35.8,105.5-170.5,122.6-216.5c-46.9,44.6-153.8,84.9-276.4,79.1c-101.5-4.8-198.5-102.2-231.2-138.5
			c-2.5,96.2,21.3,177.8,70.9,242.9c44.8-30.8,86.3-46,125.8-46h0.2V2254z"/>
	</g>
	<g>
		
			<linearGradient id="SVGID_00000161589658859113814560000010802280046782958246_" gradientUnits="userSpaceOnUse" x1="1618.8999" y1="-589.9282" x2="1618.8999" y2="-739.058" gradientTransform="matrix(1 0 0 1 0 3000)">
			<stop  offset="0" style="stop-color:#996273"/>
			<stop  offset="0" style="stop-color:#9E6575"/>
			<stop  offset="0.3" style="stop-color:#AF6D7B"/>
			<stop  offset="0.5" style="stop-color:#CA7B85"/>
			<stop  offset="0.7" style="stop-color:#E88B90"/>
		</linearGradient>
		<path style="fill:url(#SVGID_00000161589658859113814560000010802280046782958246_);" d="M1762.1,2365.6
			c-51.6,35.7-124.9,61.4-181.9,31c-30.5-16.2-70.1-43.8-104.6-87.2c41.1-29.2,95.4-57,154-46
			C1688.6,2274.4,1743.6,2326.8,1762.1,2365.6L1762.1,2365.6L1762.1,2365.6z"/>
		<path d="M1637,2417.2c-20,0-40.5-4.1-60.1-14.5c-28.5-15.2-70.2-42.9-106.8-89l-4.5-5.7l5.9-4.2c57.6-41,109.7-56.4,159.3-47.2
			c58.8,10.9,117.1,63.5,137.5,106l2.6,5.3l-4.9,3.4C1747.3,2384.3,1693.9,2417.2,1637,2417.2z M1485.6,2310.9
			c34,40.8,71.7,65.7,97.8,79.6c52.5,28,121.1,4.9,169.7-27.2c-21-38.4-72.8-83.4-124.9-93.1
			C1584.2,2262,1537.5,2275.3,1485.6,2310.9L1485.6,2310.9L1485.6,2310.9z"/>
	</g>
	<g>
		
			<linearGradient id="SVGID_00000152982866072324278390000003850363357775038139_" gradientUnits="userSpaceOnUse" x1="1367.2" y1="-972.15" x2="1421.2" y2="-972.15" gradientTransform="matrix(1 0 0 1 0 3000)">
			<stop  offset="0" style="stop-color:#FFFFFF"/>
			<stop  offset="0.2" style="stop-color:#F9F9FB"/>
			<stop  offset="0.4" style="stop-color:#E8E9F0"/>
			<stop  offset="0.7" style="stop-color:#CDCEDE"/>
			<stop  offset="1" style="stop-color:#A7AAC5"/>
			<stop  offset="1" style="stop-color:#A5A8C4"/>
		</linearGradient>
		<path style="fill:url(#SVGID_00000152982866072324278390000003850363357775038139_);" d="M1367.2,2044.5c0,0,27.6-26.4,54-33.3"/>
		<path class="st7" d="M1372,2049.5l-9.6-10c1.2-1.1,29.2-27.7,57-35l3.5,13.4C1398.6,2024.2,1372.2,2049.3,1372,2049.5z"/>
	</g>
	<g>
		
			<linearGradient id="SVGID_00000134943047586348696430000015689148565856565137_" gradientUnits="userSpaceOnUse" x1="1900.9" y1="-894.25" x2="1946.8" y2="-894.25" gradientTransform="matrix(1 0 0 1 0 3000)">
			<stop  offset="0" style="stop-color:#FFFFFF"/>
			<stop  offset="0.2" style="stop-color:#F9F9FB"/>
			<stop  offset="0.4" style="stop-color:#E8E9F0"/>
			<stop  offset="0.7" style="stop-color:#CDCEDE"/>
			<stop  offset="1" style="stop-color:#A7AAC5"/>
			<stop  offset="1" style="stop-color:#A5A8C4"/>
		</linearGradient>
		<path style="fill:url(#SVGID_00000134943047586348696430000015689148565856565137_);" d="M1900.9,2084.5c0,0,32.2,9.2,45.9,42.5"
			/>
		<path class="st7" d="M1940.4,2129.6c-12.3-29.6-41.2-38.4-41.5-38.5l3.8-13.3c1.4,0.4,35.5,10.5,50.4,46.5L1940.4,2129.6
			L1940.4,2129.6L1940.4,2129.6z"/>
	</g>
	
		<linearGradient id="SVGID_00000114785155255268564940000013846413514244131512_" gradientUnits="userSpaceOnUse" x1="1371.7515" y1="-1386.1719" x2="1509.7921" y2="-1147.1016" gradientTransform="matrix(1 0 0 1 2.4442 3000.2698)">
		<stop  offset="0" style="stop-color:#0095C6"/>
		<stop  offset="0.2" style="stop-color:#008FC0"/>
		<stop  offset="0.4" style="stop-color:#0080AF"/>
		<stop  offset="0.7" style="stop-color:#006694"/>
		<stop  offset="1" style="stop-color:#004873"/>
	</linearGradient>
	<path style="fill:url(#SVGID_00000114785155255268564940000013846413514244131512_);" d="M1346.9,1725.9
		c7.1-84.8,56.1-149.8,109.3-145.4s90.7,76.8,83.6,161.6c-7.1,84.8-56.1,149.8-109.3,145.4S1339.8,1810.6,1346.9,1725.9z"/>
	
		<linearGradient id="SVGID_00000097464363742396921870000007517628724469228709_" gradientUnits="userSpaceOnUse" x1="1853.8793" y1="-1330.6458" x2="1991.8855" y2="-1091.535" gradientTransform="matrix(1 0 0 1 2.8053 3000.0762)">
		<stop  offset="0" style="stop-color:#0095C6"/>
		<stop  offset="0.2" style="stop-color:#008FC0"/>
		<stop  offset="0.4" style="stop-color:#0080AF"/>
		<stop  offset="0.7" style="stop-color:#006694"/>
		<stop  offset="1" style="stop-color:#004873"/>
	</linearGradient>
	<path style="fill:url(#SVGID_00000097464363742396921870000007517628724469228709_);" d="M1829.5,1781.4
		c7.1-84.8,56.1-149.8,109.3-145.4s90.7,76.8,83.6,161.6s-56.1,149.8-109.3,145.4S1822.4,1866.2,1829.5,1781.4z"/>
	
		<ellipse transform="matrix(8.367790e-02 -0.9965 0.9965 8.367790e-02 -26.6299 3565.2998)" cx="1925.3" cy="1797.1" rx="82.2" ry="51.7"/>
	
		<ellipse transform="matrix(8.367790e-02 -0.9965 0.9965 8.367790e-02 -400.0596 3032.6636)" cx="1449" cy="1733.9" rx="82.2" ry="51.7"/>
	
		<ellipse transform="matrix(0.3827 -0.9239 0.9239 0.3827 -599.2056 2381.4202)" class="st5" cx="1482.4" cy="1639.1" rx="46.5" ry="29.2"/>
	
		<ellipse transform="matrix(0.9992 -4.013179e-02 4.013179e-02 0.9992 -66.4505 77.838)" class="st5" cx="1905.6" cy="1694.1" rx="29.2" ry="46.5"/>
	<path class="st5" d="M1989.3,479.7c-13.8,87.8-97.3,265.3-109.4,380.7s0,194.6,0,194.6s2.6-161.9,33.6-251.4
		c31-89.6,83.5-226.5,81.8-258.4S1989.3,479.7,1989.3,479.7L1989.3,479.7L1989.3,479.7z"/>
	<path class="st5" d="M1842.9,707.1c0,0,60.3-329.9,72.3-367.8c12.1-37.9-7.8,124-27.6,206.7
		C1867.8,628.7,1842.8,707.1,1842.9,707.1L1842.9,707.1L1842.9,707.1z"/>
	<path class="st5" d="M1676.7,186c-17.2,104.5-54,236.6-76.9,352.5c-23,116-36.7,163.1-36.7,236.6s26.4-191.8,83.8-372.1
		s29.9-217,29.9-217L1676.7,186L1676.7,186z"/>
	<circle class="st5" cx="1688.2" cy="118.3" r="20.7"/>
	<ellipse class="st5" cx="1287.4" cy="276.8" rx="15.5" ry="23.9"/>
	<ellipse class="st5" cx="942.9" cy="608.4" rx="12.6" ry="27"/>
	<ellipse class="st5" cx="2013.4" cy="424.9" rx="18.1" ry="31"/>
	<path class="st5" d="M1525.1,234.3c0,4.6-49.4,198.7-36.7,450.2c12.6,251.5,15.2-96.1,17.3-164S1525.1,234.4,1525.1,234.3
		L1525.1,234.3L1525.1,234.3z"/>
	<path class="st5" d="M1258.7,345.7c0-66.9-15,44.8-29.9,223.9s-9.2,195.2-11.5,279s8-175.1,20.7-213.3
		c12.6-38.2,20.7-243.8,20.7-289.7l0,0L1258.7,345.7z"/>
	<path class="st5" d="M1182.9,350.2c-11.5,27.6-28.7,98.8-26.4,197.5c2.3,98.8,8,168.8,12.6,194.1c4.6,25.3-12.8-205,0.5-262.1
		S1182.9,350.2,1182.9,350.2L1182.9,350.2L1182.9,350.2z"/>
	<path class="st5" d="M930.2,814.2c0,0-34.5,151.6-33.3,341.1c1.1,189.5,16.6,214.4,16.6,214.4s4-313.2,8.6-395.9s8-159.6,8-159.6
		L930.2,814.2L930.2,814.2z"/>
	<path class="st5" d="M2183.1,2148.6c31-91.9,25.3-117.1,47.1-194.1c21.8-76.9,39-182.6,97.6-220.5s76.9-27.6,35.6,24.1
		c-41.3,51.7-60.9,50.5-97.6,153.9c-36.7,103.4-22.8,101-49.4,158.5C2189.8,2127.9,2183.1,2148.6,2183.1,2148.6L2183.1,2148.6
		L2183.1,2148.6z"/>
	<path class="st5" d="M2409.3,1944.2c-39,122.9-58.6,215.9-156.2,360.6c-97.6,144.7-164.2,215.9-172.3,220.5
		c-8,4.6,172.3-144.7,235.4-282.5c63.2-137.8,93-298.6,93-298.6L2409.3,1944.2L2409.3,1944.2z"/>
	
		<ellipse transform="matrix(0.2334 -0.9724 0.9724 0.2334 168.7899 3738.355)" class="st5" cx="2455.4" cy="1762.1" rx="37.6" ry="17.2"/>
</g>
<g>
	
		<linearGradient id="SVGID_00000004534865560188956000000018120240554860271237_" gradientUnits="userSpaceOnUse" x1="1750.0388" y1="495.6433" x2="1750.0388" y2="-198.7" gradientTransform="matrix(1 0 0 1 0 3000)">
		<stop  offset="0" style="stop-color:#3244FB"/>
		<stop  offset="0.5" style="stop-color:#3EB3E6"/>
		<stop  offset="0.8" style="stop-color:#7858ED"/>
	</linearGradient>
	<path style="fill:url(#SVGID_00000004534865560188956000000018120240554860271237_);" d="M2341.7,3207.8
		c38.2-10,27.5-56.7,1.6-97.2s-25.1-97.2,18.2-111.7c43.3-14.6,96.7,3.2,116.2,63.1c19.4,59.9-9.7,185.8-74.4,211.7
		c-64.8,25.9-189.5,26.3-226.7-83.8c-30.1-88.9-37.2-184.6-25.9-255.8s27.5-136,87.4-127.9s61.5,68,59.9,98.8
		s-61.5,140.9-56.7,189.4C2246.2,3143,2273.7,3225.6,2341.7,3207.8L2341.7,3207.8L2341.7,3207.8z M1823.6,2801.3
		c-34,0-61.5,27.5-61.5,61.5s27.5,61.5,61.5,61.5s61.5-27.5,61.5-61.5S1857.6,2801.3,1823.6,2801.3z M2374.1,3300.1
		c-33.1,0-59.9,26.8-59.9,59.9s26.8,59.9,59.9,59.9s59.9-26.8,59.9-59.9S2407.2,3300.1,2374.1,3300.1z M1568.8,3273.8
		c-33.1,0-59.9,26.8-59.9,59.9s26.8,59.9,59.9,59.9s59.9-26.8,59.9-59.9S1601.9,3273.8,1568.8,3273.8z M1674.3,3275.5
		c-32.1,7.9-51.8,40.3-43.9,72.4c7.9,32.1,40.3,51.8,72.4,43.9c32.1-7.9,51.8-40.3,43.9-72.4
		C1738.8,3287.3,1706.4,3267.6,1674.3,3275.5z M1614.4,3377.6c-32.1,7.9-51.8,40.3-43.9,72.4c7.9,32.1,40.3,51.8,72.4,43.9
		c32.1-7.9,51.8-40.3,43.9-72.4C1678.9,3389.4,1646.5,3369.7,1614.4,3377.6z M2110.2,3139.8c-17.8,13-71.2,14.6-105.2,51.8
		s-158.7,96.8-223.4,90.5c-64.8-6.3-136-50-165.2-72.7c-29.1-22.7-35.6,3.2-89.1,27.5c-53.4,24.3-90.7,51.4-150.6,45.2
		c-59.9-6.3-124.7-48.4-139.2-111.5c-14.6-63.1-1.6,20.2-35.6,58.3c-42.6,47.6-121.4,63.1-152.2,16.2c-30.8-47-35.6-95.5-32.4-165.2
		c3.2-69.6,42.1-128.3,126.3-134.6c84.2-6.3,92.3,35.8,123.1,118.4c30.8,82.6,37.2,132.8,100.4,137.6
		c63.1,4.9,201.8-53.4,201.8-53.4l-85.2-92.3c0,0,16.2,50.2-4.9,74.5c-21,24.3-59.7,80.9-106.9-4.9c-21.5-39.1-3.2-165.2,40.5-170
		c43.7-4.9,92.3,50.2,140.9,98.8s32.4,71.2,74.5,47c42.1-24.3,74.5-24.4,93.9,12.9c19.4,37.3-1.6,48.6-19.4,63.2l-17.8,14.6
		c0,0,89.1,17.8,144.1,1.6c55.1-16.2,121.4-61.5,121.4-61.5l-64.8-63.1c6.5,25.9,6.5,89.1-48.6,90.7s-84.2-30.8-85.8-79.3
		c-1.6-48.6,2.9-129.5,68.6-134.4c65.8-4.9,117.6,79.4,153.2,106.9s29.1,35.6,56.7,9.7c27.5-25.9,71.2-14.6,81,3.2
		c9.7,17.8,17.8,61.5,0,74.5v-0.2H2110.2z M1212.6,3086.1c0-37.1-20.8-67.2-46.6-67.2s-46.6,30.1-46.6,67.2s20.8,67.2,46.6,67.2
		S1212.6,3123.2,1212.6,3086.1z"/>
	<path class="st5" d="M1628.7,3500c-28.9,0-55.2-19.6-62.3-48.9c-4.8-19.4,0-39,11.1-53.8c-2.8,0.4-5.7,0.6-8.7,0.6
		c-35.4,0-64.2-28.8-64.2-64.2s28.8-64.2,64.2-64.2s50.6,17.1,59.9,41.2c1.4-3.5,3.1-7,5.1-10.3c8.9-14.7,22.9-25,39.6-29l0,0
		c16.6-4.1,33.9-1.4,48.5,7.5c14.7,8.9,25,22.9,29,39.6c4.1,16.6,1.4,33.9-7.5,48.5c-8.9,14.7-22.9,25-39.6,29
		c-7.9,1.9-16,2.4-23.9,1.3c5.1,6.7,8.9,14.6,11,23.3c4.1,16.6,1.4,33.9-7.5,48.5s-22.9,25-39.6,29c-5.1,1.3-10.2,1.8-15.3,1.8
		L1628.7,3500L1628.7,3500z M1593.1,3393.1c-15.8,13.2-23.7,34.7-18.5,56c6.2,25.4,29,42.4,54.1,42.4s8.8-0.5,13.2-1.6
		c14.4-3.5,26.6-12.5,34.4-25.2c7.7-12.7,10-27.7,6.5-42.1c-2.9-12-9.6-22.2-18.5-29.5c-3.1-1.3-6.1-2.8-9-4.5
		c-2.3-1.4-4.6-3-6.7-4.6c-10.2-4-21.7-4.9-33.2-2.1l0,0c-2.3,0.6-4.6,1.3-6.8,2.1C1603.9,3387.7,1598.7,3390.8,1593.1,3393.1
		L1593.1,3393.1L1593.1,3393.1z M1668.6,3385.6c10.5,4.1,22,4.8,33.2,2.1c14.4-3.5,26.6-12.5,34.4-25.2c7.7-12.7,10-27.7,6.5-42.1
		c-3.5-14.4-12.5-26.6-25.2-34.4c-12.7-7.7-27.7-10-42.1-6.5l0,0c-14.4,3.5-26.6,12.5-34.4,25.2c-5.2,8.5-7.9,18-8.1,27.7v2.3
		c0,4,0.6,8.1,1.6,12.1c2.9,11.7,9.3,22,18.5,29.6C1658.6,3378.7,1663.9,3381.8,1668.6,3385.6L1668.6,3385.6L1668.6,3385.6z
		 M1568.8,3278c-30.7,0-55.7,25-55.7,55.7s25,55.7,55.7,55.7s13.8-1.3,19.9-3.7c4.7-3.7,9.9-6.8,15.6-9.2c12-10,19.7-24.9,20.1-41.6
		v-2.5C1623.7,3302.3,1599,3278,1568.8,3278z M1628.7,3356.7c-2.2,5.6-5.1,10.9-8.7,15.6c5.8-0.8,11.6-0.8,17.3,0
		C1633.7,3367.6,1630.8,3362.3,1628.7,3356.7L1628.7,3356.7L1628.7,3356.7z M2374.1,3424.1c-35.4,0-64.2-28.8-64.2-64.2
		s28.8-64.2,64.2-64.2s64.2,28.8,64.2,64.2S2409.5,3424.1,2374.1,3424.1z M2374.1,3304.3c-30.7,0-55.7,25-55.7,55.7
		s25,55.7,55.7,55.7s55.7-25,55.7-55.7S2404.8,3304.3,2374.1,3304.3z M2325.4,3292.2c-26.3,0-53.5-4.6-77.8-15.8
		c-36.4-16.8-61.6-45.4-75-85.1c-28.6-84.5-38.3-180.9-26.1-257.9c5.5-34.5,12.4-69.9,26-95.1c15.3-28.5,37-40.4,66.2-36.4
		c27.7,3.7,46.7,18.4,56.4,43.6c6.1,15.7,8.4,35.3,7.2,59.6c-0.7,13-10.7,38-22.2,67c-16.6,41.7-37.3,93.6-34.5,121.8
		c3.5,34.5,17.8,82,46.9,102.2c13.9,9.7,30.2,12.2,48.2,7.5c9.8-2.6,16.4-8,19.6-16c6.5-16.6-1.1-44.6-20.4-74.8
		c-17.1-26.6-22.5-59.6-14-83.9c5.9-16.7,17.8-28.5,34.4-34.1c23.9-8,50.1-6.3,71.9,4.7c23.3,11.7,40.5,32.9,49.7,61.2
		c20.1,62-9.7,190.1-76.9,217C2383.3,3286.4,2355,3292.2,2325.4,3292.2L2325.4,3292.2L2325.4,3292.2z M2228.1,2809.8
		c-20.9,0-36.3,10.6-48.2,32.7c-12.9,24-19.7,58.6-25,92.4c-12,75.7-2.4,170.6,25.7,253.8c12.6,37.4,36.4,64.3,70.5,80.1
		c49.3,22.7,111.1,17,150.6,1.2c27.9-11.2,52.1-44.1,66.3-90.4c12.8-41.7,15-87.3,5.7-116.1c-8.5-26.1-24.2-45.6-45.4-56.2
		c-19.8-10-43.6-11.5-65.4-4.2c-14.1,4.7-24.1,14.7-29.1,28.9c-7.7,22-2.6,52,13.1,76.5c20.8,32.4,28.7,63.3,21.2,82.4
		c-4.2,10.7-12.7,17.8-25.3,21.1l-1.1-4.1l1.1,4.1c-20.6,5.4-39.1,2.5-55.2-8.7c-31.5-21.9-46.9-72-50.5-108.3
		c-3-30.2,17.2-81,35-125.7c10.8-27.1,21-52.8,21.6-64.3c3.1-58-15.3-88.8-56.2-94.3c-3.2-0.4-6.4-0.7-9.4-0.7L2228.1,2809.8
		L2228.1,2809.8z M1394,3287.2c-5.7,0-11.6-0.3-17.8-0.9c-31.4-3.3-62.9-15.8-88.7-35.3c-28.4-21.4-47.1-48.9-54.2-79.5
		c-0.4-1.9-1.3-5.5-2.2-9.2c-2.9,17.9-8.3,49.4-26.1,69.3c-25.1,28.1-63.6,46-97.8,46s-4.7,0-7-0.3c-23.7-1.8-42.4-12.2-54.1-30
		c-31.9-48.7-36.3-98.4-33.1-167.7c1.7-37.4,13.4-69.8,33.8-93.6c22.9-26.8,55.3-42,96.4-45c80.9-6,95,32.6,120.6,102.7
		c2.2,5.9,4.4,12.1,6.8,18.5c4.7,12.6,8.7,24.2,12.7,35.5c21.5,61.6,33.3,95.5,84.1,99.4c54.3,4.2,167.7-40.1,194.2-50.8l-70-75.8
		c3.2,17.6,5.1,45.4-9.6,62.4c-1.4,1.7-3,3.5-4.6,5.4c-13.2,15.7-31,36.9-53.6,36.9s-2.3,0-3.5-0.2c-18.3-1.8-35.4-17.4-52.1-47.8
		c-16.4-29.9-11-105.5,10.6-147.2c9.1-17.6,20.6-27.7,33.1-29.1c41.2-4.6,83.8,38.7,129,84.5c5,5.1,10.2,10.4,15.3,15.5
		c17.2,17.2,26.3,31.1,33,41.1c5.4,8.3,8.7,13.3,12.7,14.2c4,1,10.9-1.7,23.7-9.1c27.1-15.6,48.9-20.7,66.7-15.5
		c13.6,4,24.8,14.1,33.1,30.1c19.3,37,0.7,51.6-15.7,64.6c-1.6,1.3-3.2,2.6-4.8,3.9l-10.7,8.7c23.9,3.9,89.8,12.9,133.1,0.1
		c45.8-13.5,100.3-47.9,115.9-58.1l-51.7-50.4c2,18.2,0.7,44.5-13.2,62.8c-9.6,12.7-23.6,19.4-41.6,20
		c-54.7,1.6-88.4-29.6-90.2-83.4c-1.2-35.4,1.9-63.2,9.3-85.1c11.3-33.3,32.6-51.4,63.3-53.7c49.7-3.7,90.7,40.4,123.7,75.8
		c11.8,12.7,22.9,24.6,32.4,32c7.8,6,13.5,11.1,18.2,15.1c7.7,6.8,11.2,9.7,14.1,9.4c3.6-0.4,9.6-5.8,18.9-14.5
		c13.9-13.1,33.3-18.7,53.4-15.5c15.8,2.5,28.9,10.1,34.2,19.8c9.2,16.9,20,64.5-1.2,79.9c-6.8,4.9-17.7,8.2-30.4,12
		c-23.5,7-52.8,15.8-74.2,39.3c-17.2,18.8-57.1,43.4-101.6,62.6c-49.8,21.5-95.5,32.1-125.4,29.2c-65.8-6.4-138.2-50.9-167.4-73.6
		c-16.8-13.1-24-8.3-43.2,4.4c-10.3,6.8-23.1,15.3-41.5,23.7c-10.4,4.7-20.2,9.6-29.7,14.3c-34.6,17.1-65.1,32.2-105.3,32.2
		L1394,3287.2L1394,3287.2z M1230.4,3143.4c4.9,0,6.4,5.6,11.2,26.2c14.6,63.3,79.2,102.4,135.6,108.3c47,4.9,80.1-11.4,118.4-30.4
		c9.5-4.7,19.4-9.6,29.9-14.4c17.9-8.1,30.3-16.4,40.4-23c19.6-13,31.4-20.8,53.1-4c28.4,22.1,99.1,65.6,163,71.8
		c63.1,6.1,186.7-52.7,219.9-89.1c23-25.2,54.8-34.7,78.1-41.7c11.9-3.6,22.2-6.6,27.8-10.7l2.5,3.4l-2.5-3.4
		c15.1-11,8.1-51.9-1.2-69c-3.9-7.2-15.2-13.4-28.1-15.5c-17.5-2.8-34.3,2.1-46.3,13.3c-11.2,10.5-17.3,16-23.7,16.8
		c-6.8,0.8-11.8-3.5-20.7-11.4c-4.5-4-10.2-8.9-17.7-14.8c-10-7.8-20.9-19.4-33.4-32.9c-31.7-34.1-71.2-76.5-116.8-73.1
		c-45.7,3.4-67.5,47.1-64.7,130c1.6,49.3,31.4,76.7,81.4,75.2c15.3-0.4,27.1-6,35.1-16.6c14.7-19.4,13.7-51.8,9.5-68.8l-3.6-14.5
		l79.2,77.2l-4.3,2.9c-2.7,1.9-67.6,45.9-122.6,62.1c-55.4,16.3-142.5-0.8-146.1-1.5l-8.8-1.8l24.8-20.3c1.6-1.3,3.3-2.7,5-4
		c16.4-13,29.4-23.2,13.4-54c-7.3-14.1-16.5-22.6-28-25.9c-15.5-4.5-35.1,0.3-60.1,14.7c-29.6,17.1-34.7,12.1-47.7-7.8
		c-6.4-9.8-15.2-23.2-31.9-39.8c-5.1-5.1-10.3-10.4-15.4-15.5c-41.8-42.4-85-86.1-122-82c-12.1,1.3-21.1,14.1-26.5,24.5
		c-20.2,38.9-25.8,111.8-10.7,139.2c15,27.3,30.3,41.9,45.5,43.4c19.8,1.9,37.2-18.7,49.8-33.8c1.6-2,3.2-3.8,4.7-5.5
		c19.2-22.2,4.2-69.9,4-70.4l-5.9-18.3l102.4,110.9l-5.6,2.3c-5.5,2.3-129.4,54.1-195.5,54.1s-5.6,0-8.3-0.3
		c-26.6-2-44.8-11.7-59-31.4c-12.9-17.9-21.5-42.5-32.4-73.7c-3.9-11.2-7.9-22.8-12.6-35.3c-2.4-6.4-4.6-12.6-6.8-18.5
		c-25.7-70.5-37.5-102.7-112-97.1c-73.1,5.4-118.8,54.3-122.4,130.6c-3.1,67.6,1,115.8,31.7,162.6c12.9,19.7,33,25.1,47.6,26.2
		c33.4,2.5,72.7-14.7,97.9-42.9c16.7-18.7,21.7-49.8,24.3-66.6C1225.1,3147.8,1225.8,3143.5,1230.4,3143.4h0.3H1230.4L1230.4,3143.4
		z M1166.1,3157.5c-28,0-50.8-32-50.8-71.4s22.8-71.4,50.8-71.4s50.8,32,50.8,71.4S1194.1,3157.5,1166.1,3157.5z M1166.1,3023.1
		c-23.3,0-42.3,28.2-42.3,62.9s19,62.9,42.3,62.9s42.3-28.2,42.3-62.9S1189.4,3023.1,1166.1,3023.1z M1823.6,2928.7
		c-36.3,0-65.8-29.5-65.8-65.8s29.5-65.8,65.8-65.8s65.8,29.5,65.8,65.8S1859.9,2928.7,1823.6,2928.7z M1823.6,2805.6
		c-31.6,0-57.3,25.7-57.3,57.3s25.7,57.3,57.3,57.3s57.3-25.7,57.3-57.3S1855.2,2805.6,1823.6,2805.6z"/>
</g>
</svg>
