<?xml version="1.0" encoding="utf-8"?>
<!-- Generator: Adobe Illustrator 27.7.0, SVG Export Plug-In . SVG Version: 6.00 Build 0)  -->
<svg version="1.1" id="Layer_1" xmlns="http://www.w3.org/2000/svg" xmlns:xlink="http://www.w3.org/1999/xlink" x="0px" y="0px"
	 viewBox="0 0 3500 3500" style="enable-background:new 0 0 3500 3500;" xml:space="preserve">
<style type="text/css">
	.st0{fill:url(#SVGID_1_);}
	.st1{fill:url(#SVGID_00000129901611100217275850000004623507076796071590_);}
	.st2{fill:url(#SVGID_00000109011234076275599660000010543647959566516122_);}
	.st3{fill:#FFFFFF;}
	.st4{fill:url(#SVGID_00000147938265021237993450000009487418372105428658_);}
	.st5{fill:url(#SVGID_00000094610713519827847750000009144773271754713775_);}
</style>
<g>
	
		<linearGradient id="SVGID_1_" gradientUnits="userSpaceOnUse" x1="0" y1="-1750" x2="3500" y2="-1750" gradientTransform="matrix(1 0 0 -1 0 0)">
		<stop  offset="0" style="stop-color:#FFFFFF"/>
		<stop  offset="0" style="stop-color:#FA7822"/>
		<stop  offset="0.9055" style="stop-color:#FBC13B"/>
	</linearGradient>
	<polygon class="st0" points="3500,0 3500,1051.1 449.4,3500 0,3500 0,1934.4 1755,0 	"/>
	
		<linearGradient id="SVGID_00000011029242318223720020000010130259187093721505_" gradientUnits="userSpaceOnUse" x1="449.42" y1="-2275.5249" x2="3500" y2="-2275.5249" gradientTransform="matrix(1 0 0 -1 0 0)">
		<stop  offset="0" style="stop-color:#FFFFFF"/>
		<stop  offset="0" style="stop-color:#FB9923"/>
		<stop  offset="1" style="stop-color:#FB8423"/>
	</linearGradient>
	<polygon style="fill:url(#SVGID_00000011029242318223720020000010130259187093721505_);" points="3500,1051.1 3500,2297.7 
		2512.8,3500 449.4,3500 	"/>
	
		<linearGradient id="SVGID_00000124849069185583498090000011345487233125946796_" gradientUnits="userSpaceOnUse" x1="2512.78" y1="-2898.8701" x2="3500" y2="-2898.8701" gradientTransform="matrix(1 0 0 -1 0 0)">
		<stop  offset="9.450000e-02" style="stop-color:#FBC13B"/>
		<stop  offset="1" style="stop-color:#FA7822"/>
	</linearGradient>
	<polygon style="fill:url(#SVGID_00000124849069185583498090000011345487233125946796_);" points="3500,2297.7 3500,3500 
		2512.8,3500 	"/>
	<g>
		<path class="st3" d="M1336.2,1741.2c0.3-300.2,241.5-539.2,543-539.6c282-0.4,539.6,225.3,538.7,544.2
			c-0.9,299.4-239,539.8-541.4,538.1C1546.1,2282,1332.8,2014,1336.2,1741.2z M1926.5,1916.7c49.4,12.7,56.5,9.5,73.4-31.8
			c26.9-65.6,53.7-131.3,80.9-196.8c7.2-17.3,14-34.8,34.3-42.6c10.6-4.1,13.4-13.9,4.8-28.4c-23.1,0-48.4-0.8-73.5,0.6
			c-5.8,0.3-12.6,7.4-16.3,13.1c-1.7,2.5,1.8,12.3,5.1,13.6c24.9,10,17.3,28,11.1,44.5c-17.7,46.6-36.4,92.9-54.9,139.2
			c-2.5,6.3-6.4,12-11.9,22.1c-8-58.2-15.4-110.8-22.2-163.4c-3.2-24.4-0.8-29.2,23.4-39.9c13.7-6.1,14.9-14.3,9.4-30.2
			c-38.1-3.2-77.6-2.9-117.1-0.4c-14.2,0.9-16.7,12.2-13.5,28c24.5,4.9,26.9,26.3,30.2,47.8c9.9,65.7,20.3,131.4,30.7,197
			C1921.9,1898.9,1924.7,1908.4,1926.5,1916.7z M1716.8,1662.7c-1.8,17.5-3,32.8-4.9,48.1c-5.9,49.5-14.3,98.8-17.5,148.5
			c-3.5,54.7,21,75,75.2,67.7c6.6-0.9,13.1-2.3,19.5-4.2c22.9-7,25.1-11.3,20.8-38.6c-2-0.9-3.9-2.1-6-2.5c-3.2-0.7-6.6-0.7-9.9-1.1
			c-27.7-3.4-33.8-8.1-31.3-35.3c4.3-46.3,11.4-92.3,17.8-138.4c2.2-16.1,5.8-31.9,8.8-48c18.9-2.4,34-4.3,52.3-6.7
			c1.6-10.2,3.2-20,5-31.2c-18.9-3.7-33.7-6.5-49.4-9.6c0-21.8,0-41.2,0-60.2c-29.1-3.9-30.4-4.5-37.6,11.3
			c-12.8,28.1-28.2,51.8-59.5,63.2c-15.2,5.5-13.6,19.5,1.4,29.4C1705,1657.5,1709.2,1659,1716.8,1662.7z"/>
		<path class="st3" d="M829,1913.1c0,161.6,0,323.3-0.1,484.9c0,0.6-1.5,1.2-2.4,1.8c-86.7-97.2-193.8-341.4-206.6-599.4
			c-12.9-260.4,62-496,210.7-709.6c9.4,81.6,0.7,162.7,1.3,243.8c0.6,80.8,0.1,161.6,5.6,244.2c3.9-11.6,8-23.2,11.7-34.9
			c54-170.3,92.5-344.7,135.1-518c9.8-39.8,18.6-80,30.2-119.3c4.1-14,12.3-29.1,23-38.6c94-83.6,202-143.5,320.5-184.8
			c4.2-1.5,8.5-2.5,12.9-3.1c1.9-0.2,4,1.3,8.2,2.8c-2.1,9-3.7,18.5-6.4,27.7c-96.3,334.5-192.5,669.1-289.3,1003.5
			c-6.2,21.3-6,40.6,0.1,61.6c97.3,336.5,194.1,673.2,291,1009.9c2.7,9.2,4.2,18.7,6.7,30.2c-7.1,0-11.7,1.2-15.2-0.2
			c-108.9-42.2-213.3-92.6-306.3-164.9c-27.4-21.4-44.4-45.8-53-80.3c-51.6-207.6-105.2-414.8-158.2-622
			c-3.2-12.6-7.5-24.9-11.3-37.3C834.6,1911.8,831.8,1912.4,829,1913.1z"/>
		<path class="st3" d="M1704.7,624.9c13.8-2.5,25.3-4.6,41.3-7.5c15.1,79.2,17.3,157.2,26.6,233.5c-35.1,18.4-49.2,16.1-69.2-11.5
			c-29.2-40.2-57.9-80.8-89.9-120.7c-5.8,50.8,10.4,100.8,7,154c-14.1,1.1-25.7,2-41.4,3.3c-12.1-79.2-19.8-156.3-23.2-232.9
			c43.2-13.9,44.1-13.8,65.2,15.3c22.8,31.3,45.1,63,67.8,94.4c6.2,8.6,13.2,16.8,22.8,24.1C1719.3,726.7,1703.7,678.5,1704.7,624.9
			z"/>
		<path class="st3" d="M2214.7,2656c15.9,20.7,28.8,35.2,39.2,51.4c10,15.6,17.3,32.9,27.2,52.2c-13.4,5.6-27.3,11.4-45.3,18.9
			c-9.3-17.9-17.7-34.2-26.2-50.4c-13.8-26.4-22.4-30.1-50.5-19.6c-15.1,5.6-29.5,13.4-46.4,21.2c11.3,29.7,21.5,56.3,32.9,86.2
			c-14.3,6.2-26.8,11.6-38.7,16.8c-16.8-20.5-83.6-175.7-94-216.5c19.5-15,107.6-53,129.3-55.9c56.4-7.4,91.2,33.5,75.1,88.4
			C2216,2652.9,2214.4,2656.9,2214.7,2656z M2095.3,2691.4c25.1-11.3,45.8-19.2,65.1-29.7c14.4-7.8,17.7-22,12.3-37.6
			c-5.2-15.1-17.2-23.4-34.1-18.7c-21.8,6.1-42.6,16-67.3,25.6C2079.8,2652.5,2086.5,2669.4,2095.3,2691.4z"/>
		<path class="st3" d="M2572.4,2540.8c-59.9-52.4-117.2-102.6-176.2-154.3c5.5-8.8,9.2-16.6,14.6-22.9c18-21.1,36.1-42.1,55-62.2
			c34.2-36.3,73.9-42.3,117.3-18.2c27.6,15.3,50.1,36.6,67.4,62.8c24.2,36.5,24,76.4-2.3,111.5c-17.9,23.9-38.4,45.8-58.1,68.2
			C2586,2530.6,2580.4,2534.1,2572.4,2540.8z M2458.2,2374.5c40.6,35.6,78.6,68.9,118.1,103.5c23.1-25.9,51.4-45.4,42.6-83.6
			c-7-30.4-52.6-71.5-82.5-74.9C2496.8,2314.9,2481.3,2345.4,2458.2,2374.5z"/>
		<path class="st3" d="M2680.1,1460.2c14.2,22.7,18.8,39.3,1.8,57.9c-16.9,18.5-15.9,40.7-6.3,62.4c5.8,13.1,15.9,21.8,31.4,19.3
			c15.1-2.4,18.4-14.7,19.5-27.2c2.3-25.4,2.7-50.9,5.9-76.2c5-39.5,19-55.6,49.9-61.2c36.2-6.5,62.2,5.6,80.7,38.2
			c16.5,29.1,21.6,60.7,16.7,93.3c-4.8,31.2-23,51.6-53.9,59.8c-16.9-27.5-18.6-33.6,0.7-52.6c20-19.7,14.8-63.1-3.9-82.3
			c-5.8-6-18-9.5-26.2-8c-6.4,1.1-14.1,10.9-15.9,18.2c-3.8,14.9-4.2,30.7-5.6,46.1c-1.3,14.3-0.7,29-3.1,43.1
			c-8.9,52.6-62.6,74.3-105.9,43.2c-40.6-29.1-52.8-104.9-21.8-144C2653.3,1478.7,2666.9,1471,2680.1,1460.2z"/>
		<path class="st3" d="M1705.3,2646.1c16.3,1.3,29,2.4,44.8,3.6c-0.6,12.2-0.2,21.8-1.6,31.2c-6.3,42.7-12.6,85.4-20,127.9
			c-9.8,56.2-41.8,79.9-98.6,72.5c-17.3-2.2-34.9-6.4-50.8-13.4c-27.7-12.1-43.5-35.3-42.7-65.6c1.5-59.8,15.7-117.8,24.7-180.6
			c17.1,2.7,30.4,4.8,46.5,7.3c-0.8,12.3-0.9,21.9-2.3,31.4c-5.9,40.5-13,80.9-18.1,121.4c-3.6,28.5,4.7,42.9,25.6,51.6
			c32.6,13.5,57.8,2.3,65.6-32.1c7.5-33.4,11.5-67.6,17.2-101.4C1698.3,2683.6,1701.4,2667.4,1705.3,2646.1z"/>
		<path class="st3" d="M2067.1,914.5c2.6-82,5.2-163.5,7.8-244.9c41.8,0.3,42.4,1,51,62.8c24.5,9.7,50.9,20.1,82.6,32.6
			c9.1-13.6,18.4-27.4,27.6-41.1c19.8,7.5,33.6,12.7,51.8,19.6c-27.2,32.5-51,61.3-75.1,89.8c-22.1,26.2-44.6,52.2-66.7,78.4
			c-23.1,27.4-25.9,28.1-58.9,13.7C2082.1,923.1,2077.5,920.2,2067.1,914.5z M2123.2,777.8c-7.2,33.9-9.1,61.4-5.7,95.9
			c22.8-26.8,43.5-46.3,56.6-75.8C2157.4,791.3,2142.4,785.4,2123.2,777.8z"/>
		<path class="st3" d="M2400.8,1112.3c13.1-10,21.5-16.5,32.1-24.6c8.8,9.3,16.1,17.2,23.5,24.9c7.5,7.8,15.2,15.3,25.8,26
			c50.1-42.4,98.6-83.3,149.3-126.2c11.6,12.8,20.7,23,33.1,36.8c-50.7,43.8-98.8,85.4-149.3,129c14.7,19,28,36.2,43.2,55.9
			c-9,8.6-17.3,16.6-28.2,27C2484.1,1214.1,2444.9,1164.2,2400.8,1112.3z"/>
		<path class="st3" d="M2851.8,2050.5c-80-19.1-155.1-36.1-232.1-58.7c4-15.9,7.2-28.2,11.5-45.2c78.1,17.7,153.6,36.4,231.7,57.2
			C2859,2019.8,2855.9,2033.2,2851.8,2050.5z"/>
		<path class="st3" d="M1282,1781.8c-39.7-9.9-78.5-19.6-117.3-29.2c-0.2-2.6-0.3-5.1-0.5-7.7c38.6-9.8,77.2-19.7,117.3-29.9
			C1291.6,1737.6,1290.1,1757.2,1282,1781.8z"/>
		<path class="st3" d="M2434.1,1554.5c-8.9-23.9-15.7-41.9-23.8-63.6c37.4-5.4,70-10.2,102.6-14.6c6.3-0.9,12.9-0.1,28-0.1
			C2503.5,1506.9,2471.2,1530.9,2434.1,1554.5z"/>
		<path class="st3" d="M2152.6,1091.5c-6,39-12,78.1-18.3,119.2c-24.2-0.7-41-11.7-63-23.9c26.3-35.2,50.2-67.3,74.2-99.4
			C2147.8,1088.8,2150.2,1090.2,2152.6,1091.5z"/>
		<path class="st3" d="M1613.3,1214.9c-6.7-41.5-12.7-79.1-18.7-116.6c2.4-1.2,4.7-2.3,7.1-3.5c26.3,27.9,47.9,59.7,71.9,91.7
			C1658.3,1204.7,1638.5,1208.8,1613.3,1214.9z"/>
		<path class="st3" d="M2380,1245c-20.5,34.1-41,68.3-63.9,106.3c-17.6-16.9-31.6-30.2-49.8-47.7c38.1-23,72.4-43.6,106.6-64.3
			C2375.2,1241.3,2377.6,1243.1,2380,1245z"/>
		<path class="st3" d="M1318.2,1940.7c9.2,22.9,16,40.1,24.4,61.2c-40.6,11.7-79.5,13.5-119.4,16.2
			C1250.3,1988.5,1282.5,1967,1318.2,1940.7z"/>
		<path class="st3" d="M2524.7,2028.8c-37.6-6.2-75.1-12.4-117.4-19.3c8.9-22.2,16.1-40.1,25.5-63.3c34.5,26.2,65.4,49.7,96.3,73.2
			C2527.7,2022.4,2526.2,2025.6,2524.7,2028.8z"/>
		<path class="st3" d="M2372.5,2257.1c-33.6-20.6-67.2-41.1-104.9-64.2c15.9-16.7,29.2-30.5,45.4-47.4
			c27.6,34.3,43.9,71.4,64.9,105.4C2376.1,2252.9,2374.3,2255,2372.5,2257.1z"/>
		<path class="st3" d="M1683.6,2306.1c-27,36.7-50.3,68.4-73.7,100.1c-2.3-0.7-4.6-1.5-7-2.2c5.2-39.2,10.4-78.5,16.3-123.1
			C1641.2,2289.5,1659.1,2296.5,1683.6,2306.1z"/>
		<path class="st3" d="M1375.6,1237.6c12.5,6.8,22.9,12,32.8,18c24.3,14.6,48.3,29.6,76.5,46.9c-15.8,16.5-29,30.2-41.9,43.7
			C1421.9,1329.3,1387.5,1273.6,1375.6,1237.6z"/>
		<path class="st3" d="M1344.4,1491c-8,18.8-15.2,35.5-24.4,57.1c-35.3-24.5-65.9-48.5-98.1-73.1
			C1244.9,1467.9,1309.6,1476.3,1344.4,1491z"/>
		<path class="st3" d="M2469.7,1713.5c42.6,10.7,79.7,20,118.9,29.8c-20,15.1-80.1,31.7-118.9,33.3
			C2469.7,1757.5,2469.7,1738.5,2469.7,1713.5z"/>
		<path class="st3" d="M1881.1,1035.9c9.3,37.4,18.7,74.8,27.9,112.1c-21.5,14.2-40.6,7.7-63.4,7.4c4.3-43.3,18.9-80.6,27.6-119.2
			C1875.8,1036,1878.4,1035.9,1881.1,1035.9z"/>
		<path class="st3" d="M2152.1,2405.6c-24.2-32.2-48.4-64.4-75.4-100.5c20.8-9.3,38-17.1,59.3-26.6
			C2149,2321.7,2152.1,2362.6,2152.1,2405.6z"/>
		<path class="st3" d="M1481.9,2189.4c-28.2,25.2-77.5,53.9-106.5,61.1c19.6-35.9,37.4-68.1,58.7-100.4
			C1457,2154.8,1466.7,2173.8,1481.9,2189.4z"/>
		<path class="st3" d="M1873.2,2457.9c-9.4-37-18.9-74.1-28.5-111.7c20.8-13.2,39.7-6.4,63.8-4.8c-6.6,41.9-17.9,79.2-27.6,116.8
			C1878.3,2458.2,1875.8,2458.1,1873.2,2457.9z"/>
	</g>
	
		<linearGradient id="SVGID_00000055698018346003007960000009705386858664460447_" gradientUnits="userSpaceOnUse" x1="-450.9897" y1="-1392.5892" x2="1900.6819" y2="-31.1216" gradientTransform="matrix(1 0 0 -1 0 0)">
		<stop  offset="0" style="stop-color:#FFFFFF"/>
		<stop  offset="0" style="stop-color:#FA7822"/>
		<stop  offset="0.9055" style="stop-color:#FBC13B"/>
	</linearGradient>
	<polygon style="fill:url(#SVGID_00000055698018346003007960000009705386858664460447_);" points="1755,0 0,1934.4 0,328.6 618.8,0 
			"/>
	
		<linearGradient id="SVGID_00000000927828372311092130000011763932371879355302_" gradientUnits="userSpaceOnUse" x1="0" y1="-164.315" x2="618.77" y2="-164.315" gradientTransform="matrix(1 0 0 -1 0 0)">
		<stop  offset="0" style="stop-color:#FFFFFF"/>
		<stop  offset="0" style="stop-color:#FB9923"/>
		<stop  offset="1" style="stop-color:#FB9423"/>
	</linearGradient>
	<polygon style="fill:url(#SVGID_00000000927828372311092130000011763932371879355302_);" points="618.8,0 0,328.6 0,0 	"/>
</g>
</svg>
