<?xml version="1.0" encoding="UTF-8"?>
<svg id="Layer_1" data-name="Layer 1" xmlns="http://www.w3.org/2000/svg" version="1.1" viewBox="0 0 3500 3500">
  <defs>
    <style>
      .cls-1 {
        fill: #157df6;
      }

      .cls-1, .cls-2, .cls-3, .cls-4, .cls-5, .cls-6, .cls-7, .cls-8, .cls-9, .cls-10, .cls-11, .cls-12 {
        stroke-width: 0px;
      }

      .cls-2 {
        fill: #032b8c;
      }

      .cls-3 {
        fill: #2696f8;
      }

      .cls-4 {
        fill: #54b2fa;
      }

      .cls-5 {
        fill: #1483ee;
      }

      .cls-6 {
        fill: #72c1fa;
      }

      .cls-7 {
        fill: #48aaf1;
      }

      .cls-8 {
        fill: #2597f1;
      }

      .cls-9 {
        fill: #075de6;
      }

      .cls-10 {
        fill: #7fc5f6;
      }

      .cls-11 {
        fill: #82c9ff;
      }

      .cls-12 {
        fill: #043ec8;
      }
    </style>
  </defs>
  <g>
    <g>
      <polygon class="cls-9" points="1112.5 637.5 1112.5 1274.9 475.1 1274.9 1112.5 637.5"/>
      <polygon class="cls-11" points="1112.5 1912.4 1112.5 2549.8 475.1 2549.8 1112.5 1912.4"/>
      <polygon class="cls-5" points="1750 1274.9 1112.5 1274.9 1112.5 637.5 1750 1274.9"/>
      <polygon class="cls-1" points="1112.5 1274.9 1112.5 1912.4 475.1 1274.9 1112.5 1274.9"/>
      <polygon class="cls-7" points="1750 1274.9 1750 1912.4 1112.5 1912.4 1750 1274.9"/>
      <polygon class="cls-10" points="1750 1912.4 1750 2549.8 1112.5 1912.4 1750 1912.4"/>
      <polygon class="cls-8" points="1750 1274.9 1112.5 1912.4 1112.5 1274.9 1750 1274.9"/>
      <polygon class="cls-2" points="1112.5 637.5 475.1 637.5 475.1 0 1112.5 637.5"/>
      <polygon class="cls-12" points="1112.5 637.5 475.1 1274.9 475.1 637.5 1112.5 637.5"/>
      <polygon class="cls-3" points="1112.5 1912.4 475.1 1912.4 475.1 1274.9 1112.5 1912.4"/>
      <polygon class="cls-4" points="1112.5 1912.4 475.1 2549.8 475.1 1912.4 1112.5 1912.4"/>
      <polygon class="cls-6" points="1112.5 2549.8 475.1 3187.3 475.1 2549.8 1112.5 2549.8"/>
    </g>
    <g>
      <polygon class="cls-9" points="2387.5 637.5 2387.5 1274.9 3024.9 1274.9 2387.5 637.5"/>
      <polygon class="cls-11" points="2387.5 1912.4 2387.5 2549.8 3024.9 2549.8 2387.5 1912.4"/>
      <polygon class="cls-5" points="1750 1274.9 2387.5 1274.9 2387.5 637.5 1750 1274.9"/>
      <polygon class="cls-1" points="2387.5 1274.9 2387.5 1912.4 3024.9 1274.9 2387.5 1274.9"/>
      <polygon class="cls-7" points="1750 1274.9 1750 1912.4 2387.5 1912.4 1750 1274.9"/>
      <polygon class="cls-10" points="1750 1912.4 1750 2549.8 2387.5 1912.4 1750 1912.4"/>
      <polygon class="cls-8" points="1750 1274.9 2387.5 1912.4 2387.5 1274.9 1750 1274.9"/>
      <polygon class="cls-2" points="2387.5 637.5 3024.9 637.5 3024.9 0 2387.5 637.5"/>
      <polygon class="cls-12" points="2387.5 637.5 3024.9 1274.9 3024.9 637.5 2387.5 637.5"/>
      <polygon class="cls-3" points="2387.5 1912.4 3024.9 1912.4 3024.9 1274.9 2387.5 1912.4"/>
      <polygon class="cls-4" points="2387.5 1912.4 3024.9 2549.8 3024.9 1912.4 2387.5 1912.4"/>
      <polygon class="cls-6" points="2387.5 2549.8 3024.9 3187.3 3024.9 2549.8 2387.5 2549.8"/>
    </g>
  </g>
  <g>
    <path class="cls-8" d="M535.5,3386.1l-29.1,30.2v80.6h-31.3v-238.2h31.3v117.7l105.9-117.7h38l-93.8,105.2,101.1,133h-37.6l-84.5-110.7Z"/>
    <path class="cls-8" d="M852.9,3258.6v162c0,22.4-7.2,40.8-21.2,55.1-14,14.3-33.1,22.3-57,24l-8.3.3c-26.1,0-46.9-7-62.4-21.1-15.5-14-23.3-33.4-23.5-58.1v-162.3h31.2v161.3c0,17.3,4.7,30.7,14.2,40.2,9.5,9.5,23,14.3,40.6,14.3s31.4-4.7,40.8-14.2c9.4-9.5,14.1-22.9,14.1-40.1v-161.4h31.6Z"/>
    <path class="cls-8" d="M989.9,3400.5h-56.1v96.3h-31.5v-238.2h78.8c26.8,0,47.4,6.1,61.9,18.3,14.5,12.2,21.7,30,21.7,53.4s-4,27.7-12,38.7c-8,11-19.2,19.3-33.4,24.7l56,101.3v1.9h-33.8l-51.6-96.3ZM933.8,3374.7h48.4c15.5,0,27.9-4,37.2-12.1,9.2-8.1,13.8-18.8,13.8-32.3s-4.4-26.1-13.2-33.9c-8.8-7.9-21.4-11.9-38-11.9h-48.2v90.3Z"/>
    <path class="cls-8" d="M1108.7,3496.8v-238.2h67.2c20.8,0,39.1,4.6,55.1,13.8,15.9,9.2,28.2,22.2,36.9,39.1,8.6,16.9,13,36.3,13.1,58.1v15.3c0,22.4-4.3,42.1-13,59-8.6,16.9-21,29.9-37.1,39-16.1,9.1-34.8,13.7-56.3,13.9h-65.9ZM1140.1,3284.4v186.8h33.1c24.3,0,43.2-7.5,56.6-22.6,13.5-15.1,20.2-36.5,20.2-64.4v-13.8c0-27.1-6.4-48.1-19.1-63.1-12.7-15-30.7-22.6-54.1-22.9h-36.7Z"/>
    <path class="cls-8" d="M1369,3258.6l78,194.4,77.8-194.4h40.8v238.2h-31.5v-92.8l3.1-100.1-78.2,192.9h-24l-78.1-192.5,3.1,99.7v92.8h-31.3v-238.2h40.5Z"/>
    <path class="cls-8" d="M1752.6,3434.6h-99.8l-22.4,62.2h-32.5l91.1-238.2h27.5l91.1,238.2h-32.2l-22.7-62.2ZM1662.3,3408.8h81l-40.7-111.5-40.4,111.5Z"/>
    <path class="cls-8" d="M1917.3,3349.9l57.1-91.4h37l-75.3,118.2,77.1,120.1h-37.3l-58.6-93-58.9,93h-37.2l77.2-120.1-75.5-118.2h36.9l57.4,91.4Z"/>
    <path class="cls-10" d="M2090.2,3258.6l78,194.4,77.8-194.4h40.8v238.2h-31.5v-92.8l3.1-100.1-78.2,192.9h-24l-78.1-192.5,3.1,99.7v92.8h-31.3v-238.2h40.5Z"/>
    <path class="cls-10" d="M2510,3258.6v162c0,22.4-7.2,40.8-21.2,55.1-14,14.3-33.1,22.3-57,24l-8.3.3c-26.1,0-46.9-7-62.4-21.1-15.5-14-23.3-33.4-23.5-58.1v-162.3h31.2v161.3c0,17.3,4.7,30.7,14.2,40.2,9.5,9.5,23,14.3,40.6,14.3s31.4-4.7,40.8-14.2c9.4-9.5,14.1-22.9,14.1-40.1v-161.4h31.6Z"/>
    <path class="cls-10" d="M2629.8,3390.6c-27-7.8-46.6-17.3-58.9-28.6-12.2-11.3-18.4-25.2-18.4-41.8s7.5-34.3,22.4-46.6c15-12.3,34.4-18.4,58.4-18.4s31,3.2,43.9,9.5c12.8,6.4,22.8,15.1,29.8,26.2,7,11.1,10.6,23.3,10.6,36.5h-31.6c0-14.5-4.6-25.8-13.8-34-9.2-8.2-22.1-12.3-38.8-12.3s-27.5,3.4-36.2,10.2c-8.7,6.8-13,16.3-13,28.4s4.1,17.9,12.4,24.6c8.3,6.7,22.3,12.8,42.1,18.4,19.8,5.5,35.3,11.7,46.5,18.4,11.2,6.8,19.5,14.6,24.8,23.5,5.4,8.9,8.1,19.4,8.1,31.5,0,19.3-7.5,34.8-22.6,46.4-15.1,11.6-35.2,17.4-60.3,17.4s-31.7-3.1-45.9-9.4c-14.2-6.3-25.1-14.8-32.8-25.7-7.7-10.9-11.5-23.3-11.5-37.2h31.6c0,14.4,5.3,25.7,16,34.1,10.6,8.4,24.8,12.5,42.6,12.5s29.2-3.4,38-10.1c8.8-6.8,13.3-16,13.3-27.6s-4.1-20.7-12.2-27.1c-8.2-6.4-23-12.7-44.4-18.9Z"/>
    <path class="cls-10" d="M2792.1,3496.8h-31.3v-238.2h31.3v238.2Z"/>
    <path class="cls-10" d="M3024.9,3421.2c-3,25.3-12.3,44.7-28,58.4-15.6,13.6-36.4,20.5-62.4,20.5s-50.7-10.1-67.7-30.2c-17-20.2-25.4-47.1-25.4-80.9v-22.9c0-22.1,3.9-41.6,11.8-58.4,7.9-16.8,19.1-29.7,33.6-38.8,14.5-9,31.3-13.6,50.5-13.6s45.5,7.1,60.8,21.2c15.3,14.1,24.2,33.7,26.7,58.6h-31.6c-2.7-18.9-8.6-32.7-17.8-41.2-9.1-8.5-21.9-12.7-38.2-12.7s-35.9,7.4-47.3,22.2c-11.4,14.8-17.1,35.9-17.1,63.3v23.2c0,25.8,5.4,46.4,16.2,61.6,10.8,15.3,26,22.9,45.4,22.9s30.7-4,40.1-11.9c9.3-7.9,15.5-21.7,18.6-41.3h31.6Z"/>
  </g>
</svg>