<?xml version="1.0" encoding="utf-8"?>
<!-- Generator: Adobe Illustrator 27.7.0, SVG Export Plug-In . SVG Version: 6.00 Build 0)  -->
<svg version="1.1" id="Layer_1" xmlns="http://www.w3.org/2000/svg" xmlns:xlink="http://www.w3.org/1999/xlink" x="0px" y="0px"
	 viewBox="0 0 3500 3500" style="enable-background:new 0 0 3500 3500;" xml:space="preserve">
<style type="text/css">
	.st0{fill:url(#SVGID_1_);}
	.st1{fill:url(#SVGID_00000068638452076367707500000017829541285590981290_);}
	.st2{fill:#D0D2D3;}
</style>
<linearGradient id="SVGID_1_" gradientUnits="userSpaceOnUse" x1="176.519" y1="-2643.4204" x2="3208.0164" y2="-893.1818" gradientTransform="matrix(1 0 0 -1 0 0)">
	<stop  offset="0" style="stop-color:#FF7200"/>
	<stop  offset="0.44" style="stop-color:#FAAF2A"/>
	<stop  offset="1" style="stop-color:#FF7200"/>
</linearGradient>
<path class="st0" d="M3130.2,2758.8c256-420,326.5-860.6,201.4-1327.5c-88.7-331.2-270.2-606.4-533.7-825.4
	C2211,118.1,1392.8,113.5,810.1,522.4C636.8,644,491.8,793.2,375.9,970.7c-115.9,177.5-194.6,369.8-236.2,577.6
	c-41.5,207.6-42.1,415.7-3.1,623.2c39,207.5,115.3,401.3,231.8,582.6c-12,2.2-18.7,4.4-25.5,4.6c-15.7,0.5-31.4,0.2-47.1,0.2
	c-54.5,0-54.1-0.2-80.8-49.5c-73.7-136-131.6-278.3-166.3-429.2c-15.4-67.1-25.2-135.5-35.7-203.6c-13.3-86.1-14.4-173-12.2-259.8
	c2.3-87.8,11.5-175,27-261.6c22.9-128.3,60.7-252.1,111.5-372c49.7-117.1,113-226.3,185.9-330.5c75.5-107.9,165.4-202.8,261.9-291.3
	c83.4-76.5,175.5-142.5,273.3-199.7c118-69,242-124.6,372.7-164.9c91.2-28.1,184-48,278.6-61.1c82-11.3,164.3-18.2,246.9-17.2
	c169.2,2.1,335.4,25.4,497.7,74.8c97.4,29.7,192.1,66,282.6,112.6c120.4,62,233.1,135.8,336.9,223.3
	C3009,641.3,3123.3,769.8,3218,915.4c123.5,190,205.9,396.6,250.2,619.2c28.8,144.8,36.9,290.8,28.9,437.2
	c-10.6,194.5-52.3,383.2-129.6,562.8c-28.5,66.2-62.7,130-93.9,195.1c-10,20.9-23.9,31.8-48.9,29.8
	C3195.8,2757.1,3166.6,2758.8,3130.2,2758.8L3130.2,2758.8z"/>
<linearGradient id="SVGID_00000160185695622949857790000000019743555592259760_" gradientUnits="userSpaceOnUse" x1="683.2001" y1="-1509.7505" x2="2825.8899" y2="-1509.7505" gradientTransform="matrix(1 0 0 -1 0 0)">
	<stop  offset="0" style="stop-color:#97999C"/>
	<stop  offset="0.44" style="stop-color:#CACCCE"/>
	<stop  offset="1" style="stop-color:#9EA0A3"/>
</linearGradient>
<path style="fill:url(#SVGID_00000160185695622949857790000000019743555592259760_);" d="M683.2,2756.2
	c360.1-833,719.3-1660.7,1081.8-2495.5c12.8,29.3,24,51.3,32.3,74.4c43.9,121.1,77.7,244.8,97.6,372.5
	c19.5,124.7,23.1,250.1,16.6,375.3c-6.1,117.9-28.2,234-63.5,347.4c-28.1,90.3-67.9,175.6-105.8,261.8
	c-35.3,80.5-69.9,161.3-104.7,242c-37.3,86.5-74.5,172.9-111.7,259.4c-40.5,94.2-81,188.4-121.5,282.6
	c-36.4,84.6-73.2,169-108.8,253.9c-8.9,21.2-21.4,29.2-44.9,29.1c-177.1-0.9-354.2-0.4-531.3-0.4
	C709.4,2758.5,699.4,2757.2,683.2,2756.2L683.2,2756.2z M2016.9,973.5c7.1,69.2,18.5,138.3,20.2,207.7c2.2,88.7-0.2,177.8-6.6,266.4
	c-4.6,63.2-17.6,126-29.6,188.5c-20.3,106.3-52.3,209.1-104.5,304.5c-6.9,12.5-4,21,0.8,31.8c17.6,39.1,35,78.3,51.8,117.8
	c47.4,110.6,94.3,221.3,141.7,331.9c43.7,101.9,87.9,203.6,131.5,305.5c12.8,30,12.7,30.7,46.2,30.7c173.9,0.1,347.9,0.2,521.8,0.2
	c10.1,0,20.3-1,35.6-1.8c-270.1-597.5-538.3-1190.9-806.5-1784.3C2018.6,972.8,2017.8,973.2,2016.9,973.5L2016.9,973.5z"/>
<g>
	<path class="st2" d="M757.4,3381.7h-99.5l-28.8-90.2H484.9l-28.6,90.2h-99l147.6-405.4h108.3L757.4,3381.7L757.4,3381.7z
		 M608.2,3221.4l-43.5-136.3c-3.2-10.2-5.5-22.3-6.8-36.5h-2.3c-0.9,11.9-3.3,23.7-7.1,35.3l-44.1,137.4L608.2,3221.4L608.2,3221.4z
		"/>
	<path class="st2" d="M1148.2,3381.7h-104.9l-63-104.3c-4.7-7.9-9.2-15-13.6-21.2c-4.3-6.2-8.7-11.6-13.2-16
		c-4.4-4.4-9-7.8-13.8-10.2s-10-3.5-15.7-3.5h-24.6v155.2h-91.3v-405.4h144.8c98.4,0,147.6,36.8,147.6,110.3
		c0,14.1-2.2,27.2-6.5,39.1c-4.3,12-10.5,22.8-18.4,32.4s-17.5,17.9-28.7,24.9c-11.2,7-23.7,12.4-37.5,16.4v1.1
		c6,1.9,11.9,4.9,17.5,9.2c5.7,4.2,11.1,9.2,16.4,14.9c5.3,5.7,10.3,11.7,15.1,18.2c4.8,6.5,9.2,12.9,13.2,19.1L1148.2,3381.7
		L1148.2,3381.7z M899.4,3044.6v112.8h39.6c19.6,0,35.3-5.7,47.2-17c12.1-11.5,18.1-25.7,18.1-42.7c0-35.4-21.2-53.1-63.6-53.1
		L899.4,3044.6L899.4,3044.6z"/>
	<path class="st2" d="M1491.7,2976.2l-132,261.2v144.2h-91.3v-142.5l-128.6-262.9H1244l65.3,151.3c1.1,2.8,4.2,13.9,9.3,33.1h1.1
		c2.4-13.6,5.4-24.2,8.8-31.9l66.4-152.4L1491.7,2976.2L1491.7,2976.2z"/>
	<path class="st2" d="M1780.6,3381.7h-243.2v-405.4h233.8v74.4h-142.5v90.2h132.6v74.1h-132.6v92.7h151.8V3381.7L1780.6,3381.7z"/>
	<path class="st2" d="M2210.4,3381.7h-92.2l-167.1-254.7c-9.8-14.9-16.6-26.1-20.4-33.6h-1.1c1.5,14.3,2.3,36.2,2.3,65.6v222.8
		h-86.2v-405.4h98.4l160.9,246.8c7.4,11.1,14.1,22.1,20.4,33.1h1.1c-1.5-9.4-2.3-28-2.3-55.7v-224.2h86.2L2210.4,3381.7
		L2210.4,3381.7z"/>
	<path class="st2" d="M2747.6,3050.6h-115.6v331.1h-91.6v-331.1h-115.1v-74.4h322.3V3050.6z"/>
	<path class="st2" d="M3139.7,2976.2L3000,3381.7h-103.5l-138-405.4h98.4l84.5,282.2c4.5,15.3,7.2,28.8,8.2,40.4h1.7
		c1.3-12.6,4.2-26.5,8.8-41.6l84-281L3139.7,2976.2L3139.7,2976.2z"/>
</g>
</svg>
