<?xml version="1.0" encoding="utf-8"?>
<!-- Generator: Adobe Illustrator 27.7.0, SVG Export Plug-In . SVG Version: 6.00 Build 0)  -->
<svg version="1.1" id="Layer_1" xmlns="http://www.w3.org/2000/svg" xmlns:xlink="http://www.w3.org/1999/xlink" x="0px" y="0px"
	 viewBox="0 0 3500 3500" style="enable-background:new 0 0 3500 3500;" xml:space="preserve">
<style type="text/css">
	.st0{fill:#F37721;}
</style>
<path class="st0" d="M3022.2,1497.7h115.4c30.4,76.4,61.1,153.4,94.1,236.2c36.1-80.6,64.3-159.1,97.7-235.2h170.7
	c-64.6,160.2-128.9,317.5-194.1,476c-42.1,0-82.7-0.4-123.3,0.2c-14.2,0.2-17.5-9.8-21.5-19.5c-22.2-54.9-44.2-110-66.4-164.9
	c-4.2-10.5-8.9-20.9-15.8-37c-31.8,75.8-61.7,147-92.1,219.5h-135.2c-62.7-156.2-125.8-313.4-189.9-473.3c10.4-1,17.1-2.1,23.8-2.1
	c39.8-0.1,79.6,1,119.4-0.4c18.1-0.6,27,5.6,33.5,22.2c25.2,64.2,51.6,128,77.7,191.8c2.5,6.2,6.1,11.9,11.1,21.6
	C2960.1,1651.8,2991.1,1575,3022.2,1497.7L3022.2,1497.7z"/>
<path class="st0" d="M1158.6,1974.9c-23.6,0-41.1,0-58.5,0c-33.6,0-67.2-0.9-100.8,0.3c-18.7,0.7-30.8-4.3-40.9-21.4
	c-18.8-32-40.6-62.2-61.2-93.1c-9.9-14.8-25.2-21.1-45.9-19v131c-55.5,4.3-107.9,1.8-159.6,1.8c-6.4-21.1-7.9-442.7-2.1-475.4
	c5.2-0.9,11-2.7,16.8-2.7c83.1-0.1,166.3-1.3,249.3,0.5c68.4,1.4,120.4,34.1,151.4,95.1c29.5,58.3,24.7,117-10.9,171.5
	c-12.3,18.9-30.4,34-47,52.1C1083.4,1865.5,1118.9,1917.1,1158.6,1974.9L1158.6,1974.9z M851.6,1721.8c25.8,0,50.5,2.3,74.5-0.7
	c23.6-2.9,35.9-19.9,36.9-41.9c0.9-20.7-10.3-38.9-30.7-44.3c-26.5-7-53.5-5.2-80.6-1.9v88.7L851.6,1721.8z"/>
<path class="st0" d="M1752,1970.6v-471.5c8-1,14.7-2.6,21.4-2.6c72.5-0.1,145-0.6,217.5,0.2c100.7,1.1,186.2,66.5,213.2,164.3
	c26.3,95.2,8.7,180.6-62.3,252c-35.7,35.9-79.8,57.8-129.7,59.7c-83.9,3.1-167.9,1.2-251.9,1.3C1758.6,1974,1757,1972.8,1752,1970.6
	L1752,1970.6z M1912,1640.7c-0.2,64.1-1.7,127.7,0.9,190.8c23.5,0,43.9,2,63.7-0.4c44.3-5.2,81.9-48.1,81.5-93.8
	c-0.5-48.8-29.1-85.5-72.4-95.7C1963.4,1636.4,1938.9,1640.7,1912,1640.7L1912,1640.7z"/>
<path class="st0" d="M1190.2,1498h163.5c0,12,0,22.3,0,32.6c0,70.8-0.4,141.7,0.2,212.5c0.1,15.7,1.2,32.2,6.1,47
	c11.9,35.9,39,51.2,78.8,47.5c33.4-3.1,57.6-26.4,62.9-61.6c1.8-12.2,1.8-24.7,1.8-37.1c0.2-69.1,0-138.2,0-207.2
	c0-10.4,0-20.9,0-33.3h163.7c1.2,5.5,3,9.7,3,13.9c-0.6,88.5,1.3,177.2-2.7,265.5c-4.8,105.2-91.5,188.7-198.3,203.1
	c-67.5,9.1-130.4-2-186.7-41.8c-58.4-41.3-92.2-97.8-93.9-169.9c-2-85-0.9-170-1-255c0-4.3,1.3-8.6,2.5-16.3L1190.2,1498z"/>
<path class="st0" d="M2587.7,1972.5c-35.6-88.6-71.1-176.8-108.8-270.5c-19.1,46.7-35.7,87.3-52.3,128
	c-17.4,42.6-34.9,85.1-52.2,127.7c-3.4,8.3-5.7,16.9-17.3,16.9c-52-0.1-104.1,0-156.3,0c1.6-20.2,170.4-438,192.8-478.1
	c26.5,0,54.7,0,82.8,0c23.9,0,47.8,0.7,71.6-0.2c13.7-0.5,20.7,5,25.7,17.4c31.8,80.6,64.2,161,96.4,241.5
	c27.2,68.2,54.3,136.4,81.4,204.6c1.2,3.1,2,6.5,3,9.7c-19.5,6.2-119.9,8.1-166.9,3H2587.7z"/>
<path class="st0" d="M622.2,2600.9c-46.2-19-88.3-36.2-134.2-55.1c33.2-58.8,64.4-113.8,96.3-170.2c-10.4-7-19.6-13.3-30.8-20.9
	c27-44.4,53.3-87.9,80.2-132.2c29,12.8,55.5,24.4,84.4,37.2c-31.5,112.1-62.9,223.9-95.8,341.3L622.2,2600.9z"/>
<path class="st0" d="M314.8,2430.7c-34.7-34.3-67.6-66.9-102.9-101.8c53.8-42,104.2-81.4,155.3-121.4c-7.3-10-13.4-18.5-21.5-29.7
	c41.5-30.6,82.8-61.2,125.4-92.6c21.6,22.7,42.1,44.2,63.6,66.8C462.2,2243.9,389.8,2335.5,314.8,2430.7L314.8,2430.7z"/>
<path class="st0" d="M813.6,2439.4c7.8-51.7,15.2-100.5,22.8-150.4h93c14.4,116.6,28.6,231.8,43.1,349.8H829.3
	c2-65.1,16.1-127.2,19.7-192.7c-11.4-2.2-22.1-4.2-35.5-6.7L813.6,2439.4z"/>
<path class="st0" d="M96.5,2156.9c-18.9-45-36.2-86.3-55-130.9c63.7-22.3,126.8-34.3,188.6-55c-1.9-11.1-3.7-21.3-6.1-35.4
	c49.6-12.4,98.8-24.6,150-37.4c11.4,28.9,21.9,55.8,33.4,84.9C305.3,2040.2,203.2,2097.3,96.5,2156.9z"/>
<path class="st0" d="M3.4,1679.3c66.3,7.7,128.3,15,192.5,22.5c2.7-10.7,5.1-20.6,8.4-33.8c50.1,3.2,99.7,12.5,151,21.3v90.2
	c-116.6,14-232.6,27.9-351.6,42.2C-1.3,1773.9-0.9,1728.7,3.4,1679.3L3.4,1679.3z"/>
<path class="st0" d="M435.6,1226.6c10.3-7.3,18.8-13.3,30-21.3c30.9,41.6,61.6,82.8,92.7,124.7c-23.1,21.8-44.7,42.2-66,62.3
	c-92.9-72.3-184.7-143.8-278.5-216.9c29.8-37.3,63.6-68.7,100.6-101.5c41,51.6,80.7,101.7,121.2,152.6L435.6,1226.6z"/>
<path class="st0" d="M41.5,1476.8c18.5-44.6,36-86.5,54.8-131.8c59.7,33.1,115.6,64,172.5,95.5c6.7-10.4,12.3-19,19.8-30.6
	c44.4,26.4,88,52.3,133.6,79.3c-12.4,27.9-24.2,54.3-36.8,82.6C272.6,1540.6,160,1509.5,41.5,1476.8z"/>
<path class="st0" d="M671.1,1090.8c12.7-2.3,22.9-4.1,36.1-6.5c12.6,49.8,24.8,98.3,37.6,149.1c-28.9,11.3-56.4,22.1-84.7,33.1
	c-57.4-101.4-114.3-201.8-172.6-304.7c40.1-27,84.3-40.4,130.1-57.4c18.3,63.8,35.9,125.2,53.4,186.4L671.1,1090.8z"/>
<path class="st0" d="M963.9,864.9c-7.8,64.4-15.3,126.2-23,190.4c11.7,2.6,22.4,5,35.9,8c-7.3,50.2-14.6,99.5-22,150h-91.7
	C849,1097.1,835,982.6,820.6,864.5c47.5-3.6,93.4-5.1,143.3,0.5V864.9z"/>
<path class="st0" d="M1238.4,2169.9c23.4-22.2,44.5-42.2,68.2-64.7c39.8,32.1,79.9,64.3,122,98.3c-30.1,33.7-60,64-96.6,91.3
	C1300.4,2252.6,1269.9,2212,1238.4,2169.9L1238.4,2169.9z"/>
<path class="st0" d="M1050.7,2268.1c30.3-11.8,57.2-22.3,86.4-33.7c24.8,45.3,49.2,89.8,74.3,135.8c-38.6,22.9-78.3,36-122.2,48.7
	C1073.5,2368.9,1061.5,2319.8,1050.7,2268.1L1050.7,2268.1z"/>
<path class="st0" d="M1566,1448.7c-28.9,0-57.9,0.7-86.8-0.5c-6.8-0.3-14.3-6.1-19.7-11.3c-10-9.7-18.7-20.8-26.3-29.4
	c-6.6,2-9,1.9-9.7,3c-23.9,33.4-56.3,44.6-96.2,38.7c-11.9-1.8-24.3-0.3-39.1-5.2c16.4-16.5,32.5-33.2,49.2-49.5
	c22.1-21.6,49-32.3,80.5-32.2c22.8,0.1,48.1-4.6,67.8,3.6c19.7,8.2,33.8,29.9,50.5,45.5c10.8,10.1,21.8,20,32.7,29.9
	C1567.9,1443.8,1566.9,1446.2,1566,1448.7L1566,1448.7z"/>
</svg>
