<?xml version="1.0" encoding="utf-8"?>
<!-- Generator: Adobe Illustrator 27.7.0, SVG Export Plug-In . SVG Version: 6.00 Build 0)  -->
<svg version="1.1" id="Layer_1" xmlns="http://www.w3.org/2000/svg" xmlns:xlink="http://www.w3.org/1999/xlink" x="0px" y="0px"
	 viewBox="0 0 3500 3500" style="enable-background:new 0 0 3500 3500;" xml:space="preserve">
<style type="text/css">
	.st0{fill:#DDE4D8;}
	.st1{fill:#FF3F41;}
	.st2{fill:#EAEA00;}
	.st3{fill:#57FF55;}
	.st4{fill:#2390E2;}
	.st5{fill:#FFFFFF;}
	.st6{fill:url(#SVGID_1_);}
	.st7{fill:#232323;}
	.st8{fill:url(#SVGID_00000034073657698541443350000006745618473925274279_);}
	.st9{fill:url(#SVGID_00000172439231807805497220000015463812369031093390_);}
	.st10{fill:url(#SVGID_00000168809537236572160070000013149097101093152660_);}
	.st11{fill:url(#SVGID_00000145763998795795485900000000127879466533650836_);}
	.st12{fill:url(#SVGID_00000018212466758038319160000002871109540983031718_);}
	.st13{fill:url(#SVGID_00000163036572119840264100000010375321907552532912_);}
	.st14{fill:url(#SVGID_00000067924208186922930290000011001161180590137275_);}
	.st15{fill:url(#SVGID_00000144311145967552011280000008347959312818621605_);}
	.st16{fill:url(#SVGID_00000015346700818681153170000017056001975657990332_);}
	.st17{fill:url(#SVGID_00000065038479525049093590000017497494988784184706_);}
	.st18{fill:url(#SVGID_00000014600334620297770320000007926548182173884578_);}
	.st19{fill:url(#SVGID_00000094601847217767788760000012854839814923363223_);}
	.st20{fill:#FC0000;stroke:#FFFFFF;stroke-width:2.8;stroke-miterlimit:10;}
	.st21{fill:#E7C30B;stroke:#FFFFFF;stroke-width:2.8;stroke-miterlimit:10;}
	.st22{fill:#4EFE5B;stroke:#FFFFFF;stroke-width:2.8;stroke-miterlimit:10;}
	.st23{fill:#2692F1;stroke:#FFFFFF;stroke-width:2.8;stroke-miterlimit:10;}
	.st24{fill:#E7C30B;}
</style>
<g>
	<path class="st0" d="M2069,851.5c7.9-53.6,16.1-70.3,57.6-67.7c41.5,2.5,309.8,58.4,314,67.7s21.2,73.6-47.4,78.7
		c-68.6,5.1-90.6-16.9-100.7,24.5c-10.2,41.5-49.1,299.6-49.1,299.6s-2.8,38-27.1,35.5c-33-3.4-55,10.2-50.8-50.8
		c4.2-60.9,26-222.9,27.9-252.2c2.5-38.1,0-45.7-33-61.8S2061.4,903,2069,851.5L2069,851.5z"/>
	<path class="st0" d="M2379.6,1062.2c-3.4-33-5.9-50.8,25.4-47.4s40.6-6.8,45.7,98.2c5.1,105,5.1,77.9,5.9,96.5s19.5,38.1,37.2-5.9
		c17.8-44,50.8-136.3,50.8-136.3s5.1-20.3,35.5-20.3s51.6,9.3,51.6,9.3l-191.3,377.5c0,0-38.1,68.6-42.3-115.1
		c-3.7-160-18.6-256.5-18.6-256.5L2379.6,1062.2z"/>
	<path class="st1" d="M1876.6,1397.1c9.4-358.7,53.6-574.4,101-711.5s94.8-218.4,71.1-303c-13.7-48.8-55.5-89.2-88.5-114.6
		c-21-16.2-51.7-6.7-59.6,18.6c-25.4,81.1-85.3,251.1-99.4,500c-16.6,293.5,2.1,429.8,34.7,578.9c5.4,24.5,39.5,74.5,40.6,31.6
		H1876.6z"/>
	<path class="st2" d="M1510.4,1285.5c0,0-76.1-301.2-62.6-590.7c13.5-289.6,8.4-273,69.4-546.1c60.9-273,267.5-120.8,216.7,64.5
		S1576.5,679.8,1568,931.4c-8.5,251.5-11.8,354.1-11.8,354.1S1537.6,1350,1510.4,1285.5L1510.4,1285.5z"/>
	<path class="st3" d="M1273.4,191.3c18.7-9.4,89.7-50.8,72.8,33.9c-16.9,84.6-84.6,321.6-94.8,531.5s-13.5,492.6-11.8,529.8
		s-16.9,108.3-37.2,8.5s-76-324.4-74.5-533.2c1.1-150.1-10.2-237,23.7-369C1185.5,260.8,1226.1,215.1,1273.4,191.3L1273.4,191.3z"/>
	<path class="st4" d="M863.7,709.3c11.5-66.8,18.6-123.6,67.7-150.7c49.1-27.1,81.3-23.7,52.5,132s-40.6,616.2-22,814.2
		c18.6,198.1,105,633.1,231.9,795.6c127,162.5,327,303,594.2,243.8s336.9-330.1,375.8-490.9c38.9-160.8,66-299.6,135.4-365.6
		s204.8-98.2,198.1-8.5c-6.8,89.7-106.6,416.4-225.1,599.2s-269.2,492.6-768.5,391s-644.9-851.5-663.6-1179.9
		c-18.6-328.4,6.8-682.2,23.7-780.4L863.7,709.3z"/>
	<path class="st5" d="M2103.7,851.5c7.9-53.6,16.1-70.3,57.6-67.7c41.5,2.5,309.8,58.4,314,67.7s21.2,73.6-47.4,78.7
		c-68.6,5.1-90.6-16.9-100.7,24.5c-10.2,41.5-49.1,299.6-49.1,299.6s-2.8,38-27.1,35.5c-33-3.4-55,10.2-50.8-50.8
		c4.2-60.9,26-222.9,27.9-252.2c2.5-38.1,0-45.7-33-61.8S2096.1,903,2103.7,851.5L2103.7,851.5z"/>
	<path class="st5" d="M2414.3,1062.2c-3.4-33-5.9-50.8,25.4-47.4c31.3,3.4,40.6-6.8,45.7,98.2s5.1,77.9,5.9,96.5s19.5,38.1,37.2-5.9
		s50.8-136.3,50.8-136.3s5.1-20.3,35.5-20.3s51.6,9.3,51.6,9.3l-191.3,377.5c0,0-38.1,68.6-42.3-115.1
		c-3.7-160-18.6-256.5-18.6-256.5L2414.3,1062.2z"/>
	<g>
		
			<linearGradient id="SVGID_1_" gradientUnits="userSpaceOnUse" x1="1257.6438" y1="-1675.8322" x2="1617.5608" y2="-1675.8322" gradientTransform="matrix(1 0 0 -1 0 0)">
			<stop  offset="0" style="stop-color:#FFFFFF"/>
			<stop  offset="0.2" style="stop-color:#F9F9FB"/>
			<stop  offset="0.4" style="stop-color:#E8E9F0"/>
			<stop  offset="0.7" style="stop-color:#CDCEDE"/>
			<stop  offset="1" style="stop-color:#A7AAC5"/>
			<stop  offset="1" style="stop-color:#A5A8C4"/>
		</linearGradient>
		<path class="st6" d="M1518.8,1920.7c29.3-33.9,83.5-144.5,95.9-228s-13.5-199.7-117.4-246.5c-103.8-46.7-217.8,15.1-235.9,169.7
			c-16.8,143.8,28.2,243.8,28.2,243.8s59.8-1.1,121.9,19.2c62.1,20.3,107.2,41.8,107.2,41.8H1518.8z"/>
		<path class="st7" d="M1520.6,1929.1l-4.7-2.2c-0.4-0.2-45.5-21.5-106.4-41.4c-60.2-19.7-119-18.9-119.6-18.8h-4.5l-1.8-4
			c-1.9-4.2-45.6-103.4-28.8-247.3c9.3-79.7,44.1-140.4,98.1-171c44.7-25.3,97-26.8,147.3-4.2c103,46.3,135.1,160.8,121.3,253.7
			c-12.4,83.2-66.8,196-97.5,231.4L1520.6,1929.1L1520.6,1929.1z M1294.3,1853c15.4,0.2,66.3,2.1,119.4,19.5
			c50.2,16.4,89.9,33.8,103.2,39.9c30.1-38,79.5-142.5,91.1-220.6c13.1-87.8-17-195.9-113.4-239.3c-46.3-20.8-94.2-19.5-135.1,3.6
			c-50.1,28.4-82.5,85.5-91.3,160.7c-14.5,124.2,18.1,216.3,26,236.2L1294.3,1853z"/>
	</g>
	<g>
		
			<linearGradient id="SVGID_00000170990253561047506130000016450796779423347860_" gradientUnits="userSpaceOnUse" x1="1248" y1="-1863.7034" x2="1289.7" y2="-1863.7034" gradientTransform="matrix(1 0 0 -1 0 0)">
			<stop  offset="0" style="stop-color:#FFFFFF"/>
			<stop  offset="0.2" style="stop-color:#F9F9FB"/>
			<stop  offset="0.4" style="stop-color:#E8E9F0"/>
			<stop  offset="0.7" style="stop-color:#CDCEDE"/>
			<stop  offset="1" style="stop-color:#A7AAC5"/>
			<stop  offset="1" style="stop-color:#A5A8C4"/>
		</linearGradient>
		<path style="fill:url(#SVGID_00000170990253561047506130000016450796779423347860_);" d="M1248,1867.7c0,0,26-9,41.8-7.9"/>
		<path class="st7" d="M1250.2,1874.1l-4.5-12.8c1.1-0.4,27.4-9.4,44.5-8.3l-1,13.6C1277.4,1865.7,1257,1871.8,1250.2,1874.1
			L1250.2,1874.1z"/>
	</g>
	<g>
		
			<linearGradient id="SVGID_00000108271168701035277550000014144955768236221573_" gradientUnits="userSpaceOnUse" x1="1518.8" y1="-1930.3" x2="1542.5" y2="-1930.3" gradientTransform="matrix(1 0 0 -1 0 0)">
			<stop  offset="0" style="stop-color:#FFFFFF"/>
			<stop  offset="0.2" style="stop-color:#F9F9FB"/>
			<stop  offset="0.4" style="stop-color:#E8E9F0"/>
			<stop  offset="0.7" style="stop-color:#CDCEDE"/>
			<stop  offset="1" style="stop-color:#A7AAC5"/>
			<stop  offset="1" style="stop-color:#A5A8C4"/>
		</linearGradient>
		<path style="fill:url(#SVGID_00000108271168701035277550000014144955768236221573_);" d="M1542.5,1939.9c0,0-1.6-9.4-23.7-19.2"/>
		<path class="st7" d="M1535.9,1941.6c0,0-2.5-6.9-19.9-14.6l5.5-12.4c24.2,10.7,27.3,22.1,27.6,24.2l-13.4,2.3c0,0,0,0.2,0.1,0.5
			H1535.9z"/>
	</g>
	<path d="M1487.7,1416.2c-51.7-14.4-95.2-0.2-95.6,0l-1.5-4.5c0.4-0.1,45.3-14.9,98.5,0L1487.7,1416.2L1487.7,1416.2z"/>
	<g>
		
			<linearGradient id="SVGID_00000139977579223387693870000004652167069713045142_" gradientUnits="userSpaceOnUse" x1="1757.6791" y1="-1733.077" x2="2131.395" y2="-1733.077" gradientTransform="matrix(1 0 0 -1 0 0)">
			<stop  offset="0" style="stop-color:#FFFFFF"/>
			<stop  offset="0.2" style="stop-color:#F9F9FB"/>
			<stop  offset="0.4" style="stop-color:#E8E9F0"/>
			<stop  offset="0.7" style="stop-color:#CDCEDE"/>
			<stop  offset="1" style="stop-color:#A7AAC5"/>
			<stop  offset="1" style="stop-color:#A5A8C4"/>
		</linearGradient>
		<path style="fill:url(#SVGID_00000139977579223387693870000004652167069713045142_);" d="M2033.4,1956.8
			c54.2-66.6,81.4-100.2,95.9-225.7c18.1-155.7-84.6-233.6-172.7-225.7c-88,7.9-169.3,63.2-193,197.5s31.4,258.4,31.4,258.4
			s78.1-18.1,117.6-15.8S2033.4,1956.8,2033.4,1956.8L2033.4,1956.8z"/>
		<path class="st7" d="M1791.1,1969.2l-2.3-5.1c-2.3-5.1-55.6-127.6-31.8-262.4c28.9-163.7,137.1-197.5,199.1-203.1
			c45.8-4.1,93.5,14.3,127.5,49.2c42.6,43.7,61.2,109,52.5,184.1c-14.8,127.7-42.4,161.6-97.4,229.2l-2.3,2.9l-3.7-0.4
			c-0.8,0-81.5-9-120.4-11.3c-38.1-2.2-114.9,15.5-115.7,15.6L1791.1,1969.2L1791.1,1969.2z M1968.9,1511.7c-3.9,0-7.7,0.2-11.6,0.5
			c-58.1,5.2-159.6,37.1-186.9,191.9c-20.4,115.6,19,224.8,28.8,249.4c18.9-4.1,79.7-16.7,113.9-14.7c34.4,2,101.1,9.1,117.4,10.9
			c51.8-63.7,78-97.4,92.1-219.3c8.2-70.9-9.1-132.3-48.7-173c-28.3-29.1-66.8-45.6-105-45.6L1968.9,1511.7z"/>
	</g>
	<g>
		
			<linearGradient id="SVGID_00000163756982038926671490000007671502624144461189_" gradientUnits="userSpaceOnUse" x1="1925" y1="-1492.6196" x2="2065" y2="-1492.6196" gradientTransform="matrix(1 0 0 -1 0 0)">
			<stop  offset="0" style="stop-color:#FFFFFF"/>
			<stop  offset="0.2" style="stop-color:#F9F9FB"/>
			<stop  offset="0.4" style="stop-color:#E8E9F0"/>
			<stop  offset="0.7" style="stop-color:#CDCEDE"/>
			<stop  offset="1" style="stop-color:#A7AAC5"/>
			<stop  offset="1" style="stop-color:#A5A8C4"/>
		</linearGradient>
		<path style="fill:url(#SVGID_00000163756982038926671490000007671502624144461189_);" d="M1925,1477.2c0,0,48.6-6.8,87,5.6
			c38.4,12.4,53,27.1,53,27.1"/>
		<path class="st7" d="M2060.2,1514.8c-0.1-0.1-14.4-13.8-50.3-25.4c-36.5-11.8-83.5-5.4-83.9-5.4l-1.9-13.5c2-0.3,50.6-6.8,90,5.9
			c39.5,12.8,55.1,28.1,55.8,28.7l-9.6,9.6L2060.2,1514.8z"/>
	</g>
	<g>
		
			<linearGradient id="SVGID_00000085957677006481472350000006194801903928001163_" gradientUnits="userSpaceOnUse" x1="1762.6" y1="-1969.8501" x2="1795.1" y2="-1969.8501" gradientTransform="matrix(1 0 0 -1 0 0)">
			<stop  offset="0" style="stop-color:#FFFFFF"/>
			<stop  offset="0.2" style="stop-color:#F9F9FB"/>
			<stop  offset="0.4" style="stop-color:#E8E9F0"/>
			<stop  offset="0.7" style="stop-color:#CDCEDE"/>
			<stop  offset="1" style="stop-color:#A7AAC5"/>
			<stop  offset="1" style="stop-color:#A5A8C4"/>
		</linearGradient>
		<path style="fill:url(#SVGID_00000085957677006481472350000006194801903928001163_);" d="M1762.6,1978.3c0,0,18.4-12.3,32.5-16.9"
			/>
		<path class="st7" d="M1766.4,1983.9l-7.6-11.3c0.8-0.5,19.3-12.9,34.1-17.7l4.2,12.9c-13.1,4.3-30.6,16-30.8,16.1H1766.4z"/>
	</g>
	<g>
		
			<linearGradient id="SVGID_00000065763925358999857360000011315630944836121250_" gradientUnits="userSpaceOnUse" x1="2033.3999" y1="-1967.6001" x2="2075.2" y2="-1967.6001" gradientTransform="matrix(1 0 0 -1 0 0)">
			<stop  offset="0" style="stop-color:#FFFFFF"/>
			<stop  offset="0.2" style="stop-color:#F9F9FB"/>
			<stop  offset="0.4" style="stop-color:#E8E9F0"/>
			<stop  offset="0.7" style="stop-color:#CDCEDE"/>
			<stop  offset="1" style="stop-color:#A7AAC5"/>
			<stop  offset="1" style="stop-color:#A5A8C4"/>
		</linearGradient>
		<path style="fill:url(#SVGID_00000065763925358999857360000011315630944836121250_);" d="M2075.2,1978.3c0,0-17.8-17.8-41.8-21.4"
			/>
		<path class="st7" d="M2070.4,1983.1c-0.2-0.2-16.6-16.3-38-19.5l2.1-13.4c25.9,4,44.7,22.6,45.5,23.4L2070.4,1983.1l4.8-4.7
			L2070.4,1983.1L2070.4,1983.1z"/>
	</g>
	<g>
		
			<linearGradient id="SVGID_00000106845895154728976180000017329942271372763289_" gradientUnits="userSpaceOnUse" x1="1663.2808" y1="-2324.8" x2="1663.2808" y2="-2004.3" gradientTransform="matrix(1 0 0 -1 0 0)">
			<stop  offset="0" style="stop-color:#660000"/>
			<stop  offset="0.1" style="stop-color:#6B0000"/>
			<stop  offset="0.3" style="stop-color:#7C0000"/>
			<stop  offset="0.5" style="stop-color:#970000"/>
			<stop  offset="0.7" style="stop-color:#BA0000"/>
		</linearGradient>
		<path style="fill:url(#SVGID_00000106845895154728976180000017329942271372763289_);" d="M1795.1,2297.7
			c-9.4,9.2-20.6,18.5-33.1,27.1c-18.3-38.1-72.3-89.6-130.3-100.4c-57.6-10.7-111,16.5-151.4,45.2c-45.3-57.1-81.4-142-74.3-265.3
			c0,0,115.1,141.1,233.6,146.7c118.5,5.7,228-33.9,271.9-81.2c44-47.4-69.3,181.7-116.5,228L1795.1,2297.7z"/>
		<path d="M1759.2,2334.9l-3.4-7.2c-18.6-38.7-71.8-86.7-125.4-96.7c-44.9-8.4-92.7,6-146.2,44.1l-5.3,3.7l-4-5
			c-56.5-71.2-82-162-75.8-269.9l1-17.4l11,13.5c1.1,1.4,114.6,138.8,228.7,144.2c121.5,5.8,226.1-35.4,266.6-79.1
			c5.5-5.9,10.2-9.6,15.3-8.4c2.9,0.7,5.2,3,6,6c6.2,22.7-89.5,201.9-128,239.7l0,0c-9.9,9.8-21.4,19.2-34.1,27.9l-6.5,4.5
			L1759.2,2334.9z M1605.3,2215.1c9.3,0,18.5,0.9,27.6,2.5c54.5,10.1,108.7,56.8,131.4,97.1c9.5-7,18.2-14.3,26-21.9l0,0
			c35.8-35.2,103.7-167.6,120.5-212.8c-46.1,43.8-151.1,83.4-271.6,77.7c-99.8-4.7-195-100.4-227.2-136.1
			c-2.5,94.6,20.9,174.8,69.7,238.7C1525.7,2230,1566.5,2215.1,1605.3,2215.1L1605.3,2215.1z"/>
	</g>
	<g>
		
			<linearGradient id="SVGID_00000160910112151529176410000004490340043326795403_" gradientUnits="userSpaceOnUse" x1="1621.1499" y1="-2368.5012" x2="1621.1499" y2="-2221.9871" gradientTransform="matrix(1 0 0 -1 0 0)">
			<stop  offset="0" style="stop-color:#996273"/>
			<stop  offset="0.1" style="stop-color:#9E6575"/>
			<stop  offset="0.3" style="stop-color:#AF6D7B"/>
			<stop  offset="0.5" style="stop-color:#CA7B85"/>
			<stop  offset="0.7" style="stop-color:#E88B90"/>
		</linearGradient>
		<path style="fill:url(#SVGID_00000160910112151529176410000004490340043326795403_);" d="M1761.9,2324.8
			c-50.7,35.1-122.7,60.3-178.8,30.5c-29.9-15.9-68.9-43-102.8-85.7c40.4-28.7,93.8-56,151.4-45.2
			C1689.7,2235.2,1743.7,2286.8,1761.9,2324.8L1761.9,2324.8z"/>
		<path d="M1639,2375.5c-19.7,0-39.8-4-59-14.3c-28-14.9-69-42.2-105-87.4l-4.5-5.6l5.8-4.2c56.6-40.3,107.8-55.5,156.6-46.4
			c57.8,10.7,115.1,62.4,135.1,104.2l2.5,5.2l-4.8,3.3c-18.4,12.7-70.8,45.1-126.8,45.1L1639,2375.5z M1490.2,2270.9
			c33.4,40.1,70.4,64.6,96.1,78.3c51.6,27.5,119,4.8,166.8-26.7c-20.6-37.7-71.5-82-122.7-91.5
			C1587.2,2222.9,1541.2,2236,1490.2,2270.9L1490.2,2270.9z"/>
	</g>
	<g>
		
			<linearGradient id="SVGID_00000096058617759683576410000000319886885584599965_" gradientUnits="userSpaceOnUse" x1="1375.5" y1="-2003.65" x2="1428.5" y2="-2003.65" gradientTransform="matrix(1 0 0 -1 0 0)">
			<stop  offset="0" style="stop-color:#FFFFFF"/>
			<stop  offset="0.2" style="stop-color:#F9F9FB"/>
			<stop  offset="0.4" style="stop-color:#E8E9F0"/>
			<stop  offset="0.7" style="stop-color:#CDCEDE"/>
			<stop  offset="1" style="stop-color:#A7AAC5"/>
			<stop  offset="1" style="stop-color:#A5A8C4"/>
		</linearGradient>
		<path style="fill:url(#SVGID_00000096058617759683576410000000319886885584599965_);" d="M1375.5,2020c0,0,27.1-26,53-32.7"/>
		<path class="st7" d="M1380.2,2025l-9.4-9.8c1.2-1.1,28.7-27.3,56-34.4l3.4,13.2C1406.3,2000.2,1380.4,2024.8,1380.2,2025
			L1380.2,2025z"/>
	</g>
	<g>
		
			<linearGradient id="SVGID_00000045580978203512302590000005331233347377660818_" gradientUnits="userSpaceOnUse" x1="1887.8" y1="-2055.6001" x2="1933" y2="-2055.6001" gradientTransform="matrix(1 0 0 -1 0 0)">
			<stop  offset="0" style="stop-color:#FFFFFF"/>
			<stop  offset="0.2" style="stop-color:#F9F9FB"/>
			<stop  offset="0.4" style="stop-color:#E8E9F0"/>
			<stop  offset="0.7" style="stop-color:#CDCEDE"/>
			<stop  offset="1" style="stop-color:#A7AAC5"/>
			<stop  offset="1" style="stop-color:#A5A8C4"/>
		</linearGradient>
		<path style="fill:url(#SVGID_00000045580978203512302590000005331233347377660818_);" d="M1887.8,2034.7c0,0,31.6,9,45.1,41.8"/>
		<path class="st7" d="M1926.7,2079.1c-12.1-29.1-40.5-37.7-40.7-37.8l3.8-13.1c1.4,0.4,34.9,10.3,49.6,45.7l-12.6,5.2H1926.7z"/>
	</g>
	
		<linearGradient id="SVGID_00000048464380147167426410000000358955962640054968_" gradientUnits="userSpaceOnUse" x1="1378.205" y1="-1585.9211" x2="1513.8304" y2="-1820.7921" gradientTransform="matrix(1 0 0 -1 2.4504 0.3476)">
		<stop  offset="0" style="stop-color:#0095C6"/>
		<stop  offset="0.2" style="stop-color:#008FC0"/>
		<stop  offset="0.4" style="stop-color:#0080AF"/>
		<stop  offset="0.7" style="stop-color:#006694"/>
		<stop  offset="1" style="stop-color:#004873"/>
	</linearGradient>
	<path style="fill:url(#SVGID_00000048464380147167426410000000358955962640054968_);" d="M1353.9,1696.1
		c7-83.3,55.1-147.2,107.4-142.8c52.3,4.4,89.1,75.5,82.1,158.7s-55.1,147.2-107.4,142.8C1383.7,1850.4,1346.9,1779.3,1353.9,1696.1
		z"/>
	
		<linearGradient id="SVGID_00000016056104470019997870000002715257287401804954_" gradientUnits="userSpaceOnUse" x1="1851.9662" y1="-1640.6005" x2="1987.5321" y2="-1875.5413" gradientTransform="matrix(1 0 0 -1 2.8496 -6.624730e-02)">
		<stop  offset="0" style="stop-color:#0095C6"/>
		<stop  offset="0.2" style="stop-color:#008FC0"/>
		<stop  offset="0.4" style="stop-color:#0080AF"/>
		<stop  offset="0.7" style="stop-color:#006694"/>
		<stop  offset="1" style="stop-color:#004873"/>
	</linearGradient>
	<path style="fill:url(#SVGID_00000016056104470019997870000002715257287401804954_);" d="M1828.2,1750.6
		c7-83.3,55.1-147.2,107.4-142.8c52.3,4.4,89.1,75.5,82.1,158.7c-7,83.3-55.1,147.2-107.4,142.8
		C1857.9,1904.9,1821.2,1833.9,1828.2,1750.6z"/>
	
		<ellipse transform="matrix(8.367790e-02 -0.9965 0.9965 8.367790e-02 1.6059 3533.7195)" cx="1922.2" cy="1766" rx="80.8" ry="50.8"/>
	
		<ellipse transform="matrix(8.367790e-02 -0.9965 0.9965 8.367790e-02 -365.5382 3010.396)" cx="1454.1" cy="1704" rx="80.8" ry="50.8"/>
	
		<ellipse transform="matrix(0.3827 -0.9239 0.9239 0.3827 -570.1639 2368.1511)" class="st5" cx="1487" cy="1610.7" rx="45.7" ry="28.7"/>
	
		<ellipse transform="matrix(0.9992 -4.013179e-02 4.013179e-02 0.9992 -65.2841 77.7088)" class="st5" cx="1902.9" cy="1664.9" rx="28.7" ry="45.7"/>
	<path class="st5" d="M1985.2,471.4c-13.5,86.3-95.6,260.7-107.5,374.1c-11.8,113.4,0,191.2,0,191.2s2.5-159.1,33-247.1
		s82.1-222.6,80.4-253.9S1985.2,471.4,1985.2,471.4L1985.2,471.4z"/>
	<path class="st5" d="M1841.3,694.9c0,0,59.2-324.2,71.1-361.4c11.8-37.2-7.6,121.9-27.1,203.1
		C1865.8,617.9,1841.3,694.9,1841.3,694.9z"/>
	<path class="st5" d="M1677.9,182.8c-16.9,102.7-53,232.5-75.6,346.5s-36.1,160.2-36.1,232.5s26-188.5,82.4-365.6
		C1705,219,1677.9,182.9,1677.9,182.8L1677.9,182.8z"/>
	<circle class="st5" cx="1689.2" cy="116.2" r="20.3"/>
	<ellipse class="st5" cx="1295.4" cy="272" rx="15.2" ry="23.5"/>
	<ellipse class="st5" cx="956.8" cy="597.9" rx="12.4" ry="26.5"/>
	<ellipse class="st5" cx="2008.9" cy="417.6" rx="17.8" ry="30.5"/>
	<path class="st5" d="M1529,230.2c0,4.5-48.5,195.2-36.1,442.4c12.4,247.1,14.9-94.4,17-161.2S1529,230.2,1529,230.2L1529,230.2z"/>
	<path class="st5" d="M1267.2,339.7c0-65.7-14.7,44-29.4,220.1c-14.6,176-9,191.8-11.3,274.2s7.9-172,20.3-209.6
		C1259.2,586.8,1267.1,384.8,1267.2,339.7L1267.2,339.7z"/>
	<path class="st5" d="M1192.7,344.2c-11.3,27.1-28.2,97.1-26,194.1c2.3,97.1,7.9,165.9,12.4,190.7s-12.6-201.4,0.5-257.6
		C1192.7,415.3,1192.7,344.2,1192.7,344.2L1192.7,344.2z"/>
	<path class="st5" d="M944.4,800.1c0,0-33.9,149-32.7,335.2S928,1346,928,1346s4-307.8,8.5-389S944.4,800.1,944.4,800.1z"/>
	<path class="st5" d="M2175.6,2111.5c30.5-90.3,24.8-115.1,46.3-190.7c21.4-75.6,38.4-179.4,95.9-216.7c57.6-37.2,75.6-27.1,35,23.7
		c-40.6,50.8-59.8,49.7-95.9,151.2c-36.1,101.6-22.4,99.3-48.5,155.7s-32.7,76.7-32.7,76.7L2175.6,2111.5z"/>
	<path class="st5" d="M2397.9,1910.6c-38.4,120.8-57.6,212.2-153.5,354.4s-161.4,212.2-169.3,216.7s169.3-142.2,231.3-277.6
		c62.1-135.4,91.4-293.4,91.4-293.4L2397.9,1910.6z"/>
	
		<ellipse transform="matrix(0.2334 -0.9724 0.9724 0.2334 188.9309 3703.1042)" class="st5" cx="2443.1" cy="1731.7" rx="37" ry="16.9"/>
</g>
<path class="st20" d="M908.6,2900.1c4.2-17.3,13.8-37.7,27.8-50.7c30-28.9,79.9-23,101.8,9.8c23.6,35.7,22.1,83,23.1,124.5
	c-1.1,48.5,5.4,21.1,30.7-15.2c16.7-25.3,39.5-59.7,57.9-87.4c17.4-26.1,32.1-50.5,55.4-55.8c51.5-14.5,110.8,24.9,113.5,79.3
	c4.4,42.4-39,88.6-69.9,125c-18.8,21.8-37.1,42.5-54.4,62.1c-14.8,17-25.3,27.9-27.8,37c-3.2,13.9,8.7,25.4,16,36.6
	c29.1,39.2,82.2,110.2,117.3,157.3c15.9,21.8,25,33,29.3,52.7c4.5,22.9-1.3,48.2-14.7,67.5c-27.8,40-83.8,36.3-117.1,5
	c-43.3-38.6-85.4-115.3-115.7-154.8c-20.8-30.8-18.8-10.2-18.8,20c0.5,29,1.3,59.4,1.8,88.4c0.3,27.8,1,44.9-8.2,60.4
	c-12.1,22-47.2,38.9-75.3,38.2c-44.5,0.9-79-23.4-84.9-66c-4.1-23.5-3-47.4-2.7-71.4c5.3-136,3.3-355.9,14.5-461.8l0.2-0.6
	L908.6,2900.1z"/>
<path class="st21" d="M1385.1,3106.6c-10.2,37.3-7.9,88.5-9.5,131.9c0.2,72.4-4.3,137.7,4,192c5.7,26.1,29.9,50.7,57,60.6
	c51.8,20.2,97.5-15.7,102.9-67.8c7.1-80.4,2.3-191.1,1.9-275.9c-0.5-31.9-1.2-68.2-27-90.1c-47.4-41.5-115.2-10.3-129.2,48.3l-0.3,1
	H1385.1z"/>
<path class="st22" d="M2061.4,2976.1c-1.1-29.5-1.2-63.5-2.9-88.8c-1.6-19.9-6-40.5-19.3-56c-30.7-36-95.8-27.1-124.5,6.4
	c-16.4,19-20.7,45.5-23.3,69.6c-1.7,19.8-5.7,41.3-18.6,51.2l-0.5,0.4c-11.8,10-31.1,12.6-53.6,16.6c-28,4.9-55.8,11.8-82.2,22.4
	c-130.8,48.2-164.8,195.5-130.6,315.6c16.6,52.1,52.1,99.5,98.1,129.7c46.8,30.4,98.8,33.2,160.9,35.4c48.5,1.5,113.9,2,156.2-9.6
	c36.4-9.3,42.7-27.5,44.1-72c0.9-17.7,1.4-34.8,1.7-53.1c1.7-112-2.6-259.9-5.4-368L2061.4,2976.1z M1879.8,3253.8
	c-0.1,29.6,0.1,47.5-11.7,55.7c-25,13.8-63.3,5.8-83.3-14.3c-38-40.6-31.9-124,16.6-157.4c16.8-12.4,54.4-29.5,70.1-17.4l0.4,0.3
	c7.6,6.8,7.9,23.3,8,48.6C1879.9,3195.1,1879.9,3226.7,1879.8,3253.8L1879.8,3253.8z"/>
<path class="st23" d="M2468.3,3038c-4.8-48.9-42.6-94.3-85-113.3c-32.4-14.8-67.5-19.1-104.2-16.7c-70.5,4.2-154.4,38.1-172.8,111.5
	c-24.5,80,44.8,130.5,104,177.3c44.6,36,89.7,67.6,84.5,124.3c-5,23.3-25.6,28.7-49.6,23c-43.2-9.5-108.1-60-146-17
	c-11.7,16.5-12.6,36.1-4.7,59.5c27.3,75.1,129.3,123.9,208,109.9c91.2-11.9,153-107.1,146.4-196.2c-4.2-68.4-52.5-120.1-106.6-156.9
	c-16.8-12.1-35.7-24.8-51.2-38.4c-29.5-24.1-39.2-55.4,2.5-56.7c44.9-2.1,84.7,43,120.9,51.7c36.1,9.3,58.3-28.3,54-60.9v-1
	L2468.3,3038z"/>
<circle class="st24" cx="1480.3" cy="2907.4" r="68.9"/>
</svg>
