<?xml version="1.0" encoding="UTF-8"?>
<svg id="Layer_1" data-name="Layer 1" xmlns="http://www.w3.org/2000/svg" version="1.1" xmlns:xlink="http://www.w3.org/1999/xlink" viewBox="0 0 3500 3500">
  <defs>
    <style>
      .cls-1 {
        fill: url(#linear-gradient);
      }

      .cls-1, .cls-2, .cls-3, .cls-4 {
        stroke-width: 0px;
      }

      .cls-2 {
        fill: none;
      }

      .cls-5 {
        clip-path: url(#clippath);
      }

      .cls-3 {
        fill: url(#radial-gradient);
      }

      .cls-4 {
        fill: #7f7f7f;
      }
    </style>
    <linearGradient id="linear-gradient" x1="0" y1="1923.8" x2="3500" y2="1923.8" gradientUnits="userSpaceOnUse">
      <stop offset="0" stop-color="#fbb35b"/>
      <stop offset=".4" stop-color="#fa2962"/>
      <stop offset=".7" stop-color="#e8147f"/>
      <stop offset="1" stop-color="#511c95"/>
    </linearGradient>
    <clipPath id="clippath">
      <path class="cls-2" d="M3031.6,2328.9c-20.9-69.1-41.9-138.1-62.9-207.1l-52.2-171.5-17.8,35.8c-.9,1.9-1.8,3.5-2.5,4.9l-.2.3c-1.8,3.4-3.4,6.4-4.6,10.1-35.2,108-70.4,216.1-105.5,324.1l-4.5,13.8h-14.9c-41.3.3-82.6.5-123.9.6h-11s-3.9-10.2-3.9-10.2c-50.1-130.8-100.1-261.5-150.1-392.3-51.6-135.1-103.2-270.3-154.7-405.5l-8.8-23.2,24.8,1.6c27.4,1.8,53.1,2,72.5,2s28.4-.2,42.3-.3c13-.1,27.8-.3,41.9-.3s13.3,0,19.4.1h10.9c0,.1,3.8,10.3,3.8,10.3,17.9,47.4,36.3,95.3,54,141.8l23.3,61,25.6,67.1c14.5,38.1,29,76.1,43.6,114.2,1.2,3.1,2.6,5.9,3.9,8.4.5,1.1,1,1.9,1.4,2.8l4.4,9.1,24.6-.3,37.8-107.1,24.1-68.4c26.1-74,53.1-150.5,79.5-226.2l3.8-10.8h11.4c14.9.3,29.4.3,43.2.3s29.9,0,44.1-.3h11.5c0-.1,3.8,10.7,3.8,10.7,35.3,101.6,71.4,204.6,106.3,304.2l20.5,58.6c3.2,9.3,6.7,18.4,13.7,28.1l17.4,24.3,10.5-28,5.3-14.2c3.9-10.2,7.7-20.5,11.5-30.7l130.1-352.9h11.1c30.2,0,60.4,0,90.6,0s60.3,0,90.4,0h23s-20,52.9-20,52.9c-12.5,32.9-25.4,67-37.8,100.6-53.5,145.8-107.7,294.1-160.2,437.6l-48.9,133.7c-5.9,16.1-11.7,32.3-17.6,48.4-5.1,14.2-10.2,28.3-15.4,42.3l-3.8,10.5h-13.3c-12.7,0-25.4,0-38.1,0-12.7,0-25.5,0-38.2,0-23.4,0-42.4.1-59.7.3l-12,.2-3.5-11.5ZM4.3,2320.1c1.5-6.9,2.8-13.8,4-20.5v-.4c1-5,1.9-9.9,3-14.9,5.1-24.7,13.7-45.9,26.5-64.8,15.9-23.6,37.1-39,64.9-47.3,33-9.8,66.8-10.6,99.5-11.4l7.7-.2h.6c13.4.8,26.3,1.6,39.1,2.4,31.1,1.9,60.4,3.8,90,4.5,2.4,0,4.7,0,7.1,0,17.9,0,37.1-1.6,60.4-5.1,24-3.6,40.5-18.5,45.3-40.8,5.2-24.2-4.3-45.8-25.4-57.7-22.7-12.8-45.1-25-68.7-32.8-33.9-11.1-68.5-21.3-101.9-31.2-23.1-6.8-46.9-13.8-70-21-39.9-12.4-81.7-26.7-115.9-53-10.9-8.4-19.7-17.5-25.4-26.3-29-45-42.1-89.9-40-137.1,2.2-48.9,18.8-94.7,49.5-136.4,43.1-58.4,94.1-92.4,156-103.9,34-6.3,70.3-7.5,104.5-7.9,41.5-.4,87.2-.6,143.7-.6s56.1,0,84.1,0h.8c22.8,0,45.6,0,68.4,0h16.5s-.6,16.5-.6,16.5c-1.1,30.5-8,57.5-21.2,82.5-20,38.2-50.3,59-90,61.9-29.1,2.1-58.9,3.2-87.7,4.3-19.2.7-39.1,1.4-58.6,2.5-31.4,1.6-63.3,4-94.9,7-10.1,1-21.2,4.1-33,9.2-18.8,8.2-31.3,24.1-33.2,42.3-1.9,17.6,6.5,35,22.4,46.4,15.8,11.4,34.2,20.1,53.3,25.3,29.1,7.9,58.8,14.7,87.6,21.3,13.8,3.1,27.6,6.3,41.3,9.6,46.2,11,95.1,24.7,139.4,50.3,63.1,36.4,97.1,88.5,104,159.2,6.2,64-9.3,123.8-44.7,173.1-33.5,46.5-83.3,80.5-140.3,95.7-19.1,5.1-40.6,8.1-64,8.8-45.5,1.4-91.9,2.1-136.7,2.9h-.9c-29.6.5-63.1,1-95.6,1.8-31.8.7-64,1.8-95.2,2.9l-.9-15.9.5,15.9c-19.4.7-39.4,1.3-59.2,1.9l-20.4.6,4.3-19.9ZM1927.2,2332.4c-110-.5-212.7-43.3-289.3-120.8-76.8-77.7-118.7-180.5-118-289.4,1.5-224.1,184.7-406.4,408.4-406.4h1.5c107.6.6,209.2,42.6,286.1,118.3,78.3,77,121.3,180.2,121,290.7-.3,110.5-43.2,213.5-120.7,290.1-76.8,75.8-178.8,117.5-287.3,117.5h-1.8ZM1929.1,1708.1c-25,0-49.8,4.6-73.5,13.8-91.4,35.3-135.8,127.7-132.5,200.7v.7c0,39.6,6,65.9,22.8,100.7,34.8,71.7,105.5,116.3,184.6,116.3s106.2-22.1,143.8-62.3c68.5-73.2,79.8-188.1,26.9-273.2-37.6-60.5-102-96.7-172.1-96.7ZM772.9,2330.7c-6.3,0-13-.2-19.7-.6l-15-.9v-15c0-50.8,0-101.5,0-152.3v-4.2c-.1-169.7-.2-345.1.4-517.6.2-46.3,21.6-81.2,63.6-103.5,30.5-16.2,65.2-23.8,108.9-23.8s11,.1,16.7.3l15.2.6,2.3,284.7c.2,27,7.2,34,33.8,34.1,39,0,77.9,0,116.9,0s69,0,103.5,0c4.1,0,8.1-.3,12-.5h.5c1.7-.1,3.5-.3,5.4-.4l14.1-.7.9-14.1c.1-1.7.2-3.3.4-4.8.3-4.1.7-7.7.6-11.6l-.3-25.3c-.5-40-1-81.1-1.8-121.6-1.3-65.6,32.2-112.1,94.4-130.9,16.5-5,33.8-7.9,48.7-10.1,13.4-2,29.3-4.1,45.6-4.6l16.4-.5-.5,142c-.7,181.9-1.4,363.8-2.1,545.7-.3,63.7-35.5,107.1-99.2,122.2-25.6,6.1-53.2,7.8-81.5,9.1l-16.5.8-2.4-268.3c-.3-28-7.3-35-35.8-35.5-75.1-1.4-150.1-2.8-225.2-4.1h-.8c-2.9,0-5.6.4-8.2.7h-.3c-1,.2-2.1.3-3.3.5l-13.3,1.4-.9,13.3c-.1,1.8-.3,3.5-.4,5.2-.3,4-.6,7.9-.7,11.8-.5,16.9-.9,33.8-1.3,50.6-.8,35.7-1.7,72.6-3.7,108.8-3,52.8-31.5,88.7-84.9,106.7-25.2,8.5-52.1,12.6-82,12.6Z"/>
    </clipPath>
    <radialGradient id="radial-gradient" cx="1726" cy="1259" fx="1726" fy="1259" r="2338.9" gradientTransform="translate(0 876.5) scale(1 .3)" gradientUnits="userSpaceOnUse">
      <stop offset="0" stop-color="#fff" stop-opacity="0"/>
      <stop offset=".3" stop-color="rgba(255, 255, 255, 0)" stop-opacity="0"/>
      <stop offset=".5" stop-color="rgba(255, 255, 255, 0)" stop-opacity="0"/>
      <stop offset=".7" stop-color="rgba(255, 255, 255, 0)" stop-opacity="0"/>
      <stop offset=".8" stop-color="rgba(255, 255, 255, .2)" stop-opacity=".2"/>
      <stop offset=".9" stop-color="rgba(255, 255, 255, .3)" stop-opacity=".3"/>
      <stop offset=".9" stop-color="#fff" stop-opacity=".3"/>
    </radialGradient>
  </defs>
  <g>
    <path class="cls-1" d="M3031.6,2328.9c-20.9-69.1-41.9-138.1-62.9-207.1l-52.2-171.5-17.8,35.8c-.9,1.9-1.8,3.5-2.5,4.9l-.2.3c-1.8,3.4-3.4,6.4-4.6,10.1-35.2,108-70.4,216.1-105.5,324.1l-4.5,13.8h-14.9c-41.3.3-82.6.5-123.9.6h-11s-3.9-10.2-3.9-10.2c-50.1-130.8-100.1-261.5-150.1-392.3-51.6-135.1-103.2-270.3-154.7-405.5l-8.8-23.2,24.8,1.6c27.4,1.8,53.1,2,72.5,2s28.4-.2,42.3-.3c13-.1,27.8-.3,41.9-.3s13.3,0,19.4.1h10.9c0,.1,3.8,10.3,3.8,10.3,17.9,47.4,36.3,95.3,54,141.8l23.3,61,25.6,67.1c14.5,38.1,29,76.1,43.6,114.2,1.2,3.1,2.6,5.9,3.9,8.4.5,1.1,1,1.9,1.4,2.8l4.4,9.1,24.6-.3,37.8-107.1,24.1-68.4c26.1-74,53.1-150.5,79.5-226.2l3.8-10.8h11.4c14.9.3,29.4.3,43.2.3s29.9,0,44.1-.3h11.5c0-.1,3.8,10.7,3.8,10.7,35.3,101.6,71.4,204.6,106.3,304.2l20.5,58.6c3.2,9.3,6.7,18.4,13.7,28.1l17.4,24.3,10.5-28,5.3-14.2c3.9-10.2,7.7-20.5,11.5-30.7l130.1-352.9h11.1c30.2,0,60.4,0,90.6,0s60.3,0,90.4,0h23s-20,52.9-20,52.9c-12.5,32.9-25.4,67-37.8,100.6-53.5,145.8-107.7,294.1-160.2,437.6l-48.9,133.7c-5.9,16.1-11.7,32.3-17.6,48.4-5.1,14.2-10.2,28.3-15.4,42.3l-3.8,10.5h-13.3c-12.7,0-25.4,0-38.1,0-12.7,0-25.5,0-38.2,0-23.4,0-42.4.1-59.7.3l-12,.2-3.5-11.5ZM4.3,2320.1c1.5-6.9,2.8-13.8,4-20.5v-.4c1-5,1.9-9.9,3-14.9,5.1-24.7,13.7-45.9,26.5-64.8,15.9-23.6,37.1-39,64.9-47.3,33-9.8,66.8-10.6,99.5-11.4l7.7-.2h.6c13.4.8,26.3,1.6,39.1,2.4,31.1,1.9,60.4,3.8,90,4.5,2.4,0,4.7,0,7.1,0,17.9,0,37.1-1.6,60.4-5.1,24-3.6,40.5-18.5,45.3-40.8,5.2-24.2-4.3-45.8-25.4-57.7-22.7-12.8-45.1-25-68.7-32.8-33.9-11.1-68.5-21.3-101.9-31.2-23.1-6.8-46.9-13.8-70-21-39.9-12.4-81.7-26.7-115.9-53-10.9-8.4-19.7-17.5-25.4-26.3-29-45-42.1-89.9-40-137.1,2.2-48.9,18.8-94.7,49.5-136.4,43.1-58.4,94.1-92.4,156-103.9,34-6.3,70.3-7.5,104.5-7.9,41.5-.4,87.2-.6,143.7-.6s56.1,0,84.1,0h.8c22.8,0,45.6,0,68.4,0h16.5s-.6,16.5-.6,16.5c-1.1,30.5-8,57.5-21.2,82.5-20,38.2-50.3,59-90,61.9-29.1,2.1-58.9,3.2-87.7,4.3-19.2.7-39.1,1.4-58.6,2.5-31.4,1.6-63.3,4-94.9,7-10.1,1-21.2,4.1-33,9.2-18.8,8.2-31.3,24.1-33.2,42.3-1.9,17.6,6.5,35,22.4,46.4,15.8,11.4,34.2,20.1,53.3,25.3,29.1,7.9,58.8,14.7,87.6,21.3,13.8,3.1,27.6,6.3,41.3,9.6,46.2,11,95.1,24.7,139.4,50.3,63.1,36.4,97.1,88.5,104,159.2,6.2,64-9.3,123.8-44.7,173.1-33.5,46.5-83.3,80.5-140.3,95.7-19.1,5.1-40.6,8.1-64,8.8-45.5,1.4-91.9,2.1-136.7,2.9h-.9c-29.6.5-63.1,1-95.6,1.8-31.8.7-64,1.8-95.2,2.9l-.9-15.9.5,15.9c-19.4.7-39.4,1.3-59.2,1.9l-20.4.6,4.3-19.9ZM1927.2,2332.4c-110-.5-212.7-43.3-289.3-120.8-76.8-77.7-118.7-180.5-118-289.4,1.5-224.1,184.7-406.4,408.4-406.4h1.5c107.6.6,209.2,42.6,286.1,118.3,78.3,77,121.3,180.2,121,290.7-.3,110.5-43.2,213.5-120.7,290.1-76.8,75.8-178.8,117.5-287.3,117.5h-1.8ZM1929.1,1708.1c-25,0-49.8,4.6-73.5,13.8-91.4,35.3-135.8,127.7-132.5,200.7v.7c0,39.6,6,65.9,22.8,100.7,34.8,71.7,105.5,116.3,184.6,116.3s106.2-22.1,143.8-62.3c68.5-73.2,79.8-188.1,26.9-273.2-37.6-60.5-102-96.7-172.1-96.7ZM772.9,2330.7c-6.3,0-13-.2-19.7-.6l-15-.9v-15c0-50.8,0-101.5,0-152.3v-4.2c-.1-169.7-.2-345.1.4-517.6.2-46.3,21.6-81.2,63.6-103.5,30.5-16.2,65.2-23.8,108.9-23.8s11,.1,16.7.3l15.2.6,2.3,284.7c.2,27,7.2,34,33.8,34.1,39,0,77.9,0,116.9,0s69,0,103.5,0c4.1,0,8.1-.3,12-.5h.5c1.7-.1,3.5-.3,5.4-.4l14.1-.7.9-14.1c.1-1.7.2-3.3.4-4.8.3-4.1.7-7.7.6-11.6l-.3-25.3c-.5-40-1-81.1-1.8-121.6-1.3-65.6,32.2-112.1,94.4-130.9,16.5-5,33.8-7.9,48.7-10.1,13.4-2,29.3-4.1,45.6-4.6l16.4-.5-.5,142c-.7,181.9-1.4,363.8-2.1,545.7-.3,63.7-35.5,107.1-99.2,122.2-25.6,6.1-53.2,7.8-81.5,9.1l-16.5.8-2.4-268.3c-.3-28-7.3-35-35.8-35.5-75.1-1.4-150.1-2.8-225.2-4.1h-.8c-2.9,0-5.6.4-8.2.7h-.3c-1,.2-2.1.3-3.3.5l-13.3,1.4-.9,13.3c-.1,1.8-.3,3.5-.4,5.2-.3,4-.6,7.9-.7,11.8-.5,16.9-.9,33.8-1.3,50.6-.8,35.7-1.7,72.6-3.7,108.8-3,52.8-31.5,88.7-84.9,106.7-25.2,8.5-52.1,12.6-82,12.6Z"/>
    <g class="cls-5">
      <ellipse class="cls-3" cx="1726" cy="1259" rx="2352.4" ry="728.7"/>
    </g>
  </g>
  <g>
    <path class="cls-4" d="M20.6,1161.3h64.5v94.4l80.1-94.4h76.5l-88.1,100.1,91.1,132.7h-77.5l-58.5-86.4-23.6,26.3v60.2H20.6v-232.7Z"/>
    <path class="cls-4" d="M654,1398.4c-16.6,0-31.6-2.1-44.9-6.3s-24.6-10.7-33.9-19.5c-9.3-8.8-16.5-19.8-21.4-33.2-5-13.4-7.5-29.2-7.5-47.4v-130.7h65.8v129.3c0,16.8,3.8,29.3,11.5,37.4,7.7,8.1,18,12.1,31,12.1s23.3-3.9,31-11.6c7.7-7.8,11.5-19.8,11.5-36.2v-131h65.8v129c0,18.8-2.6,35.1-7.8,48.7-5.2,13.6-12.5,24.8-21.9,33.6-9.4,8.8-20.8,15.2-34.2,19.5-13.4,4.2-28.4,6.3-45.1,6.3Z"/>
    <path class="cls-4" d="M1087.2,1161.3h110.1c18,0,33.1,2.2,45.5,6.7,12.4,4.4,22.5,10.6,30.3,18.6,13.7,13.3,20.6,31.4,20.6,54.2v.7c0,18-4.3,32.8-13,44.6-8.6,11.8-20.3,20.7-34.9,26.9l55.5,81.1h-74.5l-46.9-70.5h-28.3v70.5h-64.5v-232.7ZM1194.3,1273c11.1,0,19.6-2.5,25.6-7.5,6-5,9-11.7,9-20.1v-.7c0-9.3-3.1-16.2-9.3-20.8-6.2-4.5-14.7-6.8-25.6-6.8h-42.2v55.9h42.6Z"/>
    <path class="cls-4" d="M1612.2,1161.3h89.8c20.8,0,39.4,2.8,55.7,8.5s30,13.6,41.2,23.8c11.2,10.2,19.7,22.3,25.6,36.4,5.9,14.1,8.8,29.5,8.8,46.4v.7c0,16.8-3,32.4-9,46.7-6,14.3-14.6,26.7-25.9,37.1-11.3,10.4-25.2,18.6-41.7,24.4-16.5,5.9-35.2,8.8-56,8.8h-88.4v-232.7ZM1703,1336.9c19.4,0,34.9-5.1,46.7-15.3,11.8-10.2,17.7-24.7,17.7-43.6v-.7c0-18.6-5.9-33.1-17.7-43.4-11.8-10.3-27.4-15.5-46.7-15.5h-26.4v118.4h26.4Z"/>
    <path class="cls-4" d="M2152.5,1161.3h68.2l55.5,90.1,55.5-90.1h68.2v232.7h-64.2v-133.7l-59.3,91.1h-1.3l-59-90.4v133h-63.5v-232.7Z"/>
    <path class="cls-4" d="M2807.4,1159.6h62.2l99.1,234.4h-69.2l-17-41.6h-89.8l-16.6,41.6h-67.8l99.1-234.4ZM2864,1302.6l-25.9-66.2-26.3,66.2h52.2Z"/>
    <path class="cls-4" d="M3340.1,1275.7l-76.5-114.4h74.1l41.2,65.5,41.6-65.5h72.5l-76.5,113.7,79.8,119h-74.1l-44.6-70.2-44.9,70.2h-72.5l79.8-118.4Z"/>
  </g>
</svg>