<?xml version="1.0" encoding="utf-8"?>
<!-- Generator: Adobe Illustrator 27.7.0, SVG Export Plug-In . SVG Version: 6.00 Build 0)  -->
<svg version="1.1" id="Objects" xmlns="http://www.w3.org/2000/svg" xmlns:xlink="http://www.w3.org/1999/xlink" x="0px" y="0px"
	 viewBox="0 0 3500 3500" style="enable-background:new 0 0 3500 3500;" xml:space="preserve">
<style type="text/css">
	.st0{fill:#686868;}
	.st1{fill:#666666;}
	.st2{fill:#808080;}
	.st3{fill:#999999;}
	.st4{fill:#A6A5A6;}
	.st5{fill:#D7D7D7;}
	.st6{fill:#C7C7C7;}
	.st7{fill:#D4D4D4;}
	.st8{fill:#C1C1C1;}
	.st9{fill:#AFAFAF;}
	.st10{fill:#A0A09F;}
	.st11{fill:#909090;}
	.st12{fill:#828282;}
	.st13{fill:#969696;}
	.st14{fill:#515252;}
	.st15{fill:#6D6D6D;}
	.st16{fill:#919191;}
	.st17{fill:#8C8C8B;}
	.st18{fill:#BABABA;}
	.st19{enable-background:new    ;}
	.st20{fill:#5D8F42;}
	.st21{fill:#EDB930;}
</style>
<polygon class="st0" points="1646.4,3385 1413,3385 1413,2662.1 1470.3,2662.1 "/>
<polygon class="st1" points="2176.2,2662.1 2176.2,3385 2114.1,3385 1502.4,2662.1 "/>
<polygon class="st2" points="2176.2,1446 2176.2,2076.3 1446.5,2076.3 1446.5,1827.4 "/>
<polygon class="st3" points="2176.2,1354.1 2176.2,1446 1446.5,1827.4 1446.5,1247.4 "/>
<polygon class="st4" points="2176.2,648.4 2176.2,1354.1 1446.5,1247.4 1446.5,1171.2 1901.4,590.6 "/>
<polygon class="st5" points="1446.5,1171.2 1446.5,1035.4 1093.7,421 1901.4,590.6 "/>
<polygon class="st6" points="2176.2,101.6 2176.2,648.4 1901.4,590.6 1901.7,590.2 1759.9,101.6 "/>
<polygon class="st7" points="1446.5,1035.4 1350.7,1189.9 1080.3,434.5 1089.7,420.1 1093.6,421 1093.7,421 "/>
<polygon class="st8" points="1350.7,1189.9 1276,1310.4 754.4,929.7 1080.3,434.5 "/>
<polygon class="st9" points="1276,1310.4 1234.4,1377.6 697.5,1559.6 583.8,1188.9 754.4,929.7 "/>
<polygon class="st10" points="1234.4,1377.6 837.8,2017.2 697.5,1559.6 "/>
<polygon class="st11" points="697.5,1559.6 287.6,1698.7 261.3,1679.2 583.8,1188.9 "/>
<polygon class="st12" points="837.8,2017.2 801.2,2076.3 287.6,1698.7 697.5,1559.6 "/>
<polygon class="st13" points="801.2,2076.3 0,2076.3 237.2,1715.7 287.6,1698.7 "/>
<polygon class="st14" points="374.3,2344.5 0,2579.8 0,2076.3 "/>
<polygon class="st14" points="796.5,2647 0,2647 0,2579.8 374.3,2344.5 "/>
<polygon class="st15" points="874.2,2076.3 812.3,2647 796.5,2647 374.3,2344.5 801.2,2076.3 "/>
<polygon class="st16" points="1413,2647 812.3,2647 874.2,2076.3 945.7,2076.3 "/>
<polygon class="st17" points="1413,2076.3 1413,2647 945.7,2076.3 "/>
<path class="st18" d="M1901.7,590.2l-0.3,0.4L1093.7,421h-0.1l-2.1-3.7l48-72.9c99.7-151.6,268.9-242.8,450.3-242.8h170.1
	L1901.7,590.2L1901.7,590.2z"/>
<polygon class="st2" points="801.2,2076.3 374.3,2344.5 0,2076.3 "/>
<polygon class="st14" points="2114.1,3385 1646.4,3385 1470.3,2662.1 1502.4,2662.1 "/>
<g class="st19">
	<path class="st20" d="M1542.9,2614.5v-497.9h100.5v221.1l203.1-221.1h135.2l-187.5,193.9l197.6,303.9h-130.1l-136.9-233.6
		l-81.5,83.2v150.4H1542.9z"/>
	<path class="st20" d="M2043.1,2116.7h100.5v269.6c0,42.8,1.2,70.5,3.7,83.2c4.3,20.4,14.5,36.7,30.7,49.1
		c16.2,12.3,38.3,18.5,66.4,18.5c28.5,0,50-5.8,64.5-17.5c14.5-11.7,23.2-26,26.1-43c2.9-17,4.4-45.2,4.4-84.6v-275.4h100.5v261.5
		c0,59.8-2.7,102-8.2,126.7c-5.4,24.7-15.5,45.5-30.1,62.5c-14.6,17-34.1,30.5-58.6,40.6s-56.4,15.1-95.8,15.1
		c-47.5,0-83.6-5.5-108.2-16.5c-24.6-11-44-25.2-58.2-42.8c-14.3-17.5-23.7-35.9-28.2-55.2c-6.6-28.5-9.8-70.6-9.8-126.3V2116.7z"/>
	<path class="st20" d="M2546.4,2614.5v-497.9H2758c53.2,0,91.9,4.5,116,13.4c24.1,8.9,43.4,24.8,57.9,47.7
		c14.5,22.9,21.7,49,21.7,78.4c0,37.4-11,68.2-32.9,92.5c-22,24.3-54.8,39.7-98.5,46c21.7,12.7,39.7,26.6,53.8,41.8
		c14.1,15.2,33.2,42.1,57.2,80.8l60.8,97.1h-120.2l-72.7-108.3c-25.8-38.7-43.5-63.1-53-73.2c-9.5-10.1-19.6-17-30.2-20.7
		c-10.6-3.7-27.5-5.6-50.6-5.6h-20.4v207.8H2546.4z M2646.9,2327.2h74.4c48.2,0,78.3-2,90.3-6.1c12-4.1,21.4-11.1,28.2-21.1
		c6.8-10,10.2-22.4,10.2-37.4c0-16.8-4.5-30.3-13.4-40.6c-8.9-10.3-21.6-16.8-37.9-19.5c-8.2-1.1-32.6-1.7-73.4-1.7h-78.4V2327.2z"
		/>
	<path class="st20" d="M3048,2116.7h183.7c41.4,0,73,3.2,94.7,9.5c29.2,8.6,54.2,23.9,75.1,45.8c20.8,22,36.7,48.8,47.5,80.7
		c10.9,31.8,16.3,71,16.3,117.7c0,41-5.1,76.3-15.3,106c-12.5,36.2-30.2,65.5-53.3,88c-17.4,17-41,30.2-70.6,39.7
		c-22.2,7-51.8,10.5-89,10.5H3048V2116.7z M3148.5,2200.9v329.8h75.1c28.1,0,48.3-1.6,60.8-4.8c16.3-4.1,29.8-11,40.6-20.7
		c10.8-9.7,19.5-25.8,26.3-48.1c6.8-22.3,10.2-52.7,10.2-91.2c0-38.5-3.4-68-10.2-88.6c-6.8-20.6-16.3-36.7-28.5-48.2
		c-12.2-11.5-27.7-19.4-46.5-23.4c-14-3.2-41.5-4.8-82.5-4.8H3148.5z"/>
</g>
<rect x="2333.5" y="2662.1" class="st1" width="736.4" height="736.4"/>
<path class="st21" d="M3052.3,3040.5c-64.8-7-128-19.7-191.2-35c-0.6-4.1-1.4-8.2-2.3-12.2c51.4-32.4,103-64.6,154.4-97
	c3.5-2.2,1.3-8.6-2.9-6.9c-54.9,21-111.6,40.2-165.4,64.4c-4-8-8.5-15.7-13.6-22.9c32.9-50.2,74.3-94.2,104.9-146
	c2.1-3.6-2.6-6.9-5.6-4.3c-43.6,38.1-87.6,77.1-128.1,118.7c-9.5-8.2-19.9-15.4-31.1-21.4c19.5-51.8,38.4-103.8,59.8-155
	c1.5-3.5-3.8-5.1-5.7-2.4c-32.6,45.3-62.5,93.8-88.4,143.5c-11.4-3.2-23.3-5.4-35.5-6.2c-3.2-55.6-8.2-111.1-15.6-166.4
	c-0.5-3.9-7-5.9-7.8-1.1c-8.5,55.6-10,111.9-8.9,168.1c-11.1,1.3-21.8,3.6-32.2,6.9c-23.4-47-48.9-93-73.4-139.5
	c-1.9-3.5-7.4-1.1-6.4,2.7c14,50.5,29.7,100.9,50.6,149.1c-10.9,5.9-21.1,12.9-30.5,20.9c-40.8-36.5-81.4-73-120.5-111.4
	c-2.7-2.7-7.7,0.9-5.4,4.2c31.1,45.4,67.1,88.2,105.9,127.4c-6.7,7.9-12.7,16.4-17.9,25.4c-50.5-18.7-103.1-33.3-154.5-48.5
	c-4.1-1.2-6.6,4.7-2.9,6.9c45.9,27.4,92.6,56.4,141.5,78.5c-3.8,12.6-6.1,25.8-6.9,39.4c-55.4-1.8-110.9-0.4-166.2,1.7
	c-4.1,0.1-5,5.9-1,7.2c30.9,9.7,63.5,13.1,95.4,17.7c24.3,3.5,48.9,7.8,73.4,10.2c1.2,7.9,3,15.7,5.3,23.3
	c-51.9,13.4-95.6,48.9-144.5,69.6c-3.1,1.3-1.5,6.4,1.7,6.3c52.8-2.6,110.9-13.7,158.4-39.6c4.7,8.2,10.2,16,16.2,23.3
	c-16.1,18.6-31.2,38.3-46.5,57.4c-17.5,21.9-35.6,43.3-50.5,67.1c-2.5,3.9,2.8,7.3,6,4.6c40.4-33.3,81.3-66.2,121.5-99.9
	c7,5.2,14.4,9.9,22.1,14c-15.3,55.2-29.9,110.4-47.4,165c-1.2,3.9,4.7,6.4,6.6,2.8c26.6-50.8,55.4-100.9,80.6-152.5
	c9.5,2.4,19.2,3.9,29.2,4.6c6.2,55.6,13.7,111,18.6,166.8c0.4,4.3,6.7,4.5,6.8,0c1.3-56,6.2-111.8,9.1-167.7c9.6-1.2,19-3.3,28-6
	c25.4,48.1,53.5,94.9,81.2,141.7c2,3.4,8,1.2,6.6-2.8c-11.1-32.9-22-65.8-32.7-98.8c-6-18.6-11.3-37.8-17.4-56.7
	c9-5.3,17.5-11.5,25.3-18.3c38.7,38.6,77.8,76.8,117.8,114.2c3.2,3,8.9-0.9,6.3-4.9c-31.4-47.2-60.6-97.1-93.7-143.4
	c4.4-6.5,8.3-13.3,11.8-20.3c53.5,25.7,108.6,48.9,163.7,70.7c3.9,1.6,5.9-4.4,2.7-6.5c-50.7-33.8-101.3-67.7-153.7-98.9
	c2.5-9.9,4.1-20.1,4.8-30.6c28.3,1.9,56.7,3.5,85.1,5.2c34.7,2.1,70,5.7,104.7,2C3057.8,3048.4,3057.8,3041.1,3052.3,3040.5
	L3052.3,3040.5z"/>
</svg>
