<?xml version="1.0" encoding="utf-8"?>
<!-- Generator: Adobe Illustrator 27.7.0, SVG Export Plug-In . SVG Version: 6.00 Build 0)  -->
<svg version="1.1" id="Layer_1" xmlns="http://www.w3.org/2000/svg" xmlns:xlink="http://www.w3.org/1999/xlink" x="0px" y="0px"
	 viewBox="0 0 3500 3500" style="enable-background:new 0 0 3500 3500;" xml:space="preserve">
<style type="text/css">
	.st0{fill:#58B4F0;}
	.st1{fill:#FFFFFF;}
</style>
<rect y="771.3" width="3500" height="1957.4"/>
<g>
	<polygon class="st0" points="1220.2,1389.8 1220.2,2070.3 928.5,2070.3 928.5,1681.4 685.4,1681.4 685.4,1389.8 	"/>
	<rect x="348.4" y="1000.9" class="st0" width="291.7" height="1069.4"/>
	<polygon class="st0" points="1220.2,1056 1220.2,1347.6 686.4,1347.6 928.5,1105.5 978.1,1056 	"/>
	<rect x="1272" y="1389.8" class="st0" width="291.7" height="680.5"/>
	<rect x="1959" y="1389.8" class="st0" width="291.7" height="680.5"/>
	<polygon class="st0" points="2250.7,1056 2250.7,1347.6 1272,1347.6 1563.7,1056 	"/>
	<polygon class="st0" points="3151.6,1778.6 3151.6,2070.3 2302.2,2070.3 2302.2,1778.6 2302.5,1778.6 2302.5,1389.8 2594.2,1389.8 
		2594.2,1778.6 	"/>
	<polygon class="st0" points="3151.6,1056 3151.6,1347.6 2303.2,1347.6 2594.8,1056 	"/>
	<polygon class="st0" points="1791.6,1389.8 1768.8,1389.8 1754.9,1389.8 1618.8,1389.8 1615.5,1389.8 1615.5,2070.3 1907.2,2070.3 
		1907.2,1389.8 	"/>
</g>
<g>
	<path class="st1" d="M348.4,2483.4V2242h26.2v119.7L473,2242h35.5l-83.1,97.9l86.7,143.5h-34.6l-70.3-122.1l-32.6,38.4v83.7
		L348.4,2483.4L348.4,2483.4z"/>
	<path class="st1" d="M624.2,2483.4v-25.7c-5.6,9.9-12.2,17.3-19.8,22.2s-16.1,7.4-25.7,7.4s-21-3-29-9.1s-13.4-13.8-16.1-23.1
		c-2.7-9.3-4-22.1-4-38.2v-108.4h24.2v97c0,18,0.9,30.1,2.7,36.1c1.8,6.1,5.2,11,10,14.7c4.9,3.7,10.5,5.5,16.7,5.5
		c11.6,0,21.2-4.8,28.7-14.3c6.4-8.2,9.6-23.3,9.6-45.3v-93.7h24.4v174.9L624.2,2483.4L624.2,2483.4z"/>
	<path class="st1" d="M684.2,2483.4v-174.9h21.9v26.5c5.6-12.3,10.7-20.4,15.4-24.5c4.7-4,9.9-6,15.7-6s16.4,3.2,24.9,9.6l-8.2,27.5
		c-6-4.3-11.9-6.4-17.6-6.4s-9.9,1.8-14.2,5.4c-4.3,3.6-7.3,8.7-9.1,15.1c-3.1,11.3-4.6,23.3-4.6,36.1v91.6L684.2,2483.4
		L684.2,2483.4z"/>
	<path class="st1" d="M869.1,2483.4v-22.1c-4.4,8.5-10,14.9-17,19.3c-6.9,4.4-14.4,6.7-22.4,6.7c-16.9,0-31.5-8-43.9-24
		c-12.3-16-18.5-38.5-18.5-67.4s2.7-36.7,8.2-50.6c5.5-13.8,12.8-24.1,21.9-30.8c9.2-6.7,19.3-10,30.5-10s15.4,2.1,22.3,6.3
		c6.8,4.2,12.5,10.1,17,17.7v-86.6h24.5v241.4H869L869.1,2483.4z M792.2,2396.2c0,22.6,3.9,39.4,11.8,50.4c7.9,11,17,16.5,27.4,16.5
		s19.3-5.3,26.9-15.8c7.6-10.5,11.4-26.5,11.4-47.8s-3.8-42.3-11.4-53.6c-7.6-11.3-17.1-16.9-28.7-16.9s-19,5.4-26.4,16.2
		S792.2,2373,792.2,2396.2L792.2,2396.2z"/>
	<path class="st1" d="M930,2276.1V2242h24.2v34.1H930z M930,2483.4v-174.9h24.2v174.9H930z"/>
	<path class="st1" d="M982,2431.1l24.2-4.6c1.4,12.4,5.3,21.5,11.7,27.5s14.8,9,25.3,9s18.6-2.6,24.4-7.8c5.7-5.2,8.6-11.8,8.6-19.8
		s-2.5-12.3-7.4-16.1c-3.4-2.6-11.6-5.9-24.7-9.9c-18.9-5.8-31.5-10.8-37.9-14.8c-6.4-4.1-11.3-9.5-14.8-16.3s-5.3-14.5-5.3-23.2
		c0-14.9,4.8-27.1,14.3-36.4s22.8-14,39.7-14s20,1.9,28.1,5.8c8.1,3.8,14.2,9,18.5,15.5s7.2,15.8,8.9,27.8l-23.7,4
		c-2.2-19.1-12.6-28.7-31.1-28.7s-18.4,2.1-23.5,6.3c-5.2,4.2-7.7,9.6-7.7,16.2s2.5,11.5,7.4,15.3c3,2.2,11.8,5.7,26.4,10.5
		c20.1,6.4,33.1,11.5,39,15.3s10.5,9,13.8,15.5s4.9,14.3,4.9,23.3c0,16.7-5.3,30.2-15.9,40.6c-10.6,10.3-25.1,15.5-43.4,15.5
		c-34.4,0-54.3-18.8-59.8-56.3L982,2431.1z"/>
	<path class="st1" d="M1129.8,2483.4V2242h24.2v86.6c5.7-8,12.2-14,19.3-18c7.2-4,15.1-6,23.8-6c15.3,0,27.3,4.9,36.1,14.6
		c8.8,9.7,13.3,27.5,13.3,53.4v110.8h-24.2v-110.8c0-15.1-2.7-26-8.1-32.6s-12.8-9.9-22.2-9.9s-19.5,4.2-26.9,12.7
		s-11.1,23.4-11.1,45v95.7h-24.2L1129.8,2483.4z"/>
	<path class="st1" d="M1363.1,2483.4V2242h39.4l47,170.9l9.4,35.7c2.3-8.9,5.8-21.8,10.6-38.7l47.5-168h35.3v241.4h-25.2v-201.9
		l-57.7,201.9h-23.5l-57.4-205.4v205.4h-25.2L1363.1,2483.4z"/>
	<path class="st1" d="M1684.7,2483.4v-25.7c-5.6,9.9-12.2,17.3-19.8,22.2c-7.6,4.9-16.1,7.4-25.7,7.4s-21-3-29-9.1
		s-13.4-13.8-16.1-23.1s-4-22.1-4-38.2v-108.4h24.2v97c0,18,0.9,30.1,2.7,36.1c1.8,6.1,5.2,11,10,14.7c4.9,3.7,10.5,5.5,16.7,5.5
		c11.6,0,21.2-4.8,28.7-14.3c6.4-8.2,9.6-23.3,9.6-45.3v-93.7h24.4v174.9L1684.7,2483.4L1684.7,2483.4z"/>
	<path class="st1" d="M1735.3,2431.1l24.2-4.6c1.4,12.4,5.3,21.5,11.7,27.5c6.4,6,14.8,9,25.3,9s18.6-2.6,24.4-7.8
		c5.7-5.2,8.6-11.8,8.6-19.8s-2.5-12.3-7.4-16.1c-3.4-2.6-11.6-5.9-24.7-9.9c-18.9-5.8-31.5-10.8-37.9-14.8
		c-6.4-4.1-11.3-9.5-14.8-16.3s-5.3-14.5-5.3-23.2c0-14.9,4.8-27.1,14.3-36.4c9.6-9.3,22.8-14,39.7-14s20,1.9,28.1,5.8
		c8.1,3.8,14.2,9,18.5,15.5s7.2,15.8,8.9,27.8l-23.7,4c-2.2-19.1-12.6-28.7-31.1-28.7s-18.4,2.1-23.5,6.3c-5.2,4.2-7.7,9.6-7.7,16.2
		s2.5,11.5,7.4,15.3c3,2.2,11.8,5.7,26.4,10.5c20.1,6.4,33.1,11.5,39,15.3s10.5,9,13.8,15.5s4.9,14.3,4.9,23.3
		c0,16.7-5.3,30.2-15.9,40.6s-25.1,15.5-43.4,15.5c-34.4,0-54.3-18.8-59.8-56.3V2431.1z"/>
	<path class="st1" d="M1883,2276.1V2242h24.2v34.1H1883z M1883,2483.4v-174.9h24.2v174.9H1883z"/>
	<path class="st1" d="M2038.3,2419.4l23.9,3.8c-2.7,20.9-9.6,36.8-20.7,47.8c-11,11-24.3,16.5-39.8,16.5s-34.2-7.7-46.4-23.1
		c-12.1-15.4-18.2-38.2-18.2-68.4s6.1-53.2,18.4-68.4c12.2-15.2,28-22.8,47.2-22.8s27.3,4.6,37.5,13.8s16.7,23.1,19.5,41.5
		l-23.5,4.3c-2.3-11.8-6.3-20.6-12-26.5c-5.7-5.8-12.6-8.8-20.6-8.8c-12,0-21.9,5.3-29.7,15.9c-7.8,10.6-11.8,27.4-11.8,50.5
		s3.8,41.1,11.3,51.7c7.5,10.7,17.2,16,28.9,16s17.1-3.5,23.6-10.6s10.7-18.1,12.4-33V2419.4z"/>
	<path class="st1" d="M2303.5,2398.8l26.3,8.1c-5.8,27.1-16,47.3-30.5,60.7c-14.5,13.3-32.2,20-53.1,20s-34-4.5-47-13.4
		c-13-9-23.7-23.3-31.9-43.1c-8.3-19.8-12.4-43.1-12.4-70s4.1-49.1,12.4-67.5c8.3-18.4,19.5-32.3,33.7-41.7s30-14.1,47.5-14.1
		s35.5,5.9,49.3,17.8c13.7,11.9,23.4,29.3,28.8,52.3l-25.7,7.4c-8.8-33.5-26.4-50.2-52.9-50.2s-24.6,3.4-34.3,10.1
		c-9.7,6.8-17.4,17.3-23.2,31.6s-8.7,32.4-8.7,54.2c0,33.1,5.8,57.9,17.5,74.4c11.6,16.5,27.1,24.8,46.4,24.8s26.6-5.1,37-15.2
		C2293.1,2434.8,2300,2419.4,2303.5,2398.8L2303.5,2398.8z"/>
	<path class="st1" d="M2359.2,2483.4V2242h24.2v86.6c5.7-8,12.2-14,19.3-18c7.2-4,15.1-6,23.8-6c15.3,0,27.3,4.9,36.1,14.6
		c8.8,9.7,13.3,27.5,13.3,53.4v110.8h-24.2v-110.8c0-15.1-2.7-26-8.1-32.6c-5.4-6.6-12.8-9.9-22.2-9.9s-19.5,4.2-26.9,12.7
		s-11.1,23.4-11.1,45v95.7h-24.2L2359.2,2483.4z"/>
	<path class="st1" d="M2606.4,2461.9c-8.1,8.5-16.6,14.8-25.4,19.1c-8.8,4.3-17.9,6.4-27.3,6.4c-14.9,0-26.8-4.5-35.7-13.5
		s-13.3-21.1-13.3-36.4s2.1-19,6.3-26.8s9.9-13.9,17.1-18.3s18.2-7.6,32.9-9.7c19.8-2.9,34.3-6.4,43.5-10.4l0.2-7.6
		c0-12-2.1-20.4-6.4-25.2c-6-7-15.3-10.5-27.8-10.5s-19.8,2.3-25.4,7c-5.6,4.7-9.7,13.5-12.4,26.4l-23.9-4
		c3.4-18.8,10.3-32.4,20.7-41s25.2-12.8,44.5-12.8s26.8,2.8,35.4,8.5c8.6,5.7,14,12.7,16.2,21c2.3,8.3,3.4,20.5,3.4,36.6v39.5
		c0,27.7,0.5,45.1,1.6,52.3c1,7.2,3.1,14.2,6.2,21h-25.4c-2.5-6-4.2-13.2-4.9-21.6H2606.4z M2604.4,2395.7
		c-8.9,4.4-22.1,8.1-39.7,11.2c-10.2,1.8-17.3,3.8-21.4,6c-4.1,2.3-7.2,5.4-9.5,9.6c-2.3,4.1-3.4,8.9-3.4,14.2c0,8.3,2.6,15,7.7,20
		c5.2,5,12.3,7.5,21.4,7.5s16.6-2.3,23.6-6.8c7.1-4.5,12.4-10.5,15.9-18s5.3-18.5,5.3-32.9L2604.4,2395.7L2604.4,2395.7z"/>
	<path class="st1" d="M2666.8,2483.4v-174.9h21.9v24.7c5.3-9.6,11.7-16.8,19.3-21.5c7.6-4.8,16.4-7.1,26.2-7.1s14.8,1.5,21.3,4.5
		s11.8,7,15.8,11.9s7,11.2,9,19s3,19.8,3,35.9v107.5h-24.2v-106.5c0-12.9-1.1-22.3-3.3-28.2s-5.6-10.5-10.3-13.8
		c-4.7-3.2-10.1-4.9-16.2-4.9c-11.6,0-20.9,4.3-27.8,13c-6.9,8.7-10.4,23.6-10.4,44.7v95.6h-24.2L2666.8,2483.4z"/>
	<path class="st1" d="M2820.6,2483.4v-174.9h21.9v24.7c5.3-9.6,11.7-16.8,19.3-21.5c7.6-4.8,16.4-7.1,26.2-7.1s14.8,1.5,21.3,4.5
		s11.8,7,15.8,11.9s7,11.2,9,19s3,19.8,3,35.9v107.5h-24.2v-106.5c0-12.9-1.1-22.3-3.3-28.2s-5.6-10.5-10.3-13.8
		c-4.7-3.2-10.1-4.9-16.2-4.9c-11.6,0-20.9,4.3-27.8,13c-6.9,8.7-10.4,23.6-10.4,44.7v95.6h-24.2L2820.6,2483.4z"/>
	<path class="st1" d="M3072.4,2427.1l25,3.8c-4.2,18.7-11.7,32.7-22.6,42.2c-10.9,9.5-24.5,14.2-40.6,14.2s-36.8-7.7-49.3-23.1
		c-12.6-15.4-18.9-37.7-18.9-66.8s6.3-53.2,19-69.1c12.7-15.9,28.7-23.8,48.2-23.8s34,7.8,46.4,23.4c12.4,15.6,18.6,38.1,18.6,67.7
		l-0.2,7.9h-107c1,19.7,5.5,34.5,13.7,44.5c8.1,10,18,15,29.6,15c18.2,0,30.9-12,38-35.9L3072.4,2427.1z M2992.5,2379.2h80
		c-1.1-15.1-4.3-26.5-9.7-33.9c-7.8-10.9-17.7-16.3-29.8-16.3s-20.1,4.5-27.8,13.6S2993.3,2363.9,2992.5,2379.2L2992.5,2379.2z"/>
	<path class="st1" d="M3127.4,2483.4V2242h24.2v241.4H3127.4z"/>
</g>
</svg>
