<svg xmlns="http://www.w3.org/2000/svg" xmlns:xlink="http://www.w3.org/1999/xlink" width="312" zoomAndPan="magnify" viewBox="0 0 234 233.999995" height="312" preserveAspectRatio="xMidYMid meet" version="1.0"><path stroke-linecap="butt" transform="matrix(0.75, 0, 0, 0.75, 0.00000265, 0.000000000000063949)" fill="none" stroke-linejoin="miter" d="M 26.43229 162.994802 C 22.739581 168.494803 23.541665 176.640636 27.999998 181.421887 C 35.177082 189.119804 47.354166 188.671887 55.473958 183.057303 C 55.666667 182.927095 55.932292 183.06772 55.932292 183.302095 L 55.932292 186.093762 C 55.932292 186.312512 56.104167 186.489595 56.322917 186.489595 L 72.791668 186.489595 C 73.109376 186.489595 73.375001 186.22397 73.375001 185.895845 L 73.375001 171.255219 C 73.375001 170.958344 73.781251 170.890636 73.890626 171.161469 C 78.515627 182.739595 89.312502 188.182304 101.453128 187.057304 C 110.16667 186.250012 117.020837 182.38022 122.036463 175.463553 " stroke="#87711a" stroke-width="2" stroke-opacity="1" stroke-miterlimit="4"/><path stroke-linecap="butt" transform="matrix(0.75, 0, 0, 0.75, 0.00000265, 0.000000000000063949)" fill="none" stroke-linejoin="miter" d="M 122.036463 175.463553 C 123.604171 178.921887 120.041671 182.135428 117.552087 183.875012 C 115.593754 185.244804 113.067712 186.78647 109.989587 188.494804 " stroke="#1c1c1c" stroke-width="2" stroke-opacity="1" stroke-miterlimit="4"/><path stroke-linecap="butt" transform="matrix(0.75, 0, 0, 0.75, 0.00000265, 0.000000000000063949)" fill="none" stroke-linejoin="miter" d="M 109.989587 188.494804 L 106.359378 189.510429 " stroke="#171717" stroke-width="2" stroke-opacity="1" stroke-miterlimit="4"/><path stroke-linecap="butt" transform="matrix(0.75, 0, 0, 0.75, 0.00000265, 0.000000000000063949)" fill="none" stroke-linejoin="miter" d="M 106.359378 189.510429 C 99.614586 191.791679 91.010419 190.088554 85.135419 186.56772 C 82.135418 184.776054 79.489585 182.072928 76.776043 179.776053 C 76.453126 179.500012 75.97396 179.729178 75.97396 180.151053 L 75.958335 187.06772 " stroke="#1c1c1c" stroke-width="2" stroke-opacity="1" stroke-miterlimit="4"/><path stroke-linecap="butt" transform="matrix(0.75, 0, 0, 0.75, 0.00000265, 0.000000000000063949)" fill="none" stroke-linejoin="miter" d="M 75.958335 187.06772 L 74.22396 189.187512 C 74.06771 189.385429 73.833335 189.494804 73.583335 189.500012 C 67.916668 189.671887 62.21875 189.572929 56.489583 189.203137 C 52.296875 188.937512 47.463541 190.333346 43.765624 190.843762 C 43.609374 190.864596 43.499999 191.015637 43.531249 191.171887 C 45.645833 203.083346 50.911458 214.583347 59.34375 225.70314 C 66.697917 235.395848 74.312501 243.385432 82.197918 249.677099 C 100.005211 263.89585 120.447921 272.166684 143.526047 274.468768 C 169.307299 277.046893 196.630217 273.734393 218.890636 260.151058 C 237.463553 248.817724 253.755221 232.35939 264.708347 213.031264 C 266.182305 210.437514 267.32293 207.713555 268.125014 204.848972 C 269.546889 199.838555 269.052097 194.937513 266.656264 190.145846 C 266.557305 189.953137 266.380222 189.822929 266.161472 189.791679 L 259.296888 188.760429 " stroke="#171717" stroke-width="2" stroke-opacity="1" stroke-miterlimit="4"/><path stroke-linecap="butt" transform="matrix(0.75, 0, 0, 0.75, 0.00000265, 0.000000000000063949)" fill="none" stroke-linejoin="miter" d="M 259.296888 188.760429 C 254.328138 188.31772 250.651054 189.625012 246.119804 189.828137 C 243.557304 189.947929 241.958345 189.010429 241.322929 187.026054 " stroke="#1c1c1c" stroke-width="2" stroke-opacity="1" stroke-miterlimit="4"/><path stroke-linecap="butt" transform="matrix(0.75, 0, 0, 0.75, 0.00000265, 0.000000000000063949)" fill="none" stroke-linejoin="miter" d="M 241.322929 187.026054 C 247.390637 187.744804 252.807304 186.406262 257.557305 182.994803 C 257.713555 182.88022 257.937513 182.994803 257.937513 183.19272 L 257.937513 186.06772 C 257.937513 186.302095 258.125013 186.489595 258.359388 186.489595 L 274.635431 186.489595 C 274.932306 186.489595 275.177097 186.250012 275.182306 185.953137 C 275.489598 175.171886 276.281264 165.276052 274.901056 154.65626 C 274.192722 149.208343 272.166681 144.635426 268.812514 140.932301 " stroke="#87711a" stroke-width="2" stroke-opacity="1" stroke-miterlimit="4"/><path stroke-linecap="butt" transform="matrix(0.75, 0, 0, 0.75, 0.00000265, 0.000000000000063949)" fill="none" stroke-linejoin="miter" d="M 268.812514 140.932301 L 270.822931 138.833342 " stroke="#171717" stroke-width="2" stroke-opacity="1" stroke-miterlimit="4"/><path stroke-linecap="butt" transform="matrix(0.75, 0, 0, 0.75, 0.00000265, 0.000000000000063949)" fill="none" stroke-linejoin="miter" d="M 270.822931 138.833342 C 277.182306 144.666676 286.76564 144.541676 292.708349 138.473967 C 295.463557 135.656259 296.932307 132.531259 297.109391 129.083342 C 297.583349 119.802091 292.307307 113.395841 283.130223 111.875007 " stroke="#87711a" stroke-width="2" stroke-opacity="1" stroke-miterlimit="4"/><path stroke-linecap="butt" transform="matrix(0.75, 0, 0, 0.75, 0.00000265, 0.000000000000063949)" fill="none" stroke-linejoin="miter" d="M 283.130223 111.875007 C 275.729181 95.479173 266.765639 79.26563 254.640638 66.526046 C 247.406262 58.927087 239.427095 52.47917 230.69272 47.16667 C 218.609386 39.812503 205.317718 33.604169 191.375009 30.03646 C 167.312507 23.901043 143.723964 23.984377 120.609379 30.302085 C 95.953128 37.036461 72.468751 51.927087 56.088542 72.45313 C 52.28125 77.229172 48.463541 82.927089 44.614583 89.567714 C 38.619791 99.932298 34.458332 109.026049 32.145832 116.869799 C 29.828123 124.692716 28.52604 131.312508 28.229165 136.718759 C 27.749998 145.526051 27.15104 154.286468 26.43229 162.994802 " stroke="#171717" stroke-width="2" stroke-opacity="1" stroke-miterlimit="4"/><path stroke-linecap="butt" transform="matrix(0.75, 0, 0, 0.75, 0.00000265, 0.000000000000063949)" fill="none" stroke-linejoin="miter" d="M 283.130223 111.875007 C 277.750014 111.703132 273.500014 113.270841 270.380222 116.588549 C 264.265638 123.078133 264.505222 132.364592 270.822931 138.833342 " stroke="#8e7720" stroke-width="2" stroke-opacity="1" stroke-miterlimit="4"/><path stroke-linecap="butt" transform="matrix(0.75, 0, 0, 0.75, 0.00000265, 0.000000000000063949)" fill="none" stroke-linejoin="miter" d="M 268.812514 140.932301 C 262.557305 136.1198 254.359388 134.979175 246.677096 134.979175 " stroke="#8e7720" stroke-width="2" stroke-opacity="1" stroke-miterlimit="4"/><path stroke-linecap="butt" transform="matrix(0.75, 0, 0, 0.75, 0.00000265, 0.000000000000063949)" fill="none" stroke-linejoin="miter" d="M 246.677096 134.979175 C 244.739596 119.760424 238.406262 107.244799 228.312511 95.708339 C 199.807301 63.109379 153.08334 54.973962 114.755212 73.348963 C 99.651045 80.588547 86.791669 94.125006 78.50521 108.442715 C 73.16146 117.692716 69.942709 128.583342 72.604168 139.151051 C 73.250001 141.734384 74.218751 144.609384 75.50521 147.796885 " stroke="#232323" stroke-width="2" stroke-opacity="1" stroke-miterlimit="4"/><path stroke-linecap="butt" transform="matrix(0.75, 0, 0, 0.75, 0.00000265, 0.000000000000063949)" fill="none" stroke-linejoin="miter" d="M 75.50521 147.796885 L 73.104168 153.666677 C 73.010418 153.895843 72.671876 153.854177 72.635418 153.614593 C 70.729168 141.135426 63.375001 136.880217 51.567708 135.390634 C 45.499999 134.635425 38.057291 134.729175 31.71354 135.593759 C 31.520832 135.6198 31.36979 135.791675 31.36979 135.984384 L 31.36979 148.338551 C 31.36979 148.583343 31.58854 148.770843 31.833332 148.723968 C 38.619791 147.437509 47.78125 146.859384 53.78125 150.59376 C 54.536458 151.06251 55.109375 151.770843 55.411458 152.614593 L 56.505208 155.651052 C 56.875 156.671885 55.739583 157.583343 54.817708 157.00001 C 52.546875 155.557302 49.5625 154.890635 45.848958 155.010427 C 38.890624 155.229177 30.843748 157.34376 26.43229 162.994802 " stroke="#8e7720" stroke-width="2" stroke-opacity="1" stroke-miterlimit="4"/><path stroke-linecap="butt" transform="matrix(0.75, 0, 0, 0.75, 0.00000265, 0.000000000000063949)" fill="none" stroke-linejoin="miter" d="M 246.677096 134.979175 C 242.406262 134.791675 238.135428 135.010425 233.859387 135.625009 C 233.625011 135.666675 233.447928 135.8698 233.447928 136.104175 L 233.447928 148.192718 C 233.447928 148.552093 233.776053 148.817718 234.125012 148.744801 C 238.828137 147.84376 243.557304 147.625009 248.307304 148.098968 C 254.125013 148.682301 258.567721 150.87501 258.489596 157.296885 C 258.489596 157.546885 258.218763 157.692718 258.000013 157.567718 C 252.901054 154.484385 248.479179 154.697927 242.437512 155.635427 C 236.291678 156.583343 228.291678 160.260427 226.760428 166.645844 C 224.218761 177.244803 230.901053 185.72397 241.322929 187.026054 " stroke="#937d26" stroke-width="2" stroke-opacity="1" stroke-miterlimit="4"/><path stroke-linecap="butt" transform="matrix(0.75, 0, 0, 0.75, 0.00000265, 0.000000000000063949)" fill="none" stroke-linejoin="miter" d="M 259.296888 188.760429 C 256.22918 188.734387 253.166679 189.015637 250.109388 189.609387 C 246.614596 190.286471 244.052095 190.104179 240.84897 190.125012 C 240.489595 190.125012 240.187512 190.375012 240.109387 190.723971 C 238.354178 198.937513 234.50522 206.41668 228.562511 213.16668 C 219.562511 223.375014 208.729177 232.333348 196.489592 238.010432 C 182.3073 244.583349 167.604174 247.546891 152.390631 246.901058 C 128.536463 245.869807 103.500003 233.963557 87.619794 215.875014 C 80.385418 207.63543 76.494793 198.036471 75.958335 187.06772 " stroke="#232323" stroke-width="2" stroke-opacity="1" stroke-miterlimit="4"/><path stroke-linecap="butt" transform="matrix(0.75, 0, 0, 0.75, 0.00000265, 0.000000000000063949)" fill="none" stroke-linejoin="miter" d="M 106.359378 189.510429 C 112.234379 188.937512 117.114587 186.458345 120.994796 182.057303 C 121.078129 181.968762 121.072921 181.81772 120.979171 181.72397 L 120.947921 181.69272 C 120.854171 181.609387 120.713546 181.59897 120.619796 181.687512 C 117.473962 184.578137 113.927087 186.84897 109.989587 188.494804 " stroke="#232323" stroke-width="2" stroke-opacity="1" stroke-miterlimit="4"/><path stroke-linecap="butt" transform="matrix(0.75, 0, 0, 0.75, 0.00000265, 0.000000000000063949)" fill="none" stroke-linejoin="miter" d="M 122.036463 175.463553 C 122.609379 174.703136 122.958338 173.901053 123.083338 173.067719 C 123.125004 172.786469 122.989588 172.505219 122.750004 172.364594 L 111.250004 165.729177 C 111.07292 165.625011 110.843754 165.682302 110.744795 165.848969 C 109.66667 167.572927 108.328128 169.046886 106.713545 170.276053 C 101.526045 174.213553 94.458336 173.104178 91.500002 167.046886 C 88.395835 160.682302 90.380211 150.416676 98.802086 149.072926 C 103.390628 148.338551 106.875003 150.171885 109.26042 154.572927 C 109.41667 154.859385 109.776045 154.953135 110.057295 154.791677 C 112.500004 153.333343 116.046879 151.317718 120.703129 148.755218 C 121.166671 148.494801 121.796879 148.067718 122.583338 147.468759 C 123.770838 146.567718 125.260421 146.348968 127.052088 146.796884 C 127.281255 146.859384 127.437505 147.062509 127.42188 147.296884 C 127.005213 153.411468 126.67188 158.786469 126.432296 163.411469 C 126.01563 171.265636 127.348963 182.338553 135.875005 184.843762 C 140.604172 186.234387 145.656256 186.677095 151.031256 186.177095 C 151.265631 186.156262 151.442715 185.958345 151.442715 185.72397 L 151.442715 173.854178 C 151.442715 173.552094 151.20834 173.291678 150.906256 173.270844 C 146.703131 172.932303 144.520839 170.880219 144.354172 167.109386 C 144.114589 161.453135 144.244797 154.963552 144.765631 147.640634 C 144.791672 147.281259 145.093756 147.005218 145.453131 147.005218 L 150.244798 147.005218 C 150.572923 147.005218 150.843756 146.765634 150.890631 146.437509 L 152.328131 135.96355 C 152.359381 135.718759 152.171881 135.500009 151.92709 135.500009 L 145.151047 135.500009 C 144.932297 135.500009 144.750006 135.322925 144.750006 135.104175 L 144.750006 117.364591 C 144.750006 117.140633 144.526047 116.984383 144.317714 117.062508 L 127.64063 123.083341 C 127.442713 123.145841 127.317713 123.333341 127.317713 123.536466 L 127.317713 135.125009 C 127.317713 135.33855 127.156255 135.500009 126.95313 135.500009 L 123.093754 135.500009 C 122.739588 135.500009 122.442713 135.760425 122.395838 136.104175 L 121.307296 144.114593 C 121.276046 144.322926 121.010421 144.395843 120.875004 144.229176 C 108.500003 129.21355 85.760419 131.2448 75.50521 147.796885 " stroke="#937d26" stroke-width="2" stroke-opacity="1" stroke-miterlimit="4"/><path stroke-linecap="butt" transform="matrix(0.75, 0, 0, 0.75, 0.00000265, 0.000000000000063949)" fill="none" stroke-linejoin="miter" d="M 174.369799 115.921882 C 174.541674 115.682299 174.369799 115.338549 174.062508 115.338549 L 150.432298 115.500007 C 150.125006 115.510424 149.953131 115.854174 150.135423 116.093757 L 162.067715 131.880217 C 162.218757 132.078133 162.510424 132.078133 162.651049 131.880217 L 174.369799 115.921882 " stroke="#937d26" stroke-width="2" stroke-opacity="1" stroke-miterlimit="4"/><path stroke-linecap="butt" transform="matrix(0.75, 0, 0, 0.75, 0.00000265, 0.000000000000063949)" fill="none" stroke-linejoin="miter" d="M 198.687509 189.619804 C 199.229176 189.838554 199.697926 190.302096 200.093759 191.015637 C 200.395843 191.552096 201.171884 191.567721 201.494801 191.036471 L 204.546885 186.03647 " stroke="#1c1c1c" stroke-width="2" stroke-opacity="1" stroke-miterlimit="4"/><path stroke-linecap="butt" transform="matrix(0.75, 0, 0, 0.75, 0.00000265, 0.000000000000063949)" fill="none" stroke-linejoin="miter" d="M 204.546885 186.03647 C 205.489593 184.932304 206.34376 183.750012 207.083343 182.494803 C 210.630218 176.520845 213.822927 170.312511 216.651052 163.864594 " stroke="#232323" stroke-width="2" stroke-opacity="1" stroke-miterlimit="4"/><path stroke-linecap="butt" transform="matrix(0.75, 0, 0, 0.75, 0.00000265, 0.000000000000063949)" fill="none" stroke-linejoin="miter" d="M 216.651052 163.864594 C 220.687511 158.791677 223.562511 154.697927 225.281261 151.583343 C 228.182303 146.302093 229.81772 141.817717 227.354178 135.854175 " stroke="#1c1c1c" stroke-width="2" stroke-opacity="1" stroke-miterlimit="4"/><path stroke-linecap="butt" transform="matrix(0.75, 0, 0, 0.75, 0.00000265, 0.000000000000063949)" fill="none" stroke-linejoin="miter" d="M 227.354178 135.854175 L 208.072927 135.718759 C 207.713551 135.718759 207.380218 135.921884 207.223968 136.250009 L 198.963551 153.401052 C 198.822926 153.697927 198.401051 153.692718 198.260426 153.395843 L 190.078134 136.234384 C 189.890634 135.843759 189.4948 135.593759 189.0573 135.593759 L 153.807298 135.593759 C 153.64584 135.593759 153.510423 135.729175 153.510423 135.890634 L 153.510423 186.015637 C 153.510423 186.25522 153.70834 186.453137 153.942715 186.453137 L 169.838549 186.453137 C 170.385424 186.453137 170.817716 186.00522 170.817716 185.458345 L 170.817716 138.302092 C 170.817716 137.973967 171.255216 137.864592 171.406257 138.151051 L 198.687509 189.619804 " stroke="#937d26" stroke-width="2" stroke-opacity="1" stroke-miterlimit="4"/><path stroke-linecap="butt" transform="matrix(0.75, 0, 0, 0.75, 0.00000265, 0.000000000000063949)" fill="none" stroke-linejoin="miter" d="M 227.354178 135.854175 L 198.687509 189.619804 " stroke="#87711a" stroke-width="2" stroke-opacity="1" stroke-miterlimit="4"/><path stroke-linecap="butt" transform="matrix(0.75, 0, 0, 0.75, 0.00000265, 0.000000000000063949)" fill="none" stroke-linejoin="miter" d="M 216.651052 163.864594 C 212.791677 169.609386 209.34376 175.765636 206.317718 182.322928 C 205.739593 183.583345 205.145843 184.812512 204.546885 186.03647 " stroke="#171717" stroke-width="2" stroke-opacity="1" stroke-miterlimit="4"/><path stroke-linecap="butt" transform="matrix(0.75, 0, 0, 0.75, 0.00000265, 0.000000000000063949)" fill="none" stroke-linejoin="miter" d="M 97.338544 153.255218 C 97.338544 153.229177 97.312503 153.208343 97.291669 153.208343 C 97.265628 153.208343 97.244794 153.229177 97.244794 153.255218 C 97.244794 153.276052 97.265628 153.302093 97.291669 153.302093 C 97.312503 153.302093 97.338544 153.276052 97.338544 153.255218 " stroke="#1c1c1c" stroke-width="2" stroke-opacity="1" stroke-miterlimit="4"/><path stroke-linecap="butt" transform="matrix(0.75, 0, 0, 0.75, 0.00000265, 0.000000000000063949)" fill="none" stroke-linejoin="miter" d="M 122.151046 180.104178 C 122.125004 180.088553 122.031254 180.156262 121.947921 180.265637 C 121.869796 180.375012 121.822921 180.484387 121.848963 180.50522 C 121.875004 180.520845 121.968754 180.453137 122.052088 180.343762 C 122.130213 180.234387 122.177088 180.125012 122.151046 180.104178 " stroke="#1c1c1c" stroke-width="2" stroke-opacity="1" stroke-miterlimit="4"/><path stroke-linecap="butt" transform="matrix(0.75, 0, 0, 0.75, 0.00000265, 0.000000000000063949)" fill="none" stroke-linejoin="miter" d="M 294.854182 127.500008 C 294.854182 120.182299 288.92189 114.244799 281.604181 114.244799 C 274.286472 114.244799 268.348972 120.182299 268.348972 127.500008 C 268.348972 134.817717 274.286472 140.750009 281.604181 140.750009 C 288.92189 140.750009 294.854182 134.817717 294.854182 127.500008 " stroke="#87711a" stroke-width="2" stroke-opacity="1" stroke-miterlimit="4"/><path stroke-linecap="butt" transform="matrix(0.75, 0, 0, 0.75, 0.00000265, 0.000000000000063949)" fill="none" stroke-linejoin="miter" d="M 277.838556 124.020841 L 277.203139 124.020841 C 276.901056 124.020841 276.651056 123.770841 276.651056 123.468758 L 276.651056 120.640633 C 276.651056 120.328133 276.338556 120.104174 276.036473 120.213549 L 272.875014 121.359383 C 272.588556 121.463549 272.401056 121.734383 272.401056 122.036466 L 272.401056 123.031258 C 272.401056 123.380216 272.213556 123.708341 271.901056 123.880216 C 271.067722 124.364591 270.755222 125.265633 270.963556 126.604175 C 271.010431 126.895841 271.244806 127.125008 271.541681 127.161467 C 271.718764 127.187508 271.822931 127.203133 271.854181 127.208342 C 272.151056 127.302092 272.338556 127.593758 272.296889 127.895842 C 272.244806 128.343758 272.187514 129.572925 272.135431 131.578133 C 272.031264 135.33855 273.953139 136.953134 277.890639 136.421884 C 278.062514 136.40105 278.187514 136.260425 278.187514 136.08855 L 278.187514 133.973967 C 278.187514 133.708342 278.020848 133.473967 277.776056 133.385425 C 275.979181 132.734384 276.463556 129.473967 276.562514 127.973967 C 276.588556 127.645842 276.807306 127.364592 277.109389 127.255217 L 277.953139 126.953133 C 278.192723 126.864591 278.348973 126.640633 278.348973 126.390633 L 278.348973 124.52605 C 278.348973 124.2448 278.114598 124.020841 277.838556 124.020841 " stroke="#87711a" stroke-width="2" stroke-opacity="1" stroke-miterlimit="4"/><path stroke-linecap="butt" transform="matrix(0.75, 0, 0, 0.75, 0.00000265, 0.000000000000063949)" fill="none" stroke-linejoin="miter" d="M 285.760432 136.843759 C 285.942723 136.843759 286.093765 136.718759 286.218765 136.46355 C 288.04689 132.906259 290.135432 128.9323 292.48439 124.5573 C 292.625015 124.302091 292.437515 123.989591 292.14064 123.989591 L 288.473973 123.989591 C 288.098973 123.989591 287.755223 124.208341 287.604182 124.552091 C 287.14064 125.562508 286.625015 126.755216 286.072932 128.125008 C 286.026057 128.234383 285.927098 128.286467 285.770848 128.286467 C 285.614598 128.286467 285.510431 128.234383 285.463556 128.125008 C 284.911473 126.750008 284.401056 125.562508 283.942723 124.541675 C 283.786473 124.208341 283.442723 123.979175 283.067723 123.979175 L 279.406264 123.973966 C 279.109389 123.973966 278.921889 124.286466 279.062514 124.541675 C 281.401056 128.927092 283.473973 132.895842 285.291681 136.46355 C 285.416681 136.708342 285.572932 136.843759 285.760432 136.843759 " stroke="#87711a" stroke-width="2" stroke-opacity="1" stroke-miterlimit="4"/><path stroke-linecap="butt" transform="matrix(0.75, 0, 0, 0.75, 0.00000265, 0.000000000000063949)" fill="none" stroke-linejoin="miter" d="M 41.307291 170.843761 C 41.276041 174.140636 44.671874 176.84897 48.895833 176.895845 C 53.125 176.94272 56.583333 174.296886 56.614583 171.000011 C 56.645833 167.697927 53.25 164.994802 49.020833 164.947927 C 44.796874 164.901052 41.338541 167.541677 41.307291 170.843761 " stroke="#8e7720" stroke-width="2" stroke-opacity="1" stroke-miterlimit="4"/><path stroke-linecap="butt" transform="matrix(0.75, 0, 0, 0.75, 0.00000265, 0.000000000000063949)" fill="none" stroke-linejoin="miter" d="M 243.328137 170.875011 C 243.307304 174.171886 246.713554 176.864595 250.937513 176.895845 C 255.161471 176.927095 258.609388 174.276053 258.630221 170.984386 C 258.656263 167.682302 255.244805 164.994802 251.020846 164.963552 C 246.802096 164.932302 243.354179 167.583344 243.328137 170.875011 " stroke="#8e7720" stroke-width="2" stroke-opacity="1" stroke-miterlimit="4"/><path fill="#101010" d="M 234 0 L 234 234 L 0 234 L 0 0 Z M 19.824219 122.246094 C 17.054688 126.371094 17.65625 132.480469 21 136.066406 C 26.382812 141.839844 35.515625 141.503906 41.605469 137.292969 C 41.75 137.195312 41.949219 137.300781 41.949219 137.476562 L 41.949219 139.570312 C 41.949219 139.734375 42.078125 139.867188 42.242188 139.867188 L 54.59375 139.867188 C 54.832031 139.867188 55.03125 139.667969 55.03125 139.421875 L 55.03125 128.441406 C 55.03125 128.21875 55.335938 128.167969 55.417969 128.371094 C 58.886719 137.054688 66.984375 141.136719 76.089844 140.292969 C 82.625 139.6875 87.765625 136.785156 91.527344 131.597656 C 92.703125 134.191406 90.03125 136.601562 88.164062 137.90625 C 86.695312 138.933594 84.800781 140.089844 82.492188 141.371094 L 79.769531 142.132812 C 74.710938 143.84375 68.257812 142.566406 63.851562 139.925781 C 61.601562 138.582031 59.617188 136.554688 57.582031 134.832031 C 57.339844 134.625 56.980469 134.796875 56.980469 135.113281 L 56.96875 140.300781 L 55.667969 141.890625 C 55.550781 142.039062 55.375 142.121094 55.1875 142.125 C 50.9375 142.253906 46.664062 142.179688 42.367188 141.902344 C 39.222656 141.703125 35.597656 142.75 32.824219 143.132812 C 32.707031 143.148438 32.625 143.261719 32.648438 143.378906 C 34.234375 152.3125 38.183594 160.9375 44.507812 169.277344 C 50.023438 176.546875 55.734375 182.539062 61.648438 187.257812 C 75.003906 197.921875 90.335938 204.125 107.644531 205.851562 C 126.980469 207.785156 147.472656 205.300781 164.167969 195.113281 C 178.097656 186.613281 190.316406 174.269531 198.53125 159.773438 C 199.636719 157.828125 200.492188 155.785156 201.09375 153.636719 C 202.160156 149.878906 201.789062 146.203125 199.992188 142.609375 C 199.917969 142.464844 199.785156 142.367188 199.621094 142.34375 L 194.472656 141.570312 C 190.746094 141.238281 187.988281 142.21875 184.589844 142.371094 C 182.667969 142.460938 181.46875 141.757812 180.992188 140.269531 C 185.542969 140.808594 189.605469 139.804688 193.167969 137.246094 C 193.285156 137.160156 193.453125 137.246094 193.453125 137.394531 L 193.453125 139.550781 C 193.453125 139.726562 193.59375 139.867188 193.769531 139.867188 L 205.976562 139.867188 C 206.199219 139.867188 206.382812 139.6875 206.386719 139.464844 C 206.617188 131.378906 207.210938 123.957031 206.175781 115.992188 C 205.644531 111.90625 204.125 108.476562 201.609375 105.699219 L 203.117188 104.125 C 207.886719 108.5 215.074219 108.40625 219.53125 103.855469 C 221.597656 101.742188 222.699219 99.398438 222.832031 96.8125 C 223.1875 89.851562 219.230469 85.046875 212.347656 83.90625 C 206.796875 71.609375 200.074219 59.449219 190.980469 49.894531 C 185.554688 44.195312 179.570312 39.359375 173.019531 35.375 C 163.957031 29.859375 153.988281 25.203125 143.53125 22.527344 C 125.484375 17.925781 107.792969 17.988281 90.457031 22.726562 C 71.964844 27.777344 54.351562 38.945312 42.066406 54.339844 C 39.210938 57.921875 36.347656 62.195312 33.460938 67.175781 C 28.964844 74.949219 25.84375 81.769531 24.109375 87.652344 C 22.371094 93.519531 21.394531 98.484375 21.171875 102.539062 C 20.8125 109.144531 20.363281 115.714844 19.824219 122.246094 Z M 19.824219 122.246094 " fill-opacity="1" fill-rule="nonzero"/><path fill="#1d1d1d" d="M 212.347656 83.90625 C 208.3125 83.777344 205.125 84.953125 202.785156 87.441406 C 198.199219 92.308594 198.378906 99.273438 203.117188 104.125 L 201.609375 105.699219 C 196.917969 102.089844 190.769531 101.234375 185.007812 101.234375 C 183.554688 89.820312 178.804688 80.433594 171.234375 71.78125 C 149.855469 47.332031 114.8125 41.230469 86.066406 55.011719 C 74.738281 60.441406 65.09375 70.59375 58.878906 81.332031 C 54.871094 88.269531 52.457031 96.4375 54.453125 104.363281 C 54.9375 106.300781 55.664062 108.460938 56.628906 110.847656 L 54.828125 115.25 C 54.757812 115.421875 54.503906 115.390625 54.476562 115.210938 C 53.046875 105.851562 47.53125 102.660156 38.675781 101.542969 C 34.125 100.976562 28.542969 101.046875 23.785156 101.695312 C 23.640625 101.714844 23.527344 101.84375 23.527344 101.988281 L 23.527344 111.253906 C 23.527344 111.4375 23.691406 111.578125 23.875 111.542969 C 28.964844 110.578125 35.835938 110.144531 40.335938 112.945312 C 40.902344 113.296875 41.332031 113.828125 41.558594 114.460938 L 42.378906 116.738281 C 42.65625 117.503906 41.804688 118.1875 41.113281 117.75 C 39.410156 116.667969 37.171875 116.167969 34.386719 116.257812 C 29.167969 116.421875 23.132812 118.007812 19.824219 122.246094 C 20.363281 115.714844 20.8125 109.144531 21.171875 102.539062 C 21.394531 98.484375 22.371094 93.519531 24.109375 87.652344 C 25.84375 81.769531 28.964844 74.949219 33.460938 67.175781 C 36.347656 62.195312 39.210938 57.921875 42.066406 54.339844 C 54.351562 38.945312 71.964844 27.777344 90.457031 22.726562 C 107.792969 17.988281 125.484375 17.925781 143.53125 22.527344 C 153.988281 25.203125 163.957031 29.859375 173.019531 35.375 C 179.570312 39.359375 185.554688 44.195312 190.980469 49.894531 C 200.074219 59.449219 206.796875 71.609375 212.347656 83.90625 Z M 212.347656 83.90625 " fill-opacity="1" fill-rule="nonzero"/><path fill="#282828" d="M 185.007812 101.234375 C 181.804688 101.09375 178.601562 101.257812 175.394531 101.71875 C 175.21875 101.75 175.085938 101.902344 175.085938 102.078125 L 175.085938 111.144531 C 175.085938 111.414062 175.332031 111.613281 175.59375 111.558594 C 179.121094 110.882812 182.667969 110.71875 186.230469 111.074219 C 190.59375 111.511719 193.925781 113.15625 193.867188 117.972656 C 193.867188 118.160156 193.664062 118.269531 193.5 118.175781 C 189.675781 115.863281 186.359375 116.023438 181.828125 116.726562 C 177.21875 117.4375 171.21875 120.195312 170.070312 124.984375 C 168.164062 132.933594 173.175781 139.292969 180.992188 140.269531 C 181.46875 141.757812 182.667969 142.460938 184.589844 142.371094 C 187.988281 142.21875 190.746094 141.238281 194.472656 141.570312 C 192.171875 141.550781 189.875 141.761719 187.582031 142.207031 C 184.960938 142.714844 183.039062 142.578125 180.636719 142.59375 C 180.367188 142.59375 180.140625 142.78125 180.082031 143.042969 C 178.765625 149.203125 175.878906 154.8125 171.421875 159.875 C 164.671875 167.53125 156.546875 174.25 147.367188 178.507812 C 136.730469 183.4375 125.703125 185.660156 114.292969 185.175781 C 96.402344 184.402344 77.625 175.472656 65.714844 161.90625 C 60.289062 155.726562 57.371094 148.527344 56.96875 140.300781 L 56.980469 135.113281 C 56.980469 134.796875 57.339844 134.625 57.582031 134.832031 C 59.617188 136.554688 61.601562 138.582031 63.851562 139.925781 C 68.257812 142.566406 74.710938 143.84375 79.769531 142.132812 C 84.175781 141.703125 87.835938 139.84375 90.746094 136.542969 C 90.808594 136.476562 90.804688 136.363281 90.734375 136.292969 L 90.710938 136.269531 C 90.640625 136.207031 90.535156 136.199219 90.464844 136.265625 C 88.105469 138.433594 85.445312 140.136719 82.492188 141.371094 C 84.800781 140.089844 86.695312 138.933594 88.164062 137.90625 C 90.03125 136.601562 92.703125 134.191406 91.527344 131.597656 C 91.957031 131.027344 92.21875 130.425781 92.3125 129.800781 C 92.34375 129.589844 92.242188 129.378906 92.0625 129.273438 L 83.4375 124.296875 C 83.304688 124.21875 83.132812 124.261719 83.058594 124.386719 C 82.25 125.679688 81.246094 126.785156 80.035156 127.707031 C 76.144531 130.660156 70.84375 129.828125 68.625 125.285156 C 66.296875 120.511719 67.785156 112.8125 74.101562 111.804688 C 77.542969 111.253906 80.15625 112.628906 81.945312 115.929688 C 82.0625 116.144531 82.332031 116.214844 82.542969 116.09375 C 84.375 115 87.035156 113.488281 90.527344 111.566406 C 90.875 111.371094 91.347656 111.050781 91.9375 110.601562 C 92.828125 109.925781 93.945312 109.761719 95.289062 110.097656 C 95.460938 110.144531 95.578125 110.296875 95.566406 110.472656 C 95.253906 115.058594 95.003906 119.089844 94.824219 122.558594 C 94.511719 128.449219 95.511719 136.753906 101.90625 138.632812 C 105.453125 139.675781 109.242188 140.007812 113.273438 139.632812 C 113.449219 139.617188 113.582031 139.46875 113.582031 139.292969 L 113.582031 130.390625 C 113.582031 130.164062 113.40625 129.96875 113.179688 129.953125 C 110.027344 129.699219 108.390625 128.160156 108.265625 125.332031 C 108.085938 121.089844 108.183594 116.222656 108.574219 110.730469 C 108.59375 110.460938 108.820312 110.253906 109.089844 110.253906 L 112.683594 110.253906 C 112.929688 110.253906 113.132812 110.074219 113.167969 109.828125 L 114.246094 101.972656 C 114.269531 101.789062 114.128906 101.625 113.945312 101.625 L 108.863281 101.625 C 108.699219 101.625 108.5625 101.492188 108.5625 101.328125 L 108.5625 88.023438 C 108.5625 87.855469 108.394531 87.738281 108.238281 87.796875 L 95.730469 92.3125 C 95.582031 92.359375 95.488281 92.5 95.488281 92.652344 L 95.488281 101.34375 C 95.488281 101.503906 95.367188 101.625 95.214844 101.625 L 92.320312 101.625 C 92.054688 101.625 91.832031 101.820312 91.796875 102.078125 L 90.980469 108.085938 C 90.957031 108.242188 90.757812 108.296875 90.65625 108.171875 C 81.375 96.910156 64.320312 98.433594 56.628906 110.847656 C 55.664062 108.460938 54.9375 106.300781 54.453125 104.363281 C 52.457031 96.4375 54.871094 88.269531 58.878906 81.332031 C 65.09375 70.59375 74.738281 60.441406 86.066406 55.011719 C 114.8125 41.230469 149.855469 47.332031 171.234375 71.78125 C 178.804688 80.433594 183.554688 89.820312 185.007812 101.234375 Z M 130.777344 86.941406 C 130.90625 86.761719 130.777344 86.503906 130.546875 86.503906 L 112.824219 86.625 C 112.59375 86.632812 112.464844 86.890625 112.601562 87.070312 L 121.550781 98.910156 C 121.664062 99.058594 121.882812 99.058594 121.988281 98.910156 Z M 149.015625 142.214844 C 149.421875 142.378906 149.773438 142.726562 150.070312 143.261719 C 150.296875 143.664062 150.878906 143.675781 151.121094 143.277344 L 153.410156 139.527344 C 154.117188 138.699219 154.757812 137.8125 155.3125 136.871094 C 157.972656 132.390625 160.367188 127.734375 162.488281 122.898438 C 165.515625 119.09375 167.671875 116.023438 168.960938 113.6875 C 171.136719 109.726562 172.363281 106.363281 170.515625 101.890625 L 156.054688 101.789062 C 155.785156 101.789062 155.535156 101.941406 155.417969 102.1875 L 149.222656 115.050781 C 149.117188 115.273438 148.800781 115.269531 148.695312 115.046875 L 142.558594 102.175781 C 142.417969 101.882812 142.121094 101.695312 141.792969 101.695312 L 115.355469 101.695312 C 115.234375 101.695312 115.132812 101.796875 115.132812 101.917969 L 115.132812 139.511719 C 115.132812 139.691406 115.28125 139.839844 115.457031 139.839844 L 127.378906 139.839844 C 127.789062 139.839844 128.113281 139.503906 128.113281 139.09375 L 128.113281 103.726562 C 128.113281 103.480469 128.441406 103.398438 128.554688 103.613281 Z M 73.003906 114.941406 C 73.003906 114.921875 72.984375 114.90625 72.96875 114.90625 C 72.949219 114.90625 72.933594 114.921875 72.933594 114.941406 C 72.933594 114.957031 72.949219 114.976562 72.96875 114.976562 C 72.984375 114.976562 73.003906 114.957031 73.003906 114.941406 Z M 91.613281 135.078125 C 91.59375 135.066406 91.523438 135.117188 91.460938 135.199219 C 91.402344 135.28125 91.367188 135.363281 91.386719 135.378906 C 91.40625 135.390625 91.476562 135.339844 91.539062 135.257812 C 91.597656 135.175781 91.632812 135.09375 91.613281 135.078125 Z M 91.613281 135.078125 " fill-opacity="1" fill-rule="nonzero"/><path fill="#fed123" d="M 212.347656 83.90625 C 219.230469 85.046875 223.1875 89.851562 222.832031 96.8125 C 222.699219 99.398438 221.597656 101.742188 219.53125 103.855469 C 215.074219 108.40625 207.886719 108.5 203.117188 104.125 C 198.378906 99.273438 198.199219 92.308594 202.785156 87.441406 C 205.125 84.953125 208.3125 83.777344 212.347656 83.90625 Z M 221.140625 95.625 C 221.140625 90.136719 216.691406 85.683594 211.203125 85.683594 C 205.714844 85.683594 201.261719 90.136719 201.261719 95.625 C 201.261719 101.113281 205.714844 105.5625 211.203125 105.5625 C 216.691406 105.5625 221.140625 101.113281 221.140625 95.625 Z M 221.140625 95.625 " fill-opacity="1" fill-rule="nonzero"/><path fill="#101010" d="M 221.140625 95.625 C 221.140625 101.113281 216.691406 105.5625 211.203125 105.5625 C 205.714844 105.5625 201.261719 101.113281 201.261719 95.625 C 201.261719 90.136719 205.714844 85.683594 211.203125 85.683594 C 216.691406 85.683594 221.140625 90.136719 221.140625 95.625 Z M 208.378906 93.015625 L 207.902344 93.015625 C 207.675781 93.015625 207.488281 92.828125 207.488281 92.601562 L 207.488281 90.480469 C 207.488281 90.246094 207.253906 90.078125 207.027344 90.160156 L 204.65625 91.019531 C 204.441406 91.097656 204.300781 91.300781 204.300781 91.527344 L 204.300781 92.273438 C 204.300781 92.535156 204.160156 92.78125 203.925781 92.910156 C 203.300781 93.273438 203.066406 93.949219 203.222656 94.953125 C 203.257812 95.171875 203.433594 95.34375 203.65625 95.371094 C 203.789062 95.390625 203.867188 95.402344 203.890625 95.40625 C 204.113281 95.476562 204.253906 95.695312 204.222656 95.921875 C 204.183594 96.257812 204.140625 97.179688 204.101562 98.683594 C 204.023438 101.503906 205.464844 102.714844 208.417969 102.316406 C 208.546875 102.300781 208.640625 102.195312 208.640625 102.066406 L 208.640625 100.480469 C 208.640625 100.28125 208.515625 100.105469 208.332031 100.039062 C 206.984375 99.550781 207.347656 97.105469 207.421875 95.980469 C 207.441406 95.734375 207.605469 95.523438 207.832031 95.441406 L 208.464844 95.214844 C 208.644531 95.148438 208.761719 94.980469 208.761719 94.792969 L 208.761719 93.394531 C 208.761719 93.183594 208.585938 93.015625 208.378906 93.015625 Z M 214.320312 102.632812 C 214.457031 102.632812 214.570312 102.539062 214.664062 102.347656 C 216.035156 99.679688 217.601562 96.699219 219.363281 93.417969 C 219.46875 93.226562 219.328125 92.992188 219.105469 92.992188 L 216.355469 92.992188 C 216.074219 92.992188 215.816406 93.15625 215.703125 93.414062 C 215.355469 94.171875 214.96875 95.066406 214.554688 96.09375 C 214.519531 96.175781 214.445312 96.214844 214.328125 96.214844 C 214.210938 96.214844 214.132812 96.175781 214.097656 96.09375 C 213.683594 95.0625 213.300781 94.171875 212.957031 93.40625 C 212.839844 93.15625 212.582031 92.984375 212.300781 92.984375 L 209.554688 92.980469 C 209.332031 92.980469 209.191406 93.214844 209.296875 93.40625 C 211.050781 96.695312 212.605469 99.671875 213.96875 102.347656 C 214.0625 102.53125 214.179688 102.632812 214.320312 102.632812 Z M 214.320312 102.632812 " fill-opacity="1" fill-rule="nonzero"/><path fill="#fed123" d="M 130.777344 86.941406 L 121.988281 98.910156 C 121.882812 99.058594 121.664062 99.058594 121.550781 98.910156 L 112.601562 87.070312 C 112.464844 86.890625 112.59375 86.632812 112.824219 86.625 L 130.546875 86.503906 C 130.777344 86.503906 130.90625 86.761719 130.777344 86.941406 Z M 130.777344 86.941406 " fill-opacity="1" fill-rule="nonzero"/><path fill="#fed123" d="M 91.527344 131.597656 C 87.765625 136.785156 82.625 139.6875 76.089844 140.292969 C 66.984375 141.136719 58.886719 137.054688 55.417969 128.371094 C 55.335938 128.167969 55.03125 128.21875 55.03125 128.441406 L 55.03125 139.421875 C 55.03125 139.667969 54.832031 139.867188 54.59375 139.867188 L 42.242188 139.867188 C 42.078125 139.867188 41.949219 139.734375 41.949219 139.570312 L 41.949219 137.476562 C 41.949219 137.300781 41.75 137.195312 41.605469 137.292969 C 35.515625 141.503906 26.382812 141.839844 21 136.066406 C 17.65625 132.480469 17.054688 126.371094 19.824219 122.246094 C 23.132812 118.007812 29.167969 116.421875 34.386719 116.257812 C 37.171875 116.167969 39.410156 116.667969 41.113281 117.75 C 41.804688 118.1875 42.65625 117.503906 42.378906 116.738281 L 41.558594 114.460938 C 41.332031 113.828125 40.902344 113.296875 40.335938 112.945312 C 35.835938 110.144531 28.964844 110.578125 23.875 111.542969 C 23.691406 111.578125 23.527344 111.4375 23.527344 111.253906 L 23.527344 101.988281 C 23.527344 101.84375 23.640625 101.714844 23.785156 101.695312 C 28.542969 101.046875 34.125 100.976562 38.675781 101.542969 C 47.53125 102.660156 53.046875 105.851562 54.476562 115.210938 C 54.503906 115.390625 54.757812 115.421875 54.828125 115.25 L 56.628906 110.847656 C 64.320312 98.433594 81.375 96.910156 90.65625 108.171875 C 90.757812 108.296875 90.957031 108.242188 90.980469 108.085938 L 91.796875 102.078125 C 91.832031 101.820312 92.054688 101.625 92.320312 101.625 L 95.214844 101.625 C 95.367188 101.625 95.488281 101.503906 95.488281 101.34375 L 95.488281 92.652344 C 95.488281 92.5 95.582031 92.359375 95.730469 92.3125 L 108.238281 87.796875 C 108.394531 87.738281 108.5625 87.855469 108.5625 88.023438 L 108.5625 101.328125 C 108.5625 101.492188 108.699219 101.625 108.863281 101.625 L 113.945312 101.625 C 114.128906 101.625 114.269531 101.789062 114.246094 101.972656 L 113.167969 109.828125 C 113.132812 110.074219 112.929688 110.253906 112.683594 110.253906 L 109.089844 110.253906 C 108.820312 110.253906 108.59375 110.460938 108.574219 110.730469 C 108.183594 116.222656 108.085938 121.089844 108.265625 125.332031 C 108.390625 128.160156 110.027344 129.699219 113.179688 129.953125 C 113.40625 129.96875 113.582031 130.164062 113.582031 130.390625 L 113.582031 139.292969 C 113.582031 139.46875 113.449219 139.617188 113.273438 139.632812 C 109.242188 140.007812 105.453125 139.675781 101.90625 138.632812 C 95.511719 136.753906 94.511719 128.449219 94.824219 122.558594 C 95.003906 119.089844 95.253906 115.058594 95.566406 110.472656 C 95.578125 110.296875 95.460938 110.144531 95.289062 110.097656 C 93.945312 109.761719 92.828125 109.925781 91.9375 110.601562 C 91.347656 111.050781 90.875 111.371094 90.527344 111.566406 C 87.035156 113.488281 84.375 115 82.542969 116.09375 C 82.332031 116.214844 82.0625 116.144531 81.945312 115.929688 C 80.15625 112.628906 77.542969 111.253906 74.101562 111.804688 C 67.785156 112.8125 66.296875 120.511719 68.625 125.285156 C 70.84375 129.828125 76.144531 130.660156 80.035156 127.707031 C 81.246094 126.785156 82.25 125.679688 83.058594 124.386719 C 83.132812 124.261719 83.304688 124.21875 83.4375 124.296875 L 92.0625 129.273438 C 92.242188 129.378906 92.34375 129.589844 92.3125 129.800781 C 92.21875 130.425781 91.957031 131.027344 91.527344 131.597656 Z M 30.980469 128.132812 C 30.957031 130.605469 33.503906 132.636719 36.671875 132.671875 C 39.84375 132.707031 42.4375 130.722656 42.460938 128.25 C 42.484375 125.773438 39.9375 123.746094 36.765625 123.710938 C 33.597656 123.675781 31.003906 125.65625 30.980469 128.132812 Z M 30.980469 128.132812 " fill-opacity="1" fill-rule="nonzero"/><path fill="#fed123" d="M 208.761719 93.394531 L 208.761719 94.792969 C 208.761719 94.980469 208.644531 95.148438 208.464844 95.214844 L 207.832031 95.441406 C 207.605469 95.523438 207.441406 95.734375 207.421875 95.980469 C 207.347656 97.105469 206.984375 99.550781 208.332031 100.039062 C 208.515625 100.105469 208.640625 100.28125 208.640625 100.480469 L 208.640625 102.066406 C 208.640625 102.195312 208.546875 102.300781 208.417969 102.316406 C 205.464844 102.714844 204.023438 101.503906 204.101562 98.683594 C 204.140625 97.179688 204.183594 96.257812 204.222656 95.921875 C 204.253906 95.695312 204.113281 95.476562 203.890625 95.40625 C 203.867188 95.402344 203.789062 95.390625 203.65625 95.371094 C 203.433594 95.34375 203.257812 95.171875 203.222656 94.953125 C 203.066406 93.949219 203.300781 93.273438 203.925781 92.910156 C 204.160156 92.78125 204.300781 92.535156 204.300781 92.273438 L 204.300781 91.527344 C 204.300781 91.300781 204.441406 91.097656 204.65625 91.019531 L 207.027344 90.160156 C 207.253906 90.078125 207.488281 90.246094 207.488281 90.480469 L 207.488281 92.601562 C 207.488281 92.828125 207.675781 93.015625 207.902344 93.015625 L 208.378906 93.015625 C 208.585938 93.015625 208.761719 93.183594 208.761719 93.394531 Z M 208.761719 93.394531 " fill-opacity="1" fill-rule="nonzero"/><path fill="#fed123" d="M 214.328125 96.214844 C 214.445312 96.214844 214.519531 96.175781 214.554688 96.09375 C 214.96875 95.066406 215.355469 94.171875 215.703125 93.414062 C 215.816406 93.15625 216.074219 92.992188 216.355469 92.992188 L 219.105469 92.992188 C 219.328125 92.992188 219.46875 93.226562 219.363281 93.417969 C 217.601562 96.699219 216.035156 99.679688 214.664062 102.347656 C 214.570312 102.539062 214.457031 102.632812 214.320312 102.632812 C 214.179688 102.632812 214.0625 102.53125 213.96875 102.347656 C 212.605469 99.671875 211.050781 96.695312 209.296875 93.40625 C 209.191406 93.214844 209.332031 92.980469 209.554688 92.980469 L 212.300781 92.984375 C 212.582031 92.984375 212.839844 93.15625 212.957031 93.40625 C 213.300781 94.171875 213.683594 95.0625 214.097656 96.09375 C 214.132812 96.175781 214.210938 96.214844 214.328125 96.214844 Z M 214.328125 96.214844 " fill-opacity="1" fill-rule="nonzero"/><path fill="#fed123" d="M 185.007812 101.234375 C 190.769531 101.234375 196.917969 102.089844 201.609375 105.699219 C 204.125 108.476562 205.644531 111.90625 206.175781 115.992188 C 207.210938 123.957031 206.617188 131.378906 206.386719 139.464844 C 206.382812 139.6875 206.199219 139.867188 205.976562 139.867188 L 193.769531 139.867188 C 193.59375 139.867188 193.453125 139.726562 193.453125 139.550781 L 193.453125 137.394531 C 193.453125 137.246094 193.285156 137.160156 193.167969 137.246094 C 189.605469 139.804688 185.542969 140.808594 180.992188 140.269531 C 173.175781 139.292969 168.164062 132.933594 170.070312 124.984375 C 171.21875 120.195312 177.21875 117.4375 181.828125 116.726562 C 186.359375 116.023438 189.675781 115.863281 193.5 118.175781 C 193.664062 118.269531 193.867188 118.160156 193.867188 117.972656 C 193.925781 113.15625 190.59375 111.511719 186.230469 111.074219 C 182.667969 110.71875 179.121094 110.882812 175.59375 111.558594 C 175.332031 111.613281 175.085938 111.414062 175.085938 111.144531 L 175.085938 102.078125 C 175.085938 101.902344 175.21875 101.75 175.394531 101.71875 C 178.601562 101.257812 181.804688 101.09375 185.007812 101.234375 Z M 182.496094 128.15625 C 182.480469 130.628906 185.035156 132.648438 188.203125 132.671875 C 191.371094 132.695312 193.957031 130.707031 193.972656 128.238281 C 193.992188 125.761719 191.433594 123.746094 188.265625 123.722656 C 185.101562 123.699219 182.515625 125.6875 182.496094 128.15625 Z M 182.496094 128.15625 " fill-opacity="1" fill-rule="nonzero"/><path fill="#fed123" d="M 170.515625 101.890625 L 149.015625 142.214844 L 128.554688 103.613281 C 128.441406 103.398438 128.113281 103.480469 128.113281 103.726562 L 128.113281 139.09375 C 128.113281 139.503906 127.789062 139.839844 127.378906 139.839844 L 115.457031 139.839844 C 115.28125 139.839844 115.132812 139.691406 115.132812 139.511719 L 115.132812 101.917969 C 115.132812 101.796875 115.234375 101.695312 115.355469 101.695312 L 141.792969 101.695312 C 142.121094 101.695312 142.417969 101.882812 142.558594 102.175781 L 148.695312 115.046875 C 148.800781 115.269531 149.117188 115.273438 149.222656 115.050781 L 155.417969 102.1875 C 155.535156 101.941406 155.785156 101.789062 156.054688 101.789062 Z M 170.515625 101.890625 " fill-opacity="1" fill-rule="nonzero"/><path fill="#101010" d="M 170.515625 101.890625 C 172.363281 106.363281 171.136719 109.726562 168.960938 113.6875 C 167.671875 116.023438 165.515625 119.09375 162.488281 122.898438 C 159.59375 127.207031 157.007812 131.824219 154.738281 136.742188 C 154.304688 137.6875 153.859375 138.609375 153.410156 139.527344 L 151.121094 143.277344 C 150.878906 143.675781 150.296875 143.664062 150.070312 143.261719 C 149.773438 142.726562 149.421875 142.378906 149.015625 142.214844 Z M 170.515625 101.890625 " fill-opacity="1" fill-rule="nonzero"/><path fill="#101010" d="M 73.003906 114.941406 C 73.003906 114.964844 72.992188 114.976562 72.96875 114.976562 C 72.945312 114.976562 72.933594 114.964844 72.933594 114.941406 C 72.933594 114.917969 72.945312 114.90625 72.96875 114.90625 C 72.992188 114.90625 73.003906 114.917969 73.003906 114.941406 Z M 73.003906 114.941406 " fill-opacity="1" fill-rule="nonzero"/><path fill="#1d1d1d" d="M 162.488281 122.898438 C 160.367188 127.734375 157.972656 132.390625 155.3125 136.871094 C 154.757812 137.8125 154.117188 138.699219 153.410156 139.527344 C 153.859375 138.609375 154.304688 137.6875 154.738281 136.742188 C 157.007812 131.824219 159.59375 127.207031 162.488281 122.898438 Z M 162.488281 122.898438 " fill-opacity="1" fill-rule="nonzero"/><path fill="#1d1d1d" d="M 30.980469 128.132812 C 30.984375 127.835938 31.023438 127.546875 31.101562 127.257812 C 31.179688 126.96875 31.289062 126.691406 31.4375 126.421875 C 31.582031 126.152344 31.761719 125.894531 31.976562 125.652344 C 32.1875 125.410156 32.425781 125.183594 32.695312 124.980469 C 32.964844 124.773438 33.257812 124.59375 33.570312 124.433594 C 33.886719 124.273438 34.21875 124.136719 34.566406 124.027344 C 34.917969 123.917969 35.277344 123.839844 35.648438 123.785156 C 36.015625 123.730469 36.390625 123.707031 36.765625 123.710938 C 37.144531 123.714844 37.515625 123.746094 37.886719 123.808594 C 38.253906 123.871094 38.613281 123.957031 38.960938 124.074219 C 39.308594 124.191406 39.636719 124.332031 39.949219 124.5 C 40.257812 124.664062 40.546875 124.855469 40.8125 125.066406 C 41.074219 125.277344 41.3125 125.503906 41.519531 125.75 C 41.726562 126 41.898438 126.257812 42.039062 126.53125 C 42.179688 126.804688 42.289062 127.085938 42.359375 127.375 C 42.429688 127.664062 42.460938 127.957031 42.460938 128.25 C 42.457031 128.546875 42.417969 128.835938 42.339844 129.125 C 42.261719 129.410156 42.152344 129.691406 42.003906 129.960938 C 41.855469 130.230469 41.675781 130.488281 41.464844 130.730469 C 41.253906 130.972656 41.011719 131.195312 40.746094 131.402344 C 40.476562 131.605469 40.183594 131.789062 39.871094 131.949219 C 39.554688 132.109375 39.222656 132.246094 38.875 132.355469 C 38.523438 132.460938 38.164062 132.542969 37.792969 132.597656 C 37.421875 132.652344 37.050781 132.675781 36.671875 132.671875 C 36.296875 132.667969 35.925781 132.636719 35.554688 132.574219 C 35.1875 132.511719 34.828125 132.425781 34.480469 132.308594 C 34.132812 132.191406 33.804688 132.050781 33.492188 131.882812 C 33.183594 131.714844 32.894531 131.527344 32.628906 131.316406 C 32.367188 131.105469 32.128906 130.878906 31.921875 130.628906 C 31.714844 130.382812 31.542969 130.125 31.402344 129.851562 C 31.257812 129.578125 31.152344 129.296875 31.082031 129.007812 C 31.011719 128.71875 30.980469 128.425781 30.980469 128.132812 Z M 30.980469 128.132812 " fill-opacity="1" fill-rule="nonzero"/><path fill="#1d1d1d" d="M 182.496094 128.15625 C 182.5 127.863281 182.539062 127.570312 182.613281 127.285156 C 182.6875 126.996094 182.800781 126.71875 182.945312 126.449219 C 183.089844 126.175781 183.269531 125.921875 183.480469 125.675781 C 183.691406 125.433594 183.933594 125.210938 184.199219 125.003906 C 184.46875 124.796875 184.757812 124.613281 185.074219 124.453125 C 185.386719 124.292969 185.71875 124.15625 186.066406 124.046875 C 186.417969 123.9375 186.777344 123.855469 187.148438 123.800781 C 187.515625 123.746094 187.890625 123.71875 188.265625 123.722656 C 188.644531 123.722656 189.015625 123.753906 189.386719 123.816406 C 189.753906 123.875 190.113281 123.960938 190.460938 124.078125 C 190.808594 124.191406 191.136719 124.332031 191.449219 124.5 C 191.761719 124.664062 192.050781 124.851562 192.316406 125.0625 C 192.582031 125.269531 192.816406 125.5 193.023438 125.742188 C 193.230469 125.988281 193.40625 126.25 193.550781 126.519531 C 193.691406 126.792969 193.796875 127.074219 193.871094 127.363281 C 193.941406 127.652344 193.976562 127.941406 193.972656 128.238281 C 193.972656 128.53125 193.933594 128.820312 193.859375 129.109375 C 193.78125 129.398438 193.671875 129.675781 193.523438 129.945312 C 193.378906 130.21875 193.199219 130.472656 192.988281 130.714844 C 192.777344 130.960938 192.539062 131.183594 192.269531 131.390625 C 192.003906 131.59375 191.710938 131.777344 191.398438 131.941406 C 191.082031 132.101562 190.75 132.238281 190.402344 132.347656 C 190.054688 132.457031 189.695312 132.539062 189.324219 132.59375 C 188.953125 132.648438 188.582031 132.675781 188.203125 132.671875 C 187.828125 132.667969 187.453125 132.636719 187.085938 132.578125 C 186.714844 132.519531 186.359375 132.429688 186.011719 132.316406 C 185.664062 132.199219 185.332031 132.0625 185.019531 131.894531 C 184.710938 131.730469 184.421875 131.542969 184.15625 131.332031 C 183.890625 131.125 183.652344 130.894531 183.445312 130.648438 C 183.238281 130.402344 183.0625 130.144531 182.921875 129.871094 C 182.777344 129.601562 182.671875 129.320312 182.601562 129.03125 C 182.53125 128.742188 182.496094 128.449219 182.496094 128.15625 Z M 182.496094 128.15625 " fill-opacity="1" fill-rule="nonzero"/><path fill="#101010" d="M 91.613281 135.078125 C 91.636719 135.097656 91.613281 135.15625 91.539062 135.257812 C 91.460938 135.355469 91.414062 135.398438 91.386719 135.378906 C 91.363281 135.359375 91.386719 135.300781 91.460938 135.199219 C 91.535156 135.101562 91.585938 135.058594 91.613281 135.078125 Z M 91.613281 135.078125 " fill-opacity="1" fill-rule="nonzero"/><path fill="#1d1d1d" d="M 79.769531 142.132812 L 82.492188 141.371094 C 85.445312 140.136719 88.105469 138.433594 90.464844 136.265625 C 90.535156 136.199219 90.640625 136.207031 90.710938 136.269531 L 90.734375 136.292969 C 90.804688 136.363281 90.808594 136.476562 90.746094 136.542969 C 87.835938 139.84375 84.175781 141.703125 79.769531 142.132812 Z M 79.769531 142.132812 " fill-opacity="1" fill-rule="nonzero"/><path fill="#1d1d1d" d="M 56.96875 140.300781 C 57.371094 148.527344 60.289062 155.726562 65.714844 161.90625 C 77.625 175.472656 96.402344 184.402344 114.292969 185.175781 C 125.703125 185.660156 136.730469 183.4375 147.367188 178.507812 C 156.546875 174.25 164.671875 167.53125 171.421875 159.875 C 175.878906 154.8125 178.765625 149.203125 180.082031 143.042969 C 180.140625 142.78125 180.367188 142.59375 180.636719 142.59375 C 183.039062 142.578125 184.960938 142.714844 187.582031 142.207031 C 189.875 141.761719 192.171875 141.550781 194.472656 141.570312 L 199.621094 142.34375 C 199.785156 142.367188 199.917969 142.464844 199.992188 142.609375 C 201.789062 146.203125 202.160156 149.878906 201.09375 153.636719 C 200.492188 155.785156 199.636719 157.828125 198.53125 159.773438 C 190.316406 174.269531 178.097656 186.613281 164.167969 195.113281 C 147.472656 205.300781 126.980469 207.785156 107.644531 205.851562 C 90.335938 204.125 75.003906 197.921875 61.648438 187.257812 C 55.734375 182.539062 50.023438 176.546875 44.507812 169.277344 C 38.183594 160.9375 34.234375 152.3125 32.648438 143.378906 C 32.625 143.261719 32.707031 143.148438 32.824219 143.132812 C 35.597656 142.75 39.222656 141.703125 42.367188 141.902344 C 46.664062 142.179688 50.9375 142.253906 55.1875 142.125 C 55.375 142.121094 55.550781 142.039062 55.667969 141.890625 Z M 56.96875 140.300781 " fill-opacity="1" fill-rule="nonzero"/></svg>