<?xml version="1.0" encoding="utf-8"?>
<!-- Generator: Adobe Illustrator 27.7.0, SVG Export Plug-In . SVG Version: 6.00 Build 0)  -->
<svg version="1.1" id="Layer_1" xmlns="http://www.w3.org/2000/svg" xmlns:xlink="http://www.w3.org/1999/xlink" x="0px" y="0px"
	 viewBox="0 0 3500 3500" style="enable-background:new 0 0 3500 3500;" xml:space="preserve">
<style type="text/css">
	.st0{fill:#001740;}
	.st1{fill:#FC2334;}
	.st2{fill:#FFFFFF;}
</style>
<rect y="1261.9" class="st0" width="3500" height="976.2"/>
<circle class="st1" cx="3120.7" cy="1571.3" r="98.3"/>
<g>
	<path class="st2" d="M2629.2,1903.8c6.1,0.8,10.1,1.9,14.1,1.9c39.3,0,78.7,0,118,0c15.2,0,15.2-0.3,17.8-15.3
		c14.5-82.9,29-165.8,43.4-248.7c5.7-32.7,10.9-65.5,16.4-98.2c0.4-2.3,1-4.6,1.3-6.9c0.9-5.4,3.9-8.1,9.5-8.1
		c36.1,0,72.1,0,108.2,0c1.3,0,2.5,1,5.6,2.3c-27.1,160.9-55.6,321.7-83.4,484.1c-5.3,0.5-10.3,1.3-15.2,1.3c-215,0-430,0-645-0.1
		c-4.1,0-8.2-0.5-13.6-0.8c0-3.4-0.4-6.1,0-8.6c4.4-24.4,8.9-48.7,13.4-73.1c4.8-25.7,9.4-51.5,14.4-77.2c1.9-10,2.9-10.8,12.6-11.7
		c35.4-3.5,70.8-6.8,106.2-10.1c1.3-0.1,2.7,0.5,4.9,0.9c0,3.1,0.4,6.2,0,9.2c-2.5,16.2-5.2,32.3-7.9,48.4
		c-1.8,10.5-0.5,12.3,10.3,12.7c5.6,0.2,11.2,0,16.9,0c38.4,0,76.8,0,115.2,0c14,0,14.4-0.7,16.8-14.7
		c9.4-53.9,19.1-107.7,28.4-161.5c7.5-43.3,14.6-86.7,22-130c3.5-20.3,7.3-40.5,10.7-60.8c1.1-6.3,3.2-10.1,10.6-10.1
		c35.6,0.2,71.2,0,106.8,0c1.3,0,2.6,0.8,5.7,1.9c-10.5,61.9-20.9,124-31.6,186c-10.6,61.6-21.6,123.2-32.8,187.3L2629.2,1903.8z"/>
	<path class="st2" d="M181,2016.2c14.3-82.9,28.2-163.8,42.4-246.3c33.9,64.3,49.9,65.9,106.4,77.6c-1.1,9.8-1.7,20-3.5,29.9
		c-6.3,34.5-1.2,27.9,22.9,28.1c32.3,0.3,64.6,0.2,97,0c7,0,14-0.8,21-1.2c17.8-1,29.4-10.7,36.9-26.1c7.6-15.5,3.1-30.8-12-39.8
		c-11.2-6.6-23.5-9-36.4-9c-28.6,0-57.1,0.5-85.7,0c-21-0.3-42-1.4-62.8-5.7c-38.4-8-57.5-33.6-67.2-69.1
		c-8.7-31.8-3.1-63.1,2.2-94.5c4-23.5,8.3-46.9,12.5-70.4c3.5-19.8,7-39.5,10.7-60.5c6.1-0.4,11.6-1,17-1
		c87.6,0.2,175.2,0.5,262.8,0.6c19,0,37.2,3.1,54.8,10.3c42.8,17.5,64.5,58.3,60.4,99.6c-3.9,39.1-19.4,73.9-46.7,102.8
		c-1.3,1.3-2.8,2.4-5.5,4.6c-23.2-19.1-50.1-31.3-80.3-38.8c3.3-6.8,6.1-12,8.5-17.4c12.4-27.8-0.3-49.8-30.4-50.6
		c-37.9-0.9-75.9-0.8-113.8-0.2c-20.3,0.3-34.9,12-41.1,30.5c-8.2,24.4,5.3,45.7,31,48.5c5.1,0.6,10.3,0.2,15.4,0.3
		c32.3,0.7,64.6,0.7,96.9,2.3c20.2,1,39.7,6.5,58.5,14c47.6,19,73.4,54.2,78,105.3c1.9,21.4-0.5,42.1-8.5,61.9
		c-15.4,38.1-37.5,71.1-73.7,92.8c-16.2,9.7-33.4,16.1-52.4,18.8c-39.2,5.6-78.5,3.9-117.8,3.7c-61.4-0.3-122.7-0.6-184.1-0.9
		c-3.7,0-7.3,0-13.5,0L181,2016.2z"/>
	<path class="st2" d="M1974.9,1529.4h121.3c0.2,2.8,0.8,5.5,0.4,8c-13.1,75.6-26.2,151.1-39.4,226.6c-1.8,10.6-3.8,21.2-5.3,31.8
		c-0.4,2.8,0.9,5.8,1.9,11.3c4.4-4.2,7.2-6.4,9.4-9.1c50.8-63.6,101.5-127.3,152.2-191c18.1-22.7,36.2-45.4,53.8-68.4
		c6-7.9,12.6-10.5,22.6-10.2c35.1,0.8,70.3,0.4,105.4,0.4c4.6,0,9.1,0,15.4,0c-0.8,5.9-1.2,10.4-1.9,14.8
		c-6.2,35.9-12.4,71.9-18.7,107.8c-7.5,42.8-15.2,85.6-22.8,128.4c-1.4,7.8-2.5,15.7-3.9,23.5c-1,5.6-4,8.9-10.3,9.5
		c-36.4,3.2-72.7,6.6-109.1,9.9c-1.3,0.1-2.7-0.5-5-0.9c3.3-27.4,10.3-54.2,13.1-81.6c-7.8-1.2-9.9,3.4-12.7,7
		c-34.1,42.2-68.3,84.4-102.4,126.5c-35.1,43.3-70.5,86.2-105,129.9c-7.5,9.5-15.5,13-27.4,12.8c-36.1-0.6-72.1,0-108.2,0
		c-1.8,0-3.6-0.4-7.4-0.8c13.9-81.3,27.9-162,41.9-242.8C1946.9,1691.8,1960.9,1610.9,1974.9,1529.4L1974.9,1529.4z"/>
	<path class="st2" d="M1202.4,2015.1c-21,2.9-106,1.5-116.6-2.2c29.7-160.8,55.2-322.5,83.9-483.9c8.8,0,15.8,0,22.7,0
		c72.6,0,145.1,0,217.7,0c14.5,0,29-0.5,43.4,0.6c51.7,3.8,87.2,36.4,94.3,87.5c2.3,16.5,3.5,33.8,1,50.2
		c-5.7,37.3-12.2,74.7-21.6,111.3c-16.2,63.4-59.4,101.2-121.6,117.5c-16.1,4.2-33.3,5.6-50.1,6c-38.8,0.9-77.7,0.5-116.5,0.6
		c-16.5,0-17.6,1.2-20.2,17.9c-4.2,26.8-8.7,53.5-13.2,80.2C1204.8,2005.8,1203.4,2010.7,1202.4,2015.1L1202.4,2015.1z
		 M1244.2,1783.3c4.9,0.9,8.1,2,11.2,2c39.3,0,78.7,0.6,118-0.5c29.3-0.8,41.1-14.8,46.6-36.6c5.3-20.8,10.1-41.8,13.3-63
		c4-27.4-13-46.2-40.6-46.4c-34.2-0.2-68.4-0.1-102.5,0c-22.4,0-23,0.7-26.4,22.8c-2.9,18.9-6.2,37.8-9.2,56.7
		C1251.2,1739.4,1247.9,1760.6,1244.2,1783.3L1244.2,1783.3z"/>
	<path class="st2" d="M606.7,2015.3c9.5-18.8,18.6-36.6,27.6-54.4c47-92.5,94-185,141.2-277.5c24.6-48.3,49.7-96.3,74.1-144.7
		c4-8,8.8-10.2,17.5-10c33.2,0.6,66.5,0.2,99.7,0.1c11.5,0,12.6,0.5,14.5,12.1c8.7,53,17.1,106.1,25.7,159.2
		c8.1,49.8,16.5,99.6,24.6,149.4c7.4,45.2,14.5,90.4,21.8,135.7c1.6,10,3.2,19.9,4.9,30.9h-300c1-3.7,1.3-6.4,2.4-8.7
		c15.3-30,31-59.8,45.8-90c4.4-9,10-12,19.7-11.7c22.9,0.6,45.9,0.2,68.8,0.2c3.3,0,6.6,0.2,9.8-0.1c8.8-0.7,10.6-2.6,9.4-11.6
		c-1.7-13-4.2-25.8-6.2-38.8c-6.4-39.7-12.7-79.4-19.1-119c-0.8-4.7,0.1-10.7-8-12.6c-1.9,3.2-4.1,6.6-5.9,10.2
		c-32.9,64.5-65.8,129.1-98.7,193.6c-12.9,25.4-26.1,50.7-38.6,76.3c-4.5,9.2-10.3,12.9-20.6,12.7c-34.6-0.5-69.3-0.1-103.9-0.1
		C611.5,2016.5,609.8,2016,606.7,2015.3L606.7,2015.3z"/>
	<path class="st2" d="M1549.5,1828.3c6.7-38.1,13.1-74.7,19.8-112.7c6.7-0.4,12.6-1,18.5-1c58.5,0,117.1-0.2,175.6,0.1
		c11.9,0,22.4-1.6,30-11.5c8.8-11.4,14.6-24,12.6-39c-1.8-12.9-13.3-23.8-26.6-25.2c-3.7-0.4-7.5-0.2-11.2-0.2
		c-55.7,0-111.5,0-167.2,0c-5.4,0-10.9-0.7-18.4-1.1c6.3-36.9,12.4-72.2,18.5-107.8c3.6-0.5,6.3-1.1,9-1.1c71.7,0,143.3,0,215,0.2
		c27.4,0,51.3,9.7,71.5,28.1c23,21,32.6,47.9,30,78.3c-4.4,51.1-26.8,92.7-68.4,123.5c-2.6,1.9-5.3,3.8-7.9,5.8
		c-0.6,0.5-0.8,1.6-1.8,3.9c2.3,2.5,5,5.5,7.7,8.5c18.8,20.7,30.1,44.5,31.5,73c4.6,89-60,164.8-159,165.8
		c-61.8,0.6-123.6,0.2-185.4,0.2c-7.9,0-15.7,0-24.4,0c-0.2-2.9-0.9-5.2-0.5-7.3c5.3-31.3,10.9-62.6,16.1-94
		c1.2-6.9,4.8-9.4,11.5-9.3c15.5,0.1,30.9,0,46.4,0c44,0,88,0,132.1,0c23.1,0,37.5-10.2,47-30.8c9.9-21.7-7.6-47.8-30.9-47.1
		c-59.9,1.6-119.9,0.6-179.8,0.7C1557.7,1828.3,1554.5,1828.3,1549.5,1828.3L1549.5,1828.3z"/>
	<path class="st2" d="M3201.4,1529.8c-3,6.4-5.9,12.6-8.9,18.8c-8,16.3-15.9,32.7-24.1,48.9c-4.7,9.4-13.7,12.9-23.2,9
		c-2.5-1-5.5-4.2-5.9-6.8c-3.5-22.9-6.4-46-9.4-68.7c14.3-5.9,17.9-4.3,19.9,8.9c1.2,8.3,1.6,16.7,2.5,25c0.4,3.9,1.2,7.7,1.7,11.4
		c7.3-0.2,8-4.9,9.6-8.5c4.1-9.4,8-18.9,12.3-28.2C3181.8,1526.8,3184.8,1525.6,3201.4,1529.8L3201.4,1529.8z"/>
	<path class="st2" d="M3065.8,1605.2c3.2-18.9,6.3-37.1,9.5-56.2c-3.8-1.3-6.7-2.7-9.7-3.1c-5.6-0.7-8.7-3.1-8.2-9s3.4-9.5,9.8-9.5
		c14,0,28.1,0,42.1,0.1c4.8,0,8.3,2.1,7.9,7.6c-0.3,4.9-1.7,9-7.6,10.2c-14.9,2.8-14.8,2.9-17.3,17.4c-1.8,10.6-3.6,21.2-5.7,31.7
		c-2.6,12.8-4.6,13.9-20.8,10.7V1605.2z"/>
</g>
</svg>
