<?xml version="1.0" encoding="utf-8"?>
<!-- Generator: Adobe Illustrator 27.7.0, SVG Export Plug-In . SVG Version: 6.00 Build 0)  -->
<svg version="1.1" id="Layer_1" xmlns="http://www.w3.org/2000/svg" xmlns:xlink="http://www.w3.org/1999/xlink" x="0px" y="0px"
	 viewBox="0 0 3500 3500" style="enable-background:new 0 0 3500 3500;" xml:space="preserve">
<style type="text/css">
	.st0{fill:#FFFFFF;}
	.st1{fill:#FDC424;}
	.st2{fill:#5A5E69;}
	.st3{fill:#FFFEFD;}
	.st4{fill:#FED76B;}
	.st5{fill:#FEE8A9;}
	.st6{fill:#FFFEFA;}
	.st7{fill:#686C76;}
	.st8{fill:#72767F;}
	.st9{fill:#FFFEFB;}
	.st10{fill:#E7E8E9;}
</style>
<g>
	<path class="st0" d="M0,1518.1c0-47.6,0-95.3,0-142.9c1058.4,0,2116.9,0,3175.3,0c-10.3,19.8-25.8,35.7-25.6,61.9
		c1.5,155,0.8,310,0.8,465c-0.4,2.4-0.9,4.8-1.3,7.3c5.3,8.3,9.5,17.8,16.3,24.7c12.9,13.1,29.9,25,47.7,18.1
		c20.2-7.8,42.9-18.2,44.2-45.5c1.6-34.3,2-68.6,3-103c1.3-1,2.6-2.1,3.9-3.1c6.6-2.3,13.2-6.5,19.8-6.7c41-1,80,26.4,92.7,65.1
		c3.6,10.9,4.6,22.7,7.2,34c5.6,24.6,16.6,47.1,41.8,55.1c21.2,6.8,43.1,4.1,59.6-15.2c3.2-3.7,9.7-4.5,14.8-6.7
		c0,65.8,0,131.6,0,197.3c-1166.7,0-2333.3,0-3500,0c0-170.1,0-340.2,0-510.4c47.6,0,95.2,0,144.5,0c0,116.6,0,229.6,0,343.6
		c22.2,0,42.6,0.1,63.1,0c37-0.2,55.6-18.9,55.6-56.1c0-89,0-177.9,0-266.9c0-6,0-12,0-16.6c2.6-1.7,3.1-2.3,3.5-2.3
		c33.6-0.2,67.1-0.2,100.7-0.6c20.8-0.3,36.9-10.5,38.4-28.1c2.1-26.2,0.5-52.6,0.5-79.6c-7.3,0-12.4,0-17.5,0
		c-118.4,0-236.8,0.1-355.2-0.2C20.6,1506.7,9.2,1508.4,0,1518.1z M1008.3,1956.5c22.2,0.2,44.4,1.2,66.6,0.3
		c18.1-0.7,35-6.9,42.8-24.5c4.4-9.8,6.4-21.5,6.4-32.3c0.5-88.4,0.3-176.8,0.3-265.2c0-6.1,0-12.2,0-20c7.7,0,13.9,0,20,0
		c29,0,58.1,0.3,87.1-0.2c18.8-0.4,34.8-12.3,35.9-29.2c1.6-25.8,0.4-51.7,0.4-78.4c-8.3,0-14.5,0-20.8,0c-116.1,0-232.3,0-348.4,0
		c-6.3,0-13.6-1.8-18.5,0.7c-7.2,3.7-17.6,10.4-18,16.4c-1.8,29.7-0.8,59.7-0.8,91.3c48.9,0,95.8,0,143.7,0c0,8,0,14.2,0,20.4
		c0.2,106,0.4,211.9,0.6,317.9C1006.6,1954.6,1007.5,1955.5,1008.3,1956.5z M1342.8,1712.1c-4,5-8.1,10.1-12.1,15.1
		c4,2.9,8,5.8,12,8.7c3,96.2,66.2,174.3,148.1,203.5c91.6,32.7,186.1,8.7,257.8-74.8c-1.9-6.2-5.2-12-5.1-17.7
		c0.2-24-10.2-42.4-31.6-51.4c-24.5-10.4-47.1-5.3-67.8,13.6c-56.6,51.5-132.2,35.6-168.6-18.9c-42-63-13.7-131.8,44.5-162.9
		c38.9-20.8,92.5-9,127.2,21.2c15.9,13.9,32.6,23.6,54.7,15.6c43.3-15.8,56.9-59.9,28.5-92.2c-37.7-43-88.9-62.3-144.8-67
		c-53.9-4.6-104.2,7.4-148.5,40.6C1381,1587.4,1347.9,1641.8,1342.8,1712.1z M2649.7,1630.3c0.8-1.2,1.7-2.4,2.5-3.6
		c6.6-18.7,6.2-38.6-7.5-51.9c-18.2-17.8-39.3-33.7-61.7-45.8c-24.1-13.1-51.1-20.9-77-30.6c-2.2-0.8-5.2,0.9-7.9,1.4
		c-9.3,1.6-18.6,3.2-27.9,4.7c-23.1,3.8-47.6,3.8-69.1,11.8c-92.9,34.9-161.4,132.1-145.9,239.6c9,62.3,37.7,111.9,85.9,149.7
		c48.4,37.9,104.2,53.5,166.6,44.9c49.9-6.8,92.6-25.9,127-62.7c5.3-5.7,11.1-11.4,15.1-18c12.8-21.2,2.2-52.7-21.1-70.6
		c-15.6-12-45.5-11.7-64.6,2.3c-29,21.3-56.4,49.9-98.5,30c-1.4-0.7-4,2-6.1,2c-5.5,0-11.2,0.2-16.5-1.1
		c-47.8-11.7-88.1-74.3-74-126.9c10.4-39,32.4-68.1,72-82.4c45.5-16.4,84.5-2.5,118.3,26.8
		C2590.4,1676.9,2632.7,1666.2,2649.7,1630.3z M437.5,1956.5c21.6,0.2,43.3,1.2,64.9,0.4c25.6-0.9,51.8-14.4,48.3-49.3
		c-2-20.5-0.4-41.4-0.4-63c31.4,0,60.4-0.4,89.4,0.4c5.2,0.1,11.9,4,15,8.2c21.3,29.4,41.4,59.6,63,88.8c4.5,6.1,13.8,12,21,12.2
		c33.6,1.3,67.2,0.6,100.8,0.5c4.1,0,8.1-1.1,13.9-1.9c-31.4-44.2-61.3-86.5-89.7-126.5c14.8-14.1,30.6-26.1,42.4-41.1
		c45.9-58.3,51.6-123,20.6-188.6c-28-59.2-82.3-82.8-144.6-88.2c-35.6-3.1-71.7-1.3-107.6-1.5c-36.5-0.2-72.9-0.3-109.4,0.2
		c-19.6,0.3-30.8,10.5-30.8,28.1c-0.1,139.5,0.1,279,0.3,418.5C435.7,1954.6,436.6,1955.5,437.5,1956.5z M2232.2,1715.4
		c2.2-119.1-102.5-220-233.2-220.6c-133.5-0.7-232.9,105.8-234.9,230.4c-1.1,71.7,28,131.5,81.9,179.7c56,50,124.4,57.4,194.9,58.7
		c44.9-24.2,97.2-34.8,131.8-77.9C2210,1839.4,2232.8,1789,2232.2,1715.4z M2675.7,1731.9c2.3,55,21.4,106,61.1,146.8
		c46.3,47.6,101.4,79.1,171.4,75.1c8.1-0.5,16.6,2.4,24.3,0.8c10.2-2.1,19.5-7.8,29.5-10.7c75.8-21.8,127.4-69.3,154.8-142.9
		c3.8-10.4,8.5-20.8,10-31.5c3.2-21.7,4.7-43.7,6.5-65.6c0.3-3.4-1.6-7.1-3-10.6c-2.1-5.6-5.4-10.8-6.8-16.5
		c-10.7-42.2-31.7-78.1-61.2-110.4c-11-12.1-21.1-14.2-35.3-14.4c-25.1-0.3-43.9,9.8-55.1,31.8c-11,21.7-5.7,41.8,7.9,61.5
		c13.4,19.5,36.8,35,28.7,64.2c15.5,15.6,2.4,32.7-0.2,47.3c-10.1,57.8-75.7,94.4-131.9,78.4c-86.4-24.6-112.6-117.6-53.6-184.3
		c21.4-24.2,22.8-60.7,0.3-83.2c-21.9-21.9-57.7-20.8-81.6,3.4C2698.1,1615,2678.2,1668.8,2675.7,1731.9z M1556.8,2122.4
		c4.8-7.4,10.8-12.9,12.2-19.4c4.4-20,14-32.6,35.9-35.5c5.6-0.7,12.8-8.2,14.2-13.9c1-3.9-5.6-11.4-10.6-14.8
		c-15.9-10.7-27.2-22.6-23-43.9c1-5-2.1-15.1-5-15.8c-6.4-1.5-16.2-0.9-20.5,3.1c-14.8,13.7-29.5,15.2-48.2,8.8
		c-19.3-6.6-28.1,0.7-20.4,18.7c9.5,22.1,1.4,36.9-10.1,53.3c-8.7,12.4-4.1,24.4,10.4,22.5c26.4-3.4,42,8.4,55.1,28.2
		C1548.6,2116.3,1551.8,2118,1556.8,2122.4z"/>
	<path class="st1" d="M3260.3,1803.8c-0.9,34.3-1.3,68.7-3,103c-1.3,27.3-24,37.7-44.2,45.5c-17.8,6.9-34.8-5-47.7-18.1
		c-6.8-6.9-10.9-16.4-16.3-24.7c0.4-2.4,0.9-4.8,1.3-7.3c0-155,0.7-310-0.8-465c-0.3-26.2,15.3-42.1,25.6-61.9c14.8,0,29.6,0,44.4,0
		c32.9,16.5,41.7,44,40.8,79.1c-1.7,69.6-0.5,139.2-0.5,208.8c0,6,0.6,11.9,1,20.6c17.8-3.3,33-6.4,48.4-8.9
		c29.6-4.9,59.9-34.1,68-63.4c6.4-23.3,13.1-47,23.5-68.7c8.9-18.6,34.2-24.7,54.4-19.7c25.1,6.2,34.6,26.2,44.6,46.1
		c0,11.3,0,22.7,0,34c-2,2.6-5.2,5-5.7,7.9c-8.5,44.2-25.5,84.3-55.1,118.8c-2.4,2.8-1.6,11.3,0.9,15
		c21.9,31.4,41.4,63.9,52.2,100.9c1.9,6.6,5.1,12.9,7.7,19.3c0,20.4,0,40.8,0,61.2c-5,2.1-11.6,3-14.8,6.7
		c-16.5,19.3-38.4,22-59.6,15.2c-25.2-8.1-36.2-30.5-41.8-55.1c-2.6-11.3-3.6-23.1-7.2-34c-12.7-38.7-51.7-66.2-92.7-65.1
		c-6.7,0.2-13.2,4.4-19.8,6.7c-1.5-1.8-3-3.6-4.5-5.4c-0.7,0.4-1.4,0.8-2.1,1.2C3258.5,1798.9,3259.4,1801.4,3260.3,1803.8z"/>
	<path class="st2" d="M0,1518.1c9.2-9.7,20.6-11.5,33.6-11.4c118.4,0.3,236.8,0.2,355.2,0.2c5.1,0,10.2,0,17.5,0
		c0,27,1.5,53.4-0.5,79.6c-1.4,17.7-17.5,27.8-38.4,28.1c-33.6,0.5-67.1,0.4-100.7,0.6c-0.5,0-0.9,0.6-3.5,2.3c0,4.6,0,10.6,0,16.6
		c0,89,0,177.9,0,266.9c0,37.2-18.6,55.9-55.6,56.1c-20.4,0.1-40.9,0-63.1,0c0-114,0-227,0-343.6c-49.3,0-96.9,0-144.5,0
		C0,1581.6,0,1549.9,0,1518.1z"/>
	<path class="st0" d="M3500,1569.2c-10-20-19.5-39.9-44.6-46.1c-20.2-5-45.5,1.1-54.4,19.7c-10.4,21.7-17,45.4-23.5,68.7
		c-8.1,29.3-38.4,58.6-68,63.4c-15.3,2.5-30.6,5.6-48.4,8.9c-0.4-8.7-1-14.7-1-20.6c-0.1-69.6-1.2-139.2,0.5-208.8
		c0.9-35.1-7.9-62.6-40.8-79.1c93.4,0,186.8,0,280.3,0C3500,1439.9,3500,1504.5,3500,1569.2z"/>
	<path class="st3" d="M3500,1865.2c-2.6-6.4-5.8-12.7-7.7-19.3c-10.8-37.1-30.3-69.6-52.2-100.9c-2.5-3.6-3.4-12.2-0.9-15
		c29.6-34.6,46.6-74.7,55.1-118.8c0.6-2.9,3.8-5.3,5.7-7.9C3500,1690.5,3500,1777.9,3500,1865.2z"/>
	<path class="st1" d="M2232.2,1715.4c0.6,73.6-22.2,124-59.4,170.3c-34.6,43.1-86.9,53.7-131.8,77.9c-70.5-1.3-138.9-8.7-194.9-58.7
		c-53.9-48.2-83.1-108-81.9-179.7c2-124.6,101.4-231.1,234.9-230.4C2129.7,1495.4,2234.4,1596.3,2232.2,1715.4z M1998.8,1841.4
		c49.6,2.6,99.3-35.3,111.2-81.4c1.2-4.8-3.4-11.1-5.4-16.8c-5.6,2.5-11.6,4.5-16.6,7.9c-2.3,1.5-2.5,6-3.7,9.2
		c-13.2,34.1-63.6,65.4-103.6,54.1c-33.5-9.5-56.4-29.7-68.4-61.9c-3.7-10-11.7-12.5-18.4-8.7c-4.2,2.4-7.4,13.5-5.5,18.6
		C1905.7,1808.9,1948.3,1842.8,1998.8,1841.4z M1914.5,1674.2c-0.1,2.2-0.1,4.4-0.2,6.6c6.3,0.2,15.3,3.1,18.6,0.1
		c10.3-9.7,18.7-6.2,28.9-1c4.4,2.2,10.6,1,16,1.3c-2-5.6-2.4-13-6.3-16.4C1954.8,1650.5,1931.2,1654.8,1914.5,1674.2z
		 M2082.3,1680.1c-0.9-6.7-0.5-9.4-1.4-9.8c-8.5-4.5-16.7-10.7-25.8-12.2c-12.7-2.2-26.8-1.8-34,12.2c-1.5,2.9,0.1,9.4,2.6,11.9
		c1.9,1.8,9,1.3,11.3-0.8c10.9-10.1,20.5-8.7,31.7-0.3C2069.9,1683.3,2076.9,1680.5,2082.3,1680.1z"/>
	<path class="st2" d="M434.8,1953.7c-0.1-139.5-0.3-279-0.3-418.5c0-17.6,11.1-27.8,30.8-28.1c36.4-0.5,72.9-0.4,109.4-0.2
		c35.9,0.2,71.9-1.6,107.6,1.5c62.2,5.4,116.6,29,144.6,88.2c31.1,65.6,25.4,130.3-20.6,188.6c-11.9,15-27.7,27-42.4,41.1
		c28.4,40,58.3,82.2,89.7,126.5c-5.8,0.8-9.9,1.8-13.9,1.9c-33.6,0.1-67.2,0.8-100.8-0.5c-7.3-0.3-16.5-6.2-21-12.2
		c-21.6-29.1-41.7-59.4-63-88.8c-3.1-4.2-9.8-8-15-8.2c-29-0.8-58-0.4-89.4-0.4c0,21.6-1.7,42.5,0.4,63
		c3.5,34.9-22.7,48.4-48.3,49.3c-21.6,0.8-43.3-0.2-64.9-0.4C436.6,1955.5,435.7,1954.6,434.8,1953.7z M553.7,1732.5
		c1.2,0.9,2.3,1.8,3.5,2.7c37,0.1,74,1.5,110.9,0c30.2-1.2,54.1-17.3,59-58.7c3-24.8-16.1-56.4-39.8-58.6
		c-44.2-4.2-88.8-4.3-133.6-6.1C553.7,1654.5,553.7,1693.5,553.7,1732.5z"/>
	<path class="st1" d="M2675.7,1731.9c2.5-63.1,22.4-117,65.9-161c23.9-24.2,59.7-25.3,81.6-3.4c22.5,22.5,21.1,59-0.3,83.2
		c-59,66.7-32.8,159.8,53.6,184.3c56.1,16,121.8-20.6,131.9-78.4c2.6-14.7,15.7-31.7,0.2-47.3c8.1-29.2-15.3-44.7-28.7-64.2
		c-13.5-19.7-18.9-39.8-7.9-61.5c11.1-22,29.9-32.1,55.1-31.8c14.2,0.2,24.3,2.3,35.3,14.4c29.5,32.3,50.5,68.2,61.2,110.4
		c1.4,5.7,4.7,10.9,6.8,16.5c1.3,3.4,3.2,7.1,3,10.6c-1.8,21.9-3.3,43.9-6.5,65.6c-1.6,10.8-6.2,21.2-10,31.5
		c-27.3,73.6-79,121.1-154.8,142.9c-10.1,2.9-19.4,8.6-29.5,10.7c-7.7,1.6-16.2-1.2-24.3-0.8c-70,4-125.1-27.5-171.4-75.1
		C2697.2,1838,2678.1,1786.9,2675.7,1731.9z"/>
	<path class="st1" d="M2649.7,1630.3c-17.1,35.9-59.3,46.6-90.4,19.7c-33.8-29.3-72.8-43.3-118.3-26.8c-39.6,14.3-61.6,43.4-72,82.4
		c-14.1,52.6,26.2,115.2,74,126.9c5.3,1.3,11,1.1,16.5,1.1c2.1,0,4.7-2.7,6.1-2c42,19.9,69.4-8.7,98.5-30
		c19.2-14.1,49-14.3,64.6-2.3c23.3,18,34,49.5,21.1,70.6c-4,6.6-9.7,12.3-15.1,18c-34.4,36.8-77.2,55.9-127,62.7
		c-62.4,8.5-118.3-7-166.6-44.9c-48.2-37.8-77-87.5-85.9-149.7c-15.5-107.5,53-204.7,145.9-239.6c21.5-8.1,46-8.1,69.1-11.8
		c9.3-1.5,18.6-3.1,27.9-4.7c2.7-0.5,5.8-2.2,7.9-1.4c25.9,9.8,52.9,17.6,77,30.6c22.4,12.1,43.5,28.1,61.7,45.8
		c13.7,13.3,14.1,33.3,7.5,51.9C2651.4,1627.9,2650.6,1629.1,2649.7,1630.3z"/>
	<path class="st1" d="M1342.8,1712.1c5.1-70.3,38.2-124.7,94.3-166.7c44.3-33.2,94.6-45.1,148.5-40.6c55.9,4.7,107.1,24,144.8,67
		c28.3,32.4,14.8,76.4-28.5,92.2c-22,8-38.8-1.7-54.7-15.6c-34.6-30.2-88.3-42-127.2-21.2c-58.2,31.1-86.5,100-44.5,162.9
		c36.4,54.5,112,70.4,168.6,18.9c20.7-18.9,43.3-23.9,67.8-13.6c21.4,9,31.8,27.5,31.6,51.4c0,5.8,3.2,11.5,5.1,17.7
		c-71.6,83.5-166.1,107.5-257.8,74.8c-81.9-29.2-145.1-107.3-148.1-203.5C1342.7,1728,1342.8,1720,1342.8,1712.1z"/>
	<path class="st2" d="M1005.7,1953.6c-0.2-106-0.4-211.9-0.6-317.9c0-6.2,0-12.4,0-20.4c-47.9,0-94.9,0-143.7,0
		c0-31.6-1-61.5,0.8-91.3c0.4-6,10.8-12.7,18-16.4c4.9-2.6,12.3-0.7,18.5-0.7c116.1,0,232.3,0,348.4,0c6.2,0,12.5,0,20.8,0
		c0,26.7,1.2,52.6-0.4,78.4c-1.1,16.9-17.1,28.8-35.9,29.2c-29,0.6-58.1,0.2-87.1,0.2c-6.1,0-12.3,0-20,0c0,7.9,0,14,0,20
		c0,88.4,0.2,176.8-0.3,265.2c-0.1,10.8-2,22.5-6.4,32.3c-7.9,17.7-24.8,23.9-42.8,24.5c-22.2,0.8-44.4-0.1-66.6-0.3
		C1007.5,1955.5,1006.6,1954.6,1005.7,1953.6z"/>
	<path class="st1" d="M1556.8,2122.4c-5-4.3-8.2-6.1-9.9-8.8c-13.1-19.7-28.7-31.6-55.1-28.2c-14.5,1.9-19.1-10-10.4-22.5
		c11.5-16.4,19.6-31.2,10.1-53.3c-7.7-17.9,1.1-25.3,20.4-18.7c18.8,6.5,33.5,5,48.2-8.8c4.3-4,14.1-4.6,20.5-3.1
		c2.9,0.7,6,10.7,5,15.8c-4.2,21.3,7.1,33.2,23,43.9c5,3.3,11.6,10.9,10.6,14.8c-1.5,5.7-8.7,13.2-14.2,13.9
		c-21.8,2.9-31.5,15.6-35.9,35.5C1567.6,2109.5,1561.6,2115,1556.8,2122.4z"/>
	<path class="st0" d="M1342.8,1712.1c0,7.9,0,15.9,0,23.8c-4-2.9-8-5.8-12-8.7C1334.7,1722.2,1338.7,1717.1,1342.8,1712.1z"/>
	<path class="st4" d="M3260.3,1803.8c-0.9-2.5-1.9-4.9-2.8-7.4c0.7-0.4,1.4-0.8,2.1-1.2c1.5,1.8,3,3.6,4.5,5.4
		C3262.9,1801.8,3261.6,1802.8,3260.3,1803.8z"/>
	<path class="st5" d="M3150.5,1902.2c-0.4,2.4-0.9,4.8-1.3,7.3C3149.6,1907,3150.1,1904.6,3150.5,1902.2z"/>
	<path class="st6" d="M2649.7,1630.3c0.8-1.2,1.7-2.4,2.5-3.6C2651.4,1627.9,2650.6,1629.1,2649.7,1630.3z"/>
	<path class="st7" d="M434.8,1953.7c0.9,0.9,1.8,1.9,2.7,2.8C436.6,1955.5,435.7,1954.6,434.8,1953.7z"/>
	<path class="st8" d="M1005.7,1953.6c0.9,0.9,1.7,1.9,2.6,2.8C1007.5,1955.5,1006.6,1954.6,1005.7,1953.6z"/>
	<path class="st9" d="M1998.8,1841.4c-50.5,1.4-93.2-32.4-110.4-79.1c-1.9-5.1,1.2-16.2,5.5-18.6c6.7-3.8,14.7-1.3,18.4,8.7
		c12,32.2,34.9,52.4,68.4,61.9c40,11.3,90.4-20,103.6-54.1c1.2-3.1,1.4-7.6,3.7-9.2c5-3.4,11-5.3,16.6-7.9
		c1.9,5.6,6.6,11.9,5.4,16.8C2098.2,1806.1,2048.4,1843.9,1998.8,1841.4z"/>
	<path class="st6" d="M1914.5,1674.2c16.7-19.3,40.3-23.7,56.9-9.4c3.9,3.4,4.3,10.8,6.3,16.4c-5.4-0.3-11.6,1-16-1.3
		c-10.2-5.2-18.6-8.7-28.9,1c-3.2,3.1-12.2,0.1-18.6-0.1C1914.3,1678.6,1914.4,1676.4,1914.5,1674.2z"/>
	<path class="st6" d="M2082.3,1680.1c-5.4,0.4-12.4,3.2-15.6,0.9c-11.2-8.3-20.8-9.8-31.7,0.3c-2.3,2.1-9.4,2.7-11.3,0.8
		c-2.5-2.4-4.1-8.9-2.6-11.9c7.3-14,21.3-14.3,34-12.2c9.1,1.5,17.3,7.7,25.8,12.2C2081.8,1670.7,2081.5,1673.4,2082.3,1680.1z"/>
	<path class="st0" d="M553.7,1732.5c0-39,0-78,0-120.7c44.8,1.8,89.4,1.9,133.6,6.1c23.7,2.2,42.7,33.9,39.8,58.6
		c-5,41.4-28.8,57.5-59,58.7c-36.9,1.4-73.9,0.1-110.9,0C556,1734.3,554.8,1733.4,553.7,1732.5z"/>
	<path class="st10" d="M553.7,1732.5c1.2,0.9,2.3,1.8,3.5,2.7C556,1734.3,554.8,1733.4,553.7,1732.5z"/>
</g>
</svg>
