<?xml version="1.0" encoding="utf-8"?>
<!-- Generator: Adobe Illustrator 27.7.0, SVG Export Plug-In . SVG Version: 6.00 Build 0)  -->
<svg version="1.1" id="Layer_1" xmlns="http://www.w3.org/2000/svg" xmlns:xlink="http://www.w3.org/1999/xlink" x="0px" y="0px"
	 viewBox="0 0 3500 3500" style="enable-background:new 0 0 3500 3500;" xml:space="preserve">
<style type="text/css">
	.st0{fill:#15253F;}
	.st1{fill:#FFFFFF;}
	.st2{fill:#FAB001;}
</style>
<rect class="st0" width="3500" height="3500"/>
<path class="st1" d="M2171.6,1901.2c2.7,40.8,17.2,68.8,53.7,79.7c21.9,6.5,45,11.7,67.7,12.3c65.7,1.6,131.4,0.6,197.2,0.6
	c13.9,0,27.8,0,43.3,0c2.4,12.6,5.3,21.1,5.5,29.5c0.5,34.8,1,69.6-0.2,104.3c-0.8,24.1-7.6,32.1-29.3,31.8
	c-113.2-1.4-227.3,10.3-339.2-12.2c-95.7-19.2-161.4-74.2-184.6-173.7c-23.3-99.9-22.2-199.5,3.7-297.8
	c19.6-74.5,69-126.7,144.3-147c101.2-27.4,204.1-27.5,304.9,2c81.8,24,126.4,79.2,134.3,173.1c3.4,40.2,0,80-19.4,116.3
	c-30.1,56.2-82.5,75.8-141.6,78.1c-66.9,2.7-134,0.7-201,1C2198.5,1899.2,2186.2,1900.4,2171.6,1901.2L2171.6,1901.2z
	 M2169.9,1773.9c4.6,2.7,7.9,6.2,11.2,6.2c56.6,0.3,113.3,0.7,169.9-0.5c9-0.2,19.9-6.4,26.3-13.2c20.3-21.5,16.4-48.7,8.9-73
	c-7-22.7-23.9-40.5-50.5-41.4c-32.1-1.1-64.3-1.1-96.5-0.1c-22.1,0.6-37.9,13.6-50.8,30.7c-20.9,27.8-19.9,59.5-18.6,91.3H2169.9z"
	/>
<path class="st1" d="M1272.9,1513.7h185.2v97.3c26.2-18,45.9-30.7,64.7-44.6c51.3-37.6,109.6-59.7,171.8-62.8
	c71-3.5,143.2,17,172.7,89.9c9.9,24.4,15.4,52.2,15.7,78.6c1.5,149.5,0.9,299.1,0.6,448.6c0,34.8-4,38.6-37.3,39
	c-40,0.5-80,0.3-119.9,0c-8.7,0-17.5-2.2-29.7-3.8c-1.2-16-3.2-31-3.3-45.9c-0.3-113.4-0.1-226.9-0.2-340.3c0-9-0.4-18.1,0-27.1
	c3.2-74.7-39.3-84.5-94.5-69.2c-38.8,10.8-74.2,33.8-111.4,51c-23.1,10.7-29.2,28.5-28.9,53.2c1.1,110.9,0.6,221.7,0.3,332.6
	c0,15-2,30-3.3,49.4c-57,0-110.8,0.1-164.6,0c-12.5,0-18.5-7.9-19.6-19.6c-0.7-7.7-0.8-15.4-0.8-23.2c0-189.5,0-379,0-568.5
	c0-10.1,1.3-20.2,2.3-34.6L1272.9,1513.7z"/>
<path class="st1" d="M494.5,1512.5c69.9-1.3,133.5-2.7,199,1.2c49.8,160.5,99,319.1,151.3,487.6c9.4-16.9,16.2-25.4,19.3-35.1
	c22.7-70.8,44.9-141.8,66.9-212.9c21.9-71,43.1-142.3,65.3-213.2c4.2-13.5,10.3-28,27.8-28.1c56.4-0.5,112.9-0.2,170.6-0.2
	c5.5,35-12.7,60.7-21.3,87.5c-27.1,84.1-57.7,167-87,250.3c-30.6,87-61.9,173.8-91.8,261c-11.3,33-35.9,47.1-67.2,48.3
	c-51.5,2-103.2,1.6-154.7,0.2c-33.9-0.9-59.6-18.2-71-50.5c-23.1-65.2-44-131.2-66.5-196.6c-21.6-63-44.1-125.7-66.2-188.6
	c-18.7-53.2-37.2-106.3-55.9-159.5c-5-14.3-10.2-28.6-18.5-51.7L494.5,1512.5z"/>
<path class="st1" d="M360.3,1508.8c12.9,1.1,23.1,3.4,32.9,2.4c19.1-2,29.2,8.1,34.7,23.9c12.7,36.2,24.8,72.5,36.3,109
	c2.1,6.8,0.3,14.9,0.3,27.8c-23.5,0.7-46.1,1.4-68.7,1.9c-34.9,0.8-37,2.4-37.2,37.7c-0.3,73.4-0.5,146.8,0.1,220.3
	c0.4,44.4,17,60.7,60.5,61.7c24.2,0.6,48.3,0.1,77.1,0.1c1.9,56.5,1.4,108.3,0.3,161.7c-13.3,2-21.9,4.6-30.5,4.3
	c-57.7-2.2-115.6,6-173-8.8c-46.9-12.1-81.7-37.9-101.6-81.1c-12.2-26.6-20-54.8-19.9-85.6c0.9-198.4,0.4-396.7,0.5-595.1
	c0-39.8,2.1-41.9,41.1-42.3c38.7-0.4,77.3-0.5,116,0.2c25.2,0.5,28.5,3.9,29.2,29.7c0.8,30.9,0,61.8,0.3,92.7
	c0,12.6,1,25.2,1.7,39.4L360.3,1508.8z"/>
<path class="st1" d="M2670.2,1347c60.2,0,112.9-0.2,165.5,0.1c17,0.1,21.1,12.1,21.2,26.4c0.1,29.7,0.1,59.3,0.2,89
	c0,14,0,28,0,46.1c27.5,2,52.3,3.8,81,5.9c4.1,48.6,2.8,94.6,0.9,140.5c-0.6,14.1-12.3,18.5-25.1,18.7c-16.5,0.2-33,0-51.8,0
	c-2.1,14.1-4.8,23.8-4.8,33.5c-0.4,74.8-0.5,149.6,0,224.4c0.3,46.1,16.4,61.4,63.9,62c23,0.3,46,0,73.6,0
	c1.5,55.8,3.4,107.7-1.1,157.1c-5.7,4-7.7,6.6-9.8,6.7c-62.9,1.6-125.8,8.2-188.4-6.2c-82.4-19.1-113.8-77.3-123.9-144.5
	c-1.9-12.7-1.1-25.7-1.1-38.6c0-190.9,0-381.7,0-572.6c0-13.9,0-27.7,0-48.5H2670.2z"/>
<path class="st2" d="M3304,1999.1v143.2c-44.4,3.6-88.2,3.2-134.6-0.3v-140.7C3212.5,1996.2,3255.6,1999.5,3304,1999.1L3304,1999.1z
	"/>
<path class="st0" d="M2169.9,1773.9c-1.3-31.8-2.3-63.5,18.6-91.3c12.9-17.2,28.7-30.1,50.8-30.7c32.1-0.9,64.4-1,96.5,0.1
	c26.6,0.9,43.5,18.7,50.5,41.4c7.5,24.3,11.4,51.5-8.9,73c-6.4,6.8-17.3,13-26.3,13.2c-56.6,1.2-113.3,0.8-169.9,0.5
	c-3.3,0-6.6-3.5-11.2-6.2H2169.9z"/>
</svg>
