<?xml version="1.0" encoding="utf-8"?>
<!-- Generator: Adobe Illustrator 27.7.0, SVG Export Plug-In . SVG Version: 6.00 Build 0)  -->
<svg version="1.1" id="Layer_1" xmlns="http://www.w3.org/2000/svg" xmlns:xlink="http://www.w3.org/1999/xlink" x="0px" y="0px"
	 viewBox="0 0 3500 3500" style="enable-background:new 0 0 3500 3500;" xml:space="preserve">
<style type="text/css">
	.st0{fill:#FFFFFF;}
	.st1{fill:#F8140C;}
</style>
<path class="st0" d="M1368.5,2450.5h-200c3.1-10,5.4-18.9,8.6-27.5c37.4-101.7,77.9-202.2,124-300.3c6.9-14.6,15.2-19.4,31.1-18.9
	c44,1.3,88.1,0.8,132.1,1.1c6.2,0,12.3,0,20.9,0c37.8-167.4,75.5-334.3,113.8-503.5c40.6-1.7,81.3,0.2,124.1-1.2
	c7.6-32.8,15.3-65.7,23.3-100h-51.1c-3.5,13.7-6.9,27.3-10.8,42.7h-123.7c-38.1,167.9-75.8,334.4-114,502.9
	c-76,1.8-152-0.6-230.2,0.1c-6.1-41.4-12.1-82.1-18.2-123.7c-6.5-0.4-12-0.9-17.4-0.9c-56.5,0-112.9,0.4-169.4-0.4
	c-12.5-0.2-18.9,4.5-24.8,14.7c-19.4,33.2-40,65.6-59.4,98.7c-5,8.5-10.6,12-20.7,11.8c-34.7-0.6-69.4-0.2-107.2-0.2
	c7.1-12.5,13-22.9,18.9-33.3c-0.5-0.6-1-1.2-1.5-1.8c-1.8,1.6-3.8,3.1-5.5,4.8c-50.6,50-112.7,71.2-182.4,69.9
	c-80.6-1.4-152.9-28.4-216.7-77.6c-11.7-9-22-19.9-34.6-31.5c19.8-18.1,39.8-33.3,60.1-50.2c6.3,5.6,12.2,10.8,18.1,16
	c33,29.1,71.1,48.1,115.1,51.4c73,5.5,144.8-51.8,159-124.2c7.5-38.4,0.9-75.3-9.5-111.8c-14.3-50-30.5-99.4-44.3-149.5
	c-6.2-22.6-11.3-46.1-12.3-69.3c-2.6-63.9,22-117.4,70.1-159.3c38.6-33.7,84.8-50.5,135.6-55c56.1-5,110,4.5,161.8,26.1
	c29,12,54.2,29.2,75,54.5c-17.7,14.8-34.7,29-52.4,43.8c-5.8-3.6-11.1-6.7-16.1-10c-22.6-14.6-47-24.8-73.6-29.6
	c-72.9-13.2-144.7,43.3-149.1,117.4c-2.4,39.7,6.3,77.6,17.5,115.1c12.1,40.3,26,80.1,36.7,120.7c11.9,45.3,15.1,91.6,5.9,138.1
	c-1.5,7.8-4,15.5-4.6,24.2c4.2-6.6,8.6-13.1,12.6-19.8c89.4-149.4,179-298.6,267.9-448.3c7.2-12.1,14.6-17.7,29.2-16.8
	c22.7,1.4,45.6,0.4,69.7,0.4c27.7,188.7,55.2,375.8,82.7,562.9c1,0,2-0.1,3-0.2c34.4-152,68.7-304.1,103.7-458.6
	c-41-2.4-80.4,0-122-1.5c4-35.3,14.6-67.9,21.4-103c7.5,0,14.2,0,20.8,0c105.5,0,211-0.3,316.4,0.3c13.4,0,21-4.1,28.3-15.3
	c41.8-63.7,84.5-126.9,126.6-190.4c9.2-13.9,17.3-28.6,25.7-43.1c2.5-4.3,4.2-9,5.9-13.6c6.8-19,1.4-28-18.4-27.7
	c-16,0.3-32.2,2.3-48,5.2c-128.6,23.6-255.7,54.1-381.7,89.1c-28.6,8-57.3,15.7-88.4,24.2c-21.7-36-43.6-72.3-66.7-110.6
	c10.5-4.5,19.1-9.4,28.4-12.1c52.4-15,104.4-31.8,157.5-43.7c84.6-19,169.7-36.1,255.1-51.1c69-12.1,139-19,209.3-16
	c28.3,1.2,56.5,6.7,84.7,10.6c5.4,0.8,10.7,3,15.9,4.9c28.7,10.8,37,25.2,32.6,55.9c-4.3,30.3-14.5,58.8-26.3,86.8
	c-23.1,54.9-52,106.8-81.8,158.3c-107,185-213.8,370-320.7,555.1c-59,102.2-104.3,210.8-150.1,319.1
	c-28.7,67.8-57.2,135.8-85.8,203.6C1375.3,2436.2,1372.1,2442.9,1368.5,2450.5L1368.5,2450.5z M1162,1617.8c-1.2,0-2.3,0.2-3.5,0.3
	c-36.1,68.9-72.1,137.9-108.5,207.4c29.9,3.2,123.9,2.1,137.2-1.5c-8.4-68.7-16.8-137.4-25.3-206.2L1162,1617.8z"/>
<path class="st1" d="M2380.4,1086.7c-22.9-91.2-79-155.5-163.1-196c-52.6-25.3-108.9-36.7-166.6-41.9c-8.5-0.8-16.8-2.7-25.2-4.1
	h-93.1c-4.7,1.1-9.4,2.8-14.2,3.2c-19.1,1.7-38.4,1.9-57.4,4.6c-55.2,7.7-110.5,14.5-165.2,24.8c-110.9,20.9-219,52.9-325.2,90.8
	c-94.5,33.7-189,67.7-277.2,116.3c-41.8,23-83.7,45.9-125,69.8c-134.4,77.6-263.9,162.4-381.1,264.9
	c-103.3,90.4-201.2,186.1-289.4,291.4c-88.7,105.9-166,219.3-224,345c-31.3,67.7-56.2,137.4-67.8,211.4c-1.7,10.8-3.9,21.5-5.9,32.3
	v67c1.3,4,3.3,7.8,3.8,11.9c11.6,92.2,55.8,164.3,134,214.7c56.5,36.4,120,52.1,186,59c49.5,5.2,98.9,4.5,148.6,1.1
	c76.8-5.2,152.7-16.6,227.9-32.8c130.5-28,257.2-68.5,381.7-116.1c10.9-4.2,21.7-8.4,35.5-13.8c-5.2-0.6-6.9-1.1-8.6-1
	c-3.1,0.2-6.2,0.6-9.2,1.2c-113.9,22.9-228.8,36.2-345.1,37.3c-100,0.9-199.6-3.4-297.9-23.5c-52.4-10.7-103.2-26-150.5-51.8
	c-47.4-25.9-81.6-63.3-103.5-112.9c-31.5-71.2-34.7-145.1-23.1-220.4c11-70.8,34.4-137.9,64.3-202.9
	c50.8-110.2,120.2-208,200.9-297.9c130.4-145.1,277.1-271.5,440.8-377.8c51.4-33.4,105-63.5,157.4-95.4
	c75.5-45.9,155.4-82.9,237.8-113.6c105-39.1,212.7-70.5,322.7-93.1c102.5-21.1,205.7-31.3,310.4-20.2c52,5.5,102.9,15.9,151.7,34.7
	c75.8,29.3,137.3,76.1,177.2,148.4c41,74.4,47.4,153.9,34.2,236.2c-11,68.4-34.2,132.9-63.6,195.3
	c-80.5,170.5-195.2,316.3-325.5,450.9h7.6c2.5-2.5,4.9-4.9,7.2-7.3c49.2-51.6,99.9-101.9,147.2-155.1
	c90.9-102.2,170.7-212.6,236.2-332.9c41.9-76.9,77.1-156.6,93.9-243.3c10.3-52.8,13.3-105.8,0.1-158.4L2380.4,1086.7z"/>
<path class="st0" d="M3393.6,2554.2c-38.3,1-76.6,2-114.9,3c-7.1,0.2-14.7,0.3-20.8-3.4c-6.2-3.8-9.6-10.7-12.8-17.2
	c-30.4-63-64.5-124.1-102.1-183c-32.4,13.4-53.2,45.9-64.1,79.3c-10.9,33.3-13.9,68.7-22.3,102.8c-1.7,6.7-4,14-10,17.4
	c-3.9,2.2-8.6,2.3-13.1,2.3c-74.5,0.6-149,1.2-223.5,1.8c-6.5,0-13.4,0-19-3.2c-6.3-3.6-9.8-10.5-13-16.9c-23-46.7-46-93.4-69-140
	c-5-10.1-10.8-21-21.1-25.6c-6.5-2.9-13.9-2.7-21-2.5c-9.8,0.3-19.5,0.5-29.3,0.8c-6.1,0.2-12.6,0.5-17.3,4.4
	c-4.4,3.7-5.9,9.7-7.2,15.3c-11.7,49.9-23.4,99.8-35.2,149.6c-1.2,5.3-2.8,11-7.3,14.1c-3.4,2.3-7.7,2.5-11.8,2.6
	c-32.6,1.1-65.1,2.3-97.7,3.4c-3.2,0.1-6.9,0-8.8-2.7c-1.5-2.2-1-5.1-0.4-7.7c37.4-162.3,74.8-324.6,112.2-486.9
	c0.8-3.6,1.8-7.4,4.7-9.6c2.8-2.1,6.6-2.2,10.1-2.2c41.7,0.5,83.4,1,125.1,1.4c44.6,0.5,89.4,1,133.2,9.6
	c26.7,5.2,53.6,13.8,74.6,31.2c39.9,33,50.3,93.7,31.5,141.9s-62.2,84-110.4,102.9c-6,2.3-12.9,5.4-14.2,11.7
	c-0.8,4.2,1.3,8.4,3.4,12.1c30.1,54.8,60.1,109.5,90.2,164.3c3.6,6.5,10.4,14.1,16.9,10.5c3.4-1.9,4.6-6.2,5.5-10
	c34.6-151,67-302.6,97.1-454.5c1.5-7.8,3.7-16.5,10.6-20.6c4.7-2.8,10.5-2.6,16-2.3c33.5,1.7,66.9,3.5,100.4,5.2
	c2.2,0.1,4.7,0.3,6.4,1.7c3.2,2.6,2.3,7.7,1.2,11.7c-18.2,62.5-34.1,125.7-47.5,189.4c-1.5,6.9-0.2,17.2,6.8,16.8
	c2.9-0.1,5.2-2.4,7.2-4.5c46.8-48.4,93.6-96.8,140.4-145.2c11.4-11.8,22.8-23.6,34.2-35.4s22.8-29.5,35.9-37.1
	c20.1-11.7,55.4-0.2,77.4,0.7c26.3,1.1,52.5,2.1,78.8,3.2c-81,73.3-162,146.5-243,219.8c-4.2,3.8-8.7,8-9.8,13.6
	c-1.2,6.2,2,12.3,5.2,17.8c47.2,82.8,94.3,165.5,141.5,248.3h-0.3L3393.6,2554.2z M2718,2143.6c0,0.2,0,0.4,0,0.6
	c-20.6,1.5-50.6-7.9-53.7,21c-8.1,33.8-15,68-23.1,101.7c-4.5,12.8-0.8,19.9,13.1,19.6c41.7-2.1,86.3,1,123.4-21.4
	c50.4-25.5,58.8-110.1-7.9-118.3c-17.1-2-34.5-2.2-51.7-3.3L2718,2143.6z"/>
<path class="st0" d="M1712.6,2052.5c52,0.8,103.9,2.5,155.9,1.8c51.6-0.7,103-2.4,154.7-2.1c14.6,0,17.6,3.1,14,17
	c-6.1,23.7-13.2,47.2-19.6,70.8c-2,7.2-7.3,7.1-12.9,7.1c-42.8,0.2-85.6-0.3-128.4,0c-14.5,0.2-16.9,2.8-20.2,16.7
	c-4,16.7-8.6,33.3-12.9,50c-20,87.7-38.7,175.6-59.7,263.1c-24.9,88.6,5.2,76.9-71.8,78.7c-20,0.8-40,2.4-60,3.2
	c-12.2,0.5-13.6-0.7-13-13c0.4-7.1,2.1-14.3,3.7-21.3c20.7-104,47.2-207.8,75-310.3c2.4-8.9,4.8-17.7,7.3-26.5
	c1.7-6,6.3-14.7,6.3-20.8c3.6-15.2-0.8-20-16.9-19.7c-42.8,0.8-85.6,1.9-128.3,3.2c-8.5-0.5-10.7-2.6-8.8-11.2
	c5.7-25.6,12.1-51.1,18.1-76.7c1.6-7.1,6.9-7.7,12.5-7.9c35-1,70.1-3,105.1-2.6c0,0,0,0.2,0,0.3L1712.6,2052.5z"/>
<path class="st0" d="M2166.7,2143.6c1.1-1.4,1.8-3.2,2.4-5.2c6.3-23.1,12.9-46.1,19.4-69.1c3.8-13.7,0.3-17.5-14-17.6
	c-32.6,0-57.7-0.2-90.3,0c-13.5,0.1-16.5,3.5-18.5,16.6c-3.8,24.7-15.6,49.3-19.8,75.2h120.7L2166.7,2143.6z"/>
<path class="st0" d="M2498.3,2051.6c-33.4-6.4-64.6-2.2-98.8-3.9c-4-0.2-6.7-0.4-10.4,1.1c-7.2,2.8-9.4,11.5-10.4,18.1
	c-2.7,17.2-11.4,34.4-15.1,51.4c-1,7.5-6.8,18.6-5.9,25.3h127.8c1.7-1.7,2.8-4.1,3.7-7.3c6.2-23.1,13-46.1,19.7-69.2
	c2.9-9.9-2.5-13.9-10.5-15.5H2498.3z"/>
<path class="st0" d="M2348.5,2180.6c-4.5,11.8-4.4,29-8,38.8c-4.9,21.5-10.1,43-15.2,64.5c-22.8,88.3-23.8,190.8-141,190.3
	c-92.7-0.9-74.2-87.8-57.2-149.8c13-48.7,22.9-94.9,36.3-143.7h-126.3c-3.2,6.5-4.1,15-6.9,21.5c-16.5,49.2-27.6,100.1-39.9,150.3
	c-19.1,66.5-15.6,153.7,55.3,186.6c17.9,9.4,37.6,13,56.2,19.7c36.3,12.6,73.5,6.8,110.8,8.3c16.6,0.5,32.6-1,48-7.7
	c26-6.5,52.3-12.3,74.8-27.5c83.1-49.2,96.9-151.6,117.1-237.5c3.9-16.8,7.3-33.7,11.3-50.5c2.8-15.7,7-31.1,10.7-46.7
	c2.8-11.7,5.9-14.9-5-16.4c-14.3-2-30.3,0-44.7,0s-74.6-4.3-76.3,0L2348.5,2180.6z"/>
</svg>
